<?xml version="1.0" encoding="utf-8"?>
<!-- Generator: Adobe Illustrator 22.0.1, SVG Export Plug-In . SVG Version: 6.00 Build 0)  -->
<svg version="1.1"
	 id="svg2" xmlns:cc="http://creativecommons.org/ns#" xmlns:dc="http://purl.org/dc/elements/1.1/" xmlns:rdf="http://www.w3.org/1999/02/22-rdf-syntax-ns#" xmlns:svg="http://www.w3.org/2000/svg"
	 xmlns="http://www.w3.org/2000/svg" xmlns:xlink="http://www.w3.org/1999/xlink" x="0px" y="0px" viewBox="0 0 640 640"
	 enable-background="new 0 0 640 640" xml:space="preserve">
<g id="g14">
	<circle fill="#1E1E1E" cx="320" cy="320" r="287.5"/>
	<path fill="#FFFFFF" d="M421.526,143.462c-30.914-14.153-127.676-27.409-168.768-23.12c-17.763,1.855-36.008,6.171-41.695,9.864
		c-1.602,1.041,9.854,3.993,29.578,7.619c17.705,3.256,30.609,6.23,28.672,6.609c-1.936,0.378-29.759-2.68-61.829-6.795
		c-56.3-7.224-58.448-7.355-62.369-3.806c-8.176,7.399-19.94,27.624-22.361,38.446c-2.345,10.478-2.18,11.691,3.036,22.354
		c8.891,18.174,25.426,31.398,63.049,50.426c17.791,8.999,31.916,16.792,31.389,17.32c-0.528,0.527-15.71-5.141-33.739-12.598
		l-32.781-13.556l-48.101,13.461c-18.234,5.103-50.124,14.006-68.545,19.049c-2.951,16.397-4.508,33.277-4.552,50.513
		c-0.001,0.596,0.003,1.191,0.004,1.787c0.294,83.066,35.816,157.821,92.404,210.126c31.431-38.434,77.785-93.432,79.252-93.114
		c1.271,0.275,48.415,20.304,104.763,44.508c96.236,41.337,102.62,43.783,105.221,40.295c3.936-5.272,17.49-33.626,24.66-51.581
		l6.083-15.234l-10.247-5.604c-14.523-7.941-35.823-25.628-49.16-40.82c-12.171-13.864-34.124-47.312-34.124-51.995
		c0-1.55,6.975,5.496,15.501,15.658c23.949,28.544,79.134,73.208,82.6,66.851c4.112-7.542,6.771-29.81,6.639-55.611
		c-0.16-31.499-4.29-56.02-15.131-89.867l-6.076-18.966l-30.038-9.443c-16.521-5.193-33.083-10.399-36.804-11.569
		c-12.978-4.08-4.859-3.86,14.141,0.382c22.716,5.073,45.791,9.358,60.08,11.156c12.581,1.582,15.349-0.885,16.694-14.886
		c1.716-17.851-9.804-67.152-21.426-91.699C432.906,149.826,430.812,147.714,421.526,143.462z"/>
</g>
</svg>
