<?xml version="1.0" encoding="utf-8"?>
<!-- Generator: Adobe Illustrator 22.0.1, SVG Export Plug-In . SVG Version: 6.00 Build 0)  -->
<svg version="1.1" id="Layer_1" xmlns="http://www.w3.org/2000/svg" xmlns:xlink="http://www.w3.org/1999/xlink" x="0px" y="0px"
	 viewBox="0 0 512 512" style="enable-background:new 0 0 512 512;" xml:space="preserve">
<style type="text/css">
	.st0{fill:#E84C3D;}
	.st1{fill:#2D98E0;}
</style>
<g>
	<g>
		<g>
			<g id="g22">
			</g>
		</g>
	</g>
	<g>
		<g>
			<g id="g84">
			</g>
			<g id="g10" transform="matrix(1.25,0,0,-1.25,0,640)">
				<g id="g226">
					<g>
						<g id="g228">
							<g id="g234" transform="translate(308.1308,356.4218)">
								<path id="path236" class="st0" d="M53.4-237.7c0,0-157.5,39.3-82.3,126c22.2,25.6-5.8,48.5-5.8,48.5s56.3-29.1,30.5-65.5
									C-28.4-162.7-46.9-179.6,53.4-237.7"/>
							</g>
							<g id="g238" transform="translate(256.348,342.6598)">
								<path id="path240" class="st0" d="M2.3-196.6c93.1-73.5,45.3-121.3,45.3-121.3c19.3,75.9-68,98.9-99.5,146.2
									c-21.4,32.2,10.5,66.9,54.1,106.2C-14.8-104-72.4-137.6,2.3-196.6"/>
							</g>
							<g id="g242" transform="translate(225.6349,224.7607)">
								<path id="path244" class="st1" d="M-28.1,155.7c-70.7,19.8,43,60.6,133.1,22c-14.7-5.7-25.3-12.4-25.3-12.4
									c-40.2,7.6-58.8,8.2-95.2,4C-45.7,165.9-28.1,155.7-28.1,155.7"/>
							</g>
							<g id="g246" transform="translate(287.1492,244.1492)">
								<path id="path248_2_" class="st1" d="M-90.2,103.6c-30.1-3.1-10.4-17.7-10.4-17.7c-77.9,25.9,43.4,55.2,152.2,23.3
									C40,105.2,32.7,97.7,32.7,97.7"/>
								<path id="path248_1_" class="st1" d="M32.7,97.7"/>
							</g>
							<g id="g250" transform="translate(220.0972,250.0885)">
								<path id="path252" class="st1" d="M-33.6,80"/>
							</g>
							<g id="g254" transform="translate(326.6582,206.0241)">
								<path id="path256" class="st1" d="M71.7,211.7c0,0,13,10.7-14.3,19c-52,15.7-216.3,20.5-262,0.6
									c-16.4-7.1,14.4-17,24.1-19.1c10.1-2.2,15.9-1.8,15.9-1.8c-18.3-12.9-118,25.2-50.6,36.2
									C-31.7,276.3,119.4,233.2,71.7,211.7"/>
							</g>
							<g id="g258" transform="translate(294.9205,262.2432)">
								<path id="path260" class="st1" d="M40.4,43.7c8.8-6,21-11.3,21-11.3s-34.7,6.2-69.3,9.1c-42.4,3.6-87.8,4.3-110.6,1.2
									c-54-7.2,29.6-27.1,29.6-27.1s-32.5-2.2-72.4,17.1C-208.5,55.6-44.5,66,40.4,43.7"/>
							</g>
							<g id="g262" transform="translate(305.3187,234.1745)">
								<path id="path264" class="st1" d="M50.7,127.6c-0.4,1.1-1.7,2.3-1.7,2.3C164.2,99.5,121.8,23,66.7,42.4
									c-4.8,1.7-7.4,5.7-7.4,5.7s3.1-1.2,9.9-2.7C97,39.6,137,82.7,50.7,127.6"/>
							</g>
							<g id="g266" transform="translate(306.8857,180.8394)">
								<path id="path268" class="st1" d="M52.2,286.9c-70.7,13.3-157.9,11.8-209.6,3.2c0,0,10.6,8.8,65,12.3
									c82.8,5.3,210.1-2.9,213.1-42.1C120.7,260.3,114.9,275.1,52.2,286.9"/>
							</g>
						</g>
					</g>
				</g>
			</g>
		</g>
	</g>
</g>
</svg>
