<?xml version="1.0" encoding="utf-8"?>
<!-- Generator: Adobe Illustrator 22.0.1, SVG Export Plug-In . SVG Version: 6.00 Build 0)  -->
<svg version="1.1" id="Layer_1" xmlns="http://www.w3.org/2000/svg" xmlns:xlink="http://www.w3.org/1999/xlink" x="0px" y="0px"
	 viewBox="0 0 512 512" enable-background="new 0 0 512 512" xml:space="preserve">
<g>
	<path fill="#CFFFF6" d="M264.233,394.441l-148.438,45.436c-6.311,1.932-13.055-1.651-14.987-7.962L23.188,178.33
		c-1.932-6.311,1.651-13.055,7.962-14.987l148.438-45.436c6.311-1.932,13.055,1.651,14.987,7.962l77.621,253.585
		C274.127,385.765,270.544,392.509,264.233,394.441z"/>
	<path fill="#FFDECF" d="M289.35,376.24l-154.287-17.136c-6.56-0.729-11.331-6.692-10.602-13.251l29.274-263.578
		c0.729-6.56,6.692-11.331,13.251-10.602l154.287,17.136c6.56,0.729,11.331,6.692,10.602,13.251l-29.274,263.578
		C301.873,372.197,295.91,376.968,289.35,376.24z"/>
	<path fill="#FFFECC" d="M330.102,425.533l-128.11-87.67c-5.447-3.727-6.853-11.233-3.126-16.68l149.771-218.858
		c3.727-5.447,11.233-6.853,16.68-3.126l128.11,87.67c5.447,3.727,6.853,11.233,3.126,16.68L346.782,422.406
		C343.054,427.853,335.548,429.26,330.102,425.533z"/>
</g>
</svg>
