<?xml version="1.0" encoding="utf-8"?>
<!-- Generator: Adobe Illustrator 22.0.1, SVG Export Plug-In . SVG Version: 6.00 Build 0)  -->
<svg version="1.1" id="Layer_1" xmlns="http://www.w3.org/2000/svg" xmlns:xlink="http://www.w3.org/1999/xlink" x="0px" y="0px"
	 viewBox="0 0 512 512" enable-background="new 0 0 512 512" xml:space="preserve">
<circle fill="#233308" cx="256" cy="256" r="230"/>
<g>
	<defs>
		<circle id="SVGID_1_" cx="256" cy="256" r="230"/>
	</defs>
	<clipPath id="SVGID_2_">
		<use xlink:href="#SVGID_1_"  overflow="visible"/>
	</clipPath>
	<g id="path260" clip-path="url(#SVGID_2_)">
		<path fill="#E5E5E5" d="M292.319,46.998l-2.665,24.93l-7.631,9.636l-33.738-24.491l-7.698-86.56l-2.49,0.22l7.504,84.393
			l-43.263-31.406l1.996-52.205l-2.499-0.095l-1.933,50.532l-57.81-41.968c-0.926,0.21-1.849,0.421-2.771,0.636l0,0l-0.21,0.289
			l60.677,44.049l-5.606,146.611L76.53,13.9l0.484-9.486l-2.496-0.127l-0.33,6.475l-3.831-5.135l-2.004,1.496l5.635,7.552
			l-5.052,99.207L21.423,42.004c-0.561,0.66-1.124,1.321-1.678,1.995l0,0l48.975,74.092l-8.449,165.893L1.927,71.474L1.431,71.61
			c-0.458,0.841-0.916,1.679-1.364,2.533l0,0L59.865,291.95l-1.283,25.17l-84.38,47.735c0.07,0.306,0.139,0.614,0.21,0.919l0,0
			l0.785,1.389l83.236-47.085l-2.385,46.819L-0.02,437.694c0.423,0.809,0.859,1.599,1.289,2.398l0,0l54.56-68.891l-6.296,123.635
			c0.806,0.546,1.596,1.102,2.419,1.64l0,0l6.552-128.652l16.48-20.809l49.585,180.61c0.93,0.258,1.865,0.511,2.801,0.761l0,0
			L76.909,344.583l50.155-63.33l36.035-20.385l26.157,39.573l-9.115,238.405c0.83,0.114,1.658,0.23,2.489,0.34l0,0l8.992-235.168
			l63.034,95.36l-11.771,110.124l-34.855,32.347c1.134,0.089,2.272,0.164,3.41,0.247l0,0l31.041-28.809l-3.216,30.092
			c0.836,0.016,1.67,0.044,2.507,0.056l0,0l3.499-32.737l37.726-35.013l4.504,50.649l-9.081,16.396
			c0.984-0.051,1.966-0.102,2.948-0.16l0,0l6.53-11.79l1.004,11.29c0.831-0.061,1.665-0.11,2.494-0.175l0,0l-1.335-15.02
			l22.281-40.23l31.878,48.224c0.886-0.17,1.779-0.331,2.661-0.506l0,0l-33.171-50.184l42.155-76.116l6.899-6.401l57.136,76.569
			l-5.489,35.936c0.906-0.386,1.81-0.773,2.706-1.165l0,0l4.883-31.959l16.048,21.505c0.733-0.416,1.454-0.84,2.176-1.263l0,0
			l-17.694-23.712l19.299-126.348l49.707,101.145c0.524-0.822,1.045-1.652,1.561-2.49l0,0l-50.608-102.98l3.421-22.404
			l43.053-39.955l26.511,116.788c0.518-1.506,1.034-3.014,1.534-4.541l0,0l-25.926-114.213l27.908-25.899l18.315,13.296
			c0.028-1.014,0.051-2.026,0.071-3.04l0,0l-16.517-11.991l16.394-15.213c-0.034-1.101-0.083-2.2-0.122-3.299l0,0l-18.334,17.015
			l-41.099-29.835l-5.719-25.196l45.414-81.997c-0.35-1.086-0.699-2.174-1.059-3.249l0,0l-45.186,81.586l-3.237-14.265L483.3,79.729
			l15.056-8.517c-0.399-0.731-0.788-1.476-1.193-2.199l0,0l-13.384,7.571l3.554-23.265c-0.686-0.978-1.389-1.921-2.089-2.874l0,0
			l-4.232,27.705l-32.2,18.216l-20.96-92.334c-0.964-0.482-1.914-0.974-2.891-1.445l0,0l21.578,95.064l-48.099,27.21l7.274-130.573
			c-0.807-0.312-1.636-0.606-2.451-0.914l0,0l-7.406,132.949l-29.325,16.589l-37.764-27.414L301.799,60.62l62.648-79.103
			c-0.891-0.219-1.783-0.435-2.678-0.648l0,0l-61.191,77.265l-5.698-11.591l8.059-75.392c-0.829-0.083-1.656-0.175-2.486-0.254l0,0
			l-7.636,71.444L256.553-31.45c-0.933-0.011-1.864-0.014-2.796-0.021l0,0L292.319,46.998L292.319,46.998z M71.259,117.399
			l5.072-99.585l117.7,157.731l-0.686,17.99l-39.114,49.386C154.231,242.921,71.259,117.399,71.259,117.399z M196.564,174.759
			l5.66-148.035l43.671,31.702l5.496,61.814l-49.175,62.094L196.564,174.759L196.564,174.759z M294.383,51.199l4.476,9.106
			l-6.3,7.954L294.383,51.199z M248.579,60.374l31.89,23.153l-26.821,33.864L248.579,60.374z M290.481,87.705l1.581-14.791
			l8.017-10.122l24.358,49.564L290.481,87.705z M284.048,83.034l5.109-6.45l-1.007,9.427L284.048,83.034z M449.39,98.911
			l31.143-17.616l-14.136,92.536L449.39,98.911z M253.97,121.011l28.524-36.015l5.349,3.882L276.631,193.77l-15.415,8.721
			L253.97,121.011L253.97,121.011z M290.174,90.571l36.624,26.586l18.546,37.74l-66.037,37.359L290.174,90.571L290.174,90.571z
			 M396.233,164.474l2.042-36.646l48.843-27.63l18.247,80.387l-4.685,30.674L396.233,164.474z M331.128,120.301l33.012,23.964
			l-16.615,9.4L331.128,120.301L331.128,120.301z M62.383,291.674l8.662-170.066l81.554,123.376l-27.191,34.335L67.919,311.84
			L62.383,291.674z M203.763,184.406l47.951-60.546l7.111,79.982l-28.519,16.134L203.763,184.406L203.763,184.406z M368.755,144.526
			l26.935-15.236l-1.862,33.438L368.755,144.526z M348.63,155.913l17.734-10.033l27.299,19.818l-4.096,73.516L348.63,155.913z
			 M270.576,273.943l8.404-78.629l67.469-38.167l42.834,87.159l-2.786,50.03l2.495,0.139l2.539-45.595l23.339,47.489l-54.342,98.117
			L270.576,273.943z M391.815,243.788l4.253-76.344l64.188,46.596l-0.08,0.525l-43.831,79.138L391.815,243.788L391.815,243.788z
			 M196.413,178.735l4.198,5.625l-4.638,5.856L196.413,178.735z M195.811,194.448l6.346-8.014l25.955,34.782l-34.061,19.27
			L195.811,194.448L195.811,194.448z M466.878,187.244l2.45,10.796l-5.661,10.22L466.878,187.244z M267.163,269.366l-5.704-64.141
			l14.845-8.399l-7.926,74.17L267.163,269.366L267.163,269.366z M155.683,245.116l37.5-47.349l-1.689,44.165l-27.596,15.611
			L155.683,245.116z M463.664,213.425l6.495-11.725l4.467,19.682L463.664,213.425L463.664,213.425z M231.813,221.995l27.256-15.418
			l5.244,58.971L231.813,221.995L231.813,221.995z M462.531,215.693l12.935,9.39l12.856,56.643l-41.805,38.796L462.531,215.693z
			 M417.689,296.438l41.398-74.748l-15.514,101.565l-8.725,8.098L417.689,296.438z M191.785,299.733l2.154-56.31l35.681-20.186
			l35.115,47.057l1.689,18.986l-11.35,106.195L191.785,299.733L191.785,299.733z M478.536,227.311l38.39,27.869l-26.485,24.58
			L478.536,227.311L478.536,227.311z M165.279,259.634l26.103-14.766l-1.961,51.287L165.279,259.634L165.279,259.634z
			 M154.05,247.179l7.667,11.599l-30.532,17.272L154.05,247.179L154.05,247.179z M267.585,274.113l0.401,0.54l-0.194,1.81
			L267.585,274.113L267.585,274.113z M281.998,436.208L268.934,289.3l1.251-11.701l89.012,119.285l-5.326,9.619l-56.717,52.635
			L281.998,436.208L281.998,436.208z M68.601,314.325l52.685-29.805l-45.199,57.073L68.601,314.325L68.601,314.325z
			 M362.168,396.684l54.045-97.581l16.721,34.026l-69.832,64.807L362.168,396.684L362.168,396.684z M61.978,299.639l3.697,13.47
			l-4.515,2.554L61.978,299.639z M257.236,398.749l10.327-96.63l11.534,129.701L257.236,398.749L257.236,398.749z M61.01,318.619
			l5.346-3.024l7.806,28.429l-15.439,19.494C58.724,363.518,61.01,318.619,61.01,318.619z M435.998,333.696l6.967-6.465
			l-2.405,15.746L435.998,333.696z M364.605,399.951l69.48-64.48l5.815,11.831l-19.471,127.459L364.605,399.951z M360.838,399.083
			l0.421,0.564l-1.506,1.399L360.838,399.083L360.838,399.083z M256.819,402.651l22.745,34.406l3.154,35.478l-37.041,34.376
			L256.819,402.651z M298.553,461.251l51.43-47.729l-37.83,68.304C312.153,481.826,298.553,461.251,298.553,461.251z
			 M282.464,441.445l12.834,19.416l-10.261,9.521L282.464,441.445L282.464,441.445z M285.316,473.535l11.379-10.56l14.091,21.319
			l-21.121,38.136L285.316,473.535z"/>
		<path fill="#FFFFFF" d="M339.933,359.726H178.945c-7.417,0-14.044-4.428-16.882-11.28s-1.283-14.67,3.961-19.914l68.326-68.325
			c0.885-0.886,1.018-1.919,1.018-2.456s-0.132-1.571-1.018-2.456l-71.168-71.167c-5.355-5.355-6.943-13.337-4.045-20.334
			c2.898-6.997,9.665-11.518,17.238-11.518h163.557c10.076,0,18.273,8.197,18.273,18.273v4.14c0,10.076-8.197,18.273-18.273,18.273
			H237.945c-2.094,0-2.941,1.5-3.208,2.144c-0.267,0.645-0.729,2.304,0.752,3.785l45.938,45.939c7.125,7.125,7.124,18.718,0,25.842
			l-42.439,42.439c-1.481,1.481-1.02,3.141-0.753,3.785c0.267,0.645,1.114,2.144,3.209,2.144h98.489
			c10.076,0,18.273,8.197,18.273,18.273v4.14C358.206,351.528,350.009,359.726,339.933,359.726z M176.375,167.075
			c-2.327,0-3.268,1.666-3.564,2.382c-0.297,0.716-0.809,2.56,0.836,4.206l71.168,71.167l0,0c3.452,3.451,5.353,8.04,5.353,12.921
			s-1.901,9.47-5.353,12.921l-68.326,68.325c-1.481,1.481-1.02,3.141-0.753,3.785c0.267,0.645,1.114,2.144,3.209,2.144h160.987
			c1.915,0,3.473-1.558,3.473-3.473v-4.14c0-1.915-1.558-3.473-3.473-3.473h-98.489c-7.417,0-14.044-4.428-16.882-11.28
			s-1.283-14.67,3.961-19.914l42.439-42.439c1.354-1.354,1.354-3.558,0-4.912l-45.938-45.939
			c-5.245-5.245-6.799-13.061-3.961-19.914s9.465-11.28,16.882-11.28h101.988c1.915,0,3.473-1.558,3.473-3.473v-4.14
			c0-1.915-1.558-3.473-3.473-3.473H176.375z"/>
		<path fill="#E5E5E5" d="M239.583,250.062c4.246,4.246,4.246,11.131,0,15.377l-68.326,68.325c-6.85,6.85-1.999,18.562,7.688,18.562
			h160.987c6.005,0,10.873-4.868,10.873-10.873v-4.14c0-6.005-4.868-10.873-10.873-10.873h-98.489
			c-9.687,0-14.538-11.712-7.688-18.562l42.439-42.439c4.246-4.246,4.246-11.131,0-15.377l-45.938-45.939
			c-6.85-6.85-1.998-18.561,7.689-18.561h101.988c6.005,0,10.873-4.868,10.873-10.873v-4.14c0-6.005-4.868-10.873-10.873-10.873
			H176.376c-10.03,0-15.054,12.127-7.961,19.22L239.583,250.062z"/>
	</g>
</g>
</svg>
