<?xml version="1.0" encoding="utf-8"?>
<!-- Generator: Adobe Illustrator 22.0.1, SVG Export Plug-In . SVG Version: 6.00 Build 0)  -->
<svg version="1.1" id="Layer_2" xmlns="http://www.w3.org/2000/svg" xmlns:xlink="http://www.w3.org/1999/xlink" x="0px" y="0px"
	 viewBox="0 0 512 512" enable-background="new 0 0 512 512" xml:space="preserve">
<radialGradient id="SVGID_1_" cx="256" cy="256" r="230" gradientUnits="userSpaceOnUse">
	<stop  offset="0" style="stop-color:#3F56FF"/>
	<stop  offset="0.0598" style="stop-color:#3C4FEC"/>
	<stop  offset="0.2084" style="stop-color:#3541C2"/>
	<stop  offset="0.3603" style="stop-color:#2F35A0"/>
	<stop  offset="0.514" style="stop-color:#2A2C85"/>
	<stop  offset="0.6701" style="stop-color:#272572"/>
	<stop  offset="0.8301" style="stop-color:#252167"/>
	<stop  offset="1" style="stop-color:#242063"/>
</radialGradient>
<circle fill="url(#SVGID_1_)" cx="256" cy="256" r="230"/>
<g>
	<g>
		<g opacity="0.9">
			<polygon opacity="0.8" fill="#8375AA" enable-background="new    " points="102.627,117.495 104.875,126.476 111.312,119.822 
				108.768,128.724 117.67,126.18 111.016,132.617 119.998,134.865 111.016,137.113 117.67,143.551 108.768,141.006 
				111.312,149.908 104.875,143.254 102.627,152.236 100.379,143.254 93.941,149.908 96.486,141.006 87.584,143.551 94.238,137.113 
				85.257,134.865 94.238,132.617 87.584,126.18 96.486,128.724 93.941,119.822 100.379,126.476 			"/>
			<circle fill="#FFFFFF" cx="102.627" cy="134.865" r="9.331"/>
		</g>
		<g opacity="0.9">
			<polygon opacity="0.8" fill="#7E5CF7" enable-background="new    " points="178.836,108.877 180.488,115.477 185.22,110.587 
				183.35,117.13 189.893,115.26 185.003,119.992 191.603,121.644 185.003,123.296 189.893,128.028 183.35,126.158 185.22,132.701 
				180.488,127.81 178.836,134.411 177.184,127.81 172.452,132.701 174.322,126.158 167.779,128.028 172.67,123.296 
				166.069,121.644 172.67,119.992 167.779,115.26 174.322,117.13 172.452,110.587 177.184,115.477 			"/>
			<circle fill="#FFFFFF" cx="178.836" cy="121.644" r="6.859"/>
		</g>
		<g opacity="0.9">
			<polygon opacity="0.8" fill="#8375AA" enable-background="new    " points="146.892,88.433 148.136,93.405 151.699,89.722 
				150.291,94.648 155.218,93.241 151.535,96.803 156.505,98.048 151.535,99.292 155.218,102.854 150.291,101.446 151.699,106.373 
				148.136,102.69 146.892,107.661 145.648,102.69 142.085,106.373 143.494,101.446 138.566,102.854 142.249,99.292 137.279,98.048 
				142.249,96.803 138.566,93.241 143.494,94.648 142.085,89.722 145.648,93.405 			"/>
			<circle fill="#FFFFFF" cx="146.892" cy="98.048" r="5.165"/>
		</g>
		<g opacity="0.9">
			<polygon opacity="0.8" fill="#8375AA" enable-background="new    " points="180.824,176.492 181.931,180.912 185.099,177.637 
				183.846,182.019 188.229,180.767 184.953,183.935 189.374,185.041 184.953,186.148 188.229,189.316 183.846,188.065 
				185.099,192.446 181.931,189.171 180.824,193.592 179.717,189.171 176.548,192.446 177.801,188.065 173.419,189.316 
				176.694,186.148 172.273,185.041 176.694,183.935 173.419,180.767 177.801,182.019 176.548,177.637 179.717,180.912 			"/>
			<circle fill="#FFFFFF" cx="180.824" cy="185.041" r="4.593"/>
		</g>
		<g opacity="0.9">
			<polygon opacity="0.8" fill="#8375AA" enable-background="new    " points="240.974,234.287 242.382,239.914 246.415,235.745 
				244.821,241.321 250.397,239.728 246.229,243.761 251.855,245.169 246.229,246.577 250.397,250.61 244.821,249.016 
				246.415,254.593 242.382,250.424 240.974,256.051 239.566,250.424 235.533,254.593 237.127,249.016 231.55,250.61 
				235.718,246.577 230.092,245.169 235.718,243.761 231.55,239.728 237.127,241.321 235.533,235.745 239.566,239.914 			"/>
			<circle fill="#FFFFFF" cx="240.974" cy="245.169" r="5.846"/>
		</g>
		<g opacity="0.9">
			<polygon opacity="0.8" fill="#8375AA" enable-background="new    " points="169.802,187.843 171.14,193.189 174.973,189.228 
				173.458,194.527 178.757,193.013 174.797,196.845 180.142,198.184 174.797,199.521 178.757,203.353 173.458,201.839 
				174.973,207.138 171.14,203.177 169.802,208.523 168.464,203.177 164.632,207.138 166.147,201.839 160.847,203.353 
				164.808,199.521 159.462,198.184 164.808,196.845 160.847,193.013 166.147,194.527 164.632,189.228 168.464,193.189 			"/>
			<circle fill="#FFFFFF" cx="169.802" cy="198.184" r="5.555"/>
		</g>
		<g opacity="0.9">
			<polygon opacity="0.8" fill="#8375AA" enable-background="new    " points="154.3,199.469 155.627,204.772 159.429,200.843 
				157.927,206.099 163.182,204.597 159.253,208.399 164.557,209.725 159.253,211.053 163.182,214.854 157.927,213.352 
				159.429,218.608 155.627,214.679 154.3,219.983 152.973,214.679 149.171,218.608 150.673,213.352 145.417,214.854 
				149.346,211.053 144.043,209.725 149.346,208.399 145.417,204.597 150.673,206.099 149.171,200.843 152.973,204.772 			"/>
			<circle fill="#FFFFFF" cx="154.3" cy="209.725" r="5.51"/>
		</g>
		<g opacity="0.9">
			<polygon opacity="0.8" fill="#8375AA" enable-background="new    " points="163.777,269.83 165.115,275.176 168.946,271.215 
				167.432,276.514 172.731,275 168.77,278.832 174.117,280.169 168.77,281.508 172.731,285.34 167.432,283.826 168.946,289.125 
				165.115,285.164 163.777,290.51 162.438,285.164 158.606,289.125 160.12,283.826 154.822,285.34 158.783,281.508 
				153.436,280.169 158.783,278.832 154.822,275 160.12,276.514 158.606,271.215 162.438,275.176 			"/>
			<circle fill="#FFFFFF" cx="163.777" cy="280.169" r="5.555"/>
		</g>
		<g opacity="0.9">
			<polygon opacity="0.8" fill="#8375AA" enable-background="new    " points="202.246,191.363 203.629,197.262 209.429,195.51 
				205.011,199.657 209.429,203.804 203.629,202.051 202.246,207.95 200.864,202.051 195.064,203.804 199.482,199.657 
				195.064,195.51 200.864,197.262 			"/>
			<circle fill="#FFFFFF" cx="202.246" cy="199.657" r="3.612"/>
		</g>
	</g>
	<radialGradient id="SVGID_2_" cx="272.1959" cy="220.0666" r="195.8652" gradientUnits="userSpaceOnUse">
		<stop  offset="0" style="stop-color:#8E53A1;stop-opacity:0.5"/>
		<stop  offset="0.1429" style="stop-color:#89519B;stop-opacity:0.4285"/>
		<stop  offset="0.3361" style="stop-color:#7B4A8A;stop-opacity:0.3319"/>
		<stop  offset="0.558" style="stop-color:#633E6D;stop-opacity:0.221"/>
		<stop  offset="0.7993" style="stop-color:#432E46;stop-opacity:0.1004"/>
		<stop  offset="1" style="stop-color:#231F20;stop-opacity:0"/>
	</radialGradient>
	<path fill="url(#SVGID_2_)" d="M486,255.975c-0.013-126.981-102.929-229.92-229.901-229.974c-0.066,0-0.132,0-0.198,0
		c-126.947,0.054-229.846,102.953-229.9,229.9c0,0.066,0,0.132,0,0.198c0.054,126.947,102.953,229.846,229.9,229.9
		c0.066,0,0.132,0,0.198,0C383.071,485.945,485.986,383.006,486,256.025C486,256.008,486,255.992,486,255.975z"/>
	
		<radialGradient id="SVGID_3_" cx="80.1572" cy="326.5324" r="194.8612" gradientTransform="matrix(0.9551 0.2962 -0.2369 0.7639 80.9408 53.3503)" gradientUnits="userSpaceOnUse">
		<stop  offset="0.0918" style="stop-color:#D4F9FF"/>
		<stop  offset="0.3093" style="stop-color:#D3F7FF;stop-opacity:0.7551"/>
		<stop  offset="0.4317" style="stop-color:#D1EEFF;stop-opacity:0.6171"/>
		<stop  offset="0.5306" style="stop-color:#CCE1FF;stop-opacity:0.5057"/>
		<stop  offset="0.617" style="stop-color:#C6CDFF;stop-opacity:0.4085"/>
		<stop  offset="0.6951" style="stop-color:#BEB3FF;stop-opacity:0.3204"/>
		<stop  offset="0.7673" style="stop-color:#B394FF;stop-opacity:0.2391"/>
		<stop  offset="0.835" style="stop-color:#A76EFF;stop-opacity:0.1629"/>
		<stop  offset="0.8991" style="stop-color:#9A43FF;stop-opacity:0.0907"/>
		<stop  offset="0.9582" style="stop-color:#8A13FF;stop-opacity:0.0241"/>
		<stop  offset="0.9796" style="stop-color:#8400FF;stop-opacity:0"/>
	</radialGradient>
	<path fill="url(#SVGID_3_)" d="M49.882,153.867c-15.04,30.295-23.598,64.372-23.861,100.426c-0.004,1.107-0.005,2.214-0.001,3.322
		c0.267,38.723,10.097,75.171,27.255,107.1h196.037c9.659-2.191,19.952-4.324,30.645-6.372c1.366-4.645,2.173-9.552,2.355-14.744
		c0.722-20.765-5.128-41.044-15.788-60.166C228.698,215.578,130.265,162.327,49.882,153.867z"/>
	<linearGradient id="SVGID_4_" gradientUnits="userSpaceOnUse" x1="352.4478" y1="430.9019" x2="362.7241" y2="327.9877">
		<stop  offset="0" style="stop-color:#747474"/>
		<stop  offset="1" style="stop-color:#22002F"/>
	</linearGradient>
	<path fill="url(#SVGID_4_)" d="M420.306,416.923c22.369-22.836,40.018-50.31,51.362-80.853c-0.697-0.007-1.403-0.011-2.123-0.011
		c-40.498,0-122.82,9.495-189.595,22.284c-10.692,2.048-20.985,4.18-30.645,6.372c0.152,0.04,0.305,0.077,0.456,0.113v24.881
		L420.306,416.923z"/>
	<g>
		
			<radialGradient id="SVGID_5_" cx="679.0656" cy="1643.4344" r="70.9567" gradientTransform="matrix(1 0 0 1 -350 -1488)" gradientUnits="userSpaceOnUse">
			<stop  offset="0.7296" style="stop-color:#FFFFFF"/>
			<stop  offset="0.9737" style="stop-color:#FFFFFF;stop-opacity:0.0973"/>
			<stop  offset="1" style="stop-color:#FFFFFF;stop-opacity:0"/>
		</radialGradient>
		<circle fill="url(#SVGID_5_)" cx="325.531" cy="152.236" r="79.509"/>
		
			<linearGradient id="SVGID_6_" gradientUnits="userSpaceOnUse" x1="624.2363" y1="1588.9418" x2="756.3118" y2="1721.0173" gradientTransform="matrix(1 0 0 1 -350 -1488)">
			<stop  offset="0" style="stop-color:#0B0055"/>
			<stop  offset="0.5663" style="stop-color:#02003F"/>
			<stop  offset="0.6837" style="stop-color:#490094"/>
		</linearGradient>
		<circle fill="url(#SVGID_6_)" cx="324.202" cy="150.908" r="70.663"/>
		
			<radialGradient id="SVGID_7_" cx="652.6182" cy="1619.2424" r="80.1343" gradientTransform="matrix(1 0 0 1 -350 -1488)" gradientUnits="userSpaceOnUse">
			<stop  offset="0.8743" style="stop-color:#FFFFFF;stop-opacity:0"/>
			<stop  offset="0.885" style="stop-color:#FFFFFF;stop-opacity:0.0973"/>
			<stop  offset="0.9847" style="stop-color:#FFFFFF"/>
		</radialGradient>
		<circle fill="url(#SVGID_7_)" cx="324.202" cy="150.908" r="70.663"/>
	</g>
	
		<radialGradient id="SVGID_8_" cx="415.9406" cy="357.1706" r="194.6969" gradientTransform="matrix(0.926 -0.3775 0.3087 0.7571 -79.4756 243.7735)" gradientUnits="userSpaceOnUse">
		<stop  offset="0" style="stop-color:#FFD87F"/>
		<stop  offset="0.0863" style="stop-color:#FFD37E;stop-opacity:0.9374"/>
		<stop  offset="0.1853" style="stop-color:#FFC579;stop-opacity:0.8655"/>
		<stop  offset="0.2906" style="stop-color:#FFAE72;stop-opacity:0.789"/>
		<stop  offset="0.4003" style="stop-color:#FF8E68;stop-opacity:0.7094"/>
		<stop  offset="0.5134" style="stop-color:#FF655B;stop-opacity:0.6273"/>
		<stop  offset="0.6277" style="stop-color:#FF334B;stop-opacity:0.5443"/>
		<stop  offset="0.6888" style="stop-color:#FF1542;stop-opacity:0.5"/>
		<stop  offset="0.7167" style="stop-color:#F61642;stop-opacity:0.4442"/>
		<stop  offset="0.7624" style="stop-color:#DE1A43;stop-opacity:0.3529"/>
		<stop  offset="0.8201" style="stop-color:#B61F43;stop-opacity:0.2376"/>
		<stop  offset="0.8869" style="stop-color:#7F2744;stop-opacity:0.104"/>
		<stop  offset="0.9351" style="stop-color:#532D45;stop-opacity:0.0076"/>
		<stop  offset="0.9423" style="stop-color:#502A44;stop-opacity:0"/>
	</radialGradient>
	<path opacity="0.8" fill="url(#SVGID_8_)" enable-background="new    " d="M485.979,254.349
		c-0.191-27.155-5.075-53.194-13.903-77.337c-71.741,5.965-159.444,48.799-205.551,106.421c-16.276,20.339-27.363,42.52-30.74,65.57
		c0.08,0.081,0.162,0.15,0.242,0.257c0.784,2.156,1.571,4.311,1.738,6.633c-0.076,0.653-0.359,1.179-0.768,1.628
		c2.317,0.633,2.516,3.409,4.445,4.416c1.904-1.013,3.71-1.816,5.006,0.893c0.548,1.145,1.687,1.581,2.859,1.883
		c9.659-2.191,19.952-4.324,30.645-6.372c66.774-12.789,149.096-22.284,189.595-22.284c0.72,0,1.425,0.004,2.122,0.011
		c9.114-24.54,14.157-51.056,14.315-78.731C485.986,256.342,485.983,255.345,485.979,254.349z"/>
	<linearGradient id="SVGID_9_" gradientUnits="userSpaceOnUse" x1="235.2649" y1="291.5588" x2="235.2649" y2="398.9101">
		<stop  offset="0" style="stop-color:#414342"/>
		<stop  offset="0.9796" style="stop-color:#000000"/>
	</linearGradient>
	<path fill="url(#SVGID_9_)" d="M256.068,364.714c-131.352-96.795-214.906-84.173-228.429-81.251
		c13.572,114.044,110.577,202.486,228.262,202.535c0.066,0,0.132,0,0.198,0c76.954-0.033,145.064-37.864,186.792-95.929
		C400.82,404.541,326.93,416.934,256.068,364.714z"/>
</g>
</svg>
