<?xml version="1.0" encoding="utf-8"?>
<!-- Generator: Adobe Illustrator 18.0.0, SVG Export Plug-In . SVG Version: 6.00 Build 0)  -->
<!DOCTYPE svg PUBLIC "-//W3C//DTD SVG 1.1//EN" "http://www.w3.org/Graphics/SVG/1.1/DTD/svg11.dtd">
<svg version="1.1" id="Layer_3" xmlns="http://www.w3.org/2000/svg" xmlns:xlink="http://www.w3.org/1999/xlink" x="0px" y="0px"
	 viewBox="0 0 512 512" style="enable-background:new 0 0 512 512;" xml:space="preserve">
<style type="text/css">
	.st0{fill:#FF65D4;}
	.st1{fill:#00BD9B;}
	.st2{fill:#9C56B8;}
	.st3{fill:#51D88B;}
	.st4{fill:#2D98E0;}
	.st5{fill:#E84C3D;}
	.st6{fill:#6659FF;}
	.st7{fill:#F1C50E;}
	.st8{fill:#F4F4F4;}
	.st9{fill:url(#SVGID_1_);}
	.st10{fill:#E2E2E2;}
	.st11{opacity:0.4;}
	.st12{fill:#595958;}
	.st13{fill:#D1D0CF;}
	.st14{fill:#D3A585;}
</style>
<g>
	<g>
		<path class="st0" d="M486,257.1c0-1,0-2,0-3c-0.2-20.1-2.9-39.6-7.9-58.2c-2.8,21.1-10.2,41.7-22.2,60.1
			c-5.4,8.2-11.6,15.9-18.8,23.1c-14.2,14.2-30.7,24.8-48.2,31.9c-21.7,8.7-45.1,11.9-68.1,9.7c-14.5-1.4-28.8-5-42.4-10.8
			c-7.7-3.3-15.2-7.3-22.3-11.9c-4.6-3-9-6.3-13.3-9.8c-3.4-2.8-6.7-5.8-9.8-9c-3.2-3.2-6.1-6.5-9-9.8c0.5,5.5,1.3,11,2.4,16.3
			c1.7,8.4,4.2,16.4,7.3,24.2c5.5,13.7,13.1,26.4,22.3,37.6c14.6,17.9,33.5,32.1,55,41.3c17.4,7.4,36.5,11.5,56.7,11.5
			c10.2,0,20.1-1.1,29.6-3.1c21.6-4.5,41.4-13.9,58.2-26.8C474.7,337.1,485.8,298.4,486,257.1z"/>
		<path class="st1" d="M278.3,202.2c-5.5-13.7-13.1-26.4-22.3-37.6c-14.6-17.9-33.5-32.1-55-41.3c-17.4-7.4-36.5-11.5-56.7-11.5
			c-10.2,0-20.1,1.1-29.6,3.1c-21.6,4.5-41.4,13.9-58.2,26.8C37.3,174.9,26.2,213.6,26,254.8c0,1,0,2.1,0,3.1
			c0.2,20.1,2.9,39.6,7.9,58.1c2.8-21.1,10.2-41.7,22.2-60.1c5.4-8.2,11.6-15.9,18.8-23.1c14.2-14.2,30.7-24.8,48.2-31.9
			c21.7-8.7,45.1-11.9,68.1-9.7c14.5,1.4,28.8,5,42.4,10.8c7.7,3.3,15.2,7.3,22.3,11.9c4.6,3,9,6.3,13.3,9.8c3.4,2.8,6.7,5.8,9.8,9
			c3.2,3.2,6.1,6.5,9,9.8c-0.5-5.5-1.3-11-2.4-16.4C283.9,218,281.4,209.9,278.3,202.2z"/>
		<path class="st2" d="M455.5,370.5c-16.9,13-36.7,22.3-58.2,26.8c-9.6,2-19.5,3.1-29.6,3.1c-20.1,0-39.3-4.1-56.7-11.5
			c-21.5-9.2-40.4-23.5-55-41.3c-9.2-11.3-16.8-23.9-22.3-37.6c-3.1-7.8-5.6-15.8-7.3-24.2c-1.1-5.3-1.9-10.8-2.4-16.3
			c-0.4-4.4-0.6-8.8-0.6-13.3s0.2-8.9,0.6-13.3c-3.6,4.3-6.8,8.7-9.8,13.3c-4.7,7.1-8.7,14.6-11.9,22.3
			c-5.8,13.6-9.4,27.9-10.8,42.4c-2.3,23,1,46.4,9.7,68.1c7,17.6,17.7,34,31.9,48.2c7.2,7.2,14.9,13.4,23.1,18.8
			c18.4,12.1,39,19.5,60.1,22.2C375.6,462,425.5,422.7,455.5,370.5z"/>
		<path class="st3" d="M279.1,75c-7.2-7.2-14.9-13.4-23.1-18.8c-18.4-12.1-39-19.5-60.1-22.2C136.4,50,86.5,89.3,56.5,141.5
			c16.9-13,36.7-22.3,58.2-26.8c9.6-2,19.5-3.1,29.6-3.1c20.1,0,39.3,4.1,56.7,11.5c21.5,9.2,40.4,23.5,55,41.3
			c9.2,11.3,16.8,23.9,22.3,37.6c3.1,7.8,5.6,15.8,7.3,24.2c1.1,5.3,1.9,10.8,2.4,16.4c0.4,4.4,0.6,8.8,0.6,13.3s-0.2,8.9-0.6,13.3
			c3.6-4.3,6.8-8.7,9.8-13.3c4.7-7.1,8.7-14.6,11.9-22.3c5.8-13.6,9.4-27.9,10.8-42.4c2.3-23-1-46.4-9.7-68.1
			C304,105.7,293.3,89.2,279.1,75z"/>
		<path class="st4" d="M233.7,202.2c-13.6-5.8-27.9-9.4-42.4-10.8c-23-2.3-46.4,1-68.1,9.7c-17.6,7-34,17.7-48.2,31.9
			c-7.2,7.2-13.4,14.9-18.8,23.1c-12.1,18.4-19.5,39-22.2,60.1c16,59.4,55.3,109.3,107.5,139.3c-13-16.9-22.3-36.7-26.8-58.2
			c-2-9.6-3.1-19.5-3.1-29.6c0-20.1,4.1-39.3,11.5-56.7c9.2-21.5,23.5-40.4,41.3-55c11.3-9.2,23.9-16.8,37.6-22.3
			c7.8-3.1,15.8-5.6,24.2-7.3c5.3-1.1,10.8-1.9,16.3-2.4c4.4-0.4,8.8-0.6,13.3-0.6c4.5,0,8.9,0.2,13.3,0.6
			c-4.3-3.6-8.7-6.8-13.3-9.8C248.9,209.4,241.4,205.4,233.7,202.2z"/>
		<path class="st5" d="M455.8,256c12.1-18.4,19.5-39,22.2-60.1c-16-59.5-55.3-109.4-107.5-139.4c13,16.9,22.3,36.7,26.8,58.2
			c2,9.6,3.1,19.5,3.1,29.6c0,20.1-4.1,39.3-11.5,56.7c-9.2,21.5-23.5,40.4-41.3,55c-11.3,9.2-23.9,16.8-37.6,22.3
			c-7.8,3.1-15.8,5.6-24.2,7.3c-5.3,1.1-10.8,1.9-16.4,2.4c-4.4,0.4-8.8,0.6-13.3,0.6s-8.9-0.2-13.3-0.6c4.3,3.6,8.7,6.8,13.3,9.8
			c7.1,4.7,14.6,8.7,22.3,11.9c13.6,5.8,27.9,9.4,42.4,10.8c23,2.3,46.4-1,68.1-9.7c17.6-7,34-17.7,48.2-31.9
			C444.2,271.9,450.5,264.2,455.8,256z"/>
		<path class="st6" d="M257.9,486c20.1-0.2,39.6-2.9,58.1-7.9c-21.1-2.8-41.7-10.2-60.1-22.2c-8.2-5.4-15.9-11.6-23.1-18.8
			c-14.2-14.2-24.8-30.7-31.9-48.2c-8.7-21.7-11.9-45.1-9.7-68.1c1.4-14.5,5-28.8,10.8-42.4c3.3-7.7,7.3-15.2,11.9-22.3
			c3-4.6,6.3-9,9.8-13.3c2.8-3.4,5.8-6.7,9-9.8c3.2-3.2,6.5-6.1,9.8-9c-5.5,0.5-11,1.3-16.3,2.4c-8.4,1.7-16.4,4.2-24.2,7.3
			c-13.7,5.5-26.4,13.1-37.6,22.3c-17.9,14.6-32.1,33.5-41.3,55c-7.4,17.4-11.5,36.5-11.5,56.7c0,10.2,1.1,20.1,3.1,29.6
			c4.5,21.6,13.9,41.4,26.8,58.2c33.4,19.2,72.1,30.2,113.3,30.5C255.9,486,256.9,486,257.9,486z"/>
		<path class="st7" d="M254.1,26c-20.1,0.2-39.6,2.9-58.1,7.9c21.1,2.8,41.7,10.2,60.1,22.2c8.2,5.4,15.9,11.6,23.1,18.8
			c14.2,14.2,24.8,30.7,31.9,48.2c8.7,21.7,11.9,45.1,9.7,68.1c-1.4,14.5-5,28.8-10.8,42.4c-3.3,7.7-7.3,15.2-11.9,22.3
			c-3,4.6-6.3,9-9.8,13.3c-2.8,3.4-5.8,6.7-9,9.8c-3.2,3.2-6.5,6.1-9.8,9c5.5-0.5,11-1.3,16.4-2.4c8.4-1.7,16.4-4.2,24.2-7.3
			c13.7-5.5,26.4-13.1,37.6-22.3c17.9-14.6,32.1-33.5,41.3-55c7.4-17.4,11.5-36.5,11.5-56.7c0-10.2-1.1-20.1-3.1-29.6
			c-4.5-21.6-13.9-41.4-26.8-58.2C337.1,37.3,298.4,26.2,257.2,26C256.1,26,255.1,26,254.1,26z"/>
	</g>
	<path class="st8" d="M256,46c28.4,0,55.9,5.5,81.7,16.5c25,10.6,47.5,25.7,66.8,45s34.4,41.8,45,66.8
		c10.9,25.9,16.5,53.4,16.5,81.7c0,28.4-5.5,55.9-16.5,81.7c-10.6,25-25.7,47.5-45,66.8s-41.8,34.4-66.8,45
		c-25.8,11-53.3,16.5-81.7,16.5s-55.9-5.5-81.7-16.5c-25-10.6-47.5-25.7-66.8-45s-34.4-41.8-45-66.8C51.5,311.9,46,284.4,46,256
		s5.5-55.9,16.5-81.7c10.6-25,25.7-47.5,45-66.8s41.8-34.4,66.8-45C200.1,51.5,227.6,46,256,46 M256,26C129,26,26,129,26,256
		s103,230,230,230s230-103,230-230S383,26,256,26L256,26z"/>
	
		<radialGradient id="SVGID_1_" cx="256" cy="256" r="72.3341" gradientTransform="matrix(1 0 0 -1 0 512)" gradientUnits="userSpaceOnUse">
		<stop  offset="0" style="stop-color:#000000"/>
		<stop  offset="1" style="stop-color:#000000;stop-opacity:0"/>
	</radialGradient>
	<path class="st9" d="M256,330.4c-41,0-74.4-33.4-74.4-74.4s33.4-74.4,74.4-74.4s74.4,33.4,74.4,74.4S297,330.4,256,330.4z"/>
	<circle class="st10" cx="256" cy="256" r="64.4"/>
	<g id="g8648_1_">
		<path id="path8672_1_" class="st11" d="M357.372,345.148c-4.841-10.98-6.372-21.29-13.471-27.032
			c-13.717-11.094-24.608-1.515-35.843,12.087l17.396-21.066c3.158-3.823,3.612-8.625,1.015-10.724l-2.507-2.028
			c-2.595-2.099-7.253-0.707-10.41,3.109l0.746-0.903L142.917,179.692l-0.004,0.005c-0.034-0.028-0.064-0.061-0.099-0.089
			c-5.558-4.495-13.753-3.67-18.306,1.843c-4.552,5.512-3.737,13.625,1.821,18.119c0.034,0.028,0.072,0.051,0.107,0.078
			l-0.004,0.005L278.3,342.18l0.752-0.911c-3.155,3.821-3.611,8.624-1.013,10.723l2.507,2.028c2.598,2.101,7.262,0.703,10.419-3.119
			l17.061-20.659c-11.232,13.605-18.551,26.073-4.833,37.166c6.953,5.623,22.646,12.709,35.491,14.265
			c23.651,2.865,51.374-8.391,51.374-8.391C369.34,370.37,361.89,355.395,357.372,345.148"/>
		<path id="path8684_1_" class="st12" d="M347.48,307.32c6.926,7.037,7.366,18.359,11.267,30.792
			c3.642,11.603,9.87,28.66,31.691,34.237c0,0-30.96,8.908-55.924,3.037c-13.558-3.189-29.519-12.688-36.302-19.58
			c-13.39-13.605-4.098-26.226,9.507-39.614C321.323,302.802,334.09,293.715,347.48,307.32"/>
		<path id="path8676_1_" class="st13" d="M331.125,283.982c2.533,2.574,1.49,7.709-2.332,11.47l-41.742,41.08
			c-3.82,3.76-8.972,4.722-11.506,2.148l-2.446-2.486c-2.534-2.574-1.49-7.709,2.332-11.47l41.741-41.079
			c3.821-3.761,8.973-4.723,11.506-2.148L331.125,283.982z"/>
		<path id="path8680_1_" class="st14" d="M148.597,134.142l-0.005,0.005c-0.033-0.035-0.061-0.073-0.095-0.108
			c-5.423-5.51-14.284-5.581-19.793-0.158c-5.51,5.422-5.582,14.284-0.159,19.794c0.034,0.034,0.072,0.063,0.106,0.097l-0.005,0.005
			l145.873,171.843l21.58-21.236l0.407-0.402l21.58-21.237L148.597,134.142z"/>
	</g>
</g>
</svg>
