<?xml version="1.0" encoding="utf-8"?>
<!-- Generator: Adobe Illustrator 22.0.1, SVG Export Plug-In . SVG Version: 6.00 Build 0)  -->
<svg version="1.1"
	 id="svg2" xmlns:cc="http://creativecommons.org/ns#" xmlns:dc="http://purl.org/dc/elements/1.1/" xmlns:rdf="http://www.w3.org/1999/02/22-rdf-syntax-ns#" xmlns:svg="http://www.w3.org/2000/svg"
	 xmlns="http://www.w3.org/2000/svg" xmlns:xlink="http://www.w3.org/1999/xlink" x="0px" y="0px" viewBox="0 0 640 640"
	 enable-background="new 0 0 640 640" xml:space="preserve">
<g id="g10" transform="matrix(1.25,0,0,-1.25,0,640)">
	<g id="g226">
		<g id="g228">
			<g id="g234">
				<g id="g236">
					
						<linearGradient id="path250_1_" gradientUnits="userSpaceOnUse" x1="102.538" y1="513.0072" x2="104.5263" y2="513.0072" gradientTransform="matrix(-54.2609 95.8009 -95.8009 -54.2609 55119.4453 18026.2891)">
						<stop  offset="0" style="stop-color:#FB7655"/>
						<stop  offset="0" style="stop-color:#FB7655"/>
						<stop  offset="0.41" style="stop-color:#E42B1E"/>
						<stop  offset="0.99" style="stop-color:#990000"/>
						<stop  offset="1" style="stop-color:#990000"/>
					</linearGradient>
					<path id="path250" fill="url(#path250_1_)" d="M366.625,189.106l92.162,186.798L435.491,70.927L133.033,50.4L366.625,189.106
						L366.625,189.106z"/>
				</g>
			</g>
		</g>
	</g>
	<g id="g252">
		<g id="g254">
			<g id="g260">
				<g id="g262">
					
						<linearGradient id="path274_1_" gradientUnits="userSpaceOnUse" x1="103.3614" y1="512.3279" x2="105.3497" y2="512.3279" gradientTransform="matrix(-69.9303 46.9276 -46.9276 -69.9303 31722.5059 31118.0371)">
						<stop  offset="0" style="stop-color:#871101"/>
						<stop  offset="0" style="stop-color:#871101"/>
						<stop  offset="0.99" style="stop-color:#911209"/>
						<stop  offset="1" style="stop-color:#911209"/>
					</linearGradient>
					<path id="path274" fill="url(#path274_1_)" d="M409.99,250.56l25.995-179.427l-96.807,85.924L409.99,250.56z"/>
				</g>
			</g>
		</g>
	</g>
	<g id="g276">
		<g id="g278">
			<g id="g284">
				<g id="g286">
					
						<linearGradient id="path298_1_" gradientUnits="userSpaceOnUse" x1="103.3614" y1="513.2704" x2="105.3497" y2="513.2704" gradientTransform="matrix(-69.9283 46.9261 -46.9261 -69.9283 31676.7656 31050.4414)">
						<stop  offset="0" style="stop-color:#871101"/>
						<stop  offset="0" style="stop-color:#871101"/>
						<stop  offset="0.99" style="stop-color:#911209"/>
						<stop  offset="1" style="stop-color:#911209"/>
					</linearGradient>
					<path id="path298" fill="url(#path298_1_)" d="M134.047,50.79l111.838,35.292l190.452-14.949L134.047,50.79L134.047,50.79z"/>
				</g>
			</g>
		</g>
	</g>
	<g id="g300">
		<g id="g302">
			<g id="g308">
				<g id="g310">
					
						<linearGradient id="path326_1_" gradientUnits="userSpaceOnUse" x1="101.2016" y1="508.736" x2="103.1899" y2="508.736" gradientTransform="matrix(10.8407 -70.454 70.454 10.8407 -36810.0273 1810.3019)">
						<stop  offset="0" style="stop-color:#FFFFFF"/>
						<stop  offset="0" style="stop-color:#FFFFFF"/>
						<stop  offset="0.23" style="stop-color:#E57252"/>
						<stop  offset="0.46" style="stop-color:#DE3B20"/>
						<stop  offset="0.99" style="stop-color:#A60003"/>
						<stop  offset="1" style="stop-color:#A60003"/>
					</linearGradient>
					<path id="path326" fill="url(#path326_1_)" d="M181.892,206.618L134.314,50.752L77.196,184.232L181.892,206.618z"/>
				</g>
			</g>
		</g>
	</g>
	<g id="g328">
		<g id="g330">
			<g id="g336">
				<g id="g338">
					
						<linearGradient id="path354_1_" gradientUnits="userSpaceOnUse" x1="100.8571" y1="509.5266" x2="102.8455" y2="509.5266" gradientTransform="matrix(3.9944 -71.9027 71.9027 3.9944 -36791.0703 5516.6411)">
						<stop  offset="0" style="stop-color:#FFFFFF"/>
						<stop  offset="0" style="stop-color:#FFFFFF"/>
						<stop  offset="0.23" style="stop-color:#E4714E"/>
						<stop  offset="0.56" style="stop-color:#BE1A0D"/>
						<stop  offset="0.99" style="stop-color:#A80D00"/>
						<stop  offset="1" style="stop-color:#A80D00"/>
					</linearGradient>
					<path id="path354" fill="url(#path354_1_)" d="M170.098,210.582L295.38,328.018l43.778-171.479L170.098,210.582
						L170.098,210.582z"/>
				</g>
			</g>
		</g>
	</g>
	<g id="g356">
		<g id="g358">
			<g id="g364">
				<g id="g366">
					
						<linearGradient id="path382_1_" gradientUnits="userSpaceOnUse" x1="99.0089" y1="510.232" x2="100.9972" y2="510.232" gradientTransform="matrix(11.9578 -51.532 51.532 11.9578 -27123.7793 -593.4067)">
						<stop  offset="0" style="stop-color:#FFFFFF"/>
						<stop  offset="0" style="stop-color:#FFFFFF"/>
						<stop  offset="0.18" style="stop-color:#E46342"/>
						<stop  offset="0.4" style="stop-color:#C82410"/>
						<stop  offset="0.99" style="stop-color:#A80D00"/>
						<stop  offset="1" style="stop-color:#A80D00"/>
					</linearGradient>
					<path id="path382" fill="url(#path382_1_)" d="M330.425,422.324L448.852,325.6l-151.404-9.887L330.425,422.324z"/>
				</g>
			</g>
		</g>
	</g>
	<g id="g384">
		<g id="g386">
			<g id="g392">
				<g id="g394">
					
						<linearGradient id="path408_1_" gradientUnits="userSpaceOnUse" x1="101.2114" y1="515.8539" x2="103.1997" y2="515.8539" gradientTransform="matrix(51.5286 25.7644 -25.7644 51.5286 8370.6865 -28754.332)">
						<stop  offset="0" style="stop-color:#FFFFFF"/>
						<stop  offset="0" style="stop-color:#FFFFFF"/>
						<stop  offset="0.54" style="stop-color:#C81F11"/>
						<stop  offset="0.99" style="stop-color:#BF0905"/>
						<stop  offset="1" style="stop-color:#BF0905"/>
					</linearGradient>
					<path id="path408" fill="url(#path408_1_)" d="M279.874,457.329l113.596-0.517l-69.651-38.491L279.874,457.329z"/>
				</g>
			</g>
		</g>
	</g>
	<g id="g410">
		<g id="g412">
			<g id="g418">
				<g id="g420">
					
						<linearGradient id="path434_1_" gradientUnits="userSpaceOnUse" x1="100.2763" y1="505.6497" x2="102.2646" y2="505.6497" gradientTransform="matrix(4.2411 -42.4615 42.4615 4.2411 -21838.2207 2337.2893)">
						<stop  offset="0" style="stop-color:#FFFFFF"/>
						<stop  offset="0" style="stop-color:#FFFFFF"/>
						<stop  offset="0.31" style="stop-color:#DE4024"/>
						<stop  offset="0.99" style="stop-color:#BF190B"/>
						<stop  offset="1" style="stop-color:#BF190B"/>
					</linearGradient>
					<path id="path434" fill="url(#path434_1_)" d="M55.225,248.557l23.601-63.393l-29.179-53.215L55.225,248.557z"/>
				</g>
			</g>
		</g>
	</g>
	<g id="g436">
		<g>
			<g id="g438">
				<g id="g444" transform="translate(175.3045,254.4549)">
					<path id="path446" fill="#FFFFFF" d="M-121.649-3.895C-105.357,26.75-71.367,90.99-69.423,91.98
						c1.961,0.971,56.374,52.574,84.414,78.656l88.999,33.31l52.351-36.963l-33.247-105.6L5.286-48.105L-97.901-71.255
						L-121.649-3.895"/>
				</g>
			</g>
		</g>
	</g>
	<g id="g448">
		<g id="g450">
			<g id="g456">
				<g id="g458">
					
						<linearGradient id="path482_1_" gradientUnits="userSpaceOnUse" x1="101.716" y1="512.8065" x2="103.7044" y2="512.8065" gradientTransform="matrix(199.3648 205.0026 -205.0026 199.3648 84859.4219 -122949.5)">
						<stop  offset="0" style="stop-color:#BD0012"/>
						<stop  offset="0" style="stop-color:#BD0012"/>
						<stop  offset="0.07" style="stop-color:#FFFFFF"/>
						<stop  offset="0.17" style="stop-color:#FFFFFF"/>
						<stop  offset="0.27" style="stop-color:#C82F1C"/>
						<stop  offset="0.33" style="stop-color:#820C01"/>
						<stop  offset="0.46" style="stop-color:#A31601"/>
						<stop  offset="0.72" style="stop-color:#B31301"/>
						<stop  offset="0.99" style="stop-color:#E82609"/>
						<stop  offset="1" style="stop-color:#E82609"/>
					</linearGradient>
					<path id="path482" fill="url(#path482_1_)" d="M137.04,371.568c45.605,45.217,101.115,76.55,138.684,76.556l0,0
						c12.494,0.002,22.998-3.462,30.501-11.033l0,0c30.048-30.335-1.817-104.054-62.588-164.291l0,0
						c-60.776-60.233-138.149-97.798-168.195-67.464l0,0C45.375,235.653,76.267,311.331,137.04,371.568"/>
				</g>
			</g>
		</g>
	</g>
	<g id="g484">
		<g id="g486">
			<g id="g492">
				<g id="g494">
					
						<linearGradient id="path508_1_" gradientUnits="userSpaceOnUse" x1="105.257" y1="512.6342" x2="107.2454" y2="512.6342" gradientTransform="matrix(-60.0506 14.821 -14.821 -60.0506 14172.7305 29329.2168)">
						<stop  offset="0" style="stop-color:#8C0C01"/>
						<stop  offset="0" style="stop-color:#8C0C01"/>
						<stop  offset="0.54" style="stop-color:#990C00"/>
						<stop  offset="0.99" style="stop-color:#A80D0E"/>
						<stop  offset="1" style="stop-color:#A80D0E"/>
					</linearGradient>
					<path id="path508" fill="url(#path508_1_)" d="M181.519,207.175l156.775-50.367l0,0
						c-56.685-53.15-119.729-98.087-203.98-105.993L181.519,207.175z"/>
				</g>
			</g>
		</g>
	</g>
	<g id="g510">
		<g id="g512">
			<g id="g518">
				<g id="g520">
					
						<linearGradient id="path532_1_" gradientUnits="userSpaceOnUse" x1="104.0039" y1="512.29" x2="105.9922" y2="512.29" gradientTransform="matrix(-53.3469 47.8134 -47.8134 -53.3469 30460.8906 22576.166)">
						<stop  offset="0" style="stop-color:#7E110B"/>
						<stop  offset="0" style="stop-color:#7E110B"/>
						<stop  offset="0.99" style="stop-color:#9E0C00"/>
						<stop  offset="1" style="stop-color:#9E0C00"/>
					</linearGradient>
					<path id="path532" fill="url(#path532_1_)" d="M298.604,316.145c0,0,150.907,10.098,150.907,10.101l0,0
						c-20.816-66.207-63.311-119.732-110.661-169.518L298.604,316.145"/>
				</g>
			</g>
		</g>
	</g>
	<g id="g534">
		<g id="g536">
			<g id="g542">
				<g id="g544">
					
						<linearGradient id="path556_1_" gradientUnits="userSpaceOnUse" x1="106.3256" y1="511.2821" x2="108.314" y2="511.2821" gradientTransform="matrix(-26.573 28.4085 -28.4085 -26.573 17799.6133 10925.1709)">
						<stop  offset="0" style="stop-color:#79130D"/>
						<stop  offset="0" style="stop-color:#79130D"/>
						<stop  offset="0.99" style="stop-color:#9E120B"/>
						<stop  offset="1" style="stop-color:#9E120B"/>
					</linearGradient>
					<path id="path556" fill="url(#path556_1_)" d="M330.651,422.305l62.321,34.423l0,0c75.952-12.944,72.236-82.68,56.128-131.29
						L330.651,422.305L330.651,422.305z"/>
				</g>
			</g>
		</g>
	</g>
	<g id="g558">
		<g>
			<g id="g560">
				<g id="g566" transform="translate(173.692,207.0141)">
					<path id="path568" fill="#9E1209" d="M-96.23-23.483l56.953-133.007c-24.655,0.704-82.538,1.897-84.768,82.126L-96.23-23.483z"
						/>
				</g>
			</g>
		</g>
	</g>
	<g id="g570">
		<g id="g572">
			<g id="g578">
				<g id="g580">
					
						<radialGradient id="path592_1_" cx="100.3344" cy="513.504" r="1.9883" gradientTransform="matrix(65.3739 0 0 65.3739 -6212.5938 -33275.2852)" gradientUnits="userSpaceOnUse">
						<stop  offset="0" style="stop-color:#A80D00"/>
						<stop  offset="0" style="stop-color:#A80D00"/>
						<stop  offset="0.99" style="stop-color:#7E0E08"/>
						<stop  offset="1" style="stop-color:#7E0E08"/>
					</radialGradient>
					<path id="path592" fill="url(#path592_1_)" d="M448.295,325.871L448.295,325.871c-6.648-28.662-35.954-79.379-38.263-78.077
						l0,0c-1.489,0.825-74.818,45.739-111.203,68.103L448.295,325.871z"/>
				</g>
			</g>
		</g>
	</g>
	<g id="g594">
		<g id="g596">
			<g id="g602">
				<g id="g604">
					
						<radialGradient id="path616_1_" cx="100.0225" cy="512.3475" r="1.9883" gradientTransform="matrix(86.9059 0 0 86.9059 -8489.8965 -44368.5781)" gradientUnits="userSpaceOnUse">
						<stop  offset="0" style="stop-color:#A30C00"/>
						<stop  offset="0" style="stop-color:#A30C00"/>
						<stop  offset="0.99" style="stop-color:#800E08"/>
						<stop  offset="1" style="stop-color:#800E08"/>
					</radialGradient>
					<path id="path616" fill="url(#path616_1_)" d="M244.564,85.424l-63.107,121.751l156.402-50.447l0,0
						C311.101,130.316,281.88,105.66,244.564,85.424L244.564,85.424z"/>
				</g>
			</g>
		</g>
	</g>
	<g id="g618">
		<g id="g620">
			<g id="g626">
				<g id="g628">
					
						<linearGradient id="path642_1_" gradientUnits="userSpaceOnUse" x1="103.0574" y1="515.2811" x2="105.0458" y2="515.2811" gradientTransform="matrix(-21.6554 73.4699 -73.4699 -21.6554 40194.1172 3637.8857)">
						<stop  offset="0" style="stop-color:#8B2114"/>
						<stop  offset="0" style="stop-color:#8B2114"/>
						<stop  offset="0.43" style="stop-color:#9E100A"/>
						<stop  offset="0.99" style="stop-color:#B3100C"/>
						<stop  offset="1" style="stop-color:#B3100C"/>
					</linearGradient>
					<path id="path642" fill="url(#path642_1_)" d="M77.216,183.365c0.027,0.017,0.057,0.027,0.092,0.027l0,0
						c3.296-0.002,37.955-86.348,55.395-129.751l0,0c-24.347-1.794-47.558,0.206-64.427,23.254L77.216,183.365"/>
				</g>
			</g>
		</g>
	</g>
	<g id="g644">
		<g id="g646">
			<g id="g652">
				<g id="g654">
					
						<linearGradient id="path668_1_" gradientUnits="userSpaceOnUse" x1="98.9718" y1="513.9827" x2="100.9601" y2="513.9827" gradientTransform="matrix(48.5498 -21.4305 21.4305 48.5498 -15450.9834 -22394.5469)">
						<stop  offset="0" style="stop-color:#B31000"/>
						<stop  offset="0" style="stop-color:#B31000"/>
						<stop  offset="0.44" style="stop-color:#910F08"/>
						<stop  offset="0.99" style="stop-color:#791C12"/>
						<stop  offset="1" style="stop-color:#791C12"/>
					</linearGradient>
					<path id="path668" fill="url(#path668_1_)" d="M330.281,422.036l63.107,34.775l0,0c35.022-5.721,55.571-24.016,62.262-52.367
						L330.281,422.036L330.281,422.036z"/>
				</g>
			</g>
		</g>
	</g>
</g>
</svg>
