<?xml version="1.0" encoding="utf-8"?>
<!-- Generator: Adobe Illustrator 22.0.1, SVG Export Plug-In . SVG Version: 6.00 Build 0)  -->
<svg version="1.1" id="Layer_1" xmlns="http://www.w3.org/2000/svg" xmlns:xlink="http://www.w3.org/1999/xlink" x="0px" y="0px"
	 viewBox="0 0 512 512" style="enable-background:new 0 0 512 512;" xml:space="preserve">
<style type="text/css">
	.st0{fill:#E77E22;}
	.st1{fill:#F1C50E;}
	.st2{fill:#1BBC9B;}
	.st3{fill:#50D78A;}
	.st4{fill:#2C97DF;}
	.st5{fill:#9C56B8;}
	.st6{fill:#34495E;}
	.st7{fill:#E74B3C;}
	.st8{opacity:0.6;clip-path:url(#SVGID_2_);}
	.st9{fill:#3D3D3D;}
	.st10{fill:#D1D0CF;}
	.st11{fill:#B59576;}
	.st12{fill:#302F2F;}
</style>
<g id="g226">
	<g id="g234" transform="translate(233.167,285.833)">
		<path id="path236" class="st0" d="M-7.3-71.7c0-46.4-37.6-84-84-84s-84,37.6-84,84s37.6,84,84,84c0,0,0.1,0,0.1,0
			c-0.1,0.8-0.1,1.5-0.1,2.3c0,16.7,13.6,30.3,30.3,30.3s30.3-13.6,30.3-30.3c0-8-3.1-15.3-8.2-20.7C-19.6-21.6-7.3-45.2-7.3-71.7"
			/>
	</g>
	<g id="g238" transform="translate(158.5,213.167)">
		<path id="path240" class="st0" d="M-37.1,102.6c8.2,0,14.9,6.7,14.9,14.9s-6.7,14.9-14.9,14.9S-52,125.8-52,117.6
			S-45.4,102.6-37.1,102.6"/>
	</g>
	<g id="g242" transform="translate(239.5,219.833)">
		<path id="path244" class="st0" d="M-4.7,86.6c4.9,0,8.9,4,8.9,8.9s-4,8.9-8.9,8.9s-8.9-4-8.9-8.9S-9.6,86.6-4.7,86.6"/>
	</g>
	<g id="g246" transform="translate(97.833,264.5)">
		<path id="path248" class="st0" d="M-61.3-20.6c4.1,0,7.5,3.3,7.5,7.5s-3.3,7.5-7.5,7.5s-7.5-3.3-7.5-7.5S-65.5-20.6-61.3-20.6"/>
	</g>
	<g id="g250" transform="translate(147.833,367)">
		<path id="path252" class="st0" d="M-41.4-266.5c8.2,0,14.9,6.7,14.9,14.9c0,8.2-6.7,14.9-14.9,14.9s-14.9-6.7-14.9-14.9
			C-56.3-259.8-49.6-266.5-41.4-266.5"/>
	</g>
	<g id="g254" transform="translate(252.333,393.5)">
		<path id="path256" class="st1" d="M0.4-330.1c-10.2,0-19.7,3.2-27.4,8.7c-1.9-5.1-6.7-8.7-12.5-8.7c-7.3,0-13.3,6-13.3,13.3
			c0,6.4,4.6,11.8,10.6,13c-3.2,6.4-5,13.6-5,21.3c0,26.3,21.3,47.6,47.6,47.6S48-256.2,48-282.5S26.7-330.1,0.4-330.1"/>
	</g>
	<g id="g258" transform="translate(206.5,370.166)">
		<path id="path260" class="st1" d="M-17.9-274.1c4.1,0,7.5,3.3,7.5,7.5s-3.3,7.5-7.5,7.5s-7.5-3.3-7.5-7.5S-22-274.1-17.9-274.1"/>
	</g>
	<g id="g262" transform="translate(254.833,407.834)">
		<path id="path264" class="st1" d="M1.4-364.5c4.4,0,7.9,3.6,7.9,7.9c0,4.4-3.6,7.9-7.9,7.9s-7.9-3.6-7.9-7.9
			C-6.5-360.9-3-364.5,1.4-364.5"/>
	</g>
	<g id="g266" transform="translate(342.5,258.833)">
		<path id="path268" class="st2" d="M36.4-7c0-30.1-24.4-54.6-54.6-54.6S-72.7-37.1-72.7-7c0,0.2,0,0.5,0,0.7
			c-3,1.3-5.2,4.1-5.6,7.5C-80.4,0.5-82.6,0-84.9,0c-10.8,0-19.6,8.8-19.6,19.6s8.8,19.6,19.6,19.6c10.5,0,19.1-8.3,19.6-18.7
			c9.5,16.2,27,27.1,47.2,27.1h0c0,0.2,0,0.3,0,0.5c0,4.9,4,8.9,8.9,8.9s8.9-4,8.9-8.9c0-1.1-0.2-2.2-0.6-3.2
			C20.7,37.7,36.4,17.2,36.4-7"/>
	</g>
	<g id="g270" transform="translate(250.167,285.833)">
		<path id="path272" class="st2" d="M-0.5-71.7c3.3,0,6.1,2.7,6.1,6.1c0,3.3-2.7,6.1-6.1,6.1s-6.1-2.7-6.1-6.1
			C-6.5-69-3.8-71.7-0.5-71.7"/>
	</g>
	<g id="g274" transform="translate(264.5,301.167)">
		<path id="path276" class="st2" d="M5.3-108.5c3.1,0,5.6,2.5,5.6,5.6c0,3.1-2.5,5.6-5.6,5.6s-5.6-2.5-5.6-5.6
			C-0.3-106,2.2-108.5,5.3-108.5"/>
	</g>
	<g id="g278" transform="translate(294.5,402.334)">
		<path id="path280" class="st2" d="M17.2-351.3c10.2,0,18.4,8.3,18.4,18.4c0,10.2-8.3,18.4-18.4,18.4s-18.4-8.3-18.4-18.4
			C-1.2-343,7.1-351.3,17.2-351.3"/>
	</g>
	<g id="g282" transform="translate(281.667,213.5)">
		<path id="path284" class="st3" d="M12.1,101.8c2.4,0,4.4,2,4.4,4.4c0,2.4-2,4.4-4.4,4.4s-4.4-2-4.4-4.4
			C7.7,103.8,9.7,101.8,12.1,101.8"/>
	</g>
	<g id="g286" transform="translate(330.333,349.166)">
		<path id="path288" class="st3" d="M31.6-223.7c-6,0-11.7,1.4-16.8,4c-2-4.5-6.6-7.7-11.9-7.7c-7.2,0-13.1,5.8-13.1,13.1
			c0,5.4,3.2,10,7.9,12C-4.7-197.5-6-192-6-186.2c0,9.1,3.2,17.4,8.6,23.9c-5,1.8-8.6,6.6-8.6,12.2c0,7.2,5.8,13,13,13s13-5.8,13-13
			c0-0.1,0-0.2,0-0.3c3.7,1.2,7.6,1.9,11.7,1.9c20.7,0,37.6-16.8,37.6-37.6S52.3-223.7,31.6-223.7"/>
	</g>
	<g id="g290" transform="translate(294.5,329.833)">
		<path id="path292" class="st3" d="M17.2-177.3c4.6,0,8.4,3.8,8.4,8.4s-3.8,8.4-8.4,8.4s-8.4-3.8-8.4-8.4S12.6-177.3,17.2-177.3"/>
	</g>
	<g id="g294" transform="translate(313,370.167)">
		<path id="path296" class="st3" d="M24.6-274.1c2.4,0,4.4,2,4.4,4.4c0,2.4-2,4.4-4.4,4.4s-4.4-2-4.4-4.4
			C20.2-272.1,22.2-274.1,24.6-274.1"/>
	</g>
	<g id="g298" transform="translate(367.131,322.333)">
		<path id="path300" class="st3" d="M46.3-159.3c4.6,0,8.4,3.8,8.4,8.4s-3.8,8.4-8.4,8.4s-8.4-3.8-8.4-8.4S41.6-159.3,46.3-159.3"/>
	</g>
	<g id="g302" transform="translate(358.167,351.833)">
		<path id="path304" class="st4" d="M42.7-230.1c3.3,0,6.1,2.7,6.1,6.1S46-218,42.7-218s-6.1-2.7-6.1-6.1S39.3-230.1,42.7-230.1"/>
	</g>
	<g id="g306" transform="translate(255.803,195.15)">
		<path id="path308" class="st4" d="M1.8,145.9c0.2-1,0.3-2,0.3-3.1c0-10-8.1-18.2-18.2-18.2s-18.2,8.1-18.2,18.2
			c0,5.5,2.5,10.5,6.4,13.8c-9.2,8-15,19.9-15,33c0,10,3.3,19.2,8.9,26.5c-0.2,0.5-0.3,0.9-0.3,1.5c0,2.1,1.7,3.7,3.7,3.7
			c0.4,0,0.7-0.1,1.1-0.2c7.9,7.6,18.6,12.3,30.4,12.3c24.2,0,43.9-19.6,43.9-43.9C44.7,165.8,25.6,146.3,1.8,145.9"/>
	</g>
	<g id="g310" transform="translate(204.833,186.5)">
		<path id="path312" class="st4" d="M-18.6,166.6c5.4,0,9.8,4.4,9.8,9.8s-4.4,9.8-9.8,9.8s-9.8-4.4-9.8-9.8S-24,166.6-18.6,166.6"/>
	</g>
	<g id="g314" transform="translate(214.5,165.167)">
		<path id="path316" class="st4" d="M-14.7,217.8c2.1,0,3.7,1.7,3.7,3.7s-1.7,3.7-3.7,3.7s-3.7-1.7-3.7-3.7S-16.8,217.8-14.7,217.8"
			/>
	</g>
	<g id="g318" transform="translate(294.5,183)">
		<path id="path320" class="st4" d="M17.2,175c2.7,0,4.9,2.2,4.9,4.9s-2.2,4.9-4.9,4.9s-4.9-2.2-4.9-4.9S14.5,175,17.2,175"/>
	</g>
	<g id="g322" transform="translate(294.5,141.5)">
		<path id="path324" class="st4" d="M17.2,274.6c3.9,0,7,3.1,7,7s-3.1,7-7,7s-7-3.1-7-7S13.4,274.6,17.2,274.6"/>
	</g>
	<g id="g326" transform="translate(267,128.833)">
		<path id="path328" class="st4" d="M6.2,305c8.8,0,15.9,7.1,15.9,15.9S15,336.7,6.2,336.7s-15.9-7.1-15.9-15.9
			C-9.6,312.1-2.5,305,6.2,305"/>
	</g>
	<g id="g330" transform="translate(351.837,202.734)">
		<path id="path332" class="st5" d="M40.2,127.7c0.5,0.1,0.9,0.2,1.4,0.2c-0.3,0.4-0.6,0.7-0.8,1.1
			C40.5,128.5,40.4,128.1,40.2,127.7 M77,110.7c-6.2,0-12.1,1.2-17.5,3.5c0.1-0.8,0.2-1.7,0.2-2.6c0-9-7.3-16.3-16.3-16.3
			c-9,0-16.3,7.3-16.3,16.3c0,3.7,1.2,7.1,3.3,9.8c-0.1,0-0.2,0-0.3,0c-6.3,0-11.4,5.1-11.4,11.4c0,6.3,5.1,11.4,11.4,11.4
			c1.2,0,2.3-0.2,3.4-0.5c-1.1,3.9-1.7,8.1-1.7,12.3c0,25,20.3,45.3,45.3,45.3s45.3-20.3,45.3-45.3S102,110.7,77,110.7"/>
	</g>
	<g id="g334" transform="translate(337.333,186.5)">
		<path id="path336" class="st5" d="M34.4,166.6c5.4,0,9.8,4.4,9.8,9.8s-4.4,9.8-9.8,9.8s-9.8-4.4-9.8-9.8S28.9,166.6,34.4,166.6"/>
	</g>
	<g id="g338" transform="translate(320.667,202.5)">
		<path id="path340" class="st5" d="M27.7,128.2c3.5,0,6.3,2.8,6.3,6.3c0,3.5-2.8,6.3-6.3,6.3s-6.3-2.8-6.3-6.3
			C21.4,131,24.2,128.2,27.7,128.2"/>
	</g>
	<g id="g342" transform="translate(329.083,210.334)">
		<path id="path344" class="st5" d="M31.1,109.4c3,0,5.5,2.5,5.5,5.5s-2.5,5.5-5.5,5.5s-5.5-2.5-5.5-5.5S28,109.4,31.1,109.4"/>
	</g>
	<g id="g346" transform="translate(376.5,224.167)">
		<path id="path348" class="st5" d="M50,76.2c3.1,0,5.6,2.5,5.6,5.6s-2.5,5.6-5.6,5.6s-5.6-2.5-5.6-5.6S46.9,76.2,50,76.2"/>
	</g>
	<g id="g350" transform="translate(337.75,165.167)">
		<path id="path352" class="st5" d="M34.5,217.8c3.7,0,6.6,3,6.6,6.6s-3,6.6-6.6,6.6s-6.6-3-6.6-6.6S30.8,217.8,34.5,217.8"/>
	</g>
	<g id="g354" transform="translate(361.131,150.667)">
		<path id="path356" class="st5" d="M43.9,252.6c2.3,0,4.2,1.9,4.2,4.2c0,2.3-1.9,4.2-4.2,4.2c-2.3,0-4.2-1.9-4.2-4.2
			C39.7,254.5,41.5,252.6,43.9,252.6"/>
	</g>
	<g id="g358" transform="translate(402.589,288.409)">
		<path id="path360" class="st6" d="M60.4-77.9c0.5-0.7,0.8-1.5,0.8-2.5c0-2.3-1.9-4.2-4.2-4.2c-1,0-2,0.4-2.7,1
			c-5.2-3.6-11.5-5.8-18.3-5.8c-16.1,0-29.5,12.1-31.5,27.7C3.8-62,3-62.2,2.1-62.2C-1.8-62.2-5-59-5-55.1s3.2,7.1,7.1,7.1
			c1.3,0,2.4-0.4,3.5-0.9c3.8,13.3,16,23.1,30.5,23.1c17.5,0,31.7-14.2,31.7-31.7C67.8-65.4,65-72.4,60.4-77.9"/>
	</g>
	<g id="g362" transform="translate(384.167,317.834)">
		<path id="path364" class="st6" d="M53.1-148.5c5.9,0,10.7,4.8,10.7,10.7s-4.8,10.7-10.7,10.7s-10.7-4.8-10.7-10.7
			S47.1-148.5,53.1-148.5"/>
	</g>
	<g id="g366" transform="translate(412.833,264.5)">
		<path id="path368" class="st6" d="M64.5-20.6c3.9,0,7,3.1,7,7s-3.1,7-7,7s-7-3.1-7-7S60.7-20.6,64.5-20.6"/>
	</g>
	<g id="g370" transform="translate(412.167,302.5)">
		<path id="path372" class="st6" d="M64.3-111.7c7,0,12.6,5.6,12.6,12.6s-5.6,12.6-12.6,12.6s-12.6-5.6-12.6-12.6
			S57.3-111.7,64.3-111.7"/>
	</g>
	<g id="g374" transform="translate(367.131,252.333)">
		<path id="path376" class="st6" d="M46.3,8.6c4.8,0,8.7,3.9,8.7,8.7s-3.9,8.7-8.7,8.7s-8.7-3.9-8.7-8.7S41.4,8.6,46.3,8.6"/>
	</g>
	<g id="g378" transform="translate(396.167,245.833)">
		<path id="path380" class="st6" d="M57.9,24.2c3.3,0,6.1,2.7,6.1,6.1s-2.7,6.1-6.1,6.1c-3.3,0-6.1-2.7-6.1-6.1S54.5,24.2,57.9,24.2
			"/>
	</g>
	<g id="g382" transform="translate(180.333,165.167)">
		<path id="path384" class="st7" d="M-28.4,217.8c-0.2,0-0.4,0-0.5,0c-3-18-18.7-31.8-37.6-31.8c-19.3,0-35.3,14.4-37.8,33
			c-1.3-0.8-2.9-1.3-4.6-1.3c-4.9,0-8.9,4-8.9,8.9c0,4.9,4,8.9,8.9,8.9c2,0,3.9-0.7,5.4-1.8c4.2,16.5,19.2,28.7,37,28.7
			c2.8,0,5.5-0.3,8.1-0.9c-0.4,0.8-0.6,1.6-0.6,2.5c0,3.3,2.7,6.1,6.1,6.1c3.3,0,6.1-2.7,6.1-6.1c0-2.3-1.3-4.3-3.3-5.4
			c0.8-0.4,1.6-0.8,2.4-1.3c4.5,5.7,11.4,9.4,19.3,9.4c13.5,0,24.5-11,24.5-24.5C-3.9,228.8-14.9,217.8-28.4,217.8"/>
	</g>
	<g id="g386" transform="translate(191.5,121.833)">
		<path id="path388" class="st7" d="M-23.9,321.8c3.3,0,6.1,2.7,6.1,6.1c0,3.3-2.7,6.1-6.1,6.1s-6.1-2.7-6.1-6.1
			C-30,324.5-27.3,321.8-23.9,321.8"/>
	</g>
	<g id="g390" transform="translate(211.833,136.5)">
		<path id="path392" class="st7" d="M-15.8,286.6c4.1,0,7.5,3.3,7.5,7.5s-3.3,7.5-7.5,7.5s-7.5-3.3-7.5-7.5S-19.9,286.6-15.8,286.6"
			/>
	</g>
	<g id="g394" transform="translate(217.5,115.167)">
		<path id="path396" class="st7" d="M-13.5,337.8c4.4,0,7.9,3.6,7.9,7.9s-3.6,7.9-7.9,7.9s-7.9-3.6-7.9-7.9S-17.9,337.8-13.5,337.8"
			/>
	</g>
	<g id="g398" transform="translate(116.5,191.167)">
		<path id="path400" class="st7" d="M-53.9,155.4c6.7,0,12.1,5.4,12.1,12.1s-5.4,12.1-12.1,12.1S-66,174.2-66,167.5
			S-60.6,155.4-53.9,155.4"/>
	</g>
	<g id="g402" transform="translate(173.911,198)">
		<path id="path404" class="st7" d="M-30.9,139c4.4,0,8,3.6,8,8c0,4.4-3.6,8-8,8s-8-3.6-8-8C-39,142.6-35.4,139-30.9,139"/>
	</g>
	<g id="g406" transform="translate(185.333,182.5)">
		<path id="path408" class="st7" d="M-26.4,176.2c3.9,0,7,3.1,7,7s-3.1,7-7,7s-7-3.1-7-7S-30.2,176.2-26.4,176.2"/>
	</g>
	<g id="g410" transform="translate(188.75,195.166)">
		<path id="path412" class="st7" d="M-25,145.8c1.2,0,2.2,1,2.2,2.2c0,1.2-1,2.2-2.2,2.2c-1.2,0-2.2-1-2.2-2.2
			C-27.2,146.8-26.2,145.8-25,145.8"/>
	</g>
	<g id="g228">
		<g id="g416">
		</g>
		<g id="g414">
			<g id="g422">
				<defs>
					<rect id="SVGID_1_" x="55.7" y="89.2" width="388.5" height="361.7"/>
				</defs>
				<clipPath id="SVGID_2_">
					<use xlink:href="#SVGID_1_"  style="overflow:visible;"/>
				</clipPath>
				<g id="g424" class="st8">
					<g id="g426" transform="translate(327.215,214.142)">
						<path id="path428" class="st9" d="M30.3,100.3c3.7,3.8,2.2,11.3-3.4,16.8l-61,60c-5.6,5.5-13.1,6.9-16.8,3.1l-3.6-3.6
							c-3.7-3.8-2.2-11.3,3.4-16.8l61-60c5.6-5.5,13.1-6.9,16.8-3.1L30.3,100.3z"/>
					</g>
					<g id="g430" transform="translate(136.662,370.569)">
						<path id="path432" class="st9" d="M-45.8-275.1L-45.8-275.1c-0.1,0-0.1-0.1-0.1-0.1c-7.9-8.1-20.9-8.2-28.9-0.2
							c-8.1,7.9-8.2,20.9-0.2,28.9c0,0.1,0.1,0.1,0.2,0.1l0,0L138.2,4.7l31.5-31l0.6-0.6l31.5-31L-45.8-275.1z"/>
					</g>
					<g id="g434" transform="translate(344.289,189.778)">
						<path id="path436" class="st9" d="M37.1,158.7c10.1,10.3,10.8,26.8,16.5,45c5.3,17,14.4,41.9,46.3,50c0,0-45.2,13-81.7,4.4
							c-19.8-4.7-43.1-18.5-53-28.6c-19.6-19.9-6-38.3,13.9-57.9S17.6,138.9,37.1,158.7"/>
					</g>
				</g>
			</g>
		</g>
		<g id="g438" transform="translate(332.882,224.309)">
			<path id="path440" class="st10" d="M32.6,75.9c3.7,3.8,2.2,11.3-3.4,16.8l-61,60c-5.6,5.5-13.1,6.9-16.8,3.1l-3.6-3.6
				c-3.7-3.8-2.2-11.3,3.4-16.8l61-60c5.6-5.5,13.1-6.9,16.8-3.1L32.6,75.9z"/>
		</g>
		<g id="g442" transform="translate(142.329,380.736)">
			<path id="path444" class="st11" d="M-43.6-299.5L-43.6-299.5c-0.1,0-0.1-0.1-0.1-0.1c-7.9-8.1-20.9-8.2-28.9-0.2
				c-8.1,7.9-8.2,20.9-0.2,28.9c0,0.1,0.1,0.1,0.2,0.1l0,0L140.4-19.7l31.5-31l0.6-0.6l31.5-31L-43.6-299.5z"/>
		</g>
		<g id="g446" transform="translate(349.956,199.945)">
			<path id="path448" class="st12" d="M39.4,134.4c10.1,10.3,10.8,26.8,16.5,45c5.3,17,14.4,41.9,46.3,50c0,0-45.2,13-81.7,4.4
				c-19.8-4.7-43.1-18.5-53-28.6c-19.6-19.9-6-38.3,13.9-57.9C1.2,127.8,19.8,114.5,39.4,134.4"/>
		</g>
	</g>
</g>
</svg>
