<?xml version="1.0" encoding="utf-8"?>
<!-- Generator: Adobe Illustrator 22.0.1, SVG Export Plug-In . SVG Version: 6.00 Build 0)  -->
<svg version="1.1" id="Layer_1" xmlns="http://www.w3.org/2000/svg" xmlns:xlink="http://www.w3.org/1999/xlink" x="0px" y="0px"
	 viewBox="0 0 512 512" style="enable-background:new 0 0 512 512;" xml:space="preserve">
<g id="g7016" transform="translate(298.9932,161.381)">
	<path id="path7018" d="M42.3,282.2L7.1,179.1h14.2l31.1,91.1h43.8l-29.3-85.8l-0.5-1.4l-1.3-3.9h13.4l35.2,103.1H42.3z
		 M-126.8,282.2l35.2-103.1H4.2l35.2,103.1H-126.8z M-129.7,282.2h-71.4l35.2-103.1h14.9l-1.3,3.9l-0.5,1.4l-29.3,85.8h43.8
		l31.1-91.1h12.7L-129.7,282.2z M-144.1,115.2h14.9l-1.3,3.9l-0.5,1.4l-19.1,55.9h-14.9L-144.1,115.2z M-116.8,35.5h14.9l-1.3,3.9
		l-0.5,1.4l-24.5,71.8h-14.9C-143.1,112.5-116.8,35.5-116.8,35.5z M-80.9-70l7.4,21.8l-27.6,81h-14.9C-115.9,32.7-80.9-70-80.9-70z
		 M-8.4-73.1l-6.3,18.5l-1.5-4.4h-53.5l-2.2,6.5l-7-20.6L-8.4-73.1L-8.4-73.1z M-6.6-70L28.5,32.7H15.1l-28.3-83L-6.6-70L-6.6-70z
		 M55.7,112.5H42.3L17.8,40.7l-0.5-1.4L16,35.5h13.4C29.4,35.5,55.7,112.5,55.7,112.5z M2,164.4h3.3h10.8l3.5,10.2l0.6,1.8H6.1
		C6.1,176.4,2,164.4,2,164.4z M-86.5,164.4h85.7l4.1,12h-93.9L-86.5,164.4z M-102.2,164.4h10.8h1.9l-4.1,12h-12.7l0.6-1.8
		C-105.7,174.6-102.2,164.4-102.2,164.4z M-72.7,115.2l-4.8,14.1h-12.7l4.8-14.1C-85.4,115.2-72.7,115.2-72.7,115.2z M-45.8,32.7
		h-11.5l5.7-16.8C-51.5,15.9-45.8,32.7-45.8,32.7z M-43.7,30.3l-6.4-18.7L-43-9.1l6.4,18.7C-36.6,9.6-43.7,30.3-43.7,30.3z
		 M-41.6,32.7l6.4-18.9l6.4,18.9C-28.7,32.7-41.6,32.7-41.6,32.7z M-68.8,112.5l25.1-73.6l25.1,73.6H-68.8z M-69.1,129.3h-5.5
		l4.8-14.1h52.1l4.8,14.1h-4.1v0H-69.1z M4.2,129.3H-9.9l-4.8-14.1h14.2L4.2,129.3z M-2.6,109.3l1.1,3.2h-14.2l-26.3-77h14.2
		L-2.6,109.3z M-58.2,35.5h12.7l-26.3,77h-12.7l1.1-3.2C-83.4,109.3-58.2,35.5-58.2,35.5z M77.5,176.4H64.1L45,120.5l-0.5-1.4
		l-1.3-3.9h13.4L77.5,176.4z M138.4,282.2h-21.9L81.4,179.1h33.5v-2.7H80.4l-20.9-61.2h55.3v-2.7H58.6l-26.3-77h63.4v-2.7H31.4
		L-4.7-73.1H69v-2.7H-4.6l20-58.7l-2.6-0.9L-6.6-78.5l-19.2-56.2l-0.2-0.7l-2.6,0.9l20,58.7h-70.3l20-58.7l-2.6-0.9l-19.4,56.9
		l-19.4-56.9l-2.6,0.9l20,58.7H-155v2.7h72.3l-36.1,105.8h-62.9v2.7h62l-26.3,77h-54.8v2.7h53.9l-20.9,61.2h-33v2.7h32.1L-204,282.2
		h-20.5v2.7h19.5l-13.2,38.8l2.6,0.9L-202,285h71.4l-13.2,38.8l2.6,0.9l13.5-39.6h168l13.5,39.6l2.6-0.9L43.2,285h71.4l13.5,39.6
		l2.6-0.9L117.5,285h20.9C138.4,285,138.4,282.2,138.4,282.2z"/>
</g>
</svg>
