<?xml version="1.0" encoding="utf-8"?>
<!-- Generator: Adobe Illustrator 22.0.1, SVG Export Plug-In . SVG Version: 6.00 Build 0)  -->
<svg version="1.1" id="Layer_1" xmlns="http://www.w3.org/2000/svg" xmlns:xlink="http://www.w3.org/1999/xlink" x="0px" y="0px"
	 viewBox="0 0 512 512" style="enable-background:new 0 0 512 512;" xml:space="preserve">
<style type="text/css">
	.st0{fill:url(#SVGID_1_);}
	.st1{fill:#FFFFFF;}
</style>
<radialGradient id="SVGID_1_" cx="256" cy="256" r="230" gradientUnits="userSpaceOnUse">
	<stop  offset="0" style="stop-color:#679A3C"/>
	<stop  offset="1" style="stop-color:#096B36"/>
</radialGradient>
<circle class="st0" cx="256" cy="256" r="230"/>
<g id="g510" transform="translate(258.2835,295.0196)">
</g>
<path class="st1" d="M400.7,198.7c1.5,0,2.8-1.2,2.8-2.8c0-1.5-1.2-2.8-2.8-2.8h-37.1v-3h37.1c1.5,0,2.8-1.2,2.8-2.8
	c0-1.5-1.2-2.8-2.8-2.8h-37.1V179c0-16.9-13.7-30.6-30.6-30.6h-5.6v-37.1c0-1.5-1.2-2.8-2.8-2.8s-2.8,1.2-2.8,2.8v37.1h-3v-37.1
	c0-1.5-1.2-2.8-2.8-2.8c-1.5,0-2.8,1.2-2.8,2.8v37.1h-3v-37.1c0-1.5-1.2-2.8-2.8-2.8c-1.5,0-2.8,1.2-2.8,2.8v37.1h-3v-37.1
	c0-1.5-1.2-2.8-2.8-2.8c-1.5,0-2.8,1.2-2.8,2.8v37.1h-3v-37.1c0-1.5-1.2-2.8-2.8-2.8c-1.5,0-2.8,1.2-2.8,2.8v37.1h-3v-37.1
	c0-1.5-1.2-2.8-2.8-2.8c-1.5,0-2.8,1.2-2.8,2.8v37.1h-3v-37.1c0-1.5-1.2-2.8-2.8-2.8s-2.8,1.2-2.8,2.8v37.1h-3v-37.1
	c0-1.5-1.2-2.8-2.8-2.8c-1.5,0-2.8,1.2-2.8,2.8v37.1h-3v-37.1c0-1.5-1.2-2.8-2.8-2.8c-1.5,0-2.8,1.2-2.8,2.8v37.1h-3v-37.1
	c0-1.5-1.2-2.8-2.8-2.8c-1.5,0-2.8,1.2-2.8,2.8v37.1h-3v-37.1c0-1.5-1.2-2.8-2.8-2.8c-1.5,0-2.8,1.2-2.8,2.8v37.1h-3v-37.1
	c0-1.5-1.2-2.8-2.8-2.8s-2.8,1.2-2.8,2.8v37.1h-3v-37.1c0-1.5-1.2-2.8-2.8-2.8c-1.5,0-2.8,1.2-2.8,2.8v37.1h-3v-37.1
	c0-1.5-1.2-2.8-2.8-2.8c-1.5,0-2.8,1.2-2.8,2.8v37.1h-3v-37.1c0-1.5-1.2-2.8-2.8-2.8c-1.5,0-2.8,1.2-2.8,2.8v37.1h-3v-37.1
	c0-1.5-1.2-2.8-2.8-2.8c-1.5,0-2.8,1.2-2.8,2.8v37.1h-3v-37.1c0-1.5-1.2-2.8-2.8-2.8c-1.5,0-2.8,1.2-2.8,2.8v37.1H179
	c-16.9,0-30.6,13.7-30.6,30.6v5.6h-37.1c-1.5,0-2.8,1.2-2.8,2.8c0,1.5,1.2,2.8,2.8,2.8h37.1v3h-37.1c-1.5,0-2.8,1.2-2.8,2.8
	c0,1.5,1.2,2.8,2.8,2.8h37.1v3h-37.1c-1.5,0-2.8,1.2-2.8,2.8c0,1.5,1.2,2.8,2.8,2.8h37.1v3h-37.1c-1.5,0-2.8,1.2-2.8,2.8
	c0,1.5,1.2,2.8,2.8,2.8h37.1v3h-37.1c-1.5,0-2.8,1.2-2.8,2.8c0,1.5,1.2,2.8,2.8,2.8h37.1v3h-37.1c-1.5,0-2.8,1.2-2.8,2.8
	c0,1.5,1.2,2.8,2.8,2.8h37.1v3h-37.1c-1.5,0-2.8,1.2-2.8,2.8c0,1.5,1.2,2.8,2.8,2.8h37.1v3h-37.1c-1.5,0-2.8,1.2-2.8,2.8
	c0,1.5,1.2,2.8,2.8,2.8h37.1v3h-37.1c-1.5,0-2.8,1.2-2.8,2.8c0,1.5,1.2,2.8,2.8,2.8h37.1v3h-37.1c-1.5,0-2.8,1.2-2.8,2.8
	c0,1.5,1.2,2.8,2.8,2.8h37.1v3h-37.1c-1.5,0-2.8,1.2-2.8,2.8c0,1.5,1.2,2.8,2.8,2.8h37.1v3h-37.1c-1.5,0-2.8,1.2-2.8,2.8
	c0,1.5,1.2,2.8,2.8,2.8h37.1v3h-37.1c-1.5,0-2.8,1.2-2.8,2.8c0,1.5,1.2,2.8,2.8,2.8h37.1v3h-37.1c-1.5,0-2.8,1.2-2.8,2.8
	c0,1.5,1.2,2.8,2.8,2.8h37.1v3h-37.1c-1.5,0-2.8,1.2-2.8,2.8c0,1.5,1.2,2.8,2.8,2.8h37.1v3h-37.1c-1.5,0-2.8,1.2-2.8,2.8
	c0,1.5,1.2,2.8,2.8,2.8h37.1v3h-37.1c-1.5,0-2.8,1.2-2.8,2.8c0,1.5,1.2,2.8,2.8,2.8h37.1v5.6c0,16.9,13.7,30.6,30.6,30.6h5.6v37.1
	c0,1.5,1.2,2.8,2.8,2.8c1.5,0,2.8-1.2,2.8-2.8v-37.1h3v37.1c0,1.5,1.2,2.8,2.8,2.8c1.5,0,2.8-1.2,2.8-2.8v-37.1h3v37.1
	c0,1.5,1.2,2.8,2.8,2.8c1.5,0,2.8-1.2,2.8-2.8v-37.1h3v37.1c0,1.5,1.2,2.8,2.8,2.8c1.5,0,2.8-1.2,2.8-2.8v-37.1h3v37.1
	c0,1.5,1.2,2.8,2.8,2.8c1.5,0,2.8-1.2,2.8-2.8v-37.1h3v37.1c0,1.5,1.2,2.8,2.8,2.8s2.8-1.2,2.8-2.8v-37.1h3v37.1
	c0,1.5,1.2,2.8,2.8,2.8c1.5,0,2.8-1.2,2.8-2.8v-37.1h3v37.1c0,1.5,1.2,2.8,2.8,2.8c1.5,0,2.8-1.2,2.8-2.8v-37.1h3v37.1
	c0,1.5,1.2,2.8,2.8,2.8c1.5,0,2.8-1.2,2.8-2.8v-37.1h3v37.1c0,1.5,1.2,2.8,2.8,2.8c1.5,0,2.8-1.2,2.8-2.8v-37.1h3v37.1
	c0,1.5,1.2,2.8,2.8,2.8s2.8-1.2,2.8-2.8v-37.1h3v37.1c0,1.5,1.2,2.8,2.8,2.8c1.5,0,2.8-1.2,2.8-2.8v-37.1h3v37.1
	c0,1.5,1.2,2.8,2.8,2.8c1.5,0,2.8-1.2,2.8-2.8v-37.1h3v37.1c0,1.5,1.2,2.8,2.8,2.8c1.5,0,2.8-1.2,2.8-2.8v-37.1h3v37.1
	c0,1.5,1.2,2.8,2.8,2.8c1.5,0,2.8-1.2,2.8-2.8v-37.1h3v37.1c0,1.5,1.2,2.8,2.8,2.8c1.5,0,2.8-1.2,2.8-2.8v-37.1h3v37.1
	c0,1.5,1.2,2.8,2.8,2.8s2.8-1.2,2.8-2.8v-37.1h5.6c16.9,0,30.6-13.7,30.6-30.6v-5.6h37.1c1.5,0,2.8-1.2,2.8-2.8
	c0-1.5-1.2-2.8-2.8-2.8h-37.1v-3h37.1c1.5,0,2.8-1.2,2.8-2.8c0-1.5-1.2-2.8-2.8-2.8h-37.1v-3h37.1c1.5,0,2.8-1.2,2.8-2.8
	c0-1.5-1.2-2.8-2.8-2.8h-37.1v-3h37.1c1.5,0,2.8-1.2,2.8-2.8c0-1.5-1.2-2.8-2.8-2.8h-37.1v-3h37.1c1.5,0,2.8-1.2,2.8-2.8
	c0-1.5-1.2-2.8-2.8-2.8h-37.1v-3h37.1c1.5,0,2.8-1.2,2.8-2.8c0-1.5-1.2-2.8-2.8-2.8h-37.1v-3h37.1c1.5,0,2.8-1.2,2.8-2.8
	c0-1.5-1.2-2.8-2.8-2.8h-37.1v-3h37.1c1.5,0,2.8-1.2,2.8-2.8c0-1.5-1.2-2.8-2.8-2.8h-37.1v-3h37.1c1.5,0,2.8-1.2,2.8-2.8
	c0-1.5-1.2-2.8-2.8-2.8h-37.1v-3h37.1c1.5,0,2.8-1.2,2.8-2.8c0-1.5-1.2-2.8-2.8-2.8h-37.1v-3h37.1c1.5,0,2.8-1.2,2.8-2.8
	c0-1.5-1.2-2.8-2.8-2.8h-37.1v-3h37.1c1.5,0,2.8-1.2,2.8-2.8c0-1.5-1.2-2.8-2.8-2.8h-37.1v-3h37.1c1.5,0,2.8-1.2,2.8-2.8
	c0-1.5-1.2-2.8-2.8-2.8h-37.1v-3h37.1c1.5,0,2.8-1.2,2.8-2.8c0-1.5-1.2-2.8-2.8-2.8h-37.1v-3h37.1c1.5,0,2.8-1.2,2.8-2.8
	c0-1.5-1.2-2.8-2.8-2.8h-37.1v-3H400.7z"/>
</svg>
