<?xml version="1.0" encoding="utf-8"?>
<!-- Generator: Adobe Illustrator 22.0.1, SVG Export Plug-In . SVG Version: 6.00 Build 0)  -->
<svg version="1.1" id="Layer_2" xmlns="http://www.w3.org/2000/svg" xmlns:xlink="http://www.w3.org/1999/xlink" x="0px" y="0px"
	 viewBox="0 0 512 512" style="enable-background:new 0 0 512 512;" xml:space="preserve">
<style type="text/css">
	.st0{fill:#DDDDDD;}
	.st1{fill:#FFFFFF;}
	.st2{fill:#BBBBBB;}
</style>
<g id="Layer_2_2_">
	<circle class="st0" cx="256" cy="256" r="230"/>
	<g>
		<path d="M96.2,90.6C52.3,133,25.4,192.6,26,258c42.9-21,105.3-44,169.8-39.8c247.8,20.3,170.5,175.5,170.5,175.5
			C478.3,285.3,375.2,89.2,96.2,90.6z"/>
		<path d="M28.8,291.8c3.4,21.9,9.9,42.7,19,62c31.1-24.3,74.2-50.4,124.6-63.1c204.5-29.7,193.9,103,193.9,103
			C396.8,310.7,270.6,165.9,28.8,291.8z"/>
		<g>
			
				<ellipse transform="matrix(0.9994 -3.419072e-02 3.419072e-02 0.9994 -13.5108 13.4032)" cx="385.1" cy="401.7" rx="4.3" ry="2.1"/>
			
				<ellipse transform="matrix(0.9994 -3.419072e-02 3.419072e-02 0.9994 -13.7873 9.2533)" cx="263.7" cy="407.8" rx="8.6" ry="4.3"/>
			
				<ellipse transform="matrix(0.9994 -3.419072e-02 3.419072e-02 0.9994 -13.6696 10.0132)" cx="285.9" cy="404.7" rx="3.4" ry="1.7"/>
		</g>
	</g>
</g>
<g id="Layer_2_1_">
	<g>
		<polygon class="st1" points="295.2,378 295.1,378 135.5,218.4 153.9,199.9 345.5,391.5 		"/>
		<polygon class="st2" points="332,341.2 332,341.2 345.5,391.5 345.5,391.5 153.9,199.9 172.4,181.5 		"/>
	</g>
</g>
</svg>
