<?xml version="1.0" encoding="utf-8"?>
<!-- Generator: Adobe Illustrator 18.0.0, SVG Export Plug-In . SVG Version: 6.00 Build 0)  -->
<!DOCTYPE svg PUBLIC "-//W3C//DTD SVG 1.1//EN" "http://www.w3.org/Graphics/SVG/1.1/DTD/svg11.dtd">
<svg version="1.1" id="Layer_1" xmlns="http://www.w3.org/2000/svg" xmlns:xlink="http://www.w3.org/1999/xlink" x="0px" y="0px"
	 viewBox="0 0 512 512" style="enable-background:new 0 0 512 512;" xml:space="preserve">
<path style="opacity:0.4;" d="M256,30C128.974,30,26,132.974,26,260s102.974,230,230,230s230-102.975,230-230S383.026,30,256,30z
	 M256.001,162.491c10.547,0,19.097,8.55,19.097,19.097s-8.55,19.097-19.097,19.097s-19.097-8.55-19.097-19.097
	S245.454,162.491,256.001,162.491z M330.997,208.761l-53.071,13.908v44.161c0,0.002,0,0.002,0,0.003v83.004
	c0,4.237-3.435,7.672-7.672,7.672c-4.238,0-7.672-3.435-7.672-7.672v-78.275h-13.163v78.275c0,4.237-3.435,7.672-7.672,7.672
	c-4.237,0-7.672-3.435-7.672-7.672v-83.004c0,0,0-0.001,0-0.002v-44.162l-53.071-13.908c-3.582-0.939-5.847-4.131-5.062-7.13
	l0.143-0.543c0.786-2.999,4.327-4.669,7.908-3.731l53.127,13.922c0.52-0.198,37.245-0.198,37.765,0l53.127-13.922
	c3.582-0.939,7.122,0.732,7.908,3.731l0.143,0.543C336.846,204.631,334.58,207.823,330.997,208.761z"/>
<path style="fill:#3995D2;" d="M256,26C128.974,26,26,128.974,26,256s102.974,230,230,230s230-102.975,230-230S383.026,26,256,26z
	 M256.001,158.491c10.547,0,19.097,8.55,19.097,19.097s-8.55,19.097-19.097,19.097s-19.097-8.55-19.097-19.097
	S245.454,158.491,256.001,158.491z M330.997,204.761l-53.071,13.908v44.161c0,0.002,0,0.002,0,0.003v83.004
	c0,4.237-3.435,7.672-7.672,7.672c-4.238,0-7.672-3.435-7.672-7.672v-78.275h-13.163v78.275c0,4.237-3.435,7.672-7.672,7.672
	c-4.237,0-7.672-3.435-7.672-7.672v-83.004c0,0,0-0.001,0-0.002v-44.162l-53.071-13.908c-3.582-0.939-5.847-4.131-5.062-7.13
	l0.143-0.543c0.786-2.999,4.327-4.669,7.908-3.731l53.127,13.922c0.52-0.198,37.245-0.198,37.765,0l53.127-13.922
	c3.582-0.939,7.122,0.732,7.908,3.731l0.143,0.543C336.846,200.631,334.58,203.823,330.997,204.761z"/>
</svg>
