<?xml version="1.0" encoding="utf-8"?>
<!-- Generator: Adobe Illustrator 18.0.0, SVG Export Plug-In . SVG Version: 6.00 Build 0)  -->
<!DOCTYPE svg PUBLIC "-//W3C//DTD SVG 1.1//EN" "http://www.w3.org/Graphics/SVG/1.1/DTD/svg11.dtd">
<svg version="1.1" id="Layer_1" xmlns="http://www.w3.org/2000/svg" xmlns:xlink="http://www.w3.org/1999/xlink" x="0px" y="0px"
	 viewBox="0 0 512 512" enable-background="new 0 0 512 512" xml:space="preserve">
<g>
	<g>
		<g>
			<path fill="#700519" d="M413.7,430c0.5,3-1,5.8-3.4,6.3l45.3-8c2.4-0.4,3.9-3.2,3.4-6.3l-43.5-246.6l-45.3,8L413.7,430z"/>
			<g>
				<path fill="#E74D3D" d="M398.3,75.9L348,84.8l-8.9-50.3l45.9-8.1c2.4-0.4,4.7,1.2,5.1,3.6L398.3,75.9z"/>
				
					<rect x="352" y="79.6" transform="matrix(-0.9848 0.1736 -0.1736 -0.9848 767.5571 143.0997)" fill="#F0C519" width="51.1" height="51.1"/>
				
					<rect x="360.8" y="129.5" transform="matrix(-0.9848 0.1736 -0.1736 -0.9848 793.7078 240.695)" fill="#69C186" width="51.1" height="51.1"/>
				
					<rect x="369.6" y="179.5" transform="matrix(-0.9848 0.1736 -0.1736 -0.9848 819.8583 338.2903)" fill="#3B97D3" width="51.1" height="51.1"/>
			</g>
		</g>
		<path fill="#B70000" d="M410.3,436.3l-283.3,50c-2.4,0.4-4.7-1.2-5.1-3.6L52.4,89c-0.4-2.4,1.2-4.7,3.6-5.1l283.3-50
			c2.4-0.4,4.7,1.2,5.1,3.6l69.4,393.7C414.3,433.5,412.7,435.9,410.3,436.3z"/>
		<g display="none">
			<g display="inline">
				<path fill="#FFFCF1" d="M332.6,55.4c-1,0.2-1.9-0.5-2.1-1.4l-0.9-5.2c-0.2-1,0.5-1.9,1.4-2.1c1-0.2,1.9,0.5,2.1,1.4l0.9,5.2
					C334.2,54.3,333.6,55.2,332.6,55.4z"/>
			</g>
			<g display="inline">
				<path fill="#FFFCF1" d="M395.7,413.3c-1,0.2-1.9-0.5-2.1-1.4l-1.8-10.3c-0.2-1,0.5-1.9,1.4-2.1c1-0.2,1.9,0.5,2.1,1.4l1.8,10.3
					C397.3,412.2,396.7,413.1,395.7,413.3z M392.4,394.5c-1,0.2-1.9-0.5-2.1-1.4l-1.8-10.3c-0.2-1,0.5-1.9,1.4-2.1
					c1-0.2,1.9,0.5,2.1,1.4l1.8,10.3C394,393.4,393.3,394.3,392.4,394.5z M389.1,375.6c-1,0.2-1.9-0.5-2.1-1.4l-1.8-10.3
					c-0.2-1,0.5-1.9,1.4-2.1c1-0.2,1.9,0.5,2.1,1.4l1.8,10.3C390.7,374.5,390,375.5,389.1,375.6z M385.7,356.8
					c-1,0.2-1.9-0.5-2.1-1.4l-1.8-10.3c-0.2-1,0.5-1.9,1.4-2.1c1-0.2,1.9,0.5,2.1,1.4l1.8,10.3C387.3,355.7,386.7,356.6,385.7,356.8
					z M382.4,338c-1,0.2-1.9-0.5-2.1-1.4l-1.8-10.3c-0.2-1,0.5-1.9,1.4-2.1s1.9,0.5,2.1,1.4l1.8,10.3
					C384,336.9,383.4,337.8,382.4,338z M379.1,319.1c-1,0.2-1.9-0.5-2.1-1.4l-1.8-10.3c-0.2-1,0.5-1.9,1.4-2.1s1.9,0.5,2.1,1.4
					l1.8,10.3C380.7,318,380.1,319,379.1,319.1z M375.8,300.3c-1,0.2-1.9-0.5-2.1-1.4l-1.8-10.3c-0.2-1,0.5-1.9,1.4-2.1
					c1-0.2,1.9,0.5,2.1,1.4l1.8,10.3C377.4,299.2,376.7,300.1,375.8,300.3z M372.4,281.4c-1,0.2-1.9-0.5-2.1-1.4l-1.8-10.3
					c-0.2-1,0.5-1.9,1.4-2.1s1.9,0.5,2.1,1.4l1.8,10.3C374.1,280.4,373.4,281.3,372.4,281.4z M369.1,262.6c-1,0.2-1.9-0.5-2.1-1.4
					l-1.8-10.3c-0.2-1,0.5-1.9,1.4-2.1c1-0.2,1.9,0.5,2.1,1.4l1.8,10.3C370.7,261.5,370.1,262.4,369.1,262.6z M365.8,243.8
					c-1,0.2-1.9-0.5-2.1-1.4l-1.8-10.3c-0.2-1,0.5-1.9,1.4-2.1c1-0.2,1.9,0.5,2.1,1.4l1.8,10.3C367.4,242.7,366.8,243.6,365.8,243.8
					z M362.5,224.9c-1,0.2-1.9-0.5-2.1-1.4l-1.8-10.3c-0.2-1,0.5-1.9,1.4-2.1c1-0.2,1.9,0.5,2.1,1.4l1.8,10.3
					C364.1,223.8,363.4,224.8,362.5,224.9z M359.2,206.1c-1,0.2-1.9-0.5-2.1-1.4l-1.8-10.3c-0.2-1,0.5-1.9,1.4-2.1
					c1-0.2,1.9,0.5,2.1,1.4l1.8,10.3C360.8,205,360.1,205.9,359.2,206.1z M355.8,187.3c-1,0.2-1.9-0.5-2.1-1.4l-1.8-10.3
					c-0.2-1,0.5-1.9,1.4-2.1c1-0.2,1.9,0.5,2.1,1.4l1.8,10.3C357.5,186.2,356.8,187.1,355.8,187.3z M352.5,168.4
					c-1,0.2-1.9-0.5-2.1-1.4l-1.8-10.3c-0.2-1,0.5-1.9,1.4-2.1s1.9,0.5,2.1,1.4l1.8,10.3C354.1,167.3,353.5,168.2,352.5,168.4z
					 M349.2,149.6c-1,0.2-1.9-0.5-2.1-1.4l-1.8-10.3c-0.2-1,0.5-1.9,1.4-2.1c1-0.2,1.9,0.5,2.1,1.4l1.8,10.3
					C350.8,148.5,350.2,149.4,349.2,149.6z M345.9,130.7c-1,0.2-1.9-0.5-2.1-1.4L342,119c-0.2-1,0.5-1.9,1.4-2.1
					c1-0.2,1.9,0.5,2.1,1.4l1.8,10.3C347.5,129.6,346.8,130.6,345.9,130.7z M342.6,111.9c-1,0.2-1.9-0.5-2.1-1.4l-1.8-10.3
					c-0.2-1,0.5-1.9,1.4-2.1c1-0.2,1.9,0.5,2.1,1.4l1.8,10.3C344.2,110.8,343.5,111.7,342.6,111.9z M339.2,93.1
					c-1,0.2-1.9-0.5-2.1-1.4l-1.8-10.3c-0.2-1,0.5-1.9,1.4-2.1c1-0.2,1.9,0.5,2.1,1.4l1.8,10.3C340.8,92,340.2,92.9,339.2,93.1z
					 M335.9,74.2c-1,0.2-1.9-0.5-2.1-1.4L332,62.5c-0.2-1,0.5-1.9,1.4-2.1s1.9,0.5,2.1,1.4l1.8,10.3
					C337.5,73.1,336.9,74.1,335.9,74.2z"/>
			</g>
			<g display="inline">
				<path fill="#FFFCF1" d="M398.1,427.1c-1,0.2-1.9-0.5-2.1-1.4l-0.9-5.2c-0.2-1,0.5-1.9,1.4-2.1s1.9,0.5,2.1,1.4l0.9,5.2
					C399.7,426,399.1,427,398.1,427.1z"/>
			</g>
		</g>
		<path fill="#A3002B" d="M167.1,474.6l-34.7-196.8L97.7,81c-0.4-2.4,1.2-4.7,3.6-5.1l-45.3,8c-2.4,0.4-4,2.7-3.6,5.1l69.4,393.7
			c0.4,2.4,2.7,4,5.1,3.6l45.3-8C169.9,478.7,167.6,477.1,167.1,474.6z"/>
	</g>
	<g>
		<path fill="#FFFFFF" d="M240.1,285.4l-46.6,8.2l-5.3,31l-15.1,2.7l22.9-118.8l12.8-2.3L270.9,310l-15.1,2.7L240.1,285.4z
			 M195.8,280.8l37.8-6.7l-28.1-48.7L195.8,280.8z"/>
		<path fill="#FFFFFF" d="M334.7,298.7c-1.1-1.5-2.3-4.3-3.5-8.4c-5.4,8-12.6,12.8-21.7,14.4c-8.2,1.4-15.2,0.3-21.3-3.4
			c-6-3.7-9.7-9.1-10.9-16.2c-1.5-8.6,0.6-15.9,6.3-21.8c5.7-5.9,14.5-9.9,26.4-12l13.8-2.4l-1.1-6.5c-0.9-4.9-3-8.6-6.5-11
			c-3.5-2.4-8.1-3.1-13.8-2.1c-5,0.9-9,2.9-12,6.1c-3,3.2-4.1,6.5-3.5,10.2l-14.2,2.5c-0.7-4.1,0-8.4,2.3-12.7
			c2.3-4.4,5.7-8.1,10.3-11.2c4.6-3.1,9.9-5.2,16-6.3c9.5-1.7,17.4-0.6,23.7,3.2c6.2,3.8,10.2,9.9,11.9,18.2l6.7,38.1
			c1.3,7.6,3.4,13.5,6.1,17.6l0.2,1.2L334.7,298.7L334.7,298.7z M309.4,292.1c4.4-0.8,8.4-2.7,12-5.7c3.6-3,5.9-6.5,7.1-10.5l-3-17
			l-11.1,2c-17.3,3.1-25.1,9.7-23.3,19.8c0.8,4.4,2.9,7.6,6.3,9.6C300.7,292.3,304.7,292.9,309.4,292.1z"/>
	</g>
</g>
</svg>
