<?xml version="1.0" encoding="utf-8"?>
<!-- Generator: Adobe Illustrator 18.0.0, SVG Export Plug-In . SVG Version: 6.00 Build 0)  -->
<!DOCTYPE svg PUBLIC "-//W3C//DTD SVG 1.1//EN" "http://www.w3.org/Graphics/SVG/1.1/DTD/svg11.dtd">
<svg version="1.1" id="Layer_1" xmlns="http://www.w3.org/2000/svg" xmlns:xlink="http://www.w3.org/1999/xlink" x="0px" y="0px"
	 viewBox="0 0 512 512" enable-background="new 0 0 512 512" xml:space="preserve">
<g>
	<g>
		<g>
			<path fill="#525251" d="M256,87.3c-103,0-186.9,83.8-186.9,186.9S153,461,256,461s186.9-83.8,186.9-186.9
				C442.9,171.1,359,87.3,256,87.3z"/>
			<linearGradient id="SVGID_1_" gradientUnits="userSpaceOnUse" x1="256" y1="486" x2="256" y2="62.2259">
				<stop  offset="0" style="stop-color:#FFFFFF"/>
				<stop  offset="1" style="stop-color:#000000"/>
			</linearGradient>
			<path fill="url(#SVGID_1_)" d="M256,486c-116.8,0-211.9-95.1-211.9-211.9S139.2,62.2,256,62.2c116.8,0,211.9,95,211.9,211.9
				S372.8,486,256,486z M256,112.3c-89.2,0-161.8,72.6-161.8,161.8S166.8,436,256,436c89.2,0,161.8-72.6,161.8-161.8
				C417.8,184.9,345.2,112.3,256,112.3z"/>
		</g>
		<g>
			<path fill="#E2E2E2" d="M256,399.7c-103,0-186.9-83.8-186.9-186.9S153,26,256,26c103,0,186.9,83.8,186.9,186.9
				C442.9,315.9,359,399.7,256,399.7z M256,108.3c-57.7,0-104.6,46.9-104.6,104.6c0,57.7,46.9,104.6,104.6,104.6
				s104.6-46.9,104.6-104.6S313.7,108.3,256,108.3z"/>
			<circle fill="#FFFFFF" cx="256" cy="212.9" r="145.7"/>
		</g>
	</g>
	<g>
		<g>
			<linearGradient id="SVGID_2_" gradientUnits="userSpaceOnUse" x1="183.9289" y1="168.7129" x2="242.5234" y2="168.7129">
				<stop  offset="0" style="stop-color:#202021"/>
				<stop  offset="1" style="stop-color:#202021"/>
			</linearGradient>
			<path fill="url(#SVGID_2_)" d="M225,185.7h-23.6c-1.9,0-3.6,1.2-4.2,3l-4.6,12.7c-0.6,1.8-2.3,3-4.2,3h0c-3.1,0-5.3-3.1-4.2-6.1
				L208,136c0.7-1.7,2.3-2.9,4.2-2.9h2.1c1.9,0,3.5,1.1,4.2,2.9l23.8,62.2c1.1,2.9-1,6.1-4.2,6.1l0,0c-1.9,0-3.6-1.2-4.2-2.9
				l-4.7-12.7C228.5,186.9,226.9,185.7,225,185.7z M207.5,178h11.4c3.1,0,5.3-3.1,4.2-6l-5.7-15.7c-1.4-3.9-7-3.9-8.4,0l-5.7,15.7
				C202.2,174.9,204.4,178,207.5,178z"/>
		</g>
		<g>
			<linearGradient id="SVGID_3_" gradientUnits="userSpaceOnUse" x1="280.9374" y1="170.5887" x2="324.0363" y2="170.5887">
				<stop  offset="0" style="stop-color:#202021"/>
				<stop  offset="1" style="stop-color:#202021"/>
			</linearGradient>
			<path fill="url(#SVGID_3_)" d="M285.3,159.1c0-1,0.1-1.9,0.3-2.7c0-0.1,0.1-0.2,0.1-0.3c0.6-1.8,1.5-3.1,2.7-4.1
				c0.5-0.3,1.2-0.8,2-1.5l-1.5-0.9c-0.1,0-0.1-0.1-0.2-0.1l-2.4-1.1c0,0-0.1,0-0.1-0.1l-2.9-1.1c-1.5-0.6-2.3-0.9-2.3-0.9v-3
				c0-0.6,0.3-1.1,0.7-1.5c1.9-1.6,3.7-2.8,5.4-3.8c4.1-2.4,8.2-3.9,12.3-4.6c1.4-0.3,2.8-0.4,4.2-0.4c4.5,0,8.8,0.9,12.9,2.6
				c5.1,2.1,7.7,6.5,7.7,13.3v57.6c0,1.1-0.9,2-2,2h-4.2c-1.1,0-2-0.9-2-2v-57.2c0-4.4-1.4-7.2-4.3-8.5c-2.5-1.1-5.2-1.7-8.2-1.7
				c-2.6,0-5.2,0.5-7.8,1.6c-0.8,0.3-1.6,0.7-2.4,1.1c-1.3,0.7-1.3,2.7,0.1,3.4c0,0,0,0,0,0l2.5,1.3c0.1,0,0.1,0.1,0.2,0.1l2.7,1.9
				c0.3,0.3,0.8,0.6,1.5,1.1c0.2,0.2,0.3,0.4,0.5,0.5c-2.7,1.3-4.6,2.7-5.8,4.1c-1,1.2-1.6,3.3-1.6,6.2v8.2c0.4-0.2,0.9-0.3,1.5-0.3
				c1,0,2.4,0.3,4.1,1c3.2,1.2,4.9,4.4,4.9,9.5c0,2.5-1,4.6-2.9,6.2c-1.8,1.6-4,2.4-6.5,2.4c-2.7,0-4.9-0.9-6.6-2.7
				c-1.7-1.8-2.6-4.1-2.6-6.7V159.1z M298.8,177.7c0-2.6-1.3-3.9-3.8-3.9c-2.7,0-4,1.3-4,3.9c0,2.8,1.3,4.2,4,4.2
				C297.6,181.9,298.8,180.5,298.8,177.7z"/>
			<linearGradient id="SVGID_4_" gradientUnits="userSpaceOnUse" x1="273.5574" y1="274.4003" x2="328.0711" y2="274.4003">
				<stop  offset="0" style="stop-color:#202021"/>
				<stop  offset="1" style="stop-color:#202021"/>
			</linearGradient>
			<path fill="url(#SVGID_4_)" d="M307.9,261.6l8.4,21.5c0.8,2,3.8,1.5,3.8-0.7v-42.9c0-1.1,0.9-2,2-2h4.2c1.1,0,2,0.9,2,2v69.9
				c0,1.1-0.9,2-2,2h-5.5c-0.8,0-1.5-0.5-1.8-1.3L306.3,277c-0.1-0.1-0.1-0.3-0.1-0.4l-0.4-2.5l-0.3,2.5c0,0.2-0.1,0.3-0.1,0.5
				l-12.1,33c-0.3,0.8-1,1.3-1.8,1.3H286c-1.1,0-2-0.9-2-2v-33.8c-0.3,0.2-0.9,0.2-1.6,0.2c-2.3,0-4.3-0.7-5.9-2c-2-1.7-3-4.5-3-8.4
				c0-2.6,1.3-5,4-7c1.4-1,3.2-1.6,5.4-1.6c3,0,5.3,1,6.9,3.1c1.5,2,2.3,4.1,2.3,6.3v15.9c0,2.2,3,2.7,3.8,0.7l8.2-21.3
				C304.9,259.9,307.2,259.9,307.9,261.6z M278.7,266.6c0,3.3,2,4.5,6,3.7c0.7-0.2,1.4-0.9,1.5-1.6c0.7-4.2-0.5-6.3-3.7-6.3
				C280,262.4,278.7,263.8,278.7,266.6z"/>
		</g>
	</g>
</g>
</svg>
