<?xml version="1.0" encoding="utf-8"?>
<!-- Generator: Adobe Illustrator 18.0.0, SVG Export Plug-In . SVG Version: 6.00 Build 0)  -->
<!DOCTYPE svg PUBLIC "-//W3C//DTD SVG 1.1//EN" "http://www.w3.org/Graphics/SVG/1.1/DTD/svg11.dtd">
<svg version="1.1" id="Layer_1" xmlns="http://www.w3.org/2000/svg" xmlns:xlink="http://www.w3.org/1999/xlink" x="0px" y="0px"
	 viewBox="0 0 512 512" enable-background="new 0 0 512 512" xml:space="preserve">
<g id="Layer_2">
	<path fill="#AA1F27" d="M365.7,54.6c-14.1,14.1-20.4,33.1-18.7,51.6l-72.4-72.4c-10.3-10.3-26.9-10.3-37.1,0l-71.9,71.9
		c18.2-1.3,36.8,4.9,50.6,18.8c25.3,25.3,25.3,66.4,0,91.7s-66.4,25.3-91.7,0c-13.9-13.9-20.1-32.5-18.8-50.6l-71.9,71.9
		c-10.3,10.3-10.3,26.9,0,37.1l203.7,203.7c10.3,10.3,26.9,10.3,37.1,0l74.4-74.4c-0.7,17.8,5.8,35.8,19.4,49.4
		c25.9,25.9,68,25.9,93.9,0c25.9-25.9,25.9-68,0-93.9c-13.6-13.6-31.6-20.1-49.4-19.4l65.5-65.5c10.3-10.3,10.3-26.9,0-37.1
		L405.9,165c18.4,1.6,37.5-4.6,51.6-18.7c25.3-25.3,25.3-66.4,0-91.7C432.1,29.2,391.1,29.2,365.7,54.6z"/>
</g>
</svg>
