<?xml version="1.0" encoding="utf-8"?>
<!-- Generator: Adobe Illustrator 18.0.0, SVG Export Plug-In . SVG Version: 6.00 Build 0)  -->
<!DOCTYPE svg PUBLIC "-//W3C//DTD SVG 1.1//EN" "http://www.w3.org/Graphics/SVG/1.1/DTD/svg11.dtd">
<svg version="1.1" id="Layer_2" xmlns="http://www.w3.org/2000/svg" xmlns:xlink="http://www.w3.org/1999/xlink" x="0px" y="0px"
	 viewBox="0 0 512 512" style="enable-background:new 0 0 512 512;" xml:space="preserve">
<g>
	<circle style="fill:#061128;" cx="256" cy="256" r="230"/>
	<path style="fill:#02244C;" d="M256,220.124c-23.818,0-48.467,1.855-73.447,5.521c15.055,20.249,31.16,38.981,47.989,55.811
		c9.842,9.842,20.446,19.533,31.55,28.84c28.903-0.487,58.143-4.438,87.107-11.762c-17.641-29.193-37.535-55.113-59.259-77.199
		C278.516,220.531,267.113,220.124,256,220.124z"/>
	<path style="fill:#3D8BFC;" d="M256,204.087c5.297,0,10.654,0.089,16.048,0.267c-58.078-51.501-123.231-76.753-152.49-86.233
		c8.495,19.162,25.698,54.314,52.498,92.916C200.596,206.423,228.808,204.087,256,204.087z"/>
	<path style="fill:#0B56CE;" d="M451.044,257.457c-23.553-9.114-74.46-26.461-137-33.846c18.626,20.846,35.785,44.47,51.202,70.512
		C404.898,282.335,435.029,266.761,451.044,257.457z"/>
	<path style="fill:#83B6FF;" d="M219.203,292.796c-20.342-20.342-39.641-43.353-57.359-68.389
		c-31.693-44.784-50.657-84.92-58.869-104.097c-0.253,0.287-1.784,2.028-1.784,2.028c-0.855,0.989-1.698,1.991-2.538,3.001
		l-0.606,0.724c-0.923,1.121-1.833,2.252-2.742,3.404l-0.291,0.366c-0.969,1.235-1.925,2.48-2.935,3.83
		c-5.871,7.853-11.217,16.193-15.877,24.765l-0.089,0.164c-0.733,1.352-1.449,2.712-2.149,4.074l-0.273,0.534
		c-0.63,1.235-1.246,2.477-1.85,3.723l-0.482,1.005c-0.52,1.09-1.032,2.185-1.536,3.29c-0.236,0.517-0.467,1.035-0.7,1.558
		c-0.409,0.916-0.811,1.836-1.206,2.757c-0.309,0.723-0.613,1.449-0.918,2.185c-0.301,0.728-0.601,1.457-0.89,2.179
		c-0.373,0.933-0.738,1.867-1.099,2.811l-0.607,1.594c-0.423,1.134-0.836,2.271-1.241,3.416l-0.366,1.041
		c-0.456,1.313-0.899,2.63-1.367,4.073l-0.141,0.433c-0.47,1.464-0.926,2.933-1.363,4.405l-0.048,0.162
		c-2.773,9.382-4.889,19.057-6.286,28.725l-0.023,0.16c-0.223,1.551-0.428,3.104-0.615,4.665l-0.053,0.467
		c-0.171,1.445-0.328,2.891-0.467,4.334l-0.085,0.963c-0.119,1.295-0.232,2.592-0.326,3.892l-0.102,1.607
		c-0.072,1.103-0.144,2.206-0.198,3.299c-0.027,0.576-0.047,1.154-0.067,1.732l-0.057,1.542c-0.023,0.572-0.045,1.145-0.06,1.72
		c-0.005,0.209-0.01,0.418-0.015,0.628c17.235,10.382,93.03,52.924,185.589,58.244C230.927,304.22,224.94,298.535,219.203,292.796z"
		/>
	<g>
		<path style="fill:#43A1FF;" d="M256,204.087c5.297,0,10.654,0.089,16.048,0.267c-43.182-38.292-90.263-62.064-123.606-75.64
			c-5.771,4.882-11.209,10.145-16.268,15.757c9.523,18.589,22.734,41.867,39.882,66.566
			C200.596,206.423,228.808,204.087,256,204.087z"/>
		<path style="fill:#43A1FF;" d="M365.246,294.123c22.082-6.565,41.2-14.302,56.582-21.478c0.543-5.475,0.825-11.027,0.825-16.645
			c0-2.891-0.074-5.765-0.22-8.621c-26.959-8.659-64.848-18.627-108.39-23.769C332.67,244.457,349.829,268.081,365.246,294.123z"/>
	</g>
	<path style="fill:#298AFF;" d="M259.305,326.371l-0.913,0.009c-0.796,0.008-1.59,0.016-2.391,0.016
		c-94.509,0-173.822-38.914-204.011-55.948l0.033,0.514c0.094,1.298,0.207,2.595,0.326,3.89l0.085,0.96
		c0.14,1.447,0.297,2.893,0.471,4.363l0.051,0.448c0.186,1.555,0.392,3.109,0.594,4.52l0.039,0.266
		c1.402,9.701,3.518,19.376,6.291,28.757l0.049,0.163c0.436,1.474,0.892,2.94,1.357,4.39l0.186,0.572
		c0.428,1.319,0.871,2.636,1.327,3.95l0.37,1.046c0.402,1.14,0.815,2.276,1.233,3.395l0.615,1.616
		c0.359,0.937,0.724,1.872,1.092,2.791c0.294,0.731,0.593,1.463,0.901,2.204c0.301,0.727,0.605,1.453,0.911,2.169
		c0.395,0.924,0.799,1.843,1.209,2.764c0.231,0.518,0.463,1.037,0.699,1.557c0.503,1.101,1.015,2.197,1.536,3.289l0.481,1.002
		c0.605,1.248,1.22,2.49,1.856,3.735l0.262,0.515c0.703,1.367,1.419,2.728,2.152,4.078l0.078,0.144
		c4.673,8.595,10.019,16.936,15.96,24.883c0.94,1.258,1.897,2.503,2.861,3.732l0.306,0.384c0.899,1.14,1.809,2.272,2.714,3.372
		l0.628,0.75c0.836,1.007,1.679,2.008,2.531,2.994l1.074,1.218c0.724,0.825,1.449,1.651,2.189,2.465
		c0.385,0.426,0.778,0.846,1.17,1.265l0.506,0.543c0,0,1.33,1.438,1.713,1.842c1.161,1.218,2.339,2.429,3.535,3.624
		c1.197,1.197,2.407,2.376,3.625,3.535c0.425,0.404,0.856,0.802,1.287,1.2l0.561,0.52c0,0,1.385,1.292,1.803,1.673
		c0.829,0.752,1.671,1.491,2.527,2.241l1.161,1.023c0.987,0.854,1.986,1.695,3.011,2.545l0.715,0.598
		c1.121,0.924,2.252,1.832,3.381,2.724l0.389,0.31c1.236,0.969,2.482,1.925,3.828,2.932c7.849,5.87,16.189,11.215,24.769,15.881
		l0.161,0.086c1.352,0.735,2.713,1.45,4.024,2.125l0.583,0.296c1.236,0.631,2.479,1.247,3.709,1.845l1.015,0.486
		c1.095,0.523,2.193,1.035,3.286,1.535l1.577,0.706c0.911,0.409,1.826,0.808,2.752,1.204c0.724,0.31,1.449,0.614,2.173,0.915
		c0.73,0.302,1.461,0.601,2.18,0.89c0.934,0.373,1.871,0.741,2.904,1.135l1.511,0.575c1.133,0.423,2.269,0.836,3.412,1.24
		l1.045,0.366c1.312,0.456,2.626,0.899,3.933,1.322l0.572,0.186c1.464,0.471,2.933,0.926,4.404,1.363l0.16,0.047
		c9.375,2.772,19.05,4.888,28.658,6.279l0.226,0.03c1.554,0.224,3.109,0.429,4.627,0.612l0.501,0.056
		c1.446,0.171,2.893,0.329,4.319,0.467l0.983,0.086c1.298,0.121,2.595,0.232,3.903,0.327l1.59,0.1
		c1.106,0.072,2.21,0.146,3.305,0.199c0.575,0.027,3.205,0.121,3.205,0.121c0.598,0.025,1.196,0.049,1.785,0.063
		c1.683,0.042,3.37,0.064,5.063,0.064s3.38-0.022,5.055-0.063c0.598-0.016,1.197-0.039,1.795-0.064l0.719-0.028
		c0,0,1.909-0.066,2.474-0.092c1.103-0.053,2.204-0.125,3.323-0.199l1.59-0.1c1.3-0.096,2.598-0.207,3.914-0.329l0.941-0.081
		c1.449-0.141,2.896-0.299,4.36-0.471l0.443-0.05c1.558-0.188,3.113-0.393,4.792-0.633c9.708-1.405,19.384-3.521,28.682-6.269
		l0.236-0.07c1.472-0.437,2.94-0.891,4.396-1.359l0.568-0.185c1.319-0.428,2.633-0.871,3.964-1.333l1.032-0.363
		c1.139-0.401,2.272-0.814,3.406-1.237l1.605-0.611c0.938-0.36,1.875-0.727,2.791-1.092c0.735-0.296,1.466-0.595,2.197-0.899
		c0.727-0.301,1.452-0.605,2.182-0.916c0.918-0.393,1.832-0.792,2.758-1.207l1.549-0.694c1.106-0.506,2.207-1.02,3.295-1.538
		l1.001-0.481c1.25-0.606,2.492-1.222,3.76-1.868l0.49-0.249c1.369-0.705,2.731-1.421,4.081-2.153l0.144-0.078
		c8.598-4.675,16.939-10.022,24.878-15.956c1.258-0.943,2.503-1.898,3.738-2.868l0.379-0.302c1.142-0.901,2.272-1.809,3.386-2.725
		l0.744-0.625c1.005-0.833,2.003-1.673,2.99-2.526l1.301-1.146c0.797-0.7,1.596-1.4,2.379-2.111c0.404-0.368,2.41-2.235,2.41-2.235
		c0.418-0.385,0.838-0.772,1.243-1.159c1.22-1.162,2.431-2.341,3.622-3.532c1.198-1.2,2.377-2.41,3.533-3.622
		c0.392-0.412,0.777-0.83,1.162-1.247c0,0,1.87-2.011,2.236-2.413c0.716-0.789,1.419-1.59,2.122-2.391l1.137-1.29
		c0.854-0.987,1.693-1.984,2.554-3.023l0.59-0.703c0.922-1.121,1.831-2.252,2.722-3.381l0.312-0.392
		c0.969-1.236,1.925-2.481,2.932-3.826c5.87-7.851,11.217-16.192,15.892-24.79l0.078-0.144c0.733-1.35,1.449-2.713,2.122-4.02
		l0.298-0.586c0.63-1.234,1.245-2.476,1.85-3.721l0.479-0.999c0.523-1.095,1.035-2.196,1.535-3.287l0.706-1.577
		c0.409-0.911,0.808-1.826,1.203-2.75c0.31-0.724,0.614-1.449,0.915-2.175c0.304-0.731,0.603-1.463,0.891-2.178
		c0.373-0.935,0.739-1.872,1.099-2.81l0.611-1.607c0.423-1.132,0.836-2.266,1.29-3.552l0.316-0.905
		c0.456-1.311,0.899-2.625,1.328-3.951l0.18-0.553c0.471-1.464,0.924-2.93,1.363-4.404l0.047-0.161
		c2.772-9.373,4.888-19.049,6.277-28.651l0.031-0.233c0.224-1.552,0.429-3.109,0.612-4.617l0.056-0.512
		c0.171-1.444,0.329-2.891,0.468-4.321l0.085-0.977c0.121-1.298,0.232-2.597,0.327-3.903l0.006-0.089
		c-17.381,10.214-51.084,27.716-96.35,40.42C329.041,320.99,293.94,326.067,259.305,326.371z"/>
	<path style="fill:#6CAFFF;" d="M421.763,238.697C413.106,154.788,342.197,89.347,256,89.347c-37.67,0-72.416,12.504-100.327,33.58
		c37.931,15.846,91.314,44.097,137.847,90.631C345.107,217.499,390.247,228.763,421.763,238.697z"/>
</g>
</svg>
