<?xml version="1.0" encoding="utf-8"?>
<!-- Generator: Adobe Illustrator 18.0.0, SVG Export Plug-In . SVG Version: 6.00 Build 0)  -->
<!DOCTYPE svg PUBLIC "-//W3C//DTD SVG 1.1//EN" "http://www.w3.org/Graphics/SVG/1.1/DTD/svg11.dtd">
<svg version="1.1" id="Layer_1" xmlns="http://www.w3.org/2000/svg" xmlns:xlink="http://www.w3.org/1999/xlink" x="0px" y="0px"
	 viewBox="0 0 512 512" enable-background="new 0 0 512 512" xml:space="preserve">
<g>
	<g opacity="0.4">
		<path d="M256,374.8c-64.4,0-116.8-52.4-116.8-116.8S191.6,141.2,256,141.2S372.8,193.6,372.8,258S320.4,374.8,256,374.8z M256,146
			c-61.7,0-112,50.2-112,112s50.2,112,112,112s112-50.2,112-112S317.7,146,256,146z"/>
		<path d="M256,417.1c-87.8,0-159.1-71.4-159.1-159.1c0-87.8,71.4-159.1,159.1-159.1c87.8,0,159.1,71.4,159.1,159.1
			C415.1,345.8,343.8,417.1,256,417.1z M256,103.7c-85.1,0-154.3,69.2-154.3,154.3c0,85.1,69.2,154.3,154.3,154.3
			c85.1,0,154.3-69.2,154.3-154.3C410.3,172.9,341.1,103.7,256,103.7z"/>
		<path d="M256,459.5c-111.1,0-201.5-90.4-201.5-201.5c0-111.1,90.4-201.5,201.5-201.5c111.1,0,201.5,90.4,201.5,201.5
			C457.5,369.1,367.1,459.5,256,459.5z M256,61.3C147.5,61.3,59.3,149.5,59.3,258c0,108.5,88.2,196.7,196.7,196.7
			c108.5,0,196.7-88.2,196.7-196.7C452.7,149.5,364.5,61.3,256,61.3z"/>
	</g>
	<g>
		<path fill="#FFFFFF" d="M256,372.8c-64.4,0-116.8-52.4-116.8-116.8S191.6,139.2,256,139.2S372.8,191.6,372.8,256
			S320.4,372.8,256,372.8z M256,144c-61.7,0-112,50.2-112,112s50.2,112,112,112s112-50.2,112-112S317.7,144,256,144z"/>
		<path fill="#FFFFFF" d="M256,415.1c-87.8,0-159.1-71.4-159.1-159.1c0-87.8,71.4-159.1,159.1-159.1c87.8,0,159.1,71.4,159.1,159.1
			C415.1,343.8,343.8,415.1,256,415.1z M256,101.7c-85.1,0-154.3,69.2-154.3,154.3c0,85.1,69.2,154.3,154.3,154.3
			c85.1,0,154.3-69.2,154.3-154.3C410.3,170.9,341.1,101.7,256,101.7z"/>
		<path fill="#FFFFFF" d="M256,457.5c-111.1,0-201.5-90.4-201.5-201.5c0-111.1,90.4-201.5,201.5-201.5
			c111.1,0,201.5,90.4,201.5,201.5C457.5,367.1,367.1,457.5,256,457.5z M256,59.3C147.5,59.3,59.3,147.5,59.3,256
			c0,108.5,88.2,196.7,196.7,196.7c108.5,0,196.7-88.2,196.7-196.7C452.7,147.5,364.5,59.3,256,59.3z"/>
	</g>
	<g opacity="0.4">
		<path d="M422.7,322.3c-14.1,0-26.6,6.9-34.3,17.6l-70.1-37.6c4.3-9.7,6.8-20.4,6.8-31.7c0-41-31.8-74.6-72.1-77.5v-79.6
			c20.7-2.7,36.7-20.5,36.7-42c0-23.4-19-42.3-42.3-42.3c-23.4,0-42.3,19-42.3,42.3c0,21.5,16,39.2,36.7,42V193
			c-40.3,2.9-72.1,36.5-72.1,77.5c0,19.4,7.2,37.2,19,50.8l-29.2,29.2c-7-5.1-15.6-8.1-24.8-8.1c-23.4,0-42.3,19-42.3,42.3
			s19,42.3,42.3,42.3s42.3-19,42.3-42.3c0-10.1-3.5-19.3-9.4-26.6l29-29c13.6,11.8,31.4,19,50.8,19c27.6,0,51.8-14.4,65.6-36.1
			l70.1,37.6c-1.7,4.6-2.7,9.7-2.7,14.9c0,23.4,19,42.3,42.3,42.3s42.3-19,42.3-42.3S446,322.3,422.7,322.3z"/>
		<circle cx="109.3" cy="199.1" r="30.3"/>
		<circle cx="274.7" cy="468.8" r="20.2"/>
		<circle cx="406.4" cy="150.5" r="35.9"/>
	</g>
	<g>
		<path fill="#31C5F4" d="M423.3,319.3c-14.1,0-26.6,6.9-34.3,17.6l-70.1-37.6c4.3-9.7,6.8-20.4,6.8-31.7c0-41-31.8-74.6-72.1-77.5
			v-79.6c20.7-2.7,36.7-20.5,36.7-42c0-23.4-19-42.3-42.3-42.3c-23.4,0-42.3,19-42.3,42.3c0,21.5,16,39.2,36.7,42V190
			c-40.3,2.9-72.1,36.5-72.1,77.5c0,19.4,7.2,37.2,19,50.8l-29.2,29.2c-7-5.1-15.6-8.1-24.8-8.1c-23.4,0-42.3,19-42.3,42.3
			s19,42.3,42.3,42.3s42.3-19,42.3-42.3c0-10.1-3.5-19.3-9.4-26.6l29-29c13.6,11.8,31.4,19,50.8,19c27.6,0,51.8-14.4,65.6-36.1
			l70.1,37.6c-1.7,4.6-2.7,9.7-2.7,14.9c0,23.4,19,42.3,42.3,42.3s42.3-19,42.3-42.3S446.7,319.3,423.3,319.3z"/>
		<circle fill="#31C5F4" cx="109.9" cy="196.1" r="30.3"/>
		<circle fill="#31C5F4" cx="275.3" cy="465.8" r="20.2"/>
		<circle fill="#31C5F4" cx="407.1" cy="147.5" r="35.9"/>
	</g>
</g>
</svg>
