<?xml version="1.0" encoding="utf-8"?>
<!-- Generator: Adobe Illustrator 18.0.0, SVG Export Plug-In . SVG Version: 6.00 Build 0)  -->
<!DOCTYPE svg PUBLIC "-//W3C//DTD SVG 1.1//EN" "http://www.w3.org/Graphics/SVG/1.1/DTD/svg11.dtd">
<svg version="1.1" id="Layer_1" xmlns="http://www.w3.org/2000/svg" xmlns:xlink="http://www.w3.org/1999/xlink" x="0px" y="0px"
	 viewBox="0 0 512 512" enable-background="new 0 0 512 512" xml:space="preserve">
<g>
	<linearGradient id="SVGID_1_" gradientUnits="userSpaceOnUse" x1="26" y1="256" x2="486" y2="256">
		<stop  offset="0" style="stop-color:#E62127"/>
		<stop  offset="1" style="stop-color:#7C1618"/>
	</linearGradient>
	<circle fill="url(#SVGID_1_)" cx="256" cy="256" r="230"/>
	<path fill="#EEB17D" d="M244.1,485.7c4.3,0.2,8.7,0.3,13,0.3c43.4-0.2,83.9-12.4,118.5-33.5c-28.5-34.4-71.5-56.3-119.6-56.3
		c-48.1,0-91.2,21.9-119.7,56.2C168,471.8,204.7,483.7,244.1,485.7z"/>
	<g>
		<g>
			<g>
				<circle fill="#FFFFFF" cx="343" cy="250.4" r="58.4"/>
				<path fill="#010101" d="M343,250.4c-19,19-53.4,15.4-34.4,34.4s49.9,19,68.9,0s19-49.9,0-68.9S362,231.4,343,250.4z"/>
			</g>
			<g>
				<circle fill="#FFFFFF" cx="169" cy="250.4" r="58.4"/>
				<path fill="#010101" d="M134.6,216c-19,19-19,49.9,0,68.9s49.9,19,68.9,0S188,269.4,169,250.4S153.6,197,134.6,216z"/>
			</g>
		</g>
		<g>
			<path fill="#CE5B27" d="M184.5,336.7c-12.4,7,29.7,51.9,70.6,51.9c42.3,0,85.3-44.3,73.9-51.9c-38.3-25.4-56.6-20.3-74-20.7
				C238.1,315.6,215.8,319.1,184.5,336.7z"/>
			<path fill="#FBAD18" d="M183.7,344c-26,9.3,24.5-65.4,72.4-65.4c49.4,0,94.2,70.9,74.6,65.4c-47-13.3-54.3,31.9-74.7,32.4
				C236.2,377,223.9,329.6,183.7,344z"/>
		</g>
		<g>
			<path fill="#010101" d="M238.8,243.6c-35.8-10.5-124.1-42.5-137.5-75.7c-4.3-10.7,22.6-52.5,30.5-43.2
				c32.9,38.1,118.3,98.2,118.3,98.2S245.6,245.6,238.8,243.6z"/>
			<path fill="#010101" d="M273.2,243.6c35.8-10.5,124.1-42.5,137.5-75.7c4.3-10.7-22.6-52.5-30.5-43.2
				c-32.9,38.1-118.3,98.2-118.3,98.2S266.4,245.6,273.2,243.6z"/>
		</g>
	</g>
	<g>
		<path fill="#010101" d="M256.2,149.5c-16.5-27.1-54.9-69.7-54.9-69.7c1.7-18,14.9-24.3,14.9-24.3s39.6,58.1,49.1,82.1
			C266.8,141.7,258.3,152.9,256.2,149.5z"/>
		<path fill="#010101" d="M260.1,161.1c-22.7-12.9-69.5-24.5-69.5-24.5c-3.7-17.3,6.1-31.9,6.1-31.9s52.4,24.8,67.9,39.6
			C267.2,146.7,262.9,162.6,260.1,161.1z"/>
		<path fill="#010101" d="M254.1,148.5c-8.2-34.9-32.4-97.2-32.4-97.2c6.3-15.6,20-13.3,20-13.3s21.2,77.4,23.8,105.1
			C265.9,147.7,255.1,152.9,254.1,148.5z"/>
	</g>
</g>
</svg>
