<?xml version="1.0" encoding="utf-8"?>
<!-- Generator: Adobe Illustrator 18.0.0, SVG Export Plug-In . SVG Version: 6.00 Build 0)  -->
<!DOCTYPE svg PUBLIC "-//W3C//DTD SVG 1.1//EN" "http://www.w3.org/Graphics/SVG/1.1/DTD/svg11.dtd">
<svg version="1.1" id="Layer_2" xmlns="http://www.w3.org/2000/svg" xmlns:xlink="http://www.w3.org/1999/xlink" x="0px" y="0px"
	 viewBox="0 0 512 512" style="enable-background:new 0 0 512 512;" xml:space="preserve">
<g>
	<g>
		<ellipse id="ellipse3860_1_" style="fill:#798CBC;" cx="256" cy="255.999" rx="225.308" ry="117.283"/>
		<path style="fill:#798CBC;" d="M256,377.975c-60.922,0-118.272-12.389-161.483-34.882C50.334,320.092,26,289.163,26,255.999
			s24.332-64.093,68.517-87.091c43.211-22.494,100.561-34.882,161.483-34.882s118.27,12.389,161.483,34.882
			C461.666,191.906,486,222.837,486,255.999s-24.334,64.093-68.517,87.093C374.272,365.586,316.922,377.975,256,377.975z
			 M256,143.404c-121.649,0-220.617,50.509-220.617,112.593c0,62.085,98.97,112.595,220.617,112.595s220.619-50.507,220.619-112.593
			C476.619,193.916,377.649,143.404,256,143.404z"/>
	</g>
	<g>
		<g>
			<path id="p" style="fill:#FFFFFF;" d="M370.396,202.698h-51.851l-22.421,113.51h26.627l5.606-29.428h25.224
				c23.824,1.402,50.449-18.218,50.449-51.851C404.029,215.314,392.818,204.101,370.396,202.698z M350.776,265.763H333.96
				l7.008-42.042h18.218c9.811,0,16.816,4.205,16.816,12.614C374.6,260.157,363.39,264.361,350.776,265.763z"/>
			<path id="h_1_" style="fill:#FFFFFF;" d="M207.836,286.782l22.421-113.51h26.627l-5.606,29.428h25.224
				c22.421,1.402,30.83,12.614,28.027,26.627l-9.811,57.455h-28.027l9.811-51.851c1.402-7.008,1.402-11.21-8.407-11.21h-21.021
				l-12.614,63.061H207.836z"/>
			<path id="p_1_" style="fill:#FFFFFF;" d="M182.612,202.698h-51.851l-22.421,113.51h26.627l5.606-29.428h25.224
				c23.824,1.402,50.449-18.218,50.449-51.851C216.247,215.314,205.033,204.101,182.612,202.698z M162.993,265.763h-16.816
				l7.008-42.042h18.218c9.811,0,16.816,4.205,16.816,12.614C186.817,260.157,175.607,264.361,162.993,265.763z"/>
		</g>
		<g>
			<path style="fill:#798CBC;" d="M136.375,317.916h-30.109l23.094-116.919h53.25c23.154,1.443,35.338,13.177,35.338,33.933
				c0,15.392-5.627,29.372-15.845,39.368c-9.261,9.058-21.619,14.255-33.905,14.255l0,0c-0.837,0-1.672-0.024-2.503-0.073
				l-23.715,0.004L136.375,317.916z M110.414,314.508h23.143l5.606-29.428h26.635c0.865,0.047,1.634,0.069,2.403,0.069
				c11.404,0,22.893-4.842,31.522-13.284c6.76-6.614,14.82-18.391,14.82-36.933c0-18.931-10.779-29.203-32.036-30.53l-50.344,0.004
				L110.414,314.508z M163.087,267.465h-18.922l7.574-45.447H171.4c11.424,0,18.52,5.486,18.52,14.317
				c-1.462,24.916-13.715,29.674-26.74,31.122L163.087,267.465z M148.188,264.057h14.709c11.212-1.255,22.246-4.48,23.62-27.824
				c-0.004-9.745-10.572-10.809-15.117-10.809h-16.775L148.188,264.057z"/>
			<path style="fill:#798CBC;" d="M296.16,288.486h-31.522l10.192-53.871c0.734-3.674,0.974-6.201-0.088-7.495
				c-0.921-1.124-3.159-1.696-6.645-1.696h-19.623l-12.614,63.061h-30.096l23.096-116.919h30.083l-5.606,29.426h23.165
				c12.31,0.767,21.323,4.505,26.171,10.813c3.683,4.792,4.903,10.965,3.525,17.852L296.16,288.486z M268.751,285.078h24.533
				l9.569-56.04c1.188-5.942,0.19-11.165-2.878-15.154c-4.233-5.505-12.387-8.786-23.576-9.484l-27.179,0.004l5.606-29.426H231.66
				L209.907,285.08h23.156l12.614-63.061h22.417c4.687,0,7.636,0.936,9.282,2.942c2.122,2.587,1.587,6.351,0.797,10.306
				L268.751,285.078z"/>
			<path style="fill:#798CBC;" d="M324.159,317.916h-30.109l23.096-116.919h53.25c23.154,1.443,35.336,13.177,35.336,33.933
				c0,15.392-5.627,29.372-15.845,39.368c-9.261,9.058-21.62,14.255-33.903,14.255c-0.002,0,0,0,0,0
				c-0.837,0-1.672-0.024-2.505-0.073l-23.717,0.004L324.159,317.916z M298.196,314.508h23.143l5.606-29.428h26.635
				c0.865,0.047,1.634,0.069,2.403,0.069c11.402,0,22.892-4.842,31.522-13.284c6.76-6.614,14.82-18.391,14.82-36.933
				c0-18.931-10.779-29.203-32.036-30.53l-50.342,0.004L298.196,314.508z M350.872,267.465h-18.923l7.576-45.447h19.659
				c11.424,0,18.52,5.486,18.52,14.317c-1.462,24.916-13.715,29.674-26.738,31.122L350.872,267.465z M335.971,264.057h14.711
				c11.21-1.255,22.246-4.48,23.618-27.824c-0.004-9.745-10.572-10.809-15.117-10.809h-16.775L335.971,264.057z"/>
		</g>
	</g>
</g>
</svg>
