<?xml version="1.0" encoding="utf-8"?>
<!-- Generator: Adobe Illustrator 18.0.0, SVG Export Plug-In . SVG Version: 6.00 Build 0)  -->
<!DOCTYPE svg PUBLIC "-//W3C//DTD SVG 1.1//EN" "http://www.w3.org/Graphics/SVG/1.1/DTD/svg11.dtd">
<svg version="1.1" id="Layer_1" xmlns="http://www.w3.org/2000/svg" xmlns:xlink="http://www.w3.org/1999/xlink" x="0px" y="0px"
	 viewBox="0 0 512 512" style="enable-background:new 0 0 512 512;" xml:space="preserve">
<circle style="fill:#848484;" cx="256" cy="256" r="230"/>
<g>
	<g>
		<path style="fill:#FFFFFF;" d="M265.866,228.627v-2.522h16.617c5.638-8.902,11.424-17.952,17.21-27.002
			c5.935-9.05,12.018-17.21,18.546-24.48c6.528-7.27,13.204-13.204,20.326-17.655c6.973-4.599,14.391-6.825,22.255-6.825
			c4.599,0,8.308,1.039,11.276,2.967c2.819,1.929,4.303,4.896,4.303,8.902c0,3.412-1.039,6.231-3.264,8.457
			c-2.225,2.225-4.896,3.561-8.16,3.709c0.593-2.077,1.039-3.857,1.335-5.786c0.297-1.78,0.593-3.858,0.593-6.38
			c0-2.819-0.742-5.193-2.077-6.973c-1.335-1.78-3.709-2.522-6.973-2.522c-5.341,0-10.682,2.374-16.32,7.27
			c-5.49,4.748-10.979,10.831-16.32,18.249c-5.341,7.27-10.682,15.282-15.727,23.887s-9.94,16.617-14.54,24.035h48.515v2.522
			h-49.999c-13.798,23.59-26.112,43.768-37.091,60.681c-10.979,16.765-21.365,30.563-31.453,41.394
			c-10.089,10.831-20.178,18.694-30.267,23.738c-10.089,5.044-21.216,7.567-33.382,7.567c-4.303,0-8.457-0.593-12.463-1.632
			s-7.418-2.671-10.534-4.896c-2.967-2.225-5.49-4.896-7.27-8.16c-1.929-3.264-2.819-6.973-2.819-11.276
			c0-5.638,1.78-10.386,5.341-14.391c3.561-4.006,9.495-5.935,17.804-5.935h1.929v1.78c-4.303,0.297-8.012,1.929-10.979,4.896
			c-2.967,2.967-4.599,7.121-4.599,12.463c0,7.418,2.077,13.353,6.231,17.804c4.154,4.451,10.237,6.528,18.397,6.528
			c7.715,0,15.133-1.78,22.255-5.341c6.973-3.561,13.798-8.308,20.326-14.54c6.528-6.231,12.908-13.501,19.139-21.81
			s12.463-17.359,18.694-27.003c6.231-9.644,12.611-19.881,18.842-30.415c6.38-10.534,12.759-21.068,19.436-31.602h-15.133
			L265.866,228.627L265.866,228.627z"/>
	</g>
	<g>
		<path style="fill:#FFFFFF;" d="M319.129,236.045c-4.748,2.374-9.199,5.49-13.353,9.347c-4.154,3.857-7.863,8.16-11.276,12.908
			c-1.78,2.522-3.412,5.341-4.896,8.16c-1.484,2.967-2.819,5.935-4.006,9.05c-1.039,3.116-1.929,6.231-2.671,9.495
			c-0.593,3.264-0.89,6.528-0.89,9.94h-0.742c0-4.599,0.297-8.605,0.742-12.166c0.445-3.561,1.187-6.676,2.077-9.644
			c0.89-2.967,2.077-5.786,3.561-8.457c1.484-2.671,3.116-5.49,5.044-8.457c2.967-4.451,6.825-8.457,11.276-11.869
			c4.451-3.412,9.495-6.38,14.985-8.754v0.445L319.129,236.045L319.129,236.045z"/>
		<path style="fill:#FFFFFF;" d="M340.642,261.415c-0.89,1.632-2.077,3.264-3.709,5.193c-1.632,1.929-3.412,3.709-5.341,5.49
			c-1.929,1.632-3.857,3.116-5.786,4.303c-1.929,1.187-3.858,1.632-5.638,1.632c-1.484,0-2.522-0.297-3.264-1.039
			s-1.187-1.484-1.187-2.671c0-1.039,0.148-1.929,0.593-2.819l-0.148-0.148c-0.593,0.89-1.335,1.632-2.225,2.522
			c-0.89,0.742-1.78,1.484-2.671,2.077c-0.89,0.593-1.929,1.187-2.967,1.484c-1.039,0.297-2.077,0.593-3.264,0.593
			c-1.929,0-3.412-0.445-4.451-1.335s-1.632-2.225-1.632-3.709c0-1.039,0.297-1.929,0.89-2.671s1.335-1.039,2.225-1.039
			c0.742,0,1.335,0.148,1.632,0.593s0.445,0.89,0.445,1.335c0,0.593-0.148,1.039-0.445,1.335c-0.297,0.297-0.742,0.593-1.335,0.593
			c-0.742,0-1.335-0.297-1.484-0.89c-0.445,0.445-0.742,0.89-0.742,1.632c0,1.187,0.445,1.929,1.335,2.671
			c0.89,0.593,2.077,0.89,3.412,0.89c1.039,0,2.077-0.297,3.264-0.89c1.187-0.593,2.225-1.335,3.264-2.374
			c1.039-0.89,2.077-2.077,3.116-3.264c1.039-1.187,1.78-2.522,2.522-3.858c0.742-1.335,1.335-2.522,1.78-3.857
			c0.445-1.187,0.593-2.374,0.593-3.264c0-1.039-0.297-1.78-0.742-2.522c-0.445-0.593-1.187-1.039-2.077-1.039
			c-0.742,0-1.484,0.148-2.077,0.593c-0.593,0.445-1.335,0.89-1.78,1.484c-0.593,0.593-1.039,1.187-1.484,1.78
			s-0.742,1.187-1.187,1.632l-0.593-0.297c0.445-0.742,1.039-1.484,1.484-2.225c0.445-0.742,1.039-1.335,1.632-1.929
			c0.593-0.593,1.335-1.039,2.077-1.335c0.742-0.297,1.632-0.445,2.671-0.445c0.89,0,1.78,0.148,2.374,0.445
			c0.742,0.297,1.187,0.742,1.632,1.187c0.445,0.593,0.742,1.039,1.039,1.78c0.297,0.593,0.297,1.335,0.297,2.077
			c0.445-0.593,1.039-1.039,1.78-1.632s1.484-1.187,2.374-1.632c0.89-0.445,1.78-0.89,2.671-1.187
			c1.039-0.297,1.929-0.445,2.967-0.445c1.335,0,2.374,0.297,3.116,0.89c0.742,0.593,1.187,1.335,1.187,2.225
			c0,0.593-0.297,1.039-0.742,1.632c-0.445,0.593-1.187,0.742-2.077,0.742c-0.148,0-0.445,0-0.89-0.148
			c0.148-0.593,0.445-1.039,0.593-1.484s0.297-0.89,0.297-1.335c0-1.187-0.593-1.78-1.632-1.78c-0.89,0-1.929,0.297-2.967,0.89
			c-1.039,0.593-2.077,1.335-3.116,2.225s-1.929,1.929-2.967,3.116c-0.89,1.187-1.78,2.374-2.522,3.561
			c-0.742,1.187-1.335,2.374-1.632,3.561c-0.445,1.187-0.593,2.225-0.593,3.264c0,1.187,0.297,2.077,0.742,2.671
			c0.445,0.593,1.187,0.89,2.225,0.89c0.89,0,1.929-0.297,2.967-0.742c1.039-0.593,2.225-1.187,3.412-2.077
			c1.187-0.89,2.374-1.78,3.561-2.967c1.187-1.039,2.374-2.225,3.412-3.412c1.039-1.187,2.077-2.374,2.967-3.412
			c0.89-1.187,1.632-2.225,2.077-3.116L340.642,261.415z"/>
		<path style="fill:#FFFFFF;" d="M346.874,256.668c-1.484,2.077-2.967,4.154-4.303,6.083c-1.484,1.929-2.819,3.709-3.858,5.341
			c-1.187,1.632-2.077,2.967-2.819,4.303c-0.742,1.187-1.039,2.225-1.039,2.967c0,1.187,0.593,1.78,1.632,1.78
			c1.187,0,2.522-0.593,4.154-1.632c1.484-1.187,3.264-2.671,4.896-4.451c1.78-1.929,3.561-4.006,5.341-6.528
			c1.78-2.374,3.561-5.044,5.193-7.715h3.709c-2.374,3.264-4.599,6.676-6.676,10.089c-2.077,3.412-4.154,6.825-6.528,10.237
			c3.858-0.742,7.567-2.374,10.979-5.044c3.561-2.671,6.528-6.083,9.347-10.089l0.445,0.148c-2.967,4.451-6.231,8.012-9.94,10.682
			c-3.709,2.671-7.418,4.303-11.276,4.896c-1.632,2.077-3.116,4.303-4.748,6.528c-1.632,2.225-3.412,4.154-5.341,5.935
			c-1.929,1.78-4.154,3.116-6.38,4.303c-2.374,1.039-5.044,1.632-7.863,1.632c-1.335,0-2.522-0.148-3.857-0.445
			c-1.187-0.297-2.225-0.89-3.116-1.484c-0.89-0.593-1.632-1.335-2.077-2.225c-0.593-0.89-0.742-1.78-0.742-2.671
			c0-2.077,0.742-3.561,2.077-4.599c1.335-1.039,3.116-1.484,5.044-1.484v0.148c-1.484,0.297-2.522,1.039-3.264,1.929
			c-0.742,1.039-1.039,2.225-1.039,3.709c0,1.039,0.148,1.929,0.593,2.671c0.445,0.742,0.89,1.484,1.632,1.929
			c0.593,0.593,1.335,0.89,2.225,1.187c0.89,0.297,1.632,0.445,2.522,0.445c1.929,0,3.709-0.445,5.49-1.335s3.412-2.077,5.044-3.561
			s3.264-3.116,4.748-4.896c1.484-1.78,2.967-3.709,4.303-5.638c1.335-1.929,2.522-3.857,3.709-5.786
			c1.187-1.929,2.225-3.561,3.116-5.044l-0.148-0.148c-0.593,0.742-1.484,1.632-2.374,2.671c-0.89,1.039-1.929,2.077-3.116,2.967
			c-1.039,0.89-2.225,1.78-3.561,2.374c-1.187,0.593-2.522,1.039-3.857,1.039c-1.335,0-2.225-0.297-2.819-0.742
			c-0.593-0.593-0.89-1.187-0.89-2.077c0-0.742,0.148-1.632,0.593-2.522s1.039-2.077,2.077-3.412
			c0.89-1.335,2.077-3.116,3.561-5.044c1.484-1.929,3.116-4.451,5.193-7.418L346.874,256.668L346.874,256.668z"/>
		<path style="fill:#FFFFFF;" d="M345.984,294.204c4.748-2.374,9.199-5.49,13.353-9.347c4.154-3.858,7.863-8.16,11.276-12.908
			c1.78-2.522,3.412-5.341,4.896-8.16c1.484-2.967,2.819-5.935,4.006-9.05c1.039-3.116,1.929-6.231,2.671-9.495
			c0.593-3.264,0.89-6.528,0.89-9.94h0.742c0,4.599-0.297,8.605-0.742,12.166c-0.445,3.561-1.187,6.676-2.077,9.644
			c-0.89,2.967-2.077,5.786-3.561,8.457c-1.484,2.671-3.116,5.49-5.044,8.457c-2.967,4.451-6.825,8.457-11.276,11.869
			s-9.495,6.38-14.985,8.754v-0.445L345.984,294.204L345.984,294.204z"/>
	</g>
</g>
</svg>
