<?xml version="1.0" encoding="utf-8"?>
<!-- Generator: Adobe Illustrator 18.0.0, SVG Export Plug-In . SVG Version: 6.00 Build 0)  -->
<!DOCTYPE svg PUBLIC "-//W3C//DTD SVG 1.1//EN" "http://www.w3.org/Graphics/SVG/1.1/DTD/svg11.dtd">
<svg version="1.1" id="Layer_3" xmlns="http://www.w3.org/2000/svg" xmlns:xlink="http://www.w3.org/1999/xlink" x="0px" y="0px"
	 viewBox="0 0 512 512" style="enable-background:new 0 0 512 512;" xml:space="preserve">
<g>
	<radialGradient id="SVGID_1_" cx="256" cy="256" r="230" gradientUnits="userSpaceOnUse">
		<stop  offset="0" style="stop-color:#1ACDFB"/>
		<stop  offset="1" style="stop-color:#1F77F3"/>
	</radialGradient>
	<radialGradient id="SVGID_2_" cx="256" cy="256" r="230.5" gradientUnits="userSpaceOnUse">
		<stop  offset="0" style="stop-color:#1ACDFB"/>
		<stop  offset="1" style="stop-color:#1F77F3"/>
	</radialGradient>
	<path style="fill:url(#SVGID_1_);stroke:url(#SVGID_2_);stroke-miterlimit:10;" d="M486,256c0-22.169-40.947-41.276-103.973-52.239
		c7.361-10.465,13.962-20.654,19.678-30.426c9.577-16.373,22.547-41.958,23.078-61.167c4.589-3.453,7.571-8.928,7.571-15.113
		c0-10.45-8.472-18.922-18.922-18.922c-6.881,0-12.886,3.685-16.198,9.178c-21.1,1.686-52.908,17.359-88.982,42.74
		C297.292,66.98,278.178,26,256,26s-41.292,40.98-52.253,104.05c-8.209-5.776-16.202-11.06-23.893-15.779
		c0.772-2.063,1.214-4.288,1.214-6.621c0-10.45-8.472-18.922-18.922-18.922c-6.334,0-11.927,3.124-15.362,7.903
		c-13.992-6.147-26.135-9.474-35.687-9.474c-7.647,0-13.613,2.089-17.732,6.208c-15.67,15.67-0.243,58.112,36.545,110.406
		C66.92,214.736,26,233.839,26,256c0,22.169,40.947,41.276,103.973,52.239c-7.361,10.465-13.961,20.654-19.677,30.426
		c-13.356,22.832-33.317,63.583-16.93,79.968c4.12,4.12,10.086,6.209,17.732,6.209c20.981,0,54.42-15.995,92.65-42.893
		C214.708,445.02,233.822,486,256,486c15.492,0,29.488-20.006,40.257-53.56c1.139,0.214,2.309,0.338,3.51,0.338
		c10.45,0,18.922-8.472,18.922-18.922c0-8.403-5.482-15.517-13.06-17.986c0.92-4.509,1.796-9.15,2.625-13.92
		c38.23,26.898,71.668,42.893,92.649,42.893c7.647,0,13.613-2.09,17.733-6.209c16.387-16.386-3.574-57.137-16.928-79.968
		c-5.716-9.772-12.317-19.961-19.678-30.426C445.053,297.276,486,278.168,486,256z M395.043,92.661
		c-0.336,1.412-0.533,2.878-0.533,4.393c0,10.45,8.472,18.922,18.922,18.922c2.16,0,4.227-0.379,6.16-1.046
		c-1.234,13.611-8.793,32.791-22.275,55.838c-6.006,10.267-13.023,21.011-20.863,32.051c-18.502-3.016-38.792-5.342-60.411-6.864
		c-1.523-21.641-3.852-41.949-6.873-60.466C343.805,110.82,374.362,95.264,395.043,92.661z M187.107,310.166
		c-0.178-10.297-8.566-18.592-18.906-18.592c-8.907,0-16.357,6.162-18.368,14.451c-3.686-0.515-7.305-1.058-10.869-1.623
		c10.518-14.475,22.465-29.429,35.523-44.51c6.313,7.174,12.911,14.411,19.776,21.681c0.285,9.979,0.737,19.746,1.344,29.269
		C192.751,310.631,189.92,310.404,187.107,310.166z M313.021,256c0,7.921-0.113,15.76-0.327,23.499
		c-5.332,5.625-10.79,11.239-16.373,16.822c-5.598,5.598-11.217,11.048-16.837,16.373c-7.734,0.214-15.568,0.327-23.484,0.327
		c-7.916,0-15.75-0.112-23.484-0.327c-5.62-5.325-11.238-10.775-16.836-16.373c-5.597-5.597-11.057-11.216-16.374-16.836
		c-0.214-7.734-0.327-15.568-0.327-23.485c0-7.921,0.113-15.759,0.327-23.497c5.333-5.625,10.79-11.24,16.374-16.823
		c5.598-5.598,11.217-11.049,16.837-16.374c7.733-0.214,15.567-0.327,23.483-0.327c7.916,0,15.75,0.112,23.483,0.327
		c5.62,5.325,11.239,10.776,16.838,16.374c5.583,5.583,11.041,11.197,16.373,16.822C312.908,240.24,313.021,248.079,313.021,256z
		 M299.914,212.086c-4.256-4.257-8.527-8.43-12.803-12.532c8.164,0.301,16.207,0.715,24.093,1.241
		c0.526,7.889,0.94,15.935,1.241,24.103C308.334,220.616,304.169,216.341,299.914,212.086z M281.539,194.262
		c-7.24-6.823-14.483-13.414-21.69-19.738c15.218-13.179,30.199-25.134,44.547-35.587c2.779,17.523,4.968,36.567,6.444,56.67
		C301.308,195,291.53,194.548,281.539,194.262z M273.916,194.074c-5.906-0.117-11.88-0.177-17.916-0.177
		c-6.036,0-12.01,0.06-17.916,0.177c5.986-5.572,11.966-10.983,17.916-16.204C261.95,183.09,267.929,188.502,273.916,194.074z
		 M230.461,194.262c-9.991,0.286-19.769,0.738-29.302,1.345c1.476-20.103,3.665-39.146,6.444-56.669
		c14.348,10.453,29.33,22.407,44.548,35.587C244.943,180.849,237.701,187.439,230.461,194.262z M224.889,199.554
		c-4.275,4.102-8.546,8.276-12.803,12.532c-4.255,4.255-8.42,8.53-12.533,12.812c0.301-8.168,0.715-16.214,1.241-24.104
		C208.681,200.269,216.724,199.855,224.889,199.554z M194.263,230.452c-6.801,7.208-13.395,14.433-19.731,21.64
		c-13.137-15.218-25.028-30.193-35.435-44.515c17.479-2.766,36.469-4.947,56.511-6.418C195,210.689,194.548,220.464,194.263,230.452
		z M194.074,238.082c-0.117,5.906-0.177,11.881-0.177,17.918c0,6.03,0.06,11.999,0.177,17.9
		c-5.568-5.995-10.971-11.983-16.182-17.94C183.115,250.008,188.525,244.042,194.074,238.082z M199.555,287.133
		c4.089,4.255,8.268,8.518,12.531,12.782c4.256,4.256,8.527,8.429,12.802,12.531c-8.164-0.301-16.207-0.715-24.093-1.241
		C200.269,303.326,199.856,295.29,199.555,287.133z M230.46,317.738c7.24,6.823,14.483,13.414,21.69,19.738
		c-15.218,13.179-30.199,25.134-44.548,35.586c-2.778-17.523-4.968-36.566-6.444-56.669C210.692,317,220.47,317.452,230.46,317.738z
		 M238.084,317.926c5.906,0.117,11.88,0.177,17.916,0.177c6.036,0,12.011-0.06,17.917-0.177
		c-5.987,5.572-11.967,10.984-17.917,16.204C250.05,328.91,244.07,323.498,238.084,317.926z M281.54,317.738
		c9.99-0.285,19.768-0.737,29.301-1.345c-1.476,20.103-3.666,39.147-6.444,56.67c-14.348-10.453-29.329-22.407-44.547-35.587
		C267.057,331.152,274.3,324.561,281.54,317.738z M287.113,312.446c4.275-4.102,8.546-8.275,12.802-12.531
		c4.254-4.254,8.419-8.53,12.532-12.812c-0.301,8.168-0.715,16.214-1.241,24.103C303.319,311.731,295.277,312.145,287.113,312.446z
		 M317.737,281.549c6.812-7.22,13.416-14.456,19.761-21.675c13.064,15.087,25.017,30.047,35.538,44.528
		c-17.516,2.777-36.551,4.964-56.644,6.44C317,301.311,317.452,291.536,317.737,281.549z M317.926,273.919
		c0.117-5.907,0.177-11.882,0.177-17.919c0-6.037-0.06-12.012-0.177-17.919c5.562,5.974,10.984,11.953,16.219,17.919
		C328.91,261.966,323.488,267.945,317.926,273.919z M317.737,230.451c-0.286-9.987-0.737-19.763-1.345-29.292
		c20.093,1.475,39.128,3.663,56.644,6.44c-10.521,14.481-22.474,29.441-35.538,44.528
		C331.153,244.907,324.549,237.671,317.737,230.451z M256,31.083c19.551,0,37.179,41.219,47.497,102.36
		c-15.29,11.004-31.276,23.682-47.497,37.731c-16.221-14.048-32.207-26.726-47.498-37.731C218.821,72.301,236.449,31.083,256,31.083
		z M96.959,96.959c3.132-3.131,7.888-4.719,14.138-4.719c8.929,0,20.267,3.075,33.351,8.765c-0.778,2.07-1.224,4.304-1.224,6.646
		c0,10.45,8.472,18.922,18.922,18.922c6.345,0,11.947-3.134,15.38-7.927c8.116,4.999,16.579,10.631,25.302,16.845
		c-3.021,18.517-5.35,38.825-6.873,60.466c-21.573,1.518-41.822,3.837-60.292,6.844C99.788,152.327,83.146,110.772,96.959,96.959z
		 M31.083,256c0-19.535,41.151-37.15,102.209-47.472c10.94,15.195,23.627,31.164,37.818,47.501
		c-13.959,16.093-26.649,32.047-37.738,47.456C72.27,293.166,31.083,275.543,31.083,256z M111.097,419.76
		c-6.25,0-11.006-1.588-14.138-4.72c-10.206-10.205-3.746-37.108,17.723-73.809c6.006-10.267,13.023-21.011,20.863-32.051
		c4.487,0.731,9.082,1.421,13.772,2.07c0.399,10.098,8.688,18.168,18.884,18.168c8.779,0,16.141-5.988,18.277-14.096
		c3.128,0.259,6.29,0.498,9.477,0.722c1.523,21.641,3.852,41.949,6.873,60.466C164.774,403.617,131.609,419.76,111.097,419.76z
		 M300.457,394.969c-0.231-0.008-0.458-0.035-0.691-0.035c-10.45,0-18.922,8.472-18.922,18.922c0,7.444,4.309,13.865,10.559,16.955
		c-9.805,31.193-22.163,50.107-35.403,50.107c-19.551,0-37.179-41.219-47.497-102.36c15.291-11.004,31.277-23.682,47.498-37.73
		c16.221,14.048,32.207,26.726,47.497,37.73C302.545,384.203,301.53,389.68,300.457,394.969z M397.318,341.231
		c21.468,36.701,27.929,63.604,17.723,73.809c-3.132,3.132-7.888,4.72-14.139,4.72c-20.511,0-53.676-16.143-91.73-43.25
		c3.021-18.517,5.35-38.825,6.873-60.466c21.619-1.521,41.909-3.847,60.411-6.864C384.295,320.22,391.312,330.964,397.318,341.231z
		 M378.628,303.485c-11.096-15.419-23.794-31.383-37.763-47.486c13.969-16.103,26.667-32.067,37.763-47.485
		c61.102,10.32,102.29,27.942,102.29,47.485C480.917,275.543,439.73,293.166,378.628,303.485z"/>
	<radialGradient id="SVGID_3_" cx="256" cy="256" r="36.3305" gradientUnits="userSpaceOnUse">
		<stop  offset="0" style="stop-color:#1ACDFB"/>
		<stop  offset="1" style="stop-color:#1F77F3"/>
	</radialGradient>
	<radialGradient id="SVGID_4_" cx="256" cy="256" r="36.8305" gradientUnits="userSpaceOnUse">
		<stop  offset="0" style="stop-color:#1ACDFB"/>
		<stop  offset="1" style="stop-color:#1F77F3"/>
	</radialGradient>
	<circle style="fill:url(#SVGID_3_);stroke:url(#SVGID_4_);stroke-miterlimit:10;" cx="256" cy="256" r="36.33"/>
</g>
</svg>
