<?xml version="1.0" encoding="utf-8"?>
<!-- Generator: Adobe Illustrator 18.0.0, SVG Export Plug-In . SVG Version: 6.00 Build 0)  -->
<!DOCTYPE svg PUBLIC "-//W3C//DTD SVG 1.1//EN" "http://www.w3.org/Graphics/SVG/1.1/DTD/svg11.dtd">
<svg version="1.1" id="Layer_1" xmlns="http://www.w3.org/2000/svg" xmlns:xlink="http://www.w3.org/1999/xlink" x="0px" y="0px"
	 viewBox="0 0 512 512" style="enable-background:new 0 0 512 512;" xml:space="preserve">
<g>
	<polygon style="fill:#58629A;" points="77.1,77 26,25.9 26,435 77.1,486.1 77.1,435 	"/>
	<polygon style="fill:#3B97D3;" points="128.2,25.9 77.1,25.9 128.2,77 128.2,486.1 179.3,486.1 179.3,77 	"/>
	<polygon style="fill:#23B899;" points="179.3,25.9 128.2,25.9 179.3,77 179.3,486.1 230.4,486.1 230.4,77 	"/>
	<polygon style="fill:#69C186;" points="230.4,25.9 179.3,25.9 230.4,77 230.4,486.1 281.6,486.1 281.6,77 	"/>
	<polygon style="fill:#F0C519;" points="281.6,25.9 230.4,25.9 281.6,77 281.6,486.1 332.7,486.1 332.7,77 	"/>
	<polygon style="fill:#E74D3D;" points="332.7,25.9 281.6,25.9 332.7,77 332.7,486.1 383.8,486.1 383.8,77 	"/>
	<polygon style="fill:#DC71AC;" points="383.8,25.9 332.7,25.9 383.8,77 383.8,486.1 434.9,486.1 434.9,77 	"/>
	<polygon style="fill:#945AA4;" points="434.9,25.9 383.8,25.9 434.9,77 434.9,486.1 486,486.1 486,77 	"/>
	<polygon style="fill:#6063AC;" points="77.1,25.9 26,25.9 77.1,77 77.1,486.1 128.2,486.1 128.2,77 	"/>
</g>
<g style="display:none;">
	<path style="display:inline;fill:#58629A;" d="M46.8,47.8L25,25.9v409l51.1,51.1V435V118.5C76.1,91.9,65.6,66.5,46.8,47.8z"/>
	<path style="display:inline;fill:#3B97D3;" d="M127.2,25.9H76.1l21.8,21.8c18.8,18.8,29.3,44.2,29.3,70.7v367.6h51.1V118.5
		c0-26.5-10.5-52-29.3-70.7L127.2,25.9z"/>
	<path style="display:inline;fill:#23B899;" d="M178.3,25.9h-51.1L149,47.8c18.8,18.8,29.3,44.2,29.3,70.7v367.6h51.1V118.5
		c0-26.5-10.5-52-29.3-70.7L178.3,25.9z"/>
	<path style="display:inline;fill:#69C186;" d="M229.4,25.9h-51.1l21.8,21.8c18.8,18.8,29.3,44.2,29.3,70.7v367.6h51.1V118.5
		c0-26.5-10.5-52-29.3-70.7L229.4,25.9z"/>
	<path style="display:inline;fill:#F0C519;" d="M280.6,25.9h-51.1l21.8,21.8c18.8,18.8,29.3,44.2,29.3,70.7v367.6h51.1V118.5
		c0-26.5-10.5-52-29.3-70.7L280.6,25.9z"/>
	<path style="display:inline;fill:#E74D3D;" d="M331.7,25.9h-51.1l21.8,21.8c18.8,18.8,29.3,44.2,29.3,70.7v367.6h51.1V118.5
		c0-26.5-10.5-52-29.3-70.7L331.7,25.9z"/>
	<path style="display:inline;fill:#DC71AC;" d="M382.8,25.9h-51.1l21.8,21.8c18.8,18.8,29.3,44.2,29.3,70.7v367.6h51.1V118.5
		c0-26.5-10.5-52-29.3-70.7L382.8,25.9z"/>
	<path style="display:inline;fill:#945AA4;" d="M433.9,25.9h-51.1l21.8,21.8c18.8,18.8,29.3,44.2,29.3,70.7v367.6H485V118.5
		c0-26.5-10.5-52-29.3-70.7L433.9,25.9z"/>
	<path style="display:inline;fill:#6063AC;" d="M76.1,25.9H25l21.8,21.8c18.8,18.8,29.3,44.2,29.3,70.7v367.6h51.1V118.5
		c0-26.5-10.5-52-29.3-70.7L76.1,25.9z"/>
</g>
</svg>
