<?xml version="1.0" encoding="utf-8"?>
<!-- Generator: Adobe Illustrator 18.0.0, SVG Export Plug-In . SVG Version: 6.00 Build 0)  -->
<!DOCTYPE svg PUBLIC "-//W3C//DTD SVG 1.1//EN" "http://www.w3.org/Graphics/SVG/1.1/DTD/svg11.dtd">
<svg version="1.1" id="Layer_1" xmlns="http://www.w3.org/2000/svg" xmlns:xlink="http://www.w3.org/1999/xlink" x="0px" y="0px"
	 viewBox="0 0 512 512" enable-background="new 0 0 512 512" xml:space="preserve">
<path fill="#E8E8E8" d="M446,486H66c-22.1,0-40-17.9-40-40V66c0-22.1,17.9-40,40-40h380c22.1,0,40,17.9,40,40v380
	C486,468.1,468.1,486,446,486z"/>
<path fill="#60493D" d="M446,486H66c-22.1,0-40-17.9-40-40V66c0-22.1,17.9-40,40-40h380c22.1,0,40,17.9,40,40v380
	C486,468.1,468.1,486,446,486z"/>
<g>
	<path fill="#825E46" d="M26.1,94.6c0,0.8-0.1,1.6-0.1,2.4v349c0,0.7,0,1.4,0.1,2.1l165.8-176.8L26.1,94.6z"/>
	<path fill="#825E46" d="M320.1,271.3l165.8,176.8c0-0.7,0.1-1.4,0.1-2.1V97c0-0.8,0-1.6-0.1-2.4L320.1,271.3z"/>
	<linearGradient id="SVGID_1_" gradientUnits="userSpaceOnUse" x1="256" y1="486" x2="256" y2="203">
		<stop  offset="0" style="stop-color:#563D2A"/>
		<stop  offset="0.362" style="stop-color:#6D4E39"/>
		<stop  offset="0.7165" style="stop-color:#7D5A43"/>
		<stop  offset="1" style="stop-color:#825E46"/>
	</linearGradient>
	<path fill="url(#SVGID_1_)" d="M320.1,271.3L256,203l-64.1,68.3L26.1,448.1c0,0,0,0,0,0.1C27.2,469.3,44.6,486,66,486h380
		c21.4,0,38.8-16.7,39.9-37.8c0,0,0,0,0-0.1L320.1,271.3z"/>
	<linearGradient id="SVGID_2_" gradientUnits="userSpaceOnUse" x1="256" y1="339.6859" x2="256" y2="57">
		<stop  offset="0" style="stop-color:#483221"/>
		<stop  offset="0.3122" style="stop-color:#563D2A"/>
		<stop  offset="0.9016" style="stop-color:#7B5942"/>
		<stop  offset="1" style="stop-color:#825E46"/>
	</linearGradient>
	<path fill="url(#SVGID_2_)" d="M485.9,94.5C484.6,73.6,467.3,57,446,57H66c-21.3,0-38.6,16.6-39.9,37.5c0,0,0,0.1,0,0.1
		l165.8,176.8l64.1,68.3l64.1-68.3L485.9,94.5C485.9,94.6,485.9,94.5,485.9,94.5z"/>
</g>
<g>
	<g>
		<g enable-background="new    ">
			<path opacity="0.5" fill="#E2E0E0" enable-background="new    " d="M256,226.1c-25.3,0-45.9,20.6-45.9,45.9s20.6,45.9,45.9,45.9
				s45.9-20.6,45.9-45.9S281.3,226.1,256,226.1z M256,295.5c-13,0-23.5-10.6-23.5-23.5c0-13,10.6-23.5,23.5-23.5
				c13,0,23.5,10.6,23.5,23.5S269,295.5,256,295.5z"/>
			<path fill="#FFFFFF" d="M256,248.5c-13,0-23.5,10.6-23.5,23.5s10.6,23.5,23.5,23.5c13,0,23.5-10.6,23.5-23.5S269,248.5,256,248.5
				z M256,293c-11.6,0-21-9.4-21-21s9.4-21,21-21s21,9.4,21,21S267.6,293,256,293z"/>
		</g>
	</g>
	<g>
		<g enable-background="new    ">
			<g>
				<path fill="#FFFFFF" d="M256,224.2c-26.4,0-47.8,21.4-47.8,47.8s21.4,47.8,47.8,47.8s47.8-21.4,47.8-47.8S282.4,224.2,256,224.2
					z M256,316.9c-24.7,0-44.9-20.1-44.9-44.9c0-24.7,20.1-44.9,44.9-44.9s44.9,20.1,44.9,44.9C300.9,296.7,280.7,316.9,256,316.9z"
					/>
				<path opacity="0.5" fill="#FFFFFF" enable-background="new    " d="M336.1,191.9c-21.4-21.4-49.9-33.2-80.1-33.2
					c-30.3,0-58.7,11.8-80.1,33.2c-21.4,21.4-33.2,49.9-33.2,80.1s11.8,58.7,33.2,80.1c21.4,21.4,49.9,33.2,80.1,33.2
					s58.7-11.8,80.1-33.2c21.4-21.4,33.2-49.9,33.2-80.1C369.3,241.7,357.5,213.3,336.1,191.9z M334,350
					c-20.8,20.8-48.6,32.3-78,32.3s-57.2-11.5-78-32.3c-20.8-20.8-32.3-48.6-32.3-78c0-29.5,11.5-57.2,32.3-78
					c20.8-20.8,48.6-32.3,78-32.3c29.5,0,57.2,11.5,78,32.3c20.8,20.8,32.3,48.6,32.3,78C366.4,301.5,354.9,329.2,334,350z"/>
			</g>
			<path fill="#F7F7F7" d="M334,194c-20.8-20.8-48.6-32.3-78-32.3s-57.2,11.5-78,32.3c-20.8,20.8-32.3,48.6-32.3,78
				c0,29.5,11.5,57.2,32.3,78c20.8,20.8,48.6,32.3,78,32.3s57.2-11.5,78-32.3c20.8-20.8,32.3-48.6,32.3-78
				C366.4,242.5,354.9,214.8,334,194z M256,319.8c-26.4,0-47.8-21.4-47.8-47.8s21.4-47.8,47.8-47.8s47.8,21.4,47.8,47.8
				S282.4,319.8,256,319.8z"/>
		</g>
	</g>
</g>
</svg>
