<?xml version="1.0" encoding="utf-8"?>
<!-- Generator: Adobe Illustrator 18.0.0, SVG Export Plug-In . SVG Version: 6.00 Build 0)  -->
<!DOCTYPE svg PUBLIC "-//W3C//DTD SVG 1.1//EN" "http://www.w3.org/Graphics/SVG/1.1/DTD/svg11.dtd">
<svg version="1.1" id="Layer_1" xmlns="http://www.w3.org/2000/svg" xmlns:xlink="http://www.w3.org/1999/xlink" x="0px" y="0px"
	 viewBox="0 0 512 512" style="enable-background:new 0 0 512 512;" xml:space="preserve">
<g id="g210" transform="translate(297.9697,312.2441)">
	<path id="path212" style="fill:#294172;" d="M24.887-145.839c-4.717,0-6.428-0.906-13.338-0.906
		c-20.398,0-36.944,16.524-36.981,36.922v32.132c0,2.88,2.34,5.212,5.225,5.212l24.293,0.005c9.051,0,16.365,7.221,16.365,16.296
		c0.005,9.132-7.388,16.323-16.537,16.323h-29.342v37.132c0,38.69-31.369,70.06-70.06,70.06c-5.868,0-10.042-0.663-15.476-2.084
		c-7.923-2.074-14.399-8.57-14.4-16.126c0-9.132,6.628-15.777,16.54-15.777c4.715,0,6.428,0.906,13.336,0.906
		c20.399,0,36.946-16.524,36.981-36.922v-32.132c0-2.88-2.34-5.212-5.223-5.212l-24.294-0.005c-9.051,0-16.363-7.219-16.363-16.296
		c-0.005-9.132,7.388-16.321,16.537-16.321h29.341v-37.134c0-38.69,31.37-70.06,70.06-70.06c5.87,0,10.044,0.663,15.477,2.084
		c7.922,2.074,14.397,8.57,14.4,16.126C41.426-152.482,34.796-145.839,24.887-145.839 M177.43-87.607l-33.47-11.884
		c-4.795-1.703-8.441-5.609-9.932-10.474c-4.293-14.005-10.232-27.295-17.554-39.671l0.07-0.072l18.8-39.498
		c2.899-6.088,1.649-13.343-3.119-18.11L109.1-230.44c-4.768-4.768-12.021-6.017-18.11-3.119L51.492-214.76l-0.072,0.072
		c-12.377-7.323-25.667-13.261-39.67-17.553c-4.867-1.491-8.772-5.137-10.475-9.934l-11.884-33.47
		c-2.256-6.354-8.267-10.6-15.01-10.6h-32.704c-6.743,0-12.755,4.245-15.012,10.6l-11.882,33.47
		c-1.703,4.796-5.61,8.443-10.475,9.934c-14.005,4.291-27.295,10.23-39.67,17.554l-0.073-0.075l-39.498-18.799
		c-6.088-2.898-13.341-1.649-18.11,3.119l-23.125,23.125c-4.768,4.768-6.017,12.022-3.119,18.11l18.799,39.498l0.075,0.072
		c-7.324,12.377-13.263,25.667-17.554,39.671c-1.491,4.865-5.137,8.771-9.932,10.474l-33.471,11.884
		c-6.354,2.256-10.6,8.269-10.6,15.012v32.702c0,6.743,4.245,12.756,10.6,15.012l33.471,11.884
		c4.795,1.703,8.441,5.609,9.932,10.474c4.293,14.005,10.233,27.295,17.554,39.671l-0.075,0.072l-18.799,39.496
		c-2.898,6.088-1.649,13.343,3.119,18.11l23.125,23.125c4.769,4.768,12.022,6.018,18.11,3.119l39.498-18.8l0.073-0.07
		c12.377,7.324,25.667,13.26,39.671,17.553c4.865,1.493,8.769,5.139,10.472,9.934l11.884,33.471c2.257,6.354,8.269,10.6,15.012,10.6
		h32.704c6.743,0,12.755-4.245,15.01-10.6l11.884-33.471c1.703-4.795,5.609-8.441,10.474-9.932
		c14.005-4.295,27.295-10.232,39.671-17.554l0.072,0.07l39.498,18.8c6.088,2.899,13.343,1.649,18.11-3.119l23.125-23.125
		c4.768-4.768,6.018-12.022,3.119-18.11l-18.8-39.496l-0.07-0.072c7.324-12.377,13.26-25.667,17.553-39.673
		c1.493-4.863,5.139-8.769,9.934-10.472l33.47-11.882c6.354-2.256,10.6-8.269,10.6-15.012v-32.702
		C188.03-79.337,183.785-85.351,177.43-87.607"/>
</g>
</svg>
