<?xml version="1.0" encoding="utf-8"?>
<!-- Generator: Adobe Illustrator 18.0.0, SVG Export Plug-In . SVG Version: 6.00 Build 0)  -->
<!DOCTYPE svg PUBLIC "-//W3C//DTD SVG 1.1//EN" "http://www.w3.org/Graphics/SVG/1.1/DTD/svg11.dtd">
<svg version="1.1" id="Layer_3" xmlns="http://www.w3.org/2000/svg" xmlns:xlink="http://www.w3.org/1999/xlink" x="0px" y="0px"
	 viewBox="0 0 512 512" style="enable-background:new 0 0 512 512;" xml:space="preserve">
<g id="Layer_2">
	<g>
		<path style="fill:#FFFFFF;" d="M486,370.54c0,20.116-16.307,36.423-36.423,36.423H62.423C42.307,406.963,26,390.656,26,370.54l0,0
			c0-20.116,16.307-36.423,36.423-36.423h387.151C469.693,334.116,486,350.423,486,370.54L486,370.54z"/>
		<path style="fill:#FFFFFF;" d="M189.034,235.465c0,18.008-14.598,32.606-32.606,32.606H58.606
			C40.598,268.072,26,253.473,26,235.465v-97.822c0-18.008,14.598-32.606,32.606-32.606h97.822
			c18.008,0,32.606,14.598,32.606,32.606L189.034,235.465L189.034,235.465z"/>
		<path style="fill:#FFFFFF;" d="M344.011,269.714c0,11.482-9.307,20.79-20.79,20.79h-62.369c-11.482,0-20.79-9.307-20.79-20.79
			v-62.369c0-11.482,9.308-20.79,20.79-20.79h62.369c11.482,0,20.79,9.308,20.79,20.79V269.714z"/>
		<path style="fill:#FFFFFF;" d="M484.79,269.714c0,11.482-9.307,20.79-20.79,20.79h-62.369c-11.482,0-20.79-9.307-20.79-20.79
			v-62.369c0-11.482,9.307-20.79,20.79-20.79H464c11.482,0,20.79,9.308,20.79,20.79V269.714z"/>
	</g>
	<polygon style="fill:#FFFFFF;" points="94.965,311.06 107.518,289.319 120.069,311.06 	"/>
</g>
</svg>
