<?xml version="1.0" encoding="utf-8"?>
<!-- Generator: Adobe Illustrator 18.0.0, SVG Export Plug-In . SVG Version: 6.00 Build 0)  -->
<!DOCTYPE svg PUBLIC "-//W3C//DTD SVG 1.1//EN" "http://www.w3.org/Graphics/SVG/1.1/DTD/svg11.dtd">
<svg version="1.1" id="Layer_3" xmlns="http://www.w3.org/2000/svg" xmlns:xlink="http://www.w3.org/1999/xlink" x="0px" y="0px"
	 viewBox="0 0 512 512" style="enable-background:new 0 0 512 512;" xml:space="preserve">
<g>
	<g id="Layer_2">
		<g>
			<path style="fill:#FFFFFF;" d="M465.914,404.62c0,17.117-13.877,30.994-30.994,30.994H105.477
				c-17.118,0-30.994-13.877-30.994-30.994l0,0c0-17.117,13.877-30.994,30.994-30.994h329.441
				C452.037,373.626,465.914,387.503,465.914,404.62L465.914,404.62z"/>
			<path style="fill:#FFFFFF;" d="M213.215,289.681c0,15.324-12.422,27.746-27.746,27.746h-83.24
				c-15.324,0-27.746-12.422-27.746-27.746v-83.24c0-15.324,12.422-27.746,27.746-27.746h83.24
				c15.324,0,27.746,12.422,27.746,27.746L213.215,289.681L213.215,289.681z"/>
			<path style="fill:#FFFFFF;" d="M345.09,318.824c0,9.771-7.92,17.691-17.691,17.691h-53.072c-9.771,0-17.691-7.92-17.691-17.691
				v-53.072c0-9.771,7.92-17.691,17.691-17.691h53.072c9.771,0,17.691,7.92,17.691,17.691V318.824z"/>
			<path style="fill:#FFFFFF;" d="M464.884,318.824c0,9.771-7.92,17.691-17.691,17.691h-53.072c-9.771,0-17.691-7.92-17.691-17.691
				v-53.072c0-9.771,7.92-17.691,17.691-17.691h53.072c9.771,0,17.691,7.92,17.691,17.691V318.824z"/>
		</g>
		<polygon style="fill:#FFFFFF;" points="133.168,354.007 143.85,335.507 154.53,354.007 		"/>
	</g>
	<g>
		<polygon style="fill:#FF0316;" points="256.34,270.398 268.12,40.866 279.9,270.398 		"/>
		<polygon style="fill:#D1D1D1;" points="271.632,275.477 59.671,413.134 264.574,265.176 		"/>
		<polygon points="268.12,282.446 452.329,270.666 268.12,258.886 		"/>
		<circle style="fill:#FF0316;" cx="268.12" cy="270.666" r="24.916"/>
	</g>
</g>
</svg>
