<?xml version="1.0" encoding="utf-8"?>
<!-- Generator: Adobe Illustrator 18.0.0, SVG Export Plug-In . SVG Version: 6.00 Build 0)  -->
<!DOCTYPE svg PUBLIC "-//W3C//DTD SVG 1.1//EN" "http://www.w3.org/Graphics/SVG/1.1/DTD/svg11.dtd">
<svg version="1.1" id="Layer_1" xmlns="http://www.w3.org/2000/svg" xmlns:xlink="http://www.w3.org/1999/xlink" x="0px" y="0px"
	 viewBox="0 0 512 512" style="enable-background:new 0 0 512 512;" xml:space="preserve">
<g style="opacity:0.4;">
	<g>
		<polygon points="464.8,291.5 464.8,274.1 451.7,274.1 451.7,282.1 444.4,285 449,296.7 		"/>
		<rect x="451.7" y="253.3" width="12.6" height="18.5"/>
		<polygon points="464.8,233.4 449,227.9 444.4,239.8 451.7,242.5 451.7,250.4 464.8,250.4 		"/>
		<rect x="426.5" y="223.4" transform="matrix(0.9424 0.3346 -0.3346 0.9424 102.0309 -132.5483)" width="18.5" height="13.1"/>
		<path d="M416.3,211.7l-1.2-3.5l-12.3,4.1l1.2,3.5c1,2.2,1.5,5.1,2.2,7.5l0.9,3.2l15,5.3l4.4-12.2l-8.5-3.1
			C417.4,215,416.8,213.4,416.3,211.7z"/>
		<path d="M397.5,198.6c1.2,3.1,2.5,5.4,3.5,8.5l1.2,3.5l12.3-4.4l-6.9-16.3l-12,5.3L397.5,198.6z"/>
		<path d="M389.8,176.5l-2.8,2.8l1.2,2.2l1.2,2.1c1.2,2.2,2.8,4.4,3.8,6.9l2.1,3.5l11.4-6.2l-2.8-5.1c-0.1-1-1.2-2.1-1.5-3.1
			l3.8-8.1l-11.6-5.4L389.8,176.5z"/>
		<rect x="396.4" y="151.6" transform="matrix(0.4297 -0.903 0.903 0.4297 88.5685 456.4948)" width="18.5" height="13.1"/>
		<polygon points="403.1,132 408.5,137.7 404.8,144.8 416.8,150.2 423.9,135.1 411.7,123.1 		"/>
		<rect x="389.4" y="112.8" transform="matrix(-0.7071 -0.7071 0.7071 -0.7071 596.3 485.2063)" width="18.5" height="12.6"/>
		<polygon points="368,101.4 373.3,113.1 380.5,109.6 385.7,115.1 394.8,106.2 383.2,94 		"/>
		<rect x="353.6" y="103.1" transform="matrix(-0.4297 -0.903 0.903 -0.4297 413.459 485.8102)" width="13.1" height="18.5"/>
		<path d="M338.2,115.6c-0.1-0.1-1-0.1-1.2-0.9c-1.2-0.4-2.2-1.2-3.1-1.8l-3.5-2.1l-5.9,11.6l3.5,2.1c2.2,1.2,4.8,2.8,7,4.1l4.4,2.2
			l2.8-3.1l10.1-4.8l-5.4-11.6L338.2,115.6z"/>
		<path d="M315.8,105l-3.5-1.2l-4.8,12l3.8,1.5c2.8,1,5.3,2.2,8.5,3.5l3.5,1.5l5.3-11.6L325,109C321.8,107.2,318.7,106.2,315.8,105z
			"/>
		<path d="M301.3,99.9l-3.1-8.5L286,95.8l5.3,15l2.1,0.1l12.6,3.5l3.8-12.2l-3.5-1.2C304.6,101.1,302.9,100.3,301.3,99.9z"/>
		<rect x="278.7" y="76.3" transform="matrix(-0.3346 -0.9424 0.9424 -0.3346 306.2502 381.8667)" width="18.5" height="13.1"/>
		<polygon points="267.7,66.2 275.6,66.2 278.1,73.5 290.1,69.4 284.8,53.4 267.7,53.4 		"/>
		<rect x="246.5" y="53.4" width="18.5" height="13.1"/>
		<polygon points="221.3,69.4 233.2,73.3 236,66.2 243.5,66.2 243.5,53.4 226.6,53.4 		"/>
		<rect x="216.9" y="73.1" transform="matrix(-0.9424 -0.3346 0.3346 -0.9424 406.4968 234.6467)" width="13.1" height="18.5"/>
		<path d="M210.5,99.9c-1.8,0.1-3.2,1-5.3,1.5l-3.5,1.2l4.1,12.2l3.5-1c1.8-0.1,3.5-1,5.3-1.5l2.8-0.9l3.2-0.9l5.3-15l-12.2-4.4
			L210.5,99.9z"/>
		<path d="M183.2,110l5.3,12l3.5-1.5c2.8-1.2,5.4-2.2,8.5-3.5l3.5-1.5l-4.8-12L183.2,110z"/>
		<path d="M176,113.7c-1,0.1-2.1,1-3.1,1.5l-8.1-4.1l-5.3,11.6l10,4.8l2.8,3.1l4.4-2.2l0.1-0.1c2.2-1.5,4.4-2.8,6.9-4.1l3.5-1.8
			l-5.9-11.6L176,113.7z"/>
		<rect x="142.4" y="106.2" transform="matrix(-0.9029 -0.4298 0.4298 -0.9029 240.054 279.2681)" width="18.3" height="12.6"/>
		<polygon points="116.1,106.2 125.5,115.1 130.8,109.6 138,113.1 143.3,101.4 128.3,94 		"/>
		<rect x="106.5" y="109.5" transform="matrix(-0.7071 -0.7071 0.7071 -0.7071 108.6314 282.3922)" width="12.6" height="18.5"/>
		<polygon points="87.7,135.1 94.7,150.2 106.3,144.8 102.9,137.7 108.4,132 99.4,123.1 		"/>
		<rect x="96.3" y="151.4" transform="matrix(-0.4299 -0.9029 0.9029 -0.4299 8.3406 321.1807)" width="18.5" height="13.1"/>
		<path d="M116.6,166.3l-11.6,5.4l4.1,8.1c-0.1,0.1-0.1,0.1-0.1,0.4c-0.9,1.2-1.5,2.8-2.2,4.1l-1.8,3.5l11.6,5.9l1.8-3.5
			c0.9-1.5,1.5-2.8,2.2-4.1c0.1-1,1-2.1,1.5-2.8l2.2-4.1l-2.8-2.8L116.6,166.3z"/>
		<path d="M110.3,207.1c1-2.8,2.1-5.3,3.5-8.4l2.1-3.5l-12.2-5.3l-1.5,3.5c-1.5,3.1-2.8,6.2-4.1,9.1l-1.5,3.5l12,4.8L110.3,207.1z"
			/>
		<path d="M89.4,231.9l15-5.3l0.1-2.1l3.5-12.6l-12.2-4.1l-1.2,3.5c-0.4,1.8-1,3.5-1.5,5.3l-8.5,3.1L89.4,231.9z"/>
		<rect x="69.3" y="220.9" transform="matrix(-0.3346 -0.9424 0.9424 -0.3346 -115.6889 378.6017)" width="13.1" height="18.5"/>
		<polygon points="46.6,233.4 46.6,250.4 59.8,250.4 59.8,242.5 66.7,239.8 62.3,227.9 		"/>
		<rect x="46.6" y="253.3" width="13.1" height="18.5"/>
		<polygon points="46.6,291.5 62.3,296.7 66.7,285 59.8,282.1 59.8,274.1 46.6,274.1 		"/>
		<rect x="66.8" y="288.1" transform="matrix(0.9424 0.3345 -0.3345 0.9424 102.9335 -8.4584)" width="18.5" height="13.1"/>
		<path d="M94.7,313l1.2,3.5l12.3-3.8l-1.5-3.8c-1-2.5-1.5-5.1-2.2-7.5l-0.9-3.2L89,292.9l-4.4,12.2l8.5,3.1
			C93.8,309.5,94.6,311.3,94.7,313z"/>
		<path d="M103.4,335.2l11.6-5.4l-1.5-3.5c-1.2-3.1-2.2-5.4-3.5-8.5l-1.5-3.8l-12.2,4.8L103.4,335.2z"/>
		<path d="M121.9,348.5l2.8-2.8l-2.2-4.1h-0.1c-1.5-2.2-2.8-4.4-4.1-6.9l-1.8-3.5l-11.6,5.9l2.8,5.1c0.1,1,1,2.1,1.5,3.1l-4.1,8.1
			l11.6,5.4L121.9,348.5z"/>
		<rect x="96.5" y="360.2" transform="matrix(-0.4296 0.903 -0.903 -0.4296 482.0677 428.5012)" width="18.3" height="12.6"/>
		<polygon points="108.4,392.8 102.9,387.2 106.3,380.1 94.7,374.3 87.7,389.6 99.4,401.6 		"/>
		<rect x="103.2" y="399.4" transform="matrix(0.7071 0.7071 -0.7071 0.7071 319.8397 39.315)" width="18.5" height="12.6"/>
		<polygon points="143.3,423.3 138,411.7 130.8,415 125.5,409.4 116.1,418.5 128.3,430.7 		"/>
		<rect x="145.2" y="403.2" transform="matrix(0.4296 0.903 -0.903 0.4296 458.8146 98.3585)" width="12.6" height="18.3"/>
		<path d="M173.1,409.4c0.1,0.1,1,0.1,1.5,0.9c1,0.4,2.2,1.2,3.1,1.8l3.5,2.1l6.2-11.4l-3.5-2.1c-2.2-1.2-4.8-2.8-7-3.8l-4.4-2.2
			l-2.8,2.8l-10.1,4.8l5.4,11.6L173.1,409.4z"/>
		<path d="M195.9,420l3.5,1.2l4.4-12.2l-3.5-1.2c-2.8-1-5.3-2.2-8.5-3.5l-3.5-1.5l-5.3,11.6l3.5,1.5
			C189.6,417.5,192.9,418.5,195.9,420z"/>
		<path d="M210.5,424.5l3.1,8.5l12.2-4.4l-5.3-15l-2.1-0.1l-12.6-3.8l-4.1,12.2l3.5,1.2C206.8,423.5,208.5,424.4,210.5,424.5z"/>
		<rect x="214" y="435.6" transform="matrix(0.3346 0.9424 -0.9424 0.3346 565.1749 83.8775)" width="18.5" height="13.1"/>
		<polygon points="243.5,458.7 236,458.7 233.2,451.2 221.3,455 226.6,471.4 243.5,471.4 		"/>
		<rect x="246.5" y="458.7" width="18.5" height="12.6"/>
		<polygon points="290.1,455 278.1,451.2 275.6,458.7 267.7,458.7 267.7,471.4 284.8,471.4 		"/>
		<rect x="278.6" y="435.5" transform="matrix(0.3345 -0.9424 0.9424 0.3345 -225.0373 565.4394)" width="18.5" height="13.1"/>
		<path d="M300.8,424.5c1.8-0.1,3.2-1,5.1-1.5l3.5-1.2l-3.8-12.3l-3.8,1.2c-2.5,1-5.1,1.5-7.5,2.2l-3.2,0.9l-5.3,15l12.2,4.4
			L300.8,424.5z"/>
		<path d="M315.8,420c2.8-1,5.4-2.2,8.9-3.8l3.5-1.5l-5.1-12l-3.5,1.5c-3.1,1.2-5.4,2.5-8.5,3.5l-3.8,1.2l4.8,12L315.8,420z"/>
		<path d="M333.5,411.7c1.5-0.9,3.1-1.8,4.4-2.8l7.9,3.8l5.4-11.6l-10.1-4.8l-2.8-2.8l-2.5,1.2l-2.1,1.2c-2.2,1.2-4.4,2.8-6.9,3.8
			l-3.5,1.8l5.9,11.6L333.5,411.7z"/>
		<rect x="350.7" y="405.8" transform="matrix(0.9029 0.4298 -0.4298 0.9029 212.0455 -114.6736)" width="18.3" height="12.6"/>
		<polygon points="394.8,418.5 385.7,409.4 380.5,415 373.3,411.7 368,423.3 383.2,430.7 		"/>
		<rect x="392.6" y="396.1" transform="matrix(0.7071 0.7071 -0.7071 0.7071 403.4844 -163.3371)" width="12.6" height="18.5"/>
		<polygon points="423.9,389.6 416.8,374.3 404.8,380.1 408.5,387.2 403.1,392.7 411.7,401.6 		"/>
		<rect x="396.3" y="359.9" transform="matrix(0.4296 0.903 -0.903 0.4296 562.0093 -157.2329)" width="18.3" height="12.6"/>
		<path d="M394.7,358.5l11.6-5.3l-3.8-8.1c0.1-0.1,0.1-1,0.9-1.2c0.4-1.2,1.2-2.2,1.8-3.1l2.1-3.5l-11.4-5.9l-2.1,3.5
			c-1.2,2.2-2.8,4.8-3.8,7l-2.2,4.4l2.8,2.8L394.7,358.5z"/>
		<path d="M401,317.9c-1,2.8-2.2,5.3-3.5,8.5l-1.5,3.5l11.6,5.1l1.5-3.5c1.5-3.2,2.8-6.3,3.8-9.1l1.2-3.5l-11.6-4.8L401,317.9z"/>
		<path d="M422.1,292.6l-15,5.3L407,300l-3.8,12.6l12.2,3.8l1.2-3.5c0.4-1.8,1.2-3.5,1.5-5.1l8.5-3.1L422.1,292.6z"/>
		<rect x="428.8" y="285.7" transform="matrix(0.3347 0.9423 -0.9423 0.3347 567.3647 -213.8576)" width="12.6" height="18.3"/>
		<path d="M473.5,201.2l-1-3.5l-12.8,3.5l1.2,3.5c1.2,4.1,2.1,7.3,2.8,10.4l0.9,3.5l13.1-2.8l-0.9-4.1
			C475.5,208.4,474.5,204.8,473.5,201.2z"/>
		<path d="M467,236l0.1,4.1l13.1-1.5l-0.1-3.5c-0.1-3.5-1-7.5-1.5-11.1l-0.4-4.1l-13.1,2.2l0.9,4.1C466.1,229,466.9,232.2,467,236z"
			/>
		<path d="M41.2,335l1.2,3.5l12.3-4.1l-1-3.5c-1-3.2-2.2-6.5-3.1-10.1l-1-3.8l-13.1,3.5l1,3.8C39,327.8,39.9,331.5,41.2,335z"/>
		<path d="M86.1,113.1c-2.1,2.2-4.1,4.4-5.4,6.5c-0.4,0.4-1,1.5-1.8,2.1l-2.2,3.1l10.4,8.5l2.2-3.1c2.2-3.1,4.4-5.4,6.5-7.9l2.8-3.1
			l-10-8.5L86.1,113.1z"/>
		<path d="M71.8,130.5c-2.2,3.5-4.4,6.5-6.3,9.4l-2.2,3.2l11.1,7.3l2.2-3.2c2.1-3.1,4.1-6.3,5.9-8.9l2.2-3.1l-10.6-7.5L71.8,130.5z"
			/>
		<path d="M49.2,169.6c-1.5,3.5-3.1,6.9-4.4,10.4l-1.5,3.5l12.3,5.1l1.5-3.5c1-2.8,2.2-6.3,4.1-9.5l2.1-3.5L51,166.8L49.2,169.6z"/>
		<path d="M59.8,149.3c-2.1,3.2-3.5,6.5-5.3,10l-2.1,3.5l12,6.2l1.8-3.5c2.1-3.5,3.5-6.5,5.1-9.1l2.1-3.5l-11.6-6.5L59.8,149.3z"/>
		<path d="M40.7,191c-1.5,4.1-2.2,7.3-3.5,11l-1,3.5l13.1,3.5l1-3.5c1-3.2,2.1-6.5,3.1-10.1l1.2-3.5l-12.3-4.1L40.7,191z"/>
		<path d="M31.2,234.3c-0.1,3.5-0.9,7-1,10.4l-0.1,4.8l13.2,1l0.1-5.3c0.1-3.1,0.4-6.2,1-9.1l0.1-4.1l-13.2-1.5L31.2,234.3z"/>
		<path d="M35,212.2c-1,4.1-1.8,7.5-2.2,11l-0.4,4.1l13.1,2.2l0.9-4.4c0.4-3.1,1-6.5,2.1-9.4l1-4.1l-13.2-3.1L35,212.2z"/>
		<path d="M157.2,58.4c-3.2,1.5-6.5,3.5-10,5.1l-3.5,2.1l6.5,11.6l3.5-2.1c3.1-1.8,6.2-3.5,9.4-4.8l3.5-1.8l-5.4-12L157.2,58.4z"/>
		<path d="M199.2,43.3c-3.5,1-7.3,2.1-10.6,3.1l-3.5,1l3.5,12.3l3.5-1c1-0.1,2.1-0.4,3.1-1c2.2-0.4,4.8-1.5,7.3-2.1l4.1-1l-3.5-13.1
			L199.2,43.3z"/>
		<path d="M244.2,36.1c-4.1,0.1-7.5,0.1-11.1,0.9l-4.1,0.1l1,13.2l4.1-0.1c3.5-0.1,7-0.4,10.6-0.9l4.1-0.1l-0.9-13.2L244.2,36.1z"/>
		<path d="M101.5,96.4c-2.8,2.2-5.3,5.1-8.4,8.1l-2.8,2.8l6.5,6.5l2.8,2.8l2.8-2.8c2.2-2.2,5.1-5.1,7.5-7.3l2.8-2.8l-9.1-9.5
			L101.5,96.4z"/>
		<path d="M177.7,49.9c-3.5,1.2-7,2.8-10.4,4.1l-3.5,1.5l5.3,12.2l3.5-1.5c2.8-1,6.3-2.8,10-3.5l3.5-1.2l-4.4-12.6L177.7,49.9z"/>
		<path d="M118.8,82c-2.2,2.1-5.4,4.4-8.5,7l-3.1,2.2l8.5,10.4l3.1-2.2c2.8-2.2,5.4-4.4,8.4-6.5l3.1-2.2l-8.1-11L118.8,82z"/>
		<path d="M137.1,69.4c-3.1,2.1-6.3,4.1-9.1,6.2l-3.2,2.2l7.3,11l3.2-2.2c1.2-0.9,2.2-1.5,3.5-2.2c1.8-1,3.5-2.2,5.3-3.5l3.1-2.1
			l-6.5-11.1L137.1,69.4z"/>
		<polygon points="29.3,272.5 42.8,271.9 42.8,253.8 29.3,253.3 		"/>
		<path d="M244.9,488.6h4.1l0.1-13.2h-4.1c-3.5,0-7.3-0.1-10.6-0.9l-4.1-0.1l-1,13.2l4.8,0.1C237.9,488,241.1,488.3,244.9,488.6z"/>
		<path d="M86.1,412.2l2.8,3.1l10-8.9l-2.2-2.8c-2.2-2.8-4.8-5.3-6.5-8.1l-2.2-3.1l-10.4,8.5l2.2,3.1
			C81.4,406.3,83.9,409.4,86.1,412.2z"/>
		<path d="M67.3,388.1c1.5,2.2,3.1,4.4,4.4,6.5l2.2,3.1l10.6-7.5l-2.2-3.1c-0.4-1-1.5-2.1-2.1-3.1c-1.5-2.1-2.8-3.8-4.1-5.4
			l-2.2-3.2l-11.1,7.3l2.2,3.2C66.4,386.4,66.7,387.2,67.3,388.1z"/>
		<path d="M97.8,424.5c1.5,1.2,2.8,2.8,4.1,3.8l2.8,2.8l9.1-10l-3.1-2.8c-2.2-2.2-5.3-4.8-7.5-7.3l-2.8-2.8l-10,9.1l3.1,2.8
			C95.2,422.2,96.6,423.3,97.8,424.5z"/>
		<path d="M157.5,466.5l3.5,1.5l6.2-11.6l-3.5-1.8c-3.1-1.2-6.2-3.1-9.5-4.8l-3.5-2.1l-4.4,8.4l-1.8,3.5l3.5,2.1
			C151,462.9,154.3,465,157.5,466.5z"/>
		<path d="M119.4,442.8l3.1,2.2l7.9-10.6l-3.1-2.2c-2.8-2.2-5.4-4.4-8.4-6.5l-3.1-2.5l-8.4,10.1l3.1,2.5
			C113.5,438.4,116.3,440.8,119.4,442.8z"/>
		<path d="M178.5,475.4l3.5,1.2l4.4-12.3l-5.4-2.2c-2.2-1-5.3-2.1-7.5-3.1l-3.5-1.5l-5.3,12.2l3.5,1.5
			C171.4,472.5,175.1,473.8,178.5,475.4z"/>
		<path d="M137.8,455.6l3.2,2.1l6.9-11.1l-3.2-2.1c-3.2-2.1-6.3-4.1-8.9-5.9l-3.2-2.2l-7.5,11.1l3.5,2.2
			C131.5,451.6,134.8,453.8,137.8,455.6z"/>
		<path d="M278.2,487.6c4.4-0.1,8.1-1,11.6-1.5l3.5-0.9l-2.1-13.1l-3.8,0.4c-3.5,0.4-7,1.2-10.4,1.2l-3.8,0.1l1.2,13.2L278.2,487.6z
			"/>
		<path d="M49.7,355.9l1.8,3.5l12.2-5.3l-1.8-3.5c-1.5-2.8-2.8-5.9-4.1-10l-1.5-3.8L44,341.9l1.5,3.5
			C46.6,348.5,48.1,352.5,49.7,355.9z"/>
		<path d="M59.8,375.9l2.1,3.2l11.6-6.3l-3.1-5.4c-1.2-2.2-2.8-4.8-4.1-7.3l-1.8-3.5l-12,6.3l2.1,3.5
			C56,369.1,57.8,372.7,59.8,375.9z"/>
		<path d="M35,312.9l0.9,3.8l13.1-2.8l-1.2-5.3c-0.4-3.1-1.2-5.9-2.1-8.9l-0.4-3.8l-13.1,2.2l0.4,3.8
			C33.7,305.7,34.4,309.4,35,312.9z"/>
		<path d="M200.2,481.7l3.5,1l3.5-12.6l-3.5-1c-3.1-0.9-6.5-1.8-10.4-3.1l-3.5-1.2l-4.1,12.6l3.5,1.2
			C192.9,479.8,196.5,480.7,200.2,481.7z"/>
		<path d="M214.4,485.4c2.2,0.1,5.3,1,7.9,1.2l3.5,0.1l2.1-12.6l-4.4-0.9c-3.5-0.4-6.5-1.2-10-1.8L210,471l-2.8,13.1l4.1,0.4
			C212.4,484.5,213.7,484.5,214.4,485.4z"/>
		<path d="M267.1,488.3l3.8-0.1L270,475h-3.8c-3.5,0-7,0.1-10.6,0.1h-4.1v13.2h4.1C259.6,488.6,263.6,488.6,267.1,488.3z"/>
		<path d="M31.2,290.7l0.1,3.8l13.2-1.5l-0.1-3.8c-0.1-3.5-0.9-7.3-1-10.6l-0.1-3.8L30,276.1l0.1,4.8
			C30.6,284,30.6,287.4,31.2,290.7z"/>
		<path d="M457,158.9l-2.1-3.5l-11.6,6.2l2.8,5.3c1.2,2.2,2.5,5.1,3.5,7.5l1.5,3.5l12.2-5.3l-1.5-3.5
			C460.3,165.3,458.6,161.8,457,158.9z"/>
		<path d="M466.4,179.7l-1.2-3.5l-12.3,5.1l1.5,3.5c1.2,3.1,2.5,6.3,3.5,10l1.2,3.5l12.3-4.1l-1.2-3.5
			C469.2,186.9,468,183.2,466.4,179.7z"/>
		<path d="M445.7,385.3c2.1-3.1,4.1-6.3,5.9-10l1.8-3.2l-11.4-6.3l-2.1,3.5c-1.2,2.5-3.1,5.1-4.8,7.5l-3.1,4.8l11.1,7.3L445.7,385.3
			z"/>
		<path d="M432.5,403.7c2.1-2.5,4.8-5.4,7-9.1l2.1-3.1l-10.6-7.6l-2.2,3.1c-2.2,2.8-4.1,5.4-6.3,8.4l-2.5,3.1l10.1,8.4L432.5,403.7z
			"/>
		<path d="M445.7,139.6l-2.2-3.5l-11.1,7.3l2.1,3.2c2.1,3.1,3.8,6.2,5.4,9.1l2.1,3.2l11.4-6.9l-2.1-3.2
			C449.7,145.9,447.9,143,445.7,139.6z"/>
		<path d="M457,365.8c1.5-3.1,3.1-6.3,5.1-10.1l1.5-3.5l-12.2-5.3l-1.5,3.5c-1.2,2.5-2.2,5.1-3.5,7.5l-2.8,5.3l11.6,6.3L457,365.8z"
			/>
		<path d="M417.9,420.1c2.5-2.8,5.1-5.3,7.5-8.4l2.8-3.1l-10.1-8.9l-2.5,3.1c-2.1,2.5-4.4,5.1-7,7.5l-2.8,2.8l10,9.1L417.9,420.1z"
			/>
		<path d="M401.4,435.8c1.2-1.2,2.8-2.5,4.1-3.5c1.2-1.2,2.8-2.5,4.1-3.8l3.1-2.8l-9.1-10.1l-2.8,2.8c-2.5,2.2-5.1,4.8-7.9,7
			l-3.1,2.5l8.5,10.1L401.4,435.8z"/>
		<path d="M467.2,342.6c1-2.8,2.1-5.3,3.1-8.1l1.5-3.8l-12.6-4.1l-1.2,3.5c-1.2,3.5-2.5,6.9-3.8,10.1l-1.2,3.5l12.3,5.1L467.2,342.6
			z"/>
		<path d="M482.3,256.5c0-3.5-0.1-7.3-0.4-11.1l-0.1-4.1l-13.2,1l0.9,18.5l9.5-0.1l3.8-0.1L482.3,256.5z"/>
		<path d="M266.5,49.7l3.8,0.1l0.9-13.2l-3.8-0.1c-3.8-0.1-7.5-0.1-11.1-0.1h-4.4v13.2h4.4C259,49.1,262.8,49.3,266.5,49.7z"/>
		<path d="M209.1,54.1l3.5-0.4c3.5-0.4,7.3-1.2,10.6-2.1l3.5-0.4l-2.1-13.1l-3.5,0.1c-3.5,0.1-7.3,1-11.1,2.1l-3.5,0.9L209.1,54.1z"
			/>
		<path d="M473.5,323.4c1-3.5,2.1-7.3,2.8-10.6l0.9-3.8l-13.1-3.1l-1,3.8c-0.4,3.1-1.5,6.3-2.8,10.1l-1.2,3.8l12.6,3.5L473.5,323.4z
			"/>
		<path d="M432.5,121l-2.5-3.1l-10.1,8.5l2.5,3.1c2.5,3.1,4.4,5.4,6.3,8.4l2.2,3.5l10.6-8.1l-2.2-3.1
			C437.4,127.2,435.3,124.1,432.5,121z"/>
		<path d="M478.6,301.6c0.4-3.2,1.2-7.3,1.8-11.1l0.1-3.8l-13.2-1.5l-0.4,5.1c-0.1,3.1-0.9,6.3-1.2,9.1l-0.4,3.8l13.1,2.2
			L478.6,301.6z"/>
		<path d="M481.2,279.3c0.1-3.8,0.1-7.5,0.1-11.4V264l-13.2-0.1v4.1c0,3.5,0,7-0.1,10.4l-0.1,3.8l13.2,1.2L481.2,279.3z"/>
		<path d="M364,63.5l-3.5-1.8l-6.3,11.6l3.5,2.1c3.1,1.8,6.3,3.5,9.1,5.3l3.2,2.1l6.5-11.1l-3.1-2.1C370.3,67.2,367.1,65.1,364,63.5
			z"/>
		<path d="M343.6,53.4l-3.5-1.5l-5.3,12.2l3.5,1.5c3.1,1.5,6.3,3.1,10,4.4l3.5,1.8l6.3-12.2l-6.3-2.8
			C349.2,56,346.6,54.7,343.6,53.4z"/>
		<path d="M278.1,37l-3.8-0.1L273.1,50l18.5,2.2L293,39l-3.5-0.4C285.7,37.7,281.9,37.1,278.1,37z"/>
		<path d="M383.2,75.2L380,73l-7.5,11l3.2,2.2c2.8,2.1,5.4,4.1,8.5,6.2l3.1,2.2l8.4-10.6l-3.2-2.2C389.6,79.9,386.8,77.7,383.2,75.2
			z"/>
		<path d="M300.7,40.8l-3.8-0.9l-2.8,13.2l3.8,0.9c3.5,0.4,7,1.5,10.1,2.2l3.8,1l3.5-13.1l-3.8-1C307.9,42.2,304.2,41.5,300.7,40.8z
			"/>
		<path d="M401,88.9l-3.1-2.2l-8.5,10.4l3.1,2.2c2.8,2.2,5.3,4.8,7.9,7l3.1,2.8l8.9-10l-2.8-2.8C406.7,94,403.8,91.4,401,88.9z"/>
		<path d="M322.1,46.1l-3.8-1l-3.8,12.6l3.5,1c3.2,1,6.5,2.2,10.1,3.5l3.8,1.5l4.1-12.3l-3.5-1.2C329.4,48.3,326,47.1,322.1,46.1z"
			/>
		<path d="M419.9,106.6c-0.4-0.4-1.2-1.2-2.1-2.1l-2.8-2.8l-9.5,9.1l2.8,2.8c2.2,2.2,5.1,5.3,7.3,7.9l2.8,3.1l10-8.5l-2.5-3.1
			C423.6,110.4,421.5,108.4,419.9,106.6z"/>
		<path d="M300.7,484.3c2.5-0.1,5.1-1,7.3-1.5c1.2-0.1,2.2-0.1,3.5-0.9l4.1-1l-3.5-13.1l-3.8,0.9c-1.8,0.1-3.5,0.9-5.1,1.2
			c-1.8,0.1-3.5,0.9-5.3,1.2l-3.8,0.9l2.8,12.6L300.7,484.3z"/>
		<path d="M343.6,471.1c3.5-1.2,6.9-3.1,10.1-4.8l3.5-1.8l-5.4-11.7l-3.5,1.2c-1.8,0.9-3.2,1.2-5.1,2.2c-1.5,0.9-3.2,1.2-4.8,2.2
			l-3.5,1.5l5.3,12.2L343.6,471.1z"/>
		<path d="M364.2,461.2c2.8-1.5,6.3-3.5,10-5.4l3.1-2.1l-6.5-11.4l-3.2,2.1c-3.1,2.1-6.3,3.8-9.1,5.3l-3.5,2.1l6.3,11.6L364.2,461.2
			z"/>
		<path d="M383.2,449.6c2.8-2.1,5.4-4.1,9.1-6.5l3.1-2.2l-7.9-10.4l-5.1,3.5c-2.2,1.5-4.4,3.2-6.9,4.8l-3.1,2.2l7.5,11L383.2,449.6z
			"/>
		<path d="M322.4,478.6c3.1-1,6.9-2.2,10.6-3.5l3.5-1.2l-4.4-12.3l-3.8,1.2c-3.1,1.2-6.5,2.2-10.1,3.5l-3.5,1.2l3.8,12.6
			L322.4,478.6z"/>
	</g>
	<g style="opacity:0.4;">
		<path style="fill:#FFFFFF;" d="M250.4,211.4c15.8,1,33.2-60.1,3.5-56.3S234.5,210.6,250.4,211.4z"/>
		<path style="fill:#FFFFFF;" d="M304.9,220.8c29.6,0,85.5-75,32.9-75S275.1,220.8,304.9,220.8z"/>
		<path style="fill:#FFFFFF;" d="M209.6,224.3c13.3-2.6,14.1-57.5-9.7-47.8C176,186.4,196.4,226.9,209.6,224.3z"/>
		<path style="fill:#FFFFFF;" d="M266.2,399c26.3,0,56.3-23.6,61.9-53.7c4.3-22.7-50.8-13.6-48.7,1.5c2.5,18-13.2,27-28.6,15.4
			c-48.7-37.1,80.8-55.7,72.3-106.5c-7-42.1-136.3-29-150.9,36.8C162,337.2,213.1,399,266.2,399z"/>
		<path style="fill:#FFFFFF;" d="M178,249.4c11.1-4.8,1.5-53.2-17.7-40C141.4,222.7,166.7,254.5,178,249.4z"/>
	</g>
	<g>
		<g>
			<path d="M250.6,216.5c-0.1,0-0.4,0-0.6,0l0.1-5.1l0.4-5.1l-0.4,5.1l0.4-5.1l0,0c1.5,0,4.8-2.5,8.4-9.4l9.1,4.7
				C263,211.2,257,216.5,250.6,216.5z M241.8,213.3c-4.7-3.7-8.5-10.6-10.6-18.9l10-2.5c1.5,6.2,4.3,11.1,7,13.3L241.8,213.3z
				 M270.6,196.3l-9.5-3.7c2.1-5.4,3.5-11.4,3.8-16.7l10.1,0.6C274.6,182.6,272.9,189.7,270.6,196.3z M230.3,188.3
				c-0.1-2.2-0.4-4.7-0.4-6.9c0-5.1,0.9-9.7,2.2-14.1l9.5,3.5c-1,3.1-1.6,6.7-1.6,10.6c0,1.8,0.1,3.7,0.4,5.4L230.3,188.3z
				 M264.6,170.7c-0.4-4.1-1.6-9.1-5.7-10.4l2.8-9.7c7.5,2.2,12.2,9.1,12.8,19.4L264.6,170.7z M243.8,166.8l-8.5-5.4
				c4.1-6.3,10.4-10.1,18-11.1c0.4,0,1-0.1,1.5-0.1l0.9,10.1c-0.1,0-0.6,0-1,0C249.6,160.9,246.1,162.8,243.8,166.8z"/>
		</g>
		<g>
			<path d="M304.9,225.9l-0.1-10.1h0.1c4.1,0,9.4-2.1,15.3-5.7l5.4,8.5C318.1,223.4,310.9,225.9,304.9,225.9z M297.1,224.4
				c-6.9-2.8-11.6-9.7-13.2-19.5l10-1.6c0.6,3.5,2.2,9.5,7,11.7L297.1,224.4z M330.7,214.9l-6.2-8.1c4.7-3.5,9.1-7.9,13.3-12.6
				l7.8,6.7C341,206.1,335.7,211.1,330.7,214.9z M283.4,198.5v-0.6c0-6.5,1.2-13.3,3.7-20.1l9.5,3.5c-2.1,5.4-3.1,11.1-3.1,16.7v0.6
				h-10.1V198.5z M349.5,196.3l-7.9-6.3c4.1-5.1,7.3-10.6,9.5-15.4l9.4,4.3C357.7,184.2,354.1,190.2,349.5,196.3z M298.6,176
				l-9.1-4.4c3.2-6.7,7.3-12.3,12.3-17l6.9,7.3C304.6,165.9,301.3,170.6,298.6,176z M362.7,172.6l-9.7-3.1c1-2.8,1.5-5.4,1.5-7.8
				c0-2.6-0.6-4.7-1.8-6.2l8.1-6.2c2.6,3.5,3.8,7.5,3.8,12.3C364.6,165.2,364,168.8,362.7,172.6z M312.8,158.6l-5.9-8.1
				c5.9-4.3,12.3-7,19.5-8.8l2.1,10C322.8,153,317.5,155.3,312.8,158.6z M349.8,153.1c-2.8-1.6-6.9-2.2-12-2.2l0,0
				c-1.5,0-2.6,0-4.1,0.1l-0.9-10.1c1.6-0.1,3.2-0.1,4.8-0.1l0,0c6.9,0,12.6,1.2,16.9,3.7L349.8,153.1z"/>
		</g>
		<g>
			<path d="M210.6,229.1l-1-4.8l-1-5.1h0.1c0.9-0.1,3.5-3.5,4.7-12l10.1,1.5C221.7,220.3,217.1,227.9,210.6,229.1z M201.7,227.6
				c-5.4-2.8-10.7-9.4-14.2-17.3l9.4-4.1c2.5,5.7,6.3,10.6,9.5,12.3L201.7,227.6z M185.2,204.2c-1-3.5-1.5-6.9-1.5-10.1
				c0-4.7,1-8.9,3.1-12.6l8.9,5.1c-1.2,2.1-1.8,4.7-1.8,7.8c0,2.2,0.4,4.8,1,7.3L185.2,204.2z M223.9,202.4l-10.1-0.4
				c0-0.6,0-1,0-1.6c0-5.9-1-11.4-2.6-15l9.1-4.3c2.5,5.1,3.7,12,3.7,19.4C223.9,201.1,223.9,201.7,223.9,202.4z M198.1,183.4
				l-6.5-7.8c1.8-1.5,3.8-2.8,6.3-3.7c6.9-2.8,13.3-1.6,18,3.1l-7.3,7c-1.8-1.8-4.1-2.1-7-0.9C200.5,181.7,199.2,182.6,198.1,183.4z
				"/>
		</g>
		<g>
			<path d="M266.2,404.1h-0.4V394h0.4c5.7,0,11.7-1.2,17.9-3.7l3.8,9.4C280.4,402.6,273.2,404.1,266.2,404.1z M259.2,403.7
				c-6.9-0.6-14.1-2.2-21.1-4.8l3.5-9.5c6.3,2.2,12.3,3.7,18.5,4.3L259.2,403.7z M293.9,396.8l-4.7-8.9c5.4-2.8,10.7-6.5,15.4-11
				l6.9,7.3C306.2,389.1,300.4,393.4,293.9,396.8z M232.2,396.5c-6.3-2.8-12.6-6.3-18.5-10.6l5.9-8.4c5.4,3.8,11.1,7,16.9,9.5
				L232.2,396.5z M208.4,382.1c-5.4-4.3-10.7-9.4-15.4-14.7l7.5-6.7c4.3,4.8,9.1,9.4,14.2,13.3L208.4,382.1z M316.2,379.5l-7.5-6.7
				c4.3-4.8,7.9-10.1,10.4-15.7l9.1,4.3C325.5,367.9,321.3,374,316.2,379.5z M266,372.6l-0.9-10.1c4.7-0.4,7.9-3.7,8.9-8.9l10,1.8
				C282.5,365.1,275.4,371.7,266,372.6z M258.3,371.7c-3.7-1-7.3-2.8-10.6-5.4c-3.7-2.6-6.3-5.3-8.4-8.1l8.1-6.2
				c1.5,2.1,3.7,4.1,6.5,6.2c2.5,1.8,4.8,3.1,7,3.7L258.3,371.7z M188.9,362.6c-4.4-5.7-8.5-11.6-11.7-17.7l8.9-4.8
				c3.1,5.4,6.7,11,10.7,16.3L188.9,362.6z M330.9,355.1l-9.5-3.2c0.9-2.5,1.5-4.8,2.1-7.3c0-0.6,0.1-1,0.1-1.5
				c0-1.6-0.6-2.8-2.2-3.8l5.7-8.5c4.3,2.8,6.7,7.3,6.7,12.2c0,1-0.1,2.2-0.4,3.5C332.5,349.4,331.9,352.2,330.9,355.1z
				 M235.5,351.2c-0.6-1.8-1-3.7-1-5.7c0-5.9,2.8-11.6,8.9-17.5l7,7.3c-4.1,3.8-5.9,7.3-5.9,10.4c0,0.9,0.1,1.6,0.4,2.5L235.5,351.2
				z M274.4,348.5c0-0.4,0-0.9-0.1-1.2c0-0.6,0-1,0-1.5c0-6.7,5.7-12.3,16.3-16.3l3.5,9.5c-6.5,2.2-9.5,5.3-9.5,6.7
				c0,0.6,0.1,1.2,0.1,1.8L274.4,348.5z M174.1,339.3c-3.2-6.9-5.4-13.6-6.9-20.4l10-2.1c1.2,5.9,3.2,12,6.2,18L174.1,339.3z
				 M299.2,338l-2.2-10c7.9-1.8,16.3-1.8,22.6-0.4l-2.5,9.7C312.4,336.3,305.7,336.6,299.2,338z M254.9,331.6l-6.3-7.9
				c5.3-4.3,11.7-8.4,17.3-12l5.4,8.5C265.9,323.7,259.7,327.7,254.9,331.6z M276.5,317.1l-5.3-8.8l1.5-1c5.1-3.2,10.6-6.5,15.7-10
				l5.7,8.5c-5.3,3.5-10.7,6.9-15.8,10.1L276.5,317.1z M166.2,312.1c-0.4-2.6-0.4-5.3-0.4-7.9c0-4.4,0.4-8.8,1.5-12.8
				c0-0.4,0.1-0.9,0.1-1.2l10,2.5c0,0.4-0.1,0.6-0.1,1c-0.9,3.5-1.2,6.9-1.2,10.6c0,2.2,0.1,4.4,0.4,6.7L166.2,312.1z M299.2,302.6
				l-5.9-8.4c6.3-4.4,11.1-8.5,14.8-12.3l7.3,7C311.2,293.4,305.9,297.8,299.2,302.6z M178.9,287.2l-9.5-3.5
				c2.5-6.7,6.2-13.2,11-19.1l7.9,6.5C184.1,276.2,181,281.8,178.9,287.2z M319.7,283.8l-8.1-6.3c4.1-5.3,6.3-10.4,6.5-15.7
				l10.1,0.6C328.1,269.7,325.2,276.8,319.7,283.8z M192,267.1l-7.3-7c4.8-4.8,10.6-9.4,16.9-13.3l5.4,8.5
				C201.2,258.7,196.2,262.6,192,267.1z M318.1,257v-0.1c-0.9-4.8-3.8-8.9-9.1-12.2l5.4-8.5c7.8,4.8,12.3,11.4,13.8,19.1v0.4
				L318.1,257z M212.1,252l-4.8-8.9c5.9-3.2,12.6-6.2,19.5-8.5l3.5,9.5C223.7,246.4,217.5,249.2,212.1,252z M235.5,242.3l-2.8-9.7
				c6.7-2.1,13.6-3.7,20.5-4.7l1.6,10C248.2,239.1,241.7,240.4,235.5,242.3z M304.2,241.9c-5.1-2.2-11.1-3.8-18.3-4.7l1.2-10.1
				c8.1,1,15.3,2.8,21.1,5.3L304.2,241.9z M260.6,237.2l-1-10.1c7.3-0.9,14.4-1,21.1-0.6l-0.6,10.1
				C274,236.5,267.2,236.6,260.6,237.2z"/>
		</g>
		<g>
			<path d="M180.1,254.1l-4.1-9.4l0,0c0.4-0.1,1.6-2.5,1.6-8.1c0-2.1-0.1-4.3-0.6-6.7l10-1.6c0.4,2.8,0.9,5.7,0.9,8.4
				C187.9,245.8,184.9,251.9,180.1,254.1z M169.8,253.9c-6.7-2.6-13.6-9.5-17.7-17.7l9.1-4.7c2.8,5.9,7.9,11.1,12.3,12.8
				L169.8,253.9z M149.3,229.1c-0.6-2.2-0.9-4.4-0.9-6.7c0-7,3.1-13.1,9.1-17c0.4-0.1,0.6-0.4,1-0.6l5.3,8.8
				c-0.1,0.1-0.4,0.1-0.6,0.4c-3.1,2.2-4.7,5.1-4.7,8.8c0,1.2,0.1,2.6,0.6,4.3L149.3,229.1z M175.8,224.4c-2.2-7-5.7-12-8.8-12.2
				l0.6-10.1c7.8,0.6,14.2,7.5,17.9,19.4L175.8,224.4z"/>
		</g>
	</g>
</g>
<g>
	<g>
		<polygon style="fill:#FFFFFF;" points="464.8,284.1 464.8,266.8 451.7,266.8 451.7,274.7 444.4,277.7 449,289.4 		"/>
		<rect x="451.7" y="246" style="fill:#FFFFFF;" width="12.6" height="18.5"/>
		<polygon style="fill:#FFFFFF;" points="464.8,226 449,220.6 444.4,232.5 451.7,235.1 451.7,243.1 464.8,243.1 		"/>
		<polygon style="fill:#FFFFFF;" points="442.2,231.9 424.9,225.6 429.2,213.4 446.6,219.6 		"/>
		<path style="fill:#FFFFFF;" d="M416.3,204.3l-1.2-3.5l-12.3,4.1l1.2,3.5c1,2.2,1.5,5.1,2.2,7.5l0.9,3.2l15,5.3l4.4-12.2l-8.5-3.1
			C417.4,207.7,416.8,206.1,416.3,204.3z"/>
		<path style="fill:#FFFFFF;" d="M397.5,191.3c1.2,3.1,2.5,5.4,3.5,8.5l1.2,3.5l12.3-4.4l-6.9-16.3l-12,5.3L397.5,191.3z"/>
		<path style="fill:#FFFFFF;" d="M389.8,169.1l-2.8,2.8l1.2,2.2l1.2,2.1c1.2,2.2,2.8,4.4,3.8,6.9l2.1,3.5l11.4-6.2l-2.8-5.1
			c-0.1-1-1.2-2.1-1.5-3.1l3.8-8.1l-11.6-5.4L389.8,169.1z"/>
		<polygon style="fill:#FFFFFF;" points="415.7,145.2 407.6,161.9 395.9,156.4 403.9,139.6 		"/>
		<polygon style="fill:#FFFFFF;" points="403.1,124.7 408.5,130.4 404.8,137.4 416.8,142.9 423.9,127.8 411.7,115.7 		"/>
		<polygon style="fill:#FFFFFF;" points="396.6,100.8 409.7,113.8 400.7,122.8 387.6,109.7 		"/>
		<polygon style="fill:#FFFFFF;" points="368,94 373.3,105.8 380.5,102.2 385.7,107.8 394.8,98.9 383.2,86.7 		"/>
		<polygon style="fill:#FFFFFF;" points="365.6,95 371.2,106.8 354.5,114.9 348.9,103.1 		"/>
		<path style="fill:#FFFFFF;" d="M338.2,108.2c-0.1-0.1-1-0.1-1.2-0.9c-1.2-0.4-2.2-1.2-3.1-1.8l-3.5-2.1l-5.9,11.6l3.5,2.1
			c2.2,1.2,4.8,2.8,7,4.1l4.4,2.2l2.8-3.1l10.1-4.8L347,104L338.2,108.2z"/>
		<path style="fill:#FFFFFF;" d="M315.8,97.7l-3.5-1.2l-4.8,12l3.8,1.5c2.8,1,5.3,2.2,8.5,3.5l3.5,1.5l5.3-11.6l-3.5-1.8
			C321.8,99.9,318.7,98.9,315.8,97.7z"/>
		<path style="fill:#FFFFFF;" d="M301.3,92.6l-3.1-8.5L286,88.4l5.3,15l2.1,0.1l12.6,3.5l3.8-12.2l-3.5-1.2
			C304.6,93.7,302.9,93,301.3,92.6z"/>
		<polygon style="fill:#FFFFFF;" points="291,64.5 297.3,82 285,86.2 278.8,68.9 		"/>
		<polygon style="fill:#FFFFFF;" points="267.7,58.8 275.6,58.8 278.1,66.2 290.1,62 284.8,46.1 267.7,46.1 		"/>
		<rect x="246.5" y="46.1" style="fill:#FFFFFF;" width="18.5" height="13.1"/>
		<polygon style="fill:#FFFFFF;" points="221.3,62 233.2,66 236,58.8 243.5,58.8 243.5,46.1 226.6,46.1 		"/>
		<polygon style="fill:#FFFFFF;" points="220.4,64.1 232.6,68.5 226.4,86 214.1,81.6 		"/>
		<path style="fill:#FFFFFF;" d="M210.5,92.6c-1.8,0.1-3.2,1-5.3,1.5l-3.5,1.2l4.1,12.2l3.5-1c1.8-0.1,3.5-1,5.3-1.5l2.8-0.9
			l3.2-0.9l5.3-15l-12.2-4.4L210.5,92.6z"/>
		<path style="fill:#FFFFFF;" d="M183.2,102.7l5.3,12l3.5-1.5c2.8-1.2,5.4-2.2,8.5-3.5l3.5-1.5l-4.8-12L183.2,102.7z"/>
		<path style="fill:#FFFFFF;" d="M176,106.3c-1,0.1-2.1,1-3.1,1.5l-8.1-4.1l-5.3,11.6l10,4.8l2.8,3.1l4.4-2.2l0.1-0.1
			c2.2-1.5,4.4-2.8,6.9-4.1l3.5-1.8l-5.9-11.6L176,106.3z"/>
		<polygon style="fill:#FFFFFF;" points="145.9,95.6 162.5,103.4 157.1,114.9 140.5,106.9 		"/>
		<polygon style="fill:#FFFFFF;" points="116.1,98.9 125.5,107.8 130.8,102.2 138,105.8 143.3,94 128.3,86.7 		"/>
		<polygon style="fill:#FFFFFF;" points="114.8,100.3 123.8,109.3 110.7,122.3 101.8,113.5 		"/>
		<polygon style="fill:#FFFFFF;" points="87.7,127.8 94.7,142.9 106.3,137.4 102.9,130.4 108.4,124.7 99.4,115.7 		"/>
		<polygon style="fill:#FFFFFF;" points="107.5,139.5 115.4,156.2 103.7,161.8 95.7,145.1 		"/>
		<path style="fill:#FFFFFF;" d="M116.6,159l-11.6,5.4l4.1,8.1c-0.1,0.1-0.1,0.1-0.1,0.4c-0.9,1.2-1.5,2.8-2.2,4.1l-1.8,3.5
			l11.6,5.9l1.8-3.5c0.9-1.5,1.5-2.8,2.2-4.1c0.1-1,1-2.1,1.5-2.8l2.2-4.1l-2.8-2.8L116.6,159z"/>
		<path style="fill:#FFFFFF;" d="M110.3,199.8c1-2.8,2.1-5.3,3.5-8.4l2.1-3.5l-12.2-5.3l-1.5,3.5c-1.5,3.1-2.8,6.2-4.1,9.1l-1.5,3.5
			l12,4.8L110.3,199.8z"/>
		<path style="fill:#FFFFFF;" d="M89.4,224.6l15-5.3l0.1-2.1l3.5-12.6l-12.2-4.1l-1.2,3.5c-0.4,1.8-1,3.5-1.5,5.3l-8.5,3.1
			L89.4,224.6z"/>
		<polygon style="fill:#FFFFFF;" points="82.4,213.6 86.8,225.9 69.3,232.1 64.9,219.7 		"/>
		<polygon style="fill:#FFFFFF;" points="46.6,226 46.6,243.1 59.8,243.1 59.8,235.1 66.7,232.5 62.3,220.6 		"/>
		<rect x="46.6" y="246" style="fill:#FFFFFF;" width="13.1" height="18.5"/>
		<polygon style="fill:#FFFFFF;" points="46.6,284.1 62.3,289.4 66.7,277.7 59.8,274.7 59.8,266.8 46.6,266.8 		"/>
		<polygon style="fill:#FFFFFF;" points="82.5,296.4 65.2,290.3 69.5,278.1 86.9,284.3 		"/>
		<path style="fill:#FFFFFF;" d="M94.7,305.7l1.2,3.5l12.3-3.8l-1.5-3.8c-1-2.5-1.5-5.1-2.2-7.5l-0.9-3.2L89,285.6l-4.4,12.2
			l8.5,3.1C93.8,302.2,94.6,303.9,94.7,305.7z"/>
		<path style="fill:#FFFFFF;" d="M103.4,327.8l11.6-5.4l-1.5-3.5c-1.2-3.1-2.2-5.4-3.5-8.5l-1.5-3.8l-12.2,4.8L103.4,327.8z"/>
		<path style="fill:#FFFFFF;" d="M121.9,341.2l2.8-2.8l-2.2-4.1h-0.1c-1.5-2.2-2.8-4.4-4.1-6.9l-1.8-3.5l-11.6,5.9l2.8,5.1
			c0.1,1,1,2.1,1.5,3.1L105,346l11.6,5.4L121.9,341.2z"/>
		<polygon style="fill:#FFFFFF;" points="96,364.8 104,348.4 115.3,353.7 107.5,370.2 		"/>
		<polygon style="fill:#FFFFFF;" points="108.4,385.5 102.9,379.9 106.3,372.7 94.7,367 87.7,382.3 99.4,394.3 		"/>
		<polygon style="fill:#FFFFFF;" points="114.5,409.5 101.5,396.3 110.4,387.5 123.5,400.6 		"/>
		<polygon style="fill:#FFFFFF;" points="143.3,416 138,404.4 130.8,407.6 125.5,402.1 116.1,411.2 128.3,423.3 		"/>
		<polygon style="fill:#FFFFFF;" points="146.1,414.7 140.6,403.4 157.1,395.5 162.5,406.9 		"/>
		<path style="fill:#FFFFFF;" d="M173.1,402.1c0.1,0.1,1,0.1,1.5,0.9c1,0.4,2.2,1.2,3.1,1.8l3.5,2.1l6.2-11.4l-3.5-2.1
			c-2.2-1.2-4.8-2.8-7-3.8l-4.4-2.2l-2.8,2.8l-10.1,4.8l5.4,11.6L173.1,402.1z"/>
		<path style="fill:#FFFFFF;" d="M195.9,412.6l3.5,1.2l4.4-12.2l-3.5-1.2c-2.8-1-5.3-2.2-8.5-3.5l-3.5-1.5L183,407l3.5,1.5
			C189.6,410.1,192.9,411.2,195.9,412.6z"/>
		<path style="fill:#FFFFFF;" d="M210.5,417.2l3.1,8.5l12.2-4.4l-5.3-15l-2.1-0.1l-12.6-3.8l-4.1,12.2l3.5,1.2
			C206.8,416.1,208.5,417,210.5,417.2z"/>
		<polygon style="fill:#FFFFFF;" points="220.1,445.8 214,428.3 226.3,423.9 232.5,441.4 		"/>
		<polygon style="fill:#FFFFFF;" points="243.5,451.3 236,451.3 233.2,443.9 221.3,447.7 226.6,464.1 243.5,464.1 		"/>
		<rect x="246.5" y="451.3" style="fill:#FFFFFF;" width="18.5" height="12.6"/>
		<polygon style="fill:#FFFFFF;" points="290.1,447.7 278.1,443.9 275.6,451.3 267.7,451.3 267.7,464.1 284.8,464.1 		"/>
		<polygon style="fill:#FFFFFF;" points="297.1,428.2 290.8,445.6 278.7,441.2 284.8,423.8 		"/>
		<path style="fill:#FFFFFF;" d="M300.8,417.2c1.8-0.1,3.2-1,5.1-1.5l3.5-1.2l-3.8-12.3l-3.8,1.2c-2.5,1-5.1,1.5-7.5,2.2l-3.2,0.9
			l-5.3,15l12.2,4.4L300.8,417.2z"/>
		<path style="fill:#FFFFFF;" d="M315.8,412.6c2.8-1,5.4-2.2,8.9-3.8l3.5-1.5l-5.1-12l-3.5,1.5c-3.1,1.2-5.4,2.5-8.5,3.5l-3.8,1.2
			l4.8,12L315.8,412.6z"/>
		<path style="fill:#FFFFFF;" d="M333.5,404.4c1.5-0.9,3.1-1.8,4.4-2.8l7.9,3.8l5.4-11.6l-10.1-4.8l-2.8-2.8l-2.5,1.2l-2.1,1.2
			c-2.2,1.2-4.4,2.8-6.9,3.8l-3.5,1.8l5.9,11.6L333.5,404.4z"/>
		<polygon style="fill:#FFFFFF;" points="365.4,414.4 348.9,406.6 354.4,395.2 370.8,403.1 		"/>
		<polygon style="fill:#FFFFFF;" points="394.8,411.2 385.7,402.1 380.5,407.6 373.3,404.4 368,416 383.2,423.3 		"/>
		<polygon style="fill:#FFFFFF;" points="396.7,409.1 387.8,400.1 401,387.1 409.8,395.9 		"/>
		<polygon style="fill:#FFFFFF;" points="423.9,382.3 416.8,367 404.8,372.7 408.5,379.9 403.1,385.3 411.7,394.3 		"/>
		<polygon style="fill:#FFFFFF;" points="403.8,369.8 395.9,353.4 407.3,347.9 415.1,364.4 		"/>
		<path style="fill:#FFFFFF;" d="M394.7,351.2l11.6-5.3l-3.8-8.1c0.1-0.1,0.1-1,0.9-1.2c0.4-1.2,1.2-2.2,1.8-3.1l2.1-3.5l-11.4-5.9
			l-2.1,3.5c-1.2,2.2-2.8,4.8-3.8,7l-2.2,4.4l2.8,2.8L394.7,351.2z"/>
		<path style="fill:#FFFFFF;" d="M401,310.5c-1,2.8-2.2,5.3-3.5,8.5l-1.5,3.5l11.6,5.1l1.5-3.5c1.5-3.2,2.8-6.3,3.8-9.1l1.2-3.5
			l-11.6-4.8L401,310.5z"/>
		<path style="fill:#FFFFFF;" d="M422.1,285.3l-15,5.3l-0.1,2.1l-3.8,12.6l12.2,3.8l1.2-3.5c0.4-1.8,1.2-3.5,1.5-5.1l8.5-3.1
			L422.1,285.3z"/>
		<polygon style="fill:#FFFFFF;" points="428.6,296.6 424.3,284.7 441.6,278.5 445.7,290.4 		"/>
		<path style="fill:#FFFFFF;" d="M473.5,193.9l-1-3.5l-12.8,3.5l1.2,3.5c1.2,4.1,2.1,7.3,2.8,10.4l0.9,3.5l13.1-2.8l-0.9-4.1
			C475.5,201.1,474.5,197.4,473.5,193.9z"/>
		<path style="fill:#FFFFFF;" d="M467,228.7l0.1,4.1l13.1-1.5l-0.1-3.5c-0.1-3.5-1-7.5-1.5-11.1l-0.4-4.1l-13.1,2.2l0.9,4.1
			C466.1,221.6,466.9,224.9,467,228.7z"/>
		<path style="fill:#FFFFFF;" d="M41.2,327.7l1.2,3.5l12.3-4.1l-1-3.5c-1-3.2-2.2-6.5-3.1-10.1l-1-3.8l-13.1,3.5l1,3.8
			C39,320.5,39.9,324.2,41.2,327.7z"/>
		<path style="fill:#FFFFFF;" d="M86.1,105.8c-2.1,2.2-4.1,4.4-5.4,6.5c-0.4,0.4-1,1.5-1.8,2.1l-2.2,3.1l10.4,8.5l2.2-3.1
			c2.2-3.1,4.4-5.4,6.5-7.9l2.8-3.1l-10-8.5L86.1,105.8z"/>
		<path style="fill:#FFFFFF;" d="M71.8,123.2c-2.2,3.5-4.4,6.5-6.3,9.4l-2.2,3.2l11.1,7.3l2.2-3.2c2.1-3.1,4.1-6.3,5.9-8.9l2.2-3.1
			l-10.6-7.5L71.8,123.2z"/>
		<path style="fill:#FFFFFF;" d="M49.2,162.2c-1.5,3.5-3.1,6.9-4.4,10.4l-1.5,3.5l12.3,5.1l1.5-3.5c1-2.8,2.2-6.3,4.1-9.5l2.1-3.5
			L51,159.4L49.2,162.2z"/>
		<path style="fill:#FFFFFF;" d="M59.8,142c-2.1,3.2-3.5,6.5-5.3,10l-2.1,3.5l12,6.2l1.8-3.5c2.1-3.5,3.5-6.5,5.1-9.1l2.1-3.5
			l-11.6-6.5L59.8,142z"/>
		<path style="fill:#FFFFFF;" d="M40.7,183.6c-1.5,4.1-2.2,7.3-3.5,11l-1,3.5l13.1,3.5l1-3.5c1-3.2,2.1-6.5,3.1-10.1l1.2-3.5
			l-12.3-4.1L40.7,183.6z"/>
		<path style="fill:#FFFFFF;" d="M31.2,226.9c-0.1,3.5-0.9,7-1,10.4l-0.1,4.8l13.2,1l0.1-5.3c0.1-3.1,0.4-6.2,1-9.1l0.1-4.1
			l-13.2-1.5L31.2,226.9z"/>
		<path style="fill:#FFFFFF;" d="M35,204.9c-1,4.1-1.8,7.5-2.2,11l-0.4,4.1l13.1,2.2l0.9-4.4c0.4-3.1,1-6.5,2.1-9.4l1-4.1l-13.2-3.1
			L35,204.9z"/>
		<path style="fill:#FFFFFF;" d="M157.2,51c-3.2,1.5-6.5,3.5-10,5.1l-3.5,2.1l6.5,11.6l3.5-2.1c3.1-1.8,6.2-3.5,9.4-4.8l3.5-1.8
			l-5.4-12L157.2,51z"/>
		<path style="fill:#FFFFFF;" d="M199.2,35.9c-3.5,1-7.3,2.1-10.6,3.1l-3.5,1l3.5,12.3l3.5-1c1-0.1,2.1-0.4,3.1-1
			c2.2-0.4,4.8-1.5,7.3-2.1l4.1-1l-3.5-13.1L199.2,35.9z"/>
		<path style="fill:#FFFFFF;" d="M244.2,28.7c-4.1,0.1-7.5,0.1-11.1,0.9l-4.1,0.1l1,13.2l4.1-0.1c3.5-0.1,7-0.4,10.6-0.9l4.1-0.1
			l-0.9-13.2L244.2,28.7z"/>
		<path style="fill:#FFFFFF;" d="M101.5,89c-2.8,2.2-5.3,5.1-8.4,8.1l-2.8,2.8l6.5,6.5l2.8,2.8l2.8-2.8c2.2-2.2,5.1-5.1,7.5-7.3
			l2.8-2.8l-9.1-9.5L101.5,89z"/>
		<path style="fill:#FFFFFF;" d="M177.7,42.5c-3.5,1.2-7,2.8-10.4,4.1l-3.5,1.5l5.3,12.2l3.5-1.5c2.8-1,6.3-2.8,10-3.5l3.5-1.2
			l-4.4-12.6L177.7,42.5z"/>
		<path style="fill:#FFFFFF;" d="M118.8,74.7c-2.2,2.1-5.4,4.4-8.5,7l-3.1,2.2l8.5,10.4l3.1-2.2c2.8-2.2,5.4-4.4,8.4-6.5l3.1-2.2
			l-8.1-11L118.8,74.7z"/>
		<path style="fill:#FFFFFF;" d="M137.1,62c-3.1,2.1-6.3,4.1-9.1,6.2l-3.2,2.2l7.3,11l3.2-2.2c1.2-0.9,2.2-1.5,3.5-2.2
			c1.8-1,3.5-2.2,5.3-3.5l3.1-2.1l-6.5-11.1L137.1,62z"/>
		<polygon style="fill:#FFFFFF;" points="29.3,265.2 42.8,264.6 42.8,246.4 29.3,246 		"/>
		<path style="fill:#FFFFFF;" d="M244.9,481.3h4.1l0.1-13.2h-4.1c-3.5,0-7.3-0.1-10.6-0.9l-4.1-0.1l-1,13.2l4.8,0.1
			C237.9,480.7,241.1,481,244.9,481.3z"/>
		<path style="fill:#FFFFFF;" d="M86.1,404.8l2.8,3.1l10-8.9l-2.2-2.8c-2.2-2.8-4.8-5.3-6.5-8.1L88,385l-10.4,8.5l2.2,3.1
			C81.4,399,83.9,402.1,86.1,404.8z"/>
		<path style="fill:#FFFFFF;" d="M67.3,380.8c1.5,2.2,3.1,4.4,4.4,6.5l2.2,3.1l10.6-7.5l-2.2-3.1c-0.4-1-1.5-2.1-2.1-3.1
			c-1.5-2.1-2.8-3.8-4.1-5.4l-2.2-3.2l-11.1,7.3l2.2,3.2C66.4,379,66.7,379.9,67.3,380.8z"/>
		<path style="fill:#FFFFFF;" d="M97.8,417.2c1.5,1.2,2.8,2.8,4.1,3.8l2.8,2.8l9.1-10l-3.1-2.8c-2.2-2.2-5.3-4.8-7.5-7.3l-2.8-2.8
			l-10,9.1l3.1,2.8C95.2,414.8,96.6,416,97.8,417.2z"/>
		<path style="fill:#FFFFFF;" d="M157.5,459.1l3.5,1.5l6.2-11.6l-3.5-1.8c-3.1-1.2-6.2-3.1-9.5-4.8l-3.5-2.1l-4.4,8.4l-1.8,3.5
			l3.5,2.1C151,455.6,154.3,457.6,157.5,459.1z"/>
		<path style="fill:#FFFFFF;" d="M119.4,435.5l3.1,2.2l7.9-10.6l-3.1-2.2c-2.8-2.2-5.4-4.4-8.4-6.5l-3.1-2.5l-8.4,10.1l3.1,2.5
			C113.5,431.1,116.3,433.4,119.4,435.5z"/>
		<path style="fill:#FFFFFF;" d="M178.5,468.1l3.5,1.2l4.4-12.3l-5.4-2.2c-2.2-1-5.3-2.1-7.5-3.1l-3.5-1.5l-5.3,12.2l3.5,1.5
			C171.4,465.1,175.1,466.5,178.5,468.1z"/>
		<path style="fill:#FFFFFF;" d="M137.8,448.3l3.2,2.1l6.9-11.1l-3.2-2.1c-3.2-2.1-6.3-4.1-8.9-5.9l-3.2-2.2l-7.5,11.1l3.5,2.2
			C131.5,444.3,134.8,446.5,137.8,448.3z"/>
		<path style="fill:#FFFFFF;" d="M278.2,480.2c4.4-0.1,8.1-1,11.6-1.5l3.5-0.9l-2.1-13.1l-3.8,0.4c-3.5,0.4-7,1.2-10.4,1.2l-3.8,0.1
			l1.2,13.2L278.2,480.2z"/>
		<path style="fill:#FFFFFF;" d="M49.7,348.5l1.8,3.5l12.2-5.3l-1.8-3.5c-1.5-2.8-2.8-5.9-4.1-10l-1.5-3.8L44,334.6l1.5,3.5
			C46.6,341.2,48.1,345.1,49.7,348.5z"/>
		<path style="fill:#FFFFFF;" d="M59.8,368.6l2.1,3.2l11.6-6.3l-3.1-5.4c-1.2-2.2-2.8-4.8-4.1-7.3l-1.8-3.5l-12,6.3l2.1,3.5
			C56,361.7,57.8,365.4,59.8,368.6z"/>
		<path style="fill:#FFFFFF;" d="M35,305.5l0.9,3.8l13.1-2.8l-1.2-5.3c-0.4-3.1-1.2-5.9-2.1-8.9l-0.4-3.8l-13.1,2.2l0.4,3.8
			C33.7,298.4,34.4,302,35,305.5z"/>
		<path style="fill:#FFFFFF;" d="M200.2,474.4l3.5,1l3.5-12.6l-3.5-1c-3.1-0.9-6.5-1.8-10.4-3.1l-3.5-1.2l-4.1,12.6l3.5,1.2
			C192.9,472.5,196.5,473.3,200.2,474.4z"/>
		<path style="fill:#FFFFFF;" d="M214.4,478c2.2,0.1,5.3,1,7.9,1.2l3.5,0.1l2.1-12.6l-4.4-0.9c-3.5-0.4-6.5-1.2-10-1.8l-3.5-0.4
			l-2.8,13.1l4.1,0.4C212.4,477.2,213.7,477.2,214.4,478z"/>
		<path style="fill:#FFFFFF;" d="M267.1,481l3.8-0.1l-0.9-13.2h-3.8c-3.5,0-7,0.1-10.6,0.1h-4.1V481h4.1
			C259.6,481.3,263.6,481.3,267.1,481z"/>
		<path style="fill:#FFFFFF;" d="M31.2,283.4l0.1,3.8l13.2-1.5l-0.1-3.8c-0.1-3.5-0.9-7.3-1-10.6l-0.1-3.8L30,268.7l0.1,4.8
			C30.6,276.6,30.6,280,31.2,283.4z"/>
		<path style="fill:#FFFFFF;" d="M457,151.5L455,148l-11.6,6.2l2.8,5.3c1.2,2.2,2.5,5.1,3.5,7.5l1.5,3.5l12.2-5.3l-1.5-3.5
			C460.3,158,458.6,154.5,457,151.5z"/>
		<path style="fill:#FFFFFF;" d="M466.4,172.4l-1.2-3.5l-12.3,5.1l1.5,3.5c1.2,3.1,2.5,6.3,3.5,10l1.2,3.5l12.3-4.1l-1.2-3.5
			C469.2,179.5,468,175.9,466.4,172.4z"/>
		<path style="fill:#FFFFFF;" d="M445.7,378c2.1-3.1,4.1-6.3,5.9-10l1.8-3.2l-11.4-6.3l-2.1,3.5c-1.2,2.5-3.1,5.1-4.8,7.5l-3.1,4.8
			l11.1,7.3L445.7,378z"/>
		<path style="fill:#FFFFFF;" d="M432.5,396.3c2.1-2.5,4.8-5.4,7-9.1l2.1-3.1l-10.6-7.6l-2.2,3.1c-2.2,2.8-4.1,5.4-6.3,8.4l-2.5,3.1
			l10.1,8.4L432.5,396.3z"/>
		<path style="fill:#FFFFFF;" d="M445.7,132.3l-2.2-3.5l-11.1,7.3l2.1,3.2c2.1,3.1,3.8,6.2,5.4,9.1l2.1,3.2l11.4-6.9l-2.1-3.2
			C449.7,138.6,447.9,135.7,445.7,132.3z"/>
		<path style="fill:#FFFFFF;" d="M457,358.5c1.5-3.1,3.1-6.3,5.1-10.1l1.5-3.5l-12.2-5.3l-1.5,3.5c-1.2,2.5-2.2,5.1-3.5,7.5
			l-2.8,5.3l11.6,6.3L457,358.5z"/>
		<path style="fill:#FFFFFF;" d="M417.9,412.8c2.5-2.8,5.1-5.3,7.5-8.4l2.8-3.1l-10.1-8.9l-2.5,3.1c-2.1,2.5-4.4,5.1-7,7.5l-2.8,2.8
			l10,9.1L417.9,412.8z"/>
		<path style="fill:#FFFFFF;" d="M401.4,428.5c1.2-1.2,2.8-2.5,4.1-3.5c1.2-1.2,2.8-2.5,4.1-3.8l3.1-2.8l-9.1-10.1l-2.8,2.8
			c-2.5,2.2-5.1,4.8-7.9,7l-3.1,2.5l8.5,10.1L401.4,428.5z"/>
		<path style="fill:#FFFFFF;" d="M467.2,335.3c1-2.8,2.1-5.3,3.1-8.1l1.5-3.8l-12.6-4.1l-1.2,3.5c-1.2,3.5-2.5,6.9-3.8,10.1
			l-1.2,3.5l12.3,5.1L467.2,335.3z"/>
		<path style="fill:#FFFFFF;" d="M482.3,249.2c0-3.5-0.1-7.3-0.4-11.1l-0.1-4.1l-13.2,1l0.9,18.5l9.5-0.1l3.8-0.1L482.3,249.2z"/>
		<path style="fill:#FFFFFF;" d="M266.5,42.4l3.8,0.1l0.9-13.2l-3.8-0.1c-3.8-0.1-7.5-0.1-11.1-0.1h-4.4v13.2h4.4
			C259,41.8,262.8,41.9,266.5,42.4z"/>
		<path style="fill:#FFFFFF;" d="M209.1,46.8l3.5-0.4c3.5-0.4,7.3-1.2,10.6-2.1l3.5-0.4l-2.1-13.1l-3.5,0.1c-3.5,0.1-7.3,1-11.1,2.1
			l-3.5,0.9L209.1,46.8z"/>
		<path style="fill:#FFFFFF;" d="M473.5,316.1c1-3.5,2.1-7.3,2.8-10.6l0.9-3.8l-13.1-3.1l-1,3.8c-0.4,3.1-1.5,6.3-2.8,10.1l-1.2,3.8
			l12.6,3.5L473.5,316.1z"/>
		<path style="fill:#FFFFFF;" d="M432.5,113.7l-2.5-3.1l-10.1,8.5l2.5,3.1c2.5,3.1,4.4,5.4,6.3,8.4l2.2,3.5l10.6-8.1l-2.2-3.1
			C437.4,119.8,435.3,116.8,432.5,113.7z"/>
		<path style="fill:#FFFFFF;" d="M478.6,294.2c0.4-3.2,1.2-7.3,1.8-11.1l0.1-3.8l-13.2-1.5l-0.4,5.1c-0.1,3.1-0.9,6.3-1.2,9.1
			l-0.4,3.8l13.1,2.2L478.6,294.2z"/>
		<path style="fill:#FFFFFF;" d="M481.2,271.9c0.1-3.8,0.1-7.5,0.1-11.4v-3.8l-13.2-0.1v4.1c0,3.5,0,7-0.1,10.4l-0.1,3.8l13.2,1.2
			L481.2,271.9z"/>
		<path style="fill:#FFFFFF;" d="M364,56.2l-3.5-1.8L354.2,66l3.5,2.1c3.1,1.8,6.3,3.5,9.1,5.3l3.2,2.1l6.5-11.1l-3.1-2.1
			C370.3,59.8,367.1,57.8,364,56.2z"/>
		<path style="fill:#FFFFFF;" d="M343.6,46.1l-3.5-1.5l-5.3,12.2l3.5,1.5c3.1,1.5,6.3,3.1,10,4.4l3.5,1.8l6.3-12.2l-6.3-2.8
			C349.2,48.7,346.6,47.4,343.6,46.1z"/>
		<path style="fill:#FFFFFF;" d="M278.1,29.6l-3.8-0.1l-1.2,13.2l18.5,2.2l1.5-13.2l-3.5-0.4C285.7,30.4,281.9,29.8,278.1,29.6z"/>
		<path style="fill:#FFFFFF;" d="M383.2,67.9l-3.2-2.2l-7.5,11l3.2,2.2c2.8,2.1,5.4,4.1,8.5,6.2l3.1,2.2l8.4-10.6l-3.2-2.2
			C389.6,72.6,386.8,70.4,383.2,67.9z"/>
		<path style="fill:#FFFFFF;" d="M300.7,33.4l-3.8-0.9l-2.8,13.2l3.8,0.9c3.5,0.4,7,1.5,10.1,2.2l3.8,1l3.5-13.1l-3.8-1
			C307.9,34.9,304.2,34.2,300.7,33.4z"/>
		<path style="fill:#FFFFFF;" d="M401,81.6l-3.1-2.2l-8.5,10.4l3.1,2.2c2.8,2.2,5.3,4.8,7.9,7l3.1,2.8l8.9-10l-2.8-2.8
			C406.7,86.7,403.8,84,401,81.6z"/>
		<path style="fill:#FFFFFF;" d="M322.1,38.7l-3.8-1l-3.8,12.6l3.5,1c3.2,1,6.5,2.2,10.1,3.5l3.8,1.5L336,44l-3.5-1.2
			C329.4,40.9,326,39.7,322.1,38.7z"/>
		<path style="fill:#FFFFFF;" d="M419.9,99.3c-0.4-0.4-1.2-1.2-2.1-2.1l-2.8-2.8l-9.5,9.1l2.8,2.8c2.2,2.2,5.1,5.3,7.3,7.9l2.8,3.1
			l10-8.5l-2.5-3.1C423.6,103.1,421.5,101.1,419.9,99.3z"/>
		<path style="fill:#FFFFFF;" d="M300.7,477c2.5-0.1,5.1-1,7.3-1.5c1.2-0.1,2.2-0.1,3.5-0.9l4.1-1l-3.5-13.1l-3.8,0.9
			c-1.8,0.1-3.5,0.9-5.1,1.2c-1.8,0.1-3.5,0.9-5.3,1.2l-3.8,0.9l2.8,12.6L300.7,477z"/>
		<path style="fill:#FFFFFF;" d="M343.6,463.8c3.5-1.2,6.9-3.1,10.1-4.8l3.5-1.8l-5.4-11.7l-3.5,1.2c-1.8,0.9-3.2,1.2-5.1,2.2
			c-1.5,0.9-3.2,1.2-4.8,2.2l-3.5,1.5l5.3,12.2L343.6,463.8z"/>
		<path style="fill:#FFFFFF;" d="M364.2,453.8c2.8-1.5,6.3-3.5,10-5.4l3.1-2.1l-6.5-11.4l-3.2,2.1c-3.1,2.1-6.3,3.8-9.1,5.3
			l-3.5,2.1l6.3,11.6L364.2,453.8z"/>
		<path style="fill:#FFFFFF;" d="M383.2,442.2c2.8-2.1,5.4-4.1,9.1-6.5l3.1-2.2l-7.9-10.4l-5.1,3.5c-2.2,1.5-4.4,3.2-6.9,4.8
			l-3.1,2.2l7.5,11L383.2,442.2z"/>
		<path style="fill:#FFFFFF;" d="M322.4,471.3c3.1-1,6.9-2.2,10.6-3.5l3.5-1.2l-4.4-12.3l-3.8,1.2c-3.1,1.2-6.5,2.2-10.1,3.5
			l-3.5,1.2l3.8,12.6L322.4,471.3z"/>
	</g>
	<g style="opacity:0.4;">
		<path style="fill:#FFFFFF;" d="M250.4,204c15.8,1,33.2-60.1,3.5-56.3S234.5,203.3,250.4,204z"/>
		<path style="fill:#FFFFFF;" d="M304.9,213.4c29.6,0,85.5-75,32.9-75S275.1,213.4,304.9,213.4z"/>
		<path style="fill:#FFFFFF;" d="M209.6,216.9c13.3-2.6,14.1-57.5-9.7-47.8C176,179.1,196.4,219.6,209.6,216.9z"/>
		<path style="fill:#FFFFFF;" d="M266.2,391.6c26.3,0,56.3-23.6,61.9-53.7c4.3-22.7-50.8-13.6-48.7,1.5c2.5,18-13.2,27-28.6,15.4
			c-48.7-37.1,80.8-55.7,72.3-106.5c-7-42.1-136.3-29-150.9,36.8C162,329.9,213.1,391.6,266.2,391.6z"/>
		<path style="fill:#FFFFFF;" d="M178,242c11.1-4.8,1.5-53.2-17.7-40C141.4,215.3,166.7,247.2,178,242z"/>
	</g>
	<g>
		<g>
			<path style="fill:#FFFFFF;" d="M250.6,209.2c-0.1,0-0.4,0-0.6,0l0.1-5.1l0.4-5.1l-0.4,5.1l0.4-5.1l0,0c1.5,0,4.8-2.5,8.4-9.4
				l9.1,4.7C263,203.9,257,209.2,250.6,209.2z M241.8,205.9c-4.7-3.7-8.5-10.6-10.6-18.9l10-2.5c1.5,6.2,4.3,11.1,7,13.3
				L241.8,205.9z M270.6,188.9l-9.5-3.7c2.1-5.4,3.5-11.4,3.8-16.7l10.1,0.6C274.6,175.3,272.9,182.3,270.6,188.9z M230.3,181
				c-0.1-2.2-0.4-4.7-0.4-6.9c0-5.1,0.9-9.7,2.2-14.1l9.5,3.5c-1,3.1-1.6,6.7-1.6,10.6c0,1.8,0.1,3.7,0.4,5.4L230.3,181z
				 M264.6,163.4c-0.4-4.1-1.6-9.1-5.7-10.4l2.8-9.7c7.5,2.2,12.2,9.1,12.8,19.4L264.6,163.4z M243.8,159.4l-8.5-5.4
				c4.1-6.3,10.4-10.1,18-11.1c0.4,0,1-0.1,1.5-0.1l0.9,10.1c-0.1,0-0.6,0-1,0C249.6,153.6,246.1,155.5,243.8,159.4z"/>
		</g>
		<g>
			<path style="fill:#FFFFFF;" d="M304.9,218.6l-0.1-10.1h0.1c4.1,0,9.4-2.1,15.3-5.7l5.4,8.5C318.1,216.1,310.9,218.6,304.9,218.6z
				 M297.1,217.1c-6.9-2.8-11.6-9.7-13.2-19.5l10-1.6c0.6,3.5,2.2,9.5,7,11.7L297.1,217.1z M330.7,207.6l-6.2-8.1
				c4.7-3.5,9.1-7.9,13.3-12.6l7.8,6.7C341,198.8,335.7,203.7,330.7,207.6z M283.4,191.1v-0.6c0-6.5,1.2-13.3,3.7-20.1l9.5,3.5
				c-2.1,5.4-3.1,11.1-3.1,16.7v0.6h-10.1V191.1z M349.5,188.9l-7.9-6.3c4.1-5.1,7.3-10.6,9.5-15.4l9.4,4.3
				C357.7,176.9,354.1,182.9,349.5,188.9z M298.6,168.7l-9.1-4.4c3.2-6.7,7.3-12.3,12.3-17l6.9,7.3
				C304.6,158.6,301.3,163.3,298.6,168.7z M362.7,165.3l-9.7-3.1c1-2.8,1.5-5.4,1.5-7.8c0-2.6-0.6-4.7-1.8-6.2l8.1-6.2
				c2.6,3.5,3.8,7.5,3.8,12.3C364.6,157.8,364,161.5,362.7,165.3z M312.8,151.2l-5.9-8.1c5.9-4.3,12.3-7,19.5-8.8l2.1,10
				C322.8,145.7,317.5,148,312.8,151.2z M349.8,145.8c-2.8-1.6-6.9-2.2-12-2.2l0,0c-1.5,0-2.6,0-4.1,0.1l-0.9-10.1
				c1.6-0.1,3.2-0.1,4.8-0.1l0,0c6.9,0,12.6,1.2,16.9,3.7L349.8,145.8z"/>
		</g>
		<g>
			<path style="fill:#FFFFFF;" d="M210.6,221.8l-1-4.8l-1-5.1h0.1c0.9-0.1,3.5-3.5,4.7-12l10.1,1.5
				C221.7,213,217.1,220.6,210.6,221.8z M201.7,220.3c-5.4-2.8-10.7-9.4-14.2-17.3l9.4-4.1c2.5,5.7,6.3,10.6,9.5,12.3L201.7,220.3z
				 M185.2,196.8c-1-3.5-1.5-6.9-1.5-10.1c0-4.7,1-8.9,3.1-12.6l8.9,5.1c-1.2,2.1-1.8,4.7-1.8,7.8c0,2.2,0.4,4.8,1,7.3L185.2,196.8z
				 M223.9,195.1l-10.1-0.4c0-0.6,0-1,0-1.6c0-5.9-1-11.4-2.6-15l9.1-4.3c2.5,5.1,3.7,12,3.7,19.4
				C223.9,193.8,223.9,194.4,223.9,195.1z M198.1,176l-6.5-7.8c1.8-1.5,3.8-2.8,6.3-3.7c6.9-2.8,13.3-1.6,18,3.1l-7.3,7
				c-1.8-1.8-4.1-2.1-7-0.9C200.5,174.4,199.2,175.3,198.1,176z"/>
		</g>
		<g>
			<path style="fill:#FFFFFF;" d="M266.2,396.8h-0.4v-10.1h0.4c5.7,0,11.7-1.2,17.9-3.7l3.8,9.4
				C280.4,395.3,273.2,396.8,266.2,396.8z M259.2,396.3c-6.9-0.6-14.1-2.2-21.1-4.8l3.5-9.5c6.3,2.2,12.3,3.7,18.5,4.3L259.2,396.3z
				 M293.9,389.4l-4.7-8.9c5.4-2.8,10.7-6.5,15.4-11l6.9,7.3C306.2,381.8,300.4,386.1,293.9,389.4z M232.2,389.1
				c-6.3-2.8-12.6-6.3-18.5-10.6l5.9-8.4c5.4,3.8,11.1,7,16.9,9.5L232.2,389.1z M208.4,374.8c-5.4-4.3-10.7-9.4-15.4-14.7l7.5-6.7
				c4.3,4.8,9.1,9.4,14.2,13.3L208.4,374.8z M316.2,372.1l-7.5-6.7c4.3-4.8,7.9-10.1,10.4-15.7l9.1,4.3
				C325.5,360.5,321.3,366.7,316.2,372.1z M266,365.2l-0.9-10.1c4.7-0.4,7.9-3.7,8.9-8.9l10,1.8C282.5,357.8,275.4,364.4,266,365.2z
				 M258.3,364.4c-3.7-1-7.3-2.8-10.6-5.4c-3.7-2.6-6.3-5.3-8.4-8.1l8.1-6.2c1.5,2.1,3.7,4.1,6.5,6.2c2.5,1.8,4.8,3.1,7,3.7
				L258.3,364.4z M188.9,355.3c-4.4-5.7-8.5-11.6-11.7-17.7l8.9-4.8c3.1,5.4,6.7,11,10.7,16.3L188.9,355.3z M330.9,347.8l-9.5-3.2
				c0.9-2.5,1.5-4.8,2.1-7.3c0-0.6,0.1-1,0.1-1.5c0-1.6-0.6-2.8-2.2-3.8l5.7-8.5c4.3,2.8,6.7,7.3,6.7,12.2c0,1-0.1,2.2-0.4,3.5
				C332.5,342.1,331.9,344.9,330.9,347.8z M235.5,343.8c-0.6-1.8-1-3.7-1-5.7c0-5.9,2.8-11.6,8.9-17.5l7,7.3
				c-4.1,3.8-5.9,7.3-5.9,10.4c0,0.9,0.1,1.6,0.4,2.5L235.5,343.8z M274.4,341.2c0-0.4,0-0.9-0.1-1.2c0-0.6,0-1,0-1.5
				c0-6.7,5.7-12.3,16.3-16.3l3.5,9.5c-6.5,2.2-9.5,5.3-9.5,6.7c0,0.6,0.1,1.2,0.1,1.8L274.4,341.2z M174.1,331.9
				c-3.2-6.9-5.4-13.6-6.9-20.4l10-2.1c1.2,5.9,3.2,12,6.2,18L174.1,331.9z M299.2,330.6l-2.2-10c7.9-1.8,16.3-1.8,22.6-0.4
				l-2.5,9.7C312.4,329,305.7,329.3,299.2,330.6z M254.9,324.3l-6.3-7.9c5.3-4.3,11.7-8.4,17.3-12l5.4,8.5
				C265.9,316.4,259.7,320.4,254.9,324.3z M276.5,309.8l-5.3-8.8l1.5-1c5.1-3.2,10.6-6.5,15.7-10l5.7,8.5
				c-5.3,3.5-10.7,6.9-15.8,10.1L276.5,309.8z M166.2,304.8c-0.4-2.6-0.4-5.3-0.4-7.9c0-4.4,0.4-8.8,1.5-12.8c0-0.4,0.1-0.9,0.1-1.2
				l10,2.5c0,0.4-0.1,0.6-0.1,1c-0.9,3.5-1.2,6.9-1.2,10.6c0,2.2,0.1,4.4,0.4,6.7L166.2,304.8z M299.2,295.3l-5.9-8.4
				c6.3-4.4,11.1-8.5,14.8-12.3l7.3,7C311.2,286,305.9,290.4,299.2,295.3z M178.9,279.9l-9.5-3.5c2.5-6.7,6.2-13.2,11-19.1l7.9,6.5
				C184.1,268.9,181,274.4,178.9,279.9z M319.7,276.5l-8.1-6.3c4.1-5.3,6.3-10.4,6.5-15.7l10.1,0.6
				C328.1,262.4,325.2,269.5,319.7,276.5z M192,259.8l-7.3-7c4.8-4.8,10.6-9.4,16.9-13.3l5.4,8.5C201.2,251.4,196.2,255.2,192,259.8
				z M318.1,249.7v-0.1c-0.9-4.8-3.8-8.9-9.1-12.2l5.4-8.5c7.8,4.8,12.3,11.4,13.8,19.1v0.4L318.1,249.7z M212.1,244.7l-4.8-8.9
				c5.9-3.2,12.6-6.2,19.5-8.5l3.5,9.5C223.7,239.1,217.5,241.9,212.1,244.7z M235.5,235l-2.8-9.7c6.7-2.1,13.6-3.7,20.5-4.7l1.6,10
				C248.2,231.8,241.7,233.1,235.5,235z M304.2,234.5c-5.1-2.2-11.1-3.8-18.3-4.7l1.2-10.1c8.1,1,15.3,2.8,21.1,5.3L304.2,234.5z
				 M260.6,229.9l-1-10.1c7.3-0.9,14.4-1,21.1-0.6l-0.6,10.1C274,229.1,267.2,229.3,260.6,229.9z"/>
		</g>
		<g>
			<path style="fill:#FFFFFF;" d="M180.1,246.7l-4.1-9.4l0,0c0.4-0.1,1.6-2.5,1.6-8.1c0-2.1-0.1-4.3-0.6-6.7l10-1.6
				c0.4,2.8,0.9,5.7,0.9,8.4C187.9,238.5,184.9,244.5,180.1,246.7z M169.8,246.6c-6.7-2.6-13.6-9.5-17.7-17.7l9.1-4.7
				c2.8,5.9,7.9,11.1,12.3,12.8L169.8,246.6z M149.3,221.8c-0.6-2.2-0.9-4.4-0.9-6.7c0-7,3.1-13.1,9.1-17c0.4-0.1,0.6-0.4,1-0.6
				l5.3,8.8c-0.1,0.1-0.4,0.1-0.6,0.4c-3.1,2.2-4.7,5.1-4.7,8.8c0,1.2,0.1,2.6,0.6,4.3L149.3,221.8z M175.8,217.1
				c-2.2-7-5.7-12-8.8-12.2l0.6-10.1c7.8,0.6,14.2,7.5,17.9,19.4L175.8,217.1z"/>
		</g>
	</g>
</g>
</svg>
