<?xml version="1.0" encoding="utf-8"?>
<!-- Generator: Adobe Illustrator 18.0.0, SVG Export Plug-In . SVG Version: 6.00 Build 0)  -->
<!DOCTYPE svg PUBLIC "-//W3C//DTD SVG 1.1//EN" "http://www.w3.org/Graphics/SVG/1.1/DTD/svg11.dtd">
<svg version="1.1" id="Layer_3" xmlns="http://www.w3.org/2000/svg" xmlns:xlink="http://www.w3.org/1999/xlink" x="0px" y="0px"
	 viewBox="0 0 512 512" style="enable-background:new 0 0 512 512;" xml:space="preserve">
<g>
	<path style="fill:#FFA515;" d="M234.071,68.201H44.869C34.415,68.201,26,76.87,26,87.07v294.002
		c0,10.455,8.67,19.124,18.869,19.124h132.594c48.703,0,75.732,43.603,75.732,43.603V87.325
		C253.195,76.615,244.78,68.201,234.071,68.201z"/>
	<path style="fill:#FFA515;" d="M277.674,68.201h189.202C477.33,68.201,486,76.87,486,87.07v294.002
		c0,10.455-8.67,19.124-19.124,19.124H334.282c-48.703,0-75.732,43.603-75.732,43.603V87.325
		C258.55,76.615,267.219,68.201,277.674,68.201z"/>
</g>
<g>
	<path style="fill:none;" d="M319.819,202.714c-16.396-16.396-38.24-25.437-61.43-25.437c-22.752,0-44.194,8.72-60.481,24.533
		l0.005,0.005c-0.068,0.057-0.129,0.116-0.194,0.174c-0.25,0.245-0.511,0.475-0.759,0.723c-0.001,0.001-0.001,0.001-0.002,0.002
		c-7.173,7.173-12.939,15.389-17.155,24.305c-1.807,3.821-3.33,7.77-4.556,11.821c-0.818,2.7-1.505,5.446-2.056,8.229
		c-1.104,5.565-1.669,11.279-1.669,17.076c0,15.944,4.273,31.25,12.272,44.588c1.454,2.425,3.032,4.785,4.729,7.072
		c0.849,1.143,1.727,2.269,2.635,3.374c1.816,2.212,3.751,4.346,5.801,6.396c3.074,3.074,6.34,5.89,9.77,8.436
		c6.861,5.092,14.379,9.105,22.339,11.951c2.653,0.948,5.356,1.767,8.099,2.453c6.859,1.714,13.974,2.597,21.221,2.597
		c23.191,0,45.034-9.04,61.43-25.437c0.281-0.337,0.618-0.618,0.898-0.955l0.005,0.005c15.813-16.287,24.533-37.729,24.533-60.481
		C345.256,240.953,336.216,219.11,319.819,202.714z M258.108,284.921c-11.474,0-20.776-9.302-20.776-20.776
		c0-2.32,0.397-4.544,1.099-6.628c-0.697-1.484-1.099-3.135-1.099-4.883c0-6.357,5.154-11.511,11.511-11.511
		c2.631,0,5.047,0.892,6.986,2.377c0.749-0.082,1.508-0.131,2.279-0.131c11.474,0,20.776,9.302,20.776,20.776
		C278.884,275.619,269.582,284.921,258.108,284.921z"/>
	<path style="fill:#FFFFFF;" d="M153.727,217.95c0.171-0.387,0.34-0.774,0.515-1.158
		C154.067,217.176,153.898,217.564,153.727,217.95z"/>
	<path style="fill:#FFFFFF;" d="M149.641,228.618c0.155-0.475,0.308-0.95,0.469-1.422
		C149.948,227.668,149.795,228.143,149.641,228.618z"/>
	<path style="fill:#FFFFFF;" d="M150.562,225.91c0.162-0.456,0.322-0.914,0.489-1.368
		C150.884,224.997,150.724,225.454,150.562,225.91z"/>
	<path style="fill:#FFFFFF;" d="M154.913,215.354c0.169-0.358,0.336-0.717,0.509-1.072
		C155.249,214.638,155.082,214.997,154.913,215.354z"/>
	<path style="fill:#FFFFFF;" d="M151.552,223.226c0.166-0.433,0.33-0.867,0.501-1.298
		C151.882,222.358,151.718,222.792,151.552,223.226z"/>
	<path style="fill:#FFFFFF;" d="M152.608,220.57c0.169-0.41,0.336-0.821,0.51-1.229C152.945,219.749,152.777,220.16,152.608,220.57z
		"/>
	<path style="fill:#FFFFFF;" d="M156.167,212.783c0.163-0.324,0.325-0.649,0.491-0.972
		C156.492,212.134,156.33,212.459,156.167,212.783z"/>
	<path style="fill:#FFFFFF;" d="M161.811,202.84c0.108-0.17,0.215-0.34,0.324-0.51C162.026,202.499,161.919,202.67,161.811,202.84z"
		/>
	<path style="fill:#FFFFFF;" d="M160.305,205.275c0.128-0.213,0.255-0.427,0.385-0.639
		C160.56,204.848,160.433,205.062,160.305,205.275z"/>
	<path style="fill:#FFFFFF;" d="M157.482,210.249c0.156-0.291,0.31-0.583,0.468-0.873
		C157.792,209.666,157.638,209.958,157.482,210.249z"/>
	<path style="fill:#FFFFFF;" d="M158.861,207.747c0.144-0.254,0.287-0.509,0.433-0.762
		C159.148,207.238,159.005,207.493,158.861,207.747z"/>
	<path style="fill:#FFFFFF;" d="M144.08,260.246c0.023-0.679,0.044-1.359,0.078-2.035
		C144.124,258.887,144.103,259.567,144.08,260.246z"/>
	<path style="fill:#FFFFFF;" d="M145.113,248.237c0.077-0.551,0.15-1.102,0.234-1.65
		C145.263,247.135,145.19,247.687,145.113,248.237z"/>
	<path style="fill:#FFFFFF;" d="M144.452,254.089c0.05-0.578,0.097-1.157,0.156-1.733
		C144.549,252.932,144.502,253.511,144.452,254.089z"/>
	<path style="fill:#FFFFFF;" d="M144.229,257.097c0.037-0.608,0.071-1.216,0.117-1.822
		C144.3,255.881,144.266,256.489,144.229,257.097z"/>
	<path style="fill:#FFFFFF;" d="M144.007,264.144c0-0.995,0.013-1.987,0.038-2.976C144.02,262.158,144.007,263.149,144.007,264.144z
		"/>
	<path style="fill:#FFFFFF;" d="M163.379,200.439c0.083-0.123,0.165-0.247,0.248-0.37
		C163.544,200.192,163.462,200.315,163.379,200.439z"/>
	<path style="fill:#FFFFFF;" d="M148.001,234.107c0.137-0.505,0.272-1.01,0.416-1.513
		C148.273,233.096,148.138,233.602,148.001,234.107z"/>
	<path style="fill:#FFFFFF;" d="M147.284,236.888c0.126-0.517,0.251-1.035,0.384-1.55
		C147.534,235.853,147.41,236.371,147.284,236.888z"/>
	<path style="fill:#FFFFFF;" d="M148.786,231.351c0.147-0.491,0.292-0.984,0.445-1.472
		C149.078,230.367,148.933,230.859,148.786,231.351z"/>
	<path style="fill:#FFFFFF;" d="M146.058,242.516c0.103-0.536,0.202-1.072,0.312-1.605
		C146.26,241.444,146.16,241.98,146.058,242.516z"/>
	<path style="fill:#FFFFFF;" d="M145.55,245.367c0.09-0.544,0.177-1.089,0.274-1.631C145.727,244.278,145.64,244.823,145.55,245.367
		z"/>
	<path style="fill:#FFFFFF;" d="M146.635,239.694c0.115-0.529,0.228-1.058,0.35-1.584
		C146.863,238.636,146.75,239.165,146.635,239.694z"/>
	<path style="fill:#FFFFFF;" d="M144.746,251.15c0.064-0.563,0.124-1.128,0.196-1.689C144.87,250.023,144.81,250.587,144.746,251.15
		z"/>
	<path style="fill:#FFFFFF;" d="M166.699,195.752c0.017-0.023,0.034-0.046,0.051-0.069
		C166.732,195.706,166.716,195.729,166.699,195.752z"/>
	<path style="fill:#FFFFFF;" d="M237.167,348.414c-2.744-0.686-5.446-1.505-8.099-2.453
		C231.721,346.91,234.424,347.729,237.167,348.414z"/>
	<path style="fill:#FFFFFF;" d="M229.068,345.961c-7.96-2.846-15.479-6.859-22.339-11.951
		C213.589,339.103,221.108,343.116,229.068,345.961z"/>
	<path style="fill:#FFFFFF;" d="M258.389,177.277c24.736,0,47.94,10.286,64.635,28.813c13.684,15.185,21.561,34.876,22.19,55.307
		c0.731,23.769-8.043,46.288-24.491,63.229l127.992,127.992l7.812-7.812c2.958-2.958,2.958-7.753,0-10.711l-77.243-77.243
		c-3.369-3.369-7.693-5.166-12.073-5.391l-17.913-17.913c15.402-20.164,24.28-45.558,23.413-73.091
		C370.8,199.691,320.9,150.669,260.11,149.775c-31.795-0.468-60.663,12.045-81.664,32.574l19.461,19.461
		C214.195,185.997,235.636,177.277,258.389,177.277z"/>
	<path style="fill:#FFFFFF;" d="M188.522,315.804c-1.697-2.287-3.275-4.647-4.729-7.072
		C185.247,311.157,186.825,313.517,188.522,315.804z"/>
	<path style="fill:#FFFFFF;" d="M165.009,198.076c0.053-0.074,0.105-0.149,0.158-0.223
		C165.114,197.927,165.062,198.001,165.009,198.076z"/>
	<path style="fill:#FFFFFF;" d="M196.96,202.712c0.248-0.248,0.508-0.478,0.759-0.723
		C197.466,202.214,197.228,202.444,196.96,202.712z"/>
	<path style="fill:#FFFFFF;" d="M191.158,319.179c1.816,2.212,3.751,4.346,5.801,6.396c3.074,3.074,6.34,5.89,9.77,8.436
		c-3.43-2.546-6.696-5.362-9.77-8.436C194.909,323.525,192.974,321.39,191.158,319.179z"/>
	<path style="opacity:0.64;fill:#FFFFFF;enable-background:new    ;" d="M255.829,243.499c-1.939-1.485-4.355-2.377-6.986-2.377
		c-6.357,0-11.511,5.154-11.511,11.511c0,1.748,0.401,3.399,1.099,4.883C240.966,249.988,247.682,244.389,255.829,243.499z"/>
	<path style="opacity:0.64;fill:#FFFFFF;enable-background:new    ;" d="M258.108,243.368c-0.771,0-1.53,0.049-2.279,0.131
		c2.747,2.104,4.525,5.407,4.525,9.134c0,6.357-5.154,11.511-11.511,11.511c-4.609,0-8.574-2.715-10.413-6.628
		c-0.702,2.084-1.099,4.307-1.099,6.628c0,11.474,9.302,20.776,20.776,20.776c11.474,0,20.776-9.302,20.776-20.776
		C278.884,252.67,269.582,243.368,258.108,243.368z"/>
	<path style="opacity:0.64;fill:#FFFFFF;enable-background:new    ;" d="M248.843,264.144c6.357,0,11.511-5.154,11.511-11.511
		c0-3.727-1.779-7.03-4.525-9.134c-8.146,0.89-14.863,6.49-17.398,14.018C240.269,261.429,244.234,264.144,248.843,264.144z"/>
	<path style="opacity:0.64;fill:#FFFFFF;enable-background:new    ;" d="M248.843,264.144c6.357,0,11.511-5.154,11.511-11.511
		c0-3.727-1.779-7.03-4.525-9.134c-8.146,0.89-14.863,6.49-17.398,14.018C240.269,261.429,244.234,264.144,248.843,264.144z"/>
	<path style="fill:#EDEFEF;" d="M146.985,238.11c0.095-0.409,0.199-0.815,0.298-1.222
		C147.184,237.295,147.081,237.701,146.985,238.11z"/>
	<path style="fill:#EDEFEF;" d="M145.348,246.587c0.063-0.408,0.135-0.813,0.202-1.22
		C145.483,245.774,145.411,246.179,145.348,246.587z"/>
	<path style="fill:#EDEFEF;" d="M146.37,240.911c0.084-0.407,0.177-0.811,0.265-1.217C146.547,240.1,146.454,240.504,146.37,240.911
		z"/>
	<path style="fill:#EDEFEF;" d="M319.819,325.575c0.31-0.31,0.599-0.635,0.904-0.949l-0.005-0.005
		C320.437,324.957,320.1,325.238,319.819,325.575z"/>
	<path style="fill:#EDEFEF;" d="M147.668,235.338c0.107-0.412,0.222-0.821,0.333-1.232
		C147.889,234.517,147.775,234.926,147.668,235.338z"/>
	<path style="fill:#EDEFEF;" d="M196.96,202.712c-0.001,0.001-0.001,0.001-0.002,0.002c-7.173,7.173-12.939,15.389-17.155,24.305
		c4.216-8.915,9.982-17.131,17.155-24.305C196.959,202.713,196.959,202.713,196.96,202.712z"/>
	<path style="fill:#EDEFEF;" d="M144.045,261.169c0.008-0.308,0.025-0.615,0.035-0.922
		C144.07,260.554,144.053,260.86,144.045,261.169z"/>
	<path style="fill:#EDEFEF;" d="M144.159,258.211c0.019-0.372,0.048-0.742,0.071-1.114
		C144.207,257.469,144.178,257.839,144.159,258.211z"/>
	<path style="fill:#EDEFEF;" d="M144.346,255.275c0.03-0.397,0.071-0.791,0.105-1.186
		C144.417,254.485,144.377,254.879,144.346,255.275z"/>
	<path style="fill:#EDEFEF;" d="M148.417,232.594c0.119-0.416,0.246-0.829,0.37-1.243
		C148.663,231.765,148.536,232.178,148.417,232.594z"/>
	<path style="fill:#EDEFEF;" d="M145.824,243.737c0.074-0.408,0.156-0.814,0.234-1.22
		C145.98,242.923,145.898,243.328,145.824,243.737z"/>
	<path style="fill:#EDEFEF;" d="M144.942,249.462c0.052-0.41,0.115-0.816,0.171-1.224
		C145.056,248.646,144.994,249.052,144.942,249.462z"/>
	<path style="fill:#EDEFEF;" d="M144.608,252.356c0.041-0.403,0.092-0.804,0.138-1.206
		C144.7,251.552,144.649,251.953,144.608,252.356z"/>
	<path style="fill:#EDEFEF;" d="M178.446,182.349l-0.018-0.018c-4.227,4.138-8.129,8.605-11.679,13.353
		C170.3,190.938,174.216,186.484,178.446,182.349z"/>
	<path style="fill:#EDEFEF;" d="M175.247,238.839c1.227-4.051,2.749-8,4.556-11.821
		C177.996,230.839,176.473,234.789,175.247,238.839z"/>
	<path style="fill:#EDEFEF;" d="M162.135,202.33c0.409-0.635,0.824-1.265,1.245-1.891
		C162.959,201.065,162.543,201.695,162.135,202.33z"/>
	<path style="fill:#EDEFEF;" d="M156.658,211.811c0.27-0.523,0.546-1.043,0.824-1.562
		C157.204,210.768,156.928,211.288,156.658,211.811z"/>
	<path style="fill:#EDEFEF;" d="M165.167,197.852c0.503-0.706,1.013-1.407,1.532-2.101
		C166.18,196.446,165.669,197.146,165.167,197.852z"/>
	<path style="fill:#EDEFEF;" d="M155.422,214.282c0.244-0.502,0.494-1.001,0.745-1.499
		C155.916,213.281,155.666,213.78,155.422,214.282z"/>
	<path style="fill:#EDEFEF;" d="M157.95,209.376c0.299-0.546,0.604-1.088,0.911-1.629
		C158.554,208.288,158.249,208.83,157.95,209.376z"/>
	<path style="fill:#EDEFEF;" d="M154.242,216.792c0.219-0.482,0.445-0.96,0.671-1.438
		C154.687,215.833,154.461,216.31,154.242,216.792z"/>
	<path style="fill:#EDEFEF;" d="M159.294,206.985c0.332-0.574,0.67-1.143,1.011-1.71
		C159.964,205.842,159.626,206.411,159.294,206.985z"/>
	<path style="fill:#EDEFEF;" d="M197.907,201.81c-0.062,0.06-0.126,0.119-0.188,0.179c0.065-0.057,0.125-0.117,0.194-0.174
		L197.907,201.81z"/>
	<path style="fill:#EDEFEF;" d="M152.054,221.927c0.181-0.455,0.368-0.906,0.555-1.357
		C152.422,221.022,152.234,221.473,152.054,221.927z"/>
	<path style="fill:#EDEFEF;" d="M163.628,200.068c0.454-0.669,0.914-1.333,1.381-1.993
		C164.542,198.735,164.081,199.399,163.628,200.068z"/>
	<path style="fill:#EDEFEF;" d="M153.118,219.341c0.199-0.466,0.404-0.928,0.609-1.391
		C153.522,218.413,153.317,218.875,153.118,219.341z"/>
	<path style="fill:#EDEFEF;" d="M149.231,229.878c0.132-0.422,0.272-0.841,0.409-1.261
		C149.503,229.038,149.364,229.456,149.231,229.878z"/>
	<path style="fill:#EDEFEF;" d="M150.109,227.196c0.147-0.43,0.301-0.857,0.453-1.285
		C150.41,226.339,150.256,226.765,150.109,227.196z"/>
	<path style="fill:#EDEFEF;" d="M160.69,204.636c0.368-0.603,0.743-1.201,1.121-1.796
		C161.432,203.435,161.057,204.033,160.69,204.636z"/>
	<path style="fill:#EDEFEF;" d="M151.052,224.543c0.163-0.441,0.333-0.879,0.501-1.317
		C151.384,223.664,151.214,224.102,151.052,224.543z"/>
	<path style="fill:#EDEFEF;" d="M173.19,247.068c0.552-2.783,1.238-5.528,2.056-8.229
		C174.429,241.54,173.742,244.285,173.19,247.068z"/>
	<path style="fill:#EDEFEF;" d="M320.723,324.626c-0.305,0.314-0.594,0.639-0.904,0.949c-16.396,16.396-38.24,25.437-61.43,25.437
		c-7.247,0-14.363-0.883-21.221-2.597c-2.744-0.686-5.446-1.505-8.099-2.453c-7.96-2.846-15.479-6.859-22.339-11.951
		c-3.43-2.546-6.696-5.362-9.77-8.436c-2.05-2.05-3.984-4.184-5.801-6.396c-0.908-1.106-1.787-2.231-2.635-3.374
		c-1.697-2.287-3.275-4.647-4.729-7.072c-7.999-13.338-12.272-28.644-12.272-44.588c0-5.798,0.565-11.511,1.669-17.076
		c0.552-2.783,1.238-5.528,2.056-8.229c1.227-4.051,2.749-8,4.556-11.821c4.216-8.915,9.982-17.131,17.155-24.305
		c0.001-0.001,0.001-0.001,0.002-0.002c0.268-0.268,0.505-0.498,0.759-0.723c0.062-0.061,0.126-0.119,0.188-0.179l-19.461-19.461
		c-4.23,4.135-8.146,8.589-11.697,13.334c-0.017,0.023-0.034,0.046-0.051,0.069c-0.518,0.694-1.029,1.395-1.532,2.101
		c-0.053,0.074-0.105,0.149-0.158,0.223c-0.467,0.659-0.928,1.323-1.381,1.993c-0.083,0.123-0.165,0.247-0.248,0.37
		c-0.421,0.626-0.836,1.256-1.245,1.891c-0.109,0.169-0.216,0.34-0.324,0.51c-0.379,0.595-0.753,1.194-1.121,1.796
		c-0.129,0.212-0.256,0.426-0.385,0.639c-0.341,0.567-0.679,1.136-1.011,1.71c-0.146,0.253-0.289,0.508-0.433,0.762
		c-0.307,0.541-0.612,1.083-0.911,1.629c-0.158,0.29-0.312,0.582-0.468,0.873c-0.278,0.519-0.554,1.038-0.824,1.562
		c-0.166,0.322-0.328,0.648-0.491,0.972c-0.251,0.498-0.501,0.997-0.745,1.499c-0.173,0.356-0.34,0.715-0.509,1.072
		c-0.226,0.478-0.452,0.956-0.671,1.438c-0.175,0.384-0.344,0.772-0.515,1.158c-0.205,0.463-0.41,0.925-0.609,1.391
		c-0.174,0.408-0.341,0.819-0.51,1.229c-0.186,0.452-0.374,0.903-0.555,1.357c-0.171,0.431-0.335,0.865-0.501,1.298
		c-0.168,0.438-0.338,0.876-0.501,1.317c-0.167,0.454-0.328,0.911-0.489,1.368c-0.152,0.428-0.306,0.855-0.453,1.285
		c-0.161,0.472-0.314,0.947-0.469,1.422c-0.137,0.42-0.277,0.839-0.409,1.261c-0.153,0.489-0.298,0.981-0.445,1.472
		c-0.124,0.414-0.251,0.827-0.37,1.243c-0.144,0.502-0.279,1.008-0.416,1.513c-0.111,0.41-0.226,0.82-0.333,1.232
		c-0.133,0.514-0.258,1.033-0.384,1.55c-0.1,0.407-0.203,0.813-0.298,1.222c-0.122,0.526-0.235,1.055-0.35,1.584
		c-0.088,0.406-0.181,0.81-0.265,1.217c-0.11,0.533-0.21,1.07-0.312,1.605c-0.078,0.407-0.16,0.812-0.234,1.22
		c-0.098,0.542-0.184,1.087-0.274,1.631c-0.067,0.407-0.139,0.812-0.202,1.22c-0.084,0.548-0.158,1.1-0.234,1.65
		c-0.057,0.408-0.119,0.815-0.171,1.224c-0.072,0.561-0.132,1.125-0.196,1.689c-0.045,0.402-0.096,0.802-0.138,1.206
		c-0.059,0.576-0.106,1.155-0.156,1.733c-0.034,0.396-0.075,0.79-0.105,1.186c-0.046,0.605-0.08,1.214-0.117,1.822
		c-0.023,0.372-0.052,0.741-0.071,1.114c-0.035,0.676-0.056,1.356-0.078,2.035c-0.01,0.308-0.027,0.614-0.035,0.922
		c-0.025,0.989-0.038,1.981-0.038,2.976c0,63.171,51.211,114.382,114.382,114.382c27.178,0,52.109-9.49,71.706-25.268l17.576,17.576
		c0.225,4.436,2.021,8.872,5.391,12.241l77.243,77.243c2.958,2.958,7.753,2.958,10.711,0l7.7-7.7L320.723,324.626z"/>
</g>
</svg>
