<?xml version="1.0" encoding="utf-8"?>
<!-- Generator: Adobe Illustrator 18.0.0, SVG Export Plug-In . SVG Version: 6.00 Build 0)  -->
<!DOCTYPE svg PUBLIC "-//W3C//DTD SVG 1.1//EN" "http://www.w3.org/Graphics/SVG/1.1/DTD/svg11.dtd">
<svg version="1.1" id="Layer_2" xmlns="http://www.w3.org/2000/svg" xmlns:xlink="http://www.w3.org/1999/xlink" x="0px" y="0px"
	 viewBox="0 0 512 512" style="enable-background:new 0 0 512 512;" xml:space="preserve">
<g>
	<path style="fill:none;" d="M66,106v300c0,22.1,17.9,40,40,40h300c22.1,0,40-17.9,40-40V66H106C83.9,66,66,83.9,66,106z"/>
	<path style="fill:#14CAFF;" d="M66,26c-22.1,0-40,17.9-40,40v380c0,22.1,17.9,40,40,40h380c22.1,0,40-17.9,40-40V66
		c0-22.1-17.9-40-40-40H66z M446,426c0,11-9,20-20,20H86c-11,0-20-9-20-20V86c0-11,9-20,20-20h340c11,0,20,9,20,20V426z"/>
</g>
<polygon style="fill:#14CAFF;" points="394.3,192.1 354.9,152.6 227,280.1 157.3,210.2 117.7,249.9 227,359.4 "/>
</svg>
