<?xml version="1.0" encoding="utf-8"?>
<!-- Generator: Adobe Illustrator 18.0.0, SVG Export Plug-In . SVG Version: 6.00 Build 0)  -->
<!DOCTYPE svg PUBLIC "-//W3C//DTD SVG 1.1//EN" "http://www.w3.org/Graphics/SVG/1.1/DTD/svg11.dtd">
<svg version="1.1" id="Layer_1" xmlns="http://www.w3.org/2000/svg" xmlns:xlink="http://www.w3.org/1999/xlink" x="0px" y="0px"
	 viewBox="0 0 512 512" style="enable-background:new 0 0 512 512;" xml:space="preserve">
<g>
	<radialGradient id="SVGID_1_" cx="258.3669" cy="180.8521" r="334.0367" gradientUnits="userSpaceOnUse">
		<stop  offset="0" style="stop-color:#FCE071"/>
		<stop  offset="0.6698" style="stop-color:#FFC619"/>
		<stop  offset="1" style="stop-color:#D37828"/>
	</radialGradient>
	<circle style="fill:url(#SVGID_1_);" cx="256" cy="256" r="230"/>
	<g>
		<path style="fill:#F99D1C;" d="M246.601,56.022c-0.853,0-1.701,0.02-2.545,0.059c-26.113,1.208-47.318,20.921-50.837,46.359
			c1.092,1.895,1.787,4.086,1.787,6.376c0,0.01-0.002,0.022-0.002,0.032c0,0.023,0.002,0.045,0.002,0.068c0,0.4,0,0.9-0.1,1.3
			c-0.1,0.7-0.2,1.4-0.4,2.1c6.199,22.997,27.097,39.996,52.094,39.996c27.797-0.1,50.695-21.098,53.594-48.195
			C297.296,77.119,274.398,56.022,246.601,56.022z"/>
		<path style="fill:#F99D1C;" d="M85.219,160.51c-17.081,0-31.067,12.873-32.89,29.447c1.823,16.574,15.809,29.447,32.89,29.447
			c17.081,0,31.067-12.873,32.89-29.447C116.286,173.383,102.299,160.51,85.219,160.51z"/>
		<path style="fill:#F99D1C;" d="M216.004,395.885c-20.698,0-37.796,15.698-39.996,35.896c2.2,20.198,19.198,35.896,39.996,35.896
			c20.698,0,37.796-15.698,39.996-35.896C253.8,411.583,236.702,395.885,216.004,395.885z"/>
		<path style="fill:#F99D1C;" d="M454.138,372.834c-25.751,5.99-45.471,27.747-48.355,54.547c-0.018-0.135-0.029-0.273-0.046-0.408
			c-0.016,0.137-0.039,0.271-0.054,0.408c0.111,0.974,0.244,1.941,0.397,2.902C425.056,413.928,441.322,394.522,454.138,372.834z"/>
		<path style="fill:#F99D1C;" d="M182.708,99.317c-6.299,0-11.499,4.799-12.099,10.899c0.7,6.099,5.799,10.899,12.099,10.899
			c5.599,0,10.199-3.7,11.699-8.799c-0.6-2.4-1.1-4.899-1.4-7.399C190.807,101.517,187.008,99.317,182.708,99.317z"/>
		<path style="fill:#F99D1C;" d="M331.392,203.006c-34.379,0-62.664,26.071-66.286,59.443c3.623,33.372,31.907,59.444,66.286,59.444
			c34.379,0,62.664-25.972,66.286-59.444C394.055,228.977,365.771,203.006,331.392,203.006z"/>
		<path style="fill:#F99D1C;" d="M108.916,343.29c-0.018-0.157-0.045-0.31-0.064-0.467c-0.015,0.12-0.02,0.248-0.036,0.367
			c-0.597-5.447-2.192-10.591-4.595-15.245c-7.314-14.039-21.933-23.651-38.801-23.651c-12.149,0-23.188,5.091-31.107,13.152
			c6.43,23.249,16.419,45.015,29.344,64.684c0.619,0.026,1.237,0.056,1.863,0.056C88.018,382.186,106.516,365.188,108.916,343.29z"
			/>
		<path style="fill:#F99D1C;" d="M443.284,137.301c-4.42,5.05-7.352,11.447-8.102,18.5c0,0.004-0.001,0.007-0.001,0.011c0,0,0,0,0,0
			c0,0,0,0,0,0c1.7,16.898,15.898,29.897,33.196,29.897c2.224,0,4.371-0.231,6.455-0.653c-6.143-18.96-14.668-36.847-25.245-53.294
			C447.257,133.34,445.138,135.201,443.284,137.301z"/>
		<path style="fill:#F99D1C;" d="M347.19,106.216c-2.575,0-5.037,0.487-7.298,1.375c-1.13,0.444-2.21,0.987-3.229,1.62
			c-1.018,0.633-1.975,1.354-2.86,2.154c-0.884,0.8-1.696,1.678-2.424,2.623c-0.728,0.945-1.372,1.958-1.921,3.026
			c-1.098,2.137-1.817,4.499-2.067,6.999c1.1,9.999,9.499,17.798,19.798,17.798c10.299,0,18.798-7.799,19.798-17.798
			C365.888,114.015,357.389,106.216,347.19,106.216z"/>
		<path style="fill:#F99D1C;" d="M192.007,238.202c4.782,0,8.768-3.674,9.291-8.349c-0.523-4.675-4.509-8.349-9.291-8.349
			c-4.799,0-8.799,3.6-9.199,8.399c-0.023-0.173-0.021-0.356-0.033-0.534c-0.022,0.145-0.051,0.287-0.067,0.434
			C183.208,234.502,187.208,238.202,192.007,238.202z"/>
		<path style="fill:#F99D1C;" d="M331.392,402.184c-4.799,0-8.799,3.7-9.299,8.399c0.5,4.699,4.5,8.399,9.299,8.399
			c4.799,0,8.799-3.7,9.299-8.399C340.191,405.784,336.191,402.184,331.392,402.184z"/>
		<path style="fill:#F99D1C;" d="M206.205,303.995c-1.1-9.999-9.599-17.898-19.998-17.898c-0.646,0-1.284,0.031-1.913,0.091
			c-2.478,0.235-4.829,0.926-6.971,1.984c-0.032,0.016-0.067,0.028-0.099,0.044c-0.398,0.199-0.78,0.424-1.163,0.649
			c-0.142,0.084-0.292,0.156-0.432,0.243c-0.252,0.156-0.488,0.333-0.733,0.5c-0.258,0.177-0.524,0.343-0.773,0.531
			c-0.106,0.08-0.203,0.171-0.308,0.253c-4.157,3.264-7.002,8.112-7.607,13.604c1.1,10.099,9.599,17.898,19.998,17.898
			C196.606,321.893,205.106,314.094,206.205,303.995z"/>
		<path style="fill:#F1B41C;" d="M192.717,101.931c0.081,0.155,0.208,0.31,0.31,0.466c3.73-25.417,24.93-45.109,51.029-46.316
			c0.843-0.039,1.692-0.059,2.545-0.059c27.797,0,50.695,20.998,53.594,48.095c0.2-1.9,0.3-3.9,0.3-5.799
			c0-29.797-24.197-53.994-53.994-53.994s-53.994,24.197-53.994,53.994c0,1.122,0.082,2.245,0.094,3.367
			c0.033,0.046,0.074,0.086,0.106,0.133C192.712,101.855,192.712,101.893,192.717,101.931z"/>
		<path style="fill:#F1B41C;" d="M85.219,153.311c-18.298,0-33.096,14.798-33.096,33.096c0,1.2,0.1,2.4,0.2,3.6
			c0.002-0.017,0.005-0.033,0.007-0.05c-0.002-0.017-0.005-0.033-0.007-0.05c1.8-16.598,15.798-29.497,32.896-29.497
			s31.097,12.899,32.896,29.497c-0.002,0.017-0.005,0.033-0.007,0.05c0.002,0.017,0.005,0.033,0.007,0.05c0.1-1.2,0.2-2.4,0.2-3.6
			C118.315,168.11,103.517,153.311,85.219,153.311z"/>
		<path style="fill:#F1B41C;" d="M216.004,387.186c-22.198,0-40.196,17.998-40.196,40.196c0,1.5,0.1,2.9,0.2,4.3
			c2.2-20.198,19.198-35.896,39.996-35.896c20.698,0,37.796,15.698,39.996,35.896c0.2-1.4,0.2-2.9,0.2-4.3
			C256.2,405.184,238.202,387.186,216.004,387.186z"/>
		<path style="fill:#F1B41C;" d="M405.384,420.582c0,2.159,0.095,4.315,0.354,6.391c3.044-26.652,22.741-48.242,48.416-54.164
			c2.872-4.861,5.569-9.836,8.085-14.918C430.325,360.977,405.384,387.858,405.384,420.582z"/>
		<path style="fill:#F1B41C;" d="M331.392,188.607c-36.796,0-66.693,29.897-66.693,66.693c0,2.4,0.1,4.799,0.4,7.199
			c0.002-0.017,0.005-0.033,0.007-0.05c-0.002-0.017-0.005-0.033-0.007-0.05c3.6-33.496,31.897-59.494,66.293-59.494
			s62.693,26.097,66.293,59.494c-0.002,0.017-0.005,0.033-0.007,0.05c0.002,0.017,0.005,0.033,0.007,0.05
			c0.3-2.4,0.4-4.799,0.4-7.199C398.085,218.404,368.188,188.607,331.392,188.607z"/>
		<path style="fill:#F1B41C;" d="M65.421,304.295c16.901,0,31.543,9.594,38.801,23.651c2.372,4.552,3.967,9.572,4.63,14.879
			c0.17-1.395,0.264-2.86,0.264-4.333c-0.1-24.097-19.598-43.595-43.695-43.595c-13.234,0-25.008,5.9-33.01,15.182
			c0.594,2.466,1.226,4.918,1.899,7.352C42.216,309.303,53.179,304.295,65.421,304.295z"/>
		<path style="fill:#F1B41C;" d="M434.981,152.211c0,1.2,0.1,2.4,0.2,3.599c0-0.003,0.001-0.007,0.001-0.01
			c0.707-7.046,3.643-13.45,8.102-18.5c1.849-2.112,3.96-3.986,6.279-5.575c-1.019-1.584-2.058-3.154-3.115-4.711
			C439.431,133.143,434.981,142.156,434.981,152.211z"/>
		<path style="fill:#F1B41C;" d="M329.459,117.015c0.549-1.069,1.193-2.081,1.921-3.026c0.728-0.945,1.539-1.823,2.424-2.623
			c0.884-0.8,1.841-1.522,2.86-2.154c1.018-0.633,2.098-1.176,3.229-1.62c2.261-0.887,4.723-1.375,7.298-1.375
			c10.299,0,18.798,7.799,19.798,17.798c0.1-0.7,0.1-1.4,0.1-2.2c0-10.999-8.899-19.898-19.898-19.898
			c-10.999,0-19.898,8.899-19.898,19.898c0,0.7,0,1.4,0.1,2.2C327.642,121.515,328.361,119.152,329.459,117.015z"/>
		<path style="fill:#F1B41C;" d="M192.007,221.504c4.782,0,8.768,3.674,9.291,8.349c0.002-0.017,0.006-0.033,0.008-0.05
			c-0.5-4.699-4.5-8.399-9.299-8.399c-4.65,0-8.539,3.476-9.232,7.966c0.012,0.178,0.01,0.361,0.033,0.534
			C183.208,225.103,187.208,221.504,192.007,221.504z"/>
		<path style="fill:#F1B41C;" d="M173.816,290.39c0.104-0.082,0.202-0.173,0.308-0.253c0.25-0.188,0.515-0.355,0.773-0.531
			c0.244-0.167,0.481-0.343,0.733-0.5c0.14-0.087,0.29-0.159,0.432-0.243c0.382-0.224,0.765-0.449,1.163-0.649
			c0.032-0.016,0.067-0.028,0.099-0.044c2.136-1.056,4.485-1.749,6.971-1.984c0.63-0.06,1.268-0.091,1.913-0.091
			c10.399,0,18.898,7.799,19.998,17.898c0.1-0.7,0.1-1.4,0.1-2.2c0-11.099-8.999-20.098-20.098-20.098
			c-11.099,0-20.098,8.999-20.098,20.098c0,0.7,0,1.5,0.1,2.2C166.812,298.466,169.671,293.638,173.816,290.39z"/>
	</g>
	<radialGradient id="SVGID_2_" cx="258.6122" cy="222.3037" r="212.116" gradientUnits="userSpaceOnUse">
		<stop  offset="0" style="stop-color:#F7CB4A;stop-opacity:0"/>
		<stop  offset="0.1874" style="stop-color:#F7CC4D;stop-opacity:0.0836"/>
		<stop  offset="0.3228" style="stop-color:#F7CF56;stop-opacity:0.1439"/>
		<stop  offset="0.4419" style="stop-color:#F7D266;stop-opacity:0.197"/>
		<stop  offset="0.5515" style="stop-color:#F8D97B;stop-opacity:0.2459"/>
		<stop  offset="0.6547" style="stop-color:#F9E198;stop-opacity:0.2919"/>
		<stop  offset="0.7531" style="stop-color:#FCEBBC;stop-opacity:0.3358"/>
		<stop  offset="0.8459" style="stop-color:#FEF6E6;stop-opacity:0.3772"/>
		<stop  offset="0.8971" style="stop-color:#FFFFFF;stop-opacity:0.4"/>
	</radialGradient>
	<path style="fill:url(#SVGID_2_);" d="M256,26C146.665,26,55.153,102.292,31.784,204.544
		c8.187,119.589,107.774,214.063,229.441,214.063c109.335,0,200.847-76.292,224.216-178.544C477.254,120.474,377.667,26,256,26z"/>
</g>
</svg>
