<?xml version="1.0" encoding="utf-8"?>
<!-- Generator: Adobe Illustrator 18.0.0, SVG Export Plug-In . SVG Version: 6.00 Build 0)  -->
<!DOCTYPE svg PUBLIC "-//W3C//DTD SVG 1.1//EN" "http://www.w3.org/Graphics/SVG/1.1/DTD/svg11.dtd">
<svg version="1.1" id="Layer_1" xmlns="http://www.w3.org/2000/svg" xmlns:xlink="http://www.w3.org/1999/xlink" x="0px" y="0px"
	 viewBox="0 0 512 512" style="enable-background:new 0 0 512 512;" xml:space="preserve">
<g>
	<polygon style="fill:#58629A;" points="77.111,77.04 26,25.929 26,434.96 77.111,486.071 77.111,434.96 	"/>
	<polygon style="fill:#3B97D3;" points="128.222,25.929 77.111,25.929 128.222,77.04 128.222,486.071 179.333,486.071 
		179.333,77.04 	"/>
	<polygon style="fill:#23B899;" points="179.333,25.929 128.222,25.929 179.333,77.04 179.333,486.071 230.444,486.071 
		230.444,77.04 	"/>
	<polygon style="fill:#69C186;" points="230.444,25.929 179.333,25.929 230.444,77.04 230.444,486.071 281.556,486.071 
		281.556,77.04 	"/>
	<polygon style="fill:#F0C519;" points="281.556,25.929 230.444,25.929 281.556,77.04 281.556,486.071 332.667,486.071 
		332.667,77.04 	"/>
	<polygon style="fill:#E74D3D;" points="332.667,25.929 281.556,25.929 332.667,77.04 332.667,486.071 383.778,486.071 
		383.778,77.04 	"/>
	<polygon style="fill:#DC71AC;" points="383.778,25.929 332.667,25.929 383.778,77.04 383.778,486.071 434.889,486.071 
		434.889,77.04 	"/>
	<polygon style="fill:#945AA4;" points="434.889,25.929 383.778,25.929 434.889,77.04 434.889,486.071 486,486.071 486,77.04 	"/>
	<polygon style="fill:#6063AC;" points="77.111,25.929 26,25.929 77.111,77.04 77.111,486.071 128.222,486.071 128.222,77.04 	"/>
</g>
<g style="display:none;">
	<path style="display:inline;fill:#58629A;" d="M46.822,47.751L25,25.929V434.96l51.111,51.111V434.96V118.461
		C76.111,91.94,65.575,66.504,46.822,47.751z"/>
	<path style="display:inline;fill:#3B97D3;" d="M127.222,25.929H76.111l21.822,21.822c18.754,18.754,29.289,44.189,29.289,70.711
		v367.61h51.111v-367.61c0-26.522-10.536-51.957-29.289-70.711L127.222,25.929z"/>
	<path style="display:inline;fill:#23B899;" d="M178.333,25.929h-51.111l21.822,21.822c18.754,18.754,29.289,44.189,29.289,70.711
		v367.61h51.111v-367.61c0-26.522-10.536-51.957-29.289-70.711L178.333,25.929z"/>
	<path style="display:inline;fill:#69C186;" d="M229.444,25.929h-51.111l21.822,21.822c18.754,18.754,29.289,44.189,29.289,70.711
		v367.61h51.111v-367.61c0-26.522-10.536-51.957-29.289-70.711L229.444,25.929z"/>
	<path style="display:inline;fill:#F0C519;" d="M280.556,25.929h-51.111l21.822,21.822c18.754,18.754,29.289,44.189,29.289,70.711
		v367.61h51.111v-367.61c0-26.522-10.536-51.957-29.289-70.711L280.556,25.929z"/>
	<path style="display:inline;fill:#E74D3D;" d="M331.667,25.929h-51.111l21.822,21.822c18.754,18.754,29.289,44.189,29.289,70.711
		v367.61h51.111v-367.61c0-26.522-10.536-51.957-29.289-70.711L331.667,25.929z"/>
	<path style="display:inline;fill:#DC71AC;" d="M382.778,25.929h-51.111l21.822,21.822c18.754,18.754,29.289,44.189,29.289,70.711
		v367.61h51.111v-367.61c0-26.522-10.536-51.957-29.289-70.711L382.778,25.929z"/>
	<path style="display:inline;fill:#945AA4;" d="M433.889,25.929h-51.111L404.6,47.751c18.754,18.754,29.289,44.189,29.289,70.711
		v367.61H485v-367.61c0-26.522-10.536-51.957-29.289-70.711L433.889,25.929z"/>
	<path style="display:inline;fill:#6063AC;" d="M76.111,25.929H25l21.822,21.822c18.754,18.754,29.289,44.189,29.289,70.711v367.61
		h51.111v-367.61c0-26.522-10.536-51.957-29.289-70.711L76.111,25.929z"/>
</g>
<g>
	<path style="fill:#E2E2E2;" d="M196.742,340.258c0.716,0.716,1.77,1.094,2.988,0.961l27.409-5.773
		c2.405-0.473,5.792-2.278,7.527-4.011l65.948-65.948c0.168-0.168,0.342-0.362,0.516-0.557l8.396,8.396
		c3.226,3.226,8.455,3.226,11.683,0l23.073-23.073c3.226-3.226,3.226-8.455,0-11.683l-8.35-8.35l24.279-24.279l-0.002-0.003
		c3.73-3.729,6.038-8.883,6.038-14.574c0-5.691-2.307-10.844-6.037-14.574L281,255.999L196.742,340.258z"/>
	<path style="fill:#FFFFFF;" d="M331.009,176.845l-24.226,24.226l-8.353-8.353c-3.226-3.226-8.455-3.226-11.683,0l-23.073,23.073
		c-3.226,3.226-3.226,8.455,0,11.683l8.396,8.396c-0.196,0.174-0.388,0.348-0.557,0.516l-65.949,65.948
		c-1.734,1.734-3.539,5.121-4.011,7.527l-5.773,27.409c-0.133,1.219,0.245,2.272,0.961,2.988L281,255.999l79.209-79.209
		c-3.73-3.73-8.882-6.037-14.574-6.037C339.917,170.754,334.743,173.084,331.009,176.845z"/>
</g>
</svg>
