<?xml version="1.0" encoding="utf-8"?>
<!-- Generator: Adobe Illustrator 18.0.0, SVG Export Plug-In . SVG Version: 6.00 Build 0)  -->
<!DOCTYPE svg PUBLIC "-//W3C//DTD SVG 1.1//EN" "http://www.w3.org/Graphics/SVG/1.1/DTD/svg11.dtd">
<svg version="1.1" id="Layer_3" xmlns="http://www.w3.org/2000/svg" xmlns:xlink="http://www.w3.org/1999/xlink" x="0px" y="0px"
	 viewBox="0 0 512 512" enable-background="new 0 0 512 512" xml:space="preserve">
<radialGradient id="SVGID_1_" cx="260.6667" cy="484.6667" r="439.3338" gradientUnits="userSpaceOnUse">
	<stop  offset="1.933882e-02" style="stop-color:#FAAD1C"/>
	<stop  offset="0.3892" style="stop-color:#F26731"/>
	<stop  offset="0.7239" style="stop-color:#E71670"/>
	<stop  offset="1" style="stop-color:#652F8C"/>
</radialGradient>
<path fill="url(#SVGID_1_)" d="M446,486H66c-22.1,0-40-17.9-40-40V66c0-22.1,17.9-40,40-40h380c22.1,0,40,17.9,40,40v380
	C486,468.1,468.1,486,446,486z"/>
<g>
	<g>
		<path opacity="0.9" fill="#FFFFFF" d="M271.4,309.2H85.3c-5,0-9-4-9-9V122.5c0-5,4-9,9-9h186.1c5,0,9,4,9,9v177.7
			C280.4,305.2,276.4,309.2,271.4,309.2z"/>
		<path fill="#FFFFFF" d="M271.2,113.5H85.5c-5.1,0-9.2,4.1-9.2,9.2v5.5h204.1v-5.5C280.4,117.6,276.3,113.5,271.2,113.5z"/>
	</g>
	<g>
		<g>
			<path opacity="0.7" fill="#FFFFFF" d="M426.7,398.5H303.2c-5,0-9-4-9-9V271.8c0-5,4-9,9-9h123.5c5,0,9,4,9,9v117.7
				C435.7,394.5,431.7,398.5,426.7,398.5z"/>
			<path fill="#FFFFFF" d="M429.3,262.8H300.6c-3.5,0-6.4,2.9-6.4,6.4v3.8h141.5v-3.8C435.7,265.7,432.9,262.8,429.3,262.8z"/>
		</g>
		<g>
			<path opacity="0.7" fill="#FFFFFF" d="M426.7,249.2H303.2c-5,0-9-4-9-9V122.5c0-5,4-9,9-9h123.5c5,0,9,4,9,9v117.7
				C435.7,245.2,431.7,249.2,426.7,249.2z"/>
			<path fill="#FFFFFF" d="M429.3,113.5H300.6c-3.5,0-6.4,2.9-6.4,6.4v3.8h141.5v-3.8C435.7,116.4,432.9,113.5,429.3,113.5z"/>
		</g>
	</g>
</g>
</svg>
