<?xml version="1.0" encoding="utf-8"?>
<!-- Generator: Adobe Illustrator 18.0.0, SVG Export Plug-In . SVG Version: 6.00 Build 0)  -->
<!DOCTYPE svg PUBLIC "-//W3C//DTD SVG 1.1//EN" "http://www.w3.org/Graphics/SVG/1.1/DTD/svg11.dtd">
<svg version="1.1" id="Layer_3" xmlns="http://www.w3.org/2000/svg" xmlns:xlink="http://www.w3.org/1999/xlink" x="0px" y="0px"
	 viewBox="0 0 512 512" style="enable-background:new 0 0 512 512;" xml:space="preserve">
<g>
	<g>
		<g>
			<g style="enable-background:new    ;">
				<path style="opacity:0.5;fill:#E2E1E0;enable-background:new    ;" d="M256,143.695c-44.123,0-80.021,35.897-80.021,80.021
					s35.897,80.021,80.021,80.021s80.021-35.897,80.021-80.021S300.123,143.695,256,143.695z M256,264.757
					c-22.631,0-41.042-18.411-41.042-41.042s18.411-41.042,41.042-41.042s41.042,18.411,41.042,41.042
					C297.042,246.346,278.631,264.757,256,264.757z"/>
				<path style="fill:#FFFFFF;" d="M256,182.673c-22.631,0-41.042,18.411-41.042,41.042s18.411,41.042,41.042,41.042
					s41.042-18.411,41.042-41.042S278.631,182.673,256,182.673z M256,260.436c-20.249,0-36.722-16.473-36.722-36.722
					s16.473-36.722,36.722-36.722s36.722,16.473,36.722,36.722S276.249,260.436,256,260.436z"/>
			</g>
		</g>
		<g>
			<g style="enable-background:new    ;">
				<g>
					<path style="fill:#FFFFFF;" d="M255.999,140.238c-46.104,0-83.476,37.373-83.476,83.476s37.373,83.477,83.476,83.477
						s83.476-37.373,83.476-83.477S302.102,140.238,255.999,140.238z M255.999,302.008c-43.171,0-78.292-35.122-78.292-78.292
						s35.122-78.292,78.292-78.292s78.292,35.122,78.292,78.292C334.292,266.886,299.17,302.008,255.999,302.008z"/>
					<path style="opacity:0.5;fill:#FFFFFF;enable-background:new    ;" d="M395.806,83.909C358.462,46.565,308.811,26,255.999,26
						c-52.811,0-102.461,20.565-139.807,57.909c-37.342,37.343-57.909,86.994-57.909,139.807s20.565,102.463,57.91,139.807
						c37.343,37.344,86.993,57.91,139.807,57.91s102.463-20.565,139.807-57.91c37.344-37.343,57.91-86.993,57.91-139.807
						C453.714,170.902,433.148,121.252,395.806,83.909z M392.141,359.855C355.777,396.22,307.428,416.247,256,416.247
						s-99.777-20.027-136.141-56.392s-56.392-84.714-56.392-136.14c0-51.427,20.027-99.777,56.391-136.141
						c36.365-36.364,84.713-56.391,136.141-56.391s99.777,20.027,136.141,56.391s56.391,84.713,56.393,136.141
						C448.532,275.142,428.505,323.49,392.141,359.855z"/>
				</g>
				<path style="fill:#499CD6;" d="M392.14,87.575c-36.364-36.364-84.713-56.391-136.141-56.391s-99.776,20.027-136.141,56.391
					c-36.363,36.364-56.391,84.713-56.391,136.141s20.027,99.777,56.392,136.141c36.364,36.365,84.713,56.392,136.141,56.392
					s99.777-20.027,136.141-56.392c36.365-36.364,56.392-84.713,56.392-136.141C448.53,172.288,428.504,123.939,392.14,87.575z
					 M255.999,307.192c-46.104,0-83.476-37.373-83.476-83.477s37.373-83.476,83.476-83.476s83.476,37.373,83.476,83.476
					S302.102,307.192,255.999,307.192z"/>
			</g>
		</g>
	</g>
	<g>
		<g>
			<path style="fill:#499CD6;" d="M246.452,466.387v19.612h-9.338v-50.193h15.308c3.424,0,6.358,0.353,8.799,1.059
				c2.441,0.705,4.443,1.696,6.005,2.968c1.563,1.273,2.707,2.794,3.437,4.565c0.728,1.771,1.093,3.72,1.093,5.849
				c0,1.689-0.249,3.287-0.747,4.791c-0.498,1.505-1.214,2.87-2.152,4.096c-0.937,1.227-2.094,2.303-3.471,3.228
				c-1.377,0.926-2.945,1.666-4.703,2.221c1.18,0.672,2.198,1.631,3.054,2.882L276.302,486h-8.399c-0.81,0-1.499-0.162-2.066-0.486
				c-0.568-0.323-1.047-0.786-1.44-1.388l-10.553-16.072c-0.393-0.602-0.828-1.029-1.302-1.284c-0.475-0.253-1.175-0.382-2.1-0.382
				h-3.99V466.387z M246.452,459.688h5.831c1.758,0,3.291-0.221,4.598-0.661c1.307-0.44,2.384-1.049,3.229-1.826
				c0.844-0.776,1.475-1.699,1.891-2.765c0.416-1.066,0.625-2.239,0.625-3.514c0-2.551-0.84-4.51-2.517-5.878
				c-1.678-1.368-4.241-2.053-7.689-2.053h-5.97v16.697H246.452z"/>
			<path style="fill:#499CD6;" d="M292.792,485.999h-9.371v-50.193h9.371V485.999z"/>
			<path style="fill:#499CD6;" d="M313.722,468.332V486h-9.338v-50.193h16.349c3.356,0,6.259,0.393,8.713,1.18
				c2.453,0.787,4.478,1.887,6.074,3.298c1.596,1.412,2.777,3.101,3.54,5.069c0.763,1.967,1.146,4.118,1.146,6.456
				c0,2.43-0.405,4.657-1.214,6.682c-0.81,2.025-2.025,3.766-3.645,5.224c-1.621,1.458-3.645,2.591-6.074,3.402
				c-2.431,0.809-5.277,1.214-8.539,1.214L313.722,468.332L313.722,468.332z M313.722,461.041h7.012
				c1.712,0,3.206-0.214,4.478-0.643c1.273-0.429,2.326-1.043,3.16-1.843c0.833-0.798,1.458-1.773,1.874-2.921
				c0.417-1.148,0.625-2.429,0.625-3.844c0-1.344-0.207-2.562-0.625-3.652c-0.416-1.09-1.041-2.018-1.874-2.782
				c-0.834-0.764-1.887-1.351-3.16-1.756c-1.272-0.406-2.765-0.609-4.478-0.609h-7.012V461.041z"/>
		</g>
		<g>
			<g>
				<rect x="171.794" y="435.807" style="fill:#499CD6;" width="20.976" height="20.976"/>
				<rect x="201.386" y="435.807" style="fill:#499CD6;" width="20.976" height="20.976"/>
			</g>
			<g>
				<rect x="171.794" y="465.023" style="fill:#499CD6;" width="20.976" height="20.976"/>
				<rect x="201.386" y="465.023" style="fill:#499CD6;" width="20.976" height="20.976"/>
			</g>
		</g>
	</g>
</g>
</svg>
