<?xml version="1.0" encoding="utf-8"?>
<!-- Generator: Adobe Illustrator 18.0.0, SVG Export Plug-In . SVG Version: 6.00 Build 0)  -->
<!DOCTYPE svg PUBLIC "-//W3C//DTD SVG 1.1//EN" "http://www.w3.org/Graphics/SVG/1.1/DTD/svg11.dtd">
<svg version="1.1" id="Layer_1" xmlns="http://www.w3.org/2000/svg" xmlns:xlink="http://www.w3.org/1999/xlink" x="0px" y="0px"
	 viewBox="0 0 512 512" style="enable-background:new 0 0 512 512;" xml:space="preserve">
<circle style="fill:#1E1E1E;" cx="256" cy="256" r="230"/>
<path style="fill:#FFFFFF;" d="M418.668,260.07l22.346-9.915l-24.152-3.784l12.25-21.156l-21.764,11.136l-2.524-24.316l-2.057,4.053
	c-17.354-61.042-73.518-105.747-140.122-105.746c-80.445,0-145.659,65.214-145.659,145.659S182.2,401.659,262.645,401.659
	c70.622,0,129.499-50.263,142.827-116.964l10.47,11.659l-3.865-24.14l23.907,5.114L418.668,260.07z M256.757,391.144
	c-74.638,0-135.144-60.507-135.144-135.144s60.507-135.144,135.144-135.144c65.281-0.001,119.75,46.287,132.382,107.833
	l-11.712-13.042l3.865,24.14l-23.906-5.114l17.315,17.258l-22.346,9.915l24.153,3.784l-12.251,21.156l21.764-11.136l1.51,14.551
	C372.385,348.277,319.578,391.144,256.757,391.144z"/>
</svg>
