<?xml version="1.0" encoding="utf-8"?>
<!-- Generator: Adobe Illustrator 18.0.0, SVG Export Plug-In . SVG Version: 6.00 Build 0)  -->
<!DOCTYPE svg PUBLIC "-//W3C//DTD SVG 1.1//EN" "http://www.w3.org/Graphics/SVG/1.1/DTD/svg11.dtd">
<svg version="1.1" id="Layer_1" xmlns="http://www.w3.org/2000/svg" xmlns:xlink="http://www.w3.org/1999/xlink" x="0px" y="0px"
	 viewBox="0 0 512 512" style="enable-background:new 0 0 512 512;" xml:space="preserve">
<path style="fill:#E2E2E2;" d="M370.1,485.9L70.3,433c-2.8-0.5-4.5-3-4.1-5.8l70-397.1c0.5-2.8,3-4.5,5.8-4.1l299.7,53
	c2.8,0.5,4.5,3,4.1,5.8l-70,397C375.4,484.5,372.7,486.4,370.1,485.9z"/>
<path style="fill:#DB0505;" d="M408.2,462.6H103.8c-2.8,0-5-2.2-5-5V54.4c0-2.8,2.2-5,5-5h304.3c2.8,0,5,2.2,5,5v403.1
	C413.2,460.3,410.9,462.6,408.2,462.6z"/>
<linearGradient id="SVGID_1_" gradientUnits="userSpaceOnUse" x1="66.1167" y1="256" x2="445.88" y2="256" gradientTransform="matrix(1 0 0 -1 0 512)">
	<stop  offset="0" style="stop-color:#F7F7F7"/>
	<stop  offset="1" style="stop-color:#F7F7F7"/>
</linearGradient>
<path style="fill:url(#SVGID_1_);" d="M441.7,433L142,485.8c-2.7,0.5-5.3-1.3-5.8-4.1l-70-397c-0.5-2.7,1.3-5.3,4.1-5.8L370,26.2
	c2.7-0.5,5.3,1.3,5.8,4.1l70,397C446.3,429.9,444.4,432.5,441.7,433z"/>
<path style="fill:#DB0505;" d="M261.1,292.4c-13.1,1.6-35.8,0.3-50.9-8.2c47.5-38.5,105-91.7,66.8-95.7
	c-58.6-6.1-130.8,60.3-100.6,89.7c5.2,5.1,11.3,9.3,18,12.9c-15.3,14.5-28.9,26.9-35.9,33c0,0,17.9-12.9,40.4-30.8
	c33.3,15.2,83.6,13.3,154.6-6.8v-27.6C353.5,258.8,302.8,285.9,261.1,292.4z M201.6,237.2c14.5-27.1,47-36.1,60.9-35
	c17.4,1.4-21.4,43.4-57.5,78.5C194.5,272.2,190.2,258.5,201.6,237.2z"/>
</svg>
