<?xml version="1.0" encoding="utf-8"?>
<!-- Generator: Adobe Illustrator 18.0.0, SVG Export Plug-In . SVG Version: 6.00 Build 0)  -->
<!DOCTYPE svg PUBLIC "-//W3C//DTD SVG 1.1//EN" "http://www.w3.org/Graphics/SVG/1.1/DTD/svg11.dtd">
<svg version="1.1" id="Layer_1" xmlns="http://www.w3.org/2000/svg" xmlns:xlink="http://www.w3.org/1999/xlink" x="0px" y="0px"
	 viewBox="0 0 512 512" style="enable-background:new 0 0 512 512;" xml:space="preserve">
<g>
	<path style="opacity:0.4;" d="M426.2,60.9c0-5.5,4.4-9.9,9.8-10V38c-5.4-0.1-9.8-4.5-9.8-10h-12.8c0,5.5-4.5,10-10,10
		s-10-4.5-10-10h-12.8c0,5.5-4.5,10-10,10s-10-4.5-10-10h-12.8c0,5.5-4.5,10-10,10s-10-4.5-10-10H315c0,5.5-4.5,10-10,10
		s-10-4.5-10-10h-12.8c0,5.5-4.5,10-10,10s-10-4.5-10-10h-12.8c0,5.5-4.5,10-10,10s-10-4.5-10-10h-12.8c0,5.5-4.5,10-10,10
		s-10-4.5-10-10h-12.8c0,5.5-4.5,10-10,10s-10-4.5-10-10H151c0,5.5-4.5,10-10,10s-10-4.5-10-10h-12.8c0,5.5-4.5,10-10,10
		s-10-4.5-10-10H85.8c0,5.5-4.4,9.9-9.8,10v12.9c5.4,0.1,9.8,4.5,9.8,10s-4.4,9.9-9.8,10v12.9c5.4,0.1,9.8,4.5,9.8,10
		s-4.4,9.9-9.8,10v12.9c5.4,0.1,9.8,4.5,9.8,10c0,5.5-4.4,9.9-9.8,10v12.9c5.4,0.1,9.8,4.5,9.8,10s-4.4,9.9-9.8,10v12.9
		c5.4,0.1,9.8,4.5,9.8,10s-4.4,9.9-9.8,10v12.9c5.4,0.1,9.8,4.5,9.8,10s-4.4,9.9-9.8,10V248c5.4,0.1,9.8,4.5,9.8,10s-4.4,9.9-9.8,10
		v12.9c5.4,0.1,9.8,4.5,9.8,10s-4.4,9.9-9.8,10v12.9c5.4,0.1,9.8,4.5,9.8,10s-4.4,9.9-9.8,10v12.9c5.4,0.1,9.8,4.5,9.8,10
		s-4.4,9.9-9.8,10v12.9c5.4,0.1,9.8,4.5,9.8,10s-4.4,9.9-9.8,10v12.9c5.4,0.1,9.8,4.5,9.8,10s-4.4,9.9-9.8,10v12.9
		c5.4,0.1,9.8,4.5,9.8,10s-4.4,9.9-9.8,10V478c5.4,0.1,9.8,4.5,9.8,10h12.8c0-5.5,4.5-10,10-10s10,4.5,10,10h12.8
		c0-5.5,4.5-10,10-10s10,4.5,10,10h12.8c0-5.5,4.5-10,10-10s10,4.5,10,10H197c0-5.5,4.5-10,10-10s10,4.5,10,10h12.8
		c0-5.5,4.5-10,10-10s10,4.5,10,10h12.8c0-5.5,4.5-10,10-10s10,4.5,10,10h12.8c0-5.5,4.5-10,10-10s10,4.5,10,10h12.8
		c0-5.5,4.5-10,10-10s10,4.5,10,10H361c0-5.5,4.5-10,10-10s10,4.5,10,10h12.8c0-5.5,4.5-10,10-10s10,4.5,10,10h12.8
		c0-5.5,4.4-9.9,9.8-10v-12.9c-5.4-0.1-9.8-4.5-9.8-10s4.4-9.9,9.8-10v-12.9c-5.4-0.1-9.8-4.5-9.8-10s4.4-9.9,9.8-10v-12.9
		c-5.4-0.1-9.8-4.5-9.8-10s4.4-9.9,9.8-10v-12.9c-5.4-0.1-9.8-4.5-9.8-10s4.4-9.9,9.8-10v-12.9c-5.4-0.1-9.8-4.5-9.8-10
		s4.4-9.9,9.8-10v-12.9c-5.4-0.1-9.8-4.5-9.8-10s4.4-9.9,9.8-10V268c-5.4-0.1-9.8-4.5-9.8-10s4.4-9.9,9.8-10v-12.9
		c-5.4-0.1-9.8-4.5-9.8-10s4.4-9.9,9.8-10v-12.9c-5.4-0.1-9.8-4.5-9.8-10s4.4-9.9,9.8-10v-12.9c-5.4-0.1-9.8-4.5-9.8-10
		s4.4-9.9,9.8-10v-12.9c-5.4-0.1-9.8-4.5-9.8-10s4.4-9.9,9.8-10v-12.9c-5.4-0.1-9.8-4.5-9.8-10s4.4-9.9,9.8-10V70.8
		C430.6,70.8,426.2,66.3,426.2,60.9z"/>
	<path style="fill:#FFF4C7;" d="M426.2,58.9c0-5.5,4.4-9.9,9.8-10V36c-5.4-0.1-9.8-4.5-9.8-10h-12.8c0,5.5-4.5,10-10,10
		s-10-4.5-10-10h-12.8c0,5.5-4.5,10-10,10s-10-4.5-10-10h-12.8c0,5.5-4.5,10-10,10s-10-4.5-10-10H315c0,5.5-4.5,10-10,10
		s-10-4.5-10-10h-12.8c0,5.5-4.5,10-10,10s-10-4.5-10-10h-12.8c0,5.5-4.5,10-10,10s-10-4.5-10-10h-12.8c0,5.5-4.5,10-10,10
		s-10-4.5-10-10h-12.8c0,5.5-4.5,10-10,10s-10-4.5-10-10H151c0,5.5-4.5,10-10,10s-10-4.5-10-10h-12.8c0,5.5-4.5,10-10,10
		s-10-4.5-10-10H85.8c0,5.5-4.4,9.9-9.8,10v12.9c5.4,0.1,9.8,4.5,9.8,10s-4.4,9.9-9.8,10v12.9c5.4,0.1,9.8,4.5,9.8,10
		s-4.4,9.9-9.8,10v12.9c5.4,0.1,9.8,4.5,9.8,10c0,5.5-4.4,9.9-9.8,10v12.9c5.4,0.1,9.8,4.5,9.8,10s-4.4,9.9-9.8,10v12.9
		c5.4,0.1,9.8,4.5,9.8,10s-4.4,9.9-9.8,10v12.9c5.4,0.1,9.8,4.5,9.8,10s-4.4,9.9-9.8,10V246c5.4,0.1,9.8,4.5,9.8,10s-4.4,9.9-9.8,10
		v12.9c5.4,0.1,9.8,4.5,9.8,10s-4.4,9.9-9.8,10v12.9c5.4,0.1,9.8,4.5,9.8,10s-4.4,9.9-9.8,10v12.9c5.4,0.1,9.8,4.5,9.8,10
		s-4.4,9.9-9.8,10v12.9c5.4,0.1,9.8,4.5,9.8,10s-4.4,9.9-9.8,10v12.9c5.4,0.1,9.8,4.5,9.8,10s-4.4,9.9-9.8,10v12.9
		c5.4,0.1,9.8,4.5,9.8,10s-4.4,9.9-9.8,10V476c5.4,0.1,9.8,4.5,9.8,10h12.8c0-5.5,4.5-10,10-10s10,4.5,10,10h12.8
		c0-5.5,4.5-10,10-10s10,4.5,10,10h12.8c0-5.5,4.5-10,10-10s10,4.5,10,10H197c0-5.5,4.5-10,10-10s10,4.5,10,10h12.8
		c0-5.5,4.5-10,10-10s10,4.5,10,10h12.8c0-5.5,4.5-10,10-10s10,4.5,10,10h12.8c0-5.5,4.5-10,10-10s10,4.5,10,10h12.8
		c0-5.5,4.5-10,10-10s10,4.5,10,10H361c0-5.5,4.5-10,10-10s10,4.5,10,10h12.8c0-5.5,4.5-10,10-10s10,4.5,10,10h12.8
		c0-5.5,4.4-9.9,9.8-10v-12.9c-5.4-0.1-9.8-4.5-9.8-10s4.4-9.9,9.8-10v-12.9c-5.4-0.1-9.8-4.5-9.8-10s4.4-9.9,9.8-10v-12.9
		c-5.4-0.1-9.8-4.5-9.8-10s4.4-9.9,9.8-10v-12.9c-5.4-0.1-9.8-4.5-9.8-10s4.4-9.9,9.8-10v-12.9c-5.4-0.1-9.8-4.5-9.8-10
		s4.4-9.9,9.8-10v-12.9c-5.4-0.1-9.8-4.5-9.8-10s4.4-9.9,9.8-10V266c-5.4-0.1-9.8-4.5-9.8-10s4.4-9.9,9.8-10v-12.9
		c-5.4-0.1-9.8-4.5-9.8-10s4.4-9.9,9.8-10v-12.9c-5.4-0.1-9.8-4.5-9.8-10s4.4-9.9,9.8-10v-12.9c-5.4-0.1-9.8-4.5-9.8-10
		s4.4-9.9,9.8-10v-12.9c-5.4-0.1-9.8-4.5-9.8-10s4.4-9.9,9.8-10v-12.9c-5.4-0.1-9.8-4.5-9.8-10s4.4-9.9,9.8-10V68.8
		C430.6,68.8,426.2,64.3,426.2,58.9z"/>
	<g>
		<rect x="111" y="64.667" style="opacity:0.4;" width="290" height="386.667"/>
		<g>
			<rect x="111" y="352.667" style="fill:#FFDF40;" width="290" height="96.667"/>
			<rect x="111" y="256" style="fill:#FAA680;" width="290" height="96.667"/>
			<rect x="111" y="159.333" style="fill:#F56CBF;" width="290" height="96.667"/>
			<rect x="111" y="62.667" style="fill:#F033FF;" width="290" height="96.667"/>
		</g>
		<g style="opacity:0.5;">
			<rect x="111" y="62.667" style="fill:#A700FF;" width="96.667" height="386.667"/>
			<rect x="207.667" y="62.667" style="fill:#EC00FF;" width="96.667" height="386.667"/>
			<rect x="304.333" y="62.667" style="fill:#FF0000;" width="96.667" height="386.667"/>
		</g>
	</g>
</g>
</svg>
