<?xml version="1.0" encoding="utf-8"?>
<!-- Generator: Adobe Illustrator 18.0.0, SVG Export Plug-In . SVG Version: 6.00 Build 0)  -->
<!DOCTYPE svg PUBLIC "-//W3C//DTD SVG 1.1//EN" "http://www.w3.org/Graphics/SVG/1.1/DTD/svg11.dtd">
<svg version="1.1" id="Layer_1" xmlns="http://www.w3.org/2000/svg" xmlns:xlink="http://www.w3.org/1999/xlink" x="0px" y="0px"
	 viewBox="0 0 512 512" style="enable-background:new 0 0 512 512;" xml:space="preserve">
<g>
	<g>
		<path style="fill:#00BD9B;" d="M289.283,289.283c-4.564,4.564-9.28,8.883-14.119,12.983c-6.186,5.241-12.584,10.098-19.164,14.578
			c-10.551,7.185-21.563,13.403-32.92,18.633c-20.948,9.647-43.05,15.96-65.512,18.956c-36.86,4.917-74.68,0.879-109.953-12.116
			c0,0.001-0.001,0.002-0.001,0.003c22.859,55.123,66.945,99.209,122.068,122.068c0.001,0,0.002-0.001,0.003-0.001
			c34.131-15.753,63.729-39.641,86.316-69.181c13.764-18.001,24.929-38.093,32.92-59.728c4.332-11.729,7.723-23.912,10.103-36.454
			c1.484-7.82,2.574-15.779,3.242-23.859C298.166,280.002,293.847,284.718,289.283,289.283z"/>
		<path style="fill:#FF65D4;" d="M342.319,47.614c-0.001,0-0.002,0.001-0.003,0.001C308.185,63.368,278.588,87.256,256,116.796
			c-13.764,18.001-24.929,38.093-32.92,59.728c-4.332,11.729-7.723,23.912-10.103,36.454c-1.484,7.82-2.574,15.779-3.242,23.859
			c4.099-4.839,8.418-9.554,12.983-14.119s9.28-8.884,14.119-12.983c6.186-5.241,12.584-10.098,19.164-14.578
			c10.551-7.185,21.563-13.403,32.92-18.633c20.948-9.647,43.05-15.96,65.512-18.956c36.86-4.917,74.68-0.879,109.953,12.116
			c0-0.001,0.001-0.002,0.001-0.003C441.528,114.559,397.442,70.473,342.319,47.614z"/>
		<path style="fill:#F1C50E;" d="M222.718,289.283c-4.564-4.564-8.884-9.28-12.983-14.119c-5.241-6.186-10.098-12.584-14.578-19.164
			c-7.185-10.551-13.403-21.563-18.633-32.92c-9.647-20.948-15.96-43.05-18.956-65.512c-4.917-36.86-0.879-74.68,12.116-109.953
			c-0.001,0-0.002-0.001-0.003-0.001c-55.123,22.859-99.209,66.945-122.068,122.068c0,0.001,0.001,0.002,0.001,0.003
			c15.753,34.131,39.641,63.729,69.181,86.316c18.001,13.764,38.093,24.929,59.728,32.92c11.729,4.332,23.912,7.723,36.454,10.103
			c7.82,1.484,15.779,2.574,23.859,3.242C231.998,298.166,227.282,293.847,222.718,289.283z"/>
		<path style="fill:#6659FF;" d="M464.386,342.316c-15.753-34.131-39.641-63.729-69.181-86.316
			c-18.001-13.764-38.093-24.929-59.728-32.92c-11.729-4.332-23.912-7.723-36.454-10.103c-7.82-1.484-15.779-2.574-23.859-3.242
			c4.839,4.099,9.554,8.418,14.119,12.983s8.883,9.28,12.983,14.119c5.241,6.186,10.098,12.584,14.578,19.164
			c7.185,10.551,13.403,21.563,18.633,32.92c9.647,20.948,15.96,43.05,18.956,65.512c4.917,36.86,0.879,74.68-12.116,109.953
			c0.001,0,0.002,0.001,0.003,0.001c55.123-22.859,99.209-66.945,122.068-122.068C464.387,342.318,464.386,342.317,464.386,342.316z
			"/>
		<path style="fill:#51D88B;" d="M256,303.069c-6.455,0-12.844-0.28-19.164-0.803c-8.08-0.668-16.039-1.758-23.859-3.242
			c-12.542-2.38-24.725-5.77-36.454-10.103c-21.634-7.991-41.726-19.156-59.728-32.92c-29.541-22.587-53.429-52.185-69.181-86.316
			c-0.001,0-0.002,0.001-0.003,0.001C36.586,196.274,30.488,225.423,30.488,256s6.098,59.726,17.123,86.315
			c0.001,0,0.002,0.001,0.003,0.001c35.273,12.995,73.093,17.033,109.953,12.116c22.462-2.996,44.564-9.308,65.512-18.956
			c11.357-5.23,22.369-11.448,32.92-18.633c6.579-4.48,12.978-9.338,19.164-14.578C268.844,302.788,262.455,303.069,256,303.069z"/>
		<path style="fill:#9C56B8;" d="M464.389,169.685c-0.001,0-0.002-0.001-0.003-0.001c-35.273-12.995-73.093-17.033-109.953-12.116
			c-22.462,2.996-44.564,9.308-65.512,18.956c-11.357,5.23-22.369,11.448-32.92,18.633c-6.579,4.48-12.978,9.338-19.164,14.578
			c6.32-0.523,12.709-0.803,19.164-0.803c6.455,0,12.844,0.28,19.164,0.803c8.08,0.668,16.039,1.758,23.859,3.242
			c12.542,2.38,24.725,5.77,36.454,10.103c21.634,7.991,41.726,19.156,59.728,32.92c29.541,22.587,53.429,52.185,69.181,86.316
			c0.001,0,0.002-0.001,0.003-0.001c11.026-26.589,17.124-55.738,17.124-86.315S475.414,196.274,464.389,169.685z"/>
		<path style="fill:#E84C3D;" d="M342.315,47.612C315.726,36.586,286.577,30.488,256,30.488s-59.726,6.098-86.315,17.123
			c0,0.001-0.001,0.002-0.001,0.003c-12.995,35.273-17.033,73.093-12.116,109.953c2.996,22.462,9.308,44.564,18.956,65.512
			c5.23,11.357,11.448,22.369,18.633,32.92c4.48,6.579,9.338,12.978,14.578,19.164c-0.523-6.32-0.803-12.709-0.803-19.164
			c0-6.455,0.28-12.844,0.803-19.164c0.668-8.08,1.758-16.039,3.242-23.859c2.38-12.542,5.77-24.725,10.103-36.454
			c7.991-21.634,19.156-41.726,32.92-59.728c22.587-29.541,52.185-53.429,86.316-69.181
			C342.316,47.614,342.315,47.613,342.315,47.612z"/>
		<g>
			<path style="fill:#2D98E0;" d="M354.432,354.432c-2.996-22.462-9.308-44.564-18.956-65.512
				c-5.23-11.357-11.448-22.369-18.633-32.92c-4.48-6.579-9.338-12.978-14.578-19.164c0.523,6.32,0.803,12.709,0.803,19.164
				c0,6.455-0.28,12.844-0.803,19.164c-0.668,8.08-1.758,16.039-3.242,23.859c-2.38,12.542-5.77,24.725-10.103,36.454
				c-7.991,21.634-19.156,41.726-32.92,59.728c-22.587,29.541-52.185,53.429-86.316,69.181c0,0.001,0.001,0.002,0.001,0.003
				c26.589,11.026,55.738,17.124,86.315,17.124s59.726-6.098,86.315-17.124c0-0.001,0.001-0.002,0.001-0.003
				C355.312,429.113,359.349,391.292,354.432,354.432z"/>
		</g>
	</g>
	<path style="fill:#FFFFFF;" d="M468.875,343.185C480.233,315.486,486,286.16,486,256s-5.767-59.486-17.125-87.185v-0.027
		l-0.33-0.797c-0.003-0.008-0.006-0.016-0.01-0.024l-0.641-1.545l-0.03-0.015c-22.079-52.127-63.466-94.924-114.655-118.879
		l0.292-0.135l-9.453-3.92c-0.003-0.001-0.007-0.003-0.01-0.004l-1.936-0.803l-0.03,0.016C314.699,31.621,285.756,26,256,26
		c-27.087,0-53.5,4.656-78.669,13.832l0.108-0.295l-9.478,3.931c-0.004,0.001-0.007,0.003-0.01,0.005l-1.531,0.635l-0.014,0.029
		c-54.689,23.164-99.106,67.581-122.27,122.27l-0.03,0.015l-0.635,1.531c-0.001,0.003-0.003,0.007-0.004,0.01l-0.789,1.905
		l0.015,0.029C31.625,197.278,26,226.232,26,256c0,27.086,4.656,53.5,13.832,78.668l-0.295-0.108l3.931,9.478
		c0.002,0.004,0.003,0.008,0.005,0.012l0.748,1.799l0.029,0.011c23.196,54.567,67.557,98.878,122.156,122.005l0.015,0.03
		l1.545,0.641c0.008,0.003,0.016,0.006,0.024,0.01l0.797,0.33h0.027C196.514,480.233,225.84,486,256,486s59.486-5.767,87.185-17.125
		h0.028l0.797-0.33c0.008-0.003,0.016-0.006,0.024-0.01l1.815-0.756l0.01-0.028c52.007-22.107,94.701-63.44,118.614-114.541
		l0.135,0.292l3.926-9.467c0.003-0.008,0.006-0.016,0.01-0.024l0.33-0.797V343.185z M463.914,331.138
		c-0.411-0.794-0.845-1.576-1.265-2.365c-0.43-0.808-0.856-1.618-1.295-2.421c-0.675-1.234-1.37-2.457-2.068-3.678
		c-0.425-0.744-0.841-1.491-1.274-2.23c-0.78-1.333-1.585-2.651-2.391-3.968c-0.374-0.611-0.738-1.229-1.118-1.837
		c-1.127-1.803-2.279-3.589-3.455-5.361c-0.074-0.112-0.144-0.226-0.218-0.337c-1.261-1.893-2.552-3.767-3.868-5.623
		c-0.365-0.515-0.746-1.02-1.115-1.532c-0.952-1.321-1.908-2.639-2.888-3.94c-0.503-0.668-1.021-1.325-1.531-1.988
		c-0.87-1.13-1.74-2.259-2.63-3.373c-0.571-0.714-1.154-1.418-1.733-2.126c-0.854-1.044-1.711-2.086-2.584-3.116
		c-0.616-0.727-1.241-1.445-1.865-2.165c-0.862-0.993-1.728-1.981-2.607-2.959c-0.648-0.722-1.302-1.438-1.96-2.152
		c-0.881-0.958-1.77-1.908-2.667-2.851c-0.672-0.707-1.347-1.41-2.028-2.108c-0.91-0.933-1.83-1.856-2.756-2.774
		c-0.688-0.682-1.375-1.365-2.072-2.039c-0.951-0.92-1.914-1.827-2.881-2.731c-0.691-0.646-1.378-1.296-2.076-1.933
		c-1.016-0.928-2.048-1.839-3.081-2.75c-0.668-0.589-1.33-1.185-2.005-1.767c-1.151-0.992-2.321-1.962-3.491-2.931
		c-0.576-0.477-1.143-0.964-1.723-1.435c-1.76-1.429-3.538-2.835-5.339-4.213c-18.588-14.212-39.078-25.505-60.899-33.565
		c-12.002-4.433-24.508-7.899-37.173-10.302c-8.017-1.522-16.202-2.634-24.325-3.306l-13.955-1.154l0.503,0.426
		c-2.04-0.054-4.072-0.091-6.082-0.091c-1.772,0-3.557,0.022-5.352,0.063c0.677-0.505,1.354-1.01,2.036-1.507
		c0.461-0.336,0.918-0.676,1.381-1.008c1.478-1.06,2.964-2.105,4.461-3.125c10.246-6.977,21.103-13.123,32.271-18.266
		c17.777-8.187,36.543-13.997,55.897-17.315c2.765-0.474,5.542-0.897,8.33-1.269c9.877-1.317,19.94-1.986,29.91-1.986
		c1.649,0,3.296,0.018,4.941,0.054c0.553,0.012,1.105,0.037,1.658,0.053c1.093,0.032,2.185,0.06,3.276,0.108
		c0.648,0.028,1.294,0.07,1.941,0.104c0.992,0.051,1.984,0.099,2.974,0.163c0.695,0.045,1.388,0.105,2.083,0.156
		c0.941,0.07,1.882,0.135,2.822,0.217c0.717,0.062,1.431,0.138,2.147,0.207c0.913,0.088,1.826,0.172,2.738,0.271
		c0.732,0.08,1.461,0.173,2.192,0.26c0.894,0.106,1.789,0.209,2.681,0.326c0.735,0.096,1.468,0.205,2.202,0.309
		c0.884,0.125,1.769,0.246,2.651,0.381c0.742,0.114,1.482,0.24,2.223,0.361c0.87,0.142,1.741,0.282,2.609,0.435
		c0.747,0.131,1.492,0.274,2.238,0.413c0.859,0.16,1.718,0.318,2.574,0.488c0.75,0.149,1.498,0.309,2.247,0.465
		c0.849,0.177,1.698,0.353,2.545,0.541c0.75,0.166,1.498,0.342,2.247,0.516c0.842,0.195,1.685,0.39,2.525,0.595
		c0.749,0.183,1.495,0.376,2.243,0.566c0.835,0.213,1.671,0.426,2.504,0.649c0.748,0.2,1.493,0.409,2.239,0.617
		c0.829,0.231,1.659,0.463,2.486,0.703c0.745,0.217,1.487,0.442,2.23,0.667c0.824,0.249,1.647,0.499,2.469,0.758
		c0.742,0.234,1.482,0.475,2.222,0.717c0.819,0.267,1.637,0.536,2.453,0.813c0.737,0.25,1.472,0.507,2.207,0.765
		c0.499,0.175,0.998,0.354,1.496,0.532c10.637,26.311,16.029,54.145,16.029,82.759C477.023,281.866,472.617,307.095,463.914,331.138
		z M297.897,238.646c0.447,5.84,0.684,11.671,0.684,17.354c0,5.682-0.236,11.514-0.683,17.353
		c-3.819,4.451-7.775,8.742-11.788,12.756c-4.015,4.014-8.305,7.97-12.755,11.788c-5.84,0.447-11.671,0.684-17.354,0.684
		c-5.683,0-11.514-0.236-17.353-0.683c-4.448-3.816-8.739-7.772-12.755-11.788c-4.017-4.017-7.973-8.308-11.788-12.755
		c-0.447-5.84-0.684-11.671-0.684-17.354c0-5.683,0.237-11.515,0.684-17.355c3.813-4.445,7.769-8.735,11.788-12.754
		c4.019-4.019,8.309-7.975,12.754-11.788c5.84-0.447,11.672-0.684,17.355-0.684c5.683,0,11.514,0.237,17.354,0.684
		c4.447,3.815,8.738,7.771,12.755,11.788C290.125,229.908,294.082,234.199,297.897,238.646z M456.125,162.102
		c-0.115-0.037-0.231-0.07-0.346-0.107c-0.532-0.169-1.066-0.328-1.599-0.493c-1.013-0.314-2.027-0.625-3.044-0.925
		c-0.606-0.178-1.213-0.35-1.82-0.523c-0.951-0.272-1.903-0.541-2.857-0.8c-0.633-0.172-1.266-0.34-1.9-0.506
		c-0.939-0.247-1.88-0.489-2.822-0.724c-0.635-0.159-1.27-0.316-1.906-0.469c-0.959-0.231-1.92-0.454-2.881-0.672
		c-0.617-0.14-1.233-0.282-1.85-0.417c-1.02-0.223-2.043-0.435-3.065-0.645c-0.557-0.114-1.113-0.233-1.672-0.343
		c-1.247-0.246-2.497-0.477-3.748-0.703c-0.334-0.06-0.666-0.126-1-0.185c-1.591-0.28-3.185-0.542-4.782-0.789
		c-0.392-0.061-0.786-0.113-1.178-0.171c-1.201-0.179-2.403-0.354-3.608-0.514c-0.578-0.077-1.158-0.145-1.736-0.218
		c-1.023-0.129-2.047-0.255-3.073-0.37c-0.636-0.071-1.274-0.136-1.911-0.203c-0.977-0.101-1.955-0.199-2.934-0.288
		c-0.655-0.06-1.311-0.116-1.967-0.17c-0.97-0.08-1.942-0.154-2.914-0.222c-0.654-0.046-1.309-0.092-1.964-0.132
		c-0.998-0.062-1.997-0.114-2.997-0.163c-0.624-0.031-1.247-0.064-1.872-0.09c-1.093-0.045-2.188-0.077-3.283-0.107
		c-0.53-0.014-1.058-0.035-1.588-0.046c-1.623-0.033-3.247-0.053-4.873-0.053c-10.366,0-20.828,0.694-31.097,2.064
		c-23.191,3.093-45.665,9.596-66.797,19.328c-11.618,5.351-22.912,11.743-33.569,19c-6.748,4.595-13.321,9.596-19.538,14.863
		l-10.686,9.053l0.659-0.055c-1.48,1.404-2.943,2.814-4.365,4.236c-1.253,1.253-2.5,2.531-3.74,3.83
		c0.12-0.823,0.239-1.645,0.368-2.466c0.091-0.581,0.177-1.164,0.273-1.744c0.295-1.789,0.605-3.574,0.942-5.349
		c2.31-12.176,5.643-24.2,9.903-35.735c1.453-3.934,3.015-7.823,4.685-11.663c7.235-16.641,16.486-32.37,27.591-46.894
		c1.377-1.8,2.781-3.579,4.211-5.336c0.502-0.617,1.024-1.216,1.533-1.827c0.94-1.131,1.875-2.266,2.837-3.377
		c0.62-0.716,1.261-1.413,1.89-2.121c0.873-0.984,1.739-1.974,2.629-2.942c0.698-0.76,1.418-1.499,2.127-2.249
		c0.844-0.894,1.681-1.795,2.539-2.675c0.757-0.775,1.534-1.529,2.301-2.293c0.834-0.83,1.66-1.668,2.506-2.485
		c0.81-0.781,1.639-1.541,2.46-2.31c0.827-0.774,1.646-1.557,2.484-2.318c0.862-0.783,1.742-1.545,2.615-2.314
		c0.819-0.722,1.631-1.452,2.46-2.161c0.911-0.779,1.839-1.537,2.762-2.302c0.813-0.674,1.62-1.356,2.442-2.019
		c0.956-0.77,1.93-1.519,2.898-2.274c0.809-0.631,1.613-1.269,2.43-1.888c0.996-0.755,2.009-1.488,3.018-2.227
		c0.81-0.593,1.615-1.194,2.433-1.776c1.03-0.733,2.075-1.445,3.117-2.16c0.817-0.561,1.629-1.129,2.453-1.679
		c1.053-0.703,2.121-1.385,3.186-2.071c0.833-0.537,1.663-1.079,2.503-1.605c1.066-0.666,2.144-1.311,3.221-1.96
		c0.86-0.518,1.717-1.042,2.585-1.548c1.065-0.622,2.141-1.223,3.216-1.827c0.9-0.506,1.798-1.017,2.706-1.511
		c1.047-0.57,2.105-1.12,3.162-1.673c0.959-0.502,1.915-1.007,2.881-1.495c1.006-0.508,2.022-0.999,3.036-1.492
		c0.743-0.361,1.487-0.72,2.233-1.073C392.219,73.719,433.115,113.243,456.125,162.102z M331.138,48.087
		c-0.648,0.335-1.286,0.691-1.931,1.033c-0.868,0.459-1.736,0.919-2.598,1.39c-1.157,0.631-2.304,1.278-3.45,1.928
		c-0.828,0.47-1.659,0.937-2.481,1.417c-1.192,0.696-2.372,1.412-3.551,2.129c-0.758,0.461-1.521,0.914-2.274,1.384
		c-1.315,0.82-2.615,1.664-3.913,2.51c-0.6,0.391-1.208,0.771-1.805,1.167c-1.89,1.256-3.764,2.538-5.618,3.848
		c-0.122,0.086-0.241,0.178-0.363,0.264c-1.727,1.226-3.438,2.475-5.131,3.747c-0.603,0.453-1.193,0.922-1.791,1.38
		c-1.204,0.923-2.406,1.847-3.592,2.792c-0.692,0.552-1.373,1.119-2.06,1.679c-1.074,0.876-2.146,1.754-3.204,2.649
		c-0.719,0.608-1.427,1.226-2.139,1.843c-1.008,0.874-2.012,1.751-3.006,2.641c-0.719,0.645-1.431,1.297-2.142,1.951
		c-0.968,0.889-1.929,1.785-2.882,2.691c-0.705,0.67-1.406,1.344-2.103,2.023c-0.942,0.918-1.875,1.845-2.802,2.778
		c-0.681,0.686-1.361,1.372-2.034,2.067c-0.927,0.957-1.842,1.927-2.753,2.9c-0.647,0.691-1.296,1.378-1.934,2.077
		c-0.934,1.022-1.852,2.06-2.768,3.099c-0.589,0.668-1.184,1.329-1.766,2.004c-0.999,1.159-1.976,2.336-2.952,3.515
		c-0.475,0.574-0.961,1.139-1.431,1.718c-1.434,1.766-2.847,3.551-4.229,5.359c-12.436,16.264-22.636,33.985-30.391,52.779
		c-1.108,2.685-2.166,5.392-3.173,8.12c-4.433,12.001-7.899,24.508-10.302,37.172c-1.522,8.018-2.634,16.202-3.306,24.326
		l-1.154,13.956l0.426-0.503c-0.054,2.039-0.091,4.071-0.091,6.081c0,1.771,0.022,3.557,0.063,5.352
		c-0.508-0.681-1.017-1.362-1.517-2.049c-0.332-0.456-0.669-0.909-0.997-1.367c-1.06-1.478-2.106-2.965-3.126-4.462
		c-4.36-6.403-8.396-13.045-12.065-19.853c-2.202-4.085-4.271-8.229-6.2-12.418c-8.187-17.777-13.997-36.544-17.315-55.898
		c-0.474-2.765-0.897-5.542-1.269-8.33c-0.3-2.249-0.565-4.501-0.796-6.756c-0.076-0.741-0.127-1.483-0.195-2.224
		c-0.14-1.516-0.286-3.031-0.395-4.549c-0.064-0.892-0.101-1.785-0.154-2.678c-0.082-1.368-0.174-2.737-0.231-4.106
		c-0.04-0.955-0.052-1.91-0.08-2.866c-0.038-1.308-0.086-2.617-0.102-3.925c-0.012-0.991,0.004-1.982,0.006-2.972
		c0.002-1.271-0.007-2.543,0.016-3.814c0.018-1.016,0.064-2.031,0.096-3.046c0.039-1.247,0.069-2.493,0.129-3.739
		c0.049-1.027,0.125-2.052,0.188-3.077c0.076-1.231,0.143-2.463,0.239-3.693c0.081-1.036,0.187-2.07,0.282-3.105
		c0.112-1.217,0.215-2.435,0.347-3.65c0.112-1.04,0.25-2.077,0.376-3.115c0.147-1.206,0.287-2.412,0.454-3.615
		c0.144-1.042,0.312-2.08,0.471-3.119c0.182-1.195,0.358-2.39,0.559-3.581c0.176-1.042,0.375-2.079,0.566-3.118
		c0.217-1.184,0.429-2.369,0.665-3.55c0.208-1.039,0.437-2.073,0.66-3.109c0.252-1.173,0.499-2.347,0.769-3.515
		c0.24-1.037,0.501-2.069,0.756-3.103c0.286-1.16,0.567-2.321,0.872-3.476c0.272-1.032,0.564-2.059,0.851-3.088
		c0.32-1.148,0.637-2.297,0.975-3.44c0.304-1.026,0.627-2.046,0.945-3.068c0.354-1.136,0.706-2.272,1.078-3.402
		c0.335-1.018,0.689-2.029,1.038-3.042c0.28-0.812,0.563-1.622,0.853-2.431C199.561,40.368,227.39,34.977,256,34.977
		C281.867,34.977,307.094,39.382,331.138,48.087z M162.107,55.872c-0.264,0.831-0.503,1.669-0.758,2.503
		c-0.275,0.9-0.554,1.799-0.819,2.703c-0.386,1.321-0.751,2.647-1.114,3.974c-0.233,0.853-0.475,1.704-0.698,2.559
		c-0.38,1.455-0.734,2.917-1.086,4.38c-0.177,0.735-0.366,1.467-0.536,2.204c-0.456,1.979-0.883,3.965-1.287,5.955
		c-0.045,0.223-0.098,0.444-0.143,0.667c-0.446,2.224-0.857,4.456-1.238,6.692c-0.108,0.637-0.198,1.276-0.301,1.914
		c-0.258,1.595-0.513,3.19-0.738,4.79c-0.117,0.834-0.216,1.67-0.325,2.505c-0.183,1.408-0.365,2.815-0.522,4.226
		c-0.102,0.914-0.188,1.83-0.28,2.745c-0.134,1.337-0.264,2.674-0.375,4.013c-0.079,0.954-0.145,1.908-0.213,2.863
		c-0.092,1.307-0.178,2.614-0.248,3.923c-0.052,0.971-0.096,1.943-0.136,2.914c-0.054,1.298-0.097,2.596-0.13,3.895
		c-0.024,0.977-0.044,1.953-0.057,2.93c-0.016,1.302-0.018,2.604-0.013,3.906c0.004,0.969,0.008,1.938,0.023,2.907
		c0.022,1.323,0.062,2.646,0.106,3.97c0.031,0.945,0.058,1.89,0.101,2.835c0.062,1.374,0.148,2.747,0.234,4.12
		c0.056,0.89,0.103,1.781,0.169,2.67c0.113,1.514,0.254,3.026,0.396,4.539c0.07,0.745,0.126,1.49,0.204,2.234
		c0.234,2.254,0.497,4.506,0.796,6.754c3.093,23.191,9.596,45.665,19.328,66.796c1.338,2.905,2.741,5.79,4.206,8.649
		c4.396,8.578,9.352,16.929,14.794,24.92c4.594,6.745,9.595,13.319,14.864,19.539l9.053,10.685l-0.055-0.659
		c1.404,1.481,2.814,2.943,4.236,4.365c1.253,1.253,2.53,2.5,3.83,3.74c-0.852-0.124-1.703-0.248-2.553-0.381
		c-0.543-0.085-1.087-0.165-1.63-0.255c-1.798-0.296-3.592-0.608-5.376-0.947c-12.176-2.31-24.2-5.643-35.735-9.904
		c-19.67-7.265-38.215-17.263-55.184-29.745c-1.131-0.832-2.255-1.675-3.373-2.529c-1.802-1.378-3.582-2.784-5.341-4.215
		c-0.575-0.468-1.133-0.955-1.703-1.428c-1.173-0.975-2.35-1.945-3.503-2.943c-0.68-0.588-1.34-1.197-2.013-1.793
		c-1.022-0.906-2.051-1.806-3.056-2.731c-0.709-0.652-1.399-1.325-2.099-1.986c-0.946-0.893-1.9-1.778-2.83-2.687
		c-0.714-0.697-1.407-1.413-2.112-2.12c-0.894-0.896-1.795-1.786-2.673-2.696c-0.706-0.732-1.393-1.483-2.089-2.225
		c-0.853-0.908-1.712-1.81-2.549-2.731c-0.69-0.759-1.36-1.536-2.039-2.305c-0.819-0.927-1.645-1.848-2.449-2.788
		c-0.67-0.784-1.321-1.584-1.98-2.376c-0.787-0.946-1.58-1.887-2.352-2.845c-0.649-0.807-1.279-1.629-1.918-2.444
		c-0.755-0.965-1.516-1.926-2.256-2.903c-0.626-0.827-1.233-1.669-1.848-2.505c-0.725-0.986-1.455-1.968-2.164-2.965
		c-0.602-0.847-1.185-1.706-1.775-2.561c-0.694-1.005-1.392-2.008-2.07-3.024c-0.577-0.866-1.136-1.744-1.702-2.618
		c-0.662-1.024-1.328-2.045-1.974-3.079c-0.551-0.884-1.085-1.778-1.624-2.669c-0.631-1.043-1.265-2.084-1.879-3.137
		c-0.526-0.902-1.034-1.815-1.548-2.724c-0.597-1.057-1.195-2.112-1.775-3.178c-0.503-0.927-0.989-1.863-1.48-2.797
		c-0.559-1.065-1.12-2.128-1.661-3.202c-0.481-0.953-0.944-1.914-1.411-2.874c-0.376-0.773-0.75-1.548-1.117-2.325
		C73.72,119.779,113.245,78.882,162.107,55.872z M48.087,180.863c0.337,0.652,0.695,1.293,1.039,1.942
		c0.453,0.856,0.906,1.711,1.37,2.561c0.636,1.167,1.288,2.325,1.945,3.48c0.466,0.822,0.929,1.645,1.405,2.461
		c0.697,1.193,1.413,2.374,2.131,3.555c0.462,0.76,0.916,1.524,1.386,2.278c0.809,1.298,1.642,2.58,2.477,3.862
		c0.403,0.619,0.795,1.246,1.204,1.862c1.253,1.886,2.531,3.756,3.838,5.605c0.098,0.138,0.2,0.272,0.298,0.41
		c1.215,1.71,2.451,3.406,3.712,5.083c0.469,0.624,0.954,1.235,1.428,1.854c0.906,1.182,1.813,2.363,2.742,3.527
		c0.566,0.71,1.147,1.408,1.721,2.112c0.862,1.056,1.725,2.111,2.606,3.152c0.62,0.733,1.251,1.456,1.879,2.181
		c0.861,0.993,1.725,1.983,2.603,2.962c0.656,0.732,1.32,1.456,1.985,2.18c0.877,0.955,1.761,1.903,2.654,2.843
		c0.681,0.717,1.366,1.429,2.056,2.138c0.907,0.931,1.822,1.852,2.744,2.768c0.695,0.691,1.391,1.38,2.095,2.062
		c0.948,0.918,1.908,1.824,2.872,2.727c0.699,0.655,1.395,1.312,2.102,1.958c1.014,0.926,2.043,1.836,3.073,2.745
		c0.676,0.596,1.345,1.198,2.027,1.786c1.152,0.992,2.321,1.964,3.493,2.934c0.581,0.481,1.153,0.973,1.739,1.449
		c1.766,1.434,3.55,2.846,5.358,4.228c18.587,14.211,39.076,25.504,60.899,33.565c12.001,4.433,24.508,7.898,37.172,10.301
		c8.018,1.522,16.202,2.635,24.326,3.306l13.954,1.154l-0.503-0.426c2.04,0.054,4.072,0.091,6.083,0.091
		c1.771,0,3.557-0.022,5.352-0.064c-0.682,0.509-1.363,1.017-2.05,1.517c-0.454,0.331-0.906,0.667-1.363,0.994
		c-1.479,1.061-2.967,2.108-4.466,3.129c-6.403,4.361-13.045,8.396-19.853,12.066c-4.085,2.202-8.229,4.272-12.418,6.201
		c-20.315,9.355-41.924,15.608-64.228,18.582c-9.876,1.318-19.94,1.986-29.91,1.986c-1.649,0-3.296-0.018-4.941-0.054
		c-0.552-0.012-1.102-0.037-1.654-0.053c-1.094-0.032-2.188-0.06-3.281-0.108c-0.646-0.028-1.289-0.07-1.934-0.103
		c-0.994-0.052-1.989-0.099-2.981-0.163c-0.693-0.045-1.385-0.104-2.077-0.156c-0.943-0.07-1.886-0.136-2.827-0.217
		c-0.715-0.062-1.427-0.138-2.141-0.207c-0.915-0.088-1.83-0.172-2.743-0.272c-0.73-0.079-1.458-0.172-2.186-0.259
		c-0.896-0.106-1.793-0.209-2.687-0.326c-0.733-0.096-1.464-0.205-2.196-0.308c-0.886-0.125-1.772-0.247-2.656-0.382
		c-0.741-0.114-1.479-0.239-2.219-0.36c-0.871-0.142-1.742-0.282-2.611-0.435c-0.748-0.131-1.493-0.274-2.24-0.413
		c-0.858-0.16-1.716-0.317-2.572-0.487c-0.752-0.149-1.501-0.309-2.251-0.466c-0.847-0.177-1.694-0.353-2.539-0.539
		c-0.753-0.167-1.503-0.343-2.254-0.518c-0.84-0.195-1.68-0.389-2.517-0.593c-0.751-0.184-1.5-0.377-2.25-0.568
		c-0.833-0.213-1.666-0.425-2.496-0.647c-0.75-0.201-1.499-0.411-2.247-0.619c-0.826-0.23-1.652-0.461-2.476-0.701
		c-0.748-0.218-1.495-0.444-2.241-0.67c-0.82-0.248-1.639-0.497-2.457-0.754c-0.745-0.235-1.489-0.477-2.232-0.72
		c-0.816-0.266-1.631-0.534-2.444-0.81c-0.739-0.251-1.476-0.508-2.213-0.767c-0.498-0.175-0.995-0.353-1.493-0.531
		C40.369,312.447,34.977,284.614,34.977,256C34.977,230.133,39.382,204.907,48.087,180.863z M55.875,349.899
		c1.545,0.493,3.094,0.966,4.646,1.426c0.503,0.149,1.008,0.289,1.512,0.435c1.058,0.306,2.118,0.609,3.18,0.9
		c0.599,0.164,1.199,0.32,1.799,0.479c0.973,0.258,1.947,0.513,2.923,0.758c0.634,0.159,1.268,0.314,1.903,0.468
		c0.956,0.232,1.914,0.458,2.872,0.677c0.636,0.146,1.273,0.29,1.91,0.431c0.981,0.216,1.963,0.423,2.947,0.626
		c0.61,0.126,1.219,0.254,1.83,0.375c1.073,0.213,2.147,0.413,3.223,0.611c0.52,0.096,1.039,0.197,1.56,0.289
		c1.584,0.28,3.171,0.546,4.761,0.793c0.009,0.001,0.019,0.003,0.028,0.005c1.602,0.249,3.208,0.478,4.816,0.693
		c0.518,0.069,1.037,0.129,1.555,0.195c1.091,0.139,2.183,0.275,3.277,0.398c0.621,0.07,1.243,0.133,1.865,0.198
		c1.001,0.105,2.003,0.206,3.006,0.298c0.651,0.06,1.302,0.115,1.954,0.169c0.984,0.082,1.969,0.158,2.954,0.227
		c0.654,0.046,1.309,0.091,1.964,0.132c1.008,0.063,2.016,0.116,3.026,0.166c0.625,0.031,1.249,0.064,1.875,0.09
		c1.102,0.045,2.205,0.078,3.308,0.109c0.531,0.014,1.062,0.035,1.594,0.046c1.632,0.034,3.266,0.053,4.903,0.053
		c6.479,0,12.995-0.271,19.478-0.809c3.89-0.323,7.768-0.741,11.619-1.255c18.844-2.514,37.213-7.278,54.773-14.196
		c4.052-1.596,8.061-3.308,12.023-5.132c11.62-5.351,22.914-11.744,33.569-18.999c1.686-1.148,3.361-2.321,5.022-3.518
		c4.985-3.591,9.849-7.392,14.517-11.345c0.016-0.013,0.031-0.027,0.046-0.04l10.64-9.013l-0.66,0.055
		c1.481-1.404,2.944-2.815,4.365-4.236c1.252-1.252,2.5-2.53,3.74-3.829c-0.124,0.849-0.247,1.699-0.38,2.546
		c-0.086,0.546-0.167,1.094-0.256,1.639c-0.296,1.797-0.608,3.591-0.946,5.374c-2.31,12.176-5.643,24.2-9.904,35.735
		c-7.749,20.981-18.609,40.683-32.275,58.557c-1.378,1.802-2.783,3.581-4.214,5.339c-0.484,0.594-0.987,1.172-1.477,1.761
		c-0.958,1.153-1.912,2.31-2.893,3.443c-0.605,0.699-1.231,1.379-1.845,2.07c-0.89,1.003-1.772,2.012-2.679,2.999
		c-0.665,0.724-1.351,1.427-2.026,2.142c-0.88,0.932-1.752,1.871-2.647,2.788c-0.707,0.724-1.433,1.428-2.15,2.142
		c-0.886,0.884-1.765,1.775-2.666,2.643c-0.74,0.714-1.499,1.408-2.249,2.111c-0.9,0.845-1.794,1.697-2.708,2.527
		c-0.769,0.698-1.555,1.377-2.334,2.065c-0.916,0.81-1.827,1.626-2.755,2.421c-0.797,0.682-1.611,1.344-2.418,2.015
		c-0.932,0.775-1.858,1.556-2.802,2.316c-0.822,0.662-1.659,1.303-2.49,1.954c-0.949,0.743-1.894,1.491-2.855,2.219
		c-0.845,0.64-1.705,1.26-2.56,1.888c-0.967,0.711-1.93,1.427-2.908,2.122c-0.869,0.618-1.75,1.216-2.627,1.821
		c-0.982,0.678-1.961,1.36-2.953,2.022c-0.892,0.595-1.796,1.17-2.696,1.752c-0.998,0.645-1.992,1.294-3,1.923
		c-0.911,0.569-1.833,1.119-2.752,1.674c-1.014,0.613-2.026,1.23-3.05,1.827c-0.93,0.542-1.87,1.066-2.807,1.595
		c-1.03,0.581-2.059,1.165-3.098,1.73c-0.947,0.515-1.904,1.012-2.859,1.513c-1.046,0.549-2.091,1.1-3.145,1.632
		c-0.963,0.486-1.935,0.955-2.905,1.426c-0.767,0.373-1.536,0.744-2.307,1.108C119.783,438.282,78.886,398.757,55.875,349.899z
		 M180.863,463.914c0.777-0.402,1.541-0.827,2.313-1.237c0.822-0.437,1.645-0.87,2.461-1.316c1.221-0.668,2.43-1.355,3.639-2.045
		c0.756-0.431,1.515-0.855,2.266-1.294c1.317-0.771,2.62-1.566,3.923-2.363c0.626-0.383,1.259-0.756,1.881-1.145
		c1.748-1.093,3.481-2.211,5.2-3.35c0.164-0.109,0.333-0.212,0.497-0.321c1.896-1.263,3.773-2.555,5.631-3.872
		c0.486-0.345,0.962-0.704,1.446-1.052c1.351-0.973,2.699-1.951,4.029-2.952c0.655-0.493,1.299-1.002,1.949-1.502
		c1.144-0.88,2.286-1.761,3.413-2.662c0.705-0.563,1.4-1.139,2.098-1.71c1.055-0.863,2.107-1.728,3.147-2.609
		c0.719-0.609,1.429-1.227,2.141-1.845c1.001-0.869,1.998-1.743,2.985-2.629c0.715-0.642,1.425-1.291,2.132-1.942
		c0.965-0.888,1.922-1.783,2.872-2.687c0.701-0.667,1.399-1.336,2.092-2.012c0.94-0.916,1.869-1.842,2.793-2.774
		c0.677-0.683,1.354-1.365,2.023-2.056c0.926-0.956,1.838-1.925,2.747-2.897c0.643-0.687,1.288-1.37,1.923-2.065
		c0.931-1.019,1.845-2.054,2.758-3.09c0.587-0.666,1.181-1.326,1.761-1.998c0.993-1.153,1.965-2.324,2.936-3.497
		c0.476-0.575,0.962-1.141,1.433-1.72c1.429-1.76,2.836-3.539,4.214-5.341c14.211-18.587,25.504-39.077,33.565-60.899
		c4.433-12.002,7.898-24.508,10.301-37.173c1.522-8.017,2.635-16.202,3.306-24.325l1.154-13.953l-0.426,0.503
		c0.054-2.04,0.091-4.073,0.091-6.084c0-1.772-0.022-3.557-0.064-5.352c0.506,0.679,1.013,1.357,1.511,2.041
		c0.334,0.458,0.672,0.913,1.002,1.373c1.061,1.479,2.107,2.966,3.127,4.464c6.978,10.246,13.123,21.103,18.267,32.271
		c9.355,20.314,15.608,41.924,18.582,64.227c0.3,2.248,0.565,4.501,0.796,6.756c0.076,0.743,0.127,1.488,0.196,2.231
		c0.14,1.513,0.285,3.026,0.395,4.542c0.064,0.893,0.101,1.788,0.155,2.682c0.082,1.367,0.174,2.734,0.231,4.102
		c0.04,0.959,0.052,1.919,0.08,2.879c0.038,1.303,0.086,2.607,0.101,3.91c0.012,1-0.004,2-0.006,2.999
		c-0.002,1.262,0.007,2.525-0.016,3.787c-0.019,1.025-0.064,2.05-0.097,3.075c-0.039,1.236-0.069,2.473-0.128,3.708
		c-0.05,1.038-0.126,2.075-0.19,3.112c-0.075,1.22-0.142,2.44-0.237,3.658c-0.082,1.048-0.189,2.093-0.285,3.139
		c-0.111,1.205-0.213,2.41-0.343,3.613c-0.114,1.055-0.253,2.108-0.382,3.161c-0.145,1.19-0.283,2.38-0.448,3.568
		c-0.146,1.057-0.317,2.11-0.478,3.165c-0.18,1.18-0.354,2.361-0.552,3.538c-0.178,1.055-0.379,2.105-0.573,3.157
		c-0.215,1.17-0.424,2.342-0.657,3.509c-0.21,1.052-0.443,2.099-0.668,3.148c-0.249,1.161-0.493,2.322-0.761,3.479
		c-0.242,1.047-0.506,2.089-0.763,3.133c-0.283,1.15-0.562,2.3-0.864,3.445c-0.275,1.043-0.569,2.079-0.859,3.118
		c-0.317,1.138-0.631,2.277-0.967,3.41c-0.305,1.032-0.63,2.059-0.951,3.087c-0.352,1.131-0.702,2.262-1.073,3.387
		c-0.336,1.019-0.69,2.033-1.04,3.047c-0.28,0.811-0.563,1.621-0.852,2.428c-26.308,10.634-54.137,16.025-82.748,16.025
		C230.134,477.023,204.905,472.617,180.863,463.914z M349.893,456.128c0.216-0.678,0.409-1.363,0.619-2.043
		c0.287-0.932,0.572-1.863,0.848-2.798c0.375-1.273,0.733-2.551,1.086-3.83c0.251-0.91,0.506-1.819,0.746-2.733
		c0.353-1.343,0.684-2.691,1.013-4.04c0.209-0.856,0.426-1.71,0.625-2.569c0.348-1.501,0.669-3.009,0.988-4.517
		c0.15-0.711,0.313-1.42,0.457-2.132c0.898-4.455,1.668-8.937,2.307-13.438c0.099-0.699,0.179-1.401,0.272-2.101
		c0.206-1.55,0.409-3.101,0.584-4.655c0.097-0.863,0.176-1.729,0.264-2.593c0.142-1.396,0.281-2.792,0.398-4.191
		c0.078-0.929,0.14-1.858,0.207-2.788c0.096-1.341,0.187-2.681,0.26-4.023c0.052-0.959,0.094-1.919,0.135-2.879
		c0.056-1.317,0.103-2.634,0.136-3.952c0.025-0.972,0.044-1.944,0.057-2.917c0.017-1.316,0.022-2.632,0.017-3.948
		c-0.003-0.967-0.008-1.933-0.023-2.9c-0.021-1.334-0.06-2.668-0.104-4.003c-0.031-0.945-0.058-1.89-0.101-2.834
		c-0.062-1.385-0.147-2.768-0.234-4.152c-0.056-0.889-0.103-1.778-0.169-2.667c-0.113-1.526-0.254-3.05-0.398-4.574
		c-0.07-0.743-0.126-1.486-0.203-2.229c-0.235-2.264-0.498-4.526-0.799-6.783c-3.094-23.193-9.597-45.667-19.328-66.797
		c-5.35-11.618-11.743-22.912-18.999-33.569c-1.148-1.686-2.322-3.361-3.519-5.023c-3.591-4.986-7.392-9.85-11.344-14.516
		c-0.007-0.008-0.013-0.015-0.02-0.023l-9.032-10.663l0.055,0.66c-1.404-1.481-2.815-2.944-4.236-4.365
		c-1.252-1.252-2.53-2.5-3.83-3.74c0.822,0.12,1.645,0.239,2.465,0.368c0.581,0.091,1.164,0.177,1.744,0.273
		c1.79,0.295,3.575,0.606,5.351,0.943c3.044,0.578,6.079,1.219,9.098,1.923c9.059,2.112,17.985,4.785,26.637,7.98
		c20.98,7.749,40.682,18.608,58.557,32.276c1.808,1.382,3.594,2.793,5.358,4.228c0.371,0.302,0.731,0.618,1.1,0.923
		c1.378,1.136,2.752,2.277,4.101,3.445c0.584,0.506,1.152,1.03,1.731,1.542c1.118,0.988,2.239,1.972,3.337,2.981
		c0.649,0.597,1.279,1.213,1.921,1.817c1.006,0.947,2.017,1.888,3.006,2.854c0.674,0.658,1.328,1.334,1.993,2.001
		c0.934,0.935,1.874,1.864,2.791,2.815c0.676,0.701,1.333,1.42,1.999,2.129c0.883,0.939,1.771,1.872,2.638,2.826
		c0.669,0.737,1.319,1.491,1.979,2.236c0.839,0.948,1.684,1.891,2.506,2.853c0.659,0.771,1.299,1.557,1.947,2.337
		c0.798,0.958,1.601,1.912,2.383,2.883c0.643,0.799,1.268,1.614,1.9,2.422c0.761,0.972,1.527,1.939,2.272,2.923
		c0.625,0.826,1.232,1.667,1.845,2.502c0.725,0.986,1.455,1.968,2.164,2.965c0.605,0.851,1.191,1.716,1.785,2.575
		c0.69,1,1.384,1.996,2.058,3.007c0.584,0.876,1.149,1.764,1.72,2.647c0.655,1.013,1.315,2.024,1.954,3.048
		c0.56,0.897,1.101,1.805,1.648,2.709c0.622,1.029,1.248,2.056,1.854,3.094c0.534,0.916,1.05,1.843,1.572,2.767
		c0.589,1.043,1.18,2.085,1.752,3.138c0.508,0.935,0.999,1.88,1.493,2.823c0.555,1.058,1.113,2.115,1.651,3.182
		c0.48,0.952,0.943,1.912,1.409,2.87c0.377,0.775,0.752,1.552,1.12,2.332C438.281,392.221,398.756,433.119,349.893,456.128z"/>
</g>
</svg>
