<?xml version="1.0" encoding="utf-8"?>
<!-- Generator: Adobe Illustrator 18.0.0, SVG Export Plug-In . SVG Version: 6.00 Build 0)  -->
<!DOCTYPE svg PUBLIC "-//W3C//DTD SVG 1.1//EN" "http://www.w3.org/Graphics/SVG/1.1/DTD/svg11.dtd">
<svg version="1.1" id="Layer_1" xmlns="http://www.w3.org/2000/svg" xmlns:xlink="http://www.w3.org/1999/xlink" x="0px" y="0px"
	 viewBox="0 0 512 512" style="enable-background:new 0 0 512 512;" xml:space="preserve">
<g>
	<path style="opacity:0.4;" d="M426.2,60.9c0-5.5,4.4-9.9,9.8-10V38c-5.4-0.1-9.8-4.5-9.8-10h-12.8c0,5.5-4.5,10-10,10
		s-10-4.5-10-10h-12.8c0,5.5-4.5,10-10,10s-10-4.5-10-10h-12.8c0,5.5-4.5,10-10,10s-10-4.5-10-10H315c0,5.5-4.5,10-10,10
		s-10-4.5-10-10h-12.8c0,5.5-4.5,10-10,10s-10-4.5-10-10h-12.8c0,5.5-4.5,10-10,10s-10-4.5-10-10h-12.8c0,5.5-4.5,10-10,10
		s-10-4.5-10-10h-12.8c0,5.5-4.5,10-10,10s-10-4.5-10-10H151c0,5.5-4.5,10-10,10s-10-4.5-10-10h-12.8c0,5.5-4.5,10-10,10
		s-10-4.5-10-10H85.8c0,5.5-4.4,9.9-9.8,10v12.9c5.4,0.1,9.8,4.5,9.8,10s-4.4,9.9-9.8,10v12.9c5.4,0.1,9.8,4.5,9.8,10
		s-4.4,9.9-9.8,10v12.9c5.4,0.1,9.8,4.5,9.8,10c0,5.5-4.4,9.9-9.8,10v12.9c5.4,0.1,9.8,4.5,9.8,10s-4.4,9.9-9.8,10v12.9
		c5.4,0.1,9.8,4.5,9.8,10s-4.4,9.9-9.8,10v12.9c5.4,0.1,9.8,4.5,9.8,10s-4.4,9.9-9.8,10V248c5.4,0.1,9.8,4.5,9.8,10s-4.4,9.9-9.8,10
		v12.9c5.4,0.1,9.8,4.5,9.8,10s-4.4,9.9-9.8,10v12.9c5.4,0.1,9.8,4.5,9.8,10s-4.4,9.9-9.8,10v12.9c5.4,0.1,9.8,4.5,9.8,10
		s-4.4,9.9-9.8,10v12.9c5.4,0.1,9.8,4.5,9.8,10s-4.4,9.9-9.8,10v12.9c5.4,0.1,9.8,4.5,9.8,10s-4.4,9.9-9.8,10v12.9
		c5.4,0.1,9.8,4.5,9.8,10s-4.4,9.9-9.8,10V478c5.4,0.1,9.8,4.5,9.8,10h12.8c0-5.5,4.5-10,10-10s10,4.5,10,10h12.8
		c0-5.5,4.5-10,10-10s10,4.5,10,10h12.8c0-5.5,4.5-10,10-10s10,4.5,10,10H197c0-5.5,4.5-10,10-10s10,4.5,10,10h12.8
		c0-5.5,4.5-10,10-10s10,4.5,10,10h12.8c0-5.5,4.5-10,10-10s10,4.5,10,10h12.8c0-5.5,4.5-10,10-10s10,4.5,10,10h12.8
		c0-5.5,4.5-10,10-10s10,4.5,10,10H361c0-5.5,4.5-10,10-10s10,4.5,10,10h12.8c0-5.5,4.5-10,10-10s10,4.5,10,10h12.8
		c0-5.5,4.4-9.9,9.8-10v-12.9c-5.4-0.1-9.8-4.5-9.8-10s4.4-9.9,9.8-10v-12.9c-5.4-0.1-9.8-4.5-9.8-10s4.4-9.9,9.8-10v-12.9
		c-5.4-0.1-9.8-4.5-9.8-10s4.4-9.9,9.8-10v-12.9c-5.4-0.1-9.8-4.5-9.8-10s4.4-9.9,9.8-10v-12.9c-5.4-0.1-9.8-4.5-9.8-10
		s4.4-9.9,9.8-10v-12.9c-5.4-0.1-9.8-4.5-9.8-10s4.4-9.9,9.8-10V268c-5.4-0.1-9.8-4.5-9.8-10s4.4-9.9,9.8-10v-12.9
		c-5.4-0.1-9.8-4.5-9.8-10s4.4-9.9,9.8-10v-12.9c-5.4-0.1-9.8-4.5-9.8-10s4.4-9.9,9.8-10v-12.9c-5.4-0.1-9.8-4.5-9.8-10
		s4.4-9.9,9.8-10v-12.9c-5.4-0.1-9.8-4.5-9.8-10s4.4-9.9,9.8-10v-12.9c-5.4-0.1-9.8-4.5-9.8-10s4.4-9.9,9.8-10V70.8
		C430.6,70.8,426.2,66.3,426.2,60.9z"/>
	<path style="fill:#FFFBE9;" d="M426.2,58.9c0-5.5,4.4-9.9,9.8-10V36c-5.4-0.1-9.8-4.5-9.8-10h-12.8c0,5.5-4.5,10-10,10
		s-10-4.5-10-10h-12.8c0,5.5-4.5,10-10,10s-10-4.5-10-10h-12.8c0,5.5-4.5,10-10,10s-10-4.5-10-10H315c0,5.5-4.5,10-10,10
		s-10-4.5-10-10h-12.8c0,5.5-4.5,10-10,10s-10-4.5-10-10h-12.8c0,5.5-4.5,10-10,10s-10-4.5-10-10h-12.8c0,5.5-4.5,10-10,10
		s-10-4.5-10-10h-12.8c0,5.5-4.5,10-10,10s-10-4.5-10-10H151c0,5.5-4.5,10-10,10s-10-4.5-10-10h-12.8c0,5.5-4.5,10-10,10
		s-10-4.5-10-10H85.8c0,5.5-4.4,9.9-9.8,10v12.9c5.4,0.1,9.8,4.5,9.8,10s-4.4,9.9-9.8,10v12.9c5.4,0.1,9.8,4.5,9.8,10
		s-4.4,9.9-9.8,10v12.9c5.4,0.1,9.8,4.5,9.8,10c0,5.5-4.4,9.9-9.8,10v12.9c5.4,0.1,9.8,4.5,9.8,10s-4.4,9.9-9.8,10v12.9
		c5.4,0.1,9.8,4.5,9.8,10s-4.4,9.9-9.8,10v12.9c5.4,0.1,9.8,4.5,9.8,10s-4.4,9.9-9.8,10V246c5.4,0.1,9.8,4.5,9.8,10s-4.4,9.9-9.8,10
		v12.9c5.4,0.1,9.8,4.5,9.8,10s-4.4,9.9-9.8,10v12.9c5.4,0.1,9.8,4.5,9.8,10s-4.4,9.9-9.8,10v12.9c5.4,0.1,9.8,4.5,9.8,10
		s-4.4,9.9-9.8,10v12.9c5.4,0.1,9.8,4.5,9.8,10s-4.4,9.9-9.8,10v12.9c5.4,0.1,9.8,4.5,9.8,10s-4.4,9.9-9.8,10v12.9
		c5.4,0.1,9.8,4.5,9.8,10s-4.4,9.9-9.8,10V476c5.4,0.1,9.8,4.5,9.8,10h12.8c0-5.5,4.5-10,10-10s10,4.5,10,10h12.8
		c0-5.5,4.5-10,10-10s10,4.5,10,10h12.8c0-5.5,4.5-10,10-10s10,4.5,10,10H197c0-5.5,4.5-10,10-10s10,4.5,10,10h12.8
		c0-5.5,4.5-10,10-10s10,4.5,10,10h12.8c0-5.5,4.5-10,10-10s10,4.5,10,10h12.8c0-5.5,4.5-10,10-10s10,4.5,10,10h12.8
		c0-5.5,4.5-10,10-10s10,4.5,10,10H361c0-5.5,4.5-10,10-10s10,4.5,10,10h12.8c0-5.5,4.5-10,10-10s10,4.5,10,10h12.8
		c0-5.5,4.4-9.9,9.8-10v-12.9c-5.4-0.1-9.8-4.5-9.8-10s4.4-9.9,9.8-10v-12.9c-5.4-0.1-9.8-4.5-9.8-10s4.4-9.9,9.8-10v-12.9
		c-5.4-0.1-9.8-4.5-9.8-10s4.4-9.9,9.8-10v-12.9c-5.4-0.1-9.8-4.5-9.8-10s4.4-9.9,9.8-10v-12.9c-5.4-0.1-9.8-4.5-9.8-10
		s4.4-9.9,9.8-10v-12.9c-5.4-0.1-9.8-4.5-9.8-10s4.4-9.9,9.8-10V266c-5.4-0.1-9.8-4.5-9.8-10s4.4-9.9,9.8-10v-12.9
		c-5.4-0.1-9.8-4.5-9.8-10s4.4-9.9,9.8-10v-12.9c-5.4-0.1-9.8-4.5-9.8-10s4.4-9.9,9.8-10v-12.9c-5.4-0.1-9.8-4.5-9.8-10
		s4.4-9.9,9.8-10v-12.9c-5.4-0.1-9.8-4.5-9.8-10s4.4-9.9,9.8-10v-12.9c-5.4-0.1-9.8-4.5-9.8-10s4.4-9.9,9.8-10V68.8
		C430.6,68.8,426.2,64.3,426.2,58.9z"/>
	<g>
		<g>
			<rect x="106" y="356" style="fill:#FF0000;" width="300" height="100"/>
			<linearGradient id="SVGID_1_" gradientUnits="userSpaceOnUse" x1="106" y1="306" x2="406" y2="306">
				<stop  offset="0" style="stop-color:#EA0000"/>
				<stop  offset="1" style="stop-color:#DA0000"/>
			</linearGradient>
			<rect x="106" y="256" style="fill:url(#SVGID_1_);" width="300" height="100"/>
			<linearGradient id="SVGID_2_" gradientUnits="userSpaceOnUse" x1="106" y1="206" x2="406" y2="206">
				<stop  offset="0" style="stop-color:#D40000"/>
				<stop  offset="1" style="stop-color:#B40000"/>
			</linearGradient>
			<rect x="106" y="156" style="fill:url(#SVGID_2_);" width="300" height="100"/>
			<linearGradient id="SVGID_3_" gradientUnits="userSpaceOnUse" x1="106" y1="106" x2="406" y2="106">
				<stop  offset="0" style="stop-color:#BF0000"/>
				<stop  offset="1" style="stop-color:#8F0000"/>
			</linearGradient>
			<rect x="106" y="56" style="fill:url(#SVGID_3_);" width="300" height="100"/>
		</g>
		<g style="opacity:0.5;">
			<rect x="106" y="56" style="fill:#FF3600;" width="100" height="400"/>
			<rect x="206" y="56" style="fill:#7F0404;" width="100" height="400"/>
			<rect x="306" y="56" style="fill:#510101;" width="100" height="400"/>
		</g>
	</g>
</g>
<g id="g2305_1_" transform="matrix(2.17444, 0, 0, 2.17437, -218.687, -223.172)">
	<path id="path2314_2_" style="fill:#FFFFFF;" d="M260.36,207.585h-58.644l3.06-14.32h35.743l3.279-15.412h-51.374l-16.178,76.297
		h15.521l7.104-33.339h37.23l-32.35,32.027l5.684,10.056c2.622-1.749,6.885-1.968,9.837-1.968c5.247,0,10.385,1.75,15.739,1.75
		c4.91,0,9.936-0.328,18.135-4.264l2.865-13.444c-5.575,2.294-13.825,4.481-21,4.481c-2.95,0-5.683-0.655-8.524-1.093l31.359-30.496
		L260.36,207.585z"/>
</g>
</svg>
