<?xml version="1.0" encoding="utf-8"?>
<!-- Generator: Adobe Illustrator 18.0.0, SVG Export Plug-In . SVG Version: 6.00 Build 0)  -->
<!DOCTYPE svg PUBLIC "-//W3C//DTD SVG 1.1//EN" "http://www.w3.org/Graphics/SVG/1.1/DTD/svg11.dtd">
<svg version="1.1" id="Layer_1" xmlns="http://www.w3.org/2000/svg" xmlns:xlink="http://www.w3.org/1999/xlink" x="0px" y="0px"
	 viewBox="0 0 512 512" style="enable-background:new 0 0 512 512;" xml:space="preserve">
<circle style="fill:#FF8C03;" cx="256" cy="256" r="230"/>
<g>
	<path style="fill:#231F20;" d="M142.9,55.7l-87.2,87.2c-5,8.8-9.4,17.9-13.1,27.3L170.2,42.6C160.7,46.4,151.6,50.8,142.9,55.7z"/>
	<path style="fill:#231F20;" d="M191.2,35.3L35.3,191.2c-1.8,6.2-3.4,12.4-4.7,18.8L210,30.6C203.6,31.9,197.3,33.5,191.2,35.3z"/>
	<path style="fill:#231F20;" d="M226.4,27.9L27.9,226.4c-0.7,5.1-1.1,10.3-1.5,15.6L242,26.4C236.7,26.8,231.5,27.2,226.4,27.9z"/>
	<path style="fill:#231F20;" d="M256.1,26L26,256.1c0,4.6,0.2,9.2,0.4,13.7L269.9,26.4C265.3,26.2,260.7,26,256.1,26z"/>
	<path style="fill:#231F20;" d="M282.5,27.5L27.5,282.5c0.5,4.2,1.1,8.3,1.8,12.4L294.8,29.3C290.8,28.6,286.6,28,282.5,27.5z"/>
	<path style="fill:#231F20;" d="M306.3,31.5L31.5,306.3c0.8,3.8,1.8,7.6,2.8,11.3L317.6,34.4C313.9,33.3,310.1,32.4,306.3,31.5z"/>
	<path style="fill:#FFFFFF;" d="M255.6,110.1L235.7,130c0,0.3,0,0.5,0,0.8h0v13.4l31.1-31.1C263.3,111,259.5,110,255.6,110.1z"/>
	<path style="fill:#231F20;" d="M235.7,130.8L235.7,130.8c0-0.3,0-0.5,0-0.8L37.6,328.1c1.2,3.5,2.4,7,3.7,10.4l194.4-194.4V130.8z"
		/>
	<path style="fill:#231F20;" d="M266.7,113.1l71.8-71.8c-3.4-1.3-6.9-2.6-10.4-3.7l-72.5,72.5C259.5,110,263.3,111,266.7,113.1z"/>
	<path style="fill:#FFFFFF;" d="M139.4,259.1c-4.2,4.2-6.1,9.7-5.9,15.1l21.1-21.1C149,253,143.5,254.9,139.4,259.1z"/>
	<path style="fill:#FFFFFF;" d="M276.4,130.8L276.4,130.8c0.1-3.7-0.9-7.4-2.9-10.7l-37.8,37.8V172l40.7-40.7V130.8z"/>
	<path style="fill:#231F20;" d="M139.4,259.1c4.2-4.2,9.7-6.1,15.1-5.9l81.2-81.2v-14.1L45.3,348.3c1.4,3.3,2.9,6.5,4.5,9.6
		l83.7-83.7C133.2,268.8,135.2,263.3,139.4,259.1z"/>
	<path style="fill:#231F20;" d="M276.4,130.8L276.4,130.8l0,0.5l81.5-81.5c-3.2-1.6-6.4-3.1-9.6-4.5L273.5,120
		C275.5,123.3,276.4,127,276.4,130.8z"/>
	<path style="fill:#FFFFFF;" d="M168.2,259.2c0,0-0.1-0.1-0.1-0.1c-1-1-2.1-1.9-3.2-2.6l-28.2,28.2c0.7,1.1,1.6,2.2,2.6,3.2l0,0
		l4.1,4.1l28.8-28.8L168.2,259.2z"/>
	<polygon style="fill:#FFFFFF;" points="235.7,199.9 276.4,159.2 276.4,145 235.7,185.7 	"/>
	<path style="fill:#231F20;" d="M276.4,159.2l99.5-99.5c-2.9-1.8-5.9-3.5-8.9-5.2L276.4,145V159.2z"/>
	<path style="fill:#231F20;" d="M139.4,287.9L139.4,287.9c-1-1-1.9-2.1-2.6-3.2l-82.3,82.3c1.7,3,3.4,6,5.2,8.9l83.8-83.8
		L139.4,287.9z"/>
	<path style="fill:#231F20;" d="M235.7,185.7l-70.8,70.8c1.1,0.8,2.2,1.6,3.2,2.6c0,0,0.1,0.1,0.1,0.1l4,4l63.4-63.4V185.7z"/>
	<polygon style="fill:#FFFFFF;" points="235.7,227.7 276.4,187 276.4,172.9 235.7,213.6 	"/>
	
		<rect x="147.9" y="283" transform="matrix(0.7071 -0.7071 0.7071 0.7071 -154.375 203.3512)" style="fill:#FFFFFF;" width="40.7" height="10"/>
	<polygon style="fill:#231F20;" points="235.7,213.6 179.1,270.1 186.2,277.2 235.7,227.7 	"/>
	<path style="fill:#231F20;" d="M150.4,298.9L65,384.2c1.9,2.8,3.8,5.6,5.9,8.3l86.5-86.5L150.4,298.9z"/>
	<path style="fill:#231F20;" d="M276.4,187L392.5,70.9c-2.7-2-5.5-4-8.3-5.9L276.4,172.9V187z"/>
	<polygon style="fill:#FFFFFF;" points="235.7,255.6 276.4,214.9 276.4,200.7 235.7,241.4 	"/>
	
		<rect x="161.9" y="296.9" transform="matrix(0.7071 -0.7071 0.7071 0.7071 -160.1427 217.2758)" style="fill:#FFFFFF;" width="40.7" height="10"/>
	<path style="fill:#231F20;" d="M164.3,312.8l-87.4,87.4c2.1,2.6,4.3,5.2,6.5,7.7l88-88L164.3,312.8z"/>
	<path style="fill:#231F20;" d="M276.4,214.9L407.9,83.3c-2.5-2.2-5.1-4.4-7.7-6.5L276.4,200.7V214.9z"/>
	<polygon style="fill:#231F20;" points="235.7,241.4 193.1,284 200.1,291.1 235.7,255.6 	"/>
	<polygon style="fill:#FFFFFF;" points="235.7,283.4 276.4,242.7 276.4,228.6 235.7,269.3 	"/>
	
		<rect x="175.8" y="310.9" transform="matrix(0.7071 -0.7071 0.7071 0.7071 -165.9104 231.2006)" style="fill:#FFFFFF;" width="40.7" height="10"/>
	<path style="fill:#231F20;" d="M178.2,326.7l-88.3,88.3c2.3,2.4,4.7,4.8,7.1,7.1l88.3-88.3L178.2,326.7z"/>
	<polygon style="fill:#231F20;" points="235.7,269.3 207,297.9 214.1,305 235.7,283.4 	"/>
	<path style="fill:#231F20;" d="M276.4,242.7L422.1,96.9c-2.3-2.4-4.7-4.8-7.1-7.1L276.4,228.6V242.7z"/>
	
		<rect x="189.7" y="324.8" transform="matrix(0.7071 -0.7071 0.7071 0.7071 -171.6779 245.1247)" style="fill:#FFFFFF;" width="40.7" height="10"/>
	<polygon style="fill:#FFFFFF;" points="235.7,311.3 276.4,270.6 276.4,256.4 235.7,297.1 	"/>
	<path style="fill:#231F20;" d="M276.4,270.6l158.8-158.8c-2.1-2.6-4.3-5.2-6.5-7.7L276.4,256.4V270.6z"/>
	<path style="fill:#231F20;" d="M192.1,340.7l-88,88c2.5,2.2,5.1,4.4,7.7,6.5l87.4-87.4L192.1,340.7z"/>
	<polygon style="fill:#231F20;" points="235.7,297.1 220.9,311.9 228,318.9 235.7,311.3 	"/>
	<polygon style="fill:#FFFFFF;" points="276.4,284.3 235.7,325 235.7,326.6 234.8,325.8 206.1,354.6 213.1,361.6 276.4,298.4 	"/>
	<path style="fill:#231F20;" d="M206.1,354.6l-86.5,86.5c2.7,2,5.5,4,8.3,5.9l85.3-85.3L206.1,354.6z"/>
	<path style="fill:#231F20;" d="M276.4,298.4L447,127.8c-1.9-2.8-3.8-5.6-5.9-8.3L276.4,284.3V298.4z"/>
	<polygon style="fill:#231F20;" points="235.7,326.6 235.7,325 234.8,325.8 	"/>
	<polygon style="fill:#FFFFFF;" points="276.4,312.1 220,368.5 227,375.6 276.4,326.2 	"/>
	<path style="fill:#231F20;" d="M276.4,326.2l181.2-181.2c-1.7-3-3.4-6-5.2-8.9l-176,176V326.2z"/>
	<path style="fill:#231F20;" d="M220,368.5l-83.8,83.8c2.9,1.8,5.9,3.5,8.9,5.2l82-82L220,368.5z"/>
	<path style="fill:#FFFFFF;" d="M362.7,253.6L233.9,382.4l1.8,1.8v0h0l5.3,5.3l131-131C369.3,256,366.1,254.4,362.7,253.6z"/>
	<path style="fill:#231F20;" d="M372,258.5l94.8-94.8c-1.4-3.3-2.9-6.5-4.5-9.6l-99.5,99.5C366.1,254.4,369.3,256,372,258.5z"/>
	<path style="fill:#231F20;" d="M235.7,384.2L235.7,384.2L235.7,384.2l-1.8-1.8l-79.8,79.8c3.2,1.6,6.4,3.1,9.6,4.5l77.2-77.2
		L235.7,384.2z"/>
	<path style="fill:#FFFFFF;" d="M377.4,266.7L247.8,396.4l3.6,3.6l0.2,0.2c1.1,1.1,2.6,1.7,4.3,1.7c0.1,0,0.2,0,0.3,0L377,281.3
		C379,276.6,379.1,271.5,377.4,266.7z"/>
	<path style="fill:#231F20;" d="M377,281.3l97.4-97.4c-1.2-3.5-2.4-7-3.7-10.4l-93.3,93.3C379.1,271.5,379,276.6,377,281.3z"/>
	<path style="fill:#231F20;" d="M256,402c-1.7,0-3.2-0.7-4.3-1.7l-0.2-0.2l-3.6-3.6l-74.4,74.4c3.4,1.3,6.9,2.6,10.4,3.7l72.5-72.5
		C256.2,402,256.1,402,256,402z"/>
	<path style="fill:#231F20;" d="M477.6,194.4L194.4,477.6c3.7,1,7.5,2,11.3,2.8l274.8-274.8C479.6,201.9,478.7,198.1,477.6,194.4z"
		/>
	<path style="fill:#231F20;" d="M482.7,217.2L217.2,482.7c4.1,0.7,8.2,1.3,12.4,1.8l254.9-254.9C484,225.4,483.4,221.2,482.7,217.2z
		"/>
	<path style="fill:#231F20;" d="M485.6,242.1L242.1,485.6c4.5,0.3,9.1,0.4,13.7,0.4L486,255.9C486,251.3,485.8,246.7,485.6,242.1z"
		/>
	<path style="fill:#231F20;" d="M485.6,270L270,485.6c5.2-0.3,10.4-0.8,15.6-1.5l198.5-198.5C484.8,280.5,485.2,275.3,485.6,270z"/>
	<path style="fill:#231F20;" d="M481.4,302L302,481.4c6.4-1.3,12.6-2.9,18.8-4.7l155.9-155.9C478.5,314.7,480.1,308.4,481.4,302z"/>
	<path style="fill:#231F20;" d="M456.3,369.1c5-8.8,9.4-17.9,13.1-27.3L341.8,469.4c9.4-3.8,18.5-8.2,27.3-13.1L456.3,369.1z"/>
</g>
</svg>
