<?xml version="1.0" encoding="utf-8"?>
<!-- Generator: Adobe Illustrator 18.0.0, SVG Export Plug-In . SVG Version: 6.00 Build 0)  -->
<!DOCTYPE svg PUBLIC "-//W3C//DTD SVG 1.1//EN" "http://www.w3.org/Graphics/SVG/1.1/DTD/svg11.dtd">
<svg version="1.1" id="Layer_1" xmlns="http://www.w3.org/2000/svg" xmlns:xlink="http://www.w3.org/1999/xlink" x="0px" y="0px"
	 viewBox="0 0 512 512" style="enable-background:new 0 0 512 512;" xml:space="preserve">
<g>
	<g id="g210" transform="translate(207.5254,182.3724)">
		<path id="path212" style="fill:#088EFF;" d="M-43.484,213.302c-8.245,14.017-27.382,7.509-16.683-14.241
			C-41.374,157.347,0.88,53.345,23.763,2.064c6.666-15.529,24.409-5.539,19.13,7.495C16.364,70.931-19.255,163.069-43.484,213.302"
			/>
	</g>
	<g id="g214" transform="translate(268.094,215.2304)">
		<path id="path216" style="fill:#088EFF;" d="M10.849,118.111c-7.237,11.995-26.371,3.468-15.672-18.282
			C13.97,58.115,56.223-45.885,79.107-97.168c6.666-15.529,24.409-5.537,19.13,7.495C71.708-28.303,35.078,67.876,10.849,118.111"/>
	</g>
	<g id="g218" transform="translate(244.8145,219.3655)">
		<path id="path220" style="fill:#088EFF;" d="M-10.034,106.132c-7.237,16.036-25.36,8.518-14.66-13.23
			C-5.904,51.187,2.005,25.98,24.889-25.301c6.666-15.529,24.409-5.537,19.13,7.495C17.49,43.563,14.195,55.896-10.034,106.132"/>
	</g>
	<g id="g222" transform="translate(134.8389,237.7106)">
		<path id="path224" style="fill:#088EFF;" d="M-108.687,52.985c0.981,7.288,5.15,24.204,6.475,29.332
			C-62.98,73.663-32.101,57.601,2.863,35.521c9.948,7.814,16.197,14.511,24.155,22.615c2.586-4.763,8.838-18.191,11.111-21.727
			c-8.322-8.114-11.775-12.866-18.399-17.662c7.971-5.71,8.083-7.326,27.13-24.132c-3.978-7.518-6.158-14.899-10.138-22.222
			C27.504-17.701,20.532-9.743,0.661,3.428c-28.325-14.886-53.785-29.924-104.772-43.442c-2.455,8.973-3.716,14.347-4.727,24.343
			c21.647,7.228,63.487,18.553,87.099,35.08C-39.206,31.712-63.147,43.636-108.687,52.985"/>
	</g>
	<g id="g226" transform="translate(224.2919,273.5047)">
		<path id="path228" style="fill:#088EFF;" d="M-28.444-50.712c3.274-7.438,5.338-12.45,10.225-23.535
			C-36.959-111.239-39.646-127-56.969-158.51c-7.385-12.56-24.001-3.595-17.631,8.377C-57.093-114.751-46.589-89.594-28.444-50.712"
			/>
	</g>
	<g id="g230" transform="translate(377.241,274.5592)">
		<path id="path232" style="fill:#088EFF;" d="M108.759-53.767c-0.981-7.287-5.15-24.204-6.475-29.332
			C63.052-74.445,32.173-58.383-2.791-36.303c-9.948-7.814-16.197-14.511-24.155-22.615c-2.586,4.763-8.838,18.191-11.111,21.727
			c8.322,8.114,11.775,12.866,18.399,17.662c-7.971,5.71-8.083,7.326-27.13,24.132c3.978,7.518,6.158,14.899,10.138,22.222
			C-27.432,16.919-20.46,8.961-0.589-4.211c28.325,14.888,52.021,30.364,103.008,43.882c2.897-9.413,4.598-15.228,5.61-25.223
			C86.381,7.221,45.426-3.662,21.812-20.191C39.278-32.494,63.218-44.418,108.759-53.767"/>
	</g>
	<g id="g234" transform="translate(287.3369,241.3139)">
		<path id="path236" style="fill:#088EFF;" d="M28.111,42.546c-3.274,7.438-5.338,12.45-10.225,23.535
			c18.741,36.992,21.427,52.753,38.751,84.263c7.385,12.56,24.001,3.595,17.631-8.377C56.76,106.585,46.256,81.428,28.111,42.546"/>
	</g>
</g>
</svg>
