<?xml version="1.0" encoding="utf-8"?>
<!-- Generator: Adobe Illustrator 18.0.0, SVG Export Plug-In . SVG Version: 6.00 Build 0)  -->
<!DOCTYPE svg PUBLIC "-//W3C//DTD SVG 1.1//EN" "http://www.w3.org/Graphics/SVG/1.1/DTD/svg11.dtd">
<svg version="1.1" id="Layer_1" xmlns="http://www.w3.org/2000/svg" xmlns:xlink="http://www.w3.org/1999/xlink" x="0px" y="0px"
	 viewBox="0 0 512 512" style="enable-background:new 0 0 512 512;" xml:space="preserve">
<g>
	<path style="fill:#3A0101;" d="M486,283.6v-55.2L434.2,210c-4.4-16.9-11.1-32.8-19.7-47.4l0.1-0.1l23.6-49.7l-39-39l-49.7,23.6
		l-0.1,0.1c-14.6-8.7-30.5-15.4-47.4-19.7L283.6,26h-55.2L210,77.8c-16.9,4.4-32.8,11.1-47.4,19.7l-0.1-0.1l-49.7-23.6l-39,39
		l23.6,49.7l0.1,0.1c-8.7,14.6-15.4,30.5-19.7,47.4L26,228.4v55.2L77.8,302c4.4,16.9,11.1,32.8,19.7,47.4l-0.1,0.1l-23.6,49.7l39,39
		l49.7-23.6l0.1-0.1c14.6,8.7,30.5,15.4,47.4,19.7l18.4,51.8h55.2l18.4-51.8c16.9-4.4,32.8-11.1,47.4-19.7l0.1,0.1l49.7,23.6l39-39
		l-23.6-49.7l-0.1-0.1c8.7-14.6,15.4-30.5,19.7-47.4L486,283.6z"/>
	<path style="fill:#FFFFFF;" d="M370.3,256c0-11.9-4.5-23-12.4-32.9c7.8-9.8,12.1-20.9,12.1-32.6c0-40.1-51.1-72.6-114.1-72.6
		s-114.1,32.5-114.1,72.6c0,11.9,4.5,23.1,12.4,32.9c-7.7,9.8-12.1,20.9-12.1,32.6c0,11.7,4.4,22.8,12.1,32.6
		c-7.9,9.9-12.4,21.1-12.4,32.9c0,40.1,51.1,72.6,114.1,72.6S370,361.6,370,321.5c0-11.7-4.4-22.8-12.1-32.6
		C365.8,279,370.3,267.9,370.3,256z M338,288.9c-18.2,15.2-48.4,25.4-81.8,25.4c-33.6,0-63.9-10.3-82.1-25.6
		c-3.9-3.3-7.2-6.7-9.9-10.4c-5-6.9-7.9-14.4-7.9-22.2c0-7.8,2.8-15.3,7.9-22.2c11,9.4,25.5,17.1,42.4,22.2
		c14.9,4.6,31.6,7.1,49.3,7.1c17.7,0,34.4-2.6,49.3-7.1c17-5.2,31.6-13,42.7-22.5c5.2,7,8.1,14.6,8.1,22.5c0,7.9-2.9,15.6-8.1,22.5
		C345.2,282.2,341.8,285.6,338,288.9z M255.9,132.2c54.1,0,99.8,26.7,99.8,58.3c0,7.8-2.8,15.4-7.9,22.2c-2.7,3.7-6,7.1-9.9,10.4
		c-18.2,15.4-48.5,25.6-82.1,25.6c-33.4,0-63.6-10.2-81.8-25.4c-3.9-3.2-7.2-6.7-9.9-10.3c-5.2-7-8.1-14.6-8.1-22.5
		C156.1,158.9,201.8,132.2,255.9,132.2z M255.9,379.8c-54.1,0-99.8-26.7-99.8-58.3c0-7.9,2.9-15.6,8.1-22.5
		c20.8,18,54.2,29.7,92,29.7c37.6,0,70.9-11.5,91.7-29.4c5,6.9,7.9,14.4,7.9,22.2C355.7,353.1,310,379.8,255.9,379.8z"/>
</g>
</svg>
