<?xml version="1.0" encoding="utf-8"?>
<!-- Generator: Adobe Illustrator 18.0.0, SVG Export Plug-In . SVG Version: 6.00 Build 0)  -->
<!DOCTYPE svg PUBLIC "-//W3C//DTD SVG 1.1//EN" "http://www.w3.org/Graphics/SVG/1.1/DTD/svg11.dtd">
<svg version="1.1" id="Layer_1" xmlns="http://www.w3.org/2000/svg" xmlns:xlink="http://www.w3.org/1999/xlink" x="0px" y="0px"
	 viewBox="0 0 512 512" style="enable-background:new 0 0 512 512;" xml:space="preserve">
<circle style="fill:#E2380A;" cx="256" cy="256" r="230"/>
<path id="path212" style="fill:#FFFFFF;" d="M308.625,195.283c-10.077,0-18.221-8.17-18.221-18.221
	c0-10.077,8.144-18.222,18.221-18.222c10.051,0,18.209,8.145,18.209,18.222C326.834,187.113,318.677,195.283,308.625,195.283
	 M203.374,353.16c-10.077,0-18.221-8.17-18.221-18.221c0-10.077,8.144-18.221,18.221-18.221c10.051,0,18.209,8.144,18.209,18.221
	C221.583,344.99,213.426,353.16,203.374,353.16 M203.374,158.84c10.051,0,18.209,8.145,18.209,18.222
	c0,10.051-8.158,18.221-18.209,18.221c-10.065,0-18.209-8.17-18.209-18.221C185.166,166.985,193.309,158.84,203.374,158.84
	 M340.201,177.062c0-17.446-14.13-31.576-31.575-31.576c-17.445,0-31.575,14.13-31.575,31.576c0,12.643,7.473,23.47,18.209,28.51
	c-1.08,20.839-16.709,27.917-43.878,38.1c-11.446,4.303-24.062,9.065-34.851,16.235V205.69
	c10.855-4.999,18.419-15.906,18.419-28.628c0-17.446-14.13-31.576-31.575-31.576s-31.575,14.13-31.575,31.576
	c0,12.721,7.577,23.629,18.419,28.628v100.634c-10.854,4.986-18.419,15.892-18.419,28.615c0,17.445,14.13,31.575,31.575,31.575
	s31.575-14.142,31.575-31.575c0-12.644-7.472-23.471-18.208-28.51c1.079-20.826,16.721-27.917,43.876-38.101
	c26.707-10.025,59.742-22.51,61.045-62.571C332.57,200.782,340.201,189.837,340.201,177.062"/>
</svg>
