<?xml version="1.0" encoding="utf-8"?>
<!-- Generator: Adobe Illustrator 18.0.0, SVG Export Plug-In . SVG Version: 6.00 Build 0)  -->
<!DOCTYPE svg PUBLIC "-//W3C//DTD SVG 1.1//EN" "http://www.w3.org/Graphics/SVG/1.1/DTD/svg11.dtd">
<svg version="1.1" id="Layer_1" xmlns="http://www.w3.org/2000/svg" xmlns:xlink="http://www.w3.org/1999/xlink" x="0px" y="0px"
	 viewBox="0 0 512 512" style="enable-background:new 0 0 512 512;" xml:space="preserve">
<g>
	<g>
		<g>
			<g>
				<g>
					<g id="g22">
					</g>
					<g>
						<g>
							<g id="g84">
							</g>
							<g id="g10" transform="matrix(1.25,0,0,-1.25,0,640)">
								<g id="g226">
									<g>
										<g id="g228">
											<g id="g234" transform="translate(149.7563,335.9818)">
												<path id="path236" style="fill:#FFFFFF;" d="M-116.41,100.291v-283.24c0-16.477,13.357-29.832,29.834-29.832h26.027
													L110.905-41.329L-60.549,130.125h-26.027C-103.052,130.125-116.41,116.768-116.41,100.291"/>
											</g>
											<g id="g238" transform="translate(327.6289,141.9814)">
												<path id="path240" style="fill:#F7F7F7;" d="M-7.236-18.782h26.027c16.477,0,29.834,13.357,29.834,29.834v283.238
													c0,16.478-13.357,29.834-29.834,29.834H-7.236L-178.69,152.672L-7.236-18.782z"/>
											</g>
											<g id="g242" transform="translate(362.2437,160.4683)">
												<path id="path244" style="fill:#F4F4F4;" d="M14.01-7.435v26.027l-171.454,171.454L-328.896,18.592V-7.435
													c0-16.477,13.357-29.834,29.834-29.834h283.238C0.652-37.269,14.01-23.911,14.01-7.435"/>
											</g>
											<g id="g246" transform="translate(270.8548,228.4651)">
												<path id="path248" style="fill:#E8E8E8;" d="M-42.082,34.3l147.481,147.481v26.027
													c0,16.477-13.357,29.834-29.834,29.834h-283.24c-16.477,0-29.834-13.357-29.834-29.834v-26.027L-90.028,34.3
													C-76.788,21.061-55.322,21.061-42.082,34.3"/>
											</g>
											<g id="g250" transform="translate(174.9658,303.1044)">
												<path id="path252" d="M-100.937,80.112l-13.561-13.561V48.044l13.561,13.562V80.112z"/>
											</g>
											<g id="g254" transform="translate(286.9768,329.2593)">
												<path id="path256" style="fill:#3F8CFC;" d="M-32.187,96.165l13.561,13.561h-18.507l-13.561-13.561H-32.187z"/>
											</g>
											<g id="g258" transform="translate(268.3791,329.2593)">
												<path id="path260" style="fill:#FC354D;" d="M-43.602,96.165l13.561,13.561h-18.505l-13.561-13.561H-43.602z"/>
											</g>
											<g id="g262" transform="translate(324.1711,329.2593)">
												<path id="path264" style="fill:#FC354D;" d="M-9.358,96.165l12.939,12.939c-1.853,0.399-3.77,0.621-5.742,0.621h-12.142
													l-13.561-13.561H-9.358z"/>
											</g>
											<g id="g266" transform="translate(174.9658,320.8561)">
												<path id="path268" style="fill:#FC354D;" d="M-100.937,91.007c0,0.487,0.029,0.968,0.079,1.444l-13.64-13.641V60.305
													l13.561,13.561V91.007z"/>
											</g>
											<g id="g270" transform="translate(183.3689,329.2593)">
												<path id="path272" d="M-95.779,96.165h17.142l13.561,13.561h-18.505l-13.641-13.64
													C-96.747,96.136-96.266,96.165-95.779,96.165"/>
											</g>
											<g id="g274" transform="translate(336.6982,323.1895)">
												<path id="path276" style="fill:#3F8CFC;" d="M-1.669,92.439l10.201,10.199c-2.285,3.791-5.463,6.968-9.253,9.253
													l-10.201-10.201C-6.47,100.402-2.96,96.892-1.669,92.439"/>
											</g>
											<g id="g278" transform="translate(231.1849,329.2593)">
												<path id="path280" style="fill:#3F8CFC;" d="M-66.431,96.165l13.561,13.561h-18.505l-13.561-13.561H-66.431z"/>
											</g>
											<g id="g282" transform="translate(212.588,329.2593)">
												<path id="path284" style="fill:#FC354D;" d="M-77.845,96.165l13.561,13.561H-82.79L-96.35,96.165H-77.845z"/>
											</g>
											<g id="g286" transform="translate(249.7822,329.2593)">
												<path id="path288" d="M-55.016,96.165l0.231,0.231l13.33,13.33h-18.507l-13.561-13.561H-55.016z"/>
											</g>
											<g id="g290" transform="translate(337.0346,211.9429)">
												<path id="path292" style="fill:#3F8CFC;" d="M-1.463,24.159L12.098,37.72v18.507L-1.463,42.664V24.159z"/>
											</g>
											<g id="g294" transform="translate(337.0346,193.3456)">
												<path id="path296" d="M-1.463,12.745l13.561,13.561v18.507L-1.463,31.251V12.745z"/>
											</g>
											<g id="g298" transform="translate(337.0346,304.9287)">
												<path id="path300" d="M-1.463,81.231l13.561,13.561v12.142c0,1.972-0.223,3.891-0.621,5.743L-1.463,99.738V81.231z"/>
											</g>
											<g id="g302" transform="translate(328.6315,158.7873)">
												<path id="path304" style="fill:#3F8CFC;" d="M-6.621-8.466C8.358-8.466,20.5,3.676,20.5,18.655v0.692L-7.313-8.466
													H-6.621z"/>
											</g>
											<g id="g306" transform="translate(183.3689,337.6624)">
												<path id="path308" style="fill:#3F8CFC;" d="M-95.779,101.322c-14.979,0-27.121-12.142-27.121-27.121v-0.691
													l27.812,27.812H-95.779z"/>
											</g>
											<g id="g310" transform="translate(337.0346,175.5936)">
												<path id="path312" style="fill:#FC354D;" d="M-1.463,1.849c0-0.487-0.029-0.968-0.079-1.443l13.64,13.64v18.507
													L-1.463,18.99V1.849z"/>
											</g>
											<g id="g314" transform="translate(337.0346,286.3318)">
												<path id="path316" style="fill:#FC354D;" d="M-1.463,69.817l13.561,13.561v18.507L-1.463,88.322V69.817z"/>
											</g>
											<g id="g318" transform="translate(337.0346,267.734)">
												<path id="path320" style="fill:#3F8CFC;" d="M-1.463,58.402l13.561,13.561v18.507L-1.463,76.909V58.402z"/>
											</g>
											<g id="g322" transform="translate(337.0346,230.5398)">
												<path id="path324" style="fill:#FC354D;" d="M-1.463,35.573l13.561,13.561v18.505L-1.463,54.078V35.573z"/>
											</g>
											<g id="g326" transform="translate(337.0346,249.1367)">
												<path id="path328" d="M-1.463,46.988l13.561,13.561v18.507L-1.463,65.494V46.988z"/>
											</g>
											<g id="g330" transform="translate(305.5742,329.2593)">
												<path id="path332" d="M-20.773,96.165l13.561,13.561h-18.507l-13.561-13.561H-20.773z"/>
											</g>
											<g id="g334" transform="translate(328.6315,167.1904)">
												<path id="path336" d="M-6.621-3.309h-17.142l-13.562-13.561h18.507l13.64,13.64C-5.652-3.28-6.133-3.309-6.621-3.309"/>
											</g>
											<g id="g338" transform="translate(187.8286,167.1904)">
												<path id="path340" style="fill:#FC354D;" d="M-93.042-3.309l-12.939-12.939c1.853-0.399,3.77-0.621,5.742-0.621h12.144
													l13.561,13.561H-93.042z"/>
											</g>
											<g id="g342" transform="translate(174.9658,228.7164)">
												<path id="path344" style="fill:#3F8CFC;" d="M-100.937,34.454l-13.561-13.561V2.387l13.561,13.561V34.454z"/>
											</g>
											<g id="g346" transform="translate(299.4117,167.1904)">
												<path id="path348" style="fill:#FC354D;" d="M-24.555-3.309l-13.561-13.561h18.507L-6.048-3.309H-24.555z"/>
											</g>
											<g id="g350" transform="translate(174.9658,247.3133)">
												<path id="path352" d="M-100.937,45.868l-13.561-13.561V13.801l13.561,13.562V45.868z"/>
											</g>
											<g id="g354" transform="translate(174.9658,191.5214)">
												<path id="path356" d="M-100.937,11.625l-13.561-13.561v-12.144c0-1.97,0.223-3.889,0.621-5.74l12.939,12.939V11.625z"/>
											</g>
											<g id="g358" transform="translate(174.9658,210.1187)">
												<path id="path360" style="fill:#FC354D;" d="M-100.937,23.039l-13.561-13.561V-9.028l13.561,13.561V23.039z"/>
											</g>
											<g id="g362" transform="translate(175.3021,173.2608)">
												<path id="path364" style="fill:#3F8CFC;" d="M-100.73,0.417l-10.201-10.201c2.285-3.789,5.463-6.967,9.253-9.252
													l10.199,10.199C-95.931-7.545-99.441-4.035-100.73,0.417"/>
											</g>
											<g id="g366" transform="translate(206.4259,167.1904)">
												<path id="path368" d="M-81.627-3.309l-13.561-13.561h18.505l13.561,13.561H-81.627z"/>
											</g>
											<g id="g370" transform="translate(243.6206,167.1904)">
												<path id="path372" style="fill:#FC354D;" d="M-58.798-3.309l-13.561-13.561h18.507l13.561,13.561H-58.798z"/>
											</g>
											<g id="g374" transform="translate(174.9658,284.5075)">
												<path id="path376" style="fill:#3F8CFC;" d="M-100.937,68.697l-13.561-13.561V36.63l13.561,13.562V68.697z"/>
											</g>
											<g id="g378" transform="translate(225.0229,167.1904)">
												<path id="path380" style="fill:#3F8CFC;" d="M-70.213-3.309l-13.561-13.561h18.507l13.561,13.561H-70.213z"/>
											</g>
											<g id="g382" transform="translate(262.2179,167.1904)">
												<path id="path384" d="M-47.384-3.309l-13.561-13.561h18.505l13.561,13.561H-47.384z"/>
											</g>
											<g id="g386" transform="translate(280.8148,167.1904)">
												<path id="path388" style="fill:#3F8CFC;" d="M-35.969-3.309L-49.53-16.869h18.505l13.561,13.561H-35.969z"/>
											</g>
											<g id="g390" transform="translate(174.9658,265.9106)">
												<path id="path392" style="fill:#FC354D;" d="M-100.937,57.283l-13.561-13.561V25.216l13.561,13.561V57.283z"/>
											</g>
											<g id="g394" transform="translate(168.2432,157.5312)">
												<path id="path396" style="fill:#FFFFFF;" d="M-105.063-9.237h26.027H152.15h26.027
													c16.477,0,29.832,13.357,29.832,29.834v26.027v231.186v26.025c0,16.477-13.356,29.834-29.832,29.834H152.15H-79.036
													h-26.027c-16.477,0-29.834-13.357-29.834-29.834v-26.025V46.623V20.596C-134.897,4.12-121.539-9.237-105.063-9.237"/>
											</g>
											<g id="g398" transform="translate(343.7567,357.2018)">
												<path id="path400" style="fill:#E5E5E5;" d="M2.663,113.315h-26.027H-254.55h-26.027
													c-16.477,0-29.832-13.357-29.832-29.834V57.454v-231.186v-26.025c0-16.478,13.356-29.834,29.832-29.834h26.027h231.186
													H2.663c16.477,0,29.834,13.356,29.834,29.834v26.025V57.454v26.027C32.497,99.958,19.139,113.315,2.663,113.315
													 M2.663,111.701c15.56,0,28.22-12.66,28.22-28.22V57.454v-231.186v-26.025c0-15.562-12.66-28.22-28.22-28.22h-26.027
													H-254.55h-26.027c-15.56,0-28.218,12.658-28.218,28.22v26.025V57.454v26.027c0,15.56,12.658,28.22,28.218,28.22h26.027
													h231.186L2.663,111.701"/>
											</g>
											<g id="g402" transform="translate(343.7567,359.5464)">
												<path id="path404" style="fill:#E5E5E5;" d="M2.663,114.754h-26.027H-254.55h-26.027
													c-16.477,0-29.832-13.357-29.832-29.834V58.893v-231.186v-26.025c0-16.478,13.356-29.834,29.832-29.834h26.027h231.186
													H2.663c16.477,0,29.834,13.356,29.834,29.834v26.025V58.893V84.92C32.497,101.397,19.139,114.754,2.663,114.754
													 M2.663,113.14c15.56,0,28.22-12.66,28.22-28.22V58.893v-231.186v-26.025c0-15.562-12.66-28.22-28.22-28.22h-26.027
													H-254.55h-26.027c-15.56,0-28.218,12.658-28.218,28.22v26.025V58.893V84.92c0,15.56,12.658,28.22,28.218,28.22h26.027
													h231.186L2.663,113.14"/>
											</g>
											<g id="g406" transform="translate(343.7567,363.3457)">
												<path id="path408" style="fill:#E5E5E5;" d="M2.663,117.086h-26.027H-254.55h-26.027
													c-16.477,0-29.832-13.357-29.832-29.834V61.225v-231.186v-26.025c0-16.478,13.356-29.834,29.832-29.834h26.027h231.186
													H2.663c16.477,0,29.834,13.356,29.834,29.834v26.025V61.225v26.027C32.497,103.729,19.139,117.086,2.663,117.086
													 M2.663,115.472c15.56,0,28.22-12.66,28.22-28.22V61.225v-231.186v-26.025c0-15.562-12.66-28.22-28.22-28.22h-26.027
													H-254.55h-26.027c-15.56,0-28.218,12.658-28.218,28.22v26.025V61.225v26.027c0,15.56,12.658,28.22,28.218,28.22h26.027
													h231.186L2.663,115.472"/>
											</g>
											<g id="g410" transform="translate(343.7567,366.3046)">
												<path id="path412" style="fill:#E5E5E5;" d="M2.663,118.902h-26.027H-254.55h-26.027
													c-16.477,0-29.832-13.357-29.832-29.834V63.041v-231.186v-26.025c0-16.478,13.356-29.834,29.832-29.834h26.027h231.186
													H2.663c16.477,0,29.834,13.356,29.834,29.834v26.025V63.041v26.027C32.497,105.545,19.139,118.902,2.663,118.902
													 M2.663,117.288c15.56,0,28.22-12.66,28.22-28.22V63.041v-231.186v-26.025c0-15.562-12.66-28.22-28.22-28.22h-26.027
													H-254.55h-26.027c-15.56,0-28.218,12.658-28.218,28.22v26.025V63.041v26.027c0,15.56,12.658,28.22,28.218,28.22h26.027
													h231.186L2.663,117.288"/>
											</g>
											<g id="g414" transform="translate(312.2438,149.7562)">
												<path id="path416" style="fill:#CCCBCB;" d="M-16.679-14.01h-181.53c-44.563,0-80.689,36.126-80.689,80.689v181.53
													c0,44.563,36.126,80.689,80.689,80.689h181.53c44.563,0,80.689-36.126,80.689-80.689l0-181.53
													C64.01,22.116,27.884-14.01-16.679-14.01"/>
											</g>
											<g id="g418" transform="translate(174.0156,149.7562)">
												<path id="path420" style="fill:#F9F9F9;" d="M-101.52-14.01h264.609L30.784,118.294L-101.52-14.01z"/>
											</g>
											<g id="g422" transform="translate(173.9711,198.2304)">
												<path id="path424" style="fill:#F9F9F9;" d="M-101.547,15.743l93.228,93.228l-93.228,93.226V15.743z"/>
											</g>
											<g id="g426" transform="translate(231.7407,256)">
												<path id="path428" style="fill:#F7F8F9;" d="M-66.09,51.2l21.47-21.47c9.763-9.763,25.594-9.763,35.359,0l21.47,21.47
													l-39.15,39.149L-66.09,51.2z"/>
											</g>
											<g id="g430" transform="translate(149.7562,174.0156)">
												<path id="path432" style="fill:#F9F9F9;" d="M-116.41,0.88v-14.145c0-13.809,11.195-25.004,25.004-25.004h14.145
													L94.193,133.184l-39.149,39.15L-116.41,0.88z"/>
											</g>
											<g id="g434" transform="translate(256,280.2593)">
												<path id="path436" style="fill:#CCCBCB;" d="M-51.2,66.09l-39.149-39.149L81.104-144.512H95.25
													c13.809,0,25.004,11.195,25.004,25.004v14.145L-51.2,66.09z"/>
											</g>
											<g id="g438" transform="translate(165.2501,149.7562)">
												<path id="path440" style="fill:#EF4D42;" d="M-106.9-14.01h14.074v342.908H-106.9
													c-13.809,0-25.004-11.195-25.004-25.004v-292.9C-131.904-2.815-120.709-14.01-106.9-14.01"/>
											</g>
											<g id="g442" transform="translate(362.1993,347.8669)">
												<path id="path444" style="fill:#BF2D26;" d="M13.982,107.586c-0.925,12.967-11.729,23.201-24.931,23.201h-14.146
													v-342.908h14.146c13.202,0,24.007,10.235,24.931,23.201V107.586z"/>
											</g>
											<g id="g446" transform="translate(362.2438,346.7499)">
												<path id="path448" style="fill:#E92C28;" d="M14.01,106.9c0,13.809-11.195,25.004-25.004,25.004h-14.145L-157.444-0.401
													l-132.304,132.305h-14.146c-13.809,0-25.004-11.195-25.004-25.004V92.755L-196.593-39.55l21.468-21.468
													c9.765-9.765,25.596-9.765,35.361,0l21.47,21.468L14.01,92.755V106.9z"/>
											</g>
											<g id="g450" transform="translate(337.9844,362.2438)">
												<path id="path452" style="fill:#F9F9F9;" d="M-0.88,116.41h-264.609l132.305-132.304L-0.88,116.41z"/>
											</g>
										</g>
									</g>
								</g>
							</g>
						</g>
					</g>
				</g>
			</g>
		</g>
	</g>
</g>
</svg>
