<?xml version="1.0" encoding="utf-8"?>
<!-- Generator: Adobe Illustrator 18.0.0, SVG Export Plug-In . SVG Version: 6.00 Build 0)  -->
<!DOCTYPE svg PUBLIC "-//W3C//DTD SVG 1.1//EN" "http://www.w3.org/Graphics/SVG/1.1/DTD/svg11.dtd">
<svg version="1.1" id="Layer_1" xmlns="http://www.w3.org/2000/svg" xmlns:xlink="http://www.w3.org/1999/xlink" x="0px" y="0px"
	 viewBox="0 0 512 512" enable-background="new 0 0 512 512" xml:space="preserve">
<path opacity="0.4" enable-background="new    " d="M419.9,424.4c1.1-1.1,2.2-2.3,3.3-3.5c0.2-0.2,0.4-0.4,0.5-0.6
	c1.1-1.2,2.2-2.3,3.3-3.5c0.2-0.2,0.3-0.4,0.5-0.6c1.1-1.2,2.1-2.4,3.2-3.6c0.2-0.2,0.3-0.4,0.5-0.6c1.1-1.2,2.1-2.5,3.1-3.7
	c0.1-0.2,0.3-0.4,0.4-0.5c1-1.3,2-2.5,3.1-3.8c0.1-0.2,0.3-0.3,0.4-0.5c1-1.3,2-2.6,3-4c0.1-0.2,0.2-0.3,0.4-0.5
	c1-1.3,2-2.7,2.9-4.1c0.1-0.2,0.2-0.3,0.3-0.5c1-1.4,1.9-2.8,2.9-4.2c0.1-0.1,0.2-0.3,0.3-0.4c0.9-1.4,1.9-2.9,2.8-4.3
	c0.1-0.1,0.2-0.3,0.2-0.4c0.9-1.5,1.8-2.9,2.7-4.4c0.1-0.1,0.1-0.2,0.2-0.3c0.9-1.5,1.8-3,2.6-4.5c0.1-0.1,0.1-0.2,0.2-0.3
	c0.9-1.5,1.7-3.1,2.5-4.7c0-0.1,0.1-0.2,0.1-0.3c0.8-1.6,1.7-3.2,2.5-4.8c0-0.1,0.1-0.1,0.1-0.2c0.8-1.6,1.6-3.2,2.4-4.9
	c0-0.1,0.1-0.1,0.1-0.2c0.8-1.7,1.5-3.3,2.3-5c0,0,0-0.1,0.1-0.1c0.7-1.7,1.5-3.4,2.2-5.1v-0.1c0.7-1.7,1.4-3.5,2.1-5.2
	c0,0,0,0,0-0.1c0.7-1.8,1.3-3.5,2-5.3l0,0c4.4-12.4,7.7-25.3,9.9-38.5c0-0.1,0-0.1,0-0.2c0.3-1.7,0.5-3.4,0.8-5.1
	c0-0.1,0-0.3,0.1-0.4c0.2-1.6,0.4-3.2,0.6-4.8c0-0.3,0.1-0.6,0.1-0.8c0.2-1.5,0.3-3,0.5-4.5c0-0.5,0.1-0.9,0.1-1.4
	c0.1-1.4,0.2-2.7,0.3-4.1c0-0.7,0.1-1.3,0.1-2c0.1-1.2,0.2-2.3,0.2-3.5c0-1,0.1-2,0.1-3c0-0.9,0.1-1.7,0.1-2.6
	c0-1.9,0.1-3.8,0.1-5.7c0-1.8,0-3.6-0.1-5.3c0-0.5,0-1.1,0-1.6c0-1.3-0.1-2.6-0.1-3.9c0-0.5,0-1.1-0.1-1.6c-0.1-1.7-0.2-3.3-0.3-5
	c0-0.1,0-0.2,0-0.3c-0.1-1.7-0.3-3.5-0.5-5.2c-0.1-0.5-0.1-1.1-0.2-1.6c-0.1-1.2-0.3-2.5-0.4-3.7c-0.1-0.6-0.1-1.1-0.2-1.7
	c-0.2-1.5-0.4-3-0.6-4.5c0-0.2-0.1-0.4-0.1-0.7c-0.3-1.7-0.5-3.3-0.8-5c-0.1-0.6-0.2-1.1-0.3-1.7c-0.2-1.2-0.4-2.3-0.7-3.5
	c-0.1-0.6-0.2-1.2-0.4-1.8c-0.3-1.3-0.6-2.7-0.9-4c-0.1-0.3-0.2-0.7-0.2-1c-0.4-1.6-0.8-3.2-1.2-4.8c-0.2-0.6-0.3-1.2-0.5-1.8
	c-0.3-1.1-0.6-2.1-0.9-3.2c-0.2-0.6-0.4-1.3-0.5-1.9c-0.3-1.2-0.7-2.3-1-3.5c-0.1-0.5-0.3-0.9-0.4-1.4c-0.5-1.5-1-3-1.5-4.5
	c-0.2-0.6-0.4-1.3-0.7-1.9c-0.3-1-0.7-1.9-1-2.9c-0.2-0.7-0.5-1.4-0.7-2c-0.4-1-0.8-2-1.1-3c-0.2-0.6-0.4-1.1-0.7-1.7
	c-0.6-1.4-1.1-2.8-1.7-4.2c-0.3-0.7-0.6-1.4-0.9-2c-0.4-0.8-0.7-1.7-1.1-2.5c-0.3-0.7-0.6-1.4-1-2.1c-0.4-0.9-0.8-1.7-1.2-2.6
	c-0.3-0.7-0.7-1.5-1-2.2c-0.6-1.2-1.2-2.5-1.9-3.7c-0.4-0.7-0.7-1.4-1.1-2.1c-0.4-0.8-0.8-1.5-1.2-2.3c-0.4-0.7-0.8-1.5-1.2-2.2
	c-0.4-0.8-0.8-1.5-1.3-2.2c-0.5-0.8-0.9-1.6-1.4-2.4c-0.7-1.1-1.3-2.2-2-3.4c-0.4-0.7-0.9-1.4-1.3-2.1c-0.4-0.7-0.8-1.4-1.3-2
	c-0.5-0.7-0.9-1.4-1.4-2.1c-0.4-0.7-0.9-1.4-1.3-2c-1.5-2.2-3-4.4-4.6-6.6c0-0.1-0.1-0.1-0.1-0.2c-1-1.4-2.1-2.9-3.2-4.3
	c-0.1-0.1-0.2-0.2-0.3-0.3c-1-1.4-2.1-2.7-3.1-4.1c-0.1-0.1-0.2-0.3-0.3-0.4c-1-1.3-2.1-2.6-3.2-3.9c-0.1-0.2-0.3-0.3-0.4-0.5
	c-1.1-1.3-2.1-2.5-3.2-3.8c-0.2-0.2-0.3-0.4-0.5-0.5c-1.1-1.2-2.1-2.4-3.2-3.6c-0.2-0.2-0.3-0.4-0.5-0.6c-1.1-1.2-2.2-2.4-3.3-3.5
	c-0.2-0.2-0.4-0.4-0.5-0.6c-1.1-1.2-2.2-2.3-3.4-3.4c-0.2-0.2-0.4-0.4-0.6-0.5c-1.1-1.1-2.3-2.2-3.5-3.3c-0.2-0.2-0.4-0.3-0.6-0.5
	c-1.2-1.1-2.4-2.2-3.5-3.3c-0.2-0.2-0.4-0.3-0.6-0.5c-1.2-1.1-2.4-2.1-3.6-3.2c-0.2-0.2-0.4-0.3-0.6-0.5c-1.2-1.1-2.5-2.1-3.7-3.1
	c-0.2-0.1-0.4-0.3-0.5-0.4c-1.3-1-2.6-2.1-3.8-3.1c-0.2-0.1-0.3-0.3-0.5-0.4c-1.3-1-2.6-2-4-3c-0.2-0.1-0.3-0.2-0.5-0.3
	c-1.3-1-2.7-2-4.1-2.9c-0.2-0.1-0.3-0.2-0.5-0.3c-1.4-1-2.8-1.9-4.2-2.9c-0.1-0.1-0.3-0.2-0.4-0.3c-1.4-0.9-2.9-1.9-4.3-2.8
	c-0.1-0.1-0.3-0.2-0.4-0.2c-1.5-0.9-2.9-1.8-4.4-2.7c-0.1-0.1-0.2-0.1-0.3-0.2c-1.5-0.9-3-1.8-4.5-2.6c-0.1-0.1-0.2-0.1-0.3-0.2
	c-1.5-0.9-3.1-1.7-4.7-2.6c-0.1,0-0.2-0.1-0.3-0.1c-1.6-0.8-3.2-1.7-4.8-2.5c-0.1,0-0.1-0.1-0.2-0.1c-1.6-0.8-3.2-1.6-4.9-2.4
	c-0.1,0-0.1-0.1-0.2-0.1c-1.7-0.8-3.3-1.5-5-2.3c0,0-0.1,0-0.1-0.1c-1.7-0.7-3.4-1.5-5.1-2.2h-0.1c-1.7-0.7-3.5-1.4-5.2-2.1
	c0,0,0,0-0.1,0c-1.8-0.7-3.5-1.3-5.3-2l0,0c-1.8-0.6-3.6-1.2-5.4-1.8l0,0c-10.7-3.5-21.8-6.2-33.1-8.1c-0.1,0-0.1,0-0.2,0
	c-1.7-0.3-3.4-0.5-5.1-0.8c-0.1,0-0.3,0-0.4-0.1c-1.6-0.2-3.2-0.4-4.8-0.6c-0.3,0-0.6-0.1-0.8-0.1c-1.5-0.2-3-0.3-4.5-0.5
	c-0.5,0-0.9-0.1-1.4-0.1c-1.4-0.1-2.7-0.2-4.1-0.3c-0.7,0-1.3-0.1-2-0.1c-1.2-0.1-2.3-0.2-3.5-0.2c-1,0-2-0.1-3-0.1
	c-0.9,0-1.7-0.1-2.6-0.1c-1.9,0-3.8-0.1-5.7-0.1c-1.8,0-3.6,0-5.3,0.1c-0.5,0-1.1,0-1.6,0c-1.3,0-2.6,0.1-3.9,0.1
	c-0.5,0-1.1,0-1.6,0.1c-1.7,0.1-3.3,0.2-5,0.3c-0.1,0-0.2,0-0.3,0c-1.7,0.1-3.5,0.3-5.2,0.5c-0.5,0.1-1.1,0.1-1.6,0.2
	c-1.2,0.1-2.5,0.3-3.7,0.4c-0.6,0.1-1.1,0.1-1.7,0.2c-1.5,0.2-3,0.4-4.5,0.6c-0.2,0-0.4,0.1-0.7,0.1c-1.7,0.3-3.3,0.5-5,0.8
	c-0.6,0.1-1.1,0.2-1.7,0.3c-1.2,0.2-2.3,0.4-3.5,0.7c-0.6,0.1-1.2,0.2-1.8,0.4c-1.3,0.3-2.7,0.6-4,0.9c-0.3,0.1-0.7,0.2-1,0.2
	c-1.6,0.4-3.2,0.8-4.8,1.2c-0.6,0.2-1.2,0.3-1.8,0.5c-1.1,0.3-2.1,0.6-3.2,0.9c-0.6,0.2-1.3,0.4-1.9,0.5c-1.2,0.3-2.3,0.7-3.5,1
	c-0.5,0.1-0.9,0.3-1.4,0.4c-1.5,0.5-3,1-4.5,1.5c-0.6,0.2-1.3,0.4-1.9,0.7c-1,0.3-1.9,0.7-2.9,1c-0.7,0.2-1.4,0.5-2,0.7
	c-1,0.4-2,0.8-3,1.1c-0.6,0.2-1.1,0.4-1.7,0.7c-1.4,0.6-2.8,1.1-4.2,1.7c-0.7,0.3-1.4,0.6-2,0.9c-0.8,0.4-1.7,0.7-2.5,1.1
	c-0.7,0.3-1.4,0.6-2.1,1c-0.9,0.4-1.7,0.8-2.6,1.2c-0.7,0.3-1.4,0.7-2.2,1c-1.3,0.6-2.5,1.2-3.7,1.9c-0.7,0.4-1.4,0.7-2.1,1.1
	c-0.8,0.4-1.5,0.8-2.3,1.2c-0.7,0.4-1.4,0.8-2.2,1.2s-1.5,0.8-2.2,1.3c-0.8,0.5-1.6,0.9-2.4,1.4c-1.1,0.7-2.3,1.3-3.4,2
	c-0.7,0.4-1.4,0.9-2.1,1.3c-0.7,0.4-1.4,0.8-2,1.3c-0.7,0.5-1.4,0.9-2.1,1.4c-0.7,0.4-1.4,0.9-2,1.3c-2.2,1.5-4.4,3-6.6,4.6
	c-0.1,0-0.1,0.1-0.2,0.1c-1.4,1-2.9,2.1-4.3,3.2c-0.1,0.1-0.2,0.2-0.3,0.3c-1.4,1-2.7,2.1-4.1,3.1c-0.1,0.1-0.3,0.2-0.4,0.3
	c-1.3,1-2.6,2.1-3.9,3.2c-0.2,0.1-0.3,0.3-0.5,0.4c-1.3,1.1-2.5,2.1-3.7,3.2c-0.2,0.2-0.4,0.3-0.5,0.5c-1.2,1.1-2.4,2.1-3.6,3.2
	c-0.2,0.2-0.4,0.3-0.6,0.5c-1.2,1.1-2.4,2.2-3.5,3.3c-0.2,0.2-0.4,0.4-0.6,0.5c-1.2,1.1-2.3,2.2-3.4,3.4c-0.2,0.2-0.4,0.4-0.5,0.6
	c-1.1,1.1-2.2,2.3-3.3,3.5c-0.2,0.2-0.3,0.4-0.5,0.6c-1.1,1.2-2.2,2.4-3.3,3.5c-0.2,0.2-0.3,0.4-0.5,0.6c-1.1,1.2-2.1,2.4-3.2,3.6
	c-0.2,0.2-0.3,0.4-0.5,0.5c-1.1,1.2-2.1,2.5-3.1,3.7c-0.1,0.2-0.3,0.4-0.4,0.5c-1,1.3-2.1,2.6-3.1,3.9c-0.1,0.2-0.3,0.3-0.4,0.5
	c-1,1.3-2,2.6-3,4c-0.1,0.2-0.2,0.3-0.3,0.5c-1,1.3-2,2.7-2.9,4.1c-0.1,0.1-0.2,0.3-0.3,0.4c-1,1.4-1.9,2.8-2.9,4.2
	c-0.1,0.1-0.2,0.3-0.3,0.4c-0.9,1.4-1.9,2.9-2.8,4.3c-0.1,0.1-0.2,0.2-0.2,0.4c-0.9,1.5-1.8,2.9-2.7,4.4c-0.1,0.1-0.1,0.2-0.2,0.3
	c-0.9,1.5-1.8,3-2.6,4.6c-0.1,0.1-0.1,0.2-0.2,0.3c-0.9,1.5-1.7,3.1-2.6,4.7c0,0.1-0.1,0.2-0.1,0.2c-0.8,1.6-1.7,3.2-2.5,4.8
	c0,0.1-0.1,0.1-0.1,0.2c-0.8,1.6-1.6,3.3-2.4,4.9c0,0.1,0,0.1-0.1,0.2c-0.8,1.7-1.5,3.3-2.3,5c0,0,0,0.1-0.1,0.1
	c-0.7,1.7-1.5,3.4-2.2,5.1v0.1c-0.7,1.7-1.4,3.5-2.1,5.2c0,0,0,0,0,0.1c-0.7,1.8-1.3,3.5-2,5.3l0,0c-4.4,12.4-7.7,25.3-9.9,38.5
	c0,0.1,0,0.1,0,0.2c-0.3,1.7-0.5,3.4-0.8,5.1c0,0.1,0,0.3-0.1,0.4c-0.2,1.6-0.4,3.2-0.6,4.8c0,0.3-0.1,0.6-0.1,0.8
	c-0.2,1.5-0.3,3-0.5,4.5c0,0.4-0.1,0.9-0.1,1.4c-0.1,1.4-0.2,2.7-0.3,4.1c0,0.7-0.1,1.3-0.1,2c-0.1,1.2-0.2,2.3-0.2,3.5
	c0,1-0.1,2-0.1,3c0,0.9-0.1,1.7-0.1,2.6c0,1.9-0.1,3.8-0.1,5.7c0,1.8,0,3.6,0.1,5.3c0,0.5,0,1.1,0,1.6c0,1.3,0.1,2.6,0.1,3.9
	c0,0.5,0,1.1,0.1,1.6c0.1,1.7,0.2,3.3,0.3,5c0,0.1,0,0.2,0,0.3c0.1,1.7,0.3,3.5,0.5,5.2c0.1,0.5,0.1,1.1,0.2,1.6
	c0.1,1.2,0.3,2.5,0.4,3.7c0.1,0.6,0.1,1.1,0.2,1.7c0.2,1.5,0.4,3,0.6,4.5c0,0.2,0.1,0.4,0.1,0.7c0.3,1.7,0.5,3.3,0.8,5
	c0.1,0.6,0.2,1.1,0.3,1.7c0.2,1.2,0.4,2.3,0.7,3.5c0.1,0.6,0.2,1.2,0.4,1.8c0.3,1.3,0.6,2.7,0.9,4c0.1,0.3,0.2,0.7,0.2,1
	c0.4,1.6,0.8,3.2,1.2,4.8c0.2,0.6,0.3,1.2,0.5,1.8c0.3,1.1,0.6,2.1,0.9,3.2c0.2,0.6,0.4,1.3,0.5,1.9c0.3,1.2,0.7,2.3,1,3.5
	c0.1,0.5,0.3,0.9,0.4,1.4c0.5,1.5,1,3,1.5,4.5c0.2,0.6,0.4,1.3,0.7,1.9c0.3,1,0.7,1.9,1,2.9c0.2,0.7,0.5,1.4,0.7,2
	c0.4,1,0.8,2,1.1,3c0.2,0.6,0.4,1.1,0.7,1.7c0.6,1.4,1.1,2.8,1.7,4.2c0.3,0.7,0.6,1.4,0.9,2c0.4,0.8,0.7,1.7,1.1,2.5
	c0.3,0.7,0.6,1.4,1,2.1c0.4,0.9,0.8,1.7,1.2,2.6c0.3,0.7,0.7,1.4,1,2.2c0.6,1.3,1.2,2.5,1.9,3.7c0.4,0.7,0.7,1.4,1.1,2.1
	c0.4,0.8,0.8,1.5,1.2,2.3c0.4,0.7,0.8,1.5,1.2,2.2s0.8,1.5,1.2,2.2c0.5,0.8,0.9,1.6,1.4,2.4c0.7,1.1,1.3,2.2,2,3.3
	c0.4,0.7,0.9,1.4,1.3,2.1c0.4,0.7,0.8,1.4,1.3,2c0.5,0.7,0.9,1.4,1.4,2.2c0.4,0.7,0.9,1.4,1.3,2c1.5,2.2,3,4.4,4.6,6.6
	c0,0.1,0.1,0.1,0.1,0.2c1,1.4,2.1,2.9,3.2,4.3c0.1,0.1,0.2,0.2,0.3,0.3c1,1.4,2.1,2.7,3.2,4.1c0.1,0.1,0.2,0.3,0.3,0.4
	c1,1.3,2.1,2.6,3.2,3.9c0.1,0.2,0.3,0.3,0.4,0.5c1.1,1.3,2.1,2.5,3.2,3.7c0.2,0.2,0.3,0.4,0.5,0.5c1.1,1.2,2.1,2.4,3.2,3.6
	c0.2,0.2,0.3,0.4,0.5,0.6c1.1,1.2,2.2,2.4,3.3,3.5c0.2,0.2,0.4,0.4,0.5,0.6c1.1,1.1,2.2,2.3,3.4,3.4c0.2,0.2,0.4,0.4,0.6,0.5
	c1.1,1.1,2.3,2.2,3.4,3.3c0.2,0.2,0.4,0.4,0.6,0.5c1.2,1.1,2.3,2.2,3.5,3.3c0.2,0.2,0.4,0.3,0.6,0.5c1.2,1.1,2.4,2.1,3.6,3.2
	c0.2,0.2,0.4,0.3,0.5,0.5c1.2,1.1,2.5,2.1,3.7,3.1c0.2,0.1,0.4,0.3,0.5,0.4c1.3,1,2.6,2.1,3.9,3.1c0.2,0.1,0.3,0.3,0.5,0.4
	c1.3,1,2.6,2,4,3c0.2,0.1,0.3,0.2,0.5,0.3c1.3,1,2.7,2,4.1,2.9c0.1,0.1,0.3,0.2,0.4,0.3c1.4,1,2.8,1.9,4.2,2.9
	c0.1,0.1,0.3,0.2,0.4,0.3c1.4,0.9,2.9,1.9,4.3,2.8c0.1,0.1,0.2,0.2,0.4,0.2c1.5,0.9,2.9,1.8,4.4,2.7c0.1,0.1,0.2,0.1,0.3,0.2
	c1.5,0.9,3,1.8,4.5,2.6c0.1,0.1,0.2,0.1,0.3,0.2c1.5,0.9,3.1,1.7,4.7,2.6c0.1,0,0.2,0.1,0.2,0.1c1.6,0.8,3.2,1.7,4.8,2.5
	c0.1,0,0.1,0.1,0.2,0.1c1.6,0.8,3.3,1.6,4.9,2.4c0.1,0,0.1,0.1,0.2,0.1c1.7,0.8,3.3,1.5,5,2.3c0,0,0.1,0,0.1,0.1
	c1.7,0.7,3.4,1.5,5.1,2.2h0.1c1.7,0.7,3.5,1.4,5.2,2.1c0,0,0,0,0.1,0c1.8,0.7,3.5,1.3,5.3,2l0,0c12.4,4.4,25.3,7.7,38.5,9.9
	c0.1,0,0.1,0,0.2,0c1.7,0.3,3.4,0.5,5.1,0.8c0.1,0,0.3,0,0.4,0.1c1.6,0.2,3.2,0.4,4.9,0.6c0.3,0,0.6,0.1,0.8,0.1
	c1.5,0.2,3,0.3,4.5,0.5c0.4,0,0.9,0.1,1.3,0.1c1.4,0.1,2.7,0.2,4.1,0.3c0.7,0,1.3,0.1,2,0.1c1.2,0.1,2.3,0.2,3.5,0.2
	c1,0,2,0.1,3,0.1c0.9,0,1.7,0.1,2.6,0.1c1.9,0,3.8,0.1,5.7,0.1c1.8,0,3.6,0,5.3-0.1c0.5,0,1.1,0,1.6,0c1.3,0,2.6-0.1,3.9-0.1
	c0.5,0,1.1,0,1.6-0.1c1.7-0.1,3.3-0.2,5-0.3c0.1,0,0.2,0,0.3,0c1.7-0.1,3.5-0.3,5.2-0.5c0.5-0.1,1.1-0.1,1.6-0.2
	c1.2-0.1,2.5-0.3,3.7-0.4c0.6-0.1,1.1-0.1,1.7-0.2c1.5-0.2,3-0.4,4.5-0.6c0.2,0,0.4-0.1,0.7-0.1c1.7-0.3,3.3-0.5,5-0.8
	c0.6-0.1,1.1-0.2,1.7-0.3c1.2-0.2,2.3-0.4,3.5-0.7c0.6-0.1,1.2-0.2,1.8-0.4c1.3-0.3,2.7-0.6,4-0.9c0.3-0.1,0.7-0.1,1-0.2
	c1.6-0.4,3.2-0.8,4.8-1.2c0.6-0.2,1.2-0.3,1.8-0.5c1.1-0.3,2.1-0.6,3.2-0.9c0.6-0.2,1.3-0.4,1.9-0.5c1.2-0.3,2.3-0.7,3.5-1
	c0.5-0.1,0.9-0.3,1.4-0.4c1.5-0.5,3-1,4.5-1.5c0.6-0.2,1.3-0.4,1.9-0.7c1-0.3,1.9-0.7,2.9-1c0.7-0.2,1.4-0.5,2-0.7
	c1-0.4,2-0.8,3-1.1c0.6-0.2,1.2-0.4,1.7-0.7c1.4-0.6,2.8-1.1,4.2-1.7c0.7-0.3,1.4-0.6,2-0.9c0.8-0.4,1.7-0.7,2.5-1.1
	c0.7-0.3,1.4-0.6,2.1-1c0.9-0.4,1.7-0.8,2.6-1.2c0.7-0.3,1.5-0.7,2.2-1c1.2-0.6,2.5-1.2,3.7-1.9c0.7-0.4,1.4-0.7,2.1-1.1
	c0.8-0.4,1.5-0.8,2.2-1.2c0.7-0.4,1.5-0.8,2.2-1.2c0.7-0.4,1.5-0.8,2.2-1.2c0.8-0.5,1.7-0.9,2.5-1.4c1.1-0.6,2.2-1.3,3.3-2
	c0.7-0.4,1.4-0.9,2.1-1.3s1.4-0.8,2-1.3c0.7-0.5,1.4-0.9,2.2-1.4c0.7-0.4,1.3-0.9,2-1.3c2.2-1.5,4.5-3,6.6-4.6
	c0.1,0,0.1-0.1,0.2-0.1c1.4-1,2.9-2.1,4.3-3.2c0.1-0.1,0.2-0.2,0.3-0.3c1.4-1,2.7-2.1,4.1-3.1c0.1-0.1,0.3-0.2,0.4-0.3
	c1.3-1,2.6-2.1,3.9-3.2c0.2-0.1,0.3-0.3,0.5-0.4c1.3-1.1,2.5-2.1,3.7-3.2c0.2-0.2,0.4-0.3,0.5-0.5c1.2-1.1,2.4-2.1,3.6-3.2
	c0.2-0.2,0.4-0.3,0.6-0.5c1.2-1.1,2.4-2.2,3.5-3.3c0.2-0.2,0.4-0.4,0.6-0.5c1.1-1.1,2.3-2.2,3.4-3.4
	C419.5,424.8,419.7,424.6,419.9,424.4z M362.3,349.6c-22.4,27.4-55.2,46.1-92.3,49.9c0.1,0.1,0.2,0.1,0.2,0.2l0,0
	c-0.1-0.1-0.2-0.1-0.2-0.2c-4.6,0.5-9.2,0.7-14,0.7c-32.8,0-63-11.6-86.6-30.9c0,0.1,0,0.3,0,0.4l0,0c0-0.1,0-0.3,0-0.4
	c-27.4-22.4-46.1-55.2-49.8-92.3c-0.1,0.1-0.1,0.1-0.2,0.2l0,0c0.1-0.1,0.1-0.1,0.2-0.2c-0.5-4.6-0.7-9.2-0.7-14
	c0-29.5,9.4-56.9,25.3-79.2l6.8,25.5c-8.3,16.1-12.9,34.4-12.9,53.7c0,65.2,52.8,118,118,118s118-52.8,118-118s-52.8-118-118-118
	c-19.2,0-37.4,4.6-53.4,12.8l-25.6-6.9c18.8-13.3,41-22,65.1-24.4c-0.1-0.1-0.1-0.1-0.2-0.2l0,0c0.1,0.1,0.2,0.1,0.2,0.2
	c4.6-0.5,9.2-0.7,14-0.7c32.8,0,63,11.6,86.6,30.9c0-0.1,0-0.3,0-0.4l0,0c0,0.1,0,0.3,0,0.4c27.4,22.4,46.1,55.2,49.9,92.3
	c0.1-0.1,0.1-0.1,0.2-0.2l0,0c-0.1,0.1-0.1,0.1-0.2,0.2c0.5,4.6,0.7,9.2,0.7,14C393.2,295.8,381.6,326,362.3,349.6
	c0.1,0,0.3,0,0.4,0l0,0C362.6,349.6,362.4,349.6,362.3,349.6z"/>
<g>
	<g>
		<path fill="#DC71AC" d="M362.3,342.6c-22.4,27.4-55.2,46.1-92.3,49.9c12.8,12.6,27.4,23.4,43.3,32c3.4,1.8,6.8,3.6,10.4,5.2
			c1.8,0.8,3.5,1.6,5.3,2.4c17.5,7.5,36.4,12.4,56.1,14.4c49.5-33.6,85.2-86.1,96.9-147c-15.3,12.6-32.2,22.4-49.9,29.5
			C409.7,337.9,386,342.4,362.3,342.6z"/>
		<path fill="#23B899" d="M149.7,169.4c22.4-27.4,55.2-46.1,92.3-49.8c-14.2-13.9-30.5-25.7-48.4-34.7c-3.5-1.7-7-3.4-10.5-4.9
			c-17.5-7.5-36.4-12.4-56.1-14.4c-49.5,33.6-85.2,86.1-96.9,147C45.4,200,62.3,190.2,80,183.1C102.3,174.1,126,169.6,149.7,169.4z"
			/>
		<path fill="#945AA4" d="M323.6,429.7c-3.5-1.6-7-3.4-10.4-5.2c-15.9-8.6-30.5-19.4-43.3-32c-4.6,0.5-9.2,0.7-14,0.7
			c-32.8,0-63-11.6-86.6-30.9c0.2,23.7,4.8,47.4,13.7,69.7c7.1,17.7,16.9,34.5,29.5,49.9c14.1,2.7,28.6,4.1,43.4,4.1
			c47.8,0,92.2-14.6,129-39.6c-19.7-1.9-38.6-6.9-56.1-14.4C327.1,431.3,325.4,430.5,323.6,429.7z"/>
		<path fill="#69C186" d="M193.6,84.8c17.9,9,34.3,20.7,48.4,34.7c4.6-0.5,9.2-0.7,14-0.7c32.8,0,63,11.6,86.6,30.9
			c-0.2-23.7-4.8-47.4-13.7-69.7c-7.1-17.7-16.9-34.5-29.5-49.9C285.3,27.4,270.8,26,256,26c-47.8,0-92.2,14.6-129,39.6
			c19.7,1.9,38.6,6.9,56.1,14.4C186.6,81.5,190.2,83.1,193.6,84.8z"/>
		<path fill="#3B97D3" d="M84.8,318.4c9-17.9,20.7-34.3,34.7-48.4c-0.5-4.6-0.7-9.2-0.7-14c0-32.8,11.6-63,30.9-86.6
			c-23.7,0.2-47.4,4.8-69.7,13.7c-17.7,7.1-34.5,16.9-49.9,29.5C27.4,226.7,26,241.2,26,256c0,47.8,14.6,92.2,39.6,129
			c1.9-19.7,6.9-38.6,14.4-56.1C81.5,325.4,83.1,321.8,84.8,318.4z"/>
		<path fill="#E74D3D" d="M427.2,193.6c-9,17.9-20.7,34.3-34.7,48.4c0.5,4.6,0.7,9.2,0.7,14c0,32.8-11.6,63-30.9,86.6
			c23.7-0.2,47.4-4.8,69.7-13.7c17.7-7.1,34.5-16.9,49.9-29.5c2.7-14.1,4.1-28.6,4.1-43.4c0-47.8-14.6-92.2-39.6-129
			c-1.9,19.7-6.9,38.6-14.4,56.1C430.5,186.6,428.9,190.2,427.2,193.6z"/>
		<path fill="#6063AC" d="M169.4,362.3c-27.4-22.4-46.1-55.2-49.8-92.3c-13.9,14.2-25.7,30.5-34.7,48.4c-1.7,3.5-3.4,7-4.9,10.5
			c-7.5,17.5-12.4,36.4-14.4,56.1c33.6,49.5,86.1,85.2,147,96.9c-12.6-15.3-22.4-32.2-29.5-49.9C174.1,409.7,169.6,386,169.4,362.3z
			"/>
		<path fill="#F0C519" d="M342.6,149.7c27.4,22.4,46.1,55.2,49.9,92.3c13.9-14.2,25.7-30.5,34.7-48.4c1.7-3.5,3.4-7,4.9-10.5
			c7.5-17.5,12.4-36.4,14.4-56.1c-33.6-49.5-86.1-85.2-147-96.9C312,45.4,321.8,62.3,328.9,80C337.9,102.3,342.4,126,342.6,149.7z"
			/>
		<radialGradient id="SVGID_1_" cx="256" cy="256" r="146.8" gradientUnits="userSpaceOnUse">
			<stop  offset="0" style="stop-color:#010101;stop-opacity:0"/>
			<stop  offset="0.3434" style="stop-color:#040404;stop-opacity:0.3434"/>
			<stop  offset="0.6249" style="stop-color:#0F0E0E;stop-opacity:0.6249"/>
			<stop  offset="0.8837" style="stop-color:#1C191A;stop-opacity:0.8837"/>
			<stop  offset="1" style="stop-color:#231F20"/>
		</radialGradient>
		<path opacity="0.15" fill="url(#SVGID_1_)" enable-background="new    " d="M256,109.2c-81.1,0-146.8,65.7-146.8,146.8
			S174.9,402.8,256,402.8S402.8,337.1,402.8,256S337.1,109.2,256,109.2z M256,393.4c-75.9,0-137.4-61.5-137.4-137.4
			S180.1,118.6,256,118.6S393.4,180.1,393.4,256S331.9,393.4,256,393.4z"/>
		<radialGradient id="SVGID_2_" cx="256" cy="256" r="259.1677" gradientUnits="userSpaceOnUse">
			<stop  offset="0.1151" style="stop-color:#010101;stop-opacity:0"/>
			<stop  offset="0.5915" style="stop-color:#030303;stop-opacity:0.5384"/>
			<stop  offset="0.7631" style="stop-color:#0A0A0A;stop-opacity:0.7323"/>
			<stop  offset="0.885" style="stop-color:#151314;stop-opacity:0.87"/>
			<stop  offset="0.9833" style="stop-color:#211D1E;stop-opacity:0.9811"/>
			<stop  offset="1" style="stop-color:#231F20"/>
		</radialGradient>
		<path opacity="0.1" fill="url(#SVGID_2_)" enable-background="new    " d="M256,26C129,26,26,129,26,256s103,230,230,230
			s230-103,230-230S383,26,256,26z M256,471.3c-118.9,0-215.3-96.4-215.3-215.3S137.1,40.7,256,40.7S471.3,137.1,471.3,256
			S374.9,471.3,256,471.3z"/>
	</g>
	<g>
		<polygon opacity="0.4" enable-background="new    " points="149.4,214.9 130,142.9 202.1,162.2 		"/>
		<polygon fill="#EFEFEF" points="151.4,203.9 132,131.9 204.1,151.2 		"/>
		<g>
			<circle fill="#FFFFFF" cx="256" cy="256" r="118"/>
			<path fill="#23B899" d="M256,144c29.9,0,58,11.6,79.2,32.8S368,226.1,368,256s-11.6,58-32.8,79.2S285.9,368,256,368
				s-58-11.6-79.2-32.8S144,285.9,144,256s11.6-58,32.8-79.2S226.1,144,256,144 M256,138c-65.2,0-118,52.8-118,118s52.8,118,118,118
				s118-52.8,118-118S321.2,138,256,138L256,138z"/>
		</g>
		<g>
			<circle fill="#29B890" cx="256" cy="256" r="54.7"/>
			<path opacity="0.4" enable-background="new    " d="M256,209.3c25.7,0,46.7,20.9,46.7,46.7s-20.9,46.7-46.7,46.7
				s-46.7-20.9-46.7-46.7S230.3,209.3,256,209.3 M256,201.3c-30.2,0-54.7,24.5-54.7,54.7s24.5,54.7,54.7,54.7s54.7-24.5,54.7-54.7
				S286.2,201.3,256,201.3L256,201.3z"/>
		</g>
	</g>
</g>
</svg>
