<?xml version="1.0" encoding="utf-8"?>
<!-- Generator: Adobe Illustrator 18.0.0, SVG Export Plug-In . SVG Version: 6.00 Build 0)  -->
<!DOCTYPE svg PUBLIC "-//W3C//DTD SVG 1.1//EN" "http://www.w3.org/Graphics/SVG/1.1/DTD/svg11.dtd">
<svg version="1.1" id="Layer_1" xmlns="http://www.w3.org/2000/svg" xmlns:xlink="http://www.w3.org/1999/xlink" x="0px" y="0px"
	 viewBox="0 0 512 512" style="enable-background:new 0 0 512 512;" xml:space="preserve">
<radialGradient id="SVGID_1_" cx="256" cy="256" r="230" gradientUnits="userSpaceOnUse">
	<stop  offset="0" style="stop-color:#FFFFFF"/>
	<stop  offset="0.6839" style="stop-color:#FCFCFC"/>
	<stop  offset="1" style="stop-color:#F7F7F7"/>
</radialGradient>
<circle style="fill:url(#SVGID_1_);" cx="256" cy="256" r="230"/>
<radialGradient id="SVGID_2_" cx="348.9227" cy="1131.4595" r="150.9912" gradientTransform="matrix(1 0 0 1 -150 -930)" gradientUnits="userSpaceOnUse">
	<stop  offset="0" style="stop-color:#FFFFFF"/>
	<stop  offset="1" style="stop-color:#E4E4E4"/>
</radialGradient>
<path style="fill:url(#SVGID_2_);" d="M256,105c-83.4,0-151,67.6-151,151s67.6,151,151,151s151-67.6,151-151S339.4,105,256,105z
	 M256,321.4c-36.1,0-65.4-29.3-65.4-65.4s29.3-65.4,65.4-65.4s65.4,29.3,65.4,65.4S292.1,321.4,256,321.4z"/>
<polygon style="fill:#555656;" points="242.2,240 242.2,272 269.8,256 "/>
<g>
	<polygon style="fill:#555656;" points="385.7,256 365.1,244.1 365.1,254.4 347.3,244.1 347.3,267.9 365.1,257.6 365.1,267.9 	"/>
	<polygon style="fill:#555656;" points="146.9,244.1 126.3,256 146.9,267.9 146.9,257.6 164.7,267.9 164.7,244.1 146.9,254.4 	"/>
</g>
</svg>
