<?xml version="1.0" encoding="utf-8"?>
<!-- Generator: Adobe Illustrator 18.0.0, SVG Export Plug-In . SVG Version: 6.00 Build 0)  -->
<!DOCTYPE svg PUBLIC "-//W3C//DTD SVG 1.1//EN" "http://www.w3.org/Graphics/SVG/1.1/DTD/svg11.dtd">
<svg version="1.1" id="Layer_1" xmlns="http://www.w3.org/2000/svg" xmlns:xlink="http://www.w3.org/1999/xlink" x="0px" y="0px"
	 viewBox="0 0 512 512" style="enable-background:new 0 0 512 512;" xml:space="preserve">
<g style="opacity:0.4;">
	<path d="M453.833,397.254V114.746c14.915-6.694,25.321-21.645,25.321-39.053c0-23.648-19.17-42.818-42.818-42.818
		c-17.408,0-32.359,10.406-39.053,25.321H114.717c-6.694-14.915-21.645-25.321-39.053-25.321c-23.648,0-42.818,19.17-42.818,42.818
		c0,17.408,10.406,32.359,25.321,39.053v282.509c-14.915,6.694-25.321,21.645-25.321,39.053c0,23.648,19.17,42.818,42.818,42.818
		c17.408,0,32.359-10.406,39.053-25.321h282.566c6.694,14.915,21.645,25.321,39.053,25.321c23.648,0,42.818-19.17,42.818-42.818
		C479.154,418.9,468.748,403.949,453.833,397.254z M93.161,397.254V114.746c9.569-4.295,17.261-11.987,21.556-21.556h282.566
		c4.295,9.569,11.987,17.262,21.556,21.556v282.509c-9.569,4.295-17.262,11.987-21.556,21.556H114.717
		C110.422,409.242,102.73,401.549,93.161,397.254z"/>
	<path d="M379.662,344.296V167.704c9.323-4.184,15.828-13.53,15.828-24.411c0-14.782-11.983-26.765-26.765-26.765
		c-10.881,0-20.227,6.504-24.411,15.828H167.687c-4.184-9.323-13.53-15.828-24.411-15.828c-14.782,0-26.765,11.983-26.765,26.765
		c0,10.881,6.504,20.227,15.828,24.411v176.591c-9.323,4.184-15.828,13.53-15.828,24.411c0,14.782,11.983,26.765,26.765,26.765
		c10.881,0,20.227-6.504,24.411-15.828h176.627c4.184,9.323,13.53,15.828,24.411,15.828c14.782,0,26.765-11.983,26.765-26.765
		C395.489,357.826,388.985,348.48,379.662,344.296z M154.212,344.296V167.704c5.982-2.684,10.79-7.493,13.474-13.474h176.627
		c2.685,5.982,7.493,10.79,13.474,13.474v176.591c-5.982,2.684-10.79,7.493-13.474,13.474H167.687
		C165.002,351.788,160.194,346.98,154.212,344.296z"/>
	<path d="M323.418,304.137v-96.275c5.083-2.281,8.629-7.376,8.629-13.309c0-8.059-6.533-14.592-14.592-14.592
		c-5.932,0-11.027,3.546-13.309,8.629h-96.294c-2.281-5.083-7.376-8.629-13.309-8.629c-8.059,0-14.592,6.533-14.592,14.592
		c0,5.932,3.546,11.027,8.629,13.309v96.275c-5.083,2.281-8.629,7.376-8.629,13.309c0,8.059,6.533,14.592,14.592,14.592
		c5.932,0,11.027-3.546,13.309-8.629h96.294c2.281,5.083,7.376,8.629,13.309,8.629c8.059,0,14.592-6.533,14.592-14.592
		C332.048,311.514,328.502,306.419,323.418,304.137z M200.507,304.137v-96.275c3.261-1.464,5.882-4.085,7.346-7.346h96.294
		c1.464,3.261,4.085,5.882,7.346,7.346v96.275c-3.261,1.464-5.882,4.085-7.346,7.346h-96.294
		C206.389,308.222,203.768,305.601,200.507,304.137z"/>
</g>
<g>
	<path style="fill:#FFFFFF;" d="M459.902,401.588V110.412C475.275,103.512,486,88.103,486,70.161
		c0-24.373-19.758-44.131-44.131-44.131c-17.942,0-33.352,10.725-40.251,26.098H110.383c-6.9-15.373-22.309-26.098-40.251-26.098
		C45.758,26.029,26,45.788,26,70.161c0,17.942,10.725,33.352,26.098,40.251v291.176C36.725,408.488,26,423.897,26,441.839
		c0,24.373,19.758,44.131,44.131,44.131c17.942,0,33.352-10.725,40.251-26.098h291.235c6.9,15.373,22.309,26.098,40.251,26.098
		c24.373,0,44.131-19.758,44.131-44.131C486,423.897,475.275,408.488,459.902,401.588z M88.165,401.588V110.412
		c9.863-4.427,17.791-12.355,22.218-22.218h291.235c4.427,9.863,12.355,17.791,22.218,22.218v291.176
		c-9.863,4.427-17.791,12.355-22.218,22.218H110.383C105.956,413.943,98.028,406.014,88.165,401.588z"/>
	<path style="fill:#FFFFFF;" d="M383.455,347.004V164.996c9.609-4.313,16.313-13.945,16.313-25.16
		c0-15.235-12.35-27.586-27.586-27.586c-11.215,0-20.848,6.704-25.16,16.313H164.977c-4.313-9.609-13.945-16.313-25.16-16.313
		c-15.235,0-27.586,12.351-27.586,27.586c0,11.215,6.704,20.848,16.313,25.16v182.008c-9.609,4.313-16.313,13.945-16.313,25.16
		c0,15.235,12.351,27.586,27.586,27.586c11.215,0,20.848-6.704,25.16-16.313h182.045c4.313,9.609,13.945,16.313,25.16,16.313
		c15.235,0,27.586-12.35,27.586-27.586C399.769,360.949,393.065,351.317,383.455,347.004z M151.09,347.004V164.996
		c6.165-2.767,11.121-7.723,13.888-13.888h182.046c2.767,6.165,7.723,11.121,13.888,13.888v182.008
		c-6.165,2.767-11.121,7.723-13.888,13.888H164.977C162.21,354.727,157.255,349.771,151.09,347.004z"/>
	<path style="fill:#FFFFFF;" d="M325.487,305.614v-99.228c5.239-2.351,8.894-7.603,8.894-13.717c0-8.306-6.733-15.039-15.039-15.039
		c-6.114,0-11.366,3.655-13.717,8.894h-99.249c-2.351-5.239-7.603-8.894-13.717-8.894c-8.306,0-15.039,6.733-15.039,15.039
		c0,6.114,3.655,11.366,8.894,13.717v99.228c-5.239,2.351-8.894,7.603-8.894,13.717c0,8.306,6.733,15.039,15.039,15.039
		c6.114,0,11.366-3.655,13.717-8.894h99.249c2.351,5.239,7.603,8.894,13.717,8.894c8.306,0,15.039-6.733,15.039-15.039
		C334.381,313.217,330.726,307.966,325.487,305.614z M198.804,305.614v-99.228c3.361-1.509,6.063-4.21,7.572-7.572h99.249
		c1.509,3.361,4.21,6.063,7.572,7.572v99.228c-3.361,1.509-6.063,4.21-7.572,7.572h-99.249
		C204.867,309.825,202.165,307.123,198.804,305.614z"/>
</g>
</svg>
