<?xml version="1.0" encoding="utf-8"?>
<!-- Generator: Adobe Illustrator 18.0.0, SVG Export Plug-In . SVG Version: 6.00 Build 0)  -->
<!DOCTYPE svg PUBLIC "-//W3C//DTD SVG 1.1//EN" "http://www.w3.org/Graphics/SVG/1.1/DTD/svg11.dtd">
<svg version="1.1" id="Layer_1" xmlns="http://www.w3.org/2000/svg" xmlns:xlink="http://www.w3.org/1999/xlink" x="0px" y="0px"
	 viewBox="0 0 512 512" style="enable-background:new 0 0 512 512;" xml:space="preserve">
<g>
	<path d="M446,486H66c-22.1,0-40-17.9-40-40V66c0-22.1,17.9-40,40-40h380c22.1,0,40,17.9,40,40v380C486,468.1,468.1,486,446,486z"/>
	<path style="opacity:0.2;fill:#1FAFFF;" d="M476.4,472l-43.2-34.6l52.8-63.9v-4l-54.8,66.3l-3.9-3.1c2-3,3.1-6.5,3.1-10.4
		c0-3.2-0.8-6.1-2.2-8.8l57.7-48v-3.3l-59.1,49.2c-1.7-2.3-3.9-4.3-6.4-5.6l27.3-78l38.2,12.6v-2.7l-37.4-12.3l37.3-106.4
		c0,0,0.1,0,0.1,0v-26.2c-0.7,0.2-1.4,0.4-2,0.6L405.9,46.3c2.7-1.8,4.8-4.5,5.8-7.6L484.4,55c-0.3-1-0.6-1.9-0.9-2.8l-71.3-16
		c0.1-0.6,0.1-1.2,0.1-1.9c0-3.1-1-6-2.7-8.3h-23.2c-1.1,1.5-1.9,3.3-2.4,5.2L344,26h-19.7l59.4,7.8c0,0.2,0,0.4,0,0.6
		c0,0.6,0,1.2,0.1,1.7L269.4,60.7c-1-2.9-3.1-5.2-5.8-6.5l9.7-28.2h-2.7l-9.4,27.4c-0.8-0.2-1.6-0.3-2.4-0.3c-3.2,0-6.1,1.3-8.1,3.5
		L209.9,26h-4.2l43.6,32.6c-1,1.6-1.5,3.6-1.5,5.6c0,0.2,0,0.4,0,0.5L133.6,83.4c-0.8-3.4-2.6-6.4-5.1-8.6L167,26h-3.2l-37.3,47.2
		c-2.7-1.9-6-2.9-9.6-2.9c-8.1,0-14.9,5.6-16.7,13.2l-40-6.6c0-0.5,0.1-1,0.1-1.5c0-2.3-0.5-4.5-1.3-6.5L144.2,26h-5.7L57.9,66.5
		c-2.7-4.5-7.3-7.6-12.7-8.2l1.2-27.2c-0.9,0.5-1.8,1-2.6,1.6l-1.1,25.5c-9,0.3-16.2,7.4-16.6,16.4v1.5c0.2,4.1,1.8,7.9,4.4,10.7
		L26,91.5v3.7l6.2-6.5c2.3,1.9,5.1,3.2,8.1,3.7L30,209.6c-0.1,0-0.2,0-0.2,0c-1.3,0-2.6,0.1-3.8,0.4v33.5c1.2,0.3,2.5,0.4,3.8,0.4
		c0.2,0,0.3,0,0.5,0l13.6,131.3c-2.8,0.5-5.4,1.7-7.5,3.4L26,367.2v3.8l8.5,9.4c-2.9,3.1-4.7,7.2-4.7,11.8c0,9.3,7.3,16.8,16.5,17.1
		v71.3c-0.1,0-0.3,0-0.4,0c3.9,2.3,8.3,3.9,12.9,4.8c-2.9-2.8-6.9-4.6-11.3-4.8v-71.3c5.5-0.2,10.3-3,13.3-7.1l70,43
		c-0.8,1.7-1.3,3.5-1.3,5.5c0,1.6,0.3,3.1,0.8,4.5L67.8,486h5.7l58-28.6c2.2,3.6,6.2,6,10.8,6c1.5,0,2.9-0.3,4.3-0.8l11.1,23.4h2.8
		l-11.7-24.5c2.7-1.6,4.7-4.2,5.6-7.2l68.1,13l-3.8,18.7h2.6l3.7-18.2l56.6,10.8c-0.1,0.6-0.1,1.3-0.1,2c0,1.9,0.3,3.8,0.9,5.5H322
		l-6.4-1.9c0.2-1.2,0.4-2.4,0.4-3.6c0-2.2-0.4-4.4-1.2-6.4l82.3-40.1c1.9,2.4,4.5,4.4,7.4,5.6l-21,46.4h2.8l20.6-45.6
		c1.6,0.4,3.2,0.7,4.9,0.7c5.6,0,10.6-2.5,14.1-6.4l3.8,3.1L389.8,486h3.3l38.5-46.6l43.1,34.5C475.3,473.3,475.8,472.6,476.4,472z
		 M446.2,324.6l-45.4-15c0.1-0.4,0.1-0.8,0.1-1.1c0-1.8-0.6-3.5-1.7-4.9l81.6-87.1c0.8,0.6,1.7,1.2,2.6,1.6L446.2,324.6z M255.6,366
		l130.5-53.4c0.5,0.8,1.1,1.5,1.9,2.1l-47,85.8l-85.2-27.8c0.2-0.9,0.3-1.9,0.3-2.9C256.2,368.5,256,367.2,255.6,366z M46.6,223.4
		l35-9.7l14,48.5c-3.3,1.2-6.1,3.2-8.3,5.8l-43-32.1c1.7-2.7,2.7-5.8,2.7-9.2C47,225.6,46.8,224.5,46.6,223.4z M84.1,213.1l22.5-6.2
		l-4.1,54.2c-0.1,0-0.1,0-0.2,0c-1.4,0-2.9,0.2-4.2,0.5L84.1,213.1z M109.2,206.2l73-20.1c0.8,2.2,2,4.2,3.6,5.9l-69.6,74.8
		c-2.9-2.9-6.8-4.9-11.1-5.5L109.2,206.2z M215.5,179.3l46.4-6.2l1.3,34.1c-3.6,0.5-6.7,2.4-8.8,5.2L213.7,188
		c1.2-2.3,1.8-4.9,1.8-7.7C215.5,180,215.5,179.6,215.5,179.3z M370.8,155.9l-65.2,8.8l31.1-44.2l36.5,25.7
		c-1.5,2.6-2.4,5.6-2.4,8.8C370.7,155.2,370.7,155.5,370.8,155.9z M371.1,158.4c1.6,7.6,8.1,13.3,16.1,13.6l1.3,39l-110.6,7.1
		c-0.5-3.1-2.1-5.9-4.4-7.9l30.1-42.7L371.1,158.4z M271.4,208.7c-1.7-1-3.6-1.6-5.7-1.7l-1.3-34.3l35.7-4.8L271.4,208.7z
		 M264.9,233.3c4,0,7.6-1.8,10-4.7l110.8,76.4c-0.3,0.7-0.6,1.5-0.7,2.3l-132.2,2.9l11.3-77C264.5,233.3,264.7,233.3,264.9,233.3z
		 M250.3,310.3l-27.9,0.6c-0.5-4.9-3-9.2-6.8-12l43.2-67.1c0.9,0.5,1.9,0.8,2.9,1.1L250.3,310.3z M253,214.5
		c-0.8,1.7-1.3,3.6-1.3,5.6c0,4.2,2,7.9,5,10.3l-43.2,67.1c-2.3-1.3-5-2-7.8-2.1l-5.2-98.1c4.9-0.6,9.1-3.3,11.9-7.1L253,214.5z
		 M203.2,295.6c-6.3,0.8-11.5,5-13.8,10.6l-67.8-21.5c0.3-1.3,0.4-2.6,0.4-4c0-4.6-1.6-8.8-4.2-12.1l69.8-75
		c2.9,2.3,6.4,3.7,10.4,3.8L203.2,295.6z M118.2,292.4l54.7,34.7l-51.1,25l-11.8-53.2C113.4,297.5,116.2,295.2,118.2,292.4z
		 M119.6,290.3c0.5-1,1-2,1.3-3l67.7,21.4c-0.3,1.3-0.5,2.6-0.5,4c0,2.3,0.4,4.4,1.2,6.4l-13.8,6.8L119.6,290.3z M190.5,321.3
		c1.6,2.7,3.8,4.9,6.5,6.4l-4.1,9.1l-14.8-9.4L190.5,321.3z M199.4,328.7c1.9,0.7,3.9,1.1,5.9,1.1c3,0,5.9-0.8,8.3-2.2l20.9,31.8
		c-0.8,0.7-1.5,1.4-2.2,2.2l-37.2-23.6L199.4,328.7z M215.8,326.2c3.9-3,6.4-7.5,6.7-12.7l27.5-0.6l-6.4,43.6c-0.2,0-0.4,0-0.7,0
		c-2.2,0-4.4,0.6-6.2,1.5L215.8,326.2z M252.5,312.8l132.6-2.9c0,0.1,0,0.2,0.1,0.3l-130.5,53.4c-1.8-3.3-4.9-5.8-8.6-6.7
		L252.5,312.8z M387.2,303l-110.8-76.4c1-1.8,1.6-3.8,1.6-5.9l110.5-7l2.9,87.1C389.8,301,388.3,301.8,387.2,303z M389.7,171.9
		c5.5-0.6,10.2-3.7,12.9-8.2l74,37.3c-0.5,1.4-0.9,2.9-0.9,4.5l-84.7,5.4L389.7,171.9z M391.1,213.4l84.7-5.4
		c0.4,2.6,1.5,4.9,3.2,6.8l-81.6,87.1c-1-0.7-2.2-1.1-3.4-1.3L391.1,213.4z M403.6,47.5l78.1,147.1c-1.6,1.1-3,2.5-4,4.1l-74-37.3
		c0.8-2,1.3-4.2,1.3-6.6c0-8.6-6.3-15.6-14.5-16.9l7.5-89.3C400.1,48.6,401.9,48.2,403.6,47.5z M395.6,48.4l-7.5,89.3
		c-0.1,0-0.1,0-0.2,0c-5.4,0-10.1,2.4-13.3,6.3l-36.5-25.7l51.2-72.7C391,47,393.2,48,395.6,48.4z M270,64.2c0-0.4,0-0.7-0.1-1.1
		l114.4-24.6c0.6,2,1.6,3.7,3,5.3l-51.4,73l-67.4-47.3C269.5,68,270,66.2,270,64.2z M267.2,71.6l67.4,47.3l-32.5,46.2l-37.8,5.1
		l-3.7-95C263.2,74.8,265.5,73.5,267.2,71.6z M258,75.3l3.7,95.2l-46.6,6.3c-1-4.7-3.8-8.6-7.8-11l47.5-91.1
		C255.9,75,256.9,75.2,258,75.3z M134.1,87.4c0-0.5,0-1-0.1-1.5l114.1-18.7c0.7,2.5,2.3,4.7,4.5,6.2l-47.5,91.1
		c-2.1-0.9-4.4-1.4-6.8-1.4c-3.9,0-7.4,1.3-10.3,3.5l-58.9-67.1C132.2,96.4,134.1,92.1,134.1,87.4z M116.9,104.6
		C116.9,104.6,116.9,104.6,116.9,104.6c3.9,0,7.5-1.3,10.3-3.5l58.9,67.1c-0.4,0.4-0.8,0.9-1.2,1.4l-69.3-46.9L116.9,104.6z
		 M183.4,171.8c-1.4,2.5-2.3,5.4-2.3,8.5c0,1.1,0.1,2.2,0.3,3.3l-72.1,19.9l5.9-77.8L183.4,171.8z M59.8,79.4l40,6.6
		c0,0.5-0.1,1-0.1,1.5c0,8.6,6.3,15.7,14.6,17l-1.3,16.7L58,83.9C58.8,82.5,59.4,81,59.8,79.4z M56.6,86l56.3,38.1l-6.1,80.1
		l-23.4,6.4L49.1,91.5C52.1,90.3,54.7,88.5,56.6,86z M42.9,92.5c0.1,0,0.2,0,0.2,0c1.2,0,2.4-0.1,3.5-0.4L81,211.3l-35,9.6
		c-2.1-5.8-7.2-10.1-13.4-11.2L42.9,92.5z M47,374.9c-0.2,0-0.3,0-0.5,0L32.8,243.6c3.9-0.7,7.4-2.7,9.9-5.6l43,32.1
		c-2,3.1-3.2,6.8-3.2,10.7c0,7.3,4,13.7,10,17.1l-38.3,78.7C52,375.5,49.6,374.9,47,374.9z M60.8,382c-1.2-1.6-2.7-3.1-4.3-4.2
		l38.3-78.8c2.3,0.9,4.8,1.5,7.5,1.5c1.9,0,3.7-0.3,5.4-0.8l11.8,53.5L60.8,382z M132.2,442.9l-70-43c1.2-2.4,1.9-5,1.9-7.9
		c0-2.9-0.7-5.5-1.9-7.9l57.9-28.4l18.3,82.7C135.9,439.4,133.8,440.9,132.2,442.9z M146.5,438.6c-1.3-0.4-2.7-0.7-4.1-0.7
		c-0.5,0-1,0-1.5,0.1l-18.4-83.4l53-26l16.4,10.4L146.5,438.6z M223.2,464.8l-68.2-13c0-0.4,0.1-0.7,0.1-1.1c0-4.7-2.5-8.8-6.3-11
		l45.3-99.2l36.9,23.4c-0.9,1.8-1.5,3.9-1.5,6c0,6.4,4.5,11.7,10.4,13L223.2,464.8z M282.3,476.1l-56.6-10.8l16.8-82.1
		c0.1,0,0.3,0,0.4,0c1.7,0,3.4-0.3,4.9-0.9l42.3,83.5C286.2,468.1,283.4,471.7,282.3,476.1z M298.8,463.4c-2.3,0-4.6,0.5-6.6,1.3
		L250,381.1c2.2-1.4,4-3.5,5.1-5.9l84.8,27.7l-33.9,62C303.8,463.9,301.4,463.4,298.8,463.4z M313.7,471.9c-1.4-2.3-3.2-4.3-5.5-5.8
		l34.2-62.5l50.8,16.6c-0.1,0.7-0.1,1.4-0.1,2.1c0,3.5,1,6.8,2.7,9.6L313.7,471.9z M393.6,417.7l-50-16.3l46.7-85.4
		c0.8,0.3,1.7,0.5,2.6,0.5c0,0,0,0,0,0l14.6,87.6C400.7,405.6,395.3,410.9,393.6,417.7z M411.7,403.6c-0.6,0-1.1,0-1.7,0.1
		L395.5,316c2-0.7,3.6-2.1,4.6-4l45.3,14.9l-27.2,77.7C416.2,404,414,403.6,411.7,403.6z"/>
	<linearGradient id="SVGID_1_" gradientUnits="userSpaceOnUse" x1="256" y1="26" x2="256" y2="486">
		<stop  offset="0" style="stop-color:#FFFFFF"/>
		<stop  offset="1" style="stop-color:#FFFFFF;stop-opacity:0.5"/>
	</linearGradient>
	<path style="fill:url(#SVGID_1_);" d="M446,36c16.5,0,30,13.5,30,30v380c0,16.5-13.5,30-30,30H66c-16.5,0-30-13.5-30-30V66
		c0-16.5,13.5-30,30-30H446 M446,26H66c-22.1,0-40,17.9-40,40v380c0,22.1,17.9,40,40,40h380c22.1,0,40-17.9,40-40V66
		C486,43.9,468.1,26,446,26L446,26z"/>
</g>
<g style="opacity:0.4;">
	<circle cx="256" cy="256.2" r="9"/>
	<g>
		<g>
			<path d="M256,293.9c-20.8,0-37.8-16.9-37.8-37.8s16.9-37.7,37.8-37.7s37.8,16.9,37.8,37.7S276.8,293.9,256,293.9z M256,221.4
				c-19.2,0-34.8,15.6-34.8,34.7s15.6,34.8,34.8,34.8s34.8-15.6,34.8-34.8S275.2,221.4,256,221.4z"/>
		</g>
		<g>
			<path d="M256,329.3c-40.3,0-73.2-32.8-73.2-73.2c0-40.3,32.8-73.2,73.2-73.2c40.3,0,73.2,32.8,73.2,73.2
				C329.2,296.5,296.3,329.3,256,329.3z M256,186c-38.7,0-70.2,31.5-70.2,70.2c0,38.7,31.5,70.2,70.2,70.2
				c38.7,0,70.2-31.5,70.2-70.2C326.2,217.5,294.7,186,256,186z"/>
		</g>
		<g>
			<path d="M256,364.7c-59.9,0-108.6-48.7-108.6-108.6S196.1,147.6,256,147.6s108.6,48.7,108.6,108.6S315.9,364.7,256,364.7z
				 M256,150.6c-58.2,0-105.6,47.4-105.6,105.6S197.8,361.7,256,361.7s105.6-47.4,105.6-105.6S314.2,150.6,256,150.6z"/>
		</g>
		<g>
			<path d="M256,400.2c-79.4,0-144-64.6-144-144c0-79.4,64.6-144,144-144c79.4,0,144,64.6,144,144C400,335.6,335.4,400.2,256,400.2z
				 M256,115.2c-77.7,0-141,63.3-141,141c0,77.7,63.3,141,141,141c77.7,0,141-63.3,141-141C397,178.4,333.7,115.2,256,115.2z"/>
		</g>
	</g>
	<circle cx="182.5" cy="134.2" r="9"/>
	<g>
		<rect x="235" y="305.4" transform="matrix(0.7071 0.7071 -0.7071 0.7071 306.8679 -127.0112)" width="143.5" height="3"/>
	</g>
	<circle cx="148.8" cy="256.5" r="9"/>
	<circle cx="210.8" cy="312.8" r="9"/>
	<circle cx="356.2" cy="293.8" r="9"/>
	<circle cx="369.2" cy="170.2" r="9"/>
	<circle cx="256.2" cy="220.2" r="9"/>
	<circle cx="256.2" cy="398.8" r="9"/>
</g>
<g>
	<circle style="fill:#0098FF;" cx="256" cy="252.2" r="9"/>
	<g>
		<g>
			<path style="fill:#0098FF;" d="M256,289.9c-20.8,0-37.8-16.9-37.8-37.7s16.9-37.8,37.8-37.8s37.8,16.9,37.8,37.8
				S276.8,289.9,256,289.9z M256,217.4c-19.2,0-34.8,15.6-34.8,34.8s15.6,34.7,34.8,34.7s34.8-15.6,34.8-34.7S275.2,217.4,256,217.4
				z"/>
		</g>
		<g>
			<path style="fill:#0098FF;" d="M256,325.3c-40.3,0-73.2-32.8-73.2-73.2c0-40.3,32.8-73.2,73.2-73.2c40.3,0,73.2,32.8,73.2,73.2
				C329.2,292.5,296.3,325.3,256,325.3z M256,182c-38.7,0-70.2,31.5-70.2,70.2c0,38.7,31.5,70.2,70.2,70.2
				c38.7,0,70.2-31.5,70.2-70.2C326.2,213.5,294.7,182,256,182z"/>
		</g>
		<g>
			<path style="fill:#0098FF;" d="M256,360.7c-59.9,0-108.6-48.7-108.6-108.6S196.1,143.6,256,143.6s108.6,48.7,108.6,108.6
				S315.9,360.7,256,360.7z M256,146.6c-58.2,0-105.6,47.4-105.6,105.6S197.8,357.7,256,357.7s105.6-47.4,105.6-105.6
				S314.2,146.6,256,146.6z"/>
		</g>
		<g>
			<path style="fill:#0098FF;" d="M256,396.2c-79.4,0-144-64.6-144-144c0-79.4,64.6-144,144-144c79.4,0,144,64.6,144,144
				C400,331.6,335.4,396.2,256,396.2z M256,111.2c-77.7,0-141,63.3-141,141c0,77.7,63.3,141,141,141c77.7,0,141-63.3,141-141
				C397,174.4,333.7,111.2,256,111.2z"/>
		</g>
	</g>
	<circle style="fill:#0098FF;" cx="182.5" cy="130.2" r="9"/>
	<g>
		
			<rect x="235" y="301.4" transform="matrix(0.7071 0.7071 -0.7071 0.7071 304.0394 -128.1828)" style="fill:#0098FF;" width="143.5" height="3"/>
	</g>
	<circle style="fill:#0098FF;" cx="148.8" cy="252.5" r="9"/>
	<circle style="fill:#0098FF;" cx="210.8" cy="308.8" r="9"/>
	<circle style="fill:#0098FF;" cx="356.2" cy="289.8" r="9"/>
	<circle style="fill:#0098FF;" cx="369.2" cy="166.2" r="9"/>
	<circle style="fill:#0098FF;" cx="256.2" cy="216.2" r="9"/>
	<circle style="fill:#0098FF;" cx="256.2" cy="394.8" r="9"/>
</g>
</svg>
