<?xml version="1.0" encoding="utf-8"?>
<!-- Generator: Adobe Illustrator 18.0.0, SVG Export Plug-In . SVG Version: 6.00 Build 0)  -->
<!DOCTYPE svg PUBLIC "-//W3C//DTD SVG 1.1//EN" "http://www.w3.org/Graphics/SVG/1.1/DTD/svg11.dtd">
<svg version="1.1" id="Layer_1" xmlns="http://www.w3.org/2000/svg" xmlns:xlink="http://www.w3.org/1999/xlink" x="0px" y="0px"
	 viewBox="0 0 512 512" enable-background="new 0 0 512 512" xml:space="preserve">
<g>
	<g>
		<polygon fill="#EE3A24" points="256,411.7 356.8,247.2 174.2,278.2 		"/>
		<path fill="#F58A1F" d="M148,235.5l0.1,0.1l0.1,0.1l23.9,39l2,3.3l182.6-31l4.4-7.2l2.6-4.2l0.1-0.1l0.1-0.1
			c13.8-21,21.1-45.5,21.1-70.7c0-4.8-0.3-9.6-0.8-14.5l-254.1,43.1C133.5,208.5,139.6,222.6,148,235.5z"/>
		<path fill="#FDBB11" d="M384.2,149.8l-0.1-0.6c-3.6-29.9-17.7-57.7-39.7-78.4c-1.8-1.7-3.7-3.4-5.7-5L145.2,98.7
			c-1.3,2.1-2.5,4.3-3.6,6.5l0,0.1l-0.1,0.1c-9.6,18.5-14.5,38.5-14.5,59.5c0,9.5,1,19,3.1,28.2c0,0.2,0.1,0.3,0.1,0.5l254.1-43.1
			C384.2,150.2,384.2,150,384.2,149.8z"/>
		<path fill="#7AC043" d="M256,35.7c-45.8,0-87.6,23.9-110.8,63l193.7-32.8C315.6,46.4,286.5,35.7,256,35.7z"/>
	</g>
	<path fill="#FFFFFF" d="M256,36.9c70.5,0,127.9,57.4,127.9,127.9c0,25-7.2,49.3-20.9,70.1l-0.1,0.1l-0.1,0.1L256,409.4L149.2,235.2
		l-0.1-0.1l-0.1-0.1c-13.7-20.8-20.9-45.1-20.9-70.1C128.1,94.3,185.5,36.9,256,36.9 M256,26c-76.7,0-138.8,62.1-138.8,138.8
		c0,28.1,8.4,54.2,22.7,76.1L256,430.3l116.1-189.4c14.4-21.9,22.7-48,22.7-76.1C394.8,88.1,332.7,26,256,26L256,26z"/>
	<g>
		<path fill="#FFFFFF" d="M286.8,190.6c-2.5-2.5-5.9-3.9-9.5-3.9c-2.1,0-4.1,0.5-5.9,1.4c-3.7-1.8-8.2-1.8-11.9,0
			c-3.7-1.8-8.2-1.8-11.9,0c-3.7-1.8-8.2-1.8-11.9,0c-1.8-0.9-3.9-1.4-5.9-1.4c-7.4,0-13.4,6-13.4,13.4c0,6.8,5.2,12.5,11.9,13.3
			v143.3l0,0.7l3,0V210.4l-0.7,0.1c-0.5,0-1,0-1.6,0c-5.4-0.4-9.6-4.9-9.6-10.3c0-5.7,4.6-10.3,10.3-10.3c1,0,2,0.1,2.9,0.4
			c-2.8,2.5-4.4,6.1-4.4,9.9c0,4.2,2,8.2,5.4,10.7c0.6,0.4,1.2,0.8,1.7,1.1l0.3,0.2l0.3-0.2c0.6-0.3,1.1-0.7,1.7-1.1
			c1.6-1.2,2.9-2.8,3.9-4.5c0.9,1.8,2.2,3.3,3.9,4.5c0.6,0.4,1.2,0.8,1.7,1.1l0.3,0.2l0.3-0.2c0.6-0.3,1.2-0.7,1.7-1.1
			c1.6-1.2,2.9-2.8,3.9-4.5c0.9,1.8,2.2,3.3,3.9,4.5c0.6,0.4,1.2,0.8,1.7,1.1l0.3,0.2l0.3-0.2c0.6-0.3,1.1-0.7,1.7-1.1
			c1.6-1.2,2.9-2.8,3.9-4.5c0.9,1.8,2.2,3.3,3.9,4.5c0.6,0.4,1.2,0.8,1.7,1.1l0.3,0.2l0.3-0.2c0.6-0.3,1.2-0.7,1.7-1.1
			c3.4-2.6,5.4-6.5,5.4-10.7c0-3.8-1.6-7.4-4.4-9.9c0.9-0.3,1.9-0.4,2.9-0.4c5.7,0,10.3,4.6,10.3,10.3c0,5.1-3.8,9.4-8.8,10.2
			c-0.6,0.1-1.1,0.1-1.6,0.1l-0.7,0v147h3.1V213.3c6.3-1.1,11-6.7,11-13.2C290.7,196.5,289.3,193.2,286.8,190.6z M275.8,200.1
			c0,3.4-1.6,6.5-4.4,8.4c-2.8-1.9-4.4-5.1-4.4-8.4c0-3.4,1.6-6.5,4.4-8.4C274.1,193.6,275.8,196.7,275.8,200.1z M265.4,193.9
			c-0.7-1.4-1.7-2.7-2.9-3.7c1.9-0.5,3.9-0.5,5.8,0C267.2,191.3,266.2,192.5,265.4,193.9z M263.9,200.1c0,3.4-1.6,6.5-4.4,8.4
			c-2.8-1.9-4.4-5.1-4.4-8.4s1.6-6.5,4.4-8.4C262.3,193.6,263.9,196.7,263.9,200.1z M253.6,193.9c-0.7-1.4-1.7-2.7-2.9-3.7
			c1.9-0.5,3.9-0.5,5.8,0C255.3,191.3,254.3,192.5,253.6,193.9z M252,200.1c0,3.4-1.6,6.5-4.4,8.4c-2.8-1.9-4.4-5.1-4.4-8.4
			s1.6-6.5,4.4-8.4C250.4,193.6,252,196.7,252,200.1z M244.6,190.2c-1.2,1.1-2.2,2.3-2.9,3.7c-0.7-1.4-1.7-2.7-2.9-3.7
			C240.7,189.6,242.7,189.6,244.6,190.2z M240.2,200.1c0,3.4-1.6,6.5-4.4,8.4c-2.8-1.9-4.4-5.1-4.4-8.4c0-3.4,1.6-6.5,4.4-8.4
			C238.5,193.6,240.2,196.7,240.2,200.1z"/>
		<path fill="#3A3A3A" d="M311.7,430.3v-90.9H200.3v90.9l0,0c0,30.8,24.9,55.7,55.7,55.7C286.8,486,311.7,461.1,311.7,430.3
			C311.7,430.3,311.7,430.3,311.7,430.3z"/>
	</g>
</g>
</svg>
