<?xml version="1.0" encoding="utf-8"?>
<!-- Generator: Adobe Illustrator 18.0.0, SVG Export Plug-In . SVG Version: 6.00 Build 0)  -->
<!DOCTYPE svg PUBLIC "-//W3C//DTD SVG 1.1//EN" "http://www.w3.org/Graphics/SVG/1.1/DTD/svg11.dtd">
<svg version="1.1" id="Layer_3" xmlns="http://www.w3.org/2000/svg" xmlns:xlink="http://www.w3.org/1999/xlink" x="0px" y="0px"
	 viewBox="0 0 512 512" style="enable-background:new 0 0 512 512;" xml:space="preserve">
<path style="fill:#1C1C1C;" d="M440,486H72c-25.4,0-46-20.6-46-46V72c0-25.4,20.6-46,46-46h368c25.4,0,46,20.6,46,46v368
	C486,465.4,465.4,486,440,486z"/>
<linearGradient id="SVGID_1_" gradientUnits="userSpaceOnUse" x1="256" y1="429.436" x2="256" y2="82.564">
	<stop  offset="0" style="stop-color:#2A2CFF"/>
	<stop  offset="1" style="stop-color:#08085E"/>
</linearGradient>
<path style="fill:url(#SVGID_1_);" d="M399.3,429.4H112.7c-16.7,0-30.2-13.5-30.2-30.2V112.7c0-16.7,13.5-30.2,30.2-30.2h286.5
	c16.7,0,30.2,13.5,30.2,30.2v286.5C429.4,415.9,415.9,429.4,399.3,429.4z"/>
<radialGradient id="SVGID_2_" cx="256" cy="256" r="230" gradientUnits="userSpaceOnUse">
	<stop  offset="0.7663" style="stop-color:#2A2CFF"/>
	<stop  offset="0.8193" style="stop-color:#292BFC;stop-opacity:0.7733"/>
	<stop  offset="0.8563" style="stop-color:#2729F3;stop-opacity:0.6151"/>
	<stop  offset="0.8883" style="stop-color:#2426E4;stop-opacity:0.4778"/>
	<stop  offset="0.9176" style="stop-color:#2021CE;stop-opacity:0.3525"/>
	<stop  offset="0.9451" style="stop-color:#1A1BB1;stop-opacity:0.2351"/>
	<stop  offset="0.9711" style="stop-color:#12138F;stop-opacity:0.1237"/>
	<stop  offset="0.9956" style="stop-color:#0A0A66;stop-opacity:1.903963e-02"/>
	<stop  offset="1" style="stop-color:#08085E;stop-opacity:0"/>
</radialGradient>
<rect x="26" y="26" style="opacity:0.15;fill:url(#SVGID_2_);" width="460" height="460"/>
<g>
	<linearGradient id="SVGID_3_" gradientUnits="userSpaceOnUse" x1="256" y1="416" x2="256" y2="96">
		<stop  offset="0" style="stop-color:#157FFF"/>
		<stop  offset="1" style="stop-color:#030303"/>
	</linearGradient>
	<path style="fill:url(#SVGID_3_);" d="M377.5,416H134.5c-22.1,0-40-17.9-40-40V136c0-22.1,17.9-40,40-40h242.9
		c22.1,0,40,17.9,40,40v240C417.5,398.1,399.6,416,377.5,416z"/>
	<linearGradient id="SVGID_4_" gradientUnits="userSpaceOnUse" x1="255.8922" y1="416" x2="255.8922" y2="329.011">
		<stop  offset="0" style="stop-color:#157FFF"/>
		<stop  offset="1" style="stop-color:#030303"/>
	</linearGradient>
	<path style="fill:url(#SVGID_4_);" d="M252,329c-77.3,0-139.3,0.6-156.3,56.4c4.2,17.5,20,30.6,38.9,30.6h242.9
		c18.5,0,34.1-12.6,38.7-29.7C397.7,329.7,329.7,329,252,329z"/>
	<path style="fill:#282828;" d="M360.2,387.9H151.8c-22.1,0-40-17.9-40-40V139.5c0-22.1,17.9-40,40-40h208.4c22.1,0,40,17.9,40,40
		v208.4C400.2,370,382.3,387.9,360.2,387.9z"/>
	<g>
		<g>
			<g>
				<path style="opacity:0.2;fill:#0365DB;" d="M219.4,237.4c-3.1,0-6-2-7.1-4.9l-4.6-12.7c-0.2-0.6-0.7-0.9-1.3-0.9h-23.5
					c-0.6,0-1.1,0.4-1.3,0.9l-4.6,12.7c-1.1,3-3.9,5-7.1,5c-2.5,0-4.8-1.2-6.2-3.3c-1.4-2-1.7-4.6-0.8-6.9l23.7-62
					c1.1-2.9,3.9-4.8,7-4.8h2c3.1,0,5.9,1.9,7,4.8l23.7,62c0.9,2.3,0.6,4.9-0.8,6.9C224.2,236.2,221.8,237.4,219.4,237.4z
					 M194.6,186.6c-0.4,0-1,0.1-1.3,0.9l-5.7,15.7c-0.2,0.6,0,1.1,0.2,1.3c0.2,0.2,0.5,0.6,1.1,0.6h11.4c0.6,0,1-0.4,1.1-0.6
					c0.2-0.2,0.4-0.7,0.2-1.3l-5.7-15.7C195.6,186.7,195,186.6,194.6,186.6z"/>
				<path style="fill:#0365DB;" d="M206.3,215.8h-23.5c-1.9,0-3.6,1.2-4.2,2.9l-4.6,12.7c-0.6,1.8-2.3,2.9-4.2,2.9h0
					c-3.1,0-5.3-3.1-4.2-6l23.7-62c0.7-1.7,2.3-2.9,4.2-2.9h2c1.8,0,3.5,1.1,4.2,2.9l23.7,62c1.1,2.9-1,6.1-4.2,6.1l0,0
					c-1.9,0-3.5-1.2-4.2-2.9l-4.6-12.7C209.9,216.9,208.2,215.8,206.3,215.8z M188.9,208.1h11.4c3.1,0,5.2-3.1,4.2-6l-5.7-15.7
					c-1.4-3.9-7-3.9-8.4,0l-5.7,15.7C183.7,205,185.8,208.1,188.9,208.1z"/>
			</g>
			<g>
				<path style="opacity:0.2;fill:#0365DB;" d="M337.2,240.3c-2.7,0-4.9-2.2-4.9-4.9v-52.9c0-4.1-1.6-4.8-2.2-5
					c-1.9-0.9-4-1.3-6.3-1.3c-1.8,0-3.7,0.4-5.6,1.1l0.1,0c0.2,0.1,0.4,0.2,0.5,0.3l2.6,1.9c0.3,0.2,0.7,0.5,1.3,0.9l0.3,0.2
					l0.3,0.3c0,0,0.1,0.1,0.1,0.1l3.6,3l-4.2,2.1c-2.6,1.3-3.8,2.4-4.4,3.1c-0.2,0.2-0.7,1.1-0.7,3.8v4.4c1,0.2,2.1,0.5,3.3,1
					c2.9,1.1,6.5,4,6.5,11.7c0,3.2-1.3,6-3.8,8.1c-2.2,1.9-4.9,2.9-8,2.9c-3.3,0-6.2-1.2-8.4-3.4c-2.2-2.2-3.3-5.1-3.3-8.4v-17.5
					c0-1.1,0.1-2.1,0.3-3.1c0-0.2,0.1-0.4,0.2-0.7c0.5-1.3,1.1-2.5,1.8-3.6l-2.2-0.8c-2.6-1-4.1-1.5-4.1-3.7v-2.8
					c0-1.5,0.6-2.8,1.8-3.8c1.9-1.5,3.7-2.8,5.4-3.8c4.1-2.4,8.2-3.9,12.3-4.6c1.4-0.3,2.9-0.4,4.4-0.4c4.6,0,9,0.9,13.1,2.6
					c4.1,1.7,9,5.7,9,15.1v53.3c0,2.7-2.2,4.9-4.9,4.9H337.2z M315.4,209.8c0.1,0,0.2,0,0.6,0c0.2,0,0.3,0,0.4,0
					c0-0.1,0.1-0.4,0.1-0.8c0-0.3,0-0.4,0-0.5c-0.1,0-0.2,0-0.4,0c-0.3,0-0.5,0-0.6,0.1c0,0.1,0,0.3,0,0.5
					C315.3,209.4,315.4,209.7,315.4,209.8C315.4,209.8,315.4,209.8,315.4,209.8z"/>
				<path style="fill:#0365DB;" d="M306.9,191.7c0-0.9,0.1-1.7,0.2-2.5c0-0.1,0-0.2,0.1-0.3c0.5-1.6,1.4-2.9,2.5-3.8
					c0.5-0.3,1.1-0.8,1.9-1.4l-1.4-0.9c-0.1,0-0.1-0.1-0.2-0.1l-2.2-1c0,0-0.1,0-0.1-0.1l-2.7-1c-1.4-0.5-2.1-0.8-2.1-0.8v-2.8
					c0-0.5,0.2-1.1,0.7-1.4c1.7-1.4,3.4-2.6,5-3.5c3.8-2.2,7.5-3.6,11.3-4.3c1.3-0.2,2.6-0.4,3.9-0.4c4.2,0,8.2,0.8,11.9,2.4
					c4.7,1.9,7.1,6,7.1,12.3v53.3c0,1-0.8,1.8-1.8,1.8h-3.9c-1,0-1.8-0.8-1.8-1.8v-52.9c0-4-1.3-6.6-4-7.8c-2.3-1-4.8-1.5-7.6-1.5
					c-2.4,0-4.8,0.5-7.2,1.5c-0.7,0.3-1.5,0.6-2.2,1c-1.2,0.7-1.2,2.5,0.1,3.2c0,0,0,0,0,0l2.3,1.2c0.1,0,0.1,0.1,0.2,0.1l2.5,1.8
					c0.3,0.2,0.8,0.6,1.4,1c0.2,0.2,0.3,0.3,0.5,0.5c-2.5,1.2-4.3,2.5-5.4,3.8c-1,1.2-1.5,3.1-1.5,5.7v7.6c0.4-0.2,0.8-0.3,1.4-0.3
					c1,0,2.2,0.3,3.8,0.9c3,1.1,4.5,4.1,4.5,8.8c0,2.3-0.9,4.2-2.7,5.7c-1.7,1.5-3.7,2.2-6.1,2.2c-2.5,0-4.5-0.8-6.1-2.5
					c-1.6-1.7-2.4-3.7-2.4-6.2V191.7z M319.5,208.9c0-2.4-1.2-3.6-3.6-3.6c-2.5,0-3.7,1.2-3.7,3.6c0,2.6,1.2,3.9,3.7,3.9
					C318.3,212.9,319.5,211.6,319.5,208.9z"/>
				<path style="opacity:0.2;fill:#0365DB;" d="M339.7,335.7c-2,0-3.8-1.3-4.6-3.1l-9.1-24l-8.8,23.9c-0.7,1.9-2.5,3.2-4.6,3.2h-5
					c-2.7,0-4.9-2.2-4.9-4.9v-28.1c-2.2-0.3-4.2-1.1-5.9-2.5c-2.6-2.1-3.9-5.5-3.9-10.1c0-3.4,1.7-6.4,4.9-8.9
					c1.8-1.4,4.1-2.1,6.9-2.1c3.6,0,6.7,1.4,8.8,4.1c1.9,2.4,2.8,5,2.8,7.7v8l5.2-13.4c0.7-1.9,2.5-3.1,4.5-3.1c2,0,3.8,1.2,4.5,3.1
					l5.3,13.7v-33.1c0-2.7,2.2-4.9,4.9-4.9h3.9c2.7,0,4.9,2.2,4.9,4.9v64.7c0,2.7-2.2,4.9-4.9,4.9H339.7z M303.9,291.8
					c0.1,0,0.2,0,0.4,0l0,0c0.2,0,0.4,0,0.6,0c0.1-0.8,0-1.2-0.1-1.4c-0.1,0-0.2,0-0.5,0c-0.2,0-0.3,0-0.4,0c0,0.1-0.1,0.4-0.1,0.8
					C303.9,291.5,303.9,291.7,303.9,291.8z"/>
				<path style="fill:#0365DB;" d="M327.9,286.6l7.7,19.9c0.7,1.9,3.5,1.3,3.5-0.7v-39.7c0-1,0.8-1.8,1.8-1.8h3.9
					c1,0,1.8,0.8,1.8,1.8v64.7c0,1-0.8,1.8-1.8,1.8h-5.1c-0.8,0-1.4-0.5-1.7-1.2l-11.6-30.6c0-0.1-0.1-0.3-0.1-0.4l-0.3-2.4
					l-0.2,2.3c0,0.1,0,0.3-0.1,0.4l-11.2,30.6c-0.3,0.7-0.9,1.2-1.7,1.2h-5c-1,0-1.8-0.8-1.8-1.8v-31.3c-0.3,0.2-0.8,0.2-1.5,0.2
					c-2.2,0-4-0.6-5.5-1.9c-1.9-1.5-2.8-4.1-2.8-7.7c0-2.4,1.2-4.6,3.7-6.5c1.3-1,2.9-1.5,5-1.5c2.7,0,4.9,1,6.4,2.9
					c1.4,1.8,2.1,3.8,2.1,5.8v14.7c0,2,2.8,2.5,3.5,0.6l7.6-19.8C325.1,285.1,327.3,285.1,327.9,286.6z M300.8,291.3
					c0,3,1.9,4.2,5.6,3.4c0.7-0.1,1.3-0.8,1.4-1.5c0.7-3.9-0.5-5.8-3.5-5.8C302,287.4,300.8,288.7,300.8,291.3z"/>
			</g>
		</g>
	</g>
</g>
</svg>
