<?xml version="1.0" encoding="utf-8"?>
<!-- Generator: Adobe Illustrator 18.0.0, SVG Export Plug-In . SVG Version: 6.00 Build 0)  -->
<!DOCTYPE svg PUBLIC "-//W3C//DTD SVG 1.1//EN" "http://www.w3.org/Graphics/SVG/1.1/DTD/svg11.dtd">
<svg version="1.1" id="Layer_2" xmlns="http://www.w3.org/2000/svg" xmlns:xlink="http://www.w3.org/1999/xlink" x="0px" y="0px"
	 viewBox="0 0 512 512" style="enable-background:new 0 0 512 512;" xml:space="preserve">
<circle style="fill:#910202;" cx="256" cy="256" r="230"/>
<g>
	<path style="fill:#FFFFFF;" d="M370.577,253.005c0-0.029-0.001-0.059-0.001-0.088h0.001v-37.324
		c0-5.772-4.679-10.451-10.451-10.451s-10.451,4.679-10.451,10.451v37.324h-0.001c0,0.029,0.001,0.059,0.001,0.088
		c0,51.653-42.022,93.675-93.675,93.675s-93.675-42.022-93.675-93.675c0-0.029,0.001-0.059,0.001-0.088h-0.001v-37.324
		c0-5.772-4.679-10.451-10.451-10.451s-10.451,4.679-10.451,10.451v37.324h0.001c0,0.029-0.001,0.059-0.001,0.088
		c0,59.655,45.829,108.799,104.126,114.096v28.683c0,5.772,4.679,10.451,10.451,10.451c5.772,0,10.451-4.679,10.451-10.451V367.1
		C324.749,361.803,370.577,312.66,370.577,253.005z"/>
	<path style="fill:#FFFFFF;" d="M329.62,252.968v-73.58c0-0.001,0-0.001,0-0.002c0-40.659-32.961-73.62-73.62-73.62
		s-73.62,32.961-73.62,73.62c0,0.001,0,0.001,0,0.002v73.58h0.001c0,0.012-0.001,0.025-0.001,0.037
		c0,40.659,32.961,73.62,73.62,73.62s73.62-32.961,73.62-73.62C329.62,252.993,329.619,252.98,329.62,252.968L329.62,252.968z"/>
</g>
</svg>
