<?xml version="1.0" encoding="utf-8"?>
<!-- Generator: Adobe Illustrator 18.0.0, SVG Export Plug-In . SVG Version: 6.00 Build 0)  -->
<!DOCTYPE svg PUBLIC "-//W3C//DTD SVG 1.1//EN" "http://www.w3.org/Graphics/SVG/1.1/DTD/svg11.dtd">
<svg version="1.1" id="Layer_1" xmlns="http://www.w3.org/2000/svg" xmlns:xlink="http://www.w3.org/1999/xlink" x="0px" y="0px"
	 viewBox="0 0 512 512" style="enable-background:new 0 0 512 512;" xml:space="preserve">
<g>
	<g>
		<g>
			<g>
				<polygon style="fill:#E2E2E2;" points="431.8,348 430.1,348.4 430.1,383.8 430.1,401.9 430.1,420.9 466.4,413.6 456.3,364.2 
					452.7,346.4 430.1,235.5 430.1,339.6 				"/>
			</g>
			<g>
				<polygon style="fill:#E2E2E2;" points="125.1,483 276.1,452.3 118.9,452.3 				"/>
			</g>
			<g>
				<g>
					<polygon style="fill:#E2E2E2;" points="81.9,106.2 81.9,85.1 81.5,85.1 81.5,106.3 					"/>
				</g>
				<polygon style="fill:#F99D1C;" points="70.1,108.6 81.5,164.5 81.5,106.3 				"/>
				<polygon style="fill:#E2E2E2;" points="81.5,164.5 70.1,108.6 81.5,106.3 81.5,85.1 45.6,92.4 68.9,206.5 81.9,270.5 
					81.9,166.4 				"/>
			</g>
			<g>
				<g>
					<polygon style="fill:#E2E2E2;" points="371.9,53.7 393.1,53.7 393,53.1 371.8,53.1 					"/>
				</g>
				<g>
					<polygon style="fill:#E2E2E2;" points="235.9,53.7 340.1,53.7 343.1,53.1 238.9,53.1 					"/>
				</g>
				<polygon style="fill:#F99D1C;" points="343.1,53.1 371.8,53.1 370.7,47.5 				"/>
				<polygon style="fill:#E2E2E2;" points="238.9,53.1 343.1,53.1 370.7,47.5 371.8,53.1 393,53.1 386.9,23 				"/>
				<g>
					<path style="fill:#F3F3F3;" d="M81.9,53.7v398.6h348.2V53.7H81.9z M409.3,183.6v197.5H102.7V74.5h306.7v88.4L409.3,183.6
						L409.3,183.6z"/>
				</g>
			</g>
		</g>
	</g>
	
		<radialGradient id="SVGID_1_" cx="314.5698" cy="207.8845" r="367.3916" gradientTransform="matrix(1 0 0 -1 0 512)" gradientUnits="userSpaceOnUse">
		<stop  offset="0" style="stop-color:#06AF86"/>
		<stop  offset="1" style="stop-color:#406EA7"/>
	</radialGradient>
	<polygon style="fill:url(#SVGID_1_);" points="409.3,381.2 409.3,183.6 409.3,162.9 409.3,74.5 102.7,74.5 102.7,381.2 
		200.6,381.2 221.4,381.2 	"/>
	<g>
		<circle style="fill:#FFD111;" cx="259.2" cy="226.4" r="75.4"/>
		<polygon style="fill:#5EC4B8;" points="309.6,268.4 244.5,381.2 374.7,381.2 		"/>
		<polygon style="fill:#71C9BC;" points="191.7,302.6 146.4,381.2 237.1,381.2 		"/>
		<polygon style="fill:#29B898;" points="387.8,343.5 366.2,380.8 409.3,380.8 		"/>
		<polygon style="fill:#5EC4B8;" points="134.3,329.9 104.7,381.2 163.8,381.2 		"/>
	</g>
</g>
<g>
	<g>
		
			<linearGradient id="SVGID_2_" gradientUnits="userSpaceOnUse" x1="256" y1="28.207" x2="256" y2="252.073" gradientTransform="matrix(1 0 0 -1 0 512)">
			<stop  offset="0" style="stop-color:#010101"/>
			<stop  offset="0.9877" style="stop-color:#4E4E4E"/>
		</linearGradient>
		<circle style="fill:url(#SVGID_2_);" cx="256" cy="371.9" r="111.9"/>
	</g>
	<g>
		
			<linearGradient id="SVGID_3_" gradientUnits="userSpaceOnUse" x1="182.0882" y1="66.2283" x2="329.9118" y2="214.0518" gradientTransform="matrix(1 0 0 -1 0 512)">
			<stop  offset="0" style="stop-color:#010101"/>
			<stop  offset="0.5" style="stop-color:#4E4E4E"/>
			<stop  offset="1" style="stop-color:#010101"/>
		</linearGradient>
		<circle style="fill:url(#SVGID_3_);" cx="256" cy="371.9" r="104.5"/>
		
			<linearGradient id="SVGID_4_" gradientUnits="userSpaceOnUse" x1="197.5496" y1="81.6896" x2="314.4504" y2="198.5904" gradientTransform="matrix(1 0 0 -1 0 512)">
			<stop  offset="0" style="stop-color:#010101"/>
			<stop  offset="0.5" style="stop-color:#4E4E4E"/>
			<stop  offset="1" style="stop-color:#010101"/>
		</linearGradient>
		<path style="fill:url(#SVGID_4_);" d="M256,454.6c-45.6,0-82.7-37.1-82.7-82.7s37.1-82.7,82.7-82.7s82.7,37.1,82.7,82.7
			S301.6,454.6,256,454.6z"/>
		
			<radialGradient id="SVGID_5_" cx="257.2128" cy="140.14" r="103.3142" gradientTransform="matrix(1 0 0 -1 0 512)" gradientUnits="userSpaceOnUse">
			<stop  offset="0" style="stop-color:#010101;stop-opacity:0"/>
			<stop  offset="0.8587" style="stop-color:#010101;stop-opacity:0.8587"/>
			<stop  offset="1" style="stop-color:#010101"/>
		</radialGradient>
		<path style="fill:url(#SVGID_5_);" d="M256,454.6c-45.6,0-82.7-37.1-82.7-82.7s37.1-82.7,82.7-82.7s82.7,37.1,82.7,82.7
			S301.6,454.6,256,454.6z"/>
		
			<linearGradient id="SVGID_6_" gradientUnits="userSpaceOnUse" x1="207.8341" y1="91.9738" x2="304.1663" y2="188.3062" gradientTransform="matrix(1 0 0 -1 0 512)">
			<stop  offset="0" style="stop-color:#010101"/>
			<stop  offset="0.5" style="stop-color:#4E4E4E"/>
			<stop  offset="1" style="stop-color:#010101"/>
		</linearGradient>
		<path style="fill:url(#SVGID_6_);" d="M256,440c-37.6,0-68.1-30.6-68.1-68.1c0-37.6,30.6-68.1,68.1-68.1s68.1,30.6,68.1,68.1
			S293.6,440,256,440z"/>
		
			<radialGradient id="SVGID_7_" cx="256" cy="140.14" r="82.4801" gradientTransform="matrix(1 0 0 -1 0 512)" gradientUnits="userSpaceOnUse">
			<stop  offset="0" style="stop-color:#010101;stop-opacity:0"/>
			<stop  offset="0.8587" style="stop-color:#010101;stop-opacity:0.8587"/>
			<stop  offset="1" style="stop-color:#010101"/>
		</radialGradient>
		<path style="fill:url(#SVGID_7_);" d="M256,440c-37.6,0-68.1-30.6-68.1-68.1c0-37.6,30.6-68.1,68.1-68.1s68.1,30.6,68.1,68.1
			S293.6,440,256,440z"/>
		<g>
			<g style="opacity:0.7;">
				<g>
					
						<linearGradient id="SVGID_8_" gradientUnits="userSpaceOnUse" x1="290.0677" y1="81.1329" x2="221.9323" y2="199.1471" gradientTransform="matrix(1 0 0 -1 0 512)">
						<stop  offset="0" style="stop-color:#374A9F"/>
						<stop  offset="0.5337" style="stop-color:#FEE540"/>
						<stop  offset="1" style="stop-color:#C0509D"/>
					</linearGradient>
					<path style="fill:url(#SVGID_8_);" d="M256,440c-37.6,0-68.1-30.6-68.1-68.1s30.6-68.1,68.1-68.1s68.1,30.6,68.1,68.1
						S293.6,440,256,440z"/>
				</g>
				<defs>
					<filter id="Adobe_OpacityMaskFilter" filterUnits="userSpaceOnUse" x="187.9" y="303.7" width="136.3" height="136.3">
						<feColorMatrix  type="matrix" values="1 0 0 0 0  0 1 0 0 0  0 0 1 0 0  0 0 0 1 0"/>
					</filter>
				</defs>
				<mask maskUnits="userSpaceOnUse" x="187.9" y="303.7" width="136.3" height="136.3" id="SVGID_10_">
					<g style="filter:url(#Adobe_OpacityMaskFilter);">
					</g>
				</mask>
				<g style="opacity:0.75;mask:url(#SVGID_10_);">
					<path style="fill:#010101;" d="M256,440c-37.6,0-68.1-30.6-68.1-68.1s30.6-68.1,68.1-68.1s68.1,30.6,68.1,68.1
						S293.6,440,256,440z"/>
				</g>
			</g>
			
				<linearGradient id="SVGID_9_" gradientUnits="userSpaceOnUse" x1="207.8341" y1="91.9741" x2="304.1659" y2="188.3059" gradientTransform="matrix(1 0 0 -1 0 512)">
				<stop  offset="0" style="stop-color:#E81B3D;stop-opacity:0.1"/>
				<stop  offset="1" style="stop-color:#2D368D"/>
			</linearGradient>
			<path style="fill:url(#SVGID_9_);" d="M256,440c-37.6,0-68.1-30.6-68.1-68.1s30.6-68.1,68.1-68.1s68.1,30.6,68.1,68.1
				S293.6,440,256,440z"/>
			
				<linearGradient id="SVGID_11_" gradientUnits="userSpaceOnUse" x1="204.417" y1="140.14" x2="307.583" y2="140.14" gradientTransform="matrix(1 0 0 -1 0 512)">
				<stop  offset="0" style="stop-color:#E81B3D;stop-opacity:0.1"/>
				<stop  offset="1" style="stop-color:#2D368D"/>
			</linearGradient>
			<circle style="fill:url(#SVGID_11_);" cx="256" cy="371.9" r="51.6"/>
			
				<linearGradient id="SVGID_12_" gradientUnits="userSpaceOnUse" x1="219.667" y1="140.14" x2="292.333" y2="140.14" gradientTransform="matrix(1 0 0 -1 0 512)">
				<stop  offset="0" style="stop-color:#E81B3D;stop-opacity:0.1"/>
				<stop  offset="1" style="stop-color:#2D368D"/>
			</linearGradient>
			<circle style="fill:url(#SVGID_12_);" cx="256" cy="371.9" r="36.3"/>
			
				<linearGradient id="SVGID_13_" gradientUnits="userSpaceOnUse" x1="237.585" y1="140.14" x2="274.415" y2="140.14" gradientTransform="matrix(1 0 0 -1 0 512)">
				<stop  offset="0" style="stop-color:#E81B3D;stop-opacity:0.1"/>
				<stop  offset="1" style="stop-color:#2D368D"/>
			</linearGradient>
			<circle style="fill:url(#SVGID_13_);" cx="256" cy="371.9" r="18.4"/>
		</g>
		
			<linearGradient id="SVGID_14_" gradientUnits="userSpaceOnUse" x1="255.4282" y1="137.3618" x2="316.2083" y2="76.5817" gradientTransform="matrix(1 0 0 -1 0 512)">
			<stop  offset="0" style="stop-color:#FFFFFF;stop-opacity:0.7"/>
			<stop  offset="0.1451" style="stop-color:#FFFFFF;stop-opacity:0.5985"/>
			<stop  offset="1" style="stop-color:#FFFFFF;stop-opacity:0"/>
		</linearGradient>
		<path style="fill:url(#SVGID_14_);" d="M338.1,361.6c-7.6-2.5-15.7-3.8-24.1-3.8c-43.1,0-78.1,35-78.1,78.1
			c0,5.7,0.6,11.2,1.8,16.6c5.9,1.3,12,2.1,18.4,2.1c45.6,0,82.7-37.1,82.7-82.7C338.7,368.4,338.5,365,338.1,361.6z"/>
	</g>
</g>
</svg>
