<?xml version="1.0" encoding="utf-8"?>
<!-- Generator: Adobe Illustrator 18.0.0, SVG Export Plug-In . SVG Version: 6.00 Build 0)  -->
<!DOCTYPE svg PUBLIC "-//W3C//DTD SVG 1.1//EN" "http://www.w3.org/Graphics/SVG/1.1/DTD/svg11.dtd">
<svg version="1.1" id="Layer_2" xmlns="http://www.w3.org/2000/svg" xmlns:xlink="http://www.w3.org/1999/xlink" x="0px" y="0px"
	 viewBox="0 0 512 512" style="enable-background:new 0 0 512 512;" xml:space="preserve">
<path id="path21" style="fill:#B92025;" d="M119.17,119.17c42.409-42.409,77.017-87.019,137.03-87.019
	c59.813,0,94.621,44.81,137.03,87.019c42.409,42.409,87.019,77.017,87.019,137.03s-44.81,94.621-87.019,137.03
	s-77.017,87.019-137.03,87.019c-59.813,0-94.621-44.81-137.03-87.019S32.151,316.213,32.151,256.2
	C31.951,196.187,76.761,161.379,119.17,119.17 M93.365,93.365c-89.82,89.82-89.82,235.451,0,325.271s235.451,89.82,325.271,0
	s89.819-235.451,0-325.271S183.184,3.545,93.365,93.365L93.365,93.365z"/>
<path id="path19" style="fill:#B92025;" d="M227.894,318.914l-0.8-11.202c-2.601-23.205,5.201-48.611,26.606-74.416
	c19.404-22.805,30.207-39.609,30.207-59.013c0-22.005-13.803-36.608-40.809-37.008c-15.403,0-32.807,5.201-43.409,13.403
	l-10.402-27.206c14.203-10.402,38.808-17.204,61.613-17.204c49.411,0,71.816,30.607,71.816,63.214
	c0,29.206-16.404,50.411-37.008,74.816c-19.004,22.405-25.806,41.409-24.605,63.214l0.4,11.202h-33.607L227.894,318.914
	L227.894,318.914z M218.492,379.127c0-16.003,10.802-27.206,25.806-27.206c15.003,0,25.406,11.202,25.406,27.206
	c0,15.003-9.802,26.606-25.806,26.606C228.894,405.733,218.492,394.13,218.492,379.127z"/>
</svg>
