<?xml version="1.0" encoding="utf-8"?>
<!-- Generator: Adobe Illustrator 18.0.0, SVG Export Plug-In . SVG Version: 6.00 Build 0)  -->
<!DOCTYPE svg PUBLIC "-//W3C//DTD SVG 1.1//EN" "http://www.w3.org/Graphics/SVG/1.1/DTD/svg11.dtd">
<svg version="1.1" id="Layer_1" xmlns="http://www.w3.org/2000/svg" xmlns:xlink="http://www.w3.org/1999/xlink" x="0px" y="0px"
	 viewBox="0 0 512 512" style="enable-background:new 0 0 512 512;" xml:space="preserve">
<path style="fill:#EFEDED;" d="M469.6,398.1l-286,104c-2.6,1-5.4-0.4-6.4-3L39.3,120.3c-1-2.6,0.4-5.4,3-6.4L328.3,10
	c2.6-1,5.4,0.4,6.4,3l137.9,378.8C473.6,394.2,472.2,397.1,469.6,398.1z"/>
<path style="fill:#878686;" d="M441.7,433L142,485.8c-2.7,0.5-5.3-1.3-5.8-4.1l-70-397c-0.5-2.7,1.3-5.3,4.1-5.8L370,26.2
	c2.7-0.5,5.3,1.3,5.8,4.1l70,397C446.3,429.9,444.4,432.5,441.7,433z"/>
<path style="fill:#FFB600;" d="M408.2,462.6H103.8c-2.8,0-5-2.2-5-5V54.4c0-2.8,2.2-5,5-5h304.3c2.8,0,5,2.2,5,5v403.1
	C413.2,460.3,410.9,462.6,408.2,462.6z"/>
<path style="fill:#2C2C2C;" d="M341.334,171.229l-18.195-31.515H188.862L121.723,256l49.355,85.484l17.784,30.803h134.276
	L390.277,256L341.334,171.229z"/>
<g>
	<g>
		<polygon style="fill:#D6D6D6;" points="183.663,328.337 222.271,318.013 200.068,311.932 		"/>
		<path style="fill:#C4834D;" d="M328.337,183.663L208.129,303.871l-8.061,8.061l22.203,6.081l116.673-116.673
			c1.98-1.98,1.98-5.091,0-7.071L328.337,183.663L328.337,183.663z"/>
		<polygon style="fill:#FFFFFF;" points="193.987,289.729 183.663,328.337 200.068,311.932 		"/>
	</g>
	<g>
		<polygon style="fill:#FFE000;" points="193.987,289.729 200.068,311.932 317.801,194.199 303.659,180.057 		"/>
		<path style="fill:#ADADAD;" d="M338.944,194.27l-10.607-10.607l-10.536,10.536l14.142,14.142l7-7
			C340.924,199.361,340.924,196.249,338.944,194.27z"/>
		<path style="fill:#FFFFFF;" d="M310.659,173.056l-7,7l14.142,14.142l10.536-10.536l-10.607-10.607
			C315.751,171.076,312.639,171.076,310.659,173.056z"/>
	</g>
</g>
</svg>
