<?xml version="1.0" encoding="utf-8"?>
<!-- Generator: Adobe Illustrator 18.0.0, SVG Export Plug-In . SVG Version: 6.00 Build 0)  -->
<!DOCTYPE svg PUBLIC "-//W3C//DTD SVG 1.1//EN" "http://www.w3.org/Graphics/SVG/1.1/DTD/svg11.dtd">
<svg version="1.1" id="Layer_1" xmlns="http://www.w3.org/2000/svg" xmlns:xlink="http://www.w3.org/1999/xlink" x="0px" y="0px"
	 viewBox="0 0 512 512" style="enable-background:new 0 0 512 512;" xml:space="preserve">
<g>
	<g>
		<path style="opacity:0.3;fill:#31C5F4;enable-background:new    ;" d="M182.807,339.629c0,0-49.254-61.333-13.348-120.047
			c12.028-19.669,41.546-47.956,81.763-47.809c5.203-0.201-13.336-80.535-13.624-80.226
			c-75.884,17.091-111.775,82.134-116.489,118.486C108.455,307.605,182.807,339.629,182.807,339.629z"/>
		<path style="opacity:0.4;fill:#31C5F4;enable-background:new    ;" d="M175.203,364.497c0,0-59.101-77.618-12.703-149.261
			c15.541-23.999,51.771-54.325,101.626-52.855c6.458-0.082-12.682-104.074-13.047-103.701
			C156.45,77.439,109.87,156.929,102.861,201.848C84.047,322.411,175.203,364.497,175.203,364.497z"/>
		<path style="opacity:0.6;fill:#31C5F4;enable-background:new    ;" d="M175.115,389.751c0,0-64.04-84.105-13.766-161.737
			c16.841-26.006,56.099-58.865,110.121-57.273c6.997-0.089-13.741-112.774-14.137-112.368
			C154.795,78.7,104.322,164.833,96.726,213.508C76.34,344.148,175.115,389.751,175.115,389.751z"/>
		<path style="opacity:0.8;fill:#31C5F4;enable-background:new    ;" d="M177.047,422.552c0,0-81.854-84.116-36.847-176.416
			c15.077-30.919,53.942-72.396,113.695-77.883c7.7-1.035-30.259-122.455-30.64-121.955
			C112.965,82.443,68.878,184.141,67.029,238.807C62.069,385.525,177.047,422.552,177.047,422.552z"/>
		
			<linearGradient id="SVGID_1_" gradientUnits="userSpaceOnUse" x1="57.0759" y1="170.6108" x2="267.7563" y2="359.7908" gradientTransform="matrix(1 0 0 -1 0 514)">
			<stop  offset="0" style="stop-color:#35C5F4"/>
			<stop  offset="0.2047" style="stop-color:#53C9F3"/>
			<stop  offset="0.5912" style="stop-color:#86D5F4"/>
			<stop  offset="1" style="stop-color:#BAE5F5"/>
		</linearGradient>
		<path style="fill:url(#SVGID_1_);" d="M175.582,445.43c0,0-97.35-95.062-52.342-187.363
			c15.077-30.919,52.572-77.691,112.325-83.176c7.7-1.035,121.81-96.294,49.924-121.736c-48.404-17.602-110.103,1.738-110.484,2.238
			C64.715,91.538,27.965,187.205,26.117,241.87C21.154,388.59,175.582,445.43,175.582,445.43z"/>
	</g>
	<g>
		<path style="opacity:0.3;fill:#31C5F4;enable-background:new    ;" d="M388.353,213.419
			c-6.983-38.746-48.926-106.615-131.232-120.93c-0.323-0.316-15.957,86.839-10.364,86.779
			c43.131-2.286,76.294,26.494,90.238,46.955c41.625,61.08-7.96,129.48-7.96,129.48S407.095,317.411,388.353,213.419z"/>
		<path style="opacity:0.4;fill:#31C5F4;enable-background:new    ;" d="M407.495,203.672
			c-9.898-47.813-64.074-130.614-166.574-145.726c-0.411-0.382-15.434,112.183-8.503,111.93c53.4-4.215,93.87,26.395,111.812,51.316
			c53.563,74.393-5.722,160.784-5.722,160.784S434.06,332.002,407.495,203.672z"/>
		<path style="opacity:0.6;fill:#31C5F4;enable-background:new    ;" d="M414.693,215.853
			c-10.725-51.81-69.429-141.532-180.498-157.906c-0.446-0.414-16.723,121.561-9.213,121.285
			c57.864-4.569,101.717,28.6,121.159,55.604c58.041,80.613-6.201,174.224-6.201,174.224S443.48,354.91,414.693,215.853z"/>
		<path style="opacity:0.8;fill:#31C5F4;enable-background:new    ;" d="M447.887,241.418
			c-4.878-58.54-57.555-165.296-177.778-198.227c-0.436-0.516-34.723,131.738-26.408,132.443
			c64.388,2.719,108.275,45.154,126.086,77.522c53.167,96.626-30.181,191.193-30.181,191.193S460.98,398.54,447.887,241.418z"/>
		<path style="fill:#31C5F4;" d="M485.219,233.503c-4.878-58.54-42.648-150.181-162.87-183.112
			c-0.436-0.516-67.643-17.994-118.634,3.45c-75.765,31.099-102.93,108.333-40.861,161.535C169.072,233.503,194.061,256,194.061,256
			s-8.866-22.497-1.612-48.535c18.54-34.661,62.952-26.386,71.266-25.683c64.388,2.719,107.086,50.906,124.897,83.274
			c53.167,96.626-46.225,203.755-46.225,203.755S498.312,390.625,485.219,233.503z"/>
	</g>
	<g>
		<path style="fill:#ABDFF0;" d="M162.921,215.555c6.32,18.096,31.14,40.445,31.14,40.445s-15.731-36.914-13.096-47.94
			C180.965,208.06,170.756,207.29,162.921,215.555z"/>
	</g>
	<path style="fill:#FFFFFF;" d="M170.053,152.179c-4.946,0-8.955,4.01-8.955,8.955s4.01,8.955,8.955,8.955
		c4.946,0,8.955-4.01,8.955-8.955S174.999,152.179,170.053,152.179z M170.053,167.09c-3.161,0-5.723-2.562-5.723-5.723
		c0-3.161,2.562-5.723,5.723-5.723c3.161,0,5.723,2.562,5.723,5.723C175.776,164.527,173.214,167.09,170.053,167.09z"/>
</g>
</svg>
