<?xml version="1.0" encoding="utf-8"?>
<!-- Generator: Adobe Illustrator 18.0.0, SVG Export Plug-In . SVG Version: 6.00 Build 0)  -->
<!DOCTYPE svg PUBLIC "-//W3C//DTD SVG 1.1//EN" "http://www.w3.org/Graphics/SVG/1.1/DTD/svg11.dtd">
<svg version="1.1" id="Layer_1" xmlns="http://www.w3.org/2000/svg" xmlns:xlink="http://www.w3.org/1999/xlink" x="0px" y="0px"
	 viewBox="0 0 512 512" style="enable-background:new 0 0 512 512;" xml:space="preserve">
<g id="g3678_1_" transform="matrix(0.88700147,0,0,0.88700147,118.08895,-9.9496564)">
	<g>
		<path style="fill:#E84C3D;" d="M272.334,146.46c0.002,0-177.534,44.329-92.748,142.032c25.029,28.812-6.563,54.718-6.563,54.718
			s63.517-32.785,34.353-73.856C180.127,231.067,159.236,212.049,272.334,146.46z"/>
		<path style="fill:#E84C3D;" d="M156.26,177.308c104.992-82.87,51.116-136.778,51.116-136.778l0,0
			c21.733,85.619-76.657,111.479-112.167,164.799c-24.181,36.33,11.87,75.371,61.022,119.714
			C137.064,281.714,72.063,243.81,156.26,177.308z"/>
	</g>
	<g>
		<path style="fill:#2D98E0;" d="M87.415,441.584c-79.738,22.28,48.513,68.298,150.043,24.8
			c-16.628-6.462-28.556-13.924-28.556-13.924c-45.276,8.557-66.277,9.233-107.374,4.543
			C67.609,453.112,87.415,441.584,87.415,441.584z"/>
		<path style="fill:#2D98E0;" d="M225.303,398.124c-60.009,11.549-94.669,11.178-138.574,6.645
			c-33.942-3.508-11.727-19.956-11.727-19.956c-87.816,29.144,48.887,62.221,171.621,26.32
			C233.582,406.536,225.303,398.124,225.303,398.124z"/>
		<path style="fill:#2D98E0;" d="M75.003,384.811L75.003,384.811L75.003,384.811z"/>
		<path style="fill:#2D98E0;" d="M313.864,483.583c0,0,14.662,12.088-16.15,21.435c-58.589,17.747-243.901,23.099-295.372,0.711
			c-18.489-8.054,16.2-19.216,27.114-21.574c11.38-2.462,17.878-2.012,17.878-2.012c-20.577-14.49-133.002,28.458-57.099,40.776
			C197.226,556.469,367.547,507.807,313.864,483.583z"/>
		<path style="fill:#2D98E0;" d="M242.722,357.565c9.952-6.792,23.698-12.688,23.698-12.688s-39.151,7.003-78.162,10.277
			c-47.748,4.005-98.973,4.798-124.685,1.357c-60.875-8.139,33.375-30.531,33.375-30.531s-36.608-2.475-81.61,19.296
			C-37.898,371.017,146.995,382.743,242.722,357.565z"/>
		<path style="fill:#2D98E0;" d="M266.03,420.482c-0.45,1.205-1.946,2.559-1.946,2.559c129.931-34.156,82.163-120.398,20.037-98.567
			c-5.448,1.929-8.309,6.411-8.309,6.411s3.445-1.388,11.124-2.991C318.34,321.35,363.333,369.932,266.03,420.482z"/>
		<path style="fill:#2D98E0;" d="M269.543,540.035c-79.71,15.006-178.043,13.259-236.343,3.633c0,0,11.944,9.886,73.315,13.836
			c93.38,5.97,236.814-3.322,240.208-47.511C346.722,509.991,340.196,526.743,269.543,540.035z"/>
	</g>
</g>
</svg>
