<?xml version="1.0" encoding="utf-8"?>
<!-- Generator: Adobe Illustrator 18.0.0, SVG Export Plug-In . SVG Version: 6.00 Build 0)  -->
<!DOCTYPE svg PUBLIC "-//W3C//DTD SVG 1.1//EN" "http://www.w3.org/Graphics/SVG/1.1/DTD/svg11.dtd">
<svg version="1.1" id="Layer_1" xmlns="http://www.w3.org/2000/svg" xmlns:xlink="http://www.w3.org/1999/xlink" x="0px" y="0px"
	 viewBox="0 0 512 512" style="enable-background:new 0 0 512 512;" xml:space="preserve">
<path style="fill:#EFEDED;" d="M469.6,398.1l-286,104c-2.6,1-5.4-0.4-6.4-3L39.3,120.3c-1-2.6,0.4-5.4,3-6.4L328.3,10
	c2.6-1,5.4,0.4,6.4,3l137.9,378.8C473.6,394.2,472.2,397.1,469.6,398.1z"/>
<path style="fill:#E2E2E2;" d="M441.7,433L142,485.8c-2.7,0.5-5.3-1.3-5.8-4.1l-70-397c-0.5-2.7,1.3-5.3,4.1-5.8L370,26.2
	c2.7-0.5,5.3,1.3,5.8,4.1l70,397C446.3,429.9,444.4,432.5,441.7,433z"/>
<linearGradient id="SVGID_1_" gradientUnits="userSpaceOnUse" x1="98.8" y1="256" x2="413.1031" y2="256" gradientTransform="matrix(1 0 0 -1 0 512)">
	<stop  offset="0" style="stop-color:#FFCC02"/>
	<stop  offset="1" style="stop-color:#FFCC02"/>
</linearGradient>
<path style="fill:url(#SVGID_1_);" d="M408.2,462.6H103.8c-2.8,0-5-2.2-5-5V54.4c0-2.8,2.2-5,5-5h304.3c2.8,0,5,2.2,5,5v403.1
	C413.2,460.3,410.9,462.6,408.2,462.6z"/>
<g style="opacity:0.2;">
	<path style="fill:#FFFFFF;" d="M413.1,54.4c0-2.8-2.2-5-5-5H294.3l118.8,118.8L413.1,54.4L413.1,54.4z"/>
</g>
<path style="fill:#FFFFFF;" d="M312,192.2c-0.4-0.8-0.9-1.6-1.6-2.3c-1-1-2.2-1.6-3.5-1.9c-16.8-12.9-38.7-20.9-63.6-20.9l-0.1,31.2
	c15.6,0,28.9,2.3,39.7,6.6l-73.5,64.4l0.5,0.5c-1.3-1.2-2.8-1.9-4.1-1.9c-0.8,0-1.5,0.2-2,0.8l0,0l-1.3,1.3
	c-1.4,1.4-0.8,4.1,1.2,6.1l11.1,10.9c-4.7-4.6-9.1-8.1-13.6-8.1c-2.4,0-4.9,1.1-7.4,3.6l0,0c-3.7,3.8-3.9,9.8-6,16.4
	c-1.9,6.2-5.3,15.3-16.9,18.3c0,0,16.5,4.8,29.8,1.6c7.2-1.7,15.7-6.8,19.4-10.4c7.1-7.2,2.3-13.8-4.8-20.9l10.8,10.6
	c2,2,4.8,2.5,6.1,1.1l1.3-1.3c1.3-1.4,0.8-4.1-1.2-6.1l0.5,0.5L299,214c13.1,10.3,19.7,25.2,19.7,43c0,42.1-38,76.2-84.9,76.2
	c-13.2,0-25.7-2.7-36.8-7.5c15.2,12,34.4,19.3,55.2,19.3c49.1,0,89-39.8,89-89C341.2,231.4,330.3,208.6,312,192.2z"/>
</svg>
