<?xml version="1.0" encoding="utf-8"?>
<!-- Generator: Adobe Illustrator 18.0.0, SVG Export Plug-In . SVG Version: 6.00 Build 0)  -->
<!DOCTYPE svg PUBLIC "-//W3C//DTD SVG 1.1//EN" "http://www.w3.org/Graphics/SVG/1.1/DTD/svg11.dtd">
<svg version="1.1" id="Layer_1" xmlns="http://www.w3.org/2000/svg" xmlns:xlink="http://www.w3.org/1999/xlink" x="0px" y="0px"
	 viewBox="0 0 512 512" style="enable-background:new 0 0 512 512;" xml:space="preserve">
<g id="g228">
	<g id="g234" transform="translate(296.3333,176.726)">
		<path id="path236" style="fill:#FFFFFF;" d="M27.422,212.77h-135.509c-26.648,0-48.252,21.603-48.252,48.252
			c0,26.65,21.603,48.252,48.252,48.252H27.422c26.648,0,48.252-21.602,48.252-48.252C75.674,234.374,54.07,212.77,27.422,212.77"/>
	</g>
	<g id="g238" transform="translate(227.1378,154.3525)">
		<path id="path240" d="M-19.624,272.73c-1.176-2.037-3.783-2.736-5.822-1.559l-29.569,17.07c-2.037,1.177-2.736,3.783-1.559,5.822
			c1.176,2.037,3.783,2.736,5.822,1.559l29.57-17.07C-19.144,277.374-18.445,274.767-19.624,272.73"/>
	</g>
	<g id="g242" transform="translate(226.2095,145.1186)">
		<path id="path244" d="M-20.255,297.475l-29.569-17.073c-2.04-1.176-4.645-0.477-5.823,1.56c-1.176,2.037-0.477,4.645,1.56,5.82
			l29.569,17.073c2.037,1.176,4.645,0.478,5.82-1.559C-17.517,301.258-18.216,298.651-20.255,297.475"/>
	</g>
	<g id="g246" transform="translate(216.14,160.7024)">
		<path id="path248" d="M-27.1,255.712c-2.353,0-4.262,1.908-4.262,4.262v34.143c0,2.353,1.908,4.262,4.262,4.262
			s4.262-1.908,4.262-4.262v-34.143C-22.839,257.62-24.747,255.712-27.1,255.712"/>
	</g>
	<g id="g250" transform="translate(253.7116,154.3525)">
		<path id="path252" d="M-1.556,272.73c-1.176-2.037-3.783-2.736-5.822-1.559l-29.57,17.07c-2.037,1.177-2.736,3.783-1.559,5.822
			c1.176,2.037,3.783,2.736,5.823,1.559l29.57-17.07C-1.077,277.374-0.38,274.767-1.556,272.73"/>
	</g>
	<g id="g254" transform="translate(252.7829,145.1186)">
		<path id="path256" d="M-2.187,297.475l-29.569-17.073c-2.04-1.176-4.645-0.477-5.823,1.56c-1.176,2.037-0.477,4.645,1.56,5.82
			l29.569,17.073c2.037,1.176,4.645,0.478,5.82-1.559C0.549,301.258-0.15,298.651-2.187,297.475"/>
	</g>
	<g id="g258" transform="translate(242.7134,160.7024)">
		<path id="path260" d="M-9.034,255.712c-2.353,0-4.262,1.908-4.262,4.262v34.143c0,2.353,1.908,4.262,4.262,4.262
			s4.262-1.908,4.262-4.262v-34.143C-4.771,257.62-6.679,255.712-9.034,255.712"/>
	</g>
	<g id="g262" transform="translate(280.285,154.3525)">
		<path id="path264" d="M16.511,272.73c-1.176-2.037-3.783-2.736-5.822-1.559l-29.57,17.07c-2.037,1.177-2.736,3.783-1.559,5.822
			c1.176,2.037,3.783,2.736,5.823,1.559l29.57-17.07C16.991,277.374,17.687,274.767,16.511,272.73"/>
	</g>
	<g id="g266" transform="translate(279.3567,145.1186)">
		<path id="path268" d="M15.88,297.475l-29.569-17.073c-2.04-1.176-4.645-0.477-5.823,1.56c-1.176,2.037-0.477,4.645,1.56,5.82
			l29.569,17.073c2.037,1.176,4.645,0.478,5.82-1.559C18.616,301.258,17.917,298.651,15.88,297.475"/>
	</g>
	<g id="g270" transform="translate(269.2868,160.7024)">
		<path id="path272" d="M9.034,255.712c-2.353,0-4.262,1.908-4.262,4.262v34.143c0,2.353,1.908,4.262,4.262,4.262
			s4.262-1.908,4.262-4.262v-34.143C13.296,257.62,11.387,255.712,9.034,255.712"/>
	</g>
	<g id="g274" transform="translate(306.8584,154.3525)">
		<path id="path276" d="M34.579,272.73c-1.176-2.037-3.783-2.736-5.822-1.559l-29.57,17.07c-2.037,1.177-2.736,3.783-1.559,5.822
			c1.176,2.037,3.783,2.736,5.822,1.559l29.57-17.07C35.057,277.374,35.755,274.767,34.579,272.73"/>
	</g>
	<g id="g278" transform="translate(305.9297,145.1186)">
		<path id="path280" d="M33.946,297.475L4.377,280.402c-2.04-1.176-4.645-0.477-5.822,1.56c-1.176,2.037-0.477,4.645,1.56,5.82
			l29.569,17.073c2.037,1.176,4.645,0.478,5.82-1.559C36.684,301.258,35.986,298.651,33.946,297.475"/>
	</g>
	<g id="g282" transform="translate(295.8602,160.7024)">
		<path id="path284" d="M27.101,255.712c-2.353,0-4.262,1.908-4.262,4.262v34.143c0,2.353,1.908,4.262,4.262,4.262
			s4.262-1.908,4.262-4.262v-34.143C31.362,257.62,29.454,255.712,27.101,255.712"/>
	</g>
	<g id="g286" transform="translate(357.1065,292)">
		<path id="path288" style="fill:#123A5E;" d="M68.742-96.151c0,93.805-76.044,169.849-169.849,169.849
			c-93.804,0-169.848-76.044-169.848-169.849S-194.911-266-101.107-266C-7.302-266,68.742-189.956,68.742-96.151"/>
	</g>
	<g id="g290" transform="translate(256,393.1064)">
		<path id="path292" style="fill:#DDDDDD;" d="M0-367.106c-93.805,0-169.848,76.044-169.848,169.848
			c0,93.805,76.043,169.849,169.848,169.849s169.848-76.044,169.848-169.849C169.848-291.062,93.805-367.106,0-367.106 M0-343.581
			c39.085,0,75.829,15.22,103.467,42.856c27.638,27.638,42.857,64.382,42.857,103.467s-15.22,75.83-42.857,103.467
			C75.829-66.154,39.085-50.934,0-50.934s-75.829-15.22-103.467-42.857c-27.638-27.636-42.857-64.382-42.857-103.467
			s15.22-75.829,42.857-103.467C-75.829-328.361-39.084-343.581,0-343.581"/>
	</g>
	<g id="g294" transform="translate(270.9363,251.2259)">
		<path id="path296" style="fill:#FFFFFF;" d="M10.155,13.12C10.51-6,46.091-6.37,50.963-70.324
			c0.599-7.863,0.524-16.644-0.668-25.474c-1.242-36.595-31.543-65.887-68.767-65.887c-32.503,0-59.725,22.337-66.936,52.366
			c-4.741,14.767-5.153,30.445-3.716,42.042C-80.597,1.549-47.097-11.85-48.09,17.615c-0.598,17.756-36.198,22.593-63.468,36.855
			C-84.834,78.043-50.883,90.95-14.933,90.95c35.048,0,68.194-12.273,94.598-34.729C49.592,38.501,9.776,33.612,10.155,13.12"/>
	</g>
</g>
</svg>
