<?xml version="1.0" encoding="utf-8"?>
<!-- Generator: Adobe Illustrator 18.0.0, SVG Export Plug-In . SVG Version: 6.00 Build 0)  -->
<!DOCTYPE svg PUBLIC "-//W3C//DTD SVG 1.1//EN" "http://www.w3.org/Graphics/SVG/1.1/DTD/svg11.dtd">
<svg version="1.1" id="Layer_1" xmlns="http://www.w3.org/2000/svg" xmlns:xlink="http://www.w3.org/1999/xlink" x="0px" y="0px"
	 viewBox="0 0 512 512" style="enable-background:new 0 0 512 512;" xml:space="preserve">
<linearGradient id="SVGID_1_" gradientUnits="userSpaceOnUse" x1="256" y1="26" x2="256" y2="486" gradientTransform="matrix(1 0 0 -1 0 512)">
	<stop  offset="0" style="stop-color:#3FDCFF"/>
	<stop  offset="1" style="stop-color:#2A8BFF"/>
</linearGradient>
<path style="fill:url(#SVGID_1_);" d="M446,486H66c-22.091,0-40-17.909-40-40V66c0-22.091,17.909-40,40-40h380
	c22.091,0,40,17.909,40,40v380C486,468.091,468.091,486,446,486z"/>
<g id="g228">
	<g id="g234" transform="translate(296.3333,176.726)">
		<path id="path236" style="fill:#FFFFFF;" d="M10.083,178.608H-90.749c-19.829,0-35.904,16.075-35.904,35.904
			c0,19.83,16.075,35.904,35.904,35.904H10.083c19.829,0,35.904-16.074,35.904-35.904C45.987,194.683,29.912,178.608,10.083,178.608
			"/>
	</g>
	<g id="g238" transform="translate(227.1378,154.3525)">
		<path id="path240" d="M-7.216,228.949c-0.875-1.516-2.815-2.036-4.332-1.16l-22.002,12.702c-1.516,0.876-2.036,2.815-1.16,4.332
			c0.875,1.516,2.815,2.036,4.332,1.16l22.003-12.702C-6.859,232.405-6.339,230.465-7.216,228.949"/>
	</g>
	<g id="g242" transform="translate(226.2095,145.1186)">
		<path id="path244" d="M-7.448,249.725l-22.002-12.704c-1.518-0.875-3.456-0.355-4.333,1.161c-0.875,1.516-0.355,3.456,1.161,4.331
			l22.002,12.704c1.516,0.875,3.456,0.356,4.331-1.16C-5.411,252.54-5.931,250.6-7.448,249.725"/>
	</g>
	<g id="g246" transform="translate(216.14,160.7024)">
		<path id="path248" d="M-9.965,214.661c-1.751,0-3.171,1.42-3.171,3.171v25.406c0,1.751,1.42,3.171,3.171,3.171
			s3.171-1.42,3.171-3.171v-25.406C-6.794,216.081-8.214,214.661-9.965,214.661"/>
	</g>
	<g id="g250" transform="translate(253.7116,154.3525)">
		<path id="path252" d="M-0.572,228.949c-0.875-1.516-2.815-2.036-4.332-1.16l-22.003,12.702c-1.516,0.876-2.036,2.815-1.16,4.332
			c0.875,1.516,2.815,2.036,4.333,1.16l22.003-12.702C-0.216,232.405,0.303,230.465-0.572,228.949"/>
	</g>
	<g id="g254" transform="translate(252.7829,145.1186)">
		<path id="path256" d="M-0.804,249.725l-22.002-12.704c-1.518-0.875-3.456-0.355-4.333,1.161c-0.875,1.516-0.355,3.456,1.161,4.331
			l22.002,12.704c1.516,0.875,3.456,0.356,4.331-1.16C1.232,252.54,0.712,250.6-0.804,249.725"/>
	</g>
	<g id="g258" transform="translate(242.7134,160.7024)">
		<path id="path260" d="M-3.322,214.661c-1.751,0-3.171,1.42-3.171,3.171v25.406c0,1.751,1.42,3.171,3.171,3.171
			s3.171-1.42,3.171-3.171v-25.406C-0.15,216.081-1.57,214.661-3.322,214.661"/>
	</g>
	<g id="g262" transform="translate(280.285,154.3525)">
		<path id="path264" d="M6.071,228.949c-0.875-1.516-2.815-2.036-4.332-1.16l-22.003,12.702c-1.516,0.876-2.036,2.815-1.16,4.332
			c0.875,1.516,2.815,2.036,4.333,1.16l22.003-12.702C6.428,232.405,6.946,230.465,6.071,228.949"/>
	</g>
	<g id="g266" transform="translate(279.3567,145.1186)">
		<path id="path268" d="M5.839,249.725l-22.002-12.704c-1.518-0.875-3.456-0.355-4.333,1.161c-0.875,1.516-0.355,3.456,1.161,4.331
			l22.002,12.704c1.516,0.875,3.456,0.356,4.331-1.16C7.875,252.54,7.355,250.6,5.839,249.725"/>
	</g>
	<g id="g270" transform="translate(269.2868,160.7024)">
		<path id="path272" d="M3.322,214.661c-1.751,0-3.171,1.42-3.171,3.171v25.406c0,1.751,1.42,3.171,3.171,3.171
			s3.171-1.42,3.171-3.171v-25.406C6.493,216.081,5.073,214.661,3.322,214.661"/>
	</g>
	<g id="g274" transform="translate(306.8584,154.3525)">
		<path id="path276" d="M12.715,228.949c-0.875-1.516-2.815-2.036-4.332-1.16l-22.003,12.702c-1.516,0.876-2.036,2.815-1.16,4.332
			c0.875,1.516,2.815,2.036,4.332,1.16l22.003-12.702C13.071,232.405,13.59,230.465,12.715,228.949"/>
	</g>
	<g id="g278" transform="translate(305.9297,145.1186)">
		<path id="path280" d="M12.482,249.725L-9.52,237.021c-1.518-0.875-3.456-0.355-4.332,1.161c-0.875,1.516-0.355,3.456,1.161,4.331
			l22.002,12.704c1.516,0.875,3.456,0.356,4.331-1.16C14.519,252.54,14,250.6,12.482,249.725"/>
	</g>
	<g id="g282" transform="translate(295.8602,160.7024)">
		<path id="path284" d="M9.965,214.661c-1.751,0-3.171,1.42-3.171,3.171v25.406c0,1.751,1.42,3.171,3.171,3.171
			s3.171-1.42,3.171-3.171v-25.406C13.136,216.081,11.716,214.661,9.965,214.661"/>
	</g>
	<g id="g286" transform="translate(357.1065,292)">
		<path id="path288" style="fill:#123A5E;" d="M25.277-80.758c0,69.8-56.584,126.384-126.384,126.384
			c-69.799,0-126.383-56.584-126.383-126.384s56.584-126.384,126.383-126.384C-31.307-207.142,25.277-150.558,25.277-80.758"/>
	</g>
	<g id="g290" transform="translate(256,393.1064)">
		<path id="path292" style="fill:#DDDDDD;" d="M0-308.248c-69.8,0-126.383,56.584-126.383,126.383
			c0,69.8,56.583,126.384,126.383,126.384s126.383-56.584,126.383-126.384C126.383-251.664,69.8-308.248,0-308.248 M0-290.743
			c29.083,0,56.424,11.325,76.989,31.889c20.565,20.565,31.89,47.906,31.89,76.989s-11.325,56.425-31.89,76.989
			C56.424-84.311,29.083-72.986,0-72.986s-56.424-11.325-76.989-31.89c-20.565-20.564-31.89-47.906-31.89-76.989
			s11.325-56.424,31.89-76.989C-56.424-279.418-29.082-290.743,0-290.743"/>
	</g>
	<g id="g294" transform="translate(270.9363,251.2259)">
		<path id="path296" style="fill:#FFFFFF;" d="M3.734,10.984c0.264-14.227,26.74-14.502,30.365-62.09
			c0.446-5.851,0.39-12.385-0.497-18.955c-0.924-27.23-23.471-49.026-51.169-49.026c-24.185,0-44.441,16.621-49.807,38.965
			c-3.528,10.988-3.834,22.654-2.765,31.283c6.345,51.213,31.272,41.243,30.533,63.168c-0.445,13.212-26.935,16.811-47.226,27.424
			c19.885,17.54,45.148,27.144,71.898,27.144c26.079,0,50.743-9.132,70.39-25.842C33.079,29.87,3.452,26.232,3.734,10.984"/>
	</g>
</g>
</svg>
