<?xml version="1.0" encoding="utf-8"?>
<!-- Generator: Adobe Illustrator 18.0.0, SVG Export Plug-In . SVG Version: 6.00 Build 0)  -->
<!DOCTYPE svg PUBLIC "-//W3C//DTD SVG 1.1//EN" "http://www.w3.org/Graphics/SVG/1.1/DTD/svg11.dtd">
<svg version="1.1" id="Layer_1" xmlns="http://www.w3.org/2000/svg" xmlns:xlink="http://www.w3.org/1999/xlink" x="0px" y="0px"
	 viewBox="0 0 512 512" style="enable-background:new 0 0 512 512;" xml:space="preserve">
<g id="Layer_2_1_">
	<path style="opacity:0.4;fill:#4C4C4C;enable-background:new    ;" d="M256.1,55.6c55,0,106.6,21.4,145.5,60.3
		s60.3,90.5,60.3,145.5s-21.4,106.6-60.3,145.5S311.1,467,256.1,467s-106.6-21.4-145.5-60.3s-60.3-90.5-60.3-145.5
		s21.4-106.6,60.3-145.5S201.2,55.6,256.1,55.6 M256.1,38.6c-123,0-222.7,99.7-222.7,222.7S133.2,484,256.1,484
		s222.7-99.7,222.7-222.7S379.1,38.6,256.1,38.6L256.1,38.6z"/>
	<g>
		<g>
			<g>
				<g>
					<path style="fill:#00BD9B;" d="M256.1,258.9l-109-174.4c33.4-20.9,69.6-31.2,109-31.2V258.9z"/>
				</g>
			</g>
			<g>
				<g>
					<path style="fill:#2D98E0;" d="M256.1,258.9L51,273.2c-5.5-78.7,29.2-146.9,96.2-188.7L256.1,258.9z"/>
				</g>
			</g>
			<g>
				<g>
					<path style="fill:#9C56B8;" d="M256.1,258.9l168.5,118c-65.1,93-193.4,115.6-286.4,50.5C85.6,390.5,55.4,337.2,51,273.2
						L256.1,258.9z"/>
				</g>
			</g>
			<g>
				<g>
					<path style="fill:#E84C3D;" d="M256.1,258.9L404,116c68.6,71,77.1,180,20.5,260.8L256.1,258.9z"/>
				</g>
			</g>
			<g>
				<g>
					<path style="fill:#F1C50E;" d="M256.1,258.9l53.2-198.6c38.1,10.2,67.3,27.4,94.7,55.8L256.1,258.9z"/>
				</g>
			</g>
			<g>
				<g>
					<path style="fill:#51D88B;" d="M256.1,258.9V53.2c19.6,0,34.2,1.9,53.2,7L256.1,258.9z"/>
				</g>
			</g>
		</g>
	</g>
	<path style="fill:#D1D1D1;" d="M256.1,41c55,0,106.6,21.4,145.5,60.3s60.3,90.5,60.3,145.5s-21.4,106.6-60.3,145.5
		s-90.5,60.3-145.5,60.3S149.5,431,110.7,392.2s-60.3-90.5-60.3-145.5s21.4-106.6,60.3-145.5S201.2,41,256.1,41 M256.1,24
		c-123,0-222.7,99.7-222.7,222.7s99.7,222.7,222.7,222.7s222.7-99.7,222.7-222.7S379.1,24,256.1,24L256.1,24z"/>
	<g>
		<path style="opacity:0.4;fill:#4C4C4C;enable-background:new    ;" d="M256.1,297.8c65.4,0,118.5,55.5,118.5,124
			c0,0.4,0,0.8,0,1.2c-32.1,28.1-73.4,45-118.5,45s-86.4-16.9-118.5-45c0-0.4,0-0.8,0-1.2C137.6,353.3,190.7,297.8,256.1,297.8
			 M256.1,288.9c-70,0-127,59.6-127,132.9c0,0.3,0,0.6,0,0.9l0,0.4l0,4.1l3,2.6c34.7,30.4,78.7,47.1,123.9,47.1
			c45.3,0,89.3-16.7,123.9-47.1l3-2.6l0-4.1l0-0.4c0-0.3,0-0.6,0-0.9C383.1,348.5,326.2,288.9,256.1,288.9L256.1,288.9z"/>
		
			<radialGradient id="SVGID_1_" cx="260.3833" cy="-3.4962" r="152.0395" gradientTransform="matrix(1 0 0 -0.7637 0 421.1826)" gradientUnits="userSpaceOnUse">
			<stop  offset="0" style="stop-color:#1538FF"/>
			<stop  offset="1" style="stop-color:#007BFF"/>
		</radialGradient>
		<path style="fill:url(#SVGID_1_);" d="M256.1,305.7c-65.4,0-118.5,53.1-118.5,118.5c0,0.4,0,0.8,0,1.1c32.1,26.8,73.4,43,118.5,43
			s86.4-16.2,118.5-43c0-0.4,0-0.8,0-1.1C374.6,358.8,321.6,305.7,256.1,305.7z"/>
		<path style="fill:#FFFFFF;" d="M256.1,305.7c65.4,0,118.5,53.1,118.5,118.5c0,0.4,0,0.8,0,1.1c-32.1,26.8-73.4,43-118.5,43
			s-86.4-16.2-118.5-43c0-0.4,0-0.8,0-1.1C137.6,358.8,190.7,305.7,256.1,305.7 M256.1,297.3c-70,0-127,57-127,127
			c0,0.3,0,0.6,0,0.8l0,0.4l0,3.9l3,2.5c34.7,29,78.7,45,123.9,45c45.3,0,89.3-16,123.9-45l3-2.5l0-3.9l0-0.4c0-0.3,0-0.6,0-0.8
			C383.1,354.2,326.2,297.3,256.1,297.3L256.1,297.3z"/>
		<path style="opacity:0.4;fill:#4C4C4C;enable-background:new    ;" d="M266.5,412.5l-8.4-79l-12.2,79c-5.5,3.4-9.1,9.5-9.1,16.5
			c0,10.7,8.7,19.4,19.4,19.4c10.7,0,19.4-8.7,19.4-19.4C275.6,422,271.9,415.9,266.5,412.5z"/>
		<path style="fill:#FFFFFF;" d="M266.5,409.7l-10.3-79.7l-10.3,79.7c-5.5,3.4-9.1,9.5-9.1,16.5c0,10.7,8.7,19.4,19.4,19.4
			s19.4-8.7,19.4-19.4C275.6,419.2,271.9,413.1,266.5,409.7z"/>
	</g>
	<polygon style="opacity:0.4;fill:#4C4C4C;enable-background:new    ;" points="107.7,56.6 182.1,186.8 40.4,127.6 	"/>
	<polygon style="fill:#EAEAEA;" points="104.4,29.9 188.4,184.7 33.2,93.7 	"/>
</g>
</svg>
