<?xml version="1.0" encoding="utf-8"?>
<!-- Generator: Adobe Illustrator 18.0.0, SVG Export Plug-In . SVG Version: 6.00 Build 0)  -->
<!DOCTYPE svg PUBLIC "-//W3C//DTD SVG 1.1//EN" "http://www.w3.org/Graphics/SVG/1.1/DTD/svg11.dtd">
<svg version="1.1" id="Layer_1" xmlns="http://www.w3.org/2000/svg" xmlns:xlink="http://www.w3.org/1999/xlink" x="0px" y="0px"
	 viewBox="0 0 512 512" style="enable-background:new 0 0 512 512;" xml:space="preserve">
<linearGradient id="SVGID_1_" gradientUnits="userSpaceOnUse" x1="26" y1="256" x2="486" y2="256">
	<stop  offset="0" style="stop-color:#A41E25"/>
	<stop  offset="1" style="stop-color:#A41E25"/>
</linearGradient>
<path style="fill:url(#SVGID_1_);" d="M103.211,252.026c-0.955-11.856-2.707-23.426-5.593-34.972
	c-5.45-21.804-3.646-42.782,10.116-61.574c24.286-33.161,76.152-37.366,104.449-2.387c6.266,7.745,12.816,15.29,19.639,22.548
	c8.156,8.676,17.932,13.524,30.351,11.176c8.244-1.559,14.245-6.625,19.61-12.419c6.413-6.925,12.302-14.335,18.434-21.521
	c16.326-19.131,36.943-27.36,61.798-23.071c25.382,4.379,42.921,18.964,51.579,43.315c5.149,14.483,4.983,29.453,0.867,44.223
	c-3.839,13.775-5.39,27.776-5.263,42.012c0.019,2.098,0.167,4.203,0.387,6.291c1.904,18.081,12.68,27.771,30.865,28.023
	c4.962,0.069,10.083-0.028,14.845,1.127c15.817,3.838,25.561,14.418,29.077,29.932c2.959,13.058,2.26,26.189-5.25,38.028
	c-9.086,14.323-22.474,21.384-39.141,20.393c-18.531-1.103-31.413-11.208-37.781-28.669c-4.003-10.976-3.304-22.181,1.077-33.086
	c1.174-2.921,2.417-5.83,3.341-8.833c4.901-15.923-0.721-30.721-14.996-39.363c-14.939-9.044-31.353-11.691-48.467-10.365
	c-10.239,0.793-20.267,2.894-29.431,7.925c-12.194,6.693-20.164,16.215-18.852,30.884c0.454,5.076,2.161,10.361,4.549,14.89
	c13.452,25.521,0.197,56.177-27.026,63.923c-22.105,6.289-43.637,0.726-56.06-16.305c-10.549-14.463-11.592-29.91-4.256-46.111
	c1.614-3.564,3.358-7.161,4.275-10.93c3.089-12.69-0.516-23.315-10.675-31.616c-7.965-6.508-17.437-9.651-27.302-11.485
	c-15.51-2.884-30.971-2.138-45.758,3.497c-6.262,2.386-12.401,5.875-17.61,10.084c-10.111,8.17-13.218,19.289-10.25,31.881
	c1.016,4.312,2.865,8.435,4.429,12.609c8.273,22.077,0.362,45.102-18.957,55.962c-26.597,14.952-60.29-3.728-63.547-31.993
	c-0.45-3.905-0.745-7.862-0.672-11.786c0.427-22.989,18.228-40.464,41.262-40.737c3.92-0.047,7.906-0.032,11.74-0.72
	c15.143-2.718,20.913-11.562,23.188-25.119C103.063,262.552,102.905,257.25,103.211,252.026z M210.534,246.551
	c-0.085,25.25,20.123,45.64,45.368,45.591c27.89-0.054,45.849-22.042,45.836-45.221c-0.014-25.731-19.87-45.547-45.455-45.631
	C228.094,201.196,210.213,224.372,210.534,246.551z"/>
</svg>
