<?xml version="1.0" encoding="UTF-8" standalone="no"?>
<svg
   xmlns:dc="http://purl.org/dc/elements/1.1/"
   xmlns:cc="http://creativecommons.org/ns#"
   xmlns:rdf="http://www.w3.org/1999/02/22-rdf-syntax-ns#"
   xmlns:svg="http://www.w3.org/2000/svg"
   xmlns="http://www.w3.org/2000/svg"
   xmlns:xlink="http://www.w3.org/1999/xlink"
   xml:space="preserve"
   style="enable-background:new 0 0 512 512;"
   viewBox="0 0 512 512"
   y="0px"
   x="0px"
   id="Layer_2"
   version="1.1"><metadata
     id="metadata17"><rdf:RDF><cc:Work
         rdf:about=""><dc:format>image/svg+xml</dc:format><dc:type
           rdf:resource="http://purl.org/dc/dcmitype/StillImage" /><dc:title></dc:title></cc:Work></rdf:RDF></metadata><defs
     id="defs15" /><g
     transform="translate(1362.1847,634.98951)"
     id="g3601"><path
       d="   M-1261.5-224.3c-20.3-49.1-47.2-92.3-47.8-172.5c-0.6-82.8,70.4-136.4,126.6-136.4c68,0,127.8,57.4,130.9,104.9   c2.8,42.9-12.4,105.3-91.2,104.9c-37.6-0.2-76.7-33-76.9-81.7c-0.2-52.6,65.6-57.7,82.2-44.3c6.4,5.2,6.3,15.5,0.5,13.6   c-35.5-11.5-57.4,11.2-55.7,33.8c2.2,30.7,20.4,49,53.1,50.5c47.1,2.2,60.3-43.6,59.1-62.2c-1.5-22.6-21.2-69.1-82.5-77.6   c-29-4-53,4.7-70.5,21.7c-17.5,17-27.4,34.6-28.8,63.4c-1.5,29.8,5,47.3,22.9,86.4c6.4,14,24.2,42.2,37.9,70.4L-1261.5-224.3z"
       style="fill:#EEEEEC;"
       id="path3607" /><path
       d="   M-951.1-533.3c20.3,49.1,47.2,92.3,47.8,172.5c0.6,82.8-70.4,136.4-126.6,136.4c-68,0-127.8-57.4-130.9-104.9   c-2.8-42.9,12.4-105.3,91.2-104.9c37.6,0.2,76.7,33,76.9,81.7c0.2,52.6-65.6,57.7-82.2,44.3c-6.4-5.2-6.3-15.5-0.5-13.6   c35.5,11.5,57.4-11.2,55.7-33.8c-2.2-30.7-20.4-49-53.1-50.5c-47.1-2.2-60.3,43.6-59.1,62.2c1.5,22.6,21.2,69.1,82.5,77.6   c29,4,53-4.7,70.5-21.7c17.5-17,27.4-34.6,28.8-63.4c1.5-29.8-5-47.3-22.9-86.4c-6.4-14-24.2-42.2-37.9-70.4L-951.1-533.3z"
       style="fill:#A9C4E3;"
       id="path3611" /><path
       d="M-1182.7-533.4c-56.1,0-127.1,53.6-126.5,136.5c0.6,80.2,27.6,123.5,47.9,172.5   l59.7-25c-5.3-10.9-11.2-21.4-16.8-31.4h-13.2v-23.9c-3.2-5.8-6.1-11.1-7.9-15c-17.8-39.1-24.4-56.6-22.9-86.4   c1.4-28.8,11.4-46.2,28.9-63.2c17.5-17,41.4-25.8,70.4-21.8c29,4,48.6,16.6,61.4,31.1h12.1v17.9c5.5,10.7,8.4,21,8.9,28.6   c0.5,8.3-2.1,21.9-8.9,34.3v42.5c32.6-20.6,39.9-61,37.9-91.4C-1054.8-476-1114.8-533.5-1182.7-533.4z"
       style="fill:#EEEEEC;"
       id="path3613" /><linearGradient
       gradientTransform="matrix(1 0 0 -1 891.899 -566.4946)"
       y2="-378.9816"
       x2="-1976.5555"
       y1="-38.6529"
       x1="-2014.9634"
       gradientUnits="userSpaceOnUse"
       id="path3615_1_"><stop
         id="stop8"
         style="stop-color:#FFFFFF"
         offset="0" /><stop
         id="stop10"
         style="stop-color:#72CF98;stop-opacity:0.5686"
         offset="1" /></linearGradient><path
       d="   M-936.5-568c-40.1,16.5-121.6,50.4-123.2,51.1c-5.1,2.1-11,1.3-15.4-2.1c-26.7-21.8-61.5-38.5-96.1-40.4c-0.1,0-0.2,0-0.4,0   c-84.4-5.3-164.1,71.9-164.3,155c0,0.2,0,0.5,0,0.7c-3.6,73.6,28.6,144,61.1,213.6c38.1-15.9,120.1-50.2,122.2-51.1   c5.1-2.1,11-1.3,15.4,2.1c26.2,21.9,59.6,38.3,93.2,40.7c0.1,0,0.2,0,0.4,0c83,7,162.2-67,166.5-148.2c0.1-0.1,0.2-0.2,0.4-0.4   C-870.9-422.5-904.8-495.2-936.5-568z"
       style="opacity:0.4107;fill:none;stroke:url(#path3615_1_);stroke-width:1.2;enable-background:new    ;"
       xlink:href="#path3493"
       id="path3615" /></g></svg>