<?xml version="1.0" encoding="utf-8"?>
<!-- Generator: Adobe Illustrator 18.0.0, SVG Export Plug-In . SVG Version: 6.00 Build 0)  -->
<!DOCTYPE svg PUBLIC "-//W3C//DTD SVG 1.1//EN" "http://www.w3.org/Graphics/SVG/1.1/DTD/svg11.dtd">
<svg version="1.1" id="Layer_3" xmlns="http://www.w3.org/2000/svg" xmlns:xlink="http://www.w3.org/1999/xlink" x="0px" y="0px"
	 viewBox="0 0 512 512" style="enable-background:new 0 0 512 512;" xml:space="preserve">
<g>
	<g>
		<g>
			<path style="opacity:0.7;fill:#FFFFFF;" d="M185.2,337.8H37.4c-6.3,0-11.4-5.1-11.4-11.4V185.6c0-6.3,5.1-11.4,11.4-11.4h147.9
				c6.3,0,11.4,5.1,11.4,11.4v140.8C196.6,332.7,191.5,337.8,185.2,337.8z"/>
			<path style="fill:#FFFFFF;" d="M188.9,174.2H33.7c-4.3,0-7.7,3.5-7.7,7.7v4.6h170.6v-4.6C196.6,177.7,193.1,174.2,188.9,174.2z"
				/>
		</g>
		<g>
			<path style="opacity:0.7;fill:#FFFFFF;" d="M474.6,337.8H326.8c-6.3,0-11.4-5.1-11.4-11.4V185.6c0-6.3,5.1-11.4,11.4-11.4h147.9
				c6.3,0,11.4,5.1,11.4,11.4v140.8C486,332.7,480.9,337.8,474.6,337.8z"/>
			<path style="fill:#FFFFFF;" d="M478.3,174.2H323.1c-4.3,0-7.7,3.5-7.7,7.7v4.6H486v-4.6C486,177.7,482.5,174.2,478.3,174.2z"/>
		</g>
	</g>
	<path style="opacity:0.9;fill:#FFFFFF;" d="M367.7,373.9H144.3c-6.3,0-11.4-5.1-11.4-11.4V149.4c0-6.3,5.1-11.4,11.4-11.4h223.3
		c6.3,0,11.4,5.1,11.4,11.4v213.2C379,368.9,373.9,373.9,367.7,373.9z"/>
	<path style="fill:#FFFFFF;" d="M367.9,138.1H144.1c-6.1,0-11.1,5-11.1,11.1v6.6h246v-6.6C379,143,374,138.1,367.9,138.1z"/>
</g>
</svg>
