<?xml version="1.0" encoding="utf-8"?>
<!-- Generator: Adobe Illustrator 18.0.0, SVG Export Plug-In . SVG Version: 6.00 Build 0)  -->
<!DOCTYPE svg PUBLIC "-//W3C//DTD SVG 1.1//EN" "http://www.w3.org/Graphics/SVG/1.1/DTD/svg11.dtd">
<svg version="1.1" id="Layer_3" xmlns="http://www.w3.org/2000/svg" xmlns:xlink="http://www.w3.org/1999/xlink" x="0px" y="0px"
	 viewBox="0 0 512 512" style="enable-background:new 0 0 512 512;" xml:space="preserve">
<g>
	<path style="fill:#FFCB15;" d="M445.3,268.5c3,24.9,31.5,140.2,40.5,173.9c3.9,14.7-41.2-19.9-57.5,8.9
		c-10.6,18.7-30.2-35.9-46.1-21.5c-7,6.3-10.4,34.4-23.2,38.2c-14.8,4.4-32-29.6-51.4-27.6c-18,1.9-27.1,29.3-46,29.9
		c-18.4,0.6-28.3-33.7-44.8-33.5c-20.5,0.2-46.8,34.7-59.9,35.4c-22.4,1.2-15.8-12.3-53-41.5c-27.6-21.7-83.4,60.2-77.4,25.2
		C33,417.6,57,292,60.7,260.2C78.6,107,130.8,39.9,251.7,39.9S426.2,110.6,445.3,268.5z"/>
	<g>
		<g>
			<circle style="fill:#FFFFFF;" cx="170.3" cy="212.6" r="66.2"/>
			<path d="M221.5,211.9c0,28-22.7,0-50.7,0s-50.7,28-50.7,0s22.7-50.7,50.7-50.7S221.5,184,221.5,211.9z"/>
		</g>
		<g>
			<circle style="fill:#FFFFFF;" cx="336.3" cy="212.6" r="66.2"/>
			<path d="M387.5,211.9c0,28-22.7,0-50.7,0s-50.7,28-50.7,0s22.7-50.7,50.7-50.7S387.5,184,387.5,211.9z"/>
		</g>
	</g>
</g>
</svg>
