<?xml version="1.0" encoding="utf-8"?>
<!-- Generator: Adobe Illustrator 18.0.0, SVG Export Plug-In . SVG Version: 6.00 Build 0)  -->
<!DOCTYPE svg PUBLIC "-//W3C//DTD SVG 1.1//EN" "http://www.w3.org/Graphics/SVG/1.1/DTD/svg11.dtd">
<svg version="1.1" id="Layer_1" xmlns="http://www.w3.org/2000/svg" xmlns:xlink="http://www.w3.org/1999/xlink" x="0px" y="0px"
	 viewBox="0 0 512 512" style="enable-background:new 0 0 512 512;" xml:space="preserve">
<path style="fill:#EFEDED;" d="M469.6,398.1l-286,104c-2.6,1-5.4-0.4-6.4-3L39.3,120.3c-1-2.6,0.4-5.4,3-6.4L328.3,10
	c2.6-1,5.4,0.4,6.4,3l137.9,378.8C473.6,394.2,472.2,397.1,469.6,398.1z"/>
<path style="fill:#E2E2E2;" d="M441.7,433L142,485.8c-2.7,0.5-5.3-1.3-5.8-4.1l-70-397c-0.5-2.7,1.3-5.3,4.1-5.8L370,26.2
	c2.7-0.5,5.3,1.3,5.8,4.1l70,397C446.3,429.9,444.4,432.5,441.7,433z"/>
<linearGradient id="SVGID_1_" gradientUnits="userSpaceOnUse" x1="98.8" y1="256" x2="413.1031" y2="256" gradientTransform="matrix(1 0 0 -1 0 512)">
	<stop  offset="0" style="stop-color:#FF9501"/>
	<stop  offset="1" style="stop-color:#FF9501"/>
</linearGradient>
<path style="fill:url(#SVGID_1_);" d="M408.2,462.6H103.8c-2.8,0-5-2.2-5-5V54.4c0-2.8,2.2-5,5-5h304.3c2.8,0,5,2.2,5,5v403.1
	C413.2,460.3,410.9,462.6,408.2,462.6z"/>
<path id="path260" style="fill:#FFFFFF;" d="M188.7,170.1c-5.7,0-10.3,4.6-10.3,10.3l0,0v134.7c0,1.6,0.4,3.1,1,4.5l0,0L169,329.9
	c-2.7,2.7-2.7,7.2,0,9.9l0,0c2.7,2.7,7.2,2.7,9.9,0l0,0l14.5-14.5h125.1l14.5,14.5c2.7,2.7,7.2,2.7,9.9,0l0,0c2.7-2.7,2.7-7.2,0-9.9
	l0,0l-10.4-10.4c0.7-1.4,1-2.9,1-4.5l0,0V180.4c0-5.7-4.6-10.3-10.3-10.3l0,0L188.7,170.1L188.7,170.1z M229.7,290.1
	c-0.2-0.1-0.4-0.3-0.6-0.5l0,0c-0.4-0.5-0.7-1-0.7-1.7l0,0v-17.5v-59c0-0.9,0.5-1.7,1.2-2.2l0,0c0.8-0.4,1.7-0.4,2.5,0l0,0
	l66.2,38.2c0.8,0.4,1.2,1.3,1.2,2.2l0,0c0,0.9-0.5,1.7-1.2,2.2l0,0L277,264.1l-12.6,7.3L232,290.1c-0.4,0.2-0.8,0.3-1.2,0.3l0,0
	C230.6,290.4,230.1,290.3,229.7,290.1"/>
<path style="opacity:0.2;fill:#FFFFFF;" d="M98.8,54.4v93.8c54-0.7,97.6-44.7,97.6-98.8h-92.6C101.1,49.4,98.8,51.5,98.8,54.4z"/>
<path style="opacity:0.2;fill:#FFFFFF;" d="M98.8,54.4v69.2c40.4-0.7,73-33.6,73-74.2h-68C101.1,49.4,98.8,51.5,98.8,54.4z"/>
<path style="opacity:0.2;fill:#FFFFFF;" d="M98.8,54.4v44.6c26.8-0.7,48.4-22.6,48.4-49.6h-43.4C101.1,49.4,98.8,51.5,98.8,54.4z"/>
</svg>
