<?xml version="1.0" encoding="utf-8"?>
<!-- Generator: Adobe Illustrator 18.0.0, SVG Export Plug-In . SVG Version: 6.00 Build 0)  -->
<!DOCTYPE svg PUBLIC "-//W3C//DTD SVG 1.1//EN" "http://www.w3.org/Graphics/SVG/1.1/DTD/svg11.dtd">
<svg version="1.1" id="Layer_1" xmlns="http://www.w3.org/2000/svg" xmlns:xlink="http://www.w3.org/1999/xlink" x="0px" y="0px"
	 viewBox="0 0 512 512" style="enable-background:new 0 0 512 512;" xml:space="preserve">
<path style="fill:#EFEDED;" d="M469.6,398.1l-286,104c-2.6,1-5.4-0.4-6.4-3L39.3,120.3c-1-2.6,0.4-5.4,3-6.4L328.3,10
	c2.6-1,5.4,0.4,6.4,3l137.9,378.8C473.6,394.2,472.2,397.1,469.6,398.1z"/>
<path style="fill:#E2E2E2;" d="M441.7,433L142,485.8c-2.7,0.5-5.3-1.3-5.8-4.1l-70-397c-0.5-2.7,1.3-5.3,4.1-5.8L370,26.2
	c2.7-0.5,5.3,1.3,5.8,4.1l70,397C446.3,429.9,444.4,432.5,441.7,433z"/>
<path style="fill:#353535;" d="M408.2,462.6H103.8c-2.8,0-5-2.2-5-5V54.4c0-2.8,2.2-5,5-5h304.3c2.8,0,5,2.2,5,5v403.1
	C413.2,460.3,410.9,462.6,408.2,462.6z"/>
<path style="fill:#FFFFFF;" d="M308,204.2L308,204.2H204.1l0,0l0,0c-28.6,0-51.8,23.2-51.8,51.8s23.2,51.8,51.8,51.8l0,0H308l0,0
	c28.6,0,51.8-23.2,51.8-51.8S336.6,204.2,308,204.2z M308,295.5c-21.8,0-39.5-17.7-39.5-39.5s17.7-39.5,39.5-39.5
	s39.5,17.7,39.5,39.5S329.8,295.5,308,295.5z"/>
<path style="opacity:0.2;fill:#FFFFFF;" d="M98.8,54.4v93.8c54-0.7,97.6-44.7,97.6-98.8h-92.6C101,49.4,98.8,51.5,98.8,54.4z"/>
<path style="opacity:0.2;fill:#FFFFFF;" d="M98.8,54.4v69.2c40.4-0.7,73-33.6,73-74.2h-68C101,49.4,98.8,51.5,98.8,54.4z"/>
<path style="opacity:0.2;fill:#FFFFFF;" d="M98.8,54.4v44.6c26.8-0.7,48.4-22.6,48.4-49.6h-43.4C101,49.4,98.8,51.5,98.8,54.4z"/>
</svg>
