<?xml version="1.0" encoding="utf-8"?>
<!-- Generator: Adobe Illustrator 18.0.0, SVG Export Plug-In . SVG Version: 6.00 Build 0)  -->
<!DOCTYPE svg PUBLIC "-//W3C//DTD SVG 1.1//EN" "http://www.w3.org/Graphics/SVG/1.1/DTD/svg11.dtd">
<svg version="1.1" id="Layer_1" xmlns="http://www.w3.org/2000/svg" xmlns:xlink="http://www.w3.org/1999/xlink" x="0px" y="0px"
	 viewBox="0 0 512 512" style="enable-background:new 0 0 512 512;" xml:space="preserve">
<linearGradient id="SVGID_1_" gradientUnits="userSpaceOnUse" x1="24.5669" y1="256.0002" x2="487.4336" y2="256.0002">
	<stop  offset="0" style="stop-color:#0089FF"/>
	<stop  offset="1" style="stop-color:#55E4FF"/>
</linearGradient>
<path style="fill:url(#SVGID_1_);" d="M256,487.4c-61.8,0-119.9-24.1-163.6-67.8C48.6,375.9,24.6,317.8,24.6,256
	S48.6,136.1,92.4,92.4S194.2,24.6,256,24.6s119.9,24.1,163.6,67.8c43.7,43.7,67.8,101.8,67.8,163.6c0,61.8-24.1,119.9-67.8,163.6
	C375.9,463.4,317.8,487.4,256,487.4z M256,27.6c-61,0-118.4,23.8-161.5,66.9C51.3,137.6,27.6,195,27.6,256s23.8,118.4,66.9,161.5
	c43.1,43.1,100.5,66.9,161.5,66.9s118.4-23.8,161.5-66.9S484.4,317,484.4,256s-23.8-118.4-66.9-161.5C374.4,51.3,317,27.6,256,27.6z
	"/>
<g>
	<linearGradient id="SVGID_2_" gradientUnits="userSpaceOnUse" x1="206.9912" y1="38.4407" x2="305.0088" y2="38.4407">
		<stop  offset="0" style="stop-color:#0089FF"/>
		<stop  offset="1" style="stop-color:#55E4FF"/>
	</linearGradient>
	<path style="fill:url(#SVGID_2_);" d="M256,52.4c-23.8,0-49-4.9-49-13.9c0-9.1,25.3-13.9,49-13.9c23.8,0,49,4.9,49,13.9
		C305,47.5,279.8,52.4,256,52.4z M256,27.5c-12.6,0-24.4,1.3-33.2,3.6c-9.4,2.5-12.8,5.4-12.8,7.3c0,1.9,3.4,4.9,12.8,7.3
		c8.9,2.3,20.6,3.6,33.2,3.6s24.4-1.3,33.2-3.6c9.4-2.5,12.8-5.4,12.8-7.3c0-1.9-3.4-4.9-12.8-7.3C280.4,28.8,268.6,27.5,256,27.5z"
		/>
	<linearGradient id="SVGID_3_" gradientUnits="userSpaceOnUse" x1="24.5669" y1="255.9331" x2="487.4336" y2="255.9331">
		<stop  offset="0" style="stop-color:#0089FF"/>
		<stop  offset="1" style="stop-color:#55E4FF"/>
	</linearGradient>
	<path style="fill:url(#SVGID_3_);" d="M256,317.6c-61.5,0-119.4-6.3-163-17.7c-44.2-11.6-68.5-27.2-68.5-44s24.3-32.5,68.5-44
		c43.5-11.4,101.4-17.7,163-17.7s119.4,6.3,163,17.7c44.2,11.6,68.5,27.2,68.5,44s-24.3,32.5-68.5,44
		C375.4,311.4,317.5,317.6,256,317.6z M256,197.2c-61.3,0-118.9,6.2-162.2,17.6c-42.1,11-66.2,26-66.2,41.1s24.1,30.1,66.2,41.1
		c43.3,11.3,100.9,17.6,162.2,17.6s118.9-6.2,162.2-17.6c42.1-11,66.2-26,66.2-41.1s-24.1-30.1-66.2-41.1
		C374.9,203.5,317.3,197.2,256,197.2z"/>
	<linearGradient id="SVGID_4_" gradientUnits="userSpaceOnUse" x1="35.9355" y1="184.3655" x2="476.0645" y2="184.3655">
		<stop  offset="0" style="stop-color:#0089FF"/>
		<stop  offset="1" style="stop-color:#55E4FF"/>
	</linearGradient>
	<path style="fill:url(#SVGID_4_);" d="M256,243.1c-58.5,0-113.5-6-154.9-16.8c-42-11-65.1-25.9-65.1-41.9s23.1-30.9,65.1-41.9
		c41.4-10.8,96.4-16.8,154.9-16.8c58.5,0,113.5,6,154.9,16.8c42,11,65.1,25.9,65.1,41.9s-23.1,30.9-65.1,41.9
		C369.5,237.1,314.5,243.1,256,243.1z M256,128.6c-58.3,0-113,5.9-154.2,16.7c-40,10.5-62.9,24.7-62.9,39s22.9,28.6,62.9,39
		c41.2,10.8,95.9,16.7,154.2,16.7c58.3,0,113-5.9,154.2-16.7c40-10.5,62.9-24.7,62.9-39s-22.9-28.6-62.9-39
		C369,134.6,314.3,128.6,256,128.6z"/>
	<linearGradient id="SVGID_5_" gradientUnits="userSpaceOnUse" x1="64.5977" y1="126.2546" x2="447.4023" y2="126.2546">
		<stop  offset="0" style="stop-color:#0089FF"/>
		<stop  offset="1" style="stop-color:#55E4FF"/>
	</linearGradient>
	<path style="fill:url(#SVGID_5_);" d="M256,177.5c-50.8,0-98.7-5.2-134.7-14.6c-36.6-9.6-56.7-22.6-56.7-36.6
		c0-14,20.2-27,56.7-36.6C157.3,80.2,205.2,75,256,75c50.8,0,98.7,5.2,134.7,14.6c36.6,9.6,56.7,22.6,56.7,36.6
		c0,14-20.2,27-56.7,36.6C354.7,172.3,306.8,177.5,256,177.5z M256,78c-50.6,0-98.2,5.2-133.9,14.5c-34.6,9.1-54.5,21.4-54.5,33.7
		s19.9,24.6,54.5,33.7c35.7,9.4,83.3,14.5,133.9,14.5c50.6,0,98.2-5.2,133.9-14.5c34.6-9.1,54.5-21.4,54.5-33.7
		s-19.9-24.6-54.5-33.7C354.2,83.2,306.6,78,256,78z"/>
	<linearGradient id="SVGID_6_" gradientUnits="userSpaceOnUse" x1="101.1143" y1="84.5742" x2="410.8857" y2="84.5742">
		<stop  offset="0" style="stop-color:#0089FF"/>
		<stop  offset="1" style="stop-color:#55E4FF"/>
	</linearGradient>
	<path style="fill:url(#SVGID_6_);" d="M256,126.2c-86.9,0-154.9-18.3-154.9-41.7s68-41.7,154.9-41.7c86.9,0,154.9,18.3,154.9,41.7
		S342.9,126.2,256,126.2z M256,45.9c-82.3,0-151.9,17.7-151.9,38.7s69.6,38.7,151.9,38.7c82.3,0,151.9-17.7,151.9-38.7
		S338.3,45.9,256,45.9z"/>
	<linearGradient id="SVGID_7_" gradientUnits="userSpaceOnUse" x1="206.9912" y1="473.5591" x2="305.0088" y2="473.5591">
		<stop  offset="0" style="stop-color:#0089FF"/>
		<stop  offset="1" style="stop-color:#55E4FF"/>
	</linearGradient>
	<path style="fill:url(#SVGID_7_);" d="M256,487.5c-23.8,0-49-4.9-49-13.9c0-9.1,25.3-13.9,49-13.9c23.8,0,49,4.9,49,13.9
		C305,482.6,279.8,487.5,256,487.5z M256,462.6c-12.6,0-24.4,1.3-33.2,3.6c-9.4,2.5-12.8,5.4-12.8,7.3s3.4,4.9,12.8,7.3
		c8.9,2.3,20.6,3.6,33.2,3.6s24.4-1.3,33.2-3.6c9.4-2.5,12.8-5.4,12.8-7.3s-3.4-4.9-12.8-7.3C280.4,463.9,268.6,462.6,256,462.6z"/>
	<linearGradient id="SVGID_8_" gradientUnits="userSpaceOnUse" x1="35.9355" y1="327.6343" x2="476.0645" y2="327.6343">
		<stop  offset="0" style="stop-color:#0089FF"/>
		<stop  offset="1" style="stop-color:#55E4FF"/>
	</linearGradient>
	<path style="fill:url(#SVGID_8_);" d="M256,386.4c-58.5,0-113.5-6-154.9-16.8c-42-11-65.1-25.9-65.1-41.9s23.1-30.9,65.1-41.9
		c41.4-10.8,96.4-16.8,154.9-16.8c58.5,0,113.5,6,154.9,16.8c42,11,65.1,25.9,65.1,41.9s-23.1,30.9-65.1,41.9
		C369.5,380.4,314.5,386.4,256,386.4z M256,271.9c-58.3,0-113,5.9-154.2,16.7c-40,10.5-62.9,24.7-62.9,39s22.9,28.6,62.9,39
		c41.2,10.8,95.9,16.7,154.2,16.7c58.3,0,113-5.9,154.2-16.7c40-10.5,62.9-24.7,62.9-39s-22.9-28.6-62.9-39
		C369,277.8,314.3,271.9,256,271.9z"/>
	<linearGradient id="SVGID_9_" gradientUnits="userSpaceOnUse" x1="64.5977" y1="385.7456" x2="447.4023" y2="385.7456">
		<stop  offset="0" style="stop-color:#0089FF"/>
		<stop  offset="1" style="stop-color:#55E4FF"/>
	</linearGradient>
	<path style="fill:url(#SVGID_9_);" d="M256,437c-50.8,0-98.7-5.2-134.7-14.6c-36.6-9.6-56.7-22.6-56.7-36.6s20.2-27,56.7-36.6
		c36-9.4,83.8-14.6,134.7-14.6s98.7,5.2,134.7,14.6c36.6,9.6,56.7,22.6,56.7,36.6s-20.2,27-56.7,36.6C354.7,431.8,306.8,437,256,437
		z M256,337.5c-50.6,0-98.2,5.2-133.9,14.5c-34.6,9.1-54.5,21.4-54.5,33.7s19.9,24.6,54.5,33.7c35.7,9.4,83.3,14.5,133.9,14.5
		s98.2-5.2,133.9-14.5c34.6-9.1,54.5-21.4,54.5-33.7s-19.9-24.6-54.5-33.7C354.2,342.7,306.6,337.5,256,337.5z"/>
	<linearGradient id="SVGID_10_" gradientUnits="userSpaceOnUse" x1="101.1143" y1="427.4258" x2="410.8857" y2="427.4258">
		<stop  offset="0" style="stop-color:#0089FF"/>
		<stop  offset="1" style="stop-color:#55E4FF"/>
	</linearGradient>
	<path style="fill:url(#SVGID_10_);" d="M256,469.1c-86.9,0-154.9-18.3-154.9-41.7s68-41.7,154.9-41.7c86.9,0,154.9,18.3,154.9,41.7
		S342.9,469.1,256,469.1z M256,388.8c-82.3,0-151.9,17.7-151.9,38.7s69.6,38.7,151.9,38.7c82.3,0,151.9-17.7,151.9-38.7
		S338.3,388.8,256,388.8z"/>
</g>
<g>
	<linearGradient id="SVGID_11_" gradientUnits="userSpaceOnUse" x1="24.5" y1="256" x2="52.3813" y2="256">
		<stop  offset="0" style="stop-color:#0089FF"/>
		<stop  offset="1" style="stop-color:#55E4FF"/>
	</linearGradient>
	<path style="fill:url(#SVGID_11_);" d="M38.4,305c-9.1,0-13.9-25.3-13.9-49c0-23.8,4.9-49,13.9-49c9.1,0,13.9,25.3,13.9,49
		C52.4,279.8,47.5,305,38.4,305z M38.4,210c-1.9,0-4.9,3.4-7.3,12.8c-2.3,8.9-3.6,20.6-3.6,33.2s1.3,24.4,3.6,33.2
		c2.5,9.4,5.4,12.8,7.3,12.8c1.9,0,4.9-3.4,7.3-12.8c2.3-8.9,3.6-20.6,3.6-33.2s-1.3-24.4-3.6-33.2C43.3,213.4,40.4,210,38.4,210z"
		/>
	<linearGradient id="SVGID_12_" gradientUnits="userSpaceOnUse" x1="194.2227" y1="256.0002" x2="317.6436" y2="256.0002">
		<stop  offset="0" style="stop-color:#0089FF"/>
		<stop  offset="1" style="stop-color:#55E4FF"/>
	</linearGradient>
	<path style="fill:url(#SVGID_12_);" d="M255.9,487.4c-16.8,0-32.5-24.3-44-68.5c-11.4-43.5-17.7-101.4-17.7-163s6.3-119.4,17.7-163
		c11.6-44.2,27.2-68.5,44-68.5s32.5,24.3,44,68.5c11.4,43.5,17.7,101.4,17.7,163s-6.3,119.4-17.7,163
		C288.4,463.1,272.8,487.4,255.9,487.4z M255.9,27.6c-15.1,0-30.1,24.1-41.1,66.2c-11.3,43.3-17.6,100.9-17.6,162.2
		s6.2,118.9,17.6,162.2c11,42.1,26,66.2,41.1,66.2s30.1-24.1,41.1-66.2c11.3-43.3,17.6-100.9,17.6-162.2s-6.2-118.9-17.6-162.2
		C286,51.7,271,27.6,255.9,27.6z"/>
	<linearGradient id="SVGID_13_" gradientUnits="userSpaceOnUse" x1="125.6318" y1="256" x2="243.0991" y2="256">
		<stop  offset="0" style="stop-color:#0089FF"/>
		<stop  offset="1" style="stop-color:#55E4FF"/>
	</linearGradient>
	<path style="fill:url(#SVGID_13_);" d="M184.4,476.1c-16,0-30.9-23.1-41.9-65.1c-10.8-41.4-16.8-96.4-16.8-154.9
		c0-58.5,6-113.5,16.8-154.9c11-42,25.9-65.1,41.9-65.1s30.9,23.1,41.9,65.1c10.8,41.4,16.8,96.4,16.8,154.9
		c0,58.5-6,113.5-16.8,154.9C215.3,452.9,200.4,476.1,184.4,476.1z M184.4,38.9c-14.3,0-28.6,22.9-39,62.9
		c-10.8,41.2-16.7,95.9-16.7,154.2c0,58.3,5.9,113,16.7,154.2c10.5,40,24.7,62.9,39,62.9s28.6-22.9,39-62.9
		c10.8-41.2,16.7-95.9,16.7-154.2c0-58.3-5.9-113-16.7-154.2C212.9,61.9,198.7,38.9,184.4,38.9z"/>
	<linearGradient id="SVGID_14_" gradientUnits="userSpaceOnUse" x1="75.0264" y1="256" x2="177.4829" y2="256">
		<stop  offset="0" style="stop-color:#0089FF"/>
		<stop  offset="1" style="stop-color:#55E4FF"/>
	</linearGradient>
	<path style="fill:url(#SVGID_14_);" d="M126.3,447.4c-14,0-27-20.2-36.6-56.7C80.2,354.7,75,306.8,75,256
		c0-50.8,5.2-98.7,14.6-134.7c9.6-36.6,22.6-56.7,36.6-56.7c14,0,27,20.2,36.6,56.7c9.4,36,14.6,83.8,14.6,134.7
		s-5.2,98.7-14.6,134.7C153.3,427.3,140.3,447.4,126.3,447.4z M126.3,67.6c-12.4,0-24.6,19.9-33.7,54.5C83.2,157.8,78,205.4,78,256
		c0,50.6,5.2,98.2,14.5,133.9c9.1,34.6,21.4,54.5,33.7,54.5s24.6-19.9,33.7-54.5c9.4-35.7,14.5-83.3,14.5-133.9
		c0-50.6-5.2-98.2-14.5-133.9C150.9,87.5,138.6,67.6,126.3,67.6z"/>
	<linearGradient id="SVGID_15_" gradientUnits="userSpaceOnUse" x1="42.9082" y1="256" x2="126.2402" y2="256">
		<stop  offset="0" style="stop-color:#0089FF"/>
		<stop  offset="1" style="stop-color:#55E4FF"/>
	</linearGradient>
	<path style="fill:url(#SVGID_15_);" d="M84.6,410.9c-23.4,0-41.7-68-41.7-154.9c0-86.9,18.3-154.9,41.7-154.9s41.7,68,41.7,154.9
		C126.2,342.9,107.9,410.9,84.6,410.9z M84.6,104.1c-21,0-38.7,69.6-38.7,151.9c0,82.3,17.7,151.9,38.7,151.9s38.7-69.6,38.7-151.9
		C123.2,173.7,105.5,104.1,84.6,104.1z"/>
	<linearGradient id="SVGID_16_" gradientUnits="userSpaceOnUse" x1="459.6182" y1="256" x2="487.5" y2="256">
		<stop  offset="0" style="stop-color:#0089FF"/>
		<stop  offset="1" style="stop-color:#55E4FF"/>
	</linearGradient>
	<path style="fill:url(#SVGID_16_);" d="M473.6,305c-9.1,0-13.9-25.3-13.9-49c0-23.8,4.9-49,13.9-49c9.1,0,13.9,25.3,13.9,49
		C487.5,279.8,482.6,305,473.6,305z M473.6,210c-1.9,0-4.9,3.4-7.3,12.8c-2.3,8.9-3.6,20.6-3.6,33.2s1.3,24.4,3.6,33.2
		c2.5,9.4,5.4,12.8,7.3,12.8s4.9-3.4,7.3-12.8c2.3-8.9,3.6-20.6,3.6-33.2s-1.3-24.4-3.6-33.2C478.4,213.4,475.5,210,473.6,210z"/>
	<linearGradient id="SVGID_17_" gradientUnits="userSpaceOnUse" x1="268.9004" y1="256" x2="386.3682" y2="256">
		<stop  offset="0" style="stop-color:#0089FF"/>
		<stop  offset="1" style="stop-color:#55E4FF"/>
	</linearGradient>
	<path style="fill:url(#SVGID_17_);" d="M327.6,476.1c-16,0-30.9-23.1-41.9-65.1c-10.8-41.4-16.8-96.4-16.8-154.9
		c0-58.5,6-113.5,16.8-154.9c11-42,25.9-65.1,41.9-65.1s30.9,23.1,41.9,65.1c10.8,41.4,16.8,96.4,16.8,154.9
		c0,58.5-6,113.5-16.8,154.9C358.6,452.9,343.7,476.1,327.6,476.1z M327.6,38.9c-14.3,0-28.6,22.9-39,62.9
		c-10.8,41.2-16.7,95.9-16.7,154.2s5.9,113,16.7,154.2c10.5,40,24.7,62.9,39,62.9s28.6-22.9,39-62.9c10.8-41.2,16.7-95.9,16.7-154.2
		c0-58.3-5.9-113-16.7-154.2C356.2,61.9,342,38.9,327.6,38.9z"/>
	<linearGradient id="SVGID_18_" gradientUnits="userSpaceOnUse" x1="334.5176" y1="256" x2="436.9736" y2="256">
		<stop  offset="0" style="stop-color:#0089FF"/>
		<stop  offset="1" style="stop-color:#55E4FF"/>
	</linearGradient>
	<path style="fill:url(#SVGID_18_);" d="M385.7,447.4c-14,0-27-20.2-36.6-56.7c-9.4-36-14.6-83.8-14.6-134.7s5.2-98.7,14.6-134.7
		c9.6-36.6,22.6-56.7,36.6-56.7s27,20.2,36.6,56.7c9.4,36,14.6,83.8,14.6,134.7s-5.2,98.7-14.6,134.7
		C412.8,427.3,399.8,447.4,385.7,447.4z M385.7,67.6c-12.4,0-24.6,19.9-33.7,54.5c-9.4,35.7-14.5,83.3-14.5,133.9
		c0,50.6,5.2,98.2,14.5,133.9c9.1,34.6,21.4,54.5,33.7,54.5s24.6-19.9,33.7-54.5c9.4-35.7,14.5-83.3,14.5-133.9
		s-5.2-98.2-14.5-133.9C410.4,87.5,398.1,67.6,385.7,67.6z"/>
	<linearGradient id="SVGID_19_" gradientUnits="userSpaceOnUse" x1="385.7598" y1="256" x2="469.0918" y2="256">
		<stop  offset="0" style="stop-color:#0089FF"/>
		<stop  offset="1" style="stop-color:#55E4FF"/>
	</linearGradient>
	<path style="fill:url(#SVGID_19_);" d="M427.4,410.9c-23.4,0-41.7-68-41.7-154.9c0-86.9,18.3-154.9,41.7-154.9s41.7,68,41.7,154.9
		C469.1,342.9,450.8,410.9,427.4,410.9z M427.4,104.1c-21,0-38.7,69.6-38.7,151.9c0,82.3,17.7,151.9,38.7,151.9
		s38.7-69.6,38.7-151.9C466.1,173.7,448.4,104.1,427.4,104.1z"/>
</g>
</svg>
