<?xml version="1.0" encoding="utf-8"?>
<!-- Generator: Adobe Illustrator 18.0.0, SVG Export Plug-In . SVG Version: 6.00 Build 0)  -->
<!DOCTYPE svg PUBLIC "-//W3C//DTD SVG 1.1//EN" "http://www.w3.org/Graphics/SVG/1.1/DTD/svg11.dtd">
<svg version="1.1" id="Layer_1" xmlns="http://www.w3.org/2000/svg" xmlns:xlink="http://www.w3.org/1999/xlink" x="0px" y="0px"
	 viewBox="0 0 512 512" enable-background="new 0 0 512 512" xml:space="preserve">
<g id="Layer_2_1_">
	<g>
		<g>
			<path fill="#525251" d="M76.8,208.2c22.1,0,40.1-18,40.1-40.1c0-22.1-18-40.1-40.1-40.1s-40.1,18-40.1,40.1
				C36.7,190.2,54.7,208.2,76.8,208.2z"/>
			<path fill="#EE3724" d="M76.8,128.1c22.1,0,40.1,18,40.1,40.1c0,22.1-18,40.1-40.1,40.1s-40.1-18-40.1-40.1
				C36.7,146,54.7,128.1,76.8,128.1 M76.8,117.3c-28,0-50.8,22.8-50.8,50.8s22.8,50.8,50.8,50.8s50.8-22.8,50.8-50.8
				S104.8,117.3,76.8,117.3L76.8,117.3z"/>
		</g>
		<path fill="#525251" d="M199.8,208.2c22.1,0,40.1-18,40.1-40.1c0-22.1-18-40.1-40.1-40.1c-22.1,0-40.1,18-40.1,40.1
			C159.8,190.2,177.7,208.2,199.8,208.2z"/>
		<path fill="#525251" d="M322.9,208.2c22.1,0,40.1-18,40.1-40.1c0-22.1-18-40.1-40.1-40.1s-40.1,18-40.1,40.1
			C282.8,190.2,300.8,208.2,322.9,208.2z"/>
		<path fill="#525251" d="M445.9,128.1c-22.1,0-40.1,18-40.1,40.1c0,22.1,18,40.1,40.1,40.1c22.1,0,40.1-18,40.1-40.1
			C486,146,468,128.1,445.9,128.1z"/>
		<path fill="#525251" d="M178.4,262.4c0-22.1-18-40.1-40.1-40.1c-22.1,0-40.1,18-40.1,40.1s18,40.1,40.1,40.1
			C160.4,302.5,178.4,284.5,178.4,262.4z"/>
		<path fill="#525251" d="M301.4,262.4c0-22.1-18-40.1-40.1-40.1c-22.1,0-40.1,18-40.1,40.1s18,40.1,40.1,40.1
			S301.4,284.5,301.4,262.4z"/>
		<path fill="#525251" d="M384.4,222.4c-22.1,0-40.1,18-40.1,40.1s18,40.1,40.1,40.1c22.1,0,40.1-18,40.1-40.1
			C424.5,240.3,406.5,222.4,384.4,222.4z"/>
		<g>
			<path fill="#525251" d="M199.8,316.7c-22.1,0-40.1,18-40.1,40.1s18,40.1,40.1,40.1s40.1-18,40.1-40.1
				C239.9,334.7,221.9,316.7,199.8,316.7z"/>
			<path fill="#EE3724" d="M199.8,402.2c-25,0-45.4-20.4-45.4-45.4c0-25.1,20.4-45.4,45.4-45.4c25.1,0,45.4,20.4,45.4,45.4
				C245.3,381.8,224.9,402.2,199.8,402.2z M199.8,322.1c-19.1,0-34.7,15.6-34.7,34.7s15.6,34.7,34.7,34.7
				c19.1,0,34.7-15.6,34.7-34.7C234.5,337.6,219,322.1,199.8,322.1z"/>
		</g>
		<path fill="#525251" d="M322.9,316.7c-22.1,0-40.1,18-40.1,40.1s18,40.1,40.1,40.1c22.1,0,40.1-18,40.1-40.1
			C363,334.7,345,316.7,322.9,316.7z"/>
		<g>
			<circle fill="#EE3724" cx="76.8" cy="149.9" r="31.2"/>
			<path fill="#E2E2E2" d="M76.8,190c-22.1,0-40.1-18-40.1-40.1c0-22.1,18-40.1,40.1-40.1s40.1,18,40.1,40.1
				C116.9,172,98.9,190,76.8,190z M76.8,127.5c-12.4,0-22.4,10.1-22.4,22.4s10.1,22.4,22.4,22.4s22.4-10.1,22.4-22.4
				C99.2,137.5,89.2,127.5,76.8,127.5z"/>
		</g>
		<g>
			<circle fill="#FAF3EE" cx="199.8" cy="149.9" r="31.2"/>
			<path fill="#E2E2E2" d="M199.8,190c-22.1,0-40.1-18-40.1-40.1c0-22.1,18-40.1,40.1-40.1c22.1,0,40.1,18,40.1,40.1
				C239.9,172,221.9,190,199.8,190z M199.8,127.5c-12.4,0-22.4,10.1-22.4,22.4s10.1,22.4,22.4,22.4s22.4-10.1,22.4-22.4
				C222.3,137.5,212.2,127.5,199.8,127.5z"/>
		</g>
		<g>
			<circle fill="#FAF3EE" cx="322.9" cy="149.9" r="31.2"/>
			<path fill="#E2E2E2" d="M322.9,190c-22.1,0-40.1-18-40.1-40.1c0-22.1,18-40.1,40.1-40.1s40.1,18,40.1,40.1
				C363,172,345,190,322.9,190z M322.9,127.5c-12.4,0-22.4,10.1-22.4,22.4s10.1,22.4,22.4,22.4c12.4,0,22.4-10.1,22.4-22.4
				C345.3,137.5,335.3,127.5,322.9,127.5z"/>
		</g>
		<g>
			<circle fill="#FAF3EE" cx="445.9" cy="149.9" r="31.2"/>
			<path fill="#E2E2E2" d="M445.9,190c-22.1,0-40.1-18-40.1-40.1c0-22.1,18-40.1,40.1-40.1s40.1,18,40.1,40.1
				C486,172,468,190,445.9,190z M445.9,127.5c-12.4,0-22.4,10.1-22.4,22.4s10.1,22.4,22.4,22.4c12.4,0,22.4-10.1,22.4-22.4
				C468.4,137.5,458.3,127.5,445.9,127.5z"/>
		</g>
		<g>
			<circle fill="#FAF3EE" cx="138.3" cy="244.2" r="31.2"/>
			<path fill="#E2E2E2" d="M138.3,284.3c-22.1,0-40.1-18-40.1-40.1s18-40.1,40.1-40.1c22.1,0,40.1,18,40.1,40.1
				C178.4,266.3,160.4,284.3,138.3,284.3z M138.3,221.8c-12.4,0-22.4,10.1-22.4,22.4c0,12.4,10.1,22.4,22.4,22.4
				s22.4-10.1,22.4-22.4S150.7,221.8,138.3,221.8z"/>
		</g>
		<g>
			<circle fill="#FAF3EE" cx="261.4" cy="244.2" r="31.2"/>
			<path fill="#E2E2E2" d="M261.4,284.3c-22.1,0-40.1-18-40.1-40.1s18-40.1,40.1-40.1c22.1,0,40.1,18,40.1,40.1
				C301.4,266.3,283.5,284.3,261.4,284.3z M261.4,221.8c-12.4,0-22.4,10.1-22.4,22.4c0,12.4,10.1,22.4,22.4,22.4
				c12.4,0,22.4-10.1,22.4-22.4C283.8,231.8,273.7,221.8,261.4,221.8z"/>
		</g>
		<g>
			<circle fill="#FAF3EE" cx="384.4" cy="244.2" r="31.2"/>
			<path fill="#E2E2E2" d="M384.4,284.3c-22.1,0-40.1-18-40.1-40.1s18-40.1,40.1-40.1s40.1,18,40.1,40.1
				C424.5,266.3,406.5,284.3,384.4,284.3z M384.4,221.8c-12.4,0-22.4,10.1-22.4,22.4c0,12.4,10.1,22.4,22.4,22.4
				c12.4,0,22.4-10.1,22.4-22.4S396.8,221.8,384.4,221.8z"/>
		</g>
		<g>
			<circle fill="#EE3724" cx="199.8" cy="338.5" r="31.2"/>
			<path fill="#E2E2E2" d="M199.8,378.6c-22.1,0-40.1-18-40.1-40.1s18-40.1,40.1-40.1c22.1,0,40.1,18,40.1,40.1
				C239.9,360.6,221.9,378.6,199.8,378.6z M199.8,316.1c-12.4,0-22.4,10.1-22.4,22.4c0,12.4,10.1,22.4,22.4,22.4
				s22.4-10.1,22.4-22.4C222.3,326.1,212.2,316.1,199.8,316.1z"/>
		</g>
		<g>
			<circle fill="#FAF3EE" cx="322.9" cy="338.5" r="31.2"/>
			<path fill="#E2E2E2" d="M322.9,378.6c-22.1,0-40.1-18-40.1-40.1s18-40.1,40.1-40.1s40.1,18,40.1,40.1
				C363,360.6,345,378.6,322.9,378.6z M322.9,316.1c-12.4,0-22.4,10.1-22.4,22.4c0,12.4,10.1,22.4,22.4,22.4
				c12.4,0,22.4-10.1,22.4-22.4C345.3,326.1,335.3,316.1,322.9,316.1z"/>
		</g>
	</g>
	<path fill="#EE3724" d="M159.8,364.4c-41.1,0-67.2-14.4-79.8-44.1c-11-26-10.9-60.4-10.9-100.2l0-7.1h15.3l0,7.1
		c0,38.2-0.1,71.2,9.7,94.3c10.2,24,30.4,34.8,65.7,34.8L159.8,364.4L159.8,364.4z"/>
</g>
</svg>
