<?xml version="1.0" encoding="utf-8"?>
<!-- Generator: Adobe Illustrator 18.0.0, SVG Export Plug-In . SVG Version: 6.00 Build 0)  -->
<!DOCTYPE svg PUBLIC "-//W3C//DTD SVG 1.1//EN" "http://www.w3.org/Graphics/SVG/1.1/DTD/svg11.dtd">
<svg version="1.1" id="Layer_1" xmlns="http://www.w3.org/2000/svg" xmlns:xlink="http://www.w3.org/1999/xlink" x="0px" y="0px"
	 viewBox="0 0 512 512" style="enable-background:new 0 0 512 512;" xml:space="preserve">
<linearGradient id="SVGID_1_" gradientUnits="userSpaceOnUse" x1="256" y1="486" x2="256" y2="26">
	<stop  offset="0" style="stop-color:#B8B8B8"/>
	<stop  offset="1" style="stop-color:#F0F0F0"/>
</linearGradient>
<path style="fill:url(#SVGID_1_);" d="M446,486H66c-22.1,0-40-17.9-40-40V66c0-22.1,17.9-40,40-40h380c22.1,0,40,17.9,40,40v380
	C486,468.1,468.1,486,446,486z"/>
<g>
	<linearGradient id="SVGID_2_" gradientUnits="userSpaceOnUse" x1="256" y1="472.125" x2="256" y2="364">
		<stop  offset="0" style="stop-color:#F0F0F0"/>
		<stop  offset="1" style="stop-color:#D1D1D1"/>
	</linearGradient>
	<circle style="fill:url(#SVGID_2_);" cx="256" cy="418.1" r="54.1"/>
	<linearGradient id="SVGID_3_" gradientUnits="userSpaceOnUse" x1="256" y1="468.8374" x2="256" y2="367.2876">
		<stop  offset="0" style="stop-color:#D1D1D1"/>
		<stop  offset="1" style="stop-color:#F0F0F0"/>
	</linearGradient>
	<circle style="fill:url(#SVGID_3_);" cx="256" cy="418.1" r="50.8"/>
	<linearGradient id="SVGID_4_" gradientUnits="userSpaceOnUse" x1="256" y1="457.7994" x2="256" y2="378.3256">
		<stop  offset="0" style="stop-color:#F0F0F0"/>
		<stop  offset="1" style="stop-color:#D1D1D1"/>
	</linearGradient>
	<circle style="fill:url(#SVGID_4_);" cx="256" cy="418.1" r="39.7"/>
</g>
<radialGradient id="SVGID_5_" cx="256" cy="188" r="198.9271" gradientUnits="userSpaceOnUse">
	<stop  offset="0" style="stop-color:#212121"/>
	<stop  offset="1" style="stop-color:#121212"/>
</radialGradient>
<path style="fill:url(#SVGID_5_);" d="M446,26H66c-22.1,0-40,17.9-40,40v284h460V66C486,43.9,468.1,26,446,26z"/>
<g>
	<g style="opacity:0.5;">
		<rect x="72.2" y="200.4" style="fill:#FFFFFF;" width="367.5" height="2"/>
	</g>
	<g>
		<g style="opacity:0.2;">
			<g>
				<path style="fill:#0025FF;" d="M412.2,193.4L412.2,193.4c2,0,3.7,2.1,3.7,4.7v-0.8h-7.4v0.8
					C408.5,195.5,410.2,193.4,412.2,193.4z"/>
				<path style="fill:#0025FF;" d="M400.6,187.5L400.6,187.5c2,0,3.7,2.1,3.7,4.7v5.2h-7.4v-5.2
					C396.9,189.6,398.6,187.5,400.6,187.5z"/>
				<path style="fill:#0025FF;" d="M389,172.1L389,172.1c2,0,3.7,2.1,3.7,4.7v20.6h-7.4v-20.6C385.3,174.2,387,172.1,389,172.1z"/>
				<path style="fill:#0025FF;" d="M377.4,180.4L377.4,180.4c2,0,3.7,2.1,3.7,4.7v12.2h-7.4v-12.2
					C373.7,182.5,375.4,180.4,377.4,180.4z"/>
				<path style="fill:#0025FF;" d="M365.8,118.6L365.8,118.6c2,0,3.7,2.1,3.7,4.7v74.1h-7.4v-74.1
					C362.1,120.7,363.7,118.6,365.8,118.6z"/>
				<path style="fill:#0025FF;" d="M354.2,103.2L354.2,103.2c2,0,3.7,2.1,3.7,4.7v89.4h-7.4v-89.4
					C350.5,105.3,352.1,103.2,354.2,103.2z"/>
				<path style="fill:#0025FF;" d="M342.6,187.5L342.6,187.5c2,0,3.7,2.1,3.7,4.7v5.2h-7.4v-5.2
					C338.9,189.6,340.5,187.5,342.6,187.5z"/>
				<path style="fill:#0025FF;" d="M331,136.5L331,136.5c2,0,3.7,2.1,3.7,4.7v56.1h-7.4v-56.1C327.3,138.7,328.9,136.5,331,136.5z"
					/>
				<path style="fill:#0025FF;" d="M319.3,153.1L319.3,153.1c2,0,3.7,2.1,3.7,4.7v39.6h-7.4v-39.6
					C315.7,155.2,317.3,153.1,319.3,153.1z"/>
				<path style="fill:#0025FF;" d="M307.7,172.1L307.7,172.1c2,0,3.7,2.1,3.7,4.7v20.6H304v-20.6
					C304.1,174.2,305.7,172.1,307.7,172.1z"/>
				<path style="fill:#0025FF;" d="M296.1,189.4L296.1,189.4c2,0,3.7,2.1,3.7,4.7v3.2h-7.4v-3.2
					C292.4,191.6,294.1,189.4,296.1,189.4z"/>
				<path style="fill:#0025FF;" d="M284.5,189.4L284.5,189.4c2,0,3.7,2.1,3.7,4.7v3.2h-7.4v-3.2
					C280.8,191.6,282.5,189.4,284.5,189.4z"/>
				<path style="fill:#0025FF;" d="M272.9,183.9L272.9,183.9c2,0,3.7,2.1,3.7,4.7v8.8h-7.4v-8.8C269.2,186,270.9,183.9,272.9,183.9z
					"/>
				<path style="fill:#0025FF;" d="M261.3,160.6L261.3,160.6c2,0,3.7,2.1,3.7,4.7v32.1h-7.4v-32.1
					C257.6,162.7,259.3,160.6,261.3,160.6z"/>
				<path style="fill:#0025FF;" d="M249.7,128L249.7,128c2,0,3.7,2.1,3.7,4.7v64.7H246v-64.7C246,130.1,247.7,128,249.7,128z"/>
				<path style="fill:#0025FF;" d="M238.1,144.4L238.1,144.4c2,0,3.7,2.1,3.7,4.7v48.3h-7.4v-48.3
					C234.4,146.5,236.1,144.4,238.1,144.4z"/>
				<path style="fill:#0025FF;" d="M226.5,161.9L226.5,161.9c2,0,3.7,2.1,3.7,4.7v30.8h-7.4v-30.8
					C222.8,164,224.4,161.9,226.5,161.9z"/>
				<path style="fill:#0025FF;" d="M214.9,187.8L214.9,187.8c2,0,3.7,2.1,3.7,4.7v4.9h-7.4v-4.9
					C211.2,189.9,212.8,187.8,214.9,187.8z"/>
				<path style="fill:#0025FF;" d="M203.3,175.9L203.3,175.9c2,0,3.7,2.1,3.7,4.7v16.7h-7.4v-16.7
					C199.6,178,201.2,175.9,203.3,175.9z"/>
				<path style="fill:#0025FF;" d="M191.7,187.8L191.7,187.8c2,0,3.7,2.1,3.7,4.7v4.9H188v-4.9C188,189.9,189.6,187.8,191.7,187.8z"
					/>
				<path style="fill:#0025FF;" d="M180,176.6L180,176.6c2,0,3.7,2.1,3.7,4.7v16.1h-7.4v-16.1C176.4,178.7,178,176.6,180,176.6z"/>
				<path style="fill:#0025FF;" d="M168.4,164.8L168.4,164.8c2,0,3.7,2.1,3.7,4.7v27.8h-7.4v-27.8
					C164.7,166.9,166.4,164.8,168.4,164.8z"/>
				<path style="fill:#0025FF;" d="M156.8,125.5L156.8,125.5c2,0,3.7,2.1,3.7,4.7v67.1h-7.4v-67.1
					C153.1,127.6,154.8,125.5,156.8,125.5z"/>
				<path style="fill:#0025FF;" d="M145.2,147.3L145.2,147.3c2,0,3.7,2.1,3.7,4.7v45.4h-7.4V152
					C141.5,149.4,143.2,147.3,145.2,147.3z"/>
				<path style="fill:#0025FF;" d="M133.6,136.5L133.6,136.5c2,0,3.7,2.1,3.7,4.7v56.1h-7.4v-56.1
					C129.9,138.7,131.6,136.5,133.6,136.5z"/>
				<path style="fill:#0025FF;" d="M122,152.1L122,152.1c2,0,3.7,2.1,3.7,4.7v40.6h-7.4v-40.6C118.3,154.2,120,152.1,122,152.1z"/>
				<path style="fill:#0025FF;" d="M110.4,183.9L110.4,183.9c2,0,3.7,2.1,3.7,4.7v8.8h-7.4v-8.8C106.7,186,108.4,183.9,110.4,183.9z
					"/>
				<path style="fill:#0025FF;" d="M98.8,172.6L98.8,172.6c2,0,3.7,2.1,3.7,4.7v20h-7.4v-20C95.1,174.8,96.7,172.6,98.8,172.6z"/>
			</g>
			<g>
				<path style="fill:#0025FF;" d="M412.2,200.4L412.2,200.4c2,0,3.7-2.1,3.7-4.7v0.8h-7.4v-0.8
					C408.5,198.3,410.2,200.4,412.2,200.4z"/>
				<path style="fill:#0025FF;" d="M400.6,206.3L400.6,206.3c2,0,3.7-2.1,3.7-4.7v-5.2h-7.4v5.2
					C396.9,204.2,398.6,206.3,400.6,206.3z"/>
				<path style="fill:#0025FF;" d="M389,221.7L389,221.7c2,0,3.7-2.1,3.7-4.7v-20.6h-7.4V217C385.3,219.6,387,221.7,389,221.7z"/>
				<path style="fill:#0025FF;" d="M377.4,213.4L377.4,213.4c2,0,3.7-2.1,3.7-4.7v-12.2h-7.4v12.2
					C373.7,211.3,375.4,213.4,377.4,213.4z"/>
				<path style="fill:#0025FF;" d="M365.8,275.2L365.8,275.2c2,0,3.7-2.1,3.7-4.7v-74.1h-7.4v74.1
					C362.1,273.1,363.7,275.2,365.8,275.2z"/>
				<path style="fill:#0025FF;" d="M354.2,290.6L354.2,290.6c2,0,3.7-2.1,3.7-4.7v-89.4h-7.4v89.4
					C350.5,288.5,352.1,290.6,354.2,290.6z"/>
				<path style="fill:#0025FF;" d="M342.6,206.3L342.6,206.3c2,0,3.7-2.1,3.7-4.7v-5.2h-7.4v5.2
					C338.9,204.2,340.5,206.3,342.6,206.3z"/>
				<path style="fill:#0025FF;" d="M331,257.3L331,257.3c2,0,3.7-2.1,3.7-4.7v-56.1h-7.4v56.1C327.3,255.1,328.9,257.3,331,257.3z"
					/>
				<path style="fill:#0025FF;" d="M319.3,240.7L319.3,240.7c2,0,3.7-2.1,3.7-4.7v-39.6h-7.4V236
					C315.7,238.6,317.3,240.7,319.3,240.7z"/>
				<path style="fill:#0025FF;" d="M307.7,221.7L307.7,221.7c2,0,3.7-2.1,3.7-4.7v-20.6H304V217
					C304.1,219.6,305.7,221.7,307.7,221.7z"/>
				<path style="fill:#0025FF;" d="M296.1,204.4L296.1,204.4c2,0,3.7-2.1,3.7-4.7v-3.2h-7.4v3.2
					C292.4,202.2,294.1,204.4,296.1,204.4z"/>
				<path style="fill:#0025FF;" d="M284.5,204.4L284.5,204.4c2,0,3.7-2.1,3.7-4.7v-3.2h-7.4v3.2
					C280.8,202.2,282.5,204.4,284.5,204.4z"/>
				<path style="fill:#0025FF;" d="M272.9,209.9L272.9,209.9c2,0,3.7-2.1,3.7-4.7v-8.8h-7.4v8.8
					C269.2,207.8,270.9,209.9,272.9,209.9z"/>
				<path style="fill:#0025FF;" d="M261.3,233.2L261.3,233.2c2,0,3.7-2.1,3.7-4.7v-32.1h-7.4v32.1
					C257.6,231.1,259.3,233.2,261.3,233.2z"/>
				<path style="fill:#0025FF;" d="M249.7,265.8L249.7,265.8c2,0,3.7-2.1,3.7-4.7v-64.7H246v64.7C246,263.7,247.7,265.8,249.7,265.8
					z"/>
				<path style="fill:#0025FF;" d="M238.1,249.4L238.1,249.4c2,0,3.7-2.1,3.7-4.7v-48.3h-7.4v48.3
					C234.4,247.3,236.1,249.4,238.1,249.4z"/>
				<path style="fill:#0025FF;" d="M226.5,231.9L226.5,231.9c2,0,3.7-2.1,3.7-4.7v-30.8h-7.4v30.8
					C222.8,229.8,224.4,231.9,226.5,231.9z"/>
				<path style="fill:#0025FF;" d="M214.9,206L214.9,206c2,0,3.7-2.1,3.7-4.7v-4.9h-7.4v4.9C211.2,203.9,212.8,206,214.9,206z"/>
				<path style="fill:#0025FF;" d="M203.3,217.9L203.3,217.9c2,0,3.7-2.1,3.7-4.7v-16.7h-7.4v16.7
					C199.6,215.8,201.2,217.9,203.3,217.9z"/>
				<path style="fill:#0025FF;" d="M191.7,206L191.7,206c2,0,3.7-2.1,3.7-4.7v-4.9H188v4.9C188,203.9,189.6,206,191.7,206z"/>
				<path style="fill:#0025FF;" d="M180,217.2L180,217.2c2,0,3.7-2.1,3.7-4.7v-16.1h-7.4v16.1C176.4,215.1,178,217.2,180,217.2z"/>
				<path style="fill:#0025FF;" d="M168.4,229L168.4,229c2,0,3.7-2.1,3.7-4.7v-27.8h-7.4v27.8C164.7,226.9,166.4,229,168.4,229z"/>
				<path style="fill:#0025FF;" d="M156.8,268.3L156.8,268.3c2,0,3.7-2.1,3.7-4.7v-67.1h-7.4v67.1
					C153.1,266.2,154.8,268.3,156.8,268.3z"/>
				<path style="fill:#0025FF;" d="M145.2,246.5L145.2,246.5c2,0,3.7-2.1,3.7-4.7v-45.4h-7.4v45.4
					C141.5,244.4,143.2,246.5,145.2,246.5z"/>
				<path style="fill:#0025FF;" d="M133.6,257.3L133.6,257.3c2,0,3.7-2.1,3.7-4.7v-56.1h-7.4v56.1
					C129.9,255.1,131.6,257.3,133.6,257.3z"/>
				<path style="fill:#0025FF;" d="M122,241.7L122,241.7c2,0,3.7-2.1,3.7-4.7v-40.6h-7.4V237C118.3,239.6,120,241.7,122,241.7z"/>
				<path style="fill:#0025FF;" d="M110.4,209.9L110.4,209.9c2,0,3.7-2.1,3.7-4.7v-8.8h-7.4v8.8
					C106.7,207.8,108.4,209.9,110.4,209.9z"/>
				<path style="fill:#0025FF;" d="M98.8,221.2L98.8,221.2c2,0,3.7-2.1,3.7-4.7v-20h-7.4v20C95.1,219,96.7,221.2,98.8,221.2z"/>
			</g>
		</g>
		<g>
			<rect x="413.5" y="159.9" style="fill:#FFFFFF;" width="3.8" height="74"/>
			<rect x="399.1" y="159.9" style="fill:#FFFFFF;" width="3.8" height="74"/>
			<rect x="384.7" y="159.9" style="fill:#FFFFFF;" width="3.8" height="74"/>
			<rect x="370.3" y="159.9" style="fill:#FFFFFF;" width="3.8" height="74"/>
			<rect x="355.8" y="159.9" style="fill:#FFFFFF;" width="3.8" height="74"/>
			<rect x="327" y="159.9" style="fill:#FFFFFF;" width="3.8" height="74"/>
			<rect x="312.6" y="159.9" style="fill:#FFFFFF;" width="3.8" height="74"/>
			<rect x="298.2" y="159.9" style="fill:#FFFFFF;" width="3.8" height="74"/>
			<rect x="283.8" y="159.9" style="fill:#FFFFFF;" width="3.8" height="74"/>
			<rect x="269.3" y="159.9" style="fill:#FFFFFF;" width="3.8" height="74"/>
			<rect x="240.5" y="159.9" style="fill:#FFFFFF;" width="3.8" height="74"/>
			<rect x="226.1" y="159.9" style="fill:#FFFFFF;" width="3.8" height="74"/>
			<rect x="211.7" y="159.9" style="fill:#FFFFFF;" width="3.8" height="74"/>
			<rect x="197.3" y="159.9" style="fill:#FFFFFF;" width="3.8" height="74"/>
			<rect x="182.8" y="159.9" style="fill:#FFFFFF;" width="3.8" height="74"/>
			<rect x="154" y="159.9" style="fill:#FFFFFF;" width="3.8" height="74"/>
			<rect x="139.6" y="159.9" style="fill:#FFFFFF;" width="3.8" height="74"/>
			<rect x="125.2" y="159.9" style="fill:#FFFFFF;" width="3.8" height="74"/>
			<rect x="110.8" y="159.9" style="fill:#FFFFFF;" width="3.8" height="74"/>
			<rect x="96.3" y="159.9" style="fill:#FFFFFF;" width="3.8" height="74"/>
		</g>
		<g>
			<rect x="341.4" y="125.4" style="fill:#FFFFFF;" width="3.8" height="143"/>
			<rect x="254.9" y="125.4" style="fill:#FFFFFF;" width="3.8" height="143"/>
			<rect x="168.4" y="125.4" style="fill:#FFFFFF;" width="3.8" height="143"/>
		</g>
		<rect x="217.4" y="89.9" style="fill:#FF0000;" width="5.8" height="214"/>
	</g>
</g>
</svg>
