<?xml version="1.0" encoding="utf-8"?>
<!-- Generator: Adobe Illustrator 18.0.0, SVG Export Plug-In . SVG Version: 6.00 Build 0)  -->
<!DOCTYPE svg PUBLIC "-//W3C//DTD SVG 1.1//EN" "http://www.w3.org/Graphics/SVG/1.1/DTD/svg11.dtd">
<svg version="1.1" id="Layer_1" xmlns="http://www.w3.org/2000/svg" xmlns:xlink="http://www.w3.org/1999/xlink" x="0px" y="0px"
	 viewBox="0 0 512 512" style="enable-background:new 0 0 512 512;" xml:space="preserve">
<g>
	<g>
		<g>
			<path style="opacity:0.4;enable-background:new    ;" d="M422.6,430.8c12.2-27.1,20.8-94.2,20.8-172.7s-8.6-145.5-20.8-172.7
				c-5.1-13.1-13.8-23.7-24.6-29.9c-22.3-14.8-77.5-25.3-142-25.3S136.3,40.8,114,55.6c-10.8,6.2-19.5,16.8-24.6,29.9
				c-12.2,27.1-20.8,94.2-20.8,172.7s8.6,145.5,20.8,172.7c5.1,13.1,13.8,23.7,24.6,29.9c22.3,14.8,77.5,25.3,142,25.3
				s119.7-10.5,142-25.3C408.8,454.5,417.5,443.9,422.6,430.8z"/>
			<path style="fill:#E2E2E2;" d="M422.6,426.5c12.2-27.1,20.8-94.2,20.8-172.7s-8.6-145.5-20.8-172.7
				c-5.1-13.1-13.8-23.7-24.6-29.9C375.7,36.5,320.5,26,256,26S136.3,36.5,114,51.3c-10.8,6.2-19.5,16.8-24.6,29.9
				c-12.2,27.1-20.8,94.2-20.8,172.7s8.6,145.5,20.8,172.7c5.1,13.1,13.8,23.7,24.6,29.9c22.3,14.8,77.5,25.3,142,25.3
				s119.7-10.5,142-25.3C408.8,450.2,417.5,439.6,422.6,426.5z"/>
		</g>
	</g>
	<g>
		<circle style="fill:#FFB600;" cx="256" cy="94" r="57.7"/>
		<g>
			<circle style="fill:#FFB600;" cx="256" cy="315.5" r="150.7"/>
			<circle style="fill:#353535;" cx="256" cy="315.5" r="57.7"/>
		</g>
	</g>
</g>
</svg>
