<?xml version="1.0" encoding="utf-8"?>
<!-- Generator: Adobe Illustrator 18.0.0, SVG Export Plug-In . SVG Version: 6.00 Build 0)  -->
<!DOCTYPE svg PUBLIC "-//W3C//DTD SVG 1.1//EN" "http://www.w3.org/Graphics/SVG/1.1/DTD/svg11.dtd">
<svg version="1.1" id="Layer_2" xmlns="http://www.w3.org/2000/svg" xmlns:xlink="http://www.w3.org/1999/xlink" x="0px" y="0px"
	 viewBox="0 0 512 512" style="enable-background:new 0 0 512 512;" xml:space="preserve">
<linearGradient id="SVGID_1_" gradientUnits="userSpaceOnUse" x1="256" y1="26" x2="256" y2="486" gradientTransform="matrix(1 0 0 -1 0 512)">
	<stop  offset="0" style="stop-color:#E8E8E8"/>
	<stop  offset="1" style="stop-color:#C4C4C4"/>
</linearGradient>
<path style="fill:url(#SVGID_1_);" d="M446,486H66c-22.1,0-40-17.9-40-40V66c0-22.1,17.9-40,40-40h380c22.1,0,40,17.9,40,40v380
	C486,468.1,468.1,486,446,486z"/>
<linearGradient id="SVGID_2_" gradientUnits="userSpaceOnUse" x1="256" y1="56" x2="256" y2="456" gradientTransform="matrix(1 0 0 -1 0 512)">
	<stop  offset="0" style="stop-color:#949494"/>
	<stop  offset="1" style="stop-color:#E8E8E8"/>
</linearGradient>
<circle style="fill:url(#SVGID_2_);" cx="256" cy="256" r="200"/>
<g>
	
		<linearGradient id="SVGID_3_" gradientUnits="userSpaceOnUse" x1="256" y1="81.7" x2="256" y2="430.3" gradientTransform="matrix(1 0 0 -1 0 512)">
		<stop  offset="0" style="stop-color:#0D0D0D"/>
		<stop  offset="1" style="stop-color:#333333"/>
	</linearGradient>
	<circle style="fill:url(#SVGID_3_);" cx="256" cy="256" r="174.3"/>
	<g>
		<g>
			
				<radialGradient id="SVGID_4_" cx="255.1283" cy="172.317" r="161.3019" gradientTransform="matrix(1 0 0 -1 0 512)" gradientUnits="userSpaceOnUse">
				<stop  offset="0" style="stop-color:#FFEB3F"/>
				<stop  offset="1" style="stop-color:#FFA03F"/>
			</radialGradient>
			<circle style="fill:url(#SVGID_4_);" cx="256" cy="256" r="137.4"/>
			
				<linearGradient id="SVGID_5_" gradientUnits="userSpaceOnUse" x1="256" y1="212.9" x2="256" y2="299.1" gradientTransform="matrix(1 0 0 -1 0 512)">
				<stop  offset="0" style="stop-color:#080808"/>
				<stop  offset="1" style="stop-color:#424242"/>
			</linearGradient>
			<circle style="fill:url(#SVGID_5_);" cx="256" cy="256" r="43.1"/>
		</g>
	</g>
</g>
</svg>
