<?xml version="1.0" encoding="utf-8"?>
<!-- Generator: Adobe Illustrator 18.0.0, SVG Export Plug-In . SVG Version: 6.00 Build 0)  -->
<!DOCTYPE svg PUBLIC "-//W3C//DTD SVG 1.1//EN" "http://www.w3.org/Graphics/SVG/1.1/DTD/svg11.dtd">
<svg version="1.1" id="Layer_3" xmlns="http://www.w3.org/2000/svg" xmlns:xlink="http://www.w3.org/1999/xlink" x="0px" y="0px"
	 viewBox="0 0 512 512" style="enable-background:new 0 0 512 512;" xml:space="preserve">
<radialGradient id="SVGID_1_" cx="256" cy="256" r="230" gradientTransform="matrix(1 0 0 -1 0 512)" gradientUnits="userSpaceOnUse">
	<stop  offset="0" style="stop-color:#2AE4FF"/>
	<stop  offset="1" style="stop-color:#0090FF"/>
</radialGradient>
<path style="fill:url(#SVGID_1_);" d="M446,486H66c-22.091,0-40-17.909-40-40V66c0-22.091,17.909-40,40-40h380
	c22.091,0,40,17.909,40,40v380C486,468.091,468.091,486,446,486z"/>
<g>
	<g>
		<polygon style="fill:#5BC3B7;" points="172.829,428.077 199.524,381.839 133.514,267.504 83.215,354.623 95.846,376.499 
			119.449,335.619 		"/>
		<polygon style="fill:#5BC3B7;" points="359.552,380.961 312.182,298.912 266.735,377.63 314.105,459.677 		"/>
		<polygon style="fill:#66D3C3;" points="172.829,428.077 206.271,486 298.908,486 314.105,459.679 234.345,321.527 		"/>
		<path style="fill:#27AE61;" d="M95.846,376.5l-12.631-21.876L53.133,302.52L26,349.514V446c0,11.856,5.163,22.503,13.358,29.828
			l56.488-99.327V376.5L95.846,376.5L95.846,376.5z"/>
		<path style="fill:#51D88B;" d="M39.381,475.848C46.453,482.159,55.776,486,66,486h140.27l-1.052-1.822l-32.389-56.101
			l-53.38-92.459L39.381,475.848z"/>
		<polygon style="fill:#1BBC9B;" points="359.552,380.961 314.106,459.678 314.105,459.679 314.106,459.679 298.909,486 
			355.751,486 387.97,430.181 406.581,397.945 378.164,348.724 		"/>
		<path style="fill:#27AE61;" d="M461.676,302.519l-55.094,95.425v0.001v0.001l-18.612,32.237L355.751,486H446
			c22.091,0,40-17.909,40-40V344.333L461.676,302.519z"/>
	</g>
	<g style="display:none;">
		<g style="display:inline;">
			<polygon style="fill:#E2E2E2;" points="305.425,407.615 301.263,365.82 210.737,365.82 206.488,407.615 			"/>
			<rect x="184.81" y="406.487" style="fill:#969696;" width="142.293" height="5.55"/>
		</g>
		<path style="display:inline;fill:#0C0C0C;" d="M443.209,99.963H68.704c-6.763,0-12.226,5.376-12.226,12.226v241.664
			c0,6.763,5.376,12.226,12.226,12.226h374.592c6.763,0,12.226-5.376,12.226-12.226v-241.75
			C455.436,105.339,450.06,99.963,443.209,99.963z M438.18,340.24c0,1.041-0.78,1.734-1.734,1.734H75.467
			c-1.041,0-1.734-0.78-1.734-1.734V125.456c0-1.041,0.78-1.734,1.734-1.734h360.892c1.041,0,1.734,0.78,1.734,1.734V340.24H438.18z
			"/>
	</g>
	<circle style="fill:#F9B800;" cx="256" cy="240" r="47.215"/>
</g>
<g>
	<g>
		<path style="fill:#FFFFFF;" d="M147,131.241v206.631v11.369v31.519h218v-31.519v-11.369V131.241H147z M160,144.241h192v192H160
			V144.241z"/>
	</g>
	<g>
		<g>
			<polygon style="fill:#E2E2E2;" points="366.071,315.488 365,315.706 365,337.872 365,349.241 365,361.137 387.687,356.521 
				381.402,325.635 379.135,314.494 365,245.023 365,310.223 			"/>
		</g>
		<g>
			<polygon style="fill:#E2E2E2;" points="174.064,399.988 268.564,380.759 170.152,380.759 			"/>
		</g>
		<g>
			<polygon style="fill:#E2E2E2;" points="139.644,165.626 147,164.129 147,150.863 124.313,155.479 147,266.977 147,201.777 			"/>
		</g>
		<g>
			<polygon style="fill:#E2E2E2;" points="327.789,127.343 328.582,131.241 341.848,131.241 337.936,112.012 243.436,131.241 
				308.636,131.241 			"/>
		</g>
	</g>
</g>
</svg>
