<?xml version="1.0" encoding="utf-8"?>
<!-- Generator: Adobe Illustrator 18.0.0, SVG Export Plug-In . SVG Version: 6.00 Build 0)  -->
<!DOCTYPE svg PUBLIC "-//W3C//DTD SVG 1.1//EN" "http://www.w3.org/Graphics/SVG/1.1/DTD/svg11.dtd">
<svg version="1.1" id="Layer_2" xmlns="http://www.w3.org/2000/svg" xmlns:xlink="http://www.w3.org/1999/xlink" x="0px" y="0px"
	 viewBox="0 0 512 512" style="enable-background:new 0 0 512 512;" xml:space="preserve">
<g>
	<g id="g3361">
		
			<linearGradient id="polygon3282_1_" gradientUnits="userSpaceOnUse" x1="694.9016" y1="1573.5643" x2="597.5906" y2="1401.7557" gradientTransform="matrix(1 0 0 1 -264.27 -1045.73)">
			<stop  offset="0" style="stop-color:#FB7655"/>
			<stop  offset="0" style="stop-color:#FB7655"/>
			<stop  offset="0.41" style="stop-color:#E42B1E"/>
			<stop  offset="0.99" style="stop-color:#990000"/>
			<stop  offset="1" style="stop-color:#990000"/>
		</linearGradient>
		<polygon id="polygon3282" style="fill:url(#polygon3282_1_);" points="382.734,329.615 119.372,486 460.375,462.858 
			486.642,119.01 		"/>
		
			<linearGradient id="polygon3293_1_" gradientUnits="userSpaceOnUse" x1="743.3789" y1="1429.2366" x2="617.9664" y2="1345.0769" gradientTransform="matrix(1 0 0 1 -264.27 -1045.73)">
			<stop  offset="0" style="stop-color:#871101"/>
			<stop  offset="0" style="stop-color:#871101"/>
			<stop  offset="0.99" style="stop-color:#911209"/>
			<stop  offset="1" style="stop-color:#911209"/>
		</linearGradient>
		<polygon id="polygon3293" style="fill:url(#polygon3293_1_);" points="460.936,462.625 431.627,260.33 351.79,365.749 		"/>
		
			<linearGradient id="polygon3304_1_" gradientUnits="userSpaceOnUse" x1="643.0353" y1="1578.7704" x2="517.6265" y2="1494.6135" gradientTransform="matrix(1 0 0 1 -264.27 -1045.73)">
			<stop  offset="0" style="stop-color:#871101"/>
			<stop  offset="0" style="stop-color:#871101"/>
			<stop  offset="0.99" style="stop-color:#911209"/>
			<stop  offset="1" style="stop-color:#911209"/>
		</linearGradient>
		<polygon id="polygon3304" style="fill:url(#polygon3304_1_);" points="461.331,462.625 246.607,445.769 120.513,485.56 		"/>
		
			<linearGradient id="polygon3319_1_" gradientUnits="userSpaceOnUse" x1="379.7215" y1="1368.316" x2="399.1633" y2="1494.6677" gradientTransform="matrix(1 0 0 1 -264.27 -1045.73)">
			<stop  offset="0" style="stop-color:#FFFFFF"/>
			<stop  offset="0" style="stop-color:#FFFFFF"/>
			<stop  offset="0.23" style="stop-color:#E57252"/>
			<stop  offset="0.46" style="stop-color:#DE3B20"/>
			<stop  offset="0.99" style="stop-color:#A60003"/>
			<stop  offset="1" style="stop-color:#A60003"/>
		</linearGradient>
		<polygon id="polygon3319" style="fill:url(#polygon3319_1_);" points="120.814,485.603 174.456,309.872 56.418,335.113 		"/>
		
			<linearGradient id="polygon3334_1_" gradientUnits="userSpaceOnUse" x1="513.4427" y1="1250.3352" x2="520.6062" y2="1379.285" gradientTransform="matrix(1 0 0 1 -264.27 -1045.73)">
			<stop  offset="0" style="stop-color:#FFFFFF"/>
			<stop  offset="0" style="stop-color:#FFFFFF"/>
			<stop  offset="0.23" style="stop-color:#E4714E"/>
			<stop  offset="0.56" style="stop-color:#BE1A0D"/>
			<stop  offset="0.99" style="stop-color:#A80D00"/>
			<stop  offset="1" style="stop-color:#A80D00"/>
		</linearGradient>
		<polygon id="polygon3334" style="fill:url(#polygon3334_1_);" points="351.768,366.332 302.411,172.999 161.161,305.402 		"/>
		
			<linearGradient id="polygon3349_1_" gradientUnits="userSpaceOnUse" x1="632.1125" y1="1131.1456" x2="653.5575" y2="1223.5627" gradientTransform="matrix(1 0 0 1 -264.27 -1045.73)">
			<stop  offset="0" style="stop-color:#FFFFFF"/>
			<stop  offset="0" style="stop-color:#FFFFFF"/>
			<stop  offset="0.18" style="stop-color:#E46342"/>
			<stop  offset="0.4" style="stop-color:#C82410"/>
			<stop  offset="0.99" style="stop-color:#A80D00"/>
			<stop  offset="1" style="stop-color:#A80D00"/>
		</linearGradient>
		<polygon id="polygon3349" style="fill:url(#polygon3349_1_);" points="475.443,175.724 341.92,66.672 304.741,186.875 		"/>
		
			<linearGradient id="polygon3362_1_" gradientUnits="userSpaceOnUse" x1="566.6266" y1="1098.5995" x2="659.0378" y2="1052.3939" gradientTransform="matrix(1 0 0 1 -264.27 -1045.73)">
			<stop  offset="0" style="stop-color:#FFFFFF"/>
			<stop  offset="0" style="stop-color:#FFFFFF"/>
			<stop  offset="0.54" style="stop-color:#C81F11"/>
			<stop  offset="0.99" style="stop-color:#BF0905"/>
			<stop  offset="1" style="stop-color:#BF0905"/>
		</linearGradient>
		<polygon id="polygon3362" style="fill:url(#polygon3362_1_);" points="413.001,27.791 334.472,71.188 284.926,27.209 		"/>
		
			<linearGradient id="polygon3375_1_" gradientUnits="userSpaceOnUse" x1="298.7178" y1="1336.1035" x2="306.3238" y2="1412.2538" gradientTransform="matrix(1 0 0 1 -264.27 -1045.73)">
			<stop  offset="0" style="stop-color:#FFFFFF"/>
			<stop  offset="0" style="stop-color:#FFFFFF"/>
			<stop  offset="0.31" style="stop-color:#DE4024"/>
			<stop  offset="0.99" style="stop-color:#BF190B"/>
			<stop  offset="1" style="stop-color:#BF190B"/>
		</linearGradient>
		<polygon id="polygon3375" style="fill:url(#polygon3375_1_);" points="25.358,394.059 58.257,334.061 31.646,262.588 		"/>
		<path id="path3377" style="fill:#FFFFFF;" d="M29.877,260.33l26.774,75.944l116.339-26.1l132.822-123.441l37.485-119.059
			L284.276,26L183.932,63.554C152.319,92.96,90.97,151.14,88.758,152.236C86.567,153.35,48.245,225.78,29.877,260.33z"/>
		
			<linearGradient id="path3400_1_" gradientUnits="userSpaceOnUse" x1="246.4282" y1="1432.8379" x2="603.9675" y2="1065.1876" gradientTransform="matrix(1 0 0 1 -264.27 -1045.73)">
			<stop  offset="0" style="stop-color:#BD0012"/>
			<stop  offset="0" style="stop-color:#BD0012"/>
			<stop  offset="0.07" style="stop-color:#FFFFFF"/>
			<stop  offset="0.17" style="stop-color:#FFFFFF"/>
			<stop  offset="0.27" style="stop-color:#C82F1C"/>
			<stop  offset="0.33" style="stop-color:#820C01"/>
			<stop  offset="0.46" style="stop-color:#A31601"/>
			<stop  offset="0.72" style="stop-color:#B31301"/>
			<stop  offset="0.99" style="stop-color:#E82609"/>
			<stop  offset="1" style="stop-color:#E82609"/>
		</linearGradient>
		<path id="path3400" style="fill:url(#path3400_1_);" d="M123.888,123.899c68.517-67.935,156.85-108.075,190.747-73.874
			c33.878,34.201-2.049,117.316-70.566,185.23S88.315,345.518,54.439,311.317C20.541,277.138,55.371,191.812,123.888,123.899z"/>
		
			<linearGradient id="path3413_1_" gradientUnits="userSpaceOnUse" x1="520.2931" y1="1469.9215" x2="412.5988" y2="1443.3417" gradientTransform="matrix(1 0 0 1 -264.27 -1045.73)">
			<stop  offset="0" style="stop-color:#8C0C01"/>
			<stop  offset="0" style="stop-color:#8C0C01"/>
			<stop  offset="0.54" style="stop-color:#990C00"/>
			<stop  offset="0.99" style="stop-color:#A80D0E"/>
			<stop  offset="1" style="stop-color:#A80D0E"/>
		</linearGradient>
		<path id="path3413" style="fill:url(#path3413_1_);" d="M120.814,485.533l53.221-176.289l176.756,56.784
			C286.884,425.956,215.805,476.616,120.814,485.533z"/>
		
			<linearGradient id="path3424_1_" gradientUnits="userSpaceOnUse" x1="705.269" y1="1340.6658" x2="609.597" y2="1254.9176" gradientTransform="matrix(1 0 0 1 -264.27 -1045.73)">
			<stop  offset="0" style="stop-color:#7E110B"/>
			<stop  offset="0" style="stop-color:#7E110B"/>
			<stop  offset="0.99" style="stop-color:#9E0C00"/>
			<stop  offset="1" style="stop-color:#9E0C00"/>
		</linearGradient>
		<path id="path3424" style="fill:url(#path3424_1_);" d="M306.044,186.386l45.376,179.734
			c53.385-56.132,101.298-116.479,124.765-191.12C476.184,175.002,306.044,186.386,306.044,186.386z"/>
		
			<linearGradient id="path3435_1_" gradientUnits="userSpaceOnUse" x1="740.4175" y1="1183.335" x2="692.7617" y2="1132.3875" gradientTransform="matrix(1 0 0 1 -264.27 -1045.73)">
			<stop  offset="0" style="stop-color:#79130D"/>
			<stop  offset="0" style="stop-color:#79130D"/>
			<stop  offset="0.99" style="stop-color:#9E120B"/>
			<stop  offset="1" style="stop-color:#9E120B"/>
		</linearGradient>
		<path id="path3435" style="fill:url(#path3435_1_);" d="M475.722,175.909c18.161-54.805,22.35-133.429-63.281-148.024
			l-70.265,38.811L475.722,175.909z"/>
		<path id="path3437" style="fill:#9E1209;" d="M25.358,393.267c2.513,90.453,67.774,91.799,95.571,92.593l-64.211-149.96
			L25.358,393.267z"/>
		
			<radialGradient id="path3448_1_" cx="624.4942" cy="1256.5581" r="117.2411" gradientTransform="matrix(1 0 0 1 -264.27 -1045.73)" gradientUnits="userSpaceOnUse">
			<stop  offset="0" style="stop-color:#A80D00"/>
			<stop  offset="0" style="stop-color:#A80D00"/>
			<stop  offset="0.99" style="stop-color:#7E0E08"/>
			<stop  offset="1" style="stop-color:#7E0E08"/>
		</radialGradient>
		<path id="path3448" style="fill:url(#path3448_1_);" d="M306.299,186.665c41.023,25.214,123.698,75.853,125.374,76.784
			c2.605,1.466,35.645-55.713,43.142-88.029L306.299,186.665z"/>
		
			<radialGradient id="path3459_1_" cx="462.1293" cy="1411.062" r="155.8564" gradientTransform="matrix(1 0 0 1 -264.27 -1045.73)" gradientUnits="userSpaceOnUse">
			<stop  offset="0" style="stop-color:#A30C00"/>
			<stop  offset="0" style="stop-color:#A30C00"/>
			<stop  offset="0.99" style="stop-color:#800E08"/>
			<stop  offset="1" style="stop-color:#800E08"/>
		</radialGradient>
		<path id="path3459" style="fill:url(#path3459_1_);" d="M173.968,309.244l71.149,137.268
			c42.071-22.817,75.015-50.614,105.186-80.393L173.968,309.244z"/>
		
			<linearGradient id="path3472_1_" gradientUnits="userSpaceOnUse" x1="351.7222" y1="1531.1604" x2="312.8856" y2="1399.4" gradientTransform="matrix(1 0 0 1 -264.27 -1045.73)">
			<stop  offset="0" style="stop-color:#8B2114"/>
			<stop  offset="0" style="stop-color:#8B2114"/>
			<stop  offset="0.43" style="stop-color:#9E100A"/>
			<stop  offset="0.99" style="stop-color:#B3100C"/>
			<stop  offset="1" style="stop-color:#B3100C"/>
		</linearGradient>
		<path id="path3472" style="fill:url(#path3472_1_);" d="M56.442,336.088L46.36,456.13c19.02,25.982,45.19,28.24,72.639,26.216
			C99.138,432.916,59.468,334.085,56.442,336.088z"/>
		
			<linearGradient id="path3485_1_" gradientUnits="userSpaceOnUse" x1="649.6614" y1="1094.5388" x2="736.7301" y2="1132.972" gradientTransform="matrix(1 0 0 1 -264.27 -1045.73)">
			<stop  offset="0" style="stop-color:#B31000"/>
			<stop  offset="0" style="stop-color:#B31000"/>
			<stop  offset="0.44" style="stop-color:#910F08"/>
			<stop  offset="0.99" style="stop-color:#791C12"/>
			<stop  offset="1" style="stop-color:#791C12"/>
		</linearGradient>
		<path id="path3485" style="fill:url(#path3485_1_);" d="M341.759,66.997l141.344,19.836
			c-7.542-31.967-30.708-52.593-70.195-59.042L341.759,66.997z"/>
	</g>
</g>
</svg>
