<?xml version="1.0" encoding="utf-8"?>
<!-- Generator: Adobe Illustrator 18.0.0, SVG Export Plug-In . SVG Version: 6.00 Build 0)  -->
<!DOCTYPE svg PUBLIC "-//W3C//DTD SVG 1.1//EN" "http://www.w3.org/Graphics/SVG/1.1/DTD/svg11.dtd">
<svg version="1.1" id="Layer_1" xmlns="http://www.w3.org/2000/svg" xmlns:xlink="http://www.w3.org/1999/xlink" x="0px" y="0px"
	 viewBox="0 0 512 512" style="enable-background:new 0 0 512 512;" xml:space="preserve">
<path style="fill:#EFEDED;" d="M469.6,398.1l-286,104c-2.6,1-5.4-0.4-6.4-3L39.3,120.3c-1-2.6,0.4-5.4,3-6.4L328.3,10
	c2.6-1,5.4,0.4,6.4,3l137.9,378.8C473.6,394.2,472.2,397.1,469.6,398.1z"/>
<path style="fill:#E2E2E2;" d="M441.7,433L142,485.8c-2.7,0.5-5.3-1.3-5.8-4.1l-70-397c-0.5-2.7,1.3-5.3,4.1-5.8L370,26.2
	c2.7-0.5,5.3,1.3,5.8,4.1l70,397C446.3,429.9,444.4,432.5,441.7,433z"/>
<path d="M408.2,462.6H103.8c-2.8,0-5-2.2-5-5V54.4c0-2.8,2.2-5,5-5h304.3c2.8,0,5,2.2,5,5v403.1
	C413.2,460.3,410.9,462.6,408.2,462.6z"/>
<g>
	<path style="fill:#FFFFFF;" d="M256,358.3c0,0-20.697-73.307,15.598-121.848C233.125,254.741,205.701,275.328,256,358.3z"/>
	<path style="fill:#FFFFFF;" d="M276,231c-1.557,1.776-3.016,3.598-4.402,5.452c32.717-15.553,73.414-29.455,81.107-78.635
		C329.563,178.737,302.377,200.907,276,231z"/>
	<path style="fill:#FFFFFF;" d="M352.706,157.817c33.727-30.488,58.852-58.324,60.323-104.143c-0.346-2.441-2.378-4.273-4.929-4.273
		H333C351.929,98.134,356.65,132.606,352.706,157.817z"/>
</g>
<path style="fill:#FFFFFF;" d="M124,49.4C408,191,45,217,256,358.3c0,0-167.362-86.788-96-139.3c106-78,159-65.3,95.95-169.6H124z"
	/>
<g>
	<g>
		<polygon style="fill:#D6D6D6;" points="256,358.3 276,323.7 256,335.1 		"/>
		<path style="fill:#C4834D;" d="M256,153.7v170v11.4l20-11.4v-165c0-2.8-2.2-5-5-5L256,153.7L256,153.7z"/>
		<polygon style="fill:#FFFFFF;" points="236,323.7 256,358.3 256,335.1 		"/>
	</g>
	<g>
		<polygon style="fill:#FFE000;" points="236,323.7 256,335.1 256,168.6 236,168.6 		"/>
		<path style="fill:#ADADAD;" d="M271,153.7h-15v14.9h20v-9.9C276,155.9,273.8,153.7,271,153.7z"/>
		<path style="fill:#FFFFFF;" d="M236,158.7v9.9h20v-14.9h-15C238.2,153.7,236,155.9,236,158.7z"/>
	</g>
</g>
<ellipse style="fill:#FFFFFF;" cx="291" cy="361.65" rx="15" ry="3.35"/>
<ellipse style="fill:#FFFFFF;" cx="228" cy="368.5" rx="8" ry="3.5"/>
<ellipse style="fill:#FFFFFF;" cx="266" cy="375.5" rx="10" ry="3.5"/>
</svg>
