<?xml version="1.0" encoding="utf-8"?>
<!-- Generator: Adobe Illustrator 18.0.0, SVG Export Plug-In . SVG Version: 6.00 Build 0)  -->
<!DOCTYPE svg PUBLIC "-//W3C//DTD SVG 1.1//EN" "http://www.w3.org/Graphics/SVG/1.1/DTD/svg11.dtd">
<svg version="1.1" id="Layer_1" xmlns="http://www.w3.org/2000/svg" xmlns:xlink="http://www.w3.org/1999/xlink" x="0px" y="0px"
	 viewBox="0 0 512 512" style="enable-background:new 0 0 512 512;" xml:space="preserve">
<linearGradient id="SVGID_1_" gradientUnits="userSpaceOnUse" x1="256" y1="486" x2="256" y2="26">
	<stop  offset="0" style="stop-color:#54C2EF"/>
	<stop  offset="1" style="stop-color:#0094D5"/>
</linearGradient>
<circle style="fill:url(#SVGID_1_);" cx="256" cy="256" r="230"/>
<g id="g228">
	<g id="g234" transform="translate(256,272.6665)">
		<path id="path236" style="fill:#FFFFFF;" d="M0-37.5c-24.6,0-44.6,20-44.6,44.6c0,24.6,20,44.6,44.6,44.6s44.6-20,44.6-44.6
			C44.6-17.5,24.6-37.5,0-37.5"/>
	</g>
	<g id="g238" transform="translate(302,285.3334)">
		<path id="path240" style="fill:#FFFFFF;" d="M11.5-66C4.8-66-0.6-71.4-0.6-78.1c0-6.7,5.4-12.1,12.1-12.1s12.1,5.4,12.1,12.1
			C23.6-71.4,18.2-66,11.5-66 M-46,59c-35.6,0-64.6-29-64.6-64.6c0-35.6,29-64.6,64.6-64.6s64.6,29,64.6,64.6C18.6,30-10.4,59-46,59
			 M85.3-46.6c-4.7-2-9.6-3.4-14.6-4.3c-2.2-49.6-43.2-89.2-93.3-89.2c-34.7,0-65.7,18.8-81.8,48.2c-7.4-4.7-16.1-7.3-25.2-7.3
			c-26,0-47.2,21.2-47.2,47.2c0,0.3,0,0.5,0,0.8c-10.7,4.3-20.3,11.4-27.7,20.5C-214.5-18.4-220-3.1-220,12.7
			c0,37.9,30.8,68.8,68.8,68.8H66.1c1.8,0,3.5-0.4,5-1.1c19.1-3.5,36-15.3,45.8-32.2c7.2-10.5,11.1-22.7,11.1-35.5
			C128-14.3,110.9-38.1,85.3-46.6"/>
	</g>
</g>
</svg>
