<?xml version="1.0" encoding="utf-8"?>
<!-- Generator: Adobe Illustrator 18.0.0, SVG Export Plug-In . SVG Version: 6.00 Build 0)  -->
<!DOCTYPE svg PUBLIC "-//W3C//DTD SVG 1.1//EN" "http://www.w3.org/Graphics/SVG/1.1/DTD/svg11.dtd">
<svg version="1.1" id="Layer_1" xmlns="http://www.w3.org/2000/svg" xmlns:xlink="http://www.w3.org/1999/xlink" x="0px" y="0px"
	 viewBox="0 0 512 512" enable-background="new 0 0 512 512" xml:space="preserve">
<g>
	<circle fill="#FFFFFF" cx="256" cy="256" r="230"/>
	<path fill="#EFC419" d="M285.9,206.3l-116.6-128c27.1-13.2,56.2-20,86.7-20c37.8,0,74.4,10.7,106.1,30.9L311,249.6L285.9,206.3z"/>
	<path fill="#68C085" d="M314,257.1l52.6-165C421.2,129,453.7,190,453.7,256c0,2.8-0.1,5.7-0.2,8.5l-164.6,36L314,257.1z"/>
	<path fill="#E64C3D" d="M58.7,242.2c4.7-68.2,45-129.7,105.8-161.5L278,205.2h-50.1L58.7,242.2z"/>
	<path fill="#3A95D2" d="M256,453.7c-37.8,0-74.4-10.7-106.1-30.9L201,262.4l25,43.4l116.6,128C315.6,447,286.4,453.7,256,453.7z"/>
	<path fill="#9359A3" d="M145.4,419.9C90.8,383,58.3,322,58.3,256c0-2.8,0.1-5.7,0.2-8.5l164.6-36l-25,43.4L145.4,419.9z"/>
	<path fill="#20B798" d="M234,306.8h50.1l169.1-37c-4.7,68.2-45,129.7-105.8,161.5L234,306.8z"/>
	<path opacity="0.3" fill="#FFFFFF" d="M256,422.3c-91.7,0-166.3-74.6-166.3-166.3S164.3,89.7,256,89.7S422.3,164.3,422.3,256
		S347.7,422.3,256,422.3z"/>
	<path opacity="0.5" fill="#FFFFFF" d="M256,390.5c-74.2,0-134.5-60.3-134.5-134.5c0-74.2,60.3-134.5,134.5-134.5
		c74.2,0,134.5,60.3,134.5,134.5C390.5,330.2,330.2,390.5,256,390.5z"/>
	<path opacity="0.3" fill="#FFFFFF" d="M256,358.7c-56.6,0-102.7-46.1-102.7-102.7c0-56.6,46.1-102.7,102.7-102.7
		c56.6,0,102.7,46.1,102.7,102.7C358.7,312.6,312.6,358.7,256,358.7z"/>
</g>
</svg>
