<?xml version="1.0" encoding="utf-8"?>
<!-- Generator: Adobe Illustrator 18.0.0, SVG Export Plug-In . SVG Version: 6.00 Build 0)  -->
<!DOCTYPE svg PUBLIC "-//W3C//DTD SVG 1.1//EN" "http://www.w3.org/Graphics/SVG/1.1/DTD/svg11.dtd">
<svg version="1.1" id="Layer_1" xmlns="http://www.w3.org/2000/svg" xmlns:xlink="http://www.w3.org/1999/xlink" x="0px" y="0px"
	 viewBox="0 0 512 512" style="enable-background:new 0 0 512 512;" xml:space="preserve">
<g id="Layer_2">
	
		<radialGradient id="SVGID_1_" cx="256.0002" cy="256" r="229.9996" gradientTransform="matrix(1 0 0 -1 0 512)" gradientUnits="userSpaceOnUse">
		<stop  offset="0" style="stop-color:#679A3D"/>
		<stop  offset="1" style="stop-color:#0A6B37"/>
	</radialGradient>
	<path style="display:none;fill:url(#SVGID_1_);" d="M433.279,433.279c-70.294,70.294-284.264,70.294-354.558,0
		s-70.294-284.264,0-354.558s284.264-70.294,354.558,0S503.574,362.985,433.279,433.279z"/>
	<circle style="display:none;fill:#FFFFFF;" cx="256" cy="256" r="230"/>
	<circle style="display:none;fill:#FFFFFF;" cx="256" cy="256" r="230"/>
	<g>
		<g>
			<path style="fill:#1B957E;" d="M27.075,233.753l130.04-34.844L122.269,68.862C69.657,106.526,33.596,165.823,27.075,233.753z"/>
			<path style="fill:#34B990;" d="M198.908,354.885l-41.794-155.977L27.075,233.753c-0.655,6.823-1.01,13.732-1.055,20.716
				c-0.004,1.146,0,2.293,0.005,3.439c0.4,49.148,16.205,94.621,42.838,131.823L198.908,354.885z"/>
			<path style="fill:#472A49;" d="M233.753,484.925l-34.844-130.04L68.862,389.731C106.526,442.343,165.823,478.404,233.753,484.925
				z"/>
		</g>
		<g>
			<path style="fill:#70CBDB;" d="M254.092,26.024c-49.148,0.4-94.621,16.205-131.823,42.838l34.846,130.047l155.977-41.794
				l-34.845-130.04c-6.823-0.655-13.732-1.01-20.716-1.055C256.385,26.015,255.239,26.019,254.092,26.024z"/>
			
				<rect x="175.251" y="175.261" transform="matrix(-0.9659 0.2588 -0.2588 -0.9659 569.5082 437.0222)" style="fill:#2E333A;" width="161.474" height="161.474"/>
			<path style="fill:#DF1767;" d="M389.731,443.138l-34.846-130.047l-155.977,41.794l34.844,130.04
				c6.823,0.655,13.734,1.01,20.718,1.055c1.146,0.004,2.292,0,3.439-0.005C307.056,485.576,352.529,469.771,389.731,443.138z"/>
		</g>
		<g>
			<path style="fill:#67873A;" d="M278.248,27.075l34.844,130.04l130.046-34.846C405.474,69.657,346.178,33.596,278.248,27.075z"/>
			<path style="fill:#E9A724;" d="M485.981,257.53c0.004-1.145,0-2.29-0.005-3.435c-0.399-49.149-16.205-94.623-42.838-131.826
				l-130.047,34.846l41.794,155.977l130.04-34.844C485.58,271.425,485.935,264.515,485.981,257.53z"/>
			<path style="fill:#CE202A;" d="M484.925,278.247l-130.04,34.844l34.846,130.047C442.343,405.474,478.404,346.177,484.925,278.247
				z"/>
		</g>
	</g>
</g>
<path style="fill:#FAFCFF;" d="M378.188,249.834L346.7,260.379l-20.934-62.498l31.486-10.545
	c13.193-4.42,20.305-18.694,15.887-31.886c-4.416-13.191-18.686-20.303-31.883-15.887l-31.488,10.546l-10.911-32.58
	c-4.416-13.193-18.694-20.305-31.883-15.887c-13.193,4.418-20.305,18.694-15.887,31.886l10.911,32.58l-64.93,21.745l-10.913-32.58
	c-4.416-13.191-18.688-20.301-31.883-15.887c-13.193,4.42-20.307,18.694-15.887,31.886l10.911,32.58l-31.483,10.544
	c-13.193,4.42-20.305,18.694-15.887,31.886c3.457,10.323,12.95,16.923,23.235,17.189c2.859,0.074,5.78-0.34,8.65-1.302
	l31.486-10.545l20.932,62.496l-31.486,10.546c-13.193,4.42-20.305,18.695-15.887,31.886c3.457,10.323,12.95,16.923,23.235,17.189
	c2.859,0.074,5.782-0.34,8.65-1.302l31.49-10.545l10.913,32.58c3.457,10.323,12.95,16.923,23.235,17.189
	c2.859,0.074,5.782-0.34,8.65-1.302c13.193-4.42,20.305-18.695,15.887-31.886l-10.913-32.58l64.928-21.745l10.911,32.58
	c3.457,10.323,12.946,16.923,23.235,17.189c2.857,0.074,5.778-0.34,8.648-1.302c13.193-4.418,20.305-18.694,15.887-31.886
	l-10.911-32.578l31.484-10.544c13.193-4.418,20.307-18.694,15.885-31.887C405.654,252.53,391.382,245.421,378.188,249.834z"/>
</svg>
