<?xml version="1.0" encoding="utf-8"?>
<!-- Generator: Adobe Illustrator 18.0.0, SVG Export Plug-In . SVG Version: 6.00 Build 0)  -->
<!DOCTYPE svg PUBLIC "-//W3C//DTD SVG 1.1//EN" "http://www.w3.org/Graphics/SVG/1.1/DTD/svg11.dtd">
<svg version="1.1" id="Layer_1" xmlns="http://www.w3.org/2000/svg" xmlns:xlink="http://www.w3.org/1999/xlink" x="0px" y="0px"
	 viewBox="0 0 512 512" style="enable-background:new 0 0 512 512;" xml:space="preserve">
<linearGradient id="SVGID_1_" gradientUnits="userSpaceOnUse" x1="93.3654" y1="418.6346" x2="418.6346" y2="93.3654">
	<stop  offset="0" style="stop-color:#0036E9"/>
	<stop  offset="1" style="stop-color:#15B3FF"/>
</linearGradient>
<circle style="fill:url(#SVGID_1_);" cx="256" cy="256" r="230"/>
<linearGradient id="SVGID_2_" gradientUnits="userSpaceOnUse" x1="397.4214" y1="397.4214" x2="114.5786" y2="114.5786" gradientTransform="matrix(1 0 0 -1 0 512)">
	<stop  offset="0" style="stop-color:#000000"/>
	<stop  offset="1" style="stop-color:#160055"/>
</linearGradient>
<circle style="fill:url(#SVGID_2_);" cx="256" cy="256" r="200"/>
<circle style="fill:#FFFFFF;" cx="256" cy="256" r="118"/>
<linearGradient id="SVGID_3_" gradientUnits="userSpaceOnUse" x1="143.57" y1="368.43" x2="368.43" y2="143.57">
	<stop  offset="0" style="stop-color:#0036E9"/>
	<stop  offset="1" style="stop-color:#15B3FF"/>
</linearGradient>
<path style="fill:url(#SVGID_3_);" d="M256,97c-87.8,0-159,71.2-159,159s71.2,159,159,159s159-71.2,159-159S343.8,97,256,97z
	 M336.9,260.3L204.1,337c-0.8,0.5-1.6,0.7-2.5,0.7c-0.9,0-1.7-0.3-2.5-0.7c-1.5-0.9-2.5-2.5-2.5-4.3V179.3c0-1.8,1-3.4,2.5-4.3
	c1.5-0.9,3.5-0.9,5,0l132.8,76.7c1.6,0.9,2.5,2.5,2.5,4.3S338.4,259.4,336.9,260.3z"/>
</svg>
