<?xml version="1.0" encoding="utf-8"?>
<!-- Generator: Adobe Illustrator 18.0.0, SVG Export Plug-In . SVG Version: 6.00 Build 0)  -->
<!DOCTYPE svg PUBLIC "-//W3C//DTD SVG 1.1//EN" "http://www.w3.org/Graphics/SVG/1.1/DTD/svg11.dtd">
<svg version="1.1" id="Layer_3" xmlns="http://www.w3.org/2000/svg" xmlns:xlink="http://www.w3.org/1999/xlink" x="0px" y="0px"
	 viewBox="0 0 512 512" style="enable-background:new 0 0 512 512;" xml:space="preserve">
<g>
	<path id="Gears" style="fill:#FFFFFF;" d="M457.212,180.718c0,18.428-14.957,33.384-33.384,33.384s-33.384-14.957-33.384-33.384
		s14.957-33.384,33.384-33.384S457.212,162.291,457.212,180.718z M423.661,118.572c-34.228,0-62.028,27.604-62.339,61.761
		l-38.841,55.662c-1.583-0.164-3.191-0.256-4.816-0.256c-8.678,0-16.788,2.386-23.754,6.548L118,171.539
		c-4.598-20.871-23.249-36.595-45.454-36.595c-25.638,0-46.546,20.972-46.546,46.61s20.908,46.546,46.546,46.546
		c8.678,0,16.788-2.386,23.754-6.548l175.911,70.621c4.551,20.92,23.203,36.658,45.454,36.658c24.101,0,43.985-18.475,46.288-41.988
		l59.708-43.657c34.415,0,62.339-27.871,62.339-62.275C486,146.487,458.077,118.572,423.661,118.572z M423.661,139.117
		c23.058,0,41.795,18.736,41.795,41.795s-18.736,41.73-41.795,41.73s-41.795-18.672-41.795-41.73
		C381.866,157.853,400.603,139.117,423.661,139.117z M72.546,147.27c13.142,0,24.502,7.343,30.239,18.168l-17.013-6.806v0.064
		c-13.707-4.922-28.934,1.777-34.412,15.408c-5.478,13.631,0.823,29.06,14.124,34.989v0.064l14.446,5.778
		c-2.375,0.517-4.848,0.835-7.383,0.835c-18.968,0-34.219-15.251-34.219-34.219C38.327,162.585,53.578,147.27,72.546,147.27z
		 M317.665,248.065c18.97,0,34.219,15.25,34.219,34.219c0,18.97-15.25,34.219-34.219,34.219c-13.194,0-24.588-7.357-30.302-18.234
		c5.627,2.27,11.265,4.518,16.885,6.806c13.948,5.605,29.833-1.136,35.44-15.087c5.607-13.948-1.202-29.771-15.152-35.374
		l-14.253-5.715C312.657,248.382,315.13,248.065,317.665,248.065z"/>
	<g>
		<path style="fill:#FFFFFF;enable-background:new    ;" d="M285.951,361.259H91.827c-7.654,0-13.755,6.212-13.755,13.755
			c0,7.654,6.212,13.755,13.755,13.755H285.84c7.654,0,13.755-6.212,13.755-13.755C299.706,367.36,293.494,361.259,285.951,361.259z
			"/>
		<path style="fill:#FFFFFF;" d="M420.284,361.259c7.654,0,13.755,6.212,13.755,13.755c0,7.654-6.212,13.755-13.755,13.755
			c-0.222,0-0.444,0-0.555,0l0,0H91.826c-7.654,0-13.755-6.212-13.755-13.755c0-7.654,6.212-13.755,13.755-13.755h327.792l0,0
			C419.841,361.259,420.063,361.259,420.284,361.259 M420.284,356.6c-0.111,0-0.222,0-0.333,0s-0.222,0-0.222,0H91.826
			c-10.205,0-18.414,8.209-18.414,18.414c0,10.205,8.209,18.414,18.414,18.414h327.792c0.111,0,0.222,0,0.222,0
			c0.111,0,0.222,0,0.333,0c10.205,0,18.414-8.209,18.414-18.414C438.588,364.809,430.49,356.6,420.284,356.6L420.284,356.6z"/>
	</g>
</g>
</svg>
