<?xml version="1.0" encoding="utf-8"?>
<!-- Generator: Adobe Illustrator 18.0.0, SVG Export Plug-In . SVG Version: 6.00 Build 0)  -->
<!DOCTYPE svg PUBLIC "-//W3C//DTD SVG 1.1//EN" "http://www.w3.org/Graphics/SVG/1.1/DTD/svg11.dtd">
<svg version="1.1" id="Layer_1" xmlns="http://www.w3.org/2000/svg" xmlns:xlink="http://www.w3.org/1999/xlink" x="0px" y="0px"
	 viewBox="0 0 512 512" enable-background="new 0 0 512 512" xml:space="preserve">
<g>
	<g>
		
			<linearGradient id="SVGID_1_" gradientUnits="userSpaceOnUse" x1="37.5884" y1="403.7491" x2="510.2868" y2="83.9823" gradientTransform="matrix(1 0 0 -1 0 512)">
			<stop  offset="0" style="stop-color:#121212"/>
			<stop  offset="1" style="stop-color:#000000"/>
		</linearGradient>
		<path fill="url(#SVGID_1_)" d="M36,26h440c5.5,0,10,4.5,10,10v440c0,5.5-4.5,10-10,10H36c-5.5,0-10-4.5-10-10V36
			C26,30.5,30.5,26,36,26z"/>
		<g>
			<path fill="#1E1E1E" d="M36,26h440c5.5,0,10,4.5,10,10v88.2H26V36C26,30.5,30.5,26,36,26z"/>
		</g>
		<g>
			<g>
				<g>
					<polygon fill="#FFFFFF" points="171.1,121.8 123.5,121.8 168.3,74.6 215.9,74.6 					"/>
				</g>
				<g>
					<polygon points="218.7,121.8 171.1,121.8 215.9,74.6 263.5,74.6 					"/>
				</g>
				<g>
					<polygon fill="#FFFFFF" points="266.3,121.8 218.7,121.8 263.5,74.6 311.1,74.6 					"/>
				</g>
				<g>
					<polygon points="314,121.8 266.3,121.8 311.1,74.6 358.8,74.6 					"/>
				</g>
				<g>
					<polygon fill="#FFFFFF" points="361.6,121.8 314,121.8 358.7,74.6 406.4,74.6 					"/>
				</g>
				<g>
					<polygon points="409.2,121.8 361.6,121.8 406.4,74.6 454,74.6 					"/>
				</g>
				<g>
					<polygon fill="#FFFFFF" points="486,74.6 454,74.6 409.2,121.8 456.8,121.8 486,91.1 					"/>
				</g>
			</g>
			<g>
				<g>
					<polygon fill="#FFFFFF" points="171.1,26 123.5,26 168.3,73.2 215.9,73.2 					"/>
				</g>
				<g>
					<polygon points="218.7,26 171.1,26 215.9,73.2 263.5,73.2 					"/>
				</g>
				<g>
					<polygon fill="#FFFFFF" points="266.3,26 218.7,26 263.5,73.2 311.1,73.2 					"/>
				</g>
				<g>
					<polygon points="314,26 266.3,26 311.1,73.2 358.8,73.2 					"/>
				</g>
				<g>
					<polygon fill="#FFFFFF" points="361.6,26 314,26 358.7,73.2 406.4,73.2 					"/>
				</g>
				<g>
					<polygon points="409.2,26 361.6,26 406.4,73.2 454,73.2 					"/>
				</g>
				<g>
					<polygon fill="#FFFFFF" points="486,73.2 486,56.7 456.8,26 409.2,26 454,73.2 					"/>
				</g>
			</g>
		</g>
		<g>
			<g>
				<path d="M111.1,121.8H26V36c0-5.5,4.5-10,10-10h8.6l66.5,78.9V121.8z"/>
			</g>
			<g>
				<circle fill="#636364" cx="37.8" cy="35.5" r="5.8"/>
			</g>
			<g>
				<circle fill="#636364" cx="38.2" cy="110.7" r="5.8"/>
			</g>
			<g>
				<circle fill="#636364" cx="91.6" cy="110.7" r="5.8"/>
			</g>
		</g>
	</g>
</g>
<g>
	<g>
		<path fill="#FFFFFF" d="M95.5,395.2c0-4.2,2.9-7.2,6.9-7.2c4,0,6.7,3,6.7,7.2c0,4.1-2.6,7.2-6.9,7.2
			C98.3,402.4,95.5,399.3,95.5,395.2z"/>
		<path fill="#FFFFFF" d="M119.2,395.2c0-4.2,2.9-7.2,6.9-7.2c4,0,6.7,3,6.7,7.2c0,4.1-2.6,7.2-6.9,7.2
			C121.9,402.4,119.2,399.3,119.2,395.2z"/>
		<path fill="#FFFFFF" d="M142.8,395.2c0-4.2,2.9-7.2,6.9-7.2s6.7,3,6.7,7.2c0,4.1-2.6,7.2-6.9,7.2
			C145.5,402.4,142.8,399.3,142.8,395.2z"/>
		<path fill="#FFFFFF" d="M166.4,395.2c0-4.2,2.9-7.2,6.9-7.2s6.7,3,6.7,7.2c0,4.1-2.6,7.2-6.9,7.2
			C169.2,402.4,166.4,399.3,166.4,395.2z"/>
		<path fill="#FFFFFF" d="M190.1,395.2c0-4.2,2.9-7.2,6.9-7.2s6.7,3,6.7,7.2c0,4.1-2.6,7.2-6.9,7.2
			C192.8,402.4,190.1,399.3,190.1,395.2z"/>
		<path fill="#FFFFFF" d="M213.7,395.2c0-4.2,2.9-7.2,6.9-7.2c4,0,6.7,3,6.7,7.2c0,4.1-2.6,7.2-6.9,7.2
			C216.5,402.4,213.7,399.3,213.7,395.2z"/>
		<path fill="#FFFFFF" d="M237.4,395.2c0-4.2,2.9-7.2,6.9-7.2c4,0,6.7,3,6.7,7.2c0,4.1-2.6,7.2-6.9,7.2
			C240.1,402.4,237.4,399.3,237.4,395.2z"/>
		<path fill="#FFFFFF" d="M261,395.2c0-4.2,2.9-7.2,6.9-7.2c4,0,6.7,3,6.7,7.2c0,4.1-2.6,7.2-6.9,7.2
			C263.8,402.4,261,399.3,261,395.2z"/>
		<path fill="#FFFFFF" d="M284.7,395.2c0-4.2,2.9-7.2,6.9-7.2c4,0,6.7,3,6.7,7.2c0,4.1-2.6,7.2-6.9,7.2
			C287.4,402.4,284.7,399.3,284.7,395.2z"/>
		<path fill="#FFFFFF" d="M308.3,395.2c0-4.2,2.9-7.2,6.9-7.2c4,0,6.7,3,6.7,7.2c0,4.1-2.6,7.2-6.9,7.2
			C311.1,402.4,308.3,399.3,308.3,395.2z"/>
		<path fill="#FFFFFF" d="M332,395.2c0-4.2,2.9-7.2,6.9-7.2c4,0,6.7,3,6.7,7.2c0,4.1-2.6,7.2-6.9,7.2
			C334.7,402.4,332,399.3,332,395.2z"/>
		<path fill="#FFFFFF" d="M355.6,395.2c0-4.2,2.9-7.2,6.9-7.2c4,0,6.7,3,6.7,7.2c0,4.1-2.6,7.2-6.9,7.2
			C358.3,402.4,355.6,399.3,355.6,395.2z"/>
		<path fill="#FFFFFF" d="M379.2,395.2c0-4.2,2.9-7.2,6.9-7.2c4,0,6.7,3,6.7,7.2c0,4.1-2.6,7.2-6.9,7.2
			C382,402.4,379.2,399.3,379.2,395.2z"/>
		<path fill="#FFFFFF" d="M402.9,395.2c0-4.2,2.9-7.2,6.9-7.2c4,0,6.7,3,6.7,7.2c0,4.1-2.6,7.2-6.9,7.2
			C405.6,402.4,402.9,399.3,402.9,395.2z"/>
	</g>
	<g id="Layer_2_2_">
		<g>
			<polygon fill="#BCBCBB" points="210.5,337.1 210.6,337.1 343.4,204.3 328.1,189 168.7,348.3 			"/>
			<polygon fill="#FFFFFF" points="179.9,306.5 179.9,306.5 168.6,348.3 168.7,348.3 328.1,189 312.7,173.6 			"/>
		</g>
	</g>
</g>
</svg>
