<?xml version="1.0" encoding="utf-8"?>
<!-- Generator: Adobe Illustrator 18.0.0, SVG Export Plug-In . SVG Version: 6.00 Build 0)  -->
<!DOCTYPE svg PUBLIC "-//W3C//DTD SVG 1.1//EN" "http://www.w3.org/Graphics/SVG/1.1/DTD/svg11.dtd">
<svg version="1.1" id="Layer_1" xmlns="http://www.w3.org/2000/svg" xmlns:xlink="http://www.w3.org/1999/xlink" x="0px" y="0px"
	 viewBox="0 0 512 512" style="enable-background:new 0 0 512 512;" xml:space="preserve">
<path style="fill:#EDEDED;" d="M479.1,237.1h-44.3c-2.1-18.4-6.9-36.2-14.1-52.6l37.9-21.9c3.3-1.9,4.4-6.1,2.5-9.4l-13-22.6
	c-1.9-3.3-6.1-4.4-9.4-2.5l-38,21.9c-10.5-14.3-23.3-27.1-37.6-37.6l22.6-39.1c1.9-3.3,0.8-7.5-2.5-9.4l-22.6-13
	c-3.3-1.9-7.5-0.8-9.4,2.5l-22.5,39C312,85,293.9,80,274.9,78V32.9c0-3.9-3.1-6.9-6.9-6.9h-26.2c-3.9,0-6.9,3.1-6.9,6.9v45.4
	c-18.4,2.1-36.1,7.1-52.4,14.4l-22.8-39.3c-1.9-3.3-6.1-4.4-9.4-2.5l-22.6,13c-3.3,1.9-4.4,6.1-2.5,9.4l22.9,39.7
	c-14.1,10.5-26.6,23.3-37.2,37.5l-38.7-22.3c-3.3-1.9-7.5-0.8-9.4,2.5l-13,22.6c-1.9,3.3-0.8,7.5,2.5,9.4l38.7,22.3
	c-7.1,16.2-11.9,33.7-13.9,52H32.7c-3.9,0-6.9,3.1-6.9,6.9v26.2c0,3.9,3.1,6.9,6.9,6.9H77c2.1,18.3,6.8,35.7,13.9,51.9L52,351.3
	c-3.3,1.9-4.4,6.1-2.5,9.4l13,22.6c1.9,3.3,6.1,4.4,9.4,2.5l38.6-22.3c10.8,14.8,24,27.9,38.8,38.8l-21.6,37.5
	c-1.9,3.3-0.8,7.5,2.5,9.4l22.6,13c3.3,1.9,7.5,0.8,9.4-2.5l21.6-37.6c15.8,6.9,32.9,11.5,50.8,13.6v43.3c0,3.9,3.1,6.9,6.9,6.9
	h26.2c3.9,0,6.9-3.1,6.9-6.9v-43.1c18.3-1.9,35.7-6.5,51.9-13.5l21.5,37.2c1.9,3.3,6.1,4.4,9.4,2.5l22.6-13c3.3-1.9,4.4-6.1,2.5-9.4
	l-21.4-37c15-10.8,28.2-24,39.3-38.8l37.9,21.9c3.3,1.9,7.5,0.8,9.4-2.5l13-22.6c1.9-3.3,0.8-7.5-2.5-9.4L421,329.5
	c7.2-16.4,11.9-33.8,14-52.3h44.3c3.9,0,6.9-3.1,6.9-6.9v-26.2C486.1,240.2,483,237.1,479.1,237.1z M394.7,277.2
	c-1.5,11.1-4.4,21.9-8.6,32.2c-5,12.3-11.7,24-20.1,34.7c-3.3,4.3-7.1,8.3-11,12.3c-4.3,4.3-8.7,8.2-13.5,11.9
	c-10.7,8.3-22.5,14.8-34.8,19.7c-10.1,3.9-20.8,6.7-31.8,8.2c-6.2,0.8-12.6,1.2-19,1.2c-7.1,0-14.1-0.6-21.1-1.5
	c-10.5-1.5-20.8-4.3-30.5-8.2c-12.3-4.9-24.1-11.7-34.7-20c-4.4-3.5-8.7-7.2-12.8-11.4c-4-4-7.8-8.3-11.2-12.6
	c-8.3-10.7-15.1-22.3-20-34.7c-4-10.1-6.8-20.8-8.5-31.6c-1-6.5-1.4-13.3-1.4-20c0-6.8,0.4-13.5,1.4-20c1.5-11,4.4-21.6,8.5-31.9
	c5-12.3,11.7-24,20-34.7c3.5-4.3,7.1-8.5,11.1-12.5c3.6-3.6,7.4-6.9,11.4-10.1c10.5-8.5,22.1-15.4,34.4-20.4
	c10.3-4.3,21.1-7.2,32.3-8.9c6.9-1,13.9-1.5,21.1-1.5c6.4,0,12.8,0.4,19,1.2c11.5,1.5,22.8,4.6,33.4,8.9c12.3,5,24,11.8,34.5,20.3
	c4.2,3.3,8.2,6.9,12.1,10.7c3.9,3.9,7.5,7.9,10.8,12.1c8.5,10.5,15.1,22.2,20.1,34.5c4.2,10.4,7.1,21.2,8.7,32.3
	c1,6.5,1.4,13.3,1.4,20C396,263.9,395.6,270.6,394.7,277.2z"/>
<path style="fill:#515151;" d="M255.9,117c-77.4,0-140.1,62.7-140.1,140.1s62.7,140.1,140.1,140.1S396,334.5,396,257.1
	S333.3,117,255.9,117z M256,305.5c-27.3,0-49.5-22.2-49.5-49.5c0-27.3,22.2-49.5,49.5-49.5s49.5,22.2,49.5,49.5
	C305.5,283.3,283.3,305.5,256,305.5z"/>
<g>
	<path style="fill:#EDEDED;" d="M347.8,165.3l-57.4-15.4l15.4,57.4l14.9-14.9c34.8,35.5,34.7,92.4-0.6,127.7
		c-25.9,25.9-63.7,32.9-95.9,20.8l5.4,20c35.7,8.9,75-0.5,102.9-28.4c42.1-42.1,42.2-110.1,0.6-152.4L347.8,165.3L347.8,165.3
		L347.8,165.3z"/>
	<path style="fill:#EDEDED;" d="M192.5,320.7c-0.2-0.2-0.4-0.4-0.6-0.6c-35.4-35.4-35.4-92.8,0-128.3c26.7-26.7,65.8-33.3,98.6-19.8
		l-5.7-20.4c-36.3-10-76.8-0.7-105.3,27.8c-42.3,42.3-42.3,110.8,0,153c0.2,0.2,0.4,0.4,0.6,0.6l-14.8,14.8l57.4,15.4l-15.4-57.4
		L192.5,320.7L192.5,320.7z"/>
</g>
</svg>
