<?xml version="1.0" encoding="utf-8"?>
<!-- Generator: Adobe Illustrator 18.0.0, SVG Export Plug-In . SVG Version: 6.00 Build 0)  -->
<!DOCTYPE svg PUBLIC "-//W3C//DTD SVG 1.1//EN" "http://www.w3.org/Graphics/SVG/1.1/DTD/svg11.dtd">
<svg version="1.1" id="Layer_1" xmlns="http://www.w3.org/2000/svg" xmlns:xlink="http://www.w3.org/1999/xlink" x="0px" y="0px"
	 viewBox="0 0 512 512" style="enable-background:new 0 0 512 512;" xml:space="preserve">
<path style="fill:#2D0E3D;" d="M295.234,299.333c0.554-29.897,56.19-30.476,63.81-130.476c0.937-12.297,0.819-26.026-1.045-39.833
	C356.057,71.803,308.676,26,250.472,26c-50.823,0-93.389,34.929-104.667,81.881c-7.413,23.091-8.056,47.606-5.809,65.738
	c13.333,107.619,65.714,86.667,64.161,132.741c-1.564,46.391-155.949,36.365-147.018,132.973C59.694,466.973,158.07,486,241.901,486
	c88.571,0,213.333-5.714,213.333-37.143C455.234,339.329,294.282,350.762,295.234,299.333z"/>
</svg>
