<?xml version="1.0" encoding="utf-8"?>
<!-- Generator: Adobe Illustrator 18.0.0, SVG Export Plug-In . SVG Version: 6.00 Build 0)  -->
<!DOCTYPE svg PUBLIC "-//W3C//DTD SVG 1.1//EN" "http://www.w3.org/Graphics/SVG/1.1/DTD/svg11.dtd">
<svg version="1.1" id="Layer_2" xmlns="http://www.w3.org/2000/svg" xmlns:xlink="http://www.w3.org/1999/xlink" x="0px" y="0px"
	 viewBox="0 0 512 512" style="enable-background:new 0 0 512 512;" xml:space="preserve">
<linearGradient id="SVGID_1_" gradientUnits="userSpaceOnUse" x1="256" y1="486" x2="256" y2="26">
	<stop  offset="0" style="stop-color:#002B3F"/>
	<stop  offset="1" style="stop-color:#DBDBDB"/>
</linearGradient>
<path style="fill:url(#SVGID_1_);" d="M446,486H66c-22.091,0-40-17.909-40-40V66c0-22.091,17.909-40,40-40h380
	c22.091,0,40,17.909,40,40v380C486,468.091,468.091,486,446,486z"/>
<linearGradient id="SVGID_2_" gradientUnits="userSpaceOnUse" x1="256" y1="456" x2="256" y2="56">
	<stop  offset="0" style="stop-color:#DBDBDB"/>
	<stop  offset="1" style="stop-color:#002B3F"/>
</linearGradient>
<circle style="fill:url(#SVGID_2_);" cx="256" cy="256" r="200"/>
<linearGradient id="SVGID_3_" gradientUnits="userSpaceOnUse" x1="256" y1="416" x2="256" y2="96">
	<stop  offset="0" style="stop-color:#DBDBDB"/>
	<stop  offset="1" style="stop-color:#002B3F"/>
</linearGradient>
<circle style="fill:url(#SVGID_3_);" cx="256" cy="256" r="160"/>
<g>
	<g style="opacity:0.4;">
		<path d="M97.708,254.997l42.829,63.096l38.296-67.593l-28.827,0.594C154.34,191.761,201.5,146.5,256.025,146.833
			c44.971,0.275,83.656,24.633,101.183,63.037l12.677-21.958c-23.182-38.701-65.519-64.611-113.913-64.611
			c-72.951,0-132.144,58.87-132.685,131.694H97.706v0.001H97.708z"/>
		<path d="M413.503,255.397l-42.829-63.096l-38.296,67.593l28.827-0.594c-4.333,59.333-51.493,104.594-106.018,104.261
			c-44.971-0.275-83.656-24.633-101.183-63.037l-12.677,21.958c23.182,38.701,65.519,64.611,113.913,64.611
			c72.951,0,132.144-58.87,132.685-131.694h25.581v-0.001H413.503z"/>
	</g>
	<g id="Layer_3_3_">
		<g>
			<path style="fill:#FFFFFF;" d="M97.708,254.997l36.453,63.139l36.453-63.139h-25.853
				c0.539-60.966,50.121-110.224,111.213-110.224c44.972,0,83.707,26.693,101.234,65.097l12.677-21.958
				c-23.182-38.701-65.519-64.611-113.913-64.611c-72.951,0-132.144,58.87-132.685,131.694H97.706v0.001H97.708z"/>
			<path style="fill:#FFFFFF;" d="M367.186,254.997c0.003,0.335,0.012,0.668,0.012,1.003c0,61.429-49.798,111.227-111.227,111.227
				c-46.254,0-85.911-28.237-102.682-68.412l-12.753,22.669c22.819,40.139,65.962,67.215,115.435,67.215
				c73.287,0,132.697-59.411,132.697-132.697c0-0.336-0.017-0.668-0.019-1.003h25.645l-36.453-63.139l-36.453,63.139
				L367.186,254.997L367.186,254.997z"/>
		</g>
	</g>
	<g id="Layer_2_2_">
		<path style="opacity:0.4;" d="M311.165,262.974l-92.835-53.598c-1.081-0.625-2.413-0.625-3.495,0
			c-1.081,0.624-1.747,1.778-1.747,3.026v107.196c0,1.248,0.666,2.402,1.747,3.026c0.54,0.312,1.144,0.468,1.747,0.468
			c0.603,0,1.207-0.157,1.747-0.468l92.835-53.598c1.081-0.625,1.747-1.778,1.747-3.026S312.246,263.598,311.165,262.974z"/>
		<path style="fill:#FFFFFF;" d="M311.165,257.974l-92.835-53.598c-1.081-0.625-2.413-0.625-3.495,0
			c-1.081,0.624-1.747,1.778-1.747,3.026v107.196c0,1.248,0.666,2.402,1.747,3.026c0.54,0.312,1.144,0.468,1.747,0.468
			c0.603,0,1.207-0.157,1.747-0.468l92.835-53.598c1.081-0.625,1.747-1.778,1.747-3.026S312.246,258.598,311.165,257.974z"/>
	</g>
</g>
</svg>
