<?xml version="1.0" encoding="utf-8"?>
<!-- Generator: Adobe Illustrator 18.0.0, SVG Export Plug-In . SVG Version: 6.00 Build 0)  -->
<!DOCTYPE svg PUBLIC "-//W3C//DTD SVG 1.1//EN" "http://www.w3.org/Graphics/SVG/1.1/DTD/svg11.dtd">
<svg version="1.1" id="Layer_2" xmlns="http://www.w3.org/2000/svg" xmlns:xlink="http://www.w3.org/1999/xlink" x="0px" y="0px"
	 viewBox="0 0 512 512" style="enable-background:new 0 0 512 512;" xml:space="preserve">
<g>
	<radialGradient id="SVGID_1_" cx="256" cy="256" r="230" gradientUnits="userSpaceOnUse">
		<stop  offset="0" style="stop-color:#5CCAFF"/>
		<stop  offset="1" style="stop-color:#0080D4"/>
	</radialGradient>
	<circle style="fill:url(#SVGID_1_);" cx="256" cy="256" r="230"/>
	<path style="opacity:0.4;" d="M256,486c125.521,0,227.544-100.553,229.943-225.5C483.544,135.553,381.521,35,256,35
		S28.456,135.553,26.057,260.5C28.456,385.447,130.479,486,256,486z M107.508,116.508c19.293-19.292,41.753-34.437,66.757-45.013
		C200.142,60.55,227.641,55,256,55c28.359,0,55.858,5.55,81.735,16.495c25.004,10.576,47.465,25.72,66.757,45.013
		c19.292,19.292,34.437,41.753,45.013,66.757C460.45,209.142,466,236.641,466,265c0,28.359-5.55,55.858-16.495,81.735
		c-10.576,25.004-25.72,47.465-45.013,66.757c-19.293,19.292-41.753,34.437-66.757,45.013C311.858,469.45,284.359,475,256,475
		c-28.359,0-55.858-5.55-81.735-16.495c-25.004-10.576-47.465-25.72-66.757-45.013C88.215,394.2,73.071,371.74,62.495,346.735
		C51.55,320.858,46,293.359,46,265c0-28.359,5.55-55.858,16.495-81.735C73.071,158.26,88.215,135.8,107.508,116.508z"/>
	<path style="fill:#F7F7F7;" d="M256,46c28.359,0,55.858,5.55,81.735,16.495c25.004,10.576,47.465,25.72,66.757,45.013
		c19.292,19.292,34.437,41.753,45.013,66.757C460.45,200.142,466,227.641,466,256s-5.55,55.858-16.495,81.735
		c-10.576,25.004-25.72,47.465-45.013,66.757c-19.293,19.292-41.753,34.437-66.757,45.013C311.858,460.45,284.359,466,256,466
		s-55.858-5.55-81.735-16.495c-25.004-10.576-47.465-25.72-66.757-45.013C88.215,385.2,73.071,362.74,62.495,337.735
		C51.55,311.858,46,284.359,46,256s5.55-55.858,16.495-81.735c10.576-25.004,25.72-47.465,45.013-66.757
		c19.293-19.292,41.753-34.437,66.757-45.013C200.142,51.55,227.641,46,256,46 M256,26C128.975,26,26,128.974,26,256
		s102.975,230,230,230s230-102.975,230-230S383.025,26,256,26L256,26z"/>
</g>
<g>
	<path style="opacity:0.4;" d="M348.217,276.997l57.281-13.381l-57.061-13.33c-5.505-41.081-37.724-73.822-78.57-80.068
		l-13.25-56.715l-13.191,56.464c-41.41,5.428-74.388,37.995-80.413,79.215l-56.511,13.202l56.405,13.177
		c5.643,41.15,38.103,73.861,79.141,79.862l13.333,57.076l13.317-57.005C309.521,349.775,341.997,317.66,348.217,276.997z
		 M255.655,348.107c-47.049,0-85.327-38.278-85.327-85.327s38.278-85.327,85.327-85.327s85.327,38.278,85.327,85.327
		S302.703,348.107,255.655,348.107z"/>
	<path style="fill:#FFFFFF;" d="M348.217,269.997l57.281-13.381l-57.061-13.33c-5.505-41.081-37.724-73.822-78.57-80.068
		l-13.25-56.715l-13.191,56.464c-41.41,5.428-74.388,37.995-80.413,79.215l-56.511,13.202l56.405,13.178
		c5.643,41.15,38.103,73.861,79.141,79.862l13.333,57.076l13.317-57.005C309.521,342.775,341.997,310.66,348.217,269.997z
		 M255.655,341.107c-47.049,0-85.327-38.278-85.327-85.327s38.278-85.327,85.327-85.327s85.327,38.278,85.327,85.327
		S302.703,341.107,255.655,341.107z"/>
	<path style="opacity:0.4;" d="M245.425,273.575l102.142,106.207l-76.896-123.323c-0.576-1.523-1.375-2.934-2.369-4.189l0.027-0.021
		l-0.193-0.2c-0.478-0.582-1.007-1.117-1.563-1.625L164.432,144.218l76.897,123.324c0.576,1.522,1.374,2.932,2.368,4.187
		l-0.027,0.021l0.193,0.201C244.341,272.532,244.87,273.067,245.425,273.575z"/>
	<g>
		<polygon style="fill:#E9E9E9;" points="347.568,373.782 268.262,246.596 243.67,265.75 		"/>
		<polygon style="fill:#EC1E26;" points="164.433,138.218 243.738,265.404 268.33,246.249 		"/>
		<circle style="fill:#EC1E26;" cx="256" cy="255.999" r="15.696"/>
	</g>
</g>
</svg>
