<?xml version="1.0" encoding="utf-8"?>
<!-- Generator: Adobe Illustrator 18.0.0, SVG Export Plug-In . SVG Version: 6.00 Build 0)  -->
<!DOCTYPE svg PUBLIC "-//W3C//DTD SVG 1.1//EN" "http://www.w3.org/Graphics/SVG/1.1/DTD/svg11.dtd">
<svg version="1.1" id="Layer_1" xmlns="http://www.w3.org/2000/svg" xmlns:xlink="http://www.w3.org/1999/xlink" x="0px" y="0px"
	 viewBox="0 0 512 512" style="enable-background:new 0 0 512 512;" xml:space="preserve">
<g>
	<g>
		<path style="fill:#DDD6B6;" d="M379.486,61.309c-2.145,3.553-4.397,7.042-6.621,10.546c-1.209,1.906-3.394,3.689-1.568,6.188
			c1.808,2.476,4.461,3.305,7.522,2.903c1.435-0.188,2.886-1.654,4.272-0.515c2.458,2.019,5.044,4.397,3.944,7.93
			c-1.298,4.173-3.267,8.133-8.516,8.605c-4.192,0.376-5.994-1.517-6.286-5.74c-0.153-2.203-1.315-4.485-4.151-4.958
			c-2.662-0.444-4.827,0.062-6.127,2.691c-0.522,1.057-1.151,2.062-2.552,2.079c-4.586,0.1-8.55-2.418-12.98-3.229
			c-2.864-0.524-4.049-0.229-5.458,1.852c-1.54,2.276-2.024,4.195,0.061,6.66c2.971,3.512,2.178,6.796-1.837,8.892
			c-4.057,2.118-7.94,0.667-11.345-1.513c-3.963-2.539-4.873-9.32,0.948-10.552c1.268-0.269,1.914-1.045,2.531-2.122
			c2.854-4.977,0.975-8.045-6.022-9.783c-12.362-3.073-24.787-5.931-37.027-9.429c-2.987-0.853-4.063-0.112-5.455,1.94
			c-1.464,2.159-1.774,4.129-0.084,6.367c3.497,4.632,2.049,8.444-3.581,9.611c-3.787,0.785-7.215-0.264-10.097-2.66
			c-3.469-2.883-2.981-9.201,0.835-9.946c4.069-0.793,4.141-3.507,4.334-6.477c0.203-3.119-1.868-3.622-4.371-4.411
			c-13.25-4.181-26.976-6.399-40.326-10.116c-2.227-0.62-3.985-1.021-5.192,1.071c-1.314,2.275-3.24,4.453-0.403,7.391
			c1.385,1.434,2.633,4.466,1.065,6.295c-1.59,1.854-4.005,3.587-6.857,3.348c-1.767-0.148-3.486-0.832-5.238-1.23
			c-3.69-0.837-4.923-4.004-5.324-6.935c-0.334-2.435,1.507-4.283,4.394-5.084c2.627-0.728,3.257-3.442,3.42-5.977
			c0.156-2.446-1.381-3.301-3.469-4.273c-4.052-1.886-8.736-1.53-12.579-3.911c-0.123-1.305,0.717-2.154,1.429-3.078
			c2.448-3.18,1.462-6.373-0.345-9.288c-1.677-2.705-4.432-1.58-6.779-1.09c-1.672,0.348-3.29,0.94-4.724-0.351
			c-1.008-0.908-2.005-1.078-3.019-0.953c1.315-0.42,2.636-0.827,3.961-1.225C95.08,59.243,26,147.13,26,251.166
			c0,127.026,102.974,230,230,230s230-102.974,230-230c0-79.185-40.024-149.011-100.938-190.383
			c-0.451-0.307-0.903-0.611-1.358-0.915C380.979,58.044,380.592,59.477,379.486,61.309z"/>
	</g>
	<path style="fill:#867459;" d="M340.965,89.665c-1.54,2.276-2.024,4.195,0.061,6.66c2.971,3.512,2.178,6.795-1.837,8.892
		c-4.057,2.118-7.94,0.669-11.345-1.513c-3.964-2.539-4.875-9.32,0.948-10.552c1.268-0.268,1.914-1.045,2.531-2.122
		c2.854-4.977,0.975-8.045-6.022-9.783c-12.362-3.072-24.786-5.929-37.027-9.429c-2.986-0.853-4.063-0.112-5.455,1.94
		c-1.464,2.159-1.774,4.129-0.084,6.367c3.497,4.632,2.049,8.444-3.581,9.611c-3.787,0.785-7.215-0.264-10.097-2.66
		c-3.469-2.883-2.981-9.203,0.835-9.946c4.069-0.793,4.14-3.507,4.334-6.477c0.203-3.119-1.868-3.622-4.371-4.411
		c-13.25-4.181-26.977-6.399-40.326-10.116c-2.228-0.62-3.986-1.021-5.192,1.071c-1.313,2.275-3.24,4.453-0.403,7.391
		c1.385,1.434,2.633,4.466,1.065,6.295c-1.59,1.854-4.007,3.587-6.857,3.348c-1.767-0.149-3.486-0.832-5.238-1.23
		c-3.69-0.837-4.923-4.004-5.324-6.935c-0.334-2.436,1.507-4.284,4.394-5.084c2.627-0.728,3.257-3.442,3.42-5.977
		c0.156-2.446-1.381-3.301-3.469-4.273c-4.052-1.886-8.736-1.532-12.579-3.911c-6.905,3.828-9.754,2.897-11.969-4.408
		c-0.831-2.742-2.844-3.732-4.973-4.283c-2.313-0.6-4.67,0.308-6.08,2.41c-3.317,4.945-6.512,9.975-9.717,14.995
		c-1.332,2.086-0.865,3.374,1.452,4.698c5.018,2.869,9.707,6.305,14.698,9.226c2.19,1.282,4.052,2.421,3.212,5.257
		c-0.823,2.777-1.914,5.449-5.56,5.373c-4.323-0.089-5.357,2.533-5.121,6.199c0.288,4.47,6.258,8.871,11.103,8.194
		c5.272-0.737,6.483-2.441,4.796-7.51c-0.906-2.721-0.309-4.602,1.744-6.441c2.239-2.006,4.098-1.899,6.617-0.222
		c11.268,7.498,22.639,14.846,34.081,22.077c2.086,1.319,4.207,2.302,3.421,5.163c-0.81,2.952-1.923,5.687-5.9,5.571
		c-3.609-0.106-4.804,2.146-4.878,5.497c-0.094,4.256,2.942,5.955,5.88,7.853c3.161,2.042,6.368,1.444,9.232-0.276
		c3.014-1.809,1.44-4.518,0.629-6.959c-0.837-2.522,0.185-4.25,2.192-5.866c1.976-1.591,3.642-1.857,5.814-0.436
		c4.703,3.074,9.445,6.102,14.308,8.911c2.667,1.54,2.419,2.929,0.869,5.17c-2.819,4.078-5.171,8.479-8.032,12.524
		c-1.996,2.822-1.151,5.307,0.178,7.798c1.433,2.683,3.757,2.701,6.452,1.935c2.167-0.616,4.78-1.349,6.434,0.831
		c1.967,2.595,3.07,5.596,0.996,8.776c-1.873,2.871-3.251,6.565-7.546,6.281c-3.814-0.252-5.862-2.682-6.3-6.461
		c-0.359-3.102-2.88-4.073-5.246-4.498c-2.291-0.411-4.564,0.49-5.977,2.689c-3.13,4.871-6.287,9.725-9.396,14.609
		c-1.249,1.962-1.287,3.337,1.213,4.745c5.033,2.836,9.709,6.301,14.696,9.227c2.154,1.264,4.181,2.326,3.387,5.18
		c-0.821,2.954-1.95,5.656-5.926,5.541c-3.603-0.104-4.785,2.182-4.844,5.528c-0.075,4.254,2.969,5.949,5.91,7.835
		c3.158,2.025,6.362,1.439,9.228-0.308c3.026-1.846,1.386-4.529,0.589-6.971c-0.823-2.519,0.221-4.244,2.232-5.857
		c1.992-1.598,3.646-1.798,5.816-0.397c5.136,3.317,10.504,6.286,15.529,9.759c2.308,1.595,3.424,1.215,4.756-0.915
		c2.9-4.635,6.13-9.078,8.801-13.838c1.664-2.963,3.783-4.339,6.967-3.669c3.081,0.648,4.001,3.231,4.223,5.987
		c0.177,2.196,0.868,4.117,3.1,4.531c3.807,0.706,7.433-0.196,9.522-3.652c1.789-2.959,2.915-6.131,0.858-9.826
		c-2.089-3.751-4.783-3.259-7.947-2.255c-3.092,0.98-4.893-1.158-6.655-3.045c-1.638-1.755-0.376-3.547,0.55-5.03
		c7.111-11.376,14.422-22.63,21.41-34.08c1.754-2.875,3.761-4.351,6.961-3.677c3.086,0.651,4.004,3.228,4.229,5.981
		c0.18,2.198,0.865,4.124,3.094,4.537c3.801,0.704,7.433-0.182,9.525-3.642c1.789-2.959,2.923-6.131,0.865-9.825
		c-2.084-3.743-4.771-3.281-7.942-2.264c-3.091,0.99-4.937-1.117-6.648-3.045c-1.737-1.957-0.205-3.783,0.821-5.426
		c2.988-4.775,6.527-9.264,9.019-14.278c2.922-5.879,7.457-10.876,9.304-17.309c-4.586,0.101-8.55-2.418-12.979-3.229
		C343.559,87.288,342.373,87.583,340.965,89.665z"/>
</g>
</svg>
