<?xml version="1.0" encoding="utf-8"?>
<!-- Generator: Adobe Illustrator 18.0.0, SVG Export Plug-In . SVG Version: 6.00 Build 0)  -->
<!DOCTYPE svg PUBLIC "-//W3C//DTD SVG 1.1//EN" "http://www.w3.org/Graphics/SVG/1.1/DTD/svg11.dtd">
<svg version="1.1" id="Layer_1" xmlns="http://www.w3.org/2000/svg" xmlns:xlink="http://www.w3.org/1999/xlink" x="0px" y="0px"
	 viewBox="0 0 512 512" style="enable-background:new 0 0 512 512;" xml:space="preserve">
<radialGradient id="SVGID_1_" cx="256" cy="256" r="230" gradientUnits="userSpaceOnUse">
	<stop  offset="0" style="stop-color:#00EBFF"/>
	<stop  offset="1" style="stop-color:#00B1F0"/>
</radialGradient>
<circle style="fill:url(#SVGID_1_);" cx="256" cy="256" r="230"/>
<g>
	<g>
		<path style="opacity:0.2;fill:#070707;" d="M256,238.5l-22.3,22.3c0,0,33,36.9,40.9,44.4c14.6,13.9,44.6,41.1,44.6,41.1v-44.5
			L256,238.5z"/>
		<linearGradient id="SVGID_2_" gradientUnits="userSpaceOnUse" x1="233.7344" y1="292.2261" x2="319" y2="292.2261">
			<stop  offset="0" style="stop-color:#D8D9DA"/>
			<stop  offset="1" style="stop-color:#F6F6F6"/>
		</linearGradient>
		<polygon style="fill:url(#SVGID_2_);" points="256,238.5 233.7,260.8 319,346 319,301.5 		"/>
		<line style="fill:#FFFFFF;" x1="161.5" y1="345.4" x2="161.5" y2="333"/>
		<path style="opacity:0.2;fill:#070707;" d="M256,238.5L193,346c0,0,29.2-26.5,45.1-42.1c8.4-8.2,40.1-43.1,40.1-43.1L256,238.5z"
			/>
		<linearGradient id="SVGID_3_" gradientUnits="userSpaceOnUse" x1="181.8631" y1="334.8631" x2="267.1369" y2="249.5892">
			<stop  offset="0" style="stop-color:#E0E1E2"/>
			<stop  offset="4.313856e-02" style="stop-color:#E2E3E4"/>
			<stop  offset="0.622" style="stop-color:#F7F7F8"/>
			<stop  offset="1" style="stop-color:#FFFFFF"/>
		</linearGradient>
		<polygon style="fill:url(#SVGID_3_);" points="256,238.5 193,301.5 193,346 278.3,260.7 		"/>
	</g>
	<g>
		<path style="opacity:0.2;fill:#070707;" d="M193,346h-31.5V166l47.8,13.8C198,236.5,193,346,193,346z"/>
		<path style="opacity:0.2;fill:#070707;" d="M350.5,346H319c0,0-7.5-121.5-15.8-170.2l47.2-9.8V346z"/>
		<rect x="161.5" y="166" style="fill:#FFFFFF;" width="31.5" height="180"/>
		<rect x="319" y="166" style="fill:#FFFFFF;" width="31.5" height="180"/>
	</g>
</g>
</svg>
