<?xml version="1.0" encoding="UTF-8" standalone="no"?>
<svg
   xmlns:dc="http://purl.org/dc/elements/1.1/"
   xmlns:cc="http://creativecommons.org/ns#"
   xmlns:rdf="http://www.w3.org/1999/02/22-rdf-syntax-ns#"
   xmlns:svg="http://www.w3.org/2000/svg"
   xmlns="http://www.w3.org/2000/svg"
   xml:space="preserve"
   style="enable-background:new 0 0 512 512;"
   viewBox="0 0 512 512"
   y="0px"
   x="0px"
   id="Layer_1"
   version="1.1"><metadata
   id="metadata9"><rdf:RDF><cc:Work
       rdf:about=""><dc:format>image/svg+xml</dc:format><dc:type
         rdf:resource="http://purl.org/dc/dcmitype/StillImage" /><dc:title></dc:title></cc:Work></rdf:RDF></metadata><defs
   id="defs7" />
<path
   id="path2"
   d="M295.234,299.333c0.554-29.897,56.19-30.476,63.81-130.476c0.937-12.297,0.819-26.026-1.045-39.833  C356.057,71.803,308.676,26,250.472,26c-50.823,0-93.389,34.929-104.667,81.881c-7.413,23.091-8.056,47.606-5.809,65.738  c13.333,107.619,65.714,86.667,64.161,132.741c-1.564,46.391-155.949,36.365-147.018,132.973C59.694,466.973,158.07,486,241.901,486  c88.571,0,213.333-5.714,213.333-37.143C455.234,339.329,294.282,350.762,295.234,299.333z"
   style="fill:#000000;fill-opacity:0" />
<path
   style="fill:#000000;fill-opacity:0"
   d="M295.234,299.333c0.554-29.897,56.19-30.476,63.81-130.476c0.937-12.297,0.819-26.026-1.045-39.833  C356.057,71.803,308.676,26,250.472,26c-50.823,0-93.389,34.929-104.667,81.881c-7.413,23.091-8.056,47.606-5.809,65.738  c13.333,107.619,65.714,86.667,64.161,132.741c-1.564,46.391-155.949,36.365-147.018,132.973C59.694,466.973,158.07,486,241.901,486  c88.571,0,213.333-5.714,213.333-37.143C455.234,339.329,294.282,350.762,295.234,299.333z"
   id="path7" /><path
   id="path9"
   d="M295.234,299.333c0.554-29.897,56.19-30.476,63.81-130.476c0.937-12.297,0.819-26.026-1.045-39.833  C356.057,71.803,308.676,26,250.472,26c-50.823,0-93.389,34.929-104.667,81.881c-7.413,23.091-8.056,47.606-5.809,65.738  c13.333,107.619,65.714,86.667,64.161,132.741c-1.564,46.391-155.949,36.365-147.018,132.973C59.694,466.973,158.07,486,241.901,486  c88.571,0,213.333-5.714,213.333-37.143C455.234,339.329,294.282,350.762,295.234,299.333z"
   style="fill:#000000;fill-opacity:0" /><path
   style="fill:#ffffff;fill-opacity:1;opacity:1"
   d="M295.234,299.333c0.554-29.897,56.19-30.476,63.81-130.476c0.937-12.297,0.819-26.026-1.045-39.833  C356.057,71.803,308.676,26,250.472,26c-50.823,0-93.389,34.929-104.667,81.881c-7.413,23.091-8.056,47.606-5.809,65.738  c13.333,107.619,65.714,86.667,64.161,132.741c-1.564,46.391-155.949,36.365-147.018,132.973C59.694,466.973,158.07,486,241.901,486  c88.571,0,213.333-5.714,213.333-37.143C455.234,339.329,294.282,350.762,295.234,299.333z"
   id="path11" /></svg>