<?xml version="1.0" encoding="utf-8"?>
<!-- Generator: Adobe Illustrator 22.0.1, SVG Export Plug-In . SVG Version: 6.00 Build 0)  -->
<svg version="1.1" id="Layer_1" xmlns="http://www.w3.org/2000/svg" xmlns:xlink="http://www.w3.org/1999/xlink" x="0px" y="0px"
	 viewBox="0 0 512 512" enable-background="new 0 0 512 512" xml:space="preserve">
<path fill="#FFFFFF" d="M92.489,362.283c-5.111,9.177-9.177,22.986-9.177,31.686c0,2.02,0,4.589,0.501,8.152l-63.868-109.84
	c-2.045-3.565-3.567-8.676-3.567-13.284c0-4.614,1.521-10.22,3.567-13.791l30.662-53.648l-34.229-19.399l111.384-2.062
	l54.149,97.575l-34.727-19.922L92.489,362.283z M141.547,52.685c9.7-16.877,25.551-26.075,44.951-26.075
	c20.961,0,37.315,9.719,49.058,29.618l17.376,29.118l-60.301,104.25l-97.575-56.718L141.547,52.685z M148.681,450.663
	c-29.118,0-53.126-24.011-53.126-53.128c0-8.177,3.587-21.984,8.698-30.662l16.333-29.118h121.103v112.91L148.681,450.663
	L148.681,450.663z M245.777,49.6c-7.655-13.267-17.875-22.485-30.14-27.6h125.671c11.243,0,19.92,4.614,25.05,13.308l31.163,53.128
	l33.709-19.941l-54.172,97.092l-110.842-1.561l34.229-19.399L245.777,49.6z M439.429,338.778c15.31,0,28.097-4.086,38.818-12.246
	L414.88,436.872c-5.111,8.676-14.288,13.791-25.013,13.791h-59.802V490l-57.215-95.531l57.215-95.554v39.863H439.429
	L439.429,338.778z M488.446,246.811c4.61,8.177,7.175,16.854,7.175,26.056c0,18.397-11.764,37.812-28.097,46.99
	c-7.676,4.113-18.417,6.674-29.118,6.674h-33.748l-60.264-104.25l97.579-55.691L488.446,246.811z"/>
<circle fill="#FFFFFF" cx="256" cy="256" r="49.704"/>
</svg>
