<?xml version="1.0" encoding="utf-8"?>
<!-- Generator: Adobe Illustrator 22.0.1, SVG Export Plug-In . SVG Version: 6.00 Build 0)  -->
<svg version="1.1" id="Layer_1" xmlns="http://www.w3.org/2000/svg" xmlns:xlink="http://www.w3.org/1999/xlink" x="0px" y="0px"
	 viewBox="0 0 512 512" enable-background="new 0 0 512 512" xml:space="preserve">
<circle fill="#C0E7FF" cx="256" cy="256" r="230"/>
<g>
	<circle fill="#008CFF" cx="256" cy="256" r="195.5"/>
	<g>
		<path fill="#FFFFFF" d="M440.875,284.815l6.63-1.105c-0.595,1.7,0.085,3.23,1.36,4.25c1.7-10.37,2.635-21.08,2.635-31.96
			c0-64.94-31.62-122.4-80.325-158.015c-5.1,3.74-10.115,7.395-12.325,11.475c-15.895,29.495-51.085,25.33-54.995,45.9
			c-0.51,2.805-0.68,6.63-3.57,6.205c-7.735-1.02,26.18-23.8-17.51-27.2c-7.31-0.595-23.46,11.815-26.01,18.7
			c-1.275,3.485-8.16,19.04-7.395,22.695c1.02,4.76,22.015,5.015,18.87,10.37c-0.68,1.19-1.7,2.21-2.805,2.975
			c-4.335,2.89-9.605,2.805-14.365,4.335c-11.475,3.655-18.02,15.64-23.97,25.67c-1.105,1.87-1.53,4.08-1.02,6.205
			c1.53,6.545,11.305,8.925,15.045,4.42c22.95-28.39,17.51,0.68,30.94-2.89c6.29-1.7,6.12,3.995,12.495,6.205
			c3.06,1.105,8.755-3.995,10.2-1.105c3.57,7.14,11.05,5.695,4.675,7.82c-5.015,1.615-10.625-0.68-15.725,0.68
			c-17.255,4.59-31.79-8.67-44.965-3.91s-28.305,23.545-30.6,37.4c-0.595,3.655,5.95,15.81,7.395,19.295
			c2.805,6.97,16.66,3.91,23.8,6.205c7.14,2.295,8.5,2.04,14.45,6.715c10.03,7.82,12.07,21.93,12.41,34.595s0.085,26.35,7.31,36.805
			c1.105,1.53,2.38,3.06,3.995,3.995c4.165,2.38,9.52,0.765,13.685-1.87c10.965-6.885,21.25-30.345,32.555-39.44
			c10.115-8.075-2.89-17.085,5.015-27.37c6.12-7.99,14.96-14.875,16.405-24.82c-3.74-1.02-7.395-2.55-10.71-4.505
			c2.465-1.02,5.355-2.72,6.885-2.89c7.395-0.51,11.39-9.095,17.085-13.43c0.425-0.34,0.935-0.765,1.275-1.19
			c2.125-2.805-7.735-2.89-9.86-4.675c-7.565-6.29-8.585-10.71-17-15.895c12.24-5.695,5.44,5.27,17.935,10.455
			c2.975,1.19,18.87-0.935,25.16,4.845c6.205,5.695,8.755,5.95,9.605,12.495c1.19,8.415,7.735,14.45,12.495,21.505
			c5.695-4.08,7.395-11.305,10.2-17.765c2.805-6.545,5.44-15.215,12.58-15.895c5.95-0.595,8.84,11.305,10.03,17.17
			c1.19,5.865,8.5-2.295,8.5,11.9c0,4.675,2.72,7.14,5.695,10.795c0.425,0.51,0.68,1.105,0.85,1.7c0.51-2.04,0.935-3.995,1.36-6.035
			C442.915,294.675,439.26,293.315,440.875,284.815z M310.825,245.375c5.695,0,6.29,12.835,7.735,18.275
			c0.68,2.55,1.445,5.44,2.55,8.33C315.075,264.415,311.25,255.065,310.825,245.375z"/>
		<path fill="#FFFFFF" d="M151.875,100.45c6.715,11.305,8.67,25.33,5.355,38.08c-1.02,3.825-2.465,7.65-2.55,11.645
			c0,4.76,2.125,9.265,4.165,13.6c0.51,1.105,1.105,2.295,2.04,3.06c3.06,2.465,7.565-0.425,10.2-3.4
			c7.565-8.5,14.195-19.295,25.16-22.355c2.21-0.595,4.59-0.935,6.29-2.55c1.19-1.19,1.785-2.805,2.295-4.42
			c3.57-11.475,3.74-23.97,8.5-35.02c2.04-4.76,0.34-14.62,5.525-14.365c20.655,0.85,1.02-9.52-3.825-15.13
			c-1.105-1.275-2.04-2.635-3.06-4.08c-22.95,5.27-44.285,14.535-63.325,27.115C148.73,95.435,150.43,97.985,151.875,100.45z"/>
		<g>
			<path fill="#FFFFFF" d="M155.445,313.545c-12.75-4.76-14.705-13.6-25.075-22.44c-2.295-1.955-4.505-3.995-7.31-5.1
				c-2.38-0.935-4.93-1.02-7.48-1.105c-7.65-0.34-18.19,5.1-25.84,4.76c-3.91-0.17-6.46-4.93-6.715-0.935
				c-16.575-9.775-8.415-17.34-14.28-23.375c-0.85-0.935-7.055,5.525-7.565,4.335c-0.085-0.255-0.17-0.595-0.255-0.85
				c0.34,4.93,0.85,9.86,1.53,14.705c2.72,2.21,5.61,4.335,8.755,6.12c4.76,2.635,10.03,4.335,14.45,7.565
				c4.42,3.23,0.085,4.165-1.02,9.435c-0.85,3.995-3.145,5.865-4.505,9.605c-2.125,5.78,7.225,18.02,11.05,22.95
				c3.825,4.845,8.925,8.585,13.09,13.09c1.445,1.53,2.89,3.315,3.485,5.355c0.51,1.785,0.34,3.655,0.255,5.525
				c-0.51,6.205-1.02,12.41-1.445,18.615c5.695,6.715,11.815,13.09,18.36,19.04c10.795-11.39,14.705-23.715,23.885-37.485
				c2.975-4.505,17.51-6.715,19.21-11.815c1.36-4.165,1.87-8.67,2.295-13.005c0.595-5.44,5.695-4.93,6.29-10.285
				c0.255-2.465-5.95-8.67-7.395-10.795C167.77,315.67,157.485,314.31,155.445,313.545z"/>
			<path fill="#FFFFFF" d="M60.84,266.795c0.17-1.615,0.765-3.23,1.36-4.76c1.275-3.145,2.635-6.375,5.185-8.585
				c2.55-2.21,6.715-2.89,9.265-0.595c2.55,2.38,3.315,7.395,6.8,7.31c5.1-3.91,3.91-11.9,6.545-17.765
				c1.445-3.23,4.08-5.78,6.715-8.16c7.225-6.545,8.585-17.17,16.915-22.1c9.52-5.695,27.455-7.395,28.22-18.445
				c0.34-4.93-1.7-9.775-3.655-14.28c-3.995-9.095-6.97-5.78-10.965-14.875c-6.035,0.51-12.92-10.455-18.615-8.245
				c-1.87,0.765-3.825,1.615-5.185,3.23c-1.19,1.445,2.38,15.64,1.615,17.425c-2.89,7.31-6.8,17-22.78-3.23
				c-0.765-1.02-1.445-2.04-2.04-3.145C67.555,196.33,60.5,225.315,60.5,256C60.5,259.655,60.585,263.225,60.84,266.795z"/>
		</g>
	</g>
</g>
</svg>
