<?xml version="1.0" encoding="utf-8"?>
<!-- Generator: Adobe Illustrator 22.0.1, SVG Export Plug-In . SVG Version: 6.00 Build 0)  -->
<svg version="1.1" id="Layer_1" xmlns="http://www.w3.org/2000/svg" xmlns:xlink="http://www.w3.org/1999/xlink" x="0px" y="0px"
	 viewBox="0 0 512 512" style="enable-background:new 0 0 512 512;" xml:space="preserve">
<style type="text/css">
	.st0{fill:url(#SVGID_1_);}
	.st1{fill:#009EFF;}
	.st2{fill:#FFFFFF;}
</style>
<g>
	
		<radialGradient id="SVGID_1_" cx="256" cy="256" r="230" gradientTransform="matrix(1 0 0 -1 0 512)" gradientUnits="userSpaceOnUse">
		<stop  offset="0" style="stop-color:#3FE1FF"/>
		<stop  offset="1" style="stop-color:#2AB4FF"/>
	</radialGradient>
	<circle class="st0" cx="256" cy="256" r="230"/>
	<path class="st1" d="M483.5,222.3c-0.1-0.7-0.2-1.4-0.3-2l-17.7-1.9l4.2-47.3c-0.5-1.4-1.1-2.7-1.6-4l-4.6,51.1l-11.7-1.3
		c0-0.1,0-0.1,0-0.2c0-4.4-2.7-8.2-6.6-9.8l16.3-54.2c-0.4-0.9-0.9-1.7-1.3-2.6l-16.9,56.2c-0.7-0.1-1.4-0.2-2.1-0.2
		c-1.4,0-2.8,0.3-4.1,0.8L375.8,91.2c2.1-1.4,3.8-3.5,4.6-6l38.7,8.7c-0.9-0.9-1.8-1.8-2.7-2.7l-35.6-8c0.1-0.5,0.1-1,0.1-1.5
		c0-6.2-5-11.2-11.2-11.2c-2.3,0-4.5,0.7-6.3,1.9l-45.1-37.9c-1.5-0.4-3.1-0.8-4.6-1.2l48.1,40.4c-1.5,1.5-2.6,3.4-3.1,5.6L274,68.3
		l13.7-40.1c-0.7-0.1-1.3-0.2-2-0.3L272,68l-59.3-7.7c0-0.2,0-0.5,0-0.7c0-1.8-0.4-3.5-1-5.1l56.5-28.1c-1.4-0.1-2.8-0.1-4.2-0.2
		l-53.2,26.5c-2.4-4-6.7-6.6-11.6-6.6c-6.5,0-12,4.6-13.2,10.8l-36.5-4.7c-1,0.5-2.1,1.1-3.1,1.6l39.3,5c0,0.2,0,0.5,0,0.7
		c0,1.8,0.4,3.6,1,5.1l-84.5,42.4c-2.1-3.5-5.7-6-10-6.5l0.3-6.4c-0.7,0.7-1.4,1.4-2.1,2.1l-0.2,4.2c-1.6,0-3.2,0.4-4.7,1
		c-2.8,3.1-5.5,6.2-8.1,9.4c-0.2,1-0.4,2-0.4,3.1c0,3.5,1.3,6.6,3.5,9l-32.3,33.8c-0.9,1.9-1.7,3.7-2.6,5.6l36.3-38.1
		c1.8,1.5,4,2.5,6.4,2.9l-8.1,92.2c-0.1,0-0.1,0-0.2,0c-2.8,0-5.3,0.8-7.5,2.3L43,183.5c2.7-2.5,4.5-6,4.5-10c0-3.1-1.1-6-2.8-8.2
		c-3,7-5.7,14.1-8,21.5c1.7-0.3,3.4-1,4.8-2L71.1,223c-2.7,2.5-4.5,6-4.5,10c0,4.2,1.9,7.9,4.8,10.3L41,285.8
		c-1.8-1.1-3.8-1.8-6-1.9v-91.5c-0.7,2.5-1.4,4.9-2,7.4v84.1c-1.3,0.1-2.6,0.4-3.8,0.8c0.4,6.1,1,12.2,1.6,18.2
		c0.5,2.6,1.1,5.3,1.8,7.9c0.5,0.1,0.9,0.1,1.4,0.1c1.4,0,2.8-0.2,4.1-0.6l33.4,83.1c1.5,2,3,3.9,4.5,5.8l-36-89.7
		c0.8-0.4,1.6-0.9,2.4-1.5l41.6,45.8c-2.3,2.4-3.7,5.7-3.7,9.3c0,7.3,5.8,13.2,13,13.5v42c0.3,0.3,0.7,0.7,1,1v-42.9
		c4.3-0.2,8.1-2.3,10.4-5.6l55.1,33.8c-0.6,1.3-1,2.8-1,4.3c0,1.2,0.2,2.4,0.6,3.5l-46.9,23.1c0.6,0.5,1.1,0.9,1.7,1.4l46.1-22.7
		c1.8,2.8,4.9,4.7,8.5,4.7c1.2,0,2.3-0.2,3.4-0.6l29,61c0.8,0.2,1.7,0.4,2.5,0.6l-29.7-62.4c2.1-1.3,3.7-3.3,4.4-5.7l53.6,10.2
		l-12.5,61c0.7,0.1,1.3,0.2,2,0.3l12.5-60.9l44.5,8.5c-0.1,0.5-0.1,1-0.1,1.5c0,3.3,1.2,6.4,3.2,8.7l-44.9,44
		c0.9,0.1,1.8,0.1,2.6,0.2l43.6-42.8c2.4,2.1,5.5,3.4,8.9,3.4c5.8,0,10.7-3.6,12.6-8.8l35.6,10.4c-0.2,0.9-0.3,1.9-0.3,2.8
		c0,1.5,0.2,2.9,0.7,4.2l-75.5,31.1c2-0.1,4-0.2,6-0.3l70.3-29c2.2,4.4,6.8,7.5,12.1,7.5c0.4,0,0.8,0,1.3-0.1
		c2.9-1.4,5.8-2.9,8.7-4.4c1.4-1.5,2.5-3.4,3-5.5l5.1,1c0.9-0.5,1.7-1,2.6-1.5l-7.3-1.4c0.1-0.5,0.1-1.1,0.1-1.6
		c0-3.8-1.6-7.3-4.2-9.7l33.6-40.6l22.8,18.3c0.5-0.5,0.9-1,1.4-1.4l-22.9-18.4l49.7-60.1c2.2,1.6,4.9,2.5,7.8,2.5
		c0.9,0,1.7-0.1,2.6-0.2l4.7,17.5c0.4-0.9,0.9-1.8,1.3-2.7l-4.2-15.3c5.2-1.9,9-6.8,9-12.7c0-3.7-1.5-7-3.8-9.4l17.7-20
		c0.2-1.2,0.4-2.5,0.7-3.8l-19.9,22.4c-1.7-1.3-3.8-2.2-6-2.6l8.4-93.9L483.5,222.3z M443.8,335.3l-51.4,42.8
		c-1.3-1.8-3-3.4-5.1-4.4l21.5-61.3l33.1,10.9c-0.4,1.3-0.7,2.7-0.7,4.1C441.3,330.4,442.2,333.1,443.8,335.3z M257.7,342.5
		l102.6-42c0.4,0.6,0.9,1.2,1.5,1.7l-36.9,67.5l-67-21.9c0.2-0.7,0.3-1.5,0.3-2.3C258.2,344.4,258,343.4,257.7,342.5z M93.4,230.4
		l27.5-7.6l11,38.1c-2.6,0.9-4.8,2.5-6.6,4.5l-33.8-25.2c1.3-2.1,2.1-4.6,2.1-7.2C93.7,232.1,93.6,231.2,93.4,230.4z M122.9,222.3
		l17.7-4.9l-3.2,42.6c-0.1,0-0.1,0-0.2,0c-1.1,0-2.2,0.1-3.3,0.4L122.9,222.3z M142.6,216.8L200,201c0.6,1.7,1.6,3.3,2.8,4.6
		l-54.7,58.8c-2.3-2.3-5.3-3.8-8.7-4.3L142.6,216.8z M162.1,122.3l89.7-14.7c0.6,2,1.8,3.7,3.5,4.9L218,184.1
		c-1.6-0.7-3.4-1.1-5.3-1.1c-3.1,0-5.9,1-8.1,2.7L158.3,133c2.4-2.4,3.9-5.8,3.9-9.5C162.2,123.1,162.1,122.7,162.1,122.3z
		 M430.7,216.3l-66.6,4.2l-1-30.6c4.3-0.5,8-2.9,10.1-6.5l58.2,29.3C431,213.8,430.7,215,430.7,216.3z M433.3,223.6l-64.2,68.5
		c-0.8-0.5-1.7-0.9-2.7-1l-2.3-68.5l66.6-4.2C431.1,220.3,432,222.1,433.3,223.6z M364.5,291.1c-1.3,0.3-2.4,0.9-3.3,1.8L274,232.8
		c0.8-1.4,1.2-3,1.3-4.7l86.9-5.5L364.5,291.1z M149.4,266l54.8-59c2.2,1.8,5.1,2.9,8.1,3l4.1,77.1c-4.9,0.6-9,3.9-10.8,8.4
		l-53.3-16.9c0.2-1,0.3-2.1,0.3-3.1C152.7,271.9,151.4,268.6,149.4,266z M214.4,209.9c3.8-0.5,7.2-2.6,9.3-5.6l32,19.1
		c-0.6,1.3-1,2.8-1,4.4c0,3.3,1.5,6.2,3.9,8.1l-34,52.7c-1.8-1-3.9-1.6-6.2-1.6L214.4,209.9z M226.1,195.7l36.4-4.9l1,26.8
		c-2.8,0.4-5.3,1.9-6.9,4.1l-32-19.1c0.9-1.8,1.4-3.9,1.4-6.1C226.2,196.2,226.1,196,226.1,195.7z M260.3,237
		c0.7,0.4,1.5,0.6,2.2,0.8l-9,60.9l-21.9,0.5c-0.4-3.9-2.4-7.2-5.3-9.5L260.3,237z M264.5,238.1c0.2,0,0.3,0,0.5,0
		c3.2,0,6-1.4,7.9-3.7l87.1,60.1c-0.3,0.6-0.5,1.2-0.5,1.8l-103.9,2.3L264.5,238.1z M264.6,190.5l28.1-3.8l-22.6,32.1
		c-1.3-0.8-2.9-1.2-4.5-1.3L264.6,190.5z M275.2,226.2c-0.4-2.5-1.7-4.6-3.5-6.2l23.6-33.6l53.1-7.1c1.2,5.9,6.4,10.4,12.7,10.7
		l1,30.7L275.2,226.2z M348.2,176.5c0,0.3,0,0.5,0,0.8l-51.3,6.9l24.5-34.8l28.7,20.2C348.9,171.6,348.2,174,348.2,176.5z
		 M294.2,184.5l-29.7,4l-2.9-74.6c2.1-0.3,3.9-1.3,5.2-2.8l53,37.2L294.2,184.5z M262.5,188.8l-36.6,4.9c-0.8-3.7-3-6.8-6.1-8.7
		l37.3-71.6c0.8,0.3,1.6,0.5,2.5,0.6L262.5,188.8z M203,187c-0.3,0.3-0.7,0.7-1,1.1l-54.5-36.9l1.1-14.3c0,0,0,0,0,0
		c3.1,0,5.9-1,8.1-2.7L203,187z M201,189.8c-1.1,2-1.8,4.3-1.8,6.7c0,0.9,0.1,1.8,0.3,2.6l-56.7,15.6l4.6-61.1L201,189.8z
		 M149.7,284.6l43,27.3l-40.1,19.7l-9.2-41.8C145.9,288.6,148.1,286.8,149.7,284.6z M150.8,282.9c0.4-0.8,0.8-1.6,1-2.4l53.2,16.8
		c-0.2,1-0.4,2-0.4,3.1c0,1.8,0.4,3.5,1,5l-10.8,5.3L150.8,282.9z M206.5,307.3c1.2,2.1,3,3.8,5.1,5l-3.2,7.1l-11.6-7.4L206.5,307.3
		z M213.5,313.2c1.5,0.5,3,0.8,4.7,0.8c2.4,0,4.6-0.6,6.5-1.7l16.4,25c-0.6,0.5-1.2,1.1-1.7,1.8l-29.3-18.5L213.5,313.2z
		 M226.4,311.2c3-2.3,5-5.9,5.3-10l21.6-0.5l-5.1,34.3c-0.2,0-0.4,0-0.5,0c-1.8,0-3.4,0.4-4.9,1.2L226.4,311.2z M255.3,300.7
		l104.2-2.3c0,0.1,0,0.2,0.1,0.3l-102.6,42c-1.4-2.6-3.8-4.6-6.8-5.3L255.3,300.7z M363.6,303.1c0.7,0.2,1.4,0.4,2.1,0.4
		c0,0,0,0,0,0l11.4,68.9c-5.4,1.2-9.7,5.4-11,10.7l-39.3-12.8L363.6,303.1z M367.7,303.2c1.6-0.5,2.8-1.7,3.6-3.1l35.6,11.7
		l-21.4,61.1c-1.6-0.6-3.3-0.9-5.1-0.9c-0.4,0-0.9,0-1.3,0.1L367.7,303.2z M407.5,309.9l-35.7-11.8c0-0.3,0.1-0.6,0.1-0.9
		c0-1.4-0.5-2.8-1.3-3.8l64.2-68.5c0.6,0.5,1.3,0.9,2,1.2L407.5,309.9z M369.7,93c1.5,0,3-0.3,4.3-0.9l61.4,115.6
		c-1.3,0.8-2.3,1.9-3.1,3.2l-58.2-29.3c0.7-1.6,1-3.3,1-5.2c0-6.7-4.9-12.3-11.4-13.3L369.7,93z M362.7,90.6c1.4,1.1,3.1,1.9,5,2.2
		l-5.9,70.2c0,0-0.1,0-0.1,0c-4.2,0-8,1.9-10.4,4.9l-28.7-20.2L362.7,90.6z M358.9,85.1c0.5,1.5,1.3,2.9,2.3,4.1l-40.4,57.4
		l-52.9-37.2c0.7-1.2,1.1-2.7,1.1-4.2c0-0.3,0-0.6,0-0.8L358.9,85.1z M273.3,70.2l85.1,11.1c0,0.2,0,0.3,0,0.5c0,0.5,0,0.9,0.1,1.4
		l-90,19.3c-0.8-2.2-2.4-4.1-4.5-5.1L273.3,70.2z M212.4,62.2l58.9,7.7l-9.2,26.8c-0.6-0.1-1.2-0.2-1.9-0.2c-2.5,0-4.8,1.1-6.4,2.7
		l-43.4-32.5C211.4,65.4,212.1,63.9,212.4,62.2z M199.2,73c4.1,0,7.7-1.8,10.2-4.6l43.4,32.5c-0.8,1.3-1.2,2.8-1.2,4.4
		c0,0.1,0,0.3,0,0.4l-89.7,14.7c-0.6-2.7-2.1-5-4-6.8l33.8-42.9C193.8,72.1,196.4,73,199.2,73z M187.6,66.4c0.7,1.1,1.5,2.1,2.5,3
		l-33.8,42.9c-2.2-1.5-4.8-2.3-7.6-2.3c-6.4,0-11.7,4.4-13.1,10.3l-31.4-5.2c0-0.4,0.1-0.8,0.1-1.2c0-1.8-0.4-3.6-1-5.1L187.6,66.4z
		 M103.8,117.2l31.4,5.2c0,0.4-0.1,0.8-0.1,1.2c0,6.8,5,12.4,11.5,13.3l-1,13.1l-43.3-29.3C103,119.6,103.5,118.4,103.8,117.2z
		 M101.3,122.4l44.2,29.9l-4.8,63l-18.4,5.1l-27-93.7C97.7,125.8,99.7,124.3,101.3,122.4z M90.5,127.5c0.1,0,0.1,0,0.2,0
		c0.9,0,1.9-0.1,2.8-0.3l27,93.7l-27.5,7.6c-1.6-4.6-5.6-8-10.5-8.8L90.5,127.5z M85.4,352.4l-41.6-45.8c2.3-2.4,3.7-5.7,3.7-9.3
		c0-4.2-1.9-7.9-4.8-10.3l30.5-42.4c2.1,1.3,4.5,2,7,2c0.1,0,0.3,0,0.4,0l10.7,103.2C89.1,350.1,87.1,351,85.4,352.4z M93.7,349.5
		c-0.1,0-0.3,0-0.4,0L82.6,246.3c3.1-0.6,5.8-2.2,7.8-4.4l33.8,25.2c-1.6,2.4-2.5,5.3-2.5,8.4c0,5.8,3.2,10.8,7.8,13.5l-30.1,61.8
		C97.7,350,95.7,349.5,93.7,349.5z M104.6,355.1c-0.9-1.3-2.1-2.4-3.4-3.3l30.1-61.9c1.8,0.7,3.8,1.2,5.9,1.2c1.5,0,2.9-0.2,4.3-0.6
		l9.3,42.1L104.6,355.1z M160.7,403l-55.1-33.8c1-1.9,1.5-4,1.5-6.2c0-2.2-0.6-4.4-1.5-6.2l45.5-22.3l14.4,65
		C163.6,400.1,161.9,401.4,160.7,403z M171.9,399.5c-1-0.3-2.1-0.5-3.2-0.5c-0.4,0-0.8,0-1.2,0.1L153,333.6l41.7-20.4l12.9,8.2
		L171.9,399.5z M232.2,420.1l-53.6-10.2c0-0.3,0-0.6,0-0.9c0-3.7-2-6.9-5-8.6l35.6-78l29,18.4c-0.7,1.4-1.1,3-1.1,4.7
		c0,5,3.5,9.2,8.2,10.2L232.2,420.1z M278.6,429l-44.5-8.5l13.2-64.5c0.1,0,0.2,0,0.3,0c1.4,0,2.6-0.3,3.8-0.7l33.2,65.7
		C281.8,422.7,279.6,425.6,278.6,429z M291.7,419c-1.8,0-3.6,0.4-5.2,1l-33.2-65.7c1.8-1.1,3.2-2.7,4-4.7l66.6,21.8l-26.7,48.8
		C295.5,419.4,293.7,419,291.7,419z M299,421.2l26.9-49.1l39.9,13c-0.1,0.5-0.1,1.1-0.1,1.6c0,2.8,0.8,5.3,2.1,7.5l-64.4,31.4
		C302.3,423.9,300.8,422.3,299,421.2z M353.1,437c-5.8,0-10.7,3.6-12.6,8.8l-35.6-10.4c0.2-0.9,0.3-1.9,0.3-2.8c0-1.8-0.3-3.5-1-5
		l64.7-31.5c1.5,1.9,3.5,3.4,5.8,4.4l-16.9,37.5C356.3,437.3,354.8,437,353.1,437z M360.9,439.5c-0.4-0.3-0.9-0.6-1.3-0.9l17-37.7
		c1.2,0.3,2.5,0.5,3.8,0.5c4.4,0,8.4-1.9,11.1-5l3,2.4L360.9,439.5z M395.7,397.4l-3-2.4c1.6-2.3,2.5-5.1,2.5-8.2
		c0-2.5-0.6-4.8-1.7-6.9l51.6-43c0.1,0.1,0.2,0.2,0.4,0.4L395.7,397.4z M442.7,321.5l-33.2-11l29.3-83.7c0.8,0.2,1.7,0.3,2.5,0.3
		c0.1,0,0.2,0,0.3,0l10.6,87.1C448,315.1,444.5,317.8,442.7,321.5z M455,314c-0.1,0-0.1,0-0.2,0c-0.2,0-0.4,0-0.6,0l-10.6-87.1
		c4.1-0.9,7.3-4.1,8.1-8.2l11.7,1.3L455,314z"/>
	<g>
		<path class="st2" d="M473.5,289.9l7.8-1.3c-0.7,2,0.1,3.8,1.6,5c2-12.2,3.1-24.8,3.1-37.6c0-76.4-37.2-144-94.5-185.9
			c-6,4.4-11.9,8.7-14.5,13.5c-18.7,34.7-60.1,29.8-64.7,54c-0.6,3.3-0.8,7.8-4.2,7.3c-9.1-1.2,30.8-28-20.6-32
			c-8.6-0.7-27.6,13.9-30.6,22c-1.5,4.1-9.6,22.4-8.7,26.7c1.2,5.6,25.9,5.9,22.2,12.2c-0.8,1.4-2,2.6-3.3,3.5
			c-5.1,3.4-11.3,3.3-16.9,5.1c-13.5,4.3-21.2,18.4-28.2,30.2c-1.3,2.2-1.8,4.8-1.2,7.3c1.8,7.7,13.3,10.5,17.7,5.2
			c27-33.4,20.6,0.8,36.4-3.4c7.4-2,7.2,4.7,14.7,7.3c3.6,1.3,10.3-4.7,12-1.3c4.2,8.4,13,6.7,5.5,9.2c-5.9,1.9-12.5-0.8-18.5,0.8
			c-20.3,5.4-37.4-10.2-52.9-4.6s-33.3,27.7-36,44c-0.7,4.3,7,18.6,8.7,22.7c3.3,8.2,19.6,4.6,28,7.3s10,2.4,17,7.9
			c11.8,9.2,14.2,25.8,14.6,40.7c0.4,14.9,0.1,31,8.6,43.3c1.3,1.8,2.8,3.6,4.7,4.7c4.9,2.8,11.2,0.9,16.1-2.2
			c12.9-8.1,25-35.7,38.3-46.4c11.9-9.5-3.4-20.1,5.9-32.2c7.2-9.4,17.6-17.5,19.3-29.2c-4.4-1.2-8.7-3-12.6-5.3
			c2.9-1.2,6.3-3.2,8.1-3.4c8.7-0.6,13.4-10.7,20.1-15.8c0.5-0.4,1.1-0.9,1.5-1.4c2.5-3.3-9.1-3.4-11.6-5.5
			c-8.9-7.4-10.1-12.6-20-18.7c14.4-6.7,6.4,6.2,21.1,12.3c3.5,1.4,22.2-1.1,29.6,5.7c7.3,6.7,10.3,7,11.3,14.7
			c1.4,9.9,9.1,17,14.7,25.3c6.7-4.8,8.7-13.3,12-20.9c3.3-7.7,6.4-17.9,14.8-18.7c7-0.7,10.4,13.3,11.8,20.2s10-2.7,10,14
			c0,5.5,3.2,8.4,6.7,12.7c0.5,0.6,0.8,1.3,1,2c0.6-2.4,1.1-4.7,1.6-7.1C475.9,301.5,471.6,299.9,473.5,289.9z M320.5,243.5
			c6.7,0,7.4,15.1,9.1,21.5c0.8,3,1.7,6.4,3,9.8C325.5,265.9,321,254.9,320.5,243.5z"/>
		<path class="st2" d="M133.5,73c7.9,13.3,10.2,29.8,6.3,44.8c-1.2,4.5-2.9,9-3,13.7c0,5.6,2.5,10.9,4.9,16c0.6,1.3,1.3,2.7,2.4,3.6
			c3.6,2.9,8.9-0.5,12-4c8.9-10,16.7-22.7,29.6-26.3c2.6-0.7,5.4-1.1,7.4-3c1.4-1.4,2.1-3.3,2.7-5.2c4.2-13.5,4.4-28.2,10-41.2
			c2.4-5.6,0.4-17.2,6.5-16.9c24.3,1,1.2-11.2-4.5-17.8c-1.3-1.5-2.4-3.1-3.6-4.8c-27,6.2-52.1,17.1-74.5,31.9
			C129.8,67.1,131.8,70.1,133.5,73z"/>
		<g>
			<path class="st2" d="M137.7,323.7c-15-5.6-17.3-16-29.5-26.4c-2.7-2.3-5.3-4.7-8.6-6c-2.8-1.1-5.8-1.2-8.8-1.3
				c-9-0.4-21.4,6-30.4,5.6c-4.6-0.2-7.6-5.8-7.9-1.1C33,283,42.6,274.1,35.7,267c-1-1.1-8.3,6.5-8.9,5.1c-0.1-0.3-0.2-0.7-0.3-1
				c0.4,5.8,1,11.6,1.8,17.3c3.2,2.6,6.6,5.1,10.3,7.2c5.6,3.1,11.8,5.1,17,8.9s0.1,4.9-1.2,11.1c-1,4.7-3.7,6.9-5.3,11.3
				c-2.5,6.8,8.5,21.2,13,27c4.5,5.7,10.5,10.1,15.4,15.4c1.7,1.8,3.4,3.9,4.1,6.3c0.6,2.1,0.4,4.3,0.3,6.5
				c-0.6,7.3-1.2,14.6-1.7,21.9c6.7,7.9,13.9,15.4,21.6,22.4c12.7-13.4,17.3-27.9,28.1-44.1c3.5-5.3,20.6-7.9,22.6-13.9
				c1.6-4.9,2.2-10.2,2.7-15.3c0.7-6.4,6.7-5.8,7.4-12.1c0.3-2.9-7-10.2-8.7-12.7C152.2,326.2,140.1,324.6,137.7,323.7z"/>
			<path class="st2" d="M26.4,268.7c0.2-1.9,0.9-3.8,1.6-5.6c1.5-3.7,3.1-7.5,6.1-10.1c3-2.6,7.9-3.4,10.9-0.7c3,2.8,3.9,8.7,8,8.6
				c6-4.6,4.6-14,7.7-20.9c1.7-3.8,4.8-6.8,7.9-9.6c8.5-7.7,10.1-20.2,19.9-26c11.2-6.7,32.3-8.7,33.2-21.7c0.4-5.8-2-11.5-4.3-16.8
				c-4.7-10.7-8.2-6.8-12.9-17.5c-7.1,0.6-15.2-12.3-21.9-9.7c-2.2,0.9-4.5,1.9-6.1,3.8c-1.4,1.7,2.8,18.4,1.9,20.5
				c-3.4,8.6-8,20-26.8-3.8c-0.9-1.2-1.7-2.4-2.4-3.7C34.3,185.8,26,219.9,26,256C26,260.3,26.1,264.5,26.4,268.7z"/>
		</g>
	</g>
</g>
</svg>
