<?xml version="1.0" encoding="utf-8"?>
<!-- Generator: Adobe Illustrator 22.0.1, SVG Export Plug-In . SVG Version: 6.00 Build 0)  -->
<svg version="1.1" id="Layer_2" xmlns="http://www.w3.org/2000/svg" xmlns:xlink="http://www.w3.org/1999/xlink" x="0px" y="0px"
	 viewBox="0 0 512 512" enable-background="new 0 0 512 512" xml:space="preserve">
<g>
	<path fill="#3995D2" d="M256,476.6c-11.7,0-23.2-3.1-33.4-8.9L89.3,390.8c-20.6-11.9-33.4-34-33.4-57.8V179.1
		c0-23.8,12.8-45.9,33.4-57.8l133.3-76.9c10.1-5.9,21.7-8.9,33.4-8.9s23.2,3.1,33.4,8.9l133.3,76.9c20.6,11.9,33.4,34,33.4,57.8
		v153.9c0,23.8-12.8,45.9-33.4,57.8l-133.3,76.9C279.2,473.6,267.7,476.6,256,476.6z"/>
	<path fill="#FFFFFF" d="M256,45.4c9.9,0,19.8,2.6,28.4,7.6l133.3,76.9c17.5,10.1,28.4,28.9,28.4,49.2v153.9
		c0,20.2-10.9,39-28.4,49.2L284.4,459c-8.6,5-18.4,7.6-28.4,7.6s-19.8-2.6-28.4-7.6L94.3,382.1C76.8,372,66,353.2,66,332.9V179.1
		c0-20.2,10.9-39,28.4-49.2L227.6,53C236.2,48,246.1,45.4,256,45.4 M256,25.4c-13.3,0-26.5,3.4-38.4,10.3L84.3,112.6
		C60.6,126.3,46,151.6,46,179.1v153.9c0,27.4,14.6,52.8,38.4,66.5l133.3,76.9c11.9,6.9,25.1,10.3,38.4,10.3
		c13.3,0,26.5-3.4,38.4-10.3l133.3-76.9c23.7-13.7,38.4-39.1,38.4-66.5V179.1c0-27.4-14.6-52.8-38.4-66.5L294.4,35.6
		C282.5,28.8,269.3,25.4,256,25.4L256,25.4z"/>
</g>
<g id="Layer_2_1_">
	<g>
		<circle fill="#FFFFFF" cx="256" cy="184.9" r="17.3"/>
		<path fill="#FFFFFF" d="M328.6,203.1l-0.1-0.5c-0.7-2.7-3.9-4.2-7.2-3.4l-48.2,12.6c-0.5-0.2-33.8-0.2-34.2,0l-48.2-12.6
			c-3.2-0.9-6.5,0.7-7.2,3.4l-0.1,0.5c-0.7,2.7,1.3,5.6,4.6,6.5l48.1,12.6v40v0v75.2c0,3.8,3.1,7,7,7c3.8,0,7-3.1,7-7v-71H262v71
			c0,3.8,3.1,7,7,7s7-3.1,7-7v-75.2c0,0,0,0,0,0v-40l48.1-12.6C327.2,208.7,329.3,205.8,328.6,203.1z"/>
	</g>
</g>
</svg>
