<?xml version="1.0" encoding="utf-8"?>
<!-- Generator: Adobe Illustrator 18.0.0, SVG Export Plug-In . SVG Version: 6.00 Build 0)  -->
<!DOCTYPE svg PUBLIC "-//W3C//DTD SVG 1.1//EN" "http://www.w3.org/Graphics/SVG/1.1/DTD/svg11.dtd">
<svg version="1.1" id="Layer_3" xmlns="http://www.w3.org/2000/svg" xmlns:xlink="http://www.w3.org/1999/xlink" x="0px" y="0px"
	 viewBox="0 0 512 512" style="enable-background:new 0 0 512 512;" xml:space="preserve">
<g>
	<g>
		<path style="fill:#FF8B00;" d="M446,485H256V255h230v190C486,467.1,468.1,485,446,485z"/>
		<path style="fill:#E5E5E5;" d="M256,485H66c-22.1,0-40-17.9-40-40V255h230V485z"/>
		<g>
			<polygon style="fill:#303030;" points="116.7,316.7 99.1,316.7 99.1,299.2 88.3,299.2 88.3,316.7 70.8,316.7 70.8,327.6 
				88.3,327.6 88.3,345.1 99.1,345.1 99.1,327.6 116.7,327.6 			"/>
			<polygon style="fill:#303030;" points="202.3,303.3 189.9,315.6 177.5,303.3 169.9,310.9 182.3,323.3 169.9,335.7 177.5,343.3 
				189.9,330.9 202.3,343.3 210,335.7 197.6,323.3 210,310.9 			"/>
			<rect x="70.8" y="414.1" style="fill:#303030;" width="45.9" height="10.8"/>
			<g>
				
					<rect x="167" y="414.1" transform="matrix(0.7071 -0.7071 0.7071 0.7071 -240.9996 257.1695)" style="fill:#303030;" width="45.9" height="10.8"/>
				<g>
					<circle style="fill:#303030;" cx="175" cy="404.5" r="6.3"/>
					<circle style="fill:#303030;" cx="204.9" cy="434.5" r="6.3"/>
				</g>
			</g>
		</g>
		<g>
			<rect x="317.2" y="326" style="fill:#F9F9F9;" width="109.7" height="26.8"/>
			<rect x="317.2" y="387.2" style="fill:#F9F9F9;" width="109.7" height="26.8"/>
		</g>
	</g>
	<path style="fill:#303030;" d="M486,255.1H26v-190c0-22.1,17.9-40,40-40h380c22.1,0,40,17.9,40,40V255.1z"/>
</g>
<g>
	<path style="fill:#FFFFFF;" d="M83.2,137.7h8.7c5.5-0.1,9.8-1.5,12.9-4.3c3.1-2.8,4.7-6.6,4.7-11.4c0-10.7-5.3-16.1-16-16.1
		c-5,0-9,1.4-12,4.3c-3,2.9-4.5,6.7-4.5,11.4H65.4c0-7.2,2.6-13.2,7.9-18c5.3-4.8,12-7.2,20.2-7.2c8.6,0,15.4,2.3,20.3,6.8
		c4.9,4.6,7.3,10.9,7.3,19c0,4-1.3,7.8-3.9,11.5c-2.6,3.7-6.1,6.5-10.5,8.3c5,1.6,8.9,4.2,11.6,7.9c2.7,3.7,4.1,8.2,4.1,13.5
		c0,8.2-2.7,14.7-8,19.5c-5.4,4.8-12.3,7.2-20.9,7.2c-8.6,0-15.6-2.3-20.9-7c-5.4-4.6-8.1-10.8-8.1-18.4h11.7
		c0,4.8,1.6,8.7,4.7,11.5c3.1,2.9,7.3,4.3,12.6,4.3c5.6,0,9.9-1.5,12.9-4.4c3-2.9,4.5-7.1,4.5-12.6c0-5.3-1.6-9.4-4.9-12.2
		s-8-4.3-14.1-4.4h-8.7L83.2,137.7L83.2,137.7z"/>
	<path style="fill:#FFFFFF;" d="M139.9,183c0-2,0.6-3.7,1.8-5c1.2-1.3,3-2,5.4-2c2.4,0,4.2,0.7,5.4,2c1.2,1.3,1.9,3,1.9,5
		c0,1.9-0.6,3.5-1.9,4.8c-1.2,1.3-3,1.9-5.4,1.9s-4.2-0.6-5.4-1.9C140.5,186.5,139.9,184.9,139.9,183z"/>
	<path style="fill:#FFFFFF;" d="M210.4,189h-11.7v-77.4l-23.4,8.6v-10.5l33.3-12.5h1.8V189z"/>
	<path style="fill:#FFFFFF;" d="M293.4,158.4h12.7v9.5h-12.7V189h-11.7v-21.2h-41.6V161l40.9-63.3h12.4V158.4z M253.3,158.4h28.4
		v-44.8l-1.4,2.5L253.3,158.4z"/>
	<path style="fill:#FFFFFF;" d="M354.7,189h-11.7v-77.4l-23.4,8.6v-10.5l33.3-12.5h1.8L354.7,189L354.7,189z"/>
	<path style="fill:#FFFFFF;" d="M394.1,143.2l4.6-45.6h46.8v10.7h-37l-2.8,24.9c4.5-2.6,9.6-4,15.2-4c8.3,0,14.9,2.8,19.8,8.2
		c4.9,5.5,7.3,12.9,7.3,22.3c0,9.4-2.5,16.8-7.6,22.2c-5.1,5.4-12.2,8.1-21.3,8.1c-8.1,0-14.7-2.2-19.8-6.7
		c-5.1-4.5-8-10.7-8.7-18.6h11c0.7,5.2,2.6,9.2,5.6,11.8c3,2.7,7,4,11.9,4c5.4,0,9.6-1.8,12.7-5.5c3.1-3.7,4.6-8.8,4.6-15.2
		c0-6.1-1.7-11-5-14.7s-7.7-5.6-13.3-5.6c-5.1,0-9,1.1-11.9,3.3l-3.1,2.5L394.1,143.2z"/>
</g>
</svg>
