<?xml version="1.0" encoding="utf-8"?>
<!-- Generator: Adobe Illustrator 18.0.0, SVG Export Plug-In . SVG Version: 6.00 Build 0)  -->
<!DOCTYPE svg PUBLIC "-//W3C//DTD SVG 1.1//EN" "http://www.w3.org/Graphics/SVG/1.1/DTD/svg11.dtd">
<svg version="1.1" id="Layer_1" xmlns="http://www.w3.org/2000/svg" xmlns:xlink="http://www.w3.org/1999/xlink" x="0px" y="0px"
	 viewBox="0 0 512 512" style="enable-background:new 0 0 512 512;" xml:space="preserve">
<path style="opacity:0.4;" d="M448.392,270.421C470.951,270.163,486,296.938,486,296.938c-3.425-55.047-32.766-74.085-67.254-75.003
	c-1.92-4.93-4.045-9.81-6.355-14.614c0.127-0.369,0.254-0.739,0.345-1.132c0,0,0.514-27.477,11.182-56.486
	c0.006-0.016,0.012-0.029,0.018-0.046c0.113-0.308,0.224-0.605,0.336-0.906c0.153-0.409,0.306-0.818,0.464-1.227
	c0.004-0.01,0.008-0.02,0.012-0.031c0.14-0.364,0.284-0.728,0.427-1.091c2.69-6.689,5.862-11.259,14.933-11.451
	c0,0-2.146-1.937-6.985-3.126c3.579-3.219,9.896-7.134,17.245-5.468c0,0-35.463-34.399-106.746-1.262
	c-13.216-8.657-26.516-13.94-38.749-14.627c-23.541-1.322-39.56,14.686-51.704,14.686c-10.977,0-24.119-16.05-47.25-15.291
	c-11.306,0.371-24.542,5.815-38.183,14.94c-70.852-32.631-106.105,1.555-106.105,1.555c7.349-1.665,13.666,2.249,17.245,5.468
	c-4.838,1.189-6.985,3.126-6.985,3.126c9.071,0.193,12.244,4.763,14.933,11.451c0.143,0.364,0.287,0.728,0.427,1.091
	c0.004,0.01,0.008,0.02,0.012,0.031c0.157,0.409,0.31,0.818,0.464,1.227c0.112,0.301,0.223,0.599,0.336,0.906
	c0.006,0.017,0.012,0.029,0.018,0.046c8.137,22.128,10.365,43.349,10.964,52.179c-3.744,6.614-7.167,13.392-10.196,20.265
	c-32.552,2.397-59.572,22.102-62.85,74.792c0,0,15.049-26.775,37.608-26.517c-21.825,12.507-35.231,36.742-29.268,78.804
	c0,0,9.575-30.035,32.342-33.725c-8.945,13.885-12.92,33.348-9.15,59.941c0,0,8.668-27.197,29.121-33.014
	c-6.436,13.302-6.292,33.472,8.643,53.697c0,0-0.862-33.179,22.026-34.089c21.225,13.649,51.296,23.466,92.386,27.498
	c2.705,11.63,22.73,20.633,46.243,20.633c24.246,0,44.435-9.358,46.479-21.318c33.647-4.095,59.512-12.624,78.896-24.237
	c1.997-0.709,3.386-1.221,4.016-1.391c32.446-8.746,28.971,35.978,28.971,35.978c16.021-12.546,17.469-43.469,11.033-56.771
	c20.453,5.817,29.121,33.014,29.121,33.014c3.77-26.593-0.205-46.056-9.15-59.941c22.766,3.69,32.342,33.725,32.342,33.725
	C483.623,307.162,470.218,282.928,448.392,270.421z"/>
<g>
	<g>
		<g>
			<path style="fill:#FFFFFF;" d="M175.755,124.698c-76.215-39.121-114.123-2.343-114.123-2.343
				c7.349-1.665,13.666,2.249,17.245,5.468c-4.838,1.189-6.985,3.126-6.985,3.126c9.071,0.193,12.244,4.763,14.933,11.451
				c0.143,0.364,0.288,0.728,0.427,1.091c0.004,0.01,0.008,0.02,0.012,0.031c0.157,0.409,0.31,0.818,0.464,1.227
				c0.112,0.301,0.223,0.599,0.336,0.906c0.006,0.017,0.012,0.029,0.018,0.046c10.667,29.009,11.182,56.486,11.182,56.486
				c1.915,8.243,12.035,11.322,18.216,5.543l56.94-53.24C180.601,148.711,183.283,128.563,175.755,124.698z"/>
			<path style="fill:#A36F2A;" d="M108.819,197.241c-0.333-7.973,2.801-46.681-19.812-73.631
				c0.324-0.041,35.933-12.012,81.36,10.403c4.543,1.404,7.937,4.201,3.666,10.515l-54.324,49.459
				C119.464,194.215,110.777,203.838,108.819,197.241z"/>
		</g>
		<g>
			<path style="fill:#FFFFFF;" d="M336.245,124.698c76.215-39.121,114.123-2.343,114.123-2.343
				c-7.349-1.665-13.666,2.249-17.245,5.468c4.838,1.189,6.985,3.126,6.985,3.126c-9.071,0.193-12.244,4.763-14.933,11.451
				c-0.143,0.364-0.288,0.728-0.428,1.091c-0.004,0.01-0.008,0.02-0.012,0.031c-0.157,0.409-0.31,0.818-0.464,1.227
				c-0.112,0.301-0.223,0.599-0.336,0.906c-0.006,0.017-0.012,0.029-0.018,0.046c-10.667,29.009-11.182,56.486-11.182,56.486
				c-1.915,8.243-12.035,11.322-18.216,5.543l-56.94-53.24C331.399,148.711,328.717,128.563,336.245,124.698z"/>
			<path style="fill:#A36F2A;" d="M403.181,197.241c0.333-7.973-2.801-46.681,19.812-73.631
				c-0.324-0.041-35.933-12.012-81.36,10.403c-4.543,1.404-7.937,4.201-3.666,10.515l54.324,49.459
				C392.536,194.215,401.223,203.838,403.181,197.241z"/>
		</g>
	</g>
	<path style="fill:#F6892E;" d="M304.873,106.466c-23.541-1.322-39.56,14.686-51.704,14.686c-10.977,0-24.119-16.05-47.25-15.291
		c-79.288,2.601-253.541,254.417,3.788,279.673c2.705,11.63,22.73,20.633,46.243,20.633c24.246,0,44.435-9.358,46.479-21.318
		C537.545,356.23,393.31,111.433,304.873,106.466z"/>
	<path style="fill:#EE2424;" d="M302.614,380.818c0-14.614-22.728,6.762-48.472,6.762s-44.755-21.376-44.755-6.762
		c0,11.486,21.319,19.772,46.614,19.772C281.582,400.59,302.614,392.304,302.614,380.818z"/>
	<path style="fill:#FFFFFF;" d="M448.392,266.421C470.951,266.163,486,292.938,486,292.938
		c-6.785-109.053-115.27-76.824-164.025-42.235c-2.714-5.433-5.449-12.45-7.469-19.854c0.32-3.107,0.98-5.989,2.076-8.507
		c5.233-12.017,21.154-5.919,21.154-5.919c-6.173-6.548-12.132-10.058-17.752-11.335c6.752-4.817,17.15-0.838,17.15-0.838
		c-7.186-7.623-14.085-11.15-20.494-11.804c6.667-6.04,18.151-1.646,18.151-1.646c-30.476-32.327-55.8,8.954-60.384,31.033
		c-2.683,12.921-3.672,22.511-0.01,29.561c-0.015,0.335-0.009,0.65-0.016,0.978c-5.786-1.899-11.961-2.94-18.382-2.94
		c-6.373,0-12.504,1.025-18.253,2.897c-0.007-0.437-0.002-0.863-0.022-1.312c3.662-7.05,2.673-16.64-0.01-29.561
		c-4.584-22.079-29.908-63.36-60.384-31.033c0,0,11.484-4.394,18.151,1.646c-6.409,0.654-13.308,4.181-20.494,11.804
		c0,0,10.398-3.979,17.15,0.838c-5.62,1.277-11.579,4.787-17.752,11.335c0,0,15.921-6.098,21.154,5.919
		c1.096,2.517,1.757,5.399,2.076,8.507c-2.062,7.561-4.87,14.718-7.641,20.197C141.197,216.093,32.782,183.922,26,292.938
		c0,0,15.049-26.775,37.608-26.517c-21.825,12.507-35.231,36.742-29.268,78.804c0,0,9.575-30.035,32.342-33.725
		c-8.945,13.885-12.92,33.348-9.15,59.941c0,0,8.668-27.197,29.121-33.014c-6.436,13.302-6.292,33.472,8.643,53.697
		c0,0-1.085-41.65,31.361-32.904c5.213,1.405,61.973,26.091,91.394-5.812c10.253,8.644,23.489,13.863,37.949,13.863
		c14.46,0,27.696-5.218,37.949-13.863c29.421,31.903,86.181,7.217,91.394,5.812c32.446-8.746,28.972,35.978,28.972,35.978
		c16.021-12.546,17.469-43.469,11.033-56.771c20.453,5.817,29.121,33.014,29.121,33.014c3.77-26.593-0.205-46.056-9.15-59.941
		c22.766,3.69,32.342,33.725,32.342,33.725C483.623,303.162,470.218,278.928,448.392,266.421z"/>
	<radialGradient id="SVGID_1_" cx="256" cy="142.2642" r="159.193" gradientUnits="userSpaceOnUse">
		<stop  offset="0" style="stop-color:#744720"/>
		<stop  offset="1" style="stop-color:#31251C"/>
	</radialGradient>
	<path style="fill:url(#SVGID_1_);" d="M378.4,307.505c0,67.6-80.228,77.767-123.503,77.767S133.6,375.104,133.6,307.505
		c0-35.132,34.113-90.416,68.81-91.889c28.19-1.196,37.159,20.104,35.503,13.783c-3.894-14.867,5.601-90.872,18.087-89.943
		c12.048,0.897,20.977,70.306,18.586,88.981c-0.938,7.327,5.876-15.501,40.582-11.613C350.567,220.789,378.4,271.339,378.4,307.505z
		"/>
	
		<radialGradient id="SVGID_2_" cx="258.6924" cy="266.0021" r="122.9748" gradientTransform="matrix(1 0 0 1.0924 0 -24.5845)" gradientUnits="userSpaceOnUse">
		<stop  offset="0.0194" style="stop-color:#FFFFFF"/>
		<stop  offset="0.2485" style="stop-color:#F2F2F2"/>
		<stop  offset="0.673" style="stop-color:#CFCFCF"/>
		<stop  offset="1" style="stop-color:#B0B0B0"/>
	</radialGradient>
	<path style="fill:url(#SVGID_2_);" d="M365.926,336.264c0,25.791-51.047,51.316-111.784,51.316s-108.165-20.569-108.165-51.316
		c0-87.275,88.656-109.975,109.975-109.975C280.926,226.29,365.926,253.017,365.926,336.264z"/>
	<path d="M289.736,324.162c0,18.632-13.688,21.042-32.32,21.042c-18.632,0-35.152-2.41-35.152-21.042
		c0-14.644,21.809-33.736,33.736-33.736S289.736,309.518,289.736,324.162z"/>
	<g>
		<g>
			<circle style="fill:#FFFFFF;" cx="205.919" cy="246.512" r="24.681"/>
			<path d="M205.919,246.512c-11.047,0-20.035,11.048-20.035,0c0-11.047,8.987-20.034,20.034-20.034
				c11.047,0,20.035,8.987,20.035,20.034C225.954,257.559,216.967,246.512,205.919,246.512z"/>
		</g>
		<g>
			<circle style="fill:#FFFFFF;" cx="306.081" cy="246.512" r="24.681"/>
			<path d="M306.081,246.512c-11.047,0-20.035,11.048-20.035,0c0-11.047,8.987-20.034,20.034-20.034
				c11.047,0,20.035,8.987,20.035,20.034C326.116,257.559,317.128,246.512,306.081,246.512z"/>
		</g>
	</g>
</g>
</svg>
