<?xml version="1.0" encoding="utf-8"?>
<!-- Generator: Adobe Illustrator 18.0.0, SVG Export Plug-In . SVG Version: 6.00 Build 0)  -->
<!DOCTYPE svg PUBLIC "-//W3C//DTD SVG 1.1//EN" "http://www.w3.org/Graphics/SVG/1.1/DTD/svg11.dtd">
<svg version="1.1" id="Layer_1" xmlns="http://www.w3.org/2000/svg" xmlns:xlink="http://www.w3.org/1999/xlink" x="0px" y="0px"
	 viewBox="0 0 512 512" enable-background="new 0 0 512 512" xml:space="preserve">
<g>
	<circle fill="#0D1529" cx="256" cy="256" r="230"/>
	<path fill="#FFFFFF" d="M468.5,256c0-1.8,0-3.5-0.1-5.3c0-0.9-0.1-1.7-0.1-2.6c0-0.9-0.1-1.7-0.1-2.6c-0.1-1.2-0.1-2.3-0.2-3.5
		c0-0.6-0.1-1.1-0.1-1.7c-0.1-1.3-0.2-2.7-0.3-4c0-0.3-0.1-0.7-0.1-1c-0.1-1.5-0.3-3-0.5-4.5c0-0.2,0-0.3-0.1-0.5
		c-0.2-1.6-0.4-3.2-0.6-4.8c0,0,0-0.1,0-0.1c-1.5-10.1-3.6-20.1-6.5-29.9c0-0.1,0-0.1-0.1-0.2c-0.5-1.5-0.9-3.1-1.4-4.6
		c-0.1-0.2-0.1-0.4-0.2-0.6c-0.4-1.4-0.9-2.7-1.4-4.1c-0.1-0.4-0.3-0.7-0.4-1.1c-0.4-1.2-0.8-2.4-1.3-3.5c-0.2-0.6-0.4-1.1-0.6-1.7
		c-0.4-1-0.8-1.9-1.1-2.9c-0.3-0.8-0.6-1.5-0.9-2.3c-0.3-0.8-0.6-1.5-1-2.3c-0.4-1-0.8-1.9-1.3-2.9c-0.2-0.5-0.5-1.1-0.7-1.6
		c-0.5-1.1-1.1-2.3-1.6-3.4c-0.2-0.3-0.3-0.7-0.5-1c-0.6-1.3-1.3-2.6-1.9-3.9c-0.1-0.2-0.2-0.4-0.3-0.5c-0.7-1.4-1.5-2.8-2.2-4.2
		c0,0-0.1-0.1-0.1-0.1c-4.9-9-10.4-17.6-16.5-25.8c0,0,0-0.1-0.1-0.1c-1-1.3-2-2.6-3-3.9c-0.1-0.1-0.2-0.3-0.3-0.4
		c-0.9-1.2-1.9-2.4-2.8-3.5c-0.2-0.3-0.4-0.5-0.6-0.8c-0.9-1-1.7-2.1-2.6-3.1c-0.4-0.4-0.7-0.8-1.1-1.2c-0.8-0.9-1.5-1.8-2.3-2.6
		c-0.6-0.6-1.2-1.3-1.7-1.9c-0.6-0.6-1.2-1.3-1.8-1.9c-1.2-1.3-2.4-2.5-3.7-3.8c-1.2-1.2-2.5-2.5-3.8-3.7c-0.6-0.6-1.3-1.2-1.9-1.8
		c-0.6-0.6-1.2-1.2-1.9-1.7c-0.9-0.8-1.7-1.6-2.6-2.3c-0.4-0.4-0.8-0.7-1.2-1.1c-1-0.9-2.1-1.8-3.1-2.6c-0.3-0.2-0.5-0.4-0.8-0.6
		c-1.2-1-2.3-1.9-3.5-2.8c-0.1-0.1-0.3-0.2-0.4-0.3c-1.3-1-2.6-2-3.9-3c0,0-0.1,0-0.1-0.1c-8.2-6.1-16.8-11.6-25.8-16.5
		c0,0-0.1-0.1-0.1-0.1c-1.4-0.8-2.8-1.5-4.2-2.2c-0.2-0.1-0.4-0.2-0.5-0.3c-1.3-0.7-2.6-1.3-3.9-1.9c-0.3-0.2-0.7-0.3-1-0.5
		c-1.1-0.5-2.3-1.1-3.4-1.6c-0.5-0.2-1.1-0.5-1.6-0.7c-1-0.4-1.9-0.8-2.9-1.3c-0.8-0.3-1.5-0.6-2.3-1c-0.8-0.3-1.5-0.6-2.3-0.9
		c-1-0.4-1.9-0.8-2.9-1.1c-0.6-0.2-1.1-0.4-1.7-0.6c-1.2-0.4-2.4-0.9-3.5-1.3c-0.4-0.1-0.7-0.3-1.1-0.4c-1.4-0.5-2.7-0.9-4.1-1.4
		c-0.2-0.1-0.4-0.1-0.6-0.2c-1.5-0.5-3-1-4.6-1.4c-0.1,0-0.1,0-0.2-0.1c-9.8-2.9-19.8-5.1-29.9-6.5c0,0-0.1,0-0.1,0
		c-1.6-0.2-3.2-0.4-4.8-0.6c-0.2,0-0.3,0-0.5-0.1c-1.5-0.2-3-0.3-4.5-0.5c-0.3,0-0.7-0.1-1-0.1c-1.3-0.1-2.7-0.2-4-0.3
		c-0.5,0-1.1-0.1-1.7-0.1c-1.2-0.1-2.3-0.2-3.5-0.2c-0.9,0-1.7-0.1-2.6-0.1c-0.9,0-1.7-0.1-2.6-0.1c-1.7,0-3.5-0.1-5.3-0.1
		c-1.8,0-3.5,0-5.3,0.1c-0.9,0-1.7,0.1-2.6,0.1c-0.9,0-1.7,0.1-2.6,0.1c-1.2,0.1-2.3,0.1-3.5,0.2c-0.6,0-1.1,0.1-1.7,0.1
		c-1.3,0.1-2.7,0.2-4,0.3c-0.3,0-0.7,0.1-1,0.1c-1.5,0.1-3,0.3-4.5,0.5c-0.2,0-0.3,0-0.5,0.1c-1.6,0.2-3.2,0.4-4.8,0.6
		c0,0-0.1,0-0.1,0c-10.1,1.5-20.1,3.6-29.9,6.5c-0.1,0-0.1,0-0.2,0.1c-1.5,0.5-3.1,0.9-4.6,1.4c-0.2,0.1-0.4,0.1-0.6,0.2
		c-1.4,0.4-2.7,0.9-4.1,1.4c-0.4,0.1-0.7,0.3-1.1,0.4c-1.2,0.4-2.4,0.8-3.5,1.3c-0.6,0.2-1.1,0.4-1.7,0.6c-1,0.4-1.9,0.8-2.9,1.1
		c-0.8,0.3-1.5,0.6-2.3,0.9c-0.8,0.3-1.5,0.6-2.3,1c-1,0.4-1.9,0.8-2.9,1.3c-0.5,0.2-1.1,0.5-1.6,0.7c-1.1,0.5-2.3,1.1-3.4,1.6
		c-0.3,0.2-0.7,0.3-1,0.5c-1.3,0.6-2.6,1.3-3.9,1.9c-0.2,0.1-0.4,0.2-0.5,0.3c-1.4,0.7-2.8,1.5-4.2,2.2c0,0-0.1,0.1-0.1,0.1
		c-9,4.9-17.6,10.4-25.8,16.5c0,0-0.1,0-0.1,0.1c-1.3,1-2.6,2-3.9,3c-0.1,0.1-0.3,0.2-0.4,0.3c-1.2,0.9-2.4,1.9-3.5,2.8
		c-0.3,0.2-0.5,0.4-0.8,0.6c-1,0.9-2.1,1.7-3.1,2.6c-0.4,0.4-0.8,0.7-1.2,1.1c-0.9,0.8-1.8,1.5-2.6,2.3c-0.6,0.6-1.3,1.2-1.9,1.7
		c-0.6,0.6-1.3,1.2-1.9,1.8c-1.3,1.2-2.5,2.4-3.8,3.7c0,0,104.8,24.8,187.8,107.8C393,221.2,468.5,256,468.5,256z"/>
	<g>
		<path fill="#639FD6" d="M259.2,318.4c-11.5-9.6-23.1-20-34.4-31.2c-22.1-22.1-40.8-45.2-56.5-67.4C94.7,232.4,43.5,256,43.5,256
			s95.2,62.4,212.5,62.4C257.1,318.4,258.2,318.4,259.2,318.4z"/>
		<path fill="#4064AF" d="M266.4,468.3c1.2-0.1,2.3-0.1,3.5-0.2c0.6,0,1.1-0.1,1.7-0.1c1.3-0.1,2.7-0.2,4-0.3c0.3,0,0.7-0.1,1-0.1
			c1.5-0.1,3-0.3,4.5-0.5c0.2,0,0.3,0,0.5-0.1c1.6-0.2,3.2-0.4,4.8-0.6c0,0,0.1,0,0.1,0c10.1-1.5,20.1-3.6,29.9-6.5
			c0.1,0,0.1,0,0.2-0.1c1.5-0.5,3.1-0.9,4.6-1.4c0.2-0.1,0.4-0.1,0.6-0.2c1.4-0.4,2.7-0.9,4.1-1.4c0.4-0.1,0.7-0.3,1.1-0.4
			c1.2-0.4,2.4-0.8,3.5-1.3c0.6-0.2,1.1-0.4,1.7-0.6c1-0.4,1.9-0.8,2.9-1.1c0.8-0.3,1.5-0.6,2.3-0.9c0.8-0.3,1.5-0.6,2.3-1
			c1-0.4,1.9-0.8,2.9-1.3c0.5-0.2,1.1-0.5,1.6-0.7c1.1-0.5,2.3-1.1,3.4-1.6c0.3-0.2,0.7-0.3,1-0.5c1.3-0.6,2.6-1.3,3.9-1.9
			c0.2-0.1,0.4-0.2,0.5-0.3c1.4-0.7,2.8-1.5,4.2-2.2c0,0,0.1-0.1,0.1-0.1c9-4.9,17.6-10.4,25.8-16.5c0,0,0.1,0,0.1-0.1
			c1.3-1,2.6-2,3.9-3c0.1-0.1,0.3-0.2,0.4-0.3c1.2-0.9,2.4-1.9,3.5-2.8c0.3-0.2,0.5-0.4,0.8-0.6c1-0.9,2.1-1.7,3.1-2.6
			c0.4-0.4,0.8-0.7,1.2-1.1c0.9-0.8,1.8-1.5,2.6-2.3c0.6-0.6,1.3-1.2,1.9-1.7c0.6-0.6,1.3-1.2,1.9-1.8c1.3-1.2,2.5-2.4,3.8-3.7
			c0,0-73.5-27-147.1-87.9c-1.1,0-2.2,0-3.2,0C138.6,318.4,43.5,256,43.5,256c0,1.8,0,3.5,0.1,5.3c0,0.9,0.1,1.7,0.1,2.6
			c0,0.9,0.1,1.7,0.1,2.6c0.1,1.2,0.1,2.3,0.2,3.5c0,0.6,0.1,1.1,0.1,1.7c0.1,1.3,0.2,2.7,0.3,4c0,0.3,0.1,0.7,0.1,1
			c0.1,1.5,0.3,3,0.5,4.5c0,0.2,0,0.3,0.1,0.5c0.2,1.6,0.4,3.2,0.6,4.8c0,0,0,0.1,0,0.1c1.5,10.1,3.6,20.1,6.5,29.9
			c0,0.1,0,0.1,0.1,0.2c0.5,1.5,0.9,3.1,1.4,4.6c0.1,0.2,0.1,0.4,0.2,0.6c0.4,1.4,0.9,2.7,1.4,4.1c0.1,0.4,0.3,0.7,0.4,1.1
			c0.4,1.2,0.8,2.4,1.3,3.5c0.2,0.6,0.4,1.1,0.6,1.7c0.4,1,0.8,1.9,1.1,2.9c0.3,0.8,0.6,1.5,0.9,2.3c0.3,0.8,0.6,1.5,1,2.3
			c0.4,1,0.8,1.9,1.3,2.9c0.2,0.5,0.5,1.1,0.7,1.6c0.5,1.1,1.1,2.3,1.6,3.4c0.2,0.3,0.3,0.7,0.5,1c0.6,1.3,1.3,2.6,1.9,3.9
			c0.1,0.2,0.2,0.4,0.3,0.5c0.7,1.4,1.5,2.8,2.2,4.2c0,0,0.1,0.1,0.1,0.1c4.9,9,10.4,17.6,16.5,25.8c0,0,0,0.1,0.1,0.1
			c1,1.3,2,2.6,3,3.9c0.1,0.1,0.2,0.3,0.3,0.4c0.9,1.2,1.9,2.4,2.8,3.5c0.2,0.3,0.4,0.5,0.6,0.8c0.9,1,1.7,2.1,2.6,3.1
			c0.4,0.4,0.7,0.8,1.1,1.2c0.8,0.9,1.5,1.8,2.3,2.6c0.6,0.6,1.2,1.3,1.7,1.9c0.6,0.6,1.2,1.3,1.8,1.9c1.2,1.3,2.4,2.5,3.7,3.8
			c1.2,1.2,2.5,2.5,3.8,3.7c0.6,0.6,1.3,1.2,1.9,1.8c0.6,0.6,1.2,1.2,1.9,1.7c0.9,0.8,1.7,1.6,2.6,2.3c0.4,0.4,0.8,0.7,1.2,1.1
			c1,0.9,2.1,1.8,3.1,2.6c0.3,0.2,0.5,0.4,0.8,0.6c1.2,1,2.3,1.9,3.5,2.8c0.1,0.1,0.3,0.2,0.4,0.3c1.3,1,2.6,2,3.9,3
			c0,0,0.1,0,0.1,0.1c8.2,6.1,16.8,11.6,25.8,16.5c0,0,0.1,0.1,0.1,0.1c1.4,0.8,2.8,1.5,4.2,2.2c0.2,0.1,0.4,0.2,0.5,0.3
			c1.3,0.7,2.6,1.3,3.9,1.9c0.3,0.2,0.7,0.3,1,0.5c1.1,0.5,2.3,1.1,3.4,1.6c0.5,0.2,1.1,0.5,1.6,0.7c1,0.4,1.9,0.8,2.9,1.3
			c0.8,0.3,1.5,0.6,2.3,1c0.8,0.3,1.5,0.6,2.3,0.9c1,0.4,1.9,0.8,2.9,1.1c0.6,0.2,1.1,0.4,1.7,0.6c1.2,0.4,2.4,0.9,3.5,1.3
			c0.4,0.1,0.7,0.3,1.1,0.4c1.4,0.5,2.7,0.9,4.1,1.4c0.2,0.1,0.4,0.1,0.6,0.2c1.5,0.5,3,1,4.6,1.4c0.1,0,0.1,0,0.2,0.1
			c9.8,2.9,19.8,5.1,29.9,6.5c0,0,0.1,0,0.1,0c1.6,0.2,3.2,0.4,4.8,0.6c0.2,0,0.3,0,0.5,0.1c1.5,0.2,3,0.3,4.5,0.5
			c0.3,0,0.7,0.1,1,0.1c1.3,0.1,2.7,0.2,4,0.3c0.5,0,1.1,0.1,1.7,0.1c1.2,0.1,2.3,0.2,3.5,0.2c0.9,0,1.7,0.1,2.6,0.1
			c0.9,0,1.7,0.1,2.6,0.1c1.7,0,3.5,0.1,5.3,0.1c1.8,0,3.5,0,5.3-0.1c0.9,0,1.7-0.1,2.6-0.1C264.7,468.4,265.6,468.3,266.4,468.3z"
			/>
	</g>
	<path fill="#0D1529" d="M293.5,213.6c-12.2-0.9-24.7-1.5-37.5-1.5c-31.2,0-60.9,3.1-87.6,7.7c15.6,22.1,34.4,45.3,56.5,67.4
		c11.3,11.3,22.8,21.7,34.4,31.2c38-0.3,72.6-6.5,102.2-14.8C344.5,274.1,322.2,242.2,293.5,213.6L293.5,213.6z"/>
	<g>
		<path fill="#125FAC" d="M168.4,219.8c26.7-4.6,56.4-7.7,87.6-7.7c12.8,0,25.3,0.5,37.5,1.5c-83-83-187.8-107.8-187.8-107.8
			S125.2,158.7,168.4,219.8z"/>
		<path fill="#0E1D43" d="M293.5,213.6L293.5,213.6c28.7,28.7,51,60.6,67.9,90c65.7-18.4,107.1-47.6,107.1-47.6
			S393,221.2,293.5,213.6z"/>
	</g>
	<path fill="#498ECC" d="M224.9,287.1c-22.1-22.1-40.8-45.2-56.5-67.4c-43.2-61-62.7-114.1-62.7-114.1c-1.2,1.2-2.5,2.5-3.7,3.8
		c-0.6,0.6-1.2,1.3-1.8,1.9c-0.6,0.6-1.2,1.2-1.7,1.9c-0.8,0.9-1.6,1.7-2.3,2.6c-0.4,0.4-0.7,0.8-1.1,1.2c-0.9,1-1.8,2.1-2.6,3.1
		c-0.2,0.3-0.4,0.5-0.6,0.8c-1,1.2-1.9,2.3-2.8,3.5c-0.1,0.1-0.2,0.3-0.3,0.4c-1,1.3-2,2.6-3,3.9c0,0,0,0.1-0.1,0.1
		c-6.1,8.2-11.6,16.8-16.5,25.8c0,0-0.1,0.1-0.1,0.1c-0.8,1.4-1.5,2.8-2.2,4.2c-0.1,0.2-0.2,0.4-0.3,0.5c-0.7,1.3-1.3,2.6-1.9,3.9
		c-0.2,0.3-0.3,0.7-0.5,1c-0.5,1.1-1.1,2.3-1.6,3.4c-0.2,0.5-0.5,1.1-0.7,1.6c-0.4,1-0.8,1.9-1.3,2.9c-0.3,0.8-0.6,1.5-1,2.3
		c-0.3,0.8-0.6,1.5-0.9,2.3c-0.4,1-0.8,1.9-1.1,2.9c-0.2,0.6-0.4,1.1-0.6,1.7c-0.4,1.2-0.9,2.4-1.3,3.5c-0.1,0.4-0.3,0.7-0.4,1.1
		c-0.5,1.4-0.9,2.7-1.4,4.1c-0.1,0.2-0.1,0.4-0.2,0.6c-0.5,1.5-1,3-1.4,4.6c0,0.1,0,0.1-0.1,0.2c-2.9,9.8-5.1,19.8-6.5,29.9
		c0,0,0,0.1,0,0.1c-0.2,1.6-0.4,3.2-0.6,4.8c0,0.2,0,0.3-0.1,0.5c-0.2,1.5-0.3,3-0.5,4.5c0,0.3-0.1,0.7-0.1,1
		c-0.1,1.3-0.2,2.7-0.3,4c0,0.5-0.1,1.1-0.1,1.7c-0.1,1.2-0.1,2.3-0.2,3.5c0,0.9-0.1,1.7-0.1,2.6c0,0.9-0.1,1.7-0.1,2.6
		c0,1.7-0.1,3.5-0.1,5.3c0,0,95.2,62.4,212.5,62.4c1.1,0,2.2,0,3.2,0C247.7,308.8,236.1,298.4,224.9,287.1z"/>
	<path fill="#365DAB" d="M361.5,303.6c-29.6,8.3-64.2,14.5-102.2,14.8c-1.1,0-2.2,0-3.2,0C138.6,318.4,43.5,256,43.5,256
		c0,1.8,0,3.5,0.1,5.3c0,0.9,0.1,1.7,0.1,2.6c0,0.9,0.1,1.7,0.1,2.6c0.1,1.2,0.1,2.3,0.2,3.5c0,0.6,0.1,1.1,0.1,1.7
		c0.1,1.3,0.2,2.7,0.3,4c0,0.3,0.1,0.7,0.1,1c0.1,1.5,0.3,3,0.5,4.5c0,0.2,0,0.3,0.1,0.5c0.2,1.6,0.4,3.2,0.6,4.8c0,0,0,0.1,0,0.1
		c1.5,10.1,3.6,20.1,6.5,29.9c0,0.1,0,0.1,0.1,0.2c0.5,1.5,0.9,3.1,1.4,4.6c0.1,0.2,0.1,0.4,0.2,0.6c0.4,1.4,0.9,2.7,1.4,4.1
		c0.1,0.4,0.3,0.7,0.4,1.1c0.4,1.2,0.8,2.4,1.3,3.5c0.2,0.6,0.4,1.1,0.6,1.7c0.4,1,0.8,1.9,1.1,2.9c0.3,0.8,0.6,1.5,0.9,2.3
		c0.3,0.8,0.6,1.5,1,2.3c0.4,1,0.8,1.9,1.3,2.9c0.2,0.5,0.5,1.1,0.7,1.6c0.5,1.1,1.1,2.3,1.6,3.4c0.2,0.3,0.3,0.7,0.5,1
		c0.6,1.3,1.3,2.6,1.9,3.9c0.1,0.2,0.2,0.4,0.3,0.5c0.7,1.4,1.5,2.8,2.2,4.2c0,0,0.1,0.1,0.1,0.1c4.9,9,10.4,17.6,16.5,25.8
		c0,0,0,0.1,0.1,0.1c1,1.3,2,2.6,3,3.9c0.1,0.1,0.2,0.3,0.3,0.4c0.9,1.2,1.9,2.4,2.8,3.5c0.2,0.3,0.4,0.5,0.6,0.8
		c0.9,1,1.7,2.1,2.6,3.1c0.4,0.4,0.7,0.8,1.1,1.2c0.8,0.9,1.5,1.8,2.3,2.6c0.6,0.6,1.2,1.3,1.7,1.9c0.6,0.6,1.2,1.3,1.8,1.9
		c1.2,1.3,2.4,2.5,3.7,3.8c1.2,1.2,2.5,2.5,3.8,3.7c0.6,0.6,1.3,1.2,1.9,1.8c0.6,0.6,1.2,1.2,1.9,1.7c0.9,0.8,1.7,1.6,2.6,2.3
		c0.4,0.4,0.8,0.7,1.2,1.1c1,0.9,2.1,1.8,3.1,2.6c0.3,0.2,0.5,0.4,0.8,0.6c1.2,1,2.3,1.9,3.5,2.8c0.1,0.1,0.3,0.2,0.4,0.3
		c1.3,1,2.6,2,3.9,3c0,0,0.1,0,0.1,0.1c8.2,6.1,16.8,11.6,25.8,16.5c0,0,0.1,0.1,0.1,0.1c1.4,0.8,2.8,1.5,4.2,2.2
		c0.2,0.1,0.4,0.2,0.5,0.3c1.3,0.7,2.6,1.3,3.9,1.9c0.3,0.2,0.7,0.3,1,0.5c1.1,0.5,2.3,1.1,3.4,1.6c0.5,0.2,1.1,0.5,1.6,0.7
		c1,0.4,1.9,0.8,2.9,1.3c0.8,0.3,1.5,0.6,2.3,1c0.8,0.3,1.5,0.6,2.3,0.9c1,0.4,1.9,0.8,2.9,1.1c0.6,0.2,1.1,0.4,1.7,0.6
		c1.2,0.4,2.4,0.9,3.5,1.3c0.4,0.1,0.7,0.3,1.1,0.4c1.4,0.5,2.7,0.9,4.1,1.4c0.2,0.1,0.4,0.1,0.6,0.2c1.5,0.5,3,1,4.6,1.4
		c0.1,0,0.1,0,0.2,0.1c9.8,2.9,19.8,5.1,29.9,6.5c0,0,0.1,0,0.1,0c1.6,0.2,3.2,0.4,4.8,0.6c0.2,0,0.3,0,0.5,0.1
		c1.5,0.2,3,0.3,4.5,0.5c0.3,0,0.7,0.1,1,0.1c1.3,0.1,2.7,0.2,4,0.3c0.5,0,1.1,0.1,1.7,0.1c1.2,0.1,2.3,0.1,3.5,0.2
		c0.9,0,1.7,0.1,2.6,0.1c0.9,0,1.7,0.1,2.6,0.1c1.7,0,3.5,0.1,5.3,0.1s3.5,0,5.3-0.1c0.9,0,1.7-0.1,2.6-0.1c0.9,0,1.7-0.1,2.6-0.1
		c1.2-0.1,2.3-0.1,3.5-0.2c0.6,0,1.1-0.1,1.7-0.1c1.3-0.1,2.7-0.2,4-0.3c0.3,0,0.7-0.1,1-0.1c1.5-0.1,3-0.3,4.5-0.5
		c0.2,0,0.3,0,0.5-0.1c1.6-0.2,3.2-0.4,4.8-0.6c0,0,0.1,0,0.1,0c10.1-1.5,20.1-3.6,29.9-6.5c0.1,0,0.1,0,0.2-0.1
		c1.5-0.5,3.1-0.9,4.6-1.4c0.2-0.1,0.4-0.1,0.6-0.2c1.4-0.4,2.7-0.9,4.1-1.4c0.4-0.1,0.7-0.3,1.1-0.4c1.2-0.4,2.4-0.8,3.5-1.3
		c0.6-0.2,1.1-0.4,1.7-0.6c1-0.4,1.9-0.8,2.9-1.1c0.8-0.3,1.5-0.6,2.3-0.9c0.8-0.3,1.5-0.6,2.3-1c1-0.4,1.9-0.8,2.9-1.3
		c0.5-0.2,1.1-0.5,1.6-0.7c1.1-0.5,2.3-1.1,3.4-1.6c0.3-0.2,0.7-0.3,1-0.5c1.3-0.6,2.6-1.3,3.9-1.9c0.2-0.1,0.4-0.2,0.5-0.3
		c1.4-0.7,2.8-1.5,4.2-2.2c0,0,0.1-0.1,0.1-0.1c9-4.9,17.6-10.4,25.8-16.5c0,0,0.1,0,0.1-0.1c1.3-1,2.6-2,3.9-3
		c0.1-0.1,0.3-0.2,0.4-0.3c1.2-0.9,2.4-1.9,3.5-2.8c0.3-0.2,0.5-0.4,0.8-0.6c1-0.9,2.1-1.7,3.1-2.6c0.4-0.4,0.8-0.7,1.2-1.1
		c0.9-0.8,1.8-1.5,2.6-2.3c0.6-0.6,1.3-1.2,1.9-1.7c0.6-0.6,1.3-1.2,1.9-1.8c1.3-1.2,2.5-2.4,3.8-3.7c1.2-1.2,2.5-2.5,3.7-3.8
		c0.6-0.6,1.2-1.3,1.8-1.9c0.6-0.6,1.2-1.2,1.7-1.9c0.8-0.9,1.6-1.7,2.3-2.6c0.4-0.4,0.7-0.8,1.1-1.2c0.9-1,1.8-2.1,2.6-3.1
		c0.2-0.3,0.4-0.5,0.6-0.8c1-1.2,1.9-2.3,2.8-3.5c0.1-0.1,0.2-0.3,0.3-0.4c1-1.3,2-2.6,3-3.9c0,0,0-0.1,0.1-0.1
		c6.1-8.2,11.6-16.8,16.5-25.8c0,0,0.1-0.1,0.1-0.1c0.8-1.4,1.5-2.8,2.2-4.2c0.1-0.2,0.2-0.4,0.3-0.5c0.7-1.3,1.3-2.6,1.9-3.9
		c0.2-0.3,0.3-0.7,0.5-1c0.5-1.1,1.1-2.3,1.6-3.4c0.2-0.5,0.5-1.1,0.7-1.6c0.4-1,0.8-1.9,1.3-2.9c0.3-0.8,0.6-1.5,1-2.3
		c0.3-0.8,0.6-1.5,0.9-2.3c0.4-1,0.8-1.9,1.1-2.9c0.2-0.6,0.4-1.1,0.6-1.7c0.4-1.2,0.9-2.4,1.3-3.5c0.1-0.4,0.3-0.7,0.4-1.1
		c0.5-1.4,0.9-2.7,1.4-4.1c0.1-0.2,0.1-0.4,0.2-0.6c0.5-1.5,1-3,1.4-4.6c0-0.1,0-0.1,0.1-0.2c2.9-9.8,5.1-19.8,6.5-29.9
		c0,0,0-0.1,0-0.1c0.2-1.6,0.4-3.2,0.6-4.8c0-0.2,0-0.3,0.1-0.5c0.2-1.5,0.3-3,0.5-4.5c0-0.3,0.1-0.7,0.1-1c0.1-1.3,0.2-2.7,0.3-4
		c0-0.5,0.1-1.1,0.1-1.7c0.1-1.2,0.1-2.3,0.2-3.5c0-0.9,0.1-1.7,0.1-2.6c0-0.9,0.1-1.7,0.1-2.6c0-1.7,0.1-3.5,0.1-5.3
		C468.5,256,427.2,285.1,361.5,303.6z"/>
	<circle opacity="0.4" fill="#95B8E1" cx="256" cy="256" r="166.7"/>
</g>
</svg>
