<?xml version="1.0" encoding="utf-8"?>
<!-- Generator: Adobe Illustrator 22.0.1, SVG Export Plug-In . SVG Version: 6.00 Build 0)  -->
<svg version="1.1" id="Layer_3" xmlns="http://www.w3.org/2000/svg" xmlns:xlink="http://www.w3.org/1999/xlink" x="0px" y="0px"
	 viewBox="0 0 512 512" enable-background="new 0 0 512 512" xml:space="preserve">
<linearGradient id="SVGID_1_" gradientUnits="userSpaceOnUse" x1="26" y1="256" x2="486" y2="256">
	<stop  offset="0" style="stop-color:#F7F7F7"/>
	<stop  offset="1" style="stop-color:#F7F7F7"/>
</linearGradient>
<circle fill="url(#SVGID_1_)" cx="256" cy="256" r="230"/>
<g>
	<g>
		<path fill="#B200DD" d="M485.997,255.771c-0.009-8.907-0.539-17.691-1.533-26.335c-5.599,5.095-49.954,39.322-231.101,39.322
			c-115.953,0-213.894-41.281-224.948-46.107c-1.566,10.783-2.395,21.805-2.411,33.019c0,0.174-0.002,0.348-0.002,0.522
			C26.107,383.13,129.039,486,256,486c126.929,0,229.841-102.82,229.996-229.712C485.996,256.115,485.997,255.943,485.997,255.771z"
			/>
		<path fill="#E600FF" d="M485.997,255.771c-0.009-8.814-0.528-17.507-1.502-26.063c-8.924,12.815-113.482,156.7-231.132,39.05
			C113.057,128.452,39.498,207.079,28.748,220.384c-1.788,11.503-2.727,23.287-2.744,35.287c0,0.174-0.002,0.348-0.002,0.522
			C26.107,383.13,129.039,486,256,486c126.929,0,229.841-102.82,229.996-229.712C485.996,256.115,485.997,255.943,485.997,255.771z"
			/>
	</g>
	<g>
		<circle fill="#B200DD" cx="393.469" cy="183.64" r="26.741"/>
		<circle fill="#B200DD" cx="337.352" cy="241.265" r="15.065"/>
		<circle fill="#E600FF" cx="313.692" cy="188.228" r="22.289"/>
		<circle fill="#E600FF" cx="128.58" cy="173.471" r="7.533"/>
		<circle fill="#E600FF" cx="104.972" cy="127.146" r="13.182"/>
		<circle fill="#E600FF" cx="345.446" cy="126.44" r="23.16"/>
		<circle fill="#B200DD" cx="225.844" cy="127.146" r="18.831"/>
		<circle fill="#B200DD" cx="335.981" cy="103.28" r="15.065"/>
		<circle fill="#E600FF" cx="225.844" cy="208.284" r="13.182"/>
		<circle fill="#E600FF" cx="225.844" cy="140.328" r="7.533"/>
		<circle fill="#B200DD" cx="209.156" cy="186.439" r="21.844"/>
	</g>
</g>
<path opacity="0.7" fill="#FFFFFF" enable-background="new    " d="M87.339,99.646c37.323,30.027,102.985,45.053,168.671,45.053
	c65.679,0,131.334-15.023,168.659-45.044c-6.187-6.672-12.763-12.975-19.696-18.875c-13.369,9.962-31.826,18.424-54.207,24.759
	c-28.104,7.955-60.87,12.159-94.756,12.159s-66.652-4.205-94.756-12.159c-22.387-6.337-40.849-14.802-54.219-24.767
	C100.103,86.672,93.527,92.974,87.339,99.646z"/>
</svg>
