<?xml version="1.0" encoding="utf-8"?>
<!-- Generator: Adobe Illustrator 18.0.0, SVG Export Plug-In . SVG Version: 6.00 Build 0)  -->
<!DOCTYPE svg PUBLIC "-//W3C//DTD SVG 1.1//EN" "http://www.w3.org/Graphics/SVG/1.1/DTD/svg11.dtd">
<svg version="1.1" id="Layer_1" xmlns="http://www.w3.org/2000/svg" xmlns:xlink="http://www.w3.org/1999/xlink" x="0px" y="0px"
	 viewBox="0 0 512 512" style="enable-background:new 0 0 512 512;" xml:space="preserve">
<path id="path236_1_" style="opacity:0.4;" d="M310.326,205.125c-32.676,0-21.781-82.733,36.306-82.733
	C404.721,122.392,342.998,205.125,310.326,205.125 M336.003,342.554c-6.227,33.002-39.505,59.053-68.357,59.053
	c-58.648,0-114.855-68.2-103.87-117.359c16.231-72.682,158.754-86.984,166.572-40.532c9.417,55.961-133.463,76.395-79.662,117.357
	c16.901,12.867,34.157,3.011,31.544-16.95C280.048,327.471,340.757,317.388,336.003,342.554 M150.997,192.598
	c21.041-14.531,31.821,38.747,19.448,44.193C158.071,242.235,129.965,207.13,150.997,192.598 M194.579,156.318
	c26.27-10.839,25.462,49.585,10.732,52.588C190.591,211.913,168.306,167.16,194.579,156.318 M253.968,132.719
	c32.7-4.243,13.611,63.217-3.787,62.154C232.776,193.81,221.28,136.962,253.968,132.719 M257,32
	C129.974,32,27.001,134.975,27.001,261.999C27.001,389.026,129.974,492,257,492C384.025,492,487,389.026,487,261.999
	C487,134.975,384.025,32,257,32"/>
<linearGradient id="path236_2_" gradientUnits="userSpaceOnUse" x1="93.3656" y1="418.6344" x2="418.6344" y2="93.3656">
	<stop  offset="0" style="stop-color:#009CBF"/>
	<stop  offset="1" style="stop-color:#00E984"/>
</linearGradient>
<path id="path236" style="fill:url(#path236_2_);" d="M309.326,199.125c-32.676,0-21.781-82.733,36.306-82.733
	C403.721,116.392,341.998,199.125,309.326,199.125 M335.003,336.554c-6.227,33.002-39.505,59.053-68.357,59.053
	c-58.648,0-114.855-68.2-103.87-117.359c16.231-72.682,158.754-86.984,166.572-40.532c9.417,55.961-133.463,76.395-79.662,117.357
	c16.901,12.867,34.157,3.011,31.544-16.95C279.048,321.471,339.757,311.388,335.003,336.554 M149.997,186.598
	c21.041-14.531,31.821,38.747,19.448,44.193C157.071,236.235,128.965,201.13,149.997,186.598 M193.579,150.318
	c26.27-10.839,25.462,49.585,10.732,52.588C189.591,205.913,167.306,161.16,193.579,150.318 M252.968,126.719
	c32.7-4.243,13.611,63.217-3.787,62.154C231.776,187.81,220.28,130.962,252.968,126.719 M256,26
	C128.974,26,26.001,128.975,26.001,255.999C26.001,383.026,128.974,486,256,486C383.025,486,486,383.026,486,255.999
	C486,128.975,383.025,26,256,26"/>
</svg>
