<?xml version="1.0" encoding="utf-8"?>
<!-- Generator: Adobe Illustrator 22.0.1, SVG Export Plug-In . SVG Version: 6.00 Build 0)  -->
<svg version="1.1" id="Layer_1" xmlns="http://www.w3.org/2000/svg" xmlns:xlink="http://www.w3.org/1999/xlink" x="0px" y="0px"
	 viewBox="0 0 512 512" style="enable-background:new 0 0 512 512;" xml:space="preserve">
<style type="text/css">
	.st0{fill:#825E46;}
	.st1{fill:url(#SVGID_1_);}
	.st2{fill:url(#SVGID_2_);}
	.st3{fill:url(#SVGID_3_);}
	.st4{opacity:0.4;enable-background:new    ;}
	.st5{fill:#FF5D15;}
	.st6{fill:#FFFFFF;}
</style>
<g>
	<path class="st0" d="M411,486H101c-41.2,0-75-33.8-75-75V101c0-41.2,33.8-75,75-75h310c41.2,0,75,33.8,75,75v310
		C486,452.2,452.2,486,411,486z"/>
	<g>
		
			<linearGradient id="SVGID_1_" gradientUnits="userSpaceOnUse" x1="256" y1="70.986" x2="256" y2="286.728" gradientTransform="matrix(1 0 0 -1 0 514)">
			<stop  offset="0" style="stop-color:#825E46"/>
			<stop  offset="0.3286" style="stop-color:#73523C"/>
			<stop  offset="0.9622" style="stop-color:#4B3423"/>
			<stop  offset="1" style="stop-color:#483221"/>
		</linearGradient>
		<polygon class="st1" points="68.9,443 256,227.3 443.1,443 		"/>
		
			<linearGradient id="SVGID_2_" gradientUnits="userSpaceOnUse" x1="220.708" y1="258" x2="447.57" y2="258" gradientTransform="matrix(1 0 0 -1 0 514)">
			<stop  offset="0" style="stop-color:#483221"/>
			<stop  offset="0.3122" style="stop-color:#563D2A"/>
			<stop  offset="0.9016" style="stop-color:#7B5942"/>
			<stop  offset="1" style="stop-color:#825E46"/>
		</linearGradient>
		<polygon class="st2" points="447.6,445.4 220.7,256 447.6,66.6 		"/>
		
			<linearGradient id="SVGID_3_" gradientUnits="userSpaceOnUse" x1="64.43" y1="258" x2="291.292" y2="258" gradientTransform="matrix(1 0 0 -1 0 514)">
			<stop  offset="0" style="stop-color:#825E46"/>
			<stop  offset="9.840000e-02" style="stop-color:#7B5942"/>
			<stop  offset="0.6878" style="stop-color:#563D2A"/>
			<stop  offset="1" style="stop-color:#483221"/>
		</linearGradient>
		<polygon class="st3" points="64.4,445.4 291.3,256 64.4,66.6 		"/>
	</g>
</g>
<g>
	<circle class="st4" cx="256" cy="258.3" r="135.5"/>
	<circle class="st5" cx="256" cy="253.7" r="135.5"/>
	<g>
		<path class="st6" d="M269.2,253.4c-0.3-0.3-0.7-0.2-1.1-0.2c-7.3,0-14.6,0-21.9,0c-0.4,0-0.8,0-1.1,0.2c-0.3,0.5-0.5,1-0.8,1.5
			c-2.2,3.7-4.5,7.4-6.8,11.1c-1.8,2.9-3.6,5.7-5.2,8.6c-0.3,0.6-0.4,0.9,0.4,0.8c0.2,0,0.4,0,0.5,0c15.8,0,31.6,0,47.4-0.1
			c0.5,0,1,0,1.7,0c-1.3-2.1-2.5-4.1-3.6-6.1C275.5,263.9,272.3,258.7,269.2,253.4z"/>
		<path class="st6" d="M246.1,245.8c0.3-0.4,0.1-0.7-0.3-0.9c-3.7-2.4-7.3-4.7-11-7.1c-0.5-0.3-0.8-0.3-1.1,0.3
			c-0.8,1.5-1.7,2.9-2.5,4.3c-2.5,4.2-5.1,8.5-7.6,12.7c-0.4,0.6-0.7,1.3-1.1,1.9c-4.4,7.5-8.9,15-13.3,22.5c-0.6,1-1.2,2-1.8,3.1
			c-0.1,0.2-0.4,0.4,0,0.7c3.6,2.4,7.2,4.8,10.7,7.3c0.7,0.5,0.8,0,1-0.4c6-9.9,12-19.9,18-29.8
			C240.2,255.5,243.1,250.6,246.1,245.8z"/>
		<path class="st6" d="M251.6,211.4c3.2,7.5,6.6,14.9,10.2,22.2c0,0.1,0.1,0.1,0.1,0.2c0,0.1,0,0.2,0.1,0.2c0,0.1,0.1,0.1,0.1,0.2
			c0,0.1,0,0.2,0.1,0.2c0,0.1,0.1,0.1,0.1,0.2c0,0.1,0.1,0.2,0.1,0.2c0,0.1,0.1,0.1,0.1,0.2c0,0.1,0.1,0.2,0.1,0.2
			c0.8,1.6,1.6,3.2,2.4,4.7l0,0c0.1,0.1,0.1,0.1,0.2,0.2c0,0.1,0,0.3,0.1,0.4c0.1,0.1,0.1,0.2,0.2,0.3c0,0,0,0.1,0,0.1
			c0.1,0.1,0.1,0.2,0.2,0.3c0,0,0,0.1,0,0.1c0.1,0.1,0.1,0.2,0.2,0.3c0,0,0,0.1,0,0.1c0.7,0.7,1,1.6,1.4,2.5
			c3.9,7.2,7.8,14.4,12.3,21.2c0.8,1.2,0.8,1.2,2.1,0.5c2.2-1.3,4.4-2.6,6.7-3.9c0.7-0.4,0.7-0.7,0.4-1.4c-1.4-2.6-2.7-5.3-4.1-7.9
			c-1.6-3-3.2-6-4.8-8.9c-5.9-10.9-11.7-21.7-18.3-32.2c-2.2-3.5-4.5-6.9-7.3-9.9c-1-1.1-2.2-2.1-3.7-2.7c-1.3-0.5-2.1,0-2.1,1.4
			c0,0.4,0,0.7,0.1,1.1C249.1,205.1,250.3,208.3,251.6,211.4z"/>
		<path class="st6" d="M313.4,253.4c-0.2,0-0.4-0.1-0.5-0.1c-7.9,0-15.8,0-23.6,0c-0.3,0-0.7-0.1-0.9,0.2c0.3,0.6,0.5,1.2,0.8,1.7
			c3.1,6.4,6.3,12.8,9.4,19.3c0.3,0.6,0.6,0.7,1.2,0.7c4.2,0,8.4-0.1,12.6,0c1,0,1.2-0.3,1.1-1.2
			C313.4,267.2,313.4,260.3,313.4,253.4z"/>
		<path class="st6" d="M206.7,275.5c0.8,0,1.2-0.3,1.6-0.9c1.8-3.1,3.6-6.1,5.4-9.1c2.4-4,4.8-7.9,7.2-11.9c-0.3-0.4-0.7-0.2-1-0.2
			c-2,0-4,0-6,0c-4.8,0-9.5-0.1-14.3-0.1c-0.4,0-0.9-0.2-1.1,0.4c0,0.5,0,1,0,1.5c0,6.4,0,12.8,0,19.2c0,0.9,0.2,1.2,1.2,1.2
			C202.1,275.4,204.4,275.4,206.7,275.5z"/>
		<path class="st6" d="M308.2,294.2c-2.8-4.8-6-9.4-9.5-13.8c-0.6-0.7-1-0.7-1.7-0.2c-1.9,1.2-3.9,2.3-5.8,3.4
			c-0.3,0.2-0.4,0.2-0.3,0.6c1.3,3.9,2.6,7.9,4.2,11.7c1.5,3.6,3.1,7.1,5.3,10.3c1,1.5,2.4,2.3,3.8,2.3c3.3,0,6-1.7,7.3-4.2
			c0.7-1.5,0.7-3-0.1-4.4C310.3,298,309.3,296.1,308.2,294.2z"/>
		<path class="st6" d="M296.6,276.5c-2.1-4.1-4.1-8.2-6.2-12.4c-0.1-0.2-0.2-0.5-0.5-0.4c-0.1,0.1-0.2,0.1-0.3,0.2
			c-2.5,1.5-5.1,3-7.6,4.4c-0.6,0.3-0.4,0.7-0.2,1.1c2.4,3.9,4.7,7.8,7.1,11.7c0.3,0.5,0.5,0.6,1,0.2c2.1-1.3,4.2-2.6,6.4-3.9
			C296.7,277.2,296.9,277,296.6,276.5z"/>
		<path class="st6" d="M201.1,306.7c0.1,0,0.1,0.1,0.2,0.1c5.3-4.4,10.5-8.7,15.9-13.2c-3.8-2.6-7.6-5.2-11.4-7.9
			C204.2,292.8,202.7,299.8,201.1,306.7z"/>
		<path class="st6" d="M235.7,236.2c0.4,0.1,0.7,0.4,1,0.6c3.2,2.1,6.4,4.3,9.7,6.4c0.3,0.2,0.6,0.7,1,0c2.1-3.5,4.2-6.9,6.3-10.4
			c0.1-0.1,0.2-0.2,0.2-0.3c0-0.2-0.2-0.3-0.3-0.4c-3.6-2.4-7.3-4.8-10.9-7.2c-0.4-0.2-0.6-0.3-0.9,0.2c-2.1,3.4-4.2,6.9-6.4,10.3
			C235.1,235.7,235.2,236,235.7,236.2z"/>
		<path class="st6" d="M243.4,223.5c3.1,2,6.2,4,9.3,6c2,1.3,2,1.3,2.8-1c0.5-1.4,0.9-2.9,0.1-4.4c-1.6-2.9-4.1-4.5-7.2-4.8
			c-2.6,0-4.1,1.3-5.2,3.2C242.9,223.1,243,223.2,243.4,223.5z"/>
	</g>
</g>
</svg>
