<?xml version="1.0" encoding="utf-8"?>
<!-- Generator: Adobe Illustrator 22.0.1, SVG Export Plug-In . SVG Version: 6.00 Build 0)  -->
<svg version="1.1" id="Layer_1" xmlns="http://www.w3.org/2000/svg" xmlns:xlink="http://www.w3.org/1999/xlink" x="0px" y="0px"
	 viewBox="0 0 512 512" style="enable-background:new 0 0 512 512;" xml:space="preserve">
<style type="text/css">
	.st0{fill:#825E46;}
	.st1{fill:url(#SVGID_1_);}
	.st2{fill:url(#SVGID_2_);}
	.st3{fill:url(#SVGID_3_);}
	.st4{enable-background:new    ;}
	.st5{opacity:0.5;fill:#E2E0E0;enable-background:new    ;}
	.st6{fill:#FFFFFF;}
	.st7{opacity:0.5;fill:#FFFFFF;enable-background:new    ;}
	.st8{fill:#F7F7F7;}
</style>
<g>
	<path class="st0" d="M411,486H101c-41.2,0-75-33.8-75-75V101c0-41.2,33.8-75,75-75h310c41.2,0,75,33.8,75,75v310
		C486,452.2,452.2,486,411,486z"/>
	<g>
		
			<linearGradient id="SVGID_1_" gradientUnits="userSpaceOnUse" x1="256" y1="70.986" x2="256" y2="286.728" gradientTransform="matrix(1 0 0 -1 0 514)">
			<stop  offset="0" style="stop-color:#825E46"/>
			<stop  offset="0.3286" style="stop-color:#73523C"/>
			<stop  offset="0.9622" style="stop-color:#4B3423"/>
			<stop  offset="1" style="stop-color:#483221"/>
		</linearGradient>
		<polygon class="st1" points="68.9,443 256,227.3 443.1,443 		"/>
		
			<linearGradient id="SVGID_2_" gradientUnits="userSpaceOnUse" x1="220.708" y1="258" x2="447.57" y2="258" gradientTransform="matrix(1 0 0 -1 0 514)">
			<stop  offset="0" style="stop-color:#483221"/>
			<stop  offset="0.3122" style="stop-color:#563D2A"/>
			<stop  offset="0.9016" style="stop-color:#7B5942"/>
			<stop  offset="1" style="stop-color:#825E46"/>
		</linearGradient>
		<polygon class="st2" points="447.6,445.4 220.7,256 447.6,66.6 		"/>
		
			<linearGradient id="SVGID_3_" gradientUnits="userSpaceOnUse" x1="64.43" y1="258" x2="291.292" y2="258" gradientTransform="matrix(1 0 0 -1 0 514)">
			<stop  offset="0" style="stop-color:#825E46"/>
			<stop  offset="9.840000e-02" style="stop-color:#7B5942"/>
			<stop  offset="0.6878" style="stop-color:#563D2A"/>
			<stop  offset="1" style="stop-color:#483221"/>
		</linearGradient>
		<polygon class="st3" points="64.4,445.4 291.3,256 64.4,66.6 		"/>
	</g>
</g>
<g>
	<g>
		<g class="st4">
			<path class="st5" d="M256,226.1c-25.3,0-45.9,20.6-45.9,45.9s20.6,45.9,45.9,45.9s45.9-20.6,45.9-45.9S281.3,226.1,256,226.1z
				 M256,295.5c-13,0-23.5-10.6-23.5-23.5c0-13,10.6-23.5,23.5-23.5c13,0,23.5,10.6,23.5,23.5S269,295.5,256,295.5z"/>
			<path class="st6" d="M256,248.5c-13,0-23.5,10.6-23.5,23.5s10.6,23.5,23.5,23.5c13,0,23.5-10.6,23.5-23.5S269,248.5,256,248.5z
				 M256,293c-11.6,0-21-9.4-21-21s9.4-21,21-21s21,9.4,21,21S267.6,293,256,293z"/>
		</g>
	</g>
	<g>
		<g class="st4">
			<g>
				<path class="st6" d="M256,224.2c-26.4,0-47.8,21.4-47.8,47.8s21.4,47.8,47.8,47.8s47.8-21.4,47.8-47.8S282.4,224.2,256,224.2z
					 M256,316.9c-24.7,0-44.9-20.1-44.9-44.9c0-24.7,20.1-44.9,44.9-44.9s44.9,20.1,44.9,44.9C300.9,296.7,280.7,316.9,256,316.9z"
					/>
				<path class="st7" d="M336.1,191.9c-21.4-21.4-49.9-33.2-80.1-33.2c-30.3,0-58.7,11.8-80.1,33.2s-33.2,49.9-33.2,80.1
					s11.8,58.7,33.2,80.1s49.9,33.2,80.1,33.2s58.7-11.8,80.1-33.2c21.4-21.4,33.2-49.9,33.2-80.1
					C369.3,241.7,357.5,213.3,336.1,191.9z M334,350c-20.8,20.8-48.6,32.3-78,32.3s-57.2-11.5-78-32.3s-32.3-48.6-32.3-78
					c0-29.5,11.5-57.2,32.3-78s48.6-32.3,78-32.3c29.5,0,57.2,11.5,78,32.3s32.3,48.6,32.3,78C366.4,301.5,354.9,329.2,334,350z"/>
			</g>
			<path class="st8" d="M334,194c-20.8-20.8-48.6-32.3-78-32.3s-57.2,11.5-78,32.3s-32.3,48.6-32.3,78c0,29.5,11.5,57.2,32.3,78
				s48.6,32.3,78,32.3s57.2-11.5,78-32.3s32.3-48.6,32.3-78C366.4,242.5,354.9,214.8,334,194z M256,319.8
				c-26.4,0-47.8-21.4-47.8-47.8s21.4-47.8,47.8-47.8s47.8,21.4,47.8,47.8S282.4,319.8,256,319.8z"/>
		</g>
	</g>
</g>
</svg>
