<?xml version="1.0" encoding="utf-8"?>
<!-- Generator: Adobe Illustrator 22.0.1, SVG Export Plug-In . SVG Version: 6.00 Build 0)  -->
<svg version="1.1" id="Layer_1" xmlns="http://www.w3.org/2000/svg" xmlns:xlink="http://www.w3.org/1999/xlink" x="0px" y="0px"
	 viewBox="0 0 512 512" enable-background="new 0 0 512 512" xml:space="preserve">
<g>
	<path fill="#BC0808" d="M411,175.8H101c-41.4,0-75-33.5-75-74.9c0,0,0,0.1,0,0.1v310c0,41.4,33.6,75,75,75h310
		c41.4,0,75-33.6,75-75V250.8v0C486,209.4,452.4,175.8,411,175.8z"/>
	<g>
		<path fill="#AD0000" d="M411,26H101h-0.1C59.6,25.8,26,59.4,26,100.8v0c0,0,0,0.1,0,0.1c0,41.4,33.6,74.9,75,74.9h310
			c41.4,0,75,33.6,75,75V101C486,59.6,452.4,26,411,26z"/>
	</g>
	<path opacity="0.2" d="M100.6,76l0.1,0c0.1,0,0.1,0,0.2,0h0.1h310c13.8,0,25,11.2,25,25v27.3c-8.1-1.6-16.5-2.5-25-2.5H101
		c-13.8,0-25-11.2-25-25c0-0.1,0-0.2,0-0.3c0.1-8.8,4.6-14.7,7.3-17.4C86,80.5,91.8,76,100.6,76C100.6,76,100.6,76,100.6,76
		 M100.6,26C59.4,26,26,59.5,26,100.8v0c0,0,0,0.1,0,0.1c0,41.4,33.6,74.9,75,74.9h310c41.4,0,75,33.6,75,75V101
		c0-41.4-33.6-75-75-75H101h-0.1C100.8,26,100.7,26,100.6,26L100.6,26z"/>
	<path opacity="0.2" d="M100.6,51l0.2,0c0,0,0.1,0,0.1,0h0.1h310c27.6,0,50,22.4,50,50v63.3c-14.7-8.5-31.8-13.4-50-13.4H101
		c-27.5,0-50-22.4-50-49.9c0-0.1,0-0.2,0-0.3c0.1-13.2,5.2-25.7,14.6-35.1C74.9,56.2,87.4,51,100.6,51C100.6,51,100.6,51,100.6,51
		 M100.6,26C59.4,26,26,59.5,26,100.8v0c0,0,0,0.1,0,0.1c0,41.4,33.6,74.9,75,74.9h310c41.4,0,75,33.6,75,75V101
		c0-41.4-33.6-75-75-75H101h-0.1C100.8,26,100.7,26,100.6,26L100.6,26z"/>
</g>
<g opacity="0.4">
	<polygon points="256,241.8 154.2,418.1 256,330 357.8,418.1 	"/>
	<polygon points="321.8,418.1 299.1,398.4 212.9,398.4 190.2,418.1 	"/>
	<polygon points="256,361.1 226.5,386.7 285.5,386.7 	"/>
</g>
</svg>
