<?xml version="1.0" encoding="utf-8"?>
<!-- Generator: Adobe Illustrator 22.0.1, SVG Export Plug-In . SVG Version: 6.00 Build 0)  -->
<svg version="1.1" id="Layer_1" xmlns="http://www.w3.org/2000/svg" xmlns:xlink="http://www.w3.org/1999/xlink" x="0px" y="0px"
	 viewBox="0 0 512 512" enable-background="new 0 0 512 512" xml:space="preserve">
<path fill="#0068FF" d="M446,486H66c-22,0-40-18-40-40V66c0-22,18-40,40-40h380c22,0,40,18,40,40v380C486,468,468,486,446,486z"/>
<g>
	<rect x="387.1" y="326" fill="#3B97D3" width="98.9" height="70"/>
	<rect x="387.1" y="256" fill="#69C186" width="98.9" height="70"/>
	<rect x="387.1" y="186" fill="#F0C519" width="98.9" height="70"/>
	<rect x="387.1" y="116" fill="#E74D3D" width="98.9" height="70"/>
</g>
<path fill="#009EFF" d="M374,486H66c-22,0-40-18-40-40V66c0-22,18-40,40-40h308c22.1,0,40,17.9,40,40v380
	C414,468.1,396.1,486,374,486z"/>
<g>
	<path fill="#FFFFFF" d="M183.68,231.818h-33.889l-6.443,19.329h-20.553l34.92-93.808h17.911l35.114,93.808h-20.553L183.68,231.818z
		 M155.009,216.162h23.452l-11.791-35.113L155.009,216.162z"/>
	<path fill="#FFFFFF" d="M258.675,251.147c-0.86-1.675-1.481-3.758-1.868-6.25c-4.51,5.025-10.374,7.538-17.589,7.538
		c-6.83,0-12.489-1.975-16.977-5.927c-4.489-3.952-6.732-8.934-6.732-14.948c0-7.387,2.738-13.057,8.214-17.009
		c5.477-3.952,13.39-5.949,23.742-5.992h8.569v-3.995c0-3.221-0.828-5.798-2.48-7.731c-1.654-1.933-4.263-2.899-7.828-2.899
		c-3.136,0-5.595,0.752-7.377,2.255c-1.783,1.504-2.674,3.565-2.674,6.185h-18.62c0-4.037,1.246-7.773,3.737-11.21
		c2.491-3.436,6.013-6.131,10.566-8.086c4.552-1.954,9.665-2.932,15.334-2.932c8.59,0,15.409,2.159,20.456,6.475
		c5.047,4.317,7.57,10.384,7.57,18.201v30.217c0.043,6.615,0.967,11.619,2.771,15.012v1.095h-18.814V251.147z M243.276,238.197
		c2.748,0,5.283-0.612,7.603-1.836c2.319-1.225,4.037-2.867,5.154-4.929v-11.983h-6.958c-9.321,0-14.282,3.221-14.883,9.664
		l-0.064,1.095c0,2.32,0.815,4.231,2.448,5.734C238.208,237.446,240.441,238.197,243.276,238.197z"/>
</g>
<g>
	<path fill="#FFFFFF" d="M157.872,304.65c0-1.697-0.081-3.477-0.323-5.176h4.205c4.043-2.102,7.117-4.205,10.028-6.873h-25.313
		c-3.639,0-5.904,0.16-8.411,0.484v-8.814c2.345,0.322,4.69,0.404,8.411,0.404h29.518c3.073,0,4.61-0.082,6.227-0.324l4.286,5.418
		c-2.103,1.779-2.103,1.779-3.235,2.75c-6.065,5.258-10.675,8.654-16.579,12.051v0.566h21.35c3.882,0,7.198-0.162,9.866-0.486v9.139
		c-2.588-0.324-6.146-0.484-9.866-0.484h-21.35v14.232c0,6.955-2.668,9.139-11.484,9.139c-2.75,0-5.822-0.162-9.785-0.484
		c-0.485-3.154-0.809-4.207-2.588-8.574c4.125,0.566,8.491,0.971,11.322,0.971s3.72-0.564,3.72-2.184v-13.1h-22.24
		c-3.72,0-7.117,0.16-9.866,0.484v-9.139c2.912,0.324,6.146,0.486,9.866,0.486h22.24L157.872,304.65L157.872,304.65z
		 M156.578,268.906c0-2.428-0.081-4.207-0.404-6.146h9.866c-0.323,1.859-0.404,3.639-0.404,6.146v1.777h22.078
		c4.125,0,6.146-0.08,9.219-0.322c-0.243,2.021-0.324,3.721-0.324,6.389v6.551c0,2.264,0.162,4.205,0.405,6.146h-8.896v-10.756
		h-52.566v10.756h-8.896c0.323-1.861,0.404-3.641,0.404-6.146v-6.551c0-2.588-0.081-4.447-0.404-6.389
		c3.073,0.242,5.256,0.322,9.3,0.322h20.622L156.578,268.906L156.578,268.906z"/>
	<path fill="#FFFFFF" d="M236.396,323.008c-5.176,4.529-7.925,6.471-12.374,8.977c-4.448,2.508-7.359,3.803-13.263,5.742
		c-2.103-4.123-3.235-5.58-5.984-8.248c6.065-1.375,8.977-2.346,13.182-4.367c4.287-2.021,6.712-3.721,11.403-7.521L236.396,323.008
		z M230.412,270.604c0-3.881-0.081-5.418-0.485-7.359h9.058c-0.404,2.184-0.485,3.479-0.485,7.439v2.023h9.381v-2.023
		c0-4.123-0.081-5.498-0.485-7.439h9.139c-0.485,2.346-0.566,3.721-0.566,7.359v2.104h10.514c3.882,0,6.227-0.082,7.926-0.244
		c-0.243,1.699-0.324,3.803-0.324,6.875v29.6c3.073-0.082,4.367-0.162,6.47-0.486v9.221c-2.588-0.324-5.499-0.486-9.543-0.486
		h-55.72c-3.963,0-7.036,0.162-9.462,0.486v-9.221c2.103,0.324,3.396,0.404,6.389,0.486v-29.68c0-2.832-0.081-4.771-0.323-6.795
		c2.345,0.162,4.367,0.244,7.844,0.244h10.675v-2.104H230.412z M230.412,280.713h-9.462v9.705h9.462V280.713z M230.412,298.182
		h-9.462v10.756h9.462V298.182z M247.88,290.418v-9.705h-9.381v9.705H247.88z M247.88,308.938v-10.756h-9.381v10.756H247.88z
		 M254.673,317.59c4.61,3.559,6.955,5.014,11.16,7.035c4.853,2.346,8.169,3.479,14.719,4.934c-2.588,3.234-3.154,4.125-5.257,8.572
		c-6.308-1.859-9.704-3.314-14.638-6.064c-4.448-2.508-7.116-4.367-12.535-8.896L254.673,317.59z M265.348,290.418v-9.705h-9.381
		v9.705H265.348z M265.348,308.938v-10.756h-9.381v10.756H265.348z"/>
</g>
</svg>
