<?xml version="1.0" encoding="utf-8"?>
<!-- Generator: Adobe Illustrator 18.0.0, SVG Export Plug-In . SVG Version: 6.00 Build 0)  -->
<!DOCTYPE svg PUBLIC "-//W3C//DTD SVG 1.1//EN" "http://www.w3.org/Graphics/SVG/1.1/DTD/svg11.dtd">
<svg version="1.1" id="Layer_1" xmlns="http://www.w3.org/2000/svg" xmlns:xlink="http://www.w3.org/1999/xlink" x="0px" y="0px"
	 viewBox="0 0 512 512" style="enable-background:new 0 0 512 512;" xml:space="preserve">
<g>
	<g>
		<rect x="73.9" y="454.497" style="fill:#7D929E;" width="31.495" height="31.495"/>
		<rect x="406.605" y="454.497" style="fill:#7D929E;" width="31.495" height="31.495"/>
	</g>
	<g>
		<polygon style="fill:#F6F7F7;" points="437.187,88.019 406.763,57.495 105.395,57.495 73.438,88.019 42.718,88.019 
			42.718,450.451 469.898,450.451 469.898,88.019 		"/>
		<polygon style="fill:#7D929E;" points="406.684,361.917 406.684,393.218 105.316,393.218 105.316,361.917 42.102,361.917 
			42.102,454.497 469.898,454.497 469.898,361.917 		"/>
	</g>
	<g>
		<rect x="42.102" y="88.475" style="fill:#665662;" width="31.495" height="334.699"/>
		<rect x="438.403" y="88.475" style="fill:#665662;" width="31.495" height="334.699"/>
	</g>
	<g>
		<rect x="105.419" y="454.505" style="fill:#665662;" width="301.368" height="31.495"/>
		<rect x="105.213" y="26" style="fill:#665662;" width="301.368" height="31.495"/>
	</g>
	<g>
		<rect x="73.9" y="57.001" style="fill:#665662;" width="31.495" height="31.495"/>
		<rect x="406.605" y="57.001" style="fill:#665662;" width="31.495" height="31.495"/>
	</g>
	<g>
		<rect x="73.9" y="423.001" style="fill:#665662;" width="31.495" height="31.495"/>
		<rect x="406.605" y="423.001" style="fill:#665662;" width="31.495" height="31.495"/>
	</g>
	<g>
		<path style="fill:#665662;" d="M185.318,271.369h-10.911c-5.609,0-10.156-4.547-10.156-10.156V159.047
			c0-5.609,4.547-10.156,10.156-10.156h10.911c5.609,0,10.156,4.547,10.156,10.156v102.166
			C195.474,266.822,190.927,271.369,185.318,271.369z"/>
		<path style="fill:#665662;" d="M337.594,271.369h-10.911c-5.609,0-10.156-4.547-10.156-10.156V159.047
			c0-5.609,4.547-10.156,10.156-10.156h10.911c5.609,0,10.156,4.547,10.156,10.156v102.166
			C347.749,266.822,343.202,271.369,337.594,271.369z"/>
	</g>
</g>
</svg>
