<?xml version="1.0" encoding="utf-8"?>
<!-- Generator: Adobe Illustrator 18.0.0, SVG Export Plug-In . SVG Version: 6.00 Build 0)  -->
<!DOCTYPE svg PUBLIC "-//W3C//DTD SVG 1.1//EN" "http://www.w3.org/Graphics/SVG/1.1/DTD/svg11.dtd">
<svg version="1.1" id="Layer_1" xmlns="http://www.w3.org/2000/svg" xmlns:xlink="http://www.w3.org/1999/xlink" x="0px" y="0px"
	 viewBox="0 0 512 512" style="enable-background:new 0 0 512 512;" xml:space="preserve">
<g>
	<path style="fill:#F05E24;" d="M126.293,287.832c0,6.054,2.017,10.787,6.054,14.194c4.035,3.411,9.219,5.114,15.551,5.114
		c6.054,0,11.794-1.564,17.221-4.697c5.427-3.13,9.357-7.201,11.794-12.211v-23.168h-15.134
		C138.12,267.064,126.293,273.988,126.293,287.832z"/>
	<path style="fill:#F05E24;" d="M256,26C128.975,26,26,128.975,26,256c0,72.327,33.395,136.844,85.596,179.007L82.155,486H256
		c127.025,0,230-102.974,230-230S383.025,26,256,26z M200.186,321.856h-20.248c-1.114-2.225-2.019-6.192-2.713-11.897
		c-8.977,9.324-19.692,13.984-32.146,13.984c-11.133,0-20.265-3.147-27.396-9.444c-7.133-6.298-10.698-14.282-10.698-23.954
		c0-11.757,4.47-20.89,13.412-27.395c8.94-6.506,21.516-9.76,37.729-9.76h18.787v-8.871c0-6.748-2.019-12.123-6.054-16.125
		c-4.036-4-9.986-6.001-17.847-6.001c-6.889,0-12.664,1.739-17.326,5.219c-4.662,3.479-6.992,7.689-6.992,12.628H109.28
		c0-5.635,1.999-11.079,6.002-16.333c4-5.253,9.427-9.41,16.281-12.472c6.853-3.061,14.385-4.593,22.596-4.593
		c13.01,0,23.204,3.254,30.58,9.759c7.375,6.507,11.202,15.464,11.481,26.876v51.976c0,10.368,1.321,18.612,3.967,24.735V321.856z
		 M299.439,314.812c-8.071,6.088-18.543,9.131-31.415,9.131c-9.043,0-17.047-1.601-24.005-4.8s-12.403-7.671-16.333-13.411
		c-3.932-5.74-5.897-11.95-5.897-18.63h19.308c0.348,6.47,2.939,11.603,7.775,15.394c4.835,3.794,11.22,5.687,19.151,5.687
		c7.307,0,13.167-1.477,17.587-4.434c4.418-2.958,6.627-6.906,6.627-11.847c0-5.217-1.967-9.269-5.897-12.158
		c-3.932-2.886-10.785-5.376-20.561-7.463c-9.776-2.087-17.533-4.591-23.273-7.514c-5.741-2.923-9.986-6.401-12.734-10.437
		c-2.749-4.035-4.122-8.836-4.122-14.402c0-9.253,3.914-17.081,11.741-23.484c7.828-6.4,17.829-9.602,30.007-9.602
		c12.8,0,23.184,3.307,31.152,9.915c7.968,6.611,11.95,15.065,11.95,25.362h-19.411c0-5.288-2.244-9.845-6.733-13.673
		c-4.487-3.825-10.142-5.74-16.958-5.74c-7.03,0-12.525,1.532-16.492,4.593c-3.965,3.062-5.949,7.062-5.949,12.002
		c0,4.662,1.843,8.176,5.532,10.541c3.687,2.367,10.348,4.629,19.986,6.784c9.635,2.157,17.447,4.732,23.431,7.725
		c5.984,2.992,10.419,6.593,13.307,10.801c2.886,4.211,4.331,9.341,4.331,15.394C311.546,300.634,307.51,308.724,299.439,314.812z
		 M407.564,321.856l-39.346-52.289l-12.107,12.628v39.661h-19.308v-160.31h19.308v96.96l10.331-12.421l35.174-37.155h23.482
		l-43.939,47.174l49.052,65.753H407.564z"/>
</g>
</svg>
