<?xml version="1.0" encoding="utf-8"?>
<!-- Generator: Adobe Illustrator 18.0.0, SVG Export Plug-In . SVG Version: 6.00 Build 0)  -->
<!DOCTYPE svg PUBLIC "-//W3C//DTD SVG 1.1//EN" "http://www.w3.org/Graphics/SVG/1.1/DTD/svg11.dtd">
<svg version="1.1" id="Layer_1" xmlns="http://www.w3.org/2000/svg" xmlns:xlink="http://www.w3.org/1999/xlink" x="0px" y="0px"
	 viewBox="0 0 512 512" style="enable-background:new 0 0 512 512;" xml:space="preserve">
<g>
	<g>
		<g>
			<g>
				<g style="enable-background:new    ;">
					<path style="opacity:0.5;fill:#E1DFDF;enable-background:new    ;" d="M256,203.236c-44.922,0-81.469,36.547-81.469,81.469
						s36.547,81.469,81.469,81.469s81.469-36.547,81.469-81.469S300.922,203.236,256,203.236z M256,326.49
						c-23.041,0-41.785-18.744-41.785-41.785S232.959,242.92,256,242.92s41.785,18.744,41.785,41.785S279.041,326.49,256,326.49z"/>
					<path style="fill:#FFFFFF;" d="M256,242.92c-23.041,0-41.785,18.744-41.785,41.785c0,23.041,18.744,41.785,41.785,41.785
						s41.785-18.744,41.785-41.785S279.041,242.92,256,242.92z M256,322.091c-20.615,0-37.387-16.772-37.387-37.387
						c0-20.615,16.772-37.387,37.387-37.387c20.615,0,37.387,16.771,37.387,37.387C293.387,305.319,276.615,322.091,256,322.091z"/>
				</g>
			</g>
			<g>
				<g style="enable-background:new    ;">
					<g>
						<path style="fill:#FFFFFF;" d="M255.999,199.717c-46.938,0-84.987,38.049-84.987,84.987s38.049,84.988,84.987,84.988
							s84.987-38.049,84.987-84.988S302.937,199.717,255.999,199.717z M255.999,364.414c-43.953,0-79.709-35.758-79.709-79.709
							s35.758-79.709,79.709-79.709s79.709,35.758,79.709,79.709C335.709,328.657,299.952,364.414,255.999,364.414z"/>
						<path style="opacity:0.5;fill:#FFFFFF;enable-background:new    ;" d="M398.336,142.368
							c-38.019-38.019-88.569-58.957-142.337-58.957c-53.767,0-104.316,20.938-142.337,58.957
							c-38.018,38.019-58.957,88.569-58.957,142.337s20.938,104.318,58.958,142.337C151.682,465.062,202.231,486,256,486
							s104.318-20.938,142.337-58.958c38.02-38.019,58.958-88.568,58.958-142.337C457.293,230.936,436.354,180.387,398.336,142.368z
							 M394.605,423.309c-37.022,37.023-86.246,57.412-138.605,57.412s-101.583-20.389-138.605-57.412
							s-57.412-86.247-57.412-138.604c0-52.357,20.389-101.583,57.411-138.605c37.023-37.022,86.246-57.411,138.605-57.411
							s101.583,20.389,138.605,57.411s57.411,86.246,57.413,138.605C452.017,337.062,431.627,386.285,394.605,423.309z"/>
					</g>
					<path style="fill:#FF24A1;" d="M394.604,146.1c-37.022-37.022-86.246-57.411-138.605-57.411S154.417,109.078,117.394,146.1
						c-37.021,37.022-57.411,86.246-57.411,138.605s20.389,101.583,57.412,138.605c37.022,37.023,86.246,57.412,138.605,57.412
						s101.583-20.389,138.605-57.412c37.023-37.022,57.412-86.246,57.412-138.605C452.015,232.346,431.626,183.122,394.604,146.1z
						 M255.999,369.692c-46.938,0-84.987-38.049-84.987-84.988s38.049-84.987,84.987-84.987s84.987,38.049,84.987,84.987
						S302.937,369.692,255.999,369.692z"/>
				</g>
			</g>
		</g>
	</g>
	<path style="fill:#FFFFFF;" d="M365.079,165.409c-7.432-7.433-19.483-7.433-26.917,0c-0.209,0.209-0.389,0.434-0.587,0.649
		l-62.525,62.525V45.389h-0.017c0.093-4.989-1.751-10.007-5.558-13.814c-7.432-7.433-19.483-7.433-26.917,0
		c-3.807,3.807-5.651,8.825-5.558,13.814h-0.017v183.175l-63.062-63.062c-0.029-0.031-0.054-0.064-0.085-0.094
		c-7.432-7.433-19.483-7.433-26.917,0c-7.431,7.432-7.432,19.48-0.003,26.913l-0.005,0.005l82.193,82.193l-0.005,0.005l7.884,7.884
		v0.01h0.01l14.754,14.754l0.229,0.229c1.055,0.999,2.471,1.621,4.039,1.621c1.568,0,2.983-0.622,4.039-1.621l0.231-0.23
		l14.754-14.754h0.01v-0.001l90.073-90.073l-0.033-0.032C372.512,184.878,372.508,172.837,365.079,165.409z"/>
</g>
</svg>
