<?xml version="1.0" encoding="utf-8"?>
<!-- Generator: Adobe Illustrator 18.0.0, SVG Export Plug-In . SVG Version: 6.00 Build 0)  -->
<!DOCTYPE svg PUBLIC "-//W3C//DTD SVG 1.1//EN" "http://www.w3.org/Graphics/SVG/1.1/DTD/svg11.dtd">
<svg version="1.1" id="Layer_1" xmlns="http://www.w3.org/2000/svg" xmlns:xlink="http://www.w3.org/1999/xlink" x="0px" y="0px"
	 viewBox="0 0 512 512" enable-background="new 0 0 512 512" xml:space="preserve">
<g>
	<g>
		<g id="Layer_2_1_">
			<path fill="#EFEFEF" d="M352.8,128.1c-1.7-7.1-7-12.7-14-14.8l-22.7-6.7l-51.5-15.1L242,84.9c-7-2.1-14.5-0.2-19.8,4.9
				l-73.4,71.1c-2.5,2.4-4.3,5.5-5.3,8.8L74.9,403.2c-3.1,10.7,3,21.9,13.7,25.1l71,20.9l51.5,15.1l71,20.9
				c10.7,3.1,21.9-3,25.1-13.7L375.8,238c1-3.4,1.1-6.9,0.3-10.3L352.8,128.1z M281.8,179.5c-27.8,6.2-45-25.2-24.7-45.2
				c2.6-2.6,5.9-4.4,9.5-5.2c27.8-6.2,45,25.2,24.7,45.2C288.7,176.9,285.4,178.7,281.8,179.5z"/>
		</g>
		<path fill="#996030" d="M333.7,97.6c-4.5-5.7-11.7-8.6-18.9-7.5l-23.4,3.6l-53,8.1l-23.4,3.6c-7.2,1.1-13.2,6-15.8,12.8
			l-36.4,95.5c-1.2,3.3-1.6,6.8-1.1,10.2l36.7,240.6c1.7,11,12,18.6,23,16.9l73.2-11.2l53-8.1l73.2-11.2c11-1.7,18.6-12,16.9-23
			L401,187.3c-0.5-3.5-1.9-6.7-4.1-9.5L333.7,97.6z M291.1,174.1c-22.6,17.4-51.4-3.8-41.5-30.5c1.3-3.4,3.5-6.5,6.4-8.7
			c22.6-17.4,51.4,3.8,41.5,30.5C296.3,168.8,294,171.9,291.1,174.1z"/>
	</g>
	<path fill="#52140F" d="M292.2,93.5c-6.7-20.7-17.8-43.6-32.2-64.8c-1.9-2.8-5.7-3.5-8.5-1.6c-2.8,1.9-3.5,5.7-1.6,8.5
		c3.4,5.1,6.6,10.2,9.6,15.3c-1.2-1.3-2.9-2.1-4.8-2c-3.4,0.1-6,3-5.8,6.3c0.5,11.8,0.6,22.6,0.7,32.1l12.2,3.6
		c0-10.5-0.2-22.6-0.7-36.1c0-0.6-0.1-1.1-0.3-1.7c8.3,14.6,14.7,29.2,19.1,42.5c4.8,14.3,7.3,27.2,7.4,37.1
		c0.1,6.4-0.8,11.6-2.7,15.1c-1.6,3-3.6,4.3-6.7,4.3c0,0,0,0,0,0c-10.7,0-14.3-3.2-15.5-20.7c-4.5,2.3-8.4,6-10.9,10.6
		c2.7,14.8,9.5,22.2,26.4,22.2c0,0,0,0,0,0c7.6,0,13.8-3.8,17.5-10.7c1.1-2.2,2-4.6,2.7-7.3C301.2,133.1,298.9,114.3,292.2,93.5z"/>
</g>
</svg>
