<?xml version="1.0" encoding="utf-8"?>
<!-- Generator: Adobe Illustrator 18.0.0, SVG Export Plug-In . SVG Version: 6.00 Build 0)  -->
<!DOCTYPE svg PUBLIC "-//W3C//DTD SVG 1.1//EN" "http://www.w3.org/Graphics/SVG/1.1/DTD/svg11.dtd">
<svg version="1.1" id="Layer_1" xmlns="http://www.w3.org/2000/svg" xmlns:xlink="http://www.w3.org/1999/xlink" x="0px" y="0px"
	 viewBox="0 0 512 512" enable-background="new 0 0 512 512" xml:space="preserve">
<g>
	
		<linearGradient id="SVGID_1_" gradientUnits="userSpaceOnUse" x1="37.5884" y1="403.7491" x2="510.2868" y2="83.9823" gradientTransform="matrix(1 0 0 -1 0 512)">
		<stop  offset="0" style="stop-color:#121212"/>
		<stop  offset="1" style="stop-color:#000000"/>
	</linearGradient>
	<path fill="url(#SVGID_1_)" d="M36,26h440c5.5,0,10,4.5,10,10v440c0,5.5-4.5,10-10,10H36c-5.5,0-10-4.5-10-10V36
		C26,30.5,30.5,26,36,26z"/>
	<g>
		<path fill="#1E1E1E" d="M36,26h440c5.5,0,10,4.5,10,10v88.2H26V36C26,30.5,30.5,26,36,26z"/>
	</g>
	<g>
		<g>
			<g>
				<polygon fill="#FFFFFF" points="171.1,121.8 123.5,121.8 168.3,74.6 215.9,74.6 				"/>
			</g>
			<g>
				<polygon points="218.7,121.8 171.1,121.8 215.9,74.6 263.5,74.6 				"/>
			</g>
			<g>
				<polygon fill="#FFFFFF" points="266.3,121.8 218.7,121.8 263.5,74.6 311.1,74.6 				"/>
			</g>
			<g>
				<polygon points="314,121.8 266.3,121.8 311.1,74.6 358.8,74.6 				"/>
			</g>
			<g>
				<polygon fill="#FFFFFF" points="361.6,121.8 314,121.8 358.7,74.6 406.4,74.6 				"/>
			</g>
			<g>
				<polygon points="409.2,121.8 361.6,121.8 406.4,74.6 454,74.6 				"/>
			</g>
			<g>
				<polygon fill="#FFFFFF" points="486,74.6 454,74.6 409.2,121.8 456.8,121.8 486,91.1 				"/>
			</g>
		</g>
		<g>
			<g>
				<polygon fill="#FFFFFF" points="171.1,26 123.5,26 168.3,73.2 215.9,73.2 				"/>
			</g>
			<g>
				<polygon points="218.7,26 171.1,26 215.9,73.2 263.5,73.2 				"/>
			</g>
			<g>
				<polygon fill="#FFFFFF" points="266.3,26 218.7,26 263.5,73.2 311.1,73.2 				"/>
			</g>
			<g>
				<polygon points="314,26 266.3,26 311.1,73.2 358.8,73.2 				"/>
			</g>
			<g>
				<polygon fill="#FFFFFF" points="361.6,26 314,26 358.7,73.2 406.4,73.2 				"/>
			</g>
			<g>
				<polygon points="409.2,26 361.6,26 406.4,73.2 454,73.2 				"/>
			</g>
			<g>
				<polygon fill="#FFFFFF" points="486,73.2 486,56.7 456.8,26 409.2,26 454,73.2 				"/>
			</g>
		</g>
	</g>
	<g>
		<g>
			<path d="M111.1,121.8H26V36c0-5.5,4.5-10,10-10h8.6l66.5,78.9V121.8z"/>
		</g>
		<g>
			<circle fill="#636364" cx="37.8" cy="35.5" r="5.8"/>
		</g>
		<g>
			<circle fill="#636364" cx="38.2" cy="110.7" r="5.8"/>
		</g>
		<g>
			<circle fill="#636364" cx="91.6" cy="110.7" r="5.8"/>
		</g>
	</g>
</g>
<g>
	<g>
		<g>
			<rect x="46.1" y="198.4" fill="#FFFFFF" width="419.7" height="1"/>
		</g>
		<g>
			<rect x="46.1" y="323.6" fill="#FFFFFF" width="419.7" height="1"/>
		</g>
		<g>
			<rect x="46.1" y="376.3" fill="#FFFFFF" width="419.7" height="1"/>
		</g>
		<g>
			<rect x="46.1" y="428.3" fill="#FFFFFF" width="419.7" height="1"/>
		</g>
	</g>
	<g>
		<g>
			<rect x="174.7" y="198.9" fill="#FFFFFF" width="1" height="125.3"/>
		</g>
		<g>
			<rect x="336.3" y="198.9" fill="#FFFFFF" width="1" height="125.3"/>
		</g>
	</g>
	<g>
		<path fill="#FFFFFF" d="M51.8,159.9v9.9h11.4v-9.9h3.1v23.6h-3.1v-11.1H51.8v11.1h-3.1v-23.6H51.8z"/>
		<path fill="#FFFFFF" d="M91.9,171.5c0,8.1-4.9,12.5-11,12.5c-6.2,0-10.6-4.8-10.6-12c0-7.5,4.7-12.4,11-12.4
			C87.7,159.5,91.9,164.5,91.9,171.5z M73.5,171.9c0,5.1,2.7,9.6,7.5,9.6c4.8,0,7.6-4.5,7.6-9.8c0-4.7-2.5-9.6-7.5-9.6
			C76.1,162,73.5,166.7,73.5,171.9z"/>
		<path fill="#FFFFFF" d="M98.9,159.9v14c0,5.3,2.3,7.5,5.5,7.5c3.5,0,5.8-2.3,5.8-7.5v-14h3.1v13.8c0,7.3-3.8,10.2-8.9,10.2
			c-4.8,0-8.5-2.8-8.5-10.1v-13.9L98.9,159.9L98.9,159.9z"/>
		<path fill="#FFFFFF" d="M118.5,160.2c1.5-0.3,3.8-0.5,5.9-0.5c3.3,0,5.4,0.6,6.8,1.9c1.2,1.1,1.9,2.7,1.9,4.5c0,3.1-2,5.2-4.5,6
			v0.1c1.8,0.6,2.9,2.3,3.5,4.8c0.8,3.3,1.3,5.6,1.8,6.5h-3.2c-0.4-0.7-0.9-2.7-1.6-5.6c-0.7-3.3-2-4.5-4.7-4.6h-2.9v10.2h-3.1
			L118.5,160.2L118.5,160.2z M121.6,171h3.1c3.3,0,5.3-1.8,5.3-4.5c0-3.1-2.2-4.4-5.4-4.4c-1.5,0-2.5,0.1-3,0.3L121.6,171L121.6,171
			z"/>
	</g>
	<g>
		<path fill="#FFFFFF" d="M197.8,173.2c-0.2-3.3-0.4-7.3-0.4-10.2h-0.1c-0.8,2.8-1.8,5.7-3,9l-4.2,11.5h-2.3l-3.8-11.3
			c-1.1-3.3-2.1-6.4-2.7-9.2h-0.1c-0.1,2.9-0.2,6.9-0.5,10.5l-0.6,10.1h-2.9l1.6-23.6h3.9l4,11.4c1,2.9,1.8,5.5,2.4,8h0.1
			c0.6-2.4,1.4-5,2.5-8l4.2-11.4h3.9l1.5,23.6h-3L197.8,173.2z"/>
		<path fill="#FFFFFF" d="M209.1,159.9v23.6H206v-23.6H209.1z"/>
		<path fill="#FFFFFF" d="M214.4,183.5v-23.6h3.3l7.6,12c1.8,2.8,3.1,5.3,4.2,7.7l0.1,0c-0.3-3.2-0.4-6-0.4-9.7v-9.9h2.9v23.6h-3.1
			l-7.5-12c-1.6-2.6-3.2-5.3-4.4-7.9l-0.1,0c0.2,3,0.2,5.8,0.2,9.8v10.1L214.4,183.5L214.4,183.5z"/>
		<path fill="#FFFFFF" d="M240.6,159.9v14c0,5.3,2.4,7.5,5.5,7.5c3.5,0,5.8-2.3,5.8-7.5v-14h3.1v13.8c0,7.3-3.8,10.2-8.9,10.2
			c-4.8,0-8.5-2.8-8.5-10.1v-13.9L240.6,159.9L240.6,159.9z"/>
		<path fill="#FFFFFF" d="M264.7,162.5h-7.2v-2.6H275v2.6h-7.2v21h-3.1V162.5z"/>
		<path fill="#FFFFFF" d="M289.9,172.5h-9.2v8.5h10.2v2.6h-13.3v-23.6h12.8v2.6h-9.7v7.5h9.2L289.9,172.5L289.9,172.5z"/>
	</g>
	<g>
		<path fill="#FFFFFF" d="M339.1,179.8c1.4,0.8,3.4,1.5,5.5,1.5c3.1,0,4.9-1.6,4.9-4c0-2.2-1.3-3.5-4.5-4.7
			c-3.9-1.4-6.2-3.4-6.2-6.7c0-3.7,3.1-6.4,7.6-6.4c2.4,0,4.2,0.6,5.2,1.2l-0.8,2.5c-0.8-0.4-2.4-1.1-4.5-1.1
			c-3.2,0-4.5,1.9-4.5,3.5c0,2.2,1.4,3.3,4.7,4.6c4,1.5,6,3.5,6,6.9c0,3.6-2.7,6.8-8.3,6.8c-2.3,0-4.8-0.7-6-1.5L339.1,179.8z"/>
		<path fill="#FFFFFF" d="M369,172.5h-9.2v8.5h10.2v2.6h-13.3v-23.6h12.8v2.6h-9.7v7.5h9.2L369,172.5L369,172.5z"/>
		<path fill="#FFFFFF" d="M390.6,182.8c-1.1,0.6-3.4,1.1-6.2,1.1c-6.7,0-11.7-4.2-11.7-12c0-7.4,5-12.4,12.3-12.4
			c2.9,0,4.8,0.6,5.6,1.1l-0.7,2.5c-1.2-0.6-2.8-1-4.8-1c-5.5,0-9.2,3.5-9.2,9.8c0,5.8,3.3,9.5,9.1,9.5c1.9,0,3.8-0.4,5-1
			L390.6,182.8z"/>
		<path fill="#FFFFFF" d="M413.9,171.5c0,8.1-4.9,12.5-11,12.5c-6.2,0-10.6-4.8-10.6-12c0-7.5,4.7-12.4,11-12.4
			C409.7,159.5,413.9,164.5,413.9,171.5z M395.5,171.9c0,5.1,2.7,9.6,7.5,9.6c4.8,0,7.6-4.5,7.6-9.8c0-4.7-2.5-9.6-7.5-9.6
			C398,162,395.5,166.7,395.5,171.9z"/>
		<path fill="#FFFFFF" d="M417.8,183.5v-23.6h3.3l7.6,12c1.8,2.8,3.1,5.3,4.2,7.7l0.1,0c-0.3-3.2-0.4-6-0.4-9.7v-9.9h2.9v23.6h-3.1
			l-7.5-12c-1.6-2.6-3.2-5.3-4.4-7.9l-0.1,0c0.2,3,0.2,5.8,0.2,9.8v10.1L417.8,183.5L417.8,183.5z"/>
		<path fill="#FFFFFF" d="M440.9,160.2c1.9-0.3,4.1-0.5,6.5-0.5c4.4,0,7.5,1,9.6,2.9c2.1,1.9,3.3,4.7,3.3,8.5c0,3.9-1.2,7-3.4,9.2
			c-2.2,2.2-5.9,3.4-10.5,3.4c-2.2,0-4-0.1-5.5-0.3L440.9,160.2L440.9,160.2z M444,181.1c0.8,0.1,1.9,0.2,3.1,0.2
			c6.5,0,10.1-3.6,10.1-10c0-5.6-3.1-9.1-9.6-9.1c-1.6,0-2.8,0.1-3.6,0.3V181.1z"/>
	</g>
	<g>
		<path fill="#FFFFFF" d="M47.2,332.9c0.7-0.1,1.6-0.2,2.6-0.2c1.8,0,3,0.4,3.8,1.2c0.8,0.8,1.3,1.9,1.3,3.4c0,1.5-0.5,2.8-1.4,3.7
			c-0.9,0.9-2.3,1.4-4.2,1.4c-0.9,0-1.6,0-2.2-0.1C47.2,342.2,47.2,332.9,47.2,332.9z M48.4,341.3c0.3,0.1,0.8,0.1,1.2,0.1
			c2.6,0,4-1.5,4-4c0-2.2-1.2-3.6-3.8-3.6c-0.6,0-1.1,0.1-1.4,0.1L48.4,341.3L48.4,341.3z"/>
		<path fill="#FFFFFF" d="M57.8,332.8v9.4h-1.2v-9.4H57.8z"/>
		<path fill="#FFFFFF" d="M59.9,332.9c0.6-0.1,1.5-0.2,2.3-0.2c1.3,0,2.1,0.2,2.7,0.8c0.5,0.4,0.7,1.1,0.7,1.8
			c0,1.2-0.8,2.1-1.8,2.4v0c0.7,0.3,1.2,0.9,1.4,1.9c0.3,1.3,0.5,2.2,0.7,2.6h-1.3c-0.2-0.3-0.4-1.1-0.6-2.3
			c-0.3-1.3-0.8-1.8-1.9-1.8h-1.2v4.1h-1.2C59.9,342.3,59.9,332.9,59.9,332.9z M61.1,337.2h1.2c1.3,0,2.1-0.7,2.1-1.8
			c0-1.2-0.9-1.8-2.2-1.8c-0.6,0-1,0.1-1.2,0.1C61.1,333.8,61.1,337.2,61.1,337.2z"/>
		<path fill="#FFFFFF" d="M72.3,337.8h-3.7v3.4h4.1v1h-5.3v-9.4h5.1v1h-3.9v3h3.7L72.3,337.8L72.3,337.8z"/>
		<path fill="#FFFFFF" d="M80.9,341.9c-0.4,0.2-1.3,0.4-2.5,0.4c-2.7,0-4.7-1.7-4.7-4.8c0-3,2-5,4.9-5c1.2,0,1.9,0.3,2.2,0.4l-0.3,1
			c-0.5-0.2-1.1-0.4-1.9-0.4c-2.2,0-3.7,1.4-3.7,3.9c0,2.3,1.3,3.8,3.6,3.8c0.7,0,1.5-0.2,2-0.4L80.9,341.9z"/>
		<path fill="#FFFFFF" d="M84.6,333.8h-2.9v-1h7v1h-2.9v8.4h-1.2V333.8z"/>
		<path fill="#FFFFFF" d="M97.5,337.4c0,3.3-2,5-4.4,5c-2.5,0-4.2-1.9-4.2-4.8c0-3,1.9-5,4.4-5C95.8,332.7,97.5,334.6,97.5,337.4z
			 M90.2,337.6c0,2,1.1,3.8,3,3.8c1.9,0,3-1.8,3-3.9c0-1.9-1-3.8-3-3.8C91.2,333.6,90.2,335.5,90.2,337.6z"/>
		<path fill="#FFFFFF" d="M99.1,332.9c0.6-0.1,1.5-0.2,2.3-0.2c1.3,0,2.1,0.2,2.7,0.8c0.5,0.4,0.7,1.1,0.7,1.8
			c0,1.2-0.8,2.1-1.8,2.4v0c0.7,0.3,1.2,0.9,1.4,1.9c0.3,1.3,0.5,2.2,0.7,2.6H104c-0.2-0.3-0.4-1.1-0.6-2.3
			c-0.3-1.3-0.8-1.8-1.9-1.8h-1.1v4.1h-1.2L99.1,332.9L99.1,332.9z M100.3,337.2h1.2c1.3,0,2.1-0.7,2.1-1.8c0-1.2-0.9-1.8-2.2-1.8
			c-0.6,0-1,0.1-1.2,0.1V337.2z"/>
	</g>
	<g>
		<path fill="#FFFFFF" d="M55.2,391.6c-0.1-1.3-0.2-2.9-0.1-4.1h0c-0.3,1.1-0.7,2.3-1.2,3.6l-1.7,4.6h-0.9l-1.5-4.5
			c-0.4-1.3-0.8-2.5-1.1-3.7h0c0,1.2-0.1,2.8-0.2,4.2l-0.3,4h-1.2l0.7-9.4h1.6l1.6,4.6c0.4,1.2,0.7,2.2,1,3.2h0c0.2-1,0.6-2,1-3.2
			l1.7-4.6H56l0.6,9.4h-1.2L55.2,391.6z"/>
		<path fill="#FFFFFF" d="M66.5,390.9c0,3.3-2,5-4.4,5c-2.5,0-4.2-1.9-4.2-4.8c0-3,1.9-5,4.4-5C64.9,386.2,66.5,388.1,66.5,390.9z
			 M59.2,391.1c0,2,1.1,3.8,3,3.8c1.9,0,3-1.8,3-3.9c0-1.9-1-3.8-3-3.8C60.2,387.1,59.2,389,59.2,391.1z"/>
		<path fill="#FFFFFF" d="M70.2,395.8l-3.1-9.4h1.3l1.5,4.7c0.4,1.3,0.8,2.4,1,3.5h0c0.3-1.1,0.7-2.3,1.1-3.5l1.6-4.7h1.3l-3.4,9.4
			L70.2,395.8L70.2,395.8z"/>
		<path fill="#FFFFFF" d="M77.2,386.3v9.4h-1.2v-9.4H77.2z"/>
		<path fill="#FFFFFF" d="M84.2,391.3h-3.7v3.4h4.1v1h-5.3v-9.4h5.1v1h-3.9v3h3.7L84.2,391.3L84.2,391.3z"/>
	</g>
	<g>
		<path fill="#FFFFFF" d="M47.2,437.9c0.7-0.1,1.6-0.2,2.6-0.2c1.8,0,3,0.4,3.8,1.2c0.8,0.8,1.3,1.9,1.3,3.4c0,1.5-0.5,2.8-1.4,3.7
			c-0.9,0.9-2.3,1.4-4.2,1.4c-0.9,0-1.6,0-2.2-0.1C47.2,447.2,47.2,437.9,47.2,437.9z M48.4,446.3c0.3,0.1,0.8,0.1,1.2,0.1
			c2.6,0,4-1.5,4-4c0-2.2-1.2-3.6-3.8-3.6c-0.6,0-1.1,0.1-1.4,0.1L48.4,446.3L48.4,446.3z"/>
		<path fill="#FFFFFF" d="M57.9,444.3l-1,3h-1.3l3.2-9.4h1.5l3.2,9.4h-1.3l-1-3H57.9z M61,443.3l-0.9-2.7c-0.2-0.6-0.3-1.2-0.5-1.7
			h0c-0.1,0.6-0.3,1.1-0.5,1.7l-0.9,2.7H61z"/>
		<path fill="#FFFFFF" d="M65.6,438.8h-2.9v-1h7v1h-2.9v8.4h-1.2V438.8z"/>
		<path fill="#FFFFFF" d="M75.7,442.8H72v3.4h4.1v1h-5.3v-9.4h5.1v1H72v3h3.7L75.7,442.8L75.7,442.8z"/>
	</g>
	<g>
		<g>
			<path fill="#ED1C24" d="M61.7,256.4l-3.5,3.5l-2.1-2.1v-22l5.6,5.6V256.4z M61.7,280.6l-5.6,5.6v-21.9l2.1-2.2l3.5,3.5V280.6z
				 M86.4,234.9l-5.5,5.6H62.6l-5.5-5.6H86.4z M86.4,287.2H57.1l5.5-5.6h18.2L86.4,287.2z M87.4,257.9l-2,2.1l-3.6-3.5v-15l5.6-5.6
				C87.4,235.8,87.4,257.9,87.4,257.9z M87.4,286.2l-5.6-5.6v-15l3.6-3.5l2,2.2C87.4,264.2,87.4,286.2,87.4,286.2z"/>
		</g>
		<g>
			<path fill="#ED1C24" d="M96.4,257.9v-22l5.6,5.6v15l-3.5,3.5L96.4,257.9z M126.7,234.9l-5.5,5.6H103l-5.5-5.6H126.7z
				 M126.7,287.2H97.5l5.5-5.6h18.2L126.7,287.2z M121.9,258.2l2.8,2.8l-2.8,2.8h-19.5l-2.8-2.8l2.8-2.8H121.9z M127.8,264.2v21.9
				l-5.6-5.6v-15l3.6-3.5L127.8,264.2z"/>
		</g>
		<g>
			<path fill="#ED1C24" d="M136.8,287.2v-5.6h5.6v5.6H136.8z"/>
		</g>
	</g>
	<g>
		<g>
			<path fill="#ED1C24" d="M231.9,234.9l-5.5,5.6h-18.2l-5.5-5.6H231.9z M231.9,287.2h-29.3l5.5-5.6h18.2L231.9,287.2z M227,258.2
				l2.8,2.8l-2.8,2.8h-19.5l-2.8-2.8l2.8-2.8H227z M227.3,256.4v-15l5.6-5.6v22l-2,2.1L227.3,256.4z M232.9,264.2v21.9l-5.6-5.6v-15
				l3.6-3.5L232.9,264.2z"/>
		</g>
		<g>
			<path fill="#ED1C24" d="M241.9,257.9v-22l5.6,5.6v15L244,260L241.9,257.9z M272.2,234.9l-5.5,5.6h-18.2l-5.5-5.6H272.2z
				 M272.2,287.2H243l5.5-5.6h18.2L272.2,287.2z M267.4,258.2l2.8,2.8l-2.8,2.8h-19.5l-2.8-2.8l2.8-2.8H267.4z M273.3,264.2v21.9
				l-5.6-5.6v-15l3.6-3.5L273.3,264.2z"/>
		</g>
		<g>
			<path fill="#ED1C24" d="M282.3,287.2v-5.6h5.6v5.6H282.3z"/>
		</g>
	</g>
	<g>
		<g>
			<path fill="#ED1C24" d="M371.7,256.4l-3.5,3.5l-2.1-2.1v-22l5.6,5.6L371.7,256.4L371.7,256.4z M371.7,280.6l-5.6,5.6v-21.9
				l2.1-2.2l3.5,3.5L371.7,280.6L371.7,280.6z M396.4,234.9l-5.5,5.6h-18.2l-5.5-5.6H396.4z M396.4,287.2h-29.3l5.5-5.6h18.2
				L396.4,287.2z M397.4,257.9l-2,2.1l-3.6-3.5v-15l5.6-5.6L397.4,257.9L397.4,257.9z M397.4,286.2l-5.6-5.6v-15l3.6-3.5l2,2.2
				L397.4,286.2L397.4,286.2z"/>
		</g>
		<g>
			<path fill="#ED1C24" d="M412,265.6v15l-5.6,5.6v-21.9l2.1-2.2L412,265.6z M436.8,234.9l-5.5,5.6H413l-5.5-5.6H436.8z
				 M436.8,287.2h-29.3l5.5-5.6h18.2L436.8,287.2z M431.9,258.2l2.8,2.8l-2.8,2.8h-19.5l-2.8-2.8l2.8-2.8H431.9z M432.2,256.4v-15
				l5.6-5.6v22l-2,2.1L432.2,256.4z"/>
		</g>
		<g>
			<path fill="#ED1C24" d="M450.2,256.4v-15l5.6-5.6v22l-2.1,2.1L450.2,256.4z M455.9,264.2v22l-5.6-5.6v-15l3.5-3.5L455.9,264.2z"
				/>
		</g>
	</g>
</g>
</svg>
