<?xml version="1.0" encoding="utf-8"?>
<!-- Generator: Adobe Illustrator 18.0.0, SVG Export Plug-In . SVG Version: 6.00 Build 0)  -->
<!DOCTYPE svg PUBLIC "-//W3C//DTD SVG 1.1//EN" "http://www.w3.org/Graphics/SVG/1.1/DTD/svg11.dtd">
<svg version="1.1" id="Layer_1" xmlns="http://www.w3.org/2000/svg" xmlns:xlink="http://www.w3.org/1999/xlink" x="0px" y="0px"
	 viewBox="0 0 512 512" style="enable-background:new 0 0 512 512;" xml:space="preserve">
<g>
	<path style="fill:#161616;" d="M460.141,35.05c0,0-57.554-5.15-137.316,49.4C301.773,78.13,279.32,74.702,256,74.702
		s-45.773,3.428-66.825,9.748C109.414,29.9,51.859,35.05,51.859,35.05S3.665,102.34,38.864,295.706
		c0.432,2.375,1.137,4.474,2.081,6.325C54.759,400.794,145.773,477.08,256,477.08s201.241-76.286,215.055-175.049
		c0.943-1.851,1.648-3.95,2.081-6.325C508.335,102.34,460.141,35.05,460.141,35.05z"/>
	<g>
		<g>
			<circle style="fill:#FFFFFF;" cx="141.4" cy="248.611" r="92.177"/>
			<path style="fill:#010101;" d="M141.4,248.611c42.415,0,76.852,42.415,76.852,0s-34.438-76.852-76.852-76.852
				s-76.852,34.438-76.852,76.852C64.548,291.026,98.986,248.611,141.4,248.611z"/>
		</g>
		<g>
			<circle style="fill:#FFFFFF;" cx="370.6" cy="248.611" r="92.177"/>
			<path style="fill:#010101;" d="M370.6,248.611c42.415,0,76.853,42.415,76.853,0s-34.438-76.852-76.853-76.852
				s-76.852,34.438-76.852,76.852C293.747,291.026,328.185,248.611,370.6,248.611z"/>
		</g>
	</g>
	<path style="fill:#FFFFFF;" d="M331.738,358.64c0,41.829-33.909,71.445-75.738,71.445s-75.738-29.616-75.738-71.445H331.738z"/>
</g>
</svg>
