<?xml version="1.0" encoding="utf-8"?>
<!-- Generator: Adobe Illustrator 18.0.0, SVG Export Plug-In . SVG Version: 6.00 Build 0)  -->
<!DOCTYPE svg PUBLIC "-//W3C//DTD SVG 1.1//EN" "http://www.w3.org/Graphics/SVG/1.1/DTD/svg11.dtd">
<svg version="1.1" id="Layer_1" xmlns="http://www.w3.org/2000/svg" xmlns:xlink="http://www.w3.org/1999/xlink" x="0px" y="0px"
	 viewBox="0 0 512 512" style="enable-background:new 0 0 512 512;" xml:space="preserve">
<g>
	<g>
		<g>
			<path style="opacity:0.3;fill:#353535;" d="M419.982,486c0,0-189.676-50.02-364.291-45.301L98.245,65.046l361.67,46.161
				C459.915,111.207,424.554,400.265,419.982,486z"/>
			
				<rect x="73.698" y="86.66" transform="matrix(0.992 0.1266 -0.1266 0.992 36.1118 -30.2466)" style="fill:#F7B318;" width="364.604" height="364.604"/>
		</g>
		<g>
			<path style="opacity:0.3;fill:#353535;" d="M430.615,462.723c0,0-177.382-22.514-349.753-0.524L73.698,86.837h364.604
				C438.302,86.837,428.487,376.892,430.615,462.723z"/>
			<rect x="73.698" y="86.837" style="fill:#FDD83A;" width="364.604" height="364.604"/>
		</g>
	</g>
	<g id="Layer_2">
		<circle style="opacity:0.4;fill:#383838;enable-background:new    ;" cx="256" cy="138.587" r="71.542"/>
		<circle style="fill:#D1D1D1;" cx="256" cy="107.079" r="71.542"/>
		<g>
			<circle style="fill:#E3E4E5;" cx="256" cy="93.072" r="53.959"/>
		</g>
		<g>
			<circle style="fill:#E3E4E5;" cx="256" cy="79.959" r="53.959"/>
			<path style="fill:#C1C1C1;" d="M256,35.537c24.495,0,44.423,19.928,44.423,44.423S280.495,124.382,256,124.382
				s-44.423-19.928-44.423-44.423S231.505,35.537,256,35.537 M256,26c-29.802,0-53.959,24.159-53.959,53.959
				s24.158,53.959,53.959,53.959c29.802,0,53.959-24.159,53.959-53.959S285.802,26,256,26L256,26z"/>
		</g>
	</g>
</g>
</svg>
