<?xml version="1.0" encoding="utf-8"?>
<!-- Generator: Adobe Illustrator 22.0.1, SVG Export Plug-In . SVG Version: 6.00 Build 0)  -->
<svg version="1.1" id="Layer_2" xmlns="http://www.w3.org/2000/svg" xmlns:xlink="http://www.w3.org/1999/xlink" x="0px" y="0px"
	 viewBox="0 0 512 512" style="enable-background:new 0 0 512 512;" xml:space="preserve">
<circle style="fill:#F99C1C;" cx="256" cy="256" r="230"/>
<path style="fill:#FFFFFF;" d="M308.8,249.4c-4.7-3.1-9.6-5.1-15-5.9c-2-0.3-2.8-2.6-1.5-4.1c0.6-0.7,1.2-1.5,1.8-2.3
	c1.7-2.3,3.2-4.8,4.3-7.6c1.2-2.8,1.9-5.8,2.2-9.1c0.3-3.2,0-6.6-1-10.2c-3-11.2-9.1-19.2-18.3-24c-7-3.6-15.8-4.7-26.4-3.2
	c-1.3,0.2-2.4-0.6-2.8-1.8l-3.4-12.8c-0.4-1.3-1.7-2.1-3.1-1.8l-7.3,1.9c-1.3,0.4-2.1,1.7-1.8,3.1l3.3,12.2c0.4,1.3-0.4,2.7-1.8,3.1
	l0,0c-1.3,0.4-2.7-0.4-3.1-1.8l-3.3-12.2c-0.4-1.3-1.7-2.1-3.1-1.8l-7.3,1.9c-1.3,0.4-2.1,1.7-1.8,3.1l3.3,12.2
	c0.4,1.3-0.4,2.7-1.8,3.1l-30.7,8.2c-1.3,0.4-2.1,1.7-1.8,3.1l35.8,133.5c0.4,1.3,1.7,2.1,3.1,1.8l30.7-8.2c1.3-0.4,2.7,0.4,3.1,1.8
	l3.3,12.2c0.4,1.3,1.7,2.1,3.1,1.8l7.3-1.9c1.3-0.4,2.1-1.7,1.8-3.1l-3.3-12.2c-0.4-1.3,0.4-2.7,1.8-3.1l0,0
	c1.3-0.4,2.7,0.4,3.1,1.8l3.3,12.2c0.4,1.3,1.7,2.1,3.1,1.8l7.3-1.9c1.3-0.4,2.1-1.7,1.8-3.1l-3.4-12.8c-0.3-1.2,0.3-2.5,1.5-3
	c4.3-1.7,8.1-3.6,11.5-5.7c6-3.8,10.6-8.1,13.9-12.8c3.3-4.8,5.3-9.9,5.9-15.3c0.7-5.5,0.2-11.1-1.3-16.8
	C319.2,260.2,314.9,253.6,308.8,249.4z M266,207.7c4.3,2,7.2,5.6,8.6,10.8c1.6,6.2,1,11.1-1.9,14.9c-0.6,0.8-1.3,1.6-2.1,2.3
	c-1.4,1.3-3.6,0.6-4.1-1.2l-6.6-24.8c-0.5-1.8,1.2-3.5,3-3.1C264,206.8,265,207.2,266,207.7z M247.1,210.6L255,240
	c0.4,1.3-0.4,2.7-1.8,3.1h0c-1.3,0.4-2.7-0.4-3.1-1.8l-7.9-29.4c-0.4-1.3,0.4-2.7,1.8-3.1h0C245.4,208.4,246.8,209.2,247.1,210.6z
	 M222.3,214.6l4.8-1.3c1.3-0.4,2.7,0.4,3.1,1.8l7.9,29.4c0.4,1.3-0.4,2.7-1.8,3.1l-4.8,1.3c-1.3,0.4-2.7-0.4-3.1-1.8l-7.9-29.4
	C220.2,216.4,221,215,222.3,214.6z M244.5,307.2l-9-33.7c-0.4-1.3,0.4-2.7,1.8-3.1l4.8-1.3c1.3-0.4,2.7,0.4,3.1,1.8l9,33.7
	c0.4,1.3-0.4,2.7-1.8,3.1l-4.8,1.3C246.3,309.4,244.9,308.6,244.5,307.2z M266.3,301.4l-9-33.7c-0.4-1.3,0.4-2.7,1.8-3.1h0
	c1.3-0.4,2.7,0.4,3.1,1.8l9,33.7c0.4,1.3-0.4,2.7-1.8,3.1l0,0C268,303.5,266.6,302.8,266.3,301.4z M292.3,291.3
	c-1.5,2-3.5,3.8-5.8,5.3c-1.4,0.9-3.3,0.2-3.8-1.5l-8.2-30.4c-0.4-1.6,0.8-3.2,2.5-3.2c2.7,0.1,5.2,0.5,7.5,1.3
	c5.6,1.9,9.2,5.9,10.8,12C297.1,281,296.1,286.5,292.3,291.3z"/>
</svg>
