<?xml version="1.0" encoding="utf-8"?>
<!-- Generator: Adobe Illustrator 18.0.0, SVG Export Plug-In . SVG Version: 6.00 Build 0)  -->
<!DOCTYPE svg PUBLIC "-//W3C//DTD SVG 1.1//EN" "http://www.w3.org/Graphics/SVG/1.1/DTD/svg11.dtd">
<svg version="1.1" id="Layer_1" xmlns="http://www.w3.org/2000/svg" xmlns:xlink="http://www.w3.org/1999/xlink" x="0px" y="0px"
	 viewBox="0 0 512 512" style="enable-background:new 0 0 512 512;" xml:space="preserve">
<g style="opacity:0.4;">
	<circle cx="323.691" cy="326.213" r="24.093"/>
	<path d="M441.812,217.046l0.079-0.079L266.498,41.575c-14.099-14.099-36.958-14.099-51.057,0s-14.099,36.958,0,51.057l-0.129,0.129
		l72.986,72.986H75.789c-19.939,0-36.102,16.163-36.102,36.102s16.163,36.102,36.102,36.102v0.18h107.9L36.567,385.254
		c-14.099,14.099-14.099,36.958,0,51.056s36.958,14.099,51.057,0l0.129,0.129l76.153-76.153C178.778,434.73,244.628,491,323.38,491
		c89.672,0,162.627-72.954,162.627-162.627C486.006,285.34,469.198,246.164,441.812,217.046z M323.379,418.614
		c-49.759,0-90.241-40.483-90.241-90.24s40.479-90.238,90.234-90.241h0.014c24.744,0.003,47.187,10.021,63.504,26.206l0.523,0.523
		c16.187,16.319,26.206,38.766,26.206,63.511C413.619,378.132,373.137,418.614,323.379,418.614z"/>
</g>
<g>
	<circle style="fill:#F99C1C;" cx="323.691" cy="321.213" r="24.093"/>
	<path style="fill:#F99C1C;" d="M441.812,212.046l0.079-0.079L266.498,36.575c-14.099-14.099-36.958-14.099-51.057,0
		s-14.099,36.958,0,51.057l-0.129,0.129l72.986,72.986H75.789c-19.939,0-36.102,16.163-36.102,36.102s16.163,36.102,36.102,36.102
		v0.18h107.9L36.567,380.254c-14.099,14.099-14.099,36.958,0,51.056s36.958,14.099,51.057,0l0.129,0.129l76.153-76.153
		C178.778,429.73,244.628,486,323.38,486c89.672,0,162.627-72.954,162.627-162.627C486.006,280.34,469.198,241.164,441.812,212.046z
		 M323.379,413.614c-49.759,0-90.241-40.483-90.241-90.24s40.479-90.238,90.234-90.241h0.014
		c24.744,0.003,47.187,10.021,63.504,26.206l0.523,0.523c16.187,16.319,26.206,38.766,26.206,63.511
		C413.619,373.132,373.137,413.614,323.379,413.614z"/>
</g>
</svg>
