<?xml version="1.0" encoding="utf-8"?>
<!-- Generator: Adobe Illustrator 18.0.0, SVG Export Plug-In . SVG Version: 6.00 Build 0)  -->
<!DOCTYPE svg PUBLIC "-//W3C//DTD SVG 1.1//EN" "http://www.w3.org/Graphics/SVG/1.1/DTD/svg11.dtd">
<svg version="1.1" id="Layer_3" xmlns="http://www.w3.org/2000/svg" xmlns:xlink="http://www.w3.org/1999/xlink" x="0px" y="0px"
	 viewBox="0 0 512 512" style="enable-background:new 0 0 512 512;" xml:space="preserve">
<g>
	<g>
		<linearGradient id="SVGID_1_" gradientUnits="userSpaceOnUse" x1="210.7683" y1="256.0001" x2="301.2317" y2="256.0001">
			<stop  offset="0" style="stop-color:#37AADA"/>
			<stop  offset="1" style="stop-color:#37AADA"/>
		</linearGradient>
		<path style="fill:url(#SVGID_1_);" d="M247.92,354.325v-82.736l-27.15,26.616l-9.936-10.136l34.623-33.941l-34.688-34.916
			l10.069-10.003l27.084,27.261v-78.795l53.31,61.652l-35.635,34.934l35.474,35.706L247.92,354.325z M262.115,270.896v43.952
			l19.821-24.001L262.115,270.896z M262.115,195.79v42.008l19.66-19.273L262.115,195.79z"/>
		<g>
			<linearGradient id="SVGID_2_" gradientUnits="userSpaceOnUse" x1="178.8741" y1="137.8604" x2="333.3833" y2="137.8604">
				<stop  offset="0" style="stop-color:#37AADA"/>
				<stop  offset="1" style="stop-color:#37AADA"/>
			</linearGradient>
			<path style="fill:url(#SVGID_2_);" d="M256.419,137.688c24.33,0,47.02,7.098,66.163,19.29l10.801-16.063
				c-22.227-14.268-48.647-22.549-76.964-22.549c-28.566,0-55.197,8.433-77.545,22.932l10.796,16.056
				C208.936,144.932,231.841,137.688,256.419,137.688z"/>
			<linearGradient id="SVGID_3_" gradientUnits="userSpaceOnUse" x1="174.0358" y1="382.9714" x2="338.2309" y2="382.9714">
				<stop  offset="0" style="stop-color:#37AADA"/>
				<stop  offset="1" style="stop-color:#37AADA"/>
			</linearGradient>
			<path style="fill:url(#SVGID_3_);" d="M338.231,378.294l-10.795-16.054c-20.108,14.18-44.597,22.544-71.017,22.544
				c-26.669,0-51.371-8.522-71.584-22.947l-10.799,16.061c23.297,16.5,51.727,26.208,82.383,26.208
				C286.827,404.106,315.041,394.55,338.231,378.294z"/>
			<linearGradient id="SVGID_4_" gradientUnits="userSpaceOnUse" x1="153.2885" y1="95.7297" x2="358.84" y2="95.7297">
				<stop  offset="0" style="stop-color:#37AADA"/>
				<stop  offset="1" style="stop-color:#37AADA"/>
			</linearGradient>
			<path style="fill:url(#SVGID_4_);" d="M153.289,103.247l10.778,16.029c26.433-17.538,58.113-27.771,92.143-27.771
				c33.905,0,65.478,10.159,91.853,27.58l10.778-16.029c-29.456-19.498-64.738-30.873-102.631-30.873
				C218.192,72.183,182.803,83.631,153.289,103.247z"/>
			<linearGradient id="SVGID_5_" gradientUnits="userSpaceOnUse" x1="150.8677" y1="420.6884" x2="361.2654" y2="420.6884">
				<stop  offset="0" style="stop-color:#37AADA"/>
				<stop  offset="1" style="stop-color:#37AADA"/>
			</linearGradient>
			<path style="fill:url(#SVGID_5_);" d="M256.209,425.731c-35.075,0-67.654-10.871-94.563-29.407l-10.778,16.029
				c29.991,20.615,66.279,32.7,105.342,32.7c38.938,0,75.121-12.007,105.056-32.502l-10.778-16.03
				C323.633,414.938,291.16,425.731,256.209,425.731z"/>
			<linearGradient id="SVGID_6_" gradientUnits="userSpaceOnUse" x1="127.703" y1="53.6127" x2="384.297" y2="53.6127">
				<stop  offset="0" style="stop-color:#37AADA"/>
				<stop  offset="1" style="stop-color:#37AADA"/>
			</linearGradient>
			<path style="fill:url(#SVGID_6_);" d="M256,45.322c43.481,0,83.926,13.243,117.519,35.903l10.778-16.029
				C347.624,40.457,303.469,26,256,26s-91.624,14.457-128.297,39.196l10.778,16.029C172.074,58.565,212.519,45.322,256,45.322z"/>
			<linearGradient id="SVGID_7_" gradientUnits="userSpaceOnUse" x1="127.7031" y1="458.3873" x2="384.2969" y2="458.3873">
				<stop  offset="0" style="stop-color:#37AADA"/>
				<stop  offset="1" style="stop-color:#37AADA"/>
			</linearGradient>
			<path style="fill:url(#SVGID_7_);" d="M384.297,446.804l-10.778-16.029c-33.592,22.661-74.038,35.903-117.519,35.903
				s-83.926-13.243-117.519-35.903l-10.778,16.029C164.376,471.543,208.531,486,256,486S347.624,471.543,384.297,446.804z"/>
		</g>
	</g>
	<g>
		<path style="fill:#FFFFFF;" d="M137.688,255.581c0-24.33,7.098-47.02,19.29-66.163l-16.063-10.801
			c-14.268,22.227-22.549,48.647-22.549,76.964c0,28.566,8.433,55.197,22.932,77.545l16.056-10.796
			C144.932,303.064,137.688,280.159,137.688,255.581z"/>
		<path style="fill:#FFFFFF;" d="M378.294,173.769l-16.054,10.795c14.18,20.108,22.544,44.597,22.544,71.017
			c0,26.669-8.522,51.371-22.947,71.584l16.061,10.799c16.5-23.297,26.208-51.727,26.208-82.383
			C404.106,225.173,394.55,196.959,378.294,173.769z"/>
		<path style="fill:#FFFFFF;" d="M103.247,358.712l16.029-10.778c-17.538-26.433-27.771-58.113-27.771-92.143
			c0-33.905,10.159-65.478,27.58-91.853l-16.029-10.778c-19.498,29.456-30.873,64.738-30.873,102.631
			C72.183,293.808,83.631,329.197,103.247,358.712z"/>
		<path style="fill:#FFFFFF;" d="M425.731,255.791c0,35.075-10.871,67.654-29.407,94.563l16.029,10.778
			c20.615-29.991,32.7-66.279,32.7-105.342c0-38.938-12.007-75.121-32.502-105.056l-16.03,10.778
			C414.938,188.367,425.731,220.84,425.731,255.791z"/>
		<path style="fill:#FFFFFF;" d="M45.322,256c0-43.481,13.243-83.926,35.903-117.519l-16.029-10.778
			C40.457,164.376,26,208.531,26,256s14.457,91.624,39.196,128.297l16.029-10.778C58.565,339.926,45.322,299.481,45.322,256z"/>
		<path style="fill:#FFFFFF;" d="M446.804,127.703l-16.029,10.778c22.661,33.592,35.903,74.038,35.903,117.519
			s-13.243,83.926-35.903,117.519l16.029,10.778C471.543,347.624,486,303.469,486,256S471.543,164.376,446.804,127.703z"/>
	</g>
</g>
</svg>
