<?xml version="1.0" encoding="utf-8"?>
<!-- Generator: Adobe Illustrator 18.0.0, SVG Export Plug-In . SVG Version: 6.00 Build 0)  -->
<!DOCTYPE svg PUBLIC "-//W3C//DTD SVG 1.1//EN" "http://www.w3.org/Graphics/SVG/1.1/DTD/svg11.dtd">
<svg version="1.1" id="Layer_1" xmlns="http://www.w3.org/2000/svg" xmlns:xlink="http://www.w3.org/1999/xlink" x="0px" y="0px"
	 viewBox="0 0 512 512" style="enable-background:new 0 0 512 512;" xml:space="preserve">
<g id="g244" transform="translate(246.1542,357.1379)">
	<path id="path238" style="fill:#FFB000;" d="M243.333-133.036c13.975-13.621,6.264-37.353-13.048-40.159l-125.481-18.233
		c-7.668-1.115-14.299-5.931-17.727-12.879L30.958-318.014c-4.317-8.749-12.716-13.123-21.113-13.123s-16.795,4.374-21.111,13.123
		l-56.118,113.707c-3.429,6.948-10.059,11.764-17.727,12.879l-125.481,18.233c-19.312,2.807-27.023,26.539-13.048,40.159
		l90.798,88.508c5.55,5.408,8.082,13.201,6.772,20.839l-21.435,124.975c-3.298,19.233,16.889,33.9,34.162,24.819L-1.111,67.101
		c3.429-1.803,7.192-2.706,10.956-2.706s7.527,0.903,10.958,2.706l112.233,59.004c17.273,9.081,37.46-5.586,34.162-24.819
		L145.763-23.689c-1.31-7.638,1.222-15.431,6.772-20.839L243.333-133.036z"/>
	<path id="path246" style="fill:#FFC200;" d="M-11.267-318.014l-56.118,113.704c-3.429,6.95-10.057,11.766-17.727,12.881
		l-125.481,18.233c-19.31,2.805-27.021,26.539-13.048,40.159l90.801,88.506c5.547,5.41,8.08,13.203,6.77,20.841l-21.435,124.973
		c-3.298,19.235,16.889,33.9,34.162,24.821L-1.109,67.1c3.429-1.801,7.192-2.704,10.956-2.704v-395.533
		C1.449-331.137-6.949-326.763-11.267-318.014"/>
</g>
</svg>
