<?xml version="1.0" encoding="utf-8"?>
<!-- Generator: Adobe Illustrator 18.0.0, SVG Export Plug-In . SVG Version: 6.00 Build 0)  -->
<!DOCTYPE svg PUBLIC "-//W3C//DTD SVG 1.1//EN" "http://www.w3.org/Graphics/SVG/1.1/DTD/svg11.dtd">
<svg version="1.1" id="Layer_1" xmlns="http://www.w3.org/2000/svg" xmlns:xlink="http://www.w3.org/1999/xlink" x="0px" y="0px"
	 viewBox="0 0 512 512" style="enable-background:new 0 0 512 512;" xml:space="preserve">
<g>
	<g style="opacity:0.4;enable-background:new    ;">
		<g>
			<path d="M36.161,183.903c-0.161,1.29-0.323,2.581-0.484,3.871h440.484c-0.161-1.29-0.323-2.581-0.484-3.871"/>
			<path d="M35.677,343.581c0.161,1.29,0.323,2.581,0.484,3.871h439.677c0.161-1.29,0.323-2.581,0.484-3.871"/>
			<path d="M174.226,485.516c1.29,0.161,2.581,0.323,3.871,0.484V45.355c-1.29,0.161-2.581,0.323-3.871,0.484"/>
			<path d="M337.774,45.839c-1.29-0.161-2.581-0.323-3.871-0.484v440.484c1.29-0.161,2.581-0.323,3.871-0.484"/>
		</g>
		<path d="M101.968,394.71c18.226,0,33.065,14.839,33.065,33.065c0,18.226-14.839,33.065-33.065,33.065S68.903,446,68.903,427.774
			C68.903,409.548,83.742,394.71,101.968,394.71 M101.968,378.581c-27.097,0-49.194,22.097-49.194,49.194
			c0,27.097,22.097,49.194,49.194,49.194s49.194-22.097,49.194-49.194C151.161,400.677,129.064,378.581,101.968,378.581
			L101.968,378.581z"/>
		<path d="M256,232.613c18.226,0,33.065,14.839,33.065,33.065S274.226,298.742,256,298.742s-33.065-14.839-33.065-33.065
			S237.774,232.613,256,232.613 M256,216.484c-27.097,0-49.194,22.097-49.194,49.194s22.097,49.194,49.194,49.194
			s49.194-22.097,49.194-49.194S283.097,216.484,256,216.484L256,216.484z"/>
		<path d="M256,391.484c18.226,0,33.065,14.839,33.065,33.065c0,18.226-14.839,33.065-33.065,33.065s-33.065-14.839-33.065-33.065
			C222.935,406.323,237.774,391.484,256,391.484 M256,375.355c-27.097,0-49.194,22.097-49.194,49.194
			c0,27.097,22.097,49.194,49.194,49.194s49.194-22.097,49.194-49.194C305.194,397.452,283.097,375.355,256,375.355L256,375.355z"/>
		<polygon points="441.484,65.516 412.452,94.548 383.419,65.516 371.968,76.968 401,106 371.968,135.032 383.419,146.484 
			412.452,117.452 441.484,146.484 452.936,135.032 423.903,106 452.936,76.968 		"/>
		<polygon points="441.484,384.871 412.452,413.903 383.419,384.871 371.968,396.323 401,425.355 371.968,454.387 383.419,465.839 
			412.452,436.806 441.484,465.839 452.936,454.387 423.903,425.355 452.936,396.323 		"/>
	</g>
	<g>
		<path style="fill:#FFFFFF;" d="M101.968,375.355c18.226,0,33.065,14.839,33.065,33.065c0,18.226-14.839,33.065-33.065,33.065
			s-33.065-14.839-33.065-33.065C68.903,390.194,83.742,375.355,101.968,375.355 M101.968,359.226
			c-27.097,0-49.194,22.097-49.194,49.194c0,27.097,22.097,49.194,49.194,49.194s49.194-22.097,49.194-49.194
			C151.161,381.323,129.064,359.226,101.968,359.226L101.968,359.226z"/>
		<path style="fill:#FFFFFF;" d="M256,213.258c18.226,0,33.065,14.839,33.065,33.065c0,18.226-14.839,33.065-33.065,33.065
			s-33.065-14.839-33.065-33.065C222.935,228.097,237.774,213.258,256,213.258 M256,197.129c-27.097,0-49.194,22.097-49.194,49.194
			s22.097,49.194,49.194,49.194s49.194-22.097,49.194-49.194S283.097,197.129,256,197.129L256,197.129z"/>
		<path style="fill:#FFFFFF;" d="M256,372.129c18.226,0,33.065,14.839,33.065,33.065c0,18.226-14.839,33.065-33.065,33.065
			s-33.065-14.839-33.065-33.065C222.935,386.968,237.774,372.129,256,372.129 M256,356c-27.097,0-49.194,22.097-49.194,49.194
			c0,27.097,22.097,49.194,49.194,49.194s49.194-22.097,49.194-49.194C305.194,378.097,283.097,356,256,356L256,356z"/>
		<polygon style="fill:#FF0000;" points="441.484,46.161 412.452,75.194 383.419,46.161 371.968,57.613 401,86.645 371.968,115.677 
			383.419,127.129 412.452,98.097 441.484,127.129 452.936,115.677 423.903,86.645 452.936,57.613 		"/>
		<polygon style="fill:#FF0000;" points="441.484,365.516 412.452,394.548 383.419,365.516 371.968,376.968 401,406 
			371.968,435.032 383.419,446.484 412.452,417.452 441.484,446.484 452.936,435.032 423.903,406 452.936,376.968 		"/>
	</g>
	<g>
		<path style="fill:#FFFFFF;" d="M36.161,164.548c-0.161,1.29-0.323,2.581-0.484,3.871h440.484c-0.161-1.29-0.323-2.581-0.484-3.871
			"/>
		<path style="fill:#FFFFFF;" d="M35.677,324.226c0.161,1.29,0.323,2.581,0.484,3.871h439.677c0.161-1.29,0.323-2.581,0.484-3.871"
			/>
		<path style="fill:#FFFFFF;" d="M174.226,466.161c1.29,0.161,2.581,0.323,3.871,0.484V26c-1.29,0.161-2.581,0.323-3.871,0.484"/>
		<path style="fill:#FFFFFF;" d="M337.774,26.484c-1.29-0.161-2.581-0.323-3.871-0.484v440.484c1.29-0.161,2.581-0.323,3.871-0.484"
			/>
	</g>
</g>
</svg>
