<?xml version="1.0" encoding="utf-8"?>
<!-- Generator: Adobe Illustrator 18.0.0, SVG Export Plug-In . SVG Version: 6.00 Build 0)  -->
<!DOCTYPE svg PUBLIC "-//W3C//DTD SVG 1.1//EN" "http://www.w3.org/Graphics/SVG/1.1/DTD/svg11.dtd">
<svg version="1.1" id="Layer_1" xmlns="http://www.w3.org/2000/svg" xmlns:xlink="http://www.w3.org/1999/xlink" x="0px" y="0px"
	 viewBox="0 0 512 512" style="enable-background:new 0 0 512 512;" xml:space="preserve">
<g>
	<g>
		<path style="fill:#FFFFFF;" d="M256,26C129,26,26,129,26,256s103,230,230,230s230-103,230-230S383,26,256,26z M256,354.4
			c-54.3,0-98.4-44.1-98.4-98.4s44.1-98.4,98.4-98.4s98.4,44.1,98.4,98.4S310.3,354.4,256,354.4z"/>
		<path style="opacity:0.8;fill:#E8E8E8;enable-background:new    ;" d="M256,116.9c-76.8,0-139.1,62.3-139.1,139.1
			S179.2,395.1,256,395.1S395.1,332.8,395.1,256S332.8,116.9,256,116.9z M256,354.4c-54.3,0-98.4-44.1-98.4-98.4
			s44.1-98.4,98.4-98.4s98.4,44.1,98.4,98.4S310.3,354.4,256,354.4z"/>
	</g>
	<path style="fill:#06ABF4;" d="M256,444.8c-104.1,0-188.8-84.7-188.8-188.8S151.9,67.2,256,67.2c1.7,0,3,1.4,3,3c0,1.7-1.4,3-3,3
		c-100.7,0-182.7,82-182.7,182.7s82,182.7,182.7,182.7c1.7,0,3,1.4,3,3S257.7,444.8,256,444.8z"/>
	<polygon style="fill:#0098FF;" points="256,423.2 261.7,405.4 261.6,424 272.5,408.9 266.7,426.6 281.7,415.6 270.7,430.7 
		288.4,424.8 273.3,435.7 291.9,435.7 274.2,441.3 291.9,447 273.3,447 288.4,457.9 270.7,452 281.7,467.1 266.7,456.1 272.5,473.7 
		261.6,458.6 261.7,477.3 256,459.5 250.3,477.3 250.4,458.6 239.5,473.7 245.3,456.1 230.3,467.1 241.3,452 223.6,457.9 238.7,447 
		220.1,447 237.8,441.3 220.1,435.7 238.7,435.7 223.6,424.8 241.3,430.7 230.3,415.6 245.3,426.6 239.5,408.9 250.4,424 
		250.3,405.4 	"/>
</g>
</svg>
