<?xml version="1.0" encoding="utf-8"?>
<!-- Generator: Adobe Illustrator 18.0.0, SVG Export Plug-In . SVG Version: 6.00 Build 0)  -->
<!DOCTYPE svg PUBLIC "-//W3C//DTD SVG 1.1//EN" "http://www.w3.org/Graphics/SVG/1.1/DTD/svg11.dtd">
<svg version="1.1" id="Layer_3" xmlns="http://www.w3.org/2000/svg" xmlns:xlink="http://www.w3.org/1999/xlink" x="0px" y="0px"
	 viewBox="0 0 512 512" style="enable-background:new 0 0 512 512;" xml:space="preserve">
<g>
	<path style="fill:#FFFFFF;" d="M338.533,272.435l35.198-16.472l-35.198-16.472l26.355-28.609l-38.839-1.734l13.177-36.412
		l-36.585,13.351l-1.734-38.839l-28.609,26.355l-16.472-35.198l0,0v63.287c29.996,0,54.444,24.274,54.444,54.444
		c0,30.17-24.274,54.444-54.444,54.444v63.287l16.299-35.198l28.609,26.355l1.734-38.839l36.758,13.004l-13.351-36.585l38.839-1.734
		L338.533,272.435z"/>
	<path style="fill:#FFFFFF;" d="M201.556,255.963c0,29.996,24.274,54.444,54.444,54.444V201.519
		C226.004,201.519,201.556,225.967,201.556,255.963z"/>
	<path style="fill:#FFFFFF;" d="M407.542,26.05H256H144.511h-40.053c-43.347,0-78.545,35.198-78.545,78.545v302.91
		c0,43.347,35.198,78.545,78.545,78.545h32.77H256h151.542c43.347,0,78.545-35.198,78.545-78.545V104.422
		C485.913,61.248,450.715,26.05,407.542,26.05z M429.562,407.505c0,12.137-9.883,22.02-22.02,22.02H256v-56.004l0,0l-16.472-35.198
		l-28.609,26.355l-1.734-38.839l-36.412,13.351l13.351-36.585l-38.839-1.734l26.355-28.609l-35.198-16.472l35.198-16.472
		l-26.355-28.436l38.839-1.734l-13.351-36.412l36.585,13.351l1.734-38.839l28.609,26.355L256,138.406V82.401h151.542
		c12.137,0,22.02,9.883,22.02,22.02V407.505z"/>
</g>
</svg>
