<?xml version="1.0" encoding="utf-8"?>
<!-- Generator: Adobe Illustrator 18.0.0, SVG Export Plug-In . SVG Version: 6.00 Build 0)  -->
<!DOCTYPE svg PUBLIC "-//W3C//DTD SVG 1.1//EN" "http://www.w3.org/Graphics/SVG/1.1/DTD/svg11.dtd">
<svg version="1.1" id="Layer_1" xmlns="http://www.w3.org/2000/svg" xmlns:xlink="http://www.w3.org/1999/xlink" x="0px" y="0px"
	 viewBox="0 0 512 512" style="enable-background:new 0 0 512 512;" xml:space="preserve">
<g>
	<path style="fill:#3A2E29;" d="M435.163,107.829H76.837c-2.077,0-3.761-1.684-3.761-3.761v-36.59c0-2.077,1.684-3.761,3.761-3.761
		h358.326c2.077,0,3.76,1.684,3.76,3.761v36.59C438.924,106.146,437.24,107.829,435.163,107.829z"/>
	<path style="fill:#4F403A;" d="M416.566,63.718H95.434V32.268c0-3.461,2.806-6.268,6.268-6.268h308.598
		c3.461,0,6.267,2.806,6.267,6.268V63.718z"/>
	<path style="fill:#F9F4F2;" d="M374.651,486H137.349c-2.609,0-4.772-2.021-4.949-4.624l-25.421-373.547h298.042L379.6,481.376
		C379.423,483.979,377.26,486,374.651,486z"/>
	<polygon style="fill:#444C38;" points="390.294,324.234 402.143,150.125 109.857,150.125 121.706,324.234 	"/>
</g>
<path style="opacity:0.1;" d="M435.163,63.718h-18.597V32.267c0-3.461-2.806-6.267-6.268-6.267H256v460h118.651
	c2.609,0,4.772-2.021,4.949-4.624l10.694-157.143l3.983-58.525l10.744-157.879h30.142c2.077,0,3.76-1.684,3.76-3.76v-36.59
	C438.924,65.402,437.24,63.718,435.163,63.718z"/>
</svg>
