<?xml version="1.0" encoding="utf-8"?>
<!-- Generator: Adobe Illustrator 18.0.0, SVG Export Plug-In . SVG Version: 6.00 Build 0)  -->
<!DOCTYPE svg PUBLIC "-//W3C//DTD SVG 1.1//EN" "http://www.w3.org/Graphics/SVG/1.1/DTD/svg11.dtd">
<svg version="1.1" id="Layer_3" xmlns="http://www.w3.org/2000/svg" xmlns:xlink="http://www.w3.org/1999/xlink" x="0px" y="0px"
	 viewBox="0 0 512 512" style="enable-background:new 0 0 512 512;" xml:space="preserve">
<path style="opacity:0.4;" d="M256,31C128.975,31,26,133.975,26,261c0,72.327,33.395,136.844,85.596,179.007L82.155,491H256
	c127.026,0,230-102.974,230-230S383.026,31,256,31z M162.584,318.757h-53.868c-4.907,0-8.885-3.978-8.885-8.885v-94.363
	c0-6.774,5.491-12.265,12.265-12.265c4.907,0,8.885,3.978,8.885,8.885v85.421c0,1.898,1.539,3.437,3.437,3.437h38.166
	c4.907,0,8.885,3.978,8.885,8.885C171.47,314.779,167.492,318.757,162.584,318.757z M203.727,308.182
	c0,5.84-4.735,10.575-10.575,10.575h0c-5.84,0-10.575-4.735-10.575-10.575v-94.363c0-5.841,4.735-10.575,10.575-10.575h0
	c5.84,0,10.575,4.735,10.575,10.575V308.182z M319.079,308.62c0,5.598-4.538,10.137-10.137,10.137h-4.417
	c-3.37,0-6.519-1.675-8.404-4.468l-35.379-52.452c-4.536-6.714-8.475-12.806-11.917-18.438c-1.259-2.06-4.425-1.118-4.36,1.296
	c0.196,7.274,0.284,15.123,0.284,24.276v39.651c0,5.598-4.538,10.137-10.137,10.137h-0.001c-5.598,0-10.137-4.538-10.137-10.137
	v-93.475c0-6.573,5.329-11.902,11.902-11.902c5.793,0,11.213,2.862,14.479,7.646l33.524,49.098
	c3.765,5.518,7.216,10.861,10.39,16.085c1.254,2.064,4.442,1.105,4.359-1.309c-0.251-7.313-0.324-14.735-0.324-22.708V213.38
	c0-5.598,4.538-10.137,10.137-10.137s10.137,4.538,10.137,10.137V308.62z M412.169,309.953c0,4.862-3.942,8.804-8.804,8.804h-54.731
	c-4.862,0-8.804-3.942-8.804-8.804v-97.905c0-4.862,3.942-8.804,8.804-8.804h52.102c4.862,0,8.804,3.942,8.804,8.804v0.163
	c0,4.862-3.942,8.804-8.804,8.804h-37.398c-1.303,0-2.359,1.056-2.359,2.359v24.025c0,1.303,1.056,2.359,2.359,2.359h34.767
	c4.862,0,8.804,3.942,8.804,8.804c0,4.862-3.942,8.804-8.804,8.804h-34.767c-1.303,0-2.359,1.056-2.359,2.359v28.904
	c0,1.303,1.056,2.359,2.359,2.359h40.027c4.862,0,8.804,3.942,8.804,8.804V309.953z"/>
<radialGradient id="SVGID_1_" cx="256" cy="256" r="230" gradientUnits="userSpaceOnUse">
	<stop  offset="0" style="stop-color:#69FC01"/>
	<stop  offset="1" style="stop-color:#36DD00"/>
</radialGradient>
<path style="fill:url(#SVGID_1_);" d="M256,26C128.975,26,26,128.975,26,256c0,72.327,33.395,136.844,85.596,179.007L82.155,486H256
	c127.026,0,230-102.974,230-230S383.026,26,256,26z M162.584,313.757h-53.868c-4.907,0-8.885-3.978-8.885-8.885v-94.363
	c0-6.774,5.491-12.265,12.265-12.265c4.907,0,8.885,3.978,8.885,8.885v85.421c0,1.898,1.539,3.437,3.437,3.437h38.166
	c4.907,0,8.885,3.978,8.885,8.885C171.47,309.779,167.492,313.757,162.584,313.757z M203.727,303.182
	c0,5.84-4.735,10.575-10.575,10.575h0c-5.84,0-10.575-4.735-10.575-10.575v-94.363c0-5.841,4.735-10.575,10.575-10.575h0
	c5.84,0,10.575,4.735,10.575,10.575V303.182z M319.079,303.62c0,5.598-4.538,10.137-10.137,10.137h-4.417
	c-3.37,0-6.519-1.675-8.404-4.468l-35.379-52.452c-4.536-6.714-8.475-12.806-11.917-18.438c-1.259-2.06-4.425-1.118-4.36,1.296
	c0.196,7.274,0.284,15.123,0.284,24.276v39.651c0,5.598-4.538,10.137-10.137,10.137h-0.001c-5.598,0-10.137-4.538-10.137-10.137
	v-93.475c0-6.573,5.329-11.902,11.902-11.902c5.793,0,11.213,2.862,14.479,7.646l33.524,49.098
	c3.765,5.518,7.216,10.861,10.39,16.085c1.254,2.064,4.442,1.105,4.359-1.309c-0.251-7.313-0.324-14.735-0.324-22.708V208.38
	c0-5.598,4.538-10.137,10.137-10.137s10.137,4.538,10.137,10.137V303.62z M412.169,304.953c0,4.862-3.942,8.804-8.804,8.804h-54.731
	c-4.862,0-8.804-3.942-8.804-8.804v-97.905c0-4.862,3.942-8.804,8.804-8.804h52.102c4.862,0,8.804,3.942,8.804,8.804v0.163
	c0,4.862-3.942,8.804-8.804,8.804h-37.398c-1.303,0-2.359,1.056-2.359,2.359v24.025c0,1.303,1.056,2.359,2.359,2.359h34.767
	c4.862,0,8.804,3.942,8.804,8.804c0,4.862-3.942,8.804-8.804,8.804h-34.767c-1.303,0-2.359,1.056-2.359,2.359v28.904
	c0,1.303,1.056,2.359,2.359,2.359h40.027c4.862,0,8.804,3.942,8.804,8.804V304.953z"/>
</svg>
