<?xml version="1.0" encoding="utf-8"?>
<!-- Generator: Adobe Illustrator 18.0.0, SVG Export Plug-In . SVG Version: 6.00 Build 0)  -->
<!DOCTYPE svg PUBLIC "-//W3C//DTD SVG 1.1//EN" "http://www.w3.org/Graphics/SVG/1.1/DTD/svg11.dtd">
<svg version="1.1" id="Layer_1" xmlns="http://www.w3.org/2000/svg" xmlns:xlink="http://www.w3.org/1999/xlink" x="0px" y="0px"
	 viewBox="0 0 512 512" style="enable-background:new 0 0 512 512;" xml:space="preserve">
<g>
	<path style="fill:#FDEE3C;" d="M288.1,481.601c-20.455,3.369-39.441-2.893-59.858-0.323c-3.199,0.131-6.399,0.252-9.588,0.284
		c-29.438,2.514-56.314-11.576-80.969-27.324c-3.082-1.969-6.13-3.963-9.149-5.953c-12.062-6.12-23.473-13.259-33.709-21.556
		c-3.42-2.786-6.708-5.7-9.855-8.769c-20.739-20.521-30.887-48.427-39.766-76.333c-3.805-13.953-12.685-27.906-16.664-42.964
		c-0.921-4.409-1.563-8.861-1.97-13.34c-2.04-22.393,1.749-45.451,5.546-67.086c0.439-2.451,0.916-4.903,1.437-7.347
		c1.043-4.887,2.26-9.742,3.652-14.55c1.043-3.539,2.153-7.064,3.314-10.578c3.487-10.541,7.445-20.983,11.439-31.425
		c1.181-3.619,2.415-7.206,3.761-10.746c5.386-14.165,12.569-27.588,23.241-39.51c2.254-2.769,4.64-5.434,7.153-7.982
		c1.885-1.912,3.837-3.766,5.839-5.57c30.628-30.499,68.682-53.331,112.899-55.712c4.369-0.667,8.709-1.209,13.083-1.631
		c4.376-0.424,8.787-0.727,13.229-0.931c4.442-0.204,8.941-0.348,13.504-0.473c44.08-8.537,85.939,6.685,122.755,29.549
		c3.373,1.742,6.729,3.526,10.078,5.341c10.046,5.444,20.016,11.161,30.092,16.803c3.008,1.806,5.914,3.713,8.7,5.737
		c2.787,2.024,5.454,4.167,7.981,6.437c2.557,2.26,4.974,4.65,7.266,7.182c27.183,29.5,41.136,66.286,43.673,105.608
		c0,3.805,2.537,8.879,3.942,13.545c1.575,4.385,2.886,8.813,3.914,13.277c8.235,35.712-1.479,73.765-21.632,105.719
		c-0.932,4.61-2.05,9.172-3.372,13.655c-11.894,40.337-40.383,74.08-78.67,93.001c-3.643,2.191-7.308,4.23-11.001,6.146
		c-22.16,11.486-46.048,18.59-69.368,26.147C295.61,480.661,291.983,481.227,288.1,481.601z"/>
	
		<radialGradient id="SVGID_1_" cx="312.9318" cy="116.974" r="266.5079" gradientTransform="matrix(0.8023 0 0 -0.8023 4.9443 349.8439)" gradientUnits="userSpaceOnUse">
		<stop  offset="0" style="stop-color:#FFFFFF"/>
		<stop  offset="1" style="stop-color:#FEF6E2"/>
	</radialGradient>
	<path style="fill:url(#SVGID_1_);" d="M467.628,250.051c0.818,19.478-7.187,36.488-7.111,55.84
		c-0.241,3.001-0.492,6.001-0.826,8.982c-1.001,27.766-17.212,51.251-34.716,72.476c-2.188,2.654-4.396,5.272-6.597,7.863
		c-20.978,30.419-53.999,47.43-88.745,56.245c-3.004,0.994-6,1.972-9.006,2.934c-6.059,3.054-12.267,5.817-18.585,8.189
		c-3.158,1.186-6.347,2.273-9.569,3.252c-33.161,12.833-68.185,2.826-99.808-6.781c-2.238-0.687-4.473-1.412-6.695-2.178
		c-4.445-1.53-8.837-3.217-13.167-5.064c-3.185-1.376-6.349-2.813-9.497-4.298c-9.444-4.455-18.74-9.336-28.034-14.252
		c-3.243-1.515-6.453-3.073-9.605-4.733c-12.61-6.638-24.323-14.871-34.238-26.19c-2.329-2.42-4.545-4.95-6.638-7.584
		c-6.283-7.906-11.464-16.768-15.266-26.466c-1.482-3.273-2.822-6.586-4.05-9.946c-4.906-13.437-7.984-27.76-10.443-41.763
		c-0.997-3.331-1.91-6.673-2.737-10.036c-4.136-16.812-6.152-34.134-6.179-51.266c-0.695-3.883-1.181-7.724-1.471-11.529
		c-1.307-17.118,1.339-33.506,6.615-49.3c1.055-3.158,2.215-6.294,3.469-9.406c11.457-34.591,33.471-62.608,54.847-91.822
		c2.028-2.602,4.139-5.098,6.345-7.469c13.239-14.227,29.952-23.947,51.918-24.833c3.387-1.135,6.618-2.262,9.913-3.274
		c5.23-1.767,10.57-3.226,15.99-4.374c2.711-0.573,5.44-1.069,8.187-1.488c16.355-2.397,32.365-5.399,48.376-9.402
		c16.01-5.003,32.021-1,47.097,4.107c3.295,0.907,6.576,1.813,9.828,2.835c9.758,3.043,19.251,7.408,28.312,13.129
		c3.082,1.488,6.128,2.983,9.139,4.513c30.706,13.442,58.724,32.453,76.909,60.422c2.89,2.462,5.534,5.012,7.977,7.675
		c2.208,2.377,4.252,4.848,6.151,7.403c1.898,2.556,3.647,5.193,5.27,7.906c15.454,28.098,20.456,59.118,26.324,89.29
		C467.604,242.935,467.719,246.383,467.628,250.051z"/>
	<g>
		<g>
			
				<radialGradient id="SVGID_2_" cx="548.7147" cy="141.7181" r="246.7608" gradientTransform="matrix(-0.0197 0.7769 -0.802 -0.0191 380.3185 -167.5674)" gradientUnits="userSpaceOnUse">
				<stop  offset="0" style="stop-color:#FDB515"/>
				<stop  offset="1" style="stop-color:#F7901E"/>
			</radialGradient>
			<path style="fill:url(#SVGID_2_);" d="M430.853,273.644c-9.045-0.713-34.43-7.73-64.133-10.82
				c-38.76-4.032-79.475-7.075-78.11-18.47c2.736-22.826,38.345-30.789,69.075-48.813c27.409-16.075,49.521-33.514,59.378-33.278
				c11.363,0.271,10.873,13.22,20.554,24.466c7.675,8.916,5.345,24.079,9.036,33.82C451.078,232.233,457.08,275.713,430.853,273.644
				z"/>
			
				<radialGradient id="SVGID_3_" cx="548.7147" cy="141.7181" r="246.7608" gradientTransform="matrix(-0.0197 0.7769 -0.802 -0.0191 380.3185 -167.5674)" gradientUnits="userSpaceOnUse">
				<stop  offset="0" style="stop-color:#FDB515"/>
				<stop  offset="1" style="stop-color:#F7901E"/>
			</radialGradient>
			<path style="fill:url(#SVGID_3_);" d="M345.384,106.598c-8.359,6.313-19.431,22.988-34.432,47.162
				c-19.575,31.545-35.122,60.574-44.911,55.045c-14.505-8.193-18.714-43.838-22.565-77.548
				c-3.434-30.067-18.49-48.057-12.948-60.545c1.561-3.519,6.635-7.055,15.248-5.123c0,0,10.659-9.956,27.364-0.797
				c0,0,6.81,0.08,18.844,1.697c8.992,1.208,13.269,4.277,17.678,3.6C321.561,68.263,370.288,87.788,345.384,106.598z"/>
			
				<radialGradient id="SVGID_4_" cx="548.7147" cy="141.7181" r="246.7608" gradientTransform="matrix(-0.0197 0.7769 -0.802 -0.0191 380.3185 -167.5674)" gradientUnits="userSpaceOnUse">
				<stop  offset="0" style="stop-color:#FDB515"/>
				<stop  offset="1" style="stop-color:#F7901E"/>
			</radialGradient>
			<path style="fill:url(#SVGID_4_);" d="M402.345,158.454c-11.986,10.805-100.623,65.558-113.389,53.618
				c-8.218-7.687,56.156-94.338,70.902-103.76c12.258-7.833,34.399,9.933,34.087,22.221
				C393.946,130.534,415.385,146.701,402.345,158.454z"/>
			
				<radialGradient id="SVGID_5_" cx="548.7147" cy="141.7181" r="246.7608" gradientTransform="matrix(-0.0197 0.7769 -0.802 -0.0191 380.3185 -167.5674)" gradientUnits="userSpaceOnUse">
				<stop  offset="0" style="stop-color:#FDB515"/>
				<stop  offset="1" style="stop-color:#F7901E"/>
			</radialGradient>
			<path style="fill:url(#SVGID_5_);" d="M390.469,361.964c-8.582-3.736-32.622-32.322-58.31-49.873
				c-26.046-17.796-49.858-28.459-42.602-43.436c5.198-10.73,49.235-0.732,88.642,2.746c28.884,2.55,47.298,5.903,55.004,10.899
				c13.741,8.908,1.929,49.238-11.845,54.166C421.357,336.465,408.887,369.981,390.469,361.964z"/>
			
				<radialGradient id="SVGID_6_" cx="548.7147" cy="141.7181" r="246.7608" gradientTransform="matrix(-0.0197 0.7769 -0.802 -0.0191 380.3185 -167.5674)" gradientUnits="userSpaceOnUse">
				<stop  offset="0" style="stop-color:#FDB515"/>
				<stop  offset="1" style="stop-color:#F7901E"/>
			</radialGradient>
			<path style="fill:url(#SVGID_6_);" d="M85.985,333.318c14.184-11.151,127.276-58.368,137.725-42.106
				c9.011,14.021-66.231,84.347-96.201,95.086C112.246,391.766,78.888,338.898,85.985,333.318z"/>
			
				<radialGradient id="SVGID_7_" cx="548.7147" cy="141.7181" r="246.7608" gradientTransform="matrix(-0.0197 0.7769 -0.802 -0.0191 380.3185 -167.5674)" gradientUnits="userSpaceOnUse">
				<stop  offset="0" style="stop-color:#FDB515"/>
				<stop  offset="1" style="stop-color:#F7901E"/>
			</radialGradient>
			<path style="fill:url(#SVGID_7_);" d="M81.941,226.585c89.793,21.107,146.849,13.934,147.308,33.386
				c0.389,16.551-36.708,20.715-74.951,31.166c-25.844,7.063-36.897,19.164-58.87,28.145
				C69.787,329.762,41.009,216.963,81.941,226.585z"/>
			
				<radialGradient id="SVGID_8_" cx="548.7147" cy="141.7181" r="246.7608" gradientTransform="matrix(-0.0197 0.7769 -0.802 -0.0191 380.3185 -167.5674)" gradientUnits="userSpaceOnUse">
				<stop  offset="0" style="stop-color:#FDB515"/>
				<stop  offset="1" style="stop-color:#F7901E"/>
			</radialGradient>
			<path style="fill:url(#SVGID_8_);" d="M127.642,134.097c16.774,10.343,38.279,28.931,54.678,50.25
				c20.866,27.128,51.314,43.171,44.353,53.926c-11.653,18.004-57.701-6.538-86.075-9.129c-25.965-2.372-51.328-4.611-63.121-12.304
				c-18.598-12.132,5.723-40.06,5.723-40.06C83.419,161.646,108.849,122.51,127.642,134.097z"/>
			
				<radialGradient id="SVGID_9_" cx="548.7147" cy="141.7181" r="246.7608" gradientTransform="matrix(-0.0197 0.7769 -0.802 -0.0191 380.3185 -167.5674)" gradientUnits="userSpaceOnUse">
				<stop  offset="0" style="stop-color:#FDB515"/>
				<stop  offset="1" style="stop-color:#F7901E"/>
			</radialGradient>
			<path style="fill:url(#SVGID_9_);" d="M217.93,76.839c5.759,9.847,17.899,47.537,18.001,78.446
				c0.098,29.866,19.563,46.693,13.206,59.666c-1.152,2.349-6.913,7.452-16.712,5.421c-9.932-2.057-21.04-14.155-30.571-28.454
				c-21.81-32.721-68.999-58.509-71.24-70.288C123.781,85.728,205.494,55.573,217.93,76.839z"/>
			
				<radialGradient id="SVGID_10_" cx="548.7147" cy="141.7181" r="246.7608" gradientTransform="matrix(-0.0197 0.7769 -0.802 -0.0191 380.3185 -167.5674)" gradientUnits="userSpaceOnUse">
				<stop  offset="0" style="stop-color:#FDB515"/>
				<stop  offset="1" style="stop-color:#F7901E"/>
			</radialGradient>
			<path style="fill:url(#SVGID_10_);" d="M231.048,422.03c4.053-7.668,8.502-30.922,18.04-57.735
				c12.446-34.988,8.307-55.316,18.386-53.288c11.629,2.339,22.341,19.79,30.777,56.814c6.723,29.506,30.584,52.297,28.198,61.368
				c-2.75,10.456-14.791,11.344-27.999,17.846c-10.471,5.155-33.756,2.58-44.17,3.868
				C241.794,452.445,219.377,444.11,231.048,422.03z"/>
			
				<radialGradient id="SVGID_11_" cx="548.7147" cy="141.7181" r="246.7608" gradientTransform="matrix(-0.0197 0.7769 -0.802 -0.0191 380.3185 -167.5674)" gradientUnits="userSpaceOnUse">
				<stop  offset="0" style="stop-color:#FDB515"/>
				<stop  offset="1" style="stop-color:#F7901E"/>
			</radialGradient>
			<path style="fill:url(#SVGID_11_);" d="M328.43,416.52c-1.49-9.9-20.139-31.977-24.437-57.206
				c-6.028-35.387-27.871-48.775-24.295-58.19c5.648-14.875,52.515,17.399,66.572,33.062c19.165,21.356,36.074,27.372,44.319,37.938
				c2.323,2.977,8.239,9.801,1.024,18.894c-5.391,6.794-10.136,8.822-11.671,12.767C375.803,414.425,332.868,446.018,328.43,416.52z
				"/>
			
				<radialGradient id="SVGID_12_" cx="548.7147" cy="141.7181" r="246.7608" gradientTransform="matrix(-0.0197 0.7769 -0.802 -0.0191 380.3185 -167.5674)" gradientUnits="userSpaceOnUse">
				<stop  offset="0" style="stop-color:#FDB515"/>
				<stop  offset="1" style="stop-color:#F7901E"/>
			</radialGradient>
			<path style="fill:url(#SVGID_12_);" d="M142.988,385.945c11.617-5.424,25.953-20.378,48.704-34.792
				c31.911-20.218,35.512-39.519,46.158-40.172c16.817-1.031,5.253,48.962-4.134,68.304c-12.8,26.372-8.202,37.523-15.05,49.443
				c-1.929,3.358-3.969,16.815-19.254,12.171c-8.872-2.695-23.728-12.956-23.728-12.956
				C160.487,427.581,121.238,396.099,142.988,385.945z"/>
		</g>
		<g>
			
				<radialGradient id="SVGID_13_" cx="533.3389" cy="87.4266" r="177.8286" gradientTransform="matrix(-0.0197 0.7769 -0.802 -0.0191 380.3185 -167.5674)" gradientUnits="userSpaceOnUse">
				<stop  offset="0" style="stop-color:#FDB515"/>
				<stop  offset="1" style="stop-color:#F7901E"/>
			</radialGradient>
			<path style="fill:url(#SVGID_13_);" d="M430.853,273.644c-9.045-0.713-34.43-7.73-64.133-10.82
				c-38.76-4.032-79.475-7.075-78.11-18.47c2.736-22.826,38.345-30.789,69.075-48.813c27.409-16.075,49.521-33.514,59.378-33.278
				c11.363,0.271,10.873,13.22,20.554,24.466c7.675,8.916,5.345,24.079,9.036,33.82C451.078,232.233,457.08,275.713,430.853,273.644
				z"/>
			
				<radialGradient id="SVGID_14_" cx="463.8097" cy="125.4743" r="161.8351" gradientTransform="matrix(-0.0197 0.7769 -0.802 -0.0191 380.3185 -167.5674)" gradientUnits="userSpaceOnUse">
				<stop  offset="0" style="stop-color:#FDB515"/>
				<stop  offset="1" style="stop-color:#F7901E"/>
			</radialGradient>
			<path style="fill:url(#SVGID_14_);" d="M345.384,106.598c-8.359,6.313-19.431,22.988-34.432,47.162
				c-19.575,31.545-35.122,60.574-44.911,55.045c-14.505-8.193-18.714-43.838-22.565-77.548
				c-3.434-30.067-18.49-48.057-12.948-60.545c1.561-3.519,6.635-7.055,15.248-5.123c0,0,10.659-9.956,27.364-0.797
				c0,0,6.81,0.08,18.844,1.697c8.992,1.208,13.269,4.277,17.678,3.6C321.561,68.263,370.288,87.788,345.384,106.598z"/>
			
				<radialGradient id="SVGID_15_" cx="465.8605" cy="94.5485" r="146.7331" gradientTransform="matrix(-0.0206 0.811 -0.8725 -0.0209 391.2459 -172.2586)" gradientUnits="userSpaceOnUse">
				<stop  offset="0" style="stop-color:#FDB515"/>
				<stop  offset="1" style="stop-color:#F7901E"/>
			</radialGradient>
			<path style="fill:url(#SVGID_15_);" d="M402.345,158.454c-11.986,10.805-100.623,65.558-113.389,53.618
				c-8.218-7.687,56.156-94.338,70.902-103.76c12.258-7.833,34.399,9.933,34.087,22.221
				C393.946,130.534,415.385,146.701,402.345,158.454z"/>
			
				<radialGradient id="SVGID_16_" cx="574.7308" cy="89.8479" r="158.9764" gradientTransform="matrix(-0.0197 0.7769 -0.802 -0.0191 380.3185 -167.5674)" gradientUnits="userSpaceOnUse">
				<stop  offset="0" style="stop-color:#FDB515"/>
				<stop  offset="1" style="stop-color:#F7901E"/>
			</radialGradient>
			<path style="fill:url(#SVGID_16_);" d="M390.469,361.964c-8.582-3.736-32.622-32.322-58.31-49.873
				c-26.046-17.796-49.858-28.459-42.602-43.436c5.198-10.73,49.235-0.732,88.642,2.746c28.884,2.55,47.298,5.903,55.004,10.899
				c13.741,8.908,1.929,49.238-11.845,54.166C421.357,336.465,408.887,369.981,390.469,361.964z"/>
			
				<radialGradient id="SVGID_17_" cx="603.6664" cy="185.118" r="220.4174" gradientTransform="matrix(-0.0197 0.7769 -0.802 -0.0191 380.3185 -167.5674)" gradientUnits="userSpaceOnUse">
				<stop  offset="0" style="stop-color:#FDB515"/>
				<stop  offset="1" style="stop-color:#F7901E"/>
			</radialGradient>
			<path style="fill:url(#SVGID_17_);" d="M85.985,333.318c14.184-11.151,127.276-58.368,137.725-42.106
				c9.011,14.021-66.231,84.347-96.201,95.086C112.246,391.766,78.888,338.898,85.985,333.318z"/>
			
				<radialGradient id="SVGID_18_" cx="559.7231" cy="184.5491" r="214.2499" gradientTransform="matrix(-0.0197 0.7769 -0.802 -0.0191 380.3185 -167.5674)" gradientUnits="userSpaceOnUse">
				<stop  offset="0" style="stop-color:#FDB515"/>
				<stop  offset="1" style="stop-color:#F7901E"/>
			</radialGradient>
			<path style="fill:url(#SVGID_18_);" d="M81.941,226.585c89.793,21.107,146.849,13.934,147.308,33.386
				c0.389,16.551-36.708,20.715-74.951,31.166c-25.844,7.063-36.897,19.164-58.87,28.145
				C69.787,329.762,41.009,216.963,81.941,226.585z"/>
			
				<radialGradient id="SVGID_19_" cx="530.0822" cy="191.5873" r="175.6982" gradientTransform="matrix(-0.0197 0.7769 -0.802 -0.0191 380.3185 -167.5674)" gradientUnits="userSpaceOnUse">
				<stop  offset="0" style="stop-color:#FDB515"/>
				<stop  offset="1" style="stop-color:#F7901E"/>
			</radialGradient>
			<path style="fill:url(#SVGID_19_);" d="M127.642,134.097c16.774,10.343,38.279,28.931,54.678,50.25
				c20.866,27.128,51.314,43.171,44.353,53.926c-11.653,18.004-57.701-6.538-86.075-9.129c-25.965-2.372-51.328-4.611-63.121-12.304
				c-18.598-12.132,5.723-40.06,5.723-40.06C83.419,161.646,108.849,122.51,127.642,134.097z"/>
			
				<radialGradient id="SVGID_20_" cx="489.8793" cy="166.486" r="177.9677" gradientTransform="matrix(-0.0197 0.7769 -0.802 -0.0191 380.3185 -167.5674)" gradientUnits="userSpaceOnUse">
				<stop  offset="0" style="stop-color:#FDB515"/>
				<stop  offset="1" style="stop-color:#F7901E"/>
			</radialGradient>
			<path style="fill:url(#SVGID_20_);" d="M217.93,76.839c5.759,9.847,17.899,47.537,18.001,78.446
				c0.098,29.866,19.563,46.693,13.206,59.666c-1.152,2.349-6.913,7.452-16.712,5.421c-9.932-2.057-21.04-14.155-30.571-28.454
				c-21.81-32.721-68.999-58.509-71.24-70.288C123.781,85.728,205.494,55.573,217.93,76.839z"/>
			
				<radialGradient id="SVGID_21_" cx="633.4911" cy="123.7853" r="222.5768" gradientTransform="matrix(-0.0197 0.7769 -0.802 -0.0191 380.3185 -167.5674)" gradientUnits="userSpaceOnUse">
				<stop  offset="0" style="stop-color:#FDB515"/>
				<stop  offset="1" style="stop-color:#F7901E"/>
			</radialGradient>
			<path style="fill:url(#SVGID_21_);" d="M231.048,422.03c4.053-7.668,8.502-30.922,18.04-57.735
				c12.446-34.988,8.307-55.316,18.386-53.288c11.629,2.339,22.341,19.79,30.777,56.814c6.723,29.506,30.584,52.297,28.198,61.368
				c-2.75,10.456-14.791,11.344-27.999,17.846c-10.471,5.155-33.756,2.58-44.17,3.868
				C241.794,452.445,219.377,444.11,231.048,422.03z"/>
			
				<radialGradient id="SVGID_22_" cx="626.4022" cy="92.7405" r="153.0146" gradientTransform="matrix(-0.0197 0.7769 -0.802 -0.0191 380.3185 -167.5674)" gradientUnits="userSpaceOnUse">
				<stop  offset="0" style="stop-color:#FDB515"/>
				<stop  offset="1" style="stop-color:#F7901E"/>
			</radialGradient>
			<path style="fill:url(#SVGID_22_);" d="M328.43,416.52c-1.49-9.9-20.139-31.977-24.437-57.206
				c-6.028-35.387-27.871-48.775-24.295-58.19c5.648-14.875,52.515,17.399,66.572,33.062c19.165,21.356,36.074,27.372,44.319,37.938
				c2.323,2.977,8.239,9.801,1.024,18.894c-5.391,6.794-10.136,8.822-11.671,12.767C375.803,414.425,332.868,446.018,328.43,416.52z
				"/>
			
				<radialGradient id="SVGID_23_" cx="644.6778" cy="161.7595" r="174.1489" gradientTransform="matrix(-0.0197 0.7769 -0.802 -0.0191 380.3185 -167.5674)" gradientUnits="userSpaceOnUse">
				<stop  offset="0" style="stop-color:#FDB515"/>
				<stop  offset="1" style="stop-color:#F7901E"/>
			</radialGradient>
			<path style="fill:url(#SVGID_23_);" d="M142.988,385.945c11.617-5.424,25.953-20.378,48.704-34.792
				c31.911-20.218,35.512-39.519,46.158-40.172c16.817-1.031,5.253,48.962-4.134,68.304c-12.8,26.372-8.202,37.523-15.05,49.443
				c-1.929,3.358-3.969,16.815-19.254,12.171c-8.872-2.695-23.728-12.956-23.728-12.956
				C160.487,427.581,121.238,396.099,142.988,385.945z"/>
		</g>
	</g>
</g>
</svg>
