<?xml version="1.0" encoding="utf-8"?>
<!-- Generator: Adobe Illustrator 22.0.1, SVG Export Plug-In . SVG Version: 6.00 Build 0)  -->
<svg version="1.1" id="Layer_1" xmlns="http://www.w3.org/2000/svg" xmlns:xlink="http://www.w3.org/1999/xlink" x="0px" y="0px"
	 viewBox="0 0 512 512" enable-background="new 0 0 512 512" xml:space="preserve">
<g>
	<circle fill="#26AACE" cx="256" cy="256" r="230"/>
	<g>
		<path fill="#5BCBE9" d="M256,309.833c86.688,0,166.205-30.676,228.309-81.755C470.532,114.255,373.627,26.051,256.099,26.001
			c-0.066,0-0.132,0-0.198,0c-117.528,0.05-214.433,88.254-228.21,202.077C89.795,279.157,169.312,309.833,256,309.833z"/>
		<path fill="#C3EEF4" d="M482.086,213.61C419.179,267.766,339.869,297.333,256,297.333c-83.869,0-163.179-29.567-226.086-83.724
			c-1.794,9.629-2.992,19.467-3.546,29.479c25.872,20.336,54.245,37.085,84.765,49.993c45.891,19.41,94.631,29.252,144.868,29.252
			c50.236,0,98.978-9.842,144.868-29.252c30.519-12.908,58.892-29.657,84.764-49.993
			C485.078,233.077,483.881,223.239,482.086,213.61z"/>
	</g>
</g>
</svg>
