<?xml version="1.0" encoding="utf-8"?>
<!-- Generator: Adobe Illustrator 22.0.1, SVG Export Plug-In . SVG Version: 6.00 Build 0)  -->
<svg version="1.1" id="Layer_3" xmlns="http://www.w3.org/2000/svg" xmlns:xlink="http://www.w3.org/1999/xlink" x="0px" y="0px"
	 viewBox="0 0 512 512" enable-background="new 0 0 512 512" xml:space="preserve">
<path id="rect914_1_" fill="#564A41" d="M123.314,26c-30.593,0-55.53,24.936-55.53,55.528v348.944
	c0,30.593,24.937,55.528,55.53,55.528h265.373c30.592,0,55.528-24.935,55.528-55.528V81.528c0-30.592-24.936-55.528-55.528-55.528
	H123.314z"/>
<path id="rect914_3_" fill="#FFCC66" d="M148.769,70.123c-24.724,0-44.877,20.152-44.877,44.875v282.002
	c0,24.724,20.153,44.875,44.877,44.875h214.464c24.723,0,44.875-20.151,44.875-44.875V114.999c0-24.723-20.152-44.875-44.875-44.875
	H148.769z"/>
<path fill="#B7B7B7" d="M306.76,139.35H205.24c-19.575,0-35.5-15.925-35.5-35.5V68.5c0-19.575,15.925-35.5,35.5-35.5h101.52
	c19.575,0,35.5,15.925,35.5,35.5v35.35C342.26,123.425,326.335,139.35,306.76,139.35z M205.24,44c-13.509,0-24.5,10.991-24.5,24.5
	v35.35c0,13.509,10.991,24.5,24.5,24.5h101.52c13.51,0,24.5-10.991,24.5-24.5V68.5c0-13.509-10.99-24.5-24.5-24.5H205.24z"/>
</svg>
