<?xml version="1.0" encoding="utf-8"?>
<!-- Generator: Adobe Illustrator 18.0.0, SVG Export Plug-In . SVG Version: 6.00 Build 0)  -->
<!DOCTYPE svg PUBLIC "-//W3C//DTD SVG 1.1//EN" "http://www.w3.org/Graphics/SVG/1.1/DTD/svg11.dtd">
<svg version="1.1" id="Layer_1" xmlns="http://www.w3.org/2000/svg" xmlns:xlink="http://www.w3.org/1999/xlink" x="0px" y="0px"
	 viewBox="0 0 512 512" enable-background="new 0 0 512 512" xml:space="preserve">
<g>
	<path fill="#FD9500" d="M256,69.3L256,69.3c49.9,0,96.7,19.4,132,54.7s54.7,82.1,54.7,132c0,49.9-19.4,96.7-54.7,132
		s-82.1,54.7-132,54.7s-96.7-19.4-132-54.7s-54.7-82.1-54.7-132s19.4-96.7,54.7-132C159.3,88.7,206.1,69.3,256,69.3 M256,47.7
		C140.9,47.7,47.7,140.9,47.7,256S140.9,464.3,256,464.3c115.1,0,208.3-93.3,208.3-208.3S371.1,47.7,256,47.7L256,47.7z"/>
	<g>
		<path fill="#FD9500" d="M448.3,358.8c-1.9-1.9-6.1-0.7-9.5,2.6l-5.9,5.9l-2.4,2.4l-60.7,60.7l-1.8,1.8c0-0.2-0.1-0.4-0.1-0.6
			c-0.6-3.7-0.9-7.6-1-11.5l53.9-53.9l4.6-4.6c2.7-2.7,3.4-6.5,1.5-8.4c-1.9-1.9-5.6-1.2-8.4,1.5l-11.7,11.7l-39.7,39.7
			c0.3-5.1,0.9-10.2,1.7-14.9l23.2-23.2l5.5-5.5c1.5-1.5,1.2-4.2-0.7-6.1s-4.6-2.2-6.1-0.7l-15.7,15.7l-2.7,2.7
			c0.2-0.7,0.4-1.5,0.5-2.1l-0.1-0.1l0,0l1.5-4.8c0.3-0.8,2.1-6.9,4-15.9l0,0c5-24.2,10.3-70.1-14.4-94.7
			c-24.6-24.6-70.4-19.4-94.7-14.4c-1.9,9-3.7,15-4,15.9l-1.5,4.8l0.1,0.1c0,0,0,0,0,0c1.7-0.5,3.6-0.9,5.6-1.4l17.3-17.3
			c1.8-1.8,4.8-1.7,6.7,0.1c1.9,1.9,2,4.9,0.1,6.7l-7.5,7.5c4.7-0.6,9.6-1.1,14.6-1.4l10.2-10.2c2.7-2.7,6.5-3.4,8.4-1.5
			c1.9,1.9,1.2,5.6-1.5,8.4l-3.3,3.3c4,0.2,8,0.7,11.8,1.4l5-5c3.3-3.3,7.6-4.5,9.5-2.6c1.9,1.9,0.7,6.1-2.6,9.5l-1.1,1.1
			c3.1,1.2,6.1,2.7,8.7,4.5l0.1-0.1c3.4-3.4,7.7-4.7,9.6-2.8c1.9,1.9,0.7,6-2.6,9.4c2,2.5,3.6,5.2,5,8.3l0.4-0.4
			c3.3-3.3,7.6-4.5,9.5-2.6c1.9,1.9,0.7,6.1-2.6,9.5l-3.9,3.9c0.9,3.7,1.4,7.5,1.8,11.5l1.8-1.8c2.7-2.7,6.5-3.4,8.4-1.5
			c1.9,1.9,1.2,5.6-1.5,8.4l-8.3,8.3c-0.1,4.8-0.5,9.6-1,14.3l1.5-1.5c1.5-1.5,4.2-1.2,6.1,0.7c1.9,1.9,2.2,4.6,0.7,6.1l-10.9,10.9
			c-0.8,3.8-1.6,7.2-2.3,10.1l0,0l0.1,0.1l-1.5,4.8c-0.3,0.8-2.1,6.9-4,15.9l0,0c-3.3,16.1-6.8,41.6-1.5,64.2
			c1.5,6.3,3.6,12.4,6.7,18c5.7-2.8,11.3-5.9,16.7-9.1c-1.2-2.3-2.3-4.7-3.1-7.2l73.3-73.3l1.8-1.8
			C449.1,365,450.2,360.7,448.3,358.8z"/>
		<path fill="#FD9500" d="M256.9,193.3l-2.9,2.9l-57.2,57.2c-4-0.3-8-0.8-11.7-1.5l67.4-67.4l4.7-4.7c3.3-3.3,4.5-7.6,2.6-9.5
			c-1.9-1.9-6.1-0.7-9.5,2.6l-1,1l-74.9,74.9c-3.1-1.3-6-2.8-8.6-4.6c0.1-0.1,0.1-0.1,0.2-0.2l78.7-78.7c0,0,0,0,0,0
			c3.4-3.4,4.7-7.7,2.8-9.6c-1.9-1.9-6.1-0.7-9.5,2.7c0,0-0.1,0.1-0.1,0.1l-78.7,78.7c-0.1,0.1-0.2,0.2-0.3,0.3
			c-1.9-2.5-3.5-5.3-4.9-8.4l75.6-75.6l0.6-0.6c3.3-3.3,4.5-7.6,2.6-9.5c-1.9-1.9-6.1-0.7-9.5,2.6l-4.2,4.2l-68.5,68.5
			c-0.8-3.7-1.4-7.6-1.7-11.6l58.6-58.6l2.2-2.2c2.7-2.7,3.4-6.5,1.5-8.4c-1.9-1.9-5.6-1.2-8.4,1.5l-8.8,8.8l-45.5,45.5
			c0.2-5.2,0.6-10.3,1.2-15.2l29.1-29.1l6.3-6.3c1.8-1.8,1.7-4.8-0.1-6.7c-1.9-1.9-4.9-2-6.7-0.1l-15.9,15.9l-9.8,9.8
			c0.6-2.9,1.3-5.6,1.9-8l-0.1-0.1l0,0l1.5-4.8c0.3-0.8,2.1-6.9,4-15.9l0,0c3.3-15.8,6.7-40.9,1.7-63.2c-1.5-6.7-3.7-13.2-6.9-19
			c-5.7,2.8-11.3,5.9-16.7,9.1c1.1,2.1,2.1,4.2,2.9,6.5l1.6-1.6c3.3-3.3,7.6-4.5,9.5-2.6c1.9,1.9,0.7,6.1-2.6,9.5l-5.6,5.6
			c0.1,0.8,0.3,1.6,0.4,2.5c0.4,3.1,0.7,6.3,0.8,9.5l4.1-4.1c2.7-2.7,6.5-3.4,8.4-1.5c1.9,1.9,1.2,5.6-1.5,8.4l-11.1,11.1
			c-0.3,5.1-0.9,10.1-1.6,14.8l10.1-10.1c1.9-1.9,5.1-2,6.9-0.1c1.9,1.9,1.8,5-0.1,6.9l-20.2,20.2c-0.3,1.2-0.6,2.3-0.9,3.4l0,0
			l0.1,0.1l-1.5,4.8c-0.3,0.8-2.1,6.9-4,15.9l0,0c-5,24.2-10.3,70.1,14.4,94.7c24.6,24.6,70.4,19.4,94.7,14.4l0,0l0,0
			c1.9-9,3.7-15,4-15.9l1.5-4.8l0,0l-0.1-0.1c0,0,0,0,0,0c-2.1,0.5-4.4,1.1-6.8,1.7l8.5-8.5l12.8-12.8c1.5-1.5,1.2-4.2-0.7-6.1
			c-1.9-1.9-4.6-2.2-6.1-0.7l-3.1,3.1l-28,28c-4.7,0.6-9.6,1.1-14.5,1.3l43.8-43.8l9.6-9.6c2.7-2.7,3.4-6.5,1.5-8.4
			C263.5,189.8,259.7,190.5,256.9,193.3z"/>
	</g>
	<g>
		<path fill="#F7F7F7" d="M364.7,301l-1.8,1.8l-59.4,59.4c-3.9-0.4-7.8-0.9-11.5-1.8l69.1-69.1l3.9-3.9c3.3-3.3,4.5-7.6,2.6-9.5
			c-1.9-1.9-6.1-0.7-9.5,2.6l-0.4,0.4l-76,76c-3-1.4-5.8-3-8.3-5c0.1-0.1,0.2-0.2,0.3-0.3l78.7-78.7c0.1-0.1,0.1-0.1,0.2-0.2
			c3.3-3.4,4.5-7.6,2.6-9.4c-1.9-1.9-6.2-0.6-9.6,2.8l-0.1,0.1l-78.6,78.6c0,0,0,0-0.1,0.1c-1.8-2.6-3.3-5.6-4.5-8.7l74.5-74.5
			l1.1-1.1c3.3-3.3,4.5-7.6,2.6-9.5c-1.9-1.9-6.1-0.7-9.5,2.6l-5,5l-66.8,66.8c-0.7-3.8-1.2-7.8-1.4-11.8l56.4-56.4l3.3-3.3
			c2.7-2.7,3.4-6.5,1.5-8.4c-1.9-1.9-5.6-1.2-8.4,1.5l-10.2,10.2l-42.8,42.8c0.2-5,0.7-9.9,1.4-14.6l26.7-26.7l7.5-7.5
			c1.8-1.8,1.7-4.8-0.1-6.7c-1.9-1.9-4.9-2-6.7-0.1l-17.3,17.3l-7,7c0.5-2,0.9-3.9,1.4-5.6c0,0,0,0,0,0l-0.1-0.1l1.5-4.8
			c0.3-0.8,2.1-6.9,4-15.9c5-24.2,10.3-70.1-14.4-94.7c-24.6-24.6-70.4-19.4-94.7-14.4c-1.9,9-3.7,15-4,15.9l-1.5,4.8l0.1,0.1
			c2.4-0.6,5.1-1.3,8-1.9l15.9-15.9c1.8-1.8,4.8-1.7,6.7,0.1c1.9,1.9,2,4.9,0.1,6.7l-6.3,6.3c4.9-0.6,10.1-1,15.2-1.2l8.8-8.8
			c2.7-2.7,6.5-3.4,8.4-1.5c1.9,1.9,1.2,5.6-1.5,8.4l-2.2,2.2c4,0.3,7.8,0.9,11.6,1.7l4.2-4.2c3.3-3.3,7.6-4.5,9.5-2.6
			c1.9,1.9,0.7,6.1-2.6,9.5l-0.6,0.6c3.1,1.3,5.9,2.9,8.4,4.9c3.4-3.3,7.6-4.5,9.5-2.7c1.9,1.9,0.6,6.2-2.8,9.6
			c1.9,2.6,3.4,5.5,4.6,8.6l1-1c3.3-3.3,7.6-4.5,9.5-2.6c1.9,1.9,0.7,6.1-2.6,9.5l-4.7,4.7c0.8,3.8,1.3,7.7,1.5,11.7l2.9-2.9
			c2.7-2.7,6.5-3.4,8.4-1.5c1.9,1.9,1.2,5.6-1.5,8.4l-9.6,9.6c-0.2,5-0.7,9.8-1.3,14.5l3.1-3.1c1.5-1.5,4.2-1.2,6.1,0.7
			c1.9,1.9,2.2,4.6,0.7,6.1L250,240.9c-0.5,2.5-1.1,4.8-1.7,6.8c0,0,0,0,0,0l0.1,0.1l-1.5,4.8c-0.3,0.8-2.1,6.9-4,15.9
			c-5,24.2-10.3,70.1,14.4,94.7c24.6,24.6,70.4,19.4,94.7,14.4c1.9-9,3.7-15,4-15.9l1.5-4.8l-0.1-0.1c-3,0.8-6.4,1.6-10.1,2.3
			l12.5-12.5l10.9-10.9c1.5-1.5,1.2-4.2-0.7-6.1c-1.9-1.9-4.6-2.2-6.1-0.7l-1.5,1.5L331,361.7c-4.6,0.5-9.4,0.9-14.3,1l46.5-46.5
			l8.3-8.3c2.7-2.7,3.4-6.5,1.5-8.4C371.2,297.6,367.4,298.3,364.7,301z"/>
		<path fill="#F7F7F7" d="M467.9,166.5c-11.6-27.4-28.2-52-49.3-73.1c-21.1-21.1-45.7-37.7-73.1-49.3C317.2,32.1,287,26,256,26h0
			c-31,0-61.2,6.1-89.5,18.1c-27.4,11.6-52,28.2-73.1,49.3c-21.1,21.1-37.7,45.7-49.3,73.1C32.1,194.8,26,225,26,256
			s6.1,61.2,18.1,89.5c11.6,27.4,28.2,52,49.3,73.1s45.7,37.7,73.1,49.3c28.4,12,58.5,18.1,89.5,18.1s61.2-6.1,89.5-18.1
			c27.4-11.6,52-28.2,73.1-49.3c21.1-21.1,37.7-45.7,49.3-73.1c12-28.4,18.1-58.5,18.1-89.5C486,225,479.9,194.8,467.9,166.5z
			 M442.1,349.8C442.1,349.8,442.1,349.8,442.1,349.8c-22.5-5.2-47.9-1.8-64,1.6c-1.9,9-3.7,15-4,15.9l-1.5,4.8l0.1,0.1
			c0.7-0.2,1.4-0.4,2.1-0.5l15.7-15.7c1.5-1.5,4.2-1.2,6.1,0.7c1.9,1.9,2.2,4.6,0.7,6.1l-5.5,5.5c4.7-0.7,9.8-1.3,14.9-1.7
			l11.7-11.7c2.7-2.7,6.5-3.4,8.4-1.5c1.9,1.9,1.2,5.6-1.5,8.4l-4.6,4.6c3.8,0.1,7.7,0.5,11.3,1c-36.9,58.3-102,97.1-176.1,97.1
			c-115.1,0-208.3-93.3-208.3-208.3c0-34.2,8.2-66.4,22.8-94.9c0,0,0,0,0,0c22.4,5,47.6,1.6,63.4-1.7c1.9-9,3.7-15,4-15.9l1.5-4.8
			l-0.1-0.1c-1.1,0.3-2.2,0.6-3.4,0.9l4.3-4.3l20.2-20.2c1.9-1.9,2-5.1,0.1-6.9c-1.9-1.9-5-1.8-6.9,0.1l-10.1,10.1l-24.5,24.5
			c-4.7,0.7-9.7,1.2-14.8,1.6l40.8-40.8l11.1-11.1c2.7-2.7,3.4-6.5,1.5-8.4c-1.9-1.9-5.6-1.2-8.4,1.5l-4.1,4.1l-54.8,54.8
			c-3.3-0.1-6.6-0.4-9.7-0.9c0,0,0,0,0,0c1.8-2.7,3.6-5.4,5.5-8.1l0,0L135.5,86l0,0c34-24.1,75.6-38.3,120.5-38.3
			c115.1,0,208.3,93.3,208.3,208.3C464.3,289.8,456.3,321.6,442.1,349.8z"/>
	</g>
</g>
</svg>
