<?xml version="1.0" encoding="utf-8"?>
<!-- Generator: Adobe Illustrator 18.0.0, SVG Export Plug-In . SVG Version: 6.00 Build 0)  -->
<!DOCTYPE svg PUBLIC "-//W3C//DTD SVG 1.1//EN" "http://www.w3.org/Graphics/SVG/1.1/DTD/svg11.dtd">
<svg version="1.1"
	 id="svg2" xmlns:cc="http://creativecommons.org/ns#" xmlns:rdf="http://www.w3.org/1999/02/22-rdf-syntax-ns#" xmlns:dc="http://purl.org/dc/elements/1.1/" xmlns:svg="http://www.w3.org/2000/svg"
	 xmlns="http://www.w3.org/2000/svg" xmlns:xlink="http://www.w3.org/1999/xlink" x="0px" y="0px" viewBox="0 0 640 640"
	 style="enable-background:new 0 0 640 640;" xml:space="preserve">
<radialGradient id="path284_1_" cx="320" cy="320" r="192.7948" gradientUnits="userSpaceOnUse">
	<stop  offset="0" style="stop-color:#15FFF5"/>
	<stop  offset="1" style="stop-color:#2ABAFF"/>
</radialGradient>
<path id="path284" style="fill:url(#path284_1_);" d="M382.574,400.75c-22.82,22.82-55.001,30.567-84.182,23.247l-4.375-16.331
	c26.374,9.844,57.226,4.166,78.431-17.04c28.808-28.808,28.96-75.414,0.466-104.416l-12.191,12.191l-12.582-46.963l46.961,12.584
	l0.002-0.002l0,0l-12.063,12.063C417.125,310.679,416.973,366.352,382.574,400.75 M245.818,413.306l12.092-12.094
	c-0.16-0.156-0.324-0.304-0.482-0.464c-34.557-34.557-34.557-90.586,0-125.144c23.328-23.326,56.44-30.903,86.127-22.737
	l4.675,16.702c-26.852-11.036-58.866-5.65-80.676,16.161c-28.968,28.966-28.968,75.93,0,104.896c0.158,0.158,0.318,0.31,0.478,0.466
	l12.165-12.165l12.582,46.961C292.779,425.888,245.818,413.306,245.818,413.306z M493.554,297.173
	c-6.221-2.647-12.651-4.551-19.237-5.7c-2.946-65.513-57.168-117.896-123.393-117.896c-45.866,0-86.814,24.846-108.189,63.784
	c-9.828-6.225-21.342-9.656-33.375-9.656c-34.437,0-62.455,28.017-62.455,62.455c0,0.353,0.004,0.705,0.008,1.058
	c-14.193,5.743-26.881,15.058-36.622,27.059C97.206,334.393,90,354.722,90,375.513c0,50.13,40.78,90.91,90.906,90.91h287.293
	c2.357,0,4.592-0.511,6.606-1.427c25.262-4.578,47.617-20.226,60.574-42.592C544.948,408.566,550,392.369,550,375.513
	C550,339.818,527.351,308.436,493.554,297.173"/>
</svg>
