<?xml version="1.0" encoding="UTF-8" standalone="no"?>
<!DOCTYPE svg PUBLIC "-//W3C//DTD SVG 1.1//EN" "http://www.w3.org/Graphics/SVG/1.1/DTD/svg11.dtd">
<svg width="100%" height="100%" viewBox="0 0 512 512" version="1.1" xmlns="http://www.w3.org/2000/svg" xmlns:xlink="http://www.w3.org/1999/xlink" xml:space="preserve" xmlns:serif="http://www.serif.com/" style="fill-rule:evenodd;clip-rule:evenodd;stroke-linejoin:round;stroke-miterlimit:1.41421;">
    <circle id="xxxxx" cx="256" cy="256" r="230" style="fill:rgb(104,33,122);"/>
    <path id="xxxx" d="M339.236,90.668L420.956,123.661L420.956,388.33L338.474,421.332L207.264,290.867L124.038,355.356L91.045,338.86L91.045,173.141L124.038,157.398L207.264,222.631L339.236,90.668ZM124.037,206.887L124.037,307.363L173.526,256.376L124.037,206.887ZM253.006,256.377L338.483,323.869L338.483,188.884L253.006,256.377Z" style="fill:white;fill-opacity:0.5;fill-rule:nonzero;"/>
    <g>
        <path d="M127.357,247.682C127.375,247.408 127.394,247.135 127.413,246.861C127.472,246.01 127.539,245.161 127.615,244.314C127.629,244.157 127.644,244 127.659,243.843C127.751,242.852 127.855,241.864 127.97,240.878C127.971,240.868 127.972,240.859 127.973,240.849C131.245,212.816 143.605,186.692 163.557,166.158C182.229,146.94 206.007,134.238 231.919,129.351C231.934,129.348 231.95,129.345 231.965,129.342C232.937,129.159 233.912,128.987 234.89,128.827C235.013,128.807 235.136,128.785 235.259,128.765C236.132,128.624 237.008,128.494 237.886,128.37C238.102,128.34 238.317,128.307 238.533,128.277C239.333,128.169 240.136,128.071 240.94,127.977C241.221,127.944 241.5,127.908 241.782,127.877C242.543,127.793 243.306,127.721 244.069,127.651C244.386,127.622 244.702,127.588 245.02,127.561C245.797,127.495 246.576,127.442 247.355,127.39C247.654,127.37 247.952,127.344 248.252,127.326C249.328,127.262 250.406,127.209 251.487,127.172C252.561,127.135 253.634,127.113 254.706,127.102C254.945,127.1 255.183,127.103 255.422,127.102C256.252,127.098 257.081,127.099 257.909,127.111C258.205,127.115 258.5,127.125 258.795,127.131C259.565,127.147 260.335,127.168 261.103,127.198C261.415,127.21 261.726,127.227 262.038,127.241C262.793,127.276 263.547,127.316 264.299,127.364C264.603,127.383 264.905,127.406 265.208,127.427C265.977,127.482 266.746,127.542 267.513,127.611C267.785,127.635 268.057,127.661 268.328,127.687C269.143,127.765 269.956,127.85 270.769,127.944C270.982,127.969 271.195,127.993 271.408,128.018C272.313,128.126 273.216,128.245 274.117,128.372C274.228,128.388 274.338,128.402 274.449,128.418C298.351,131.858 320.897,141.953 339.551,157.841C361.692,176.699 376.681,202.22 382.356,230.425C382.449,230.889 382.533,231.355 382.622,231.82C382.532,231.349 382.432,230.881 382.337,230.411L339.314,199.447L332.309,209.203L384.563,246.793L390.804,251.282L390.809,251.282L396.243,242.437C396.087,240.796 395.908,239.16 395.696,237.532C395.696,237.53 395.695,237.527 395.695,237.525C395.109,233.058 394.308,228.642 393.307,224.289C388.258,202.328 378.015,181.973 363.448,164.834C363.425,164.807 363.402,164.781 363.379,164.754C362.725,163.986 362.062,163.224 361.391,162.469C361.228,162.286 361.062,162.106 360.898,161.924C360.348,161.312 359.796,160.702 359.235,160.099C358.891,159.73 358.541,159.367 358.193,159.001C357.789,158.576 357.388,158.149 356.979,157.729C356.243,156.975 355.498,156.227 354.744,155.487C354.704,155.448 354.666,155.408 354.627,155.37C353.806,154.566 352.973,153.771 352.13,152.985C351.92,152.789 351.705,152.599 351.494,152.404C350.887,151.844 350.278,151.286 349.663,150.738C349.183,150.311 348.696,149.892 348.21,149.471C347.871,149.177 347.535,148.881 347.194,148.591C346.515,148.015 345.831,147.447 345.143,146.885C345,146.768 344.858,146.648 344.714,146.531C320.011,126.493 289.457,115.482 257.699,115.106C257.514,115.104 257.327,115.107 257.142,115.105C256.237,115.098 255.332,115.095 254.426,115.105C253.308,115.118 252.189,115.143 251.068,115.182C250.867,115.189 250.667,115.202 250.467,115.21C249.493,115.248 248.521,115.291 247.553,115.349C247.151,115.373 246.751,115.407 246.35,115.434C245.572,115.487 244.794,115.539 244.02,115.605C243.627,115.638 243.235,115.68 242.842,115.717C242.053,115.79 241.264,115.864 240.479,115.95C240.14,115.987 239.804,116.031 239.466,116.071C238.617,116.171 237.768,116.273 236.924,116.387C236.667,116.422 236.411,116.461 236.154,116.497C235.216,116.63 234.28,116.768 233.348,116.919C233.193,116.944 233.039,116.971 232.884,116.997C231.833,117.171 230.786,117.353 229.744,117.55C229.712,117.556 229.681,117.562 229.65,117.568C169.489,128.98 123.242,178.58 116.062,239.391C116.057,239.437 116.051,239.483 116.046,239.53C115.924,240.573 115.816,241.62 115.717,242.67C115.698,242.87 115.679,243.069 115.662,243.269C115.581,244.172 115.511,245.078 115.446,245.986C115.424,246.3 115.401,246.615 115.381,246.929C115.343,247.519 115.316,248.111 115.285,248.703L127.289,248.735C127.309,248.382 127.335,248.032 127.357,247.682Z" style="fill:white;fill-rule:nonzero;"/>
        <path d="M384.705,263.264C384.697,263.409 384.688,263.553 384.68,263.697C384.636,264.456 384.582,265.212 384.524,265.969C384.504,266.225 384.487,266.482 384.466,266.738C384.398,267.577 384.318,268.414 384.234,269.25C384.217,269.417 384.202,269.585 384.184,269.753C384.087,270.672 383.979,271.589 383.863,272.504C383.853,272.582 383.844,272.659 383.834,272.737C380.924,295.336 372.093,316.635 358.034,334.779C357.563,335.388 357.091,335.997 356.608,336.598C356.489,336.747 356.364,336.892 356.244,337.041C355.698,337.715 355.147,338.387 354.586,339.052C354.448,339.215 354.306,339.375 354.167,339.538C353.622,340.177 353.074,340.815 352.515,341.445C352.316,341.669 352.111,341.89 351.911,342.113C351.411,342.669 350.911,343.224 350.401,343.772C350.36,343.816 350.32,343.862 350.279,343.907C350.026,344.178 349.767,344.441 349.512,344.71C349.154,345.087 348.801,345.469 348.438,345.842C348.377,345.905 348.314,345.966 348.253,346.028C347.848,346.444 347.436,346.851 347.026,347.261C346.706,347.58 346.389,347.902 346.066,348.218C345.552,348.721 345.032,349.215 344.511,349.708C344.29,349.917 344.072,350.129 343.85,350.336C343.23,350.915 342.604,351.484 341.974,352.049C341.849,352.161 341.725,352.276 341.6,352.387C340.875,353.033 340.143,353.669 339.405,354.297C339.377,354.32 339.35,354.344 339.323,354.368C320.448,370.421 297.556,380.58 272.931,383.798C272.895,383.803 272.858,383.807 272.821,383.811C271.843,383.938 270.862,384.056 269.879,384.161C269.659,384.185 269.438,384.202 269.218,384.225C268.41,384.307 267.601,384.388 266.79,384.455C266.336,384.493 265.881,384.52 265.426,384.553C264.84,384.595 264.255,384.643 263.667,384.678C262.616,384.74 261.562,384.79 260.506,384.827C259.462,384.863 258.419,384.886 257.377,384.897C256.846,384.903 256.317,384.898 255.787,384.897C255.282,384.896 254.776,384.899 254.271,384.892C253.649,384.884 253.029,384.866 252.408,384.849C252,384.838 251.592,384.829 251.184,384.814C250.522,384.79 249.862,384.756 249.203,384.722C248.84,384.703 248.477,384.685 248.114,384.663C247.43,384.622 246.748,384.573 246.067,384.521C245.731,384.495 245.394,384.469 245.058,384.441C244.367,384.383 243.677,384.318 242.989,384.249C242.657,384.216 242.325,384.181 241.994,384.145C241.311,384.071 240.63,383.992 239.95,383.907C239.606,383.864 239.262,383.818 238.918,383.772C238.259,383.684 237.601,383.594 236.945,383.496C236.56,383.439 236.176,383.377 235.792,383.316C235.184,383.22 234.575,383.123 233.97,383.018C233.493,382.936 233.017,382.846 232.541,382.758C232.036,382.665 231.529,382.574 231.026,382.474C230.311,382.333 229.598,382.182 228.885,382.029C228.627,381.973 228.367,381.922 228.11,381.865C207.727,377.363 188.622,367.939 172.441,354.157C150.3,335.298 135.311,309.778 129.636,281.573C129.542,281.103 129.456,280.631 129.367,280.159C129.458,280.637 129.56,281.111 129.656,281.587L172.679,312.551L179.684,302.795L127.431,265.206L121.19,260.716L121.185,260.716L115.754,269.556C115.912,271.2 116.093,272.838 116.307,274.464C116.325,274.598 116.338,274.734 116.356,274.868C116.38,275.049 116.408,275.229 116.433,275.409C116.567,276.374 116.707,277.337 116.86,278.296C116.885,278.455 116.914,278.614 116.939,278.773C117.1,279.758 117.268,280.74 117.449,281.718C117.472,281.841 117.496,281.963 117.519,282.086C117.712,283.113 117.914,284.136 118.128,285.154C118.141,285.215 118.154,285.275 118.167,285.336C118.334,286.125 118.515,286.908 118.696,287.692C131.362,342.655 176.127,385.024 231.535,394.777C231.823,394.828 232.112,394.873 232.4,394.921C233.167,395.051 233.936,395.177 234.707,395.295C235.144,395.362 235.583,395.422 236.021,395.485C236.647,395.574 237.274,395.662 237.903,395.743C238.408,395.808 238.914,395.869 239.42,395.928C239.991,395.995 240.563,396.06 241.137,396.12C241.673,396.176 242.209,396.23 242.746,396.28C243.299,396.332 243.854,396.379 244.409,396.425C244.955,396.47 245.501,396.514 246.048,396.552C246.61,396.591 247.173,396.624 247.737,396.657C248.274,396.688 248.81,396.721 249.347,396.746C249.952,396.774 250.56,396.793 251.167,396.814C251.664,396.831 252.161,396.852 252.658,396.863C253.475,396.882 254.295,396.889 255.115,396.894C255.394,396.896 255.672,396.903 255.951,396.903C257.604,396.903 259.266,396.875 260.926,396.816C262.08,396.776 263.23,396.721 264.379,396.653C265.03,396.615 265.678,396.562 266.326,396.515C266.816,396.479 267.307,396.45 267.795,396.41C268.709,396.334 269.62,396.244 270.53,396.15C270.741,396.128 270.954,396.111 271.165,396.089C272.259,395.972 273.351,395.842 274.44,395.699C274.461,395.696 274.482,395.694 274.503,395.691C301.363,392.168 326.44,381.052 347.082,363.519C347.11,363.495 347.138,363.47 347.167,363.446C347.976,362.758 348.777,362.06 349.572,361.353C349.707,361.232 349.841,361.109 349.976,360.988C350.665,360.37 351.349,359.747 352.027,359.115C352.274,358.885 352.517,358.65 352.762,358.417C353.328,357.882 353.893,357.345 354.451,356.799C354.807,356.451 355.157,356.096 355.509,355.744C355.954,355.3 356.4,354.857 356.84,354.406C357.309,353.925 357.771,353.435 358.234,352.946C358.552,352.611 358.874,352.278 359.188,351.941C359.753,351.334 360.306,350.72 360.859,350.104C361.072,349.867 361.289,349.634 361.499,349.396C362.111,348.705 362.712,348.007 363.309,347.307C363.46,347.13 363.615,346.956 363.765,346.779C364.382,346.048 364.986,345.31 365.587,344.569C365.715,344.411 365.847,344.257 365.974,344.098C366.504,343.439 367.02,342.772 367.537,342.105C382.845,322.333 392.542,299.014 395.738,274.271C395.747,274.2 395.756,274.128 395.765,274.057C395.894,273.045 396.012,272.031 396.12,271.015C396.138,270.84 396.155,270.664 396.173,270.488C396.266,269.571 396.352,268.653 396.428,267.732C396.451,267.445 396.471,267.158 396.493,266.871C396.555,266.055 396.613,265.237 396.661,264.418C396.683,264.043 396.699,263.667 396.718,263.292L384.705,263.264Z" style="fill:white;fill-rule:nonzero;"/>
    </g>
</svg>
