<?xml version="1.0" encoding="utf-8"?>
<!-- Generator: Adobe Illustrator 18.0.0, SVG Export Plug-In . SVG Version: 6.00 Build 0)  -->
<!DOCTYPE svg PUBLIC "-//W3C//DTD SVG 1.1//EN" "http://www.w3.org/Graphics/SVG/1.1/DTD/svg11.dtd">
<svg version="1.1" id="Layer_1" xmlns="http://www.w3.org/2000/svg" xmlns:xlink="http://www.w3.org/1999/xlink" x="0px" y="0px"
	 viewBox="0 0 512 512" enable-background="new 0 0 512 512" xml:space="preserve">
<g id="Layer_2_1_" opacity="0.4">
	
		<linearGradient id="SVGID_1_" gradientUnits="userSpaceOnUse" x1="216.847" y1="292.1155" x2="379.482" y2="292.1155" gradientTransform="matrix(1 0 0 -1 0 512)">
		<stop  offset="0" style="stop-color:#4474B9"/>
		<stop  offset="1" style="stop-color:#37499E"/>
	</linearGradient>
	<path fill="url(#SVGID_1_)" d="M379.5,138.6l-110.9,86.3c-3.9-1.3-8.2-2.1-12.6-2.1c-21.6,0-39.2,17.5-39.2,39.2
		s17.5,39.2,39.2,39.2s39.2-17.5,39.2-39.2c0-4.4-0.7-8.6-2.1-12.5L379.5,138.6z"/>
	
		<linearGradient id="SVGID_2_" gradientUnits="userSpaceOnUse" x1="26" y1="250" x2="486" y2="250" gradientTransform="matrix(1 0 0 -1 0 512)">
		<stop  offset="0" style="stop-color:#4474B9"/>
		<stop  offset="1" style="stop-color:#37499E"/>
	</linearGradient>
	<path fill="url(#SVGID_2_)" d="M256,32C129,32,26,135,26,262s103,230,230,230s230-103,230-230S383,32,256,32z M256,472.8
		c-116.1,0-210.2-94.1-210.2-210.2S139.9,52.4,256,52.4c116.1,0,210.2,94.1,210.2,210.2S372.1,472.8,256,472.8z"/>
</g>
<g id="Layer_2_2_">
	
		<linearGradient id="SVGID_3_" gradientUnits="userSpaceOnUse" x1="298.1645" y1="216.846" x2="298.1645" y2="379.385" gradientTransform="matrix(1 0 0 -1 0 512)">
		<stop  offset="0" style="stop-color:#2AD3FF"/>
		<stop  offset="1" style="stop-color:#3754FF"/>
	</linearGradient>
	<path fill="url(#SVGID_3_)" d="M379.5,132.6l-110.9,86.3c-3.9-1.3-8.2-2.1-12.6-2.1c-21.6,0-39.2,17.5-39.2,39.2
		s17.5,39.2,39.2,39.2s39.2-17.5,39.2-39.2c0-4.4-0.7-8.6-2.1-12.5L379.5,132.6z"/>
	
		<linearGradient id="SVGID_4_" gradientUnits="userSpaceOnUse" x1="256" y1="26" x2="256" y2="486" gradientTransform="matrix(1 0 0 -1 0 512)">
		<stop  offset="0" style="stop-color:#2AD3FF"/>
		<stop  offset="1" style="stop-color:#3754FF"/>
	</linearGradient>
	<path fill="url(#SVGID_4_)" d="M256,26C129,26,26,129,26,256s103,230,230,230s230-103,230-230S383,26,256,26z M256,466.8
		c-116.1,0-210.2-94.1-210.2-210.2S139.9,46.4,256,46.4c116.1,0,210.2,94.1,210.2,210.2S372.1,466.8,256,466.8z"/>
</g>
</svg>
