<?xml version="1.0" encoding="utf-8"?>
<!-- Generator: Adobe Illustrator 22.0.1, SVG Export Plug-In . SVG Version: 6.00 Build 0)  -->
<svg version="1.1" id="Layer_2" xmlns="http://www.w3.org/2000/svg" xmlns:xlink="http://www.w3.org/1999/xlink" x="0px" y="0px"
	 viewBox="0 0 512 512" enable-background="new 0 0 512 512" xml:space="preserve">
<circle fill="#0BA4F9" cx="256" cy="256" r="230"/>
<g>
	<g>
		<g>
			<circle fill="#FFFFFF" cx="163.676" cy="221.268" r="62.009"/>
			<g>
				<path d="M203.027,249.383c0,0-0.967,0.921-2.779,2.648c-1.831,1.699-4.839,4.035-8.92,6.451
					c-4.175,2.259-9.604,4.515-16.213,5.569c-0.825,0.12-1.658,0.315-2.517,0.378c-0.861,0.06-1.734,0.121-2.62,0.183
					c-1.775,0.198-3.604,0.055-5.487,0.025c-0.945,0.011-1.889-0.123-2.847-0.242c-0.96-0.118-1.931-0.237-2.914-0.358
					c-0.971-0.187-1.947-0.421-2.939-0.635c-0.989-0.226-2.004-0.407-2.979-0.767c-0.988-0.322-1.986-0.647-2.994-0.975
					c-0.512-0.147-1.001-0.358-1.489-0.579c-0.491-0.215-0.985-0.431-1.48-0.648c-0.496-0.218-0.995-0.437-1.496-0.656l-0.752-0.334
					l-0.72-0.403c-0.964-0.542-1.936-1.088-2.916-1.64l-0.736-0.418l-0.695-0.487c-0.465-0.326-0.932-0.653-1.4-0.982
					c-0.469-0.33-0.939-0.661-1.412-0.994c-0.235-0.169-0.477-0.329-0.706-0.506l-0.659-0.569c-0.881-0.763-1.769-1.532-2.663-2.306
					l-0.336-0.292l-0.168-0.146c-0.063-0.062,0.022,0.036-0.163-0.158l-0.073-0.077l-0.586-0.62l-1.178-1.246
					c-0.391-0.442-0.797-0.779-1.179-1.311l-1.162-1.501l-1.164-1.522l-0.988-1.592l-0.988-1.609
					c-0.336-0.535-0.572-1.126-0.863-1.69c-0.546-1.146-1.16-2.276-1.56-3.501c-1.876-4.79-2.889-10.059-2.855-15.439
					c0.028-5.377,1.107-10.865,3.269-16.011c0.583-1.266,1.072-2.589,1.816-3.786c0.707-1.214,1.343-2.483,2.21-3.604
					c0.836-1.14,1.595-2.351,2.578-3.383l1.41-1.605l0.354-0.401l0.177-0.201c0.002-0.009,0.301-0.295,0.217-0.213l0.09-0.084
					l0.72-0.672l1.443-1.346l1.824-1.408c1.228-1.003,2.494-1.659,3.757-2.454c2.604-1.384,5.348-2.588,8.25-3.274
					c5.764-1.547,11.946-1.455,17.776,0.047c2.895,0.808,5.75,1.879,8.356,3.419c0.648,0.388,1.334,0.72,1.947,1.162l1.849,1.313
					c0.635,0.417,1.196,0.921,1.766,1.416l0.856,0.743l0.427,0.373l0.213,0.187l0.107,0.094c-0.1-0.11,0.257,0.257,0.25,0.25
					l1.371,1.448l0.342,0.362l0.387,0.485l0.772,0.993l0.761,1.004l0.626,0.994c0.393,0.674,0.861,1.31,1.184,2.022
					c1.506,2.748,2.442,5.775,2.981,8.84c1.099,6.15,0.082,12.606-2.663,18.163c-0.746,1.354-1.471,2.731-2.408,3.957
					c-0.451,0.625-0.879,1.27-1.41,1.825l-0.764,0.859l-0.384,0.427l-0.192,0.213l-0.096,0.106
					c-0.116,0.115,0.124-0.106-0.284,0.284l-1.401,1.288c-0.594,0.497-1.361,1.065-2.048,1.572c-0.701,0.493-1.363,0.85-2.051,1.27
					c-0.682,0.405-1.417,0.708-2.129,1.049c-5.816,2.482-12.426,2.658-18.119,0.571c-2.852-1.018-5.478-2.551-7.73-4.446
					c-0.545-0.493-1.08-0.994-1.605-1.498l-0.099-0.094c-0.381-0.397-0.147-0.158-0.25-0.268l-0.143-0.166l-0.286-0.332l-0.57-0.662
					c-0.498-0.659-1.029-1.372-1.463-2.047c-0.369-0.659-0.772-1.298-1.085-1.979c-2.632-5.422-2.605-11.67-0.477-16.77
					c1.071-2.554,2.656-4.822,4.543-6.648l0.172-0.176c0.097-0.093-0.095,0.084,0.239-0.23l0.075-0.063l0.299-0.25l0.595-0.498
					c0.585-0.43,1.256-0.937,1.846-1.272c0.594-0.326,1.17-0.674,1.794-0.919l0.919-0.389l0.943-0.304
					c5.053-1.615,10.406-0.456,14.19,2.219c0.474,0.335,0.915,0.71,1.36,1.065c0.419,0.386,0.818,0.787,1.214,1.18
					c0,0,0.258,0.276,0.174,0.189l0.053,0.065l0.105,0.129l0.21,0.257c0.137,0.168,0.267,0.319,0.479,0.621
					c0.387,0.533,0.744,1.071,0.985,1.559c1.1,1.999,1.583,4.205,1.55,6.294c0.007,4.203-2.186,7.895-4.837,9.942
					c-3.055,2.325-6.563,2.522-9.274,1.661c-1.36-0.43-2.538-1.118-3.46-1.945c-0.92-0.82-1.63-1.73-2.115-2.768
					c-0.931-1.996-0.816-3.908-0.428-5.259c0.417-1.369,1.058-2.253,1.532-2.773c0.228-0.272,0.437-0.441,0.566-0.562
					c0.131-0.119,0.198-0.179,0.198-0.179l0.707,0.707c0,0-0.045,0.063-0.134,0.188c-0.086,0.126-0.23,0.3-0.368,0.564
					c-0.294,0.506-0.667,1.314-0.775,2.402c-0.081,1.076,0.106,2.455,0.957,3.662c0.385,0.558,0.999,1.131,1.727,1.576
					c0.725,0.44,1.557,0.774,2.464,0.91c0.903,0.134,1.875,0.093,2.802-0.201c0.457-0.16,0.919-0.332,1.332-0.607
					c0.22-0.111,0.406-0.284,0.611-0.422c0.187-0.17,0.262-0.23,0.497-0.45c0.822-0.834,1.393-1.753,1.783-2.829
					c0.383-1.06,0.531-2.237,0.371-3.398c-0.149-1.158-0.555-2.296-1.238-3.267c-0.17-0.275-0.333-0.435-0.472-0.604
					c-0.055-0.1-0.685-0.708-0.718-0.733c-0.26-0.202-0.521-0.406-0.784-0.611c-0.287-0.169-0.556-0.362-0.846-0.524
					c-2.32-1.264-5.299-1.538-7.855-0.482l-0.478,0.193l-0.454,0.248c-0.315,0.141-0.585,0.365-0.877,0.546
					c-0.283,0.195-0.407,0.346-0.658,0.518l-0.555,0.542l-0.279,0.272l-0.07,0.068c0.285-0.271,0.053-0.042,0.105-0.088l-0.09,0.114
					c-1.017,1.159-1.796,2.518-2.276,3.994c-1.016,2.936-0.734,6.364,0.786,9.16c0.179,0.355,0.428,0.673,0.626,1.018
					c0.213,0.279,0.392,0.485,0.579,0.764l0.601,0.634l0.301,0.318l0.151,0.159c-0.053-0.057,0.226,0.241-0.1-0.108l0.064,0.053
					c0.342,0.28,0.678,0.567,1.006,0.863c1.39,1.089,2.97,1.941,4.672,2.489c3.396,1.081,7.281,1.025,10.673-0.467
					c0.409-0.212,0.856-0.353,1.253-0.593c0.382-0.237,0.842-0.463,1.173-0.692c0.322-0.25,0.597-0.4,0.99-0.695l1.423-1.264
					c-0.352,0.334-0.061,0.052-0.123,0.108l0.064-0.07l0.128-0.141l0.256-0.281l0.517-0.559c0.368-0.355,0.647-0.781,0.963-1.179
					c0.665-0.778,1.149-1.681,1.695-2.549c1.905-3.613,2.899-7.899,2.336-12.154c-0.268-2.111-0.782-4.238-1.741-6.185
					c-0.187-0.513-0.511-0.955-0.755-1.441l-0.393-0.712l-0.418-0.599l-0.407-0.611l-0.206-0.314l-0.325-0.377l-1.303-1.51
					c-0.06-0.069,0.231,0.245,0.071,0.078l-0.078-0.074l-0.157-0.148l-0.313-0.296l-0.625-0.595
					c-0.416-0.399-0.82-0.814-1.294-1.143l-1.371-1.054c-0.452-0.362-0.973-0.617-1.455-0.936c-1.942-1.26-4.106-2.144-6.316-2.859
					c-8.944-2.721-19.251-0.508-26.205,5.919l-0.741,0.649l-0.093,0.081c-0.146,0.135,0.094-0.094,0.043-0.04l-0.152,0.164
					l-0.305,0.328l-1.224,1.31c-0.865,0.834-1.515,1.839-2.254,2.77c-0.774,0.912-1.316,1.974-1.96,2.968
					c-0.679,0.979-1.115,2.085-1.656,3.134c-1.997,4.277-3.108,8.922-3.312,13.546c-0.209,4.626,0.486,9.225,1.959,13.462
					c0.299,1.087,0.807,2.085,1.243,3.108c0.236,0.502,0.416,1.033,0.695,1.511l0.814,1.441l0.804,1.438l0.908,1.297l0.896,1.299
					c0.259,0.433,0.721,0.871,1.07,1.305c2.784,3.405,6.105,6.125,9.488,8.49c0.878,0.547,1.748,1.089,2.611,1.627l0.646,0.404
					l0.679,0.336c0.453,0.223,0.903,0.444,1.352,0.665c0.449,0.222,0.896,0.442,1.34,0.662c0.442,0.226,0.886,0.444,1.353,0.599
					c0.921,0.346,1.832,0.689,2.734,1.028c0.891,0.381,1.826,0.585,2.737,0.837c0.914,0.24,1.815,0.502,2.715,0.719
					c0.914,0.153,1.817,0.304,2.709,0.454c0.893,0.153,1.775,0.322,2.66,0.348c1.763,0.103,3.486,0.325,5.164,0.207
					c0.84-0.02,1.668-0.04,2.484-0.06c0.817-0.021,1.609-0.174,2.397-0.252c6.306-0.727,11.599-2.628,15.743-4.579
					c4.077-2.146,7.014-4.175,8.938-5.776c1.901-1.63,2.914-2.499,2.914-2.499L203.027,249.383z"/>
			</g>
		</g>
		<g>
			<circle fill="#FFFFFF" cx="348.324" cy="221.268" r="62.009"/>
			<g>
				<path d="M396.128,246.648c0,0-0.967,0.921-2.78,2.648c-1.831,1.699-4.839,4.035-8.92,6.451
					c-4.175,2.259-9.604,4.515-16.213,5.569c-0.825,0.12-1.658,0.315-2.517,0.378c-0.861,0.06-1.734,0.121-2.62,0.183
					c-1.775,0.198-3.604,0.055-5.487,0.025c-0.945,0.011-1.889-0.123-2.847-0.242c-0.96-0.118-1.931-0.237-2.914-0.358
					c-0.971-0.187-1.947-0.421-2.939-0.635c-0.989-0.226-2.004-0.407-2.979-0.767c-0.988-0.322-1.986-0.647-2.994-0.975
					c-0.512-0.147-1.001-0.358-1.489-0.579c-0.491-0.215-0.985-0.431-1.48-0.648c-0.496-0.218-0.995-0.437-1.496-0.656l-0.752-0.334
					l-0.72-0.403c-0.964-0.542-1.936-1.088-2.916-1.64l-0.736-0.418l-0.695-0.487c-0.465-0.326-0.932-0.653-1.4-0.982
					c-0.469-0.33-0.939-0.661-1.412-0.994c-0.235-0.169-0.477-0.329-0.706-0.506l-0.659-0.569c-0.881-0.763-1.769-1.532-2.664-2.306
					l-0.336-0.292l-0.168-0.146c-0.063-0.062,0.022,0.036-0.163-0.158l-0.073-0.077l-0.586-0.62l-1.178-1.246
					c-0.391-0.442-0.797-0.779-1.179-1.311l-1.162-1.501l-1.164-1.522l-0.988-1.592l-0.988-1.609
					c-0.336-0.535-0.572-1.126-0.863-1.69c-0.546-1.146-1.16-2.276-1.56-3.501c-1.876-4.79-2.889-10.059-2.855-15.439
					c0.028-5.377,1.107-10.865,3.269-16.011c0.583-1.266,1.072-2.589,1.816-3.786c0.707-1.214,1.343-2.483,2.21-3.604
					c0.836-1.14,1.595-2.351,2.578-3.383l1.41-1.605l0.354-0.401l0.177-0.201c0.002-0.009,0.301-0.295,0.217-0.213l0.09-0.084
					l0.72-0.672l1.443-1.346l1.824-1.408c1.228-1.003,2.494-1.659,3.757-2.454c2.604-1.384,5.348-2.588,8.25-3.274
					c5.764-1.547,11.946-1.455,17.776,0.047c2.895,0.808,5.75,1.879,8.356,3.419c0.648,0.388,1.334,0.72,1.947,1.162l1.849,1.313
					c0.635,0.417,1.196,0.921,1.766,1.416l0.856,0.743l0.427,0.373l0.213,0.187l0.107,0.094c-0.1-0.11,0.257,0.257,0.25,0.25
					l1.371,1.448l0.342,0.362l0.387,0.485l0.772,0.993l0.761,1.004l0.626,0.994c0.393,0.674,0.861,1.31,1.184,2.022
					c1.506,2.748,2.442,5.775,2.981,8.84c1.099,6.15,0.082,12.606-2.663,18.163c-0.746,1.354-1.471,2.731-2.408,3.957
					c-0.451,0.625-0.879,1.27-1.41,1.825l-0.764,0.859l-0.384,0.427l-0.192,0.213l-0.096,0.106
					c-0.116,0.115,0.124-0.106-0.284,0.284l-1.401,1.288c-0.594,0.497-1.361,1.065-2.048,1.572c-0.701,0.493-1.363,0.85-2.051,1.27
					c-0.682,0.405-1.417,0.708-2.129,1.049c-5.816,2.482-12.426,2.658-18.119,0.571c-2.852-1.018-5.478-2.551-7.73-4.446
					c-0.545-0.493-1.08-0.994-1.605-1.498l-0.099-0.094c-0.381-0.397-0.147-0.158-0.25-0.268l-0.143-0.166l-0.286-0.332l-0.57-0.662
					c-0.498-0.659-1.029-1.372-1.463-2.047c-0.369-0.659-0.772-1.298-1.085-1.979c-2.632-5.422-2.605-11.67-0.477-16.77
					c1.071-2.554,2.656-4.822,4.543-6.648l0.172-0.176c0.097-0.093-0.095,0.084,0.239-0.23l0.075-0.063l0.299-0.25l0.595-0.498
					c0.585-0.43,1.256-0.937,1.846-1.272c0.594-0.326,1.17-0.674,1.794-0.919l0.919-0.389l0.943-0.304
					c5.053-1.615,10.406-0.456,14.19,2.219c0.474,0.335,0.915,0.71,1.36,1.065c0.419,0.386,0.818,0.787,1.214,1.18
					c0,0,0.258,0.276,0.174,0.189l0.053,0.065l0.105,0.129l0.21,0.257c0.137,0.168,0.267,0.319,0.479,0.621
					c0.387,0.533,0.744,1.071,0.985,1.559c1.1,1.999,1.583,4.205,1.55,6.294c0.007,4.203-2.186,7.895-4.837,9.942
					c-3.055,2.325-6.563,2.522-9.274,1.661c-1.36-0.43-2.538-1.118-3.46-1.945c-0.92-0.82-1.63-1.73-2.115-2.768
					c-0.931-1.996-0.816-3.908-0.428-5.259c0.417-1.369,1.057-2.253,1.532-2.773c0.228-0.272,0.437-0.441,0.566-0.562
					c0.131-0.119,0.198-0.179,0.198-0.179l0.707,0.707c0,0-0.045,0.063-0.134,0.188c-0.086,0.126-0.23,0.3-0.368,0.564
					c-0.294,0.506-0.667,1.314-0.775,2.402c-0.081,1.076,0.106,2.455,0.957,3.662c0.385,0.558,0.999,1.131,1.727,1.576
					c0.725,0.44,1.557,0.774,2.464,0.91c0.903,0.134,1.875,0.093,2.802-0.201c0.457-0.16,0.919-0.332,1.332-0.607
					c0.22-0.111,0.406-0.284,0.611-0.422c0.187-0.17,0.262-0.23,0.497-0.45c0.822-0.834,1.393-1.753,1.783-2.829
					c0.383-1.06,0.53-2.237,0.371-3.398c-0.149-1.158-0.555-2.296-1.238-3.267c-0.17-0.275-0.333-0.435-0.472-0.604
					c-0.055-0.1-0.685-0.708-0.718-0.733c-0.26-0.202-0.521-0.406-0.784-0.611c-0.287-0.169-0.556-0.362-0.846-0.524
					c-2.32-1.264-5.299-1.538-7.855-0.482l-0.478,0.193l-0.454,0.248c-0.315,0.141-0.585,0.365-0.877,0.546
					c-0.283,0.195-0.407,0.346-0.658,0.518l-0.555,0.542l-0.279,0.272l-0.07,0.068c0.285-0.271,0.053-0.042,0.105-0.088l-0.09,0.114
					c-1.017,1.159-1.796,2.518-2.276,3.994c-1.016,2.936-0.734,6.364,0.786,9.16c0.179,0.355,0.428,0.673,0.626,1.018
					c0.213,0.279,0.392,0.485,0.579,0.764l0.601,0.634l0.301,0.318l0.151,0.159c-0.053-0.057,0.226,0.241-0.1-0.108l0.064,0.053
					c0.342,0.28,0.678,0.567,1.006,0.863c1.39,1.089,2.97,1.941,4.672,2.489c3.396,1.081,7.281,1.025,10.673-0.467
					c0.409-0.212,0.856-0.353,1.253-0.593c0.382-0.237,0.842-0.463,1.173-0.692c0.322-0.25,0.597-0.4,0.99-0.695l1.423-1.264
					c-0.352,0.334-0.061,0.052-0.123,0.108l0.064-0.07l0.128-0.141l0.256-0.281l0.517-0.559c0.368-0.355,0.647-0.781,0.963-1.179
					c0.665-0.778,1.149-1.681,1.695-2.549c1.905-3.613,2.899-7.899,2.336-12.154c-0.268-2.111-0.782-4.238-1.741-6.185
					c-0.186-0.513-0.511-0.955-0.755-1.441l-0.393-0.712l-0.418-0.599l-0.407-0.611l-0.206-0.314l-0.325-0.377l-1.303-1.51
					c-0.06-0.069,0.231,0.245,0.071,0.078l-0.078-0.074l-0.157-0.148l-0.313-0.296L366.701,193c-0.416-0.399-0.82-0.814-1.294-1.143
					l-1.371-1.054c-0.452-0.362-0.973-0.617-1.455-0.936c-1.942-1.26-4.106-2.144-6.316-2.859
					c-8.944-2.721-19.251-0.508-26.205,5.919l-0.741,0.649l-0.093,0.081c-0.146,0.135,0.094-0.094,0.043-0.04l-0.152,0.164
					l-0.305,0.328l-1.224,1.31c-0.865,0.834-1.515,1.839-2.254,2.77c-0.774,0.912-1.316,1.974-1.96,2.968
					c-0.679,0.979-1.115,2.085-1.656,3.134c-1.997,4.277-3.108,8.922-3.312,13.546c-0.209,4.626,0.486,9.225,1.959,13.462
					c0.299,1.087,0.807,2.085,1.243,3.108c0.236,0.502,0.416,1.033,0.695,1.511l0.814,1.441l0.804,1.438l0.908,1.297l0.896,1.299
					c0.259,0.433,0.721,0.871,1.07,1.305c2.784,3.405,6.105,6.125,9.488,8.49c0.878,0.547,1.748,1.089,2.611,1.627l0.646,0.404
					l0.679,0.336c0.453,0.223,0.903,0.444,1.352,0.665c0.449,0.222,0.896,0.442,1.34,0.662c0.442,0.226,0.886,0.444,1.353,0.599
					c0.921,0.346,1.832,0.689,2.734,1.028c0.891,0.381,1.826,0.585,2.737,0.837c0.914,0.24,1.815,0.502,2.715,0.719
					c0.914,0.153,1.817,0.304,2.709,0.454c0.893,0.153,1.775,0.322,2.66,0.348c1.763,0.103,3.486,0.325,5.164,0.207
					c0.84-0.02,1.668-0.04,2.484-0.06c0.817-0.021,1.609-0.174,2.397-0.252c6.306-0.727,11.599-2.628,15.743-4.579
					c4.077-2.146,7.014-4.175,8.938-5.776c1.901-1.63,2.914-2.499,2.914-2.499L396.128,246.648z"/>
			</g>
		</g>
	</g>
	<g>
		<path fill="#F9E075" d="M384.478,335.148c0,47.031-57.522,17.864-128.478,17.864s-128.478,33.333-128.478-17.864
			c0-39.081,57.522-9.219,128.478-9.219S384.478,297.456,384.478,335.148z"/>
		<path fill="#FFD400" d="M384.478,335.148c0,47.031-57.522,95.352-128.478,95.352s-128.478-44.154-128.478-95.352
			c0-39.081,57.516,9.531,128.473,9.531S384.478,297.456,384.478,335.148z"/>
	</g>
</g>
</svg>
