<?xml version="1.0" encoding="utf-8"?>
<!-- Generator: Adobe Illustrator 22.0.1, SVG Export Plug-In . SVG Version: 6.00 Build 0)  -->
<svg version="1.1" id="Layer_1" xmlns="http://www.w3.org/2000/svg" xmlns:xlink="http://www.w3.org/1999/xlink" x="0px" y="0px"
	 viewBox="0 0 512 512" style="enable-background:new 0 0 512 512;" xml:space="preserve">
<path style="fill:#177C12;" d="M466.4,229.6L267.6,30.8c-6.4-6.4-16.8-6.4-23.2,0L45.6,229.6h0v240c0,9.1,7.4,16.4,16.4,16.4H450
	c9.1,0,16.4-7.4,16.4-16.4L466.4,229.6L466.4,229.6z M277.4,446.9c-13.2,0-23.9-10.7-23.9-23.9s10.7-23.9,23.9-23.9
	c13.2,0,23.9,10.7,23.9,23.9S290.6,446.9,277.4,446.9z M277.4,382c-13.2,0-23.9-10.7-23.9-23.9c0-13.2,10.7-23.9,23.9-23.9
	c13.2,0,23.9,10.7,23.9,23.9C301.4,371.3,290.6,382,277.4,382z M277.4,317.1c-13.2,0-23.9-10.7-23.9-23.9
	c0-13.2,10.7-23.9,23.9-23.9c13.2,0,23.9,10.7,23.9,23.9C301.4,306.4,290.6,317.1,277.4,317.1z M342.3,446.9
	c-13.2,0-23.9-10.7-23.9-23.9s10.7-23.9,23.9-23.9c13.2,0,23.9,10.7,23.9,23.9S355.5,446.9,342.3,446.9z M342.3,382
	c-13.2,0-23.9-10.7-23.9-23.9c0-13.2,10.7-23.9,23.9-23.9c13.2,0,23.9,10.7,23.9,23.9C366.2,371.3,355.5,382,342.3,382z
	 M342.3,317.1c-13.2,0-23.9-10.7-23.9-23.9c0-13.2,10.7-23.9,23.9-23.9c13.2,0,23.9,10.7,23.9,23.9
	C366.2,306.4,355.5,317.1,342.3,317.1z M407.2,446.9c-13.2,0-23.9-10.7-23.9-23.9S394,399,407.2,399s23.9,10.7,23.9,23.9
	S420.4,446.9,407.2,446.9z M407.2,382c-13.2,0-23.9-10.7-23.9-23.9c0-13.2,10.7-23.9,23.9-23.9s23.9,10.7,23.9,23.9
	C431.1,371.3,420.4,382,407.2,382z M407.2,317.1c-13.2,0-23.9-10.7-23.9-23.9c0-13.2,10.7-23.9,23.9-23.9s23.9,10.7,23.9,23.9
	C431.1,306.4,420.4,317.1,407.2,317.1z"/>
</svg>
