<?xml version="1.0" encoding="utf-8"?>
<!-- Generator: Adobe Illustrator 18.0.0, SVG Export Plug-In . SVG Version: 6.00 Build 0)  -->
<!DOCTYPE svg PUBLIC "-//W3C//DTD SVG 1.1//EN" "http://www.w3.org/Graphics/SVG/1.1/DTD/svg11.dtd">
<svg version="1.1" id="Layer_1" xmlns="http://www.w3.org/2000/svg" xmlns:xlink="http://www.w3.org/1999/xlink" x="0px" y="0px"
	 viewBox="0 0 512 512" style="enable-background:new 0 0 512 512;" xml:space="preserve">
<g>
	<path style="opacity:0.4;enable-background:new    ;" d="M426,60.9c0-5.5,4.4-9.9,9.8-10V38c-5.4-0.1-9.8-4.5-9.8-10h-12.8
		c0,5.5-4.5,10-10,10s-10-4.5-10-10h-12.8c0,5.5-4.5,10-10,10s-10-4.5-10-10h-12.8c0,5.5-4.5,10-10,10s-10-4.5-10-10h-12.8
		c0,5.5-4.5,10-10,10s-10-4.5-10-10H282c0,5.5-4.5,10-10,10s-10-4.5-10-10h-12.8c0,5.5-4.5,10-10,10s-10-4.5-10-10h-12.8
		c0,5.5-4.5,10-10,10s-10-4.5-10-10h-12.8c0,5.5-4.5,10-10,10s-10-4.5-10-10h-12.8c0,5.5-4.5,10-10,10s-10-4.5-10-10H118
		c0,5.5-4.5,10-10,10s-10-4.5-10-10H85.6c0,5.5-4.4,9.9-9.8,10v12.9c5.4,0.1,9.8,4.5,9.8,10s-4.4,9.9-9.8,10v12.9
		c5.4,0.1,9.8,4.5,9.8,10s-4.4,9.9-9.8,10v12.9c5.4,0.1,9.8,4.5,9.8,10c0,5.5-4.4,9.9-9.8,10v12.9c5.4,0.1,9.8,4.5,9.8,10
		s-4.4,9.9-9.8,10v12.9c5.4,0.1,9.8,4.5,9.8,10s-4.4,9.9-9.8,10v12.9c5.4,0.1,9.8,4.5,9.8,10s-4.4,9.9-9.8,10V248
		c5.4,0.1,9.8,4.5,9.8,10s-4.4,9.9-9.8,10v12.9c5.4,0.1,9.8,4.5,9.8,10s-4.4,9.9-9.8,10v12.9c5.4,0.1,9.8,4.5,9.8,10
		s-4.4,9.9-9.8,10v12.9c5.4,0.1,9.8,4.5,9.8,10s-4.4,9.9-9.8,10v12.9c5.4,0.1,9.8,4.5,9.8,10s-4.4,9.9-9.8,10v12.9
		c5.4,0.1,9.8,4.5,9.8,10s-4.4,9.9-9.8,10v12.9c5.4,0.1,9.8,4.5,9.8,10s-4.4,9.9-9.8,10V478c5.4,0.1,9.8,4.5,9.8,10h12.8
		c0-5.5,4.5-10,10-10s10,4.5,10,10h12.8c0-5.5,4.5-10,10-10s10,4.5,10,10H164c0-5.5,4.5-10,10-10s10,4.5,10,10h12.8
		c0-5.5,4.5-10,10-10s10,4.5,10,10h12.8c0-5.5,4.5-10,10-10s10,4.5,10,10h12.8c0-5.5,4.5-10,10-10s10,4.5,10,10h12.8
		c0-5.5,4.5-10,10-10s10,4.5,10,10H328c0-5.5,4.5-10,10-10s10,4.5,10,10h12.8c0-5.5,4.5-10,10-10s10,4.5,10,10h12.8
		c0-5.5,4.5-10,10-10s10,4.5,10,10h12.8c0-5.5,4.4-9.9,9.8-10v-12.9c-5.4-0.1-9.8-4.5-9.8-10s4.4-9.9,9.8-10v-12.9
		c-5.4-0.1-9.8-4.5-9.8-10s4.4-9.9,9.8-10v-12.9c-5.4-0.1-9.8-4.5-9.8-10s4.4-9.9,9.8-10v-12.9c-5.4-0.1-9.8-4.5-9.8-10
		s4.4-9.9,9.8-10v-12.9c-5.4-0.1-9.8-4.5-9.8-10s4.4-9.9,9.8-10v-12.9c-5.4-0.1-9.8-4.5-9.8-10s4.4-9.9,9.8-10V268
		c-5.4-0.1-9.8-4.5-9.8-10s4.4-9.9,9.8-10v-12.9c-5.4-0.1-9.8-4.5-9.8-10s4.4-9.9,9.8-10v-12.9c-5.4-0.1-9.8-4.5-9.8-10
		s4.4-9.9,9.8-10v-12.9c-5.4-0.1-9.8-4.5-9.8-10s4.4-9.9,9.8-10v-12.9c-5.4-0.1-9.8-4.5-9.8-10s4.4-9.9,9.8-10v-12.9
		c-5.4-0.1-9.8-4.5-9.8-10s4.4-9.9,9.8-10V70.8C430.4,70.8,426,66.3,426,60.9z"/>
	<path style="fill:#FFFBE9;" d="M426.2,58.9c0-5.5,4.4-9.9,9.8-10V36c-5.4-0.1-9.8-4.5-9.8-10h-12.8c0,5.5-4.5,10-10,10
		s-10-4.5-10-10h-12.8c0,5.5-4.5,10-10,10s-10-4.5-10-10h-12.8c0,5.5-4.5,10-10,10s-10-4.5-10-10H315c0,5.5-4.5,10-10,10
		s-10-4.5-10-10h-12.8c0,5.5-4.5,10-10,10s-10-4.5-10-10h-12.8c0,5.5-4.5,10-10,10s-10-4.5-10-10h-12.8c0,5.5-4.5,10-10,10
		s-10-4.5-10-10h-12.8c0,5.5-4.5,10-10,10s-10-4.5-10-10H151c0,5.5-4.5,10-10,10s-10-4.5-10-10h-12.8c0,5.5-4.5,10-10,10
		s-10-4.5-10-10H85.8c0,5.5-4.4,9.9-9.8,10v12.9c5.4,0.1,9.8,4.5,9.8,10s-4.4,9.9-9.8,10v12.9c5.4,0.1,9.8,4.5,9.8,10
		s-4.4,9.9-9.8,10v12.9c5.4,0.1,9.8,4.5,9.8,10c0,5.5-4.4,9.9-9.8,10v12.9c5.4,0.1,9.8,4.5,9.8,10s-4.4,9.9-9.8,10v12.9
		c5.4,0.1,9.8,4.5,9.8,10s-4.4,9.9-9.8,10v12.9c5.4,0.1,9.8,4.5,9.8,10s-4.4,9.9-9.8,10V246c5.4,0.1,9.8,4.5,9.8,10s-4.4,9.9-9.8,10
		v12.9c5.4,0.1,9.8,4.5,9.8,10s-4.4,9.9-9.8,10v12.9c5.4,0.1,9.8,4.5,9.8,10s-4.4,9.9-9.8,10v12.9c5.4,0.1,9.8,4.5,9.8,10
		s-4.4,9.9-9.8,10v12.9c5.4,0.1,9.8,4.5,9.8,10s-4.4,9.9-9.8,10v12.9c5.4,0.1,9.8,4.5,9.8,10s-4.4,9.9-9.8,10v12.9
		c5.4,0.1,9.8,4.5,9.8,10s-4.4,9.9-9.8,10V476c5.4,0.1,9.8,4.5,9.8,10h12.8c0-5.5,4.5-10,10-10s10,4.5,10,10h12.8
		c0-5.5,4.5-10,10-10s10,4.5,10,10h12.8c0-5.5,4.5-10,10-10s10,4.5,10,10H197c0-5.5,4.5-10,10-10s10,4.5,10,10h12.8
		c0-5.5,4.5-10,10-10s10,4.5,10,10h12.8c0-5.5,4.5-10,10-10s10,4.5,10,10h12.8c0-5.5,4.5-10,10-10s10,4.5,10,10h12.8
		c0-5.5,4.5-10,10-10s10,4.5,10,10H361c0-5.5,4.5-10,10-10s10,4.5,10,10h12.8c0-5.5,4.5-10,10-10s10,4.5,10,10h12.8
		c0-5.5,4.4-9.9,9.8-10v-12.9c-5.4-0.1-9.8-4.5-9.8-10s4.4-9.9,9.8-10v-12.9c-5.4-0.1-9.8-4.5-9.8-10s4.4-9.9,9.8-10v-12.9
		c-5.4-0.1-9.8-4.5-9.8-10s4.4-9.9,9.8-10v-12.9c-5.4-0.1-9.8-4.5-9.8-10s4.4-9.9,9.8-10v-12.9c-5.4-0.1-9.8-4.5-9.8-10
		s4.4-9.9,9.8-10v-12.9c-5.4-0.1-9.8-4.5-9.8-10s4.4-9.9,9.8-10V266c-5.4-0.1-9.8-4.5-9.8-10s4.4-9.9,9.8-10v-12.9
		c-5.4-0.1-9.8-4.5-9.8-10s4.4-9.9,9.8-10v-12.9c-5.4-0.1-9.8-4.5-9.8-10s4.4-9.9,9.8-10v-12.9c-5.4-0.1-9.8-4.5-9.8-10
		s4.4-9.9,9.8-10v-12.9c-5.4-0.1-9.8-4.5-9.8-10s4.4-9.9,9.8-10v-12.9c-5.4-0.1-9.8-4.5-9.8-10s4.4-9.9,9.8-10V68.8
		C430.6,68.8,426.2,64.3,426.2,58.9z"/>
	<g>
		<g>
			<rect x="106" y="356" style="fill:#FFDF40;" width="300" height="100"/>
			<rect x="106" y="256" style="fill:#FAA680;" width="300" height="100"/>
			<rect x="106" y="156" style="fill:#F56CBF;" width="300" height="100"/>
			<rect x="106" y="56" style="fill:#F033FF;" width="300" height="100"/>
		</g>
		<g style="opacity:0.5;">
			<rect x="106" y="56" style="fill:#FFFBAE;" width="100" height="400"/>
			<rect x="206" y="56" style="fill:#B9B7D7;" width="100" height="400"/>
			<rect x="306" y="56" style="fill:#7373FF;" width="100" height="400"/>
		</g>
	</g>
</g>
<g>
	<polygon style="opacity:0.5;enable-background:new    ;" points="177.094,278.669 256,142 334.906,278.669 	"/>
	<polygon style="opacity:0.5;enable-background:new    ;" points="256,278.669 318.665,170.13 381.33,278.669 	"/>
	<polygon style="opacity:0.5;enable-background:new    ;" points="200.102,278.669 130.67,158.409 130.67,278.669 	"/>
	<polygon style="opacity:0.5;enable-background:new    ;" points="256,278.669 193.335,170.13 130.67,278.669 	"/>
	<polygon style="opacity:0.5;enable-background:new    ;" points="311.898,278.669 381.33,158.409 381.33,278.669 	"/>
	<rect x="130.67" y="278.432" style="opacity:0.5;enable-background:new    ;" width="250.66" height="54.125"/>
</g>
</svg>
