<?xml version="1.0" encoding="utf-8"?>
<!-- Generator: Adobe Illustrator 22.0.1, SVG Export Plug-In . SVG Version: 6.00 Build 0)  -->
<svg version="1.1" id="Layer_1" xmlns="http://www.w3.org/2000/svg" xmlns:xlink="http://www.w3.org/1999/xlink" x="0px" y="0px"
	 viewBox="0 0 512 512" style="enable-background:new 0 0 512 512;" xml:space="preserve">
<path style="fill:#F7F7F7;" d="M446,486H66c-22.1,0-40-17.9-40-40V66c0-22.1,17.9-40,40-40h380c22.1,0,40,17.9,40,40v380
	C486,468.1,468.1,486,446,486z"/>
<g>
	<g>
		<path style="fill:#9C56B8;" d="M115.7,415H79.8c-18.9,0-34.3-15.4-34.3-34.3V79.8c0-18.9,15.4-34.3,34.3-34.3h35.9V415z"/>
		<rect x="115.7" y="45.5" style="fill:#2D98E0;" width="70.2" height="369.5"/>
		<rect x="185.8" y="45.5" style="fill:#00BD9B;" width="70.2" height="369.5"/>
		<rect x="256" y="45.5" style="fill:#51D88B;" width="70.2" height="369.5"/>
		<rect x="326.2" y="45.5" style="fill:#F1C50E;" width="70.2" height="369.5"/>
		<path style="fill:#E84C3D;" d="M432.2,415h-35.9V45.5h35.9c18.9,0,34.3,15.4,34.3,34.3v300.9C466.5,399.6,451.1,415,432.2,415z"/>
	</g>
	<path style="opacity:0.3;fill:#FFFFFF;enable-background:new    ;" d="M466.5,344.8v35.9c0,18.9-15.4,34.3-34.3,34.3H79.8
		c-18.9,0-34.3-15.4-34.3-34.3v-35.9H466.5z"/>
	<path style="opacity:0.4;enable-background:new    ;" d="M432.2,45.6H79.8c-18.9,0-34.3,15.4-34.3,34.3v26
		c0-18.9,15.4-34.3,34.3-34.3h352.4c18.9,0,34.3,15.3,34.3,34.3v-26C466.5,61,451.1,45.6,432.2,45.6z"/>
</g>
<g>
	<circle style="fill:#F7F7F7;" cx="256" cy="450.7" r="15"/>
	<path style="opacity:0.4;enable-background:new    ;" d="M271,450.7c0,0-6.7-6.8-15-6.8s-15,6.8-15,6.8c0-8.3,6.7-15,15-15
		S271,442.4,271,450.7z"/>
	<path style="fill:#595959;" d="M256,466.9c-8.9,0-16.2-7.3-16.2-16.2c0-8.9,7.3-16.2,16.2-16.2c8.9,0,16.2,7.3,16.2,16.2
		C272.2,459.6,264.9,466.9,256,466.9z M256,436.8c-7.7,0-13.9,6.2-13.9,13.9c0,7.7,6.2,13.9,13.9,13.9c7.7,0,13.9-6.2,13.9-13.9
		C269.9,443,263.7,436.8,256,436.8z"/>
</g>
<g>
	<g id="g268" style="opacity:0.5;">
		<g id="g270" transform="translate(327.758,327.576)">
			<path id="path272" style="fill:#FFFFFF;" d="M17.9-210h-179.4v0c0,0,0,0,0,0c-49.4,0-89.5,40.1-89.5,89.5s40.1,89.5,89.5,89.5
				c0,0,0,0,0,0H17.9c0,0,0,0,0,0c49.4,0,89.5-40.1,89.5-89.5C107.4-170,67.4-210,17.9-210"/>
		</g>
	</g>
	<g id="g274" transform="translate(327.758,310.53)">
		<path id="path276" style="fill:#FFFFFF;" d="M17.9-171.7c37.6,0,68.2,30.5,68.2,68.2S55.6-35.4,17.9-35.4s-68.2-30.5-68.2-68.2
			S-19.7-171.7,17.9-171.7"/>
	</g>
</g>
</svg>
