<?xml version="1.0" encoding="utf-8"?>
<!-- Generator: Adobe Illustrator 18.0.0, SVG Export Plug-In . SVG Version: 6.00 Build 0)  -->
<!DOCTYPE svg PUBLIC "-//W3C//DTD SVG 1.1//EN" "http://www.w3.org/Graphics/SVG/1.1/DTD/svg11.dtd">
<svg version="1.1" id="Layer_1" xmlns="http://www.w3.org/2000/svg" xmlns:xlink="http://www.w3.org/1999/xlink" x="0px" y="0px"
	 viewBox="0 0 512 512" style="enable-background:new 0 0 512 512;" xml:space="preserve">
<g>
	<polygon style="fill:#E2E2E2;" points="313,430.9 308.2,382.7 203.8,382.7 199,430.9 	"/>
	<rect x="174" y="429.6" style="fill:#969696;" width="164.1" height="6.4"/>
	<g>
		<g>
			<radialGradient id="SVGID_1_" cx="262.7633" cy="587.3285" r="636.7156" gradientUnits="userSpaceOnUse">
				<stop  offset="0.0193" style="stop-color:#FAAD1C"/>
				<stop  offset="0.3892" style="stop-color:#F26731"/>
				<stop  offset="0.7239" style="stop-color:#E71670"/>
				<stop  offset="1" style="stop-color:#652F8C"/>
			</radialGradient>
			<path style="fill:url(#SVGID_1_);" d="M464.1,103.5H47.9c-1.2,0-2,0.9-2,2v247.7c0,1.2,0.9,2,2,2h416.2c1.2,0,2-0.9,2-2V105.5
				C466.1,104.3,465.3,103.5,464.1,103.5z"/>
			<path style="fill:#0E0E0E;" d="M471.9,76.1H40.1c-7.8,0-14.1,6.2-14.1,14.1v278.7c0,7.8,6.2,14.1,14.1,14.1H472
				c7.8,0,14.1-6.2,14.1-14.1V90.1C486,82.3,479.8,76.1,471.9,76.1z M466.1,353.2c0,1.2-0.9,2-2,2H47.9c-1.2,0-2-0.9-2-2V105.5
				c0-1.2,0.9-2,2-2h416.2c1.2,0,2,0.9,2,2V353.2z"/>
		</g>
		
			<linearGradient id="SVGID_2_" gradientUnits="userSpaceOnUse" x1="258" y1="284.65" x2="486" y2="284.65" gradientTransform="matrix(1 0 0 -1 0 514)">
			<stop  offset="0" style="stop-color:#FFFFFF"/>
			<stop  offset="1" style="stop-color:#FFFFFF;stop-opacity:0"/>
		</linearGradient>
		<path style="opacity:0.4;fill:url(#SVGID_2_);enable-background:new    ;" d="M471.9,382.7c7.8,0,14.1-6.2,14.1-14.1V90.1
			c0-7.8-6.2-14.1-14.1-14.1H258L471.9,382.7z"/>
	</g>
</g>
<g>
	<g>
		<path style="fill:#C6C6C6;" d="M281.328,280.87c-4.741-4.505-8.221-10.033-12.215-15.137
			c-14.178-18.117-28.254-36.312-42.415-54.444c-2.844-3.642-2.536-7.825,1.063-10.716c2.067-1.659,4.096-3.387,6.295-4.854
			c5.663-3.775,6.864-3.63,11.105,1.555c9.835,12.023,19.178,24.452,28.693,36.736c7.89,10.189,15.741,20.41,23.615,30.611
			c0.651,0.843,1.611,1.518,1.347,2.795C292.986,271.902,287.157,276.386,281.328,280.87z"/>
		<path style="fill:#030303;" d="M281.328,280.87c5.829-4.484,11.658-8.968,17.488-13.452c1.72-0.08,2.036,1.525,2.778,2.477
			c14.814,19.013,29.58,38.066,44.349,57.116c3.855,4.973,3.351,8.719-1.673,12.641c-1.521,1.188-3.044,2.374-4.582,3.538
			c-4.48,3.396-8.383,2.917-11.842-1.541c-10.788-13.903-21.546-27.83-32.319-41.746c-4.351-5.622-8.709-11.239-13.068-16.855
			C281.946,282.39,281.29,281.813,281.328,280.87z"/>
	</g>
	<g id="Shape_1">
		<g>
			<path style="fill:#F7EA04;" d="M266.572,136.374l-5.857-10.713l-5.857,10.713l-11.913,2.308l8.292,8.929l-1.505,12.139
				l10.983-5.195l10.982,5.195l-1.505-12.139l8.292-8.929L266.572,136.374z M186.512,294.658l-8.846-15.956l-8.846,15.956
				l-17.99,3.438l12.523,13.299l-2.273,18.08l16.587-7.737l16.587,7.737l-2.273-18.08l12.524-13.299L186.512,294.658z
				 M151.155,198.917l8.741-4.09l8.741,4.09l-1.198-9.556l6.6-7.029l-9.481-1.817l-4.661-8.434l-4.662,8.434l-9.481,1.817l6.6,7.029
				L151.155,198.917z M203.778,163.377l-1.195,2.28l-2.432,0.491l1.693,1.9l-0.307,2.583l2.241-1.105l2.241,1.105l-0.307-2.583
				l1.693-1.9l-2.432-0.491L203.778,163.377z M366.247,251.831l-11.913-2.308l-5.857-10.713l-5.857,10.713l-11.913,2.308
				l8.292,8.929l-1.505,12.139l10.983-5.195l10.982,5.195l-1.505-12.139L366.247,251.831z M331.432,151.938l12.103,5.638
				l-1.658-13.173l9.139-9.689l-13.128-2.504l-6.455-11.624l-6.456,11.624l-13.128,2.504l9.139,9.689l-1.658,13.173L331.432,151.938
				z M205.703,241.13l-0.836-1.595l-0.836,1.595l-1.701,0.344l1.185,1.33l-0.215,1.808l1.569-0.774l1.569,0.774l-0.215-1.808
				l1.185-1.33L205.703,241.13z"/>
		</g>
	</g>
</g>
</svg>
