<?xml version="1.0" encoding="UTF-8" standalone="no"?>
<!DOCTYPE svg PUBLIC "-//W3C//DTD SVG 1.1//EN" "http://www.w3.org/Graphics/SVG/1.1/DTD/svg11.dtd">
<svg width="100%" height="100%" viewBox="0 0 512 512" version="1.1" xmlns="http://www.w3.org/2000/svg" xmlns:xlink="http://www.w3.org/1999/xlink" xml:space="preserve" xmlns:serif="http://www.serif.com/" style="fill-rule:evenodd;clip-rule:evenodd;stroke-linejoin:round;stroke-miterlimit:1.41421;">
    <g transform="matrix(1,0,0,1,-0.05,0)">
        <path d="M313,430.9L308.2,382.7L203.8,382.7L199,430.9L313,430.9Z" style="fill:rgb(226,226,226);fill-rule:nonzero;"/>
        <rect x="174" y="429.6" width="164.1" height="6.4" style="fill:rgb(150,150,150);"/>
        <g>
            <g>
                <path d="M464.1,103.5L47.9,103.5C46.7,103.5 45.9,104.4 45.9,105.5L45.9,353.2C45.9,354.4 46.8,355.2 47.9,355.2L464.1,355.2C465.3,355.2 466.1,354.3 466.1,353.2L466.1,105.5C466.1,104.3 465.3,103.5 464.1,103.5Z" style="fill:url(#_Radial1);fill-rule:nonzero;"/>
                <path d="M471.9,76.1L40.1,76.1C32.3,76.1 26,82.3 26,90.2L26,368.9C26,376.7 32.2,383 40.1,383L472,383C479.8,383 486.1,376.8 486.1,368.9L486.1,90.1C486,82.3 479.8,76.1 471.9,76.1ZM466.1,353.2C466.1,354.4 465.2,355.2 464.1,355.2L47.9,355.2C46.7,355.2 45.9,354.3 45.9,353.2L45.9,105.5C45.9,104.3 46.8,103.5 47.9,103.5L464.1,103.5C465.3,103.5 466.1,104.4 466.1,105.5L466.1,353.2Z" style="fill:rgb(14,14,14);fill-rule:nonzero;"/>
            </g>
            <path d="M471.9,382.7C479.7,382.7 486,376.5 486,368.6L486,90.1C486,82.3 479.8,76 471.9,76L258,76L471.9,382.7Z" style="fill:url(#_Linear2);fill-rule:nonzero;"/>
        </g>
    </g>
    <g id="g38" transform="matrix(0.370916,0,0,-0.370916,137.307,350.693)">
        <g id="path50" transform="matrix(1,0,0,1,348.441,557.02)">
            <path d="M0,0L-56.884,0L-75.844,-53.404C-93.214,-57.891 -109.606,-64.818 -124.682,-73.74L-124.758,-73.664L-175.927,-49.31L-216.151,-89.534L-191.797,-140.704L-191.721,-140.779C-200.644,-155.856 -207.57,-172.25 -212.057,-189.617L-265.461,-208.579L-265.461,-265.462L-212.057,-284.424C-207.57,-301.794 -200.641,-318.186 -191.721,-333.262L-191.797,-333.337L-216.151,-384.505L-175.927,-424.729L-124.758,-400.372L-124.682,-400.3C-109.605,-409.221 -93.211,-416.145 -75.844,-420.636L-56.884,-474.04L0,-474.04L18.961,-420.636C36.331,-416.147 52.724,-409.22 67.8,-400.3L67.875,-400.372L119.045,-424.729L159.269,-384.505L134.913,-333.337L134.84,-333.262C143.761,-318.185 150.685,-301.791 155.176,-284.424L208.58,-265.461L208.58,-208.577L155.176,-189.616C150.687,-172.245 143.76,-155.854 134.84,-140.778L134.913,-140.702L159.269,-89.533L119.045,-49.309L67.875,-73.663L67.8,-73.737C52.723,-64.816 36.329,-57.89 18.961,-53.404L0,0ZM-5.649,-8L11.422,-56.08L12.845,-60.086L16.96,-61.149C33.277,-65.364 49.012,-71.916 63.726,-80.623L69.065,-83.782L72.555,-80.295L117.382,-58.96L149.617,-91.195L128.251,-136.084L124.85,-139.604L127.955,-144.851C136.662,-159.568 143.215,-175.302 147.431,-191.618L148.494,-195.733L152.5,-197.155L200.58,-214.226L200.58,-259.813L152.499,-276.885L148.495,-278.307L147.431,-282.421C143.209,-298.748 136.656,-314.483 127.955,-329.189L124.848,-334.439L128.252,-337.958L149.617,-382.843L117.383,-415.077L72.493,-393.711L68.974,-390.31L63.726,-393.415C49.01,-402.122 33.276,-408.674 16.96,-412.891L12.844,-413.954L11.422,-417.96L-5.649,-466.04L-51.235,-466.04L-68.305,-417.96L-69.727,-413.955L-73.841,-412.891C-90.168,-408.669 -105.903,-402.116 -120.609,-393.415L-125.853,-390.312L-129.374,-393.71L-174.265,-415.077L-206.5,-382.843L-185.181,-338.05L-181.649,-334.576L-184.836,-329.189C-193.545,-314.469 -200.098,-298.735 -204.312,-282.423L-205.375,-278.307L-209.381,-276.885L-257.461,-259.814L-257.461,-214.228L-209.381,-197.156L-205.375,-195.734L-204.312,-191.619C-200.095,-175.299 -193.543,-159.565 -184.836,-144.853L-181.649,-139.466L-185.18,-135.991L-206.5,-91.196L-174.265,-58.961L-129.468,-80.282L-125.992,-83.811L-120.608,-80.625C-105.897,-71.918 -90.162,-65.366 -73.843,-61.149L-69.727,-60.086L-68.305,-56.08L-51.235,-8L-5.649,-8" style="fill:rgb(0,177,255);fill-rule:nonzero;"/>
        </g>
        <g id="path54" transform="matrix(1,0,0,1,392.143,391.96)">
            <path d="M0,0L-144.258,0L-144.258,-0.001C-144.266,-0.001 -144.276,0 -144.285,0C-184.027,0 -216.245,-32.217 -216.245,-71.96C-216.245,-111.702 -184.027,-143.92 -144.285,-143.92C-144.274,-143.92 -144.261,-143.919 -144.25,-143.919L-0.036,-143.919C-0.024,-143.919 -0.013,-143.92 -0.001,-143.92C39.741,-143.92 71.959,-111.702 71.959,-71.96C71.96,-32.217 39.742,0 0,0" style="fill:rgb(255,121,0);fill-rule:nonzero;"/>
        </g>
        <g id="path58" transform="matrix(1,0,0,1,392.143,374.822)">
            <path d="M0,0C30.277,0 54.823,-24.545 54.823,-54.823C54.823,-85.1 30.277,-109.645 0,-109.645C-30.277,-109.645 -54.823,-85.1 -54.823,-54.823C-54.823,-24.545 -30.277,0 0,0" style="fill:rgb(236,240,241);fill-rule:nonzero;"/>
        </g>
    </g>
    <defs>
        <radialGradient id="_Radial1" cx="0" cy="0" r="1" gradientUnits="userSpaceOnUse" gradientTransform="matrix(636.716,0,0,636.716,262.763,587.328)"><stop offset="0" style="stop-color:rgb(250,173,28);stop-opacity:1"/><stop offset="0.02" style="stop-color:rgb(250,173,28);stop-opacity:1"/><stop offset="0.39" style="stop-color:rgb(242,103,49);stop-opacity:1"/><stop offset="0.72" style="stop-color:rgb(231,22,112);stop-opacity:1"/><stop offset="1" style="stop-color:rgb(101,47,140);stop-opacity:1"/></radialGradient>
        <linearGradient id="_Linear2" x1="0" y1="0" x2="1" y2="0" gradientUnits="userSpaceOnUse" gradientTransform="matrix(228,0,0,228,258,229.35)"><stop offset="0" style="stop-color:white;stop-opacity:0.4"/><stop offset="1" style="stop-color:white;stop-opacity:0"/></linearGradient>
    </defs>
</svg>
