<?xml version="1.0" encoding="utf-8"?>
<!-- Generator: Adobe Illustrator 18.0.0, SVG Export Plug-In . SVG Version: 6.00 Build 0)  -->
<!DOCTYPE svg PUBLIC "-//W3C//DTD SVG 1.1//EN" "http://www.w3.org/Graphics/SVG/1.1/DTD/svg11.dtd">
<svg version="1.1" id="Layer_1" xmlns="http://www.w3.org/2000/svg" xmlns:xlink="http://www.w3.org/1999/xlink" x="0px" y="0px"
	 viewBox="0 0 512 512" style="enable-background:new 0 0 512 512;" xml:space="preserve">
<g>
	<path style="fill:#FF3EBF;" d="M446,486H66c-22.1,0-40-17.9-40-40V66c0-22.1,17.9-40,40-40h380c22.1,0,40,17.9,40,40v380
		C486,468.1,468.1,486,446,486z"/>
	<g>
		<g>
			<g>
				<path d="M53.3,389.6c9.5,1.2,18.9,3.7,27.8,7.6c3.5,1.5,7,3.3,10.4,5.2c3.4,2,6.7,4.1,9.8,6.4c7.8,5.8,14.7,12.6,20.5,20.3
					c4.8,6.4,8.9,13.4,12.1,20.9c1.9,4.4,3.5,9,4.7,13.7c1.3,4.7,2.2,9.5,2.7,14.2c0.3,2.7,0.5,5.4,0.6,8.1h28.8
					c-0.1-5.2-0.6-10.4-1.5-15.7L200,462c2.7-0.7,4.3-3.5,3.5-6.1l-4.8-18.2c-0.7-2.7-3.5-4.3-6.1-3.5l-30.8,8.3
					c-4.9-12.5-11.5-23.9-19.6-33.9l22.3-22.3c2-2,2-5.1,0-7.1l-13.3-13.3c-2-2-5.1-2-7.1,0l-22.4,22.4c-10.1-8-21.2-14.4-33.2-19.2
					l8.4-31.4c0.7-2.7-0.9-5.4-3.5-6.1l-18.2-4.9c-2.7-0.7-5.4,0.9-6.1,3.5l-8.4,31.3c-11.3-1.8-23-2-34.8-0.6V390
					c0.8-0.1,1.6-0.2,2.3-0.3C36.6,388.6,45,388.6,53.3,389.6z"/>
				<path d="M110.7,471c1.3,5,2.1,10,2.4,15H142c-0.3-7.4-1.4-15-3.4-22.4c-13.4-50.2-62.4-81.4-112.5-73.8v29.3
					C63.2,411.2,100.7,433.8,110.7,471z"/>
			</g>
			<g>
				<path d="M452.6,361l-8.4-31.4c-0.7-2.7-3.5-4.3-6.1-3.5l-18.2,4.9c-2.7,0.7-4.3,3.5-3.5,6.1l8.4,31.3
					c-12.3,4.8-24,11.4-34.6,20.1l-23-23c-2-2-5.1-2-7.1,0l-13.3,13.3c-2,2-2,5.1,0,7.1l23.1,23.1c-8.3,10.5-14.8,22-19.4,34.1
					l-31.6-8.5c-2.7-0.7-5.4,0.9-6.1,3.5l-4.9,18.2c-0.7,2.7,0.9,5.4,3.5,6.1l31.8,8.5c-0.7,5-1.1,10-1.3,15.1h28.8
					c0.1-2.5,0.3-4.9,0.5-7.4c1-9.7,3.5-19.1,7.1-28c3.1-7.4,7.1-14.5,11.9-21c3-4,6.3-7.9,9.9-11.5c3.3-3.3,6.7-6.3,10.3-9
					c6.7-5.1,13.9-9.3,21.6-12.6c8.8-3.8,18.2-6.2,27.9-7.3c3.8-0.4,7.7-0.7,11.6-0.7s7.8,0.2,11.7,0.7c0.9,0.1,1.7,0.2,2.6,0.3
					v-29.1C474.8,359.2,463.6,359.4,452.6,361z"/>
				<path d="M400.3,418c-18.8,18.8-28.7,43.3-29.6,68h29c0.9-17.3,7.9-34.4,21-47.6c17.7-17.7,42.4-24.3,65.2-19.7v-29.3
					C455.5,385.1,423.6,394.6,400.3,418z"/>
			</g>
		</g>
		<g>
			<g>
				<path style="fill:#FFFFFF;" d="M198.8,432.7c-0.7-2.7-3.5-4.3-6.1-3.5l-30.8,8.3c-4.9-12.5-11.5-23.9-19.6-33.9l22.3-22.3
					c2-2,2-5.1,0-7.1l-13.3-13.3c-2-2-5.1-2-7.1,0l-22.4,22.4c-10.1-8-21.2-14.4-33.2-19.2l8.4-31.4c0.7-2.7-0.9-5.4-3.5-6.1
					l-18.2-4.9c-2.7-0.7-5.4,0.9-6.1,3.5l-8.4,31.3c-11.3-1.8-23-2-34.8-0.6V385c0.8-0.1,1.6-0.2,2.3-0.3c8.3-1.1,16.7-1.1,25-0.1
					c9.5,1.2,18.9,3.7,27.8,7.6c3.5,1.5,7,3.3,10.4,5.2c3.4,2,6.7,4.1,9.8,6.4c7.8,5.8,14.7,12.6,20.5,20.3
					c4.8,6.4,8.9,13.4,12.1,20.9c1.9,4.4,3.5,9,4.7,13.7c1.3,4.7,2.2,9.5,2.7,14.2c0.5,4.4,0.8,8.8,0.7,13.2h28.8
					c0.1-6.9-0.4-13.8-1.5-20.8l30.8-8.3c2.7-0.7,4.3-3.5,3.5-6.1L198.8,432.7z"/>
				<path style="fill:#515151;" d="M26,384.8v29.3c37.2-7.9,74.7,14.7,84.7,51.9c1.8,6.7,2.6,13.4,2.4,20H142c0.1-9-1-18.3-3.5-27.4
					C125.1,408.4,76.1,377.2,26,384.8z"/>
			</g>
			<g>
				<path style="fill:#FFFFFF;" d="M370.7,484.5c0-3.7,0.2-7.3,0.6-10.9c1-9.7,3.5-19.1,7.1-28c3.1-7.4,7.1-14.5,11.9-21
					c3-4,6.3-7.9,9.9-11.5c3.3-3.3,6.7-6.3,10.3-9c6.7-5.1,13.9-9.3,21.6-12.6c8.8-3.8,18.2-6.2,27.9-7.3c3.8-0.4,7.7-0.7,11.6-0.7
					s7.8,0.2,11.7,0.7c0.9,0.1,1.7,0.2,2.6,0.3v-29.1c-11.1-1.2-22.3-1-33.3,0.6l-8.4-31.4c-0.7-2.7-3.5-4.3-6.1-3.5l-18.2,4.9
					c-2.7,0.7-4.3,3.5-3.5,6.1l8.4,31.3c-12.3,4.8-24,11.4-34.6,20.1l-23-23c-2-2-5.1-2-7.1,0l-13.3,13.3c-2,2-2,5.1,0,7.1
					l23.1,23.1c-8.3,10.5-14.8,22-19.4,34.1l-31.6-8.5c-2.7-0.7-5.4,0.9-6.1,3.5l-4.9,18.2c-0.7,2.7,0.9,5.4,3.5,6.1l31.8,8.5
					c-0.9,6.6-1.4,13.3-1.3,20h28.9C370.7,485.5,370.7,485,370.7,484.5z"/>
				<path style="fill:#515151;" d="M420.7,433.4c17.7-17.7,42.4-24.3,65.2-19.7v-29.3c-30.4-4.3-62.3,5.2-85.6,28.6
					c-20.1,20.1-30,46.6-29.6,73h28.9C399.3,467,406.3,447.9,420.7,433.4z"/>
			</g>
		</g>
		<linearGradient id="SVGID_1_" gradientUnits="userSpaceOnUse" x1="256.0375" y1="486" x2="256.0375" y2="57">
			<stop  offset="0" style="stop-color:#C555FF"/>
			<stop  offset="1" style="stop-color:#FF832A"/>
		</linearGradient>
		<path style="opacity:0.8;fill:url(#SVGID_1_);" d="M486,94.6L486,94.6c-1.3-21-18.7-37.6-40-37.6H66c-21.3,0-38.6,16.6-39.9,37.5
			v0.1c0,0.8-0.1,1.6-0.1,2.4v349c0,0.7,0,1.4,0.1,2.1c0,0,0,0,0,0.1C27.2,469.3,44.6,486,66,486h380c21.4,0,38.8-16.7,39.9-37.8
			c0,0,0,0,0-0.1c0-0.7,0.1-1.4,0.1-2.1V97C486.1,96.2,486.1,95.4,486,94.6z"/>
		<g style="opacity:0.3;">
			<g>
				<radialGradient id="SVGID_2_" cx="256.561" cy="271.1885" r="236.5159" gradientUnits="userSpaceOnUse">
					<stop  offset="0" style="stop-color:#FFFFFF;stop-opacity:0.5"/>
					<stop  offset="1" style="stop-color:#000000;stop-opacity:0"/>
				</radialGradient>
				<path style="fill:url(#SVGID_2_);" d="M485.9,448.2c0,0,0,0,0-0.1c0-0.7,0.1-1.4,0.1-2.1V331.7l-228.8-61.3L314.9,486h131
					C467.4,486,484.8,469.3,485.9,448.2z"/>
				<radialGradient id="SVGID_3_" cx="258.364" cy="273.3115" r="240.4472" gradientUnits="userSpaceOnUse">
					<stop  offset="0" style="stop-color:#FFFFFF;stop-opacity:0.5"/>
					<stop  offset="1" style="stop-color:#000000;stop-opacity:0"/>
				</radialGradient>
				<path style="fill:url(#SVGID_3_);" d="M26.1,94.5L26.1,94.5c0,0.9-0.1,1.7-0.1,2.5v112.8l230.8,61.8L199.3,57H66
					C44.7,57,27.4,73.6,26.1,94.5z"/>
			</g>
			<g>
				<radialGradient id="SVGID_4_" cx="258.1885" cy="270.9015" r="234.7816" gradientUnits="userSpaceOnUse">
					<stop  offset="0" style="stop-color:#FFFFFF;stop-opacity:0.5"/>
					<stop  offset="1" style="stop-color:#000000;stop-opacity:0"/>
				</radialGradient>
				<path style="fill:url(#SVGID_4_);" d="M486,97c0.1-0.8,0.1-1.6,0-2.4c-1.3-21-18.7-37.6-40-37.6H313.6l-57.3,213.8L486,209.3V97
					z"/>
				<radialGradient id="SVGID_5_" cx="258.774" cy="270.5985" r="244.6635" gradientUnits="userSpaceOnUse">
					<stop  offset="0" style="stop-color:#FFFFFF;stop-opacity:0.5"/>
					<stop  offset="1" style="stop-color:#000000;stop-opacity:0"/>
				</radialGradient>
				<path style="fill:url(#SVGID_5_);" d="M26,446c0,0.7,0,1.4,0.1,2.1c0,0,0,0,0,0.1C27.2,469.3,44.6,486,66,486h134l57.6-214.8
					L26,333.3V446z"/>
			</g>
		</g>
		<g style="opacity:0.3;">
			<g>
				<radialGradient id="SVGID_6_" cx="256.4154" cy="137.7194" r="262.9241" gradientUnits="userSpaceOnUse">
					<stop  offset="0" style="stop-color:#FFFFFF;stop-opacity:0.5"/>
					<stop  offset="1" style="stop-color:#000000;stop-opacity:0"/>
				</radialGradient>
				<polygon style="fill:url(#SVGID_6_);" points="486,401.1 486,136.7 257,268.9 				"/>
				<radialGradient id="SVGID_7_" cx="259.389" cy="406.3364" r="273.8537" gradientUnits="userSpaceOnUse">
					<stop  offset="0" style="stop-color:#FFFFFF;stop-opacity:0.5"/>
					<stop  offset="1" style="stop-color:#000000;stop-opacity:0"/>
				</radialGradient>
				<polygon style="fill:url(#SVGID_7_);" points="26,404.2 257.8,270.4 26,136.5 				"/>
			</g>
			<g>
				<radialGradient id="SVGID_8_" cx="135.6442" cy="270.1309" r="251.4333" gradientUnits="userSpaceOnUse">
					<stop  offset="0" style="stop-color:#FFFFFF;stop-opacity:0.5"/>
					<stop  offset="1" style="stop-color:#000000;stop-opacity:0"/>
				</radialGradient>
				<polygon style="fill:url(#SVGID_8_);" points="256.7,270 379.7,57 133.7,57 				"/>
				<radialGradient id="SVGID_9_" cx="384.5563" cy="268.6597" r="246.8663" gradientUnits="userSpaceOnUse">
					<stop  offset="0" style="stop-color:#FFFFFF;stop-opacity:0.5"/>
					<stop  offset="1" style="stop-color:#000000;stop-opacity:0"/>
				</radialGradient>
				<polygon style="fill:url(#SVGID_9_);" points="258.1,269.3 133,486 383.3,486 				"/>
			</g>
		</g>
	</g>
</g>
<g style="opacity:0.4;">
	<path d="M327.707,193.452H184.293l0,0l0,0c-39.546,0-71.627,32.081-71.627,71.627s32.081,71.468,71.627,71.468c0,0,0,0,0.159,0
		h143.413l0,0c39.546,0,71.469-32.081,71.469-71.627C399.334,225.534,367.253,193.452,327.707,193.452z M327.707,319.713
		c-30.176,0-54.634-24.458-54.634-54.634s24.458-54.634,54.634-54.634s54.634,24.458,54.634,54.634
		C382.34,295.255,357.882,319.713,327.707,319.713z"/>
	<path d="M327.707,222.516c-23.505,0-42.563,19.058-42.563,42.563s19.058,42.563,42.563,42.563s42.563-19.058,42.563-42.563
		C370.27,241.574,351.212,222.516,327.707,222.516z"/>
</g>
<g>
	<path style="fill:#EDEDED;" d="M327.707,184.452H184.293l0,0l0,0c-39.546,0-71.627,32.081-71.627,71.627
		s32.081,71.468,71.627,71.468c0,0,0,0,0.159,0h143.413l0,0c39.546,0,71.469-32.081,71.469-71.627
		C399.334,216.534,367.253,184.452,327.707,184.452z M327.707,310.713c-30.176,0-54.634-24.458-54.634-54.634
		s24.458-54.634,54.634-54.634s54.634,24.458,54.634,54.634C382.34,286.255,357.882,310.713,327.707,310.713z"/>
	<path style="fill:#EDEDED;" d="M327.707,213.516c-23.505,0-42.563,19.058-42.563,42.563s19.058,42.563,42.563,42.563
		s42.563-19.058,42.563-42.563C370.27,232.574,351.212,213.516,327.707,213.516z"/>
</g>
</svg>
