<?xml version="1.0" encoding="utf-8"?>
<!-- Generator: Adobe Illustrator 18.0.0, SVG Export Plug-In . SVG Version: 6.00 Build 0)  -->
<!DOCTYPE svg PUBLIC "-//W3C//DTD SVG 1.1//EN" "http://www.w3.org/Graphics/SVG/1.1/DTD/svg11.dtd">
<svg version="1.1" id="Layer_1" xmlns="http://www.w3.org/2000/svg" xmlns:xlink="http://www.w3.org/1999/xlink" x="0px" y="0px"
	 viewBox="0 0 512 512" style="enable-background:new 0 0 512 512;" xml:space="preserve">
<g style="enable-background:new    ;">
	<linearGradient id="SVGID_1_" gradientUnits="userSpaceOnUse" x1="256" y1="486" x2="256" y2="26">
		<stop  offset="0" style="stop-color:#C9C9C9"/>
		<stop  offset="1" style="stop-color:#F5F5F5"/>
	</linearGradient>
	<path style="fill:url(#SVGID_1_);" d="M446,486H66c-22.1,0-40-17.9-40-40V66c0-22.1,17.9-40,40-40h380c22.1,0,40,17.9,40,40v380
		C486,468.1,468.1,486,446,486z"/>
	<linearGradient id="SVGID_2_" gradientUnits="userSpaceOnUse" x1="256" y1="456" x2="256" y2="56">
		<stop  offset="0" style="stop-color:#F5F5F5"/>
		<stop  offset="1" style="stop-color:#C9C9C9"/>
	</linearGradient>
	<circle style="fill:url(#SVGID_2_);" cx="256" cy="256" r="200"/>
</g>
<g>
	<path style="opacity:0.4;enable-background:new    ;" d="M145.2,257.8c0-0.2,0-0.5,0-0.7c0.1-0.7,0.1-1.5,0.2-2.2
		c0-0.1,0-0.3,0-0.4c0.1-0.9,0.2-1.7,0.3-2.6l0,0c2.8-24.1,13.5-46.7,30.7-64.3c16.1-16.6,36.6-27.5,58.9-31.7l0,0
		c0.8-0.2,1.7-0.3,2.5-0.4c0.1,0,0.2,0,0.3-0.1c0.8-0.1,1.5-0.2,2.3-0.3c0.2,0,0.4-0.1,0.6-0.1c0.7-0.1,1.4-0.2,2.1-0.3
		c0.2,0,0.5-0.1,0.7-0.1c0.7-0.1,1.3-0.1,2-0.2c0.3,0,0.5-0.1,0.8-0.1c0.7-0.1,1.3-0.1,2-0.1c0.3,0,0.5,0,0.8-0.1
		c0.9-0.1,1.9-0.1,2.8-0.1c0.9,0,1.8-0.1,2.8-0.1c0.2,0,0.4,0,0.6,0c0.7,0,1.4,0,2.1,0c0.3,0,0.5,0,0.8,0c0.7,0,1.3,0,2,0.1
		c0.3,0,0.5,0,0.8,0c0.7,0,1.3,0.1,1.9,0.1c0.3,0,0.5,0,0.8,0.1c0.7,0,1.3,0.1,2,0.2c0.2,0,0.5,0,0.7,0.1c0.7,0.1,1.4,0.1,2.1,0.2
		c0.2,0,0.4,0,0.6,0.1c0.8,0.1,1.6,0.2,2.3,0.3c0.1,0,0.2,0,0.3,0c20.6,3,40,11.7,56.1,25.3c19.1,16.2,32,38.2,36.9,62.5
		c0.1,0.4,0.2,0.8,0.2,1.2c-0.1-0.4-0.2-0.8-0.2-1.2l-37.1-26.7l-6,8.4l45,32.4l5.4,3.9l0,0l4.7-7.6c-0.1-1.4-0.3-2.8-0.5-4.2l0,0
		c-0.5-3.8-1.2-7.7-2.1-11.4c-4.3-18.9-13.2-36.5-25.7-51.2c0,0,0,0-0.1-0.1c-0.6-0.7-1.1-1.3-1.7-2c-0.1-0.2-0.3-0.3-0.4-0.5
		c-0.5-0.5-0.9-1.1-1.4-1.6c-0.3-0.3-0.6-0.6-0.9-0.9c-0.3-0.4-0.7-0.7-1-1.1c-0.6-0.6-1.3-1.3-1.9-1.9l-0.1-0.1
		c-0.7-0.7-1.4-1.4-2.2-2.1c-0.2-0.2-0.4-0.3-0.5-0.5c-0.5-0.5-1-1-1.6-1.4c-0.4-0.4-0.8-0.7-1.3-1.1c-0.3-0.3-0.6-0.5-0.9-0.8
		c-0.6-0.5-1.2-1-1.8-1.5c-0.1-0.1-0.2-0.2-0.4-0.3c-21.3-17.3-47.6-26.7-75-27.1c-0.2,0-0.3,0-0.5,0c-0.8,0-1.6,0-2.3,0
		c-1,0-1.9,0-2.9,0.1c-0.2,0-0.3,0-0.5,0c-0.8,0-1.7,0.1-2.5,0.1c-0.3,0-0.7,0-1,0.1c-0.7,0-1.3,0.1-2,0.1c-0.3,0-0.7,0.1-1,0.1
		c-0.7,0.1-1.4,0.1-2,0.2c-0.3,0-0.6,0.1-0.9,0.1c-0.7,0.1-1.5,0.2-2.2,0.3c-0.2,0-0.4,0.1-0.7,0.1c-0.8,0.1-1.6,0.2-2.4,0.4
		c-0.1,0-0.3,0-0.4,0.1c-0.9,0.1-1.8,0.3-2.7,0.5h-0.1c-51.8,9.8-91.7,52.6-97.8,104.9v0.1c-0.1,0.9-0.2,1.8-0.3,2.7
		c0,0.2,0,0.3,0,0.5c-0.1,0.8-0.1,1.6-0.2,2.3c0,0.3,0,0.5-0.1,0.8c0,0.5-0.1,1-0.1,1.5h10.3C145.1,258.4,145.2,258.1,145.2,257.8z"
		/>
	<path style="opacity:0.4;enable-background:new    ;" d="M366.9,271.3c0,0.1,0,0.2,0,0.4c0,0.7-0.1,1.3-0.1,2c0,0.2,0,0.4,0,0.7
		c-0.1,0.7-0.1,1.4-0.2,2.2c0,0.1,0,0.3,0,0.4c-0.1,0.8-0.2,1.6-0.3,2.4c0,0.1,0,0.1,0,0.2c-2.5,19.5-10.1,37.8-22.2,53.4
		c-0.4,0.5-0.8,1-1.2,1.6c-0.1,0.1-0.2,0.3-0.3,0.4c-0.5,0.6-0.9,1.2-1.4,1.7c-0.1,0.1-0.2,0.3-0.4,0.4c-0.5,0.6-0.9,1.1-1.4,1.6
		c-0.2,0.2-0.3,0.4-0.5,0.6c-0.4,0.5-0.9,1-1.3,1.4l-0.1,0.1c-0.2,0.2-0.4,0.5-0.7,0.7c-0.3,0.3-0.6,0.7-0.9,1
		c-0.1,0.1-0.1,0.1-0.2,0.2c-0.3,0.4-0.7,0.7-1.1,1.1c-0.3,0.3-0.5,0.6-0.8,0.8c-0.4,0.4-0.9,0.9-1.3,1.3c-0.2,0.2-0.4,0.4-0.6,0.5
		c-0.5,0.5-1.1,1-1.6,1.5c-0.1,0.1-0.2,0.2-0.3,0.3c-0.6,0.6-1.3,1.1-1.9,1.6c0,0,0,0-0.1,0.1c-16.3,13.8-36,22.6-57.2,25.4h-0.1
		c-0.8,0.1-1.7,0.2-2.5,0.3c-0.2,0-0.4,0-0.6,0.1c-0.7,0.1-1.4,0.1-2.1,0.2c-0.4,0-0.8,0.1-1.2,0.1c-0.5,0-1,0.1-1.5,0.1
		c-0.9,0.1-1.8,0.1-2.7,0.1c-0.9,0-1.8,0.1-2.7,0.1c-0.5,0-0.9,0-1.4,0c-0.4,0-0.9,0-1.3,0c-0.5,0-1.1,0-1.6,0c-0.4,0-0.7,0-1.1,0
		c-0.6,0-1.1,0-1.7-0.1c-0.3,0-0.6,0-0.9-0.1c-0.6,0-1.2-0.1-1.8-0.1c-0.3,0-0.6,0-0.9-0.1c-0.6-0.1-1.2-0.1-1.8-0.2
		c-0.3,0-0.6-0.1-0.9-0.1c-0.6-0.1-1.2-0.1-1.8-0.2c-0.3,0-0.6-0.1-0.9-0.1c-0.6-0.1-1.1-0.2-1.7-0.2c-0.3,0-0.7-0.1-1-0.2
		c-0.5-0.1-1-0.2-1.6-0.3c-0.4-0.1-0.8-0.1-1.2-0.2s-0.9-0.2-1.3-0.2c-0.6-0.1-1.2-0.3-1.8-0.4c-0.2,0-0.4-0.1-0.7-0.1
		c-17.6-3.9-34-12-48-23.9c-19.1-16.2-32-38.2-36.9-62.5c-0.1-0.4-0.2-0.8-0.2-1.2c0.1,0.4,0.2,0.8,0.2,1.2l37.1,26.7l6-8.4
		l-45-32.4l-5.4-3.9l0,0l-4.7,7.6c0.1,1.4,0.3,2.8,0.5,4.2c0,0.1,0,0.2,0,0.3c0,0.2,0,0.3,0.1,0.5c0.1,0.8,0.2,1.7,0.4,2.5
		c0,0.1,0,0.3,0.1,0.4c0.1,0.8,0.3,1.7,0.4,2.5c0,0.1,0,0.2,0.1,0.3c0.2,0.9,0.3,1.8,0.5,2.6c0,0.1,0,0.1,0,0.2
		c0.1,0.7,0.3,1.4,0.5,2c10.9,47.3,49.5,83.8,97.2,92.2c0.2,0,0.5,0.1,0.7,0.1c0.7,0.1,1.3,0.2,2,0.3c0.4,0.1,0.8,0.1,1.1,0.2
		c0.5,0.1,1.1,0.2,1.6,0.2c0.4,0.1,0.9,0.1,1.3,0.2c0.5,0.1,1,0.1,1.5,0.2c0.5,0,0.9,0.1,1.4,0.1s1,0.1,1.4,0.1
		c0.5,0,0.9,0.1,1.4,0.1s1,0.1,1.5,0.1s0.9,0.1,1.4,0.1s1,0,1.6,0.1c0.4,0,0.9,0,1.3,0c0.7,0,1.4,0,2.1,0c0.2,0,0.5,0,0.7,0
		c1.4,0,2.9,0,4.3-0.1c1,0,2-0.1,3-0.1c0.6,0,1.1-0.1,1.7-0.1c0.4,0,0.8-0.1,1.3-0.1c0.8-0.1,1.6-0.1,2.4-0.2c0.2,0,0.4,0,0.5-0.1
		c0.9-0.1,1.9-0.2,2.8-0.3c0,0,0,0,0.1,0c23.1-3,44.7-12.6,62.5-27.7c0,0,0,0,0.1-0.1c0.7-0.6,1.4-1.2,2.1-1.8
		c0.1-0.1,0.2-0.2,0.3-0.3c0.6-0.5,1.2-1.1,1.8-1.6c0.2-0.2,0.4-0.4,0.6-0.6c0.5-0.5,1-0.9,1.5-1.4c0.3-0.3,0.6-0.6,0.9-0.9
		c0.4-0.4,0.8-0.8,1.1-1.2c0.4-0.4,0.8-0.8,1.2-1.3c0.3-0.3,0.6-0.6,0.8-0.9c0.5-0.5,1-1.1,1.4-1.6c0.2-0.2,0.4-0.4,0.6-0.6
		c0.5-0.6,1-1.2,1.6-1.8c0.1-0.2,0.3-0.3,0.4-0.5c0.5-0.6,1.1-1.3,1.6-1.9c0.1-0.1,0.2-0.3,0.3-0.4c0.5-0.6,0.9-1.1,1.3-1.7
		c13.2-17,21.5-37.1,24.3-58.4c0-0.1,0-0.1,0-0.2c0.1-0.9,0.2-1.7,0.3-2.6c0-0.2,0-0.3,0-0.5c0.1-0.8,0.2-1.6,0.2-2.4
		c0-0.2,0-0.5,0.1-0.7c0.1-0.7,0.1-1.4,0.1-2.1c0-0.3,0-0.6,0-1L366.9,271.3z"/>
	<path style="fill:#FFFFFF;" d="M145.2,248.8c0-0.2,0-0.5,0-0.7c0.1-0.7,0.1-1.5,0.2-2.2c0-0.1,0-0.3,0-0.4c0.1-0.9,0.2-1.7,0.3-2.6
		l0,0c2.8-24.1,13.5-46.7,30.7-64.3c16.1-16.6,36.6-27.5,58.9-31.7l0,0c0.8-0.2,1.7-0.3,2.5-0.4c0.1,0,0.2,0,0.3-0.1
		c0.8-0.1,1.5-0.2,2.3-0.3c0.2,0,0.4-0.1,0.6-0.1c0.7-0.1,1.4-0.2,2.1-0.3c0.2,0,0.5-0.1,0.7-0.1c0.7-0.1,1.3-0.1,2-0.2
		c0.3,0,0.5-0.1,0.8-0.1c0.7-0.1,1.3-0.1,2-0.1c0.3,0,0.5,0,0.8-0.1c0.9-0.1,1.9-0.1,2.8-0.1c0.9,0,1.8-0.1,2.8-0.1
		c0.2,0,0.4,0,0.6,0c0.7,0,1.4,0,2.1,0c0.3,0,0.5,0,0.8,0c0.7,0,1.3,0,2,0.1c0.3,0,0.5,0,0.8,0c0.7,0,1.3,0.1,1.9,0.1
		c0.3,0,0.5,0,0.8,0.1c0.7,0,1.3,0.1,2,0.2c0.2,0,0.5,0,0.7,0.1c0.7,0.1,1.4,0.1,2.1,0.2c0.2,0,0.4,0,0.6,0.1
		c0.8,0.1,1.6,0.2,2.3,0.3c0.1,0,0.2,0,0.3,0c20.6,3,40,11.7,56.1,25.3c19.1,16.2,32,38.2,36.9,62.5c0.1,0.4,0.2,0.8,0.2,1.2
		c-0.1-0.4-0.2-0.8-0.2-1.2l-37.1-26.7l-6,8.4l45,32.4l5.4,3.9l0,0l4.7-7.6c-0.1-1.4-0.3-2.8-0.5-4.2l0,0c-0.5-3.8-1.2-7.7-2.1-11.4
		c-4.3-18.9-13.2-36.5-25.7-51.2c0,0,0,0-0.1-0.1c-0.6-0.7-1.1-1.3-1.7-2c-0.1-0.2-0.3-0.3-0.4-0.5c-0.5-0.5-0.9-1.1-1.4-1.6
		c-0.3-0.3-0.6-0.6-0.9-0.9c-0.3-0.4-0.7-0.7-1-1.1c-0.6-0.6-1.3-1.3-1.9-1.9l-0.1-0.1c-0.7-0.7-1.4-1.4-2.2-2.1
		c-0.2-0.2-0.4-0.3-0.5-0.5c-0.5-0.5-1-1-1.6-1.4c-0.4-0.4-0.8-0.7-1.3-1.1c-0.3-0.3-0.6-0.5-0.9-0.8c-0.6-0.5-1.2-1-1.8-1.5
		c-0.1-0.1-0.2-0.2-0.4-0.3c-21.3-17.3-47.6-26.7-75-27.1c-0.2,0-0.3,0-0.5,0c-0.8,0-1.6,0-2.3,0c-1,0-1.9,0-2.9,0.1
		c-0.2,0-0.3,0-0.5,0c-0.8,0-1.7,0.1-2.5,0.1c-0.3,0-0.7,0-1,0.1c-0.7,0-1.3,0.1-2,0.1c-0.3,0-0.7,0.1-1,0.1c-0.7,0.1-1.4,0.1-2,0.2
		c-0.3,0-0.6,0.1-0.9,0.1c-0.7,0.1-1.5,0.2-2.2,0.3c-0.2,0-0.4,0.1-0.7,0.1c-0.8,0.1-1.6,0.2-2.4,0.4c-0.1,0-0.3,0-0.4,0.1
		c-0.9,0.1-1.8,0.3-2.7,0.5h-0.1c-51.8,9.8-91.7,52.6-97.8,104.9v0.1c-0.1,0.9-0.2,1.8-0.3,2.7c0,0.2,0,0.3,0,0.5
		c-0.1,0.8-0.1,1.6-0.2,2.3c0,0.3,0,0.5-0.1,0.8c0,0.5-0.1,1-0.1,1.5h10.3C145.1,249.4,145.2,249.1,145.2,248.8z"/>
	<path style="fill:#FFFFFF;" d="M366.9,262.3c0,0.1,0,0.2,0,0.4c0,0.7-0.1,1.3-0.1,2c0,0.2,0,0.4,0,0.7c-0.1,0.7-0.1,1.4-0.2,2.2
		c0,0.1,0,0.3,0,0.4c-0.1,0.8-0.2,1.6-0.3,2.4c0,0.1,0,0.1,0,0.2c-2.5,19.5-10.1,37.8-22.2,53.4c-0.4,0.5-0.8,1-1.2,1.6
		c-0.1,0.1-0.2,0.3-0.3,0.4c-0.5,0.6-0.9,1.2-1.4,1.7c-0.1,0.1-0.2,0.3-0.4,0.4c-0.5,0.6-0.9,1.1-1.4,1.6c-0.2,0.2-0.3,0.4-0.5,0.6
		c-0.4,0.5-0.9,1-1.3,1.4l-0.1,0.1c-0.2,0.2-0.4,0.5-0.7,0.7c-0.3,0.3-0.6,0.7-0.9,1c-0.1,0.1-0.1,0.1-0.2,0.2
		c-0.3,0.4-0.7,0.7-1.1,1.1c-0.3,0.3-0.5,0.6-0.8,0.8c-0.4,0.4-0.9,0.9-1.3,1.3c-0.2,0.2-0.4,0.4-0.6,0.5c-0.5,0.5-1.1,1-1.6,1.5
		c-0.1,0.1-0.2,0.2-0.3,0.3c-0.6,0.6-1.3,1.1-1.9,1.6c0,0,0,0-0.1,0.1c-16.3,13.8-36,22.6-57.2,25.4h-0.1c-0.8,0.1-1.7,0.2-2.5,0.3
		c-0.2,0-0.4,0-0.6,0.1c-0.7,0.1-1.4,0.1-2.1,0.2c-0.4,0-0.8,0.1-1.2,0.1c-0.5,0-1,0.1-1.5,0.1c-0.9,0.1-1.8,0.1-2.7,0.1
		c-0.9,0-1.8,0.1-2.7,0.1c-0.5,0-0.9,0-1.4,0c-0.4,0-0.9,0-1.3,0c-0.5,0-1.1,0-1.6,0c-0.4,0-0.7,0-1.1,0c-0.6,0-1.1,0-1.7-0.1
		c-0.3,0-0.6,0-0.9-0.1c-0.6,0-1.2-0.1-1.8-0.1c-0.3,0-0.6,0-0.9-0.1c-0.6-0.1-1.2-0.1-1.8-0.2c-0.3,0-0.6-0.1-0.9-0.1
		c-0.6-0.1-1.2-0.1-1.8-0.2c-0.3,0-0.6-0.1-0.9-0.1c-0.6-0.1-1.1-0.2-1.7-0.2c-0.3,0-0.7-0.1-1-0.2c-0.5-0.1-1-0.2-1.6-0.3
		c-0.4-0.1-0.8-0.1-1.2-0.2s-0.9-0.2-1.3-0.2c-0.6-0.1-1.2-0.3-1.8-0.4c-0.2,0-0.4-0.1-0.7-0.1c-17.6-3.9-34-12-48-23.9
		c-19.1-16.2-32-38.2-36.9-62.5c-0.1-0.4-0.2-0.8-0.2-1.2c0.1,0.4,0.2,0.8,0.2,1.2l37.1,26.7l6-8.4l-45-32.4l-5.4-3.9l0,0l-4.7,7.6
		c0.1,1.4,0.3,2.8,0.5,4.2c0,0.1,0,0.2,0,0.3c0,0.2,0,0.3,0.1,0.5c0.1,0.8,0.2,1.7,0.4,2.5c0,0.1,0,0.3,0.1,0.4
		c0.1,0.8,0.3,1.7,0.4,2.5c0,0.1,0,0.2,0.1,0.3c0.2,0.9,0.3,1.8,0.5,2.6c0,0.1,0,0.1,0,0.2c0.1,0.7,0.3,1.4,0.5,2
		c10.9,47.3,49.5,83.8,97.2,92.2c0.2,0,0.5,0.1,0.7,0.1c0.7,0.1,1.3,0.2,2,0.3c0.4,0.1,0.8,0.1,1.1,0.2c0.5,0.1,1.1,0.2,1.6,0.2
		c0.4,0.1,0.9,0.1,1.3,0.2c0.5,0.1,1,0.1,1.5,0.2c0.5,0,0.9,0.1,1.4,0.1s1,0.1,1.4,0.1c0.5,0,0.9,0.1,1.4,0.1s1,0.1,1.5,0.1
		s0.9,0.1,1.4,0.1s1,0,1.6,0.1c0.4,0,0.9,0,1.3,0c0.7,0,1.4,0,2.1,0c0.2,0,0.5,0,0.7,0c1.4,0,2.9,0,4.3-0.1c1,0,2-0.1,3-0.1
		c0.6,0,1.1-0.1,1.7-0.1c0.4,0,0.8-0.1,1.3-0.1c0.8-0.1,1.6-0.1,2.4-0.2c0.2,0,0.4,0,0.5-0.1c0.9-0.1,1.9-0.2,2.8-0.3c0,0,0,0,0.1,0
		c23.1-3,44.7-12.6,62.5-27.7c0,0,0,0,0.1-0.1c0.7-0.6,1.4-1.2,2.1-1.8c0.1-0.1,0.2-0.2,0.3-0.3c0.6-0.5,1.2-1.1,1.8-1.6
		c0.2-0.2,0.4-0.4,0.6-0.6c0.5-0.5,1-0.9,1.5-1.4c0.3-0.3,0.6-0.6,0.9-0.9c0.4-0.4,0.8-0.8,1.1-1.2c0.4-0.4,0.8-0.8,1.2-1.3
		c0.3-0.3,0.6-0.6,0.8-0.9c0.5-0.5,1-1.1,1.4-1.6c0.2-0.2,0.4-0.4,0.6-0.6c0.5-0.6,1-1.2,1.6-1.8c0.1-0.2,0.3-0.3,0.4-0.5
		c0.5-0.6,1.1-1.3,1.6-1.9c0.1-0.1,0.2-0.3,0.3-0.4c0.5-0.6,0.9-1.1,1.3-1.7c13.2-17,21.5-37.1,24.3-58.4c0-0.1,0-0.1,0-0.2
		c0.1-0.9,0.2-1.7,0.3-2.6c0-0.2,0-0.3,0-0.5c0.1-0.8,0.2-1.6,0.2-2.4c0-0.2,0-0.5,0.1-0.7c0.1-0.7,0.1-1.4,0.1-2.1c0-0.3,0-0.6,0-1
		L366.9,262.3z"/>
</g>
</svg>
