<?xml version="1.0" encoding="UTF-8" standalone="no"?>
<!DOCTYPE svg PUBLIC "-//W3C//DTD SVG 1.1//EN" "http://www.w3.org/Graphics/SVG/1.1/DTD/svg11.dtd">
<svg width="100%" height="100%" viewBox="0 0 640 640" version="1.1" xmlns="http://www.w3.org/2000/svg" xmlns:xlink="http://www.w3.org/1999/xlink" xml:space="preserve" xmlns:serif="http://www.serif.com/" style="fill-rule:evenodd;clip-rule:evenodd;stroke-linejoin:round;stroke-miterlimit:1.41421;">
    <g transform="matrix(2.85403,0,0,-2.85403,-400.009,1108.08)">
        <g id="path212" transform="matrix(0.857251,0,0,0.857251,160.627,331.971)">
            <path d="M0,0L110.335,-65.118L-0.085,-130.286L0,0" style="fill:white;fill-rule:nonzero;"/>
        </g>
        <g id="path216" transform="matrix(0.857251,0,0,0.857251,344.001,276.127)">
            <path d="M0,0C0,57.702 -46.759,104.533 -104.374,104.533C-137.642,104.533 -167.162,88.842 -186.279,64.536L-173.213,56.25C-156.903,76.212 -131.983,88.917 -104.214,88.917C-55.132,88.917 -15.298,49.082 -15.298,0C-15.298,-49.082 -55.132,-88.917 -104.214,-88.917C-131.903,-88.917 -156.742,-76.273 -173.053,-56.41L-186.12,-64.696C-166.998,-88.901 -137.561,-104.533 -104.374,-104.533C-46.759,-104.533 0,-57.702 0,0" style="fill:white;fill-rule:nonzero;"/>
        </g>
        <g id="path220" transform="matrix(0.857251,0,0,0.857251,309.304,276.127)">
            <path d="M0,0C0,35.272 -28.627,63.899 -63.899,63.899C-82.678,63.899 -99.531,55.776 -111.226,42.865L-97.681,34.419C-88.969,43.024 -77.059,48.283 -63.899,48.283C-37.247,48.283 -15.616,26.509 -15.616,-0.319C-15.616,-27.147 -37.247,-48.92 -63.899,-48.92C-77.304,-48.92 -89.408,-43.468 -98.159,-34.579L-111.226,-42.865C-99.531,-55.776 -82.678,-63.899 -63.899,-63.899C-28.627,-63.899 0,-35.272 0,0" style="fill:white;fill-rule:nonzero;"/>
        </g>
    </g>
</svg>
