<?xml version="1.0" encoding="UTF-8" standalone="no"?>
<!DOCTYPE svg PUBLIC "-//W3C//DTD SVG 1.1//EN" "http://www.w3.org/Graphics/SVG/1.1/DTD/svg11.dtd">
<svg width="100%" height="100%" viewBox="0 0 512 512" version="1.1" xmlns="http://www.w3.org/2000/svg" xmlns:xlink="http://www.w3.org/1999/xlink" xml:space="preserve" xmlns:serif="http://www.serif.com/" style="fill-rule:evenodd;clip-rule:evenodd;stroke-linejoin:round;stroke-miterlimit:1.41421;">
    <g transform="matrix(5.59971,0,0,5.59971,-1308.64,-569.722)">
        <circle cx="279.415" cy="147.458" r="41.074" style="fill:rgb(85,0,249);"/>
    </g>
    <g id="path212" transform="matrix(1.09202,0,0,-1.09202,317.057,228.831)">
        <path d="M0,0C-13.745,15.517 -26.132,25.54 -44.468,-0.592C-55.379,-16.142 -120.856,-105.219 -132.87,-119.408C-136.36,-123.529 -138.405,-126.394 -141.084,-128.054C-141.08,-122.414 -95.856,-50.796 -83.2,-30.041C-67.997,-5.111 -68.48,-6.566 -70.299,-6.573C-72.874,-6.582 -78.113,-10.381 -86.078,-18.876C-100.623,-34.389 -143.7,-92.123 -146.67,-91.232C-145.639,-87.039 -111.941,-35.364 -96.641,-13.988C-83.451,4.439 -88.493,5.844 -96.053,4.045C-128.263,-3.637 -166.788,-22.21 -168.034,-21.54C-167.568,-20.578 -38.289,70.33 -21.019,72.068C-19.008,72.271 -14.767,75.856 -7.208,78.843C0.998,82.085 6.521,84.722 7.887,83.888C1.899,75.494 -1.254,73.804 -1.307,71.096C-1.395,66.662 -2.973,59.489 -4.701,57.199C28.706,34.944 41.74,-40.939 51.284,-101.973C53.562,-116.46 55.672,-127.339 56.21,-133.803C53.391,-126.548 26.68,-30.119 0,0" style="fill:white;fill-rule:nonzero;"/>
    </g>
</svg>
