<?xml version="1.0" encoding="UTF-8" standalone="no"?>
<!DOCTYPE svg PUBLIC "-//W3C//DTD SVG 1.1//EN" "http://www.w3.org/Graphics/SVG/1.1/DTD/svg11.dtd">
<svg width="100%" height="100%" viewBox="0 0 512 512" version="1.1" xmlns="http://www.w3.org/2000/svg" xmlns:xlink="http://www.w3.org/1999/xlink" xml:space="preserve" xmlns:serif="http://www.serif.com/" style="fill-rule:evenodd;clip-rule:evenodd;stroke-linejoin:round;stroke-miterlimit:1.41421;">
    <g transform="matrix(1.56234,0,0,1.56234,-243.915,-162.882)">
        <circle cx="319.978" cy="268.112" r="147.215" style="fill:rgb(16,143,229);"/>
    </g>
    <g id="path212" transform="matrix(1.25,0,0,-1.25,345.029,270.659)">
        <path d="M0,0C-1.169,0.706 7.943,11.331 10.179,10.179C13.442,6.936 -0.153,-0.252 0,0M-6.337,7.298C-6.547,8.032 6.721,16.057 8.642,14.212C12.1,12.959 -6.215,6.367 -6.337,7.298M-11.155,31.094C-9.683,24.74 -7.382,22.721 -0.487,22.924C-9.264,14.876 -14.6,28.659 -11.155,31.094M-3.377,33.491C-1.463,33.491 0.088,31.725 0.088,29.546C0.088,27.367 -1.463,25.601 -3.377,25.601C-5.291,25.601 -6.842,27.367 -6.842,29.546C-6.842,31.725 -5.291,33.491 -3.377,33.491M-8.486,41.331C-8.79,42.045 -6.715,67.14 -18.423,62.504C-25.632,59.821 -19.754,43.831 -19.287,41.764C-18.857,39.86 -22.491,40.064 -23.176,40.899C-24.706,42.767 -29.752,59.431 -35.707,56.454C-44.06,51.849 -36.201,37.475 -37.867,37.009C-40.962,35.28 -40.784,31.058 -43.264,27.616C-47.355,21.754 -77.969,30.363 -87.863,30.962C-95.106,31.39 -102.028,25.452 -102.682,26.208C-111.502,35.04 -129.749,50.416 -149.74,55.524C-160.951,58.566 -177.629,67.37 -178.298,67.258C-179.436,66.635 -169.199,59.959 -150.064,52.082C-130.929,44.204 -104.498,24.244 -106.571,21.022C-112.786,12.268 -116.446,1.796 -113.916,-16.137C-113.46,-19.294 -123.272,-24.769 -122.558,-29.532C-121.961,-33.157 -111.594,-25.947 -110.46,-27.372C-109.766,-29.929 -116.007,-42.867 -113.485,-43.792C-111.64,-44.34 -95.415,-28.401 -94.472,-28.667C-67.724,-36.753 -32.925,-30.653 -32.251,-30.396C-32.315,-30.256 -7.21,-42.194 -5.028,-40.767C0.476,-34.806 -15.463,-26.407 -12.806,-23.051C-11.641,-21.294 6.604,-29.652 7.503,-27.372C8.811,-23.424 -0.965,-15.136 -2.436,-12.681C-3.715,-10.417 -3.989,-6.758 -0.708,-4.47C2.574,-2.183 36.131,10.657 34.723,20.59C32.29,38.64 -7.838,39.812 -8.486,41.331" style="fill:white;fill-rule:nonzero;"/>
    </g>
    <g id="path216" transform="matrix(1.25,0,0,-1.25,389.92,209.205)">
        <path d="M0,0C-1.108,0.916 -9.795,-12.79 -7.874,-14.212C-6.719,-15.076 0.495,-0.489 0,0" style="fill:white;fill-rule:nonzero;"/>
    </g>
    <g id="path220" transform="matrix(1.25,0,0,-1.25,374.797,225.289)">
        <path d="M0,0C1.155,-0.864 3.167,14.019 2.112,14.788C1.564,15.424 -1.345,0.654 0,0" style="fill:white;fill-rule:nonzero;"/>
    </g>
</svg>
