<?xml version="1.0" encoding="utf-8"?>
<!-- Generator: Adobe Illustrator 22.0.1, SVG Export Plug-In . SVG Version: 6.00 Build 0)  -->
<svg version="1.1" id="Layer_2" xmlns="http://www.w3.org/2000/svg" xmlns:xlink="http://www.w3.org/1999/xlink" x="0px" y="0px"
	 viewBox="0 0 512 512" style="enable-background:new 0 0 512 512;" xml:space="preserve">
<circle style="fill:#EAEAEA;" cx="256" cy="256" r="230"/>
<path style="fill:#FFFFFF;" d="M388.8,271.9v-31.9l-29.9-10.6c-2.5-9.7-6.4-18.9-11.4-27.4l0,0l13.7-28.7l-22.5-22.5L310,164.4l0,0
	c-8.5-5-17.6-8.9-27.4-11.4l-10.6-29.9h-31.9l-10.6,29.9c-9.7,2.5-18.9,6.4-27.4,11.4l0,0l-28.7-13.7l-22.5,22.5l13.7,28.7l0,0
	c-5,8.5-8.9,17.6-11.4,27.4l-29.9,10.6v31.9l29.9,10.6c2.5,9.7,6.4,18.9,11.4,27.4l0,0l-13.7,28.7l22.5,22.5l28.7-13.7l0,0
	c8.5,5,17.6,8.9,27.4,11.4l10.6,29.9h31.9l10.6-29.9c9.7-2.5,18.9-6.4,27.4-11.4l0,0l28.7,13.7l22.5-22.5L347.6,310l0,0
	c5-8.5,8.9-17.6,11.4-27.4L388.8,271.9z M256,309.1c-29.3,0-53.1-23.8-53.1-53.1c0-29.3,23.8-53.1,53.1-53.1s53.1,23.8,53.1,53.1
	S285.3,309.1,256,309.1z"/>
<path d="M224.1,237.6h32.2c3,0,5.4,1.9,5.4,4.3v28.2c0,2.4-2.4,4.3-5.4,4.3h-32.2c6.4,11.1,18.4,18.6,32.1,18.6
	c13,0,24.5-6.7,31.1-16.9h115.2c11.1,0,20.2-9,20.2-20.2c0-11.1-9-20.2-20.2-20.2H287.3c-6.6-10.2-18.1-16.9-31.1-16.9
	C242.5,218.9,230.5,226.4,224.1,237.6z"/>
</svg>
