<?xml version="1.0" encoding="utf-8"?>
<!-- Generator: Adobe Illustrator 18.0.0, SVG Export Plug-In . SVG Version: 6.00 Build 0)  -->
<!DOCTYPE svg PUBLIC "-//W3C//DTD SVG 1.1//EN" "http://www.w3.org/Graphics/SVG/1.1/DTD/svg11.dtd">
<svg version="1.1" id="Layer_1" xmlns="http://www.w3.org/2000/svg" xmlns:xlink="http://www.w3.org/1999/xlink" x="0px" y="0px"
	 viewBox="0 0 512 512" style="enable-background:new 0 0 512 512;" xml:space="preserve">
<g id="Group">
	<path style="opacity:0.4;fill:#4C4C4C;enable-background:new    ;" d="M256.1,55.6c55,0,106.6,21.4,145.5,60.3
		s60.3,90.5,60.3,145.5s-21.4,106.6-60.3,145.5S311.1,467,256.1,467s-106.6-21.4-145.5-60.3s-60.3-90.5-60.3-145.5
		s21.4-106.6,60.3-145.5S201.2,55.6,256.1,55.6 M256.1,38.6c-123,0-222.7,99.7-222.7,222.7S133.2,484,256.1,484
		s222.7-99.7,222.7-222.7S379.1,38.6,256.1,38.6L256.1,38.6z"/>
	<g>
		<g>
			<g>
				<g>
					<path style="fill:#00BD9B;" d="M256.1,258.9l-109-174.4c33.4-20.9,69.6-31.2,109-31.2V258.9z"/>
				</g>
			</g>
			<g>
				<g>
					<path style="fill:#2D98E0;" d="M256.1,258.9L51,273.2c-5.5-78.7,29.2-146.9,96.2-188.7L256.1,258.9z"/>
				</g>
			</g>
			<g>
				<g>
					<path style="fill:#9C56B8;" d="M256.1,258.9l168.5,118c-65.1,93-193.4,115.6-286.4,50.5C85.6,390.5,55.4,337.2,51,273.2
						L256.1,258.9z"/>
				</g>
			</g>
			<g>
				<g>
					<path style="fill:#E84C3D;" d="M256.1,258.9L404,116c68.6,71,77.1,180,20.5,260.8L256.1,258.9z"/>
				</g>
			</g>
			<g>
				<g>
					<path style="fill:#F1C50E;" d="M256.1,258.9l53.2-198.6c38.1,10.2,67.3,27.4,94.7,55.8L256.1,258.9z"/>
				</g>
			</g>
			<g>
				<g>
					<path style="fill:#51D88B;" d="M256.1,258.9V53.2c19.6,0,34.2,1.9,53.2,7L256.1,258.9z"/>
				</g>
			</g>
		</g>
	</g>
	<path style="fill:#D1D1D1;" d="M256.1,41c55,0,106.6,21.4,145.5,60.3s60.3,90.5,60.3,145.5s-21.4,106.6-60.3,145.5
		s-90.5,60.3-145.5,60.3S149.5,431,110.7,392.2s-60.3-90.5-60.3-145.5s21.4-106.6,60.3-145.5S201.2,41,256.1,41 M256.1,24
		c-123,0-222.7,99.7-222.7,222.7s99.7,222.7,222.7,222.7s222.7-99.7,222.7-222.7S379.1,24,256.1,24L256.1,24z"/>
	<polygon style="opacity:0.4;fill:#4C4C4C;enable-background:new    ;" points="107.7,56.6 182.1,186.8 40.4,127.6 	"/>
	<polygon style="fill:#EAEAEA;" points="104.4,29.9 188.4,184.7 33.2,93.7 	"/>
	<path style="opacity:0.4;" d="M256,191c-72.9,0-132.1,77.8-132.1,77.8s59.1,77.8,132.1,77.8c72.9,0,132.1-77.8,132.1-77.8
		S328.9,191,256,191z M256,319.6c-28,0-50.8-22.7-50.8-50.8s22.7-50.8,50.8-50.8s50.8,22.7,50.8,50.8S284,319.6,256,319.6z"/>
	<path style="opacity:0.9;fill:#FFFFFF;" d="M256,176.2c-72.9,0-132.1,77.8-132.1,77.8s59.1,77.8,132.1,77.8
		c72.9,0,132.1-77.8,132.1-77.8S328.9,176.2,256,176.2z M256,304.8c-28,0-50.8-22.7-50.8-50.8s22.7-50.8,50.8-50.8
		s50.8,22.7,50.8,50.8S284,304.8,256,304.8z"/>
</g>
</svg>
