<?xml version="1.0" encoding="UTF-8" standalone="no"?>
<!DOCTYPE svg PUBLIC "-//W3C//DTD SVG 1.1//EN" "http://www.w3.org/Graphics/SVG/1.1/DTD/svg11.dtd">
<svg width="100%" height="100%" viewBox="0 0 512 512" version="1.1" xmlns="http://www.w3.org/2000/svg" xmlns:xlink="http://www.w3.org/1999/xlink" xml:space="preserve" xmlns:serif="http://www.serif.com/" style="fill-rule:evenodd;clip-rule:evenodd;stroke-linejoin:round;stroke-miterlimit:1.41421;">
    <g id="path236" transform="matrix(2,0,0,-2,67.488,256)">
        <path d="M0,0C0,8.545 6.93,15.46 15.475,15.46C24.016,15.46 30.934,8.545 30.934,0C30.934,-8.542 24.016,-15.475 15.475,-15.475C6.93,-15.475 0,-8.544 0,0M56.974,55.909L68.288,36.966C56.671,28.789 49.072,15.286 49.072,0C49.072,-15.29 56.672,-28.79 68.288,-36.966L56.974,-55.909C43.437,-46.865 33.374,-33.037 29.192,-16.843C34.079,-12.861 37.195,-6.798 37.195,0C37.195,6.798 34.079,12.86 29.192,16.842C33.374,33.037 43.438,46.864 56.974,55.909M94.257,67.197C100.478,67.197 106.491,66.33 112.207,64.749C113.217,58.535 116.905,52.812 122.786,49.418C128.657,46.028 135.445,45.7 141.327,47.922C152.766,36.677 160.221,21.374 161.306,4.335L139.255,4.002C137.227,27.082 117.862,45.186 94.257,45.186C87.456,45.186 81.013,43.674 75.227,40.983L64.475,60.244C73.452,64.69 83.561,67.197 94.257,67.197M120.253,75.96C123.055,80.815 128.087,83.573 133.309,83.689C136.044,83.75 138.843,83.085 141.385,81.616C148.784,77.345 151.314,67.898 147.042,60.5C142.772,53.104 133.308,50.57 125.911,54.842C118.513,59.113 115.982,68.565 120.253,75.96M141.342,-47.919C135.459,-45.696 128.658,-46.026 122.787,-49.416C116.905,-52.812 113.218,-58.534 112.207,-64.746C106.49,-66.328 100.478,-67.194 94.257,-67.194C83.56,-67.194 73.453,-64.687 64.474,-60.241L75.226,-40.98C81.013,-43.672 87.454,-45.183 94.256,-45.183C117.862,-45.183 137.224,-27.083 139.254,-4L161.306,-4.33C160.223,-21.373 152.779,-36.673 141.342,-47.919M141.384,-81.617C133.984,-85.889 124.523,-83.359 120.253,-75.96C115.981,-68.565 118.51,-59.1 125.91,-54.829C128.221,-53.495 130.744,-52.835 133.237,-52.77C138.721,-52.628 144.105,-55.416 147.041,-60.501C151.312,-67.898 148.78,-77.346 141.384,-81.617M94.256,-115C157.769,-115 209.256,-63.513 209.256,0C209.256,63.513 157.769,115 94.256,115C30.743,115 -20.744,63.513 -20.744,0C-20.744,-63.513 30.743,-115 94.256,-115" style="fill:rgb(243,96,43);fill-rule:nonzero;"/>
    </g>
</svg>
