<?xml version="1.0" encoding="UTF-8" standalone="no"?>
<!DOCTYPE svg PUBLIC "-//W3C//DTD SVG 1.1//EN" "http://www.w3.org/Graphics/SVG/1.1/DTD/svg11.dtd">
<svg width="100%" height="100%" viewBox="0 0 512 512" version="1.1" xmlns="http://www.w3.org/2000/svg" xmlns:xlink="http://www.w3.org/1999/xlink" xml:space="preserve" xmlns:serif="http://www.serif.com/" style="fill-rule:evenodd;clip-rule:evenodd;stroke-linejoin:round;stroke-miterlimit:1.41421;">
    <circle cx="256" cy="256" r="230" style="fill:url(#_Linear1);"/>
    <g id="XMLID_1_">
        <path d="M386,295.3C386,295.5 385.8,295.7 385.6,295.7L385.4,295.7C385.2,295.7 385,295.5 385,295.3L385,292.1L383.2,292.1L383.2,295.3C383.2,295.5 383,295.7 382.8,295.7L382.6,295.7C382.4,295.7 382.2,295.5 382.2,295.3L382.2,292.1L381,292.1C380.8,292.1 380.6,292 380.6,291.7L380.6,291.5C380.6,291.3 380.8,291.2 381,291.2L385.7,291.2C385.9,291.2 386,291.3 386.1,291.4L387,292.7L387.9,291.4C388,291.3 388.1,291.2 388.3,291.2L388.9,291.2L388.9,295.3C388.9,295.5 388.7,295.7 388.5,295.7L388.4,295.7L388.2,295.7C388,295.7 387.8,295.5 387.8,295.3L387.8,292.6L387.2,293.5C387.1,293.6 387,293.6 386.9,293.6L386.8,293.6C386.7,293.6 386.6,293.6 386.5,293.5L385.9,292.6L386,295.3Z" style="fill:rgb(115,186,37);fill-rule:nonzero;"/>
        <path d="M379.7,325.1L379.7,326C379.7,327.9 378.3,329.3 376.3,329.3L350.3,329.3C348.4,329.3 347,327.9 347,326L347,293.4C347,291.5 348.5,290.1 350.4,290.1L375.3,290.1C377.3,290.1 378.8,291.5 378.8,293.4L378.8,294.3C378.8,296.2 377.3,297.6 375.3,297.6C375.3,297.6 356,297.6 355.1,297.6C355.1,298.5 355.1,305.3 355.1,306.1C356.1,306.1 370.7,306.1 370.7,306.1C372.7,306.1 374.2,307.5 374.2,309.4L374.2,310.3C374.2,312.2 372.7,313.6 370.7,313.6C370.7,313.6 356,313.6 355.1,313.6C355.1,314.5 355.1,321.1 355.1,321.9C356.1,321.9 376.4,321.9 376.4,321.9C378.3,321.8 379.7,323.2 379.7,325.1Z" style="fill:rgb(115,186,37);fill-rule:nonzero;"/>
        <path d="M356.1,189C364.3,189.3 370.8,196.2 370.5,204.4C370.4,208.4 368.7,212.1 365.8,214.8C362.9,217.5 359.1,218.9 355.1,218.8C346.9,218.5 340.4,211.6 340.7,203.4C340.8,199.4 342.5,195.7 345.4,193C348.3,190.3 352.1,188.9 356.1,189ZM366.6,204.1C366.8,198.2 362.2,193.3 356.4,193.1C353.6,193 350.9,194 348.8,195.9C346.7,197.8 345.5,200.4 345.4,203.3C345.2,209.2 349.8,214.1 355.6,214.3C358.4,214.4 361.1,213.4 363.2,211.5C365.3,209.6 366.5,207 366.6,204.1Z" style="fill:white;fill-rule:nonzero;"/>
        <path d="M356.3,193.2C362.2,193.4 366.7,198.3 366.5,204.2C366.4,207 365.2,209.6 363.2,211.6C361.1,213.5 358.4,214.5 355.6,214.4C349.8,214.2 345.2,209.3 345.4,203.4C345.5,200.6 346.7,197.9 348.8,196C350.8,194.1 353.5,193.1 356.3,193.2ZM362.8,201.6C362.8,199.9 360.7,198.5 358.1,198.5C355.5,198.5 353.4,199.9 353.4,201.6C353.4,203.3 355.5,204.7 358.1,204.7C360.7,204.7 362.8,203.3 362.8,201.6Z" style="fill:rgb(115,186,37);fill-rule:nonzero;"/>
        <path d="M358.1,198.5C360.7,198.5 362.8,199.9 362.8,201.6C362.8,203.3 360.7,204.7 358.1,204.7C355.5,204.7 353.4,203.3 353.4,201.6C353.4,199.9 355.5,198.5 358.1,198.5Z" style="fill:white;fill-rule:nonzero;"/>
        <path d="M340.1,314.2L340.1,319.4C340.1,325.4 336.5,329.3 331,329.3L309.7,329.3C307.7,329.3 306.3,327.9 306.3,326L306.3,325.1C306.3,323.2 307.7,321.8 309.7,321.8L329.9,321.8C332.1,321.8 332.2,318.8 332.2,318.5L332.2,315.4C332.2,314.4 331.8,313.2 329.9,313.2L315.1,313.2C310.9,313.2 306.3,309.8 306.3,304.2L306.3,299.4C306.3,295.6 309.9,290.2 316.3,290.2L333.7,290.2C335.7,290.2 337.2,291.6 337.2,293.5L337.2,294.4C337.2,296.3 335.7,297.7 333.8,297.7L317.7,297.7C315.6,297.7 314.4,298.7 314.4,300.6L314.4,303.5C314.4,304.7 315.4,306.3 317.6,306.3L332,306.3C336.1,306.1 340.1,308.6 340.1,314.2Z" style="fill:rgb(115,186,37);fill-rule:nonzero;"/>
        <path d="M295.9,290C297.8,290 299.3,291.5 299.3,293.5L299.3,319.2C299.3,325.2 294.6,329.5 288.1,329.5L276.1,329.5C269.6,329.5 264.9,325.2 264.9,319.2L264.9,293.5C264.9,291.6 266.4,290 268.3,290L269.4,290C271.3,290 272.9,291.6 272.9,293.5L272.9,318.3C272.9,320.3 274.5,321.9 276.5,321.9L287.7,321.9C289.7,321.9 291.3,320.3 291.3,318.3L291.3,293.5C291.3,291.6 292.9,290 294.8,290L295.9,290Z" style="fill:rgb(115,186,37);fill-rule:nonzero;"/>
        <path d="M258.1,314.2L258.1,319.4C258.1,325.4 254.5,329.3 249,329.3L227.7,329.3C225.7,329.3 224.2,327.9 224.2,326L224.2,325.1C224.2,323.2 225.7,321.8 227.7,321.8L247.9,321.8C250.1,321.8 250.1,318.8 250.1,318.5L250.1,315.4C250.1,314.4 249.7,313.2 247.9,313.2L233.1,313.2C228.9,313.2 224.3,309.8 224.3,304.2L224.3,299.4C224.3,295.6 227.9,290.2 234.3,290.2L251.7,290.2C253.7,290.2 255.2,291.6 255.2,293.5L255.2,294.4C255.2,296.3 253.7,297.7 251.7,297.7L235.6,297.7C233.5,297.7 232.3,298.7 232.3,300.6L232.3,303.5C232.3,304.7 233.3,306.3 235.5,306.3L250,306.3C254,306.1 258.1,308.6 258.1,314.2Z" style="fill:rgb(115,186,37);fill-rule:nonzero;"/>
        <path d="M379.9,224.6L381,224.4C381.3,224.6 381.3,225.1 381.2,225.5C381,226.5 380.5,228.3 380.2,229.2L379.9,229.9C379.5,230.9 379.1,231.9 378.4,232.5C376.4,234.4 373.1,235.8 368,238.1C360.1,241.5 347.4,243.7 335.5,243.6C331.3,243.5 327.1,243 323.5,242.6C312.5,241.3 304.5,240.4 302.8,250.5C300.7,263.1 312.5,278.4 312.7,278.5L312.7,278.9L312.3,279C312.3,279 293.4,270.3 293,270.1L292.4,269.7L291.9,269.2C290.5,267.8 287.6,264.8 281.8,258C270.6,245 257.4,243.3 247.3,245.8C244.8,246.4 241.7,248.2 239.6,250.2C234.3,255.4 234.9,265.9 235.2,269.8C235.6,274.1 235.8,274.5 235.9,274.8L235.8,275.2L235.4,275.2L235.2,275.1L219.7,267.5L219.1,265C218.7,263.3 218.2,261.5 217.4,259.2C211.9,244.6 199.4,233.7 185.7,231.3C176.4,229.7 159.6,229.5 150.6,246.4C146.9,253.4 147.1,262.6 151.2,270.3C155.4,278.2 162.8,283.3 171.7,284.2C180.5,285.2 187,283.1 190.7,278.3C194.4,273.5 195.1,266.9 192.5,261.6C189.7,255.9 185.4,252.8 179.4,252.3C174.9,251.9 171.5,253.8 170.3,255.7C169.9,256.3 169.3,257.4 169.3,259L169.3,259.1C169.3,263.4 173.2,264.6 174,264.6C174.2,264.6 175.4,264.6 177,264.2L177.8,264L178.3,263.8L178.7,263.7C181.6,263.2 184.3,264.9 185.1,267.7C185.2,268.2 185.3,268.7 185.3,269.2C185.3,271.1 184.4,272.8 182.8,273.8L182.9,273.8L182.7,273.9L182.4,274.1C181.6,274.6 180.8,274.9 180,275.2C177.8,275.9 175.8,276.3 173.8,276.3C167,276.3 157.5,270.4 157.3,259.4C157.2,253.2 160.4,247.5 165.9,243.9C172.2,239.7 183.2,238.3 193.3,244.5C205.8,252.1 209.1,267.1 205.8,277.3C201.1,292.1 187.7,300 170.1,298.4C157.6,297.3 146.1,290.7 139.2,280.8C136.1,276.4 133.9,271.5 132.7,266.6C129.9,255.4 132.7,243.6 134.9,238.3C141.6,221.6 154.5,207.2 173.2,195.6L174.4,194.9C214.1,170.5 242.2,171.5 262.8,172.2C287.1,173 312.9,181.4 316.5,182.6C316.5,181.8 316.7,174.6 316.7,174.6L316.8,174.4L317.1,174.3C318.7,174.5 353.6,179.7 368.3,188.3C370.1,189.4 371,190.5 372.1,191.6C376.2,195.8 381.5,213.3 382.1,216.9L381.9,217.3C381.7,217.4 381.2,217.7 380.5,218.2C377.1,220.6 369.1,226.2 358.8,225.3C349.6,224.5 337.5,219.2 323,209.6C323.6,211.1 326.7,218.3 327.2,219.5L327.4,219.7C329.5,220.8 349.7,231.1 359.7,230.9C367.8,230.6 376.4,226.7 379.9,224.6ZM370.5,204.4C370.8,196.2 364.3,189.3 356.1,189C352.1,188.9 348.3,190.3 345.4,193C342.5,195.7 340.8,199.4 340.7,203.4C340.4,211.6 346.9,218.5 355.1,218.8C359.1,218.9 362.9,217.5 365.8,214.8C368.7,212.1 370.3,208.4 370.5,204.4Z" style="fill:rgb(115,186,37);fill-rule:nonzero;"/>
        <path d="M204.8,306.9C206.2,306.2 207.9,305.4 210.2,305.4L210.9,305.4C214.9,305.4 217.5,307.8 217.5,311.5L217.5,327.6C217.5,328.6 216.7,329.4 215.8,329.4L215.1,329.4C214.1,329.4 213.4,328.6 213.4,327.6L213.4,312.1C213.4,310.6 212.2,309.5 210.8,309.5L205,309.5C203.5,309.5 202.4,310.7 202.4,312.1L202.4,327.6C202.4,328.6 201.6,329.4 200.7,329.4L200,329.4C199,329.4 198.3,328.6 198.3,327.6L198.3,307.1C198.3,306.2 198.9,305.6 199.7,305.6L200.4,305.6C201,305.6 201.5,305.9 201.8,306.4L202.3,307.3C202.5,307.7 202.6,307.7 202.9,307.7C203.2,307.7 203.9,307.3 204.8,306.9Z" style="fill:rgb(115,186,37);fill-rule:nonzero;"/>
        <path d="M193.3,311.3L193.3,316C193.3,318 192.1,319.2 190.2,319.2C190.2,319.2 178.6,319.2 178,319.2C178,319.7 178,322.8 178,322.8C178,324.6 179,325.5 180.9,325.5L187.6,325.5C188.6,325.5 189.3,326.2 189.3,327.1L189.3,327.6C189.3,328.6 188.6,329.3 187.6,329.3L179.4,329.3C176.4,329.3 173.8,326.6 173.8,323.4L173.8,311.2C173.8,308.1 176.4,305.6 179.7,305.6L187.4,305.6C190.6,305.6 193.3,308.2 193.3,311.3ZM189,315.6C189,315.1 189,311.8 189,311.8C189,310.5 188,309.4 186.7,309.4L180.3,309.4C179,309.4 178,310.4 178,311.8C178,311.8 178,315.1 178,315.6C178.5,315.6 188.5,315.6 189,315.6Z" style="fill:rgb(115,186,37);fill-rule:nonzero;"/>
        <path d="M152.6,322.8C152.6,323.8 153.2,324.7 154,325.1L153,327.3C152.8,327.3 152.6,327.6 152.6,327.9L152.6,338.3C152.6,339.3 151.8,340 150.9,340L150.2,340C149.2,340 148.5,339.2 148.5,338.3L148.5,307.1C148.5,306.3 149.1,305.6 149.9,305.6L150.7,305.6C151.4,305.6 151.9,306.1 152,306.4L152.5,307.4C152.6,307.6 152.9,307.7 153.1,307.7L154.1,309.8C153.3,310.2 152.7,311.1 152.7,312.1L152.6,322.8Z" style="fill:rgb(115,186,37);fill-rule:nonzero;"/>
        <path d="M161.3,305.5C165.3,305.5 167.9,307.9 167.9,311.6L167.9,323.5C167.9,327.2 165.4,329.5 161.3,329.5L160.6,329.5C158.3,329.5 156.6,328.7 155.2,328.1C154.3,327.7 153.6,327.4 153,327.4L154,325.2C154.4,325.4 154.8,325.5 155.3,325.5L161.1,325.5C162.6,325.5 163.7,324.3 163.7,322.9L163.7,312.2C163.7,310.7 162.5,309.6 161.1,309.6L155.3,309.6C154.8,309.6 154.4,309.7 154,309.9L153,307.8C153.6,307.8 154.3,307.5 155.1,307.1C156.5,306.4 158.2,305.6 160.5,305.6L161.3,305.5Z" style="fill:rgb(115,186,37);fill-rule:nonzero;"/>
        <path d="M142.5,311.2L142.5,323.5C142.5,326.7 139.9,329.2 136.8,329.2L128.8,329.2C125.7,329.2 123.1,326.6 123.1,323.5L123.1,311.2C123.1,308.1 125.7,305.6 129,305.6L136.6,305.6C139.9,305.6 142.5,308.1 142.5,311.2ZM138.3,323.1L138.3,311.9C138.3,310.6 137.2,309.5 135.9,309.5L129.7,309.5C128.4,309.5 127.3,310.6 127.3,311.9L127.3,323.1C127.3,324.4 128.3,325.5 129.6,325.5L135.9,325.5C137.2,325.5 138.3,324.4 138.3,323.1Z" style="fill:rgb(115,186,37);fill-rule:nonzero;"/>
    </g>
    <defs>
        <linearGradient id="_Linear1" x1="0" y1="0" x2="1" y2="0" gradientUnits="userSpaceOnUse" gradientTransform="matrix(2.81669e-14,-460,460,2.81669e-14,256,486)"><stop offset="0" style="stop-color:rgb(247,247,247);stop-opacity:1"/><stop offset="1" style="stop-color:rgb(247,247,247);stop-opacity:1"/></linearGradient>
    </defs>
</svg>
