<?xml version="1.0" encoding="utf-8"?>
<!-- Generator: Adobe Illustrator 22.0.1, SVG Export Plug-In . SVG Version: 6.00 Build 0)  -->
<svg version="1.1" id="Layer_2_1_" xmlns="http://www.w3.org/2000/svg" xmlns:xlink="http://www.w3.org/1999/xlink" x="0px" y="0px"
	 viewBox="0 0 512 512" style="enable-background:new 0 0 512 512;" xml:space="preserve">
<circle style="fill:#4D4D4D;" cx="256" cy="256" r="230"/>
<path id="path2518" style="fill:#1793D1;" d="M256,140c-10.3,25.3-16.6,41.9-28.1,66.5c7.1,7.5,15.7,16.2,29.8,26
	c-15.1-6.2-25.4-12.5-33.1-18.9C209.8,244.2,186.8,288,140,372c36.8-21.2,65.3-34.3,91.9-39.3c-1.1-4.9-1.8-10.2-1.7-15.8v-1.2
	c0.6-23.6,12.8-41.7,27.4-40.5c14.5,1.2,25.8,21.3,25.2,44.9c-0.1,4.4-0.6,8.7-1.5,12.7c26.3,5.1,54.5,18.2,90.8,39.1
	c-7.2-13.2-13.5-25-19.6-36.3c-9.6-7.4-19.6-17.1-40.1-27.6c14,3.6,24.1,7.9,31.9,12.6C282.3,205.2,277.2,189.9,256,140z"/>
</svg>
