<?xml version="1.0" encoding="UTF-8" standalone="no"?>
<!DOCTYPE svg PUBLIC "-//W3C//DTD SVG 1.1//EN" "http://www.w3.org/Graphics/SVG/1.1/DTD/svg11.dtd">
<svg width="100%" height="100%" viewBox="0 0 512 512" version="1.1" xmlns="http://www.w3.org/2000/svg" xmlns:xlink="http://www.w3.org/1999/xlink" xml:space="preserve" xmlns:serif="http://www.serif.com/" style="fill-rule:evenodd;clip-rule:evenodd;stroke-linejoin:round;stroke-miterlimit:1.41421;">
    <g transform="matrix(1.89046,0,0,1.89046,-171.27,-154.813)">
        <circle cx="226.014" cy="217.308" r="121.663" style="fill:rgb(218,228,239);"/>
    </g>
    <g id="layer1" transform="matrix(1,0,0,1,-95,-491.367)">
        <g id="g5423" transform="matrix(1,0,0,1,-0.208039,7.00005)">
            <path id="path3042-0-6-4" d="M328.9,696.7C319.6,696.7 312,689.1 312,679.9C312,670.6 319.6,663 328.9,663C338.2,663 345.8,670.6 345.8,679.8C345.7,689.1 338.2,696.7 328.9,696.7Z" style="fill:rgb(35,151,212);fill-rule:nonzero;"/>
            <path id="path3056-6-4-1" d="M374.4,684.3C365.7,684.3 358.7,677.2 358.7,668.6C358.7,659.9 365.7,652.8 374.4,652.8C383.1,652.8 390.1,659.9 390.2,668.5C390.2,677.2 383.1,684.3 374.4,684.3Z" style="fill:rgb(35,151,212);fill-rule:nonzero;"/>
            <path id="path4104" d="M361.5,639.4C361.5,647.2 355.2,653.5 347.4,653.5C339.6,653.5 333.3,647.2 333.3,639.4C333.3,631.6 339.6,625.3 347.4,625.3C355.2,625.3 361.5,631.6 361.5,639.4Z" style="fill:rgb(35,151,212);fill-rule:nonzero;"/>
            <path id="path4106" d="M382.8,615.8C382.8,622.9 377,628.7 369.9,628.7C362.8,628.7 357,622.9 357,615.8C357,608.7 362.8,602.9 369.9,602.9C377,602.8 382.8,608.6 382.8,615.8Z" style="fill:rgb(35,151,212);fill-rule:nonzero;"/>
            <path id="path4132" d="M353.6,592.7C353.6,598.9 348.6,603.9 342.4,603.9C336.2,603.9 331.2,598.9 331.2,592.7C331.2,586.5 336.2,581.5 342.4,581.5C348.6,581.5 353.6,586.5 353.6,592.7Z" style="fill:rgb(35,151,212);fill-rule:nonzero;"/>
        </g>
        <path id="path3347-1" d="M281.7,718.9C267.2,737.8 255.4,759 255.4,784.7C255.4,840.4 297.7,886.3 350.1,886.3C402.5,886.3 444.8,840.4 444.8,784.7C444.8,759 433,738.5 417.6,718.9C411.8,712.9 403.5,713.8 397.5,717.6C379.8,726.8 370.2,730.4 350.2,730.3C330.8,730.2 320.6,727 302.9,717.4C296.7,713.7 287.4,712.8 281.7,718.9ZM294.3,734.5C312.7,744.7 329.1,749.8 350,749.8C370.9,749.8 387.3,744.6 405.7,734.5C415.7,748.6 425.2,766.2 425.2,784.6C425.2,830.3 391.5,866.7 350,866.7C308.5,866.7 273.4,830.2 273.4,784.6C273.4,766.2 284.3,748.7 294.3,734.5Z" style="fill:rgb(38,47,69);fill-rule:nonzero;"/>
    </g>
</svg>
