<?xml version="1.0" encoding="UTF-8" standalone="no"?>
<!DOCTYPE svg PUBLIC "-//W3C//DTD SVG 1.1//EN" "http://www.w3.org/Graphics/SVG/1.1/DTD/svg11.dtd">
<svg width="100%" height="100%" viewBox="0 0 512 512" version="1.1" xmlns="http://www.w3.org/2000/svg" xmlns:xlink="http://www.w3.org/1999/xlink" xml:space="preserve" xmlns:serif="http://www.serif.com/" style="fill-rule:evenodd;clip-rule:evenodd;stroke-linejoin:round;stroke-miterlimit:1.41421;">
    <g transform="matrix(1.47741,0,0,1.47741,-90.043,-57.334)">
        <circle cx="234.223" cy="212.084" r="155.678" style="fill:rgb(162,225,98);"/>
    </g>
    <g id="g45">
        <path id="_x3C_Path_x3E__1_" d="M269.8,203.8C261.5,203.8 254,206.9 248.1,212.9C242.1,218.9 239,226.4 239,234.9L239,277.7L258.4,277.7L258.4,234.9C258.4,231.7 259.5,229.1 261.8,226.8C264.1,224.5 266.6,223.4 269.8,223.4C273.1,223.4 275.5,224.5 277.8,226.8C280.1,229.1 281.2,231.7 281.2,234.9L281.2,277.7L300.6,277.7L300.6,234.9C300.6,231.7 301.7,229.1 304,226.8C306.3,224.4 308.8,223.4 312,223.4C315.2,223.4 317.7,224.5 320,226.8C322.3,229.1 323.4,231.7 323.4,234.9L323.5,284.9C323.5,295.6 313.3,304.6 300.3,304.6L237.7,304.4C227.6,304.4 219,294.6 219,282L219,187.8L200.6,187.8L200.6,285.7C200.6,296.1 204.4,305.2 211.8,312.6C218.1,318.8 225.7,322.9 234.3,323.8L304.1,323.8C314.8,323.8 324.2,319.8 331.8,312.1C338.3,305.5 342,297.5 343,288.6L342.9,235.1C342.9,226.6 339.8,219.1 333.8,213.1C327.8,207.1 320.4,204 312.1,204C303.9,204 296.7,207 290.9,212.6C285.1,206.8 278,203.8 269.8,203.8Z" style="fill:white;fill-rule:nonzero;"/>
        <path id="_x3C_Path_x3E_" d="M247.8,362.4C203.6,362.4 165.3,328.9 165.3,284.8L165.3,231.2L165.3,217.5L137.3,217.5L137.3,149.4L255.4,150L292.3,150.1C336.5,150.1 374.8,183.5 374.8,227.7L374.8,362.4L247.8,362.4ZM356.7,326.3C356.7,297 356.7,227.8 356.7,227.8C356.7,194.9 327.8,168.2 292.2,168.2L255.2,168.2L255.2,168.1L155.2,167.7L155.2,199.7C155.2,199.7 159.2,199.7 166.4,199.7C174,199.7 183.2,206.8 183.2,217.3L183.3,284.8C183.3,317.7 212.2,344.4 247.8,344.4L335.7,344.4C346.9,344.4 356.7,337.3 356.7,326.3Z" style="fill:white;fill-rule:nonzero;"/>
    </g>
</svg>
