<?xml version="1.0" encoding="utf-8"?>
<!-- Generator: Adobe Illustrator 22.0.1, SVG Export Plug-In . SVG Version: 6.00 Build 0)  -->
<svg version="1.1" id="Layer_1" xmlns="http://www.w3.org/2000/svg" xmlns:xlink="http://www.w3.org/1999/xlink" x="0px" y="0px"
	 viewBox="0 0 512 512" style="enable-background:new 0 0 512 512;" xml:space="preserve">
<g>
	<g>
		<path style="fill:#151515;" d="M446,486H66c-22.091,0-40-17.909-40-40V66c0-22.091,17.909-40,40-40h380c22.091,0,40,17.909,40,40
			v380C486,468.091,468.091,486,446,486z"/>
		<g>
			
				<linearGradient id="SVGID_1_" gradientUnits="userSpaceOnUse" x1="256" y1="486" x2="256" y2="26" gradientTransform="matrix(1 0 0 -1 0 512)">
				<stop  offset="0" style="stop-color:#FFFFFF"/>
				<stop  offset="1" style="stop-color:#FFFFFF;stop-opacity:0.5"/>
			</linearGradient>
			<path style="fill:url(#SVGID_1_);" d="M446,36c16.542,0,30,13.458,30,30v380c0,16.542-13.458,30-30,30H66
				c-16.542,0-30-13.458-30-30V66c0-16.542,13.458-30,30-30H446 M446,26H66c-22.091,0-40,17.909-40,40v380c0,22.091,17.909,40,40,40
				h380c22.091,0,40-17.909,40-40V66C486,43.909,468.091,26,446,26L446,26z"/>
		</g>
	</g>
</g>
<g>
	<path style="fill:#FFFFFF;" d="M145.173,147.469c-0.772,8.175-3.789,14.551-9.052,19.13c-5.262,4.578-12.262,6.868-20.998,6.868
		c-6.104,0-11.481-1.447-16.13-4.342c-4.649-2.895-8.236-7.007-10.762-12.341c-2.526-5.333-3.842-11.525-3.947-18.577v-7.157
		c0-7.227,1.28-13.595,3.842-19.104c2.561-5.507,6.236-9.753,11.025-12.735c4.789-2.981,10.323-4.473,16.603-4.473
		c8.455,0,15.262,2.29,20.419,6.868c5.157,4.579,8.157,11.061,8.999,19.445h-13.262c-0.631-5.508-2.236-9.481-4.815-11.92
		c-2.579-2.438-6.359-3.657-11.341-3.657c-5.789,0-10.235,2.116-13.34,6.347s-4.693,10.439-4.763,18.621v6.795
		c0,8.287,1.481,14.608,4.447,18.963c2.964,4.354,7.306,6.531,13.025,6.531c5.227,0,9.157-1.175,11.788-3.526
		c2.631-2.35,4.297-6.263,5-11.736H145.173z"/>
	<path style="fill:#FFFFFF;" d="M163.54,114.262c2.385,0,4.227,0.676,5.525,2.026c1.298,1.351,1.947,3.044,1.947,5.079
		c0,2-0.649,3.657-1.947,4.973c-1.298,1.315-3.14,1.973-5.525,1.973c-2.281,0-4.088-0.648-5.42-1.947c-1.334-1.298-2-2.964-2-5
		c0-2.035,0.649-3.728,1.947-5.079C159.364,114.938,161.188,114.262,163.54,114.262z M163.54,158.941
		c2.385,0,4.227,0.676,5.525,2.026c1.298,1.351,1.947,3.044,1.947,5.079c0,2-0.649,3.657-1.947,4.973
		c-1.298,1.315-3.14,1.974-5.525,1.974c-2.281,0-4.088-0.649-5.42-1.947c-1.334-1.298-2-2.964-2-5c0-2.034,0.649-3.728,1.947-5.079
		C159.364,159.617,161.188,158.941,163.54,158.941z"/>
	<path style="fill:#FFFFFF;" d="M178.906,95.791h12.63l31.997,83.201h-12.63L178.906,95.791z"/>
	<path style="fill:#FFFFFF;" d="M262.16,138.943l-32.522-11.946V114.42l45.469,19.577v10.157l-45.469,19.577v-12.578L262.16,138.943
		z"/>
</g>
</svg>
