<?xml version="1.0" encoding="utf-8"?>
<!-- Generator: Adobe Illustrator 18.0.0, SVG Export Plug-In . SVG Version: 6.00 Build 0)  -->
<!DOCTYPE svg PUBLIC "-//W3C//DTD SVG 1.1//EN" "http://www.w3.org/Graphics/SVG/1.1/DTD/svg11.dtd">
<svg version="1.1" id="Layer_1" xmlns="http://www.w3.org/2000/svg" xmlns:xlink="http://www.w3.org/1999/xlink" x="0px" y="0px"
	 viewBox="0 0 512 512" style="enable-background:new 0 0 512 512;" xml:space="preserve">
<path style="fill:#8C75A0;" d="M475.235,224.58l-33.184-11.782c-4.87-1.73-8.572-5.697-10.09-10.638
	c-4.291-13.962-10.216-27.21-17.517-39.549l0.071-0.073l18.724-39.339c2.943-6.184,1.675-13.551-3.17-18.394l-22.874-22.876
	c-4.843-4.843-12.211-6.113-18.395-3.168l-39.339,18.724l-0.073,0.073C337.047,90.255,323.8,84.33,309.84,80.04
	c-4.94-1.518-8.909-5.22-10.638-10.09L287.42,36.766C285.128,30.312,279.021,26,272.172,26h-32.349
	c-6.849,0-12.956,4.312-15.248,10.766L212.794,69.95c-1.73,4.87-5.699,8.572-10.64,10.09c-13.96,4.289-27.21,10.215-39.548,17.517
	l-0.073-0.076l-39.339-18.724c-6.184-2.943-13.553-1.675-18.395,3.168l-22.876,22.876c-4.843,4.843-6.111,12.211-3.168,18.395
	l18.724,39.339l0.076,0.073c-7.305,12.342-13.229,25.589-17.517,39.548c-1.518,4.941-5.22,8.91-10.09,10.638l-33.184,11.782
	c-6.454,2.293-10.766,8.399-10.766,15.248v32.349c0,6.849,4.312,12.956,10.766,15.247l33.184,11.782
	c4.87,1.73,8.572,5.699,10.09,10.638c4.289,13.96,10.216,27.21,17.517,39.549l-0.076,0.073l-18.724,39.336
	c-2.943,6.184-1.675,13.553,3.17,18.395l22.874,22.876c4.843,4.843,12.211,6.111,18.395,3.168l39.339-18.724l0.073-0.07
	c12.342,7.302,25.589,13.226,39.549,17.515c4.94,1.518,8.909,5.22,10.637,10.09l11.782,33.184
	c2.293,6.454,8.399,10.766,15.248,10.766h32.349c6.849,0,12.956-4.312,15.248-10.766l11.782-33.184
	c1.728-4.87,5.697-8.572,10.637-10.09c13.96-4.291,27.21-10.215,39.549-17.515l0.073,0.07l39.339,18.724
	c6.184,2.943,13.553,1.675,18.395-3.168l22.874-22.876c4.844-4.843,6.113-12.211,3.17-18.395l-18.724-39.336l-0.071-0.073
	c7.302-12.342,13.226-25.591,17.515-39.549c1.519-4.94,5.221-8.909,10.092-10.637l33.184-11.781
	c6.454-2.291,10.766-8.399,10.766-15.248v-32.349C486.002,232.977,481.69,226.871,475.235,224.58z M315.477,176.294
	c-4.195,0-5.718-0.806-11.865-0.806c-18.148,0-32.867,14.7-32.899,32.846v28.586c0,2.561,2.082,4.637,4.649,4.637l21.61,0.005
	c8.053,0,14.559,6.422,14.559,14.496c0.003,8.124-6.572,14.522-14.713,14.522h-26.102v33.034c0,34.419-27.906,62.326-62.326,62.326
	c-5.223,0-8.935-0.589-13.769-1.853c-7.048-1.845-12.808-7.624-12.81-14.347c0-8.124,5.898-14.035,14.713-14.035
	c4.197,0,5.72,0.806,11.867,0.806c18.146,0,32.865-14.698,32.898-32.846v-28.586c0-2.561-2.081-4.636-4.647-4.636l-21.612-0.005
	c-8.053,0-14.557-6.422-14.557-14.497c-0.005-8.124,6.572-14.52,14.711-14.52h26.104v-33.035c0-34.419,27.906-62.325,62.326-62.325
	c5.221,0,8.933,0.589,13.768,1.853c7.048,1.845,12.808,7.624,12.811,14.345C330.191,170.385,324.293,176.294,315.477,176.294z"/>
</svg>
