<?xml version="1.0" encoding="utf-8"?>
<!-- Generator: Adobe Illustrator 22.0.1, SVG Export Plug-In . SVG Version: 6.00 Build 0)  -->
<svg version="1.1" id="Layer_2" xmlns="http://www.w3.org/2000/svg" xmlns:xlink="http://www.w3.org/1999/xlink" x="0px" y="0px"
	 viewBox="0 0 512 512" style="enable-background:new 0 0 512 512;" xml:space="preserve">
<g id="g928" transform="matrix(0.986517,0,0,0.986517,376.851,327.941)">
	<path id="rect914_1_" style="fill:#F7E494;" d="M-257.002-306.068c-31.011,0-56.289,25.277-56.289,56.287v353.713
		c0,31.011,25.278,56.287,56.289,56.287h269c31.01,0,56.287-25.276,56.287-56.287v-353.713c0-31.01-25.277-56.287-56.287-56.287
		H-257.002z"/>
</g>
<g id="g12">
	<path id="rect4" style="fill:#F7F7F7;" d="M256,298.7c0-5.85-4.75-10.6-10.6-10.6H145.1c-5.85,0-10.6,4.75-10.6,10.6
		s4.75,10.6,10.6,10.6h100.3C251.25,309.3,256,304.55,256,298.7z"/>
	<path id="rect6" style="fill:#F7F7F7;" d="M377.5,339.9c0-5.85-4.75-10.6-10.6-10.6H145.1c-5.85,0-10.6,4.75-10.6,10.6
		s4.75,10.6,10.6,10.6h221.8C372.75,350.5,377.5,345.75,377.5,339.9z"/>
	<path id="rect8" style="fill:#F7F7F7;" d="M377.5,379.9c0-5.85-4.75-10.6-10.6-10.6H145.1c-5.85,0-10.6,4.75-10.6,10.6
		s4.75,10.6,10.6,10.6h221.8C372.75,390.5,377.5,385.75,377.5,379.9z"/>
	<path id="rect10" style="fill:#F7F7F7;" d="M377.4,420c0-5.85-4.75-10.6-10.6-10.6H266.6c-5.85,0-10.6,4.75-10.6,10.6
		s4.75,10.6,10.6,10.6h100.2C372.65,430.6,377.4,425.85,377.4,420z"/>
</g>
<g>
	<path style="fill:#FFCC66;" d="M174.729,251.621c15.94,0,18.186-8.756,18.186-16.614c0-6.286-0.898-12.573-1.796-18.859
		c-0.898-6.286-1.796-12.349-1.796-18.635c0-20.656,13.471-29.412,32.555-29.412h4.715v12.349h-4.041
		c-13.247,0-17.737,7.185-17.737,19.309c0,5.164,0.674,10.552,1.571,15.94c0.898,5.613,1.572,11.002,1.572,17.063
		c0.225,14.369-6.062,21.554-16.165,24.248v0.449c10.103,2.47,16.39,10.103,16.165,24.473c0,6.062-0.674,11.675-1.572,17.063
		c-0.897,5.612-1.571,10.776-1.571,16.165c0,12.573,5.164,19.533,17.737,19.533h4.041v12.349h-4.715
		c-18.635,0-32.555-8.083-32.555-30.76c0-6.062,0.897-12.348,1.796-18.41c0.897-6.062,1.796-12.124,1.796-18.186
		c0-6.96-2.245-16.615-18.186-16.615V251.621z"/>
	<path style="fill:#FFCC66;" d="M337.273,263.071c-15.94,0-18.186,9.655-18.186,16.615c0,6.062,0.897,12.124,1.796,18.186
		c0.897,6.062,1.796,12.349,1.796,18.41c0,22.677-14.145,30.76-32.555,30.76h-4.715v-12.349h3.816
		c12.573-0.225,17.962-6.96,17.962-19.533c0-5.389-0.898-10.553-1.572-16.165c-0.897-5.389-1.796-11.002-1.796-17.063
		c0-14.37,6.286-22.003,16.165-24.473v-0.449c-9.879-2.694-16.165-9.879-16.165-24.248c0-6.062,0.898-11.45,1.796-17.063
		c0.674-5.389,1.572-10.776,1.572-15.94c0-12.124-4.715-19.084-17.737-19.309h-4.041v-12.349h4.49
		c19.084,0,32.779,8.756,32.779,29.412c0,6.286-0.898,12.349-1.796,18.635c-0.898,6.286-1.796,12.573-1.796,18.859
		c0,7.858,2.245,16.614,18.186,16.614V263.071z"/>
</g>
</svg>
