<?xml version="1.0" encoding="UTF-8" standalone="no"?>
<!DOCTYPE svg PUBLIC "-//W3C//DTD SVG 1.1//EN" "http://www.w3.org/Graphics/SVG/1.1/DTD/svg11.dtd">
<svg width="100%" height="100%" viewBox="0 0 512 512" version="1.1" xmlns="http://www.w3.org/2000/svg" xmlns:xlink="http://www.w3.org/1999/xlink" xml:space="preserve" xmlns:serif="http://www.serif.com/" style="fill-rule:evenodd;clip-rule:evenodd;stroke-linejoin:round;stroke-miterlimit:1.41421;">
    <g transform="matrix(1.22216,0,0,1.22216,-2.53566,-39.8789)">
        <path d="M399.731,115.27C399.731,81.401 372.234,53.904 338.365,53.904L84.715,53.904C50.846,53.904 23.349,81.401 23.349,115.27L23.349,368.92C23.349,402.789 50.846,430.286 84.715,430.286L338.365,430.286C372.234,430.286 399.731,402.789 399.731,368.92L399.731,115.27Z" style="fill:rgb(219,5,5);"/>
    </g>
    <g transform="matrix(1.22216,0,0,1.193,-2.53566,-32.8866)">
        <path d="M338.563,53.904C363.6,54.023 387.767,70.797 396.259,94.886C398.541,101.359 399.698,108.215 399.731,115.072C399.865,199.82 400.133,284.569 399.73,369.316C399.532,394.295 382.701,418.371 358.749,426.814C352.276,429.096 345.42,430.254 338.563,430.286C253.815,430.42 169.066,430.688 84.319,430.285C59.34,430.087 35.264,413.256 26.821,389.304C24.539,382.831 23.381,375.975 23.349,369.118C23.214,284.37 22.947,199.621 23.35,114.874C23.548,89.895 40.379,65.82 64.331,57.376C70.804,55.094 77.66,53.937 84.517,53.904C169.199,53.77 253.881,53.77 338.563,53.904ZM84.728,70.268C61.627,70.305 39.911,90.139 39.714,114.978C39.311,199.77 39.043,284.568 39.715,369.359C39.97,392.34 59.584,413.724 84.422,413.921C169.215,414.316 254.012,414.593 338.803,413.92C361.79,413.665 383.169,394.051 383.366,369.213C383.761,284.42 384.038,199.623 383.365,114.832C383.11,91.845 363.496,70.466 338.657,70.269C254.015,69.867 169.371,70.268 84.728,70.268Z" style="fill-opacity:0.4;fill-rule:nonzero;"/>
    </g>
    <path d="M486,333.025C341.038,365.218 239.171,363.216 173.029,328.804C124.517,363.473 86.066,388.278 86.066,388.278C101.216,376.392 130.707,352.163 163.944,323.767C150.452,315.595 138.267,306.245 128.042,295.127C68.636,231.01 225.263,101.201 345.978,120.095C424.667,132.46 299.895,236.5 197.405,311.164C227.771,330.381 274.646,335.499 301.948,333.584C372.387,326.296 456.469,291.708 486,278.877L486,333.025ZM184.614,212.903C217.54,158.325 285.813,143.157 314.483,146.92C350.371,151.678 265.526,234.52 187.009,303.36C166.17,284.633 158.728,255.8 184.614,212.903Z" style="fill:rgb(131,3,3);"/>
    <path d="M486,311.299C341.638,351.54 239.051,354.996 170.849,323.865C124.187,360.987 87.065,387.74 87.065,387.74C101.582,375.089 129.787,349.374 161.517,319.303C147.622,311.837 134.971,303.127 124.187,292.55C61.557,231.578 211.289,93.874 332.818,106.525C412.039,114.82 292.792,225.149 194.284,304.993C225.599,322.621 272.676,325.317 299.843,321.999C374.623,310.342 463.358,266.743 486,255.292L486,311.299ZM176.449,207.522C206.52,151.32 273.92,132.655 302.747,134.936C338.832,137.84 258.366,224.942 183.5,297.734C161.724,280.107 152.807,251.695 176.449,207.522Z" style="fill:white;"/>
    <g transform="matrix(1.22216,0,0,1.22216,-2.53566,-39.8789)">
        <path d="M338.563,53.904C363.6,54.023 387.767,70.797 396.259,94.886C398.541,101.359 399.698,108.215 399.731,115.072C399.865,199.82 400.133,284.569 399.73,369.316C399.532,394.295 382.701,418.371 358.749,426.814C352.276,429.096 345.42,430.254 338.563,430.286C253.815,430.42 169.066,430.688 84.319,430.285C59.34,430.087 35.264,413.256 26.821,389.304C24.539,382.831 23.381,375.975 23.349,369.118C23.214,284.37 22.947,199.621 23.35,114.874C23.548,89.895 40.379,65.82 64.331,57.376C70.804,55.094 77.66,53.937 84.517,53.904C169.199,53.77 253.881,53.77 338.563,53.904ZM84.728,70.268C61.627,70.305 39.911,90.139 39.714,114.978C39.311,199.77 39.043,284.568 39.715,369.359C39.97,392.34 59.584,413.724 84.422,413.921C169.215,414.316 254.012,414.593 338.803,413.92C361.79,413.665 383.169,394.051 383.366,369.213C383.761,284.42 384.038,199.623 383.365,114.832C383.11,91.845 363.496,70.466 338.657,70.269C254.015,69.867 169.371,70.268 84.728,70.268Z" style="fill:white;fill-rule:nonzero;"/>
    </g>
</svg>
