<?xml version="1.0" encoding="UTF-8" standalone="no"?>
<!DOCTYPE svg PUBLIC "-//W3C//DTD SVG 1.1//EN" "http://www.w3.org/Graphics/SVG/1.1/DTD/svg11.dtd">
<svg width="100%" height="100%" viewBox="0 0 512 512" version="1.1" xmlns="http://www.w3.org/2000/svg" xmlns:xlink="http://www.w3.org/1999/xlink" xml:space="preserve" xmlns:serif="http://www.serif.com/" style="fill-rule:evenodd;clip-rule:evenodd;stroke-linejoin:round;stroke-miterlimit:1.41421;">
    <g transform="matrix(0.946419,0,0,0.946419,-47.0146,-29.2738)">
        <path d="M563.191,154.821C563.191,101.606 519.988,58.403 466.773,58.403L173.566,58.403C120.352,58.403 77.148,101.606 77.148,154.821L77.148,448.028C77.148,501.242 120.352,544.446 173.566,544.446L466.773,544.446C519.988,544.446 563.191,501.242 563.191,448.028L563.191,154.821Z" style="fill:rgb(103,140,193);"/>
    </g>
    <path d="M165.642,486C165.837,429.644 165.676,373.287 165.907,316.931C165.932,311.265 164.453,309.783 158.933,310.085C149.908,310.58 140.833,310.115 131.784,310.278C128.801,310.331 127.757,309.413 127.774,306.373C127.878,287.885 127.886,269.394 127.767,250.905C127.746,247.617 128.86,246.614 132.103,246.676C141.73,246.858 151.366,246.576 160.989,246.822C164.759,246.918 165.85,245.789 165.852,241.998C165.858,225.828 165.131,209.639 166.607,193.493C167.721,181.321 170.374,169.559 176.453,158.8C187.341,139.524 205.124,130.866 225.982,127.883C249.139,124.569 272.523,126.899 295.796,126.295C298.437,126.227 299.028,127.513 299.023,129.812C298.983,148.495 298.932,167.177 299.06,185.858C299.085,189.528 297.207,189.794 294.356,189.777C284.149,189.711 273.937,189.621 263.737,189.87C247.519,190.263 242.269,195.507 241.946,211.519C241.742,221.723 242.039,231.939 241.716,242.138C241.587,246.182 243.153,246.846 246.708,246.807C261.921,246.644 277.141,246.967 292.349,246.614C297.743,246.49 299.525,247.281 298.7,253.371C296.378,270.529 294.773,287.788 293.195,305.037C292.821,309.137 291.626,310.438 287.355,310.336C274.073,310.013 260.775,310.395 247.491,310.117C243.086,310.025 241.654,311.046 241.693,315.743C241.925,344.633 241.808,373.522 241.808,402.412C241.808,430.275 241.712,458.138 241.897,486L165.642,486Z" style="fill:white;"/>
</svg>
