<?xml version="1.0" encoding="utf-8"?>
<!-- Generator: Adobe Illustrator 22.0.1, SVG Export Plug-In . SVG Version: 6.00 Build 0)  -->
<svg version="1.1"
	 id="svg2" xmlns:cc="http://creativecommons.org/ns#" xmlns:dc="http://purl.org/dc/elements/1.1/" xmlns:rdf="http://www.w3.org/1999/02/22-rdf-syntax-ns#" xmlns:svg="http://www.w3.org/2000/svg"
	 xmlns="http://www.w3.org/2000/svg" xmlns:xlink="http://www.w3.org/1999/xlink" x="0px" y="0px" viewBox="0 0 512 512"
	 style="enable-background:new 0 0 512 512;" xml:space="preserve">
<linearGradient id="path236_1_" gradientUnits="userSpaceOnUse" x1="26" y1="256" x2="486" y2="256">
	<stop  offset="0" style="stop-color:#ED1D31"/>
	<stop  offset="1" style="stop-color:#EF437F"/>
</linearGradient>
<path id="path236" style="fill:url(#path236_1_);" d="M372.7,287.9l-96.3,96.3v0h0L260.6,400l-0.2,0.2c-1.1,1.1-2.6,1.7-4.3,1.7
	c-1.7,0-3.2-0.7-4.3-1.7l-0.2-0.2l-15.8-15.8h0v0l-8.4-8.4l0,0l-87.9-87.9l0,0c-7.9-7.9-7.9-20.8,0-28.8c7.9-7.9,20.8-7.9,28.8,0
	c0,0,0.1,0.1,0.1,0.1l67.4,67.4V130.8h0c-0.1-5.3,1.9-10.7,5.9-14.8c7.9-7.9,20.8-7.9,28.8,0c4.1,4.1,6,9.4,5.9,14.8h0v195.9
	l66.9-66.9c0.2-0.2,0.4-0.5,0.6-0.7c7.9-7.9,20.8-7.9,28.8,0C380.6,267,380.6,279.9,372.7,287.9L372.7,287.9z M256,26
	C129,26,26,129,26,256c0,127,103,230,230,230c127,0,230-103,230-230C486,129,383,26,256,26"/>
</svg>
