<?xml version="1.0" encoding="utf-8"?>
<!-- Generator: Adobe Illustrator 18.0.0, SVG Export Plug-In . SVG Version: 6.00 Build 0)  -->
<!DOCTYPE svg PUBLIC "-//W3C//DTD SVG 1.1//EN" "http://www.w3.org/Graphics/SVG/1.1/DTD/svg11.dtd">
<svg version="1.1" id="Layer_3" xmlns="http://www.w3.org/2000/svg" xmlns:xlink="http://www.w3.org/1999/xlink" x="0px" y="0px"
	 viewBox="0 0 512 512" style="enable-background:new 0 0 512 512;" xml:space="preserve">
<g>
	<path style="fill:#2D2D2D;" d="M422,26H90c-16.3,0-29.7,13.4-29.7,29.7v331.9c0,16.3,13.4,29.7,29.7,29.7h122.2l37.6,65.1
		c2.7,4.7,9.6,4.7,12.3,0l37.6-65.1H422c16.3,0,29.7-13.4,29.7-29.7V55.7C451.7,39.4,438.3,26,422,26z"/>
	<path style="fill:#629FF9;" d="M420,389.4H92c-3.3,0-6.1-2.7-6.1-6.1V258.1c0-3.3,2.7-6.1,6.1-6.1H420c3.3,0,6.1,2.7,6.1,6.1v125.2
		C426.1,386.6,423.4,389.4,420,389.4z"/>
</g>
</svg>
