<?xml version="1.0" encoding="utf-8"?>
<!-- Generator: Adobe Illustrator 22.0.1, SVG Export Plug-In . SVG Version: 6.00 Build 0)  -->
<svg version="1.1"
	 id="svg2" xmlns:cc="http://creativecommons.org/ns#" xmlns:dc="http://purl.org/dc/elements/1.1/" xmlns:rdf="http://www.w3.org/1999/02/22-rdf-syntax-ns#" xmlns:svg="http://www.w3.org/2000/svg"
	 xmlns="http://www.w3.org/2000/svg" xmlns:xlink="http://www.w3.org/1999/xlink" x="0px" y="0px" viewBox="0 0 512 512"
	 style="enable-background:new 0 0 512 512;" xml:space="preserve">
<g style="enable-background:new    ;">
	
		<linearGradient id="SVGID_1_" gradientUnits="userSpaceOnUse" x1="255" y1="27" x2="255" y2="487" gradientTransform="matrix(1 0 0 -1 0 512)">
		<stop  offset="0" style="stop-color:#C9C9C9"/>
		<stop  offset="1" style="stop-color:#F5F5F5"/>
	</linearGradient>
	<path style="fill:url(#SVGID_1_);" d="M445,485H65c-22.1,0-40-17.9-40-40V65c0-22.1,17.9-40,40-40h380c22.1,0,40,17.9,40,40v380
		C485,467.1,467.1,485,445,485z"/>
	
		<linearGradient id="SVGID_2_" gradientUnits="userSpaceOnUse" x1="255" y1="57" x2="255" y2="457" gradientTransform="matrix(1 0 0 -1 0 512)">
		<stop  offset="0" style="stop-color:#F5F5F5"/>
		<stop  offset="1" style="stop-color:#C9C9C9"/>
	</linearGradient>
	<circle style="fill:url(#SVGID_2_);" cx="255" cy="255" r="200"/>
</g>
<g>
	<g id="g236">
	</g>
	<g id="g234">
		<g id="g242">
			<defs>
				<rect id="SVGID_3_" x="87.3" y="92.7" width="337.6" height="337.6"/>
			</defs>
			<clipPath id="SVGID_4_">
				<use xlink:href="#SVGID_3_"  style="overflow:visible;"/>
			</clipPath>
			<g id="g244" style="opacity:0.4;clip-path:url(#SVGID_4_);">
				<g id="g246" transform="translate(256.0862,386.6098)">
					<path id="path248" style="fill:#4C4C4C;" d="M0-293.9c-93.2,0-168.8,75.6-168.8,168.8C-168.8-31.8-93.2,43.7,0,43.7
						s168.8-75.6,168.8-168.8C168.8-218.3,93.2-293.9,0-293.9 M0-281c41.7,0,80.8,16.2,110.3,45.7c29.5,29.5,45.7,68.6,45.7,110.3
						c0,41.7-16.2,80.8-45.7,110.3C80.8,14.6,41.7,30.9,0,30.9s-80.8-16.2-110.3-45.7c-29.5-29.5-45.7-68.6-45.7-110.3
						c0-41.7,16.2-80.8,45.7-110.3C-80.8-264.8-41.6-281,0-281"/>
				</g>
			</g>
		</g>
	</g>
	<g id="g250" transform="translate(256.0716,253.0579)">
		<path id="path252" style="fill:#00BD9B;" d="M0,6.6l-82.6-132.2c25.3-15.8,52.7-23.7,82.6-23.7V6.6z"/>
	</g>
	<g id="g254" transform="translate(256.0716,253.0579)">
		<path id="path256" style="fill:#2D98E0;" d="M0,6.6l-155.5,10.9c-4.2-59.7,22.2-111.4,72.9-143.1L0,6.6z"/>
	</g>
	<g id="g258" transform="translate(256.0716,253.0579)">
		<path id="path260" style="fill:#9C56B8;" d="M0,6.6L127.7,96c-49.4,70.5-146.6,87.7-217.1,38.3c-39.8-27.9-62.7-68.3-66.1-116.8
			L0,6.6z"/>
	</g>
	<g id="g262" transform="translate(256.0716,253.0579)">
		<path id="path264" style="fill:#E84C3D;" d="M0,6.6l112.1-108.3c52,53.8,58.5,136.4,15.6,197.7L0,6.6z"/>
	</g>
	<g id="g266" transform="translate(256.0716,253.0579)">
		<path id="path268" style="fill:#F1C50E;" d="M0,6.6l40.3-150.6c28.9,7.7,51,20.8,71.8,42.3L0,6.6z"/>
	</g>
	<g id="g270" transform="translate(256.0716,253.0579)">
		<path id="path272" style="fill:#51D88B;" d="M0,6.6v-155.9c14.9,0,26,1.5,40.3,5.3L0,6.6z"/>
	</g>
	<g id="g274" transform="translate(256.0862,395.4678)">
		<path id="path276" style="fill:#D1D1D1;" d="M0-313.8c-93.2,0-168.8,75.6-168.8,168.8C-168.8-51.8-93.2,23.8,0,23.8
			S168.8-51.8,168.8-145C168.8-238.2,93.2-313.8,0-313.8 M0-300.9c41.7,0,80.8,16.2,110.3,45.7C139.7-225.8,156-186.7,156-145
			c0,41.7-16.2,80.8-45.7,110.3C80.8-5.3,41.7,10.9,0,10.9S-80.8-5.3-110.2-34.7c-29.5-29.5-45.7-68.6-45.7-110.3
			c0-41.7,16.2-80.8,45.7-110.3C-80.8-284.7-41.6-300.9,0-300.9"/>
	</g>
	<g id="g10" transform="matrix(1.25,0,0,-1.25,0,640)">
		<g id="g280">
		</g>
		<g id="g278">
			<g id="g286">
				<defs>
					<rect id="SVGID_5_" x="92.6" y="106.4" width="107.4" height="98.7"/>
				</defs>
				<clipPath id="SVGID_6_">
					<use xlink:href="#SVGID_5_"  style="overflow:visible;"/>
				</clipPath>
				<g id="g288" style="opacity:0.4;clip-path:url(#SVGID_6_);">
					<g id="g290" transform="translate(166.1017,375.6755)">
						<path id="path292" style="fill:#4C4C4C;" d="M-22.5-269.3l56.4,98.7l-107.4-44.8L-22.5-269.3z"/>
					</g>
				</g>
			</g>
		</g>
		<g id="g294" transform="translate(164.1001,391.9033)">
			<path id="path296" style="fill:#EAEAEA;" d="M-23-305.8l63.6,117.4l-117.6-69L-23-305.8z"/>
		</g>
		<g id="g226">
			<g id="g300">
			</g>
			<g id="g298">
				<g id="g306">
					<defs>
						<polygon id="SVGID_7_" points="183.9,190.1 328.1,190.1 328.1,334.4 183.9,334.4 183.9,190.1 						"/>
					</defs>
					<clipPath id="SVGID_8_">
						<use xlink:href="#SVGID_7_"  style="overflow:visible;"/>
					</clipPath>
					<g id="g308" style="opacity:0.4;clip-path:url(#SVGID_8_);">
						<g id="g310" transform="translate(256,223.6768)">
						</g>
						<g id="g314" transform="translate(276.6667,251)">
						</g>
					</g>
				</g>
			</g>
			<g id="g228">
				<g id="g320">
				</g>
				<g id="g318">
					<g id="g326">
						<defs>
							<polygon id="SVGID_9_" points="183.9,183.9 328.1,183.9 328.1,328.1 183.9,328.1 183.9,183.9 							"/>
						</defs>
						<clipPath id="SVGID_10_">
							<use xlink:href="#SVGID_9_"  style="overflow:visible;"/>
						</clipPath>
						<g id="g328" style="opacity:0.9;clip-path:url(#SVGID_10_);">
							<g id="g330" transform="translate(256,228.6768)">
							</g>
							<g id="g334" transform="translate(276.6667,256)">
							</g>
						</g>
					</g>
				</g>
			</g>
		</g>
	</g>
</g>
</svg>
