<?xml version="1.0" encoding="UTF-8" standalone="no"?>
<!-- Generator: Adobe Illustrator 18.0.0, SVG Export Plug-In . SVG Version: 6.00 Build 0)  -->

<svg
   xmlns:dc="http://purl.org/dc/elements/1.1/"
   xmlns:cc="http://creativecommons.org/ns#"
   xmlns:rdf="http://www.w3.org/1999/02/22-rdf-syntax-ns#"
   xmlns:svg="http://www.w3.org/2000/svg"
   xmlns="http://www.w3.org/2000/svg"
   xmlns:sodipodi="http://sodipodi.sourceforge.net/DTD/sodipodi-0.dtd"
   xmlns:inkscape="http://www.inkscape.org/namespaces/inkscape"
   version="1.1"
   id="Layer_1"
   x="0px"
   y="0px"
   viewBox="0 0 512 512"
   style="enable-background:new 0 0 512 512;"
   xml:space="preserve"
   sodipodi:docname="filezilla.svg"
   inkscape:version="0.92.3 (2405546, 2018-03-11)"><metadata
   id="metadata50"><rdf:RDF><cc:Work
       rdf:about=""><dc:format>image/svg+xml</dc:format><dc:type
         rdf:resource="http://purl.org/dc/dcmitype/StillImage" /></cc:Work></rdf:RDF></metadata><defs
   id="defs48" /><sodipodi:namedview
   pagecolor="#ffffff"
   bordercolor="#666666"
   borderopacity="1"
   objecttolerance="10"
   gridtolerance="10"
   guidetolerance="10"
   inkscape:pageopacity="0"
   inkscape:pageshadow="2"
   inkscape:window-width="1920"
   inkscape:window-height="1003"
   id="namedview46"
   showgrid="false"
   inkscape:zoom="0.4609375"
   inkscape:cx="260.33898"
   inkscape:cy="256"
   inkscape:window-x="0"
   inkscape:window-y="0"
   inkscape:window-maximized="1"
   inkscape:current-layer="Layer_1" />
<g
   id="g41"
   transform="matrix(0.89423755,-0.25743636,0.25743636,0.89423755,-39.264805,92.084658)">
	<path
   style="opacity:0.4"
   d="m 426.2,60.9 c 0,-5.5 4.4,-9.9 9.8,-10 V 38 c -5.4,-0.1 -9.8,-4.5 -9.8,-10 h -12.8 c 0,5.5 -4.5,10 -10,10 -5.5,0 -10,-4.5 -10,-10 h -12.8 c 0,5.5 -4.5,10 -10,10 -5.5,0 -10,-4.5 -10,-10 h -12.8 c 0,5.5 -4.5,10 -10,10 -5.5,0 -10,-4.5 -10,-10 H 315 c 0,5.5 -4.5,10 -10,10 -5.5,0 -10,-4.5 -10,-10 h -12.8 c 0,5.5 -4.5,10 -10,10 -5.5,0 -10,-4.5 -10,-10 h -12.8 c 0,5.5 -4.5,10 -10,10 -5.5,0 -10,-4.5 -10,-10 h -12.8 c 0,5.5 -4.5,10 -10,10 -5.5,0 -10,-4.5 -10,-10 h -12.8 c 0,5.5 -4.5,10 -10,10 -5.5,0 -10,-4.5 -10,-10 H 151 c 0,5.5 -4.5,10 -10,10 -5.5,0 -10,-4.5 -10,-10 h -12.8 c 0,5.5 -4.5,10 -10,10 -5.5,0 -10,-4.5 -10,-10 H 85.8 c 0,5.5 -4.4,9.9 -9.8,10 v 12.9 c 5.4,0.1 9.8,4.5 9.8,10 0,5.5 -4.4,9.9 -9.8,10 v 12.9 c 5.4,0.1 9.8,4.5 9.8,10 0,5.5 -4.4,9.9 -9.8,10 v 12.9 c 5.4,0.1 9.8,4.5 9.8,10 0,5.5 -4.4,9.9 -9.8,10 v 12.9 c 5.4,0.1 9.8,4.5 9.8,10 0,5.5 -4.4,9.9 -9.8,10 v 12.9 c 5.4,0.1 9.8,4.5 9.8,10 0,5.5 -4.4,9.9 -9.8,10 v 12.9 c 5.4,0.1 9.8,4.5 9.8,10 0,5.5 -4.4,9.9 -9.8,10 V 248 c 5.4,0.1 9.8,4.5 9.8,10 0,5.5 -4.4,9.9 -9.8,10 v 12.9 c 5.4,0.1 9.8,4.5 9.8,10 0,5.5 -4.4,9.9 -9.8,10 v 12.9 c 5.4,0.1 9.8,4.5 9.8,10 0,5.5 -4.4,9.9 -9.8,10 v 12.9 c 5.4,0.1 9.8,4.5 9.8,10 0,5.5 -4.4,9.9 -9.8,10 v 12.9 c 5.4,0.1 9.8,4.5 9.8,10 0,5.5 -4.4,9.9 -9.8,10 v 12.9 c 5.4,0.1 9.8,4.5 9.8,10 0,5.5 -4.4,9.9 -9.8,10 v 12.9 c 5.4,0.1 9.8,4.5 9.8,10 0,5.5 -4.4,9.9 -9.8,10 V 478 c 5.4,0.1 9.8,4.5 9.8,10 h 12.8 c 0,-5.5 4.5,-10 10,-10 5.5,0 10,4.5 10,10 h 12.8 c 0,-5.5 4.5,-10 10,-10 5.5,0 10,4.5 10,10 h 12.8 c 0,-5.5 4.5,-10 10,-10 5.5,0 10,4.5 10,10 H 197 c 0,-5.5 4.5,-10 10,-10 5.5,0 10,4.5 10,10 h 12.8 c 0,-5.5 4.5,-10 10,-10 5.5,0 10,4.5 10,10 h 12.8 c 0,-5.5 4.5,-10 10,-10 5.5,0 10,4.5 10,10 h 12.8 c 0,-5.5 4.5,-10 10,-10 5.5,0 10,4.5 10,10 h 12.8 c 0,-5.5 4.5,-10 10,-10 5.5,0 10,4.5 10,10 H 361 c 0,-5.5 4.5,-10 10,-10 5.5,0 10,4.5 10,10 h 12.8 c 0,-5.5 4.5,-10 10,-10 5.5,0 10,4.5 10,10 h 12.8 c 0,-5.5 4.4,-9.9 9.8,-10 v -12.9 c -5.4,-0.1 -9.8,-4.5 -9.8,-10 0,-5.5 4.4,-9.9 9.8,-10 v -12.9 c -5.4,-0.1 -9.8,-4.5 -9.8,-10 0,-5.5 4.4,-9.9 9.8,-10 v -12.9 c -5.4,-0.1 -9.8,-4.5 -9.8,-10 0,-5.5 4.4,-9.9 9.8,-10 v -12.9 c -5.4,-0.1 -9.8,-4.5 -9.8,-10 0,-5.5 4.4,-9.9 9.8,-10 v -12.9 c -5.4,-0.1 -9.8,-4.5 -9.8,-10 0,-5.5 4.4,-9.9 9.8,-10 v -12.9 c -5.4,-0.1 -9.8,-4.5 -9.8,-10 0,-5.5 4.4,-9.9 9.8,-10 V 268 c -5.4,-0.1 -9.8,-4.5 -9.8,-10 0,-5.5 4.4,-9.9 9.8,-10 v -12.9 c -5.4,-0.1 -9.8,-4.5 -9.8,-10 0,-5.5 4.4,-9.9 9.8,-10 v -12.9 c -5.4,-0.1 -9.8,-4.5 -9.8,-10 0,-5.5 4.4,-9.9 9.8,-10 v -12.9 c -5.4,-0.1 -9.8,-4.5 -9.8,-10 0,-5.5 4.4,-9.9 9.8,-10 v -12.9 c -5.4,-0.1 -9.8,-4.5 -9.8,-10 0,-5.5 4.4,-9.9 9.8,-10 v -12.9 c -5.4,-0.1 -9.8,-4.5 -9.8,-10 0,-5.5 4.4,-9.9 9.8,-10 V 70.8 c -5.8,0 -10.2,-4.5 -10.2,-9.9 z"
   id="path2"
   inkscape:connector-curvature="0" />
	<path
   style="fill:#fffbe9"
   d="m 426.2,58.9 c 0,-5.5 4.4,-9.9 9.8,-10 V 36 c -5.4,-0.1 -9.8,-4.5 -9.8,-10 h -12.8 c 0,5.5 -4.5,10 -10,10 -5.5,0 -10,-4.5 -10,-10 h -12.8 c 0,5.5 -4.5,10 -10,10 -5.5,0 -10,-4.5 -10,-10 h -12.8 c 0,5.5 -4.5,10 -10,10 -5.5,0 -10,-4.5 -10,-10 H 315 c 0,5.5 -4.5,10 -10,10 -5.5,0 -10,-4.5 -10,-10 h -12.8 c 0,5.5 -4.5,10 -10,10 -5.5,0 -10,-4.5 -10,-10 h -12.8 c 0,5.5 -4.5,10 -10,10 -5.5,0 -10,-4.5 -10,-10 h -12.8 c 0,5.5 -4.5,10 -10,10 -5.5,0 -10,-4.5 -10,-10 h -12.8 c 0,5.5 -4.5,10 -10,10 -5.5,0 -10,-4.5 -10,-10 H 151 c 0,5.5 -4.5,10 -10,10 -5.5,0 -10,-4.5 -10,-10 h -12.8 c 0,5.5 -4.5,10 -10,10 -5.5,0 -10,-4.5 -10,-10 H 85.8 c 0,5.5 -4.4,9.9 -9.8,10 v 12.9 c 5.4,0.1 9.8,4.5 9.8,10 0,5.5 -4.4,9.9 -9.8,10 v 12.9 c 5.4,0.1 9.8,4.5 9.8,10 0,5.5 -4.4,9.9 -9.8,10 v 12.9 c 5.4,0.1 9.8,4.5 9.8,10 0,5.5 -4.4,9.9 -9.8,10 v 12.9 c 5.4,0.1 9.8,4.5 9.8,10 0,5.5 -4.4,9.9 -9.8,10 v 12.9 c 5.4,0.1 9.8,4.5 9.8,10 0,5.5 -4.4,9.9 -9.8,10 v 12.9 c 5.4,0.1 9.8,4.5 9.8,10 0,5.5 -4.4,9.9 -9.8,10 V 246 c 5.4,0.1 9.8,4.5 9.8,10 0,5.5 -4.4,9.9 -9.8,10 v 12.9 c 5.4,0.1 9.8,4.5 9.8,10 0,5.5 -4.4,9.9 -9.8,10 v 12.9 c 5.4,0.1 9.8,4.5 9.8,10 0,5.5 -4.4,9.9 -9.8,10 v 12.9 c 5.4,0.1 9.8,4.5 9.8,10 0,5.5 -4.4,9.9 -9.8,10 v 12.9 c 5.4,0.1 9.8,4.5 9.8,10 0,5.5 -4.4,9.9 -9.8,10 v 12.9 c 5.4,0.1 9.8,4.5 9.8,10 0,5.5 -4.4,9.9 -9.8,10 v 12.9 c 5.4,0.1 9.8,4.5 9.8,10 0,5.5 -4.4,9.9 -9.8,10 V 476 c 5.4,0.1 9.8,4.5 9.8,10 h 12.8 c 0,-5.5 4.5,-10 10,-10 5.5,0 10,4.5 10,10 h 12.8 c 0,-5.5 4.5,-10 10,-10 5.5,0 10,4.5 10,10 h 12.8 c 0,-5.5 4.5,-10 10,-10 5.5,0 10,4.5 10,10 H 197 c 0,-5.5 4.5,-10 10,-10 5.5,0 10,4.5 10,10 h 12.8 c 0,-5.5 4.5,-10 10,-10 5.5,0 10,4.5 10,10 h 12.8 c 0,-5.5 4.5,-10 10,-10 5.5,0 10,4.5 10,10 h 12.8 c 0,-5.5 4.5,-10 10,-10 5.5,0 10,4.5 10,10 h 12.8 c 0,-5.5 4.5,-10 10,-10 5.5,0 10,4.5 10,10 H 361 c 0,-5.5 4.5,-10 10,-10 5.5,0 10,4.5 10,10 h 12.8 c 0,-5.5 4.5,-10 10,-10 5.5,0 10,4.5 10,10 h 12.8 c 0,-5.5 4.4,-9.9 9.8,-10 v -12.9 c -5.4,-0.1 -9.8,-4.5 -9.8,-10 0,-5.5 4.4,-9.9 9.8,-10 v -12.9 c -5.4,-0.1 -9.8,-4.5 -9.8,-10 0,-5.5 4.4,-9.9 9.8,-10 v -12.9 c -5.4,-0.1 -9.8,-4.5 -9.8,-10 0,-5.5 4.4,-9.9 9.8,-10 v -12.9 c -5.4,-0.1 -9.8,-4.5 -9.8,-10 0,-5.5 4.4,-9.9 9.8,-10 v -12.9 c -5.4,-0.1 -9.8,-4.5 -9.8,-10 0,-5.5 4.4,-9.9 9.8,-10 v -12.9 c -5.4,-0.1 -9.8,-4.5 -9.8,-10 0,-5.5 4.4,-9.9 9.8,-10 V 266 c -5.4,-0.1 -9.8,-4.5 -9.8,-10 0,-5.5 4.4,-9.9 9.8,-10 v -12.9 c -5.4,-0.1 -9.8,-4.5 -9.8,-10 0,-5.5 4.4,-9.9 9.8,-10 v -12.9 c -5.4,-0.1 -9.8,-4.5 -9.8,-10 0,-5.5 4.4,-9.9 9.8,-10 v -12.9 c -5.4,-0.1 -9.8,-4.5 -9.8,-10 0,-5.5 4.4,-9.9 9.8,-10 v -12.9 c -5.4,-0.1 -9.8,-4.5 -9.8,-10 0,-5.5 4.4,-9.9 9.8,-10 v -12.9 c -5.4,-0.1 -9.8,-4.5 -9.8,-10 0,-5.5 4.4,-9.9 9.8,-10 V 68.8 c -5.8,0 -10.2,-4.5 -10.2,-9.9 z"
   id="path4"
   inkscape:connector-curvature="0" />
	<g
   id="g39">
		<g
   id="g29">
			<rect
   x="106"
   y="356"
   style="fill:#ff0000"
   width="300"
   height="100"
   id="rect6" />
			<linearGradient
   id="SVGID_1_"
   gradientUnits="userSpaceOnUse"
   x1="106"
   y1="306"
   x2="406"
   y2="306">
				<stop
   offset="0"
   style="stop-color:#EA0000"
   id="stop8" />
				<stop
   offset="1"
   style="stop-color:#DA0000"
   id="stop10" />
			</linearGradient>
			<rect
   x="106"
   y="256"
   style="fill:url(#SVGID_1_)"
   width="300"
   height="100"
   id="rect13" />
			<linearGradient
   id="SVGID_2_"
   gradientUnits="userSpaceOnUse"
   x1="106"
   y1="206"
   x2="406"
   y2="206">
				<stop
   offset="0"
   style="stop-color:#D40000"
   id="stop15" />
				<stop
   offset="1"
   style="stop-color:#B40000"
   id="stop17" />
			</linearGradient>
			<rect
   x="106"
   y="156"
   style="fill:url(#SVGID_2_)"
   width="300"
   height="100"
   id="rect20" />
			<linearGradient
   id="SVGID_3_"
   gradientUnits="userSpaceOnUse"
   x1="106"
   y1="106"
   x2="406"
   y2="106">
				<stop
   offset="0"
   style="stop-color:#BF0000"
   id="stop22" />
				<stop
   offset="1"
   style="stop-color:#8F0000"
   id="stop24" />
			</linearGradient>
			<rect
   x="106"
   y="56"
   style="fill:url(#SVGID_3_)"
   width="300"
   height="100"
   id="rect27" />
		</g>
		<g
   style="opacity:0.5"
   id="g37">
			<rect
   x="106"
   y="56"
   style="fill:#ff3600"
   width="100"
   height="400"
   id="rect31" />
			<rect
   x="206"
   y="56"
   style="fill:#7f0404"
   width="100"
   height="400"
   id="rect33" />
			<rect
   x="306"
   y="56"
   style="fill:#510101"
   width="100"
   height="400"
   id="rect35" />
		</g>
	</g>
</g>
<g
   id="g2305_1_"
   transform="matrix(2.17444, 0, 0, 2.17437, -218.687, -223.172)">
	<path
   id="path2314_2_"
   style="fill:#FFFFFF;"
   d="M260.36,207.585h-58.644l3.06-14.32h35.743l3.279-15.412h-51.374l-16.178,76.297   h15.521l7.104-33.339h37.23l-32.35,32.027l5.684,10.056c2.622-1.749,6.885-1.968,9.837-1.968c5.247,0,10.385,1.75,15.739,1.75   c4.91,0,9.936-0.328,18.135-4.264l2.865-13.444c-5.575,2.294-13.825,4.481-21,4.481c-2.95,0-5.683-0.655-8.524-1.093l31.359-30.496   L260.36,207.585z" />
</g>
<g
   inkscape:groupmode="layer"
   id="layer1"
   inkscape:label="Layer 1" /></svg>