<?xml version="1.0" encoding="utf-8"?>
<!-- Generator: Adobe Illustrator 18.0.0, SVG Export Plug-In . SVG Version: 6.00 Build 0)  -->
<!DOCTYPE svg PUBLIC "-//W3C//DTD SVG 1.1//EN" "http://www.w3.org/Graphics/SVG/1.1/DTD/svg11.dtd">
<svg version="1.1" id="Layer_1" xmlns="http://www.w3.org/2000/svg" xmlns:xlink="http://www.w3.org/1999/xlink" x="0px" y="0px"
	 viewBox="0 0 512 512" style="enable-background:new 0 0 512 512;" xml:space="preserve">
<g>
	
		<radialGradient id="SVGID_1_" cx="312.221" cy="767.7269" r="220.9827" gradientTransform="matrix(1 0 0 1 -50 -651)" gradientUnits="userSpaceOnUse">
		<stop  offset="0" style="stop-color:#3FDCFF"/>
		<stop  offset="1" style="stop-color:#3A7CFF"/>
	</radialGradient>
	<circle style="fill:url(#SVGID_1_);" cx="256" cy="252.8" r="221"/>
	<g>
		<path style="fill:#656465;" d="M284.6,163.7c-0.4,2.9-4.8,10.8-9.7,10.5c-22.7-1-10.1-17.2-4.6-19.5c0,0,3.2-0.7,8.1-0.7
			C283.3,154.1,285.4,157.9,284.6,163.7z"/>
		<path style="fill:#F15D22;" d="M272.2,154.4c2.9,3,7.4,10.8-1,18.9c-13.3,12.8-58.8,15-68.6,15c-14.8,0-26.7-12.7-26.7-23.3
			c0-10.6,18.1-34.4,26.1-21.9C213.9,161.8,272.2,154.4,272.2,154.4z"/>
		
			<linearGradient id="SVGID_2_" gradientUnits="userSpaceOnUse" x1="444.7993" y1="1398.8683" x2="471.6614" y2="1254.2491" gradientTransform="matrix(1 0 0 1 -150 -930)">
			<stop  offset="0" style="stop-color:#F26522"/>
			<stop  offset="1" style="stop-color:#FEBD18"/>
		</linearGradient>
		<path style="fill:url(#SVGID_2_);" d="M415.6,164.7c3.9,11.7,51.1,174.5-25.8,262.2c-16,18.2-110.7,29.4-128.3,18.2
			c-19.4-12.4-73.3-110.5-48.3-98.3c13,6.3,30.2,24.1,84.1,15.9c98.1-14.9,107.8-135.1,77.8-200.9c-20.9-45.7-52.7-54.9-51.9-55.1
			C338.6,102.6,399.2,115.4,415.6,164.7z"/>
		
			<linearGradient id="SVGID_3_" gradientUnits="userSpaceOnUse" x1="181.3272" y1="1303.5587" x2="197.6803" y2="1177.058" gradientTransform="matrix(0.8908 -0.4544 0.4544 0.8908 -358.5693 -825.3953)">
			<stop  offset="0" style="stop-color:#F26522"/>
			<stop  offset="1" style="stop-color:#FEBD18"/>
		</linearGradient>
		<path style="fill:url(#SVGID_3_);" d="M431.9,194.9C459.9,306,379,334.4,368,340c0,0,26.7-39.5,20.8-129.5
			c-4.2-64.3-65.6-103.9-65.6-103.9S409.6,106.1,431.9,194.9z"/>
		
			<linearGradient id="SVGID_4_" gradientUnits="userSpaceOnUse" x1="222.0821" y1="1264.8845" x2="239.0089" y2="1133.9465" gradientTransform="matrix(0.8908 -0.4544 0.4544 0.8908 -358.5693 -825.3953)">
			<stop  offset="0" style="stop-color:#F26522"/>
			<stop  offset="1" style="stop-color:#FEBD18"/>
		</linearGradient>
		<path style="fill:url(#SVGID_4_);" d="M444.4,139.7c28,111.2-41,142.5-52,148.1c0,0,10.6-42.5,4.7-132.5
			C392.8,91,331.5,51.4,331.5,51.4S422.1,50.9,444.4,139.7z"/>
		
			<linearGradient id="SVGID_5_" gradientUnits="userSpaceOnUse" x1="235.9952" y1="1355.0841" x2="252.1945" y2="1229.772" gradientTransform="matrix(0.8908 -0.4544 0.4544 0.8908 -358.5693 -825.3953)">
			<stop  offset="0" style="stop-color:#F26522"/>
			<stop  offset="1" style="stop-color:#FEBD18"/>
		</linearGradient>
		<path style="fill:url(#SVGID_5_);" d="M483.8,219.7c-2.2,57-35.5,107-46.5,112.6c0,0,39-45.8,8-130.5
			c-30.7-83.8-16.6-113.5-16.6-113.5S487.4,125.3,483.8,219.7z"/>
		
			<linearGradient id="SVGID_6_" gradientUnits="userSpaceOnUse" x1="173.2916" y1="1400.1361" x2="190.3762" y2="1267.9762" gradientTransform="matrix(0.8908 -0.4544 0.4544 0.8908 -358.5693 -825.3953)">
			<stop  offset="0" style="stop-color:#F26522"/>
			<stop  offset="1" style="stop-color:#FEBD18"/>
		</linearGradient>
		<path style="fill:url(#SVGID_6_);" d="M433.2,287.1c-2.8,56.9-6.5,105.9-17.6,111.5c0,0-17.2-39.3-20.9-129.4
			c-3.5-84.9-34.6-111.3-34.6-111.3S438.8,174.4,433.2,287.1z"/>
		
			<linearGradient id="SVGID_7_" gradientUnits="userSpaceOnUse" x1="501.2701" y1="1257.7001" x2="577.7326" y2="1282.3668" gradientTransform="matrix(1 0 0 1 -150 -930)">
			<stop  offset="0" style="stop-color:#F26522"/>
			<stop  offset="1" style="stop-color:#FEBD18"/>
		</linearGradient>
		<path style="fill:url(#SVGID_7_);" d="M424.8,350.2c-6.7,114.4-129.8,72.3-142.2,72.3c0,0,44.3,5.2,79.9-77.6
			c14.3-33.2,8.5-127.7,8.5-127.7S428.9,280.2,424.8,350.2z"/>
		<path style="fill:#FFFFFF;" d="M270.5,173.8c0.6-0.5,4.3,0.4,4.3,0.4c-6.2,9.6-20.7,21.8-26.3,25.5c-3.9,2.6-22.1,17.7-26.5,16.1
			c-12.1-4.4-19.5-27.7-19.5-27.7C207.3,188.3,265.9,177.8,270.5,173.8z"/>
		<path style="fill:#F26522;" d="M200.9,144.3c-1.7,3.3-6.9,24.5,1.7,44c9.1,20.4,33.2,40.5,42.9,52.4c6.7,8.2-63.6-10.4-68,0.6
			c-1.4,3.5-3.9,16,3,27.1c5.8,9.5,15.4,8.9,22.1,8.9c11.6,0,65.2-32.1,67.5-25.8c2.9,7.9-17.3,34.5-56.9,64.6
			c-0.7,0.6-9.8,7-7.7,17.5c3.5,17.5,53.3,71,76.9,84c20,11.1,162.6,29.6,118-68c-41.3-90.3,18.2-210.2,25.9-203.4
			c123.1,108.7,18.8,229,16.3,233.3c-43.8,73.9-124.1,107.9-199.5,99.5c-95.3-10.5-147.5-69-162.2-87.4
			c-5.8-7.3-65.6-73.4-48.5-178.9c7.9-48.9,27.9-54.5,27.4-61.7c-2-28.6,24.8-80.8,26.9-72.8c1.1,4.2,5.9,44.6,14.8,43.3
			c8.5-1.2,19.2-5.5,33.4-5.3c10.9,0.1,20.6,2.5,28.7,5.5c4.5,1.6,14.2-11.1,27.6-19.2c18.4-11.1,44.5-17.7,41.8-14.7
			C209,114.9,203.1,140,200.9,144.3z"/>
		<g>
			
				<linearGradient id="SVGID_8_" gradientUnits="userSpaceOnUse" x1="212.0299" y1="1219.974" x2="259.1313" y2="1277.7357" gradientTransform="matrix(1 0 0 1 -150 -930)">
				<stop  offset="0" style="stop-color:#F26522"/>
				<stop  offset="1" style="stop-color:#FBB040"/>
			</linearGradient>
			<path style="fill:url(#SVGID_8_);" d="M70.5,323.5c-4.7,42.9,30.1,90.6,30.1,90.6c-58-11.9-69.6-80.3-72.1-98.2
				c-10.1-71.2,14-135.8,27.6-135.8S72.4,305.6,70.5,323.5z"/>
			
				<linearGradient id="SVGID_9_" gradientUnits="userSpaceOnUse" x1="244.7638" y1="1203.2581" x2="321.3466" y2="1308.7416" gradientTransform="matrix(1 0 0 1 -150 -930)">
				<stop  offset="0" style="stop-color:#F26522"/>
				<stop  offset="1" style="stop-color:#FBB040"/>
			</linearGradient>
			<path style="fill:url(#SVGID_9_);" d="M119.5,314.2C108.7,366.2,192,381,192,381c-113.6,29.9-121.4-56.7-124-74.6
				C58,235.2,98.9,202.9,112.6,202.9C126.2,202.9,123.9,293.1,119.5,314.2z"/>
			
				<linearGradient id="SVGID_10_" gradientUnits="userSpaceOnUse" x1="251.2725" y1="1189.2225" x2="293.5914" y2="1262.9652" gradientTransform="matrix(1 0 0 1 -150 -930)">
				<stop  offset="0" style="stop-color:#F26522"/>
				<stop  offset="1" style="stop-color:#FBB040"/>
			</linearGradient>
			<path style="fill:url(#SVGID_10_);" d="M88.9,252.9c-24.7,48.7,44.4,104.9,44.4,104.9c-106.4-15.8-94.2-111.4-89.9-129
				c16.9-69.9,59.9-80.7,72.5-75.6C128.5,158.2,98.6,233.8,88.9,252.9z"/>
		</g>
	</g>
</g>
</svg>
