<?xml version="1.0" encoding="utf-8"?>
<!-- Generator: Adobe Illustrator 22.0.1, SVG Export Plug-In . SVG Version: 6.00 Build 0)  -->
<svg version="1.1" id="Layer_3" xmlns="http://www.w3.org/2000/svg" xmlns:xlink="http://www.w3.org/1999/xlink" x="0px" y="0px"
	 viewBox="0 0 512 512" enable-background="new 0 0 512 512" xml:space="preserve">
<radialGradient id="SVGID_1_" cx="256" cy="256" r="230" gradientUnits="userSpaceOnUse">
	<stop  offset="0" style="stop-color:#1ACDFB"/>
	<stop  offset="1" style="stop-color:#1F77F3"/>
</radialGradient>
<radialGradient id="SVGID_2_" cx="256" cy="256" r="230.5" gradientUnits="userSpaceOnUse">
	<stop  offset="0" style="stop-color:#1ACDFB"/>
	<stop  offset="1" style="stop-color:#1F77F3"/>
</radialGradient>
<circle fill="url(#SVGID_1_)" stroke="url(#SVGID_2_)" stroke-miterlimit="10" cx="256" cy="256" r="230"/>
<path fill="#FFFFFF" d="M483.291,291.385l-22.523,25.39c-1.718-1.312-3.755-2.216-5.98-2.581l8.414-93.936l20.362,2.246
	c-0.099-0.682-0.194-1.365-0.299-2.045l-19.884-2.193l4.622-51.602c-0.541-1.281-1.103-2.551-1.666-3.821l-4.945,55.203
	l-11.716-1.292c0.001-0.054,0.008-0.107,0.008-0.161c0-4.438-2.733-8.233-6.605-9.809l17.052-56.83
	c-0.439-0.844-0.882-1.686-1.331-2.523l-17.636,58.777c-0.67-0.133-1.362-0.206-2.072-0.206c-1.44,0-2.811,0.29-4.062,0.81
	L373.635,91.173c2.146-1.4,3.786-3.509,4.581-6l41.486,9.285c-0.878-0.889-1.764-1.769-2.656-2.645l-38.402-8.595
	c0.063-0.482,0.107-0.97,0.107-1.469c0-6.213-5.037-11.25-11.25-11.25c-2.327,0-4.489,0.707-6.284,1.917l-46.138-38.744
	c-1.479-0.392-2.965-0.767-4.456-1.13l49.019,41.164c-1.534,1.499-2.638,3.432-3.119,5.602l-84.714-11.055l13.819-40.359
	c-0.675-0.087-1.355-0.16-2.032-0.241L269.785,67.99l-59.323-7.742c0.014-0.249,0.038-0.496,0.038-0.748
	c0-1.805-0.361-3.524-1.003-5.098l56.641-28.168c-1.389-0.06-2.778-0.123-4.173-0.159l-53.367,26.539
	C206.244,48.659,201.938,46,197,46c-6.531,0-11.978,4.638-13.229,10.799l-34.739-4.445c-1.021,0.538-2.044,1.072-3.056,1.625
	l37.56,4.806c-0.013,0.238-0.036,0.474-0.036,0.715c0,1.824,0.366,3.561,1.022,5.149L100.07,107.07
	c-2.101-3.499-5.733-5.968-9.978-6.468l0.179-4.068c-0.706,0.733-1.403,1.475-2.1,2.217l-0.078,1.769
	c-0.589,0.018-1.165,0.086-1.733,0.177c-3.949,4.311-7.742,8.768-11.357,13.372c0.018,3.456,1.342,6.595,3.494,8.974l-27.775,29.134
	c-0.994,1.961-1.955,3.94-2.894,5.933l32.106-33.676c1.798,1.478,3.989,2.485,6.387,2.875l-8.135,92.201
	c-0.063-0.001-0.124-0.009-0.187-0.009c-2.763,0-5.329,0.833-7.468,2.257l-29.717-38.251c2.733-2.47,4.46-6.032,4.46-10.006
	c0-2.245-0.559-4.355-1.532-6.214c-2.555,6.107-4.85,12.349-6.88,18.71c0.838-0.34,1.637-0.758,2.381-1.253l29.717,38.251
	c-2.733,2.47-4.46,6.032-4.46,10.006c0,4.153,1.879,7.864,4.829,10.341l-30.511,42.408c-1.784-1.095-3.837-1.786-6.043-1.948V200.43
	c-0.719,2.896-1.392,5.81-2,8.748V283.8c-1.049,0.077-2.062,0.279-3.031,0.583c1.102,8.949,2.724,17.735,4.823,26.336
	c1.142-0.067,2.247-0.27,3.296-0.603l30.574,76.148c1.602,2.328,3.239,4.63,4.924,6.894l-33.646-83.799
	c0.841-0.413,1.633-0.908,2.364-1.48l41.637,45.837C79.418,356.137,78,359.4,78,363c0,7.287,5.778,13.21,13,13.475v39.737
	c0.332,0.342,0.665,0.684,1,1.024v-40.761c4.302-0.158,8.083-2.321,10.443-5.59l55.061,33.771c-0.636,1.315-1.004,2.785-1.004,4.344
	c0,1.234,0.234,2.41,0.643,3.502l-45.575,22.483c0.571,0.462,1.141,0.926,1.717,1.383l44.743-22.073
	c1.768,2.823,4.896,4.706,8.472,4.706c1.184,0,2.315-0.217,3.369-0.594l28.735,60.374c0.831,0.214,1.671,0.407,2.506,0.612
	l-29.436-61.846c2.1-1.274,3.694-3.292,4.408-5.696l53.556,10.232l-12.401,60.65c0.657,0.112,1.316,0.221,1.975,0.327l12.391-60.601
	l44.491,8.5c-0.058,0.507-0.095,1.02-0.095,1.543c0,3.319,1.203,6.354,3.189,8.704l-44.681,43.788
	c0.872,0.081,1.744,0.161,2.619,0.233l43.467-42.597c2.378,2.093,5.489,3.372,8.906,3.372c5.785,0,10.706-3.646,12.627-8.76
	l35.636,10.436c-0.194,0.911-0.301,1.854-0.301,2.823c0,1.468,0.242,2.878,0.675,4.201l-75.763,31.207
	c1.943-0.053,3.879-0.129,5.809-0.23l70.722-29.131c2.219,4.415,6.778,7.452,12.057,7.452c6.206,0,11.421-4.194,12.999-9.898
	l6.687,1.328c0.867-0.499,1.722-1.016,2.581-1.526l-8.876-1.763c0.065-0.539,0.109-1.084,0.109-1.641
	c0-3.828-1.601-7.277-4.161-9.734l33.565-40.624l24.008,19.234c0.476-0.472,0.951-0.945,1.424-1.422l-24.157-19.354l49.652-60.094
	c2.204,1.564,4.89,2.493,7.798,2.493c0.878,0,1.733-0.091,2.564-0.25l5.512,20.281c0.457-0.889,0.897-1.788,1.343-2.683
	l-4.927-18.13c5.244-1.853,9.008-6.84,9.008-12.718c0-3.658-1.461-6.971-3.823-9.402l20.408-23.007
	C482.888,293.858,483.099,292.625,483.291,291.385z M441.616,335.34l-51.4,42.809c-1.322-1.836-3.048-3.36-5.059-4.428
	l21.451-61.291l33.144,10.927c-0.422,1.307-0.661,2.696-0.661,4.143C439.092,330.427,440.033,333.128,441.616,335.34z
	 M255.552,342.47l102.622-41.962c0.394,0.643,0.898,1.208,1.491,1.669l-36.924,67.486l-66.999-21.872
	c0.165-0.739,0.258-1.504,0.258-2.292C256,344.446,255.841,343.43,255.552,342.47z M91.242,230.389l27.544-7.588l10.977,38.125
	c-2.568,0.923-4.822,2.495-6.558,4.532l-33.823-25.219c1.334-2.094,2.118-4.573,2.118-7.239
	C91.5,232.106,91.408,231.234,91.242,230.389z M120.714,222.27l17.679-4.87l-3.224,42.608C135.112,260.008,135.057,260,135,260
	c-1.14,0-2.248,0.131-3.317,0.365L120.714,222.27z M140.441,216.836l57.357-15.8c0.62,1.736,1.582,3.304,2.81,4.629l-54.717,58.812
	c-2.314-2.286-5.348-3.835-8.727-4.308L140.441,216.836z M159.94,122.315l89.732-14.676c0.568,2.003,1.824,3.716,3.505,4.857
	l-37.34,71.606C214.2,183.395,212.397,183,210.5,183c-3.05,0-5.853,1.023-8.114,2.729l-46.263-52.768
	c2.395-2.436,3.876-5.774,3.876-9.46C160,123.1,159.974,122.706,159.94,122.315z M428.517,216.264l-66.559,4.245l-1.013-30.589
	c4.303-0.458,7.99-2.944,10.117-6.477l58.17,29.301C428.803,213.841,428.555,215.025,428.517,216.264z M431.159,223.594
	l-64.169,68.47c-0.788-0.532-1.706-0.883-2.695-1.008l-2.271-68.547l66.62-4.249C428.966,220.289,429.859,222.122,431.159,223.594z
	 M362.297,291.118c-1.288,0.251-2.431,0.899-3.304,1.809l-87.126-60.08c0.774-1.391,1.228-2.979,1.284-4.67l86.878-5.541
	L362.297,291.118z M147.218,265.985l54.848-58.953c2.241,1.797,5.065,2.888,8.145,2.953l4.079,77.134
	c-4.933,0.625-9.031,3.903-10.819,8.367l-53.287-16.863c0.206-1.009,0.315-2.054,0.315-3.124
	C150.5,271.909,149.268,268.613,147.218,265.985z M212.209,209.88c3.848-0.487,7.187-2.589,9.32-5.611l31.975,19.144
	c-0.637,1.342-1.004,2.837-1.004,4.421c0,3.284,1.537,6.204,3.925,8.097l-33.972,52.71c-1.838-1.002-3.936-1.579-6.166-1.626
	L212.209,209.88z M223.96,195.702l36.439-4.891l1.038,26.794c-2.827,0.383-5.284,1.905-6.904,4.093l-31.978-19.146
	c0.917-1.822,1.445-3.873,1.445-6.052C224,196.231,223.975,195.968,223.96,195.702z M258.106,237.016
	c0.704,0.363,1.455,0.644,2.241,0.838l-8.966,60.866l-21.946,0.484c-0.369-3.866-2.374-7.246-5.309-9.466L258.106,237.016z
	 M262.326,238.142c0.169,0.008,0.336,0.026,0.508,0.026c3.169,0,6-1.429,7.896-3.675l87.128,60.081
	c-0.268,0.563-0.453,1.171-0.542,1.812l-103.908,2.289L262.326,238.142z M262.39,190.544l28.097-3.771l-22.558,32.078
	c-1.34-0.762-2.866-1.226-4.493-1.32L262.39,190.544z M273.023,226.182c-0.396-2.458-1.652-4.625-3.459-6.179l23.624-33.592
	l53.103-7.128c1.246,5.944,6.404,10.436,12.656,10.69l1.016,30.665L273.023,226.182z M346,176.5c0,0.269,0.025,0.532,0.04,0.798
	l-51.286,6.884l24.451-34.768l28.715,20.174C346.709,171.611,346,173.97,346,176.5z M292.054,184.544l-29.742,3.992l-2.893-74.649
	c2.056-0.316,3.873-1.343,5.195-2.828l52.955,37.203L292.054,184.544z M260.321,188.804l-36.611,4.914
	c-0.768-3.663-3.026-6.768-6.104-8.681l37.349-71.623c0.776,0.298,1.603,0.488,2.466,0.553L260.321,188.804z M200.876,187.04
	c-0.341,0.346-0.658,0.714-0.96,1.096l-54.514-36.864l1.08-14.272c0.006,0,0.012,0.001,0.019,0.001c3.05,0,5.853-1.023,8.114-2.729
	L200.876,187.04z M198.795,189.792c-1.136,1.978-1.795,4.264-1.795,6.708c0,0.894,0.092,1.766,0.258,2.611l-56.656,15.607
	l4.626-61.15L198.795,189.792z M147.518,284.614l43.022,27.254l-40.132,19.673l-9.242-41.822
	C143.716,288.611,145.9,286.833,147.518,284.614z M148.602,282.933c0.414-0.757,0.755-1.557,1.04-2.384l53.231,16.845
	c-0.236,0.999-0.373,2.035-0.373,3.105c0,1.778,0.352,3.471,0.977,5.026l-10.83,5.309L148.602,282.933z M204.362,307.318
	c1.232,2.099,3.005,3.84,5.141,5.015l-3.249,7.122l-11.626-7.365L204.362,307.318z M211.327,313.152
	c1.458,0.539,3.028,0.848,4.673,0.848c2.375,0,4.604-0.618,6.543-1.695l16.393,25.007c-0.642,0.515-1.217,1.106-1.723,1.756
	l-29.255-18.532L211.327,313.152z M224.21,311.2c3.037-2.333,5.044-5.923,5.255-9.996l21.62-0.476l-5.053,34.299
	c-0.177-0.009-0.352-0.027-0.532-0.027c-1.768,0-3.431,0.441-4.893,1.213L224.21,311.2z M253.113,300.683l104.245-2.297
	c0.017,0.091,0.036,0.182,0.057,0.272L254.793,340.62c-1.38-2.622-3.836-4.581-6.782-5.305L253.113,300.683z M361.418,303.137
	c0.652,0.231,1.351,0.363,2.082,0.363c0.008,0,0.017-0.001,0.025-0.001l11.449,68.879c-5.394,1.225-9.652,5.401-11.006,10.745
	l-39.294-12.828L361.418,303.137z M365.497,303.168c1.563-0.528,2.847-1.657,3.582-3.111l35.629,11.746l-21.388,61.11
	c-1.583-0.581-3.286-0.914-5.07-0.914c-0.439,0-0.872,0.028-1.301,0.066L365.497,303.168z M405.37,309.914l-35.692-11.767
	c0.042-0.294,0.072-0.592,0.072-0.898c0-1.437-0.49-2.758-1.306-3.813l64.173-68.475c0.631,0.489,1.317,0.906,2.049,1.244
	L405.37,309.914z M367.554,92.997c1.531-0.007,2.991-0.318,4.32-0.879l61.393,115.632c-1.261,0.832-2.327,1.929-3.133,3.209
	l-58.16-29.296c0.659-1.591,1.027-3.333,1.027-5.163c0-6.73-4.93-12.294-11.372-13.316L367.554,92.997z M360.567,90.598
	c1.428,1.121,3.132,1.9,4.995,2.224l-5.926,70.185c-0.046,0-0.09-0.007-0.136-0.007c-4.208,0-7.964,1.926-10.44,4.943
	l-28.704-20.166L360.567,90.598z M356.752,85.081c0.48,1.549,1.293,2.947,2.344,4.13l-40.377,57.416l-52.947-37.198
	c0.676-1.242,1.061-2.665,1.061-4.179c0-0.286-0.016-0.568-0.043-0.847L356.752,85.081z M271.148,70.185l85.125,11.109
	c-0.006,0.153-0.023,0.302-0.023,0.456c0,0.466,0.037,0.923,0.092,1.374l-89.975,19.325c-0.76-2.247-2.406-4.079-4.524-5.09
	L271.148,70.185z M210.222,62.234l58.902,7.687l-9.171,26.784c-0.603-0.131-1.227-0.205-1.869-0.205
	c-2.504,0-4.756,1.057-6.351,2.743l-43.365-32.479C209.241,65.4,209.885,63.874,210.222,62.234z M197,73
	c4.06,0,7.691-1.8,10.166-4.636l43.367,32.48c-0.758,1.295-1.199,2.797-1.199,4.406c0,0.14,0.014,0.276,0.021,0.415l-89.741,14.677
	c-0.637-2.652-2.053-4.995-3.998-6.779l33.83-42.873C191.601,72.148,194.201,73,197,73z M185.43,66.43
	c0.672,1.119,1.498,2.13,2.454,3.007l-33.83,42.873c-2.156-1.459-4.756-2.311-7.555-2.311c-6.365,0-11.688,4.411-13.112,10.339
	l-31.448-5.151c0.034-0.392,0.06-0.787,0.06-1.188c0-1.824-0.366-3.561-1.022-5.149L185.43,66.43z M101.612,117.161l31.448,5.151
	c-0.034,0.392-0.06,0.787-0.06,1.188c0,6.77,4.989,12.36,11.488,13.334l-0.995,13.147l-43.289-29.273
	C100.834,119.613,101.309,118.422,101.612,117.161z M99.084,122.364l44.236,29.914l-4.767,63.004l-18.392,5.066l-26.979-93.7
	C95.525,125.781,97.561,124.289,99.084,122.364z M88.313,127.491c0.063,0.001,0.124,0.009,0.187,0.009
	c0.948,0,1.872-0.1,2.764-0.285l26.969,93.665l-27.531,7.584c-1.629-4.559-5.63-7.977-10.524-8.772L88.313,127.491z M83.196,352.371
	l-41.637-45.837c2.297-2.42,3.716-5.683,3.716-9.284c0-4.153-1.879-7.864-4.829-10.341l30.511-42.408
	c2.052,1.26,4.458,1.999,7.043,1.999c0.133,0,0.262-0.016,0.394-0.02l10.721,103.243C86.909,350.117,84.892,351.044,83.196,352.371z
	 M91.5,349.5c-0.133,0-0.262,0.016-0.394,0.02L80.384,246.277c3.096-0.553,5.822-2.157,7.802-4.435l33.823,25.219
	c-1.581,2.43-2.509,5.324-2.509,8.439c0,5.77,3.159,10.793,7.836,13.462l-30.095,61.833C95.497,349.973,93.556,349.5,91.5,349.5z
	 M102.408,355.069c-0.939-1.289-2.091-2.412-3.418-3.299l30.141-61.928c1.811,0.742,3.79,1.158,5.869,1.158
	c1.482,0,2.909-0.22,4.266-0.609l9.293,42.055L102.408,355.069z M158.55,402.951l-55.058-33.769C104.45,367.328,105,365.23,105,363
	c0-2.247-0.557-4.362-1.529-6.226l45.532-22.32l14.374,65.049C161.436,400.142,159.763,401.36,158.55,402.951z M169.717,399.539
	c-1.011-0.344-2.09-0.539-3.217-0.539c-0.396,0-0.785,0.029-1.169,0.074l-14.479-65.525l41.67-20.426l12.895,8.169L169.717,399.539z
	 M230.039,420.121l-53.584-10.238c0.026-0.292,0.045-0.585,0.045-0.884c0-3.684-1.998-6.895-4.964-8.629l35.585-77.999
	l29.021,18.384c-0.725,1.426-1.142,3.035-1.142,4.745c0,5.009,3.51,9.192,8.203,10.24L230.039,420.121z M276.476,428.993
	l-44.472-8.497l13.191-64.512c0.102,0.003,0.202,0.015,0.305,0.015c1.35,0,2.636-0.264,3.821-0.728l33.216,65.678
	C279.594,422.728,277.39,425.592,276.476,428.993z M289.5,419c-1.837,0-3.587,0.37-5.183,1.035l-33.211-65.667
	c1.765-1.118,3.175-2.742,4.018-4.674l66.641,21.755l-26.684,48.77C293.378,419.443,291.493,419,289.5,419z M296.835,421.176
	l26.863-49.097l39.9,13.025c-0.06,0.541-0.097,1.088-0.097,1.645c0,2.763,0.774,5.339,2.095,7.549l-64.442,31.409
	C300.086,423.88,298.607,422.326,296.835,421.176z M350.963,437c-5.785,0-10.706,3.646-12.627,8.76l-35.636-10.436
	c0.194-0.911,0.301-1.854,0.301-2.823c0-1.767-0.349-3.45-0.966-4.997l64.709-31.539c1.525,1.902,3.505,3.422,5.783,4.383
	l-16.936,37.484C354.144,437.303,352.591,437,350.963,437z M358.761,439.493c-0.432-0.306-0.876-0.596-1.343-0.851l17.015-37.659
	c1.219,0.326,2.495,0.517,3.817,0.517c4.409,0,8.355-1.945,11.058-5.011l3,2.403L358.761,439.493z M393.581,397.351l-3.047-2.441
	c1.556-2.337,2.466-5.141,2.466-8.16c0-2.49-0.623-4.833-1.713-6.891l51.607-42.981c0.117,0.121,0.237,0.239,0.359,0.355
	L393.581,397.351z M440.508,321.498l-33.238-10.957l29.286-83.675c0.814,0.2,1.66,0.318,2.536,0.318
	c0.095,0,0.186-0.012,0.281-0.014l10.601,87.089C445.812,315.077,442.345,317.81,440.508,321.498z M452.592,314
	c-0.214,0-0.422,0.022-0.633,0.032l-10.602-87.097c4.068-0.887,7.265-4.108,8.107-8.193l11.749,1.296l-8.418,93.972
	C452.727,314.009,452.661,314,452.592,314z"/>
<g id="g15">
	<path id="path17" fill="#FAA81A" d="M139.833,353.501c0,12.031-16.527,20.416-16.527,20.416
		c4.861-14.097-11.545-22.239-11.545-34.391c0-12.152,15.677-20.781,15.677-20.781C125.858,338.553,139.833,341.47,139.833,353.501z
		"/>
	<path fill="#F05E24" d="M255.298,485.991c0.552,0.001,1.105-0.002,1.657-0.003c36.865-0.15,71.68-8.974,102.517-24.536
		c-36.983-28.456-68.525-56.294-39.175-134.079c30.381-80.449-68.054-151.663-68.054-151.663s51.526,84.581-62.828,154.579
		c-37.247,22.74-68.934,57.029-89.561,94.565C140.707,462.652,195.295,485.811,255.298,485.991z"/>
	<path id="path25_1_" fill="#F37A20" d="M273.438,356.017c-1.463,42.186-50.983,71.637-50.983,71.637
		c14.796-49.517-35.653-78.334-35.653-120.545s52.262-73.057,52.262-73.057C218.291,301.936,275.368,300.349,273.438,356.017z"/>
	<path id="path21" fill="#F05E24" d="M202.54,219.094c0,22.482-30.867,38.037-30.867,38.037c8.993-26.249-21.51-41.561-21.51-64.044
		S179.45,154.2,179.45,154.2C176.291,191.265,202.54,196.612,202.54,219.094z"/>
	<path id="path25" fill="#EE9224" d="M186.041,415.318c0,25.277,34.756,42.898,34.756,42.898
		c-10.087-29.652,24.305-46.909,24.305-72.186s-33.055-43.749-33.055-43.749C215.571,384.086,186.041,390.041,186.041,415.318z"/>
	<path id="path33" fill="#F05E24" d="M343.873,221.768c0,14.583,19.93,24.67,19.93,24.67c-5.833-17.013,13.975-26.857,13.975-41.44
		s-18.958-25.156-18.958-25.156C360.765,203.904,343.873,207.307,343.873,221.768z"/>
	<path fill="#FAA81A" d="M350.796,310.005c0,0-56.257,30.963-56.257,74.574c0,32.046,31.786,56.323,41.723,87.017
		c21.266-7.92,41.04-18.897,58.796-32.396c0.139-1.474,0.22-2.962,0.22-4.468C395.279,391.556,345.127,381.089,350.796,310.005z"/>
</g>
</svg>
