<?xml version="1.0" encoding="utf-8"?>
<!-- Generator: Adobe Illustrator 22.0.1, SVG Export Plug-In . SVG Version: 6.00 Build 0)  -->
<svg version="1.1" id="Layer_1" xmlns="http://www.w3.org/2000/svg" xmlns:xlink="http://www.w3.org/1999/xlink" x="0px" y="0px"
	 viewBox="0 0 512 512" enable-background="new 0 0 512 512" xml:space="preserve">
<g>
	<g id="g210">
		<g id="g212">
			<g id="g218">
				<g id="g220">
					
						<radialGradient id="path230_1_" cx="240.5899" cy="238.2804" r="1.3425" gradientTransform="matrix(168.856 0 0 168.8562 -40362.7031 -40121.9883)" gradientUnits="userSpaceOnUse">
						<stop  offset="0" style="stop-color:#36489E"/>
						<stop  offset="0.0564" style="stop-color:#35438E"/>
						<stop  offset="0.2255" style="stop-color:#30366D"/>
						<stop  offset="0.3934" style="stop-color:#272A53"/>
						<stop  offset="0.5572" style="stop-color:#1F2040"/>
						<stop  offset="0.7155" style="stop-color:#181733"/>
						<stop  offset="0.8658" style="stop-color:#14122B"/>
						<stop  offset="1" style="stop-color:#121028"/>
					</radialGradient>
					<path id="path230" fill="url(#path230_1_)" d="M29.233,252.753c0,125.258,101.495,226.753,226.753,226.753l0,0
						c125.258,0,226.753-101.495,226.753-226.753l0,0C482.739,127.495,381.244,26,255.986,26l0,0
						C130.728,26,29.233,127.495,29.233,252.753"/>
				</g>
			</g>
		</g>
	</g>
	<g id="g234">
		<g id="g240" transform="translate(277.8445,324.0568)">
			<path id="path242" fill="#010101" d="M7.468-162.654c-0.403,2.954-4.833,11.009-9.935,10.874
				c-23.226-1.074-10.337-17.721-4.699-20.004c0,0,3.222-0.806,8.324-0.806C6.126-172.588,8.274-168.695,7.468-162.654"/>
		</g>
		<g id="g244" transform="translate(268.36,331.2112)">
			<path id="path246" fill="#446FB6" d="M4.22-179.401c2.954,3.088,7.518,11.009-0.94,19.332
				C-10.28-146.912-57-144.63-67.069-144.63c-15.171,0-27.388-13.023-27.388-23.897s18.527-35.309,26.716-22.42
				C-55.657-171.749,4.22-179.401,4.22-179.401"/>
		</g>
	</g>
	<g id="g248">
		<g id="g250">
			<g id="g256">
				<g id="g258">
					
						<linearGradient id="path266_1_" gradientUnits="userSpaceOnUse" x1="243.663" y1="237.496" x2="244.737" y2="237.496" gradientTransform="matrix(25.6571 -138.132 138.132 25.6571 -38761.6484 28038.5918)">
						<stop  offset="0" style="stop-color:#FFFFFF"/>
						<stop  offset="1" style="stop-color:#4687C7"/>
					</linearGradient>
					<path id="path266" fill="url(#path266_1_)" d="M324.858,102.927c-0.806,0.269,31.952,9.666,53.298,56.52l0,0
						c30.744,67.529,20.809,190.773-79.746,206.078l0,0c-55.312,8.324-72.899-9.8-86.19-16.379l0,0
						c-25.642-12.486,29.67,88.07,49.539,100.824l0,0c17.99,11.546,115.189,0,131.568-18.661l0,0
						c78.806-89.949,30.475-256.826,26.448-268.909l0,0c-14.902-44.84-65.515-60.28-87.801-60.28l0,0
						C329.02,102.121,326.737,102.39,324.858,102.927"/>
				</g>
			</g>
		</g>
	</g>
	<g id="g268">
		<g id="g270">
			<g id="g276">
				<g id="g278">
					
						<linearGradient id="path286_1_" gradientUnits="userSpaceOnUse" x1="245.2079" y1="238.5637" x2="246.2819" y2="238.5637" gradientTransform="matrix(-40.9896 -114.7297 114.7297 -40.9896 -16920.6172 38164.668)">
						<stop  offset="0" style="stop-color:#010101"/>
						<stop  offset="1" style="stop-color:#4687C7"/>
					</linearGradient>
					<path id="path286" fill="url(#path286_1_)" d="M324.858,102.927c0,0,62.965,40.544,67.261,106.597l0,0
						c6.041,92.232-21.346,132.776-21.346,132.776l0,0c11.277-5.773,94.246-34.906,65.515-148.886l0,0
						C413.868,103.464,327.14,102.927,324.858,102.927L324.858,102.927L324.858,102.927"/>
				</g>
			</g>
		</g>
	</g>
	<g id="g288">
		<g id="g290">
			<g id="g296">
				<g id="g298">
					
						<linearGradient id="path306_1_" gradientUnits="userSpaceOnUse" x1="245.1236" y1="238.6331" x2="246.1976" y2="238.6331" gradientTransform="matrix(-42.4273 -118.754 118.754 -42.4273 -17520.6289 39433.0156)">
						<stop  offset="0" style="stop-color:#010101"/>
						<stop  offset="1" style="stop-color:#4687C7"/>
					</linearGradient>
					<path id="path306" fill="url(#path306_1_)" d="M333.45,46.138c0,0,62.965,40.544,67.261,106.597l0,0
						c6.041,92.232-4.833,135.864-4.833,135.864l0,0c11.277-5.773,82.029-37.859,53.433-151.84l0,0
						C426.622,46.541,335.33,46.138,333.45,46.138L333.45,46.138L333.45,46.138"/>
				</g>
			</g>
		</g>
	</g>
	<g id="g308">
		<g id="g310">
			<g id="g316">
				<g id="g318">
					
						<linearGradient id="path326_1_" gradientUnits="userSpaceOnUse" x1="245.2125" y1="238.5866" x2="246.2865" y2="238.5866" gradientTransform="matrix(-40.6045 -113.6516 113.6516 -40.6045 -16686.1719 37831.4531)">
						<stop  offset="0" style="stop-color:#010101"/>
						<stop  offset="1" style="stop-color:#4687C7"/>
					</linearGradient>
					<path id="path326" fill="url(#path326_1_)" d="M450.25,200.529c31.818,86.862-8.189,133.85-8.189,133.85l0,0
						c11.277-5.773,45.377-57.192,47.66-115.592l0,0c3.625-96.931-56.52-134.656-56.52-134.656l0,0
						C433.2,84.132,418.701,114.473,450.25,200.529"/>
				</g>
			</g>
		</g>
	</g>
	<g id="g328">
		<g id="g330">
			<g id="g336">
				<g id="g338">
					
						<linearGradient id="path346_1_" gradientUnits="userSpaceOnUse" x1="245.0167" y1="238.6286" x2="246.0907" y2="238.6286" gradientTransform="matrix(-42.8234 -119.8622 119.8622 -42.8234 -17673.5469 39932.5156)">
						<stop  offset="0" style="stop-color:#010101"/>
						<stop  offset="1" style="stop-color:#4687C7"/>
					</linearGradient>
					<path id="path346" fill="url(#path346_1_)" d="M398.294,269.669c3.759,92.366,21.48,132.776,21.48,132.776l0,0
						c11.277-5.773,15.036-55.983,17.99-114.383l0,0c5.773-115.592-74.913-132.508-74.913-132.508l0,0
						C362.851,155.42,394.804,182.539,398.294,269.669"/>
				</g>
			</g>
		</g>
	</g>
	<g id="g348">
		<g id="g350">
			<g id="g356">
				<g id="g358">
					
						<linearGradient id="path366_1_" gradientUnits="userSpaceOnUse" x1="237.0722" y1="237.4282" x2="238.1462" y2="237.4282" gradientTransform="matrix(73.0326 23.5603 -23.5603 73.0326 -11366.4404 -22595.8887)">
						<stop  offset="0" style="stop-color:#4687C7"/>
						<stop  offset="1" style="stop-color:#FFFFFF"/>
					</linearGradient>
					<path id="path366" fill="url(#path366_1_)" d="M365.268,347.133c-33.429,77.598-74.242,79.88-81.089,79.612l0,0
						c17.184,1.88,138.281,40.679,144.993-74.108l0,0c4.162-71.825-55.044-136.401-55.044-136.401l0,0
						C373.994,216.236,379.902,313.167,365.268,347.133 M284.313,426.879c-0.403,0-0.671,0-0.94,0l0,0
						C283.239,426.745,283.642,426.879,284.313,426.879"/>
				</g>
			</g>
		</g>
	</g>
	<g id="g370">
		<g id="g376" transform="translate(267.1154,316.3431)">
			<path id="path378" fill="#FFFFFF" d="M3.793-144.621c0.537-0.537,4.43,0.403,4.43,0.403c-6.444,9.8-21.346,22.42-26.985,26.179
				c-4.028,2.685-22.689,18.124-27.119,16.513c-12.486-4.43-20.004-28.327-20.004-28.327
				C-61.051-129.853-1.04-140.593,3.793-144.621"/>
		</g>
		<g id="g380" transform="translate(213.8871,338.9108)">
			<path id="path382" fill="#4687C7" d="M-14.439-197.439c-1.745,3.356-7.115,25.105,1.745,45.109
				c9.263,20.943,34.1,41.618,43.901,53.701c6.847,8.458-65.247-10.606-69.812,0.537c-1.477,3.625-3.893,16.379,3.088,27.79
				c6.041,9.666,15.708,9.129,22.689,9.129c11.814,0,66.858-32.892,69.275-26.448c2.954,8.055-17.721,35.443-58.4,66.187
				c-0.806,0.537-10.069,7.25-7.921,17.99c3.625,17.99,54.775,72.765,78.941,86.325c20.541,11.411,166.742,30.341,120.962-69.812
				c-42.424-92.635,18.661-215.61,26.582-208.629C342.808-83.995,235.943,39.383,233.258,43.814
				c-44.84,75.719-127.272,110.49-204.601,102.032c-97.736-10.74-151.303-70.751-166.339-89.681
				c-5.907-7.518-67.261-75.316-49.808-183.524c8.055-50.211,28.596-55.983,28.059-63.367
				c-2.014-29.267,25.374-82.834,27.522-74.779c1.208,4.296,6.041,45.78,15.171,44.438c8.726-1.208,19.735-5.639,34.234-5.504
				c11.143,0.134,21.078,2.551,29.401,5.639c4.565,1.611,14.634-11.411,28.327-19.601c18.93-11.411,45.646-18.258,42.961-15.036
				C-6.115-227.646-12.156-201.869-14.439-197.439"/>
		</g>
	</g>
	<g id="g384">
		<g id="g386">
			<g id="g392">
				<g id="g394">
					
						<linearGradient id="path402_1_" gradientUnits="userSpaceOnUse" x1="235.8236" y1="240.7588" x2="236.8976" y2="240.7588" gradientTransform="matrix(44.9886 55.1706 -55.1706 44.9886 2730.418 -23551.0547)">
						<stop  offset="0" style="stop-color:#4687C7"/>
						<stop  offset="1" style="stop-color:#010101"/>
					</linearGradient>
					<path id="path402" fill="url(#path402_1_)" d="M22.52,317.463c2.551,18.393,14.499,88.607,73.973,100.824l0,0
						c0,0-35.577-48.868-30.878-92.903l0,0c2.014-18.393-0.806-147.141-14.768-147.141l0,0
						C36.885,178.243,12.183,244.564,22.52,317.463"/>
				</g>
			</g>
		</g>
	</g>
	<g id="g404">
		<g id="g406">
			<g id="g412">
				<g id="g414">
					
						<linearGradient id="path422_1_" gradientUnits="userSpaceOnUse" x1="238.5016" y1="240.6105" x2="239.5757" y2="240.6105" gradientTransform="matrix(73.1476 100.7519 -100.7519 73.1476 6886.7344 -41355.875)">
						<stop  offset="0" style="stop-color:#4687C7"/>
						<stop  offset="1" style="stop-color:#010101"/>
					</linearGradient>
					<path id="path422" fill="url(#path422_1_)" d="M63.199,307.663c2.551,18.393,10.606,107.268,127.138,76.524l0,0
						c0,0-85.519-15.171-74.376-68.603l0,0c4.43-21.615,6.847-114.115-7.115-114.115l0,0
						C94.883,201.603,52.861,234.763,63.199,307.663"/>
				</g>
			</g>
		</g>
	</g>
	<g id="g424">
		<g id="g426">
			<g id="g432">
				<g id="g434">
					
						<linearGradient id="path442_1_" gradientUnits="userSpaceOnUse" x1="236.7594" y1="241.4929" x2="237.8334" y2="241.4929" gradientTransform="matrix(40.4206 70.4349 -70.4349 40.4206 7536.8047 -26178.0625)">
						<stop  offset="0" style="stop-color:#4687C7"/>
						<stop  offset="1" style="stop-color:#010101"/>
					</linearGradient>
					<path id="path442" fill="url(#path442_1_)" d="M37.825,228.185c-4.296,17.99-16.916,116.129,92.232,132.239l0,0
						c0,0-70.886-57.594-45.512-107.537l0,0c9.935-19.601,40.679-97.199,27.656-102.301l0,0c-1.745-0.671-4.028-1.074-6.713-1.074
						l0,0C87.901,149.513,52.861,166.16,37.825,228.185"/>
				</g>
			</g>
		</g>
	</g>
</g>
</svg>
