<?xml version="1.0" encoding="utf-8"?>
<!-- Generator: Adobe Illustrator 22.0.1, SVG Export Plug-In . SVG Version: 6.00 Build 0)  -->
<svg version="1.1" id="Layer_3" xmlns="http://www.w3.org/2000/svg" xmlns:xlink="http://www.w3.org/1999/xlink" x="0px" y="0px"
	 viewBox="0 0 512 512" enable-background="new 0 0 512 512" xml:space="preserve">
<g>
	
		<radialGradient id="SVGID_1_" cx="312.3596" cy="-252.1541" r="226.7033" gradientTransform="matrix(1 0 0 -1 -50 -139)" gradientUnits="userSpaceOnUse">
		<stop  offset="0" style="stop-color:#501012"/>
		<stop  offset="0.3411" style="stop-color:#3B0F13"/>
		<stop  offset="0.6917" style="stop-color:#2E0E13"/>
		<stop  offset="1" style="stop-color:#290E13"/>
	</radialGradient>
	<circle fill="url(#SVGID_1_)" cx="255.977" cy="252.762" r="226.762"/>
	<g>
		<path fill="#656465" d="M285.246,161.332c-0.403,2.954-4.833,11.009-9.935,10.875c-23.227-1.074-10.338-17.722-4.699-20.004
			c0,0,3.222-0.806,8.324-0.806C284.037,151.531,286.186,155.425,285.246,161.332z"/>
		<path fill="#F15D22" d="M272.625,151.8c2.954,3.088,7.518,11.009-0.94,19.333c-13.56,13.157-60.282,15.44-70.351,15.44
			c-15.171,0-27.389-13.023-27.389-23.898s18.528-35.31,26.717-22.421C212.746,159.453,272.625,151.8,272.625,151.8z"/>
		
			<linearGradient id="SVGID_2_" gradientUnits="userSpaceOnUse" x1="445.851" y1="-892.4242" x2="473.4084" y2="-744.0615" gradientTransform="matrix(1 0 0 -1 -150 -418)">
			<stop  offset="0" style="stop-color:#F26522"/>
			<stop  offset="1" style="stop-color:#FEBD18"/>
		</linearGradient>
		<path fill="url(#SVGID_2_)" d="M419.772,162.406c4.028,12.083,52.495,178.966-26.449,268.919
			c-16.38,18.662-113.582,30.208-131.573,18.662c-19.87-12.755-75.185-113.314-49.541-100.828
			c13.292,6.444,31.014,24.703,86.194,16.38c100.559-15.305,110.629-138.554,79.749-206.086
			c-21.347-46.856-54.106-56.388-53.301-56.523C340.694,98.634,402.856,111.791,419.772,162.406z"/>
		
			<linearGradient id="SVGID_3_" gradientUnits="userSpaceOnUse" x1="184.5528" y1="-793.1588" x2="201.3291" y2="-663.3834" gradientTransform="matrix(0.8908 -0.4544 -0.4544 -0.8908 -125.9165 -369.3057)">
			<stop  offset="0" style="stop-color:#F26522"/>
			<stop  offset="1" style="stop-color:#FEBD18"/>
		</linearGradient>
		<path fill="url(#SVGID_3_)" d="M436.42,193.286c28.731,113.985-54.24,143.119-65.518,148.892c0,0,27.389-40.546,21.347-132.781
			c-4.296-65.921-67.263-106.601-67.263-106.601S413.462,102.259,436.42,193.286z"/>
		
			<linearGradient id="SVGID_4_" gradientUnits="userSpaceOnUse" x1="226.3194" y1="-753.4778" x2="243.6845" y2="-619.1503" gradientTransform="matrix(0.8908 -0.4544 -0.4544 -0.8908 -125.9165 -369.3057)">
			<stop  offset="0" style="stop-color:#F26522"/>
			<stop  offset="1" style="stop-color:#FEBD18"/>
		</linearGradient>
		<path fill="url(#SVGID_4_)" d="M449.309,136.763c28.731,113.985-42.023,146.207-53.435,151.846c0,0,10.875-43.634,4.833-135.869
			c-4.296-65.921-67.263-106.601-67.263-106.601S426.351,45.602,449.309,136.763z"/>
		
			<linearGradient id="SVGID_5_" gradientUnits="userSpaceOnUse" x1="240.6128" y1="-846.015" x2="257.2314" y2="-717.459" gradientTransform="matrix(0.8908 -0.4544 -0.4544 -0.8908 -125.9165 -369.3057)">
			<stop  offset="0" style="stop-color:#F26522"/>
			<stop  offset="1" style="stop-color:#FEBD18"/>
		</linearGradient>
		<path fill="url(#SVGID_5_)" d="M489.721,218.795c-2.282,58.402-36.384,109.823-47.662,115.596c0,0,40.009-46.99,8.19-133.855
			c-31.551-85.925-17.051-116.402-17.051-116.402S493.346,121.86,489.721,218.795z"/>
		
			<linearGradient id="SVGID_6_" gradientUnits="userSpaceOnUse" x1="176.3269" y1="-892.2386" x2="193.8537" y2="-756.6575" gradientTransform="matrix(0.8908 -0.4544 -0.4544 -0.8908 -125.9165 -369.3057)">
			<stop  offset="0" style="stop-color:#F26522"/>
			<stop  offset="1" style="stop-color:#FEBD18"/>
		</linearGradient>
		<path fill="url(#SVGID_6_)" d="M437.763,287.938c-2.954,58.402-6.713,108.615-17.991,114.388c0,0-17.722-40.277-21.481-132.781
			c-3.491-87.134-35.444-114.254-35.444-114.254S443.536,172.341,437.763,287.938z"/>
		
			<linearGradient id="SVGID_7_" gradientUnits="userSpaceOnUse" x1="503.7426" y1="-747.4993" x2="582.1844" y2="-772.8046" gradientTransform="matrix(1 0 0 -1 -150 -418)">
			<stop  offset="0" style="stop-color:#F26522"/>
			<stop  offset="1" style="stop-color:#FEBD18"/>
		</linearGradient>
		<path fill="url(#SVGID_7_)" d="M429.171,352.65c-6.847,117.342-133.184,74.111-145.804,74.111c0,0,45.514,5.37,82.032-79.615
			c14.634-33.967,8.727-131.036,8.727-131.036S433.333,280.822,429.171,352.65z"/>
		<path fill="#FFFFFF" d="M270.88,171.804c0.671-0.537,4.431,0.403,4.431,0.403c-6.444,9.801-21.347,22.287-26.986,26.18
			c-4.028,2.685-22.69,18.125-27.12,16.514c-12.486-4.431-20.004-28.328-20.004-28.328
			C206.033,186.573,266.047,175.832,270.88,171.804z"/>
		<path fill="#F26522" d="M199.455,141.462c-1.745,3.356-7.116,25.106,1.745,45.111c9.264,20.944,34.102,41.62,44.037,53.703
			c6.847,8.458-65.249-10.606-69.814,0.537c-1.477,3.625-3.893,16.38,3.088,27.791c6.042,9.667,15.708,9.13,22.69,9.13
			c11.815,0,66.861-32.893,69.277-26.449c2.954,8.056-17.722,35.444-58.402,66.189c-0.806,0.537-10.069,7.25-7.921,17.991
			c3.625,17.991,54.777,72.768,78.81,86.194c20.542,11.412,166.749,30.342,120.967-69.814
			c-42.426-92.638,18.662-215.619,26.583-208.637c126.203,111.569,19.333,234.952,16.648,239.382
			c-44.977,75.722-127.277,110.629-204.609,102.171c-97.74-10.741-151.309-70.754-166.346-89.685
			c-6.042-7.518-67.263-75.319-49.81-183.531c8.055-50.213,28.597-55.986,28.06-63.37c-2.014-29.268,25.375-82.837,27.523-74.782
			c1.208,4.296,6.042,45.782,15.171,44.439c8.727-1.208,19.736-5.639,34.236-5.505c11.143,0.134,21.079,2.551,29.403,5.639
			c4.565,1.611,14.634-11.412,28.328-19.602c18.93-11.412,45.648-18.259,42.963-15.037
			C207.779,111.254,201.737,137.032,199.455,141.462z"/>
		<g>
			
				<linearGradient id="SVGID_8_" gradientUnits="userSpaceOnUse" x1="207.0052" y1="-708.8705" x2="255.3259" y2="-768.1274" gradientTransform="matrix(1 0 0 -1 -150 -418)">
				<stop  offset="0" style="stop-color:#F26522"/>
				<stop  offset="1" style="stop-color:#FBB040"/>
			</linearGradient>
			<path fill="url(#SVGID_8_)" d="M65.599,325.396c-4.833,44.037,30.879,92.907,30.879,92.907
				c-59.476-12.217-71.425-82.435-73.976-100.828c-10.338-73.036,14.366-139.36,28.328-139.36S67.613,306.868,65.599,325.396z"/>
			
				<linearGradient id="SVGID_9_" gradientUnits="userSpaceOnUse" x1="240.5486" y1="-691.751" x2="319.1138" y2="-799.9652" gradientTransform="matrix(1 0 0 -1 -150 -418)">
				<stop  offset="0" style="stop-color:#F26522"/>
				<stop  offset="1" style="stop-color:#FBB040"/>
			</linearGradient>
			<path fill="url(#SVGID_9_)" d="M115.946,315.729c-11.143,53.435,74.379,68.606,74.379,68.606
				C73.789,414.946,65.734,326.067,63.183,307.808C52.845,234.772,94.868,201.61,108.83,201.61S120.511,294.114,115.946,315.729z"/>
			
				<linearGradient id="SVGID_10_" gradientUnits="userSpaceOnUse" x1="247.2041" y1="-677.3618" x2="290.6185" y2="-753.0135" gradientTransform="matrix(1 0 0 -1 -150 -418)">
				<stop  offset="0" style="stop-color:#F26522"/>
				<stop  offset="1" style="stop-color:#FBB040"/>
			</linearGradient>
			<path fill="url(#SVGID_10_)" d="M84.53,252.896c-25.375,49.944,45.514,107.541,45.514,107.541
				C20.891,344.326,33.377,246.183,37.808,228.193c17.319-71.694,61.356-82.703,74.379-77.601
				C125.21,155.693,94.465,233.16,84.53,252.896z"/>
		</g>
	</g>
</g>
</svg>
