<?xml version="1.0" encoding="utf-8"?>
<!-- Generator: Adobe Illustrator 22.0.1, SVG Export Plug-In . SVG Version: 6.00 Build 0)  -->
<svg version="1.1"
	 id="svg2" xmlns:cc="http://creativecommons.org/ns#" xmlns:dc="http://purl.org/dc/elements/1.1/" xmlns:rdf="http://www.w3.org/1999/02/22-rdf-syntax-ns#" xmlns:svg="http://www.w3.org/2000/svg"
	 xmlns="http://www.w3.org/2000/svg" xmlns:xlink="http://www.w3.org/1999/xlink" x="0px" y="0px" viewBox="0 0 512 512"
	 style="enable-background:new 0 0 512 512;" xml:space="preserve">
<path style="fill:#E2380A;" d="M411,486H101c-41.4,0-75-33.6-75-75V101c0-41.4,33.6-75,75-75h310c41.4,0,75,33.6,75,75v310
	C486,452.4,452.4,486,411,486z"/>
<path id="path212" style="fill:#FFFFFF;" d="M311,220.1c-9.2,0-16.7-7.5-16.7-16.7c0-9.2,7.4-16.7,16.7-16.7
	c9.2,0,16.7,7.4,16.7,16.7C327.7,212.6,320.2,220.1,311,220.1 M231.4,347.8c0,9.2-7.5,16.7-16.7,16.7c-9.2,0-16.7-7.5-16.7-16.7
	c0-9.2,7.4-16.7,16.7-16.7C223.9,331.2,231.4,338.6,231.4,347.8 M311,174.5c-16,0-28.9,12.9-28.9,28.9c0,11.6,6.8,21.5,16.7,26.1
	c-1,19.1-15.3,25.5-40.1,34.9c-10.5,3.9-22,8.3-31.9,14.9v-70.1h29.3l-42-73.8l-42,73.8h30.6v112.6c-9.9,4.6-16.8,14.5-16.8,26.2
	c0,16,12.9,28.9,28.9,28.9c16,0,28.9-12.9,28.9-28.9c0-11.6-6.8-21.5-16.7-26.1c1-19.1,15.3-25.5,40.1-34.9
	c24.4-9.2,54.6-20.6,55.8-57.2c10-4.6,17-14.6,17-26.2C339.9,187.5,327,174.5,311,174.5"/>
</svg>
