<?xml version="1.0" encoding="utf-8"?>
<!-- Generator: Adobe Illustrator 18.0.0, SVG Export Plug-In . SVG Version: 6.00 Build 0)  -->
<!DOCTYPE svg PUBLIC "-//W3C//DTD SVG 1.1//EN" "http://www.w3.org/Graphics/SVG/1.1/DTD/svg11.dtd">
<svg version="1.1" id="Layer_1" xmlns="http://www.w3.org/2000/svg" xmlns:xlink="http://www.w3.org/1999/xlink" x="0px" y="0px"
	 viewBox="0 0 512 512" style="enable-background:new 0 0 512 512;" xml:space="preserve">
<path style="fill:#303030;" d="M446,486H66c-22.091,0-40-17.909-40-40V66c0-22.091,17.909-40,40-40h380c22.091,0,40,17.909,40,40
	v380C486,468.091,468.091,486,446,486z"/>
<path style="fill:#FF1E00;" d="M74.271,201.162c10.357,35.945,29.681,66.87,54.836,91.058
	c30.401,29.233,69.325,48.606,111.247,55.087c-18.07-21.408-32.031-46.874-40.289-75.533c-8.257-28.66-9.986-57.651-6.08-85.391
	c6.051-42.957,25.631-82.907,55.495-113.967C268.18,52.969,290.924,37.028,316.887,26H103.778
	c-18.341,26.053-30.583,56.215-35.343,88.096C64.217,142.344,65.846,171.926,74.271,201.162z"/>
<path style="fill:#FF1E00;" d="M437.729,310.839c-10.357-35.945-29.681-66.87-54.836-91.058
	c-30.401-29.233-69.325-48.606-111.247-55.087c18.069,21.408,32.031,46.873,40.289,75.533c8.257,28.659,9.986,57.651,6.08,85.39
	c-6.051,42.957-25.631,82.907-55.495,113.967c-18.7,19.448-41.444,35.388-67.406,46.417h213.107
	c18.34-26.054,30.583-56.216,35.342-88.098C447.783,369.657,446.154,340.075,437.729,310.839z"/>
</svg>
