<?xml version="1.0" encoding="utf-8"?>
<!-- Generator: Adobe Illustrator 22.0.1, SVG Export Plug-In . SVG Version: 6.00 Build 0)  -->
<svg version="1.1" id="Layer_3" xmlns="http://www.w3.org/2000/svg" xmlns:xlink="http://www.w3.org/1999/xlink" x="0px" y="0px"
	 viewBox="0 0 512 512" style="enable-background:new 0 0 512 512;" xml:space="preserve">
<style type="text/css">
	.st0{fill:#233308;}
	.st1{fill:url(#SVGID_1_);}
	.st2{fill:#FFFFFF;}
</style>
<path class="st0" d="M411,486H101c-41.4,0-75-33.6-75-75V101c0-41.4,33.6-75,75-75h310c41.4,0,75,33.6,75,75v310
	C486,452.4,452.4,486,411,486z"/>
<radialGradient id="SVGID_1_" cx="256" cy="256" r="230" gradientUnits="userSpaceOnUse">
	<stop  offset="0" style="stop-color:#FFFFFF;stop-opacity:0"/>
	<stop  offset="1" style="stop-color:#FFFFFF;stop-opacity:0.2"/>
</radialGradient>
<path class="st1" d="M485.6,418.3l-28.3-57.6l3.6-23.8l25-23.2v-3.6l-24.4,22.6l17-111.4l7.3,5.3v-3.3l-6.1-4.5l6.1-11.1v-16.7
	l-1.6-7.2l1.6-10.7v-17.6l-3.2,21.2l-18.1-79.6L484.5,86c-0.2-0.9-0.4-1.8-0.6-2.7l-19.8,11.2l-12.9-56.8c-1-0.7-2.1-1.3-3.2-1.9
	l13.6,60l-51.1,28.9l5.5-98.6c-0.9-0.1-1.8-0.1-2.7-0.1l-5.6,100.2l-31.2,17.6l-40.1-29.1l-28.7-58.3L332,26h-3.4l-22,27.8
	l-6.1-12.3l1.7-15.5h-2.7l-1.2,11.1L292.9,26h-3l7.9,16l-2.8,26.5l-8.1,10.2l-35.9-26L248.6,26h-2.7l2.2,24.6L214.2,26h-4.5
	l38.8,28.1l5.8,65.7l-52.3,66l-6-8L201.8,26h-2.7l-5.7,148.4L84.2,27.9c-0.9,0.2-1.9,0.4-2.8,0.7l111.9,150l-0.7,19.1L151,250.2
	L62.8,116.8L67,34.1c-0.9,0.5-1.8,1-2.7,1.5l-3.9,77.5l-28-42.3c-0.4,1-0.8,2-1.2,3l29,43.9l-9,176.3L26,202.2v10l24.7,90.1
	l-1.4,26.8L26,342.3v3.1l23.2-13.1L46.7,382L26,408.1v2.9c0,0.4,0,0.9,0,1.3l20.4-25.8l-3.7,71.7c0.8,1,1.6,2,2.5,2.9l4-78.3
	l17.5-22.1L101.2,486h2.8L68.8,358.3l53.3-67.3l38.3-21.7l27.8,42.1L181.6,486h2.7l6.5-170.9l67,101.3l-7.4,69.5h2.7l7.1-66
	l24.2,36.6l2.6,29.5h2.7l-2.2-24.8l13.6,20.6l-4.5,4.2h3.9l2.1-1.9l1.3,1.9h3.2l-2.5-3.8l54.7-50.7L328.9,486h3l33.4-60.3l7.3-6.8
	l49.4,66.3c1-0.1,2-0.3,2.9-0.5l-50.4-67.6l73.8-68.5l6.2,12.6l-18.4,120.5c1-0.3,1.9-0.7,2.9-1.1l17.6-115.2L485,423
	C485.3,421.5,485.5,419.9,485.6,418.3z M483.3,191l2.6,11.5l-6,10.9L483.3,191z M410.4,127.9l51.9-29.4l19.4,85.4l-5,32.6
	l-68.5-49.7L410.4,127.9z M408,170l68.2,49.5l-0.1,0.6l-46.6,84.1l-26.1-53L408,170z M271,278.3l-6.1-68.2l15.8-8.9l-8.4,78.8
	L271,278.3z M271.9,283.9l-0.2,1.9l-0.2-2.5L271.9,283.9z M268,274.3L233.5,228l29-16.4L268,274.3z M283.6,199.6l71.7-40.6
	l45.5,92.6l-3,53.2l2.7,0.1l2.7-48.5L428,307l-57.8,104.3l-95.6-128.1L283.6,199.6z M407.6,129.5l-2,35.5L379,145.6L407.6,129.5z
	 M405.5,168.1l-4.4,78.1l-43.5-88.5l18.8-10.7L405.5,168.1z M374.1,145.4l-17.7,10L339,119.9L374.1,145.4z M300,46.5l4.8,9.7
	l-6.7,8.5L300,46.5z M297.5,69.5l8.5-10.8l25.9,52.7l-36.1-26.2L297.5,69.5z M295.5,88.3l38.9,28.3l19.7,40.1l-70.2,39.7L295.5,88.3
	z M294.4,73.4l-1.1,10l-4.4-3.2L294.4,73.4z M287.3,82.4l5.7,4.1L281.1,198l-16.4,9.3l-7.7-86.6L287.3,82.4z M251.3,56.2l33.9,24.6
	l-28.5,36L251.3,56.2z M254.6,123.7l7.6,85l-30.3,17.1L203.7,188L254.6,123.7z M195.8,182l4.5,6l-4.9,6.2L195.8,182z M195.2,198.7
	l6.7-8.5l27.6,37l-36.2,20.5L195.2,198.7z M53,310.5l3.9,14.3l-4.8,2.7L53,310.5z M49.5,378.4l2.4-47.7l5.7-3.2l8.3,30.2L49.5,378.4
	z M68,355.1l-8-29l56-31.7L68,355.1z M120.4,288.9l-61.1,34.6L53.4,302l9.2-180.7l86.7,131.1L120.4,288.9z M126.5,285.4l24.3-30.7
	l8.1,12.3L126.5,285.4z M188.4,306.8L162.8,268l27.7-15.7L188.4,306.8z M190.6,249.2l-29.3,16.6l-8.7-13.2l39.9-50.3L190.6,249.2z
	 M258.2,412.3l-67.3-101.7l2.3-59.8l37.9-21.5l37.3,50l1.8,20.2L258.2,412.3z M260.5,415.8l11-102.7L283.7,451L260.5,415.8z
	 M363.2,424.1L302.9,480l-16.1-24.4l-13.9-156.1l1.3-12.4l94.6,126.8L363.2,424.1z M369.4,418.3l1.2-2.1l0.4,0.6L369.4,418.3z
	 M373,415l-1-1.3l57.4-103.7l17.8,36.2L373,415z M431,307.1l44-79.4l-16.5,107.9l-9.3,8.6L431,307.1z M455.3,356.5l-4.8-9.9l7.4-6.9
	L455.3,356.5z"/>
<g>
	<path class="st2" d="M186.1,216c-0.7-1.9-2.6-3.2-4.7-3.2h-3.1c-2.1,0-3.9,1.3-4.7,3.2l-29.2,76.4c-1.2,3.3,1.2,6.8,4.7,6.8h1
		c2.1,0,4-1.3,4.7-3.3l5.7-16c0.7-2,2.6-3.3,4.7-3.3h29.2c2.1,0,4,1.3,4.7,3.3l5.8,16c0.7,2,2.6,3.3,4.7,3.3h0.9
		c3.5,0,5.9-3.5,4.7-6.8L186.1,216z M187.5,267.3h-15.1c-3.5,0-5.9-3.4-4.7-6.7l7.5-20.8c1.6-4.4,7.8-4.4,9.4,0l7.6,20.8
		C193.3,263.8,190.9,267.3,187.5,267.3z"/>
	<path class="st2" d="M280.4,257.2c-2.5-1.9-2.8-5.6-0.4-7.7c1-0.9,1.9-1.9,2.7-2.9c2.3-3.1,3.4-6.7,3.4-10.7
		c0-7.6-2.4-13.3-7.1-17.2c-4.7-3.9-11.8-5.8-21.1-5.8h-23.2c-2.8,0-5,2.2-5,5v76.4c0,2.8,2.2,5,5,5h25c9.2,0,16.3-2.2,21.3-6.6
		c5-4.4,7.5-10.5,7.5-18.3c0-5.1-1.4-9.4-4.1-13.1C283.1,259.7,281.8,258.3,280.4,257.2z M240.9,227.1c0-2.8,2.2-5,5-5h11.8
		c5.7,0,9.9,1.1,12.6,3.2c2.8,2.2,4.2,5.6,4.2,10.4c0,4.3-1.5,7.7-4.5,10.2s-7,3.7-12,3.7h-12.2c-2.8,0-5-2.2-5-5V227.1z
		 M272.3,285.8c-3.1,2.8-7.2,4.1-12.5,4.1h-13.8c-2.8,0-5-2.2-5-5v-21.1c0-2.8,2.2-5,5-5h14c11.3,0,17,5.2,17,15.6
		C276.9,279.2,275.4,283,272.3,285.8z"/>
	<path class="st2" d="M362.7,271.8h-1.3c-2.3,0-4.3,1.6-4.9,3.8c-1.2,5.1-3.2,8.8-6,11.1c-3.4,2.9-8.2,4.3-14.6,4.3
		c-7,0-12.5-2.8-16.4-8.3c-3.9-5.5-5.9-13-5.9-22.4V252c0-9.9,2.1-17.6,6.2-23c4.1-5.4,9.8-8.1,17.1-8.1c5.9,0,10.5,1.5,13.9,4.6
		c2.6,2.5,4.5,6.2,5.7,11.1c0.5,2.3,2.5,3.9,4.9,3.9h1.4c3.2,0,5.6-3,4.9-6.1c-1.5-6.2-4.4-11.2-8.6-15.1
		c-5.5-5.1-12.9-7.7-22.1-7.7c-6.9,0-13,1.6-18.3,4.9c-5.3,3.3-9.3,7.9-12.2,14c-2.9,6.1-4.3,13.2-4.3,21.2v8.3
		c0,12.3,3.1,22,9.2,29.4c6.1,7.3,14.3,11,24.5,11c9.4,0,17-2.5,22.6-7.4c4.3-3.8,7.3-8.7,8.9-14.9
		C368.4,274.9,366,271.8,362.7,271.8z"/>
</g>
</svg>
