<?xml version="1.0" encoding="utf-8"?>
<!-- Generator: Adobe Illustrator 18.0.0, SVG Export Plug-In . SVG Version: 6.00 Build 0)  -->
<!DOCTYPE svg PUBLIC "-//W3C//DTD SVG 1.1//EN" "http://www.w3.org/Graphics/SVG/1.1/DTD/svg11.dtd">
<svg version="1.1" id="Layer_3" xmlns="http://www.w3.org/2000/svg" xmlns:xlink="http://www.w3.org/1999/xlink" x="0px" y="0px"
	 viewBox="0 0 512 512" style="enable-background:new 0 0 512 512;" xml:space="preserve">
<linearGradient id="SVGID_1_" gradientUnits="userSpaceOnUse" x1="256" y1="26" x2="256" y2="486">
	<stop  offset="0" style="stop-color:#8E8E93"/>
	<stop  offset="1" style="stop-color:#8E8E93"/>
</linearGradient>
<circle style="fill:url(#SVGID_1_);" cx="256" cy="256" r="230"/>
<path style="fill:#FFFFFF;" d="M356.232,256c0-10.394-3.937-20.198-10.876-28.867c6.802-8.601,10.633-18.317,10.633-28.603
	c0-35.184-44.821-63.709-100.11-63.709s-100.11,28.523-100.11,63.709c0,10.405,3.927,20.226,10.879,28.899
	c-6.791,8.595-10.637,18.294-10.637,28.57c0,10.276,3.845,19.975,10.637,28.57c-6.952,8.674-10.879,18.494-10.879,28.899
	c0,35.184,44.821,63.709,100.11,63.709s100.11-28.523,100.11-63.709c0-10.285-3.831-20.002-10.633-28.603
	C352.295,276.198,356.232,266.394,356.232,256z M327.88,284.832c-15.978,13.359-42.455,22.295-71.757,22.295
	c-29.446,0-56.047-9.023-71.999-22.491c-3.385-2.858-6.292-5.914-8.643-9.128c-4.421-6.045-6.885-12.645-6.885-19.508
	c0-6.864,2.466-13.462,6.885-19.508c9.663,8.274,22.405,15.007,37.147,19.508c13.092,3.998,27.76,6.239,43.253,6.239
	s30.16-2.241,43.253-6.239c14.895-4.549,27.743-11.377,37.442-19.769c4.541,6.116,7.075,12.807,7.075,19.769
	c0,6.962-2.534,13.652-7.075,19.769C334.204,278.963,331.274,281.995,327.88,284.832z M255.88,147.402
	c47.445,0,87.528,23.413,87.528,51.128c0,6.865-2.466,13.464-6.887,19.511c-2.349,3.215-5.258,6.269-8.642,9.126
	c-15.952,13.469-42.553,22.491-71.999,22.491c-29.301,0-55.78-8.936-71.757-22.295c-3.392-2.837-6.322-5.868-8.692-9.06
	c-4.542-6.117-7.077-12.809-7.077-19.772C168.353,170.817,208.437,147.402,255.88,147.402z M255.88,364.597
	c-47.445,0-87.528-23.413-87.528-51.128c0-6.964,2.535-13.656,7.077-19.772c18.223,15.772,47.573,26.013,80.691,26.013
	c32.937,0,62.156-10.125,80.399-25.75c4.421,6.047,6.887,12.647,6.887,19.511C343.409,341.182,303.325,364.597,255.88,364.597z"/>
</svg>
