<?xml version="1.0" encoding="utf-8"?>
<!-- Generator: Adobe Illustrator 22.0.1, SVG Export Plug-In . SVG Version: 6.00 Build 0)  -->
<svg version="1.1" id="Layer_2" xmlns="http://www.w3.org/2000/svg" xmlns:xlink="http://www.w3.org/1999/xlink" x="0px" y="0px"
	 viewBox="0 0 512 512" enable-background="new 0 0 512 512" xml:space="preserve">
<linearGradient id="SVGID_1_" gradientUnits="userSpaceOnUse" x1="256" y1="486" x2="256" y2="26">
	<stop  offset="0" style="stop-color:#81F1FD"/>
	<stop  offset="1" style="stop-color:#2279F0"/>
</linearGradient>
<circle fill="url(#SVGID_1_)" cx="256" cy="256" r="230"/>
<g>
	<g>
		<path fill="#FFFFFF" d="M296.333,335.274h-80.666c-15.863,0-28.723,12.86-28.723,28.723c0,15.863,12.86,28.723,28.723,28.723
			h80.666c15.863,0,28.723-12.86,28.723-28.723C325.056,348.134,312.197,335.274,296.333,335.274z"/>
		<g>
			<g>
				<path d="M227.138,357.648c-0.7-1.213-2.252-1.629-3.466-0.928l-17.602,10.163c-1.213,0.7-1.629,2.252-0.928,3.466
					c0.7,1.213,2.252,1.629,3.466,0.928l17.602-10.163C227.423,360.412,227.839,358.861,227.138,357.648z"/>
				<path d="M226.21,366.881l-17.602-10.163c-1.213-0.7-2.765-0.285-3.466,0.928c-0.7,1.213-0.285,2.765,0.928,3.466l17.602,10.163
					c1.213,0.7,2.765,0.285,3.466-0.928C227.839,369.134,227.423,367.582,226.21,366.881z"/>
				<path d="M216.14,351.298c-1.401,0-2.537,1.136-2.537,2.537v20.325c0,1.401,1.136,2.537,2.537,2.537s2.537-1.136,2.537-2.537
					v-20.325C218.677,352.433,217.541,351.298,216.14,351.298z"/>
			</g>
			<g>
				<path d="M253.712,357.648c-0.7-1.213-2.252-1.629-3.466-0.928l-17.602,10.163c-1.213,0.7-1.629,2.252-0.928,3.466
					c0.7,1.213,2.252,1.629,3.466,0.928l17.602-10.163C253.996,360.412,254.412,358.861,253.712,357.648z"/>
				<path d="M252.783,366.881l-17.602-10.163c-1.213-0.7-2.765-0.285-3.466,0.928c-0.7,1.213-0.285,2.765,0.928,3.466l17.602,10.163
					c1.213,0.7,2.765,0.285,3.466-0.928C254.412,369.134,253.996,367.582,252.783,366.881z"/>
				<path d="M242.713,351.298c-1.401,0-2.537,1.136-2.537,2.537v20.325c0,1.401,1.136,2.537,2.537,2.537s2.537-1.136,2.537-2.537
					v-20.325C245.25,352.433,244.115,351.298,242.713,351.298z"/>
			</g>
			<g>
				<path d="M280.285,357.648c-0.7-1.213-2.252-1.629-3.466-0.928l-17.602,10.163c-1.213,0.7-1.629,2.252-0.928,3.466
					c0.7,1.213,2.252,1.629,3.466,0.928l17.602-10.163C280.57,360.412,280.985,358.861,280.285,357.648z"/>
				<path d="M279.357,366.881l-17.602-10.163c-1.213-0.7-2.765-0.285-3.466,0.928c-0.7,1.213-0.285,2.765,0.928,3.466l17.602,10.163
					c1.213,0.7,2.765,0.285,3.466-0.928C280.985,369.134,280.57,367.582,279.357,366.881z"/>
				<path d="M269.287,351.298c-1.401,0-2.537,1.136-2.537,2.537v20.325c0,1.401,1.136,2.537,2.537,2.537s2.537-1.136,2.537-2.537
					v-20.325C271.824,352.433,270.688,351.298,269.287,351.298z"/>
			</g>
			<g>
				<path d="M306.858,357.648c-0.7-1.213-2.252-1.629-3.466-0.928l-17.602,10.163c-1.213,0.7-1.629,2.252-0.928,3.466
					c0.7,1.213,2.252,1.629,3.466,0.928l17.602-10.163C307.144,360.412,307.559,358.861,306.858,357.648z"/>
				<path d="M305.93,366.881l-17.602-10.163c-1.213-0.7-2.765-0.285-3.466,0.928c-0.7,1.213-0.285,2.765,0.928,3.466l17.602,10.163
					c1.213,0.7,2.765,0.285,3.466-0.928C307.559,369.134,307.144,367.582,305.93,366.881z"/>
				<path d="M295.86,351.298c-1.401,0-2.537,1.136-2.537,2.537v20.325c0,1.401,1.136,2.537,2.537,2.537s2.537-1.136,2.537-2.537
					v-20.325C298.397,352.433,297.261,351.298,295.86,351.298z"/>
			</g>
		</g>
	</g>
	<g>
		<circle fill="#123A5E" cx="256" cy="220" r="101.106"/>
		<path fill="#DDDDDD" d="M256,132.897c23.266,0,45.139,9.06,61.591,25.512c16.452,16.452,25.512,38.325,25.512,61.591
			s-9.06,45.139-25.512,61.591c-16.452,16.452-38.325,25.512-61.591,25.512c-23.266,0-45.139-9.06-61.591-25.512
			c-16.452-16.452-25.512-38.325-25.512-61.591s9.06-45.139,25.512-61.591C210.861,141.957,232.734,132.897,256,132.897
			 M256,118.894c-55.84,0-101.106,45.267-101.106,101.106c0,55.84,45.267,101.106,101.106,101.106
			c55.84,0,101.106-45.267,101.106-101.106C357.106,164.161,311.84,118.894,256,118.894L256,118.894z"/>
		<path fill="#FFFFFF" d="M270.936,260.774c0.211-11.382,21.392-11.602,24.292-49.672c0.357-4.681,0.312-9.908-0.398-15.164
			c-0.739-21.784-18.777-39.221-40.935-39.221c-19.348,0-35.553,13.297-39.846,31.172c-2.822,8.791-3.067,18.124-2.212,25.026
			c5.076,40.97,25.017,32.994,24.426,50.534c-0.356,10.57-21.548,13.449-37.782,21.939C214.39,299.42,234.6,307.103,256,307.103
			c20.864,0,40.594-7.306,56.313-20.674C294.412,275.883,270.71,272.973,270.936,260.774z"/>
	</g>
</g>
</svg>
