<?xml version="1.0" encoding="utf-8"?>
<!-- Generator: Adobe Illustrator 22.0.1, SVG Export Plug-In . SVG Version: 6.00 Build 0)  -->
<svg version="1.1" id="Layer_3" xmlns="http://www.w3.org/2000/svg" xmlns:xlink="http://www.w3.org/1999/xlink" x="0px" y="0px"
	 viewBox="0 0 512 512" style="enable-background:new 0 0 512 512;" xml:space="preserve">
<style type="text/css">
	.st0{fill:#FFA539;}
	.st1{fill:#FFBE55;}
</style>
<g>
	<g>
		<polygon class="st0" points="256,213.878 312.33,288.131 256,361.401 199.67,288.131 		"/>
		<path class="st1" d="M256,213.878l56.33,74.254L256,361.401l-56.33-73.27L256,213.878 M256,156.595l-27.582,36.359l-56.33,74.254
			l-15.98,21.064l16.115,20.961l56.33,73.27L256,418.204l27.447-35.701l56.33-73.27l16.115-20.961l-15.98-21.064l-56.33-74.254
			L256,156.595L256,156.595z"/>
	</g>
	<g>
		<g>
			<polygon class="st0" points="115.977,151.079 162.393,212.263 115.977,272.637 69.562,212.263 			"/>
			<path class="st1" d="M115.977,151.079l46.415,61.184l-46.415,60.374l-46.415-60.374L115.977,151.079 M115.977,93.796
				l-27.582,36.359L41.98,191.339L26,212.403l16.115,20.961l46.415,60.374l27.447,35.701l27.447-35.701l46.415-60.374l16.115-20.961
				l-15.98-21.064l-46.415-61.184L115.977,93.796L115.977,93.796z"/>
		</g>
		<g>
			<polygon class="st0" points="396.023,151.079 442.438,212.263 396.023,272.637 349.607,212.263 			"/>
			<path class="st1" d="M396.023,151.079l46.415,61.184l-46.415,60.374l-46.415-60.374L396.023,151.079 M396.023,93.796
				l-27.582,36.359l-46.415,61.184l-15.98,21.064l16.115,20.961l46.415,60.374l27.447,35.701l27.447-35.701l46.415-60.374
				L486,212.403l-15.98-21.064l-46.415-61.184L396.023,93.796L396.023,93.796z"/>
		</g>
	</g>
</g>
<g>
</g>
<g>
</g>
<g>
</g>
<g>
</g>
<g>
</g>
<g>
</g>
</svg>
