<?xml version="1.0" encoding="UTF-8" standalone="no"?>
<svg
   xmlns:dc="http://purl.org/dc/elements/1.1/"
   xmlns:cc="http://creativecommons.org/ns#"
   xmlns:rdf="http://www.w3.org/1999/02/22-rdf-syntax-ns#"
   xmlns:svg="http://www.w3.org/2000/svg"
   xmlns="http://www.w3.org/2000/svg"
   xml:space="preserve"
   enable-background="new 0 0 512 512"
   viewBox="0 0 512 512"
   y="0px"
   x="0px"
   id="Layer_1"
   version="1.1"><metadata
   id="metadata60"><rdf:RDF><cc:Work
       rdf:about=""><dc:format>image/svg+xml</dc:format><dc:type
         rdf:resource="http://purl.org/dc/dcmitype/StillImage" /><dc:title></dc:title></cc:Work></rdf:RDF></metadata><defs
   id="defs58" />
<g
   id="layer1"><path
     id="path7"
     d="M408.2,462.6H103.8c-2.8,0-5-2.2-5-5V54.4c0-2.8,2.2-5,5-5h304.3c2.8,0,5,2.2,5,5v403.1   C413.2,460.3,410.9,462.6,408.2,462.6z"
     fill="url(#SVGID_1_)"
     style="fill:#444452;fill-opacity:1" /></g>

<g
   id="layer3"><g
     id="g35"
     style="">
	<linearGradient
   y2="256"
   x2="413.1635"
   y1="256"
   x1="98.8365"
   gradientUnits="userSpaceOnUse"
   id="SVGID_1_">
		<stop
   id="stop2"
   style="stop-color:#F6F6F6"
   offset="0" />
		<stop
   id="stop4"
   style="stop-color:#EEEEEE"
   offset="1" />
	</linearGradient>
	
	<g
   id="g33"
   opacity="0.5">
		
		
		
		
		
		
		
		
		
		
		
		<g
   id="g4582"><g
     id="g4620"><rect
       id="rect9"
       height="1.8"
       width="312.5"
       fill="#AD6060"
       y="109.6"
       x="99.7" /><rect
       style="fill:#ffffff"
       id="rect11"
       height="1.8"
       width="312.5"
       fill="#A5A5A5"
       y="138.9"
       x="99.7" /><rect
       style="fill:#ffffff"
       id="rect13"
       height="1.8"
       width="312.5"
       fill="#A5A5A5"
       y="168.2"
       x="99.7" /><rect
       style="fill:#ffffff"
       id="rect15"
       height="1.8"
       width="312.5"
       fill="#A5A5A5"
       y="197.5"
       x="99.7" /><rect
       style="fill:#ffffff"
       id="rect17"
       height="1.8"
       width="312.5"
       fill="#A5A5A5"
       y="226.9"
       x="99.7" /><rect
       style="fill:#ffffff"
       id="rect19"
       height="1.8"
       width="312.5"
       fill="#A5A5A5"
       y="256.2"
       x="99.7" /><rect
       style="fill:#ffffff"
       id="rect21"
       height="1.8"
       width="312.5"
       fill="#A5A5A5"
       y="285.5"
       x="99.7" /><rect
       style="fill:#ffffff"
       id="rect23"
       height="1.8"
       width="312.5"
       fill="#A5A5A5"
       y="314.8"
       x="99.7" /><rect
       style="fill:#ffffff"
       id="rect25"
       height="1.8"
       width="312.5"
       fill="#A5A5A5"
       y="344.1"
       x="99.7" /><rect
       style="fill:#ffffff"
       id="rect27"
       height="1.8"
       width="312.5"
       fill="#A5A5A5"
       y="373.4"
       x="99.7" /><rect
       style="fill:#ffffff"
       id="rect29"
       height="1.8"
       width="312.5"
       fill="#A5A5A5"
       y="402.7"
       x="99.7" /><rect
       style="fill:#ffffff"
       id="rect31"
       height="1.8"
       width="312.5"
       fill="#A5A5A5"
       y="432"
       x="99.7" /></g></g>
	</g>
</g></g><g
   id="layer2"><g
     id="g53"
     style="">
	<g
   id="g43">
		
		
		
	</g>
	<g
   id="g51">
		
		
		<g
   id="g4595"><polygon
     style=""
     fill="#D6D6D6"
     points="256,358.3 276,323.7 256,335.1   "
     id="polygon37" /><path
     style=""
     fill="#C4834D"
     d="M256,153.7v170v11.4l20-11.4v-165c0-2.8-2.2-5-5-5H256z"
     id="path39" /><polygon
     style=""
     fill="#FFFFFF"
     points="236,323.7 256,358.3 256,335.1   "
     id="polygon41" /><polygon
     fill="#FFE000"
     points="236,323.7 256,335.1 256,168.6 236,168.6   "
     id="polygon45" /><path
     fill="#ADADAD"
     d="M271,153.7h-15v14.9h20v-9.9C276,155.9,273.8,153.7,271,153.7z"
     id="path47" /><path
     fill="#FFFFFF"
     d="M236,158.7v9.9h20v-14.9h-15C238.2,153.7,236,155.9,236,158.7z"
     id="path49" /></g>
	</g>
</g></g></svg>