<?xml version="1.0" encoding="UTF-8" standalone="no"?>
<!DOCTYPE svg PUBLIC "-//W3C//DTD SVG 1.1//EN" "http://www.w3.org/Graphics/SVG/1.1/DTD/svg11.dtd">
<svg width="100%" height="100%" viewBox="0 0 512 512" version="1.1" xmlns="http://www.w3.org/2000/svg" xmlns:xlink="http://www.w3.org/1999/xlink" xml:space="preserve" xmlns:serif="http://www.serif.com/" style="fill-rule:evenodd;clip-rule:evenodd;stroke-linejoin:round;stroke-miterlimit:1.41421;">
    <g id="Layer_1">
        <g id="g928">
            <g opacity="0.93">
                <path id="rect910" d="M123.722,34.865L387.847,34.865C413.411,34.865 434.135,55.589 434.135,81.153L434.135,428.847C434.135,454.411 413.411,475.135 387.847,475.135L123.722,475.135C98.158,475.135 77.434,454.411 77.434,428.847L77.434,81.153C77.434,55.589 98.158,34.865 123.722,34.865Z" style="fill:rgb(0,17,40);fill-rule:nonzero;"/>
                <path id="rect914" d="M123.099,25C92.506,25 67.569,49.936 67.569,80.528L67.569,429.472C67.569,460.064 92.506,485 123.099,485L388.472,485C419.064,485 444,460.064 444,429.472L444,80.528C444,49.936 419.064,25 388.472,25L123.099,25ZM123.099,44.73L388.472,44.73C408.475,44.73 424.27,60.525 424.27,80.528L424.27,429.472C424.27,449.475 408.475,465.27 388.472,465.27L123.099,465.27C103.096,465.27 87.299,449.475 87.299,429.472L87.299,80.528C87.299,60.525 103.096,44.73 123.099,44.73Z" style="fill:url(#_Linear1);fill-rule:nonzero;"/>
            </g>
        </g>
        <g id="g94">
            <g id="g12">
                <path id="rect4" d="M147.457,272.356L247.757,272.356C253.611,272.356 258.357,277.102 258.357,282.956C258.357,288.811 253.611,293.556 247.757,293.556L147.457,293.556C141.603,293.556 136.857,288.811 136.857,282.956C136.857,277.102 141.603,272.356 147.457,272.356Z" style="fill:rgb(55,113,200);fill-rule:nonzero;"/>
                <path id="rect6" d="M147.457,313.556L369.257,313.556C375.111,313.556 379.857,318.302 379.857,324.156C379.857,330.011 375.111,334.756 369.257,334.756L147.457,334.756C141.603,334.756 136.857,330.011 136.857,324.156C136.857,318.302 141.603,313.556 147.457,313.556Z" style="fill:rgb(55,113,200);fill-rule:nonzero;"/>
                <path id="rect8" d="M147.457,353.556L369.257,353.556C375.111,353.556 379.857,358.302 379.857,364.156C379.857,370.011 375.111,374.756 369.257,374.756L147.457,374.756C141.603,374.756 136.857,370.011 136.857,364.156C136.857,358.302 141.603,353.556 147.457,353.556Z" style="fill:rgb(55,113,200);fill-rule:nonzero;"/>
                <path id="rect10" d="M268.957,393.656L369.157,393.656C375.011,393.656 379.757,398.402 379.757,404.256C379.757,410.111 375.011,414.856 369.157,414.856L268.957,414.856C263.103,414.856 258.357,410.111 258.357,404.256C258.357,398.402 263.103,393.656 268.957,393.656Z" style="fill:rgb(55,113,200);fill-rule:nonzero;"/>
            </g>
            <g id="g92">
                <g id="g82">
                    <path id="polygon76" d="M258.357,354.156L278.357,319.556L258.357,330.956L258.357,354.156Z" style="fill:rgb(214,214,214);fill-rule:nonzero;"/>
                    <path id="path78" d="M258.357,149.556L258.357,330.956L278.357,319.556L278.357,154.556C278.357,151.756 276.157,149.556 273.357,149.556L258.357,149.556Z" style="fill:rgb(196,131,77);fill-rule:nonzero;"/>
                    <path id="polygon80" d="M238.357,319.556L258.357,354.156L258.357,330.956L238.357,319.556Z" style="fill:white;fill-rule:nonzero;"/>
                </g>
                <g id="g90">
                    <path id="polygon84" d="M238.357,319.556L258.357,330.956L258.357,164.456L238.357,164.456L238.357,319.556Z" style="fill:rgb(255,224,0);fill-rule:nonzero;"/>
                    <path id="path86" d="M273.357,149.556L258.357,149.556L258.357,164.456L278.357,164.456L278.357,154.556C278.357,151.756 276.157,149.556 273.357,149.556Z" style="fill:rgb(173,173,173);fill-rule:nonzero;"/>
                    <path id="path88" d="M238.357,154.556L238.357,164.456L258.357,164.456L258.357,149.556L243.357,149.556C240.557,149.556 238.357,151.756 238.357,154.556Z" style="fill:white;fill-rule:nonzero;"/>
                </g>
            </g>
        </g>
    </g>
    <defs>
        <linearGradient id="_Linear1" x1="0" y1="0" x2="1" y2="0" gradientUnits="userSpaceOnUse" gradientTransform="matrix(2.80215e-14,457.626,-457.626,2.80215e-14,247.015,25)"><stop offset="0" style="stop-color:rgb(0,85,212);stop-opacity:1"/><stop offset="1" style="stop-color:rgb(42,127,255);stop-opacity:1"/></linearGradient>
    </defs>
</svg>
