<?xml version="1.0" encoding="utf-8"?>
<!-- Generator: Adobe Illustrator 22.0.1, SVG Export Plug-In . SVG Version: 6.00 Build 0)  -->
<svg version="1.1" id="Layer_2" xmlns="http://www.w3.org/2000/svg" xmlns:xlink="http://www.w3.org/1999/xlink" x="0px" y="0px"
	 viewBox="0 0 512 512" enable-background="new 0 0 512 512" xml:space="preserve">
<g id="g928" transform="matrix(0.986517,0,0,0.986517,376.851,327.941)">
	<path id="rect914_1_" fill="#FFCC66" d="M-257.002-306.068c-31.011,0-56.289,25.277-56.289,56.287v353.713
		c0,31.011,25.278,56.287,56.289,56.287h269c31.01,0,56.287-25.276,56.287-56.287v-353.713c0-31.01-25.277-56.287-56.287-56.287
		H-257.002z"/>
	<path fill="#F7E494" d="M-313.291-202.167v306.099c0,31.011,25.278,56.287,56.289,56.287h269c31.01,0,56.287-25.276,56.287-56.287
		v-306.099H-313.291z"/>
</g>
<g id="g94">
	<g id="g74">
		<g id="g12">
			<path id="rect4" fill="#F7F7F7" d="M256,298.7c0-5.85-4.75-10.6-10.6-10.6H145.1c-5.85,0-10.6,4.75-10.6,10.6
				s4.75,10.6,10.6,10.6h100.3C251.25,309.3,256,304.55,256,298.7z"/>
			<path id="rect6" fill="#F7F7F7" d="M377.5,339.9c0-5.85-4.75-10.6-10.6-10.6H145.1c-5.85,0-10.6,4.75-10.6,10.6
				s4.75,10.6,10.6,10.6h221.8C372.75,350.5,377.5,345.75,377.5,339.9z"/>
			<path id="rect8" fill="#F7F7F7" d="M377.5,379.9c0-5.85-4.75-10.6-10.6-10.6H145.1c-5.85,0-10.6,4.75-10.6,10.6
				s4.75,10.6,10.6,10.6h221.8C372.75,390.5,377.5,385.75,377.5,379.9z"/>
			<path id="rect10" fill="#F7F7F7" d="M377.4,420c0-5.85-4.75-10.6-10.6-10.6H266.6c-5.85,0-10.6,4.75-10.6,10.6
				s4.75,10.6,10.6,10.6h100.2C372.65,430.6,377.4,425.85,377.4,420z"/>
		</g>
	</g>
	<g id="g92">
		<g id="g82">
			<path id="polygon76" fill="#D6D6D6" d="M256,369.9l20-34.6l-20,11.4V369.9z"/>
			<path id="path78" fill="#C4834D" d="M256,165.3v181.4l20-11.4v-165c0-2.8-2.2-5-5-5L256,165.3L256,165.3z"/>
			<path id="polygon80" fill="#FFFFFF" d="M236,335.3l20,34.6v-23.2L236,335.3z"/>
		</g>
		<g id="g90">
			<path id="polygon84" fill="#FFE000" d="M236,335.3l20,11.4V180.2h-20V335.3z"/>
			<path id="path86" fill="#ADADAD" d="M271,165.3h-15v14.9h20v-9.9C276,167.5,273.8,165.3,271,165.3z"/>
			<path id="path88" fill="#FFFFFF" d="M236,170.3v9.9h20v-14.9h-15C238.2,165.3,236,167.5,236,170.3z"/>
		</g>
	</g>
</g>
</svg>
