<?xml version="1.0" encoding="utf-8"?>
<!-- Generator: Adobe Illustrator 22.0.1, SVG Export Plug-In . SVG Version: 6.00 Build 0)  -->
<svg version="1.1"
	 id="svg2" xmlns:cc="http://creativecommons.org/ns#" xmlns:dc="http://purl.org/dc/elements/1.1/" xmlns:rdf="http://www.w3.org/1999/02/22-rdf-syntax-ns#" xmlns:svg="http://www.w3.org/2000/svg"
	 xmlns="http://www.w3.org/2000/svg" xmlns:xlink="http://www.w3.org/1999/xlink" x="0px" y="0px" viewBox="0 0 512 512"
	 enable-background="new 0 0 512 512" xml:space="preserve">
<linearGradient id="SVGID_1_" gradientUnits="userSpaceOnUse" x1="25" y1="257" x2="485" y2="257" gradientTransform="matrix(1 0 0 -1 0 512)">
	<stop  offset="0" style="stop-color:#F7F7F7"/>
	<stop  offset="1" style="stop-color:#F7F7F7"/>
</linearGradient>
<circle fill="url(#SVGID_1_)" cx="255" cy="255" r="230"/>
<path fill="#351804" d="M483.896,232.426c-3.88,3.743-45.944,39.655-231.534,39.655c-117.932,0-217.239-42.684-225.519-46.336
	C25.627,235.326,25,245.09,25,255c0,127.025,102.974,230,230,230s230-102.975,230-230C485,247.382,484.62,239.854,483.896,232.426z"
	/>
<path fill="#421803" d="M483.908,232.553c-6.337,9.224-112.211,158.862-231.545,39.528
	C108.787,128.506,35.08,214.089,27.018,224.492C25.695,234.475,25,244.656,25,255c0,127.025,102.974,230,230,230
	s230-102.975,230-230C485,247.426,484.623,239.94,483.908,232.553z"/>
<path fill="#D30C07" d="M386.534,242.822l-119.36-119.354c-6.872-6.875-18.02-6.875-24.899,0l-24.783,24.789l31.438,31.439
	c7.307-2.47,15.685-0.812,21.508,5.013c5.859,5.861,7.5,14.311,4.969,21.645l30.305,30.301c7.334-2.529,15.789-0.893,21.644,4.971
	c8.183,8.182,8.183,21.439,0,29.626c-8.188,8.185-21.445,8.185-29.635,0c-6.153-6.157-7.676-15.203-4.555-22.782l-28.264-28.261
	l0,74.369c1.994,0.987,3.878,2.302,5.537,3.964c8.181,8.181,8.181,21.439,0,29.629c-8.182,8.179-21.449,8.179-29.624,0
	c-8.182-8.194-8.182-21.451,0-29.629c2.022-2.021,4.364-3.55,6.864-4.574l0-75.062c-2.499-1.024-4.835-2.539-6.864-4.574
	c-6.198-6.194-7.688-15.291-4.51-22.903l-30.992-30.997l-81.846,81.837c-6.875,6.881-6.875,18.03,0,24.905L242.831,386.53
	c6.874,6.876,18.018,6.876,24.9,0l118.803-118.803C393.409,260.852,393.409,249.697,386.534,242.822z"/>
<path opacity="0.5" fill="#421803" d="M483.908,232.553c-6.337,9.224-112.211,158.862-231.545,39.528
	C108.787,128.506,35.08,214.089,27.018,224.492C25.695,234.475,25,244.656,25,255c0,127.025,102.974,230,230,230
	s230-102.975,230-230C485,247.426,484.623,239.94,483.908,232.553z"/>
<path opacity="0.75" fill="#351804" d="M484.209,232.11c0,0-88.998,117.87-219.959,40.39
	c-32.507-19.232-53.855-38.815-71.386-50.313c18.294,12.221,38.122,28.517,59.499,49.894
	C375.445,395.163,484.209,232.11,484.209,232.11z"/>
</svg>
