<?xml version="1.0" encoding="utf-8"?>
<!-- Generator: Adobe Illustrator 22.0.1, SVG Export Plug-In . SVG Version: 6.00 Build 0)  -->
<svg version="1.1" id="Layer_2" xmlns="http://www.w3.org/2000/svg" xmlns:xlink="http://www.w3.org/1999/xlink" x="0px" y="0px"
	 viewBox="0 0 512 512" enable-background="new 0 0 512 512" xml:space="preserve">
<g>
	<path fill="#E2380A" d="M411,486H101c-41.421,0-75-33.579-75-75V101c0-41.421,33.579-75,75-75h310c41.421,0,75,33.579,75,75v310
		C486,452.421,452.421,486,411,486z"/>
</g>
<circle fill="#FFFFFF" cx="256" cy="256" r="138"/>
<g>
	<path fill="none" d="M199.371,192.093c2.399-4.408,5.202-8.562,8.343-12.43C202.981,181.887,199.654,186.576,199.371,192.093z"/>
	<path fill="none" d="M199.322,319.151c0,8.041,6.515,14.577,14.577,14.577c8.041,0,14.567-6.536,14.567-14.577
		c0-8.062-6.526-14.577-14.567-14.577C205.837,304.573,199.322,311.088,199.322,319.151z"/>
	<path d="M203.375,276.498v19.76c-8.683,3.989-14.735,12.714-14.735,22.892c0,13.956,11.304,25.26,25.26,25.26
		s25.26-11.314,25.26-25.26c0-5.986-2.106-11.454-5.596-15.764C221.388,297.076,210.996,287.804,203.375,276.498z M228.466,319.151
		c0,8.041-6.526,14.577-14.567,14.577c-8.062,0-14.577-6.536-14.577-14.577c0-8.062,6.515-14.577,14.577-14.577
		C221.941,304.573,228.466,311.088,228.466,319.151z"/>
	<path d="M207.714,179.663c3.418-4.208,7.238-8.076,11.417-11.529c-1.688-0.355-3.437-0.545-5.232-0.545
		c-13.956,0-25.26,11.304-25.26,25.26c0,5.289,1.648,10.177,4.437,14.223c1.606-5.237,3.72-10.251,6.294-14.979
		C199.654,186.576,202.981,181.887,207.714,179.663z"/>
	<path d="M199.333,192.849c0,8.041,6.515,14.577,14.567,14.577c8.041,0,14.567-6.536,14.567-14.577
		c0-8.062-6.526-14.577-14.567-14.577c-2.215,0-4.306,0.508-6.185,1.391c-3.142,3.868-5.944,8.022-8.343,12.43
		C199.358,192.345,199.333,192.594,199.333,192.849z"/>
	<path d="M193.077,207.072c-2.321,7.567-3.577,15.6-3.577,23.928c0,16.85,5.115,32.504,13.875,45.498v-60.746
		C199.208,213.831,195.656,210.811,193.077,207.072z"/>
	<path d="M298.1,207.427c8.041,0,14.567-6.536,14.567-14.577c0-8.062-6.526-14.577-14.567-14.577
		c-8.062,0-14.577,6.515-14.577,14.577C283.523,200.891,290.038,207.427,298.1,207.427z"/>
	<path d="M271,149.5c-19.705,0-37.777,6.994-51.869,18.634c11.443,2.408,20.029,12.553,20.029,24.715
		c0,10.178-6.052,18.903-14.735,22.903v43.374c8.631-5.736,18.724-9.546,27.881-12.988c21.734-8.146,34.238-13.809,35.101-30.481
		c-8.589-4.031-14.567-12.693-14.567-22.808c0-13.956,11.304-25.26,25.26-25.26s25.26,11.304,25.26,25.26
		c0,10.22-6.105,18.977-14.83,22.955c-1.042,32.049-27.471,42.037-48.836,50.057c-21.724,8.146-34.238,13.819-35.101,30.481
		c3.505,1.645,6.564,4.072,8.971,7.044c11.213,5.811,23.935,9.114,37.436,9.114c45.011,0,81.5-36.489,81.5-81.5
		S316.011,149.5,271,149.5z"/>
	<path fill="#FFFFFF" d="M224.593,296.343c0.863-16.661,13.377-22.334,35.101-30.481c21.366-8.02,47.794-18.008,48.836-50.057
		c8.725-3.978,14.83-12.735,14.83-22.955c0-13.956-11.304-25.26-25.26-25.26s-25.26,11.304-25.26,25.26
		c0,10.115,5.978,18.777,14.567,22.808c-0.863,16.672-13.367,22.334-35.101,30.481c-9.157,3.442-19.25,7.252-27.881,12.988v-43.374
		c8.683-4,14.735-12.725,14.735-22.903c0-12.162-8.586-22.307-20.029-24.715c-4.179,3.452-7.999,7.32-11.417,11.529
		c1.879-0.883,3.97-1.391,6.185-1.391c8.041,0,14.567,6.515,14.567,14.577c0,8.041-6.526,14.577-14.567,14.577
		c-8.052,0-14.567-6.536-14.567-14.577c0-0.256,0.025-0.505,0.038-0.757c-2.574,4.729-4.688,9.743-6.294,14.979
		c2.579,3.739,6.132,6.759,10.298,8.68v60.746c7.622,11.306,18.014,20.578,30.189,26.888
		C231.157,300.414,228.098,297.988,224.593,296.343z M283.523,192.849c0-8.062,6.515-14.577,14.577-14.577
		c8.041,0,14.567,6.515,14.567,14.577c0,8.041-6.526,14.577-14.567,14.577C290.038,207.427,283.523,200.891,283.523,192.849z"/>
</g>
</svg>
