<?xml version="1.0" encoding="utf-8"?>
<!-- Generator: Adobe Illustrator 22.0.1, SVG Export Plug-In . SVG Version: 6.00 Build 0)  -->
<svg version="1.1" id="Layer_2" xmlns="http://www.w3.org/2000/svg" xmlns:xlink="http://www.w3.org/1999/xlink" x="0px" y="0px"
	 viewBox="0 0 512 512" style="enable-background:new 0 0 512 512;" xml:space="preserve">
<radialGradient id="SVGID_1_" cx="256" cy="256" r="230" gradientUnits="userSpaceOnUse">
	<stop  offset="0" style="stop-color:#FFFFFF"/>
	<stop  offset="1" style="stop-color:#CFCFCF"/>
</radialGradient>
<path style="fill:url(#SVGID_1_);" d="M411,486H101c-41.421,0-75-33.579-75-75V101c0-41.421,33.579-75,75-75h310
	c41.421,0,75,33.579,75,75v310C486,452.421,452.421,486,411,486z"/>
<g>
	<circle style="fill:#E2380A;" cx="256" cy="256" r="138"/>
	<path style="fill:#FFFFFF;" d="M323.361,192.849c0-13.956-11.304-25.26-25.26-25.26c-13.956,0-25.26,11.304-25.26,25.26
		c0,10.115,5.978,18.777,14.567,22.808c-0.863,16.672-13.367,22.334-35.101,30.481c-9.157,3.442-19.25,7.252-27.881,12.988v-43.374
		c8.683-4,14.735-12.725,14.735-22.903c0-13.956-11.304-25.26-25.26-25.26c-13.956,0-25.26,11.304-25.26,25.26
		c0,10.178,6.062,18.903,14.735,22.903v80.507c-8.683,3.989-14.735,12.714-14.735,22.892c0,13.956,11.304,25.26,25.26,25.26
		s25.26-11.314,25.26-25.26c0-10.115-5.978-18.777-14.567-22.808c0.863-16.661,13.377-22.334,35.101-30.481
		c21.366-8.02,47.794-18.008,48.836-50.057C317.256,211.826,323.361,203.069,323.361,192.849z M213.9,178.272
		c8.041,0,14.567,6.515,14.567,14.577c0,8.041-6.526,14.577-14.567,14.577c-8.052,0-14.567-6.536-14.567-14.577
		C199.333,184.787,205.848,178.272,213.9,178.272z M213.9,333.728c-8.062,0-14.577-6.536-14.577-14.577
		c0-8.062,6.515-14.577,14.577-14.577c8.041,0,14.567,6.515,14.567,14.577C228.466,327.192,221.941,333.728,213.9,333.728z
		 M298.1,207.427c-8.062,0-14.577-6.536-14.577-14.577c0-8.062,6.515-14.577,14.577-14.577c8.041,0,14.567,6.515,14.567,14.577
		C312.667,200.891,306.142,207.427,298.1,207.427z"/>
</g>
</svg>
