<?xml version="1.0" encoding="utf-8"?>
<!-- Generator: Adobe Illustrator 22.0.1, SVG Export Plug-In . SVG Version: 6.00 Build 0)  -->
<svg version="1.1" id="Layer_2" xmlns="http://www.w3.org/2000/svg" xmlns:xlink="http://www.w3.org/1999/xlink" x="0px" y="0px"
	 viewBox="0 0 512 512" style="enable-background:new 0 0 512 512;" xml:space="preserve">
<g>
	<path d="M446,485.95H66c-22.1,0-40-17.9-40-40v-380c0-22.1,17.9-40,40-40h380c22.1,0,40,17.9,40,40v380
		C486,468.05,468.1,485.95,446,485.95z"/>
	
		<linearGradient id="SVGID_1_" gradientUnits="userSpaceOnUse" x1="256" y1="487.05" x2="256" y2="27.05" gradientTransform="matrix(1 0 0 -1 0 513)">
		<stop  offset="0" style="stop-color:#FFFFFF"/>
		<stop  offset="1" style="stop-color:#FFFFFF;stop-opacity:0.5"/>
	</linearGradient>
	<path style="fill:url(#SVGID_1_);" d="M446,35.95c16.5,0,30,13.5,30,30v380c0,16.5-13.5,30-30,30H66c-16.5,0-30-13.5-30-30v-380
		c0-16.5,13.5-30,30-30H446 M446,25.95H66c-22.1,0-40,17.9-40,40v380c0,22.1,17.9,40,40,40h380c22.1,0,40-17.9,40-40v-380
		C486,43.85,468.1,25.95,446,25.95L446,25.95z"/>
</g>
<g>
	<g>
		<g>
			<path style="fill:#0081D1;" d="M215.708,277.544L215.708,277.544h-76.309c-17.515,0-31.823,14.308-31.823,31.823
				s14.308,31.823,31.823,31.823l0,0h76.309c17.515,0,31.823-14.308,31.823-31.823S233.222,277.544,215.708,277.544z"/>
			<polygon style="display:none;fill:#FFFFFF;" points="158.723,300.486 153.213,294.895 135.369,312.738 125.584,302.953 
				120.075,308.462 129.86,318.248 129.86,318.248 135.369,323.839 135.369,323.839 135.369,323.839 140.961,318.248 
				140.961,318.248 			"/>
		</g>
		<g>
			<path style="fill:#0081D1;" d="M372.601,277.544L372.601,277.544h-76.309c-17.515,0-31.823,14.308-31.823,31.823
				s14.308,31.823,31.823,31.823l0,0h76.309c17.515,0,31.823-14.308,31.823-31.823S390.116,277.544,372.601,277.544z"/>
			<path style="fill:#FFFFFF;" d="M372.601,285.109c-13.321,0-24.175,10.854-24.175,24.175c0,13.321,10.854,24.175,24.175,24.175
				c13.321,0,24.175-10.854,24.175-24.175C396.777,295.963,385.922,285.109,372.601,285.109z"/>
			<polygon style="display:none;fill:#FFFFFF;" points="315.616,300.486 310.107,294.895 292.263,312.738 282.478,302.953 
				276.968,308.462 286.754,318.248 286.754,318.248 292.263,323.839 292.263,323.839 292.263,323.839 297.855,318.248 
				297.855,318.248 			"/>
		</g>
	</g>
	<g>
		<path style="fill:#0081D1;" d="M372.601,170.81H139.399c-17.515,0-31.823,14.308-31.823,31.823l0,0
			c0,17.515,14.308,31.823,31.823,31.823h233.203c17.515,0,31.823-14.308,31.823-31.823l0,0
			C404.424,185.2,390.116,170.81,372.601,170.81z"/>
		<path style="opacity:0.5;fill:#FFFFFF;enable-background:new    ;" d="M139.399,216.119h233.203
			c7.318,0,13.486-6.167,13.486-13.486s-6.167-13.486-13.486-13.486H139.399c-7.318,0-13.486,6.167-13.486,13.486
			C125.913,209.952,132.08,216.119,139.399,216.119z"/>
		<path style="fill:#FFFFFF;" d="M140.139,178.458c-13.321,0-24.175,10.854-24.175,24.175c0,13.321,10.854,24.175,24.175,24.175
			s24.175-10.854,24.175-24.175C164.314,189.312,153.46,178.458,140.139,178.458z"/>
	</g>
</g>
</svg>
