<?xml version="1.0" encoding="utf-8"?>
<!-- Generator: Adobe Illustrator 18.0.0, SVG Export Plug-In . SVG Version: 6.00 Build 0)  -->
<!DOCTYPE svg PUBLIC "-//W3C//DTD SVG 1.1//EN" "http://www.w3.org/Graphics/SVG/1.1/DTD/svg11.dtd">
<svg version="1.1" id="Layer_1" xmlns="http://www.w3.org/2000/svg" xmlns:xlink="http://www.w3.org/1999/xlink" x="0px" y="0px"
	 viewBox="0 0 512 512" style="enable-background:new 0 0 512 512;" xml:space="preserve">
<g id="Layer_2_1_">
	<g>
		<path style="fill:#0196FC;" d="M303.437,26.123c0,0-7.75,76.995-7.489,81.247c0,0,20.288,1.853,33.999,5.951
			c25.287,7.558,48.223,18.977,68.038,36.278c36.109,31.527,56.422,71.815,61.807,118.833
			c6.873,60.012-9.758,112.925-52.676,156.763c-33.565,34.284-74.414,54.258-121.595,59.436
			c-55.427,6.082-106.043-8.083-150.084-43.014c-44.275-35.117-71.726-80.998-80.983-136.399
			c-11.645-69.703,3.66-133.592,48.521-189.13c40.27-49.855,93.045-78.112,156.052-87.695c9.588-1.459,19.376-1.639,29.083-2.229
			C291.062,25.987,299.48,25.924,303.437,26.123z M285.869,188.829l-7.487,83.161c20.507-3.679,33.032,10.503,27.017,30.591
			c-5.337,17.829-22.246,30.336-41.76,30.698c-34.87,0.649-63.882-30.639-63.882-73.605c0-42.019,25.692-64.074,56.244-75.256
			c10.774-3.944,28.844-6.332,28.844-6.332l4.911-71.011c0,0-55.796-1.735-96.605,31.489
			c-39.088,29.786-59.986,69.373-61.066,118.305c-0.594,26.909,7.364,52.303,21.631,75.497
			c37.483,60.934,118.761,85.028,181.878,38.413c29.524-21.805,45.297-51.794,44.327-88.29
			c-0.916-34.483-16.281-62.83-46.033-81.762C319.503,191.567,303.55,186.884,285.869,188.829z"/>
	</g>
</g>
</svg>
