<?xml version="1.0" encoding="utf-8"?>
<!-- Generator: Adobe Illustrator 18.0.0, SVG Export Plug-In . SVG Version: 6.00 Build 0)  -->
<!DOCTYPE svg PUBLIC "-//W3C//DTD SVG 1.1//EN" "http://www.w3.org/Graphics/SVG/1.1/DTD/svg11.dtd">
<svg version="1.1" id="Layer_1" xmlns="http://www.w3.org/2000/svg" xmlns:xlink="http://www.w3.org/1999/xlink" x="0px" y="0px"
	 viewBox="0 0 512 512" style="enable-background:new 0 0 512 512;" xml:space="preserve">
<g style="opacity:0.4;">
	<path d="M234.071,74.201H44.869C34.415,74.201,26,82.87,26,93.07v294.002c0,10.455,8.67,19.124,18.869,19.124h132.594
		c48.703,0,75.732,43.603,75.732,43.603V93.325C253.195,82.615,244.78,74.201,234.071,74.201z"/>
	<path d="M277.674,74.201h189.202C477.33,74.201,486,82.87,486,93.07v294.002c0,10.455-8.67,19.124-19.124,19.124H334.282
		c-48.703,0-75.732,43.603-75.732,43.603V93.325C258.55,82.615,267.219,74.201,277.674,74.201z"/>
</g>
<g>
	<path style="fill:#FAA53E;" d="M234.071,68.201H44.869C34.415,68.201,26,76.87,26,87.07v294.002
		c0,10.455,8.67,19.124,18.869,19.124h132.594c48.703,0,75.732,43.603,75.732,43.603V87.325
		C253.195,76.615,244.78,68.201,234.071,68.201z"/>
	<path style="fill:#FAA53E;" d="M277.674,68.201h189.202C477.33,68.201,486,76.87,486,87.07v294.002
		c0,10.455-8.67,19.124-19.124,19.124H334.282c-48.703,0-75.732,43.603-75.732,43.603V87.325
		C258.55,76.615,267.219,68.201,277.674,68.201z"/>
</g>
</svg>
