<?xml version="1.0" encoding="utf-8"?>
<!-- Generator: Adobe Illustrator 18.0.0, SVG Export Plug-In . SVG Version: 6.00 Build 0)  -->
<!DOCTYPE svg PUBLIC "-//W3C//DTD SVG 1.1//EN" "http://www.w3.org/Graphics/SVG/1.1/DTD/svg11.dtd">
<svg version="1.1" id="Layer_1" xmlns="http://www.w3.org/2000/svg" xmlns:xlink="http://www.w3.org/1999/xlink" x="0px" y="0px"
	 viewBox="0 0 512 512" style="enable-background:new 0 0 512 512;" xml:space="preserve">
<g>
	<g>
		<path style="fill:#B0B0B0;" d="M90.892,105.116l31.73,81.706c13.447,13.447,38.72,9.977,56.448-7.752s21.199-43.001,7.752-56.448
			l-81.706-31.73C96.207,87.432,87.432,96.207,90.892,105.116z"/>
		<path style="fill:#B0B0B0;" d="M332.93,332.93c-17.728,17.728-21.199,43.001-7.752,56.448l81.706,31.73
			c8.909,3.46,17.685-5.315,14.225-14.225l-31.73-81.706C375.931,311.731,350.658,315.202,332.93,332.93z"/>
	</g>
	<g>
		<path style="fill:#B0B0B0;" d="M90.892,406.884l31.73-81.706c13.447-13.447,38.72-9.977,56.448,7.752s21.199,43.001,7.752,56.448
			l-81.706,31.73C96.207,424.568,87.432,415.793,90.892,406.884z"/>
		<path style="fill:#B0B0B0;" d="M332.93,179.07c-17.728-17.728-21.199-43.001-7.752-56.448l81.706-31.73
			c8.909-3.46,17.685,5.315,14.225,14.225l-31.73,81.706C375.931,200.269,350.658,196.798,332.93,179.07z"/>
	</g>
	<circle style="fill:#444444;" cx="256" cy="249.131" r="164.41"/>
	<g>
		<path style="fill:#606060;" d="M420.208,257.286c0.132-2.702,0.202-5.42,0.202-8.155c0-90.801-73.609-164.41-164.41-164.41
			v172.565H420.208z"/>
		<path style="fill:#606060;" d="M256,413.541V257.286H91.792C96.043,344.298,167.933,413.541,256,413.541z"/>
	</g>
	<g>
		<path style="fill:#D8D6D6;" d="M245.942,32.56l-35.338,80.211c0,19.017,20.325,34.433,45.396,34.433s45.396-15.416,45.396-34.433
			L266.058,32.56C262.205,23.813,249.795,23.813,245.942,32.56z"/>
		<path style="fill:#D8D6D6;" d="M256,364.795c-25.072,0-45.396,15.416-45.396,34.433l35.338,80.211
			c3.853,8.747,16.263,8.747,20.117,0l35.338-80.211C301.396,380.212,281.072,364.795,256,364.795z"/>
	</g>
	<g>
		<path style="fill:#D8D6D6;" d="M479.44,266.058l-80.211,35.338c-19.017,0-34.433-20.325-34.433-45.396
			s15.416-45.396,34.433-45.396l80.211,35.338C488.187,249.795,488.187,262.205,479.44,266.058z"/>
		<path style="fill:#D8D6D6;" d="M147.205,256c0,25.072-15.416,45.396-34.433,45.396L32.56,266.058
			c-8.747-3.853-8.747-16.263,0-20.117l80.211-35.338C131.788,210.604,147.205,230.928,147.205,256z"/>
	</g>
	<circle style="fill:#D8D6D6;" cx="256" cy="256" r="45.396"/>
	
		<linearGradient id="SVGID_1_" gradientUnits="userSpaceOnUse" x1="256" y1="210.604" x2="256" y2="254.7145" gradientTransform="matrix(1 0 0 -1 0 512)">
		<stop  offset="0" style="stop-color:#A7A7A7"/>
		<stop  offset="1" style="stop-color:#9F9F9F;stop-opacity:0"/>
	</linearGradient>
	<path style="fill:url(#SVGID_1_);" d="M251.104,258.436l-35.748,17.784c7.438,14.921,22.839,25.176,40.644,25.176
		s33.206-10.255,40.644-25.176l-35.748-17.784C257.812,256.902,254.188,256.902,251.104,258.436z"/>
	
		<linearGradient id="SVGID_2_" gradientUnits="userSpaceOnUse" x1="256" y1="179.4769" x2="256" y2="224.0002" gradientTransform="matrix(1 0 0 1 0 30.6581)">
		<stop  offset="0" style="stop-color:#A7A7A7"/>
		<stop  offset="1" style="stop-color:#9F9F9F;stop-opacity:0"/>
	</linearGradient>
	<path style="fill:url(#SVGID_2_);" d="M251.014,253.462l-35.658-18.151c7.438-14.921,22.839-25.176,40.644-25.176
		s33.206,10.255,40.644,25.176l-35.658,18.151C257.853,255.057,254.147,255.057,251.014,253.462z"/>
</g>
</svg>
