<?xml version="1.0" encoding="utf-8"?>
<!-- Generator: Adobe Illustrator 22.0.1, SVG Export Plug-In . SVG Version: 6.00 Build 0)  -->
<svg version="1.1"
	 id="svg2" xmlns:cc="http://creativecommons.org/ns#" xmlns:dc="http://purl.org/dc/elements/1.1/" xmlns:rdf="http://www.w3.org/1999/02/22-rdf-syntax-ns#" xmlns:svg="http://www.w3.org/2000/svg"
	 xmlns="http://www.w3.org/2000/svg" xmlns:xlink="http://www.w3.org/1999/xlink" x="0px" y="0px" viewBox="0 0 512 512"
	 style="enable-background:new 0 0 512 512;" xml:space="preserve">
<g>
	<g>
		<path style="opacity:0.4;" d="M479.028,238.842h-44.212c-2.079-18.433-6.93-36.174-14.137-52.528l37.837-21.898
			c3.326-1.94,4.435-6.098,2.495-9.425L447.983,132.4c-1.94-3.326-6.098-4.435-9.424-2.495l-37.975,21.898
			c-10.533-14.275-23.284-27.026-37.56-37.56l22.591-39.084c1.94-3.326,0.832-7.484-2.495-9.425l-22.591-13.028
			c-3.326-1.94-7.484-0.832-9.425,2.495l-22.453,38.945c-16.632-7.346-34.649-12.335-53.637-14.275V34.828
			c0-3.881-3.049-6.93-6.93-6.93H241.89c-3.881,0-6.93,3.049-6.93,6.93v45.321c-18.433,2.079-36.035,7.068-52.389,14.414
			l-22.73-39.223c-1.94-3.326-6.098-4.435-9.425-2.495l-22.591,13.028c-3.326,1.94-4.435,6.098-2.495,9.425l22.868,39.638
			c-14.137,10.533-26.61,23.284-37.144,37.421l-38.668-22.314c-3.326-1.94-7.484-0.832-9.425,2.495L49.935,155.13
			c-1.94,3.326-0.832,7.484,2.495,9.425l38.668,22.314c-7.068,16.216-11.919,33.679-13.86,51.974H33.026
			c-3.881,0-6.93,3.049-6.93,6.93v26.195c0,3.881,3.049,6.93,6.93,6.93h44.212c2.079,18.295,6.791,35.619,13.86,51.835
			l-38.807,22.175c-3.326,1.94-4.435,6.098-2.495,9.425l13.028,22.591c1.94,3.326,6.098,4.435,9.425,2.495l38.53-22.314
			c10.81,14.83,23.977,27.858,38.807,38.807l-21.621,37.421c-1.94,3.326-0.832,7.484,2.495,9.425l22.591,13.028
			c3.326,1.94,7.484,0.832,9.425-2.495l21.621-37.56c15.8,6.93,32.847,11.503,50.726,13.582v43.242c0,3.881,3.049,6.93,6.93,6.93
			h26.195c3.881,0,6.93-3.049,6.93-6.93V437.45c18.295-1.94,35.619-6.514,51.835-13.444l21.482,37.144
			c1.94,3.326,6.098,4.435,9.425,2.495l22.591-13.028c3.326-1.94,4.435-6.098,2.495-9.424l-21.344-37.005
			c14.968-10.81,28.135-23.977,39.223-38.807l37.837,21.898c3.326,1.94,7.484,0.832,9.424-2.495l13.028-22.591
			c1.94-3.326,0.832-7.484-2.495-9.425l-37.421-21.621c7.207-16.354,11.919-33.817,13.998-52.251h44.212
			c3.881,0,6.93-3.049,6.93-6.93v-26.195C485.958,241.891,482.909,238.842,479.028,238.842z M394.623,278.896
			c-1.525,11.088-4.435,21.898-8.593,32.154c-4.989,12.335-11.642,23.977-20.096,34.649c-3.326,4.296-7.068,8.316-10.949,12.335
			c-4.296,4.296-8.732,8.177-13.444,11.919c-10.672,8.316-22.453,14.83-34.788,19.681c-10.117,3.881-20.789,6.653-31.738,8.177
			c-6.237,0.832-12.612,1.247-18.988,1.247c-7.068,0-14.137-0.554-21.067-1.525c-10.533-1.525-20.789-4.296-30.491-8.177
			c-12.335-4.851-24.116-11.642-34.649-19.958c-4.435-3.465-8.732-7.207-12.751-11.365c-4.019-4.019-7.761-8.316-11.226-12.612
			c-8.316-10.672-15.107-22.314-19.958-34.649c-4.019-10.117-6.791-20.789-8.454-31.6c-0.97-6.514-1.386-13.305-1.386-19.958
			c0-6.791,0.416-13.444,1.386-19.958c1.525-10.949,4.435-21.621,8.454-31.877c4.989-12.335,11.642-23.977,19.958-34.649
			c3.465-4.296,7.068-8.454,11.088-12.474c3.604-3.604,7.346-6.93,11.365-10.118c10.533-8.454,22.037-15.384,34.372-20.374
			c10.256-4.296,21.067-7.207,32.293-8.87c6.93-0.97,13.86-1.525,21.067-1.525c6.375,0,12.751,0.416,18.988,1.247
			c11.503,1.525,22.73,4.574,33.402,8.87c12.335,4.989,23.977,11.781,34.51,20.235c4.158,3.326,8.177,6.93,12.058,10.672
			c3.881,3.881,7.484,7.9,10.81,12.058c8.454,10.533,15.107,22.175,20.096,34.51c4.158,10.395,7.068,21.205,8.732,32.293
			c0.97,6.514,1.386,13.305,1.386,19.958C396.009,265.591,395.593,272.243,394.623,278.896z"/>
		<path style="opacity:0.4;" d="M256.027,158.872c55.161,0,100.066,44.905,100.066,100.066s-44.905,100.066-100.066,100.066
			s-100.066-44.905-100.066-100.066S200.866,158.872,256.027,158.872 M256.027,118.818c-77.337,0-139.982,62.645-139.982,139.982
			s62.645,139.982,139.982,139.982s139.982-62.645,139.982-139.982S333.364,118.818,256.027,118.818L256.027,118.818z"/>
	</g>
	<path style="fill:#E8E8E8;" d="M479.028,231.912h-44.212c-2.079-18.433-6.93-36.174-14.137-52.528l37.837-21.898
		c3.326-1.94,4.435-6.098,2.495-9.425l-13.028-22.591c-1.94-3.326-6.098-4.435-9.424-2.495l-37.975,21.898
		c-10.533-14.275-23.284-27.026-37.56-37.56l22.591-39.084c1.94-3.326,0.832-7.484-2.495-9.425l-22.591-13.028
		c-3.326-1.94-7.484-0.832-9.425,2.495l-22.453,38.945c-16.632-7.346-34.649-12.335-53.637-14.275V27.899
		c0-3.881-3.049-6.93-6.93-6.93H241.89c-3.881,0-6.93,3.049-6.93,6.93v45.321c-18.433,2.079-36.035,7.068-52.389,14.414
		l-22.73-39.223c-1.94-3.326-6.098-4.435-9.425-2.495l-22.591,13.028c-3.326,1.94-4.435,6.098-2.495,9.425l22.868,39.638
		c-14.137,10.533-26.61,23.284-37.144,37.421l-38.668-22.314c-3.326-1.94-7.484-0.832-9.425,2.495L49.935,148.2
		c-1.94,3.326-0.832,7.484,2.495,9.425l38.668,22.314c-7.068,16.216-11.919,33.679-13.86,51.973H33.026
		c-3.881,0-6.93,3.049-6.93,6.93v26.195c0,3.881,3.049,6.93,6.93,6.93h44.212c2.079,18.295,6.791,35.619,13.86,51.835
		l-38.807,22.175c-3.326,1.94-4.435,6.098-2.495,9.424l13.028,22.591c1.94,3.326,6.098,4.435,9.425,2.495l38.53-22.314
		c10.81,14.83,23.977,27.858,38.807,38.807L127.964,434.4c-1.94,3.326-0.832,7.484,2.495,9.424l22.591,13.028
		c3.326,1.94,7.484,0.832,9.425-2.495l21.621-37.56c15.8,6.93,32.847,11.503,50.726,13.582v43.242c0,3.881,3.049,6.93,6.93,6.93
		h26.195c3.881,0,6.93-3.049,6.93-6.93V430.52c18.295-1.94,35.619-6.514,51.835-13.444l21.482,37.144
		c1.94,3.326,6.098,4.435,9.425,2.495l22.591-13.028c3.326-1.94,4.435-6.098,2.495-9.424l-21.344-37.005
		c14.968-10.81,28.135-23.977,39.223-38.807l37.837,21.898c3.326,1.94,7.484,0.832,9.424-2.495l13.028-22.591
		c1.94-3.326,0.832-7.484-2.495-9.424l-37.421-21.621c7.207-16.354,11.919-33.817,13.998-52.251h44.212
		c3.881,0,6.93-3.049,6.93-6.93v-26.195C485.958,234.961,482.909,231.912,479.028,231.912z M394.623,271.966
		c-1.525,11.088-4.435,21.898-8.593,32.154c-4.989,12.335-11.642,23.977-20.096,34.649c-3.326,4.296-7.068,8.316-10.949,12.335
		c-4.296,4.296-8.732,8.177-13.444,11.919c-10.672,8.316-22.453,14.83-34.788,19.681c-10.117,3.881-20.789,6.653-31.738,8.177
		c-6.237,0.832-12.612,1.247-18.988,1.247c-7.068,0-14.137-0.554-21.067-1.525c-10.533-1.525-20.789-4.297-30.491-8.177
		c-12.335-4.851-24.116-11.642-34.649-19.958c-4.435-3.465-8.732-7.207-12.751-11.365c-4.019-4.019-7.761-8.316-11.226-12.612
		c-8.316-10.672-15.107-22.314-19.958-34.649c-4.019-10.117-6.791-20.789-8.454-31.6c-0.97-6.514-1.386-13.305-1.386-19.958
		c0-6.791,0.416-13.444,1.386-19.958c1.525-10.949,4.435-21.621,8.454-31.877c4.989-12.335,11.642-23.977,19.958-34.649
		c3.465-4.296,7.068-8.454,11.088-12.474c3.604-3.604,7.346-6.93,11.365-10.118c10.533-8.454,22.037-15.384,34.372-20.374
		c10.256-4.296,21.067-7.207,32.293-8.87c6.93-0.97,13.86-1.525,21.067-1.525c6.375,0,12.751,0.416,18.988,1.247
		c11.503,1.525,22.73,4.574,33.402,8.87c12.335,4.989,23.977,11.781,34.51,20.235c4.158,3.326,8.177,6.93,12.058,10.672
		c3.881,3.881,7.484,7.9,10.81,12.058c8.454,10.533,15.107,22.175,20.096,34.51c4.158,10.395,7.068,21.205,8.732,32.293
		c0.97,6.514,1.386,13.305,1.386,19.958C396.009,258.661,395.593,265.313,394.623,271.966z"/>
	<path style="fill:#515151;" d="M256.027,151.942c55.161,0,100.066,44.905,100.066,100.066s-44.905,100.066-100.066,100.066
		s-100.066-44.905-100.066-100.066S200.866,151.942,256.027,151.942 M256.027,111.888c-77.337,0-139.982,62.645-139.982,139.982
		s62.645,139.982,139.982,139.982s139.982-62.645,139.982-139.982S333.364,111.888,256.027,111.888L256.027,111.888z"/>
</g>
<g>
	<g id="g14" style="opacity:0.4;">
		<g id="g214" transform="translate(309.052,338.6321)">
			<path id="path216" d="M-7.222-148.015c-29.7,0-35.272,42.303-18.564,42.303C-9.08-105.713,22.479-148.015-7.222-148.015"/>
		</g>
		<g id="g218" transform="translate(251.9642,295.7313)">
			<path id="path220" d="M0.55-68.054c8.896,0.543,18.656-33.95,1.937-31.78C-14.228-97.665-8.35-68.597,0.55-68.054"/>
		</g>
		<g id="g222" transform="translate(204.769,270.9207)">
			<path id="path224" d="M6.974-21.81c6.327-2.785,0.815-30.026-9.944-22.597C-13.724-36.976,0.647-19.026,6.974-21.81"/>
		</g>
		<g id="g226" transform="translate(225.4054,287.4262)">
			<path id="path228" d="M4.165-52.574c7.532-1.536,7.945-32.431-5.486-26.889C-14.755-73.92-3.361-51.037,4.165-52.574"/>
		</g>
		<g id="g230" transform="translate(270.9334,207.392)">
			<path id="path232" d="M-2.033,96.599c1.336,10.206-7.487,15.246-16.128,8.666C-45.67,84.322,27.386,73.873,22.57,45.259
				c-3.997-23.751-76.871-16.439-85.169,20.724c-5.617,25.136,23.122,60.008,53.11,60.008c14.752,0,31.768-13.321,34.951-30.195
				C27.893,82.928-3.148,88.085-2.033,96.599"/>
		</g>
	</g>
	<g id="g14_1_">
		<g id="g214_1_" transform="translate(309.052,338.6321)">
			<path id="path216_1_" style="fill:#515151;" d="M-7.222-154.015c-29.7,0-35.272,42.303-18.564,42.303
				C-9.08-111.713,22.479-154.015-7.222-154.015"/>
		</g>
		<g id="g218_1_" transform="translate(251.9642,295.7313)">
			<path id="path220_1_" style="fill:#515151;" d="M0.55-74.054c8.896,0.543,18.656-33.95,1.937-31.78
				C-14.228-103.665-8.35-74.597,0.55-74.054"/>
		</g>
		<g id="g222_1_" transform="translate(204.769,270.9207)">
			<path id="path224_1_" style="fill:#515151;" d="M6.974-27.81c6.327-2.785,0.815-30.026-9.944-22.597
				C-13.724-42.976,0.647-25.026,6.974-27.81"/>
		</g>
		<g id="g226_1_" transform="translate(225.4054,287.4262)">
			<path id="path228_1_" style="fill:#515151;" d="M4.165-58.574c7.532-1.536,7.945-32.431-5.486-26.889
				C-14.755-79.92-3.361-57.037,4.165-58.574"/>
		</g>
		<g id="g230_1_" transform="translate(270.9334,207.392)">
			<path id="path232_1_" style="fill:#515151;" d="M-2.033,90.599c1.336,10.206-7.487,15.246-16.128,8.666
				C-45.67,78.322,27.386,67.873,22.57,39.259c-3.997-23.751-76.871-16.439-85.169,20.724c-5.617,25.136,23.122,60.008,53.11,60.008
				c14.752,0,31.768-13.321,34.951-30.195C27.893,76.928-3.148,82.085-2.033,90.599"/>
		</g>
	</g>
</g>
</svg>
