<?xml version="1.0" encoding="UTF-8" standalone="no"?>
<!DOCTYPE svg PUBLIC "-//W3C//DTD SVG 1.1//EN" "http://www.w3.org/Graphics/SVG/1.1/DTD/svg11.dtd">
<svg width="100%" height="100%" viewBox="0 0 640 640" version="1.1" xmlns="http://www.w3.org/2000/svg" xmlns:xlink="http://www.w3.org/1999/xlink" xml:space="preserve" xmlns:serif="http://www.serif.com/" style="fill-rule:evenodd;clip-rule:evenodd;stroke-linejoin:round;stroke-miterlimit:1.41421;">
    <g id="g10">
        <path d="M32.502,319.058C33.01,160.815 161.639,32.5 320,32.5C478.361,32.5 606.99,160.815 607.498,319.058L607.499,320L607.498,320.942C606.991,478.871 478.871,606.991 320.942,607.498L320,607.499L319.058,607.498C161.129,606.991 33.009,478.871 32.502,320.942L32.501,320L32.502,319.058Z" style="fill:url(#_Linear1);"/>
    </g>
    <path d="M425.716,52.591C464.699,68.032 499.512,91.755 527.98,121.585C527.98,121.585 527.98,291.016 527.98,375.662C527.98,401.603 549.009,422.631 574.949,422.631C582.883,422.631 588.611,422.631 588.611,422.631C573.75,461.458 550.708,496.25 521.598,524.895L118.402,524.895C89.292,496.25 66.25,461.458 51.389,422.631C51.389,422.631 285.802,422.631 383.626,422.631C394.789,422.631 405.495,418.197 413.388,410.303C421.282,402.41 425.716,391.704 425.716,380.541C425.716,283.552 425.716,52.591 425.716,52.591Z" style="fill:rgb(255,205,9);"/>
    <g id="path284" transform="matrix(1.25,0,0,-1.25,0,640)">
        <path d="M308.119,402.589C308.119,402.589 308.119,169.948 308.119,136.412C308.119,135.349 307.697,134.329 306.945,133.577C306.193,132.825 305.173,132.403 304.11,132.403C282.503,132.403 180.888,132.403 180.888,132.403C168.189,132.403 157.896,122.11 157.896,109.411C157.896,96.712 168.189,86.418 180.888,86.418C180.888,86.418 272.581,86.418 322.541,86.418C339.973,86.418 354.104,100.549 354.104,117.981L354.104,402.589C354.104,415.288 343.811,425.582 331.112,425.582C318.413,425.582 308.119,415.288 308.119,402.589" style="fill:url(#_Linear2);fill-rule:nonzero;"/>
    </g>
    <g id="path304" transform="matrix(1.25,0,0,-1.25,0,640)">
        <path d="M102.407,255.709C102.407,208.069 183.889,117.881 187.358,112.333C188.502,110.503 190.508,109.391 192.667,109.391C194.825,109.391 196.831,110.503 197.976,112.333C201.444,117.881 282.927,208.069 282.927,255.709C282.927,305.478 242.436,345.969 192.667,345.969C142.897,345.969 102.407,305.478 102.407,255.709M154.058,261.396C154.058,282.719 171.344,300.004 192.667,300.004C213.99,300.004 231.275,282.719 231.275,261.396C231.275,240.072 213.99,222.788 192.667,222.788C171.344,222.788 154.058,240.072 154.058,261.396" style="fill:url(#_Linear3);fill-rule:nonzero;"/>
    </g>
    <defs>
        <linearGradient id="_Linear1" x1="0" y1="0" x2="1" y2="0" gradientUnits="userSpaceOnUse" gradientTransform="matrix(3.52086e-14,575,-575,3.52086e-14,320,32.4994)"><stop offset="0" style="stop-color:rgb(209,238,252);stop-opacity:1"/><stop offset="1" style="stop-color:rgb(209,238,252);stop-opacity:1"/></linearGradient>
        <linearGradient id="_Linear2" x1="0" y1="0" x2="1" y2="0" gradientUnits="userSpaceOnUse" gradientTransform="matrix(2.07678e-14,-339.163,339.163,2.07678e-14,256,422.793)"><stop offset="0" style="stop-color:rgb(55,170,219);stop-opacity:1"/><stop offset="1" style="stop-color:rgb(55,170,219);stop-opacity:1"/></linearGradient>
        <linearGradient id="_Linear3" x1="0" y1="0" x2="1" y2="0" gradientUnits="userSpaceOnUse" gradientTransform="matrix(180.52,0,0,180.52,102.407,227.68)"><stop offset="0" style="stop-color:rgb(239,66,55);stop-opacity:1"/><stop offset="1" style="stop-color:rgb(239,66,55);stop-opacity:1"/></linearGradient>
    </defs>
</svg>
