<?xml version="1.0" encoding="utf-8"?>
<!-- Generator: Adobe Illustrator 18.0.0, SVG Export Plug-In . SVG Version: 6.00 Build 0)  -->
<!DOCTYPE svg PUBLIC "-//W3C//DTD SVG 1.1//EN" "http://www.w3.org/Graphics/SVG/1.1/DTD/svg11.dtd">
<svg version="1.1" id="Layer_3" xmlns="http://www.w3.org/2000/svg" xmlns:xlink="http://www.w3.org/1999/xlink" x="0px" y="0px"
	 viewBox="0 0 512 512" enable-background="new 0 0 512 512" xml:space="preserve">
<g>
	<path fill="#E5E5E5" d="M482.9,314L119.5,446.3c-2.4,0.9-5.1-0.3-6.1-2.9L26.3,204.1c-0.9-2.4,0.3-5.1,2.9-6.1L392.6,65.7
		c2.4-0.9,5.1,0.3,6.1,2.9l87.1,239.3C486.6,310.3,485.3,313,482.9,314z"/>
	<path fill="#FFA300" d="M469.4,349.8L88.5,417c-2.6,0.5-5-1.2-5.5-3.9L38.8,162.4c-0.5-2.6,1.2-5,3.9-5.5l380.9-67.2
		c2.6-0.5,5,1.2,5.5,3.9l44.2,250.8C473.6,346.9,471.9,349.4,469.4,349.8z"/>
	<g>
		<linearGradient id="SVGID_2_" gradientUnits="userSpaceOnUse" x1="92.2321" y1="417.0811" x2="419.6794" y2="89.6336">
			<stop  offset="0" style="stop-color:#3FFBFF"/>
			<stop  offset="1" style="stop-color:#005EFF"/>
		</linearGradient>
		<path fill="url(#SVGID_2_)" d="M449.4,385.4H62.6c-2.6,0-4.7-2.1-4.7-4.7V126c0-2.6,2.1-4.7,4.7-4.7h386.7c2.6,0,4.7,2.1,4.7,4.7
			v254.7C454.1,383.3,452,385.4,449.4,385.4z"/>
		<linearGradient id="SVGID_3_" gradientUnits="userSpaceOnUse" x1="255.9542" y1="385.4482" x2="255.9542" y2="257.7953">
			<stop  offset="0.4345" style="stop-color:#C1D8DF"/>
			<stop  offset="0.5838" style="stop-color:#98D8FF"/>
			<stop  offset="1" style="stop-color:#00F0D9"/>
		</linearGradient>
		<path fill="url(#SVGID_3_)" d="M449.4,385.4H62.6c-2.6,0-4.7-2.1-4.7-4.7V257.8H454v122.9C454.1,383.3,452,385.4,449.4,385.4z"/>
		<g>
			<linearGradient id="SVGID_4_" gradientUnits="userSpaceOnUse" x1="259.5905" y1="258.1522" x2="299.8423" y2="258.1522">
				<stop  offset="4.926108e-03" style="stop-color:#FFFFFF"/>
				<stop  offset="1" style="stop-color:#FFFFFF;stop-opacity:0"/>
			</linearGradient>
			<path opacity="0.5" fill="url(#SVGID_4_)" enable-background="new    " d="M299.8,257.8h-40.3
				C281.1,259.4,299.8,257.8,299.8,257.8z"/>
			<linearGradient id="SVGID_5_" gradientUnits="userSpaceOnUse" x1="57.8591" y1="218.9878" x2="259.5905" y2="218.9878">
				<stop  offset="4.926108e-03" style="stop-color:#FFFFFF"/>
				<stop  offset="1" style="stop-color:#FFFFFF;stop-opacity:0"/>
			</linearGradient>
			<path opacity="0.5" fill="url(#SVGID_5_)" enable-background="new    " d="M196.4,225.2c-7.1-43-74.5-71.8-105.1-7.1
				c-8.4-5.4-25.2-1.1-33.4,7.7v32h201.7C232.2,255.6,200.2,248.3,196.4,225.2z"/>
		</g>
		<g>
			<linearGradient id="SVGID_6_" gradientUnits="userSpaceOnUse" x1="280.3778" y1="219.1095" x2="454.1409" y2="219.1095">
				<stop  offset="0" style="stop-color:#FFFFFF;stop-opacity:0"/>
				<stop  offset="0.9951" style="stop-color:#FFFFFF"/>
			</linearGradient>
			<path opacity="0.5" fill="url(#SVGID_6_)" enable-background="new    " d="M454.1,200c-14.9-34.7-73-19.7-95.1,19.3
				c-21.8,38.7-64,36.2-78.7,38.5h173.8L454.1,200L454.1,200z"/>
		</g>
		<linearGradient id="SVGID_7_" gradientUnits="userSpaceOnUse" x1="256.0456" y1="385.4482" x2="256.0456" y2="310.7588">
			<stop  offset="4.926108e-03" style="stop-color:#FFE194"/>
			<stop  offset="0.1649" style="stop-color:#FFE7A7"/>
			<stop  offset="0.5239" style="stop-color:#FFF4CB"/>
			<stop  offset="0.8151" style="stop-color:#FFFCE2"/>
			<stop  offset="1" style="stop-color:#FFFFEA"/>
		</linearGradient>
		<path fill="url(#SVGID_7_)" d="M62.3,385.4h387.4c2.5,0,4.4-2,4.4-4.4v-53.7c-7.7-6-24.5-16-38.7-3.9
			c-22.4,19-41.4-16.4-78.3-12.4c-30.7,3.3-74.4,25.2-117.4,17.9c-34.9-6-46.5-6.8-90,5.3c-23.8,6.6-59.4-4.6-71.7-9.1v55.9
			C57.9,383.5,59.8,385.4,62.3,385.4z"/>
	</g>
</g>
<g>
	<g>
		<linearGradient id="SVGID_8_" gradientUnits="userSpaceOnUse" x1="374.8178" y1="450.0695" x2="374.8178" y2="226.2695">
			<stop  offset="0" style="stop-color:#000000"/>
			<stop  offset="0.9877" style="stop-color:#4D4D4D"/>
		</linearGradient>
		<circle fill="url(#SVGID_8_)" cx="374.8" cy="338.2" r="111.9"/>
	</g>
	<g>
		<linearGradient id="SVGID_9_" gradientUnits="userSpaceOnUse" x1="300.9251" y1="412.0622" x2="448.7104" y2="264.2768">
			<stop  offset="0" style="stop-color:#000000"/>
			<stop  offset="0.5" style="stop-color:#4D4D4D"/>
			<stop  offset="1" style="stop-color:#000000"/>
		</linearGradient>
		<circle fill="url(#SVGID_9_)" cx="374.8" cy="338.2" r="104.5"/>
		<linearGradient id="SVGID_10_" gradientUnits="userSpaceOnUse" x1="316.3678" y1="396.6195" x2="433.2678" y2="279.7195">
			<stop  offset="0" style="stop-color:#000000"/>
			<stop  offset="0.5" style="stop-color:#4D4D4D"/>
			<stop  offset="1" style="stop-color:#000000"/>
		</linearGradient>
		<path fill="url(#SVGID_10_)" d="M374.8,420.9c-45.6,0-82.7-37.1-82.7-82.7s37.1-82.7,82.7-82.7s82.7,37.1,82.7,82.7
			S420.4,420.9,374.8,420.9z"/>
		<radialGradient id="SVGID_11_" cx="376.03" cy="338.1695" r="103.2888" gradientUnits="userSpaceOnUse">
			<stop  offset="0" style="stop-color:#000000;stop-opacity:0"/>
			<stop  offset="0.8587" style="stop-color:#000000;stop-opacity:0.8587"/>
			<stop  offset="1" style="stop-color:#000000"/>
		</radialGradient>
		<path fill="url(#SVGID_11_)" d="M374.8,420.9c-45.6,0-82.7-37.1-82.7-82.7s37.1-82.7,82.7-82.7s82.7,37.1,82.7,82.7
			S420.4,420.9,374.8,420.9z"/>
		<linearGradient id="SVGID_12_" gradientUnits="userSpaceOnUse" x1="326.6865" y1="386.3007" x2="422.9303" y2="290.057">
			<stop  offset="0" style="stop-color:#000000"/>
			<stop  offset="0.5" style="stop-color:#4D4D4D"/>
			<stop  offset="1" style="stop-color:#000000"/>
		</linearGradient>
		<path fill="url(#SVGID_12_)" d="M374.8,406.3c-37.6,0-68.1-30.6-68.1-68.1c0-37.6,30.6-68.1,68.1-68.1s68.1,30.6,68.1,68.1
			S412.4,406.3,374.8,406.3z"/>
		<radialGradient id="SVGID_13_" cx="374.8178" cy="338.1695" r="82.4555" gradientUnits="userSpaceOnUse">
			<stop  offset="0" style="stop-color:#000000;stop-opacity:0"/>
			<stop  offset="0.8587" style="stop-color:#000000;stop-opacity:0.8587"/>
			<stop  offset="1" style="stop-color:#000000"/>
		</radialGradient>
		<path fill="url(#SVGID_13_)" d="M374.8,406.3c-37.6,0-68.1-30.6-68.1-68.1c0-37.6,30.6-68.1,68.1-68.1s68.1,30.6,68.1,68.1
			S412.4,406.3,374.8,406.3z"/>
		<g>
			<g opacity="0.7">
				<g>
					<linearGradient id="SVGID_14_" gradientUnits="userSpaceOnUse" x1="408.8537" y1="397.1403" x2="340.7766" y2="279.2274">
						<stop  offset="0" style="stop-color:#0019D4"/>
						<stop  offset="0.5337" style="stop-color:#FFE53F"/>
						<stop  offset="1" style="stop-color:#FF00F1"/>
					</linearGradient>
					<path fill="url(#SVGID_14_)" d="M374.8,406.3c-37.6,0-68.1-30.6-68.1-68.1s30.6-68.1,68.1-68.1s68.1,30.6,68.1,68.1
						S412.4,406.3,374.8,406.3z"/>
				</g>
				<defs>
					<filter id="Adobe_OpacityMaskFilter" filterUnits="userSpaceOnUse" x="306.7" y="270.1" width="136.2" height="136.2">
						<feColorMatrix  type="matrix" values="1 0 0 0 0  0 1 0 0 0  0 0 1 0 0  0 0 0 1 0"/>
					</filter>
				</defs>
				<mask maskUnits="userSpaceOnUse" x="306.7" y="270.1" width="136.2" height="136.2" id="SVGID_1_">
					<g filter="url(#Adobe_OpacityMaskFilter)">
					</g>
				</mask>
				<g opacity="0.75" mask="url(#SVGID_1_)">
					<path d="M374.8,406.3c-37.6,0-68.1-30.6-68.1-68.1s30.6-68.1,68.1-68.1s68.1,30.6,68.1,68.1S412.4,406.3,374.8,406.3z"/>
				</g>
			</g>
			<linearGradient id="SVGID_15_" gradientUnits="userSpaceOnUse" x1="326.6959" y1="386.3101" x2="422.9397" y2="290.0664">
				<stop  offset="0" style="stop-color:#E9003A;stop-opacity:0"/>
				<stop  offset="1" style="stop-color:#000D94"/>
			</linearGradient>
			<path fill="url(#SVGID_15_)" d="M374.8,406.3c-37.6,0-68.1-30.6-68.1-68.1s30.6-68.1,68.1-68.1s68.1,30.6,68.1,68.1
				S412.4,406.3,374.8,406.3z"/>
			<circle opacity="0.3" enable-background="new    " cx="374.8" cy="338.2" r="51.6"/>
			<circle opacity="0.3" enable-background="new    " cx="374.8" cy="338.2" r="36.3"/>
			<circle opacity="0.3" enable-background="new    " cx="374.8" cy="338.2" r="18.4"/>
		</g>
		<linearGradient id="SVGID_16_" gradientUnits="userSpaceOnUse" x1="374.2757" y1="340.8774" x2="435.0558" y2="401.6575">
			<stop  offset="0" style="stop-color:#FFFFFF;stop-opacity:0.7"/>
			<stop  offset="0.1451" style="stop-color:#FFFFFF;stop-opacity:0.5985"/>
			<stop  offset="1" style="stop-color:#FFFFFF;stop-opacity:0"/>
		</linearGradient>
		<path fill="url(#SVGID_16_)" d="M456.9,327.9c-7.6-2.5-15.7-3.8-24.1-3.8c-43.1,0-78.1,35-78.1,78.1c0,5.7,0.6,11.2,1.8,16.6
			c5.9,1.3,12,2.1,18.4,2.1c45.6,0,82.7-37.1,82.7-82.7C457.5,334.7,457.3,331.3,456.9,327.9z"/>
	</g>
</g>
</svg>
