<?xml version="1.0" encoding="utf-8"?>
<!-- Generator: Adobe Illustrator 22.0.1, SVG Export Plug-In . SVG Version: 6.00 Build 0)  -->
<svg version="1.1" id="Layer_1" xmlns="http://www.w3.org/2000/svg" xmlns:xlink="http://www.w3.org/1999/xlink" x="0px" y="0px"
	 viewBox="0 0 512 512" enable-background="new 0 0 512 512" xml:space="preserve">
<g>
	<linearGradient id="SVGID_1_" gradientUnits="userSpaceOnUse" x1="256" y1="256" x2="486" y2="256">
		<stop  offset="0" style="stop-color:#FFFFFF"/>
		<stop  offset="1" style="stop-color:#949494"/>
	</linearGradient>
	<path fill="url(#SVGID_1_)" d="M471.345,471.345C480.399,462.29,486,449.78,486,435.963V76.037
		c0-13.817-5.601-26.327-14.655-35.381L256,256L471.345,471.345z"/>
	<linearGradient id="SVGID_2_" gradientUnits="userSpaceOnUse" x1="40.6555" y1="371" x2="471.3445" y2="371">
		<stop  offset="0" style="stop-color:#FFFFFF"/>
		<stop  offset="1" style="stop-color:#949494"/>
	</linearGradient>
	<path fill="url(#SVGID_2_)" d="M40.655,471.345C49.71,480.399,62.22,486,76.037,486h359.926c13.817,0,26.327-5.601,35.381-14.655
		L256,256L40.655,471.345z"/>
	<linearGradient id="SVGID_3_" gradientUnits="userSpaceOnUse" x1="40.6555" y1="141" x2="471.3445" y2="141">
		<stop  offset="0" style="stop-color:#FFFFFF"/>
		<stop  offset="1" style="stop-color:#949494"/>
	</linearGradient>
	<path fill="url(#SVGID_3_)" d="M76.037,26C62.22,26,49.71,31.601,40.655,40.655L256,256L471.345,40.655
		C462.29,31.601,449.78,26,435.963,26H76.037z"/>
	<linearGradient id="SVGID_4_" gradientUnits="userSpaceOnUse" x1="26" y1="256" x2="256" y2="256">
		<stop  offset="0" style="stop-color:#FFFFFF"/>
		<stop  offset="1" style="stop-color:#949494"/>
	</linearGradient>
	<path fill="url(#SVGID_4_)" d="M40.655,40.655C31.601,49.71,26,62.22,26,76.037v359.926c0,13.817,5.601,26.327,14.655,35.381
		L256,256L40.655,40.655z"/>
</g>
<path fill="#CCCCCC" d="M435.963,46C452.526,46,466,59.474,466,76.037v359.926C466,452.526,452.526,466,435.963,466H76.037
	C59.474,466,46,452.526,46,435.963V76.037C46,59.474,59.474,46,76.037,46H435.963 M435.963,26H76.037C48.402,26,26,48.402,26,76.037
	v359.926C26,463.598,48.402,486,76.037,486h359.926C463.598,486,486,463.598,486,435.963V76.037C486,48.402,463.598,26,435.963,26
	L435.963,26z"/>
<g>
	<g>
		<path fill="#565656" d="M233.098,138.606l4.422-38.96h42.962v12.688h-30.484l-1.896,16.479c3.615-1.93,7.458-2.896,11.53-2.896
			c7.301,0,13.021,2.264,17.164,6.792c4.141,4.527,6.212,10.863,6.212,19.006c0,4.949-1.044,9.38-3.132,13.294
			c-2.09,3.914-5.081,6.95-8.977,9.108c-3.896,2.159-8.495,3.238-13.794,3.238c-4.633,0-8.933-0.939-12.899-2.816
			c-3.967-1.877-7.099-4.519-9.398-7.924c-2.299-3.404-3.519-7.283-3.659-11.635h15.057c0.316,3.194,1.43,5.678,3.343,7.45
			c1.913,1.773,4.414,2.659,7.502,2.659c3.439,0,6.089-1.237,7.951-3.711c1.859-2.475,2.789-5.976,2.789-10.503
			c0-4.352-1.07-7.687-3.211-10.003c-2.141-2.316-5.178-3.475-9.108-3.475c-3.615,0-6.546,0.948-8.792,2.843l-1.474,1.369
			L233.098,138.606z"/>
	</g>
	<g>
		<path fill="#565656" d="M246.313,366.235h8.108c3.86,0,6.721-0.965,8.581-2.896c1.86-1.93,2.791-4.492,2.791-7.686
			c0-3.089-0.922-5.493-2.765-7.213s-4.379-2.58-7.607-2.58c-2.914,0-5.353,0.799-7.318,2.395c-1.966,1.598-2.948,3.678-2.948,6.24
			h-15.215c0-4.002,1.079-7.59,3.238-10.768c2.159-3.176,5.177-5.66,9.056-7.449c3.877-1.791,8.151-2.686,12.82-2.686
			c8.107,0,14.46,1.939,19.059,5.818c4.598,3.879,6.896,9.223,6.896,16.031c0,3.51-1.07,6.738-3.211,9.688
			c-2.142,2.947-4.949,5.212-8.424,6.791c4.317,1.545,7.537,3.861,9.661,6.949c2.123,3.09,3.185,6.74,3.185,10.951
			c0,6.811-2.483,12.268-7.449,16.374c-4.968,4.106-11.539,6.159-19.717,6.159c-7.652,0-13.908-2.018-18.77-6.054
			s-7.292-9.372-7.292-16.005h15.215c0,2.878,1.079,5.23,3.238,7.055c2.159,1.825,4.817,2.737,7.977,2.737
			c3.614,0,6.449-0.956,8.502-2.869c2.053-1.913,3.08-4.448,3.08-7.608c0-7.65-4.212-11.477-12.636-11.477h-8.055V366.235z"/>
	</g>
</g>
<g>
	<g>
		<path fill="#565656" d="M153.798,294.486h-52.543v-10.424l24.797-26.43c3.404-3.72,5.923-6.967,7.555-9.74
			c1.632-2.772,2.448-5.405,2.448-7.897c0-3.404-0.86-6.081-2.58-8.029c-1.72-1.948-4.177-2.922-7.371-2.922
			c-3.44,0-6.152,1.185-8.134,3.554c-1.983,2.369-2.975,5.484-2.975,9.345H99.728c0-4.667,1.114-8.932,3.343-12.793
			c2.229-3.86,5.378-6.888,9.45-9.082c4.071-2.193,8.687-3.291,13.847-3.291c7.897,0,14.031,1.896,18.4,5.686
			c4.37,3.791,6.555,9.144,6.555,16.058c0,3.791-0.983,7.652-2.948,11.583c-1.966,3.932-5.335,8.512-10.108,13.741l-17.427,18.375
			h32.958V294.486z"/>
	</g>
	<g>
		<path fill="#565656" d="M396.846,263.845c-3.967,3.896-8.601,5.844-13.899,5.844c-6.774,0-12.197-2.325-16.269-6.976
			c-4.072-4.65-6.107-10.924-6.107-18.822c0-5.019,1.097-9.625,3.291-13.82c2.192-4.194,5.256-7.458,9.187-9.792
			c3.931-2.334,8.354-3.501,13.268-3.501c5.055,0,9.547,1.264,13.479,3.791c3.931,2.527,6.983,6.16,9.16,10.898
			c2.177,4.739,3.282,10.161,3.317,16.269v5.633c0,12.776-3.177,22.814-9.529,30.115c-6.354,7.301-15.356,11.195-27.009,11.688
			l-3.738,0.053v-12.688l3.369-0.053C388.597,281.886,395.757,275.673,396.846,263.845z M386.685,258.054
			c2.456,0,4.571-0.632,6.344-1.896c1.771-1.264,3.114-2.791,4.027-4.581v-6.265c0-5.16-0.982-9.161-2.948-12.004
			c-1.966-2.843-4.599-4.265-7.897-4.265c-3.054,0-5.563,1.396-7.528,4.186c-1.966,2.79-2.948,6.292-2.948,10.503
			c0,4.178,0.956,7.608,2.869,10.293S383.209,258.054,386.685,258.054z"/>
	</g>
</g>
</svg>
