<?xml version="1.0" encoding="utf-8"?>
<!-- Generator: Adobe Illustrator 22.0.1, SVG Export Plug-In . SVG Version: 6.00 Build 0)  -->
<svg version="1.1" id="Layer_1" xmlns="http://www.w3.org/2000/svg" xmlns:xlink="http://www.w3.org/1999/xlink" x="0px" y="0px"
	 viewBox="0 0 512 512" style="enable-background:new 0 0 512 512;" xml:space="preserve">
<style type="text/css">
	.st0{fill:#825E46;}
	.st1{fill:url(#SVGID_1_);}
	.st2{fill:url(#SVGID_2_);}
	.st3{fill:url(#SVGID_3_);}
	.st4{fill:#CCA68D;}
	.st5{fill:#D60750;}
</style>
<g>
	<path class="st0" d="M411,486H101c-41.2,0-75-33.8-75-75V101c0-41.2,33.8-75,75-75h310c41.2,0,75,33.8,75,75v310
		C486,452.2,452.2,486,411,486z"/>
	<g>
		
			<linearGradient id="SVGID_1_" gradientUnits="userSpaceOnUse" x1="256" y1="-857" x2="256" y2="-641.3" gradientTransform="matrix(1 0 0 -1 0 -414)">
			<stop  offset="0" style="stop-color:#825E46"/>
			<stop  offset="0.3286" style="stop-color:#73523C"/>
			<stop  offset="0.9622" style="stop-color:#4B3423"/>
			<stop  offset="1" style="stop-color:#483221"/>
		</linearGradient>
		<polygon class="st1" points="68.9,443 256,227.3 443.1,443 		"/>
		
			<linearGradient id="SVGID_2_" gradientUnits="userSpaceOnUse" x1="220.7" y1="-670" x2="447.6" y2="-670" gradientTransform="matrix(1 0 0 -1 0 -414)">
			<stop  offset="0" style="stop-color:#483221"/>
			<stop  offset="0.3122" style="stop-color:#563D2A"/>
			<stop  offset="0.9016" style="stop-color:#7B5942"/>
			<stop  offset="1" style="stop-color:#825E46"/>
		</linearGradient>
		<polygon class="st2" points="447.6,445.4 220.7,256 447.6,66.6 		"/>
		
			<linearGradient id="SVGID_3_" gradientUnits="userSpaceOnUse" x1="64.4" y1="-670" x2="291.3" y2="-670" gradientTransform="matrix(1 0 0 -1 0 -414)">
			<stop  offset="0" style="stop-color:#825E46"/>
			<stop  offset="9.840000e-02" style="stop-color:#7B5942"/>
			<stop  offset="0.6878" style="stop-color:#563D2A"/>
			<stop  offset="1" style="stop-color:#483221"/>
		</linearGradient>
		<polygon class="st3" points="64.4,445.4 291.3,256 64.4,66.6 		"/>
	</g>
</g>
<g id="g37_2_">
	<path id="path39_2_" class="st4" d="M392.2,291.3L291.4,392.2c-19.5,19.5-51.2,19.5-70.7,0L119.8,291.3
		c-19.5-19.5-19.5-51.2,0-70.7l100.8-100.8c19.5-19.5,51.2-19.5,70.7,0l100.8,100.8C411.7,240.1,411.7,271.8,392.2,291.3z"/>
</g>
<g>
	<path class="st5" d="M276.4,263.9c1.2-0.9,2.3-1.8,3.2-2.8c-2.6,0.6-5.3,0.6-8.1,0.4C268.2,261.6,272.1,263.3,276.4,263.9z"/>
	<path class="st5" d="M289.1,257.2c1.9-2.7,3.4-5.6,3.9-8.7c-0.5,2.2-1.6,4-2.7,6c-6.1,3.9-0.6-2.3,0-4.6
		C283.6,258.2,289.3,254.9,289.1,257.2z"/>
	<path class="st5" d="M295.5,240.4c0.4-5.9-1.2-4-1.7-1.8C294.5,238.9,294.9,242.7,295.5,240.4z"/>
	<path class="st5" d="M259.1,160c1.8,0.4,3.7,0.5,3.5,0.9C264.5,160.5,264.9,160.1,259.1,160z"/>
	<polygon class="st5" points="262.4,161.1 262.6,160.9 261.3,161.1 	"/>
	<path class="st5" d="M258,282.6c-4.7-2.2-9-5.5-12.5-9.6c1.9,2.8,3.9,5.4,6.5,7.5c-4.5-1.5-10.3-10.7-12.1-11.1
		c7.7,13.7,31,24,43.2,18.9c-5.6,0.2-12.8,0.1-19.2-2.2c-2.4-1.2-5.6-3.6-5.7-4.5C258,281.9,257.9,282.2,258,282.6z"/>
	<path class="st5" d="M258.2,281.6c0-0.1,0.1-0.2,0.1-0.2l0,0C258.2,281.4,258.1,281.5,258.2,281.6z"/>
	<path class="st5" d="M328.4,227.9c0.1-3,0.8-1.6,1.1-2.3c-0.6-0.4-2.1-2.6-3-7.1c0.6-1.1,1.8,2.7,2.8,2.8c-0.6-3.5-1.6-6.2-1.7-8.8
		c-2.7-5.7-0.9,0.8-3.2-2.5c-2.9-9,2.4-2.1,2.8-6.2c4.3,6.3,6.9,16.2,8,20.2c-0.9-4.9-2.3-9.7-4-14.4c1.3,0.5-2.1-10.2,1.7-3
		c-4.2-15.2-17.7-29.4-30.1-36c1.5,1.4,3.5,3.2,2.8,3.5c-6.2-3.7-5.1-4-6-5.5c-5-2-5.3,0.2-8.7,0c-9.5-5-11.4-4.5-20.1-7.7l0.4,1.9
		c-6.3-2.1-7.3,0.8-14.1,0c-0.4-0.4,2.2-1.2,4.3-1.5c-6.1,0.8-5.8-1.2-11.8,0.2c1.5-1.1,3-1.7,4.6-2.6c-4.9,0.3-11.8,2.9-9.7,0.5
		c-8.1,3.6-22.5,8.7-30.6,16.3l-0.2-1.7c-3.7,4.5-16.1,13.2-17.1,19l-1,0.2c-1.9,3.3-3.2,7-4.7,10.3c-2.5,4.3-3.7,1.6-3.3,2.3
		c-4.9,10-7.4,18.5-9.5,25.4c1.5,2.3,0.1,13.6,0.6,22.7c-2.5,44.9,31.6,88.6,68.7,98.6c5.5,1.9,13.5,1.9,20.5,2.1
		c-8.2-2.3-9.2-1.2-17.1-4c-5.7-2.7-7-5.7-11-9.3l1.6,2.9c-8-2.8-4.6-3.5-11.1-5.5l1.7-2.2c-2.6-0.2-6.8-4.3-8-6.6l-2.8,0.1
		c-3.4-4.2-5.2-7.2-5-9.5l-0.9,1.6c-1.1-1.8-12.4-15.7-6.5-12.4c-1.1-1-2.6-1.6-4.2-4.5l1.2-1.3c-2.8-3.6-5.2-8.3-5-9.9
		c1.5,2,2.6,2.4,3.6,2.8c-7.2-17.8-7.6-1-13-18.2l1.1-0.1c-0.9-1.3-1.4-2.8-2.1-4.2l0.5-5c-5.2-6-1.4-25.4-0.7-36.2
		c0.5-4.3,4.3-9,7.2-16.2l-1.8-0.3c3.4-5.9,19.3-23.6,26.6-22.7c3.6-4.5-0.7-0.1-1.4-1.1c7.9-8.1,10.3-5.7,15.6-7.2
		c5.7-3.4-4.9,1.3-2.2-1.3c9.9-2.5,7-5.7,19.8-7c1.3,0.8-3.1,1.2-4.3,2.2c8.2-4,26-3.1,37.5,2.2c13.4,6.2,28.4,24.7,29,42.1l0.6,0.2
		c-0.4,6.9,1.1,14.9-1.4,22.2l2-3.7c0.2,5.3-1.5,7.9-3.1,12.4l-2.8,1.4c-2.3,4.5,0.2,2.8-1.4,6.4c-3.6,3.2-10.9,10-13.3,10.7
		c-1.7-0.1,1.2-2,1.5-2.8c-4.8,3.3-3.9,5-11.3,7l-0.2-0.5c-18.2,8.6-43.5-8.4-43.2-31.6c-0.2,1.5-0.5,1.1-1,1.7
		c-0.9-12,5.5-23.9,16.4-28.8c10.6-5.3,23.1-3.1,30.7,4c-4.2-5.5-12.5-11.2-22.4-10.7c-9.7,0.1-18.7,6.3-21.8,13
		c-4.9,3.1-5.5,12-7.7,13.7c-2.9,21.3,5.5,30.6,19.6,41.4c1.2,0.8,1.3,1.2,1.2,1.6c16.7,6.2,34,4.7,48.4-6.9
		c3.6-2.9,7.7-7.7,8.9-7.8c-1.8,2.6,0.3,1.2-1.1,3.6c3.6-5.9-1.6-2.4,3.7-10.2l2,2.7c-0.7-4.9,6.1-10.8,5.4-18.6
		c1.5-2.4,1.8,2.6,0.1,8c2.3-6,0.6-7,1.2-12c0.6,1.6,1.5,3.5,1.9,5.2c-1.5-5.8,1.5-9.8,2.3-13.2
		C330.4,231.8,328.8,234.7,328.4,227.9z"/>
	<path class="st5" d="M235.4,268.3c2.2,2.9,3.9,6.1,6.6,8.3c-1.9-3.8-3.4-5.4-6.1-10.6L235.4,268.3z"/>
	<path class="st5" d="M240.9,265.9c-1.1-1.2-1.8-2.8-2.5-4.3c0.7,2.6,2.2,4.9,3.6,7.3L240.9,265.9z"/>
	<path class="st5" d="M324.6,265.8c3.2-6.1,5.3-12.7,6.2-19.4l-0.5,1.2C329.4,253.9,327.5,260,324.6,265.8z"/>
	<path class="st5" d="M267.5,157.4c-3,0.2-6.1,0.4-9.1,0.8l1.3,0.2C262,157.6,265.2,157.9,267.5,157.4z"/>
	<path class="st5" d="M182.2,199.9c0-0.1,0-0.2,0-0.3C182.2,199.8,182.2,199.9,182.2,199.9z"/>
	<path class="st5" d="M183.1,203.1c2.2-5.1-0.6-2-0.9-3.2C182.5,204.5,178.7,206.1,183.1,203.1z"/>
	<path class="st5" d="M178.6,214.6c-2.9,3.6-1.3,4.4-1.6,6.9C178,218.3,178.2,216.4,178.6,214.6z"/>
</g>
</svg>
