<?xml version="1.0" encoding="utf-8"?>
<!-- Generator: Adobe Illustrator 22.0.1, SVG Export Plug-In . SVG Version: 6.00 Build 0)  -->
<svg version="1.1"
	 id="svg2" xmlns:cc="http://creativecommons.org/ns#" xmlns:dc="http://purl.org/dc/elements/1.1/" xmlns:rdf="http://www.w3.org/1999/02/22-rdf-syntax-ns#" xmlns:svg="http://www.w3.org/2000/svg"
	 xmlns="http://www.w3.org/2000/svg" xmlns:xlink="http://www.w3.org/1999/xlink" x="0px" y="0px" viewBox="0 0 512 512"
	 style="enable-background:new 0 0 512 512;" xml:space="preserve">
<g>
	<circle style="fill:#20262D;" cx="256" cy="256" r="230"/>
	<path id="path212" style="fill:#FFFFFF;" d="M294.811,254.948C283.857,247.151,270.47,242.55,256,242.55
		s-27.857,4.601-38.811,12.398v-68.329c0-21.4,17.41-38.811,38.811-38.811s38.811,17.41,38.811,38.811V254.948z M262.064,307.831
		v22.226c0,3.349-2.715,6.064-6.064,6.064s-6.064-2.715-6.064-6.064v-22.226c-4.206-2.193-7.083-6.586-7.083-11.658
		c0-7.261,5.886-13.147,13.147-13.147c7.261,0,13.147,5.886,13.147,13.147C269.147,301.245,266.27,305.638,262.064,307.831
		 M307.215,266.359v-79.741c0-28.285-22.93-51.215-51.215-51.215s-51.215,22.93-51.215,51.215v79.741
		c-9.856,11.669-15.808,26.743-15.808,43.214c0,37.016,30.007,67.023,67.023,67.023s67.023-30.007,67.023-67.023
		C323.023,293.102,317.071,278.028,307.215,266.359"/>
</g>
</svg>
