<?xml version="1.0" encoding="utf-8"?>
<!-- Generator: Adobe Illustrator 22.0.1, SVG Export Plug-In . SVG Version: 6.00 Build 0)  -->
<svg version="1.1" id="Layer_2" xmlns="http://www.w3.org/2000/svg" xmlns:xlink="http://www.w3.org/1999/xlink" x="0px" y="0px"
	 viewBox="0 0 512 512" style="enable-background:new 0 0 512 512;" xml:space="preserve">
<linearGradient id="SVGID_1_" gradientUnits="userSpaceOnUse" x1="26" y1="256" x2="486" y2="256">
	<stop  offset="0" style="stop-color:#FB2D68"/>
	<stop  offset="1" style="stop-color:#FF5A37"/>
</linearGradient>
<path style="fill:url(#SVGID_1_);" d="M411,486H101c-41.421,0-75-33.579-75-75V101c0-41.421,33.579-75,75-75h310
	c41.421,0,75,33.579,75,75v310C486,452.421,452.421,486,411,486z"/>
<g>
	<path style="fill:#FFFFFF;" d="M256,439.142c100.862,0,182.628-81.766,182.628-182.628c0-23.947-4.616-46.813-12.996-67.769
		c-101.08,42.266-255.465,45.976-351.838,80.083C80.129,363.946,159.277,439.142,256,439.142z"/>
	<path style="fill:#161616;" d="M135.157,256c0,66.739,54.103,120.843,120.843,120.843S376.843,322.739,376.843,256
		c0-17.016-3.524-33.207-9.871-47.893c-73.263,19.282-159.715,28.208-231.742,43.882C135.187,253.321,135.157,254.657,135.157,256z"
		/>
	<path style="fill:#FF0000;" d="M177.547,255.898c0,43.552,35.306,78.858,78.858,78.858s78.858-35.306,78.858-78.858
		c0-13.824-3.568-26.811-9.817-38.108c-48.05,9.994-99.244,17.195-146.923,25.724C177.886,247.549,177.547,251.683,177.547,255.898z
		"/>
	<path style="opacity:0.4;enable-background:new    ;" d="M486,156.125c-8.538-37.889-32.188-56.871-52.721-77.404
		c-70.294-70.294-284.264-70.294-354.558,0c-41.317,41.317-58.527,130.053-51.275,212.293c14.025-6.368,29.502-8.115,47.549-10.212
		c104.421-7.787,252.196-21.111,356.245-75.849C478.5,177.5,478.865,164.581,486,156.125z"/>
	<path d="M73.794,268.827c96.373-34.107,250.759-37.817,351.839-80.082c11.998-5.017,39.062-19.912,60.368-32.62V101
		c0-41.421-33.579-75-75-75H101c-41.421,0-75,33.579-75,75v190.947C41.996,283.08,62.085,272.971,73.794,268.827z"/>
</g>
</svg>
