<?xml version="1.0" encoding="utf-8"?>
<!-- Generator: Adobe Illustrator 18.0.0, SVG Export Plug-In . SVG Version: 6.00 Build 0)  -->
<!DOCTYPE svg PUBLIC "-//W3C//DTD SVG 1.1//EN" "http://www.w3.org/Graphics/SVG/1.1/DTD/svg11.dtd">
<svg version="1.1" id="Layer_1" xmlns="http://www.w3.org/2000/svg" xmlns:xlink="http://www.w3.org/1999/xlink" x="0px" y="0px"
	 viewBox="0 0 512 512" style="enable-background:new 0 0 512 512;" xml:space="preserve">
<g>
	<circle style="fill:#232323;" cx="256" cy="256" r="225.3"/>
	
		<linearGradient id="SVGID_1_" gradientUnits="userSpaceOnUse" x1="80.6562" y1="907" x2="531.3438" y2="907" gradientTransform="matrix(1 0 0 1 -50 -651)">
		<stop  offset="0" style="stop-color:#000000;stop-opacity:0"/>
		<stop  offset="0.1132" style="stop-color:#030303;stop-opacity:0.2264"/>
		<stop  offset="0.1813" style="stop-color:#0B0B0B;stop-opacity:0.3626"/>
		<stop  offset="0.2375" style="stop-color:#191919;stop-opacity:0.475"/>
		<stop  offset="0.2872" style="stop-color:#2E2E2E;stop-opacity:0.5744"/>
		<stop  offset="0.3326" style="stop-color:#484848;stop-opacity:0.6652"/>
		<stop  offset="0.3749" style="stop-color:#686868;stop-opacity:0.7498"/>
		<stop  offset="0.4148" style="stop-color:#8F8F8F;stop-opacity:0.8297"/>
		<stop  offset="0.4528" style="stop-color:#BBBBBB;stop-opacity:0.9057"/>
		<stop  offset="0.4881" style="stop-color:#EDEDED;stop-opacity:0.9761"/>
		<stop  offset="0.5" style="stop-color:#FFFFFF"/>
		<stop  offset="0.5119" style="stop-color:#EDEDED;stop-opacity:0.9761"/>
		<stop  offset="0.5472" style="stop-color:#BBBBBB;stop-opacity:0.9057"/>
		<stop  offset="0.5852" style="stop-color:#8F8F8F;stop-opacity:0.8297"/>
		<stop  offset="0.6251" style="stop-color:#686868;stop-opacity:0.7498"/>
		<stop  offset="0.6674" style="stop-color:#484848;stop-opacity:0.6652"/>
		<stop  offset="0.7128" style="stop-color:#2E2E2E;stop-opacity:0.5744"/>
		<stop  offset="0.7625" style="stop-color:#191919;stop-opacity:0.475"/>
		<stop  offset="0.8187" style="stop-color:#0B0B0B;stop-opacity:0.3626"/>
		<stop  offset="0.8868" style="stop-color:#030303;stop-opacity:0.2264"/>
		<stop  offset="1" style="stop-color:#000000;stop-opacity:0"/>
	</linearGradient>
	<circle style="fill:url(#SVGID_1_);" cx="256" cy="256" r="225.3"/>
	
		<linearGradient id="SVGID_2_" gradientUnits="userSpaceOnUse" x1="296.6579" y1="-459.3422" x2="615.3421" y2="-140.6578" gradientTransform="matrix(1 0 0 -1 -200 -44)">
		<stop  offset="0" style="stop-color:#000000;stop-opacity:0"/>
		<stop  offset="0.3254" style="stop-color:#030303;stop-opacity:0.6509"/>
		<stop  offset="0.5" style="stop-color:#2A2A2A"/>
		<stop  offset="0.6705" style="stop-color:#030303;stop-opacity:0.6589"/>
		<stop  offset="1" style="stop-color:#000000;stop-opacity:0"/>
	</linearGradient>
	<circle style="fill:url(#SVGID_2_);" cx="256" cy="256" r="225.3"/>
	<path d="M256,486C129.2,486,26,382.8,26,256S129.2,26,256,26s230,103.2,230,230S382.8,486,256,486z M256,35.3
		c-121.7,0-220.7,99-220.7,220.7s99,220.7,220.7,220.7s220.7-99,220.7-220.7C476.7,134.3,377.7,35.3,256,35.3z"/>
	<circle cx="256" cy="256" r="114.5"/>
	<circle style="fill:#FF8500;" cx="256" cy="256" r="90.6"/>
	<path style="fill:#E59200;" d="M165.4,256c0,50,40.5,90.6,90.6,90.6c50,0,90.6-40.5,90.6-90.6c0,0,0,0,0,0L165.4,256
		C165.4,256,165.4,256,165.4,256z"/>
	<path style="fill:#E5E5E5;" d="M256,337.2c-44.8,0-81.2-36.4-81.2-81.2s36.4-81.2,81.2-81.2c44.8,0,81.2,36.4,81.2,81.2
		C337.2,300.8,300.8,337.2,256,337.2z M256,177.3c-43.4,0-78.7,35.3-78.7,78.7c0,43.4,35.3,78.7,78.7,78.7
		c43.4,0,78.7-35.3,78.7-78.7C334.7,212.6,299.4,177.3,256,177.3z"/>
	<path style="fill:#E5E5E5;" d="M256,292.5c-20.1,0-36.5-16.4-36.5-36.5s16.4-36.5,36.5-36.5c20.1,0,36.5,16.4,36.5,36.5
		C292.5,276.1,276.1,292.5,256,292.5z M256,221.9c-18.8,0-34.1,15.3-34.1,34.1s15.3,34.1,34.1,34.1s34.1-15.3,34.1-34.1
		S274.8,221.9,256,221.9z"/>
	<circle cx="256" cy="256" r="28.7"/>
	<path d="M256,390.8c-74.4,0-134.8-60.5-134.8-134.8c0-74.4,60.5-134.9,134.8-134.9S390.8,181.6,390.8,256S330.4,390.8,256,390.8z
		 M256,123c-73.3,0-133,59.7-133,133c0,73.3,59.7,133,133,133c73.3,0,133-59.7,133-133C389,182.7,329.3,123,256,123z"/>
	<path d="M256,434.6c-98.5,0-178.6-80.1-178.6-178.6c0-98.5,80.1-178.6,178.6-178.6c98.5,0,178.6,80.1,178.6,178.6
		C434.6,354.5,354.5,434.6,256,434.6z M256,79.2c-97.5,0-176.8,79.3-176.8,176.8c0,97.5,79.3,176.8,176.8,176.8
		c97.5,0,176.8-79.3,176.8-176.8C432.8,158.5,353.5,79.2,256,79.2z"/>
</g>
</svg>
