<?xml version="1.0" encoding="UTF-8" standalone="no"?>
<svg
   xmlns:dc="http://purl.org/dc/elements/1.1/"
   xmlns:cc="http://creativecommons.org/ns#"
   xmlns:rdf="http://www.w3.org/1999/02/22-rdf-syntax-ns#"
   xmlns:svg="http://www.w3.org/2000/svg"
   xmlns="http://www.w3.org/2000/svg"
   xmlns:xlink="http://www.w3.org/1999/xlink"
   xml:space="preserve"
   style="enable-background:new 0 0 512 512;"
   viewBox="0 0 512 512"
   y="0px"
   x="0px"
   id="Layer_1"
   version="1.1"><metadata
   id="metadata175"><rdf:RDF><cc:Work
       rdf:about=""><dc:format>image/svg+xml</dc:format><dc:type
         rdf:resource="http://purl.org/dc/dcmitype/StillImage" /><dc:title></dc:title></cc:Work></rdf:RDF></metadata><defs
   id="defs173"><linearGradient
     id="linearGradient1034"><stop
       id="stop1030"
       offset="0"
       style="stop-color:#fcfcfc;stop-opacity:1" /><stop
       id="stop1032"
       offset="1"
       style="stop-color:#f1ff55;stop-opacity:1" /></linearGradient><radialGradient
     gradientUnits="userSpaceOnUse"
     gradientTransform="matrix(1,0,0,1.0003262,0,-0.07529354)"
     r="153.3"
     fy="230.85"
     fx="256"
     cy="230.85"
     cx="256"
     id="radialGradient1038"
     xlink:href="#linearGradient1034" /></defs>
<g
   id="g61">
	<g
   id="g40">
		<g
   id="g38">
			<g
   id="g4">
				<polygon
   id="polygon2"
   points="431.8,351 430.1,351.4 430.1,386.8 430.1,404.9 430.1,423.9 466.4,416.6 456.3,367.2       452.7,349.4 430.1,238.5 430.1,342.6     "
   style="fill:#E2E2E2;" />
			</g>
			<g
   id="g8">
				<polygon
   id="polygon6"
   points="125.1,486 276.1,455.3 118.9,455.3     "
   style="fill:#E2E2E2;" />
			</g>
			<g
   id="g18">
				<g
   id="g12">
					<polygon
   id="polygon10"
   points="81.9,109.2 81.9,88.1 81.5,88.1 81.5,109.3      "
   style="fill:#E2E2E2;" />
				</g>
				<polygon
   id="polygon14"
   points="70.1,111.6 81.5,167.5 81.5,109.3     "
   style="fill:#00d400" />
				<polygon
   id="polygon16"
   points="81.5,167.5 70.1,111.6 81.5,109.3 81.5,88.1 45.6,95.4 68.9,209.5 81.9,273.5       81.9,169.4     "
   style="fill:#E2E2E2;" />
			</g>
			<g
   id="g36">
				<g
   id="g22">
					<polygon
   id="polygon20"
   points="371.9,56.7 393.1,56.7 393,56.1 371.8,56.1      "
   style="fill:#E2E2E2;" />
				</g>
				<g
   id="g26">
					<polygon
   id="polygon24"
   points="235.9,56.7 340.1,56.7 343.1,56.1 238.9,56.1      "
   style="fill:#E2E2E2;" />
				</g>
				<polygon
   id="polygon28"
   points="343.1,56.1 371.8,56.1 370.7,50.5     "
   style="fill:#00d400" />
				<polygon
   id="polygon30"
   points="238.9,56.1 343.1,56.1 370.7,50.5 371.8,56.1 393,56.1 386.9,26     "
   style="fill:#E2E2E2;" />
				<g
   id="g34">
					<path
   id="path32"
   d="M81.9,56.7v398.6h348.2V56.7H81.9z M409.3,186.6v197.5H102.7V77.5h306.7v88.4L409.3,186.6       L409.3,186.6z"
   style="fill:#F2F2F2;" />
				</g>
			</g>
		</g>
	</g>
	<radialGradient
   gradientUnits="userSpaceOnUse"
   r="367.3916"
   cy="307.1155"
   cx="314.5698"
   id="SVGID_1_">
		<stop
   id="stop42"
   style="stop-color:#00AF86"
   offset="0" />
		<stop
   id="stop44"
   style="stop-color:#3F6DA6"
   offset="1" />
	</radialGradient>
	<polygon
   id="polygon47"
   points="409.3,384.2 409.3,186.6 409.3,165.9 409.3,77.5 102.7,77.5 102.7,384.2    200.6,384.2 221.4,384.2  "
   style="fill:url(#radialGradient1038);fill-opacity:1" />
	<g
   id="g59">
		<circle
   id="circle49"
   r="75.4"
   cy="229.4"
   cx="259.2"
   style="fill:#FFD00F;" />
		<polygon
   id="polygon51"
   points="309.6,271.4 244.5,384.2 374.7,384.2   "
   style="fill:#5CC3B7;" />
		<polygon
   id="polygon53"
   points="191.7,305.6 146.4,384.2 237.1,384.2   "
   style="fill:#70C8BC;" />
		<polygon
   id="polygon55"
   points="387.8,346.5 366.2,383.8 409.3,383.8   "
   style="fill:#27B898;" />
		<polygon
   id="polygon57"
   points="134.3,332.9 104.7,384.2 163.8,384.2   "
   style="fill:#5CC3B7;" />
	</g>
</g>

</svg>