<?xml version="1.0" encoding="utf-8"?>
<!-- Generator: Adobe Illustrator 22.0.1, SVG Export Plug-In . SVG Version: 6.00 Build 0)  -->
<svg version="1.1" id="Layer_1" xmlns="http://www.w3.org/2000/svg" xmlns:xlink="http://www.w3.org/1999/xlink" x="0px" y="0px"
	 viewBox="0 0 512 512" style="enable-background:new 0 0 512 512;" xml:space="preserve">
<style type="text/css">
	.st0{fill:#825E46;}
	.st1{fill:url(#SVGID_1_);}
	.st2{fill:url(#SVGID_2_);}
	.st3{fill:url(#SVGID_3_);}
	.st4{fill:#CCA68D;}
	.st5{fill:#FFFFFF;}
</style>
<g>
	<path class="st0" d="M411,486H101c-41.2,0-75-33.8-75-75V101c0-41.2,33.8-75,75-75h310c41.2,0,75,33.8,75,75v310
		C486,452.2,452.2,486,411,486z"/>
	<g>
		
			<linearGradient id="SVGID_1_" gradientUnits="userSpaceOnUse" x1="256" y1="-857" x2="256" y2="-641.3" gradientTransform="matrix(1 0 0 -1 0 -414)">
			<stop  offset="0" style="stop-color:#825E46"/>
			<stop  offset="0.3286" style="stop-color:#73523C"/>
			<stop  offset="0.9622" style="stop-color:#4B3423"/>
			<stop  offset="1" style="stop-color:#483221"/>
		</linearGradient>
		<polygon class="st1" points="68.9,443 256,227.3 443.1,443 		"/>
		
			<linearGradient id="SVGID_2_" gradientUnits="userSpaceOnUse" x1="220.7" y1="-670" x2="447.6" y2="-670" gradientTransform="matrix(1 0 0 -1 0 -414)">
			<stop  offset="0" style="stop-color:#483221"/>
			<stop  offset="0.3122" style="stop-color:#563D2A"/>
			<stop  offset="0.9016" style="stop-color:#7B5942"/>
			<stop  offset="1" style="stop-color:#825E46"/>
		</linearGradient>
		<polygon class="st2" points="447.6,445.4 220.7,256 447.6,66.6 		"/>
		
			<linearGradient id="SVGID_3_" gradientUnits="userSpaceOnUse" x1="64.4" y1="-670" x2="291.3" y2="-670" gradientTransform="matrix(1 0 0 -1 0 -414)">
			<stop  offset="0" style="stop-color:#825E46"/>
			<stop  offset="9.840000e-02" style="stop-color:#7B5942"/>
			<stop  offset="0.6878" style="stop-color:#563D2A"/>
			<stop  offset="1" style="stop-color:#483221"/>
		</linearGradient>
		<polygon class="st3" points="64.4,445.4 291.3,256 64.4,66.6 		"/>
	</g>
</g>
<g id="g37_1_">
	<path id="path39_1_" class="st4" d="M392.2,291.3L291.4,392.2c-19.5,19.5-51.2,19.5-70.7,0L119.8,291.3
		c-19.5-19.5-19.5-51.2,0-70.7l100.8-100.8c19.5-19.5,51.2-19.5,70.7,0l100.8,100.8C411.7,240.1,411.7,271.8,392.2,291.3z"/>
</g>
<g>
	<path class="st5" d="M301.6,210.5h-91.3l0,0l0,0c-25.1,0-45.6,20.4-45.6,45.6s20.4,45.5,45.6,45.5c0,0,0,0,0.1,0h91.3l0,0
		c25.1,0,45.5-20.4,45.5-45.6C347.2,230.8,326.8,210.5,301.6,210.5z M301.6,290.8c-19.2,0-34.8-15.6-34.8-34.8s15.6-34.8,34.8-34.8
		s34.8,15.6,34.8,34.8C336.4,275.3,320.8,290.8,301.6,290.8z"/>
	<path class="st5" d="M301.6,228.9c-15,0-27.1,12.2-27.1,27.1s12.2,27.1,27.1,27.1s27.1-12.2,27.1-27.1S316.6,228.9,301.6,228.9z"/>
</g>
</svg>
