<?xml version="1.0" encoding="utf-8"?>
<!-- Generator: Adobe Illustrator 22.0.1, SVG Export Plug-In . SVG Version: 6.00 Build 0)  -->
<svg version="1.1" id="Layer_3" xmlns="http://www.w3.org/2000/svg" xmlns:xlink="http://www.w3.org/1999/xlink" x="0px" y="0px"
	 viewBox="0 0 512 512" style="enable-background:new 0 0 512 512;" xml:space="preserve">
<radialGradient id="SVGID_1_" cx="256" cy="256" r="230" gradientUnits="userSpaceOnUse">
	<stop  offset="0" style="stop-color:#00A6FF"/>
	<stop  offset="1" style="stop-color:#14002A"/>
</radialGradient>
<circle style="fill:url(#SVGID_1_);" cx="256" cy="256" r="230"/>
<g>
	<g id="Layer_3_2_">
		<g>
			<path style="fill:#FFFFFF;" d="M339.349,173.703l-52.118-13.965l13.965,52.118l13.53-13.53
				c31.622,32.187,31.453,83.911-0.518,115.881c-23.534,23.534-57.774,29.836-87.044,18.911l4.857,18.125
				c32.384,8.122,68.099-0.475,93.425-25.8c38.176-38.176,38.345-99.961,0.518-138.354l13.387-13.387L339.349,173.703
				L339.349,173.703z"/>
			<path style="fill:#FFFFFF;" d="M198.326,314.726c-0.177-0.174-0.356-0.343-0.531-0.518c-32.147-32.147-32.147-84.267,0-116.413
				c24.206-24.206,59.736-30.182,89.536-17.934l-5.189-18.537c-32.947-9.064-69.694-0.656-95.584,25.234
				c-38.352,38.352-38.352,100.533,0,138.885c0.176,0.176,0.358,0.34,0.535,0.515l-13.42,13.42l52.118,13.965l-13.965-52.118
				L198.326,314.726L198.326,314.726z"/>
		</g>
	</g>
</g>
<rect x="226" y="214.5" style="fill:#FFFFFF;" width="24" height="83"/>
<rect x="264" y="214.5" style="fill:#FFFFFF;" width="136.117" height="83"/>
<g>
</g>
<g>
</g>
<g>
</g>
<g>
</g>
<g>
</g>
<g>
</g>
</svg>
