<?xml version="1.0" encoding="utf-8"?>
<!-- Generator: Adobe Illustrator 18.0.0, SVG Export Plug-In . SVG Version: 6.00 Build 0)  -->
<!DOCTYPE svg PUBLIC "-//W3C//DTD SVG 1.1//EN" "http://www.w3.org/Graphics/SVG/1.1/DTD/svg11.dtd">
<svg version="1.1" id="Layer_1" xmlns="http://www.w3.org/2000/svg" xmlns:xlink="http://www.w3.org/1999/xlink" x="0px" y="0px"
	 viewBox="0 0 512 512" enable-background="new 0 0 512 512" xml:space="preserve">
<g>
	<ellipse opacity="0.4" enable-background="new    " cx="279" cy="458.2" rx="154.6" ry="8.3"/>
	<g>
		
			<radialGradient id="SVGID_1_" cx="-683.3617" cy="279.3905" r="149.4602" gradientTransform="matrix(1 0 0 1 884 -97)" gradientUnits="userSpaceOnUse">
			<stop  offset="0" style="stop-color:#7D7D7D"/>
			<stop  offset="0.1852" style="stop-color:#797979"/>
			<stop  offset="0.3642" style="stop-color:#6D6D6D"/>
			<stop  offset="0.5407" style="stop-color:#5A5A5A"/>
			<stop  offset="0.7157" style="stop-color:#3E3E3E"/>
			<stop  offset="0.8879" style="stop-color:#1A1A1A"/>
			<stop  offset="1" style="stop-color:#000000"/>
		</radialGradient>
		<circle fill="url(#SVGID_1_)" cx="279.5" cy="252" r="206.5"/>
		<circle cx="195.3" cy="179" r="41.6"/>
		<circle fill="#676767" cx="192.8" cy="176.4" r="33.8"/>
		<circle cx="192.8" cy="176.4" r="11.5"/>
		<path fill="#C8C8C8" d="M192.8,184.3c-1.3,0-2.6-0.3-3.8-1l0,0c-0.7-0.4-66.8-36.3-127.6-1.3c-3.8,2.2-8.6,0.9-10.8-2.9
			s-0.9-8.6,2.9-10.8c68.7-39.5,140.1-0.4,143.1,1.2c3.8,2.1,5.2,6.9,3,10.7C198.2,182.8,195.5,184.3,192.8,184.3z"/>
		<polygon fill="#EF4C23" points="57.4,156.7 63.9,141.6 63.8,158 75.9,146.9 69.1,161.9 84.7,156.7 72.3,167.6 88.7,169.1 
			73,174.1 87.3,182.2 71,180.3 80.8,193.5 66.6,185.2 70.2,201.2 60.6,187.9 57.4,204 54.1,187.9 44.5,201.2 48.1,185.2 
			33.9,193.5 43.7,180.3 27.4,182.2 41.7,174.1 26,169.1 42.4,167.6 30.1,156.7 45.6,161.9 38.8,146.9 50.9,158 50.8,141.6 		"/>
	</g>
</g>
</svg>
