<?xml version="1.0" encoding="utf-8"?>
<!-- Generator: Adobe Illustrator 22.0.1, SVG Export Plug-In . SVG Version: 6.00 Build 0)  -->
<svg version="1.1" id="Layer_3" xmlns="http://www.w3.org/2000/svg" xmlns:xlink="http://www.w3.org/1999/xlink" x="0px" y="0px"
	 viewBox="0 0 512 512" style="enable-background:new 0 0 512 512;" xml:space="preserve">
<g>
	<g>
		<g style="enable-background:new    ;">
			
				<linearGradient id="SVGID_1_" gradientUnits="userSpaceOnUse" x1="256" y1="28" x2="256" y2="488" gradientTransform="matrix(1 0 0 -1 0 514)">
				<stop  offset="0" style="stop-color:#B8B8B8"/>
				<stop  offset="1" style="stop-color:#F0F0F0"/>
			</linearGradient>
			<path style="fill:url(#SVGID_1_);" d="M446,486H66c-22.1,0-40-17.9-40-40V66c0-22.1,17.9-40,40-40h380c22.1,0,40,17.9,40,40v380
				C486,468.1,468.1,486,446,486z"/>
		</g>
		
			<linearGradient id="SVGID_2_" gradientUnits="userSpaceOnUse" x1="256" y1="28" x2="256" y2="488" gradientTransform="matrix(1 0 0 -1 0 514)">
			<stop  offset="0" style="stop-color:#D1D1D1"/>
			<stop  offset="1" style="stop-color:#F0F0F0"/>
		</linearGradient>
		<circle style="fill:url(#SVGID_2_);" cx="256" cy="256" r="230"/>
		
			<linearGradient id="SVGID_3_" gradientUnits="userSpaceOnUse" x1="256" y1="78" x2="256" y2="438" gradientTransform="matrix(1 0 0 -1 0 514)">
			<stop  offset="0" style="stop-color:#F0F0F0"/>
			<stop  offset="1" style="stop-color:#D1D1D1"/>
		</linearGradient>
		<circle style="fill:url(#SVGID_3_);" cx="256" cy="256" r="180"/>
	</g>
	<g style="opacity:0.4;">
		<path d="M126.357,267.318c0.018,0.274,0.037,0.547,0.056,0.821c0.059,0.851,0.126,1.7,0.202,2.547
			c0.014,0.157,0.029,0.314,0.044,0.471c0.092,0.991,0.196,1.979,0.311,2.965c0.001,0.01,0.002,0.019,0.003,0.029
			c3.272,28.033,15.632,54.157,35.584,74.691c18.672,19.218,42.45,31.92,68.362,36.807c0.015,0.003,0.031,0.006,0.046,0.009
			c0.972,0.183,1.947,0.355,2.925,0.515c0.123,0.02,0.246,0.042,0.369,0.062c0.873,0.141,1.749,0.271,2.627,0.395
			c0.216,0.03,0.431,0.063,0.647,0.093c0.8,0.108,1.603,0.206,2.407,0.299c0.281,0.033,0.56,0.069,0.842,0.1
			c0.761,0.084,1.524,0.156,2.287,0.226c0.317,0.029,0.633,0.063,0.951,0.09c0.777,0.066,1.556,0.119,2.335,0.171
			c0.299,0.02,0.597,0.046,0.897,0.064c1.076,0.064,2.154,0.117,3.235,0.154c1.074,0.037,2.147,0.059,3.219,0.07
			c0.239,0.002,0.477-0.001,0.716,0c0.83,0.004,1.659,0.003,2.487-0.009c0.296-0.004,0.591-0.014,0.886-0.02
			c0.77-0.016,1.54-0.037,2.308-0.067c0.312-0.012,0.623-0.029,0.935-0.043c0.755-0.035,1.509-0.075,2.261-0.123
			c0.304-0.019,0.606-0.042,0.909-0.063c0.769-0.055,1.538-0.115,2.305-0.184c0.272-0.024,0.544-0.05,0.815-0.076
			c0.815-0.078,1.628-0.163,2.441-0.257c0.213-0.025,0.426-0.049,0.639-0.074c0.905-0.108,1.808-0.227,2.709-0.354
			c0.111-0.016,0.221-0.03,0.332-0.046c23.902-3.44,46.448-13.535,65.102-29.423c22.141-18.858,37.13-44.379,42.805-72.584
			c0.093-0.464,0.177-0.93,0.266-1.395c-0.09,0.471-0.19,0.939-0.285,1.409l-43.023,30.964l-7.005-9.756l52.254-37.59l6.241-4.489
			h0.005l5.434,8.845c-0.156,1.641-0.335,3.277-0.547,4.905c0,0.002-0.001,0.005-0.001,0.007c-0.586,4.467-1.387,8.883-2.388,13.236
			c-5.049,21.961-15.292,42.316-29.859,59.455c-0.023,0.027-0.046,0.053-0.069,0.08c-0.654,0.768-1.317,1.53-1.988,2.285
			c-0.163,0.183-0.329,0.363-0.493,0.545c-0.55,0.612-1.102,1.222-1.663,1.825c-0.344,0.369-0.694,0.732-1.042,1.098
			c-0.404,0.425-0.805,0.852-1.214,1.272c-0.736,0.754-1.481,1.502-2.235,2.242c-0.04,0.039-0.078,0.079-0.117,0.117
			c-0.821,0.804-1.654,1.599-2.497,2.385c-0.21,0.196-0.425,0.386-0.636,0.581c-0.607,0.56-1.216,1.118-1.831,1.666
			c-0.48,0.427-0.967,0.846-1.453,1.267c-0.339,0.294-0.675,0.59-1.016,0.88c-0.679,0.576-1.363,1.144-2.051,1.706
			c-0.143,0.117-0.285,0.237-0.429,0.354c-24.703,20.038-55.257,31.049-87.015,31.425c-0.185,0.002-0.372-0.001-0.557,0.001
			c-0.905,0.007-1.81,0.01-2.716,0c-1.118-0.013-2.237-0.038-3.358-0.077c-0.201-0.007-0.401-0.02-0.601-0.028
			c-0.974-0.038-1.946-0.081-2.914-0.139c-0.402-0.024-0.802-0.058-1.203-0.085c-0.778-0.053-1.556-0.105-2.33-0.171
			c-0.393-0.033-0.785-0.075-1.178-0.112c-0.789-0.073-1.578-0.147-2.363-0.233c-0.339-0.037-0.675-0.081-1.013-0.121
			c-0.849-0.1-1.698-0.202-2.542-0.316c-0.257-0.035-0.513-0.074-0.77-0.11c-0.938-0.133-1.874-0.271-2.806-0.422
			c-0.155-0.025-0.309-0.052-0.464-0.078c-1.051-0.174-2.098-0.356-3.14-0.553c-0.032-0.006-0.063-0.012-0.094-0.018
			c-60.161-11.412-106.408-61.012-113.588-121.823c-0.005-0.046-0.011-0.092-0.016-0.139c-0.122-1.043-0.23-2.09-0.329-3.14
			c-0.019-0.2-0.038-0.399-0.055-0.599c-0.081-0.903-0.151-1.809-0.216-2.717c-0.022-0.314-0.045-0.629-0.065-0.943
			c-0.038-0.59-0.065-1.182-0.096-1.774l12.004-0.032C126.309,266.618,126.335,266.968,126.357,267.318z"/>
		<path d="M383.705,251.736c-0.008-0.145-0.017-0.289-0.025-0.433c-0.044-0.759-0.098-1.515-0.156-2.272
			c-0.02-0.256-0.037-0.513-0.058-0.769c-0.068-0.839-0.148-1.676-0.232-2.512c-0.017-0.167-0.032-0.335-0.05-0.503
			c-0.097-0.919-0.205-1.836-0.321-2.751c-0.01-0.078-0.019-0.155-0.029-0.233c-2.91-22.599-11.741-43.898-25.8-62.042
			c-0.471-0.609-0.943-1.218-1.426-1.819c-0.119-0.149-0.244-0.294-0.364-0.443c-0.546-0.674-1.097-1.346-1.658-2.011
			c-0.138-0.163-0.28-0.323-0.419-0.486c-0.545-0.639-1.093-1.277-1.652-1.907c-0.199-0.224-0.404-0.445-0.604-0.668
			c-0.5-0.556-1-1.111-1.51-1.659c-0.041-0.044-0.081-0.09-0.122-0.135c-0.253-0.271-0.512-0.534-0.767-0.803
			c-0.358-0.377-0.711-0.759-1.074-1.132c-0.061-0.063-0.124-0.124-0.185-0.186c-0.405-0.416-0.817-0.823-1.227-1.233
			c-0.32-0.319-0.637-0.641-0.96-0.957c-0.514-0.503-1.034-0.997-1.555-1.49c-0.221-0.209-0.439-0.421-0.661-0.628
			c-0.62-0.579-1.246-1.148-1.876-1.713c-0.125-0.112-0.249-0.227-0.374-0.338c-0.725-0.646-1.457-1.282-2.195-1.91
			c-0.028-0.023-0.055-0.047-0.082-0.071c-18.875-16.053-41.767-26.212-66.392-29.43c-0.036-0.005-0.073-0.009-0.11-0.013
			c-0.978-0.127-1.959-0.245-2.942-0.35c-0.22-0.024-0.441-0.041-0.661-0.064c-0.808-0.082-1.617-0.163-2.428-0.23
			c-0.454-0.038-0.909-0.065-1.364-0.098c-0.586-0.042-1.171-0.09-1.759-0.125c-1.051-0.062-2.105-0.112-3.161-0.149
			c-1.044-0.036-2.087-0.059-3.129-0.07c-0.531-0.006-1.06-0.001-1.59,0c-0.505,0.001-1.011-0.002-1.516,0.005
			c-0.622,0.008-1.242,0.026-1.863,0.043c-0.408,0.011-0.816,0.02-1.224,0.035c-0.662,0.024-1.322,0.058-1.981,0.092
			c-0.363,0.019-0.726,0.037-1.089,0.059c-0.684,0.041-1.366,0.09-2.047,0.142c-0.336,0.026-0.673,0.052-1.009,0.08
			c-0.691,0.058-1.381,0.123-2.069,0.192c-0.332,0.033-0.664,0.068-0.995,0.104c-0.683,0.074-1.364,0.153-2.044,0.238
			c-0.344,0.043-0.688,0.089-1.032,0.135c-0.659,0.088-1.317,0.178-1.973,0.276c-0.385,0.057-0.769,0.119-1.153,0.18
			c-0.608,0.096-1.217,0.193-1.822,0.298c-0.477,0.082-0.953,0.172-1.429,0.26c-0.505,0.093-1.012,0.184-1.515,0.284
			c-0.715,0.141-1.428,0.292-2.141,0.445c-0.258,0.056-0.518,0.107-0.775,0.164c-20.383,4.502-39.488,13.926-55.669,27.708
			c-22.141,18.859-37.13,44.379-42.805,72.584c-0.094,0.47-0.18,0.942-0.269,1.414c0.091-0.478,0.193-0.952,0.289-1.428
			l43.023-30.964l7.005,9.756l-52.253,37.589l-6.241,4.49h-0.005l-5.431-8.84c0.158-1.644,0.339-3.282,0.553-4.908
			c0.018-0.134,0.031-0.27,0.049-0.404c0.024-0.181,0.052-0.361,0.077-0.541c0.134-0.965,0.274-1.928,0.427-2.887
			c0.025-0.159,0.054-0.318,0.079-0.477c0.161-0.985,0.329-1.967,0.51-2.945c0.023-0.123,0.047-0.245,0.07-0.368
			c0.193-1.027,0.395-2.05,0.609-3.068c0.013-0.061,0.026-0.121,0.039-0.182c0.167-0.789,0.348-1.572,0.529-2.356
			c12.666-54.963,57.431-97.332,112.839-107.085c0.288-0.051,0.577-0.096,0.865-0.144c0.767-0.13,1.536-0.256,2.307-0.374
			c0.437-0.067,0.876-0.127,1.314-0.19c0.626-0.089,1.253-0.177,1.882-0.258c0.505-0.065,1.011-0.126,1.517-0.185
			c0.571-0.067,1.143-0.132,1.717-0.192c0.536-0.056,1.072-0.11,1.609-0.16c0.553-0.052,1.108-0.099,1.663-0.145
			c0.546-0.045,1.092-0.089,1.639-0.127c0.562-0.039,1.125-0.072,1.689-0.105c0.537-0.031,1.073-0.064,1.61-0.089
			c0.605-0.028,1.213-0.047,1.82-0.068c0.497-0.017,0.994-0.038,1.491-0.049c0.817-0.019,1.637-0.026,2.457-0.031
			c0.279-0.002,0.557-0.009,0.836-0.009c1.653,0,3.315,0.028,4.975,0.087c1.154,0.04,2.304,0.095,3.453,0.163
			c0.651,0.038,1.299,0.091,1.947,0.138c0.49,0.036,0.981,0.065,1.469,0.105c0.914,0.076,1.825,0.166,2.735,0.26
			c0.211,0.022,0.424,0.039,0.635,0.061c1.094,0.117,2.186,0.247,3.275,0.39c0.021,0.003,0.042,0.005,0.063,0.008
			c26.86,3.523,51.937,14.639,72.579,32.172c0.028,0.024,0.056,0.049,0.085,0.073c0.809,0.688,1.61,1.386,2.405,2.093
			c0.135,0.121,0.269,0.244,0.404,0.365c0.689,0.618,1.373,1.241,2.051,1.873c0.247,0.23,0.49,0.465,0.735,0.698
			c0.566,0.535,1.131,1.072,1.689,1.618c0.356,0.348,0.706,0.703,1.058,1.055c0.445,0.444,0.891,0.887,1.331,1.338
			c0.469,0.481,0.931,0.971,1.394,1.46c0.318,0.335,0.64,0.668,0.954,1.005c0.565,0.607,1.118,1.221,1.671,1.837
			c0.213,0.237,0.43,0.47,0.64,0.708c0.612,0.691,1.213,1.389,1.81,2.089c0.151,0.177,0.306,0.351,0.456,0.528
			c0.617,0.731,1.221,1.469,1.822,2.21c0.128,0.158,0.26,0.312,0.387,0.471c0.53,0.659,1.046,1.326,1.563,1.993
			c15.308,19.772,25.005,43.091,28.201,67.834c0.009,0.071,0.018,0.143,0.027,0.214c0.129,1.012,0.247,2.026,0.355,3.042
			c0.018,0.175,0.035,0.351,0.053,0.527c0.093,0.917,0.179,1.835,0.255,2.756c0.023,0.287,0.043,0.574,0.065,0.861
			c0.062,0.816,0.12,1.634,0.168,2.453c0.022,0.375,0.038,0.751,0.057,1.126L383.705,251.736z"/>
	</g>
	<g>
		<path style="fill:#FFFFFF;" d="M126.357,263.318c0.018,0.274,0.037,0.547,0.056,0.821c0.059,0.851,0.126,1.7,0.202,2.547
			c0.014,0.157,0.029,0.314,0.044,0.471c0.092,0.991,0.196,1.979,0.311,2.965c0.001,0.01,0.002,0.019,0.003,0.029
			c3.272,28.033,15.632,54.157,35.584,74.691c18.672,19.218,42.45,31.92,68.362,36.807c0.015,0.003,0.031,0.006,0.046,0.009
			c0.972,0.183,1.947,0.355,2.925,0.515c0.123,0.02,0.246,0.042,0.369,0.062c0.873,0.141,1.749,0.271,2.627,0.395
			c0.216,0.03,0.431,0.063,0.647,0.093c0.8,0.108,1.603,0.206,2.407,0.299c0.281,0.033,0.56,0.069,0.842,0.1
			c0.761,0.084,1.524,0.156,2.287,0.226c0.317,0.029,0.633,0.063,0.951,0.09c0.777,0.066,1.556,0.119,2.335,0.171
			c0.299,0.02,0.597,0.046,0.897,0.064c1.076,0.064,2.154,0.117,3.235,0.154c1.074,0.037,2.147,0.059,3.219,0.07
			c0.239,0.002,0.477-0.001,0.716,0c0.83,0.004,1.659,0.003,2.487-0.009c0.296-0.004,0.591-0.014,0.886-0.02
			c0.77-0.016,1.54-0.037,2.308-0.067c0.312-0.012,0.623-0.029,0.935-0.043c0.755-0.035,1.509-0.075,2.261-0.123
			c0.304-0.019,0.606-0.042,0.909-0.063c0.769-0.055,1.538-0.115,2.305-0.184c0.272-0.024,0.544-0.05,0.815-0.076
			c0.815-0.078,1.628-0.163,2.441-0.257c0.213-0.025,0.426-0.049,0.639-0.074c0.905-0.108,1.808-0.227,2.709-0.354
			c0.111-0.016,0.221-0.03,0.332-0.046c23.902-3.44,46.448-13.535,65.102-29.423c22.141-18.858,37.13-44.379,42.805-72.584
			c0.093-0.464,0.177-0.93,0.266-1.395c-0.09,0.471-0.19,0.939-0.285,1.409l-43.023,30.964l-7.005-9.756l52.254-37.59l6.241-4.489
			h0.005l5.434,8.845c-0.156,1.641-0.335,3.277-0.547,4.905c0,0.002-0.001,0.005-0.001,0.007c-0.586,4.467-1.387,8.883-2.388,13.236
			c-5.049,21.961-15.292,42.316-29.859,59.455c-0.023,0.027-0.046,0.053-0.069,0.08c-0.654,0.768-1.317,1.53-1.988,2.285
			c-0.163,0.183-0.329,0.363-0.493,0.545c-0.55,0.612-1.102,1.222-1.663,1.825c-0.344,0.369-0.694,0.732-1.042,1.098
			c-0.404,0.425-0.805,0.852-1.214,1.272c-0.736,0.754-1.481,1.502-2.235,2.242c-0.04,0.039-0.078,0.079-0.117,0.117
			c-0.821,0.804-1.654,1.599-2.497,2.385c-0.21,0.196-0.425,0.386-0.636,0.581c-0.607,0.56-1.216,1.118-1.831,1.666
			c-0.48,0.427-0.967,0.846-1.453,1.267c-0.339,0.294-0.675,0.59-1.016,0.88c-0.679,0.576-1.363,1.144-2.051,1.706
			c-0.143,0.117-0.285,0.237-0.429,0.354c-24.703,20.038-55.257,31.049-87.015,31.425c-0.185,0.002-0.372-0.001-0.557,0.001
			c-0.905,0.007-1.81,0.01-2.716,0c-1.118-0.013-2.237-0.038-3.358-0.077c-0.201-0.007-0.401-0.02-0.601-0.028
			c-0.974-0.038-1.946-0.081-2.914-0.139c-0.402-0.024-0.802-0.058-1.203-0.085c-0.778-0.053-1.556-0.105-2.33-0.171
			c-0.393-0.033-0.785-0.075-1.178-0.112c-0.789-0.073-1.578-0.147-2.363-0.233c-0.339-0.037-0.675-0.081-1.013-0.121
			c-0.849-0.1-1.698-0.202-2.542-0.316c-0.257-0.035-0.513-0.074-0.77-0.11c-0.938-0.133-1.874-0.271-2.806-0.422
			c-0.155-0.025-0.309-0.052-0.464-0.078c-1.051-0.174-2.098-0.356-3.14-0.553c-0.032-0.006-0.063-0.012-0.094-0.018
			c-60.161-11.412-106.408-61.012-113.588-121.823c-0.005-0.046-0.011-0.092-0.016-0.139c-0.122-1.043-0.23-2.09-0.329-3.14
			c-0.019-0.2-0.038-0.399-0.055-0.599c-0.081-0.903-0.151-1.809-0.216-2.717c-0.022-0.314-0.045-0.629-0.065-0.943
			c-0.038-0.59-0.065-1.182-0.096-1.774l12.004-0.032C126.309,262.618,126.335,262.968,126.357,263.318z"/>
		<path style="fill:#4BD609;" d="M383.705,247.736c-0.008-0.145-0.017-0.289-0.025-0.433c-0.044-0.759-0.098-1.515-0.156-2.272
			c-0.02-0.256-0.037-0.513-0.058-0.769c-0.068-0.839-0.148-1.676-0.232-2.512c-0.017-0.167-0.032-0.335-0.05-0.503
			c-0.097-0.919-0.205-1.836-0.321-2.751c-0.01-0.078-0.019-0.155-0.029-0.233c-2.91-22.599-11.741-43.898-25.8-62.042
			c-0.471-0.609-0.943-1.218-1.426-1.819c-0.119-0.149-0.244-0.294-0.364-0.443c-0.546-0.674-1.097-1.346-1.658-2.011
			c-0.138-0.163-0.28-0.323-0.419-0.486c-0.545-0.639-1.093-1.277-1.652-1.907c-0.199-0.224-0.404-0.445-0.604-0.668
			c-0.5-0.556-1-1.111-1.51-1.659c-0.041-0.044-0.081-0.09-0.122-0.135c-0.253-0.271-0.512-0.534-0.767-0.803
			c-0.358-0.377-0.711-0.759-1.074-1.132c-0.061-0.063-0.124-0.124-0.185-0.186c-0.405-0.416-0.817-0.823-1.227-1.233
			c-0.32-0.319-0.637-0.641-0.96-0.957c-0.514-0.503-1.034-0.997-1.555-1.49c-0.221-0.209-0.439-0.421-0.661-0.628
			c-0.62-0.579-1.246-1.148-1.876-1.713c-0.125-0.112-0.249-0.227-0.374-0.338c-0.725-0.646-1.457-1.282-2.195-1.91
			c-0.028-0.023-0.055-0.047-0.082-0.071c-18.875-16.053-41.767-26.212-66.392-29.43c-0.036-0.005-0.073-0.009-0.11-0.013
			c-0.978-0.127-1.959-0.245-2.942-0.35c-0.22-0.024-0.441-0.041-0.661-0.064c-0.808-0.082-1.617-0.163-2.428-0.23
			c-0.454-0.038-0.909-0.065-1.364-0.098c-0.586-0.042-1.171-0.09-1.759-0.125c-1.051-0.062-2.105-0.112-3.161-0.149
			c-1.044-0.036-2.087-0.059-3.129-0.07c-0.531-0.006-1.06-0.001-1.59,0c-0.505,0.001-1.011-0.002-1.516,0.005
			c-0.622,0.008-1.242,0.026-1.863,0.043c-0.408,0.011-0.816,0.02-1.224,0.035c-0.662,0.024-1.322,0.058-1.981,0.092
			c-0.363,0.019-0.726,0.037-1.089,0.059c-0.684,0.041-1.366,0.09-2.047,0.142c-0.336,0.026-0.673,0.052-1.009,0.08
			c-0.691,0.058-1.381,0.123-2.069,0.192c-0.332,0.033-0.664,0.068-0.995,0.104c-0.683,0.074-1.364,0.153-2.044,0.238
			c-0.344,0.043-0.688,0.089-1.032,0.135c-0.659,0.088-1.317,0.178-1.973,0.276c-0.385,0.057-0.769,0.119-1.153,0.18
			c-0.608,0.096-1.217,0.193-1.822,0.298c-0.477,0.082-0.953,0.172-1.429,0.26c-0.505,0.093-1.012,0.184-1.515,0.284
			c-0.715,0.141-1.428,0.292-2.141,0.445c-0.258,0.056-0.518,0.107-0.775,0.164c-20.383,4.502-39.488,13.926-55.669,27.708
			c-22.141,18.859-37.13,44.379-42.805,72.584c-0.094,0.47-0.18,0.942-0.269,1.414c0.091-0.478,0.193-0.952,0.289-1.428
			l43.023-30.964l7.005,9.756l-52.253,37.589l-6.241,4.49h-0.005l-5.431-8.84c0.158-1.644,0.339-3.282,0.553-4.908
			c0.018-0.134,0.031-0.27,0.049-0.404c0.024-0.181,0.052-0.361,0.077-0.541c0.134-0.965,0.274-1.928,0.427-2.887
			c0.025-0.159,0.054-0.318,0.079-0.477c0.161-0.985,0.329-1.967,0.51-2.945c0.023-0.123,0.047-0.245,0.07-0.368
			c0.193-1.027,0.395-2.05,0.609-3.068c0.013-0.061,0.026-0.121,0.039-0.182c0.167-0.789,0.348-1.572,0.529-2.356
			c12.666-54.963,57.431-97.332,112.839-107.085c0.288-0.051,0.577-0.096,0.865-0.144c0.767-0.13,1.536-0.256,2.307-0.374
			c0.437-0.067,0.876-0.127,1.314-0.19c0.626-0.089,1.253-0.177,1.882-0.258c0.505-0.065,1.011-0.126,1.517-0.185
			c0.571-0.067,1.143-0.132,1.717-0.192c0.536-0.056,1.072-0.11,1.609-0.16c0.553-0.052,1.108-0.099,1.663-0.145
			c0.546-0.045,1.092-0.089,1.639-0.127c0.562-0.039,1.125-0.072,1.689-0.105c0.537-0.031,1.073-0.064,1.61-0.089
			c0.605-0.028,1.213-0.047,1.82-0.068c0.497-0.017,0.994-0.038,1.491-0.049c0.817-0.019,1.637-0.026,2.457-0.031
			c0.279-0.002,0.557-0.009,0.836-0.009c1.653,0,3.315,0.028,4.975,0.087c1.154,0.04,2.304,0.095,3.453,0.163
			c0.651,0.038,1.299,0.091,1.947,0.138c0.49,0.036,0.981,0.065,1.469,0.105c0.914,0.076,1.825,0.166,2.735,0.26
			c0.211,0.022,0.424,0.039,0.635,0.061c1.094,0.117,2.186,0.247,3.275,0.39c0.021,0.003,0.042,0.005,0.063,0.008
			c26.86,3.523,51.937,14.639,72.579,32.172c0.028,0.024,0.056,0.049,0.085,0.073c0.809,0.688,1.61,1.386,2.405,2.093
			c0.135,0.121,0.269,0.244,0.404,0.365c0.689,0.618,1.373,1.241,2.051,1.873c0.247,0.23,0.49,0.465,0.735,0.698
			c0.566,0.535,1.131,1.072,1.689,1.618c0.356,0.348,0.706,0.703,1.058,1.055c0.445,0.444,0.891,0.887,1.331,1.338
			c0.469,0.481,0.931,0.971,1.394,1.46c0.318,0.335,0.64,0.668,0.954,1.005c0.565,0.607,1.118,1.221,1.671,1.837
			c0.213,0.237,0.43,0.47,0.64,0.708c0.612,0.691,1.213,1.389,1.81,2.089c0.151,0.177,0.306,0.351,0.456,0.528
			c0.617,0.731,1.221,1.469,1.822,2.21c0.128,0.158,0.26,0.312,0.387,0.471c0.53,0.659,1.046,1.326,1.563,1.993
			c15.308,19.772,25.005,43.091,28.201,67.834c0.009,0.071,0.018,0.143,0.027,0.214c0.129,1.012,0.247,2.026,0.355,3.042
			c0.018,0.175,0.035,0.351,0.053,0.527c0.093,0.917,0.179,1.835,0.255,2.756c0.023,0.287,0.043,0.574,0.065,0.861
			c0.062,0.816,0.12,1.634,0.168,2.453c0.022,0.375,0.038,0.751,0.057,1.126L383.705,247.736z"/>
	</g>
</g>
<g>
</g>
<g>
</g>
<g>
</g>
<g>
</g>
<g>
</g>
<g>
</g>
</svg>
