<?xml version="1.0" encoding="UTF-8" standalone="no"?>
<!DOCTYPE svg PUBLIC "-//W3C//DTD SVG 1.1//EN" "http://www.w3.org/Graphics/SVG/1.1/DTD/svg11.dtd">
<svg width="100%" height="100%" viewBox="0 0 512 512" version="1.1" xmlns="http://www.w3.org/2000/svg" xmlns:xlink="http://www.w3.org/1999/xlink" xml:space="preserve" xmlns:serif="http://www.serif.com/" style="fill-rule:evenodd;clip-rule:evenodd;stroke-linejoin:round;stroke-miterlimit:1.41421;">
    <g id="g10" transform="matrix(1.25,0,0,-1.25,-64,576)">
        <g transform="matrix(0.781088,0,0,-0.781088,-15.2007,511.564)">
            <circle cx="347.209" cy="327.19" r="235.569" style="fill:rgb(31,32,33);"/>
        </g>
        <g id="path236" transform="matrix(1,0,0,1,311.186,142.02)">
            <path d="M0,0C0,-6.595 -5.346,-11.942 -11.942,-11.942L-98.46,-11.942C-105.056,-11.942 -110.402,-6.596 -110.402,0L-110.402,228.011C-110.402,234.606 -105.056,239.953 -98.46,239.953L-11.942,239.953C-5.347,239.953 0,234.606 0,228.011L0,0Z" style="fill:rgb(244,244,245);fill-rule:nonzero;"/>
        </g>
        <path id="path256" d="M214.173,218.088C214.173,194.996 232.892,176.276 255.984,176.276C279.076,176.276 297.796,194.996 297.796,218.088C297.796,241.179 279.076,259.899 255.984,259.899C232.892,259.899 214.173,241.179 214.173,218.088M237.869,218.088C237.869,228.092 245.98,236.203 255.984,236.203C265.989,236.203 274.099,228.092 274.099,218.088C274.099,208.083 265.989,199.973 255.984,199.973C245.98,199.973 237.869,208.083 237.869,218.088" style="fill:url(#_Radial1);fill-rule:nonzero;"/>
        <g id="g260">
            <g id="path268" transform="matrix(1,0,0,1,300.395,302.714)">
                <path d="M0,0C0,-0.776 -0.629,-1.405 -1.405,-1.405L-87.416,-1.405C-88.192,-1.405 -88.821,-0.776 -88.821,0L-88.821,65.012C-88.821,65.788 -88.192,66.417 -87.416,66.417L-1.405,66.417C-0.629,66.417 0,65.788 0,65.012L0,0Z" style="fill-rule:nonzero;"/>
            </g>
            <g id="g270">
                <g id="g318">
                    <clipPath id="_clip2">
                        <path d="M311.186,142.02C311.186,135.424 305.839,130.078 299.243,130.078L200.783,370.03C200.783,376.626 206.129,381.972 212.725,381.972L299.243,381.972C305.839,381.972 311.186,376.626 311.186,370.03L311.186,142.02Z"/>
                    </clipPath>
                    <g clip-path="url(#_clip2)">
                        <g opacity="0.399994">
                            <path id="path326" d="M311.186,142.02C311.186,135.424 305.839,130.078 299.243,130.078L200.783,370.03C200.783,376.626 206.129,381.972 212.725,381.972L299.243,381.972C305.839,381.972 311.186,376.626 311.186,370.03L311.186,142.02Z" style="fill:url(#_Linear3);fill-rule:nonzero;"/>
                        </g>
                    </g>
                </g>
            </g>
        </g>
    </g>
    <defs>
        <radialGradient id="_Radial1" cx="0" cy="0" r="1" gradientUnits="userSpaceOnUse" gradientTransform="matrix(41.8115,0,0,-41.8115,240.179,233.191)"><stop offset="0" style="stop-color:white;stop-opacity:1"/><stop offset="1" style="stop-color:rgb(228,228,228);stop-opacity:1"/></radialGradient>
        <linearGradient id="_Linear3" x1="0" y1="0" x2="1" y2="0" gradientUnits="userSpaceOnUse" gradientTransform="matrix(89.3155,38.3277,-38.3277,89.3155,244.099,250.925)"><stop offset="0" style="stop-color:white;stop-opacity:1"/><stop offset="1" style="stop-color:white;stop-opacity:1"/></linearGradient>
    </defs>
</svg>
