<?xml version="1.0" encoding="utf-8"?>
<!-- Generator: Adobe Illustrator 22.0.1, SVG Export Plug-In . SVG Version: 6.00 Build 0)  -->
<svg version="1.1" id="Layer_1" xmlns="http://www.w3.org/2000/svg" xmlns:xlink="http://www.w3.org/1999/xlink" x="0px" y="0px"
	 viewBox="0 0 512 512" enable-background="new 0 0 512 512" xml:space="preserve">
<radialGradient id="SVGID_1_" cx="256" cy="256" r="230" gradientUnits="userSpaceOnUse">
	<stop  offset="0" style="stop-color:#F6F6F6"/>
	<stop  offset="0.262" style="stop-color:#F2F2F2"/>
	<stop  offset="0.5213" style="stop-color:#E6E6E6"/>
	<stop  offset="0.7787" style="stop-color:#D2D2D2"/>
	<stop  offset="1" style="stop-color:#BBBBBB"/>
</radialGradient>
<circle fill="url(#SVGID_1_)" cx="256" cy="256" r="230"/>
<g>
	<path opacity="0.4" d="M485.967,258.636c-0.34-23.575-4.23-46.287-11.153-67.636H259.939L255,163H48.347
		c-13.938,29.183-21.89,61.767-22.307,96.166c0.509,37.706,10.087,73.217,26.659,104.456C113.48,327.702,246.3,333,246.3,333
		l0.018,0.1H246.3l4.8,27.3l0.1,0.6c0,0,128.409,2.723,181.84,41.82C465.589,363.616,485.35,313.426,485.967,258.636z M284.68,333.1
		l0.12-0.1v0.1H284.68z"/>
	<g>
		<linearGradient id="SVGID_2_" gradientUnits="userSpaceOnUse" x1="246.3" y1="270" x2="486" y2="270">
			<stop  offset="0" style="stop-color:#FFFFFF"/>
			<stop  offset="0.1867" style="stop-color:#F7F7F7"/>
			<stop  offset="0.5909" style="stop-color:#EBEBEB"/>
			<stop  offset="1" style="stop-color:#E7E7E7"/>
		</linearGradient>
		<path fill="url(#SVGID_2_)" d="M284.8,326.6v0.5h-38.5l4.8,27.3l0.1,0.6h212.453C477.975,325.015,486,291.446,486,256
			c0-24.78-3.935-48.637-11.186-71H259.8L284.8,326.6z"/>
		<polygon fill="#056B9A" points="251.3,355 246.3,327 284.8,327 		"/>
		<linearGradient id="SVGID_3_" gradientUnits="userSpaceOnUse" x1="26" y1="242" x2="284.9" y2="242">
			<stop  offset="0" style="stop-color:#00A6E4"/>
			<stop  offset="0.13" style="stop-color:#00ADE7"/>
			<stop  offset="0.3452" style="stop-color:#00B8EB"/>
			<stop  offset="0.5621" style="stop-color:#3FC1EE"/>
			<stop  offset="0.7799" style="stop-color:#53C8F0"/>
			<stop  offset="1" style="stop-color:#58CAF1"/>
		</linearGradient>
		<path fill="url(#SVGID_3_)" d="M48.347,157C34.025,186.985,26,220.554,26,256c0,24.78,3.935,48.637,11.186,71H284.9v-0.5L255,157
			H48.347z"/>
	</g>
	<path fill="#41B8EA" d="M333.8,243.8h32.7V285h-6v-5.2h-26.7V309h-6.1v-29.1h-26.3v5.6h-5.9v-41.6h32.2v-16l7.9,0.5
		c-0.1,0.6-0.6,1-1.8,1.2L333.8,243.8L333.8,243.8z M301.3,274h26.3v-24.4h-26.3V274z M333.8,274h26.7v-24.4h-26.7V274z"/>
	<path fill="#FFFFFF" d="M208.7,270h-5.2v-46.5c0-4.4-1.4-6.5-4.2-6.5c-1.7,0-3.2,1.3-4.5,3.8L176.3,270h-5.5v-40
		c-1.3,0.7-2.7,1-4.4,1c-2.6,0-4.9-0.9-6.8-2.8c-1.9-1.9-2.8-4.1-2.8-6.8c0-2.6,0.9-4.9,2.8-6.8c1.9-1.9,4.1-2.8,6.8-2.8
		c2.6,0,4.9,0.9,6.8,2.8c1.9,1.9,2.8,4.1,2.8,6.8V250c-0.2,4.5-0.4,7.7-0.7,9.6c0.6-1.9,1.5-4.6,2.6-8.1l11.8-31.4
		c2-5.4,5.4-8.1,10-8.1c6,0,9,3.9,9,11.6L208.7,270L208.7,270z M171.3,221.4c0-1.3-0.5-2.5-1.4-3.4c-1-1-2.1-1.4-3.4-1.4
		c-1.3,0-2.5,0.5-3.4,1.4c-1,1-1.4,2.1-1.4,3.4c0,1.3,0.5,2.5,1.4,3.4c1,1,2.1,1.4,3.4,1.4c1.3,0,2.5-0.5,3.4-1.4
		C170.9,223.9,171.3,222.8,171.3,221.4z"/>
</g>
</svg>
