<?xml version="1.0" encoding="utf-8"?>
<!-- Generator: Adobe Illustrator 22.0.1, SVG Export Plug-In . SVG Version: 6.00 Build 0)  -->
<svg version="1.1"
	 id="svg2" xmlns:cc="http://creativecommons.org/ns#" xmlns:dc="http://purl.org/dc/elements/1.1/" xmlns:rdf="http://www.w3.org/1999/02/22-rdf-syntax-ns#" xmlns:svg="http://www.w3.org/2000/svg"
	 xmlns="http://www.w3.org/2000/svg" xmlns:xlink="http://www.w3.org/1999/xlink" x="0px" y="0px" viewBox="0 0 512 512"
	 style="enable-background:new 0 0 512 512;" xml:space="preserve">
<g id="g228">
	
		<radialGradient id="SVGID_1_" cx="236.4977" cy="224.7781" r="226.7153" gradientTransform="matrix(0.866 -0.5 -0.5 -0.866 164.3749 568.4477)" gradientUnits="userSpaceOnUse">
		<stop  offset="0.0012" style="stop-color:#E95400"/>
		<stop  offset="1" style="stop-color:#1F77F3"/>
	</radialGradient>
	<path style="fill:url(#SVGID_1_);" d="M256,35.214L64.794,145.607v56.887c0,101.421,54.107,195.138,141.94,245.848L256,476.786
		l49.266-28.444c87.833-50.71,141.94-144.427,141.94-245.848v-56.887L256,35.214z"/>
	<path style="opacity:0.4;enable-background:new    ;" d="M256,53.314l183.039,96.355v58.564
		c0,94.548-50.441,173.897-132.322,221.171L256,458.686l-50.718-29.282C123.402,382.13,72.961,302.781,72.961,208.233v-58.564
		L256,53.314 M256,34.669c-3.219,0-6.438,0.833-9.322,2.498l-183.04,96.356c-5.769,3.331-9.322,9.486-9.322,16.147v58.564
		c0,49.659,13.124,98.638,37.953,141.644s60.685,70.845,103.691,95.674l50.718,29.282c2.884,1.665,6.103,2.498,9.322,2.498
		c3.219,0,6.438-0.833,9.322-2.498l50.718-29.282c43.006-24.829,78.861-52.668,103.691-95.674
		c24.829-43.006,37.953-91.985,37.953-141.644V149.67c0-6.661-3.554-12.816-9.322-16.147l-183.04-96.356
		C262.438,35.502,259.219,34.669,256,34.669L256,34.669z"/>
	<path style="fill:#E8E8E8;" d="M256,44.645l183.039,105.678v58.564c0,94.548-50.441,181.914-132.322,229.188L256,467.355
		l-50.718-29.282C123.402,390.8,72.961,303.434,72.961,208.886v-58.564L256,44.645 M256,26c-3.219,0-6.438,0.833-9.322,2.498
		L63.638,134.175c-5.769,3.331-9.322,9.486-9.322,16.147v58.564c0,49.659,13.124,98.638,37.953,141.644
		s60.685,78.861,103.691,103.691l50.718,29.282c2.884,1.665,6.103,2.498,9.322,2.498c3.219,0,6.438-0.833,9.322-2.498l50.718-29.282
		c43.006-24.829,78.861-60.685,103.691-103.691c24.829-43.006,37.953-91.985,37.953-141.644v-58.564
		c0-6.661-3.554-12.816-9.322-16.147L265.322,28.498C262.438,26.833,259.219,26,256,26L256,26z"/>
	<g>
		<path id="path250" style="fill:#EE4723;" d="M312.205,287.746c-1.886,54.379-65.719,92.343-65.719,92.343
			c19.072-63.829-45.958-100.976-45.958-155.387s67.368-94.174,67.368-94.174C241.118,218.033,314.693,215.988,312.205,287.746"/>
		<path id="path254" style="fill:#EE9224;" d="M199.733,326.174c0,32.583,44.802,55.298,44.802,55.298
			c-13.003-38.223,31.329-60.467,31.329-93.051s-42.609-56.394-42.609-56.394C237.799,285.915,199.733,293.591,199.733,326.174"/>
	</g>
</g>
</svg>
