<?xml version="1.0" encoding="UTF-8" standalone="no"?>
<!DOCTYPE svg PUBLIC "-//W3C//DTD SVG 1.1//EN" "http://www.w3.org/Graphics/SVG/1.1/DTD/svg11.dtd">
<svg width="100%" height="100%" viewBox="0 0 512 512" version="1.1" xmlns="http://www.w3.org/2000/svg" xmlns:xlink="http://www.w3.org/1999/xlink" xml:space="preserve" xmlns:serif="http://www.serif.com/" style="fill-rule:evenodd;clip-rule:evenodd;stroke-linejoin:round;stroke-miterlimit:1.41421;">
    <g transform="matrix(1.17315,0,0,1.17315,-89.7066,-72.5419)">
        <circle cx="294.682" cy="280.051" r="196.053" style="fill:rgb(189,190,194);"/>
    </g>
    <g>
        <circle cx="256" cy="256" r="189.5" style="fill:rgb(221,219,219);"/>
        <path d="M325,164.5L325,129C325,73.7 294.1,28.8 256,28.8C217.9,28.8 187,73.6 187,129L187,164.6C159.3,185.5 141.4,218.7 141.4,256.1C141.4,319.4 192.7,370.7 256,370.7C319.3,370.7 370.6,319.3 370.6,256C370.6,218.6 352.7,185.5 325,164.5Z" style="fill:white;fill-rule:nonzero;"/>
        <g>
            <circle cx="256" cy="256" r="81"/>
            <circle cx="256" cy="256" r="32" style="fill:rgb(40,40,40);"/>
            <path d="M256,340.5C209.4,340.5 171.4,302.6 171.4,255.9C171.4,209.2 209.3,171.3 256,171.3C302.7,171.3 340.5,209.2 340.5,255.9C340.5,302.6 302.6,340.5 256,340.5ZM256,178.4C213.2,178.4 178.4,213.2 178.4,256C178.4,298.8 213.2,333.5 256,333.5C298.8,333.5 333.5,298.7 333.5,255.9C333.5,213.1 298.8,178.4 256,178.4Z" style="fill:rgb(155,155,155);fill-rule:nonzero;"/>
            <path d="M256,313.4C224.4,313.4 198.6,287.7 198.6,256C198.6,224.3 224.3,198.6 256,198.6C287.7,198.6 313.4,224.3 313.4,256C313.4,287.7 287.6,313.4 256,313.4ZM256,202.6C226.6,202.6 202.6,226.5 202.6,256C202.6,285.5 226.5,309.4 256,309.4C285.5,309.4 309.4,285.5 309.4,256C309.4,226.5 285.4,202.6 256,202.6Z" style="fill:rgb(40,40,40);fill-rule:nonzero;"/>
        </g>
    </g>
    <g>
        <circle cx="256" cy="114.2" r="11.7" style="fill:rgb(137,255,0);"/>
        <path d="M256,102.5C262.4,102.5 267.7,107.7 267.7,114.2C267.7,120.6 262.5,125.9 256,125.9C249.5,125.9 244.3,120.7 244.3,114.2C244.3,107.7 249.6,102.5 256,102.5M256,100.5C248.5,100.5 242.3,106.6 242.3,114.2C242.3,121.8 248.4,127.9 256,127.9C263.5,127.9 269.7,121.8 269.7,114.2C269.7,106.6 263.5,100.5 256,100.5Z" style="fill:rgb(224,224,224);fill-rule:nonzero;"/>
    </g>
</svg>
