<?xml version="1.0" encoding="UTF-8" standalone="no"?>
<!DOCTYPE svg PUBLIC "-//W3C//DTD SVG 1.1//EN" "http://www.w3.org/Graphics/SVG/1.1/DTD/svg11.dtd">
<svg width="100%" height="100%" viewBox="0 0 512 512" version="1.1" xmlns="http://www.w3.org/2000/svg" xmlns:xlink="http://www.w3.org/1999/xlink" xml:space="preserve" xmlns:serif="http://www.serif.com/" style="fill-rule:evenodd;clip-rule:evenodd;stroke-linejoin:round;stroke-miterlimit:1.41421;">
    <g id="g928" transform="matrix(0.986517,0,0,0.986517,376.851,327.941)">
        <path id="rect910" d="M55.678,-245.961C55.678,-271.857 34.653,-292.881 8.757,-292.881L-258.978,-292.881C-284.874,-292.881 -305.898,-271.857 -305.898,-245.961L-305.898,106.486C-305.898,132.382 -284.874,153.407 -258.978,153.407L8.757,153.407C34.653,153.407 55.678,132.382 55.678,106.486L55.678,-245.961Z" style="fill:rgb(51,51,51);"/>
        <path id="rect914" d="M-259.609,-302.881C-290.62,-302.881 -315.898,-277.604 -315.898,-246.594L-315.898,107.119C-315.898,138.13 -290.62,163.406 -259.609,163.406L9.391,163.406C40.401,163.406 65.678,138.13 65.678,107.119L65.678,-246.594C65.678,-277.604 40.401,-302.881 9.391,-302.881L-259.609,-302.881ZM-259.609,-282.881L9.391,-282.881C29.667,-282.881 45.678,-266.87 45.678,-246.594L45.678,107.119C45.678,127.396 29.667,143.406 9.391,143.406L-259.609,143.406C-279.886,143.406 -295.898,127.396 -295.898,107.119L-295.898,-246.594C-295.898,-266.87 -279.886,-282.881 -259.609,-282.881Z" style="fill:rgb(38,38,38);fill-rule:nonzero;"/>
    </g>
    <g id="g94">
        <g id="g74">
            <g id="g12">
                <path id="rect4" d="M256,287.1C256,281.25 251.25,276.5 245.4,276.5L145.1,276.5C139.25,276.5 134.5,281.25 134.5,287.1C134.5,292.95 139.25,297.7 145.1,297.7L245.4,297.7C251.25,297.7 256,292.95 256,287.1Z" style="fill:rgb(138,37,255);"/>
                <path id="rect6" d="M377.5,328.3C377.5,322.45 372.75,317.7 366.9,317.7L145.1,317.7C139.25,317.7 134.5,322.45 134.5,328.3C134.5,334.15 139.25,338.9 145.1,338.9L366.9,338.9C372.75,338.9 377.5,334.15 377.5,328.3Z" style="fill:rgb(138,37,255);"/>
                <path id="rect8" d="M377.5,368.3C377.5,362.45 372.75,357.7 366.9,357.7L145.1,357.7C139.25,357.7 134.5,362.45 134.5,368.3C134.5,374.15 139.25,378.9 145.1,378.9L366.9,378.9C372.75,378.9 377.5,374.15 377.5,368.3Z" style="fill:rgb(138,37,255);"/>
                <path id="rect10" d="M377.4,408.4C377.4,402.55 372.65,397.8 366.8,397.8L266.6,397.8C260.75,397.8 256,402.55 256,408.4C256,414.25 260.75,419 266.6,419L366.8,419C372.65,419 377.4,414.25 377.4,408.4Z" style="fill:rgb(138,37,255);"/>
            </g>
        </g>
        <g id="g92">
            <g id="g82">
                <path id="polygon76" d="M256,358.3L276,323.7L256,335.1L256,358.3Z" style="fill:rgb(214,214,214);fill-rule:nonzero;"/>
                <path id="path78" d="M256,153.7L256,335.1L276,323.7L276,158.7C276,155.9 273.8,153.7 271,153.7L256,153.7Z" style="fill:rgb(196,131,77);fill-rule:nonzero;"/>
                <path id="polygon80" d="M236,323.7L256,358.3L256,335.1L236,323.7Z" style="fill:white;fill-rule:nonzero;"/>
            </g>
            <g id="g90">
                <path id="polygon84" d="M236,323.7L256,335.1L256,168.6L236,168.6L236,323.7Z" style="fill:rgb(255,224,0);fill-rule:nonzero;"/>
                <path id="path86" d="M271,153.7L256,153.7L256,168.6L276,168.6L276,158.7C276,155.9 273.8,153.7 271,153.7Z" style="fill:rgb(173,173,173);fill-rule:nonzero;"/>
                <path id="path88" d="M236,158.7L236,168.6L256,168.6L256,153.7L241,153.7C238.2,153.7 236,155.9 236,158.7Z" style="fill:white;fill-rule:nonzero;"/>
            </g>
        </g>
    </g>
</svg>
