<?xml version="1.0" encoding="utf-8"?>
<!-- Generator: Adobe Illustrator 22.0.1, SVG Export Plug-In . SVG Version: 6.00 Build 0)  -->
<svg version="1.1" id="Layer_1" xmlns:serif="http://www.serif.com/"
	 xmlns="http://www.w3.org/2000/svg" xmlns:xlink="http://www.w3.org/1999/xlink" x="0px" y="0px" viewBox="0 0 512 512"
	 enable-background="new 0 0 512 512" xml:space="preserve">
<g id="g928" transform="matrix(0.986517,0,0,0.986517,376.851,327.941)">
	<path id="rect910" fill="#333333" d="M55.678-245.961c0-25.896-21.025-46.92-46.921-46.92h-267.735
		c-25.896,0-46.92,21.024-46.92,46.92v352.447c0,25.896,21.024,46.921,46.92,46.921H8.757c25.896,0,46.921-21.025,46.921-46.921
		V-245.961z"/>
	<path id="rect914" fill="#262626" d="M-259.609-302.881c-31.011,0-56.289,25.277-56.289,56.287v353.713
		c0,31.011,25.278,56.287,56.289,56.287h269c31.01,0,56.287-25.276,56.287-56.287v-353.713c0-31.01-25.277-56.287-56.287-56.287
		H-259.609z M-259.609-282.881h269c20.276,0,36.287,16.011,36.287,36.287v353.713c0,20.277-16.011,36.287-36.287,36.287h-269
		c-20.277,0-36.289-16.01-36.289-36.287v-353.713C-295.898-266.87-279.886-282.881-259.609-282.881z"/>
</g>
<g id="g94">
	<g id="g74">
		<g id="g12">
			<path id="rect4" fill="#32FF00" d="M256,287.1c0-5.85-4.75-10.6-10.6-10.6H145.1c-5.85,0-10.6,4.75-10.6,10.6
				s4.75,10.6,10.6,10.6h100.3C251.25,297.7,256,292.95,256,287.1z"/>
			<path id="rect6" fill="#32FF00" d="M377.5,328.3c0-5.85-4.75-10.6-10.6-10.6H145.1c-5.85,0-10.6,4.75-10.6,10.6
				c0,5.85,4.75,10.6,10.6,10.6h221.8C372.75,338.9,377.5,334.15,377.5,328.3z"/>
			<path id="rect8" fill="#32FF00" d="M377.5,368.3c0-5.85-4.75-10.6-10.6-10.6H145.1c-5.85,0-10.6,4.75-10.6,10.6
				c0,5.85,4.75,10.6,10.6,10.6h221.8C372.75,378.9,377.5,374.15,377.5,368.3z"/>
			<path id="rect10" fill="#32FF00" d="M377.4,408.4c0-5.85-4.75-10.6-10.6-10.6H266.6c-5.85,0-10.6,4.75-10.6,10.6
				s4.75,10.6,10.6,10.6h100.2C372.65,419,377.4,414.25,377.4,408.4z"/>
		</g>
	</g>
	<g id="g92">
		<g id="g82">
			<path id="polygon76" fill="#D6D6D6" d="M256,358.3l20-34.6l-20,11.4V358.3z"/>
			<path id="path78" fill="#C4834D" d="M256,153.7v181.4l20-11.4v-165c0-2.8-2.2-5-5-5H256z"/>
			<path id="polygon80" fill="#FFFFFF" d="M236,323.7l20,34.6v-23.2L236,323.7z"/>
		</g>
		<g id="g90">
			<path id="polygon84" fill="#FFE000" d="M236,323.7l20,11.4V168.6h-20V323.7z"/>
			<path id="path86" fill="#ADADAD" d="M271,153.7h-15v14.9h20v-9.9C276,155.9,273.8,153.7,271,153.7z"/>
			<path id="path88" fill="#FFFFFF" d="M236,158.7v9.9h20v-14.9h-15C238.2,153.7,236,155.9,236,158.7z"/>
		</g>
	</g>
</g>
</svg>
