<?xml version="1.0" encoding="utf-8"?>
<!-- Generator: Adobe Illustrator 22.0.1, SVG Export Plug-In . SVG Version: 6.00 Build 0)  -->
<svg version="1.1" id="Layer_3" xmlns="http://www.w3.org/2000/svg" xmlns:xlink="http://www.w3.org/1999/xlink" x="0px" y="0px"
	 viewBox="0 0 512 512" style="enable-background:new 0 0 512 512;" xml:space="preserve">
<radialGradient id="SVGID_1_" cx="256" cy="256" r="180.6806" gradientUnits="userSpaceOnUse">
	<stop  offset="0" style="stop-color:#E5E5E5"/>
	<stop  offset="0.1631" style="stop-color:#E1D8E8"/>
	<stop  offset="0.4671" style="stop-color:#D8B5EF"/>
	<stop  offset="0.8757" style="stop-color:#C97DFB"/>
	<stop  offset="1" style="stop-color:#C46AFF"/>
</radialGradient>
<circle style="fill:url(#SVGID_1_);" cx="256" cy="256" r="230"/>
<g>
	<path style="opacity:0.4;" d="M256,56.304c28.359,0,55.858,5.357,81.735,15.921c25.004,10.208,47.465,24.826,66.757,43.447
		c19.292,18.622,34.437,40.301,45.013,64.435C460.45,205.085,466,231.628,466,259s-5.55,53.915-16.495,78.892
		c-10.576,24.135-25.72,45.814-45.013,64.435c-19.293,18.621-41.753,33.239-66.757,43.447
		c-25.877,10.564-53.377,15.921-81.735,15.921s-55.858-5.357-81.735-15.921c-25.004-10.208-47.465-24.826-66.757-43.447
		c-19.292-18.621-34.437-40.301-45.013-64.435C51.55,312.915,46,286.372,46,259s5.55-53.915,16.495-78.892
		c10.576-24.135,25.72-45.814,45.013-64.435c19.293-18.621,41.753-33.239,66.757-43.447C200.142,61.661,227.641,56.304,256,56.304
		 M256,37C128.975,37,26,136.393,26,259s102.975,222,230,222s230-99.393,230-222S383.025,37,256,37L256,37z"/>
	<path style="fill:#F1F1F2;" d="M256,46c28.359,0,55.858,5.55,81.735,16.495c25.004,10.576,47.465,25.72,66.757,45.013
		c19.292,19.293,34.437,41.753,45.013,66.757C460.45,200.142,466,227.641,466,256s-5.55,55.858-16.495,81.735
		c-10.576,25.004-25.72,47.465-45.013,66.757c-19.293,19.292-41.753,34.437-66.757,45.013C311.858,460.45,284.359,466,256,466
		s-55.858-5.55-81.735-16.495c-25.004-10.576-47.465-25.72-66.757-45.013C88.215,385.2,73.071,362.74,62.495,337.735
		C51.55,311.858,46,284.359,46,256s5.55-55.858,16.495-81.735c10.576-25.004,25.72-47.465,45.013-66.757
		c19.293-19.292,41.753-34.437,66.757-45.013C200.142,51.55,227.641,46,256,46 M256,26C128.975,26,26,128.975,26,256
		s102.975,230,230,230s230-102.975,230-230S383.025,26,256,26L256,26z"/>
</g>
<g>
	<path style="opacity:0.4;" d="M123.821,256c0-37.246,13.749-72.263,38.714-98.6c24.965-26.337,58.159-40.842,93.465-40.842
		s68.5,14.504,93.465,40.842c24.965,26.337,38.714,61.354,38.714,98.6c0,37.246-13.749,72.263-38.714,98.6
		C324.5,380.938,291.306,395.442,256,395.442s-68.5-14.504-93.465-40.842C137.57,328.263,123.821,293.246,123.821,256 M102.57,256
		c0,89.393,68.693,161.86,153.43,161.86c84.737,0,153.43-72.467,153.43-161.86c0-89.393-68.693-161.86-153.43-161.86
		C171.263,94.14,102.57,166.607,102.57,256L102.57,256z"/>
	<path style="fill:#FFFFFF;" d="M256,116.558c37.246,0,72.263,14.504,98.6,40.842c26.337,26.337,40.842,61.354,40.842,98.6
		c0,37.246-14.504,72.263-40.842,98.6c-26.337,26.337-61.354,40.842-98.6,40.842s-72.263-14.504-98.6-40.842
		c-26.337-26.337-40.842-61.354-40.842-98.6c0-37.246,14.504-72.263,40.842-98.6C183.737,131.062,218.754,116.558,256,116.558
		 M256,94.14c-89.393,0-161.86,72.467-161.86,161.86c0,89.393,72.467,161.86,161.86,161.86c89.393,0,161.86-72.467,161.86-161.86
		C417.86,166.607,345.393,94.14,256,94.14L256,94.14z"/>
	<g>
		<path style="opacity:0.4;" d="M363.667,206.333l-36.899-24.368l-71.253,61.892l-34.314-34.389l-34.198,26
			c40.852,19.834,67.47,53.088,68.512,53.502l0,0l0,0C255.515,288.969,323,219.667,363.667,206.333z"/>
		<polygon style="fill:#FFFFFF;" points="350.713,186.79 328.288,164.278 255.515,236.876 215.813,197.087 193.3,219.687 
			233.09,259.389 233.09,259.389 255.515,281.989 255.515,281.989 255.515,281.989 278.027,259.389 278.027,259.389 		"/>
		
			<rect x="191.657" y="223.585" transform="matrix(0.7071 0.7071 -0.7071 0.7071 238.4304 -96.5125)" style="fill:#00CFFF;" width="88.119" height="31.94"/>
	</g>
</g>
<g>
</g>
<g>
</g>
<g>
</g>
<g>
</g>
<g>
</g>
<g>
</g>
</svg>
