<?xml version="1.0" encoding="utf-8"?>
<!-- Generator: Adobe Illustrator 22.0.1, SVG Export Plug-In . SVG Version: 6.00 Build 0)  -->
<svg version="1.1" id="Layer_3" xmlns="http://www.w3.org/2000/svg" xmlns:xlink="http://www.w3.org/1999/xlink" x="0px" y="0px"
	 viewBox="0 0 512 512" enable-background="new 0 0 512 512" xml:space="preserve">
<circle fill="#EBFFFE" cx="256" cy="256" r="230"/>
<g>
	<g>
		<path fill="#D11530" d="M485.85,248.084c-0.222-6.569-0.719-13.068-1.481-19.486c-5.6,5.101-49.954,39.36-231.06,39.36
			c-115.54,0-213.175-40.974-224.791-46.034c-1.649,11.102-2.514,22.459-2.516,34.019c0,0.031,0,0.062,0,0.092
			c0.018,119.278,90.833,217.334,207.091,228.831c15.194,0.814,30.561,0.816,45.756,0.005
			c113.554-11.199,202.832-104.979,206.984-220.464C485.94,258.97,485.947,253.524,485.85,248.084z"/>
		<path fill="#FC2256" d="M485.85,248.084c-0.219-6.476-0.706-12.884-1.45-19.214c-8.924,12.822-113.445,156.734-231.091,39.088
			C113.761,128.411,40.239,205.518,28.911,219.401c-1.903,11.902-2.907,24.104-2.91,36.542c0,0.031,0,0.062,0,0.092
			c0.018,119.278,90.833,217.334,207.091,228.831c15.194,0.814,30.561,0.816,45.756,0.005
			c113.554-11.199,202.832-104.979,206.984-220.464C485.94,258.97,485.947,253.524,485.85,248.084z"/>
		<path fill="#FF7300" d="M485.996,255.679c-0.012-8.799-0.532-17.479-1.506-26.02c-7.759,19.914-86.3,207.502-253.325,100.435
			C84.852,236.252,44.438,292.376,34.333,317.515c24.936,90.049,103.257,157.907,198.758,167.352
			c15.194,0.814,30.561,0.816,45.756,0.006c116.155-11.456,206.924-109.317,207.147-228.432
			C485.995,256.186,485.996,255.933,485.996,255.679z"/>
		<path fill="#FFD400" d="M485.996,255.679c-0.012-8.633-0.513-17.151-1.451-25.537c-6.734,24.138-72.443,239.604-252.25,160.958
			c-124.413-54.431-159.479-31.9-164.398-2.731c37.491,53.179,96.957,89.749,165.194,96.497c15.194,0.814,30.561,0.816,45.756,0.005
			c116.155-11.456,206.924-109.317,207.147-228.432C485.995,256.186,485.996,255.933,485.996,255.679z"/>
	</g>
	<g>
		<path fill="#DAFF00" d="M256,174.188c42.479,0,79.083,25.193,95.577,61.459l11.975-20.787
			c-21.917-36.491-61.91-61.007-107.552-61.007c-38.638,0-73.208,17.511-96.142,44.964c5.988,2.711,12.201,5.875,18.641,9.49
			C197.592,187.406,225.271,174.188,256,174.188z"/>
		<path fill="#6D0342" d="M153.08,258.468c3.841-18.98,12.766-36.152,25.306-49.935c-6.44-3.615-12.653-6.779-18.641-9.49
			c-13.105,15.704-22.482,34.683-26.662,55.471c-1.582,7.682-2.372,15.704-2.485,23.838H107.55
			c15.93,1.469,35.135,6.327,58.295,16.381l9.377-16.268h-24.29C151.046,271.46,151.724,264.907,153.08,258.468z"/>
		<path fill="#632303" d="M106.534,278.351L106.534,278.351L106.534,278.351l34.457,59.651l24.968-43.27
			c-23.16-9.942-42.366-14.913-58.295-16.381H106.534z"/>
		<g>
			<path fill="none" d="M381.29,279.255c0,0.791,0,1.582,0,2.372c4.519-1.017,8.925-2.034,13.218-3.276h-13.105
				C381.29,278.577,381.29,278.916,381.29,279.255z"/>
			<path fill="#FFFFFF" d="M358.017,313.487L358.017,313.487L358.017,313.487z"/>
			<path fill="#FFFFFF" d="M377.335,310.323L377.335,310.323L377.335,310.323z"/>
			<path fill="#FFFFFF" d="M374.737,310.888L374.737,310.888L374.737,310.888z"/>
			<path fill="#DAFF00" d="M403.772,275.414l-9.716-16.72L371.009,218.7l-26.436,45.755l-8.021,13.783h24.403
				c0,0.339,0,0.678,0,0.904c0,1.921-0.113,3.728-0.113,5.649c7.004-0.791,13.896-1.921,20.449-3.276c0-0.791,0-1.582,0-2.372
				c0-0.339,0-0.678,0-0.904h13.105C397.558,277.447,400.721,276.431,403.772,275.414z"/>
			
				<linearGradient id="SVGID_1_" gradientUnits="userSpaceOnUse" x1="253.364" y1="201.3378" x2="485.0894" y2="201.3378" gradientTransform="matrix(1 0 0 -1 0 512)">
				<stop  offset="0" style="stop-color:#D40005"/>
				<stop  offset="1" style="stop-color:#FF3F45"/>
			</linearGradient>
			<path fill="url(#SVGID_1_)" d="M377.335,310.323c-0.904,0.226-1.808,0.452-2.711,0.678
				C375.641,310.775,376.545,310.549,377.335,310.323z"/>
			
				<linearGradient id="SVGID_2_" gradientUnits="userSpaceOnUse" x1="253.364" y1="199.8127" x2="485.0894" y2="199.8127" gradientTransform="matrix(1 0 0 -1 0 512)">
				<stop  offset="0" style="stop-color:#D40005"/>
				<stop  offset="1" style="stop-color:#FF3F45"/>
			</linearGradient>
			<path fill="url(#SVGID_2_)" d="M374.737,310.888c-5.423,1.243-10.959,2.147-16.607,2.598
				C363.665,313.035,369.314,312.244,374.737,310.888z"/>
			<path fill="#FFFFFF" d="M405.466,278.351l-1.695-2.937c-3.05,1.017-6.214,2.034-9.377,2.937H405.466z"/>
			<path fill="#600404" d="M405.466,278.351l-1.695-2.937c-3.05,1.017-6.214,2.034-9.377,2.937H405.466z"/>
			<path fill="#FFFFFF" d="M360.841,284.904c-0.565,10.055-2.485,19.771-5.649,28.809c0.904,0,1.921-0.113,2.824-0.226l0,0
				c5.649-0.452,11.185-1.356,16.607-2.598l0,0c0.904-0.226,1.808-0.452,2.711-0.678l0,0c2.372-9.151,3.615-18.867,3.841-28.696
				C374.624,282.983,367.846,284.113,360.841,284.904z"/>
			<path fill="#600404" d="M360.841,284.904c-0.565,10.055-2.485,19.771-5.649,28.809c0.904,0,1.921-0.113,2.824-0.226l0,0
				c5.649-0.452,11.185-1.356,16.607-2.598l0,0c0.904-0.226,1.808-0.452,2.711-0.678l0,0c2.372-9.151,3.615-18.867,3.841-28.696
				C374.624,282.983,367.846,284.113,360.841,284.904z"/>
		</g>
		<path fill="#6D0342" d="M351.012,360.936c12.427-14.348,21.578-31.633,26.323-50.613c-7.117,1.808-14.574,3.05-22.143,3.502
			c-6.779,19.545-19.206,36.491-35.361,48.918C330.79,363.309,341.183,362.631,351.012,360.936z"/>
		<path fill="#632303" d="M351.012,360.936c-9.829,1.808-20.223,2.485-31.181,1.695c-17.737,13.557-39.88,21.691-63.831,21.691
			c-43.721,0-81.116-26.662-96.933-64.622l-12.088,21.352c5.31,9.377,11.749,17.963,19.206,25.532
			c18.641,5.31,40.445,13.331,66.091,24.516c13.105,5.762,25.532,9.942,37.508,12.653
			C302.207,400.252,330.903,384.322,351.012,360.936z"/>
		<path fill="#775003" d="M166.185,366.585c22.708,23.386,54.567,37.96,89.815,37.96c4.632,0,9.264-0.226,13.783-0.791
			c-11.862-2.824-24.403-7.004-37.508-12.653C206.63,379.916,184.826,371.895,166.185,366.585z"/>
	</g>
</g>
<path opacity="0.7" fill="#FFFFFF" enable-background="new    " d="M87.357,99.626C124.628,129.641,190.259,144.7,256,144.7
	c65.714,0,131.319-15.047,168.676-45.037c-6.172-6.656-12.731-12.946-19.645-18.834c-13.35,9.942-31.768,18.404-54.131,24.771
	c-28.1,8-60.9,12.2-94.8,12.2s-66.7-4.2-94.8-12.2c-22.439-6.308-40.908-14.79-54.269-24.824
	C100.107,86.669,93.538,92.964,87.357,99.626z"/>
</svg>
