<?xml version="1.0" encoding="utf-8"?>
<!-- Generator: Adobe Illustrator 18.0.0, SVG Export Plug-In . SVG Version: 6.00 Build 0)  -->
<!DOCTYPE svg PUBLIC "-//W3C//DTD SVG 1.1//EN" "http://www.w3.org/Graphics/SVG/1.1/DTD/svg11.dtd">
<svg version="1.1" id="Layer_1" xmlns="http://www.w3.org/2000/svg" xmlns:xlink="http://www.w3.org/1999/xlink" x="0px" y="0px"
	 viewBox="0 0 512 512" style="enable-background:new 0 0 512 512;" xml:space="preserve">
<g>
	<g id="g210" transform="translate(272,158.491)">
		<path id="path212" style="fill:#3F0107;" d="M16.42,295.089c109.121,0,197.58-88.459,197.58-197.58
			c0-62.132-28.688-117.554-73.531-153.774l25.292-43.806H16.42c-109.121,0-197.58,88.459-197.58,197.58
			S-92.7,295.089,16.42,295.089"/>
	</g>
	<g id="g214" transform="translate(240,353.509)">
		<path id="path216" style="fill:#FC033E;" d="M-16.42-295.089c-109.121,0-197.58,88.459-197.58,197.58
			c0,62.132,28.688,117.554,73.531,153.774l-25.292,43.806h149.34c109.121,0,197.58-88.459,197.58-197.58
			S92.7-295.089-16.42-295.089"/>
	</g>
</g>
</svg>
