<?xml version="1.0" encoding="utf-8"?>
<!-- Generator: Adobe Illustrator 22.0.1, SVG Export Plug-In . SVG Version: 6.00 Build 0)  -->
<svg version="1.1"
	 id="svg2" xmlns:cc="http://creativecommons.org/ns#" xmlns:dc="http://purl.org/dc/elements/1.1/" xmlns:rdf="http://www.w3.org/1999/02/22-rdf-syntax-ns#" xmlns:svg="http://www.w3.org/2000/svg"
	 xmlns="http://www.w3.org/2000/svg" xmlns:xlink="http://www.w3.org/1999/xlink" x="0px" y="0px" viewBox="0 0 512 512"
	 style="enable-background:new 0 0 512 512;" xml:space="preserve">
<g>
	<path style="fill:#011D23;" d="M445,485H65c-22.1,0-40-17.9-40-40V65c0-22.1,17.9-40,40-40h380c22.1,0,40,17.9,40,40v380
		C485,467.1,467.1,485,445,485z"/>
	
		<linearGradient id="SVGID_1_" gradientUnits="userSpaceOnUse" x1="255" y1="487" x2="255" y2="27" gradientTransform="matrix(1 0 0 -1 0 512)">
		<stop  offset="0" style="stop-color:#FFFFFF"/>
		<stop  offset="1" style="stop-color:#FFFFFF;stop-opacity:0.5"/>
	</linearGradient>
	<path style="fill:url(#SVGID_1_);" d="M445,35c16.5,0,30,13.5,30,30v380c0,16.5-13.5,30-30,30H65c-16.5,0-30-13.5-30-30V65
		c0-16.5,13.5-30,30-30H445 M445,25H65c-22.1,0-40,17.9-40,40v380c0,22.1,17.9,40,40,40h380c22.1,0,40-17.9,40-40V65
		C485,42.9,467.1,25,445,25L445,25z"/>
</g>
<path style="fill:#0080F4;" d="M93,255c0,0,2.2-0.1,6.3-0.3c2.1-0.1,4.6-0.2,7.6-0.4c0.7,0,1.5-0.1,2.3-0.1h0.3h0.3
	c0.2,0,0.3,0,0.5-0.1c0.3-0.1,0.7-0.2,1-0.4c0.6-0.3,1.2-0.8,1.5-1.4c0.1-0.2,0.2-0.3,0.2-0.5c0-0.1,0.1-0.2,0.1-0.3v-0.1l0.1-0.2
	c0.2-0.4,0.4-0.9,0.5-1.3c0.9-2,2.5-3.8,4.5-5c2-1.3,4.6-2,7.2-1.9c2.7,0.1,5.5,1.1,7.7,3.1l0.8,0.8l0.7,0.9
	c0.5,0.6,0.9,1.2,1.3,1.9c0.2,0.3,0.4,0.7,0.5,1l0.2,0.4l0.1,0.1c0-0.1,0,0,0,0l0.1,0.2c0.1,0,0.2,0.2,0.3,0.3s0.3,0.2,0.4,0.3
	c0.3,0.2,0.6,0.3,1,0.4c0.2,0,0.3,0,0.5,0h0.9c0.7,0,1.4-0.1,2.1-0.1h0.5h0.6h0.3h0.4c0.3,0,0.5,0.1,0.8,0.1
	c3.8,0.6,7.3,3.6,8.4,7.6c0.2,0.5,0.2,1,0.3,1.5c0,0.1,0-0.2,0,0v0.1v0.3c0,0.2,0.1,0.4,0.1,0.5c0.1,0.3,0.3,0.9,0.5,1.3
	c0.2,0.5,0.5,0.9,0.8,1.2c0.3,0.4,0.7,0.7,1.1,1c1.7,1.2,4.3,1.4,6.3,0.5c1-0.5,1.8-1.2,2.4-2.1c0.3-0.5,0.5-1,0.7-1.6
	c0.1-0.3,0.1-0.6,0.2-0.9l0.2-1.3c0.3-1.7,0.6-3.4,0.8-5.1c0.1-0.5,0.2-1,0.3-1.5l0.2-0.8l0.1-0.4l0.1-0.2c0,0,0.2-0.6,0.2-0.4
	l0.5-1.2l0.1-0.3c0-0.1,0.1-0.2,0.2-0.3l0.5-0.8c0.7-1.2,1.5-1.9,2.4-2.8c0.9-0.7,1.9-1.4,3-1.9c2.1-1,4.5-1.3,6.9-1.1
	c2.3,0.3,4.6,1.1,6.6,2.6c1.9,1.4,3.5,3.5,4.3,5.8c0.3,0.6,0.4,1.2,0.5,1.7l0.2,0.9l0.1,0.4v0.4c0.1,0.9,0.2,1.9,0.3,2.8
	c0.2,1.9,0.4,3.8,0.6,5.7c0.2,1.9,0.4,3.9,0.6,5.8c0-0.2,0.2,1.1,0.2,0.8c0,0,0.1,0.2,0.2,0.3c0.2,0.3,0.5,0.5,0.9,0.6
	s0.8,0.1,1.2,0s0.6-0.3,0.8-0.6c0.1-0.1,0.1-0.2,0.2-0.3c0.1-0.1,0.1-0.1,0.2-0.4l0.6-1.4c0.4-0.9,0.7-1.9,1.1-2.8
	c1.5-3.7,3-7.5,4.5-11.4c3.1-7.6,6.3-15.3,9.5-23.2c1.6-3.9,3.2-7.8,4.9-11.8l0.3-0.7l0.2-0.4l0.2-0.5c0.2-0.5,0.4-0.9,0.8-1.6
	c0.7-1.2,1.4-2.2,2.3-3.2c0.9-1,1.9-1.8,3-2.6c1.1-0.7,2.3-1.3,3.5-1.8c4.9-1.9,10.5-1.5,15.1,1.1c2.3,1.3,4.3,3.2,5.7,5.4
	c0.7,1.1,1.3,2.3,1.8,3.5c0.2,0.6,0.4,1.2,0.6,1.9l0.1,0.5l0.1,0.4l0.2,0.8c1.9,8.5,3.9,17.1,5.8,25.6c0.2,1,0.5,2.5,0.6,2.4
	c0.2,0.4,0.5,0.7,0.9,0.8c0.2,0.1,0.4,0.1,0.6,0.1l1.6,0.1c0.7,0.1,1.4,0.1,2.1,0.3c0.6,0.1,1.3,0.3,1.9,0.5c5,1.5,9.3,5.2,11.5,9.9
	c0.3,0.6,0.5,1.2,0.7,1.8c0.2,0.6,0.4,1.2,0.6,1.9c0.2,0.7,0.3,1.1,0.4,1.7l0.3,1.6c0.5,2.1,0.9,4.3,1.4,6.4
	c0.9,4.2,1.8,8.5,2.7,12.7c0.9,4.2,1.8,8.4,2.7,12.6c0.4,2.1,0.9,4.2,1.3,6.3l0.3,1.6l0.1,0.4c0,0.1-0.1-0.4,0-0.1l0.1,0.2l0.1,0.4
	l0.1,0.2l0,0c0.1,0,0,0,0.1,0.1s0.1,0.1,0.2,0.2c0.1,0,0.1,0.1,0.2,0.2c0.1,0,0.2,0.1,0.2,0.2c0.3,0.2,0.8,0.3,1.3,0.2
	c0.4-0.1,0.8-0.3,1-0.5c0-0.1,0.1-0.2,0.2-0.2c0-0.1,0.1-0.2,0.1-0.3c0.1-0.2,0.1-0.3,0.3-0.9c0.2-1,0.5-2,0.7-3.1
	c0.9-4.1,1.9-8.1,2.8-12.1c1.8-8,3.7-15.9,5.4-23.6c0.5-2,0.7-3.7,1.7-6.1c0.9-2.2,2.1-4.1,3.7-5.8c3.1-3.4,7.3-5.6,11.7-6.2
	c0.6-0.1,1.1-0.2,1.7-0.2c0.5,0,1.1-0.1,1.6,0c0.9,0,1.9,0,2.8,0s1.9,0,2.8,0h0.3c0.1,0-0.1,0,0.1,0h0.2c0.1,0,0.1,0,0.1,0l0,0h0.1
	c0.2,0,0.3-0.1,0.5-0.2c0.3-0.2,0.6-0.4,0.8-0.7c0-0.1,0.1-0.2,0.1-0.2l0.2-0.6l0.5-1.3c0.6-1.7,1.3-3.3,1.9-5s1.3-3.3,1.9-4.9
	c-0.1,0.1,0.1-0.4,0.2-0.4l0.1-0.1l0.1-0.3l0.3-0.6c0.3-0.5,0.7-1.2,1.1-1.7c0.8-0.9,1.7-1.7,2.7-2.4c2-1.3,4.4-1.8,6.7-1.6
	c2.3,0.2,4.5,1.1,6.3,2.6c0.5,0.4,0.8,0.8,1.2,1.2c0.4,0.4,0.7,0.9,1,1.4c0.1,0.2,0.3,0.5,0.4,0.7l0.3,0.5l0.6,1.1
	c0.8,1.4,1.5,2.8,2.3,4.2c0.4,0.7,0.8,1.4,1.1,2l0.3,0.5l0.2,0.4c0.2,0.4,0.3,0.5,0.5,0.8c0.6,1,1.5,1.8,2.4,2.6
	c1.8,1.5,4.1,2.3,6.5,2.4c2.8,0.1,5.6,0.2,8.3,0.3c10.7,0.4,20,0.8,27.6,1.1c15.3,0.7,24.1,1.1,24.1,1.1s-8.8,0.4-24.1,1.1
	c-7.7,0.3-17,0.7-27.6,1.1c-2.7,0.1-5.4,0.2-8.3,0.3c-3.4,0.1-6.9-0.8-9.9-2.9c-1.5-1-2.9-2.3-4-3.8c-0.3-0.4-0.6-0.9-0.8-1.2
	l-0.3-0.6l-0.3-0.5c-0.4-0.7-0.7-1.4-1.1-2.1c-0.7-1.4-1.5-2.8-2.2-4.2l-0.6-1.1l-0.3-0.5c-0.1-0.2-0.2-0.2-0.2-0.4
	c-0.1-0.2-0.3-0.5-0.5-0.6c-0.2-0.2-0.3-0.4-0.5-0.5c-0.8-0.7-1.7-1.1-2.8-1.2c-1.1-0.1-2.1,0.2-3,0.8c-0.5,0.3-0.8,0.6-1.2,1
	c-0.1,0.2-0.2,0.3-0.4,0.5l-0.5,1c-0.6,1.6-1.3,3.3-1.9,4.9c-0.6,1.7-1.3,3.3-1.9,5l-0.5,1.3l-0.3,0.7c-0.1,0.3-0.3,0.7-0.5,1
	c-0.7,1.3-1.8,2.3-3.2,3c-0.7,0.3-1.4,0.6-2.1,0.7c-0.2,0-0.3,0.1-0.6,0.1h-0.3c-0.1,0-0.2,0-0.2,0H327h-0.3c-0.9,0-1.8,0-2.8,0
	s-1.9,0-2.8,0c-0.5,0-0.8,0-1.2,0c-0.4,0-0.8,0.1-1.1,0.1c-3.1,0.4-6,2-8.1,4.3c-1.1,1.2-1.9,2.5-2.5,4c-0.5,1.2-1,3.3-1.4,5.2
	c-1.8,7.7-3.6,15.6-5.4,23.6c-0.9,4-1.9,8-2.8,12.1c-0.2,1-0.5,2-0.7,3.1c-0.1,0.4-0.3,1.3-0.6,2.1c-0.2,0.4-0.4,0.8-0.6,1.1
	c-0.3,0.3-0.5,0.7-0.8,1c-1.2,1.3-2.8,2.1-4.5,2.3c-1.6,0.3-3.4,0-4.9-0.8c-0.4-0.2-0.7-0.4-1.1-0.7c-0.3-0.3-0.7-0.6-1-0.9
	s-0.6-0.7-0.8-1c-0.3-0.4-0.5-0.9-0.7-1.3l-0.1-0.3l-0.1-0.2l-0.1-0.4l-0.1-0.2c0,0.2-0.1-0.4-0.1-0.4l-0.1-0.4l-0.3-1.6
	c-0.4-2.1-0.9-4.2-1.3-6.3c-0.9-4.2-1.8-8.4-2.7-12.6s-1.8-8.5-2.7-12.7c-0.5-2.1-0.9-4.2-1.4-6.4l-0.3-1.6
	c-0.1-0.5-0.2-1.1-0.3-1.5c-0.1-0.4-0.2-0.9-0.4-1.3c-0.1-0.4-0.3-0.8-0.5-1.2c-1.5-3.2-4.4-5.7-7.8-6.7c-0.4-0.2-0.9-0.2-1.3-0.3
	c-0.4-0.1-0.8-0.1-1.2-0.2l-1.7-0.1c-0.9-0.1-1.8-0.3-2.6-0.6c-1.6-0.7-3-1.9-3.9-3.5c-0.2-0.4-0.4-0.8-0.6-1.3
	c-0.1-0.1-0.1-0.2-0.1-0.3l-0.1-0.2l-0.1-0.3v-0.2l-0.4-1.6c-1.9-8.5-3.9-17.1-5.8-25.6l-0.2-0.8l-0.1-0.4l-0.1-0.3
	c-0.1-0.4-0.2-0.9-0.4-1.3c-0.3-0.8-0.7-1.6-1.2-2.3c-0.9-1.4-2.2-2.6-3.7-3.5c-3-1.7-6.8-2-10-0.8c-0.8,0.3-1.5,0.7-2.2,1.2
	s-1.3,1-1.9,1.7c-0.3,0.3-0.5,0.6-0.8,1c-0.2,0.4-0.5,0.7-0.7,1c-0.1,0.2-0.2,0.3-0.3,0.5l-0.3,0.7l-0.1,0.2c0,0.1,0-0.1,0,0.1
	l-0.2,0.4l-0.3,0.7c-1.6,3.9-3.3,7.9-4.9,11.8c-3.2,7.8-6.4,15.5-9.5,23.1c-1.5,3.8-3,7.6-4.5,11.4c-0.4,0.9-0.7,1.9-1.1,2.8
	l-0.6,1.4c-0.1,0.2-0.3,0.6-0.4,0.9c-0.2,0.4-0.4,0.7-0.6,1c-0.9,1.3-2.3,2.4-3.9,2.9c-1.5,0.5-3.2,0.5-4.7,0.1s-2.9-1.3-3.9-2.6
	c-0.3-0.3-0.5-0.7-0.7-1s-0.4-0.8-0.6-1.2c-0.1-0.2-0.2-0.4-0.2-0.7c0-0.2-0.1-0.3-0.1-0.4l-0.1-0.4v-0.2c-0.1-0.6,0-0.3-0.1-0.4
	c-0.2-1.9-0.4-3.9-0.6-5.8c-0.2-1.9-0.4-3.8-0.6-5.7c-0.1-0.9-0.2-1.9-0.3-2.8v-0.3l-0.1-0.3l-0.1-0.5c-0.1-0.3-0.1-0.7-0.3-1
	c-0.8-2.5-3.2-4.1-5.8-4.5c-1.3-0.1-2.6,0.1-3.8,0.6c-0.6,0.2-1.1,0.6-1.6,1c-0.2,0.2-0.4,0.4-0.6,0.7l-0.2,0.2l-0.1,0.2
	c-0.1,0.1-0.1,0.2-0.2,0.3c-0.1,0.1-0.2,0.2-0.2,0.3c0,0-0.1,0.1-0.1,0.2l-0.1,0.3l-0.5,1.2c-0.1,0.3,0.1-0.2,0-0.1v0.1l-0.1,0.3
	l-0.1,0.5c-0.1,0.3-0.2,0.7-0.2,1c-0.3,1.7-0.6,3.4-0.8,5.1l-0.2,1.3c-0.1,0.5-0.2,1.1-0.4,1.6c-0.3,1.1-0.8,2.1-1.3,3.1
	c-1.2,1.9-3,3.5-5,4.4c-4,1.8-8.6,1.4-12.2-0.8c-1.8-1.1-3.3-2.8-4.1-4.7c-0.5-0.9-0.7-1.9-0.9-3c-0.1-0.3-0.1-0.4-0.1-0.6l-0.1-0.7
	c0-0.2,0-0.5-0.1-0.7c-0.3-1.8-1.8-3.4-3.6-3.9c-0.6-0.2-2.4-0.2-3.7-0.3h-0.5h-0.6c-0.5,0-1-0.1-1.5-0.3c-1-0.3-1.9-0.8-2.6-1.4
	c-0.4-0.3-0.7-0.7-1-1.1c-0.3-0.4-0.5-0.8-0.8-1.3l-0.1-0.2l-0.1-0.2v-0.1l-0.2-0.5c-0.1-0.3-0.2-0.5-0.3-0.8
	c-0.2-0.5-0.4-1-0.7-1.4l-0.4-0.6l-0.5-0.5c-1.4-1.5-3.3-2.4-5.2-2.6c-1.9-0.3-3.9,0.1-5.5,0.9c-1.7,0.8-2.9,2.1-3.8,3.5
	c-0.2,0.4-0.4,0.8-0.6,1.3v0.1c0,0.1,0,0,0,0l-0.1,0.2c-0.1,0.1-0.1,0.3-0.2,0.4c-0.1,0.2-0.3,0.5-0.5,0.7c-0.7,0.9-1.5,1.5-2.5,1.9
	c-0.5,0.2-1,0.3-1.4,0.4c-0.2,0-0.5,0-0.7,0h-0.3h-0.3c-0.8,0-1.6-0.1-2.3-0.1c-3-0.1-5.5-0.3-7.6-0.4C95.2,255.1,93,255,93,255z"/>
</svg>
