<?xml version="1.0" encoding="utf-8"?>
<!-- Generator: Adobe Illustrator 22.0.1, SVG Export Plug-In . SVG Version: 6.00 Build 0)  -->
<svg version="1.1"
	 id="svg2" xmlns:cc="http://creativecommons.org/ns#" xmlns:dc="http://purl.org/dc/elements/1.1/" xmlns:rdf="http://www.w3.org/1999/02/22-rdf-syntax-ns#" xmlns:svg="http://www.w3.org/2000/svg"
	 xmlns="http://www.w3.org/2000/svg" xmlns:xlink="http://www.w3.org/1999/xlink" x="0px" y="0px" viewBox="0 0 512 512"
	 style="enable-background:new 0 0 512 512;" xml:space="preserve">
<g id="g234" transform="translate(189.0433,292.5383)">
	<linearGradient id="SVGID_1_" gradientUnits="userSpaceOnUse" x1="66.9567" y1="193.4617" x2="66.9567" y2="-266.5383">
		<stop  offset="0" style="stop-color:#96D8E9"/>
		<stop  offset="1" style="stop-color:#4474BA"/>
	</linearGradient>
	<circle style="fill:url(#SVGID_1_);" cx="66.957" cy="-36.538" r="230"/>
	<path id="path236" style="fill:#FFFFFF;" d="M0-73.077c-10.189,0-18.478,8.29-18.478,18.479c0,1.578,0.227,3.212,0.676,4.858
		c0.693,2.547,0.315,5.267-1.049,7.527c-1.363,2.261-3.593,3.864-6.169,4.438c-16.163,3.602-27.894,18.251-27.894,34.831
		c0,19.684,16.014,35.698,35.697,35.698H154.03c0.455-0.128,0.925-0.223,1.406-0.284c10.562-1.331,20.019-7.679,25.298-16.982
		c0.156-0.274,0.325-0.541,0.508-0.8c3.655-5.184,5.587-11.282,5.587-17.632c0-13.351-8.532-25.076-21.231-29.176
		c-0.303-0.097-0.601-0.21-0.893-0.337c-4.298-1.874-8.864-2.823-13.572-2.823l-0.018,0.002c-0.16,0.006-0.319,0.011-0.479,0.013
		c-0.047,0.001-0.092,0.002-0.138,0.002c-2.68,0-5.24-1.114-7.069-3.077c-1.86-1.997-2.788-4.689-2.554-7.408
		c0.157-1.825,0.23-3.303,0.23-4.651c0-30.566-24.867-55.434-55.435-55.434c-24.341,0-45.594,15.587-52.887,38.786
		c-1.121,3.564-4.196,6.163-7.898,6.673c-3.702,0.509-7.364-1.162-9.405-4.29C12.042-69.932,6.256-73.077,0-73.077 M156.642,52.072
		h-173.86c-30.335,0-55.014-24.679-55.014-55.016c0-12.583,4.361-24.885,12.279-34.638c5.896-7.262,13.573-12.9,22.163-16.376
		c-0.003-0.213-0.005-0.426-0.005-0.639c0-20.84,16.955-37.796,37.795-37.796c7.282,0,14.251,2.076,20.198,5.844
		c12.935-23.565,37.716-38.6,65.472-38.6c40.079,0,72.891,31.701,74.675,71.347c3.985,0.695,7.876,1.848,11.641,3.45
		c20.453,6.815,34.159,25.806,34.159,47.408c0,10.201-3.057,20.002-8.847,28.377c-7.842,13.535-21.37,23.005-36.658,25.775
		C159.421,51.763,158.068,52.072,156.642,52.072"/>
</g>
</svg>
