<?xml version="1.0" encoding="utf-8"?>
<!-- Generator: Adobe Illustrator 22.0.1, SVG Export Plug-In . SVG Version: 6.00 Build 0)  -->
<svg version="1.1" id="Layer_1" xmlns="http://www.w3.org/2000/svg" xmlns:xlink="http://www.w3.org/1999/xlink" x="0px" y="0px"
	 viewBox="0 0 512 512" style="enable-background:new 0 0 512 512;" xml:space="preserve">
<g>
	<g>
		<path style="fill:#FAD505;" d="M317.388,443.451c-6.901-7.074-11.572-9.085-18.314-16.307
			c-4.031-4.317-12.635-5.169-13.319-18.571c-2.122-41.541-42.813-55.032-64.966-81.534c-25.668-30.707-56.853-56.865-79.651-90.238
			c-11.405-16.695-23.89-33.44-21.192-55.711c23.397,14.837,46.819,28.964,76.624,25.204c6.08-0.767,12.67,3.943,16.956,9.144
			c22.119,26.839,52.353,38.747,84.858,46.325c21.382,4.985,40.728,14.086,59.389,25.544c24.908,15.294,39.005,13.541,61.823-5.394
			c10.56-8.763,26.556-24.045,38.561-33.954c4.682,15.925-1.256,42.146-4.594,56.282c-15.932,67.468-59.666,109.019-122.699,136.794
			C326.805,442.824,321.899,442.691,317.388,443.451z"/>
		<path style="fill:#DC922C;" d="M450.004,216.322c-6.456,1.778-10.789-3.144-15.61-5.355
			c-12.598-5.777-25.216-11.275-38.761-14.592c-21.406-5.242-37.476-16.733-50.523-35.414
			c-16.869-24.153-47.495-31.704-75.775-18.629c-6.479,2.995-12.548,9.547-20.004,6.886
			c-40.244-14.364-75.823,10.466-114.012,13.072c-10.233,0.698-16.957,7.042-15.373,18.795
			c23.396,14.843,46.818,28.969,76.623,25.21c6.08-0.767,12.67,3.943,16.956,9.144c22.119,26.839,52.353,38.748,84.858,46.325
			c21.382,4.985,40.728,14.086,59.389,25.544c24.908,15.294,39.005,13.541,61.823-5.394c10.56-8.763,21.163-17.476,33.168-27.385
			c6.542-1.401,3.671-3.124,3.671-3.124C454.712,230.156,455.86,215.798,450.004,216.322z"/>
		<g>
			<circle style="fill:#010101;" cx="297.784" cy="194.273" r="49.144"/>
			<path style="fill:#FFFFFC;" d="M297.784,194.273c-4.813,21.63,12.915,43.978-8.715,39.164
				c-21.63-4.813-35.262-26.25-30.449-47.88s26.25-35.262,47.88-30.449S302.597,172.644,297.784,194.273z"/>
		</g>
		<path style="fill:#36322E;" d="M256,56.151c26.993,0,53.162,5.28,77.781,15.693c23.794,10.064,45.17,24.478,63.533,42.842
			c18.364,18.363,32.778,39.739,42.842,63.533c10.413,24.619,15.693,50.788,15.693,77.781s-5.28,53.162-15.693,77.781
			c-10.064,23.794-24.478,45.17-42.842,63.533c-18.363,18.364-39.739,32.778-63.533,42.842
			c-24.619,10.413-50.788,15.693-77.781,15.693s-53.162-5.28-77.781-15.693c-23.794-10.064-45.17-24.478-63.533-42.842
			c-18.364-18.363-32.778-39.739-42.842-63.533C61.431,309.162,56.151,282.993,56.151,256s5.28-53.162,15.693-77.781
			c10.064-23.794,24.478-45.17,42.842-63.533c18.363-18.364,39.739-32.778,63.533-42.842C202.838,61.431,229.007,56.151,256,56.151
			 M256,26C128.975,26,26,128.975,26,256s102.975,230,230,230s230-102.975,230-230S383.025,26,256,26L256,26z"/>
	</g>
</g>
</svg>
