<?xml version="1.0" encoding="UTF-8" standalone="no"?>
<!DOCTYPE svg PUBLIC "-//W3C//DTD SVG 1.1//EN" "http://www.w3.org/Graphics/SVG/1.1/DTD/svg11.dtd">
<svg width="100%" height="100%" viewBox="0 0 512 512" version="1.1" xmlns="http://www.w3.org/2000/svg" xmlns:xlink="http://www.w3.org/1999/xlink" xml:space="preserve" xmlns:serif="http://www.serif.com/" style="fill-rule:evenodd;clip-rule:evenodd;stroke-linejoin:round;stroke-miterlimit:1.41421;">
    <g transform="matrix(0.912081,0,0,0.912081,-32.8865,-36.1984)">
        <path d="M568.904,150.423C568.904,105.04 532.058,68.194 486.674,68.194L146.792,68.194C101.409,68.194 64.563,105.04 64.563,150.423L64.563,490.305C64.563,535.689 101.409,572.535 146.792,572.535L486.674,572.535C532.058,572.535 568.904,535.689 568.904,490.305L568.904,150.423Z" style="fill:rgb(236,0,140);"/>
    </g>
    <g transform="matrix(0.925527,0,0,0.925527,-49.0602,-17.875)">
        <circle cx="329.607" cy="295.913" r="216.093" style="fill:white;"/>
    </g>
    <g id="path220" transform="matrix(1.25,0,0,-1.25,261.391,163.88)">
        <path d="M0,0C0,13.099 11.312,23.813 24.409,23.813C36.322,23.813 44.953,15.781 44.953,3.568C44.953,-10.132 33.641,-20.256 20.249,-20.256C8.04,-20.255 0,-12.212 0,0M-16.073,-58.655C-13.984,-53.303 -16.664,-50.622 -19.05,-50.622C-30.065,-50.622 -44.355,-76.525 -49.705,-76.525C-51.794,-76.525 -53.579,-74.436 -53.579,-72.651C-53.579,-67.29 -40.483,-54.791 -36.609,-50.916C-24.705,-39.603 -9.224,-30.968 8.04,-30.968C20.841,-30.968 34.538,-38.706 23.817,-67.594L2.384,-125.65C0.6,-130.115 -2.672,-137.566 -2.672,-142.327C-2.672,-144.406 -1.489,-146.496 0.893,-146.496C9.821,-146.496 26.198,-121.184 30.368,-121.184C31.856,-121.184 33.934,-122.968 33.934,-125.649C33.934,-134.282 -0.889,-171.205 -30.955,-171.205C-41.676,-171.205 -49.116,-166.148 -49.116,-154.834C-49.116,-140.543 -38.995,-116.127 -36.907,-111.061L-16.073,-58.655Z" style="fill:rgb(236,0,140);fill-rule:nonzero;"/>
    </g>
</svg>
