<?xml version="1.0" encoding="utf-8"?>
<!-- Generator: Adobe Illustrator 22.0.1, SVG Export Plug-In . SVG Version: 6.00 Build 0)  -->
<svg version="1.1"
	 id="svg2" inkscape:version="0.91 r13725" sodipodi:docname="internet-mail.svg" xmlns:cc="http://creativecommons.org/ns#" xmlns:dc="http://purl.org/dc/elements/1.1/" xmlns:inkscape="http://www.inkscape.org/namespaces/inkscape" xmlns:rdf="http://www.w3.org/1999/02/22-rdf-syntax-ns#" xmlns:sodipodi="http://sodipodi.sourceforge.net/DTD/sodipodi-0.dtd" xmlns:svg="http://www.w3.org/2000/svg"
	 xmlns="http://www.w3.org/2000/svg" xmlns:xlink="http://www.w3.org/1999/xlink" x="0px" y="0px" viewBox="0 0 512 512"
	 style="enable-background:new 0 0 512 512;" xml:space="preserve">
<circle style="fill:#F3D320;" cx="256" cy="256" r="230"/>
<g id="g14">
	<g id="g20">
		<g id="g166">
		</g>
		<g id="g152">
			<g id="g164">
				<defs>
					<polygon id="SVGID_1_" points="0.054,-0.02 512,-0.02 512,512.02 0.054,512.02 0.054,-0.02 					"/>
				</defs>
				<clipPath id="SVGID_2_">
					<use xlink:href="#SVGID_1_"  style="overflow:visible;"/>
				</clipPath>
				<g id="g168" style="clip-path:url(#SVGID_2_);">
					<g id="g170" style="opacity:0.4;">
						<g id="g172">
							<defs>
								<path id="SVGID_3_" d="M463.826,463.806c-64.286,64.286-351.258,64.286-415.544,0S-16.005,112.44,48.174,48.153
									c64.178-64.285,351.366-64.177,415.652,0C528.112,112.332,528.005,399.519,463.826,463.806"/>
							</defs>
							<clipPath id="SVGID_4_">
								<use xlink:href="#SVGID_3_"  style="overflow:visible;"/>
							</clipPath>
						</g>
					</g>
				</g>
			</g>
			<g id="g154">
				<g id="g188">
				</g>
				<g id="g156">
					<g id="g186">
						<defs>
							<polygon id="SVGID_5_" points="0.054,-0.02 512,-0.02 512,512.02 0.054,512.02 0.054,-0.02 							"/>
						</defs>
						<clipPath id="SVGID_6_">
							<use xlink:href="#SVGID_5_"  style="overflow:visible;"/>
						</clipPath>
						<g id="g190" style="clip-path:url(#SVGID_6_);">
							<g id="g192" style="opacity:0.4;">
								<g id="g194">
									<defs>
										<path id="SVGID_7_" d="M463.826,463.806c-64.286,64.286-351.258,64.286-415.544,0S-16.005,112.44,48.174,48.153
											c64.178-64.285,351.366-64.177,415.652,0C528.112,112.332,528.005,399.519,463.826,463.806"/>
									</defs>
									<clipPath id="SVGID_8_">
										<use xlink:href="#SVGID_7_"  style="overflow:visible;"/>
									</clipPath>
								</g>
							</g>
						</g>
					</g>
					<g id="g160">
						<g id="g210">
						</g>
						<g id="g162">
							<g id="g208">
								<defs>
									<rect id="SVGID_9_" x="0" y="0.033" width="511.932" height="511.987"/>
								</defs>
								<clipPath id="SVGID_10_">
									<use xlink:href="#SVGID_9_"  style="overflow:visible;"/>
								</clipPath>
								<g id="g212" style="clip-path:url(#SVGID_10_);">
									<g id="g214" style="opacity:0.4;">
										<g id="g216">
											<defs>
												<path id="SVGID_11_" d="M48.174,463.806c64.286,64.286,351.258,64.286,415.544,0s64.286-351.258,0-415.544
													C399.432-16.024,112.46-16.024,48.174,48.153C-16.112,112.332-16.004,399.519,48.174,463.806"/>
											</defs>
											<clipPath id="SVGID_12_">
												<use xlink:href="#SVGID_11_"  style="overflow:visible;"/>
											</clipPath>
										</g>
									</g>
								</g>
							</g>
						</g>
					</g>
				</g>
			</g>
		</g>
	</g>
	<g id="g234" transform="translate(361.2026,374.0441)">
		<path id="path236" style="fill:#FFFFFF;" d="M8.087-245.163h-20.82h-184.939h-20.82c-13.181,0-23.866,10.685-23.866,23.866v20.82
			v184.939v20.82c0,13.181,10.685,23.866,23.866,23.866h20.82h184.939h20.82c13.181,0,23.866-10.685,23.866-23.866v-20.82v-184.939
			v-20.82C31.953-234.478,21.268-245.163,8.087-245.163"/>
	</g>
	<g id="g238" transform="translate(150.7974,137.9558)">
		<path id="path240" style="fill:#FFFFFF;" d="M-8.087,245.163h20.82h184.939h20.82c13.181,0,23.866-10.685,23.866-23.866v-20.82
			V15.538v-20.82c0-13.181-10.685-23.866-23.866-23.866h-20.82H12.733h-20.82c-13.181,0-23.866,10.685-23.866,23.866v20.82v184.939
			v20.82C-31.953,234.478-21.268,245.163-8.087,245.163"/>
	</g>
	<g id="g242" transform="translate(361.2026,377.3205)">
		<path id="path244" style="fill:#E5E5E5;" d="M8.087-251.967h-20.82h-184.939h-20.82c-13.181,0-23.866,10.685-23.866,23.866v20.82
			v184.939v20.82c0,13.181,10.685,23.866,23.866,23.866h20.82h184.939h20.82c13.181,0,23.866-10.685,23.866-23.866v-20.82v-184.939
			v-20.82C31.953-241.283,21.268-251.967,8.087-251.967 M8.087-250.891c12.566,0,22.789,10.223,22.789,22.789v20.82v184.939v20.82
			c0,12.566-10.223,22.789-22.789,22.789h-20.82h-184.939h-20.82c-12.566,0-22.789-10.223-22.789-22.789v-20.82v-184.939v-20.82
			c0-12.566,10.223-22.789,22.789-22.789h20.82h184.939H8.087"/>
	</g>
	<g id="g246" transform="translate(361.2026,380.1312)">
		<path id="path248" style="fill:#E5E5E5;" d="M8.087-257.805h-20.82h-184.939h-20.82c-13.181,0-23.866,10.685-23.866,23.866v20.82
			V-28.18v20.82c0,13.181,10.685,23.866,23.866,23.866h20.82h184.939h20.82c13.181,0,23.866-10.685,23.866-23.866v-20.82v-184.939
			v-20.82C31.953-247.12,21.268-257.805,8.087-257.805 M8.087-256.728c12.566,0,22.789,10.223,22.789,22.789v20.82V-28.18v20.82
			c0,12.566-10.223,22.789-22.789,22.789h-20.82h-184.939h-20.82c-12.566,0-22.789-10.223-22.789-22.789v-20.82v-184.939v-20.82
			c0-12.566,10.223-22.789,22.789-22.789h20.82h184.939H8.087"/>
	</g>
	<g id="g250" transform="translate(361.2026,384.6857)">
		<path id="path252" style="fill:#E5E5E5;" d="M8.087-267.264h-20.82h-184.939h-20.82c-13.181,0-23.866,10.685-23.866,23.866v20.82
			v184.939v20.82c0,13.181,10.685,23.866,23.866,23.866h20.82h184.939h20.82c13.181,0,23.866-10.685,23.866-23.866v-20.82v-184.939
			v-20.82C31.953-256.579,21.268-267.264,8.087-267.264 M8.087-266.187c12.566,0,22.789,10.223,22.789,22.789v20.82v184.939v20.82
			C30.876-4.253,20.653,5.97,8.087,5.97h-20.82h-184.939h-20.82c-12.566,0-22.789-10.223-22.789-22.789v-20.82v-184.939v-20.82
			c0-12.566,10.223-22.789,22.789-22.789h20.82h184.939H8.087"/>
	</g>
	<g id="g254" transform="translate(361.2026,388.233)">
		<path id="path256" style="fill:#E5E5E5;" d="M8.087-274.631h-20.82h-184.939h-20.82c-13.181,0-23.866,10.685-23.866,23.866v20.82
			v184.939v20.82c0,13.181,10.685,23.866,23.866,23.866h20.82h184.939h20.82c13.181,0,23.866-10.685,23.866-23.866v-20.82v-184.939
			v-20.82C31.953-263.947,21.268-274.631,8.087-274.631 M8.087-273.555c12.566,0,22.789,10.223,22.789,22.789v20.82v184.939v20.82
			c0,12.566-10.223,22.789-22.789,22.789h-20.82h-184.939h-20.82c-12.566,0-22.789-10.223-22.789-22.789v-20.82v-184.939v-20.82
			c0-12.566,10.223-22.789,22.789-22.789h20.82h184.939H8.087"/>
	</g>
	<g id="g258" transform="translate(128.6353,361.2026)">
		<path id="path260" style="fill:#FFFFFF;" d="M-9.791-218.493V8.087c0,13.181,10.685,23.866,23.866,23.866h20.82l137.156-137.155
			L34.895-242.358h-20.82C0.894-242.358-9.791-231.674-9.791-218.493"/>
	</g>
	<g id="g262" transform="translate(341.8686,128.6353)">
		<path id="path264" style="fill:#F7F7F7;" d="M6.601,264.52h20.82c13.181,0,23.866-10.685,23.866-23.866V14.075
			c0-13.181-10.685-23.866-23.866-23.866H6.601l-137.156,137.155L6.601,264.52z"/>
	</g>
	<g id="g266" transform="translate(383.3647,150.7974)">
		<path id="path268" style="fill:#F4F4F4;" d="M9.791,218.493v-20.82L-127.365,60.516L-264.52,197.672v20.82
			c0,13.181,10.685,23.866,23.866,23.866h226.58C-0.894,242.358,9.791,231.674,9.791,218.493"/>
	</g>
	<g id="g270" transform="translate(273.8079,232.3118)">
		<path id="path272" style="fill:#E8E8E8;" d="M1.369,49.197L119.348-68.782v-20.82c0-13.181-10.686-23.866-23.866-23.866h-226.581
			c-13.18,0-23.866,10.685-23.866,23.866v20.82L-36.985,49.197C-26.394,59.788-9.222,59.788,1.369,49.197"/>
	</g>
	<g id="g274" transform="translate(158.8563,321.7892)">
		<path id="path276" d="M-7.468-136.636l-10.848,10.848v14.804l10.848-10.848V-136.636z"/>
	</g>
	<g id="g278" transform="translate(293.135,353.1437)">
		<path id="path280" style="fill:#3F8CFC;" d="M2.855-201.755l10.848-10.848H-1.102l-10.848,10.848H2.855z"/>
	</g>
	<g id="g282" transform="translate(270.8401,353.1437)">
		<path id="path284" style="fill:#FC354D;" d="M1.141-201.755l10.848-10.848H-2.815l-10.848,10.848H1.141z"/>
	</g>
	<g id="g286" transform="translate(337.7233,353.1437)">
		<path id="path288" style="fill:#FC354D;" d="M6.282-201.755l10.351-10.351c-1.482-0.32-3.015-0.498-4.593-0.498H2.327
			l-10.848,10.848H6.282z"/>
	</g>
	<g id="g290" transform="translate(158.8563,343.07)">
		<path id="path292" style="fill:#FC354D;" d="M-7.468-180.833c0-0.39,0.023-0.775,0.064-1.155l-10.912,10.912v14.805l10.848-10.848
			V-180.833z"/>
	</g>
	<g id="g294" transform="translate(168.93,353.1437)">
		<path id="path296" d="M-6.693-201.755H7.019l10.848-10.848H3.063l-10.912,10.912C-7.469-201.733-7.083-201.755-6.693-201.755"/>
	</g>
	<g id="g298" transform="translate(352.7408,345.8672)">
		<path id="path300" style="fill:#3F8CFC;" d="M7.437-186.643l8.159-8.159c-1.827-3.032-4.37-5.574-7.402-7.401l-8.159,8.159
			C3.597-193.013,6.405-190.204,7.437-186.643"/>
	</g>
	<g id="g302" transform="translate(226.2517,353.1437)">
		<path id="path304" style="fill:#3F8CFC;" d="M-2.287-201.755l10.848-10.848H-6.242l-10.848,10.848H-2.287z"/>
	</g>
	<g id="g306" transform="translate(203.9578,353.1437)">
		<path id="path308" style="fill:#FC354D;" d="M-4.001-201.755l10.848-10.848H-7.956l-10.848,10.848H-4.001z"/>
	</g>
	<g id="g310" transform="translate(248.5461,353.1437)">
		<path id="path312" d="M-0.573-201.755l0.185-0.185l10.663-10.663H-4.529l-10.848,10.848H-0.573z"/>
	</g>
	<g id="g314" transform="translate(353.1442,212.505)">
		<path id="path316" style="fill:#3F8CFC;" d="M7.468,90.334l10.848-10.848V64.681L7.468,75.53V90.334z"/>
	</g>
	<g id="g318" transform="translate(353.1442,190.2106)">
		<path id="path320" d="M7.468,136.636l10.848-10.848v-14.804L7.468,121.831V136.636z"/>
	</g>
	<g id="g322" transform="translate(353.1442,323.9762)">
		<path id="path324" d="M7.468-141.178l10.848-10.848v-9.713c0-1.578-0.178-3.111-0.498-4.593l-10.351,10.35V-141.178z"/>
	</g>
	<g id="g326" transform="translate(343.0705,148.7822)">
		<path id="path328" style="fill:#3F8CFC;" d="M6.694,222.678c11.982,0,21.696-9.713,21.696-21.696v-0.554L6.14,222.678H6.694z"/>
	</g>
	<g id="g330" transform="translate(168.93,363.2173)">
		<path id="path332" style="fill:#3F8CFC;" d="M-6.693-222.677c-11.982,0-21.696,9.713-21.696,21.696v0.552l22.248-22.248H-6.693z"
			/>
	</g>
	<g id="g334" transform="translate(353.1442,168.9295)">
		<path id="path336" style="fill:#FC354D;" d="M7.468,180.834c0,0.39-0.023,0.774-0.064,1.154l10.912-10.912v-14.804L7.468,167.122
			V180.834z"/>
	</g>
	<g id="g338" transform="translate(353.1442,301.6822)">
		<path id="path340" style="fill:#FC354D;" d="M7.468-94.876l10.848-10.848v-14.804L7.468-109.68V-94.876z"/>
	</g>
	<g id="g342" transform="translate(353.1442,279.3873)">
		<path id="path344" style="fill:#3F8CFC;" d="M7.468-48.573l10.848-10.848v-14.805L7.468-63.377V-48.573z"/>
	</g>
	<g id="g346" transform="translate(353.1442,234.799)">
		<path id="path348" style="fill:#FC354D;" d="M7.468,44.032l10.848-10.848V18.38L7.468,29.228V44.032z"/>
	</g>
	<g id="g350" transform="translate(353.1442,257.0929)">
		<path id="path352" d="M7.468-2.27l10.848-10.848v-14.804L7.468-17.075V-2.27z"/>
	</g>
	<g id="g354" transform="translate(315.4294,353.1437)">
		<path id="path356" d="M4.569-201.755l10.848-10.848H0.612l-10.848,10.848H4.569z"/>
	</g>
	<g id="g358" transform="translate(343.0705,158.8558)">
		<path id="path360" d="M6.694,201.756H-7.019l-10.848,10.848h14.804l10.912-10.912C7.468,201.734,7.083,201.756,6.694,201.756"/>
	</g>
	<g id="g362" transform="translate(174.2763,158.8558)">
		<path id="path364" style="fill:#FC354D;" d="M-6.282,201.756l-10.351,10.351c1.482,0.32,3.016,0.498,4.594,0.498h9.713
			l10.848-10.848H-6.282z"/>
	</g>
	<g id="g366" transform="translate(158.8563,232.6131)">
		<path id="path368" style="fill:#3F8CFC;" d="M-7.468,48.572L-18.316,59.42v14.805l10.848-10.848V48.572z"/>
	</g>
	<g id="g370" transform="translate(308.0419,158.8558)">
		<path id="path372" style="fill:#FC354D;" d="M4.001,201.756l-10.848,10.848H7.957l10.848-10.848H4.001z"/>
	</g>
	<g id="g374" transform="translate(158.8563,254.907)">
		<path id="path376" d="M-7.468,2.27l-10.848,10.848v14.804l10.848-10.848V2.27z"/>
	</g>
	<g id="g378" transform="translate(158.8563,188.0237)">
		<path id="path380" d="M-7.468,141.178l-10.848,10.848v9.713c0,1.578,0.178,3.111,0.498,4.593l10.351-10.351V141.178z"/>
	</g>
	<g id="g382" transform="translate(158.8563,210.3181)">
		<path id="path384" style="fill:#FC354D;" d="M-7.468,94.876l-10.848,10.848v14.804l10.848-10.847V94.876z"/>
	</g>
	<g id="g386" transform="translate(159.2596,166.133)">
		<path id="path388" style="fill:#3F8CFC;" d="M-7.437,186.642l-8.159,8.159c1.827,3.032,4.37,5.574,7.401,7.402l8.159-8.159
			C-3.597,193.012-6.405,190.205-7.437,186.642"/>
	</g>
	<g id="g390" transform="translate(196.5707,158.8558)">
		<path id="path392" d="M-4.569,201.756l-10.848,10.848h14.804l10.848-10.848H-4.569z"/>
	</g>
	<g id="g394" transform="translate(241.1596,158.8558)">
		<path id="path396" style="fill:#FC354D;" d="M-1.141,201.756l-10.848,10.848H2.816l10.848-10.848H-1.141z"/>
	</g>
	<g id="g398" transform="translate(158.8563,299.4953)">
		<path id="path400" style="fill:#3F8CFC;" d="M-7.468-90.334l-10.848,10.848v14.804l10.848-10.848V-90.334z"/>
	</g>
	<g id="g402" transform="translate(218.8647,158.8558)">
		<path id="path404" style="fill:#3F8CFC;" d="M-2.855,201.756l-10.848,10.848H1.102l10.848-10.848H-2.855z"/>
	</g>
	<g id="g406" transform="translate(263.454,158.8558)">
		<path id="path408" d="M0.573,201.756l-10.848,10.848H4.528l10.848-10.848H0.573z"/>
	</g>
	<g id="g410" transform="translate(285.7479,158.8558)">
		<path id="path412" style="fill:#3F8CFC;" d="M2.287,201.756l-10.848,10.848H6.242l10.848-10.848H2.287z"/>
	</g>
	<g id="g414" transform="translate(158.8563,277.2014)">
		<path id="path416" style="fill:#FC354D;" d="M-7.468-44.033l-10.848,10.848v14.804l10.848-10.847V-44.033z"/>
	</g>
</g>
</svg>
