<?xml version="1.0" encoding="utf-8"?>
<!-- Generator: Adobe Illustrator 22.0.1, SVG Export Plug-In . SVG Version: 6.00 Build 0)  -->
<svg version="1.1"
	 id="svg2" xmlns:cc="http://creativecommons.org/ns#" xmlns:dc="http://purl.org/dc/elements/1.1/" xmlns:rdf="http://www.w3.org/1999/02/22-rdf-syntax-ns#" xmlns:svg="http://www.w3.org/2000/svg"
	 xmlns="http://www.w3.org/2000/svg" xmlns:xlink="http://www.w3.org/1999/xlink" x="0px" y="0px" viewBox="0 0 512 512"
	 style="enable-background:new 0 0 512 512;" xml:space="preserve">
<g>
	<g>
		<path d="M445,485H65c-22.091,0-40-17.909-40-40V65c0-22.091,17.909-40,40-40h380c22.091,0,40,17.909,40,40v380
			C485,467.091,467.091,485,445,485z"/>
		
			<linearGradient id="SVGID_1_" gradientUnits="userSpaceOnUse" x1="255" y1="-167" x2="255" y2="293" gradientTransform="matrix(1 0 0 1 0 192)">
			<stop  offset="0" style="stop-color:#FFFFFF"/>
			<stop  offset="1" style="stop-color:#FFFFFF;stop-opacity:0.5"/>
		</linearGradient>
		<path style="fill:url(#SVGID_1_);" d="M445,35c16.542,0,30,13.458,30,30v380c0,16.542-13.458,30-30,30H65
			c-16.542,0-30-13.458-30-30V65c0-16.542,13.458-30,30-30H445 M445,25H65c-22.091,0-40,17.909-40,40v380c0,22.091,17.909,40,40,40
			h380c22.091,0,40-17.909,40-40V65C485,42.909,467.091,25,445,25L445,25z"/>
	</g>
	<g style="enable-background:new    ;">
		<path style="fill:#FFFFFF;" d="M175.218,148.975l-51.73-20.27v-14.869l66.835,29.583v11.426l-66.835,29.661V169.48
			L175.218,148.975z"/>
		<path style="fill:#FFFFFF;" d="M268.74,211.662h-71.687v-11.817h71.687V211.662z"/>
	</g>
</g>
<g id="g248" style="opacity:0.42;">
	<g id="g254" transform="translate(283.0742,188.976)">
		<path id="path256" style="fill:#FFCE00;" d="M6.769,150.804c6.274,0,11.356,5.14,11.356,11.497
			c0,6.379-5.083,11.568-11.356,11.568c-6.251,0-11.356-5.189-11.356-11.568C-4.588,155.944,0.519,150.804,6.769,150.804
			 M40.766,4.872v26.874c0,20.835-17.664,38.369-37.806,38.369h-60.448c-16.557,0-30.259,14.171-30.259,30.753v57.625
			c0,16.4,14.261,26.048,30.259,30.751c19.156,5.632,37.526,6.652,60.448,0c15.235-4.41,30.259-13.289,30.259-30.751v-23.064
			h-60.448v-7.689H33.22h30.259c17.588,0,24.141-12.268,30.257-30.681c6.318-18.956,6.05-37.186,0-61.505
			C89.39,18.044,81.089,4.872,63.479,4.872C63.479,4.872,40.766,4.872,40.766,4.872z"/>
	</g>
	<g id="g250" transform="translate(228.6226,342.6252)">
		<path id="path252" style="fill:#044AAF;" d="M-6.844-194.907c6.251,0,11.356,5.188,11.356,11.568
			c0,6.356-5.105,11.497-11.356,11.497c-6.274,0-11.356-5.14-11.356-11.497C-18.199-189.718-13.117-194.907-6.844-194.907
			 M25.884-213.457c-10.345,0.049-20.225,0.93-28.919,2.467c-25.607,4.525-30.259,13.995-30.259,31.459v23.064h60.518v7.689h-60.518
			h-22.713c-17.588,0-32.988,10.571-37.805,30.681c-5.558,23.051-5.802,37.435,0,61.505c4.301,17.916,14.575,30.681,32.164,30.681
			h20.806v-27.647c0-19.975,17.282-37.595,37.806-37.595h60.447c16.825,0,30.259-13.854,30.259-30.751v-57.625
			c0-16.4-13.836-28.72-30.259-31.459C47.014-212.718,36.229-213.504,25.884-213.457"/>
	</g>
</g>
</svg>
