<?xml version="1.0" encoding="UTF-8" standalone="no"?>
<!DOCTYPE svg PUBLIC "-//W3C//DTD SVG 1.1//EN" "http://www.w3.org/Graphics/SVG/1.1/DTD/svg11.dtd">
<svg width="100%" height="100%" viewBox="0 0 512 512" version="1.1" xmlns="http://www.w3.org/2000/svg" xmlns:xlink="http://www.w3.org/1999/xlink" xml:space="preserve" xmlns:serif="http://www.serif.com/" style="fill-rule:evenodd;clip-rule:evenodd;stroke-linejoin:round;stroke-miterlimit:1.41421;">
    <g id="g10" transform="matrix(1.35702,0,0,-1.35702,-91.3966,603.396)">
        <g id="path220" transform="matrix(1,0,0,1,256,422.412)">
            <path d="M0,0C82.234,0 148.897,-66.663 148.897,-148.897C148.897,-231.13 82.234,-297.794 0,-297.794C-82.234,-297.794 -148.897,-231.13 -148.897,-148.897C-148.897,-66.663 -82.234,0 0,0" style="fill:rgb(35,35,35);fill-rule:nonzero;"/>
        </g>
        <g id="g230">
            <clipPath id="_clip1">
                <path d="M107.103,273.515C107.103,191.281 173.767,124.618 256,124.618C338.233,124.618 404.896,191.281 404.896,273.515C404.896,355.748 338.233,422.412 256,422.412C173.767,422.412 107.103,355.748 107.103,273.515"/>
            </clipPath>
            <g clip-path="url(#_clip1)">
                <path id="path342" d="M107.103,273.515C107.103,191.281 173.767,124.618 256,124.618C338.233,124.618 404.896,191.281 404.896,273.515C404.896,355.748 338.233,422.412 256,422.412C173.767,422.412 107.103,355.748 107.103,273.515" style="fill:url(#_Linear2);fill-rule:nonzero;"/>
            </g>
        </g>
        <g id="g352">
            <clipPath id="_clip3">
                <path d="M107.103,273.515C107.103,191.281 173.767,124.618 256,124.618C338.233,124.618 404.896,191.281 404.896,273.515C404.896,355.748 338.233,422.412 256,422.412C173.767,422.412 107.103,355.748 107.103,273.515"/>
            </clipPath>
            <g clip-path="url(#_clip3)">
                <path id="path400" d="M107.103,273.515C107.103,191.281 173.767,124.618 256,124.618C338.233,124.618 404.896,191.281 404.896,273.515C404.896,355.748 338.233,422.412 256,422.412C173.767,422.412 107.103,355.748 107.103,273.515" style="fill:url(#_Linear4);fill-rule:nonzero;"/>
            </g>
        </g>
        <g id="g404">
            <g id="path412" transform="matrix(1,0,0,1,256,419.335)">
                <path d="M0,0C-80.406,0 -145.82,-65.414 -145.82,-145.82C-145.82,-226.226 -80.406,-291.641 0,-291.641C80.406,-291.641 145.821,-226.227 145.821,-145.82C145.82,-65.414 80.406,0 0,0M0,-297.794C-83.799,-297.794 -151.974,-229.618 -151.974,-145.819C-151.974,-62.02 -83.799,6.154 0,6.154C83.799,6.154 151.974,-62.021 151.974,-145.82C151.974,-229.619 83.799,-297.794 0,-297.794" style="fill-rule:nonzero;"/>
            </g>
            <g id="path416" transform="matrix(1,0,0,1,256,349.142)">
                <path d="M0,0C41.768,0 75.628,-33.86 75.628,-75.628C75.628,-117.396 41.768,-151.255 0,-151.255C-41.768,-151.255 -75.628,-117.396 -75.628,-75.628C-75.628,-33.86 -41.768,0 0,0" style="fill-rule:nonzero;"/>
            </g>
            <g id="path420" transform="matrix(1,0,0,1,257.231,332.116)">
                <path d="M0,0C33.045,0 59.833,-26.788 59.833,-59.833C59.833,-92.877 33.045,-119.665 0,-119.665C-33.045,-119.665 -59.833,-92.877 -59.833,-59.833C-59.833,-26.788 -33.045,0 0,0" style="fill:rgb(249,157,27);fill-rule:nonzero;"/>
            </g>
            <g transform="matrix(1,0,0,1,255.999,325.753)">
                <g id="g422">
                    <clipPath id="_clip5">
                        <rect id="path436" x="-48.119" y="-96.238" width="96.238" height="96.238"/>
                    </clipPath>
                    <g clip-path="url(#_clip5)">
                        <path d="M0,0C26.575,0 48.119,-21.544 48.119,-48.119C48.119,-74.694 26.575,-96.238 0,-96.238C-26.575,-96.238 -48.119,-74.694 -48.119,-48.119C-48.119,-21.544 -26.575,0 0,0" style="fill:rgb(229,229,229);fill-opacity:0.199997;fill-rule:nonzero;"/>
                    </g>
                </g>
            </g>
            <g id="path440" transform="matrix(1,0,0,1,256,292.503)">
                <path d="M0,0C10.487,0 18.989,-8.502 18.989,-18.989C18.989,-29.476 10.487,-37.978 0,-37.978C-10.487,-37.978 -18.989,-29.476 -18.989,-18.989C-18.989,-8.502 -10.487,0 0,0" style="fill-rule:nonzero;"/>
            </g>
            <g id="path444" transform="matrix(1,0,0,1,255.998,361.386)">
                <path d="M0,0C-48.452,0 -87.872,-39.419 -87.872,-87.873C-87.872,-136.324 -48.454,-175.744 0,-175.744C48.455,-175.744 87.874,-136.325 87.874,-87.873C87.874,-39.419 48.455,0 0,0M0,-176.973C-49.131,-176.973 -89.103,-137.002 -89.103,-87.872C-89.103,-38.74 -49.132,1.232 0,1.232C49.132,1.232 89.105,-38.74 89.105,-87.872C89.105,-137.004 49.133,-176.973 0,-176.973" style="fill-rule:nonzero;"/>
            </g>
            <g id="path448" transform="matrix(1,0,0,1,255.998,390.31)">
                <path d="M0,0C-64.401,0 -116.795,-52.395 -116.795,-116.797C-116.795,-181.197 -64.401,-233.592 0,-233.592C64.403,-233.592 116.8,-181.199 116.8,-116.797C116.798,-52.395 64.403,0 0,0M0,-234.822C-65.079,-234.822 -118.026,-181.876 -118.026,-116.796C-118.026,-51.715 -65.079,1.232 0,1.232C65.082,1.232 118.031,-51.715 118.031,-116.796C118.029,-181.877 65.082,-234.822 0,-234.822" style="fill-rule:nonzero;"/>
            </g>
            <g id="path452" transform="matrix(1,0,0,1,260.889,214.475)">
                <path d="M0,0C-5.646,1.659 -8.878,7.58 -7.22,13.226C-5.561,18.872 0.361,22.104 6.006,20.446C11.653,18.787 14.885,12.865 13.226,7.22C11.567,1.573 5.646,-1.659 0,0M34.163,25.649L20.215,29.746L-0.913,35.953L-14.862,40.05L-50.046,5.967L-81.161,-99.947L-44.04,-110.852L-22.912,-117.059L14.208,-127.964L45.323,-22.05L34.163,25.649Z" style="fill:white;fill-rule:nonzero;"/>
            </g>
            <g id="path456" transform="matrix(1,0,0,1,265.242,214.076)">
                <path d="M0,0C-5.818,-0.887 -11.252,3.111 -12.139,8.928C-13.025,14.745 -9.028,20.18 -3.211,21.066C2.607,21.953 8.041,17.956 8.928,12.139C9.815,6.321 5.818,0.886 0,0M20.097,37.697L5.726,35.506L-16.044,32.188L-30.415,29.997L-47.869,-15.774L-31.234,-124.904L7.013,-119.074L28.783,-115.755L67.03,-109.925L50.395,-0.796L20.097,37.697Z" style="fill:rgb(229,228,227);fill-rule:nonzero;"/>
            </g>
            <g id="path460" transform="matrix(1,0,0,1,271.283,249.63)">
                <path d="M0,0C-2.75,8.518 -7.293,17.89 -13.215,26.622C-13.99,27.764 -15.545,28.062 -16.688,27.287C-17.83,26.513 -18.128,24.958 -17.353,23.815C-15.944,21.739 -14.631,19.641 -13.413,17.544C-13.892,18.085 -14.607,18.405 -15.38,18.383C-16.759,18.329 -17.835,17.167 -17.781,15.788C-17.592,10.93 -17.523,6.528 -17.497,2.616L-12.489,1.145C-12.508,5.459 -12.569,10.416 -12.785,15.982C-12.794,16.22 -12.836,16.449 -12.906,16.663C-9.495,10.661 -6.874,4.688 -5.055,-0.771C-3.099,-6.642 -2.073,-11.919 -2.013,-15.987C-1.974,-18.616 -2.336,-20.742 -3.108,-22.199C-3.757,-23.424 -4.583,-23.948 -5.868,-23.948L-5.872,-23.948C-10.275,-23.948 -11.752,-22.642 -12.242,-15.467C-14.106,-16.421 -15.681,-17.917 -16.723,-19.819C-15.603,-25.898 -12.818,-28.948 -5.872,-28.948L-5.868,-28.948C-2.745,-28.947 -0.196,-27.383 1.31,-24.54C1.78,-23.654 2.147,-22.65 2.417,-21.543C3.713,-16.237 2.76,-8.549 0,0" style="fill:rgb(81,20,14);fill-rule:nonzero;"/>
            </g>
        </g>
    </g>
    <defs>
        <linearGradient id="_Linear2" x1="0" y1="0" x2="1" y2="0" gradientUnits="userSpaceOnUse" gradientTransform="matrix(297.794,0,0,297.794,107.103,273.515)"><stop offset="0" style="stop-color:black;stop-opacity:1"/><stop offset="0.11" style="stop-color:rgb(3,3,4);stop-opacity:1"/><stop offset="0.18" style="stop-color:rgb(12,13,13);stop-opacity:1"/><stop offset="0.24" style="stop-color:rgb(25,25,25);stop-opacity:1"/><stop offset="0.29" style="stop-color:rgb(46,46,46);stop-opacity:1"/><stop offset="0.33" style="stop-color:rgb(73,73,73);stop-opacity:1"/><stop offset="0.37" style="stop-color:rgb(104,105,104);stop-opacity:1"/><stop offset="0.41" style="stop-color:rgb(143,143,143);stop-opacity:1"/><stop offset="0.45" style="stop-color:rgb(187,187,187);stop-opacity:1"/><stop offset="0.49" style="stop-color:rgb(237,237,237);stop-opacity:1"/><stop offset="0.5" style="stop-color:white;stop-opacity:1"/><stop offset="0.51" style="stop-color:rgb(237,237,237);stop-opacity:1"/><stop offset="0.55" style="stop-color:rgb(187,187,187);stop-opacity:1"/><stop offset="0.59" style="stop-color:rgb(143,143,143);stop-opacity:1"/><stop offset="0.63" style="stop-color:rgb(104,105,104);stop-opacity:1"/><stop offset="0.67" style="stop-color:rgb(73,73,73);stop-opacity:1"/><stop offset="0.71" style="stop-color:rgb(46,46,46);stop-opacity:1"/><stop offset="0.76" style="stop-color:rgb(25,25,25);stop-opacity:1"/><stop offset="0.82" style="stop-color:rgb(12,13,13);stop-opacity:1"/><stop offset="0.89" style="stop-color:rgb(3,3,4);stop-opacity:1"/><stop offset="1" style="stop-color:black;stop-opacity:1"/></linearGradient>
        <linearGradient id="_Linear4" x1="0" y1="0" x2="1" y2="0" gradientUnits="userSpaceOnUse" gradientTransform="matrix(210.572,210.572,-210.572,210.572,150.714,168.229)"><stop offset="0" style="stop-color:black;stop-opacity:1"/><stop offset="0.33" style="stop-color:rgb(3,3,4);stop-opacity:1"/><stop offset="0.5" style="stop-color:rgb(42,42,42);stop-opacity:1"/><stop offset="0.67" style="stop-color:rgb(3,3,4);stop-opacity:1"/><stop offset="1" style="stop-color:black;stop-opacity:1"/></linearGradient>
    </defs>
</svg>
