<?xml version="1.0" encoding="utf-8"?>
<!-- Generator: Adobe Illustrator 22.0.1, SVG Export Plug-In . SVG Version: 6.00 Build 0)  -->
<svg version="1.1"
	 id="svg2" xmlns:cc="http://creativecommons.org/ns#" xmlns:dc="http://purl.org/dc/elements/1.1/" xmlns:rdf="http://www.w3.org/1999/02/22-rdf-syntax-ns#" xmlns:svg="http://www.w3.org/2000/svg"
	 xmlns="http://www.w3.org/2000/svg" xmlns:xlink="http://www.w3.org/1999/xlink" x="0px" y="0px" viewBox="0 0 512 512"
	 style="enable-background:new 0 0 512 512;" xml:space="preserve">
<g id="g266" transform="translate(256.0049,353.0873)">
	
		<linearGradient id="path244_1_" gradientUnits="userSpaceOnUse" x1="-184.1867" y1="61.9699" x2="-182.7652" y2="61.9699" gradientTransform="matrix(0 -155.3919 155.3919 0 -9668.4268 -28607.4082)">
		<stop  offset="0" style="stop-color:#FE790F"/>
		<stop  offset="1" style="stop-color:#FEA25B"/>
	</linearGradient>
	<path id="path244" style="fill:url(#path244_1_);" d="M-99.796-198.699c-5.604,5.606-8.43,12.359-8.43,20.264l0,0
		c0,7.954,2.827,14.756,8.43,20.362l0,0c0.048,0.048,0.048,0.048,0.096,0.096l0,0l60.939,60.983l-64.628,64.58h-0.048
		c-3.209,4.983-4.789,10.587-4.789,16.767l0,0c0,7.906,2.825,14.708,8.43,20.312l0,0c5.604,5.605,12.36,8.433,20.312,8.433l0,0
		c6.18-0.048,11.737-1.629,16.719-4.84l0,0h0.048l84.796-84.796l-0.05-0.048l0.05-0.048c1.772-1.772,3.257-3.593,4.453-5.555l0,0
		c0.098-0.144,0.192-0.288,0.288-0.432l0,0c0.384-0.67,0.718-1.34,1.054-2.059l0,0c1.773-3.737,2.683-7.858,2.733-12.314l0,0
		c-0.05-0.526-0.05-1.054-0.05-1.58l0,0c-0.096-1.484-0.286-2.969-0.528-4.359l0,0c-0.43-1.964-1.006-3.881-1.818-5.7l0,0
		c-0.384-0.816-0.816-1.629-1.247-2.395l0,0c-0.43-0.862-0.958-1.677-1.534-2.491l0,0h-0.046l-84.462-85.13v0.048l-0.046-0.048
		c-1.866-1.917-3.877-3.497-5.987-4.743l0,0c-0.72-0.432-1.391-0.766-2.061-1.055l0,0c-3.783-1.821-7.854-2.731-12.312-2.731l0,0
		C-87.434-207.178-94.19-204.351-99.796-198.699"/>
	<path id="path256" d="M102.467-198.746c-5.606-5.606-12.408-8.432-20.312-8.432c-6.228,0-11.833,1.629-16.767,4.887L28.02-164.923
		c-0.048,0-0.048,0-0.048,0.048c-1.868,1.868-3.449,3.833-4.695,5.988c-0.43,0.672-0.766,1.342-1.1,2.059
		c-1.773,3.737-2.683,7.858-2.683,12.312c-0.048,7.906,2.777,14.708,8.384,20.312c5.604,5.604,12.407,8.432,20.36,8.432
		c7.904-0.048,14.708-2.875,20.36-8.48c0-0.048,0-0.048,0.048-0.048l11.545-11.499l25.821-25.869
		c3.211-4.983,4.839-10.587,4.888-16.767C110.851-186.385,108.072-193.139,102.467-198.746"/>
	<path id="path260" d="M91.352-46.114L65.484-71.983c-0.528-0.336-1.056-0.624-1.581-0.96c-4.551-2.587-9.629-3.879-15.186-3.879
		c-7.952,0-14.708,2.825-20.312,8.43c-5.604,5.604-8.432,12.36-8.432,20.312c0,6.18,1.629,11.785,4.887,16.767L62.226,6.055
		l0.048,0.048c1.868,1.869,3.833,3.401,5.988,4.695c0.67,0.384,1.342,0.72,2.059,1.054c3.735,1.773,7.856,2.683,12.312,2.731
		c7.904,0,14.708-2.825,20.312-8.432c5.604-5.604,8.432-12.407,8.432-20.312c-0.048-7.952-2.875-14.756-8.481-20.36
		c-0.048-0.048-0.048-0.048-0.048-0.096L91.352-46.114z"/>
	<path id="path264" d="M-0.005-269.599c47.571,0,88.243,16.815,121.922,50.494s50.542,74.351,50.542,121.97
		c0,47.62-16.863,88.293-50.542,121.971S47.566,75.377-0.005,75.377c-47.619,0-88.291-16.863-121.97-50.542
		s-50.542-74.351-50.494-121.971c-0.048-47.619,16.815-88.291,50.494-121.97C-88.298-252.784-47.624-269.599-0.005-269.599
		 M229.948-97.088c0-63.522-22.469-117.755-67.357-162.642c-44.889-44.889-99.12-67.357-162.596-67.357
		c-63.524,0-117.755,22.468-162.644,67.357c-44.889,44.887-67.309,99.12-67.309,162.642c0,63.478,22.422,117.708,67.309,162.596
		c44.889,44.889,99.12,67.357,162.644,67.405c63.476-0.048,117.707-22.517,162.594-67.405
		C207.479,20.62,229.948-33.61,229.948-97.088"/>
	<linearGradient id="path268_1_" gradientUnits="userSpaceOnUse" x1="-200.9547" y1="-125.7838" x2="200.9623" y2="-125.7838">
		<stop  offset="0" style="stop-color:#FE790F"/>
		<stop  offset="1" style="stop-color:#FEA25B"/>
	</linearGradient>
	<path id="path268" style="fill:url(#path268_1_);" d="M0.004-269.606c47.571,0,88.233,16.824,121.911,50.503
		s50.533,74.351,50.533,121.971c0,47.619-16.854,88.293-50.533,121.971S47.574,75.37,0.004,75.37
		c-47.619,0-88.293-16.853-121.971-50.531s-50.551-74.353-50.503-121.971c-0.048-47.62,16.824-88.293,50.503-121.971
		S-47.615-269.606,0.004-269.606 M0.004-327.087c-11.911,0-23.489,0.787-34.746,2.365c-0.329,0.059-0.659,0.091-0.988,0.151
		c-93.901,16.933-165.224,99.376-165.224,198.442c0,111.303,90.027,201.648,200.958,201.648s200.958-90.345,200.958-201.648
		c0-99.022-71.264-181.43-165.103-198.412c-0.101-0.016-0.199-0.046-0.3-0.06C24.044-326.261,12.203-327.087,0.004-327.087"/>
</g>
</svg>
