<?xml version="1.0" encoding="utf-8"?>
<!-- Generator: Adobe Illustrator 18.0.0, SVG Export Plug-In . SVG Version: 6.00 Build 0)  -->
<!DOCTYPE svg PUBLIC "-//W3C//DTD SVG 1.1//EN" "http://www.w3.org/Graphics/SVG/1.1/DTD/svg11.dtd">
<svg version="1.1" id="Layer_2_1_" xmlns="http://www.w3.org/2000/svg" xmlns:xlink="http://www.w3.org/1999/xlink" x="0px" y="0px"
	 viewBox="0 0 512 512" enable-background="new 0 0 512 512" xml:space="preserve">
<g>
	
		<linearGradient id="SVGID_1_" gradientUnits="userSpaceOnUse" x1="80.4988" y1="258" x2="431.5012" y2="258" gradientTransform="matrix(1 0 0 -1 0 514)">
		<stop  offset="0" style="stop-color:#EE4137"/>
		<stop  offset="1" style="stop-color:#EE4137"/>
	</linearGradient>
	<path fill="url(#SVGID_1_)" d="M256,26c-96.771,0-175.501,78.73-175.501,175.501c0,92.63,158.434,267.992,165.18,278.779
		c2.224,3.559,6.125,5.72,10.321,5.72c4.196,0,8.097-2.161,10.323-5.72c6.744-10.788,165.178-186.149,165.178-278.779
		C431.501,104.73,352.771,26,256,26z"/>
	<path fill="#861719" d="M256,149.058c-71.844,0-130.294,57.668-130.294,128.552c0,67.85,117.623,196.299,122.631,204.201
		c1.651,2.607,4.547,4.189,7.663,4.189c3.115,0,6.012-1.583,7.664-4.189c5.007-7.902,122.63-136.351,122.63-204.201
		C386.294,206.727,327.844,149.058,256,149.058z"/>
	<path display="none" fill="#861719" d="M256,141.281c-75.707,0-137.08,61.373-137.08,137.08c0,13.416,1.962,26.367,5.554,38.62
		c0.002,0.004,0.005,0.008,0.007,0.012c1.679,2.786,3.389,5.57,5.119,8.35c0.167,0.269,0.333,0.538,0.501,0.807
		c1.733,2.776,3.487,5.547,5.262,8.311c0.126,0.195,0.252,0.39,0.378,0.586c1.791,2.782,3.599,5.557,5.424,8.319
		c0.019,0.029,0.038,0.058,0.058,0.087c1.851,2.801,3.72,5.588,5.598,8.362c0.16,0.236,0.32,0.471,0.48,0.707
		c3.755,5.533,7.554,11.005,11.367,16.39c0.125,0.176,0.25,0.353,0.375,0.529c1.725,2.432,3.451,4.839,5.178,7.234
		c0.465,0.645,0.929,1.288,1.394,1.93c1.659,2.291,3.317,4.57,4.971,6.82c0.064,0.088,0.129,0.178,0.194,0.266
		c0.002,0.002,0.004,0.003,0.006,0.005c36.919,50.201,71.803,89.645,74.892,94.585C247.903,483.839,251.804,486,256,486
		c4.196,0,8.097-2.161,10.323-5.719c3.088-4.939,37.973-44.384,74.891-94.585c0.002-0.002,0.004-0.003,0.004-0.003
		c0.063-0.084,0.124-0.17,0.185-0.253c1.655-2.252,3.315-4.532,4.975-6.825c0.472-0.652,0.944-1.306,1.417-1.961
		c1.723-2.39,3.447-4.792,5.168-7.22c0.121-0.171,0.242-0.342,0.364-0.514c3.817-5.39,7.619-10.867,11.377-16.405
		c0.157-0.232,0.315-0.463,0.472-0.695c1.882-2.778,3.753-5.57,5.607-8.376c0.012-0.018,0.024-0.037,0.037-0.056
		c1.836-2.779,3.655-5.57,5.456-8.369c0.117-0.182,0.235-0.363,0.352-0.545c1.782-2.773,3.543-5.555,5.282-8.342
		c0.158-0.254,0.315-0.508,0.473-0.762c1.738-2.793,3.457-5.59,5.143-8.389c3.593-12.254,5.554-25.205,5.554-38.62
		C393.08,202.653,331.707,141.281,256,141.281z"/>
</g>
</svg>
