<?xml version="1.0" encoding="utf-8"?>
<!-- Generator: Adobe Illustrator 18.0.0, SVG Export Plug-In . SVG Version: 6.00 Build 0)  -->
<!DOCTYPE svg PUBLIC "-//W3C//DTD SVG 1.1//EN" "http://www.w3.org/Graphics/SVG/1.1/DTD/svg11.dtd">
<svg version="1.1" id="Layer_1" xmlns="http://www.w3.org/2000/svg" xmlns:xlink="http://www.w3.org/1999/xlink" x="0px" y="0px"
	 viewBox="0 0 512 512" style="enable-background:new 0 0 512 512;" xml:space="preserve">
<linearGradient id="SVGID_1_" gradientUnits="userSpaceOnUse" x1="26" y1="256" x2="486" y2="256">
	<stop  offset="0" style="stop-color:#CCCCCC"/>
	<stop  offset="0.5" style="stop-color:#F2F2F2"/>
	<stop  offset="1" style="stop-color:#CCCCCC"/>
</linearGradient>
<path style="fill:url(#SVGID_1_);" d="M426,486H86c-33.137,0-60-26.863-60-60V86c0-33.137,26.863-60,60-60h340
	c33.137,0,60,26.863,60,60v340C486,459.137,459.137,486,426,486z"/>
<linearGradient id="SVGID_2_" gradientUnits="userSpaceOnUse" x1="256" y1="486" x2="256" y2="149.0855">
	<stop  offset="0" style="stop-color:#E8E8E8"/>
	<stop  offset="1" style="stop-color:#F2F2F2"/>
</linearGradient>
<path style="fill:url(#SVGID_2_);" d="M426,486H86c-33.137,0-60-26.863-60-60V209.085c0-33.137,26.863-60,60-60h340
	c33.137,0,60,26.863,60,60V426C486,459.137,459.137,486,426,486z"/>
<linearGradient id="SVGID_3_" gradientUnits="userSpaceOnUse" x1="256" y1="149.0078" x2="256" y2="26">
	<stop  offset="0" style="stop-color:#E8E8E8"/>
	<stop  offset="1" style="stop-color:#F2F2F2"/>
</linearGradient>
<path style="fill:url(#SVGID_3_);" d="M426,149.008H86c-33.137,0-60-26.863-60-60V86c0-33.137,26.863-60,60-60h340
	c33.137,0,60,26.863,60,60v3.008C486,122.145,459.137,149.008,426,149.008z"/>
<g>
	<g>
		<ellipse cx="186" cy="64.269" rx="27" ry="7.6"/>
		<ellipse cx="326" cy="64.269" rx="27" ry="7.6"/>
	</g>
	<g>
		<ellipse cx="186" cy="86.369" rx="27" ry="7.6"/>
		<ellipse cx="326" cy="86.369" rx="27" ry="7.6"/>
	</g>
	<g>
		<ellipse cx="186" cy="108.569" rx="27" ry="7.6"/>
		<ellipse cx="326" cy="108.569" rx="27" ry="7.6"/>
	</g>
</g>
<circle style="fill:#700808;" cx="256" cy="315.047" r="57"/>
</svg>
