<?xml version="1.0" encoding="utf-8"?>
<!-- Generator: Adobe Illustrator 22.0.1, SVG Export Plug-In . SVG Version: 6.00 Build 0)  -->
<svg version="1.1" id="Layer_2_1_" xmlns="http://www.w3.org/2000/svg" xmlns:xlink="http://www.w3.org/1999/xlink" x="0px" y="0px"
	 viewBox="0 0 512 512" style="enable-background:new 0 0 512 512;" xml:space="preserve">
<style type="text/css">
	.st0{fill:url(#SVGID_1_);}
	.st1{fill:url(#SVGID_2_);}
	.st2{fill:url(#SVGID_3_);}
	.st3{fill:url(#SVGID_4_);}
	.st4{display:none;fill:#2D2D2D;}
	.st5{fill:none;}
	.st6{fill:#FFFFFF;}
	.st7{fill:#3F8CFC;}
	.st8{fill:#FC354D;}
</style>
<g>
	<g>
		<linearGradient id="SVGID_1_" gradientUnits="userSpaceOnUse" x1="325.825" y1="256" x2="41.684" y2="256">
			<stop  offset="0" style="stop-color:#212121"/>
			<stop  offset="0.9966" style="stop-color:#474747"/>
		</linearGradient>
		<path class="st0" d="M41.7,79v354c0,20.6,16.7,37.3,37.3,37.3h32.5L325.8,256L111.5,41.7H79C58.4,41.7,41.7,58.4,41.7,79z"/>
		<linearGradient id="SVGID_2_" gradientUnits="userSpaceOnUse" x1="470.316" y1="256" x2="186.175" y2="256">
			<stop  offset="3.400040e-03" style="stop-color:#474747"/>
			<stop  offset="1" style="stop-color:#212121"/>
		</linearGradient>
		<path class="st1" d="M400.5,470.3H433c20.6,0,37.3-16.7,37.3-37.3V79c0-20.6-16.7-37.3-37.3-37.3h-32.5L186.2,256L400.5,470.3z"/>
		<linearGradient id="SVGID_3_" gradientUnits="userSpaceOnUse" x1="256" y1="470.316" x2="256" y2="186.175">
			<stop  offset="0" style="stop-color:#212121"/>
			<stop  offset="0.9966" style="stop-color:#474747"/>
		</linearGradient>
		<path class="st2" d="M470.3,433v-32.5L256,186.2L41.7,400.5V433c0,20.6,16.7,37.3,37.3,37.3h354
			C453.6,470.3,470.3,453.6,470.3,433z"/>
		<linearGradient id="SVGID_4_" gradientUnits="userSpaceOnUse" x1="256" y1="308.2725" x2="256" y2="41.684">
			<stop  offset="0" style="stop-color:#212121"/>
			<stop  offset="0.9966" style="stop-color:#474747"/>
		</linearGradient>
		<path class="st3" d="M286,295.9l184.4-184.4V79c0-20.6-16.7-37.3-37.3-37.3H79c-20.6,0-37.3,16.7-37.3,37.3v32.5L226,295.9
			C242.6,312.4,269.4,312.4,286,295.9z"/>
		<path class="st4" d="M402.5,92.5c9.3,0,17,7.6,17,17v293c0,9.3-7.6,17-17,17h-293c-9.3,0-17-7.6-17-17v-293c0-9.3,7.6-17,17-17
			H402.5 M402.5,75.6h-293c-18.7,0-33.9,15.2-33.9,33.9v293c0,18.7,15.2,33.9,33.9,33.9h293c18.7,0,33.9-15.2,33.9-33.9v-293
			C436.4,90.8,421.2,75.6,402.5,75.6L402.5,75.6z"/>
		<g>
			<line class="st5" x1="193.5" y1="419.5" x2="216.6" y2="419.5"/>
			<line class="st5" x1="419.5" y1="216.6" x2="419.5" y2="193.5"/>
			<line class="st5" x1="92.5" y1="370.4" x2="92.5" y2="393.5"/>
			<line class="st5" x1="393.5" y1="92.5" x2="370.4" y2="92.5"/>
			<line class="st5" x1="419.5" y1="254.2" x2="419.5" y2="231"/>
			<polyline class="st5" points="242.4,408.1 231,419.5 254.2,419.5 			"/>
			<path class="st5" d="M93.2,407.2c1.6,5.6,6,10,11.6,11.6"/>
			<path class="st5" d="M418.8,104.8c-1.6-5.6-6-10-11.6-11.6"/>
			<line class="st5" x1="156" y1="419.5" x2="179.1" y2="419.5"/>
			<line class="st5" x1="419.5" y1="179.1" x2="419.5" y2="156"/>
			<line class="st5" x1="419.5" y1="366.7" x2="419.5" y2="343.6"/>
			<line class="st5" x1="343.6" y1="419.5" x2="366.7" y2="419.5"/>
			<path class="st5" d="M381.1,419.5h21.4c0.6,0,1.2,0,1.8-0.1l15-15c0.1-0.6,0.1-1.2,0.1-1.8v-21.4"/>
			<line class="st5" x1="419.5" y1="329.2" x2="419.5" y2="306.1"/>
			<line class="st5" x1="306.1" y1="419.5" x2="329.2" y2="419.5"/>
			<line class="st5" x1="419.5" y1="291.7" x2="419.5" y2="268.5"/>
			<line class="st5" x1="268.5" y1="419.5" x2="291.7" y2="419.5"/>
			<line class="st5" x1="118.5" y1="419.5" x2="141.6" y2="419.5"/>
			<line class="st5" x1="419.5" y1="141.6" x2="419.5" y2="118.5"/>
			<line class="st5" x1="205.9" y1="92.5" x2="182.8" y2="92.5"/>
			<line class="st5" x1="92.5" y1="182.8" x2="92.5" y2="205.9"/>
			<path class="st5" d="M130.9,92.5h-21.4c-0.6,0-1.2,0-1.8,0.1l-15,15c-0.1,0.6-0.1,1.2-0.1,1.8v21.4"/>
			<line class="st5" x1="168.4" y1="92.5" x2="145.3" y2="92.5"/>
			<line class="st5" x1="92.5" y1="145.3" x2="92.5" y2="168.4"/>
			<line class="st5" x1="92.5" y1="332.9" x2="92.5" y2="356"/>
			<line class="st5" x1="356" y1="92.5" x2="332.9" y2="92.5"/>
			<line class="st5" x1="92.5" y1="295.4" x2="92.5" y2="318.5"/>
			<line class="st5" x1="318.5" y1="92.5" x2="295.4" y2="92.5"/>
			<polyline class="st5" points="242.4,93.6 243.5,92.5 220.3,92.5 			"/>
			<line class="st5" x1="92.5" y1="220.3" x2="92.5" y2="243.5"/>
			<line class="st5" x1="92.5" y1="257.8" x2="92.5" y2="281"/>
			<polyline class="st5" points="281,92.5 257.8,92.5 250.4,100 			"/>
			<polygon class="st6" points="92.5,145.3 75.6,162.2 75.6,185.4 92.5,168.4 			"/>
			<polygon class="st7" points="318.5,92.5 335.4,75.6 312.3,75.6 295.4,92.5 			"/>
			<polygon class="st8" points="281,92.5 297.9,75.6 274.8,75.6 257.8,92.5 			"/>
			<path class="st8" d="M393.5,92.5l16.2-16.2c-2.3-0.5-4.7-0.8-7.2-0.8h-15.2l-17,17H393.5z"/>
			<path class="st8" d="M92.5,109.5c0-0.6,0-1.2,0.1-1.8l-17.1,17.1v23.1l17-17V109.5z"/>
			<path class="st6" d="M109.5,92.5h21.4l17-17h-23.1l-17.1,17.1C108.3,92.6,108.9,92.5,109.5,92.5z"/>
			<path class="st7" d="M418.8,104.8L431.5,92c-2.9-4.7-6.8-8.7-11.6-11.6l-12.8,12.8C412.8,94.8,417.2,99.2,418.8,104.8z"/>
			<polygon class="st7" points="205.9,92.5 222.9,75.6 199.8,75.6 182.8,92.5 			"/>
			<polygon class="st8" points="168.4,92.5 185.4,75.6 162.2,75.6 145.3,92.5 			"/>
			<polygon class="st6" points="243.5,92.5 243.7,92.2 260.4,75.6 237.3,75.6 220.3,92.5 			"/>
			<polygon class="st7" points="419.5,329.2 436.4,312.2 436.4,289.1 419.5,306.1 			"/>
			<polygon class="st6" points="419.5,366.7 436.4,349.8 436.4,326.6 419.5,343.6 			"/>
			<path class="st6" d="M419.5,141.6l17-17v-15.2c0-2.5-0.3-4.9-0.8-7.2l-16.2,16.2L419.5,141.6L419.5,141.6z"/>
			<path class="st7" d="M402.5,436.4c18.7,0,33.9-15.2,33.9-33.9v-0.9l-34.8,34.8H402.5z"/>
			<path class="st7" d="M109.5,75.6c-18.7,0-33.9,15.2-33.9,33.9v0.9l34.8-34.8H109.5z"/>
			<path class="st8" d="M419.5,402.5c0,0.6,0,1.2-0.1,1.8l17-17v-23.1l-17,17V402.5z"/>
			<polygon class="st8" points="419.5,179.1 436.4,162.2 436.4,139 419.5,156 			"/>
			<polygon class="st7" points="419.5,216.6 436.4,199.7 436.4,176.6 419.5,193.5 			"/>
			<polygon class="st8" points="419.5,291.7 436.4,274.7 436.4,251.6 419.5,268.5 			"/>
			<polygon class="st6" points="419.5,254.2 436.4,237.2 436.4,214.1 419.5,231 			"/>
			<polygon class="st6" points="356,92.5 373,75.6 349.8,75.6 332.9,92.5 			"/>
			<path class="st6" d="M402.5,419.5h-21.4l-17,17h23.1l17-17C403.7,419.4,403.1,419.5,402.5,419.5z"/>
			<path class="st8" d="M118.5,419.5l-16.2,16.2c2.3,0.5,4.7,0.8,7.2,0.8h15.2l17-17L118.5,419.5L118.5,419.5z"/>
			<polygon class="st7" points="92.5,295.4 75.6,312.3 75.6,335.4 92.5,318.5 			"/>
			<polygon class="st8" points="343.6,419.5 326.6,436.4 349.8,436.4 366.7,419.5 			"/>
			<polygon class="st6" points="92.5,257.8 75.6,274.8 75.6,297.9 92.5,281 			"/>
			<path class="st6" d="M92.5,370.4l-17,17v15.2c0,2.5,0.3,4.9,0.8,7.2l16.2-16.2V370.4z"/>
			<polygon class="st8" points="92.5,332.9 75.6,349.8 75.6,373 92.5,356 			"/>
			<path class="st7" d="M93.2,407.2L80.5,420c2.9,4.7,6.8,8.7,11.6,11.6l12.8-12.8C99.2,417.2,94.8,412.8,93.2,407.2z"/>
			<polygon class="st6" points="156,419.5 139,436.4 162.2,436.4 179.1,419.5 			"/>
			<polygon class="st8" points="231,419.5 214.1,436.4 237.2,436.4 254.2,419.5 			"/>
			<polygon class="st7" points="92.5,182.8 75.6,199.8 75.6,222.9 92.5,205.9 			"/>
			<polygon class="st7" points="193.5,419.5 176.6,436.4 199.7,436.4 216.6,419.5 			"/>
			<polygon class="st6" points="268.5,419.5 251.6,436.4 274.7,436.4 291.7,419.5 			"/>
			<polygon class="st7" points="306.1,419.5 289.1,436.4 312.2,436.4 329.2,419.5 			"/>
			<polygon class="st8" points="92.5,220.3 75.6,237.3 75.6,260.4 92.5,243.5 			"/>
		</g>
	</g>
</g>
</svg>
