<?xml version="1.0" encoding="utf-8"?>
<!-- Generator: Adobe Illustrator 22.0.1, SVG Export Plug-In . SVG Version: 6.00 Build 0)  -->
<svg version="1.1" id="Layer_1" xmlns="http://www.w3.org/2000/svg" xmlns:xlink="http://www.w3.org/1999/xlink" x="0px" y="0px"
	 viewBox="0 0 512 512" style="enable-background:new 0 0 512 512;" xml:space="preserve">
<g>
	<path style="fill:#009EFF;" d="M486.89,259.826c-1.489,4.834-4.755,8.371-8.25,11.854c-23.424,23.345-46.773,46.767-70.148,70.158
		c-8.423,8.426-17.421,8.405-25.878-0.061c-24.125-24.143-48.252-48.283-72.361-72.428c-8.216-8.225-8.21-17.208,0.024-25.449
		c24.249-24.289,48.508-48.569,72.769-72.839c7.893-7.899,17.169-7.906,25.059-0.009c23.519,23.522,47.001,47.077,70.562,70.559
		c3.498,3.482,6.752,7.032,8.225,11.872L486.89,259.826L486.89,259.826z"/>
	<path style="fill:#009EFF;" d="M254.369,486c-4.81-1.528-8.295-4.855-11.762-8.344c-23.324-23.446-46.718-46.812-70.091-70.212
		c-8.362-8.374-8.368-17.306-0.027-25.662c24.185-24.207,48.374-48.413,72.572-72.617c8.043-8.046,17.26-8.079,25.257-0.073
		c24.192,24.201,48.38,48.413,72.562,72.626c8.307,8.32,8.329,17.434,0.061,25.711c-23.574,23.604-47.184,47.175-70.705,70.821
		c-3.367,3.382-6.828,6.423-11.519,7.75H254.369L254.369,486z"/>
	<path style="fill:#009EFF;" d="M169.478,198.651c0-26.919,0.244-53.835-0.155-80.748c-0.113-7.787,1.747-13.872,7.696-19.01
		c4.782-4.134,9.026-8.907,13.507-13.397c17.735-17.75,35.461-35.497,53.199-53.244c8.341-8.341,17.339-8.332,25.674,0.006
		c24.128,24.131,48.246,48.27,72.371,72.41c8.289,8.298,8.28,17.415-0.006,25.711c-28.526,28.566-57.065,57.123-85.6,85.679
		c-25.199,25.227-50.392,50.45-75.591,75.667c-4.67,4.676-8.807,3.583-10.502-2.892c-0.524-2.006-0.566-4.17-0.566-6.265
		C169.469,254.596,169.478,226.621,169.478,198.651"/>
	<path style="fill:#009EFF;" d="M111.786,256.97c0,24.697,0.033,49.406-0.052,74.106c-0.009,2.344-0.381,4.828-1.224,7.008
		c-1.647,4.286-4.743,4.819-7.979,1.586c-11.361-11.339-22.691-22.715-34.027-34.073c-13.108-13.126-26.219-26.255-39.318-39.391
		c-5.422-5.437-5.446-12.98-0.046-18.444c24.125-24.399,48.252-48.794,72.392-73.189c1.595-1.61,3.099-3.799,5.814-2.773
		c2.591,0.98,3.616,3.318,3.982,5.909c0.231,1.607,0.414,3.242,0.417,4.861c0.024,24.8,0.015,49.598,0.015,74.398L111.786,256.97
		L111.786,256.97z"/>
</g>
</svg>
