<?xml version="1.0" encoding="utf-8"?>
<!-- Generator: Adobe Illustrator 22.0.1, SVG Export Plug-In . SVG Version: 6.00 Build 0)  -->
<svg version="1.1" id="Layer_3" xmlns="http://www.w3.org/2000/svg" xmlns:xlink="http://www.w3.org/1999/xlink" x="0px" y="0px"
	 viewBox="0 0 512 512" style="enable-background:new 0 0 512 512;" xml:space="preserve">
<style type="text/css">
	.st0{fill:url(#SVGID_1_);}
	.st1{opacity:0.5;fill:url(#SVGID_2_);enable-background:new    ;}
	.st2{fill:url(#SVGID_3_);}
	.st3{opacity:0.3;fill:#FFFFFF;enable-background:new    ;}
	.st4{opacity:0.2;fill:#FFFFFF;enable-background:new    ;}
	.st5{fill:#FFFEE6;}
	.st6{opacity:0.4;}
	.st7{opacity:0.95;}
	.st8{fill:#FFFFFF;}
</style>
<g>
	
		<radialGradient id="SVGID_1_" cx="256" cy="256" r="230" gradientTransform="matrix(1 0 0 -1 0 512)" gradientUnits="userSpaceOnUse">
		<stop  offset="0" style="stop-color:#FFD815"/>
		<stop  offset="1" style="stop-color:#E900D0"/>
	</radialGradient>
	<path class="st0" d="M426,486H86c-33.1,0-60-26.9-60-60V86c0-33.1,26.9-60,60-60h340c33.1,0,60,26.9,60,60v340
		C486,459.1,459.1,486,426,486z"/>
	
		<linearGradient id="SVGID_2_" gradientUnits="userSpaceOnUse" x1="256" y1="26" x2="256" y2="224.136" gradientTransform="matrix(1 0 0 -1 0 512)">
		<stop  offset="0" style="stop-color:#760094;stop-opacity:0.8"/>
		<stop  offset="1" style="stop-color:#0002FF"/>
	</linearGradient>
	<path class="st1" d="M26,287.9V426c0,33.1,26.9,60,60,60h340c33.1,0,60-26.9,60-60V287.9H26z"/>
	
		<linearGradient id="SVGID_3_" gradientUnits="userSpaceOnUse" x1="432" y1="165.5043" x2="432" y2="224.137" gradientTransform="matrix(1 0 0 -1 0 512)">
		<stop  offset="0" style="stop-color:#CDD700"/>
		<stop  offset="1" style="stop-color:#7EFF55;stop-opacity:0.9"/>
	</linearGradient>
	<path class="st2" d="M486,346.5v-58.6H384.4c-6.9,0-8.9,9.5-2.6,12.3L486,346.5z"/>
	<g>
		<polygon class="st3" points="26,101.8 26,324.9 440.3,213.3 		"/>
		<polygon class="st4" points="26,159.6 26,267.1 440.3,213.3 		"/>
	</g>
	<path class="st5" d="M460,248.6l-2-39.5l0,0c-3.8-6.5-13.2-6.5-17,0l0,0l-2,39.5l-2,39.2h2h21h2L460,248.6z"/>
</g>
<g>
	<g class="st6">
		<circle cx="256" cy="278.7" r="41.3"/>
		<path d="M355.3,207.6h-44.5c-3.9,0-7.1-3.2-7.1-7.1v-4.6c0-9.8-7.9-17.7-17.7-17.7h-60.1c-9.8,0-17.7,7.9-17.7,17.7v4.6
			c0,3.9-3.2,7.1-7.1,7.1h-44.5c-9.8,0-17.7,7.9-17.7,17.7v106.8c0,9.8,7.9,17.7,17.7,17.7h198.7c9.8,0,17.7-7.9,17.7-17.7V225.3
			C373,215.5,365.1,207.6,355.3,207.6z M256,330.6c-28.6,0-51.9-23.3-51.9-51.9s23.3-51.9,51.9-51.9s51.9,23.3,51.9,51.9
			S284.6,330.6,256,330.6z"/>
	</g>
	<g class="st7">
		<circle class="st8" cx="256" cy="270.7" r="41.3"/>
		<path class="st8" d="M355.3,199.6h-44.5c-3.9,0-7.1-3.2-7.1-7.1v-4.6c0-9.8-7.9-17.7-17.7-17.7h-60.1c-9.8,0-17.7,7.9-17.7,17.7
			v4.6c0,3.9-3.2,7.1-7.1,7.1h-44.5c-9.8,0-17.7,7.9-17.7,17.7v106.8c0,9.8,7.9,17.7,17.7,17.7h198.7c9.8,0,17.7-7.9,17.7-17.7
			V217.3C373,207.5,365.1,199.6,355.3,199.6z M256,322.6c-28.6,0-51.9-23.3-51.9-51.9s23.3-51.9,51.9-51.9s51.9,23.3,51.9,51.9
			S284.6,322.6,256,322.6z"/>
	</g>
</g>
</svg>
