<?xml version="1.0" encoding="utf-8"?>
<!-- Generator: Adobe Illustrator 18.0.0, SVG Export Plug-In . SVG Version: 6.00 Build 0)  -->
<!DOCTYPE svg PUBLIC "-//W3C//DTD SVG 1.1//EN" "http://www.w3.org/Graphics/SVG/1.1/DTD/svg11.dtd">
<svg version="1.1" id="Layer_3" xmlns="http://www.w3.org/2000/svg" xmlns:xlink="http://www.w3.org/1999/xlink" x="0px" y="0px"
	 viewBox="0 0 512 512" style="enable-background:new 0 0 512 512;" xml:space="preserve">
<g>
	<radialGradient id="SVGID_1_" cx="256" cy="256" r="230" gradientUnits="userSpaceOnUse">
		<stop  offset="0" style="stop-color:#FFD815"/>
		<stop  offset="1" style="stop-color:#760094"/>
	</radialGradient>
	<path style="fill:url(#SVGID_1_);" d="M426,486H86c-33.137,0-60-26.863-60-60V86c0-33.137,26.863-60,60-60h340
		c33.137,0,60,26.863,60,60v340C486,459.137,459.137,486,426,486z"/>
	<linearGradient id="SVGID_2_" gradientUnits="userSpaceOnUse" x1="256" y1="486" x2="256" y2="287.8638">
		<stop  offset="0" style="stop-color:#760094;stop-opacity:0.8"/>
		<stop  offset="1" style="stop-color:#0002FF"/>
	</linearGradient>
	<path style="opacity:0.5;fill:url(#SVGID_2_);" d="M26,287.864V426c0,33.137,26.863,60,60,60h340c33.137,0,60-26.863,60-60V287.864
		H26z"/>
	<linearGradient id="SVGID_3_" gradientUnits="userSpaceOnUse" x1="451.312" y1="325.5275" x2="451.312" y2="287.8638">
		<stop  offset="0" style="stop-color:#CDD700"/>
		<stop  offset="1" style="stop-color:#7EFF55;stop-opacity:0.9"/>
	</linearGradient>
	<path style="fill:url(#SVGID_3_);" d="M486,325.527v-37.664h-65.246c-4.454,0-5.746,6.083-1.677,7.894L486,325.527z"/>
	<g>
		<polygon style="opacity:0.3;fill:#FFFFFF;" points="26,101.779 26,324.888 440.302,213.333 		"/>
		<polygon style="opacity:0.2;fill:#FFFFFF;" points="26,159.57 26,267.096 440.302,213.333 		"/>
	</g>
	<path style="fill:#FFFEE6;" d="M459.998,248.639l-1.988-39.467v0c-3.816-6.501-13.216-6.501-17.032,0v0l-1.988,39.467
		l-1.975,39.224h1.975h21.008h1.975L459.998,248.639z"/>
</g>
<g>
	<g style="opacity:0.4;">
		<circle cx="256" cy="278.675" r="41.271"/>
		<path d="M355.338,207.599h-44.528c-3.906,0-7.072-3.166-7.072-7.072v-4.597c0-9.765-7.916-17.68-17.68-17.68h-60.113
			c-9.765,0-17.68,7.916-17.68,17.68v4.597c0,3.906-3.166,7.072-7.072,7.072h-44.528c-9.765,0-17.68,7.916-17.68,17.68v106.79
			c0,9.765,7.916,17.68,17.68,17.68h198.675c9.765,0,17.68-7.916,17.68-17.68V225.28
			C373.018,215.515,365.102,207.599,355.338,207.599z M256,330.554c-28.606,0-51.879-23.273-51.879-51.879
			c0-28.606,23.273-51.879,51.879-51.879c28.606,0,51.879,23.273,51.879,51.879C307.879,307.281,284.606,330.554,256,330.554z"/>
	</g>
	<g style="opacity:0.95;">
		<circle style="fill:#FFFFFF;" cx="256" cy="270.675" r="41.271"/>
		<path style="fill:#FFFFFF;" d="M355.338,199.599h-44.528c-3.906,0-7.072-3.166-7.072-7.072v-4.597
			c0-9.765-7.916-17.68-17.68-17.68h-60.113c-9.765,0-17.68,7.916-17.68,17.68v4.597c0,3.906-3.166,7.072-7.072,7.072h-44.528
			c-9.765,0-17.68,7.916-17.68,17.68v106.79c0,9.765,7.916,17.68,17.68,17.68h198.675c9.765,0,17.68-7.916,17.68-17.68V217.28
			C373.018,207.515,365.102,199.599,355.338,199.599z M256,322.554c-28.606,0-51.879-23.273-51.879-51.879
			c0-28.606,23.273-51.879,51.879-51.879c28.606,0,51.879,23.273,51.879,51.879C307.879,299.281,284.606,322.554,256,322.554z"/>
	</g>
</g>
</svg>
