<?xml version="1.0" encoding="utf-8"?>
<!-- Generator: Adobe Illustrator 22.0.1, SVG Export Plug-In . SVG Version: 6.00 Build 0)  -->
<svg version="1.1"
	 id="svg2" xmlns:cc="http://creativecommons.org/ns#" xmlns:dc="http://purl.org/dc/elements/1.1/" xmlns:rdf="http://www.w3.org/1999/02/22-rdf-syntax-ns#" xmlns:svg="http://www.w3.org/2000/svg"
	 xmlns="http://www.w3.org/2000/svg" xmlns:xlink="http://www.w3.org/1999/xlink" x="0px" y="0px" viewBox="0 0 512 512"
	 style="enable-background:new 0 0 512 512;" xml:space="preserve">
<g>
	
		<linearGradient id="SVGID_1_" gradientUnits="userSpaceOnUse" x1="25" y1="257" x2="485" y2="257" gradientTransform="matrix(1 0 0 -1 0 512)">
		<stop  offset="0" style="stop-color:#F7F7F7"/>
		<stop  offset="1" style="stop-color:#F7F7F7"/>
	</linearGradient>
	<circle style="fill:url(#SVGID_1_);" cx="255" cy="255" r="230"/>
	<g>
		<g>
			<path style="fill:#CBDD1F;" d="M483.896,232.426c-3.88,3.743-45.944,39.655-231.534,39.655
				c-117.932,0-217.239-42.684-225.519-46.336C25.627,235.326,25,245.09,25,255c0,127.025,102.974,230,230,230s230-102.975,230-230
				C485,247.382,484.62,239.854,483.896,232.426z"/>
			<path style="fill:#D7E207;" d="M483.908,232.553c-6.337,9.224-112.211,158.862-231.545,39.528
				C108.787,128.506,35.08,214.089,27.018,224.492C25.695,234.475,25,244.656,25,255c0,127.025,102.974,230,230,230
				s230-102.975,230-230C485,247.426,484.623,239.94,483.908,232.553z"/>
			<g>
				<path style="fill:#CEFF00;" d="M269.805,373.106c-10.709,1.764-20.648-1.515-31.337-0.169c-1.675,0.068-3.35,0.132-5.02,0.149
					c-15.411,1.316-29.482-6.06-42.389-14.304c-1.614-1.031-3.209-2.075-4.79-3.116c-6.315-3.204-12.288-6.941-17.647-11.285
					c-1.79-1.458-3.512-2.984-5.159-4.591c-10.857-10.743-16.17-25.352-20.818-39.962c-1.992-7.305-6.641-14.609-8.724-22.492
					c-0.482-2.308-0.818-4.639-1.031-6.984c-1.068-11.723,0.916-23.795,2.903-35.121c0.23-1.283,0.479-2.567,0.752-3.846
					c0.546-2.559,1.183-5.1,1.912-7.617c0.546-1.853,1.127-3.698,1.735-5.538c1.826-5.518,3.897-10.985,5.988-16.451
					c0.618-1.895,1.264-3.773,1.969-5.626c2.82-7.416,6.58-14.443,12.167-20.684c1.18-1.45,2.429-2.845,3.745-4.179
					c0.987-1.001,2.009-1.972,3.057-2.916c16.034-15.967,35.956-27.92,59.104-29.166c2.287-0.349,4.559-0.633,6.849-0.854
					c2.291-0.222,4.6-0.38,6.925-0.487s4.681-0.182,7.07-0.248c23.077-4.469,44.991,3.5,64.264,15.469
					c1.766,0.912,3.523,1.846,5.276,2.796c5.259,2.85,10.479,5.843,15.753,8.797c1.574,0.946,3.096,1.944,4.555,3.004
					c1.459,1.06,2.855,2.181,4.178,3.37c1.339,1.183,2.604,2.434,3.804,3.76c14.231,15.444,21.535,34.702,22.864,55.287
					c0,1.992,1.328,4.648,2.064,7.091c0.825,2.296,1.511,4.614,2.049,6.951c4.311,18.696-0.774,38.617-11.325,55.346
					c-0.488,2.413-1.073,4.802-1.765,7.149c-6.227,21.117-21.141,38.782-41.185,48.687c-1.907,1.147-3.826,2.215-5.759,3.217
					c-11.601,6.013-24.107,9.732-36.315,13.688C273.736,372.614,271.838,372.91,269.805,373.106z"/>
				<path style="fill:#F8FFDC;" d="M363.791,251.885c0.428,10.197-3.763,19.102-3.723,29.233c-0.126,1.571-0.258,3.142-0.432,4.702
					c-0.524,14.536-9.011,26.831-18.175,37.942c-1.145,1.389-2.302,2.76-3.454,4.117c-10.982,15.925-28.27,24.83-46.459,29.445
					c-1.573,0.521-3.141,1.033-4.715,1.536c-3.172,1.599-6.422,3.045-9.73,4.287c-1.653,0.621-3.323,1.19-5.01,1.703
					c-17.36,6.718-35.696,1.48-52.251-3.55c-1.171-0.36-2.341-0.739-3.505-1.14c-2.327-0.801-4.626-1.684-6.893-2.651
					c-1.667-0.72-3.324-1.473-4.972-2.25c-4.944-2.332-9.811-4.887-14.676-7.461c-1.698-0.793-3.378-1.609-5.028-2.478
					c-6.601-3.475-12.733-7.785-17.924-13.711c-1.219-1.267-2.379-2.591-3.475-3.97c-3.289-4.139-6.002-8.778-7.992-13.856
					c-0.776-1.713-1.478-3.448-2.12-5.207c-2.569-7.034-4.18-14.533-5.467-21.863c-0.522-1.744-1-3.494-1.433-5.254
					c-2.165-8.801-3.221-17.87-3.235-26.839c-0.364-2.033-0.618-4.043-0.77-6.036c-0.684-8.961,0.701-17.541,3.463-25.809
					c0.552-1.654,1.159-3.295,1.816-4.924c5.998-18.109,17.522-32.777,28.713-48.07c1.062-1.362,2.167-2.669,3.322-3.91
					c6.931-7.448,15.68-12.537,27.18-13c1.773-0.594,3.464-1.184,5.19-1.714c2.738-0.925,5.534-1.689,8.371-2.29
					c1.419-0.3,2.848-0.56,4.286-0.779c8.562-1.255,16.943-2.826,25.326-4.922c8.382-2.619,16.763-0.523,24.656,2.15
					c1.725,0.475,3.442,0.949,5.145,1.484c5.109,1.593,10.078,3.878,14.822,6.873c1.614,0.779,3.208,1.562,4.785,2.363
					c16.075,7.037,30.743,16.99,40.263,31.632c1.513,1.289,2.897,2.624,4.176,4.018c1.156,1.244,2.226,2.538,3.22,3.875
					c0.993,1.338,1.909,2.719,2.759,4.139c8.09,14.71,10.709,30.949,13.781,46.745C363.778,248.16,363.838,249.966,363.791,251.885z
					"/>
				<g>
					<g>
						<path style="fill:#CEFF00;" d="M344.538,264.237c-4.735-0.373-18.025-4.047-33.575-5.664
							c-20.292-2.111-41.607-3.704-40.892-9.669c1.432-11.95,20.074-16.119,36.162-25.554c14.349-8.416,25.925-17.545,31.085-17.422
							c5.949,0.142,5.692,6.921,10.76,12.808c4.018,4.668,2.798,12.606,4.731,17.705
							C355.127,242.557,358.269,265.32,344.538,264.237z"/>
						<path style="fill:#CEFF00;" d="M299.794,176.786c-4.376,3.305-10.173,12.035-18.026,24.69
							c-10.248,16.514-18.387,31.711-23.512,28.817c-7.594-4.289-9.797-22.95-11.813-40.598c-1.798-15.741-9.68-25.158-6.779-31.696
							c0.817-1.842,3.474-3.693,7.983-2.682c0,0,5.58-5.212,14.326-0.417c0,0,3.565,0.042,9.865,0.889
							c4.707,0.632,6.947,2.239,9.255,1.885C287.322,156.717,312.831,166.938,299.794,176.786z"/>
						<path style="fill:#CEFF00;" d="M329.614,203.933c-6.275,5.656-52.678,34.32-59.361,28.07
							c-4.302-4.024,29.398-49.387,37.118-54.32c6.417-4.101,18.009,5.2,17.845,11.633
							C325.217,189.317,336.441,197.78,329.614,203.933z"/>
						<path style="fill:#CEFF00;" d="M323.397,310.474c-4.493-1.956-17.078-16.921-30.526-26.109
							c-13.636-9.317-26.101-14.899-22.303-22.739c2.721-5.617,25.775-0.383,46.406,1.438c15.121,1.335,24.761,3.091,28.796,5.706
							c7.194,4.664,1.01,25.777-6.201,28.357C339.567,297.125,333.039,314.671,323.397,310.474z"/>
						<path style="fill:#CEFF00;" d="M163.994,295.477c7.425-5.838,66.631-30.557,72.101-22.043
							c4.717,7.34-34.673,44.157-50.363,49.779C177.742,326.076,160.279,298.399,163.994,295.477z"/>
						<path style="fill:#CEFF00;" d="M161.877,239.601c47.008,11.05,76.878,7.295,77.118,17.478
							c0.204,8.665-19.217,10.845-39.238,16.316c-13.53,3.697-19.316,10.033-30.82,14.734
							C155.514,293.615,140.449,234.563,161.877,239.601z"/>
						<path style="fill:#CEFF00;" d="M185.803,191.182c8.781,5.415,20.04,15.146,28.625,26.307
							c10.924,14.202,26.864,22.601,23.219,28.231c-6.101,9.426-30.207-3.423-45.062-4.779c-13.593-1.242-26.871-2.414-33.045-6.441
							c-9.736-6.351,2.996-20.972,2.996-20.972C162.651,205.604,175.964,185.116,185.803,191.182z"/>
						<path style="fill:#CEFF00;" d="M233.069,161.206c3.015,5.155,9.371,24.886,9.424,41.068
							c0.051,15.635,10.242,24.445,6.913,31.236c-0.603,1.23-3.619,3.901-8.749,2.838c-5.2-1.077-11.015-7.41-16.004-14.896
							c-11.418-17.13-36.122-30.63-37.295-36.797C183.781,165.86,226.559,150.073,233.069,161.206z"/>
						<path style="fill:#CEFF00;" d="M239.937,341.92c2.122-4.014,4.451-16.188,9.444-30.225
							c6.516-18.317,4.349-28.959,9.626-27.897c6.088,1.225,11.696,10.361,16.112,29.743c3.52,15.447,16.011,27.378,14.762,32.127
							c-1.44,5.474-7.744,5.939-14.658,9.343c-5.482,2.699-17.672,1.351-23.124,2.025
							C245.563,357.842,233.827,353.479,239.937,341.92z"/>
						<path style="fill:#CEFF00;" d="M290.918,339.035c-0.78-5.183-10.543-16.74-12.793-29.948
							c-3.156-18.526-14.591-25.534-12.719-30.464c2.957-7.787,27.493,9.109,34.852,17.309c10.033,11.18,18.885,14.33,23.202,19.861
							c1.216,1.559,4.313,5.131,0.536,9.891c-2.822,3.557-5.306,4.618-6.11,6.684C315.719,337.938,293.242,354.478,290.918,339.035z
							"/>
						<path style="fill:#CEFF00;" d="M193.836,323.029c6.081-2.84,13.587-10.668,25.497-18.214
							c16.706-10.584,18.591-20.689,24.164-21.031c8.804-0.54,2.75,25.633-2.164,35.758c-6.701,13.806-4.294,19.644-7.879,25.884
							c-1.01,1.758-2.078,8.803-10.08,6.372c-4.644-1.411-12.422-6.783-12.422-6.783
							C202.998,344.826,182.45,328.344,193.836,323.029z"/>
					</g>
				</g>
			</g>
			<linearGradient id="SVGID_2_" gradientUnits="userSpaceOnUse" x1="255" y1="485" x2="255" y2="189.7267">
				<stop  offset="0" style="stop-color:#CBDD1F;stop-opacity:0.25"/>
				<stop  offset="1" style="stop-color:#CBDD1F;stop-opacity:0.5"/>
			</linearGradient>
			<path style="fill:url(#SVGID_2_);" d="M483.908,232.553c-6.337,9.224-112.211,158.862-231.545,39.528
				C108.787,128.506,35.08,214.089,27.018,224.492C25.695,234.475,25,244.656,25,255c0,127.025,102.974,230,230,230
				s230-102.975,230-230C485,247.426,484.623,239.94,483.908,232.553z"/>
		</g>
		<linearGradient id="SVGID_3_" gradientUnits="userSpaceOnUse" x1="192.864" y1="270.118" x2="484.209" y2="270.118">
			<stop  offset="0" style="stop-color:#CBDD1F;stop-opacity:0.25"/>
			<stop  offset="1" style="stop-color:#CBDD1F"/>
		</linearGradient>
		<path style="fill:url(#SVGID_3_);" d="M484.209,232.11c0,0-88.998,117.87-219.959,40.39
			c-32.507-19.232-53.855-38.815-71.386-50.313c18.294,12.221,38.122,28.517,59.499,49.894
			C375.445,395.163,484.209,232.11,484.209,232.11z"/>
	</g>
</g>
</svg>
