<?xml version="1.0" encoding="utf-8"?>
<!-- Generator: Adobe Illustrator 18.0.0, SVG Export Plug-In . SVG Version: 6.00 Build 0)  -->
<!DOCTYPE svg PUBLIC "-//W3C//DTD SVG 1.1//EN" "http://www.w3.org/Graphics/SVG/1.1/DTD/svg11.dtd">
<svg version="1.1" id="Layer_1" xmlns="http://www.w3.org/2000/svg" xmlns:xlink="http://www.w3.org/1999/xlink" x="0px" y="0px"
	 viewBox="0 0 512 512" style="enable-background:new 0 0 512 512;" xml:space="preserve">
<path style="fill:#EFEDED;" d="M469.6,398.1l-286,104c-2.6,1-5.4-0.4-6.4-3L39.3,120.3c-1-2.6,0.4-5.4,3-6.4L328.3,10
	c2.6-1,5.4,0.4,6.4,3l137.9,378.8C473.6,394.2,472.2,397.1,469.6,398.1z"/>
<path style="fill:#E2E2E2;" d="M441.7,433L142,485.8c-2.7,0.5-5.3-1.3-5.8-4.1l-70-397c-0.5-2.7,1.3-5.3,4.1-5.8L370,26.2
	c2.7-0.5,5.3,1.3,5.8,4.1l70,397C446.3,429.9,444.4,432.5,441.7,433z"/>
<linearGradient id="SVGID_1_" gradientUnits="userSpaceOnUse" x1="98.8" y1="256" x2="413.1031" y2="256" gradientTransform="matrix(1 0 0 -1 0 512)">
	<stop  offset="0" style="stop-color:#C7C7CC"/>
	<stop  offset="1" style="stop-color:#C7C7CC"/>
</linearGradient>
<path style="fill:url(#SVGID_1_);" d="M408.2,462.6H103.8c-2.8,0-5-2.2-5-5V54.4c0-2.8,2.2-5,5-5h304.3c2.8,0,5,2.2,5,5v403.1
	C413.2,460.3,410.9,462.6,408.2,462.6z"/>
<g style="opacity:0.2;">
	<path style="fill:#FFFFFF;" d="M413.1,54.4c0-2.8-2.2-5-5-5H294.3l118.8,118.8L413.1,54.4L413.1,54.4z"/>
</g>
<g>
	<g>
		<path style="fill:#FFFFFF;" d="M242.7,237.5v-1.7h11.2c3.8-6,7.7-12.1,11.6-18.2c4-6.1,8.1-11.6,12.5-16.5s8.9-8.9,13.7-11.9
			c4.7-3.1,9.7-4.6,15-4.6c3.1,0,5.6,0.7,7.6,2c1.9,1.3,2.9,3.3,2.9,6c0,2.3-0.7,4.2-2.2,5.7s-3.3,2.4-5.5,2.5
			c0.4-1.4,0.7-2.6,0.9-3.9c0.2-1.2,0.4-2.6,0.4-4.3c0-1.9-0.5-3.5-1.4-4.7s-2.5-1.7-4.7-1.7c-3.6,0-7.2,1.6-11,4.9
			c-3.7,3.2-7.4,7.3-11,12.3c-3.6,4.9-7.2,10.3-10.6,16.1s-6.7,11.2-9.8,16.2H295v1.7h-33.7c-9.3,15.9-17.6,29.5-25,40.9
			c-7.4,11.3-14.4,20.6-21.2,27.9s-13.6,12.6-20.4,16c-6.8,3.4-14.3,5.1-22.5,5.1c-2.9,0-5.7-0.4-8.4-1.1s-5-1.8-7.1-3.3
			c-2-1.5-3.7-3.3-4.9-5.5c-1.3-2.2-1.9-4.7-1.9-7.6c0-3.8,1.2-7,3.6-9.7c2.4-2.7,6.4-4,12-4h1.3v1.2c-2.9,0.2-5.4,1.3-7.4,3.3
			s-3.1,4.8-3.1,8.4c0,5,1.4,9,4.2,12s6.9,4.4,12.4,4.4c5.2,0,10.2-1.2,15-3.6c4.7-2.4,9.3-5.6,13.7-9.8c4.4-4.2,8.7-9.1,12.9-14.7
			s8.4-11.7,12.6-18.2c4.2-6.5,8.5-13.4,12.7-20.5c4.3-7.1,8.6-14.2,13.1-21.3h-10.2V237.5z"/>
	</g>
	<g>
		<path style="fill:#FFFFFF;" d="M278.6,242.5c-3.2,1.6-6.2,3.7-9,6.3s-5.3,5.5-7.6,8.7c-1.2,1.7-2.3,3.6-3.3,5.5
			c-1,2-1.9,4-2.7,6.1c-0.7,2.1-1.3,4.2-1.8,6.4c-0.4,2.2-0.6,4.4-0.6,6.7h-0.5c0-3.1,0.2-5.8,0.5-8.2c0.3-2.4,0.8-4.5,1.4-6.5
			c0.6-2,1.4-3.9,2.4-5.7c1-1.8,2.1-3.7,3.4-5.7c2-3,4.6-5.7,7.6-8s6.4-4.3,10.1-5.9v0.3H278.6z"/>
		<path style="fill:#FFFFFF;" d="M293.1,259.6c-0.6,1.1-1.4,2.2-2.5,3.5s-2.3,2.5-3.6,3.7c-1.3,1.1-2.6,2.1-3.9,2.9
			s-2.6,1.1-3.8,1.1c-1,0-1.7-0.2-2.2-0.7s-0.8-1-0.8-1.8c0-0.7,0.1-1.3,0.4-1.9l-0.1-0.1c-0.4,0.6-0.9,1.1-1.5,1.7
			c-0.6,0.5-1.2,1-1.8,1.4c-0.6,0.4-1.3,0.8-2,1s-1.4,0.4-2.2,0.4c-1.3,0-2.3-0.3-3-0.9s-1.1-1.5-1.1-2.5c0-0.7,0.2-1.3,0.6-1.8
			s0.9-0.7,1.5-0.7c0.5,0,0.9,0.1,1.1,0.4s0.3,0.6,0.3,0.9c0,0.4-0.1,0.7-0.3,0.9c-0.2,0.2-0.5,0.4-0.9,0.4c-0.5,0-0.9-0.2-1-0.6
			c-0.3,0.3-0.5,0.6-0.5,1.1c0,0.8,0.3,1.3,0.9,1.8c0.6,0.4,1.4,0.6,2.3,0.6c0.7,0,1.4-0.2,2.2-0.6c0.8-0.4,1.5-0.9,2.2-1.6
			c0.7-0.6,1.4-1.4,2.1-2.2c0.7-0.8,1.2-1.7,1.7-2.6s0.9-1.7,1.2-2.6c0.3-0.8,0.4-1.6,0.4-2.2c0-0.7-0.2-1.2-0.5-1.7
			c-0.3-0.4-0.8-0.7-1.4-0.7c-0.5,0-1,0.1-1.4,0.4s-0.9,0.6-1.2,1c-0.4,0.4-0.7,0.8-1,1.2c-0.3,0.4-0.5,0.8-0.8,1.1l-0.4-0.2
			c0.3-0.5,0.7-1,1-1.5s0.7-0.9,1.1-1.3s0.9-0.7,1.4-0.9c0.5-0.2,1.1-0.3,1.8-0.3c0.6,0,1.2,0.1,1.6,0.3c0.5,0.2,0.8,0.5,1.1,0.8
			c0.3,0.4,0.5,0.7,0.7,1.2c0.2,0.4,0.2,0.9,0.2,1.4c0.3-0.4,0.7-0.7,1.2-1.1s1-0.8,1.6-1.1c0.6-0.3,1.2-0.6,1.8-0.8
			c0.7-0.2,1.3-0.3,2-0.3c0.9,0,1.6,0.2,2.1,0.6s0.8,0.9,0.8,1.5c0,0.4-0.2,0.7-0.5,1.1s-0.8,0.5-1.4,0.5c-0.1,0-0.3,0-0.6-0.1
			c0.1-0.4,0.3-0.7,0.4-1s0.2-0.6,0.2-0.9c0-0.8-0.4-1.2-1.1-1.2c-0.6,0-1.3,0.2-2,0.6s-1.4,0.9-2.1,1.5s-1.3,1.3-2,2.1
			c-0.6,0.8-1.2,1.6-1.7,2.4s-0.9,1.6-1.1,2.4c-0.3,0.8-0.4,1.5-0.4,2.2c0,0.8,0.2,1.4,0.5,1.8s0.8,0.6,1.5,0.6c0.6,0,1.3-0.2,2-0.5
			c0.7-0.4,1.5-0.8,2.3-1.4s1.6-1.2,2.4-2c0.8-0.7,1.6-1.5,2.3-2.3c0.7-0.8,1.4-1.6,2-2.3c0.6-0.8,1.1-1.5,1.4-2.1L293.1,259.6z"/>
		<path style="fill:#FFFFFF;" d="M297.3,256.4c-1,1.4-2,2.8-2.9,4.1c-1,1.3-1.9,2.5-2.6,3.6c-0.8,1.1-1.4,2-1.9,2.9
			c-0.5,0.8-0.7,1.5-0.7,2c0,0.8,0.4,1.2,1.1,1.2c0.8,0,1.7-0.4,2.8-1.1c1-0.8,2.2-1.8,3.3-3c1.2-1.3,2.4-2.7,3.6-4.4
			c1.2-1.6,2.4-3.4,3.5-5.2h2.5c-1.6,2.2-3.1,4.5-4.5,6.8s-2.8,4.6-4.4,6.9c2.6-0.5,5.1-1.6,7.4-3.4c2.4-1.8,4.4-4.1,6.3-6.8
			l0.3,0.1c-2,3-4.2,5.4-6.7,7.2c-2.5,1.8-5,2.9-7.6,3.3c-1.1,1.4-2.1,2.9-3.2,4.4s-2.3,2.8-3.6,4c-1.3,1.2-2.8,2.1-4.3,2.9
			c-1.6,0.7-3.4,1.1-5.3,1.1c-0.9,0-1.7-0.1-2.6-0.3c-0.8-0.2-1.5-0.6-2.1-1s-1.1-0.9-1.4-1.5c-0.4-0.6-0.5-1.2-0.5-1.8
			c0-1.4,0.5-2.4,1.4-3.1s2.1-1,3.4-1v0.1c-1,0.2-1.7,0.7-2.2,1.3c-0.5,0.7-0.7,1.5-0.7,2.5c0,0.7,0.1,1.3,0.4,1.8s0.6,1,1.1,1.3
			c0.4,0.4,0.9,0.6,1.5,0.8c0.6,0.2,1.1,0.3,1.7,0.3c1.3,0,2.5-0.3,3.7-0.9s2.3-1.4,3.4-2.4s2.2-2.1,3.2-3.3c1-1.2,2-2.5,2.9-3.8
			s1.7-2.6,2.5-3.9s1.5-2.4,2.1-3.4l-0.1-0.1c-0.4,0.5-1,1.1-1.6,1.8c-0.6,0.7-1.3,1.4-2.1,2c-0.7,0.6-1.5,1.2-2.4,1.6
			c-0.8,0.4-1.7,0.7-2.6,0.7s-1.5-0.2-1.9-0.5c-0.4-0.4-0.6-0.8-0.6-1.4c0-0.5,0.1-1.1,0.4-1.7s0.7-1.4,1.4-2.3
			c0.6-0.9,1.4-2.1,2.4-3.4s2.1-3,3.5-5L297.3,256.4L297.3,256.4z"/>
		<path style="fill:#FFFFFF;" d="M296.7,281.7c3.2-1.6,6.2-3.7,9-6.3c2.8-2.6,5.3-5.5,7.6-8.7c1.2-1.7,2.3-3.6,3.3-5.5
			c1-2,1.9-4,2.7-6.1c0.7-2.1,1.3-4.2,1.8-6.4c0.4-2.2,0.6-4.4,0.6-6.7h0.5c0,3.1-0.2,5.8-0.5,8.2s-0.8,4.5-1.4,6.5
			s-1.4,3.9-2.4,5.7c-1,1.8-2.1,3.7-3.4,5.7c-2,3-4.6,5.7-7.6,8s-6.4,4.3-10.1,5.9v-0.3H296.7z"/>
	</g>
</g>
</svg>
