<?xml version="1.0" encoding="utf-8"?>
<!-- Generator: Adobe Illustrator 18.0.0, SVG Export Plug-In . SVG Version: 6.00 Build 0)  -->
<!DOCTYPE svg PUBLIC "-//W3C//DTD SVG 1.1//EN" "http://www.w3.org/Graphics/SVG/1.1/DTD/svg11.dtd">
<svg version="1.1" id="Layer_1" xmlns="http://www.w3.org/2000/svg" xmlns:xlink="http://www.w3.org/1999/xlink" x="0px" y="0px"
	 viewBox="0 0 512 512" style="enable-background:new 0 0 512 512;" xml:space="preserve">
<path style="fill:#EFEDED;" d="M469.6,398.1l-286,104c-2.6,1-5.4-0.4-6.4-3L39.3,120.3c-1-2.6,0.4-5.4,3-6.4L328.3,10
	c2.6-1,5.4,0.4,6.4,3l137.9,378.8C473.6,394.2,472.2,397.1,469.6,398.1z"/>
<path style="fill:#E2E2E2;" d="M441.7,433L142,485.8c-2.7,0.5-5.3-1.3-5.8-4.1l-70-397c-0.5-2.7,1.3-5.3,4.1-5.8L370,26.2
	c2.7-0.5,5.3,1.3,5.8,4.1l70,397C446.3,429.9,444.4,432.5,441.7,433z"/>
<linearGradient id="SVGID_1_" gradientUnits="userSpaceOnUse" x1="98.8" y1="256" x2="413.1031" y2="256" gradientTransform="matrix(1 0 0 -1 0 512)">
	<stop  offset="0" style="stop-color:#4CD964"/>
	<stop  offset="1" style="stop-color:#4CD964"/>
</linearGradient>
<path style="fill:url(#SVGID_1_);" d="M408.2,462.6H103.8c-2.8,0-5-2.2-5-5V54.4c0-2.8,2.2-5,5-5h304.3c2.8,0,5,2.2,5,5v403.1
	C413.2,460.3,410.9,462.6,408.2,462.6z"/>
<g style="opacity:0.2;">
	<path style="fill:#FFFFFF;" d="M413.1,54.4c0-2.8-2.2-5-5-5H294.3l118.8,118.8L413.1,54.4L413.1,54.4z"/>
</g>
<path id="path260_1_" style="fill:#FFFFFF;" d="M179.3,211.6C179.3,211.6,179.3,211.7,179.3,211.6L179.3,211.6
	c-9.3,16.2-13.4,34.2-11.9,52.1l0,0c1.6,17.9,8.7,35,20.7,49.3l0,0c16.9,20.1,41.7,31.7,68,31.7l0,0c20.8,0,41-7.4,57-20.7l0,0l0,0
	l0,0c16.6-14,26.6-31.2,30.3-52.6l0,0l0,0l0,0c3.6-20.7,0-42-10.4-59.9l0,0c-10.3-17.9-26.9-31.7-46.7-38.9l0,0l0,0l0,0
	c-10.1-3.7-19.5-5.3-30.3-5.3l0,0l0,0l0,0C223.6,167.3,195.6,183.4,179.3,211.6 M262.3,179.8c4.9,0.4,9.4,1.2,14.1,2.5l0,0
	l-14.1,38.8V179.8z M248.7,244.6l-55.5-32c13.2-19.4,33.4-31,56.8-32.8l0,0v65.5L248.7,244.6L248.7,244.6z M264.4,251.2l17-46.8
	l6.5-17.9c14.5,6.6,26.6,17.5,34.5,31.2l0,0c7.9,13.6,11.3,29.6,9.7,45.5l0,0L264.4,251.2z M197.6,305.1
	c-19.9-23.7-23.7-54.6-10.5-81.9l0,0l65,37.6l48.3,57.5c-12.9,9.1-28.4,14.1-44.2,14.1l0,0C233.5,332.4,212.2,322.5,197.6,305.1
	 M271.7,265l5,0.9l53.4,9.4c-3.4,13.7-10.1,25.3-20.3,35.1l0,0L271.7,265z"/>
</svg>
