<?xml version="1.0" encoding="utf-8"?>
<!-- Generator: Adobe Illustrator 22.0.1, SVG Export Plug-In . SVG Version: 6.00 Build 0)  -->
<svg version="1.1" id="Layer_1" xmlns="http://www.w3.org/2000/svg" xmlns:xlink="http://www.w3.org/1999/xlink" x="0px" y="0px"
	 viewBox="0 0 512 512" style="enable-background:new 0 0 512 512;" xml:space="preserve">
<path style="fill:#E2E2E2;" d="M370.061,485.894L70.286,433.036c-2.757-0.486-4.542-3.035-4.056-5.792L136.245,30.17
	c0.486-2.757,3.035-4.542,5.792-4.056l299.677,52.841c2.757,0.486,4.542,3.035,4.056,5.792l-69.998,396.976
	C375.385,484.497,372.72,486.363,370.061,485.894z"/>
<path style="fill:#EFEFEF;" d="M408.2,462.6H103.8c-2.8,0-5-2.2-5-5V54.4c0-2.8,2.2-5,5-5h304.3c2.8,0,5,2.2,5,5v403.1
	C413.2,460.3,410.9,462.6,408.2,462.6z"/>
<path style="fill:#F77A26;" d="M441.7,433L142,485.8c-2.7,0.5-5.3-1.3-5.8-4.1l-70-397c-0.5-2.7,1.3-5.3,4.1-5.8L370,26.2
	c2.7-0.5,5.3,1.3,5.8,4.1l70,397C446.3,429.9,444.4,432.5,441.7,433z"/>
<circle style="fill:#F89959;" cx="256" cy="256" r="230"/>
<g>
	<g id="Layer_2_copy">
		<g>
			<path style="fill:#FFFFFF;" d="M361.271,379.3c-9.98,0-18.028-8.048-18.028-18.028c0-106.077-86.278-192.515-192.515-192.515
				c-9.98,0-18.028-8.048-18.028-18.028s8.048-18.028,18.028-18.028c126.036,0,228.572,102.535,228.572,228.572
				C379.46,371.252,371.251,379.3,361.271,379.3z"/>
			<path style="fill:#FFFFFF;" d="M301.552,379.3c-9.98,0-18.028-8.048-18.028-18.028c0-73.24-59.557-132.636-132.636-132.636
				c-9.98,0-18.028-8.048-18.028-18.028s8.048-18.028,18.028-18.028c93.038,0,168.853,75.654,168.853,168.853
				C319.58,371.252,311.532,379.3,301.552,379.3z"/>
			<path style="fill:#FFFFFF;" d="M242.639,379.3c-9.98,0-18.028-8.048-18.028-18.028c0-40.563-32.998-73.722-73.722-73.722
				c-9.98,0-18.028-8.048-18.028-18.028s8.048-18.028,18.028-18.028c60.523,0,109.779,49.256,109.779,109.779
				C260.667,371.252,252.619,379.3,242.639,379.3z"/>
			<circle style="fill:#FFFFFF;" cx="163.604" cy="348.555" r="30.745"/>
		</g>
	</g>
</g>
</svg>
