<?xml version="1.0" encoding="utf-8"?>
<!-- Generator: Adobe Illustrator 18.0.0, SVG Export Plug-In . SVG Version: 6.00 Build 0)  -->
<!DOCTYPE svg PUBLIC "-//W3C//DTD SVG 1.1//EN" "http://www.w3.org/Graphics/SVG/1.1/DTD/svg11.dtd">
<svg version="1.1" id="Layer_1" xmlns="http://www.w3.org/2000/svg" xmlns:xlink="http://www.w3.org/1999/xlink" x="0px" y="0px"
	 viewBox="0 0 512 512" style="enable-background:new 0 0 512 512;" xml:space="preserve">
<style type="text/css">
	.st0{fill:#E8E8E8;}
	.st1{fill:#14CAFF;}
	.st2{opacity:0.3;}
	.st3{fill:#FFFFFF;}
</style>
<g>
	<path class="st0" d="M405.3,465.4H100.9c-2.8,0-5-2.2-5-5V57.2c0-2.8,2.2-5,5-5h304.3c2.8,0,5,2.2,5,5v403.1
		C410.3,463.1,408,465.4,405.3,465.4z"/>
	<path class="st1" d="M441.7,433L142,485.8c-2.7,0.5-5.3-1.3-5.8-4.1l-70-397c-0.5-2.7,1.3-5.3,4.1-5.8L370,26.2
		c2.7-0.5,5.3,1.3,5.8,4.1l70,397C446.3,429.9,444.4,432.5,441.7,433z"/>
</g>
<g class="st2">
	<g>
		<path class="st3" d="M347.5,185.5H224.4v-22.1h123.1V185.5z"/>
		<path class="st3" d="M347.5,226.3h-183v-22.1h183V226.3z"/>
		<path class="st3" d="M347.5,267.1h-183V245h183V267.1z"/>
		<path class="st3" d="M347.5,307.8h-183v-22.1h183V307.8z"/>
		<path class="st3" d="M282.4,348.6H164.5v-22.1h117.9V348.6z"/>
	</g>
</g>
<polygon class="st3" points="344.2,212.35 318.5,186.55 235.1,269.75 189.6,224.15 163.8,250.05 209.4,295.55 209.4,295.55 
	235.1,321.45 235.1,321.45 235.1,321.45 260.9,295.55 260.9,295.55 "/>
</svg>
