<?xml version="1.0" encoding="utf-8"?>
<!-- Generator: Adobe Illustrator 18.0.0, SVG Export Plug-In . SVG Version: 6.00 Build 0)  -->
<!DOCTYPE svg PUBLIC "-//W3C//DTD SVG 1.1//EN" "http://www.w3.org/Graphics/SVG/1.1/DTD/svg11.dtd">
<svg version="1.1" id="Layer_1" xmlns="http://www.w3.org/2000/svg" xmlns:xlink="http://www.w3.org/1999/xlink" x="0px" y="0px"
	 viewBox="0 0 512 512" enable-background="new 0 0 512 512" xml:space="preserve">
<g>
	
		<radialGradient id="SVGID_1_" cx="256" cy="256" r="230" gradientTransform="matrix(1 0 0 -1 0 512)" gradientUnits="userSpaceOnUse">
		<stop  offset="0" style="stop-color:#FFFFFF"/>
		<stop  offset="0.4861" style="stop-color:#FFFCFD"/>
		<stop  offset="0.797" style="stop-color:#FFF4F8"/>
		<stop  offset="1" style="stop-color:#FFE9F2"/>
	</radialGradient>
	<circle fill="url(#SVGID_1_)" cx="256" cy="256" r="230"/>
	<g>
		<path fill="#FF64F8" d="M325.5,140.5c-38,23-59,60-68,103c-0.6,2.4-0.8,5.2-0.9,8c0.2-0.2,0.5-0.3,0.7-0.5
			c0.1-0.1,0.1-0.3,0.2-0.4c1-1,2-3,3-4c18-44,64-72,111-72c3,0,14-2,16-2c23-5,41-13,60-27c2.6-1.9,4.9-3.7,7.1-5.6
			c-12.6-21.6-28.7-41-47.5-57.3c-5,7.8-10.9,15.2-17.6,21.9C370.5,121.5,347.5,127.5,325.5,140.5z"/>
		<path fill="#FF64F8" d="M186.5,371.5c39.5-25,64.1-65.8,68.6-110.7c-0.1,0.1-0.2,0.1-0.3,0.2c-0.1,0.2-0.1,0.4-0.2,0.6
			c-1,1-2,3-3,4c-2,3-2,7-4,10c-6,10-13,19-21,28c-8,8-17,14-27,20c-23,13-49,12-75,17c-5,0-10,2-15,3c-19.4,5.5-36.8,15.9-52,28.7
			c12.6,21.5,28.6,40.8,47.2,57.1c5-7.9,10.9-14.8,17.8-21.7C141.5,390.5,164.5,384.5,186.5,371.5z"/>
		<path fill="#FF64F8" d="M271.5,403.5c5-13,9-25,13-38c8.9-38.7-1.8-77.3-23.4-108.2c0,0-0.1,0-0.1-0.1c2.6,4.7,2.7,9.5,4.6,14.2
			c2,6,2,13,3,20c1,8,0,16-1,24c-4,30-25,50-42,74c-19.2,28-25.3,59.8-21.2,90.7c15.7,3.6,31.9,5.6,48.7,5.8c2,0,4,0,6,0
			c6.8-0.1,13.5-0.5,20.2-1.1C266.2,460,262.3,430.5,271.5,403.5z"/>
		<path fill="#FF64F8" d="M240.5,108.5c-7,20-14,39-16,60c-1,7,0,14.8,1,22c1.1,7.9,3,15,5,23s5,15,9,22c3.7,6.5,7.5,12.2,11.2,18.6
			c0.1,0.1,0.2,0.1,0.3,0.2c-13.4-31.7-10.2-67.2,9.5-96.8c8-13,18-22,27-35c18.4-28,24.4-59.8,20.2-90.7c-15.7-3.6-32-5.6-48.7-5.8
			c-2,0-4,0-6,0c-6.8,0.1-13.6,0.5-20.3,1.1C245.8,51.7,249.8,81.4,240.5,108.5z"/>
		<path fill="#FF64F8" d="M371.5,325.5c-25-39.4-65.8-64.1-110.7-68.5c0.1,0.1,0.2,0.2,0.3,0.4c0.1,0.1,0.3,0.1,0.4,0.2c1,1,3,2,4,3
			c3,2,7,2,10,4c10,6,19,13,28,21c8,8,14,17,20,27c13,23,12,49,17,75c0,5,2,10,3,15c5.5,19.4,15.9,36.8,28.7,52
			c21.5-12.6,40.8-28.6,57.1-47.2c-7.9-5-14.8-10.9-21.7-17.8C390.5,370.5,384.5,347.5,371.5,325.5z"/>
		<path fill="#FF64F8" d="M140.5,186.5c26,41,70,65,116,70c-2.1-0.5-3.8-1.3-5.5-2.2c0.2,0.4,0.3,0.8,0.5,1.2
			c-0.3-0.5-0.5-0.9-0.8-1.4c-1.5-0.8-2.8-1.7-4.2-2.6c-44-18-72-64-72-111c0-3-2-14-2-16c-5-23-13-41-27-60
			c-1.9-2.6-3.7-4.9-5.6-7.1C118.3,70,99,86.1,82.6,104.9c7.8,5,15.2,10.9,21.9,17.6C121.5,141.5,127.5,164.5,140.5,186.5z"/>
		<path fill="#FF64F8" d="M403.5,240.5c-13-5-25-9-38-13c-38.7-8.9-77.3,1.8-108.2,23.4c0,0,0,0.1-0.1,0.1c4.8-2.6,9.5-2.7,14.3-4.6
			c6-2,13-2,20-3c8-1,16,0,24,1c30,4,50,25,74,42c27.6,19.4,59.6,25.4,90.7,21c3.6-15.6,5.5-31.8,5.8-48.5c0-2,0-4,0-6
			c-0.1-6.8-0.4-13.4-1.1-20C460.3,246.3,430.6,249.8,403.5,240.5z"/>
		<path fill="#FF64F8" d="M108.5,271.5c20,7,39,14,60,16c7,1,15,0,22-1c7.9-1.1,15-3,23-5s15-5,22-9c6.7-3.9,12.6-7.7,19.2-11.6
			c0-0.1,0-0.1,0.1-0.2c-31.8,13.7-67.5,10.6-97.3-9.3c-13-8-22-18-35-27c-27.6-17.9-59.6-24.1-90.7-19.9
			c-3.6,15.6-5.5,31.8-5.7,48.5c0,2,0,4,0,6c0.1,6.8,0.5,13.6,1.1,20.3C51.7,266.2,81.4,262.2,108.5,271.5z"/>
	</g>
	<path opacity="0.35" fill="#FFFFFF" enable-background="new    " d="M467.8,322.8c7.7-23.9,10.9-50.3,9.6-77.1
		c-0.6-13.5-2.4-27.2-5.5-40.9s-7.5-27.3-13.6-40.6c-12-26.5-30.3-51.4-54.4-70.8c-12-9.7-25.4-18-39.7-24.6
		c-14.3-6.6-29.6-11.4-45.3-14.5c-15.7-3.1-31.9-4.2-48-3.7c-4,0.1-8.1,0.4-12.1,0.7c-2,0.1-4,0.4-6,0.6l-1.7,0.2l-1.4,0.2l-2.8,0.4
		c-2.1,0.3-4.3,0.6-6.3,1s-4.1,0.7-6.1,1.2c-4.1,0.8-8.1,1.8-12.1,3C190,66.7,160,85,136.9,110c-11.6,12.5-21.5,26.6-29.4,41.9
		c-7.8,15.3-13.5,31.8-16.8,48.8c-3.3,17-4.2,34.5-2.7,51.7c0.1,1.1,0.2,2.2,0.3,3.2l0.2,1.6l0.1,0.8c0,0.1,0.1,0.8,0.1,1l0.4,3
		l0.5,3.4c0.7,4.4,1.6,8.7,2.7,13c2.2,8.6,5.2,16.9,8.9,25c7.4,16.1,17.6,30.9,30.1,43.4c12.4,12.6,27,22.9,42.9,30.5
		s33.2,12.3,50.6,13.9c8.7,0.8,17.5,0.8,26.2,0.1c2.2-0.2,4.3-0.4,6.5-0.7l3.1-0.4l3.5-0.6c4.4-0.8,8.7-1.8,13-3
		c8.5-2.5,16.8-5.9,24.6-10.1c7.8-4.2,15-9.3,21.7-15.1c13.3-11.5,24-25.8,31.3-41.6c7.3-15.7,11.2-33,11.3-50
		c0-4.3-0.1-8.5-0.5-12.8c-0.1-1.1-0.2-2.1-0.3-3.2l-0.1-0.8c0,0-0.1-0.9-0.1-1.1l-0.2-1.4l-0.4-2.8l-0.7-3.4l-0.4-1.7
		c-0.1-0.6-0.3-1.1-0.4-1.6l-0.8-3.1c-0.3-1-0.6-2.1-1-3.1c-0.3-1-0.6-2.1-1-3.1c-0.7-2-1.5-4.1-2.4-6c-0.8-2-1.8-3.9-2.7-5.9
		c-3.9-7.7-8.8-14.8-14.4-21.2c-1.5-1.5-2.8-3.2-4.4-4.6l-2.3-2.2l-2.4-2.1c-0.8-0.7-1.6-1.4-2.4-2.1l-2.5-2l-2.5-1.9
		c-0.8-0.6-1.7-1.2-2.6-1.8l-2.6-1.7l-2.7-1.6c-1.8-1.1-3.7-2-5.5-3c-3.8-1.8-7.6-3.5-11.5-4.9s-7.9-2.5-11.9-3.5
		c-4-0.8-8.1-1.6-12.2-1.9c-4.1-0.4-8.2-0.5-12.3-0.4c-2,0.1-4.1,0.2-6.1,0.4l-3,0.3l-0.8,0.1c-0.2,0-1,0.1-1,0.1l-1.3,0.2
		c-1.6,0.2-4,0.7-6.1,1.2c-2,0.5-4,1-6,1.7c-2,0.6-3.9,1.4-5.8,2.1c-1.9,0.8-3.8,1.6-5.6,2.5c-14.8,7.3-26.9,19-34.7,32.8
		c-7.9,13.8-11.4,29.7-10.4,45c0,1,0.1,1.9,0.2,2.9l0.3,3.1l0.4,2.5c0,0.2,0.1,0.4,0.1,0.7l0.2,0.8l0.3,1.5c0.2,1.1,0.5,1.9,0.7,2.9
		c0.2,0.9,0.5,1.9,0.8,2.8s0.6,1.9,1,2.8c0.3,0.9,0.7,1.8,1.1,2.7c3,7.2,7.3,13.7,12.5,19.2c5.2,5.6,11.2,10.2,17.8,13.6
		s13.7,5.7,20.9,6.7c7.2,1.1,14.5,0.8,21.3-0.5c0.9-0.2,2-0.4,2.8-0.6c0.9-0.2,1.8-0.4,2.6-0.7c1.7-0.5,3.4-1.2,5.1-1.9
		c3.3-1.4,6.5-3.2,9.4-5.2c11.8-8.1,19.6-20.7,22-34c1.2-6.6,1.2-13.4-0.1-19.8l-0.3-1.3l-0.3-1.2c-0.2-0.8-0.5-1.6-0.7-2.4
		c-0.5-1.6-1.2-3.1-1.9-4.6c-1.4-3-3.2-5.8-5.2-8.4c-4.1-5.1-9.3-9.2-14.9-11.9c-5.7-2.7-11.9-4.2-18-4.2c-1.5,0-3,0.1-4.5,0.2
		l-1.1,0.1l-0.6,0.1c-0.5,0.1-0.4,0.1-0.6,0.1l-0.9,0.2l-1.2,0.2c-0.9,0.2-1.6,0.4-2.3,0.6c-0.7,0.2-1.5,0.5-2.2,0.7
		c-1.4,0.5-2.8,1.2-4.2,1.9c-5.4,2.8-9.9,7-13,12c-3.2,4.9-4.9,10.5-5.3,16.1c-0.2,2.8,0,5.6,0.4,8.2c0.1,0.6,0.3,1.5,0.5,2.1
		c0.2,0.7,0.4,1.4,0.6,2c0.5,1.3,1,2.6,1.6,3.8c2.6,4.9,6.5,8.9,11.1,11.4c4.6,2.6,9.8,3.7,14.8,3.4c0.6,0,1.2-0.1,1.9-0.2l0.5-0.1
		c0.4,0,0.3-0.1,0.5-0.1c0.3-0.1,0.5-0.1,0.8-0.2l1-0.2l0.9-0.3c0.6-0.2,1.2-0.4,1.8-0.6c2.4-0.9,4.5-2.2,6.4-3.8
		c3.7-3.2,6.3-7.5,7.3-12c0.5-2.3,0.6-4.6,0.4-6.8l-0.1-0.8l-0.1-0.5l-0.1-0.3l-0.1-0.3l-0.1-0.5c-0.1-0.3-0.1-0.6-0.2-0.9
		c-0.3-1.1-0.7-2.2-1.2-3.2c-2-4.1-5.4-7.1-9.3-8.7c-1.9-0.8-4-1.2-6-1.3c-1,0-2,0-3,0.2c-0.3,0-0.3,0-0.4,0.1l-0.3,0.1l-0.8,0.2
		c-0.5,0.1-1,0.3-1.5,0.4c-3.8,1.4-6.8,4.4-8.2,7.8c-1.5,3.4-1.5,7.3-0.1,10.6c1.4,3.3,4.4,5.5,7.5,6.3s6.5,0.2,8.9-1.8
		c2.3-1.9,3.5-4.9,3.2-7.6c-0.1-1.3-0.6-2.7-1.3-3.7c-0.8-1.1-1.8-1.9-2.9-2.4s-2.3-0.7-3.5-0.6c-0.6,0-1.1,0.2-1.7,0.4
		c-0.5,0.2-1,0.5-1.5,0.8c-1.7,1.4-2.4,3.6-2,5.4c0.4,1.9,2,3.2,3.6,3.5c0.4,0.1,0.8,0.1,1.2,0h0.1c0,0,0.1,0,0.2,0l0.3-0.1
		c0.2-0.1,0.4-0.1,0.6-0.2c0.7-0.3,1.2-0.8,1.6-1.4c0.7-1.2,0.6-2.5,0-3.4s-1.6-1.2-2.3-1.1c-0.8,0-1.3,0.5-1.6,0.9
		c-0.5,0.9-0.3,1.5-0.3,1.4c0,0-0.2-0.6,0.4-1.4c0.3-0.4,0.8-0.7,1.5-0.7s1.5,0.4,2,1.1c0.4,0.7,0.4,1.9-0.2,2.8
		c-0.6,0.9-1.8,1.4-3.1,1c-1.2-0.3-2.3-1.4-2.5-2.7c-0.2-1.4,0.4-3,1.7-3.9c0.3-0.2,0.7-0.4,1-0.5s0.8-0.2,1.2-0.2
		c0.8,0,1.7,0.2,2.4,0.6c1.5,0.8,2.6,2.5,2.6,4.4s-0.9,3.9-2.6,5c-0.4,0.3-0.9,0.5-1.3,0.7c-0.2,0.1-0.5,0.2-0.7,0.2
		c-0.1,0-0.2,0.1-0.3,0.1l-0.5,0.1c-1,0.1-2.2,0-3.2-0.3c-2.1-0.7-3.9-2.4-4.7-4.5s-0.6-4.8,0.6-7c1.1-2.2,3.2-4,5.6-4.7
		c0.3-0.1,0.6-0.2,0.9-0.2l0.4-0.1h0.3c0.1,0,0.3,0,0.2,0c0.7-0.1,1.4,0,2.1,0c1.4,0.1,2.7,0.5,4,1.1c2.5,1.2,4.6,3.4,5.7,6
		c0.3,0.7,0.5,1.3,0.6,2c0,0.2,0.1,0.3,0.1,0.5v0.2v0.3v0.3c0-0.1,0,0.1,0,0.2v0.6c0,1.5-0.1,3.1-0.6,4.6c-0.8,3-2.7,5.7-5.2,7.6
		c-1.3,1-2.7,1.7-4.2,2.2c-0.4,0.1-0.8,0.2-1.2,0.3l-0.6,0.1l-0.5,0.1c-0.2,0-0.5,0.1-0.7,0.1c-0.1,0-0.4,0-0.3,0h-0.3
		c-0.4,0-0.9,0-1.3,0c-3.4,0-6.9-1-9.8-2.8c-3-1.9-5.4-4.6-6.9-7.9c-0.4-0.8-0.7-1.6-0.9-2.5c-0.1-0.4-0.2-0.9-0.3-1.3
		c-0.1-0.2-0.1-0.4-0.1-0.6c0-0.2-0.1-0.3-0.1-0.7c-0.2-2-0.3-3.8,0-5.8c0.5-3.8,1.9-7.5,4.2-10.7s5.4-5.8,9-7.5
		c0.9-0.4,1.8-0.8,2.8-1.1c0.5-0.2,1-0.3,1.4-0.4c0.5-0.1,1-0.2,1.4-0.3c0.2,0,0.4-0.1,0.7-0.1l1-0.1c0.1,0,0.5-0.1,0.3,0h0.4
		l0.8-0.1c1.1-0.1,2.1,0,3.2,0c4.2,0.2,8.4,1.4,12.2,3.5c3.8,2.1,7.2,5,9.7,8.5c1.3,1.8,2.4,3.7,3.2,5.7c0.4,1,0.8,2.1,1.1,3.1
		c0.1,0.5,0.3,1.1,0.4,1.6l0.2,0.8l0.1,0.7c0.8,4.6,0.6,9.4-0.5,14c-2.1,9.2-7.9,17.7-16.2,22.9c-2,1.3-4.2,2.4-6.5,3.2
		c-1.1,0.4-2.3,0.8-3.5,1.1c-0.6,0.2-1.2,0.3-1.8,0.4c-0.6,0.2-1.1,0.2-1.6,0.3l-0.4,0.1l-0.6,0.1l-1.1,0.1c-0.1,0-0.6,0.1-0.3,0
		h-0.5l-1,0.1c-0.6,0.1-1.3,0.1-1.9,0.1c-0.6,0-1.3,0.1-1.9,0c-2.6,0-5.2-0.3-7.7-0.7c-5.1-0.9-10.1-2.7-14.7-5.3
		c-4.6-2.6-8.8-6-12.2-10c-3.5-4-6.3-8.6-8.2-13.7c-0.3-0.6-0.5-1.3-0.7-1.9s-0.4-1.3-0.6-1.9c-0.2-0.6-0.4-1.3-0.5-1.9
		s-0.3-1.4-0.4-1.9l-0.2-0.9l-0.1-0.4c0-0.1-0.1-0.3-0.1-0.5l-0.3-2.5c0,0.3,0-0.2,0-0.3v-0.5l-0.1-1.1c-0.1-0.7-0.1-1.4-0.1-2.1
		c-0.4-11.3,2.5-22.8,8.5-32.7s15-18,25.6-22.9c1.3-0.6,2.7-1.2,4-1.7c1.4-0.5,2.8-1,4.2-1.4s2.9-0.7,4.3-1.1
		c1.3-0.2,2.4-0.5,4.4-0.7l1.3-0.2c0.5-0.1,0.1,0,0.3,0h0.6l2.3-0.2c1.5-0.1,3.1-0.1,4.6-0.2c3.1,0,6.2,0.1,9.3,0.5
		c3.1,0.3,6.1,1,9.1,1.6c3,0.8,6,1.7,8.9,2.8c5.8,2.2,11.4,5.2,16.5,8.8c0.7,0.4,1.3,0.9,1.9,1.4l1.9,1.4l1.8,1.5
		c0.6,0.5,1.2,1,1.8,1.6l1.7,1.6l1.7,1.7c1.1,1.1,2.1,2.3,3.2,3.5c4.1,4.8,7.6,10.2,10.4,15.9c0.7,1.4,1.4,2.9,1.9,4.4
		c0.6,1.5,1.1,3,1.7,4.5c0.3,0.7,0.5,1.5,0.7,2.3s0.5,1.5,0.7,2.3l0.6,2.3c0.1,0.4,0.2,0.8,0.3,1.2l0.2,1.1l0.4,2.1l0.4,2.8l0.2,1.4
		c0,0.3,0-0.2,0,0.3l0.1,0.6c0.1,0.8,0.2,1.7,0.2,2.5c0.2,3.3,0.3,6.6,0.2,10c-0.3,13.3-3.5,26.6-9.3,38.7s-14.3,23.1-24.6,31.8
		c-10.4,8.7-22.6,15.3-35.7,19c-3.3,0.9-6.6,1.7-10,2.2l-2.4,0.4l-2.7,0.4c-1.8,0.2-3.5,0.4-5.3,0.5c-7,0.5-14.1,0.4-21.1-0.3
		c-14.1-1.4-27.9-5.3-40.6-11.5c-12.8-6.1-24.5-14.5-34.5-24.6s-18.2-22-24-34.9c-2.9-6.5-5.3-13.2-7.1-20.1
		c-0.9-3.4-1.6-7-2.2-10.4l-0.4-2.5l-0.4-3l-0.3-2.6c-0.1-0.9-0.2-1.8-0.3-2.7c-1.3-14.5-0.6-29.2,2.1-43.4c2.7-14.2,7.5-28.1,14-41
		s14.8-24.9,24.5-35.5s20.8-19.9,32.9-27.4c6-3.8,12.3-7.1,18.8-10c3.2-1.5,6.5-2.8,9.8-4s6.7-2.4,10.1-3.3c3.4-1,6.8-1.9,10.2-2.6
		c1.7-0.4,3.4-0.7,5.2-1.1s3.3-0.6,5-0.9l2.8-0.4l1.4-0.2l1.2-0.1c1.8-0.2,3.6-0.4,5.3-0.6c3.6-0.3,7.1-0.6,10.7-0.8
		c14.2-0.7,28.3,0.2,42.1,2.6c13.7,2.4,27,6.3,39.5,11.8s24.2,12.4,34.8,20.6c21.3,16.3,37.8,37.5,49.1,60.7
		c5.6,11.6,10,23.7,13.2,35.9c3.2,12.2,5.1,24.7,6.1,36.9l0.2,2.4l0.1,1.1l0.1,1.2c0.1,1.5,0.2,3.1,0.2,4.6c0,1.5,0.1,3.1,0.1,4.6
		c0.1,1.5,0.1,3,0,4.6c0,6.1-0.3,12.1-0.7,18c-0.5,5.9-1.3,11.8-2.3,17.5s-2.3,11.3-3.8,16.8s-3.3,10.9-5.3,16.1s-4.2,10.3-6.6,15.2
		c-4.8,9.8-10.5,19-16.8,27.4c-12.5,16.9-27.1,30.9-42.2,42.4c-15.1,11.6-30.6,20.7-45.4,28.1c-14.8,7.5-29.1,13.2-42.1,17.8
		c-13.1,4.6-25,8.1-35.5,10.9s-19.5,4.8-26.8,6.2c-5.2,1.1-13.3-0.3-16.8,0.3c1.4,0.1,7.5,1.1,8.9,1.2c2.7-0.3,4.8,0.7,8.2,0.3
		c7.4-1,16.6-2.3,27.3-4.3c5.4-1,11.1-2.2,17.2-3.6s12.5-3.1,19.3-5c13.6-3.8,28.4-8.8,44.1-15.5c7.8-3.4,15.9-7.2,24-11.6
		c8.2-4.4,16.4-9.3,24.6-15c4.1-2.8,8.2-5.8,12.3-9c4-3.2,8.1-6.5,12.1-10.1s7.9-7.3,11.7-11.3c3.8-4,7.5-8.1,11.1-12.6
		C448,368,460.2,346.8,467.8,322.8z"/>
	<g>
		<path fill="#FF3EED" d="M200.6,336.7c-0.7,0-1.4-0.2-2-0.5c-1.2-0.7-2-2-2-3.5V179.3c0-1.4,0.8-2.8,2-3.5c0.6-0.4,1.3-0.5,2-0.5
			s1.4,0.2,2,0.5l132.8,76.7c1.2,0.7,2,2,2,3.5c0,1.4-0.8,2.8-2,3.5l-132.8,76.7C202,336.5,201.3,336.7,200.6,336.7z"/>
		<g>
			<path fill="#FFFFFF" d="M200.6,176.3c0.5,0,1,0.1,1.5,0.4l132.8,76.7c0.9,0.5,1.5,1.5,1.5,2.6s-0.6,2.1-1.5,2.6l-132.8,76.7
				c-0.5,0.3-1,0.4-1.5,0.4s-1-0.1-1.5-0.4c-0.9-0.5-1.5-1.5-1.5-2.6V179.3c0-1.1,0.6-2.1,1.5-2.6
				C199.5,176.5,200.1,176.3,200.6,176.3 M200.6,174.3c-0.9,0-1.7,0.2-2.5,0.7c-1.5,0.9-2.5,2.5-2.5,4.3v153.4c0,1.8,1,3.4,2.5,4.3
				c0.8,0.4,1.6,0.7,2.5,0.7s1.7-0.2,2.5-0.7l132.8-76.7c1.5-0.9,2.5-2.5,2.5-4.3s-1-3.4-2.5-4.3L203.1,175
				C202.3,174.5,201.5,174.3,200.6,174.3L200.6,174.3z"/>
		</g>
	</g>
</g>
</svg>
