<?xml version="1.0" encoding="UTF-8" standalone="no"?>
<!-- Generator: Adobe Illustrator 18.0.0, SVG Export Plug-In . SVG Version: 6.00 Build 0)  -->

<svg
   xmlns:dc="http://purl.org/dc/elements/1.1/"
   xmlns:cc="http://creativecommons.org/ns#"
   xmlns:rdf="http://www.w3.org/1999/02/22-rdf-syntax-ns#"
   xmlns:svg="http://www.w3.org/2000/svg"
   xmlns="http://www.w3.org/2000/svg"
   xmlns:sodipodi="http://sodipodi.sourceforge.net/DTD/sodipodi-0.dtd"
   xmlns:inkscape="http://www.inkscape.org/namespaces/inkscape"
   version="1.1"
   id="Layer_2"
   x="0px"
   y="0px"
   viewBox="0 0 512 512"
   style="enable-background:new 0 0 512 512;"
   xml:space="preserve"
   sodipodi:docname="mailspring.svg"
   inkscape:version="0.92.3 (2405546, 2018-03-11)"><metadata
   id="metadata179"><rdf:RDF><cc:Work
       rdf:about=""><dc:format>image/svg+xml</dc:format><dc:type
         rdf:resource="http://purl.org/dc/dcmitype/StillImage" /><dc:title /></cc:Work></rdf:RDF></metadata><defs
   id="defs177"><filter
     style="color-interpolation-filters:sRGB;"
     inkscape:label="Drop Shadow"
     id="filter4523"><feFlood
       flood-opacity="0.498039"
       flood-color="rgb(0,0,0)"
       result="flood"
       id="feFlood4513" /><feComposite
       in="flood"
       in2="SourceGraphic"
       operator="in"
       result="composite1"
       id="feComposite4515" /><feGaussianBlur
       in="composite1"
       stdDeviation="3.27869"
       result="blur"
       id="feGaussianBlur4517" /><feOffset
       dx="0"
       dy="0.3"
       result="offset"
       id="feOffset4519" /><feComposite
       in="SourceGraphic"
       in2="offset"
       operator="over"
       result="fbSourceGraphic"
       id="feComposite4521" /><feColorMatrix
       result="fbSourceGraphicAlpha"
       in="fbSourceGraphic"
       values="0 0 0 -1 0 0 0 0 -1 0 0 0 0 -1 0 0 0 0 1 0"
       id="feColorMatrix4525" /><feFlood
       id="feFlood4527"
       flood-opacity="0.498039"
       flood-color="rgb(0,0,0)"
       result="flood"
       in="fbSourceGraphic" /><feComposite
       in2="fbSourceGraphic"
       id="feComposite4529"
       in="flood"
       operator="in"
       result="composite1" /><feGaussianBlur
       id="feGaussianBlur4531"
       in="composite1"
       stdDeviation="3.3"
       result="blur" /><feOffset
       id="feOffset4533"
       dx="0"
       dy="0.3"
       result="offset" /><feComposite
       in2="offset"
       id="feComposite4535"
       in="fbSourceGraphic"
       operator="over"
       result="composite2" /></filter><filter
     style="color-interpolation-filters:sRGB;"
     inkscape:label="Drop Shadow"
     id="filter4547"><feFlood
       flood-opacity="0.498039"
       flood-color="rgb(0,0,0)"
       result="flood"
       id="feFlood4537" /><feComposite
       in="flood"
       in2="SourceGraphic"
       operator="in"
       result="composite1"
       id="feComposite4539" /><feGaussianBlur
       in="composite1"
       stdDeviation="3.3"
       result="blur"
       id="feGaussianBlur4541" /><feOffset
       dx="0"
       dy="0.3"
       result="offset"
       id="feOffset4543" /><feComposite
       in="SourceGraphic"
       in2="offset"
       operator="over"
       result="composite2"
       id="feComposite4545" /></filter><filter
     style="color-interpolation-filters:sRGB;"
     inkscape:label="Drop Shadow"
     id="filter4559"><feFlood
       flood-opacity="0.498039"
       flood-color="rgb(0,0,0)"
       result="flood"
       id="feFlood4549" /><feComposite
       in="flood"
       in2="SourceGraphic"
       operator="in"
       result="composite1"
       id="feComposite4551" /><feGaussianBlur
       in="composite1"
       stdDeviation="3.3"
       result="blur"
       id="feGaussianBlur4553" /><feOffset
       dx="0"
       dy="-0.3"
       result="offset"
       id="feOffset4555" /><feComposite
       in="SourceGraphic"
       in2="offset"
       operator="over"
       result="composite2"
       id="feComposite4557" /></filter><filter
     style="color-interpolation-filters:sRGB;"
     inkscape:label="Drop Shadow"
     id="filter4583"><feFlood
       flood-opacity="0.498039"
       flood-color="rgb(0,0,0)"
       result="flood"
       id="feFlood4573" /><feComposite
       in="flood"
       in2="SourceGraphic"
       operator="in"
       result="composite1"
       id="feComposite4575" /><feGaussianBlur
       in="composite1"
       stdDeviation="3.3"
       result="blur"
       id="feGaussianBlur4577" /><feOffset
       dx="0"
       dy="0.3"
       result="offset"
       id="feOffset4579" /><feComposite
       in="SourceGraphic"
       in2="offset"
       operator="over"
       result="composite2"
       id="feComposite4581" /></filter></defs><sodipodi:namedview
   pagecolor="#ffffff"
   bordercolor="#666666"
   borderopacity="1"
   objecttolerance="10"
   gridtolerance="10"
   guidetolerance="10"
   inkscape:pageopacity="0"
   inkscape:pageshadow="2"
   inkscape:window-width="1799"
   inkscape:window-height="773"
   id="namedview175"
   showgrid="false"
   inkscape:zoom="0.65186406"
   inkscape:cx="185.49153"
   inkscape:cy="322.16949"
   inkscape:window-x="53"
   inkscape:window-y="102"
   inkscape:window-maximized="0"
   inkscape:current-layer="Layer_2" />
<g
   id="g172"
   style="filter:url(#filter4583)">
	<g
   id="g170">
		
			<linearGradient
   id="SVGID_1_"
   gradientUnits="userSpaceOnUse"
   x1="41.684"
   y1="256"
   x2="325.825"
   y2="256"
   gradientTransform="matrix(1 0 0 -1 0 512)">
			<stop
   offset="0.0034"
   style="stop-color:#383838"
   id="stop2" />
			<stop
   offset="1"
   style="stop-color:#212121"
   id="stop4" />
		</linearGradient>
		<path
   style="fill:#f9f9f9;fill-opacity:1"
   d="M41.684,78.976v354.048c0,20.596,16.696,37.292,37.292,37.292h32.533L325.825,256    L111.509,41.684H78.976C58.38,41.684,41.684,58.38,41.684,78.976z"
   id="path7" />
		
			<linearGradient
   id="SVGID_2_"
   gradientUnits="userSpaceOnUse"
   x1="186.175"
   y1="256"
   x2="470.316"
   y2="256"
   gradientTransform="matrix(1 0 0 -1 0 512)">
			<stop
   offset="0"
   style="stop-color:#212121"
   id="stop9" />
			<stop
   offset="0.9966"
   style="stop-color:#383838"
   id="stop11" />
		</linearGradient>
		<path
   style="fill:#f9f9f9;fill-opacity:1"
   d="M400.491,470.316h32.533c20.596,0,37.292-16.696,37.292-37.292V78.976    c0-20.596-16.696-37.292-37.292-37.292h-32.533L186.175,256L400.491,470.316z"
   id="path14" />
		
			<linearGradient
   id="SVGID_3_"
   gradientUnits="userSpaceOnUse"
   x1="256"
   y1="41.684"
   x2="256"
   y2="325.825"
   gradientTransform="matrix(1 0 0 -1 0 512)">
			<stop
   offset="0.0034"
   style="stop-color:#383838"
   id="stop16" />
			<stop
   offset="1"
   style="stop-color:#212121"
   id="stop18" />
		</linearGradient>
		<path
   style="fill:#f2f2f2;fill-opacity:1;"
   d="M470.316,433.024v-32.533L256,186.175L41.684,400.491v32.533    c0,20.596,16.696,37.292,37.292,37.292h354.048C453.62,470.316,470.316,453.62,470.316,433.024z"
   id="path21" />
		
			<linearGradient
   id="SVGID_4_"
   gradientUnits="userSpaceOnUse"
   x1="256"
   y1="203.7275"
   x2="256"
   y2="470.316"
   gradientTransform="matrix(1,0,0,-1,0,512)">
			<stop
   offset="0"
   style="stop-color:#ffffff;stop-opacity:1"
   id="stop23" />
			<stop
   offset="0.9966"
   style="stop-color:#ececec;stop-opacity:1"
   id="stop25" />
		</linearGradient>
		<path
   id="path4585"
   d="m 78.976562,47.683594 c -20.596,0 -37.292968,16.696968 -37.292968,37.292968 V 117.50977 L 226.03516,301.85938 c 16.549,16.55 43.38068,16.55 59.92968,0 L 470.31641,117.50977 V 84.976562 c 0,-20.596 -16.69697,-37.292968 -37.29297,-37.292968 z"
   style="opacity:0.25;fill:#000000"
   inkscape:connector-curvature="0" /><path
   style="fill:url(#SVGID_4_);"
   d="M 78.976562 41.683594 C 58.380562 41.683594 41.683594 58.380562 41.683594 78.976562 L 41.683594 111.50977 L 226.03516 295.85938 C 242.58416 312.40938 269.41584 312.40938 285.96484 295.85938 L 470.31641 111.50977 L 470.31641 78.976562 C 470.31641 58.380562 453.61944 41.683594 433.02344 41.683594 L 78.976562 41.683594 z "
   id="path28" />
		<path
   style="display:none;fill:#2D2D2D;"
   d="M402.513,92.537c9.347,0,16.951,7.604,16.951,16.951v293.026    c0,9.347-7.604,16.951-16.951,16.951H109.488c-9.347,0-16.951-7.604-16.951-16.951V109.488c0-9.347,7.604-16.951,16.951-16.951    H402.513 M402.513,75.586H109.488c-18.724,0-33.902,15.178-33.902,33.902v293.026c0,18.724,15.178,33.902,33.902,33.902h293.026    c18.724,0,33.902-15.178,33.902-33.902V109.488C436.415,90.764,421.237,75.586,402.513,75.586L402.513,75.586z"
   id="path30" />
		<g
   id="g168">
			<line
   style="fill:none;"
   x1="193.512"
   y1="419.464"
   x2="216.646"
   y2="419.464"
   id="line32" />
			<line
   style="fill:none;"
   x1="419.464"
   y1="216.646"
   x2="419.464"
   y2="193.512"
   id="line34" />
			<line
   style="fill:none;"
   x1="92.537"
   y1="370.384"
   x2="92.537"
   y2="393.516"
   id="line36" />
			<line
   style="fill:none;"
   x1="393.516"
   y1="92.537"
   x2="370.384"
   y2="92.537"
   id="line38" />
			<line
   style="fill:none;"
   x1="419.464"
   y1="254.161"
   x2="419.464"
   y2="231.028"
   id="line40" />
			<polyline
   style="fill:none;"
   points="242.418,408.074 231.028,419.464 254.161,419.464    "
   id="polyline42" />
			<path
   style="fill:none;"
   d="M93.215,407.219c1.613,5.566,6,9.954,11.566,11.567"
   id="path44" />
			<path
   style="fill:none;"
   d="M418.786,104.781c-1.613-5.566-6.001-9.953-11.567-11.566"
   id="path46" />
			<line
   style="fill:none;"
   x1="155.999"
   y1="419.464"
   x2="179.131"
   y2="419.464"
   id="line48" />
			<line
   style="fill:none;"
   x1="419.464"
   y1="179.131"
   x2="419.464"
   y2="155.999"
   id="line50" />
			<line
   style="fill:none;"
   x1="419.464"
   y1="366.704"
   x2="419.464"
   y2="343.571"
   id="line52" />
			<line
   style="fill:none;"
   x1="343.571"
   y1="419.464"
   x2="366.704"
   y2="419.464"
   id="line54" />
			<path
   style="fill:none;"
   d="M381.085,419.464h21.428c0.609,0,1.21-0.036,1.803-0.099l15.049-15.049     c0.063-0.593,0.099-1.194,0.099-1.803v-21.428"
   id="path56" />
			<line
   style="fill:none;"
   x1="419.464"
   y1="329.189"
   x2="419.464"
   y2="306.057"
   id="line58" />
			<line
   style="fill:none;"
   x1="306.057"
   y1="419.464"
   x2="329.189"
   y2="419.464"
   id="line60" />
			<line
   style="fill:none;"
   x1="419.464"
   y1="291.675"
   x2="419.464"
   y2="268.543"
   id="line62" />
			<line
   style="fill:none;"
   x1="268.543"
   y1="419.464"
   x2="291.675"
   y2="419.464"
   id="line64" />
			<line
   style="fill:none;"
   x1="118.484"
   y1="419.464"
   x2="141.617"
   y2="419.464"
   id="line66" />
			<line
   style="fill:none;"
   x1="419.464"
   y1="141.617"
   x2="419.464"
   y2="118.484"
   id="line68" />
			<line
   style="fill:none;"
   x1="205.943"
   y1="92.537"
   x2="182.811"
   y2="92.537"
   id="line70" />
			<line
   style="fill:none;"
   x1="92.537"
   y1="182.811"
   x2="92.537"
   y2="205.943"
   id="line72" />
			<path
   style="fill:none;"
   d="M130.915,92.537h-21.427c-0.61,0-1.211,0.036-1.805,0.099l-15.047,15.047     c-0.063,0.593-0.099,1.195-0.099,1.805v21.427"
   id="path74" />
			<line
   style="fill:none;"
   x1="168.429"
   y1="92.537"
   x2="145.297"
   y2="92.537"
   id="line76" />
			<line
   style="fill:none;"
   x1="92.537"
   y1="145.297"
   x2="92.537"
   y2="168.429"
   id="line78" />
			<line
   style="fill:none;"
   x1="92.537"
   y1="332.869"
   x2="92.537"
   y2="356.002"
   id="line80" />
			<line
   style="fill:none;"
   x1="356.002"
   y1="92.537"
   x2="332.869"
   y2="92.537"
   id="line82" />
			<line
   style="fill:none;"
   x1="92.537"
   y1="295.353"
   x2="92.537"
   y2="318.487"
   id="line84" />
			<line
   style="fill:none;"
   x1="318.487"
   y1="92.537"
   x2="295.353"
   y2="92.537"
   id="line86" />
			<polyline
   style="fill:none;"
   points="242.419,93.575 243.457,92.537 220.324,92.537    "
   id="polyline88" />
			<line
   style="fill:none;"
   x1="92.537"
   y1="220.324"
   x2="92.537"
   y2="243.457"
   id="line90" />
			<line
   style="fill:none;"
   x1="92.537"
   y1="257.839"
   x2="92.537"
   y2="280.971"
   id="line92" />
			<polyline
   style="fill:none;"
   points="280.971,92.537 257.839,92.537 250.416,99.96    "
   id="polyline94" />
			<polygon
   style="fill:#FFFFFF;"
   points="92.537,145.297 75.586,162.248 75.586,185.38 92.537,168.429    "
   id="polygon96" />
			<polygon
   style="fill:#3F8CFC;"
   points="318.487,92.537 335.438,75.586 312.304,75.586 295.353,92.537    "
   id="polygon98" />
			<polygon
   style="fill:#FC354D;"
   points="280.971,92.537 297.922,75.586 274.79,75.586 257.839,92.537    "
   id="polygon100" />
			<path
   style="fill:#FC354D;"
   d="M393.516,92.537l16.174-16.174c-2.315-0.499-4.712-0.777-7.176-0.777h-15.179l-16.951,16.951     H393.516z"
   id="path102" />
			<path
   style="fill:#FC354D;"
   d="M92.537,109.488c0-0.61,0.036-1.211,0.099-1.805l-17.05,17.05v23.133l16.951-16.951V109.488z"
   id="path104" />
			<path
   style="fill:#FFFFFF;"
   d="M109.488,92.537h21.427l16.951-16.951h-23.133l-17.05,17.05     C108.276,92.572,108.878,92.537,109.488,92.537z"
   id="path106" />
			<path
   style="fill:#3F8CFC;"
   d="M418.786,104.781l12.75-12.75c-2.856-4.738-6.828-8.71-11.566-11.566l-12.75,12.75     C412.785,94.828,417.173,99.215,418.786,104.781z"
   id="path108" />
			<polygon
   style="fill:#3F8CFC;"
   points="205.943,92.537 222.894,75.586 199.761,75.586 182.811,92.537    "
   id="polygon110" />
			<polygon
   style="fill:#FC354D;"
   points="168.429,92.537 185.38,75.586 162.248,75.586 145.297,92.537    "
   id="polygon112" />
			<polygon
   style="fill:#FFFFFF;"
   points="243.457,92.537 243.746,92.248 260.408,75.586 237.275,75.586 220.324,92.537    "
   id="polygon114" />
			<polygon
   style="fill:#3F8CFC;"
   points="419.464,329.189 436.415,312.238 436.415,289.106 419.464,306.057    "
   id="polygon116" />
			<polygon
   style="fill:#FFFFFF;"
   points="419.464,366.704 436.415,349.753 436.415,326.62 419.464,343.571    "
   id="polygon118" />
			<path
   style="fill:#FFFFFF;"
   d="M419.464,141.617l16.951-16.951v-15.178c0-2.465-0.278-4.862-0.777-7.177l-16.174,16.174     L419.464,141.617L419.464,141.617z"
   id="path120" />
			<path
   style="fill:#3F8CFC;"
   d="M402.513,436.415c18.724,0,33.902-15.178,33.902-33.902v-0.865l-34.767,34.767H402.513z"
   id="path122" />
			<path
   style="fill:#3F8CFC;"
   d="M109.488,75.586c-18.724,0-33.902,15.178-33.902,33.902v0.863l34.765-34.765H109.488z"
   id="path124" />
			<path
   style="fill:#FC354D;"
   d="M419.464,402.513c0,0.609-0.036,1.21-0.099,1.803l17.05-17.05v-23.132l-16.951,16.951V402.513z"
   id="path126" />
			<polygon
   style="fill:#FC354D;"
   points="419.464,179.131 436.415,162.18 436.415,139.048 419.464,155.999    "
   id="polygon128" />
			<polygon
   style="fill:#3F8CFC;"
   points="419.464,216.646 436.415,199.695 436.415,176.562 419.464,193.512    "
   id="polygon130" />
			<polygon
   style="fill:#FC354D;"
   points="419.464,291.675 436.415,274.724 436.415,251.592 419.464,268.543    "
   id="polygon132" />
			<polygon
   style="fill:#FFFFFF;"
   points="419.464,254.161 436.415,237.21 436.415,214.077 419.464,231.028    "
   id="polygon134" />
			<polygon
   style="fill:#FFFFFF;"
   points="356.002,92.537 372.953,75.586 349.82,75.586 332.869,92.537    "
   id="polygon136" />
			<path
   style="fill:#FFFFFF;"
   d="M402.513,419.464h-21.428l-16.951,16.951h23.132l17.05-17.05     C403.723,419.429,403.123,419.464,402.513,419.464z"
   id="path138" />
			<path
   style="fill:#FC354D;"
   d="M118.484,419.464l-16.174,16.174c2.315,0.5,4.713,0.777,7.177,0.777h15.178l16.951-16.951     L118.484,419.464L118.484,419.464z"
   id="path140" />
			<polygon
   style="fill:#3F8CFC;"
   points="92.537,295.353 75.586,312.304 75.586,335.438 92.537,318.487    "
   id="polygon142" />
			<polygon
   style="fill:#FC354D;"
   points="343.571,419.464 326.62,436.415 349.753,436.415 366.704,419.464    "
   id="polygon144" />
			<polygon
   style="fill:#FFFFFF;"
   points="92.537,257.839 75.586,274.79 75.586,297.922 92.537,280.971    "
   id="polygon146" />
			<path
   style="fill:#FFFFFF;"
   d="M92.537,370.384l-16.951,16.951v15.179c0,2.464,0.278,4.861,0.777,7.176l16.174-16.174V370.384z"
   id="path148" />
			<polygon
   style="fill:#FC354D;"
   points="92.537,332.869 75.586,349.82 75.586,372.953 92.537,356.002    "
   id="polygon150" />
			<path
   style="fill:#3F8CFC;"
   d="M93.215,407.219l-12.75,12.75c2.856,4.738,6.828,8.71,11.566,11.566l12.75-12.75     C99.215,417.173,94.828,412.785,93.215,407.219z"
   id="path152" />
			<polygon
   style="fill:#FFFFFF;"
   points="155.999,419.464 139.048,436.415 162.18,436.415 179.131,419.464    "
   id="polygon154" />
			<polygon
   style="fill:#FC354D;"
   points="231.028,419.464 214.077,436.415 237.21,436.415 254.161,419.464    "
   id="polygon156" />
			<polygon
   style="fill:#3F8CFC;"
   points="92.537,182.811 75.586,199.761 75.586,222.894 92.537,205.943    "
   id="polygon158" />
			<polygon
   style="fill:#3F8CFC;"
   points="193.512,419.464 176.561,436.415 199.695,436.415 216.646,419.464    "
   id="polygon160" />
			<polygon
   style="fill:#FFFFFF;"
   points="268.543,419.464 251.592,436.415 274.724,436.415 291.675,419.464    "
   id="polygon162" />
			<polygon
   style="fill:#3F8CFC;"
   points="306.057,419.464 289.106,436.415 312.238,436.415 329.189,419.464    "
   id="polygon164" />
			<polygon
   style="fill:#FC354D;"
   points="92.537,220.324 75.586,237.275 75.586,260.408 92.537,243.457    "
   id="polygon166" />
		</g>
	</g>
</g>
</svg>