<?xml version="1.0" encoding="UTF-8" standalone="no"?>
<svg
   xmlns:dc="http://purl.org/dc/elements/1.1/"
   xmlns:cc="http://creativecommons.org/ns#"
   xmlns:rdf="http://www.w3.org/1999/02/22-rdf-syntax-ns#"
   xmlns:svg="http://www.w3.org/2000/svg"
   xmlns="http://www.w3.org/2000/svg"
   xmlns:sodipodi="http://sodipodi.sourceforge.net/DTD/sodipodi-0.dtd"
   xmlns:inkscape="http://www.inkscape.org/namespaces/inkscape"
   id="svg2"
   version="1.1"
   xml:space="preserve"
   width="640"
   height="640"
   viewBox="0 0 640 640"
   sodipodi:docname="mintdrivers.svg"
   inkscape:version="0.92.3 (2405546, 2018-03-11)"><sodipodi:namedview
     pagecolor="#ffffff"
     bordercolor="#666666"
     borderopacity="1"
     objecttolerance="10"
     gridtolerance="10"
     guidetolerance="10"
     inkscape:pageopacity="0"
     inkscape:pageshadow="2"
     inkscape:window-width="1108"
     inkscape:window-height="997"
     id="namedview249"
     showgrid="false"
     inkscape:snap-grids="false"
     inkscape:zoom="0.52149125"
     inkscape:cx="360.27138"
     inkscape:cy="492.4883"
     inkscape:window-x="687"
     inkscape:window-y="147"
     inkscape:window-maximized="0"
     inkscape:current-layer="svg2" /><metadata
     id="metadata8"><rdf:RDF><cc:Work
         rdf:about=""><dc:format>image/svg+xml</dc:format><dc:type
           rdf:resource="http://purl.org/dc/dcmitype/StillImage" /><dc:title /></cc:Work></rdf:RDF></metadata><defs
     id="defs6"><clipPath
       clipPathUnits="userSpaceOnUse"
       id="clipPath16"><path
         d="M 0,512 512,512 512,0 0,0 0,512 Z"
         id="path18" /></clipPath><clipPath
       clipPathUnits="userSpaceOnUse"
       id="clipPath24"><path
         d="m 18.325,493.744 475.4,0 0,-475.4877 -475.4,0 0,475.4877 z"
         id="path26" /></clipPath><clipPath
       clipPathUnits="userSpaceOnUse"
       id="clipPath28"><path
         d="M 448.99,63.029 C 389.293,3.332 122.807,3.332 63.11,63.029 3.413,122.726 3.413,389.312 63.01,449.009 c 59.597,59.696 326.283,59.596 385.98,0 59.697,-59.597 59.597,-326.283 0,-385.98"
         id="path30" /></clipPath><radialGradient
       fx="0"
       fy="0"
       cx="0"
       cy="0"
       r="1"
       gradientUnits="userSpaceOnUse"
       gradientTransform="matrix(237.72188,0,0,237.72188,256.02499,256)"
       spreadMethod="pad"
       id="radialGradient36"><stop
         style="stop-opacity:1;stop-color:#ffffff"
         offset="0"
         id="stop38" /><stop
         style="stop-opacity:0.14129854;stop-color:#ffffff"
         offset="0.8587"
         id="stop40" /><stop
         style="stop-opacity:0;stop-color:#ffffff"
         offset="1"
         id="stop42" /></radialGradient><mask
       maskUnits="userSpaceOnUse"
       x="0"
       y="0"
       width="1"
       height="1"
       id="mask44"><g
         id="g46"><g
           id="g48"><g
             id="g50"><g
               id="g52"><path
                 d="m -32768,32767 65535,0 0,-65535 -65535,0 0,65535 z"
                 style="fill:url(#radialGradient36);stroke:none"
                 id="path54" /></g></g></g></g></mask><radialGradient
       fx="0"
       fy="0"
       cx="0"
       cy="0"
       r="1"
       gradientUnits="userSpaceOnUse"
       gradientTransform="matrix(237.72188,0,0,237.72188,256.02499,256)"
       spreadMethod="pad"
       id="radialGradient56"><stop
         style="stop-opacity:1;stop-color:#010101"
         offset="0"
         id="stop58" /><stop
         style="stop-opacity:1;stop-color:#010101"
         offset="0.8587"
         id="stop60" /><stop
         style="stop-opacity:1;stop-color:#010101"
         offset="1"
         id="stop62" /></radialGradient><clipPath
       clipPathUnits="userSpaceOnUse"
       id="clipPath86"><path
         d="m 18.325,493.744 475.4,0 0,-475.4877 -475.4,0 0,475.4877 z"
         id="path88" /></clipPath><clipPath
       clipPathUnits="userSpaceOnUse"
       id="clipPath90"><path
         d="M 448.99,63.029 C 389.293,3.332 122.807,3.332 63.11,63.029 3.413,122.726 3.413,389.312 63.01,449.009 c 59.597,59.696 326.283,59.596 385.98,0 59.697,-59.597 59.597,-326.283 0,-385.98"
         id="path92" /></clipPath><radialGradient
       fx="0"
       fy="0"
       cx="0"
       cy="0"
       r="1"
       gradientUnits="userSpaceOnUse"
       gradientTransform="matrix(188.25467,188.36119,-130.35883,130.27895,256.02499,256.04376)"
       spreadMethod="pad"
       id="radialGradient98"><stop
         style="stop-opacity:1;stop-color:#ffffff"
         offset="0"
         id="stop100" /><stop
         style="stop-opacity:0.14129854;stop-color:#ffffff"
         offset="0.8587"
         id="stop102" /><stop
         style="stop-opacity:0;stop-color:#ffffff"
         offset="1"
         id="stop104" /></radialGradient><mask
       maskUnits="userSpaceOnUse"
       x="0"
       y="0"
       width="1"
       height="1"
       id="mask106"><g
         id="g108"><g
           id="g110"><g
             id="g112"><g
               id="g114"><path
                 d="m -32768,32767 65535,0 0,-65535 -65535,0 0,65535 z"
                 style="fill:url(#radialGradient98);stroke:none"
                 id="path116" /></g></g></g></g></mask><radialGradient
       fx="0"
       fy="0"
       cx="0"
       cy="0"
       r="1"
       gradientUnits="userSpaceOnUse"
       gradientTransform="matrix(188.25467,188.36119,-130.35883,130.27895,256.02499,256.04376)"
       spreadMethod="pad"
       id="radialGradient118"><stop
         style="stop-opacity:1;stop-color:#010101"
         offset="0"
         id="stop120" /><stop
         style="stop-opacity:1;stop-color:#010101"
         offset="0.8587"
         id="stop122" /><stop
         style="stop-opacity:1;stop-color:#010101"
         offset="1"
         id="stop124" /></radialGradient><clipPath
       clipPathUnits="userSpaceOnUse"
       id="clipPath148"><path
         d="m 18.275,493.694 475.387,0 0,-475.4377 -475.387,0 0,475.4377 z"
         id="path150" /></clipPath><clipPath
       clipPathUnits="userSpaceOnUse"
       id="clipPath152"><path
         d="m 63.01,63.029 c 59.697,-59.697 326.183,-59.697 385.88,0 59.697,59.697 59.697,326.183 0,385.88 -59.697,59.696 -326.183,59.696 -385.88,0.1 -59.697,-59.597 -59.597,-326.283 0,-385.98"
         id="path154" /></clipPath><radialGradient
       fx="0"
       fy="0"
       cx="0"
       cy="0"
       r="1"
       gradientUnits="userSpaceOnUse"
       gradientTransform="matrix(-188.28767,188.39421,130.38168,130.30179,255.92499,255.99377)"
       spreadMethod="pad"
       id="radialGradient160"><stop
         style="stop-opacity:1;stop-color:#ffffff"
         offset="0"
         id="stop162" /><stop
         style="stop-opacity:0.14129854;stop-color:#ffffff"
         offset="0.8587"
         id="stop164" /><stop
         style="stop-opacity:0;stop-color:#ffffff"
         offset="1"
         id="stop166" /></radialGradient><mask
       maskUnits="userSpaceOnUse"
       x="0"
       y="0"
       width="1"
       height="1"
       id="mask168"><g
         id="g170"><g
           id="g172"><g
             id="g174"><g
               id="g176"><path
                 d="m -32768,32767 65535,0 0,-65535 -65535,0 0,65535 z"
                 style="fill:url(#radialGradient160);stroke:none"
                 id="path178" /></g></g></g></g></mask><radialGradient
       fx="0"
       fy="0"
       cx="0"
       cy="0"
       r="1"
       gradientUnits="userSpaceOnUse"
       gradientTransform="matrix(-188.28767,188.39421,130.38168,130.30179,255.92499,255.99377)"
       spreadMethod="pad"
       id="radialGradient180"><stop
         style="stop-opacity:1;stop-color:#010101"
         offset="0"
         id="stop182" /><stop
         style="stop-opacity:1;stop-color:#010101"
         offset="0.8587"
         id="stop184" /><stop
         style="stop-opacity:1;stop-color:#010101"
         offset="1"
         id="stop186" /></radialGradient><radialGradient
       fx="0"
       fy="0"
       cx="0"
       cy="0"
       r="1"
       gradientUnits="userSpaceOnUse"
       gradientTransform="matrix(230,0,0,-230,256,256)"
       spreadMethod="pad"
       id="radialGradient218"><stop
         style="stop-opacity:1;stop-color:#679a3c"
         offset="0"
         id="stop220" /><stop
         style="stop-opacity:1;stop-color:#096b36"
         offset="1"
         id="stop222" /></radialGradient><clipPath
       clipPathUnits="userSpaceOnUse"
       id="clipPath230"><path
         d="M 0,512 512,512 512,0 0,0 0,512 Z"
         id="path232" /></clipPath></defs><path
     inkscape:connector-curvature="0"
     style="fill:#1a1a1a;fill-opacity:1;stroke-width:1.2829771"
     d="M 320.00001,24.91526 C 157.06191,24.91526 24.91525,157.06192 24.91525,320 c 0,162.93809 132.14666,295.08474 295.08476,295.08474 162.9381,0 295.08474,-132.14665 295.08474,-295.08474 0,-162.9381 -132.14664,-295.08474 -295.08474,-295.08474 z"
     id="path4"
     sodipodi:nodetypes="sssss" /><g
     id="g10"
     transform="matrix(1.6521826,0,0,-1.6521826,-102.95858,742.95908)"
     style="fill:#ffffff"><g
       id="g12"
       style="fill:#ffffff"><g
         id="g14"
         clip-path="url(#clipPath16)"
         style="fill:#ffffff"><g
           id="g20"
           style="fill:#ffffff"><g
             id="g22"
             style="fill:#ffffff" /><g
             id="g64"
             style="fill:#ffffff"><g
               clip-path="url(#clipPath24)"
               id="g66"
               style="opacity:0.39999402;fill:#ffffff"><g
                 id="g68"
                 style="fill:#ffffff"><g
                   clip-path="url(#clipPath28)"
                   id="g70"
                   style="fill:#ffffff"><g
                     id="g72"
                     style="fill:#ffffff"><g
                       id="g74"
                       style="fill:#ffffff" /><g
                       mask="url(#mask44)"
                       id="g76"
                       style="fill:#ffffff"><g
                         id="g78"
                         style="fill:#ffffff" /></g></g></g></g></g></g></g><g
           id="g82"
           style="fill:#ffffff"><g
             id="g84"
             style="fill:#ffffff" /><g
             id="g126"
             style="fill:#ffffff"><g
               clip-path="url(#clipPath86)"
               id="g128"
               style="opacity:0.39999402;fill:#ffffff"><g
                 id="g130"
                 style="fill:#ffffff"><g
                   clip-path="url(#clipPath90)"
                   id="g132"
                   style="fill:#ffffff"><g
                     id="g134"
                     style="fill:#ffffff"><g
                       id="g136"
                       style="fill:#ffffff" /><g
                       mask="url(#mask106)"
                       id="g138"
                       style="fill:#ffffff"><g
                         id="g140"
                         style="fill:#ffffff" /></g></g></g></g></g></g></g><g
           id="g144"
           style="fill:#ffffff"><g
             id="g146"
             style="fill:#ffffff" /><g
             id="g188"
             style="fill:#ffffff"><g
               clip-path="url(#clipPath148)"
               id="g190"
               style="opacity:0.39999402;fill:#ffffff"><g
                 id="g192"
                 style="fill:#ffffff"><g
                   clip-path="url(#clipPath152)"
                   id="g194"
                   style="fill:#ffffff"><g
                     id="g196"
                     style="fill:#ffffff"><g
                       id="g198"
                       style="fill:#ffffff" /><g
                       mask="url(#mask168)"
                       id="g200"
                       style="fill:#ffffff"><g
                         id="g202"
                         style="fill:#ffffff" /></g></g></g></g></g></g></g></g></g><g
       id="g206"
       style="fill:#ffffff"><g
         id="g208"
         style="fill:#ffffff"><g
           id="g214"
           style="fill:#ffffff"><g
             id="g216"
             style="fill:#ffffff" /></g></g></g><g
       id="g226"
       style="fill:#ffffff"><g
         id="g228"
         clip-path="url(#clipPath230)"
         style="fill:#ffffff"><g
           id="g234"
           transform="translate(194.4023,337.6354)"
           style="fill:#ffffff"><path
             d="m 0,0 c -11.049,0 -20.038,-8.989 -20.038,-20.038 v -123.195 c 0,-11.048 8.989,-20.037 20.038,-20.037 h 123.195 c 11.048,0 20.038,8.989 20.038,20.037 V -20.038 C 143.233,-8.989 134.243,0 123.195,0 Z M 123.195,-167.723 H 0 c -13.504,0 -24.491,10.986 -24.491,24.49 v 123.195 c 0,13.504 10.987,24.491 24.491,24.491 h 123.195 c 13.504,0 24.49,-10.987 24.49,-24.491 v -123.195 c 0,-13.504 -10.986,-24.49 -24.49,-24.49"
             style="fill:#ffffff;fill-opacity:1;fill-rule:nonzero;stroke:none"
             id="path236"
             inkscape:connector-curvature="0" /></g><g
           id="g238"
           transform="translate(172.1382,308.692)"
           style="fill:#ffffff"><path
             d="m 0,0 h -31.912 c -1.229,0 -2.226,0.997 -2.226,2.226 0,1.23 0.997,2.227 2.226,2.227 L 0,4.453 C 1.23,4.453 2.226,3.456 2.226,2.226 2.226,0.997 1.23,0 0,0"
             style="fill:#ffffff;fill-opacity:1;fill-rule:nonzero;stroke:none"
             id="path240"
             inkscape:connector-curvature="0" /></g><g
           id="g242"
           transform="translate(172.1382,301.8269)"
           style="fill:#ffffff"><path
             d="m 0,0 h -31.912 c -1.229,0 -2.226,0.997 -2.226,2.226 0,1.23 0.997,2.227 2.226,2.227 L 0,4.453 C 1.23,4.453 2.226,3.456 2.226,2.226 2.226,0.997 1.23,0 0,0"
             style="fill:#ffffff;fill-opacity:1;fill-rule:nonzero;stroke:none"
             id="path244"
             inkscape:connector-curvature="0" /></g><g
           id="g246"
           transform="translate(172.1382,294.9622)"
           style="fill:#ffffff"><path
             d="m 0,0 h -31.912 c -1.229,0 -2.226,0.997 -2.226,2.226 0,1.23 0.997,2.227 2.226,2.227 L 0,4.453 C 1.23,4.453 2.226,3.456 2.226,2.226 2.226,0.997 1.23,0 0,0"
             style="fill:#ffffff;fill-opacity:1;fill-rule:nonzero;stroke:none"
             id="path248"
             inkscape:connector-curvature="0" /></g><g
           id="g250"
           transform="translate(172.1382,288.0977)"
           style="fill:#ffffff"><path
             d="m 0,0 h -31.912 c -1.229,0 -2.226,0.997 -2.226,2.226 0,1.23 0.997,2.227 2.226,2.227 L 0,4.453 C 1.23,4.453 2.226,3.456 2.226,2.226 2.226,0.997 1.23,0 0,0"
             style="fill:#ffffff;fill-opacity:1;fill-rule:nonzero;stroke:none"
             id="path252"
             inkscape:connector-curvature="0" /></g><g
           id="g254"
           transform="translate(172.1382,281.2325)"
           style="fill:#ffffff"><path
             d="m 0,0 h -31.912 c -1.229,0 -2.226,0.997 -2.226,2.226 0,1.23 0.997,2.227 2.226,2.227 L 0,4.453 C 1.23,4.453 2.226,3.456 2.226,2.226 2.226,0.997 1.23,0 0,0"
             style="fill:#ffffff;fill-opacity:1;fill-rule:nonzero;stroke:none"
             id="path256"
             inkscape:connector-curvature="0" /></g><g
           id="g258"
           transform="translate(172.1382,274.3679)"
           style="fill:#ffffff"><path
             d="m 0,0 h -31.912 c -1.229,0 -2.226,0.997 -2.226,2.226 0,1.23 0.997,2.227 2.226,2.227 L 0,4.453 C 1.23,4.453 2.226,3.456 2.226,2.226 2.226,0.997 1.23,0 0,0"
             style="fill:#ffffff;fill-opacity:1;fill-rule:nonzero;stroke:none"
             id="path260"
             inkscape:connector-curvature="0" /></g><g
           id="g262"
           transform="translate(172.1382,267.5033)"
           style="fill:#ffffff"><path
             d="m 0,0 h -31.912 c -1.229,0 -2.226,0.997 -2.226,2.226 0,1.23 0.997,2.227 2.226,2.227 L 0,4.453 C 1.23,4.453 2.226,3.456 2.226,2.226 2.226,0.997 1.23,0 0,0"
             style="fill:#ffffff;fill-opacity:1;fill-rule:nonzero;stroke:none"
             id="path264"
             inkscape:connector-curvature="0" /></g><g
           id="g266"
           transform="translate(172.1382,260.6382)"
           style="fill:#ffffff"><path
             d="m 0,0 h -31.912 c -1.229,0 -2.226,0.997 -2.226,2.226 0,1.23 0.997,2.227 2.226,2.227 L 0,4.453 C 1.23,4.453 2.226,3.456 2.226,2.226 2.226,0.997 1.23,0 0,0"
             style="fill:#ffffff;fill-opacity:1;fill-rule:nonzero;stroke:none"
             id="path268"
             inkscape:connector-curvature="0" /></g><g
           id="g270"
           transform="translate(172.1382,253.7736)"
           style="fill:#ffffff"><path
             d="m 0,0 h -31.912 c -1.229,0 -2.226,0.997 -2.226,2.226 0,1.23 0.997,2.227 2.226,2.227 L 0,4.453 C 1.23,4.453 2.226,3.456 2.226,2.226 2.226,0.997 1.23,0 0,0"
             style="fill:#ffffff;fill-opacity:1;fill-rule:nonzero;stroke:none"
             id="path272"
             inkscape:connector-curvature="0" /></g><g
           id="g274"
           transform="translate(172.1382,246.9084)"
           style="fill:#ffffff"><path
             d="m 0,0 h -31.912 c -1.229,0 -2.226,0.997 -2.226,2.226 0,1.23 0.997,2.227 2.226,2.227 L 0,4.453 C 1.23,4.453 2.226,3.456 2.226,2.226 2.226,0.997 1.23,0 0,0"
             style="fill:#ffffff;fill-opacity:1;fill-rule:nonzero;stroke:none"
             id="path276"
             inkscape:connector-curvature="0" /></g><g
           id="g278"
           transform="translate(172.1382,240.0444)"
           style="fill:#ffffff"><path
             d="m 0,0 h -31.912 c -1.229,0 -2.226,0.997 -2.226,2.226 0,1.23 0.997,2.227 2.226,2.227 L 0,4.453 C 1.23,4.453 2.226,3.456 2.226,2.226 2.226,0.997 1.23,0 0,0"
             style="fill:#ffffff;fill-opacity:1;fill-rule:nonzero;stroke:none"
             id="path280"
             inkscape:connector-curvature="0" /></g><g
           id="g282"
           transform="translate(172.1382,233.1792)"
           style="fill:#ffffff"><path
             d="m 0,0 h -31.912 c -1.229,0 -2.226,0.997 -2.226,2.226 0,1.23 0.997,2.227 2.226,2.227 L 0,4.453 C 1.23,4.453 2.226,3.456 2.226,2.226 2.226,0.997 1.23,0 0,0"
             style="fill:#ffffff;fill-opacity:1;fill-rule:nonzero;stroke:none"
             id="path284"
             inkscape:connector-curvature="0" /></g><g
           id="g286"
           transform="translate(172.1382,226.3141)"
           style="fill:#ffffff"><path
             d="m 0,0 h -31.912 c -1.229,0 -2.226,0.997 -2.226,2.226 0,1.23 0.997,2.227 2.226,2.227 L 0,4.453 C 1.23,4.453 2.226,3.456 2.226,2.226 2.226,0.997 1.23,0 0,0"
             style="fill:#ffffff;fill-opacity:1;fill-rule:nonzero;stroke:none"
             id="path288"
             inkscape:connector-curvature="0" /></g><g
           id="g290"
           transform="translate(172.1382,219.45)"
           style="fill:#ffffff"><path
             d="m 0,0 h -31.912 c -1.229,0 -2.226,0.997 -2.226,2.226 0,1.23 0.997,2.227 2.226,2.227 L 0,4.453 C 1.23,4.453 2.226,3.456 2.226,2.226 2.226,0.997 1.23,0 0,0"
             style="fill:#ffffff;fill-opacity:1;fill-rule:nonzero;stroke:none"
             id="path292"
             inkscape:connector-curvature="0" /></g><g
           id="g294"
           transform="translate(172.1382,212.5849)"
           style="fill:#ffffff"><path
             d="m 0,0 h -31.912 c -1.229,0 -2.226,0.997 -2.226,2.226 0,1.23 0.997,2.227 2.226,2.227 L 0,4.453 C 1.23,4.453 2.226,3.456 2.226,2.226 2.226,0.997 1.23,0 0,0"
             style="fill:#ffffff;fill-opacity:1;fill-rule:nonzero;stroke:none"
             id="path296"
             inkscape:connector-curvature="0" /></g><g
           id="g298"
           transform="translate(172.1382,205.7198)"
           style="fill:#ffffff"><path
             d="m 0,0 h -31.912 c -1.229,0 -2.226,0.997 -2.226,2.226 0,1.23 0.997,2.227 2.226,2.227 L 0,4.453 C 1.23,4.453 2.226,3.456 2.226,2.226 2.226,0.997 1.23,0 0,0"
             style="fill:#ffffff;fill-opacity:1;fill-rule:nonzero;stroke:none"
             id="path300"
             inkscape:connector-curvature="0" /></g><g
           id="g302"
           transform="translate(172.1382,198.8557)"
           style="fill:#ffffff"><path
             d="m 0,0 h -31.912 c -1.229,0 -2.226,0.997 -2.226,2.226 0,1.23 0.997,2.227 2.226,2.227 L 0,4.453 C 1.23,4.453 2.226,3.456 2.226,2.226 2.226,0.997 1.23,0 0,0"
             style="fill:#ffffff;fill-opacity:1;fill-rule:nonzero;stroke:none"
             id="path304"
             inkscape:connector-curvature="0" /></g><g
           id="g306"
           transform="translate(371.7736,308.692)"
           style="fill:#ffffff"><path
             d="m 0,0 h -31.912 c -1.23,0 -2.227,0.997 -2.227,2.226 0,1.23 0.997,2.227 2.227,2.227 L 0,4.453 C 1.23,4.453 2.226,3.456 2.226,2.226 2.226,0.997 1.23,0 0,0"
             style="fill:#ffffff;fill-opacity:1;fill-rule:nonzero;stroke:none"
             id="path308"
             inkscape:connector-curvature="0" /></g><g
           id="g310"
           transform="translate(371.7736,301.8269)"
           style="fill:#ffffff"><path
             d="m 0,0 h -31.912 c -1.23,0 -2.227,0.997 -2.227,2.226 0,1.23 0.997,2.227 2.227,2.227 L 0,4.453 C 1.23,4.453 2.226,3.456 2.226,2.226 2.226,0.997 1.23,0 0,0"
             style="fill:#ffffff;fill-opacity:1;fill-rule:nonzero;stroke:none"
             id="path312"
             inkscape:connector-curvature="0" /></g><g
           id="g314"
           transform="translate(371.7736,294.9622)"
           style="fill:#ffffff"><path
             d="m 0,0 h -31.912 c -1.23,0 -2.227,0.997 -2.227,2.226 0,1.23 0.997,2.227 2.227,2.227 L 0,4.453 C 1.23,4.453 2.226,3.456 2.226,2.226 2.226,0.997 1.23,0 0,0"
             style="fill:#ffffff;fill-opacity:1;fill-rule:nonzero;stroke:none"
             id="path316"
             inkscape:connector-curvature="0" /></g><g
           id="g318"
           transform="translate(371.7736,288.0977)"
           style="fill:#ffffff"><path
             d="m 0,0 h -31.912 c -1.23,0 -2.227,0.997 -2.227,2.226 0,1.23 0.997,2.227 2.227,2.227 L 0,4.453 C 1.23,4.453 2.226,3.456 2.226,2.226 2.226,0.997 1.23,0 0,0"
             style="fill:#ffffff;fill-opacity:1;fill-rule:nonzero;stroke:none"
             id="path320"
             inkscape:connector-curvature="0" /></g><g
           id="g322"
           transform="translate(371.7736,281.2325)"
           style="fill:#ffffff"><path
             d="m 0,0 h -31.912 c -1.23,0 -2.227,0.997 -2.227,2.226 0,1.23 0.997,2.227 2.227,2.227 L 0,4.453 C 1.23,4.453 2.226,3.456 2.226,2.226 2.226,0.997 1.23,0 0,0"
             style="fill:#ffffff;fill-opacity:1;fill-rule:nonzero;stroke:none"
             id="path324"
             inkscape:connector-curvature="0" /></g><g
           id="g326"
           transform="translate(371.7736,274.3679)"
           style="fill:#ffffff"><path
             d="m 0,0 h -31.912 c -1.23,0 -2.227,0.997 -2.227,2.226 0,1.23 0.997,2.227 2.227,2.227 L 0,4.453 C 1.23,4.453 2.226,3.456 2.226,2.226 2.226,0.997 1.23,0 0,0"
             style="fill:#ffffff;fill-opacity:1;fill-rule:nonzero;stroke:none"
             id="path328"
             inkscape:connector-curvature="0" /></g><g
           id="g330"
           transform="translate(371.7736,267.5033)"
           style="fill:#ffffff"><path
             d="m 0,0 h -31.912 c -1.23,0 -2.227,0.997 -2.227,2.226 0,1.23 0.997,2.227 2.227,2.227 L 0,4.453 C 1.23,4.453 2.226,3.456 2.226,2.226 2.226,0.997 1.23,0 0,0"
             style="fill:#ffffff;fill-opacity:1;fill-rule:nonzero;stroke:none"
             id="path332"
             inkscape:connector-curvature="0" /></g><g
           id="g334"
           transform="translate(371.7736,260.6382)"
           style="fill:#ffffff"><path
             d="m 0,0 h -31.912 c -1.23,0 -2.227,0.997 -2.227,2.226 0,1.23 0.997,2.227 2.227,2.227 L 0,4.453 C 1.23,4.453 2.226,3.456 2.226,2.226 2.226,0.997 1.23,0 0,0"
             style="fill:#ffffff;fill-opacity:1;fill-rule:nonzero;stroke:none"
             id="path336"
             inkscape:connector-curvature="0" /></g><g
           id="g338"
           transform="translate(371.7736,253.7736)"
           style="fill:#ffffff"><path
             d="m 0,0 h -31.912 c -1.23,0 -2.227,0.997 -2.227,2.226 0,1.23 0.997,2.227 2.227,2.227 L 0,4.453 C 1.23,4.453 2.226,3.456 2.226,2.226 2.226,0.997 1.23,0 0,0"
             style="fill:#ffffff;fill-opacity:1;fill-rule:nonzero;stroke:none"
             id="path340"
             inkscape:connector-curvature="0" /></g><g
           id="g342"
           transform="translate(371.7736,246.9084)"
           style="fill:#ffffff"><path
             d="m 0,0 h -31.912 c -1.23,0 -2.227,0.997 -2.227,2.226 0,1.23 0.997,2.227 2.227,2.227 L 0,4.453 C 1.23,4.453 2.226,3.456 2.226,2.226 2.226,0.997 1.23,0 0,0"
             style="fill:#ffffff;fill-opacity:1;fill-rule:nonzero;stroke:none"
             id="path344"
             inkscape:connector-curvature="0" /></g><g
           id="g346"
           transform="translate(371.7736,240.0444)"
           style="fill:#ffffff"><path
             d="m 0,0 h -31.912 c -1.23,0 -2.227,0.997 -2.227,2.226 0,1.23 0.997,2.227 2.227,2.227 L 0,4.453 C 1.23,4.453 2.226,3.456 2.226,2.226 2.226,0.997 1.23,0 0,0"
             style="fill:#ffffff;fill-opacity:1;fill-rule:nonzero;stroke:none"
             id="path348"
             inkscape:connector-curvature="0" /></g><g
           id="g350"
           transform="translate(371.7736,233.1792)"
           style="fill:#ffffff"><path
             d="m 0,0 h -31.912 c -1.23,0 -2.227,0.997 -2.227,2.226 0,1.23 0.997,2.227 2.227,2.227 L 0,4.453 C 1.23,4.453 2.226,3.456 2.226,2.226 2.226,0.997 1.23,0 0,0"
             style="fill:#ffffff;fill-opacity:1;fill-rule:nonzero;stroke:none"
             id="path352"
             inkscape:connector-curvature="0" /></g><g
           id="g354"
           transform="translate(371.7736,226.3141)"
           style="fill:#ffffff"><path
             d="m 0,0 h -31.912 c -1.23,0 -2.227,0.997 -2.227,2.226 0,1.23 0.997,2.227 2.227,2.227 L 0,4.453 C 1.23,4.453 2.226,3.456 2.226,2.226 2.226,0.997 1.23,0 0,0"
             style="fill:#ffffff;fill-opacity:1;fill-rule:nonzero;stroke:none"
             id="path356"
             inkscape:connector-curvature="0" /></g><g
           id="g358"
           transform="translate(371.7736,219.45)"
           style="fill:#ffffff"><path
             d="m 0,0 h -31.912 c -1.23,0 -2.227,0.997 -2.227,2.226 0,1.23 0.997,2.227 2.227,2.227 L 0,4.453 C 1.23,4.453 2.226,3.456 2.226,2.226 2.226,0.997 1.23,0 0,0"
             style="fill:#ffffff;fill-opacity:1;fill-rule:nonzero;stroke:none"
             id="path360"
             inkscape:connector-curvature="0" /></g><g
           id="g362"
           transform="translate(371.7736,212.5849)"
           style="fill:#ffffff"><path
             d="m 0,0 h -31.912 c -1.23,0 -2.227,0.997 -2.227,2.226 0,1.23 0.997,2.227 2.227,2.227 L 0,4.453 C 1.23,4.453 2.226,3.456 2.226,2.226 2.226,0.997 1.23,0 0,0"
             style="fill:#ffffff;fill-opacity:1;fill-rule:nonzero;stroke:none"
             id="path364"
             inkscape:connector-curvature="0" /></g><g
           id="g366"
           transform="translate(371.7736,205.7198)"
           style="fill:#ffffff"><path
             d="m 0,0 h -31.912 c -1.23,0 -2.227,0.997 -2.227,2.226 0,1.23 0.997,2.227 2.227,2.227 L 0,4.453 C 1.23,4.453 2.226,3.456 2.226,2.226 2.226,0.997 1.23,0 0,0"
             style="fill:#ffffff;fill-opacity:1;fill-rule:nonzero;stroke:none"
             id="path368"
             inkscape:connector-curvature="0" /></g><g
           id="g370"
           transform="translate(371.7736,198.8557)"
           style="fill:#ffffff"><path
             d="m 0,0 h -31.912 c -1.23,0 -2.227,0.997 -2.227,2.226 0,1.23 0.997,2.227 2.227,2.227 L 0,4.453 C 1.23,4.453 2.226,3.456 2.226,2.226 2.226,0.997 1.23,0 0,0"
             style="fill:#ffffff;fill-opacity:1;fill-rule:nonzero;stroke:none"
             id="path372"
             inkscape:connector-curvature="0" /></g><g
           id="g374"
           transform="translate(201.0816,138)"
           style="fill:#ffffff"><path
             d="m 0,0 c -1.23,0 -2.226,0.997 -2.226,2.226 v 31.913 c 0,1.229 0.996,2.226 2.226,2.226 1.23,0 2.226,-0.997 2.226,-2.226 V 2.226 C 2.226,0.997 1.23,0 0,0"
             style="fill:#ffffff;fill-opacity:1;fill-rule:nonzero;stroke:none"
             id="path376"
             inkscape:connector-curvature="0" /></g><g
           id="g378"
           transform="translate(207.9467,138)"
           style="fill:#ffffff"><path
             d="m 0,0 c -1.23,0 -2.226,0.997 -2.226,2.226 v 31.913 c 0,1.229 0.996,2.226 2.226,2.226 1.23,0 2.226,-0.997 2.226,-2.226 V 2.226 C 2.226,0.997 1.23,0 0,0"
             style="fill:#ffffff;fill-opacity:1;fill-rule:nonzero;stroke:none"
             id="path380"
             inkscape:connector-curvature="0" /></g><g
           id="g382"
           transform="translate(214.8113,138)"
           style="fill:#ffffff"><path
             d="m 0,0 c -1.23,0 -2.226,0.997 -2.226,2.226 v 31.913 c 0,1.229 0.996,2.226 2.226,2.226 1.23,0 2.226,-0.997 2.226,-2.226 V 2.226 C 2.226,0.997 1.23,0 0,0"
             style="fill:#ffffff;fill-opacity:1;fill-rule:nonzero;stroke:none"
             id="path384"
             inkscape:connector-curvature="0" /></g><g
           id="g386"
           transform="translate(221.6759,138)"
           style="fill:#ffffff"><path
             d="m 0,0 c -1.23,0 -2.226,0.997 -2.226,2.226 v 31.913 c 0,1.229 0.996,2.226 2.226,2.226 1.23,0 2.226,-0.997 2.226,-2.226 V 2.226 C 2.226,0.997 1.23,0 0,0"
             style="fill:#ffffff;fill-opacity:1;fill-rule:nonzero;stroke:none"
             id="path388"
             inkscape:connector-curvature="0" /></g><g
           id="g390"
           transform="translate(228.5411,138)"
           style="fill:#ffffff"><path
             d="m 0,0 c -1.23,0 -2.226,0.997 -2.226,2.226 v 31.913 c 0,1.229 0.996,2.226 2.226,2.226 1.23,0 2.226,-0.997 2.226,-2.226 V 2.226 C 2.226,0.997 1.23,0 0,0"
             style="fill:#ffffff;fill-opacity:1;fill-rule:nonzero;stroke:none"
             id="path392"
             inkscape:connector-curvature="0" /></g><g
           id="g394"
           transform="translate(235.4057,138)"
           style="fill:#ffffff"><path
             d="m 0,0 c -1.23,0 -2.226,0.997 -2.226,2.226 v 31.913 c 0,1.229 0.996,2.226 2.226,2.226 1.23,0 2.226,-0.997 2.226,-2.226 V 2.226 C 2.226,0.997 1.23,0 0,0"
             style="fill:#ffffff;fill-opacity:1;fill-rule:nonzero;stroke:none"
             id="path396"
             inkscape:connector-curvature="0" /></g><g
           id="g398"
           transform="translate(242.2703,138)"
           style="fill:#ffffff"><path
             d="m 0,0 c -1.23,0 -2.226,0.997 -2.226,2.226 v 31.913 c 0,1.229 0.996,2.226 2.226,2.226 1.23,0 2.226,-0.997 2.226,-2.226 V 2.226 C 2.226,0.997 1.23,0 0,0"
             style="fill:#ffffff;fill-opacity:1;fill-rule:nonzero;stroke:none"
             id="path400"
             inkscape:connector-curvature="0" /></g><g
           id="g402"
           transform="translate(249.1354,138)"
           style="fill:#ffffff"><path
             d="m 0,0 c -1.23,0 -2.226,0.997 -2.226,2.226 v 31.913 c 0,1.229 0.996,2.226 2.226,2.226 1.23,0 2.226,-0.997 2.226,-2.226 V 2.226 C 2.226,0.997 1.23,0 0,0"
             style="fill:#ffffff;fill-opacity:1;fill-rule:nonzero;stroke:none"
             id="path404"
             inkscape:connector-curvature="0" /></g><g
           id="g406"
           transform="translate(256,138)"
           style="fill:#ffffff"><path
             d="m 0,0 c -1.23,0 -2.226,0.997 -2.226,2.226 v 31.913 c 0,1.229 0.996,2.226 2.226,2.226 1.23,0 2.226,-0.997 2.226,-2.226 V 2.226 C 2.226,0.997 1.23,0 0,0"
             style="fill:#ffffff;fill-opacity:1;fill-rule:nonzero;stroke:none"
             id="path408"
             inkscape:connector-curvature="0" /></g><g
           id="g410"
           transform="translate(262.8651,138)"
           style="fill:#ffffff"><path
             d="m 0,0 c -1.23,0 -2.226,0.997 -2.226,2.226 v 31.913 c 0,1.229 0.996,2.226 2.226,2.226 1.23,0 2.226,-0.997 2.226,-2.226 V 2.226 C 2.226,0.997 1.23,0 0,0"
             style="fill:#ffffff;fill-opacity:1;fill-rule:nonzero;stroke:none"
             id="path412"
             inkscape:connector-curvature="0" /></g><g
           id="g414"
           transform="translate(269.7292,138)"
           style="fill:#ffffff"><path
             d="m 0,0 c -1.23,0 -2.226,0.997 -2.226,2.226 v 31.913 c 0,1.229 0.996,2.226 2.226,2.226 1.23,0 2.226,-0.997 2.226,-2.226 V 2.226 C 2.226,0.997 1.23,0 0,0"
             style="fill:#ffffff;fill-opacity:1;fill-rule:nonzero;stroke:none"
             id="path416"
             inkscape:connector-curvature="0" /></g><g
           id="g418"
           transform="translate(276.5943,138)"
           style="fill:#ffffff"><path
             d="m 0,0 c -1.23,0 -2.226,0.997 -2.226,2.226 v 31.913 c 0,1.229 0.996,2.226 2.226,2.226 1.23,0 2.226,-0.997 2.226,-2.226 V 2.226 C 2.226,0.997 1.23,0 0,0"
             style="fill:#ffffff;fill-opacity:1;fill-rule:nonzero;stroke:none"
             id="path420"
             inkscape:connector-curvature="0" /></g><g
           id="g422"
           transform="translate(283.4595,138)"
           style="fill:#ffffff"><path
             d="m 0,0 c -1.23,0 -2.226,0.997 -2.226,2.226 v 31.913 c 0,1.229 0.996,2.226 2.226,2.226 1.23,0 2.226,-0.997 2.226,-2.226 V 2.226 C 2.226,0.997 1.23,0 0,0"
             style="fill:#ffffff;fill-opacity:1;fill-rule:nonzero;stroke:none"
             id="path424"
             inkscape:connector-curvature="0" /></g><g
           id="g426"
           transform="translate(290.3235,138)"
           style="fill:#ffffff"><path
             d="m 0,0 c -1.23,0 -2.226,0.997 -2.226,2.226 v 31.913 c 0,1.229 0.996,2.226 2.226,2.226 1.23,0 2.226,-0.997 2.226,-2.226 V 2.226 C 2.226,0.997 1.23,0 0,0"
             style="fill:#ffffff;fill-opacity:1;fill-rule:nonzero;stroke:none"
             id="path428"
             inkscape:connector-curvature="0" /></g><g
           id="g430"
           transform="translate(297.1887,138)"
           style="fill:#ffffff"><path
             d="m 0,0 c -1.23,0 -2.226,0.997 -2.226,2.226 v 31.913 c 0,1.229 0.996,2.226 2.226,2.226 1.23,0 2.226,-0.997 2.226,-2.226 V 2.226 C 2.226,0.997 1.23,0 0,0"
             style="fill:#ffffff;fill-opacity:1;fill-rule:nonzero;stroke:none"
             id="path432"
             inkscape:connector-curvature="0" /></g><g
           id="g434"
           transform="translate(304.0538,138)"
           style="fill:#ffffff"><path
             d="m 0,0 c -1.23,0 -2.226,0.997 -2.226,2.226 v 31.913 c 0,1.229 0.996,2.226 2.226,2.226 1.23,0 2.226,-0.997 2.226,-2.226 V 2.226 C 2.226,0.997 1.23,0 0,0"
             style="fill:#ffffff;fill-opacity:1;fill-rule:nonzero;stroke:none"
             id="path436"
             inkscape:connector-curvature="0" /></g><g
           id="g438"
           transform="translate(310.9179,138)"
           style="fill:#ffffff"><path
             d="m 0,0 c -1.23,0 -2.226,0.997 -2.226,2.226 v 31.913 c 0,1.229 0.996,2.226 2.226,2.226 1.23,0 2.226,-0.997 2.226,-2.226 V 2.226 C 2.226,0.997 1.23,0 0,0"
             style="fill:#ffffff;fill-opacity:1;fill-rule:nonzero;stroke:none"
             id="path440"
             inkscape:connector-curvature="0" /></g><g
           id="g442"
           transform="translate(201.0816,337.6354)"
           style="fill:#ffffff"><path
             d="m 0,0 c -1.23,0 -2.226,0.997 -2.226,2.226 v 31.912 c 0,1.23 0.996,2.227 2.226,2.227 1.23,0 2.226,-0.997 2.226,-2.227 V 2.226 C 2.226,0.997 1.23,0 0,0"
             style="fill:#ffffff;fill-opacity:1;fill-rule:nonzero;stroke:none"
             id="path444"
             inkscape:connector-curvature="0" /></g><g
           id="g446"
           transform="translate(207.9467,337.6354)"
           style="fill:#ffffff"><path
             d="m 0,0 c -1.23,0 -2.226,0.997 -2.226,2.226 v 31.912 c 0,1.23 0.996,2.227 2.226,2.227 1.23,0 2.226,-0.997 2.226,-2.227 V 2.226 C 2.226,0.997 1.23,0 0,0"
             style="fill:#ffffff;fill-opacity:1;fill-rule:nonzero;stroke:none"
             id="path448"
             inkscape:connector-curvature="0" /></g><g
           id="g450"
           transform="translate(214.8113,337.6354)"
           style="fill:#ffffff"><path
             d="m 0,0 c -1.23,0 -2.226,0.997 -2.226,2.226 v 31.912 c 0,1.23 0.996,2.227 2.226,2.227 1.23,0 2.226,-0.997 2.226,-2.227 V 2.226 C 2.226,0.997 1.23,0 0,0"
             style="fill:#ffffff;fill-opacity:1;fill-rule:nonzero;stroke:none"
             id="path452"
             inkscape:connector-curvature="0" /></g><g
           id="g454"
           transform="translate(221.6759,337.6354)"
           style="fill:#ffffff"><path
             d="m 0,0 c -1.23,0 -2.226,0.997 -2.226,2.226 v 31.912 c 0,1.23 0.996,2.227 2.226,2.227 1.23,0 2.226,-0.997 2.226,-2.227 V 2.226 C 2.226,0.997 1.23,0 0,0"
             style="fill:#ffffff;fill-opacity:1;fill-rule:nonzero;stroke:none"
             id="path456"
             inkscape:connector-curvature="0" /></g><g
           id="g458"
           transform="translate(228.5411,337.6354)"
           style="fill:#ffffff"><path
             d="m 0,0 c -1.23,0 -2.226,0.997 -2.226,2.226 v 31.912 c 0,1.23 0.996,2.227 2.226,2.227 1.23,0 2.226,-0.997 2.226,-2.227 V 2.226 C 2.226,0.997 1.23,0 0,0"
             style="fill:#ffffff;fill-opacity:1;fill-rule:nonzero;stroke:none"
             id="path460"
             inkscape:connector-curvature="0" /></g><g
           id="g462"
           transform="translate(235.4057,337.6354)"
           style="fill:#ffffff"><path
             d="m 0,0 c -1.23,0 -2.226,0.997 -2.226,2.226 v 31.912 c 0,1.23 0.996,2.227 2.226,2.227 1.23,0 2.226,-0.997 2.226,-2.227 V 2.226 C 2.226,0.997 1.23,0 0,0"
             style="fill:#ffffff;fill-opacity:1;fill-rule:nonzero;stroke:none"
             id="path464"
             inkscape:connector-curvature="0" /></g><g
           id="g466"
           transform="translate(242.2703,337.6354)"
           style="fill:#ffffff"><path
             d="m 0,0 c -1.23,0 -2.226,0.997 -2.226,2.226 v 31.912 c 0,1.23 0.996,2.227 2.226,2.227 1.23,0 2.226,-0.997 2.226,-2.227 V 2.226 C 2.226,0.997 1.23,0 0,0"
             style="fill:#ffffff;fill-opacity:1;fill-rule:nonzero;stroke:none"
             id="path468"
             inkscape:connector-curvature="0" /></g><g
           id="g470"
           transform="translate(249.1354,337.6354)"
           style="fill:#ffffff"><path
             d="m 0,0 c -1.23,0 -2.226,0.997 -2.226,2.226 v 31.912 c 0,1.23 0.996,2.227 2.226,2.227 1.23,0 2.226,-0.997 2.226,-2.227 V 2.226 C 2.226,0.997 1.23,0 0,0"
             style="fill:#ffffff;fill-opacity:1;fill-rule:nonzero;stroke:none"
             id="path472"
             inkscape:connector-curvature="0" /></g><g
           id="g474"
           transform="translate(256,337.6354)"
           style="fill:#ffffff"><path
             d="m 0,0 c -1.23,0 -2.226,0.997 -2.226,2.226 v 31.912 c 0,1.23 0.996,2.227 2.226,2.227 1.23,0 2.226,-0.997 2.226,-2.227 V 2.226 C 2.226,0.997 1.23,0 0,0"
             style="fill:#ffffff;fill-opacity:1;fill-rule:nonzero;stroke:none"
             id="path476"
             inkscape:connector-curvature="0" /></g><g
           id="g478"
           transform="translate(262.8651,337.6354)"
           style="fill:#ffffff"><path
             d="m 0,0 c -1.23,0 -2.226,0.997 -2.226,2.226 v 31.912 c 0,1.23 0.996,2.227 2.226,2.227 1.23,0 2.226,-0.997 2.226,-2.227 V 2.226 C 2.226,0.997 1.23,0 0,0"
             style="fill:#ffffff;fill-opacity:1;fill-rule:nonzero;stroke:none"
             id="path480"
             inkscape:connector-curvature="0" /></g><g
           id="g482"
           transform="translate(269.7292,337.6354)"
           style="fill:#ffffff"><path
             d="m 0,0 c -1.23,0 -2.226,0.997 -2.226,2.226 v 31.912 c 0,1.23 0.996,2.227 2.226,2.227 1.23,0 2.226,-0.997 2.226,-2.227 V 2.226 C 2.226,0.997 1.23,0 0,0"
             style="fill:#ffffff;fill-opacity:1;fill-rule:nonzero;stroke:none"
             id="path484"
             inkscape:connector-curvature="0" /></g><g
           id="g486"
           transform="translate(276.5943,337.6354)"
           style="fill:#ffffff"><path
             d="m 0,0 c -1.23,0 -2.226,0.997 -2.226,2.226 v 31.912 c 0,1.23 0.996,2.227 2.226,2.227 1.23,0 2.226,-0.997 2.226,-2.227 V 2.226 C 2.226,0.997 1.23,0 0,0"
             style="fill:#ffffff;fill-opacity:1;fill-rule:nonzero;stroke:none"
             id="path488"
             inkscape:connector-curvature="0" /></g><g
           id="g490"
           transform="translate(283.4595,337.6354)"
           style="fill:#ffffff"><path
             d="m 0,0 c -1.23,0 -2.226,0.997 -2.226,2.226 v 31.912 c 0,1.23 0.996,2.227 2.226,2.227 1.23,0 2.226,-0.997 2.226,-2.227 V 2.226 C 2.226,0.997 1.23,0 0,0"
             style="fill:#ffffff;fill-opacity:1;fill-rule:nonzero;stroke:none"
             id="path492"
             inkscape:connector-curvature="0" /></g><g
           id="g494"
           transform="translate(290.3235,337.6354)"
           style="fill:#ffffff"><path
             d="m 0,0 c -1.23,0 -2.226,0.997 -2.226,2.226 v 31.912 c 0,1.23 0.996,2.227 2.226,2.227 1.23,0 2.226,-0.997 2.226,-2.227 V 2.226 C 2.226,0.997 1.23,0 0,0"
             style="fill:#ffffff;fill-opacity:1;fill-rule:nonzero;stroke:none"
             id="path496"
             inkscape:connector-curvature="0" /></g><g
           id="g498"
           transform="translate(297.1887,337.6354)"
           style="fill:#ffffff"><path
             d="m 0,0 c -1.23,0 -2.226,0.997 -2.226,2.226 v 31.912 c 0,1.23 0.996,2.227 2.226,2.227 1.23,0 2.226,-0.997 2.226,-2.227 V 2.226 C 2.226,0.997 1.23,0 0,0"
             style="fill:#ffffff;fill-opacity:1;fill-rule:nonzero;stroke:none"
             id="path500"
             inkscape:connector-curvature="0" /></g><g
           id="g502"
           transform="translate(304.0538,337.6354)"
           style="fill:#ffffff"><path
             d="m 0,0 c -1.23,0 -2.226,0.997 -2.226,2.226 v 31.912 c 0,1.23 0.996,2.227 2.226,2.227 1.23,0 2.226,-0.997 2.226,-2.227 V 2.226 C 2.226,0.997 1.23,0 0,0"
             style="fill:#ffffff;fill-opacity:1;fill-rule:nonzero;stroke:none"
             id="path504"
             inkscape:connector-curvature="0" /></g><g
           id="g506"
           transform="translate(310.9179,337.6354)"
           style="fill:#ffffff"><path
             d="m 0,0 c -1.23,0 -2.226,0.997 -2.226,2.226 v 31.912 c 0,1.23 0.996,2.227 2.226,2.227 1.23,0 2.226,-0.997 2.226,-2.227 V 2.226 C 2.226,0.997 1.23,0 0,0"
             style="fill:#ffffff;fill-opacity:1;fill-rule:nonzero;stroke:none"
             id="path508"
             inkscape:connector-curvature="0" /></g><g
           id="g510"
           transform="translate(258.2835,295.0196)"
           style="fill:#ffffff" /></g></g></g></svg>