<?xml version="1.0" encoding="utf-8"?>
<!-- Generator: Adobe Illustrator 18.0.0, SVG Export Plug-In . SVG Version: 6.00 Build 0)  -->
<!DOCTYPE svg PUBLIC "-//W3C//DTD SVG 1.1//EN" "http://www.w3.org/Graphics/SVG/1.1/DTD/svg11.dtd">
<svg version="1.1" id="Layer_3" xmlns="http://www.w3.org/2000/svg" xmlns:xlink="http://www.w3.org/1999/xlink" x="0px" y="0px"
	 viewBox="0 0 512 512" style="enable-background:new 0 0 512 512;" xml:space="preserve">
<g>
	<radialGradient id="SVGID_1_" cx="256" cy="256" r="230" gradientUnits="userSpaceOnUse">
		<stop  offset="0" style="stop-color:#1ACDFB"/>
		<stop  offset="1" style="stop-color:#1F77F3"/>
	</radialGradient>
	<radialGradient id="SVGID_2_" cx="256" cy="256" r="230.5" gradientUnits="userSpaceOnUse">
		<stop  offset="0" style="stop-color:#1ACDFB"/>
		<stop  offset="1" style="stop-color:#1F77F3"/>
	</radialGradient>
	<path style="fill:url(#SVGID_1_);stroke:url(#SVGID_2_);stroke-miterlimit:10;" d="M446,486H66c-22.1,0-40-17.9-40-40V66
		c0-22.1,17.9-40,40-40h380c22.1,0,40,17.9,40,40v380C486,468.1,468.1,486,446,486z"/>
	<path style="fill:#FFFFFF;" d="M486,323.2c-0.6-0.2-1.1-0.3-1.7-0.4L486,304v-25.9l-4,44.5c-0.1,0-0.1,0-0.2,0c-0.2,0-0.5,0-0.7,0
		l-12.2-100c4.6-1,8.3-4.7,9.3-9.4l7.8,0.9v-2.2l-7.5-0.8c0-0.1,0-0.1,0-0.2c0-5.1-3.1-9.4-7.6-11.3l15.1-50.3v-8l-17.3,57.6
		c-0.8-0.1-1.6-0.2-2.4-0.2c-1.6,0-3.2,0.3-4.7,0.9L391.1,66.7c2.4-1.6,4.4-4,5.3-6.9l83.4,18.6c-0.6-0.9-1.1-1.8-1.7-2.8
		l-81.2-18.1c0.1-0.6,0.1-1.1,0.1-1.7c0-7.1-5.7-12.9-12.9-12.9c-2.6,0-5.2,0.8-7.2,2.2L354.1,26h-3.6L375,46.6
		c-1.7,1.7-3,3.9-3.6,6.4l-97.3-12.7L279,26h-2.4l-4.8,14.1l-68.1-8.8c0-0.2,0-0.6,0-0.8c0-1.5-0.3-3-0.7-4.4h-29.7
		c-0.1,0.4-0.2,0.9-0.3,1.3L162.7,26h-18.9l29.1,3.7c0,0.2,0,0.6,0,0.8c0,2.1,0.5,4.1,1.1,5.9L77,85.1c-2.4-4-6.5-6.9-11.5-7.5
		L67.2,40c-0.8,0.6-1.6,1.1-2.4,1.7l-1.6,35.8c-8.3,0.1-14.9,7-14.9,15.4c0,4,1.5,7.6,4,10.3L26,130.7v3.5L54,105
		c2.1,1.7,4.6,2.9,7.3,3.3L52,214.1c-0.1,0-0.1,0-0.2,0c-3.2,0-6.1,0.9-8.6,2.6L26,194.6v3.6L41.3,218c-3.1,2.9-5.2,6.9-5.2,11.5
		c0,4.8,2.2,9.1,5.5,11.8L26,263.2v4l17.6-24.4c2.4,1.5,5.2,2.3,8,2.3c0.1,0,0.3,0,0.5,0l12.3,118.5c-2.5,0.5-4.8,1.5-6.8,3
		L26,331.7v3.5l29.9,32.9c-2.6,2.8-4.2,6.5-4.2,10.7c0,8.4,6.7,15.2,14.9,15.5v64.3c-1.4,0-2.9,0.2-4.1,0.7L26,368.5v6.2l34.3,85.4
		c-1.5,0.7-2.9,1.7-4,2.9c7.2,6.5,15.5,12.5,24.7,17.9c1-2.1,1.7-4.5,1.7-7c0-2.1-0.5-4-1.1-5.9l62-30.5c2.1,3.2,5.6,5.4,9.8,5.4
		c1.4,0,2.6-0.2,3.9-0.7L178,486h2.6l-21.4-44.9c2.4-1.5,4.2-3.8,5.1-6.5l61.5,11.7l-8.1,39.7h2.4l8-39.2l51.1,9.8
		c-0.1,0.6-0.1,1.1-0.1,1.7c0,3.8,1.4,7.3,3.7,10L264.7,486h3.2l16.5-16.1c2.8,2.4,6.3,3.9,10.2,3.9c6.7,0,12.3-4.1,14.5-10.1
		l40.9,11.9c-0.2,1-0.3,2.2-0.3,3.2c0,1.7,0.2,3.3,0.8,4.8l-5.7,2.4h34.5c0.4-0.8,0.7-1.6,0.9-2.5l12.6,2.5h11.8l-24-4.8
		c0.1-0.6,0.1-1.3,0.1-1.8c0-4.4-1.8-8.4-4.8-11.1l38.6-46.6l46.3,37.1c0.6-0.6,1-1.1,1.6-1.7L416,419.9l57.1-69
		c2.5,1.8,5.6,2.9,9,2.9c1,0,2-0.1,3-0.3l1,3.6v-33.9H486z M469.2,347l-59,49.1c-1.5-2.1-3.4-3.9-5.9-5.1l24.7-70.4l38,12.5
		c-0.5,1.5-0.8,3.1-0.8,4.7C466.3,341.4,467.3,344.5,469.2,347z M255.6,355.3L373.4,307c0.5,0.7,1,1.4,1.7,2l-42.4,77.5l-76.9-25.1
		c0.2-0.8,0.3-1.7,0.3-2.6C256.1,357.4,255.8,356.3,255.6,355.3z M66.8,226.5l31.6-8.7l12.6,43.7c-3,1-5.5,2.9-7.6,5.2l-38.8-28.9
		c1.5-2.4,2.4-5.3,2.4-8.3C67.2,228.5,67.1,227.5,66.8,226.5z M145.7,102.4l103-16.9c0.7,2.3,2.1,4.2,4,5.6l-42.8,82.2
		c-1.8-0.8-3.9-1.3-6.1-1.3c-3.4,0-6.8,1.1-9.3,3.1l-53.2-60.5c2.8-2.8,4.5-6.7,4.5-10.9C145.8,103.3,145.8,102.9,145.7,102.4z
		 M454.1,210.4l-76.5,4.8l-1.1-35.1c4.9-0.6,9.2-3.3,11.6-7.5l66.8,33.6C454.5,207.5,454.2,208.9,454.1,210.4z M457.1,218.9
		l-73.6,78.5c-0.9-0.7-2-1-3.1-1.1l-2.6-78.7l76.5-4.8C454.6,215.1,455.6,217.2,457.1,218.9z M378.1,296.2c-1.5,0.3-2.8,1-3.8,2.1
		l-100-69c0.9-1.6,1.4-3.4,1.5-5.4l99.8-6.3L378.1,296.2z M131.1,267.4l62.9-67.7c2.5,2.1,5.9,3.3,9.3,3.4l4.7,88.5
		c-5.6,0.7-10.3,4.5-12.4,9.6l-61.2-19.4c0.2-1.1,0.3-2.4,0.3-3.6C134.9,274.2,133.5,270.4,131.1,267.4z M205.8,203
		c4.4-0.6,8.3-3,10.7-6.4l36.7,21.9c-0.7,1.5-1.1,3.2-1.1,5.1c0,3.8,1.7,7.1,4.5,9.3l-39,60.5c-2.1-1.1-4.5-1.8-7.1-1.8L205.8,203z
		 M217.6,194.6c1-2.1,1.6-4.5,1.6-7c0.1-0.3,0.1-0.6,0.1-0.9l41.8-5.6l1.1,30.8c-3.2,0.5-6.1,2.2-7.9,4.7L217.6,194.6z M258.5,234.1
		c0.8,0.5,1.7,0.7,2.5,0.9l-10.3,70l-25.1,0.6c-0.5-4.5-2.8-8.3-6.1-10.9L258.5,234.1z M263.3,235.4c0.2,0,0.3,0,0.6,0
		c3.7,0,6.9-1.6,9.1-4.2l100,69c-0.3,0.7-0.6,1.4-0.6,2.1l-119.3,2.6L263.3,235.4z M263.4,180.7l32.3-4.4l-25.9,36.9
		c-1.5-0.9-3.3-1.4-5.2-1.5L263.4,180.7z M275.6,221.7c-0.5-2.9-2-5.3-4-7.1l27.1-38.6l61-8.2c1.4,6.8,7.3,11.9,14.6,12.3l1.1,35.2
		L275.6,221.7z M359.4,164.7c0,0.3,0,0.6,0,0.9l-58.9,7.9l28.1-40l33,23.2C360.2,159,359.4,161.8,359.4,164.7z M297.5,173.8
		l-34.1,4.6l-3.3-85.7c2.4-0.3,4.5-1.5,6-3.2l60.9,42.7L297.5,173.8z M261,178.8l-42,5.6c-0.9-4.2-3.4-7.8-7-10l42.8-82.2
		c0.9,0.3,1.8,0.6,2.9,0.7L261,178.8z M192.8,176.7c-0.3,0.3-0.8,0.8-1.1,1.3l-62.6-42.4l1.3-16.4c3.4,0,6.8-1.1,9.3-3.1
		L192.8,176.7z M190.4,179.9c-1.3,2.3-2.1,4.9-2.1,7.7c0,1,0.1,2.1,0.3,3l-65.1,17.9l5.3-70.2L190.4,179.9z M189.2,192.8
		c0.7,2,1.8,3.8,3.2,5.3l-62.8,67.5c-2.6-2.6-6.1-4.4-10-4.9l3.8-49.7L189.2,192.8z M117.4,260.5c-0.1,0-0.1,0-0.2,0
		c-1.3,0-2.5,0.1-3.8,0.5l-12.6-43.7l20.3-5.6L117.4,260.5z M117.1,296.1c1.7,0,3.3-0.2,4.9-0.7l10.7,48.3l-53,25.9
		c-1-1.5-2.4-2.8-3.9-3.8l34.6-71.1C112.4,295.7,114.7,296.1,117.1,296.1z M124.2,294.6c2.9-1.3,5.4-3.3,7.3-5.9l49.4,31.3l-46,22.6
		L124.2,294.6z M132.7,286.8c0.5-0.9,0.9-1.8,1.1-2.8l61.1,19.3c-0.2,1.1-0.5,2.3-0.5,3.6c0,2.1,0.5,4,1.1,5.7l-12.4,6.1
		L132.7,286.8z M196.8,314.8c1.4,2.4,3.4,4.4,5.9,5.7l-3.7,8.2l-13.3-8.5L196.8,314.8z M204.7,321.6c1.7,0.6,3.4,0.9,5.4,0.9
		c2.8,0,5.3-0.7,7.5-2l18.8,28.7c-0.7,0.6-1.4,1.3-2,2.1L200.9,330L204.7,321.6z M219.5,319.3c3.4-2.6,5.7-6.8,6.1-11.5l24.8-0.6
		l-5.9,39.4c-0.2,0-0.5,0-0.6,0c-2.1,0-3.9,0.5-5.6,1.4L219.5,319.3z M252.7,307.3l119.6-2.6c0,0.1,0,0.2,0.1,0.3l-117.8,48.2
		c-1.6-3-4.4-5.3-7.8-6.1L252.7,307.3z M377.1,310c0.8,0.2,1.6,0.5,2.4,0.5l13.1,79.1c-6.2,1.4-11.1,6.2-12.6,12.3l-45.1-14.7
		L377.1,310z M381.8,310.1c1.8-0.6,3.2-2,4.1-3.6l40.9,13.4l-24.6,70.2c-1.8-0.7-3.8-1-5.9-1c-0.5,0-1,0-1.5,0.1L381.8,310.1z
		 M427.6,317.8l-41-13.5c0-0.3,0.1-0.7,0.1-1c0-1.6-0.6-3.2-1.5-4.4l73.7-78.7c0.7,0.6,1.5,1,2.3,1.4L427.6,317.8z M384.2,68.8
		c1.7,0,3.4-0.3,4.9-1l70.5,132.7c-1.5,0.9-2.6,2.2-3.6,3.7l-66.8-33.5c0.8-1.8,1.1-3.8,1.1-6c0-7.7-5.6-14.1-13.1-15.3L384.2,68.8z
		 M376.2,66c1.6,1.3,3.6,2.2,5.7,2.5l-6.8,80.6H375c-4.8,0-9.2,2.2-11.9,5.6l-33-23.2L376.2,66z M371.8,59.7
		c0.6,1.7,1.5,3.3,2.6,4.7L328,130.3l-60.7-42.7c0.8-1.4,1.3-3.1,1.3-4.8c0-0.3,0-0.7,0-0.9L371.8,59.7z M273.4,42.6l97.7,12.7
		c0,0.2,0,0.3,0,0.6c0,0.6,0,1,0.1,1.6L267.9,79.7c-0.9-2.5-2.8-4.7-5.2-5.9L273.4,42.6z M203.5,33.4l67.6,8.8L260.7,73
		c-0.7-0.1-1.4-0.2-2.2-0.2c-2.9,0-5.5,1.3-7.3,3.1l-49.8-37.3C202.3,37.1,203.1,35.4,203.5,33.4z M188.3,45.8
		c4.7,0,8.8-2.1,11.7-5.3l49.8,37.3c-0.9,1.5-1.4,3.2-1.4,5.1c0,0.1,0,0.3,0,0.5l-103,16.9c-0.7-3.1-2.4-5.7-4.6-7.8l38.8-49.3
		C182.1,44.8,185.1,45.8,188.3,45.8z M175,38.2c0.8,1.3,1.7,2.4,2.9,3.4l-38.8,49.3c-2.5-1.7-5.5-2.6-8.7-2.6
		c-7.3,0-13.4,5.1-15,11.8l-36.1-6c0-0.5,0.1-0.9,0.1-1.4c0-2.1-0.5-4.1-1.1-5.9L175,38.2z M78.8,96.6l36.1,6c0,0.5-0.1,0.9-0.1,1.4
		c0,7.8,5.7,14.2,13.2,15.3l-1.1,15l-49.7-33.6C77.9,99.3,78.4,97.9,78.8,96.6z M75.9,102.5l50.8,34.3l-5.5,72.3l-21.1,5.9L69,107.5
		C71.8,106.4,74.2,104.7,75.9,102.5z M63.5,108.4c0.1,0,0.1,0,0.2,0c1,0,2.2-0.1,3.2-0.3l31,107.6l-31.6,8.7
		c-1.8-5.3-6.4-9.2-12.1-10.1L63.5,108.4z M66.7,363.3L54.4,244.8c3.6-0.7,6.7-2.5,9-5.1l38.8,28.9c-1.8,2.8-2.9,6.1-2.9,9.6
		c0,6.7,3.7,12.4,9,15.5l-34.6,71c-2-0.9-4.2-1.5-6.5-1.5C67.1,363.3,66.8,363.3,66.7,363.3z M142.5,435.6l-62,30.7
		c-2.6-4.4-7.3-7.5-12.7-7.6v-64.4c4.9-0.2,9.3-2.6,11.9-6.4l63.3,38.8c-0.7,1.5-1.1,3.2-1.1,4.9C141.8,433,142,434.4,142.5,435.6z
		 M144.2,424.7L81,385.9c1.1-2.2,1.7-4.6,1.7-7.1s-0.7-5.1-1.7-7.1l52.2-25.6l16.5,74.6C147.4,421.4,145.6,422.9,144.2,424.7z
		 M157,420.7c-1.1-0.3-2.4-0.6-3.7-0.6c-0.5,0-0.9,0-1.4,0.1L135.3,345l47.9-23.4L198,331L157,420.7z M226.2,444.4l-61.5-11.7
		c0-0.3,0-0.7,0-1c0-4.2-2.3-7.9-5.7-9.9l40.9-89.6l33.3,21.1c-0.8,1.6-1.3,3.4-1.3,5.4c0,5.7,4,10.6,9.4,11.7L226.2,444.4z
		 M279.6,454.6l-51.1-9.8l15.2-74.1c0.1,0,0.2,0,0.3,0c1.5,0,3-0.3,4.4-0.8l38.1,75.4C283.2,447.3,280.6,450.7,279.6,454.6z
		 M294.5,443.1c-2.1,0-4.1,0.5-6,1.1l-38.1-75.4c2.1-1.3,3.7-3.1,4.6-5.4l76.5,25l-30.7,56C299,443.6,296.8,443.1,294.5,443.1z
		 M302.9,445.6l30.9-56.4l45.8,14.9c-0.1,0.6-0.1,1.3-0.1,1.8c0,3.2,0.9,6.1,2.4,8.6L308,450.7C306.7,448.7,305,446.9,302.9,445.6z
		 M365.1,463.8c-6.7,0-12.3,4.1-14.5,10.1L309.7,462c0.2-1,0.3-2.2,0.3-3.2c0-2.1-0.3-3.9-1.1-5.7l74.3-36.2c1.7,2.2,4,3.9,6.7,5.1
		l-19.4,43.1C368.7,464.1,367,463.8,365.1,463.8z M374.1,466.6c-0.5-0.3-1-0.7-1.5-1l19.5-43.3c1.4,0.3,2.9,0.6,4.4,0.6
		c5.1,0,9.6-2.2,12.7-5.7l3.4,2.8L374.1,466.6z M414.1,418.3l-3.4-2.8c1.8-2.6,2.9-5.9,2.9-9.4c0-2.9-0.7-5.5-2-7.9l59.2-49.4
		c0.1,0.1,0.2,0.2,0.5,0.5L414.1,418.3z M467.9,331.2l-38.1-12.6l33.6-96c0.9,0.2,2,0.3,2.9,0.3c0.1,0,0.2,0,0.3,0l12.2,100
		C474,323.8,470.1,327,467.9,331.2z"/>
	<path style="opacity:0.4;enable-background:new    ;" d="M446,41H66c-22.1,0-40,17.9-40,40v365c0,22.1,17.9,40,40,40h380
		c22.1,0,40-17.9,40-40V81C486,58.9,468.1,41,446,41z M461,461c0,8.3-6.7,15-15,15H66c-8.3,0-15-6.7-15-15V81c0-8.3,6.7-15,15-15
		h380c8.3,0,15,6.7,15,15V461z"/>
	<path style="fill:#F4F4F4;" d="M446,51c8.3,0,15,6.7,15,15v380c0,8.3-6.7,15-15,15H66c-8.3,0-15-6.7-15-15V66c0-8.3,6.7-15,15-15
		H446 M446,26H66c-22.1,0-40,17.9-40,40v380c0,22.1,17.9,40,40,40h380c22.1,0,40-17.9,40-40V66C486,43.9,468.1,26,446,26L446,26z"/>
	<g>
		<path style="fill:#004FC1;" d="M376.4,132.3H135.6c-6.8,0-12.5,5.6-12.5,12.5v167.7c0,6.8,5.6,12.5,12.5,12.5h29.7
			c6.8,0,12.5,5.6,12.5,12.5v18.4v11.2c0,6.8,5.6,12.5,12.5,12.5h131.5c6.8,0,12.5-5.6,12.5-12.5v-11.2v-18.4
			c0-6.8,5.6-12.5,12.5-12.5h29.7c6.8,0,12.5-5.6,12.5-12.5V144.8C388.6,137.9,383.1,132.3,376.4,132.3z"/>
		<path style="fill:#2B2B2B;" d="M376.4,132.3H135.6c-6.8,0-12.5,5.6-12.5,12.5v140.3c0,6.8,5.6,12.5,12.5,12.5h29.7
			c6.8,0,12.5,5.6,12.5,12.5v18.4v9v2.3c0,6.8,5.6,12.5,12.5,12.5h131.5c6.8,0,12.5-5.6,12.5-12.5v-2.3v-9v-18.4
			c0-6.8,5.6-12.5,12.5-12.5h29.7c6.8,0,12.5-5.6,12.5-12.5V144.8C388.6,137.9,383.1,132.3,376.4,132.3z"/>
	</g>
</g>
</svg>
