<?xml version="1.0" encoding="utf-8"?>
<!-- Generator: Adobe Illustrator 18.0.0, SVG Export Plug-In . SVG Version: 6.00 Build 0)  -->
<!DOCTYPE svg PUBLIC "-//W3C//DTD SVG 1.1//EN" "http://www.w3.org/Graphics/SVG/1.1/DTD/svg11.dtd">
<svg version="1.1" id="Layer_3" xmlns="http://www.w3.org/2000/svg" xmlns:xlink="http://www.w3.org/1999/xlink" x="0px" y="0px"
	 viewBox="0 0 512 512" style="enable-background:new 0 0 512 512;" xml:space="preserve">
<g>
	<polygon style="fill:#E2E2E2;" points="313,430.9 308.2,382.7 203.8,382.7 199,430.9 	"/>
	<rect x="174" y="429.6" style="fill:#969696;" width="164.1" height="6.4"/>
	<g>
		<g>
			<radialGradient id="SVGID_1_" cx="262.7633" cy="587.3285" r="636.7156" gradientUnits="userSpaceOnUse">
				<stop  offset="1.933882e-02" style="stop-color:#FAAD1C"/>
				<stop  offset="0.3892" style="stop-color:#F26731"/>
				<stop  offset="0.7239" style="stop-color:#E71670"/>
				<stop  offset="1" style="stop-color:#652F8C"/>
			</radialGradient>
			<path style="fill:url(#SVGID_1_);" d="M464.1,103.5H47.9c-1.2,0-2,0.9-2,2v247.7c0,1.2,0.9,2,2,2h416.2c1.2,0,2-0.9,2-2V105.5
				C466.1,104.3,465.3,103.5,464.1,103.5z"/>
			<path style="fill:#0E0E0E;" d="M471.9,76.1H40.1c-7.8,0-14.1,6.2-14.1,14.1v278.7c0,7.8,6.2,14.1,14.1,14.1H472
				c7.8,0,14.1-6.2,14.1-14.1V90.1C486,82.3,479.8,76.1,471.9,76.1z M466.1,353.2c0,1.2-0.9,2-2,2H47.9c-1.2,0-2-0.9-2-2V105.5
				c0-1.2,0.9-2,2-2h416.2c1.2,0,2,0.9,2,2V353.2z"/>
		</g>
		
			<linearGradient id="SVGID_2_" gradientUnits="userSpaceOnUse" x1="258" y1="284.65" x2="486" y2="284.65" gradientTransform="matrix(1 0 0 -1 0 514)">
			<stop  offset="0" style="stop-color:#FFFFFF"/>
			<stop  offset="1" style="stop-color:#FFFFFF;stop-opacity:0"/>
		</linearGradient>
		<path style="opacity:0.4;fill:url(#SVGID_2_);enable-background:new    ;" d="M471.9,382.7c7.8,0,14.1-6.2,14.1-14.1V90.1
			c0-7.8-6.2-14.1-14.1-14.1H258L471.9,382.7z"/>
	</g>
</g>
<path style="fill:#FFFFFF;" d="M256,148.5c-42.5,0-76.9,34.4-76.9,76.9c0,24.2,11.2,45.8,28.6,59.9l-9.8,17.1H256
	c42.5,0,76.9-34.4,76.9-76.9S298.5,148.5,256,148.5z M256,171c5.9,0,10.7,4.8,10.7,10.7c0,5.9-4.8,10.7-10.7,10.7
	s-10.7-4.8-10.7-10.7C245.3,175.7,250.1,171,256,171z M297.9,196.8l-29.6,7.8v24.7c0,0,0,0,0,0v46.3c0,2.4-1.9,4.3-4.3,4.3
	s-4.3-1.9-4.3-4.3v-43.7h-7.3v43.7c0,2.4-1.9,4.3-4.3,4.3s-4.3-1.9-4.3-4.3v-46.3v0v-24.7l-29.6-7.8c-2-0.5-3.3-2.3-2.8-4l0.1-0.3
	c0.4-1.7,2.4-2.6,4.4-2.1l29.7,7.8c0.3-0.1,20.8-0.1,21.1,0l29.7-7.8c2-0.5,4,0.4,4.4,2.1l0.1,0.3
	C301.1,194.5,299.9,196.3,297.9,196.8z"/>
</svg>
