<?xml version="1.0" encoding="utf-8"?>
<!-- Generator: Adobe Illustrator 22.0.1, SVG Export Plug-In . SVG Version: 6.00 Build 0)  -->
<svg version="1.1" id="Layer_1" xmlns:serif="http://www.serif.com/"
	 xmlns="http://www.w3.org/2000/svg" xmlns:xlink="http://www.w3.org/1999/xlink" x="0px" y="0px" viewBox="0 0 512 512"
	 style="enable-background:new 0 0 512 512;" xml:space="preserve">
<g id="g928" transform="matrix(0.986517,0,0,0.986517,376.851,327.941)">
	<path id="rect914_1_" style="fill:#FFF6D2;" d="M-257.002-306.068c-31.011,0-56.289,25.277-56.289,56.287v353.713
		c0,31.011,25.278,56.287,56.289,56.287h269c31.01,0,56.287-25.276,56.287-56.287v-353.713c0-31.01-25.277-56.287-56.287-56.287
		H-257.002z"/>
	<linearGradient id="SVGID_1_" gradientUnits="userSpaceOnUse" x1="-317.9533" y1="122.5269" x2="67.678" y2="-263.1045">
		<stop  offset="0" style="stop-color:#FFEC15"/>
		<stop  offset="0.2979" style="stop-color:#C3FFBF"/>
		<stop  offset="0.6721" style="stop-color:#2A91FF"/>
		<stop  offset="1" style="stop-color:#C86AFF"/>
	</linearGradient>
	<path style="fill:url(#SVGID_1_);" d="M11.998-285.794c19.858,0,36.014,16.156,36.014,36.014v353.713
		c0,19.858-16.156,36.014-36.014,36.014h-269c-19.859,0-36.016-16.156-36.016-36.014v-353.713c0-19.858,16.157-36.014,36.016-36.014
		H11.998 M11.998-306.068h-269c-31.011,0-56.289,25.277-56.289,56.287v353.713c0,31.011,25.278,56.287,56.289,56.287h269
		c31.01,0,56.287-25.276,56.287-56.287v-353.713C68.285-280.791,43.008-306.068,11.998-306.068L11.998-306.068z"/>
</g>
<g>
	<g>
		<circle style="fill:#F1C50E;" cx="142.115" cy="157.343" r="27.143"/>
		<path style="fill:#BABABA;" d="M383.456,170.915H209.599c-7.495,0-13.571-6.076-13.571-13.571l0,0
			c0-7.495,6.076-13.571,13.571-13.571h173.857c7.495,0,13.571,6.076,13.571,13.571l0,0
			C397.027,164.838,390.951,170.915,383.456,170.915z"/>
	</g>
	<g>
		<circle style="fill:#51D88B;" cx="142.115" cy="223.114" r="27.143"/>
		<path style="fill:#BABABA;" d="M383.456,236.686H209.599c-7.495,0-13.571-6.076-13.571-13.571l0,0
			c0-7.495,6.076-13.571,13.571-13.571h173.857c7.495,0,13.571,6.076,13.571,13.571l0,0
			C397.027,230.61,390.951,236.686,383.456,236.686z"/>
	</g>
	<g>
		<circle style="fill:#2D98E0;" cx="142.115" cy="288.886" r="27.143"/>
		<path style="fill:#BABABA;" d="M383.456,302.457H209.599c-7.495,0-13.571-6.076-13.571-13.571l0,0
			c0-7.495,6.076-13.571,13.571-13.571h173.857c7.495,0,13.571,6.076,13.571,13.571l0,0
			C397.027,296.381,390.951,302.457,383.456,302.457z"/>
	</g>
	<g>
		<circle style="fill:#9C56B8;" cx="142.115" cy="354.657" r="27.143"/>
		<path style="fill:#BABABA;" d="M383.456,368.228H209.599c-7.495,0-13.571-6.076-13.571-13.571l0,0
			c0-7.495,6.076-13.571,13.571-13.571h173.857c7.495,0,13.571,6.076,13.571,13.571l0,0
			C397.027,362.152,390.951,368.228,383.456,368.228z"/>
	</g>
</g>
</svg>
