<?xml version="1.0" encoding="utf-8"?>
<!-- Generator: Adobe Illustrator 22.0.1, SVG Export Plug-In . SVG Version: 6.00 Build 0)  -->
<svg version="1.1" id="Layer_1" xmlns="http://www.w3.org/2000/svg" xmlns:xlink="http://www.w3.org/1999/xlink" x="0px" y="0px"
	 viewBox="0 0 512 512" style="enable-background:new 0 0 512 512;" xml:space="preserve">
<circle style="fill:#E6E6E6;" cx="256" cy="256" r="230"/>
<g>
	<path style="opacity:0.4;enable-background:new    ;" d="M388,311.5L124,314c-5.523,0-10-4.477-10-10v-87.5c0-5.523,4.477-10,10-10
		l264-2.5c5.523,0,10,4.477,10,10v87.5C398,307.023,393.523,311.5,388,311.5z"/>
	<path style="fill:#FFFFFF;" d="M388,305.5L124,308c-5.523,0-10-4.477-10-10v-87.5c0-5.523,4.477-10,10-10l264-2.5
		c5.523,0,10,4.477,10,10v87.5C398,301.023,393.523,305.5,388,305.5z"/>
</g>
<polygon points="245.152,141.401 265.8,162.047 176.388,251.458 176.379,251.449 148.2,259 155.75,230.821 155.742,230.812 "/>
</svg>
