<?xml version="1.0" encoding="utf-8"?>
<!-- Generator: Adobe Illustrator 22.0.1, SVG Export Plug-In . SVG Version: 6.00 Build 0)  -->
<svg version="1.1" id="Layer_1" xmlns:serif="http://www.serif.com/"
	 xmlns="http://www.w3.org/2000/svg" xmlns:xlink="http://www.w3.org/1999/xlink" x="0px" y="0px" viewBox="0 0 512 512"
	 enable-background="new 0 0 512 512" xml:space="preserve">
<g>
	<g transform="matrix(1.02081,0,0,1.02081,-10.7384,-7.8066)">
		<path fill="#00AAFF" d="M374.32,33.118c38.277,0.182,75.71,21.15,95.795,53.967c10.688,17.464,16.398,37.929,16.495,58.323
			c0.12,75.347,0.12,150.693,0,226.04c-0.182,38.277-21.15,75.71-53.967,95.795c-17.464,10.688-37.929,16.398-58.323,16.495
			c-75.347,0.12-150.693,0.12-226.04,0c-37.666-0.179-74.805-20.566-95.078-52.813c-11.118-17.683-17.112-38.539-17.212-59.477
			c-0.12-75.347-0.12-150.693,0-226.04c0.182-38.277,21.15-75.71,53.967-95.795c17.464-10.688,37.929-16.398,58.323-16.495
			C223.627,32.998,298.973,32.998,374.32,33.118z M148.66,52.71c-31.389,0.049-61.948,16.907-78.722,43.411
			c-9.274,14.653-14.273,32-14.356,49.35c-0.119,75.405-0.357,150.812,0.002,226.216c0.249,31.474,17.604,62.435,44.84,78.991
			c14.273,8.676,30.945,13.334,47.617,13.467c75.505,0.359,151.013,0.359,226.518,0c38.173-0.305,74.524-25.839,87.294-62.423
			c3.367-9.645,5.082-19.876,5.164-30.035c0.359-75.505,0.359-151.013,0-226.518c-0.307-38.392-26.244-75.045-63.231-87.572
			c-9.588-3.247-19.715-4.887-29.846-4.887C298.847,52.709,223.753,52.71,148.66,52.71z"/>
	</g>
</g>
<g id="path280" transform="matrix(0.97216,0,0,0.97216,7.12712,100.257)">
	<path fill="#00AAFF" d="M345.127,76.078c-4.375-4.375-11.535-4.375-15.91,0l-80.592,80.592c-4.376,4.375-11.535,4.375-15.91,0
		l-49.932-49.932c-4.375-4.375-11.535-4.375-15.91,0l-27.918,27.918c-4.376,4.377-4.376,11.535,0,15.91l49.93,49.932l15.91,15.91
		l27.92,27.918c4.375,4.377,11.534,4.377,15.909,0l27.919-27.918c4.375-4.375,11.535-11.535,15.91-15.91l80.592-80.592
		c4.375-4.375,4.375-11.535,0-15.91L345.127,76.078z"/>
</g>
</svg>
