<?xml version="1.0" encoding="utf-8"?>
<!-- Generator: Adobe Illustrator 22.0.1, SVG Export Plug-In . SVG Version: 6.00 Build 0)  -->
<svg version="1.1" id="Layer_3" xmlns="http://www.w3.org/2000/svg" xmlns:xlink="http://www.w3.org/1999/xlink" x="0px" y="0px"
	 viewBox="0 0 512 512" style="enable-background:new 0 0 512 512;" xml:space="preserve">
<g>
	<g>
		
			<linearGradient id="SVGID_1_" gradientUnits="userSpaceOnUse" x1="46.2788" y1="540.6356" x2="276.9252" y2="141.1442" gradientTransform="matrix(0.866 -0.5 0.5 0.866 -54.3964 41.5817)">
			<stop  offset="0" style="stop-color:#FE9105"/>
			<stop  offset="1" style="stop-color:#FEDA38"/>
		</linearGradient>
		<path style="fill:url(#SVGID_1_);" d="M217.621,35.637L84.35,112.581c-23.749,13.712-38.379,39.052-38.379,66.475v153.888
			c0,27.423,14.63,52.763,38.379,66.475l133.271,76.944c23.749,13.712,53.009,13.712,76.758,0l133.271-76.944
			c23.749-13.712,38.379-39.052,38.379-66.475V179.056c0-27.423-14.63-52.763-38.379-66.475L294.379,35.637
			C270.63,21.926,241.37,21.926,217.621,35.637z"/>
	</g>
	<g>
		<path style="fill:#404041;" d="M217.621,35.637L84.35,112.581c-23.749,13.712-38.379,39.052-38.379,66.475v153.888
			c0,27.423,14.63,52.763,38.379,66.475l133.271,76.944c23.749,13.712,53.009,13.712,76.758,0l133.271-76.944
			c23.749-13.712,38.379-39.052,38.379-66.475V179.056c0-27.423-14.63-52.763-38.379-66.475L294.379,35.637
			C270.63,21.926,241.37,21.926,217.621,35.637z"/>
		<path style="fill:#5983FC;" d="M256,45.354c9.949,0,19.763,2.629,28.379,7.604l133.271,76.944
			c17.505,10.106,28.379,28.941,28.379,49.154v153.888c0,20.213-10.874,39.048-28.379,49.154l-133.271,76.944
			c-8.616,4.975-18.43,7.604-28.379,7.604s-19.763-2.629-28.379-7.604L94.35,382.098c-17.505-10.106-28.379-28.941-28.379-49.154
			V179.056c0-20.213,10.874-39.048,28.379-49.154l133.271-76.944C236.237,47.983,246.051,45.354,256,45.354 M256,25.354
			c-13.252,0-26.505,3.428-38.379,10.284L84.35,112.581c-23.749,13.712-38.379,39.051-38.379,66.475v153.888
			c0,27.423,14.63,52.763,38.379,66.475l133.271,76.944c11.875,6.856,25.127,10.284,38.379,10.284
			c13.252,0,26.505-3.428,38.379-10.284l133.271-76.944c23.749-13.712,38.379-39.051,38.379-66.475V179.056
			c0-27.423-14.63-52.763-38.379-66.475L294.379,35.637C282.505,28.781,269.252,25.354,256,25.354L256,25.354z"/>
	</g>
</g>
<g id="g92">
	<g id="g82">
		<path id="polygon76" style="fill:#D6D6D6;" d="M256,378.3l23.9-41.4L256,350.5V378.3z"/>
		<path id="path78" style="fill:#C4834D;" d="M256,133.7v216.8l23.9-13.6V139.7c0-3.3-2.6-6-6-6H256z"/>
		<path id="polygon80" style="fill:#FFFFFF;" d="M232.1,336.9l23.9,41.4v-27.7L232.1,336.9z"/>
	</g>
	<g id="g90">
		<path id="polygon84" style="fill:#FFE000;" d="M232.1,336.9l23.9,13.6v-199h-23.9V336.9z"/>
		<path id="path86" style="fill:#ADADAD;" d="M273.9,133.7H256v17.8h23.9v-11.8C279.9,136.3,277.3,133.7,273.9,133.7z"/>
		<path id="path88" style="fill:#FFFFFF;" d="M232.1,139.7v11.8H256v-17.8h-17.9C234.7,133.7,232.1,136.3,232.1,139.7z"/>
	</g>
</g>
</svg>
