<?xml version="1.0" encoding="utf-8"?>
<!-- Generator: Adobe Illustrator 22.0.1, SVG Export Plug-In . SVG Version: 6.00 Build 0)  -->
<svg version="1.1" id="Layer_1" xmlns="http://www.w3.org/2000/svg" xmlns:xlink="http://www.w3.org/1999/xlink" x="0px" y="0px"
	 viewBox="0 0 512 512" enable-background="new 0 0 512 512" xml:space="preserve">
<g>
	<path fill="#044872" d="M182.048,144.986c-6.347,6.347-11.903,13.184-16.673,20.389c50.779-33.614,119.847-28.058,164.577,16.673
		s50.287,113.798,16.673,164.577c7.205-4.769,14.042-10.326,20.389-16.673c51.077-51.077,51.077-133.889,0-184.966
		S233.125,93.909,182.048,144.986z"/>
	<path fill="#0092FF" d="M182.048,329.952c-44.73-44.73-50.287-113.798-16.673-164.577c-7.205,4.769-14.042,10.326-20.389,16.673
		c-51.077,51.077-51.077,133.889,0,184.966s133.889,51.077,184.966,0c6.347-6.347,11.903-13.184,16.673-20.389
		C295.846,380.239,226.778,374.682,182.048,329.952z"/>
	<path fill="#054BD8" d="M93.365,93.365c-89.821,89.821-89.821,235.449,0,325.269s235.449,89.821,325.269,0
		s89.821-235.449,0-325.269S183.186,3.545,93.365,93.365z M367.014,329.952c-6.347,6.347-13.184,11.903-20.389,16.673
		c-4.769,7.205-10.326,14.042-16.673,20.389c-51.077,51.077-133.889,51.077-184.966,0s-51.077-133.889,0-184.966
		c6.347-6.347,13.184-11.903,20.389-16.673c4.769-7.205,10.326-14.042,16.673-20.389c51.077-51.077,133.889-51.077,184.966,0
		S418.091,278.875,367.014,329.952z"/>
</g>
</svg>
