<?xml version="1.0" encoding="utf-8"?>
<!-- Generator: Adobe Illustrator 22.0.1, SVG Export Plug-In . SVG Version: 6.00 Build 0)  -->
<svg version="1.1" id="Layer_2_1_" xmlns="http://www.w3.org/2000/svg" xmlns:xlink="http://www.w3.org/1999/xlink" x="0px" y="0px"
	 viewBox="0 0 512 512" enable-background="new 0 0 512 512" xml:space="preserve">
<g>
	<g>
		<path fill="#248DFF" d="M400.473,486H111.527C64.487,486,26,447.513,26,400.473V111.527C26,64.487,64.487,26,111.527,26h288.945
			C447.513,26,486,64.487,486,111.527v288.945C486,447.513,447.513,486,400.473,486z"/>
		<path fill="#FFFFFF" d="M400.473,486.5H111.527c-47.436,0-86.027-38.592-86.027-86.027V111.527
			c0-47.436,38.592-86.027,86.027-86.027h288.945c47.436,0,86.027,38.592,86.027,86.027v288.945
			C486.5,447.908,447.908,486.5,400.473,486.5z M111.527,26.5C64.643,26.5,26.5,64.643,26.5,111.527v288.945
			c0,46.884,38.143,85.027,85.027,85.027h288.945c46.884,0,85.027-38.144,85.027-85.027V111.527
			c0-46.884-38.144-85.027-85.027-85.027H111.527z"/>
	</g>
	<g>
		<path fill="#2F93FF" d="M391.232,480.291c-1.03,1.03-269.434,1.03-270.464,0c-43.422,0-89.059-45.637-89.059-89.059
			c-1.03-1.03-1.03-269.434,0-270.464c0-43.422,45.637-89.059,89.059-89.059c1.03-1.03,269.434-1.03,270.464,0
			c43.422,0,89.059,45.637,89.059,89.059c1.03,1.03,1.03,269.434,0,270.464C480.291,434.654,434.654,480.291,391.232,480.291z"/>
		<path fill="#FFFFFF" d="M256,481.563c-59.248,0-129.618-0.148-135.232-0.84v0.067c-43.524,0-89.559-46.035-89.559-89.559h0.067
			c-0.692-5.614-0.84-75.984-0.84-135.232s0.148-129.618,0.84-135.232h-0.067c0-43.524,46.035-89.559,89.559-89.559v0.067
			c5.614-0.692,75.984-0.84,135.232-0.84s129.618,0.148,135.232,0.84v-0.067c43.523,0,89.559,46.035,89.559,89.559h-0.067
			c0.691,5.614,0.84,75.984,0.84,135.232s-0.148,129.618-0.84,135.232h0.067c0,43.523-46.035,89.559-89.559,89.559v-0.067
			C385.618,481.415,315.248,481.563,256,481.563z M121.022,479.838c6.662,0.86,263.324,0.858,269.956,0l0.047-0.047h0.207
			c43.038,0,88.559-45.521,88.559-88.559l0.047-0.254c0.859-6.632,0.859-263.293,0-269.956l-0.047-0.047v-0.207
			c0-43.038-45.521-88.559-88.559-88.559l-0.254-0.047c-6.632-0.859-263.294-0.859-269.956,0l-0.047,0.047h-0.207
			c-43.038,0-88.559,45.521-88.559,88.559l-0.047,0.254c-0.859,6.663-0.859,263.324,0,269.956l0.047,0.047v0.207
			c0,43.038,45.521,88.559,88.559,88.559L121.022,479.838z"/>
	</g>
	<g>
		<path fill="#3999FF" d="M381.991,474.582c-2.06,2.06-249.923,2.06-251.983,0c-39.803,0-92.591-52.788-92.591-92.591
			c-2.06-2.06-2.06-249.923,0-251.983c0-39.803,52.788-92.591,92.591-92.591c2.06-2.06,249.923-2.06,251.983,0
			c39.803,0,92.591,52.788,92.591,92.591c2.06,2.06,2.06,249.923,0,251.983C474.582,421.795,421.795,474.582,381.991,474.582z"/>
		<path fill="#FFFFFF" d="M256,476.628c-20.25,0-119.152-0.078-125.991-1.564v0.019c-40.021,0-93.091-53.07-93.091-93.091h0.019
			C35.45,375.151,35.373,276.25,35.373,256c0-20.25,0.077-119.152,1.563-125.991h-0.019c0-40.021,53.07-93.091,93.091-93.091v0.019
			C136.848,35.45,235.75,35.373,256,35.373c20.25,0,119.151,0.077,125.991,1.563v-0.019c40.021,0,93.091,53.07,93.091,93.091h-0.019
			c1.486,6.839,1.564,105.741,1.564,125.991c0,20.25-0.078,119.151-1.564,125.991h0.019c0,40.021-53.07,93.091-93.091,93.091v-0.019
			C375.151,476.55,276.25,476.628,256,476.628z M130.305,474.171c5.968,1.844,245.421,1.844,251.39,0l0.089-0.089h0.207
			c39.591,0,92.091-52.5,92.091-92.091v-0.207l0.089-0.089c1.844-5.969,1.844-245.422,0-251.39l-0.089-0.089v-0.207
			c0-39.59-52.5-92.091-92.091-92.091h-0.207l-0.089-0.089c-5.969-1.843-245.422-1.843-251.39,0l-0.089,0.089h-0.207
			c-39.59,0-92.091,52.5-92.091,92.091v0.207l-0.089,0.089c-1.843,5.968-1.843,245.422,0,251.39l0.089,0.089v0.207
			c0,39.591,52.5,92.091,92.091,92.091h0.207L130.305,474.171z"/>
	</g>
	<g>
		<path fill="#449FFF" d="M372.751,468.873c-3.09,3.09-230.412,3.09-233.502,0c-36.185,0-96.122-59.938-96.122-96.122
			c-3.09-3.09-3.09-230.412,0-233.502c0-36.185,59.938-96.122,96.122-96.122c3.09-3.09,230.412-3.09,233.502,0
			c36.185,0,96.122,59.938,96.122,96.122c3.09,3.09,3.09,230.412,0,233.502C468.873,408.935,408.935,468.873,372.751,468.873z"/>
		<path fill="#FEFEFE" d="M256,471.689c-55.991,0-111.981-0.772-116.804-2.316c-16.864-0.027-40.587-13.295-61.931-34.639
			c-21.334-21.334-34.599-45.045-34.638-61.908C40.375,366.463,40.309,267.49,40.309,256c0-11.49,0.066-110.463,2.318-116.827
			c0.039-16.862,13.304-40.574,34.638-61.908s45.046-34.599,61.908-34.638c6.363-2.251,105.337-2.318,116.827-2.318
			c11.49,0,110.463,0.066,116.826,2.318c16.863,0.039,40.574,13.304,61.908,34.638c21.344,21.344,34.611,45.066,34.639,61.931
			c3.088,9.646,3.088,223.962,0,233.608c-0.027,16.864-13.295,40.588-34.639,61.931c-21.343,21.344-45.066,34.611-61.931,34.639
			C367.981,470.917,311.991,471.689,256,471.689z M139.249,43.627c-35.747,0-95.622,59.875-95.622,95.622v0.207l-0.146,0.146
			c-1.244,2.184-2.171,51.153-2.171,116.397s0.927,114.214,2.205,116.438l0.146,0.146l-0.034,0.166
			c0,35.746,59.875,95.622,95.622,95.622h0.207l0.146,0.146c2.184,1.244,51.153,2.171,116.397,2.171s114.214-0.927,116.438-2.205
			l0.146-0.146l0.166,0.034c35.746,0,95.622-59.876,95.622-95.622v-0.207l0.146-0.146c1.244-2.184,2.171-51.153,2.171-116.397
			s-0.927-114.214-2.205-116.438l-0.146-0.146l0.034-0.166c0-35.747-59.876-95.622-95.622-95.622h-0.207l-0.146-0.146
			c-2.184-1.244-51.153-2.171-116.397-2.171s-114.214,0.927-116.438,2.205l-0.146,0.146L139.249,43.627z"/>
	</g>
	<g>
		<path fill="#4EA4FF" d="M363.51,463.164c-4.12,4.12-210.901,4.12-215.02,0c-32.566,0-99.654-67.088-99.654-99.654
			c-4.12-4.12-4.12-210.901,0-215.02c0-32.566,67.088-99.654,99.654-99.654c4.12-4.12,210.901-4.12,215.02,0
			c32.566,0,99.654,67.088,99.654,99.654c4.12,4.12,4.12,210.901,0,215.02C463.164,396.076,396.076,463.164,363.51,463.164z"/>
		<path fill="#FEFEFE" d="M256,466.754c-10.541,0-101.789-0.088-107.649-3.09c-32.766-0.188-99.827-67.25-100.015-100.016
			c-3.002-5.859-3.09-97.107-3.09-107.648s0.088-101.789,3.09-107.649c0.188-32.766,67.25-99.827,100.015-100.015
			c5.86-3.002,97.108-3.09,107.649-3.09s101.789,0.088,107.648,3.09c32.766,0.188,99.827,67.25,100.016,100.015
			c3.002,5.86,3.09,97.108,3.09,107.649s-0.088,101.779-3.09,107.648c-0.188,32.766-67.25,99.827-100.016,100.016
			C357.779,466.666,266.541,466.754,256,466.754z M148.49,49.335c-32.434,0-99.154,66.721-99.154,99.154v0.207l-0.146,0.146
			c-4,5.001-4,209.312,0.006,214.32l0.146,0.146l-0.006,0.2c0,32.434,66.721,99.154,99.154,99.154h0.207l0.146,0.146
			c5,4,209.313,4,214.32-0.006l0.146-0.146l0.2,0.006c32.434,0,99.154-66.721,99.154-99.154v-0.207l0.146-0.146
			c4-5.001,4-209.312-0.006-214.32l-0.146-0.146l0.006-0.2c0-32.434-66.721-99.154-99.154-99.154h-0.207l-0.146-0.146
			c-5.001-3.999-209.311-4-214.32,0.006l-0.146,0.146L148.49,49.335z"/>
	</g>
	<g>
		<path fill="#59AAFF" d="M354.27,457.455c-5.15,5.15-191.389,5.15-196.539,0c-28.948,0-103.186-74.238-103.186-103.186
			c-5.15-5.15-5.15-191.389,0-196.539c0-28.948,74.238-103.186,103.186-103.186c5.15-5.15,191.389-5.15,196.539,0
			c28.948,0,103.186,74.238,103.186,103.186c5.15,5.15,5.15,191.389,0,196.539C457.455,383.217,383.217,457.455,354.27,457.455z"/>
		<path fill="#FEFEFE" d="M256,461.818c-34.597,0-93.594-0.818-98.435-3.864c-29.132-0.28-103.239-74.388-103.52-103.52
			C51,349.595,50.182,290.597,50.182,256s0.818-93.594,3.863-98.435c0.281-29.132,74.388-103.239,103.52-103.52
			c4.84-3.045,63.838-3.863,98.435-3.863s93.595,0.818,98.435,3.863c29.132,0.281,103.239,74.388,103.52,103.52
			c3.046,4.841,3.864,63.838,3.864,98.435s-0.818,93.595-3.864,98.435c-0.28,29.132-74.388,103.239-103.52,103.52
			C349.595,461,290.597,461.818,256,461.818z M157.73,55.044c-28.791,0-102.686,73.896-102.686,102.686v0.207l-0.146,0.146
			c-2.153,2.153-3.716,43.333-3.716,97.916s1.562,95.763,3.716,97.916l0.146,0.146v0.207c0,28.79,73.896,102.686,102.686,102.686
			h0.207l0.146,0.146c2.153,2.153,43.333,3.717,97.916,3.717s95.763-1.563,97.916-3.717l0.146-0.146h0.207
			c28.79,0,102.686-73.896,102.686-102.686v-0.207l0.146-0.146c2.153-2.153,3.717-43.333,3.717-97.916s-1.563-95.763-3.717-97.916
			l-0.146-0.146v-0.207c0-28.791-73.896-102.686-102.686-102.686h-0.207l-0.146-0.146c-2.153-2.153-43.333-3.716-97.916-3.716
			s-95.763,1.562-97.916,3.716l-0.146,0.146H157.73z"/>
	</g>
	<g>
		<path fill="#64B0FF" d="M345.029,451.747c-6.18,6.18-171.878,6.18-178.058,0c-25.329,0-106.717-81.388-106.717-106.717
			c-6.18-6.18-6.18-171.878,0-178.058c0-25.329,81.388-106.717,106.717-106.717c6.18-6.18,171.878-6.18,178.058,0
			c25.329,0,106.717,81.388,106.717,106.717c6.18,6.18,6.18,171.878,0,178.058C451.747,370.358,370.358,451.747,345.029,451.747z"/>
		<path fill="#FEFEFE" d="M256,456.882c-31.016,0-84.21-0.981-89.211-4.638c-8.974-0.155-30.768-11.743-63.029-44.005
			c-32.262-32.261-43.85-54.054-44.005-63.027c-3.655-5.001-4.636-58.196-4.636-89.212s0.981-84.21,4.636-89.211
			c0.156-8.974,11.744-30.768,44.005-63.029c32.261-32.262,54.055-43.85,63.029-44.005c5.001-3.655,58.195-4.636,89.211-4.636
			s84.211,0.981,89.212,4.636c8.974,0.156,30.767,11.744,63.027,44.005c32.262,32.261,43.85,54.055,44.005,63.029
			c3.656,5.001,4.638,58.195,4.638,89.211s-0.981,84.211-4.638,89.212c-0.155,8.974-11.743,30.767-44.005,63.027
			c-32.261,32.262-54.054,43.85-63.027,44.005C340.211,455.9,287.016,456.882,256,456.882z M166.971,60.753
			c-12.98,0-40.745,21.955-62.504,43.714s-43.714,49.524-43.714,62.504v0.207l-0.146,0.146c-2.601,2.601-4.488,39.894-4.488,88.675
			s1.888,86.075,4.488,88.676l0.146,0.146v0.207c0,12.979,21.955,40.745,43.714,62.503c21.759,21.759,49.524,43.714,62.504,43.714
			h0.207l0.146,0.146c2.601,2.602,39.894,4.489,88.675,4.489s86.075-1.888,88.676-4.489l0.146-0.146h0.207
			c12.979,0,40.745-21.955,62.503-43.714c21.759-21.758,43.714-49.523,43.714-62.503v-0.207l0.146-0.146
			c2.602-2.601,4.489-39.895,4.489-88.676s-1.888-86.075-4.489-88.675l-0.146-0.146v-0.207c0-12.98-21.955-40.745-43.714-62.504
			c-21.758-21.759-49.523-43.714-62.503-43.714h-0.207l-0.146-0.146c-2.601-2.601-39.895-4.488-88.676-4.488
			s-86.075,1.888-88.675,4.488l-0.146,0.146H166.971z"/>
	</g>
	<g>
		<path fill="#6EB6FF" d="M335.788,446.038c-7.21,7.21-152.367,7.21-159.577,0c-21.711,0-110.249-88.538-110.249-110.249
			c-7.21-7.21-7.21-152.367,0-159.577c0-21.711,88.538-110.249,110.249-110.249c7.21-7.21,152.367-7.21,159.577,0
			c21.711,0,110.249,88.538,110.249,110.249c7.21,7.21,7.21,152.367,0,159.577C446.038,357.499,357.499,446.038,335.788,446.038z"/>
		<path fill="#FDFDFD" d="M256,452.009c-37.704,0-75.409-1.824-79.979-5.473c-11.52-0.261-40.1-23.799-63.429-47.128
			s-46.866-51.909-47.127-63.429c-3.735-4.663-5.409-43.322-5.409-79.979s1.674-75.316,5.409-79.98
			c0.261-11.519,23.799-40.1,47.127-63.428s51.909-46.866,63.428-47.127c4.664-3.735,43.323-5.409,79.98-5.409
			s75.316,1.674,79.979,5.409c11.52,0.261,40.1,23.799,63.429,47.127s46.867,51.909,47.128,63.429
			c7.297,9.142,7.297,150.817,0,159.959c-0.261,11.52-23.799,40.1-47.128,63.429s-51.909,46.867-63.429,47.128
			C331.408,450.185,293.704,452.009,256,452.009z M176.211,66.462c-21.54,0-109.749,88.209-109.749,109.749v0.207l-0.146,0.146
			c-3.048,3.048-5.261,36.456-5.261,79.435s2.212,76.387,5.261,79.435l0.146,0.146v0.207c0,21.54,88.209,109.75,109.749,109.75
			h0.207l0.146,0.146c3.048,3.048,36.456,5.26,79.435,5.26s76.387-2.212,79.435-5.26l0.146-0.146h0.207
			c21.54,0,109.75-88.21,109.75-109.75v-0.207l0.146-0.146c3.048-3.048,5.26-36.455,5.26-79.435s-2.212-76.387-5.26-79.435
			l-0.146-0.146v-0.207c0-21.54-88.21-109.749-109.75-109.749h-0.207l-0.146-0.146c-3.048-3.048-36.455-5.261-79.435-5.261
			s-76.387,2.212-79.435,5.261l-0.146,0.146H176.211z"/>
	</g>
	<g>
		<path fill="#79BCFF" d="M326.548,440.329c-8.24,8.24-132.856,8.24-141.096,0c-18.092,0-113.781-95.689-113.781-113.781
			c-8.24-8.24-8.24-132.856,0-141.096c0-18.092,95.689-113.781,113.781-113.781c8.24-8.24,132.856-8.24,141.096,0
			c18.092,0,113.781,95.689,113.781,113.781c8.24,8.24,8.24,132.856,0,141.096C440.329,344.64,344.64,440.329,326.548,440.329z"/>
		<path fill="#FDFDFD" d="M256,447.009c-31.79,0-65.776-1.914-70.747-6.184c-9.723-0.344-38.989-25.408-63.829-50.249
			c-24.841-24.841-49.904-54.106-50.249-63.829c-4.27-4.971-6.183-38.958-6.183-70.747c0-31.79,1.914-65.776,6.183-70.747
			c0.345-9.723,25.408-38.989,50.249-63.829c24.84-24.841,54.106-49.904,63.829-50.249c4.971-4.27,38.958-6.183,70.747-6.183
			c31.789,0,65.776,1.914,70.747,6.183c9.723,0.345,38.988,25.408,63.829,50.249c24.841,24.84,49.905,54.106,50.249,63.829
			c4.27,4.971,6.184,38.958,6.184,70.747c0,31.789-1.914,65.776-6.184,70.747c-0.344,9.723-25.408,38.988-50.249,63.829
			s-54.106,49.905-63.829,50.249C321.776,445.095,287.789,447.009,256,447.009z M185.452,72.171
			c-17.998,0-113.281,95.283-113.281,113.281v0.207l-0.146,0.146c-3.552,3.552-6.033,32.417-6.033,70.194
			c0,37.776,2.481,66.642,6.033,70.194l0.146,0.146v0.207c0,17.998,95.283,113.281,113.281,113.281h0.207l0.146,0.146
			c3.552,3.552,32.417,6.033,70.194,6.033c37.776,0,66.642-2.481,70.194-6.033l0.146-0.146h0.207
			c17.998,0,113.281-95.283,113.281-113.281v-0.207l0.146-0.146c3.552-3.553,6.033-32.418,6.033-70.194
			c0-37.777-2.481-66.642-6.033-70.194l-0.146-0.146v-0.207c0-17.998-95.283-113.281-113.281-113.281h-0.207l-0.146-0.146
			c-3.553-3.552-32.418-6.033-70.194-6.033c-37.777,0-66.642,2.481-70.194,6.033l-0.146,0.146H185.452z"/>
	</g>
	<g>
		<path fill="#84C2FF" d="M317.307,434.62c-9.27,9.27-113.345,9.27-122.614,0c-14.474,0-117.313-102.839-117.313-117.313
			c-9.27-9.27-9.27-113.345,0-122.614c0-14.474,102.839-117.313,117.313-117.313c9.27-9.27,113.345-9.27,122.614,0
			c14.474,0,117.313,102.839,117.313,117.313c9.27,9.27,9.27,113.345,0,122.614C434.62,331.781,331.781,434.62,317.307,434.62z"/>
		<path fill="#FDFDFD" d="M256,442.072c-26.898,0-56.19-2.153-61.513-6.958c-7.964-0.462-37.896-27.033-64.232-53.369
			c-26.336-26.336-52.907-56.268-53.369-64.231c-4.806-5.324-6.959-34.615-6.959-61.514s2.153-56.19,6.959-61.513
			c0.461-7.964,27.033-37.896,53.369-64.232c26.335-26.336,56.268-52.907,64.232-53.369c5.323-4.806,34.614-6.959,61.513-6.959
			s56.189,2.153,61.514,6.959c7.964,0.461,37.896,27.033,64.231,53.369c26.336,26.335,52.907,56.268,53.369,64.232
			c4.805,5.323,6.958,34.614,6.958,61.513s-2.153,56.189-6.958,61.514c-0.462,7.964-27.033,37.896-53.369,64.231
			s-56.268,52.907-64.231,53.369C312.189,439.919,282.898,442.072,256,442.072z M194.693,77.88
			C180.5,77.88,77.88,180.5,77.88,194.693v0.207l-0.146,0.146c-4.007,4.007-6.806,29.072-6.806,60.954
			c0,31.881,2.799,56.946,6.806,60.954l0.146,0.146v0.207c0,14.192,102.62,116.812,116.812,116.812h0.207l0.146,0.146
			c9.114,9.113,112.792,9.113,121.908,0l0.146-0.146h0.207c14.192,0,116.812-102.62,116.812-116.812v-0.207l0.146-0.146
			c9.114-9.115,9.114-112.793,0-121.908l-0.146-0.146v-0.207C434.12,180.5,331.5,77.88,317.308,77.88h-0.207l-0.146-0.146
			c-4.008-4.007-29.073-6.806-60.954-6.806c-31.881,0-56.946,2.799-60.954,6.806L194.9,77.88H194.693z"/>
	</g>
	<g>
		<path fill="#8EC7FF" d="M308.067,428.911c-10.3,10.3-93.833,10.3-104.133,0c-10.855,0-120.844-109.989-120.844-120.844
			c-10.3-10.3-10.3-93.833,0-104.133c0-10.855,109.989-120.844,120.844-120.844c10.3-10.3,93.833-10.3,104.133,0
			c10.855,0,120.844,109.989,120.844,120.844c10.3,10.3,10.3,93.833,0,104.133C428.911,318.922,318.922,428.911,308.067,428.911z"/>
		<path fill="#FDFDFD" d="M256,437.136c-20.392,0-46.207-2.029-52.281-7.736c-6.282-0.657-36.841-28.695-64.632-56.486
			c-27.791-27.791-55.829-58.351-56.486-64.632c-5.707-6.075-7.737-31.89-7.737-52.281s2.03-46.207,7.737-52.281
			c0.657-6.282,28.695-36.841,56.486-64.632c27.791-27.791,58.35-55.829,64.632-56.486c6.074-5.707,31.889-7.737,52.281-7.737
			s46.206,2.03,52.281,7.737c6.281,0.657,36.841,28.695,64.632,56.486c27.791,27.791,55.829,58.35,56.486,64.632
			c5.707,6.074,7.736,31.889,7.736,52.281s-2.029,46.206-7.736,52.281c-0.657,6.281-28.695,36.841-56.486,64.632
			s-58.351,55.829-64.632,56.486C302.206,435.106,276.392,437.136,256,437.136z M203.934,83.589
			c-4.672,0-31.047,23.112-64.139,56.205c-33.093,33.092-56.205,59.467-56.205,64.139v0.207l-0.146,0.146
			c-4.533,4.533-7.579,25.314-7.579,51.713s3.046,47.18,7.579,51.713l0.146,0.146v0.207c0,4.672,23.112,31.047,56.205,64.14
			c33.092,33.093,59.467,56.205,64.139,56.205h0.207l0.146,0.146c4.533,4.533,25.314,7.578,51.713,7.578s47.18-3.045,51.713-7.578
			l0.146-0.146h0.207c4.672,0,31.047-23.112,64.14-56.205s56.205-59.468,56.205-64.14v-0.207l0.146-0.146
			c4.533-4.533,7.578-25.314,7.578-51.713s-3.045-47.18-7.578-51.713l-0.146-0.146v-0.207c0-4.672-23.112-31.047-56.205-64.139
			c-33.093-33.093-59.468-56.205-64.14-56.205h-0.207l-0.146-0.146c-4.533-4.533-25.314-7.579-51.713-7.579
			s-47.18,3.046-51.713,7.579l-0.146,0.146H203.934z"/>
	</g>
	<g>
		<path fill="#99CDFF" d="M298.826,423.202c-11.33,11.33-74.322,11.33-85.652,0c-7.237,0-124.376-117.139-124.376-124.376
			c-11.33-11.33-11.33-74.322,0-85.652c0-7.237,117.139-124.376,124.376-124.376c11.33-11.33,74.322-11.33,85.652,0
			c7.237,0,124.376,117.139,124.376,124.376c11.33,11.33,11.33,74.322,0,85.652C423.202,306.063,306.063,423.202,298.826,423.202z"
			/>
		<path fill="#FCFCFC" d="M256,432.199c-15.832,0-36.538-2.236-43.058-8.524c-5.415-1.136-43.224-37.794-65.023-59.594
			c-21.799-21.799-58.458-59.608-59.594-65.023c-6.288-6.52-8.524-27.227-8.524-43.058c0-15.832,2.236-36.538,8.524-43.058
			c1.136-5.415,37.794-43.224,59.594-65.023s59.608-58.458,65.023-59.594c6.521-6.288,27.227-8.524,43.058-8.524
			c15.831,0,36.538,2.236,43.058,8.524c5.415,1.136,43.225,37.794,65.023,59.594c21.8,21.799,58.458,59.608,59.594,65.023
			c6.288,6.521,8.524,27.227,8.524,43.058c0,15.831-2.236,36.538-8.524,43.058c-1.136,5.415-37.794,43.225-59.594,65.023
			c-21.799,21.8-59.608,58.458-65.023,59.594C292.538,429.963,271.831,432.199,256,432.199z M213.174,89.298
			c-6.946,0-123.876,116.93-123.876,123.876v0.207l-0.146,0.146c-11.114,11.114-11.114,73.831,0,84.945l0.146,0.146v0.207
			c0,6.946,116.93,123.876,123.876,123.876h0.207l0.146,0.146c11.114,11.113,73.831,11.113,84.945,0l0.146-0.146h0.207
			c6.946,0,123.876-116.93,123.876-123.876v-0.207l0.146-0.146c11.113-11.114,11.113-73.831,0-84.945l-0.146-0.146v-0.207
			c0-6.946-116.93-123.876-123.876-123.876h-0.207l-0.146-0.146c-11.114-11.114-73.831-11.114-84.945,0l-0.146,0.146H213.174z"/>
	</g>
	<g>
		<path fill="#A3D3FF" d="M289.585,417.493c-12.36,12.36-54.811,12.36-67.171,0c-3.618,0-127.908-124.289-127.908-127.908
			c-12.36-12.36-12.36-54.811,0-67.171c0-3.618,124.289-127.908,127.908-127.908c12.36-12.36,54.811-12.36,67.171,0
			c3.618,0,127.908,124.289,127.908,127.908c12.36,12.36,12.36,54.811,0,67.171C417.493,293.204,293.204,417.493,289.585,417.493z"
			/>
		<path fill="#FCFCFC" d="M256,427.362c-13.764,0-27.527-3.156-33.892-9.469c-5.108-2.527-55.146-52.433-65.357-62.644
			c-10.211-10.212-60.116-60.25-62.644-65.358c-12.625-12.729-12.625-55.055,0-67.784c2.528-5.108,52.433-55.146,62.644-65.357
			S217,96.634,222.108,94.106c12.729-12.625,55.055-12.625,67.784,0c5.108,2.528,55.146,52.433,65.358,62.644
			c10.211,10.211,60.116,60.25,62.644,65.357c12.625,12.729,12.625,55.055,0,67.784c-2.527,5.108-52.433,55.146-62.644,65.358
			c-10.212,10.211-60.25,60.116-65.358,62.644C283.527,424.206,269.764,427.362,256,427.362z M222.415,95.007
			C217.879,96.359,96.359,217.879,95,222.477v0.207l-0.14,0.084c-12.112,12.113-12.112,54.351,0,66.463l0.146,0.146v0.207
			C96.358,294.12,217.879,415.641,222.477,417h0.207l0.084,0.14c12.112,12.111,54.352,12.111,66.463,0l0.146-0.146h0.166
			c4.933-1.708,126.1-122.879,127.456-127.471v-0.207l0.14-0.084c12.112-12.112,12.112-54.351,0-66.463l-0.146-0.146v-0.207
			C415.641,217.879,294.12,96.358,289.522,95h-0.207l-0.084-0.14c-12.112-12.112-54.351-12.112-66.463,0l-0.146,0.146H222.415z"/>
	</g>
	<g>
		<path fill="#AED9FF" d="M411.784,280.345L280.345,411.784c-13.39,13.39-35.3,13.39-48.69,0L100.216,280.345
			c-13.39-13.39-13.39-35.3,0-48.69l131.439-131.439c13.39-13.39,35.3-13.39,48.69,0l131.439,131.439
			C425.174,245.045,425.174,266.955,411.784,280.345z"/>
		<path fill="#FCFCFC" d="M256,422.352c-8.944,0-17.889-3.404-24.698-10.214L99.862,280.698c-13.619-13.618-13.619-35.778,0-49.396
			L231.302,99.862c13.618-13.619,35.777-13.619,49.396,0l131.439,131.439c13.619,13.619,13.619,35.778,0,49.396L280.698,412.138
			C273.889,418.947,264.944,422.352,256,422.352z M256,90.648c-8.688,0-17.377,3.307-23.991,9.921L100.569,232.009
			c-13.229,13.229-13.229,34.754,0,47.982l131.439,131.439c13.229,13.229,34.754,13.229,47.982,0l131.439-131.439
			c13.229-13.229,13.229-34.753,0-47.982L279.991,100.569C273.377,93.955,264.688,90.648,256,90.648z"/>
	</g>
</g>
<g>
	<g>
		<path id="p" fill="#FFFFFF" d="M326.597,230.055h-31.998l-13.836,70.05h16.432l3.46-18.161h15.566
			c14.702,0.865,31.133-11.243,31.133-31.998C347.352,237.84,340.434,230.921,326.597,230.055z M314.489,268.974h-10.378
			l4.325-25.945h11.243c6.054,0,10.378,2.595,10.378,7.784C329.191,265.514,322.273,268.109,314.489,268.974z"/>
		<path id="h_1_" fill="#FFFFFF" d="M226.278,281.945l13.836-70.05h16.432l-3.46,18.161h15.566
			c13.836,0.865,19.026,7.784,17.296,16.432l-6.054,35.457h-17.296l6.054-31.998c0.865-4.325,0.865-6.918-5.188-6.918h-12.972
			l-7.784,38.916H226.278z"/>
		<path id="p_1_" fill="#FFFFFF" d="M210.712,230.055h-31.998l-13.836,70.05h16.432l3.46-18.161h15.566
			c14.702,0.865,31.133-11.243,31.133-31.998C231.468,237.84,224.548,230.921,210.712,230.055z M198.604,268.974h-10.378
			l4.325-25.945h11.243c6.054,0,10.378,2.595,10.378,7.784C213.306,265.514,206.388,268.109,198.604,268.974z"/>
	</g>
	<g>
		<path fill="#798CBC" d="M182.178,301.158h-18.581l14.252-72.153h32.862c14.289,0.89,21.808,8.132,21.808,20.941
			c0,9.499-3.472,18.126-9.778,24.295c-5.715,5.59-13.342,8.797-20.923,8.797l0,0c-0.516,0-1.032-0.015-1.545-0.045l-14.635,0.002
			L182.178,301.158z M166.157,299.056h14.282l3.46-18.161h16.437c0.534,0.029,1.008,0.043,1.483,0.043
			c7.037,0,14.128-2.988,19.453-8.198c4.172-4.081,9.146-11.349,9.146-22.792c0-11.683-6.652-18.022-19.77-18.84l-31.068,0.002
			L166.157,299.056z M198.662,270.024h-11.677l4.674-28.046h12.133c7.05,0,11.429,3.386,11.429,8.836
			c-0.902,15.376-8.464,18.312-16.502,19.206L198.662,270.024z M189.467,267.921h9.077c6.919-0.775,13.729-2.765,14.576-17.171
			c-0.002-6.014-6.524-6.67-9.329-6.67H193.44L189.467,267.921z"/>
		<path fill="#798CBC" d="M280.784,282.996h-19.453l6.289-33.245c0.453-2.267,0.601-3.827-0.054-4.626
			c-0.568-0.694-1.95-1.047-4.101-1.047h-12.11l-7.784,38.916h-18.573l14.253-72.153h18.565l-3.46,18.16h14.296
			c7.597,0.474,13.159,2.78,16.151,6.673c2.273,2.957,3.025,6.766,2.176,11.017L280.784,282.996z M263.869,280.894h15.14
			l5.905-34.584c0.733-3.667,0.117-6.89-1.776-9.352c-2.612-3.397-7.644-5.422-14.549-5.853l-16.773,0.002l3.46-18.16H240.98
			l-13.424,67.947h14.29l7.784-38.916h13.834c2.892,0,4.712,0.578,5.728,1.815c1.31,1.597,0.98,3.919,0.492,6.36L263.869,280.894z"
			/>
		<path fill="#798CBC" d="M298.063,301.158h-18.581l14.253-72.153h32.862c14.289,0.89,21.807,8.132,21.807,20.941
			c0,9.499-3.472,18.126-9.778,24.295c-5.715,5.59-13.342,8.797-20.922,8.797c-0.001,0,0,0,0,0c-0.516,0-1.032-0.015-1.546-0.045
			l-14.636,0.002L298.063,301.158z M282.041,299.056h14.282l3.46-18.161h16.437c0.534,0.029,1.008,0.043,1.483,0.043
			c7.036,0,14.127-2.988,19.453-8.198c4.172-4.081,9.146-11.349,9.146-22.792c0-11.683-6.652-18.022-19.77-18.84l-31.067,0.002
			L282.041,299.056z M314.548,270.024H302.87l4.675-28.046h12.132c7.05,0,11.429,3.386,11.429,8.836
			c-0.902,15.376-8.464,18.312-16.5,19.206L314.548,270.024z M305.353,267.921h9.079c6.918-0.775,13.729-2.765,14.575-17.171
			c-0.002-6.014-6.524-6.67-9.329-6.67h-10.352L305.353,267.921z"/>
	</g>
</g>
</svg>
