<?xml version="1.0" encoding="utf-8"?>
<!-- Generator: Adobe Illustrator 18.0.0, SVG Export Plug-In . SVG Version: 6.00 Build 0)  -->
<!DOCTYPE svg PUBLIC "-//W3C//DTD SVG 1.1//EN" "http://www.w3.org/Graphics/SVG/1.1/DTD/svg11.dtd">
<svg version="1.1" id="Layer_2" xmlns="http://www.w3.org/2000/svg" xmlns:xlink="http://www.w3.org/1999/xlink" x="0px" y="0px"
	 viewBox="0 0 512 512" style="enable-background:new 0 0 512 512;" xml:space="preserve">
<g>
	
		<ellipse id="ellipse3860_2_" transform="matrix(-0.2588 -0.9659 0.9659 -0.2588 74.9819 569.5335)" style="opacity:0.5;fill:#FF7F00;" cx="256" cy="255.999" rx="120.171" ry="230.854"/>
	<path style="fill:#FF7F00;" d="M288.347,376.719c-60.295,16.156-120.34,19.104-169.071,8.301
		c-49.827-11.047-82.113-35.204-90.908-68.027s7.085-69.886,44.716-104.365c36.801-33.721,90.275-61.191,150.57-77.347
		s120.338-19.103,169.071-8.301c49.827,11.045,82.113,35.204,90.908,68.025c8.794,32.82-7.087,69.886-44.715,104.367
		C402.116,333.093,348.642,360.563,288.347,376.719z M226.141,144.563C105.744,176.824,21.19,253.058,37.654,314.503
		c16.464,61.446,127.81,85.19,248.205,52.93s204.954-108.494,188.489-169.94C457.884,136.048,346.538,112.303,226.141,144.563z"/>
</g>
<g>
	<path style="fill:#FF7F00;" d="M381.483,215.102c-10.092-26.8-20.411-54.24-21.549-83.611c-0.123-3.166-0.139-6.354-0.036-9.566
		c-0.312-0.029-0.622-0.06-0.934-0.088c-0.881-0.079-1.769-0.146-2.654-0.218c-0.307-0.025-0.612-0.052-0.919-0.076
		c-0.888-0.069-1.779-0.133-2.671-0.194c-0.303-0.021-0.607-0.04-0.911-0.06c-0.893-0.059-1.783-0.124-2.681-0.175
		c-0.333-0.019-0.67-0.031-1.004-0.049c-0.86-0.047-1.723-0.088-2.587-0.128c-0.335-0.015-0.668-0.035-1.004-0.05
		c-0.858-0.037-1.722-0.064-2.584-0.094c-0.335-0.012-0.669-0.023-1.004-0.034c-0.86-0.027-1.718-0.057-2.581-0.078
		c-0.334-0.008-0.67-0.011-1.004-0.018c-0.858-0.018-1.716-0.035-2.578-0.046c-0.336-0.005-0.669-0.014-1.006-0.018
		c-0.854-0.009-1.714-0.005-2.571-0.008c-0.335-0.001-0.67-0.003-1.005-0.003c-0.854,0-1.708,0-2.566,0.006
		c-0.334,0.002-0.67,0.009-1.005,0.013c-0.852,0.009-1.704,0.017-2.559,0.032c-0.336,0.006-0.669,0.008-1.005,0.014
		c-0.847,0.017-1.699,0.046-2.549,0.07c-0.335,0.009-0.67,0.017-1.005,0.027c-0.846,0.026-1.692,0.051-2.541,0.083
		c-0.334,0.012-0.67,0.029-1.004,0.042c-0.843,0.034-1.685,0.067-2.531,0.106c-0.336,0.016-0.669,0.027-1.005,0.043
		c-0.837,0.041-1.679,0.095-2.519,0.142c-0.335,0.019-0.669,0.037-1.004,0.057c-0.831,0.049-1.661,0.096-2.494,0.151
		c-0.334,0.022-0.669,0.048-1.004,0.071c-0.826,0.056-1.652,0.113-2.479,0.175c-0.335,0.025-0.669,0.045-1.005,0.071
		c-0.819,0.063-1.643,0.137-2.464,0.205c-0.334,0.028-0.669,0.056-1.003,0.085c-0.817,0.07-1.632,0.135-2.451,0.211
		c-0.333,0.031-0.668,0.067-1.002,0.099c-0.81,0.077-1.621,0.158-2.433,0.24c-0.335,0.034-0.668,0.064-1.003,0.099
		c-0.804,0.083-1.61,0.172-2.416,0.261c-0.334,0.037-0.668,0.075-1.002,0.113c-0.797,0.089-1.594,0.174-2.393,0.269
		c-0.334,0.039-0.668,0.08-1.002,0.12c-0.785,0.095-1.572,0.198-2.359,0.297c-0.334,0.042-0.668,0.083-1.002,0.126
		c-0.78,0.101-1.56,0.2-2.341,0.305c-0.333,0.045-0.667,0.094-1.001,0.14c-0.773,0.106-1.546,0.214-2.321,0.324
		c-0.334,0.048-0.667,0.091-1.002,0.14c-0.765,0.111-1.532,0.23-2.298,0.345c-0.333,0.05-0.667,0.102-1,0.153
		c-0.757,0.116-1.512,0.228-2.27,0.348c-0.334,0.053-0.667,0.106-1.001,0.16c-0.743,0.12-1.487,0.248-2.23,0.372
		c-0.334,0.056-0.667,0.11-1.001,0.167c-0.737,0.125-1.473,0.245-2.211,0.374c-0.332,0.058-0.666,0.121-0.999,0.18
		c-0.728,0.129-1.457,0.261-2.185,0.394c-0.334,0.061-0.667,0.119-1,0.18c-0.722,0.133-1.443,0.268-2.166,0.405
		c-0.334,0.063-0.668,0.13-1.003,0.194c-0.704,0.135-1.408,0.27-2.113,0.409c-0.335,0.066-0.67,0.128-1.005,0.195
		c-0.695,0.139-1.39,0.285-2.086,0.427c-0.334,0.068-0.669,0.139-1.003,0.208c-0.684,0.142-1.368,0.28-2.052,0.425
		c-0.335,0.071-0.67,0.138-1.005,0.21c-0.672,0.144-1.345,0.298-2.017,0.445c-0.334,0.073-0.669,0.147-1.004,0.221
		c-0.663,0.147-1.326,0.289-1.99,0.439c-0.334,0.076-0.668,0.152-1.003,0.228c-0.649,0.148-1.299,0.305-1.949,0.456
		c-0.334,0.078-0.669,0.156-1.003,0.235c-0.642,0.151-1.284,0.297-1.926,0.451c-0.334,0.08-0.668,0.164-1.003,0.245
		c-0.626,0.152-1.253,0.31-1.879,0.465c-0.334,0.083-0.669,0.165-1.003,0.248c-0.618,0.154-1.236,0.302-1.854,0.459
		c-0.334,0.085-0.668,0.174-1.002,0.259c-0.604,0.155-1.209,0.316-1.813,0.474c-0.334,0.087-0.669,0.174-1.003,0.262
		c-0.594,0.156-1.188,0.307-1.782,0.465c-0.073,0.019-0.145,0.037-0.218,0.057c-0.262,0.07-0.522,0.145-0.784,0.215
		c-0.583,0.157-1.162,0.32-1.743,0.479c-0.335,0.092-0.67,0.183-1.004,0.276c-0.57,0.158-1.142,0.31-1.71,0.47
		c-0.335,0.094-0.668,0.189-1.002,0.284c-0.558,0.158-1.113,0.322-1.669,0.482c-0.335,0.096-0.669,0.193-1.004,0.29
		c-0.547,0.158-1.096,0.313-1.642,0.474c-0.335,0.098-0.67,0.196-1.005,0.295c-0.534,0.158-1.063,0.323-1.595,0.482
		c-0.335,0.101-0.669,0.202-1.003,0.303c-0.522,0.158-1.046,0.314-1.568,0.474c-0.335,0.103-0.673,0.201-1.007,0.305
		c-0.511,0.158-1.017,0.323-1.527,0.483c-0.335,0.105-0.668,0.212-1.002,0.317c-0.498,0.157-0.996,0.314-1.493,0.473
		c-0.335,0.107-0.672,0.211-1.006,0.318c-0.487,0.157-0.972,0.316-1.457,0.475c-0.335,0.109-0.668,0.221-1.002,0.331
		c2.009,2.708,4.072,5.407,6.184,8.097c11.101,14.136,23.496,28.02,35.76,41.758c40.938,45.857,79.606,89.171,70.614,137.248
		c-2.182,11.663-7.209,23.219-15.111,34.72c-2.93,4.264-6.267,8.521-9.993,12.773c-21.297,24.3-55.629,48.446-103.587,72.941
		c-0.006,0.003-0.013,0.006-0.019,0.01l0,0c-0.001,0.001-0.002,0.001-0.003,0.002l0.225,0.441l0.002,0.004l0.003,0.007l0.154,0.469
		C295.908,414.203,361.079,377.665,387,336.728c1.983-3.131,3.744-6.287,5.27-9.471c1.049-2.187,1.978-4.374,2.811-6.561
		C408.23,286.151,395.218,251.578,381.483,215.102z M355.502,131.11c1.392,29.732,12.105,57.464,22.343,83.957
		c14.435,37.353,28.088,72.706,13.476,107.97c-0.294,0.18-0.582,0.363-0.876,0.542c14.72-35.849,0.576-71.548-14.375-109.271
		c-10.598-26.741-21.436-54.121-23.131-83.396C353.798,130.973,354.648,131.043,355.502,131.11z M352.015,130.856
		c1.674,29.68,12.641,57.37,23.124,83.822c15.049,37.969,29.261,73.877,13.834,109.784c-0.285,0.172-0.571,0.342-0.856,0.513
		c15.516-36.495,0.813-72.739-14.757-111.066c-10.843-26.689-21.931-54.015-23.918-83.214
		C350.303,130.744,351.16,130.799,352.015,130.856z M348.431,130.631c1.97,29.387,13.109,56.84,24.002,83.654
		c15.671,38.574,30.462,75.026,14.214,111.571c-0.277,0.164-0.554,0.327-0.831,0.49c16.32-37.137,1.031-73.918-15.168-112.84
		c-11.081-26.624-22.413-53.883-24.698-82.99C346.777,130.554,347.609,130.586,348.431,130.631z M344.939,130.468
		c2.271,29.292,13.655,56.676,24.786,83.422c16.236,39.011,31.571,75.859,14.821,112.888c-0.063,0.14-0.132,0.279-0.196,0.418
		c-0.269,0.156-0.538,0.313-0.808,0.468c0.073-0.161,0.152-0.322,0.224-0.483c16.76-37.603,0.93-74.751-15.83-114.082
		c-11.312-26.548-22.883-53.728-25.472-82.73C343.291,130.398,344.116,130.432,344.939,130.468z M341.451,130.337
		c2.578,29.184,14.2,56.486,25.563,83.154c16.672,39.124,32.419,76.078,15.837,113.283c-0.262,0.588-0.538,1.175-0.816,1.762
		c-0.258,0.147-0.52,0.292-0.779,0.439c0.28-0.599,0.556-1.197,0.82-1.798c16.591-37.785,0.344-75.042-16.857-114.486
		c-11.539-26.461-23.341-53.549-26.24-82.432C339.808,130.279,340.628,130.31,341.451,130.337z M337.969,130.238
		c2.889,29.063,14.744,56.273,26.334,82.852c17.111,39.238,33.274,76.301,16.858,113.685c-0.448,1.02-0.927,2.036-1.421,3.05
		c-0.253,0.142-0.506,0.284-0.759,0.425c0.491-1.023,0.967-2.047,1.412-3.075c16.424-37.969-0.244-75.336-17.892-114.897
		c-11.756-26.357-23.783-53.337-26.996-82.08C336.327,130.209,337.151,130.22,337.969,130.238z M334.492,130.181
		c3.205,28.926,15.286,56.028,27.096,82.504c17.555,39.354,34.136,76.527,17.888,114.092c-0.626,1.447-1.3,2.889-2.019,4.325
		c-0.241,0.133-0.487,0.262-0.729,0.394c0.708-1.435,1.37-2.875,1.986-4.321c16.256-38.155-0.836-75.634-18.933-115.313
		c-11.968-26.243-24.213-53.104-27.744-81.697C332.857,130.169,333.677,130.172,334.492,130.181z M331.025,130.164
		c3.526,28.772,15.825,55.754,27.847,82.114c18.002,39.473,35.005,76.756,18.922,114.505c-0.792,1.86-1.67,3.71-2.616,5.553
		c-0.236,0.127-0.471,0.255-0.707,0.383c0.929-1.838,1.791-3.683,2.569-5.538c16.089-38.345-1.432-75.937-19.981-115.735
		c-12.173-26.119-24.63-52.851-28.482-81.283C329.397,130.158,330.209,130.164,331.025,130.164z M327.565,130.176
		c3.849,28.608,16.361,55.458,28.587,81.692c18.453,39.592,35.883,76.989,19.965,114.926c-0.951,2.267-2.018,4.521-3.197,6.762
		c-0.224,0.119-0.454,0.236-0.679,0.355c1.153-2.229,2.197-4.469,3.128-6.723c15.922-38.537-2.03-76.244-21.036-116.164
		c-12.369-25.98-25.025-52.567-29.203-80.817C325.944,130.195,326.756,130.183,327.565,130.176z M324.117,130.221
		c4.175,28.429,16.889,55.136,29.313,81.234c18.908,39.714,36.768,77.225,21.015,115.352c-1.099,2.659-2.362,5.3-3.773,7.925
		c-0.219,0.114-0.437,0.229-0.656,0.343c1.38-2.609,2.614-5.233,3.69-7.876c15.757-38.732-2.631-76.555-22.099-116.599
		c-12.557-25.83-25.401-52.262-29.904-80.32C322.508,130.26,323.315,130.236,324.117,130.221z M320.689,130.309
		c4.503,28.234,17.405,54.784,30.018,80.729c19.367,39.837,37.66,77.465,22.071,115.785c-1.24,3.048-2.688,6.073-4.338,9.077
		c-0.208,0.107-0.42,0.211-0.628,0.318c1.608-2.979,3.021-5.979,4.232-9.003c15.591-38.93-3.235-76.871-23.168-117.04
		c-12.739-25.672-25.763-51.94-30.593-79.795C319.088,130.35,319.887,130.332,320.689,130.309z M317.271,130.421
		c4.831,28.028,17.914,54.413,30.709,80.197c19.83,39.963,38.56,77.709,23.136,116.223c-1.37,3.42-3.004,6.81-4.889,10.175
		c-0.202,0.102-0.403,0.204-0.606,0.306c1.837-3.338,3.43-6.701,4.767-10.093c15.426-39.13-3.844-77.19-24.245-117.486
		c-12.91-25.499-26.106-51.588-31.263-79.223C315.679,130.485,316.476,130.452,317.271,130.421z M313.867,130.564
		c5.16,27.811,18.416,54.018,31.384,79.633c20.297,40.089,39.469,77.956,24.208,116.668c-1.493,3.788-3.304,7.541-5.429,11.263
		c-0.193,0.096-0.387,0.192-0.58,0.287c2.068-3.689,3.832-7.409,5.289-11.164c15.261-39.333-4.456-77.515-25.331-117.939
		c-13.073-25.317-26.434-51.216-31.917-78.622C312.283,130.647,313.077,130.601,313.867,130.564z M310.478,130.747
		c5.488,27.578,18.909,53.594,32.04,79.024c20.769,40.218,40.385,78.206,25.288,117.119c-1.607,4.142-3.596,8.241-5.956,12.305
		c-0.184,0.09-0.369,0.18-0.554,0.27c2.295-4.026,4.23-8.087,5.796-12.19c15.096-39.538-5.072-77.843-26.425-118.397
		c-13.23-25.128-26.748-50.829-32.554-77.997C308.905,130.83,309.69,130.791,310.478,130.747z M307.102,130.951
		c5.814,27.337,19.393,53.153,32.681,78.392c21.244,40.348,41.31,78.459,26.375,117.575c-1.714,4.49-3.869,8.931-6.466,13.329
		c-0.178,0.086-0.353,0.174-0.532,0.26c2.525-4.358,4.622-8.758,6.292-13.206c14.931-39.747-5.691-78.177-27.525-118.863
		c-13.375-24.922-27.042-50.41-33.171-77.323C305.539,131.058,306.322,131.002,307.102,130.951z M303.742,131.186
		c6.138,27.084,19.867,52.689,33.303,77.725c21.724,40.48,42.242,78.716,27.472,118.038c-1.813,4.826-4.139,9.596-6.971,14.319
		c-0.167,0.079-0.336,0.158-0.503,0.237c2.748-4.675,5.008-9.397,6.773-14.174c14.767-39.959-6.315-78.515-28.636-119.334
		c-13.511-24.71-27.321-49.977-33.769-76.627C302.189,131.307,302.967,131.244,303.742,131.186z M300.4,131.455
		c6.459,26.818,20.331,52.2,33.904,77.022c22.207,40.614,43.184,78.976,28.575,118.508c-1.911,5.171-4.397,10.259-7.457,15.284
		c-0.16,0.075-0.318,0.151-0.479,0.226c2.974-4.988,5.389-10.028,7.244-15.131c14.602-40.173-6.943-78.856-29.754-119.811
		c-13.64-24.49-27.582-49.526-34.344-75.904C298.861,131.579,299.629,131.519,300.4,131.455z M343.823,357.887
		c0.018-0.008,0.036-0.015,0.054-0.023c-0.431,0.492-0.861,0.984-1.304,1.476C342.998,358.856,343.411,358.372,343.823,357.887z
		 M297.075,131.742c6.775,26.545,20.782,51.696,34.485,76.297c22.695,40.75,44.133,79.239,29.688,118.982
		c-1.996,5.49-4.632,10.89-7.922,16.219c-0.149,0.068-0.3,0.136-0.449,0.204c3.193-5.287,5.75-10.632,7.685-16.046
		c14.438-40.39-7.575-79.202-30.88-120.293c-13.757-24.256-27.81-49.05-34.884-75.141
		C295.557,131.889,296.318,131.811,297.075,131.742z M293.784,132.063c7.088,26.258,21.208,51.167,35.028,75.536
		c23.188,40.886,45.091,79.505,30.809,119.464c-2.074,5.801-4.862,11.501-8.38,17.125c-0.145,0.065-0.288,0.131-0.433,0.197
		c3.41-5.566,6.117-11.207,8.134-16.947c14.272-40.61-8.212-79.553-32.016-120.783c-13.865-24.016-28.024-48.561-35.403-74.36
		C292.278,132.214,293.031,132.138,293.784,132.063z M290.511,132.407c7.395,25.963,21.619,50.621,35.548,74.748
		c23.687,41.025,46.059,79.775,31.938,119.951c-2.147,6.109-5.09,12.106-8.837,18.023c-0.134,0.06-0.271,0.118-0.405,0.178
		c3.629-5.853,6.484-11.786,8.571-17.828c14.108-40.833-8.852-79.908-33.159-121.277c-13.964-23.766-28.22-48.05-35.897-73.545
		C289.018,132.57,289.765,132.488,290.511,132.407z M287.256,132.769c7.695,25.66,22.019,50.06,36.048,73.938
		c24.188,41.166,47.034,80.047,33.077,120.445c-2.211,6.398-5.292,12.676-9.256,18.867c-0.128,0.056-0.257,0.113-0.385,0.169
		c3.839-6.125,6.827-12.337,8.976-18.666c13.943-41.058-9.496-80.267-34.312-121.778c-14.052-23.506-28.398-47.52-36.368-72.702
		C285.776,132.952,286.518,132.856,287.256,132.769z M284.025,133.169c7.989,25.344,22.403,49.472,36.521,73.089
		c24.694,41.307,48.019,80.323,34.224,120.943c-2.27,6.685-5.486,13.241-9.669,19.706c-0.122,0.053-0.242,0.107-0.363,0.159
		c4.05-6.396,7.169-12.882,9.376-19.496c13.778-41.287-10.146-80.631-35.475-122.285c-14.132-23.241-28.563-46.978-36.817-71.841
		C282.558,133.348,283.29,133.261,284.025,133.169z M280.811,133.581c8.275,25.023,22.774,48.873,36.973,72.224
		c25.205,41.451,49.012,80.603,35.38,121.449c-2.323,6.961-5.674,13.783-10.068,20.509c-0.112,0.048-0.226,0.095-0.338,0.143
		c4.252-6.653,7.499-13.401,9.757-20.286c13.613-41.519-10.8-80.999-36.646-122.798c-14.199-22.962-28.692-46.411-37.222-70.942
		C279.368,133.78,280.091,133.677,280.811,133.581z M277.633,134.021c8.553,24.691,23.117,48.254,37.385,71.328
		c25.721,41.595,50.016,80.884,36.547,121.959c-2.37,7.228-5.839,14.307-10.438,21.287c-0.107,0.045-0.213,0.09-0.32,0.135
		c4.45-6.904,7.812-13.908,10.115-21.058c13.448-41.751-11.458-81.37-37.827-123.315c-14.258-22.68-28.803-45.836-37.599-70.031
		C276.209,134.221,276.92,134.122,277.633,134.021z M274.483,134.48c8.822,24.352,23.438,47.62,37.764,70.409
		c26.241,41.742,51.027,81.168,37.722,122.476c-2.413,7.492-6.009,14.827-10.816,22.058c-0.098,0.04-0.197,0.08-0.295,0.12
		c4.647-7.151,8.131-14.406,10.475-21.815c13.283-41.988-12.121-81.747-39.017-123.839c-14.305-22.387-28.894-45.238-37.948-69.087
		C273.074,134.692,273.779,134.585,274.483,134.48z M271.355,134.955c9.08,24.007,23.743,46.973,38.119,69.471
		c26.766,41.89,52.048,81.457,38.906,122.999c-2.449,7.742-6.16,15.316-11.162,22.784c-0.092,0.038-0.185,0.075-0.277,0.112
		c4.836-7.386,8.431-14.879,10.81-22.536c13.117-42.229-12.79-82.128-40.217-124.37c-14.342-22.088-28.97-44.628-38.27-68.124
		C269.961,135.179,270.659,135.065,271.355,134.955z M268.253,135.46c9.329,23.651,24.029,46.304,38.442,68.501
		c27.296,42.04,53.078,81.748,40.101,123.528c-2.48,7.985-6.294,15.795-11.486,23.496c-0.087,0.035-0.172,0.07-0.259,0.105
		c5.021-7.617,8.715-15.344,11.124-23.243c12.95-42.472-13.464-82.513-41.428-124.905c-14.368-21.781-29.024-44.002-38.56-67.139
		C266.877,135.685,267.564,135.574,268.253,135.46z M265.171,135.971c9.567,23.293,24.3,45.628,38.742,67.521
		c27.831,42.19,54.119,82.041,41.306,124.062c-2.508,8.223-6.434,16.262-11.813,24.19c-0.078,0.031-0.158,0.061-0.236,0.092
		c5.199-7.841,9.001-15.793,11.435-23.927c12.783-42.717-14.142-82.902-42.647-125.446c-14.383-21.466-29.044-43.362-38.804-66.131
		C263.824,136.213,264.499,136.087,265.171,135.971z M262.139,136.514c9.793,22.922,24.53,44.93,38.986,66.507
		c28.371,42.343,55.169,82.338,42.521,124.603c-2.529,8.45-6.551,16.707-12.108,24.852c-0.073,0.029-0.146,0.057-0.22,0.086
		c5.37-8.056,9.265-16.226,11.72-24.585c12.616-42.965-14.825-83.295-43.878-125.993c-14.417-21.188-29.075-42.735-39.036-65.108
		C260.797,136.75,261.467,136.635,262.139,136.514z M259.108,137.065c9.996,22.519,24.732,44.18,39.225,65.48
		c28.916,42.498,56.229,82.638,43.745,125.149c-2.547,8.673-6.657,17.145-12.389,25.503c-0.068,0.026-0.134,0.053-0.202,0.079
		c5.539-8.268,9.52-16.651,11.992-25.233c12.448-43.216-15.515-83.693-45.118-126.546c-14.41-20.858-29.056-42.062-39.216-64.055
		C257.799,137.317,258.454,137.187,259.108,137.065z M256.128,137.639c10.197,22.138,24.922,43.458,39.409,64.428
		c29.466,42.653,57.298,82.939,44.98,125.701c-2.56,8.886-6.765,17.564-12.662,26.127c-0.061,0.023-0.122,0.046-0.182,0.069
		c5.698-8.47,9.768-17.055,12.252-25.847c12.279-43.472-16.209-84.096-46.37-127.105c-14.394-20.526-29.02-41.387-39.366-62.999
		C254.837,137.883,255.481,137.764,256.128,137.639z M253.175,138.221c10.385,21.754,25.09,42.728,39.562,63.364
		c30.021,42.81,58.376,83.245,46.226,126.259c-2.568,9.092-6.855,17.968-12.912,26.729c-0.056,0.021-0.111,0.042-0.167,0.063
		c5.852-8.666,10.001-17.45,12.492-26.446c12.11-43.729-16.908-84.502-47.632-127.669c-14.364-20.182-28.956-40.688-39.474-61.907
		C251.905,138.482,252.541,138.349,253.175,138.221z M250.254,138.823c10.558,21.363,25.232,41.983,39.676,62.277
		c30.581,42.968,59.466,83.553,47.482,126.823c-2.574,9.294-6.932,18.365-13.145,27.32c-0.051,0.019-0.1,0.038-0.151,0.057
		c6.003-8.86,10.222-17.837,12.718-27.034c11.94-43.989-17.614-84.913-48.904-128.239c-14.326-19.837-28.874-39.987-39.55-60.815
		C249.006,139.079,249.629,138.954,250.254,138.823z M247.365,139.435c10.718,20.968,25.348,41.23,39.754,61.177
		c31.146,43.127,60.565,83.863,48.75,127.391c-2.575,9.486-7.01,18.741-13.369,27.882c-0.044,0.016-0.089,0.032-0.134,0.048
		c6.142-9.042,10.434-18.202,12.93-27.588c11.771-44.252-18.325-85.328-50.188-128.814c-14.274-19.482-28.768-39.264-39.586-59.69
		C246.138,139.705,246.752,139.568,247.365,139.435z M244.506,140.064c10.863,20.567,25.441,40.463,39.797,60.057
		c31.717,43.289,61.675,84.177,50.028,127.966c-2.369,8.907-6.483,17.727-12.356,26.483c5.567-8.576,9.477-17.26,11.792-26.145
		c11.599-44.518-19.042-85.746-51.482-129.395c-14.214-19.126-28.639-38.541-39.586-58.565
		C243.301,140.328,243.903,140.198,244.506,140.064z M241.684,140.702c10.994,20.162,25.503,39.689,39.799,58.924
		c32.292,43.451,62.794,84.493,51.316,128.546c-2.32,8.904-6.378,17.723-12.187,26.479c5.509-8.578,9.365-17.263,11.631-26.145
		c11.426-44.786-19.766-86.169-52.788-129.981c-14.14-18.759-28.487-37.796-39.547-57.41
		C240.5,140.978,241.092,140.838,241.684,140.702z M238.889,141.355c11.109,19.752,25.542,38.903,39.766,57.774
		c32.874,43.615,63.925,84.811,52.617,129.132c-2.534,9.934-7.226,19.764-14.094,29.522c-0.027,0.01-0.055,0.019-0.082,0.029
		c6.635-9.655,11.171-19.384,13.627-29.217c11.253-45.06-20.494-86.597-54.104-130.574c-14.057-18.392-28.316-37.052-39.473-56.256
		C237.727,141.625,238.307,141.492,238.889,141.355z M236.13,142.016c11.208,19.339,25.552,38.11,39.693,56.612
		c33.461,43.78,65.066,85.131,53.93,129.723c-2.522,10.099-7.267,20.092-14.253,30.013c-0.023,0.008-0.046,0.016-0.069,0.024
		c6.749-9.818,11.337-19.709,13.78-29.705c11.079-45.335-21.229-87.029-55.434-131.171c-13.96-18.016-28.115-36.288-39.354-55.073
		C234.992,142.297,235.562,142.154,236.13,142.016z M233.404,142.69c11.292,18.921,25.535,37.307,39.582,55.434
		c34.053,43.946,66.217,85.455,55.252,130.32c-2.507,10.26-7.298,20.413-14.398,30.494c-0.019,0.006-0.037,0.013-0.056,0.019
		c6.859-9.978,11.492-20.029,13.92-30.186c10.904-45.612-21.97-87.464-56.773-131.773c-13.856-17.64-27.903-35.524-39.207-53.893
		C232.284,142.964,232.843,142.83,233.404,142.69z M230.709,143.371c11.359,18.5,25.493,36.496,39.434,54.246
		c34.65,44.114,67.38,85.782,56.588,130.923c-2.489,10.41-7.316,20.713-14.519,30.945c-0.015,0.005-0.029,0.01-0.044,0.014
		c6.957-10.128,11.625-20.327,14.034-30.634c10.728-45.894-22.718-87.905-58.126-132.382
		c-13.736-17.254-27.655-34.742-39.007-52.684C229.616,143.656,230.163,143.511,230.709,143.371z M228.051,144.065
		c11.409,18.075,25.418,35.676,39.243,53.041c35.253,44.283,68.552,86.11,57.935,131.532c-2.468,10.557-7.338,21.006-14.637,31.385
		c-0.011,0.004-0.021,0.007-0.032,0.011c7.051-10.274,11.76-20.62,14.148-31.073c10.551-46.178-23.471-88.349-59.49-132.996
		c-13.608-16.868-27.395-33.96-38.78-51.478C226.976,144.342,227.513,144.206,228.051,144.065z M225.42,144.762
		c11.444,17.649,25.322,34.852,39.019,51.83c35.862,44.453,69.736,86.44,59.294,132.146c-2.445,10.701-7.35,21.293-14.744,31.817
		c-0.007,0.002-0.014,0.005-0.021,0.007c7.142-10.418,11.885-20.907,14.251-31.504c10.371-46.465-24.231-88.797-60.866-133.615
		c-13.466-16.474-27.104-33.162-38.504-50.248C224.373,145.05,224.894,144.903,225.42,144.762z M220.266,146.182
		c11.462,16.786,25.037,33.181,38.444,49.372c37.097,44.797,72.136,87.109,62.048,133.389c-2.349,10.775-7.191,21.443-14.522,32.048
		c7.079-10.498,11.752-21.063,14.023-31.734c10.01-47.049-25.772-89.707-63.656-134.87c-13.152-15.679-26.464-31.55-37.843-47.77
		C219.263,146.473,219.762,146.324,220.266,146.182z M217.744,146.911c11.445,16.347,24.85,32.33,38.094,48.119
		C293.56,240,329.19,282.478,319.281,329.049c-2.282,10.725-7.025,21.347-14.227,31.909c6.953-10.456,11.529-20.975,13.734-31.597
		c9.828-47.345-26.553-90.168-65.069-135.505c-12.978-15.276-26.108-30.734-37.451-46.518
		C216.759,147.193,217.252,147.053,217.744,146.911z M215.247,147.632c11.412,15.912,24.638,31.484,37.71,46.871
		c38.354,45.146,74.581,87.788,64.852,134.654c-2.216,10.674-6.86,21.248-13.931,31.765c6.827-10.412,11.306-20.885,13.446-31.457
		c9.645-47.644-27.34-90.632-66.495-136.145c-12.792-14.869-25.731-29.911-37.021-45.256
		C214.289,147.92,214.766,147.774,215.247,147.632z M212.791,148.372c11.359,15.469,24.394,30.622,37.28,45.6
		c38.991,45.322,75.82,88.13,66.273,135.294c-2.146,10.6-6.677,21.105-13.594,31.554c6.677-10.345,11.044-20.749,13.116-31.248
		c9.459-47.946-28.134-91.102-67.934-136.791c-12.595-14.459-25.33-29.08-36.549-43.982
		C211.852,148.656,212.322,148.514,212.791,148.372z M210.364,149.108c11.291,15.027,24.124,29.761,36.815,44.33
		c39.634,45.499,77.071,88.475,67.707,135.941c-2.07,10.494-6.467,20.897-13.197,31.247c6.495-10.247,10.73-20.55,12.727-30.944
		c9.271-48.252-28.936-91.575-69.386-137.442c-12.388-14.047-24.909-28.248-36.04-42.708
		C209.446,149.389,209.905,149.249,210.364,149.108z M312.97,329.792c4.08-21.817-1.468-44.851-16.962-70.416
		c-13.81-22.787-34.186-45.61-53.89-67.682c-12.167-13.629-24.462-27.402-35.487-41.415c0.447-0.142,0.893-0.285,1.341-0.425
		c11.205,14.582,23.823,28.893,36.306,43.047c40.284,45.678,78.333,88.822,69.154,136.591c-2.007,10.448-6.312,20.807-12.922,31.117
		C306.889,350.401,311.034,340.141,312.97,329.792z M321.735,329.155c10.192-46.755-24.998-89.25-62.254-134.239
		c-13.316-16.08-26.796-32.362-38.195-49.018c0.513-0.144,1.03-0.283,1.544-0.425c11.461,17.217,25.19,34.017,38.747,50.601
		c36.477,44.625,70.93,86.774,60.664,132.764c-2.419,10.84-7.359,21.57-14.84,32.233c-0.01,0.003-0.019,0.006-0.029,0.009
		C314.603,350.522,319.395,339.894,321.735,329.155z M336.784,361.235c0.217-0.245,0.426-0.491,0.64-0.736
		c0.008-0.003,0.015-0.006,0.023-0.009C337.225,360.738,337.009,360.987,336.784,361.235z M338.128,361.235
		c0.473-0.528,0.933-1.057,1.392-1.586c0.017-0.007,0.034-0.014,0.05-0.02C339.095,360.165,338.619,360.701,338.128,361.235z
		 M341.271,359.264c0.142-0.164,0.278-0.328,0.419-0.492c0.006-0.002,0.012-0.005,0.018-0.007
		C341.56,358.93,341.419,359.097,341.271,359.264z M345.992,356.975c0.046-0.019,0.092-0.039,0.138-0.058
		c-1.278,1.48-2.607,2.957-3.993,4.43C343.475,359.893,344.758,358.436,345.992,356.975z M348.166,356.053
		c0.057-0.024,0.113-0.05,0.169-0.074c-1.532,1.79-3.133,3.574-4.823,5.352C345.143,359.578,346.688,357.818,348.166,356.053z
		 M350.411,355.073c0.067-0.029,0.134-0.058,0.2-0.087c-1.802,2.127-3.714,4.245-5.74,6.356
		C346.826,359.259,348.672,357.17,350.411,355.073z M352.637,354.101c0.077-0.034,0.155-0.068,0.232-0.103
		c-2.061,2.458-4.261,4.905-6.621,7.341C348.523,358.937,350.647,356.525,352.637,354.101z M354.943,353.059
		c0.089-0.04,0.179-0.081,0.268-0.121c-2.334,2.818-4.862,5.62-7.59,8.407C350.25,358.597,352.689,355.836,354.943,353.059z
		 M357.234,352.02c0.099-0.045,0.199-0.089,0.297-0.135c-2.592,3.167-5.42,6.314-8.508,9.442
		C352.001,358.244,354.731,355.142,357.234,352.02z M359.595,350.92c0.113-0.053,0.225-0.106,0.338-0.159
		c-2.866,3.551-6.04,7.076-9.53,10.577C353.767,357.89,356.828,354.418,359.595,350.92z M361.946,349.816
		c0.122-0.058,0.246-0.115,0.368-0.173c-3.127,3.93-6.623,7.828-10.514,11.696C355.552,357.527,358.926,353.687,361.946,349.816z
		 M364.361,348.653c0.136-0.066,0.272-0.133,0.408-0.199c-3.391,4.331-7.239,8.62-11.557,12.874
		C357.373,357.14,361.086,352.917,364.361,348.653z M366.768,347.481c0.147-0.073,0.296-0.143,0.443-0.216
		c-3.655,4.745-7.852,9.44-12.619,14.092C359.187,356.777,363.236,352.153,366.768,347.481z M369.229,346.254
		c0.162-0.081,0.323-0.163,0.485-0.245c-3.915,5.176-8.476,10.291-13.712,15.353C361.045,356.38,365.446,351.347,369.229,346.254z
		 M371.698,345.008c0.172-0.088,0.347-0.174,0.519-0.262c-4.159,5.604-9.075,11.134-14.78,16.603
		C362.934,355.966,367.677,350.522,371.698,345.008z M374.198,343.714c0.188-0.098,0.375-0.196,0.562-0.294
		c-4.411,6.067-9.704,12.047-15.924,17.954C364.826,355.563,369.933,349.681,374.198,343.714z M376.728,342.392
		c0.198-0.105,0.399-0.209,0.597-0.315c-4.651,6.538-10.333,12.971-17.079,19.32C366.743,355.151,372.228,348.822,376.728,342.392z
		 M379.265,341.027c0.214-0.115,0.427-0.231,0.64-0.347c-4.877,7.019-10.932,13.917-18.219,20.715
		C368.702,354.709,374.544,347.927,379.265,341.027z M381.818,339.644c0.229-0.126,0.454-0.255,0.682-0.382
		c-5.096,7.517-11.537,14.891-19.389,22.151C370.667,354.277,376.884,347.03,381.818,339.644z M364.559,361.417
		c8.123-7.605,14.726-15.338,19.862-23.232c0.238-0.134,0.477-0.266,0.714-0.401C379.835,345.817,372.996,353.682,364.559,361.417z
		 M393.642,321.598c-0.298,0.186-0.599,0.371-0.898,0.557c13.931-35.201,0.373-70.342-13.966-107.448
		c-10.347-26.777-20.928-54.193-22.341-83.523c0.854,0.07,1.706,0.141,2.554,0.218c1.119,29.769,11.57,57.531,21.557,84.053
		C394.379,252.185,407.458,286.976,393.642,321.598z"/>
	<g>
		<ellipse id="ellipse3860_1_" style="opacity:0.7;fill:#798CBC;" cx="256" cy="256" rx="120.087" ry="62.511"/>
		<path style="fill:#798CBC;" d="M256,321.012c-32.471,0-63.038-6.603-86.069-18.592c-23.549-12.259-36.519-28.744-36.519-46.42
			c0-17.676,12.969-34.161,36.519-46.419c23.031-11.989,53.598-18.592,86.069-18.592s63.037,6.603,86.069,18.592
			c23.549,12.258,36.519,28.744,36.519,46.419c0,17.675-12.97,34.161-36.519,46.42C319.038,314.409,288.471,321.012,256,321.012z
			 M256,195.988c-64.838,0-117.587,26.921-117.587,60.011c0,33.091,52.75,60.012,117.587,60.012S373.588,289.091,373.588,256
			C373.588,222.91,320.838,195.988,256,195.988z"/>
	</g>
	<g>
		<g>
			<path id="p" style="fill:#FFFFFF;" d="M316.972,227.591h-27.636l-11.95,60.5h14.192l2.988-15.685h13.444
				c12.698,0.747,26.889-9.71,26.889-27.636C334.898,234.315,328.923,228.339,316.972,227.591z M306.515,261.204h-8.963
				l3.735-22.408h9.71c5.229,0,8.963,2.241,8.963,6.723C319.213,258.216,313.238,260.457,306.515,261.204z"/>
			<path id="h_1_" style="fill:#FFFFFF;" d="M230.329,272.407l11.95-60.5h14.192l-2.988,15.685h13.444
				c11.95,0.747,16.432,6.723,14.938,14.192l-5.229,30.623h-14.938l5.229-27.636c0.747-3.735,0.747-5.975-4.481-5.975h-11.204
				l-6.723,33.611H230.329z"/>
			<path id="p_1_" style="fill:#FFFFFF;" d="M216.885,227.591h-27.636l-11.95,60.5h14.192l2.988-15.685h13.444
				c12.698,0.747,26.889-9.71,26.889-27.636C234.812,234.315,228.835,228.339,216.885,227.591z M206.428,261.204h-8.963
				l3.735-22.408h9.71c5.229,0,8.963,2.241,8.963,6.723C219.126,258.216,213.151,260.457,206.428,261.204z"/>
		</g>
		<g>
			<path style="fill:#798CBC;" d="M192.241,289.001h-16.048l12.309-62.317h28.382c12.341,0.769,18.835,7.023,18.835,18.086
				c0,8.204-2.999,15.655-8.445,20.983c-4.936,4.828-11.523,7.598-18.071,7.598l0,0c-0.446,0-0.891-0.013-1.334-0.039l-12.64,0.002
				L192.241,289.001z M178.404,287.185h12.335l2.988-15.685h14.196c0.461,0.025,0.871,0.037,1.281,0.037
				c6.078,0,12.202-2.581,16.801-7.08c3.603-3.525,7.899-9.802,7.899-19.685c0-10.09-5.745-15.565-17.075-16.272l-26.833,0.002
				L178.404,287.185z M206.478,262.111h-10.085l4.037-24.223h10.479c6.089,0,9.871,2.924,9.871,7.631
				c-0.779,13.28-7.31,15.816-14.252,16.588L206.478,262.111z M198.537,260.295h7.84c5.976-0.669,11.857-2.388,12.589-14.83
				c-0.002-5.194-5.635-5.761-8.057-5.761h-8.941L198.537,260.295z"/>
			<path style="fill:#798CBC;" d="M277.405,273.315h-16.801l5.432-28.713c0.391-1.958,0.519-3.305-0.047-3.995
				c-0.491-0.599-1.684-0.904-3.542-0.904h-10.459l-6.723,33.611h-16.041l12.31-62.317h16.034l-2.988,15.684h12.347
				c6.561,0.409,11.365,2.401,13.949,5.763c1.963,2.554,2.613,5.844,1.879,9.515L277.405,273.315z M262.796,271.499h13.076
				l5.1-29.869c0.633-3.167,0.101-5.951-1.534-8.077c-2.256-2.934-6.602-4.683-12.566-5.055l-14.486,0.002l2.988-15.684h-12.347
				L231.433,271.5h12.342l6.723-33.611h11.948c2.498,0,4.07,0.499,4.947,1.568c1.131,1.379,0.846,3.385,0.425,5.493L262.796,271.499
				z"/>
			<path style="fill:#798CBC;" d="M292.328,289.001H276.28l12.31-62.317h28.382c12.341,0.769,18.834,7.023,18.834,18.086
				c0,8.204-2.999,15.655-8.445,20.983c-4.936,4.828-11.523,7.598-18.07,7.598c-0.001,0,0,0,0,0c-0.446,0-0.891-0.013-1.335-0.039
				l-12.641,0.002L292.328,289.001z M278.49,287.185h12.335l2.988-15.685h14.196c0.461,0.025,0.871,0.037,1.281,0.037
				c6.077,0,12.201-2.581,16.801-7.08c3.603-3.525,7.899-9.802,7.899-19.685c0-10.09-5.745-15.565-17.075-16.272l-26.832,0.002
				L278.49,287.185z M306.566,262.111H296.48l4.038-24.223h10.478c6.089,0,9.871,2.924,9.871,7.631
				c-0.779,13.28-7.31,15.816-14.251,16.588L306.566,262.111z M298.624,260.295h7.841c5.975-0.669,11.857-2.388,12.588-14.83
				c-0.002-5.194-5.635-5.761-8.057-5.761h-8.941L298.624,260.295z"/>
		</g>
	</g>
</g>
</svg>
