<?xml version="1.0" encoding="utf-8"?>
<!-- Generator: Adobe Illustrator 18.0.0, SVG Export Plug-In . SVG Version: 6.00 Build 0)  -->
<!DOCTYPE svg PUBLIC "-//W3C//DTD SVG 1.1//EN" "http://www.w3.org/Graphics/SVG/1.1/DTD/svg11.dtd">
<svg version="1.1" id="Layer_1" xmlns="http://www.w3.org/2000/svg" xmlns:xlink="http://www.w3.org/1999/xlink" x="0px" y="0px"
	 viewBox="0 0 512 512" style="enable-background:new 0 0 512 512;" xml:space="preserve">
<path style="fill:#282828;" d="M446,486H66c-22.091,0-40-17.909-40-40V66c0-22.091,17.909-40,40-40h380c22.091,0,40,17.909,40,40
	v380C486,468.091,468.091,486,446,486z"/>
<path style="fill:#D8FC06;" d="M432.191,414.934H79.809c-18.935,0-34.285-15.35-34.285-34.285V79.92
	c0-18.935,15.35-34.285,34.285-34.285h352.381c18.935,0,34.285,15.35,34.285,34.285v300.729
	C466.476,399.584,451.126,414.934,432.191,414.934z"/>
<g style="opacity:0.4;">
	<path d="M432.191,45.635H79.809c-18.935,0-34.285,15.35-34.285,34.285v26c0-18.935,15.35-34.285,34.285-34.285h352.381
		c18.935,0,34.285,15.35,34.285,34.285v-26C466.476,60.985,451.126,45.635,432.191,45.635z"/>
</g>
<g>
	<circle style="fill:#D8FC06;" cx="256" cy="450.719" r="15.029"/>
	<path style="opacity:0.4;enable-background:new    ;" d="M271.029,450.719c0,0-6.729-6.75-15.029-6.75s-15.029,6.75-15.029,6.75
		c0-8.301,6.729-15.029,15.029-15.029S271.029,442.42,271.029,450.719z"/>
	<path style="fill:#303030;" d="M256,466.895c-8.919,0-16.176-7.256-16.176-16.176c0-8.919,7.256-16.175,16.176-16.175
		c8.92,0,16.176,7.256,16.176,16.175C272.176,459.639,264.92,466.895,256,466.895z M256,436.837
		c-7.655,0-13.883,6.227-13.883,13.882c0,7.656,6.227,13.883,13.883,13.883c7.656,0,13.883-6.227,13.883-13.883
		C269.883,443.065,263.656,436.837,256,436.837z"/>
</g>
</svg>
