<?xml version="1.0" encoding="utf-8"?>
<!-- Generator: Adobe Illustrator 18.0.0, SVG Export Plug-In . SVG Version: 6.00 Build 0)  -->
<!DOCTYPE svg PUBLIC "-//W3C//DTD SVG 1.1//EN" "http://www.w3.org/Graphics/SVG/1.1/DTD/svg11.dtd">
<svg version="1.1" id="Layer_1" xmlns="http://www.w3.org/2000/svg" xmlns:xlink="http://www.w3.org/1999/xlink" x="0px" y="0px"
	 viewBox="0 0 512 512" style="enable-background:new 0 0 512 512;" xml:space="preserve">
<circle style="fill:#3E3D59;" cx="256" cy="256" r="230"/>
<g>
	<path style="fill:#FFFFFF;" d="M292.842,358.542c-0.712,0.452-1.426,0.898-2.149,1.327
		C291.416,359.44,292.13,358.994,292.842,358.542z"/>
	<path style="fill:#FFFFFF;" d="M286.508,200.234c-0.013-0.178-0.014-0.359,0.005-0.54
		C286.494,199.875,286.494,200.056,286.508,200.234z"/>
	<path style="fill:#FFFFFF;" d="M219.047,312.297c0-24.704-20.098-44.801-44.801-44.801c-1.286,0-2.556,0.067-3.816,0.174
		c0.006-0.072,0.014-0.142,0.02-0.214c-0.152,1.833-0.236,3.683-0.236,5.551c0,1.328,0.053,2.673,0.13,4.026
		c-0.039-0.695-0.067-1.386-0.087-2.075c1.311-0.139,2.641-0.214,3.987-0.214c20.706,0,37.552,16.846,37.552,37.553
		c0,11.435-5.144,21.685-13.232,28.578c1.614,1.809,3.282,3.562,5.003,5.249C213.04,337.905,219.047,325.793,219.047,312.297z
		 M201.737,344.29c-0.481-0.495-0.95-1.002-1.422-1.507c8.604-7.368,14.072-18.297,14.072-30.486
		c0-22.134-18.008-40.142-40.141-40.142c-1.357,0-2.697,0.07-4.018,0.201c0.007-0.695,0.017-1.389,0.045-2.08
		c1.309-0.123,2.633-0.193,3.974-0.193c23.276,0,42.212,18.936,42.212,42.213C216.459,325.079,210.74,336.543,201.737,344.29z"/>
	<path style="fill:#FFFFFF;" d="M245.493,270.554c0-30.689,16.536-57.578,41.158-72.258l0.288-2.906
		c-26.142,14.886-43.821,42.99-43.821,75.164c0,37.841,24.449,70.059,58.372,81.745c-0.637,0.518-1.274,1.035-1.922,1.535
		c-34.088-12.318-58.521-44.996-58.521-83.279c0-33.468,18.672-62.653,46.143-77.697l-0.081,0.819l0.481-4.858l-0.118,1.192
		c-28.983,15.21-48.801,45.603-48.801,80.543c0,38.764,24.392,71.932,58.632,84.976c-0.676,0.489-1.363,0.959-2.051,1.428
		c-34.328-13.682-58.653-47.255-58.653-86.404c0-36.217,20.819-67.66,51.116-83l0.276-2.791
		c-31.799,15.474-53.768,48.114-53.768,85.791c0,39.565,24.227,73.577,58.622,87.987c3.75-2.38,7.351-5.072,10.777-8.027
		C269.924,339.552,245.493,307.86,245.493,270.554z"/>
	<path style="fill:#FFFFFF;" d="M209.727,312.297c0-19.566-15.917-35.482-35.481-35.482c-1.319,0-2.619,0.078-3.901,0.219
		c0.06,1.052,0.143,2.11,0.248,3.175c-0.02-0.196-0.045-0.393-0.062-0.589c1.22-0.138,2.459-0.216,3.716-0.216
		c18.137,0,32.892,14.756,32.892,32.893c0,10.018-4.508,18.999-11.595,25.036c-0.437-0.534-0.878-1.064-1.307-1.605
		c1.247,1.578,2.542,3.114,3.868,4.62c-0.301-0.343-0.604-0.684-0.902-1.031C204.858,332.805,209.727,323.112,209.727,312.297z"/>
	<path style="fill:#FFFFFF;" d="M232.151,270.554c0-38.944,22.973-72.617,56.077-88.196l-0.058,0.586l1.916-19.35
		c0.212-2.148,2.485-3.677,4.896-3.287c10.503,1.699,19.804,6.447,26.678,13.154c-0.001,0-0.001-0.001-0.001-0.001
		c2.609-0.211,5.246-0.322,7.908-0.322c0.694,0,1.385,0.012,2.076,0.026c0.561,0.694,1.099,1.403,1.619,2.123
		c-8.396-11.616-22.207-19.922-38.293-22.131c-2.144-0.295-3.648-2.02-3.46-3.922l4.018-40.569c0.212-2.137-1.704-3.974-4.143-3.974
		h-70.766c-2.439,0-4.355,1.838-4.143,3.975l4.025,40.567c0.189,1.902-1.315,3.627-3.46,3.922
		c-26.552,3.643-46.936,23.879-46.936,48.233c0,11.139,4.272,21.412,11.44,29.636c1.018,1.168,1.152,2.76,0.308,4.032
		c-5.184,7.814-8.81,16.522-10.52,25.796c0.965-0.054,1.935-0.087,2.914-0.087c28.415,0,51.533,23.118,51.533,51.533
		c0,15.246-6.661,28.961-17.218,38.404c-0.001-0.001-0.001-0.001-0.003-0.002c5.652,4.85,11.768,9.004,18.256,12.188
		c1.797,0.882,2.612,2.768,1.899,4.466l-10.148,24.171c-0.603,1.437-2.16,2.391-3.902,2.391c-1.234,0-2.401,0.488-3.201,1.314
		c-5.475,5.645-1.022,12.082,5.141,12.082h29.503h19.847h31.386c1.233,0,2.401-0.488,3.201-1.314
		c5.475-5.645,1.022-12.082-5.141-12.082h-0.955l-11.143-26.592c-0.711-1.696,0.103-3.58,1.897-4.462
		c1.864-0.916,3.694-1.923,5.496-2.992C256.27,344.828,232.151,310.458,232.151,270.554z M222.989,203.365
		c-12.173,4.467-22.923,11.328-31.491,19.916c-1.858,1.862-5.244,1.57-6.688-0.556c-4.243-6.248-6.688-13.545-6.688-21.337
		c0-20.454,16.804-37.512,38.908-41.082c2.411-0.389,4.682,1.139,4.895,3.287l3.581,36.094
		C225.662,201.263,224.65,202.755,222.989,203.365z"/>
	<path style="fill:#FFFFFF;" d="M288.424,203.094c-0.003-0.002-0.006-0.004-0.009-0.006
		C288.419,203.09,288.421,203.092,288.424,203.094z"/>
	<path style="fill:#FFFFFF;" d="M223.708,312.297c0-27.273-22.189-49.461-49.461-49.461c-1.101,0-2.189,0.049-3.273,0.12
		c-0.132,0.869-0.245,1.743-0.343,2.622c1.195-0.091,2.398-0.153,3.616-0.153c25.846,0,46.872,21.027,46.872,46.872
		c0,14.05-6.222,26.666-16.046,35.264c0.632,0.596,1.266,1.189,1.912,1.767C217.23,340.26,223.708,327.023,223.708,312.297z"/>
	<path style="fill:#FFFFFF;" d="M249.94,270.554c0-28.636,15.2-53.781,37.95-67.814c-0.666-0.519-1.119-1.218-1.3-1.987
		c-23.397,14.459-39.026,40.335-39.026,69.802c0,36.821,24.395,68.046,57.87,78.375c-0.596,0.539-1.205,1.06-1.811,1.583
		c1.303-1.124,2.583-2.281,3.835-3.477C274.277,337.428,249.94,306.79,249.94,270.554z"/>
	<path style="fill:#FFFFFF;" d="M314.03,217.47c-0.657-0.531-1.337-1.038-2.012-1.551
		C312.693,216.431,313.373,216.939,314.03,217.47z"/>
	<path style="fill:#FFFFFF;" d="M322.104,329.841c-0.445,0.641-0.905,1.273-1.362,1.905
		C321.2,331.114,321.659,330.482,322.104,329.841z"/>
	<path style="fill:#FFFFFF;" d="M323.532,175.406c0.67,0.739,1.314,1.497,1.927,2.276l-0.001-0.001
		c1.363-0.06,2.732-0.096,4.11-0.096c1.799,0,3.585,0.057,5.359,0.159c-0.528-0.834-1.084-1.653-1.665-2.456
		c-1.226-0.047-2.456-0.078-3.695-0.078C327.539,175.209,325.528,175.28,323.532,175.406z"/>
	<path style="fill:#FFFFFF;" d="M309.155,345.369c-0.561,0.561-1.124,1.119-1.697,1.666
		C308.03,346.488,308.594,345.93,309.155,345.369z"/>
	<path style="fill:#FFFFFF;" d="M329.568,179.656c-0.877,0-1.751,0.016-2.622,0.04c0.537,0.773,1.051,1.558,1.531,2.364
		c0,0,0,0,0-0.001c0.365-0.005,0.726-0.028,1.091-0.028c2.682,0,5.331,0.14,7.953,0.375c-0.771-1.601-1.639-3.155-2.593-4.664
		c0.449,0.709,0.882,1.427,1.29,2.157C334.021,179.741,331.804,179.656,329.568,179.656z"/>
	<path style="fill:#FFFFFF;" d="M329.608,184.103c0.41,0.79,0.795,1.591,1.151,2.406l0,0c2.936,0.041,5.835,0.234,8.692,0.57
		c0.251,0.718,0.484,1.444,0.697,2.176c-2.807-0.363-5.657-0.583-8.544-0.654l0,0c0.289,0.788,0.542,1.589,0.778,2.397v-0.001
		c2.844,0.099,5.651,0.343,8.413,0.735c0.163,0.709,0.307,1.423,0.434,2.143c-2.724-0.412-5.495-0.672-8.302-0.793c0,0,0,0,0-0.001
		c0.182,0.789,0.344,1.585,0.474,2.389v-0.001c2.774,0.14,5.506,0.442,8.194,0.876c-0.481-4.099-1.539-8.048-3.105-11.785
		c-2.92-0.301-5.882-0.457-8.879-0.458C329.608,184.104,329.608,184.104,329.608,184.103z"/>
	<path style="fill:#FFFFFF;" d="M327.191,222.724c-0.167,0.246-0.366,0.462-0.58,0.659
		C326.826,223.189,327.024,222.972,327.191,222.724z"/>
	<path style="fill:#FFFFFF;" d="M325.22,224.208c0.025-0.009,0.048-0.02,0.073-0.03C325.268,224.187,325.244,224.199,325.22,224.208
		z"/>
	<path style="fill:#FFFFFF;" d="M205.068,312.297c0-16.996-13.826-30.822-30.821-30.822c-1.183,0-2.348,0.074-3.496,0.204
		c0.278,2.366,0.656,4.755,1.147,7.163c0.773-0.077,1.556-0.118,2.349-0.118c12.998,0,23.572,10.575,23.572,23.573
		c0,6.989-3.06,13.274-7.908,17.595c0.494,0.711,1.003,1.412,1.513,2.112c5.499-4.8,8.984-11.852,8.984-19.707
		c0-14.425-11.736-26.161-26.161-26.161c-0.954,0-1.895,0.055-2.822,0.155c-0.119-0.684-0.225-1.365-0.327-2.045
		c1.034-0.115,2.084-0.18,3.149-0.18c15.567,0,28.232,12.665,28.232,28.232c0,8.537-3.814,16.196-9.822,21.377
		c-0.416-0.552-0.826-1.109-1.232-1.668c0.915,1.258,1.848,2.503,2.812,3.722C200.858,330.07,205.068,321.668,205.068,312.297z"/>
	<path style="fill:#FFFFFF;" d="M195.748,312.297c0-11.855-9.646-21.502-21.501-21.502c-0.639,0-1.268,0.041-1.893,0.096
		c3.012,13.211,9.093,26.783,17.472,38.876c-0.372-0.538-0.735-1.081-1.098-1.624C193.029,324.209,195.748,318.572,195.748,312.297z
		"/>
	<path style="fill:#FFFFFF;" d="M325.942,223.87c0.09-0.052,0.17-0.119,0.255-0.178C326.113,223.752,326.031,223.817,325.942,223.87
		z"/>
	<path style="fill:#FFFFFF;" d="M272.176,270.554c0-25.525,16.755-47.203,39.84-54.637c-0.765-0.581-1.526-1.166-2.314-1.724
		c-23.217,8.208-39.902,30.367-39.902,56.361c0,30.428,22.861,55.6,52.305,59.286c0.954-1.373,1.87-2.769,2.763-4.177
		c-0.419,0.66-0.839,1.32-1.272,1.972C294.747,324.639,272.176,300.184,272.176,270.554z"/>
	<path style="fill:#FFFFFF;" d="M276.622,270.554c0-24.583,16.841-45.303,39.592-51.237c-0.72-0.624-1.441-1.247-2.185-1.848
		c-22.962,6.733-39.783,27.975-39.783,53.085c0,28.921,22.311,52.714,50.622,55.108c0.478-0.755,0.952-1.511,1.412-2.275
		C298.613,321.683,276.622,298.644,276.622,270.554z"/>
	<path style="fill:#FFFFFF;" d="M329.039,219.694c-0.457,0.82-0.944,1.624-1.459,2.413c0.66-0.027,1.321-0.051,1.987-0.051
		c2.318,0,4.595,0.174,6.826,0.489c-0.361,0.655-0.733,1.305-1.126,1.944c-1.87-0.23-3.77-0.362-5.7-0.362
		c-1.733,0-3.443,0.103-5.127,0.289c-0.205,0.037-0.409,0.069-0.617,0.078c-22.897,2.84-40.683,22.405-40.683,46.059
		c0,25.6,20.827,46.427,46.427,46.427c0.107,0,0.212-0.007,0.32-0.008c0.482-0.922,0.955-1.848,1.41-2.779
		c-0.06,0.124-0.116,0.249-0.178,0.372c-0.516,0.018-1.032,0.039-1.553,0.039c-24.29,0-44.05-19.762-44.05-44.051
		s19.76-44.051,44.05-44.051c1.43,0,2.843,0.074,4.239,0.208c-0.462,0.666-0.943,1.322-1.439,1.966
		c2.018-2.621,3.755-5.421,5.173-8.369c-2.598-0.41-5.26-0.629-7.971-0.629C329.391,219.68,329.216,219.692,329.039,219.694z"/>
	<path style="fill:#FFFFFF;" d="M287.589,270.554c0,23.148,18.832,41.981,41.979,41.981c0.861,0,1.714-0.034,2.562-0.086
		c6.162-13.129,9.656-26.901,9.656-39.442c0-13.838-4.241-26.802-11.637-37.951c-0.843-1.272-0.71-2.864,0.308-4.032
		c0.665-0.762,1.296-1.549,1.91-2.346c-0.926-0.061-1.857-0.104-2.799-0.104C306.421,228.575,287.589,247.407,287.589,270.554z"/>
	<path style="fill:#FFFFFF;" d="M281.07,270.554c0-23.531,16.847-43.194,39.112-47.578c-1.272-1.261-2.603-2.475-3.967-3.658
		c0.637,0.553,1.264,1.113,1.881,1.683c-22.543,5.218-39.402,25.447-39.402,49.554c0,27.35,21.696,49.718,48.78,50.821
		c0.839-1.454,1.641-2.922,2.414-4.401c-0.36,0.689-0.729,1.374-1.103,2.058C302.403,318.61,281.07,297.033,281.07,270.554z"/>
	<path style="fill:#FFFFFF;" d="M338.417,218.363c-0.278,0.655-0.57,1.303-0.878,1.945
		C337.848,219.667,338.14,219.019,338.417,218.363z"/>
	<path style="fill:#FFFFFF;" d="M333.508,206.472c0.037-0.265,0.061-0.534,0.094-0.8c-0.124,1.062-0.291,2.113-0.505,3.151l0,0
		c2.706,0.153,5.364,0.489,7.967,0.981c-0.135,0.679-0.287,1.353-0.453,2.022c-2.61-0.49-5.275-0.825-7.992-0.962l0,0
		c-0.211,0.795-0.442,1.582-0.704,2.359c2.738,0.111,5.425,0.419,8.052,0.902c-0.206,0.667-0.427,1.328-0.664,1.984
		c1.235-3.423,2.06-7.004,2.405-10.705c-0.064,0.691-0.145,1.378-0.241,2.06C338.865,206.972,336.21,206.636,333.508,206.472z"/>
	<path style="fill:#FFFFFF;" d="M331.627,214.021c-0.444,1.224-0.934,2.43-1.499,3.602l0,0c2.822,0.03,5.589,0.284,8.29,0.74
		c0.315-0.743,0.611-1.495,0.885-2.255c-2.65-0.472-5.363-0.755-8.127-0.834C331.341,214.862,331.48,214.44,331.627,214.021z"/>
	<path style="fill:#FFFFFF;" d="M333.854,202.039c-0.014,0.796-0.039,1.59-0.103,2.375c2.699,0.169,5.354,0.504,7.957,0.988
		c0.074-0.79,0.12-1.587,0.15-2.387C339.237,202.539,336.568,202.207,333.854,202.039z"/>
	<path style="fill:#FFFFFF;" d="M205.072,347.561c-0.504-0.475-1.007-0.951-1.502-1.436
		C204.065,346.611,204.568,347.086,205.072,347.561z"/>
	<path style="fill:#FFFFFF;" d="M267.729,270.554c0-26.356,16.581-48.901,39.854-57.786c0.573,0.38,1.144,0.761,1.709,1.149
		c-1.717-1.199-3.495-2.331-5.315-3.413c0.381,0.228,0.766,0.45,1.143,0.682c-23.315,9.637-39.767,32.613-39.767,59.367
		c0,31.857,23.323,58.357,53.787,63.355c-0.088,0.116-0.178,0.23-0.266,0.347c0.633-0.826,1.254-1.66,1.864-2.503
		C290.809,327.454,267.729,301.654,267.729,270.554z"/>
	<path style="fill:#FFFFFF;" d="M322.056,224.245c-0.075-0.027-0.143-0.07-0.218-0.101
		C321.913,224.175,321.981,224.218,322.056,224.245z"/>
	<path style="fill:#FFFFFF;" d="M263.281,270.554c0-27.076,16.326-50.398,39.644-60.677c-0.855-0.493-1.726-0.964-2.602-1.43
		c-23.273,11.003-39.418,34.701-39.418,62.107c0,33.215,23.71,60.992,55.092,67.31c0.579-0.697,1.157-1.395,1.72-2.106
		C286.804,330.153,263.281,303.058,263.281,270.554z"/>
	<path style="fill:#FFFFFF;" d="M337.52,182.407c0.341,0.709,0.662,1.428,0.967,2.154
		C338.183,183.835,337.862,183.117,337.52,182.407z"/>
	<path style="fill:#FFFFFF;" d="M258.834,270.554c0-27.684,15.995-51.69,39.221-63.3c-1.667-0.826-3.373-1.597-5.106-2.326
		c0.802,0.337,1.587,0.699,2.376,1.057c-23.1,12.3-38.867,36.623-38.867,64.568c0,34.503,24.033,63.48,56.233,71.122
		c-0.537,0.59-1.084,1.17-1.632,1.747c-32.533-8.268-56.671-37.8-56.671-72.869c0-28.165,15.578-52.749,38.562-65.626
		c-1.292-0.543-2.594-1.071-3.92-1.558c0.374,0.137,0.733,0.297,1.104,0.439c-22.798,13.521-38.121,38.371-38.121,66.745
		c0,35.701,24.255,65.828,57.146,74.813c2.385-2.385,4.668-4.891,6.839-7.502c-0.5,0.601-1.006,1.196-1.518,1.786
		C282.704,332.717,258.834,304.378,258.834,270.554z"/>
	<path style="fill:#FFFFFF;" d="M170.974,262.956c0.106-0.701,0.228-1.397,0.357-2.092
		C171.202,261.558,171.079,262.254,170.974,262.956z"/>
	<path style="fill:#FFFFFF;" d="M321.24,223.859c-0.263-0.162-0.512-0.353-0.737-0.579
		C320.729,223.507,320.977,223.698,321.24,223.859z"/>
	<path style="fill:#FFFFFF;" d="M333.681,197.568c0.13,1.258,0.198,2.533,0.198,3.82c0-0.478-0.018-0.952-0.037-1.426
		c2.726,0.163,5.407,0.49,8.042,0.955c0.002,0.158,0.013,0.313,0.013,0.472c0-1.703-0.11-3.382-0.304-5.041
		c0.083,0.709,0.147,1.422,0.195,2.139C339.13,198.037,336.428,197.721,333.681,197.568z"/>
</g>
</svg>
