<?xml version="1.0" encoding="utf-8"?>
<!-- Generator: Adobe Illustrator 18.0.0, SVG Export Plug-In . SVG Version: 6.00 Build 0)  -->
<!DOCTYPE svg PUBLIC "-//W3C//DTD SVG 1.1//EN" "http://www.w3.org/Graphics/SVG/1.1/DTD/svg11.dtd">
<svg version="1.1" id="Layer_1" xmlns="http://www.w3.org/2000/svg" xmlns:xlink="http://www.w3.org/1999/xlink" x="0px" y="0px"
	 viewBox="0 0 512 512" style="enable-background:new 0 0 512 512;" xml:space="preserve">
<g>
	<path style="fill:#3E3D59;" d="M197.321,275.066c-20.904-58.438-15.874-119.951,9.097-171.907l-5.197-3.001
		c-25.813,53.437-31.064,116.767-9.545,176.927c14.463,40.433,39.184,74.305,70.188,99.744l5.563-3.212
		C236.414,348.691,211.677,315.2,197.321,275.066z"/>
	<path style="fill:#3E3D59;" d="M186.757,278.845c-22.056-61.661-16.621-126.581,9.923-181.309l-5.2-3.002
		c-27.385,56.208-33.039,122.948-10.367,186.33c14.667,41.003,39.39,75.574,70.403,101.94l5.516-3.185
		C226.029,353.742,201.314,319.541,186.757,278.845z"/>
	<path style="fill:#3E3D59;" d="M176.193,282.624c-23.209-64.883-17.366-133.21,10.755-190.706L76.045,27.888
		c-4.355-2.517-9.721-2.517-14.079,0c-4.355,2.514-7.04,7.163-7.04,12.192v262.314c60.129-8.991,120.362,25.438,141.598,84.804
		c2.821,7.885,4.828,15.867,6.069,23.853l44.13-25.479C215.694,358.789,190.957,323.897,176.193,282.624z"/>
	<path style="fill:#3E3D59;" d="M207.885,271.288c-19.751-55.216-15.109-113.311,8.296-162.492l-5.189-2.996
		c-24.252,50.659-29.119,110.568-8.751,167.507c14.265,39.88,39.027,73.034,70.061,97.496l5.595-3.23
		C246.838,343.646,222.044,310.872,207.885,271.288z"/>
	<path style="fill:#3E3D59;" d="M218.449,267.509c-18.598-51.993-14.368-106.686,7.464-153.094l-5.204-3.004
		c-22.672,47.89-27.12,104.403-7.906,158.118c14.068,39.328,38.894,71.772,69.981,95.222l5.662-3.269
		C257.304,338.611,232.417,306.556,218.449,267.509z"/>
	<path style="fill:#3E3D59;" d="M54.927,307.68v6.609c55.264-9.11,111.007,22.297,130.527,76.867
		c3.102,8.672,5.115,17.471,6.127,26.251l6.134-3.542c-1.155-8.337-3.166-16.677-6.11-24.909
		C171.132,331.723,112.894,298.639,54.927,307.68z"/>
	<path style="fill:#3E3D59;" d="M239.576,259.951c-16.293-45.548-12.854-93.421,5.85-134.271l-5.217-3.012
		c-19.537,42.337-23.186,92.033-6.277,139.302c13.699,38.296,38.837,69.265,70.198,90.457l5.794-3.345
		C278.453,328.549,253.181,297.986,239.576,259.951z"/>
	<path style="fill:#3E3D59;" d="M147.326,404.795c-13.611-38.05-54.001-58.963-92.399-49.158v6.772
		c35.648-9.997,73.591,9.199,86.249,44.585c4.511,12.61,5.228,25.666,2.754,37.924l7.309-4.22
		C152.743,428.952,151.581,416.692,147.326,404.795z"/>
	<path style="fill:#3E3D59;" d="M54.927,319.591v6.637c50.389-9.256,101.654,19.116,119.458,68.889
		c3.397,9.497,5.355,19.163,5.99,28.761l6.261-3.615c-0.866-9.138-2.871-18.314-6.101-27.346
		C161.777,340.48,108.025,310.419,54.927,319.591z"/>
	<path style="fill:#3E3D59;" d="M125.187,412.715c-10.074-28.163-41.183-42.881-69.346-32.807c-0.31,0.111-0.608,0.239-0.914,0.357
		v91.656c0,5.028,2.684,9.677,7.04,12.192c2.176,1.256,4.61,1.888,7.04,1.888c2.429,0,4.863-0.632,7.039-1.888l46.902-27.079
		c-0.322-0.239-0.648-0.473-0.971-0.712C128.851,443.322,130.518,427.62,125.187,412.715z"/>
	<path style="fill:#3E3D59;" d="M136.256,408.755c-11.895-33.254-47.894-51.097-81.329-40.919v6.874
		c30.651-10.454,64.235,5.649,75.18,36.245c5.136,14.359,4.377,29.409-0.995,42.52l8.566-4.945
		C141.197,435.865,141.01,422.046,136.256,408.755z"/>
	<path style="fill:#3E3D59;" d="M158.395,400.836c-15.326-42.845-60.148-66.831-103.468-57.294v6.715
		c40.59-9.676,82.946,12.599,97.319,52.779c4.075,11.393,5.488,23.098,4.576,34.44l6.753-3.899
		C163.906,422.733,162.265,411.654,158.395,400.836z"/>
	<path style="fill:#3E3D59;" d="M54.927,331.537v6.669c45.5-9.439,92.3,15.894,108.388,60.87c3.717,10.39,5.492,21.007,5.527,31.46
		l6.455-3.727c-0.401-9.973-2.296-20.049-5.831-29.933C152.424,349.237,103.144,322.206,54.927,331.537z"/>
	<path style="fill:#3E3D59;" d="M229.013,263.73c-17.445-48.77-13.606-100.05,6.663-143.679l-5.214-3.01
		c-21.106,45.113-25.155,98.216-7.093,148.708c13.88,38.803,38.835,70.513,70.034,92.871l5.704-3.293
		C267.835,333.572,242.793,302.255,229.013,263.73z"/>
	<path style="fill:#3E3D59;" d="M292.397,241.057c-10.526-29.426-9.044-60.272,1.888-87.168l-5.229-3.019
		c-11.759,28.392-13.447,61.056-2.304,92.207c13.037,36.446,40.963,63.363,74.493,76.375l6.768-3.908
		C334.014,303.885,305.417,277.457,292.397,241.057z"/>
	<path style="fill:#3E3D59;" d="M260.705,252.393c-13.986-39.1-11.347-80.165,4.233-115.448l-5.221-3.014
		c-16.411,36.773-19.26,79.659-4.657,120.481c13.368,37.372,39.142,66.799,71.031,85.335l6.014-3.472
		C300.016,318.551,273.995,289.547,260.705,252.393z"/>
	<path style="fill:#3E3D59;" d="M271.27,248.614c-12.833-35.876-10.585-73.534,3.438-106.028l-5.222-3.015
		c-14.855,33.985-17.31,73.463-3.861,111.063c13.229,36.982,39.508,65.605,71.804,82.568l6.172-3.563
		C311.046,313.593,284.431,285.408,271.27,248.614z"/>
	<path style="fill:#3E3D59;" d="M450.034,243.811l-141.365-81.617c-8.687,22.774-9.622,48.629-0.788,73.325
		c13.117,36.669,44.498,61.656,80.257,68.407l61.896-35.736c4.355-2.517,7.04-7.163,7.04-12.192
		C457.073,250.972,454.389,246.328,450.034,243.811z"/>
	<path style="fill:#3E3D59;" d="M302.962,237.278c-9.372-26.199-8.27-53.642,1.125-77.73l-5.23-3.019
		c-10.221,25.586-11.53,54.843-1.541,82.769c13.021,36.401,42.319,62.392,76.783,72.733l7.309-4.22
		C346.308,299.236,316.015,273.771,302.962,237.278z"/>
	<path style="fill:#3E3D59;" d="M281.832,244.836c-11.679-32.651-9.821-66.905,2.649-96.607l-5.214-3.011
		c-13.304,31.191-15.374,67.261-3.077,101.636c13.114,36.661,40.081,64.451,72.91,79.609l6.412-3.702
		C322.335,308.697,294.899,281.365,281.832,244.836z"/>
	<path style="fill:#3E3D59;" d="M250.141,256.172c-15.14-42.324-12.102-86.793,5.039-124.861l-5.22-3.014
		c-17.972,39.557-21.219,85.848-5.464,129.894c13.525,37.811,38.928,68.022,70.508,87.957l5.904-3.409
		C289.169,323.541,263.581,293.747,250.141,256.172z"/>
</g>
</svg>
