<?xml version="1.0" encoding="UTF-8" standalone="no"?>
<svg
   xmlns:dc="http://purl.org/dc/elements/1.1/"
   xmlns:cc="http://creativecommons.org/ns#"
   xmlns:rdf="http://www.w3.org/1999/02/22-rdf-syntax-ns#"
   xmlns:svg="http://www.w3.org/2000/svg"
   xmlns="http://www.w3.org/2000/svg"
   xmlns:xlink="http://www.w3.org/1999/xlink"
   id="svg1855"
   version="1.1"
   viewBox="0 0 135.46666 135.46666"
   height="512"
   width="512">
  <defs
     id="defs1849">
    <linearGradient
       gradientUnits="userSpaceOnUse"
       y2="248.35641"
       x2="85.947021"
       y1="225.37753"
       x1="59.685429"
       id="linearGradient1780"
       xlink:href="#linearGradient1778" />
    <linearGradient
       id="linearGradient1778">
      <stop
         id="stop1774"
         offset="0"
         style="stop-color:#ececec;stop-opacity:1" />
      <stop
         id="stop1776"
         offset="1"
         style="stop-color:#808080;stop-opacity:1" />
    </linearGradient>
  </defs>
  <metadata
     id="metadata1852">
    <rdf:RDF>
      <cc:Work
         rdf:about="">
        <dc:format>image/svg+xml</dc:format>
        <dc:type
           rdf:resource="http://purl.org/dc/dcmitype/StillImage" />
        <dc:title></dc:title>
      </cc:Work>
    </rdf:RDF>
  </metadata>
  <g
     transform="translate(0,-161.53334)"
     id="layer1">
    <g
       id="g1827"
       style="display:inline;fill:#000000"
       transform="matrix(1.4958969,0,0,1.4958969,-33.588749,129.00149)">
      <g
         style="fill:#000000"
         id="g1798">
        <g
           style="fill:#000000"
           id="g1786"
           transform="translate(0,-161.53338)">
          <path
             id="path1588"
             d="m 67.732422,270.65477 c -22.435435,0 -40.679691,-18.24425 -40.679688,-40.67969 3e-6,-22.43543 18.244257,-40.67969 40.679688,-40.67969 22.435432,0 40.679688,18.24426 40.679688,40.67969 0,22.43544 -18.244251,40.67969 -40.679688,40.67969 z m 0,-5.29102 c 19.575607,1e-5 35.388678,-15.81306 35.388668,-35.38867 0,-19.5756 -15.813064,-35.38672 -35.388668,-35.38672 -19.575602,0 -35.386716,15.81112 -35.386719,35.38672 -2e-6,19.57561 15.811113,35.38867 35.386719,35.38867 z"
             style="color:#000000;font-style:normal;font-variant:normal;font-weight:normal;font-stretch:normal;font-size:medium;line-height:normal;font-family:sans-serif;font-variant-ligatures:normal;font-variant-position:normal;font-variant-caps:normal;font-variant-numeric:normal;font-variant-alternates:normal;font-feature-settings:normal;text-indent:0;text-align:start;text-decoration:none;text-decoration-line:none;text-decoration-style:solid;text-decoration-color:#000000;letter-spacing:normal;word-spacing:normal;text-transform:none;writing-mode:lr-tb;direction:ltr;text-orientation:mixed;dominant-baseline:auto;baseline-shift:baseline;text-anchor:start;white-space:normal;shape-padding:0;clip-rule:nonzero;display:inline;overflow:visible;visibility:visible;opacity:0.4;isolation:auto;mix-blend-mode:normal;color-interpolation:sRGB;color-interpolation-filters:linearRGB;solid-color:#000000;solid-opacity:1;vector-effect:none;fill:#000000;fill-opacity:1;fill-rule:nonzero;stroke:none;stroke-width:5.29166651;stroke-linecap:butt;stroke-linejoin:miter;stroke-miterlimit:4;stroke-dasharray:none;stroke-dashoffset:0;stroke-opacity:1;paint-order:stroke fill markers;color-rendering:auto;image-rendering:auto;shape-rendering:auto;text-rendering:auto;enable-background:accumulate" />
        </g>
      </g>
      <path
         id="path236"
         style="opacity:0.4;fill:#000000;fill-opacity:1;fill-rule:nonzero;stroke:none;stroke-width:0.25759757"
         d="M 87.126242,69.55602 52.911105,89.31015 c -0.398504,0.23029 -0.889485,0.23029 -1.287988,0 -0.398503,-0.23003 -0.643994,-0.65533 -0.643994,-1.1154 V 48.68676 c 0,-0.46007 0.245491,-0.88536 0.643994,-1.1154 0.199122,-0.11489 0.421687,-0.17259 0.643994,-0.17259 0.222306,0 0.444871,0.0577 0.643994,0.17259 l 34.215137,19.75413 c 0.398505,0.23029 0.644,0.65532 0.644,1.11539 0,0.46008 -0.245495,0.88511 -0.644,1.11514" />
    </g>
  </g>
  <g
     style="display:inline"
     id="layer4">
    <g
       transform="matrix(1.4958969,0,0,1.4958969,-33.588749,-33.590191)"
       style="display:inline"
       id="g6166">
      <g
         id="g6162">
        <g
           transform="translate(0,-161.53338)"
           id="g6158">
          <path
             style="color:#000000;font-style:normal;font-variant:normal;font-weight:normal;font-stretch:normal;font-size:medium;line-height:normal;font-family:sans-serif;font-variant-ligatures:normal;font-variant-position:normal;font-variant-caps:normal;font-variant-numeric:normal;font-variant-alternates:normal;font-feature-settings:normal;text-indent:0;text-align:start;text-decoration:none;text-decoration-line:none;text-decoration-style:solid;text-decoration-color:#000000;letter-spacing:normal;word-spacing:normal;text-transform:none;writing-mode:lr-tb;direction:ltr;text-orientation:mixed;dominant-baseline:auto;baseline-shift:baseline;text-anchor:start;white-space:normal;shape-padding:0;clip-rule:nonzero;display:inline;overflow:visible;visibility:visible;opacity:1;isolation:auto;mix-blend-mode:normal;color-interpolation:sRGB;color-interpolation-filters:linearRGB;solid-color:#000000;solid-opacity:1;vector-effect:none;fill:#00b4f1;fill-opacity:1;fill-rule:nonzero;stroke:none;stroke-width:5.29166651;stroke-linecap:butt;stroke-linejoin:miter;stroke-miterlimit:4;stroke-dasharray:none;stroke-dashoffset:0;stroke-opacity:1;paint-order:stroke fill markers;color-rendering:auto;image-rendering:auto;shape-rendering:auto;text-rendering:auto;enable-background:accumulate"
             d="m 67.732422,269.94727 c -22.435435,0 -40.679691,-18.24425 -40.679688,-40.67969 3e-6,-22.43543 18.244257,-40.67969 40.679688,-40.67969 22.435432,0 40.679688,18.24426 40.679688,40.67969 0,22.43544 -18.244251,40.67969 -40.679688,40.67969 z m 0,-5.29102 c 19.575607,10e-6 35.388678,-15.81306 35.388668,-35.38867 0,-19.5756 -15.813064,-35.38672 -35.388668,-35.38672 -19.575602,0 -35.386716,15.81112 -35.386719,35.38672 -2e-6,19.57561 15.811113,35.38867 35.386719,35.38867 z"
             id="path6152" />
          <path
             id="path6154"
             transform="matrix(0.26458333,0,0,0.26458333,0,161.53338)"
             d="m 255.99609,102.25391 c -84.79403,0 -153.74788,68.95251 -153.75,153.74609 h 20.00586 c 0.002,-73.98475 59.75891,-133.75 133.74414,-133.75 H 256 v -19.99609 z"
             style="opacity:1;fill:#f8682c;fill-opacity:1;stroke:none;stroke-width:20;stroke-miterlimit:4;stroke-dasharray:none;stroke-opacity:1;paint-order:stroke fill markers" />
          <path
             style="opacity:1;fill:#91c300;fill-opacity:1;stroke:none;stroke-width:5.29166651;stroke-miterlimit:4;stroke-dasharray:none;stroke-opacity:1;paint-order:stroke fill markers"
             d="m 67.734364,188.58806 c 22.435087,0 40.679126,18.24368 40.679686,40.67865 h -5.29321 c -5.6e-4,-19.57513 -15.811217,-35.38802 -35.386476,-35.38802 h -0.001 v -5.29063 z"
             id="path6156" />
        </g>
        <path
           style="opacity:1;fill:#ffc300;fill-opacity:1;stroke:none;stroke-width:20;stroke-miterlimit:4;stroke-dasharray:none;stroke-opacity:1;paint-order:stroke fill markers"
           d="m 389.74805,256 c 0,10e-4 0,0.003 0,0.004 0,73.98521 -59.76332,133.74203 -133.74805,133.74414 V 409.754 c 84.79354,-0.002 153.74609,-68.95598 153.74609,-153.75 0,-0.001 0,-0.003 0,-0.004 z"
           id="path6160"
           transform="scale(0.26458333)" />
      </g>
      <path
         d="m 87.126242,230.38191 -34.215137,19.75413 c -0.398504,0.23029 -0.889485,0.23029 -1.287988,0 -0.398503,-0.23003 -0.643994,-0.65533 -0.643994,-1.1154 v -39.50799 c 0,-0.46007 0.245491,-0.88536 0.643994,-1.1154 0.199122,-0.11489 0.421687,-0.17259 0.643994,-0.17259 0.222306,0 0.444871,0.0577 0.643994,0.17259 l 34.215137,19.75413 c 0.398505,0.23029 0.644,0.65532 0.644,1.11539 0,0.46008 -0.245495,0.88511 -0.644,1.11514"
         style="fill:url(#linearGradient1780);fill-opacity:1;fill-rule:nonzero;stroke:none;stroke-width:0.25759757"
         id="path6164"
         transform="translate(0,-161.53338)" />
    </g>
  </g>
</svg>
