<?xml version="1.0" encoding="utf-8"?>
<!-- Generator: Adobe Illustrator 22.0.1, SVG Export Plug-In . SVG Version: 6.00 Build 0)  -->
<svg version="1.1" id="Layer_1" xmlns="http://www.w3.org/2000/svg" xmlns:xlink="http://www.w3.org/1999/xlink" x="0px" y="0px"
	 viewBox="0 0 512 512" enable-background="new 0 0 512 512" xml:space="preserve">
<g id="g228">
	<g id="g234" transform="translate(399.956,258.7512)">
		<linearGradient id="path236_1_" gradientUnits="userSpaceOnUse" x1="-143.956" y1="194.2864" x2="-143.956" y2="-232.7512">
			<stop  offset="0" style="stop-color:#C544FC"/>
			<stop  offset="1" style="stop-color:#5A55D6"/>
		</linearGradient>
		<path id="path236" fill="url(#path236_1_)" d="M81.731-7.065c0-126.644-104.854-229.258-232.306-225.591
			c-119.539,3.438-216.28,100.787-219.008,220.346c-2.018,88.449,47.139,165.844,119.873,204.587
			c6.903,3.676,15.477,0.753,18.68-6.382l0,0c2.924-6.512,0.24-14.121-6.059-17.479C-301.11,134.301-344.375,66.168-342.594-11.696
			c2.406-105.252,87.573-190.949,192.808-193.978c112.21-3.231,204.522,87.11,204.522,198.607
			c0,76.315-43.251,142.712-106.525,175.985c-6.269,3.297-8.833,10.951-5.932,17.413l0.002,0.002
			c3.204,7.143,11.772,10.019,18.695,6.368C32.715,154.867,81.731,79.521,81.731-7.065"/>
	</g>
	<g id="g238" transform="translate(368.5991,264.891)">
		<linearGradient id="path240_1_" gradientUnits="userSpaceOnUse" x1="-112.5997" y1="143.4566" x2="-112.5997" y2="-189.9888">
			<stop  offset="0" style="stop-color:#C544FC"/>
			<stop  offset="1" style="stop-color:#5A55D6"/>
		</linearGradient>
		<path id="path240" fill="url(#path240_1_)" d="M63.928-22.83c-4.874-91.447-79.869-164.485-171.408-167.086
			c-99.808-2.834-181.904,77.531-181.904,176.712c0,66.33,36.721,124.246,90.9,154.484c6.912,3.858,15.652,0.955,18.893-6.268l0,0
			c2.856-6.362,0.408-13.876-5.685-17.27c-47.241-26.323-78.842-77.467-77.039-135.678c2.422-78.21,65.588-141.905,143.777-144.942
			C-33.252-166.191,37.19-97.77,37.19-13.204c0,56.53-31.479,105.839-77.828,131.334c-6.157,3.386-8.682,10.927-5.805,17.336l0,0
			c3.222,7.177,11.891,10.121,18.783,6.329C29.653,110.266,67.697,47.88,63.928-22.83"/>
	</g>
	<g id="g242" transform="translate(328.9819,258.7512)">
		<linearGradient id="path244_1_" gradientUnits="userSpaceOnUse" x1="-72.9825" y1="92.3918" x2="-72.9825" y2="-121.4821">
			<stop  offset="0" style="stop-color:#C544FC"/>
			<stop  offset="1" style="stop-color:#5A55D6"/>
		</linearGradient>
		<path id="path244" fill="url(#path244_1_)" d="M41.436-7.065c0-74.043-70.695-131.884-148.134-109.57
			c-37.798,10.893-67.001,41.29-76.817,79.383c-13.608,52.821,9.836,101.981,49.842,127.11c6.903,4.336,16.06,1.477,19.398-5.959
			l0,0c2.733-6.086,0.647-13.32-5.006-16.863c-25.686-16.099-42.458-45.157-41.041-77.953c1.936-44.847,38.2-81.305,83.034-83.467
			c50.152-2.417,91.727,37.687,91.727,87.319c0,31.496-16.75,59.139-41.804,74.526c-5.735,3.521-7.894,10.803-5.138,16.943l0,0
			c3.325,7.408,12.42,10.258,19.333,6C19.562,70.252,41.436,34.109,41.436-7.065"/>
	</g>
	<g id="g246" transform="translate(255.6694,279.7609)">
		<linearGradient id="path248_1_" gradientUnits="userSpaceOnUse" x1="-0.1875" y1="5.1265" x2="-0.1875" y2="-61.0122">
			<stop  offset="0" style="stop-color:#C544FC"/>
			<stop  offset="1" style="stop-color:#5A55D6"/>
		</linearGradient>
		<path id="path248" fill="url(#path248_1_)" d="M-0.188-61.012c18.263,0,33.069,14.806,33.069,33.069
			c0,18.264-14.806,33.07-33.069,33.07c-18.264,0-33.069-14.806-33.069-33.07C-33.256-46.206-18.452-61.012-0.188-61.012"/>
	</g>
	<g id="g250" transform="translate(269.4463,123.0698)">
		<linearGradient id="path252_1_" gradientUnits="userSpaceOnUse" x1="-13.9646" y1="362.9302" x2="-13.9646" y2="172.0175">
			<stop  offset="0" style="stop-color:#C544FC"/>
			<stop  offset="1" style="stop-color:#5A55D6"/>
		</linearGradient>
		<path id="path252" fill="url(#path252_1_)" d="M7.634,341.331c0,11.929-9.67,21.599-21.599,21.599s-21.599-9.67-21.599-21.599
			V193.616c0-11.929,9.67-21.599,21.599-21.599s21.599,9.67,21.599,21.599V341.331z"/>
	</g>
</g>
</svg>
