<?xml version="1.0" encoding="utf-8"?>
<!-- Generator: Adobe Illustrator 18.0.0, SVG Export Plug-In . SVG Version: 6.00 Build 0)  -->
<!DOCTYPE svg PUBLIC "-//W3C//DTD SVG 1.1//EN" "http://www.w3.org/Graphics/SVG/1.1/DTD/svg11.dtd">
<svg version="1.1" id="Layer_1" xmlns="http://www.w3.org/2000/svg" xmlns:xlink="http://www.w3.org/1999/xlink" x="0px" y="0px"
	 viewBox="0 0 512 512" enable-background="new 0 0 512 512" xml:space="preserve">
<circle fill="#CECECE" cx="256" cy="256" r="230"/>
<g>
	<path fill="none" d="M274.4,152.6c-16.4-16.4-38.2-25.4-61.4-25.4c-22.8,0-44.2,8.7-60.5,24.5l0,0c-0.1,0.1-0.1,0.1-0.2,0.2
		c-0.2,0.2-0.5,0.5-0.8,0.7c0,0,0,0,0,0c-7.2,7.2-12.9,15.4-17.2,24.3c-1.8,3.8-3.3,7.8-4.6,11.8c-0.8,2.7-1.5,5.4-2.1,8.2
		c-1.1,5.6-1.7,11.3-1.7,17.1c0,15.9,4.3,31.2,12.3,44.6c1.5,2.4,3,4.8,4.7,7.1c0.8,1.1,1.7,2.3,2.6,3.4c1.8,2.2,3.8,4.3,5.8,6.4
		c3.1,3.1,6.3,5.9,9.8,8.4c6.9,5.1,14.4,9.1,22.3,12c2.7,0.9,5.4,1.8,8.1,2.5c6.9,1.7,14,2.6,21.2,2.6c23.2,0,45-9,61.4-25.4
		c0.3-0.3,0.6-0.6,0.9-1l0,0c15.8-16.3,24.5-37.7,24.5-60.5C299.9,190.8,290.8,169,274.4,152.6z M212.7,234.8
		c-11.5,0-20.8-9.3-20.8-20.8c0-2.3,0.4-4.5,1.1-6.6c-0.7-1.5-1.1-3.1-1.1-4.9c0-6.4,5.2-11.5,11.5-11.5c2.6,0,5,0.9,7,2.4
		c0.7-0.1,1.5-0.1,2.3-0.1c11.5,0,20.8,9.3,20.8,20.8C233.5,225.5,224.2,234.8,212.7,234.8z"/>
	<path fill="#FFFFFF" d="M108.3,167.8c0.2-0.4,0.3-0.8,0.5-1.2C108.7,167,108.5,167.4,108.3,167.8z"/>
	<path fill="#FFFFFF" d="M104.3,178.5c0.2-0.5,0.3-0.9,0.5-1.4C104.6,177.5,104.4,178,104.3,178.5z"/>
	<path fill="#FFFFFF" d="M105.2,175.8c0.2-0.5,0.3-0.9,0.5-1.4C105.5,174.8,105.3,175.3,105.2,175.8z"/>
	<path fill="#FFFFFF" d="M109.5,165.2c0.2-0.4,0.3-0.7,0.5-1.1C109.9,164.5,109.7,164.8,109.5,165.2z"/>
	<path fill="#FFFFFF" d="M106.2,173.1c0.2-0.4,0.3-0.9,0.5-1.3C106.5,172.2,106.3,172.6,106.2,173.1z"/>
	<path fill="#FFFFFF" d="M107.2,170.4c0.2-0.4,0.3-0.8,0.5-1.2C107.6,169.6,107.4,170,107.2,170.4z"/>
	<path fill="#FFFFFF" d="M110.8,162.6c0.2-0.3,0.3-0.6,0.5-1C111.1,162,111,162.3,110.8,162.6z"/>
	<path fill="#FFFFFF" d="M116.4,152.7c0.1-0.2,0.2-0.3,0.3-0.5C116.6,152.4,116.5,152.5,116.4,152.7z"/>
	<path fill="#FFFFFF" d="M114.9,155.1c0.1-0.2,0.3-0.4,0.4-0.6C115.2,154.7,115.1,154.9,114.9,155.1z"/>
	<path fill="#FFFFFF" d="M112.1,160.1c0.2-0.3,0.3-0.6,0.5-0.9C112.4,159.5,112.3,159.8,112.1,160.1z"/>
	<path fill="#FFFFFF" d="M113.5,157.6c0.1-0.3,0.3-0.5,0.4-0.8C113.8,157.1,113.6,157.3,113.5,157.6z"/>
	<path fill="#FFFFFF" d="M98.7,210.1c0-0.7,0-1.4,0.1-2C98.7,208.7,98.7,209.4,98.7,210.1z"/>
	<path fill="#FFFFFF" d="M99.7,198.1c0.1-0.6,0.2-1.1,0.2-1.6C99.9,197,99.8,197.5,99.7,198.1z"/>
	<path fill="#FFFFFF" d="M99.1,203.9c0.1-0.6,0.1-1.2,0.2-1.7C99.2,202.8,99.1,203.4,99.1,203.9z"/>
	<path fill="#FFFFFF" d="M98.9,206.9c0-0.6,0.1-1.2,0.1-1.8C98.9,205.7,98.9,206.3,98.9,206.9z"/>
	<path fill="#FFFFFF" d="M98.6,214c0-1,0-2,0-3C98.6,212,98.6,213,98.6,214z"/>
	<path fill="#FFFFFF" d="M118,150.3c0.1-0.1,0.2-0.2,0.2-0.4C118.2,150,118.1,150.2,118,150.3z"/>
	<path fill="#FFFFFF" d="M102.6,184c0.1-0.5,0.3-1,0.4-1.5C102.9,182.9,102.8,183.5,102.6,184z"/>
	<path fill="#FFFFFF" d="M101.9,186.7c0.1-0.5,0.3-1,0.4-1.6C102.2,185.7,102,186.2,101.9,186.7z"/>
	<path fill="#FFFFFF" d="M103.4,181.2c0.1-0.5,0.3-1,0.4-1.5C103.7,180.2,103.6,180.7,103.4,181.2z"/>
	<path fill="#FFFFFF" d="M100.7,192.4c0.1-0.5,0.2-1.1,0.3-1.6C100.9,191.3,100.8,191.8,100.7,192.4z"/>
	<path fill="#FFFFFF" d="M100.2,195.2c0.1-0.5,0.2-1.1,0.3-1.6C100.3,194.1,100.3,194.7,100.2,195.2z"/>
	<path fill="#FFFFFF" d="M101.3,189.5c0.1-0.5,0.2-1.1,0.3-1.6C101.5,188.5,101.4,189,101.3,189.5z"/>
	<path fill="#FFFFFF" d="M99.4,201c0.1-0.6,0.1-1.1,0.2-1.7C99.5,199.9,99.4,200.4,99.4,201z"/>
	<path fill="#FFFFFF" d="M121.3,145.6C121.3,145.6,121.4,145.6,121.3,145.6C121.4,145.6,121.3,145.6,121.3,145.6z"/>
	<path fill="#FFFFFF" d="M191.8,298.3c-2.7-0.7-5.4-1.5-8.1-2.5C186.3,296.8,189,297.6,191.8,298.3z"/>
	<path fill="#FFFFFF" d="M183.7,295.8c-8-2.8-15.5-6.9-22.3-12C168.2,289,175.7,293,183.7,295.8z"/>
	<path fill="#FFFFFF" d="M213,127.1c24.7,0,47.9,10.3,64.6,28.8c13.7,15.2,21.6,34.9,22.2,55.3c0.7,23.8-8,46.3-24.5,63.2l128,128
		l7.8-7.8c3-3,3-7.8,0-10.7l-77.2-77.2c-3.4-3.4-7.7-5.2-12.1-5.4l-17.9-17.9c15.4-20.2,24.3-45.6,23.4-73.1
		c-1.9-60.8-51.8-109.8-112.6-110.7c-31.8-0.5-60.7,12-81.7,32.6l19.5,19.5C168.8,135.8,190.3,127.1,213,127.1z"/>
	<path fill="#FFFFFF" d="M143.1,265.7c-1.7-2.3-3.3-4.6-4.7-7.1C139.9,261,141.4,263.4,143.1,265.7z"/>
	<path fill="#FFFFFF" d="M119.6,147.9c0.1-0.1,0.1-0.1,0.2-0.2C119.7,147.8,119.7,147.9,119.6,147.9z"/>
	<path fill="#FFFFFF" d="M151.6,152.6c0.2-0.2,0.5-0.5,0.8-0.7C152.1,152.1,151.9,152.3,151.6,152.6z"/>
	<path fill="#FFFFFF" d="M145.8,269c1.8,2.2,3.8,4.3,5.8,6.4c3.1,3.1,6.3,5.9,9.8,8.4c-3.4-2.5-6.7-5.4-9.8-8.4
		C149.5,273.4,147.6,271.2,145.8,269z"/>
	<path opacity="0.64" fill="#FFFFFF" enable-background="new    " d="M210.5,193.4c-1.9-1.5-4.4-2.4-7-2.4
		c-6.4,0-11.5,5.2-11.5,11.5c0,1.7,0.4,3.4,1.1,4.9C195.6,199.8,202.3,194.2,210.5,193.4z"/>
	<path opacity="0.64" fill="#FFFFFF" enable-background="new    " d="M212.7,193.2c-0.8,0-1.5,0-2.3,0.1c2.7,2.1,4.5,5.4,4.5,9.1
		c0,6.4-5.2,11.5-11.5,11.5c-4.6,0-8.6-2.7-10.4-6.6c-0.7,2.1-1.1,4.3-1.1,6.6c0,11.5,9.3,20.8,20.8,20.8s20.8-9.3,20.8-20.8
		C233.5,202.5,224.2,193.2,212.7,193.2z"/>
	<path opacity="0.64" fill="#FFFFFF" enable-background="new    " d="M203.5,214c6.4,0,11.5-5.2,11.5-11.5c0-3.7-1.8-7-4.5-9.1
		c-8.1,0.9-14.9,6.5-17.4,14C194.9,211.3,198.9,214,203.5,214z"/>
	<path opacity="0.64" fill="#FFFFFF" enable-background="new    " d="M203.5,214c6.4,0,11.5-5.2,11.5-11.5c0-3.7-1.8-7-4.5-9.1
		c-8.1,0.9-14.9,6.5-17.4,14C194.9,211.3,198.9,214,203.5,214z"/>
	<path fill="#EDEFEF" d="M101.6,188c0.1-0.4,0.2-0.8,0.3-1.2C101.8,187.1,101.7,187.6,101.6,188z"/>
	<path fill="#EDEFEF" d="M100,196.4c0.1-0.4,0.1-0.8,0.2-1.2C100.1,195.6,100,196,100,196.4z"/>
	<path fill="#EDEFEF" d="M101,190.8c0.1-0.4,0.2-0.8,0.3-1.2C101.2,189.9,101.1,190.4,101,190.8z"/>
	<path fill="#EDEFEF" d="M274.4,275.4c0.3-0.3,0.6-0.6,0.9-0.9l0,0C275.1,274.8,274.7,275.1,274.4,275.4z"/>
	<path fill="#EDEFEF" d="M102.3,185.2c0.1-0.4,0.2-0.8,0.3-1.2C102.5,184.4,102.4,184.8,102.3,185.2z"/>
	<path fill="#EDEFEF" d="M151.6,152.6C151.6,152.6,151.6,152.6,151.6,152.6c-7.2,7.2-12.9,15.4-17.2,24.3
		C138.6,168,144.4,159.7,151.6,152.6C151.6,152.6,151.6,152.6,151.6,152.6z"/>
	<path fill="#EDEFEF" d="M98.7,211c0-0.3,0-0.6,0-0.9C98.7,210.4,98.7,210.7,98.7,211z"/>
	<path fill="#EDEFEF" d="M98.8,208.1c0-0.4,0-0.7,0.1-1.1C98.8,207.3,98.8,207.7,98.8,208.1z"/>
	<path fill="#EDEFEF" d="M99,205.1c0-0.4,0.1-0.8,0.1-1.2C99,204.3,99,204.7,99,205.1z"/>
	<path fill="#EDEFEF" d="M103,182.4c0.1-0.4,0.2-0.8,0.4-1.2C103.3,181.6,103.2,182,103,182.4z"/>
	<path fill="#EDEFEF" d="M100.4,193.6c0.1-0.4,0.2-0.8,0.2-1.2C100.6,192.8,100.5,193.2,100.4,193.6z"/>
	<path fill="#EDEFEF" d="M99.6,199.3c0.1-0.4,0.1-0.8,0.2-1.2C99.7,198.5,99.6,198.9,99.6,199.3z"/>
	<path fill="#EDEFEF" d="M99.2,202.2c0-0.4,0.1-0.8,0.1-1.2C99.3,201.4,99.3,201.8,99.2,202.2z"/>
	<path fill="#EDEFEF" d="M133.1,132.2L133.1,132.2c-4.2,4.1-8.1,8.6-11.7,13.3C124.9,140.8,128.8,136.3,133.1,132.2z"/>
	<path fill="#EDEFEF" d="M129.9,188.7c1.2-4.1,2.7-8,4.6-11.8C132.6,180.7,131.1,184.6,129.9,188.7z"/>
	<path fill="#EDEFEF" d="M116.8,152.2c0.4-0.6,0.8-1.3,1.2-1.9C117.6,150.9,117.2,151.5,116.8,152.2z"/>
	<path fill="#EDEFEF" d="M111.3,161.7c0.3-0.5,0.5-1,0.8-1.6C111.8,160.6,111.6,161.1,111.3,161.7z"/>
	<path fill="#EDEFEF" d="M119.8,147.7c0.5-0.7,1-1.4,1.5-2.1C120.8,146.3,120.3,147,119.8,147.7z"/>
	<path fill="#EDEFEF" d="M110,164.1c0.2-0.5,0.5-1,0.7-1.5C110.5,163.1,110.3,163.6,110,164.1z"/>
	<path fill="#EDEFEF" d="M112.6,159.2c0.3-0.5,0.6-1.1,0.9-1.6C113.2,158.1,112.9,158.7,112.6,159.2z"/>
	<path fill="#EDEFEF" d="M108.9,166.6c0.2-0.5,0.4-1,0.7-1.4C109.3,165.7,109.1,166.2,108.9,166.6z"/>
	<path fill="#EDEFEF" d="M113.9,156.8c0.3-0.6,0.7-1.1,1-1.7C114.6,155.7,114.2,156.3,113.9,156.8z"/>
	<path fill="#EDEFEF" d="M152.5,151.7c-0.1,0.1-0.1,0.1-0.2,0.2C152.4,151.8,152.5,151.7,152.5,151.7L152.5,151.7z"/>
	<path fill="#EDEFEF" d="M106.7,171.8c0.2-0.5,0.4-0.9,0.6-1.4C107,170.9,106.9,171.3,106.7,171.8z"/>
	<path fill="#EDEFEF" d="M118.3,149.9c0.5-0.7,0.9-1.3,1.4-2C119.2,148.6,118.7,149.2,118.3,149.9z"/>
	<path fill="#EDEFEF" d="M107.7,169.2c0.2-0.5,0.4-0.9,0.6-1.4C108.1,168.3,107.9,168.7,107.7,169.2z"/>
	<path fill="#EDEFEF" d="M103.9,179.7c0.1-0.4,0.3-0.8,0.4-1.3C104.1,178.9,104,179.3,103.9,179.7z"/>
	<path fill="#EDEFEF" d="M104.7,177c0.1-0.4,0.3-0.9,0.5-1.3C105,176.2,104.9,176.6,104.7,177z"/>
	<path fill="#EDEFEF" d="M115.3,154.5c0.4-0.6,0.7-1.2,1.1-1.8C116.1,153.3,115.7,153.9,115.3,154.5z"/>
	<path fill="#EDEFEF" d="M105.7,174.4c0.2-0.4,0.3-0.9,0.5-1.3C106,173.5,105.8,174,105.7,174.4z"/>
	<path fill="#EDEFEF" d="M127.8,196.9c0.6-2.8,1.2-5.5,2.1-8.2C129.1,191.4,128.4,194.1,127.8,196.9z"/>
	<path fill="#EDEFEF" d="M275.3,274.5c-0.3,0.3-0.6,0.6-0.9,0.9c-16.4,16.4-38.2,25.4-61.4,25.4c-7.2,0-14.4-0.9-21.2-2.6
		c-2.7-0.7-5.4-1.5-8.1-2.5c-8-2.8-15.5-6.9-22.3-12c-3.4-2.5-6.7-5.4-9.8-8.4c-2.1-2-4-4.2-5.8-6.4c-0.9-1.1-1.8-2.2-2.6-3.4
		c-1.7-2.3-3.3-4.6-4.7-7.1c-8-13.3-12.3-28.6-12.3-44.6c0-5.8,0.6-11.5,1.7-17.1c0.6-2.8,1.2-5.5,2.1-8.2c1.2-4.1,2.7-8,4.6-11.8
		c4.2-8.9,10-17.1,17.2-24.3c0,0,0,0,0,0c0.3-0.3,0.5-0.5,0.8-0.7c0.1-0.1,0.1-0.1,0.2-0.2l-19.5-19.5c-4.2,4.1-8.1,8.6-11.7,13.3
		c0,0,0,0-0.1,0.1c-0.5,0.7-1,1.4-1.5,2.1c-0.1,0.1-0.1,0.1-0.2,0.2c-0.5,0.7-0.9,1.3-1.4,2c-0.1,0.1-0.2,0.2-0.2,0.4
		c-0.4,0.6-0.8,1.3-1.2,1.9c-0.1,0.2-0.2,0.3-0.3,0.5c-0.4,0.6-0.8,1.2-1.1,1.8c-0.1,0.2-0.3,0.4-0.4,0.6c-0.3,0.6-0.7,1.1-1,1.7
		c-0.1,0.3-0.3,0.5-0.4,0.8c-0.3,0.5-0.6,1.1-0.9,1.6c-0.2,0.3-0.3,0.6-0.5,0.9c-0.3,0.5-0.6,1-0.8,1.6c-0.2,0.3-0.3,0.6-0.5,1
		c-0.3,0.5-0.5,1-0.7,1.5c-0.2,0.4-0.3,0.7-0.5,1.1c-0.2,0.5-0.5,1-0.7,1.4c-0.2,0.4-0.3,0.8-0.5,1.2c-0.2,0.5-0.4,0.9-0.6,1.4
		c-0.2,0.4-0.3,0.8-0.5,1.2c-0.2,0.5-0.4,0.9-0.6,1.4c-0.2,0.4-0.3,0.9-0.5,1.3c-0.2,0.4-0.3,0.9-0.5,1.3c-0.2,0.5-0.3,0.9-0.5,1.4
		c-0.2,0.4-0.3,0.9-0.5,1.3c-0.2,0.5-0.3,0.9-0.5,1.4c-0.1,0.4-0.3,0.8-0.4,1.3c-0.2,0.5-0.3,1-0.4,1.5c-0.1,0.4-0.3,0.8-0.4,1.2
		c-0.1,0.5-0.3,1-0.4,1.5c-0.1,0.4-0.2,0.8-0.3,1.2c-0.1,0.5-0.3,1-0.4,1.6c-0.1,0.4-0.2,0.8-0.3,1.2c-0.1,0.5-0.2,1.1-0.3,1.6
		c-0.1,0.4-0.2,0.8-0.3,1.2c-0.1,0.5-0.2,1.1-0.3,1.6c-0.1,0.4-0.2,0.8-0.2,1.2c-0.1,0.5-0.2,1.1-0.3,1.6c-0.1,0.4-0.1,0.8-0.2,1.2
		c-0.1,0.5-0.2,1.1-0.2,1.6c-0.1,0.4-0.1,0.8-0.2,1.2c-0.1,0.6-0.1,1.1-0.2,1.7c0,0.4-0.1,0.8-0.1,1.2c-0.1,0.6-0.1,1.2-0.2,1.7
		c0,0.4-0.1,0.8-0.1,1.2c0,0.6-0.1,1.2-0.1,1.8c0,0.4-0.1,0.7-0.1,1.1c0,0.7-0.1,1.4-0.1,2c0,0.3,0,0.6,0,0.9c0,1,0,2,0,3
		c0,63.2,51.2,114.4,114.4,114.4c27.2,0,52.1-9.5,71.7-25.3l17.6,17.6c0.2,4.4,2,8.9,5.4,12.2l77.2,77.2c3,3,7.8,3,10.7,0l7.7-7.7
		L275.3,274.5z"/>
</g>
</svg>
