<?xml version="1.0" encoding="utf-8"?>
<!-- Generator: Adobe Illustrator 18.0.0, SVG Export Plug-In . SVG Version: 6.00 Build 0)  -->
<!DOCTYPE svg PUBLIC "-//W3C//DTD SVG 1.1//EN" "http://www.w3.org/Graphics/SVG/1.1/DTD/svg11.dtd">
<svg version="1.1" id="Layer_1" xmlns="http://www.w3.org/2000/svg" xmlns:xlink="http://www.w3.org/1999/xlink" x="0px" y="0px"
	 viewBox="0 0 512 512" style="enable-background:new 0 0 512 512;" xml:space="preserve">
<circle cx="256" cy="256" r="230"/>
<path style="fill:#FFFFFF;" d="M376.468,362.552h-14.544l-23.376-68.469h22.247v-1.793H337.95l-13.88-40.643h36.725v-1.793h-37.322
	l-17.466-51.136h42.104v-1.793h-42.702l-23.974-70.328h48.944v-1.793h-48.878l13.282-38.983l-1.727-0.598l-12.884,37.787
	l-12.751-37.322l-0.133-0.465l-1.727,0.598l13.282,38.983h-46.686l13.282-38.983l-1.727-0.598l-12.884,37.787l-12.884-37.787
	l-1.727,0.598l13.282,38.983h-47.882v1.793h48.014l-23.974,70.262h-41.772v1.793h41.174l-17.466,51.136h-36.459v1.793h35.795
	l-13.88,40.643h-21.915v1.793h21.318l-23.376,68.535h-13.548v1.793h12.95l-8.766,25.767l1.727,0.598l8.965-26.298h47.417
	l-8.766,25.767l1.727,0.598l8.965-26.298H311.32l8.965,26.298l1.727-0.598l-8.766-25.767h47.417l8.965,26.298l1.727-0.598
	l-8.766-25.767h13.88L376.468,362.552L376.468,362.552z M336.024,292.29h-8.899l-12.684-37.19l-0.332-0.93l-0.863-2.59h8.899
	L336.024,292.29z M245.906,198.652h8.434l-17.466,51.136h-8.434l0.731-2.125L245.906,198.652z M282.83,247.729l0.73,2.125h-9.43
	l-17.466-51.136h9.43L282.83,247.729z M287.346,261.011h-9.43l-3.188-9.364h9.43L287.346,261.011z M238.667,261.011h-3.653
	l3.188-9.364h34.6l3.188,9.364h-2.723l0,0H238.667z M238.866,249.854l16.669-48.878l16.669,48.878H238.866z M256.93,196.859
	l4.25-12.551l4.25,12.551H256.93z M255.535,195.265l-4.25-12.419L256,169.1l4.25,12.419L255.535,195.265z M254.141,196.859h-7.637
	l3.785-11.157L254.141,196.859z M236.276,251.647l-3.188,9.364h-8.434l3.188-9.364H236.276z M216.685,284.321h7.172h1.262
	l-2.723,7.969h-8.434l0.398-1.195L216.685,284.321z M227.112,284.321h56.913l2.723,7.969h-62.359L227.112,284.321z M285.885,284.321
	h2.192h7.172l2.324,6.774l0.398,1.195h-9.43L285.885,284.321z M321.547,249.854h-8.899l-16.27-47.682l-0.332-0.93l-0.863-2.59h8.899
	L321.547,249.854z M280.173,128.656l23.31,68.203h-8.899l-18.794-55.12L280.173,128.656z M278.978,126.597l-4.184,12.286
	l-0.996-2.922h-35.529l-1.461,4.317l-4.649-13.68H278.978z M230.831,128.656l4.914,14.477l-18.329,53.792h-9.895L230.831,128.656z
	 M206.923,198.652h9.895l-0.863,2.59l-0.332,0.93l-16.27,47.682h-9.895L206.923,198.652z M188.859,251.647h9.895l-0.863,2.59
	l-0.332,0.93l-12.684,37.123h-9.895L188.859,251.647z M198.422,362.552h-47.417l23.376-68.469h9.895l-0.863,2.59l-0.332,0.93
	l-19.458,56.98h29.088l20.654-60.5h8.434L198.422,362.552z M200.348,362.552l23.376-68.469h63.554l23.376,68.469H200.348z
	 M312.581,362.552l-23.376-68.469h9.43l20.654,60.5h29.088l-19.458-56.98l-0.332-0.93l-0.863-2.59h8.899l23.376,68.469H312.581z"/>
</svg>
