<?xml version="1.0" encoding="utf-8"?>
<!-- Generator: Adobe Illustrator 22.0.1, SVG Export Plug-In . SVG Version: 6.00 Build 0)  -->
<svg version="1.1" id="Layer_3" xmlns="http://www.w3.org/2000/svg" xmlns:xlink="http://www.w3.org/1999/xlink" x="0px" y="0px"
	 viewBox="0 0 512 512" enable-background="new 0 0 512 512" xml:space="preserve">
<linearGradient id="SVGID_1_" gradientUnits="userSpaceOnUse" x1="256" y1="26" x2="256" y2="486">
	<stop  offset="0" style="stop-color:#81F1FD"/>
	<stop  offset="1" style="stop-color:#2279F0"/>
</linearGradient>
<circle fill="url(#SVGID_1_)" cx="256" cy="256" r="230"/>
<g>
	<path fill="#FFFFFF" d="M406.3,338.9c0,12.1-9.8,21.9-21.9,21.9h-233c-12.1,0-21.9-9.8-21.9-21.9l0,0c0-12.1,9.8-21.9,21.9-21.9
		h233C396.5,317,406.3,326.8,406.3,338.9L406.3,338.9z"/>
	<polygon fill="#FFFFFF" points="171,303.1 178.5,290 186.1,303.1 	"/>
	<g>
		<path fill="#FFFFFF" d="M145.4,218.9c0-12.4,6.2-23.3,15.6-29.9l-9.2-15.3c-11,7.3-19.1,18.5-22.5,31.6c4,3.2,6.5,8.1,6.5,13.6
			c0,5.5-2.5,10.4-6.5,13.6c3.4,13.1,11.5,24.3,22.5,31.6l9.2-15.3C151.6,242.2,145.4,231.3,145.4,218.9z"/>
		<path fill="#FFFFFF" d="M118.2,206.4c-6.9,0-12.5,5.6-12.5,12.5c0,6.9,5.6,12.5,12.5,12.5c6.9,0,12.5-5.6,12.5-12.5
			C130.7,212,125.1,206.4,118.2,206.4z"/>
		<path fill="#FFFFFF" d="M213.5,261.6c-2,0.1-4.1,0.6-5.9,1.7c-6,3.5-8,11.1-4.6,17.1c3.5,6,11.1,8,17.1,4.6c6-3.5,8-11.1,4.6-17.1
			C222.3,263.7,218,261.5,213.5,261.6z"/>
		<path fill="#FFFFFF" d="M207.6,174.5c6,3.5,13.6,1.4,17.1-4.6c3.5-6,1.4-13.6-4.6-17.1c-2.1-1.2-4.3-1.7-6.5-1.7
			c-4.2,0.1-8.3,2.3-10.6,6.3C199.6,163.4,201.6,171,207.6,174.5z"/>
		<path fill="#FFFFFF" d="M182,255.4c-5.5,0-10.7-1.2-15.4-3.4l-8.7,15.6c7.3,3.6,15.4,5.6,24.1,5.6c5,0,9.9-0.7,14.5-2
			c0.8-5,3.8-9.7,8.6-12.4c4.8-2.7,10.3-3,15-1.2c9.3-9.1,15.3-21.5,16.2-35.3l-17.8-0.3C216.7,240.8,201.1,255.4,182,255.4z"/>
		<path fill="#FFFFFF" d="M205.1,178.9c-4.8-2.7-7.7-7.4-8.6-12.4c-4.6-1.3-9.5-2-14.5-2c-8.7,0-16.8,2-24.1,5.6l8.7,15.6
			c4.7-2.2,9.9-3.4,15.4-3.4c19.1,0,34.8,14.7,36.4,33.3l17.8-0.3c-0.9-13.8-6.9-26.2-16.2-35.3
			C215.3,181.9,209.8,181.6,205.1,178.9z"/>
	</g>
	<circle fill="#FFFFFF" cx="286.7" cy="274.1" r="32.6"/>
	<circle fill="#FFFFFF" cx="373.7" cy="274.1" r="32.6"/>
</g>
</svg>
