<?xml version="1.0" encoding="UTF-8" standalone="no"?>
<!DOCTYPE svg PUBLIC "-//W3C//DTD SVG 1.1//EN" "http://www.w3.org/Graphics/SVG/1.1/DTD/svg11.dtd">
<svg width="100%" height="100%" viewBox="0 0 512 512" version="1.1" xmlns="http://www.w3.org/2000/svg" xmlns:xlink="http://www.w3.org/1999/xlink" xml:space="preserve" xmlns:serif="http://www.serif.com/" style="fill-rule:evenodd;clip-rule:evenodd;stroke-linejoin:round;stroke-miterlimit:1.41421;">
    <g transform="matrix(1.25,0,0,-1.25,91.8409,552.554)">
        <g transform="matrix(0.879188,-1.21914e-32,1.21914e-32,-0.879188,-61.1443,546.917)">
            <circle cx="218.92" cy="352.228" r="209.284" style="fill:rgb(214,215,216);"/>
        </g>
        <g id="path212" transform="matrix(0.8,-1.10934e-32,-1.10934e-32,0.8,103.146,326.412)">
            <path d="M0,0C6.434,0 11.689,-5.34 11.689,-11.907C11.689,-18.45 6.434,-23.742 0,-23.742C-6.458,-23.742 -11.689,-18.451 -11.689,-11.907C-11.688,-5.341 -6.457,0 0,0M33.689,19.095C23.04,19.045 12.871,18.137 3.922,16.554C-22.438,11.897 -27.225,2.149 -27.225,-15.828L-27.225,-39.569L35.069,-39.569L35.069,-47.483L-27.225,-47.483L-50.604,-47.483C-68.709,-47.483 -84.561,-58.365 -89.52,-79.065C-95.24,-102.793 -95.493,-117.6 -89.52,-142.376C-85.092,-160.818 -74.517,-173.958 -56.412,-173.958L-34.994,-173.958L-34.994,-145.498C-34.994,-124.937 -17.205,-106.801 3.921,-106.801L66.144,-106.801C83.464,-106.801 97.291,-92.539 97.291,-75.146L97.291,-15.829C97.291,1.053 83.049,13.735 66.144,16.553C55.441,18.334 44.338,19.144 33.689,19.095" style="fill:rgb(4,74,175);fill-rule:nonzero;"/>
        </g>
        <g id="path216" transform="matrix(0.8,-1.10934e-32,-1.10934e-32,0.8,159.196,168.251)">
            <path d="M0,0C6.458,0 11.689,-5.291 11.689,-11.835C11.689,-18.401 6.458,-23.742 0,-23.742C-6.434,-23.742 -11.689,-18.402 -11.689,-11.835C-11.69,-5.292 -6.434,0 0,0M34.995,150.217L34.995,122.555C34.995,101.107 16.813,83.059 -3.921,83.059L-66.143,83.059C-83.187,83.059 -97.29,68.472 -97.29,51.404L-97.29,-7.913C-97.29,-24.794 -82.61,-34.725 -66.143,-39.568C-46.425,-45.365 -27.515,-46.415 -3.921,-39.568C11.762,-35.028 27.227,-25.889 27.227,-7.913L27.227,15.828L-34.995,15.828L-34.995,23.742L58.375,23.742C76.479,23.742 83.225,36.369 89.521,55.324C96.024,74.837 95.748,93.603 89.521,118.635C85.047,136.658 76.502,150.217 58.375,150.217L34.995,150.217Z" style="fill:rgb(255,206,0);fill-rule:nonzero;"/>
        </g>
    </g>
</svg>
