<?xml version="1.0" encoding="utf-8"?>
<!-- Generator: Adobe Illustrator 18.0.0, SVG Export Plug-In . SVG Version: 6.00 Build 0)  -->
<!DOCTYPE svg PUBLIC "-//W3C//DTD SVG 1.1//EN" "http://www.w3.org/Graphics/SVG/1.1/DTD/svg11.dtd">
<svg version="1.1" id="Layer_3" xmlns="http://www.w3.org/2000/svg" xmlns:xlink="http://www.w3.org/1999/xlink" x="0px" y="0px"
	 viewBox="0 0 512 512" style="enable-background:new 0 0 512 512;" xml:space="preserve">
<g>
	<circle style="fill:#80C342;" cx="256" cy="256" r="230"/>
	<path style="fill:#FFFFFF;" d="M221.2,361.404c33.219-11.567,56.947-44.49,56.947-95.801c0-59.024-35.296-101.142-89.573-101.142
		c-53.981,0-93.133,41.226-93.133,105.293c0,64.362,40.635,99.361,88.091,101.141c3.856,0,8.009,1.482,12.161,2.966
		c23.135,8.008,49.533,16.017,76.522,23.135l7.415-21.65c-16.907-2.966-38.559-7.712-58.431-12.754L221.2,361.404L221.2,361.404z
		 M186.497,349.837c-40.338,0-63.769-38.262-63.472-80.675c-0.296-43.304,21.059-83.643,64.659-83.643
		c42.414,0,63.176,41.228,63.176,81.269C250.86,312.464,227.725,349.836,186.497,349.837z"/>
	<path style="fill:#FFFFFF;" d="M416.212,170.059c-3.977-22.638-23.012-39.733-43.647-47.918
		c-11.509-4.334-23.83-7.965-36.279-6.971c-5.219,1.095-10.901-1.253-15.83,1.05c-0.733,3.241,0.06,6.853-1.293,10.06
		c-2.059,7-9.812,9.388-16.45,9.234c-4.355,1.047-9.778-1.281-10.165-6.198c0.778-3.916-0.177-8.706-4.152-10.595
		c-4.388-1.569-10.012-1.236-13.921,1.446c-0.759,0.645-1.362,1.474-1.757,2.39c-1.02,10.795,0.263,21.767,0.541,32.643
		c0.783,6.402-0.164,12.886,0.917,19.216c1.315,5.912,8.293,6.24,13.136,5.464c4.652-0.166,7.843-4.578,7.096-9.036
		c-0.75-3.637-0.011-8.524,4.335-9.332c5.478-0.941,9.705-1.555,14.955,0.918c5.751,2.709,7.208,5.039,7.511,9.693
		c0.176,2.702,0.738,9.511,0.506,18.008c0.011-0.005,0.024-0.008,0.036-0.013v33.959h-22.245v19.871h22.245v78.303
		c0,16.907,2.67,29.659,10.085,37.371c6.228,7.118,16.016,10.975,28.177,10.975c10.085,0,18.093-1.484,23.135-3.56l-1.186-19.576
		c-3.263,0.891-8.305,1.78-15.127,1.78c-14.534,0-19.575-10.084-19.575-27.88v-77.412h37.371v-19.871h-37.371v-41.228
		c0,0-0.006-18.063,4.191-24.592c4.963-8.557,13.155-12.126,23.237-10.164c15.353,2.632,28.273,13.174,38.432,24.426
		C414.985,175.974,417.486,172.75,416.212,170.059z"/>
</g>
</svg>
