<?xml version="1.0" encoding="utf-8"?>
<!-- Generator: Adobe Illustrator 18.0.0, SVG Export Plug-In . SVG Version: 6.00 Build 0)  -->
<!DOCTYPE svg PUBLIC "-//W3C//DTD SVG 1.1//EN" "http://www.w3.org/Graphics/SVG/1.1/DTD/svg11.dtd">
<svg version="1.1" id="Layer_3" xmlns="http://www.w3.org/2000/svg" xmlns:xlink="http://www.w3.org/1999/xlink" x="0px" y="0px"
	 viewBox="0 0 512 512" style="enable-background:new 0 0 512 512;" xml:space="preserve">
<g>
	<circle style="fill:#80C342;" cx="256" cy="256" r="230"/>
	<g id="Layer_3_1_">
		<g id="Layer_2_1_">
			<polygon style="fill:#016225;" points="325.935,148.22 363.779,186.065 199.888,349.957 199.872,349.939 148.221,363.78 
				162.06,312.126 162.043,312.111 			"/>
		</g>
	</g>
	<g style="enable-background:new    ;">
		<path style="fill:#FFFFFF;" d="M288.179,372.267c-26.989-7.118-53.389-15.127-76.522-23.135
			c-4.152-1.484-8.305-2.966-12.161-2.966c-47.456-1.78-88.091-36.778-88.091-101.141c0-64.066,39.152-105.293,93.133-105.293
			c54.277,0,89.574,42.117,89.574,101.142c0,51.311-23.728,84.234-56.947,95.801v1.187c19.871,5.042,41.524,9.788,58.431,12.753
			L288.179,372.267z M266.824,242.06c0-40.041-20.763-81.269-63.176-81.269c-43.6,0-64.955,40.339-64.659,83.643
			c-0.296,42.414,23.135,80.675,63.472,80.675C243.69,325.108,266.824,287.736,266.824,242.06z"/>
		<path style="fill:#FFFFFF;" d="M363.224,158.123v41.228h37.371v19.871h-37.371v77.412c0,17.797,5.041,27.88,19.575,27.88
			c6.822,0,11.864-0.889,15.127-1.78l1.186,19.576c-5.042,2.076-13.05,3.56-23.135,3.56c-12.161,0-21.949-3.857-28.177-10.975
			c-7.415-7.712-10.085-20.464-10.085-37.371v-78.303h-22.245V199.35h22.245v-34.406L363.224,158.123z"/>
	</g>
</g>
</svg>
