<?xml version="1.0" encoding="utf-8"?>
<!-- Generator: Adobe Illustrator 18.0.0, SVG Export Plug-In . SVG Version: 6.00 Build 0)  -->
<!DOCTYPE svg PUBLIC "-//W3C//DTD SVG 1.1//EN" "http://www.w3.org/Graphics/SVG/1.1/DTD/svg11.dtd">
<svg version="1.1" id="Layer_3" xmlns="http://www.w3.org/2000/svg" xmlns:xlink="http://www.w3.org/1999/xlink" x="0px" y="0px"
	 viewBox="0 0 512 512" style="enable-background:new 0 0 512 512;" xml:space="preserve">
<g>
	<circle style="fill:#FFFFFF;" cx="256" cy="256" r="230"/>
	<path style="fill:#F0C519;" d="M285.931,206.259L169.326,78.225C196.413,64.979,225.555,58.266,256,58.266
		c37.781,0,74.432,10.668,106.127,30.866l-51.148,160.51L285.931,206.259z"/>
	<path style="fill:#69C186;" d="M314.042,257.05l52.57-164.973c54.618,36.905,87.122,97.928,87.122,163.923
		c0,2.81-0.061,5.654-0.18,8.478l-164.559,35.958L314.042,257.05z"/>
	<path style="fill:#E74D3D;" d="M58.744,242.165c4.74-68.24,44.979-129.732,105.795-161.52l113.445,124.563h-50.096L58.744,242.165z
		"/>
	<path style="fill:#3B97D3;" d="M256,453.734c-37.781,0-74.433-10.668-106.127-30.866l51.147-160.511l25.048,43.386l116.605,128.033
		C315.588,447.02,286.445,453.734,256,453.734z"/>
	<path style="fill:#945AA4;" d="M145.387,419.923C90.77,383.016,58.266,321.994,58.266,256c0-2.808,0.061-5.652,0.18-8.479
		l164.559-35.955l-25.048,43.384L145.387,419.923z"/>
	<path style="fill:#23B899;" d="M234.016,306.792h50.096l169.144-36.958c-4.74,68.24-44.979,129.733-105.796,161.522
		L234.016,306.792z"/>
	<path style="opacity:0.3;fill:#FFFFFF;" d="M256,422.35c-91.726,0-166.35-74.624-166.35-166.35S164.274,89.65,256,89.65
		S422.35,164.274,422.35,256S347.726,422.35,256,422.35z"/>
	<path style="opacity:0.5;fill:#FFFFFF;" d="M256,390.525c-74.178,0-134.525-60.348-134.525-134.525
		c0-74.178,60.347-134.525,134.525-134.525c74.177,0,134.525,60.347,134.525,134.525C390.525,330.177,330.177,390.525,256,390.525z"
		/>
	<path style="opacity:0.3;fill:#FFFFFF;" d="M256,358.7c-56.629,0-102.7-46.07-102.7-102.7c0-56.629,46.071-102.7,102.7-102.7
		c56.629,0,102.7,46.071,102.7,102.7C358.7,312.629,312.629,358.7,256,358.7z"/>
</g>
</svg>
