<?xml version="1.0" encoding="utf-8"?>
<!-- Generator: Adobe Illustrator 18.0.0, SVG Export Plug-In . SVG Version: 6.00 Build 0)  -->
<!DOCTYPE svg PUBLIC "-//W3C//DTD SVG 1.1//EN" "http://www.w3.org/Graphics/SVG/1.1/DTD/svg11.dtd">
<svg version="1.1" id="Layer_1" xmlns="http://www.w3.org/2000/svg" xmlns:xlink="http://www.w3.org/1999/xlink" x="0px" y="0px"
	 viewBox="0 0 512 512" enable-background="new 0 0 512 512" xml:space="preserve">
<path fill="#14CAFF" d="M467.7,298.9c2.8-13.9,4.3-28.2,4.3-42.9c0-119.3-96.7-216-216-216c-14.7,0-29,1.5-42.9,4.3
	C194.4,32.7,172.3,26,148.7,26C80.9,26,26,80.9,26,148.7c0,23.6,6.7,45.7,18.3,64.4C41.5,227,40,241.3,40,256
	c0,119.3,96.7,216,216,216c14.7,0,29-1.5,42.9-4.3c18.7,11.6,40.8,18.3,64.4,18.3c67.7,0,122.7-54.9,122.7-122.7
	C486,339.7,479.3,317.6,467.7,298.9z"/>
</svg>
