<?xml version="1.0" encoding="utf-8"?>
<!-- Generator: Adobe Illustrator 22.0.1, SVG Export Plug-In . SVG Version: 6.00 Build 0)  -->
<svg version="1.1"
	 id="svg2" xmlns:cc="http://creativecommons.org/ns#" xmlns:dc="http://purl.org/dc/elements/1.1/" xmlns:rdf="http://www.w3.org/1999/02/22-rdf-syntax-ns#" xmlns:svg="http://www.w3.org/2000/svg"
	 xmlns="http://www.w3.org/2000/svg" xmlns:xlink="http://www.w3.org/1999/xlink" x="0px" y="0px" viewBox="0 0 512 512"
	 style="enable-background:new 0 0 512 512;" xml:space="preserve">
<g>
	<g>
		<polygon style="fill:#E2E2E2;" points="312,429.9 307.2,381.7 202.8,381.7 197.9,429.9 		"/>
		<rect x="172.9" y="428.6" style="fill:#969696;" width="164.1" height="6.4"/>
	</g>
	<g>
		<radialGradient id="SVGID_1_" cx="141.1456" cy="190.4765" r="266.8585" gradientUnits="userSpaceOnUse">
			<stop  offset="0" style="stop-color:#F5C2AB"/>
			<stop  offset="0.691" style="stop-color:#44E2FD"/>
			<stop  offset="1" style="stop-color:#3FA1FF"/>
		</radialGradient>
		<rect x="44.8" y="102.5" style="fill:url(#SVGID_1_);" width="420.3" height="262.7"/>
		<g style="opacity:0.6;">
			<path style="opacity:0.2;fill:#F7E7CF;enable-background:new    ;" d="M44.8,365.1h292.4c41.2-46.8,66.2-108.1,66.2-175.3
				c0-30.6-5.2-60-14.7-87.3H44.8V365.1z"/>
			<path style="opacity:0.3;fill:#F7E9CF;enable-background:new    ;" d="M44.8,365.1h249.6c48.2-43,78.6-105.6,78.6-175.3
				c0-30.9-6-60.3-16.8-87.3H44.8V365.1z"/>
			<path style="opacity:0.4;fill:#F9EBCF;enable-background:new    ;" d="M44.8,365.1h198.5c59.4-35.8,99.2-100.9,99.2-175.3
				c0-31.2-7-60.9-19.5-87.3H44.8V365.1z"/>
			<path style="opacity:0.6;fill:#F9EDCE;enable-background:new    ;" d="M44.8,336.8c27,17.1,58.9,27.1,93.3,27.1
				c96.1,0,174.1-77.9,174.1-174.1c0-31.8-8.5-61.7-23.5-87.3H44.8V336.8z"/>
			<path style="opacity:0.7;fill:#F9EFCF;enable-background:new    ;" d="M44.8,299.1c25.1,21.4,57.7,34.4,93.3,34.4
				c79.4,0,143.7-64.3,143.7-143.7c0-32.9-11-63.1-29.6-87.3H44.8V299.1z"/>
			<path style="opacity:0.8;fill:#FBF1CF;enable-background:new    ;" d="M44.8,125.5v128.6c20.4,29.6,54.6,49,93.3,49
				c62.6,0,113.3-50.7,113.3-113.3c0-35.2-16-66.6-41.1-87.3H65.9C57.8,109.1,50.7,116.9,44.8,125.5z"/>
			<circle style="opacity:0.9;fill:#FBF3D0;enable-background:new    ;" cx="138.1" cy="189.8" r="82.9"/>
			<circle style="fill:#FFCE00;" cx="138.1" cy="189.8" r="52.5"/>
			<circle style="fill:#FFCE00;" cx="138.1" cy="189.8" r="22"/>
		</g>
		<g>
			<path style="fill:#FFFFFF;" d="M110.8,334.8c-14.4-6.9-30.4-6.2-43.6,0.4c-3.6-5.4-8.3-10.1-14-13.7c6.2-5.4,11.4-12,15.2-19.9
				C82,273,71.5,239,44.9,222.8v131.1h87C126.9,345.9,119.8,339.1,110.8,334.8z"/>
		</g>
		<g>
			<g>
				<path style="fill:#FFFFFF;" d="M442.2,108c-8.4,26,1.6,53.5,22.9,68.5v-73.9h-20.8C443.6,104.2,442.9,106.1,442.2,108z"/>
			</g>
			<g>
				<path style="fill:#FFFFFF;" d="M465.1,353.9V253.5c-12.6,5-23,15.4-27.5,29.3c-4.7,14.4-2,29.5,5.9,41.1
					c-4.6,4.1-8.5,9.1-11.2,15c-5.8-5.2-12.8-9.2-20.7-11.8c-26.8-8.7-55.4,3.1-68.7,26.8H465.1z"/>
				<path style="fill:#E7E7E7;" d="M450.9,353.9c-1.8-0.8-3.7-1.5-5.7-2.1c-16.3-5.3-33.1-4.1-47.7,2.1H450.9z"/>
			</g>
		</g>
	</g>
	<g>
		<path style="opacity:0.4;enable-background:new    ;" d="M434.9,195.5l30.4-8.1l-85.2-85.1l-8.1,30.4
			C361.8,170.8,396.7,205.8,434.9,195.5z"/>
		
			<linearGradient id="SVGID_2_" gradientUnits="userSpaceOnUse" x1="678.9357" y1="178.55" x2="712.6782" y2="144.8075" gradientTransform="matrix(1 0 0 1 -289.9857 0)">
			<stop  offset="0.0071" style="stop-color:#FFFFFF"/>
			<stop  offset="1" style="stop-color:#CCCCCC"/>
		</linearGradient>
		<path style="fill:url(#SVGID_2_);" d="M443.5,193.2l21.7-5.8l-85.1-85.1l-5.8,21.7C363.1,166,401.6,204.5,443.5,193.2z"/>
		<path style="fill:#383838;" d="M465.2,187.4l1-87l-86.2,1.9L465.2,187.4z"/>
	</g>
	<path style="fill:#0C0C0C;" d="M470.9,75.1H39c-7.8,0-14.1,6.2-14.1,14.1v278.7c0,7.8,6.2,14.1,14.1,14.1h432
		c7.8,0,14.1-6.2,14.1-14.1V89.1C485,81.3,478.8,75.1,470.9,75.1z M465.1,352.2c0,1.2-0.9,2-2,2H46.8c-1.2,0-2-0.9-2-2V104.5
		c0-1.2,0.9-2,2-2H463c1.2,0,2,0.9,2,2v247.7H465.1z"/>
	
		<linearGradient id="SVGID_3_" gradientUnits="userSpaceOnUse" x1="257" y1="226.35" x2="485" y2="226.35" gradientTransform="matrix(1 0 0 1 0 2)">
		<stop  offset="0" style="stop-color:#FFFFFF"/>
		<stop  offset="1" style="stop-color:#FFFFFF;stop-opacity:0"/>
	</linearGradient>
	<path style="display:none;opacity:0.4;fill:url(#SVGID_3_);enable-background:new    ;" d="M470.9,381.7c7.8,0,14.1-6.2,14.1-14.1
		V89.1c0-7.8-6.2-14.1-14.1-14.1H257L470.9,381.7z"/>
</g>
<linearGradient id="path350_1_" gradientUnits="userSpaceOnUse" x1="-0.9858" y1="511.1174" x2="0.1048" y2="511.1174" gradientTransform="matrix(0 72.514 72.514 0 -36807.1562 266.243)">
	<stop  offset="0" style="stop-color:#170000"/>
	<stop  offset="0.334" style="stop-color:#231F20"/>
	<stop  offset="1" style="stop-color:#231F20"/>
</linearGradient>
<path id="path350" style="fill:url(#path350_1_);" d="M251.132,228.679l-58.755-33.921v79.084l58.755-33.921v33.921l68.491-39.542
	l-68.491-39.542L251.132,228.679L251.132,228.679z"/>
</svg>
