<?xml version="1.0" encoding="utf-8"?>
<!-- Generator: Adobe Illustrator 18.0.0, SVG Export Plug-In . SVG Version: 6.00 Build 0)  -->
<!DOCTYPE svg PUBLIC "-//W3C//DTD SVG 1.1//EN" "http://www.w3.org/Graphics/SVG/1.1/DTD/svg11.dtd">
<svg version="1.1" id="Layer_1" xmlns="http://www.w3.org/2000/svg" xmlns:xlink="http://www.w3.org/1999/xlink" x="0px" y="0px"
	 viewBox="0 0 512 512" enable-background="new 0 0 512 512" xml:space="preserve">
<linearGradient id="SVGID_1_" gradientUnits="userSpaceOnUse" x1="93.3654" y1="93.3654" x2="418.6346" y2="418.6346" gradientTransform="matrix(1 0 0 -1 0 512)">
	<stop  offset="0" style="stop-color:#B5B5B5"/>
	<stop  offset="1" style="stop-color:#6E6E6E"/>
</linearGradient>
<circle fill="url(#SVGID_1_)" cx="256" cy="256" r="230"/>
<linearGradient id="SVGID_2_" gradientUnits="userSpaceOnUse" x1="114.5786" y1="397.4214" x2="397.4214" y2="114.5787">
	<stop  offset="0" style="stop-color:#000000"/>
	<stop  offset="1" style="stop-color:#160055"/>
</linearGradient>
<circle fill="url(#SVGID_2_)" cx="256" cy="256" r="200"/>
<linearGradient id="SVGID_3_" gradientUnits="userSpaceOnUse" x1="172.5614" y1="339.4386" x2="339.4386" y2="172.5614">
	<stop  offset="0" style="stop-color:#000000"/>
	<stop  offset="1" style="stop-color:#160055"/>
</linearGradient>
<circle fill="url(#SVGID_3_)" cx="256" cy="256" r="118"/>
<linearGradient id="SVGID_4_" gradientUnits="userSpaceOnUse" x1="143.575" y1="143.575" x2="368.425" y2="368.425" gradientTransform="matrix(1 0 0 -1 0 512)">
	<stop  offset="0" style="stop-color:#B5B5B5"/>
	<stop  offset="1" style="stop-color:#6E6E6E"/>
</linearGradient>
<path fill="url(#SVGID_4_)" d="M256,97c-87.8,0-159,71.2-159,159s71.2,159,159,159s159-71.2,159-159S343.8,97,256,97z M336.9,260.3
	L204.1,337c-0.8,0.5-1.6,0.7-2.5,0.7s-1.7-0.3-2.5-0.7c-1.5-0.9-2.5-2.5-2.5-4.3V179.3c0-1.8,1-3.4,2.5-4.3c1.5-0.9,3.5-0.9,5,0
	l132.8,76.7c1.6,0.9,2.5,2.5,2.5,4.3C339.4,257.8,338.4,259.4,336.9,260.3z"/>
</svg>
