<?xml version="1.0" encoding="utf-8"?>
<!-- Generator: Adobe Illustrator 18.0.0, SVG Export Plug-In . SVG Version: 6.00 Build 0)  -->
<!DOCTYPE svg PUBLIC "-//W3C//DTD SVG 1.1//EN" "http://www.w3.org/Graphics/SVG/1.1/DTD/svg11.dtd">
<svg version="1.1" id="Layer_1" xmlns="http://www.w3.org/2000/svg" xmlns:xlink="http://www.w3.org/1999/xlink" x="0px" y="0px"
	 viewBox="0 0 512 512" style="enable-background:new 0 0 512 512;" xml:space="preserve">
<g>
	<circle style="fill:#FF5D15;" cx="256" cy="256" r="230"/>
	<g>
		<path style="fill:#FFFFFF;" d="M278.35,255.389c-0.563-0.521-1.262-0.345-1.911-0.344c-12.373,0.011-24.747,0.036-37.121,0.056
			c-0.666,0.001-1.338-0.061-1.941,0.32c-0.476,0.836-0.93,1.686-1.429,2.507c-3.814,6.284-7.585,12.594-11.471,18.833
			c-3.02,4.848-6.029,9.701-8.907,14.636c-0.547,0.938-0.623,1.448,0.693,1.352c0.302-0.022,0.608-0.005,0.912-0.005
			c26.815-0.036,53.631-0.072,80.446-0.108c0.888-0.002,1.778,0,2.969,0c-2.159-3.625-4.158-6.987-6.163-10.343
			C289.072,273.321,283.71,264.355,278.35,255.389z"/>
		<path style="fill:#FFFFFF;" d="M239.123,242.558c0.535-0.762,0.102-1.116-0.536-1.528c-6.22-4.01-12.435-8.032-18.616-12.103
			c-0.893-0.587-1.279-0.473-1.785,0.426c-1.391,2.476-2.863,4.905-4.319,7.345c-4.284,7.188-8.577,14.371-12.866,21.556
			c-0.623,1.099-1.23,2.207-1.872,3.295c-7.517,12.726-15.04,25.448-22.56,38.171c-1.02,1.726-2.051,3.445-3.037,5.189
			c-0.186,0.331-0.653,0.662,0.069,1.145c6.109,4.085,12.195,8.204,18.241,12.379c1.119,0.772,1.317-0.012,1.716-0.671
			c10.207-16.883,20.406-33.77,30.624-50.647C229.145,258.922,234.141,250.745,239.123,242.558z"/>
		<path style="fill:#FFFFFF;" d="M248.604,184.088c5.404,12.703,11.238,25.218,17.232,37.656c0.08,0.113,0.159,0.225,0.238,0.338
			c0.041,0.131,0.083,0.263,0.125,0.395c0.08,0.111,0.159,0.224,0.238,0.335c0.042,0.132,0.084,0.264,0.127,0.397
			c0.079,0.111,0.158,0.222,0.237,0.332c0.043,0.134,0.086,0.267,0.128,0.4c0.077,0.109,0.156,0.219,0.233,0.327
			c0.045,0.136,0.089,0.274,0.135,0.411c1.348,2.679,2.697,5.356,4.045,8.035l-0.04-0.011c0.097,0.118,0.193,0.236,0.288,0.353
			c0.031,0.215,0.063,0.431,0.093,0.648c0.116,0.164,0.232,0.325,0.348,0.489c0.069,0.071,0.074,0.147,0.017,0.229
			c0.119,0.168,0.238,0.337,0.357,0.505c0.069,0.069,0.073,0.14,0.009,0.214c0.122,0.174,0.244,0.348,0.364,0.522
			c0.069,0.067,0.08,0.142,0.03,0.224c1.103,1.227,1.695,2.76,2.454,4.185c6.538,12.276,13.295,24.424,20.946,36.052
			c1.389,2.112,1.392,2.111,3.507,0.878c3.777-2.201,7.519-4.466,11.353-6.563c1.256-0.687,1.258-1.255,0.659-2.382
			c-2.359-4.445-4.633-8.937-6.938-13.41c-2.696-5.063-5.371-10.138-8.094-15.187c-9.945-18.441-19.9-36.878-31.007-54.657
			c-3.683-5.896-7.559-11.682-12.328-16.785c-1.776-1.9-3.728-3.636-6.203-4.642c-2.206-0.896-3.567,0.007-3.519,2.369
			c0.012,0.605,0.072,1.211,0.132,1.813C244.349,173.368,246.358,178.807,248.604,184.088z"/>
		<path style="fill:#FFFFFF;" d="M353.441,255.362c-0.301-0.034-0.6-0.1-0.901-0.1c-13.378,0.02-26.758,0.044-40.137,0.076
			c-0.522,0.002-1.118-0.162-1.494,0.412c0.448,0.988,0.871,1.99,1.348,2.965c5.315,10.888,10.654,21.764,15.93,32.672
			c0.473,0.978,1.015,1.256,2.041,1.247c7.111-0.057,14.225-0.124,21.334-0.024c1.713,0.025,1.954-0.548,1.945-2.053
			C353.439,278.826,353.453,267.094,353.441,255.362z"/>
		<path style="fill:#FFFFFF;" d="M172.411,292.936c1.334,0.034,2.08-0.424,2.727-1.525c3.05-5.191,6.147-10.355,9.248-15.517
			c4.038-6.721,8.095-13.432,12.144-20.146c-0.449-0.631-1.115-0.348-1.681-0.355c-3.405-0.037-6.811-0.018-10.216-0.046
			c-8.085-0.068-16.171-0.16-24.257-0.21c-0.654-0.004-1.515-0.387-1.885,0.605c0.017,0.849,0.048,1.7,0.05,2.549
			c0.03,10.873,0.083,21.747,0.051,32.62c-0.004,1.52,0.272,2.104,1.976,2.039C164.512,292.795,168.466,292.833,172.411,292.936z"/>
		<path style="fill:#FFFFFF;" d="M344.598,324.711c-4.788-8.171-10.105-15.977-16.069-23.345c-0.951-1.175-1.633-1.16-2.826-0.423
			c-3.255,2.012-6.582,3.908-9.91,5.796c-0.503,0.286-0.654,0.332-0.433,1.005c2.198,6.687,4.408,13.368,7.091,19.88
			c2.498,6.063,5.198,12.025,8.989,17.426c1.765,2.514,4.054,3.971,6.501,3.911c5.574,0.009,10.164-2.85,12.325-7.19
			c1.266-2.544,1.145-5.007-0.238-7.452C348.22,331.117,346.457,327.886,344.598,324.711z"/>
		<path style="fill:#FFFFFF;" d="M324.98,294.616c-3.536-6.975-7.022-13.976-10.526-20.966c-0.182-0.362-0.287-0.835-0.879-0.738
			c-0.152,0.086-0.311,0.172-0.468,0.264c-4.297,2.505-8.578,5.036-12.899,7.498c-1.039,0.593-0.716,1.176-0.28,1.895
			c4.014,6.614,8.038,13.223,12.015,19.859c0.483,0.806,0.817,0.948,1.648,0.422c3.585-2.272,7.21-4.481,10.839-6.683
			C325.088,295.766,325.408,295.46,324.98,294.616z"/>
		<path style="fill:#FFFFFF;" d="M162.859,345.907c0.127,0.059,0.255,0.118,0.382,0.178c8.947-7.416,17.896-14.832,26.952-22.337
			c-6.494-4.496-12.828-8.884-19.408-13.439C168.099,322.37,165.479,334.138,162.859,345.907z"/>
		<path style="fill:#FFFFFF;" d="M221.575,226.164c0.615,0.213,1.145,0.673,1.701,1.042c5.471,3.623,10.935,7.258,16.417,10.865
			c0.509,0.335,1.015,1.14,1.699-0.009c3.51-5.897,7.09-11.752,10.648-17.62c0.124-0.204,0.293-0.38,0.419-0.54
			c-0.041-0.397-0.309-0.537-0.56-0.703c-6.188-4.081-12.379-8.161-18.559-12.255c-0.615-0.406-1.005-0.463-1.454,0.27
			c-3.586,5.838-7.209,11.653-10.828,17.47C220.598,225.422,220.673,225.851,221.575,226.164z"/>
		<path style="fill:#FFFFFF;" d="M234.637,204.619c5.254,3.369,10.476,6.791,15.706,10.199c3.396,2.213,3.43,2.23,4.752-1.631
			c0.831-2.428,1.609-4.99,0.243-7.403c-2.749-4.85-7.004-7.56-12.202-8.202c-4.357,0.057-6.875,2.264-8.855,5.495
			C233.718,203.993,233.888,204.139,234.637,204.619z"/>
	</g>
</g>
</svg>
