<?xml version="1.0" encoding="UTF-8" standalone="no"?>
<svg
   xmlns:dc="http://purl.org/dc/elements/1.1/"
   xmlns:cc="http://creativecommons.org/ns#"
   xmlns:rdf="http://www.w3.org/1999/02/22-rdf-syntax-ns#"
   xmlns:svg="http://www.w3.org/2000/svg"
   xmlns="http://www.w3.org/2000/svg"
   version="1.1"
   id="Layer_1"
   x="0px"
   y="0px"
   viewBox="0 0 512 512"
   enable-background="new 0 0 512 512"
   xml:space="preserve"><metadata
   id="metadata9"><rdf:RDF><cc:Work
       rdf:about=""><dc:format>image/svg+xml</dc:format><dc:type
         rdf:resource="http://purl.org/dc/dcmitype/StillImage" /><dc:title></dc:title></cc:Work></rdf:RDF></metadata><defs
   id="defs7" />

<g
   transform="translate(5.9854445,0.513715)"
   id="g902"><g
     id="g835"
     transform="matrix(0.91804249,0.5300321,-0.5300321,0.91804249,69.022891,-235.58886)"><path
       id="path819"
       d="M 260.93555,125.09375 C 258.36211,125.13125 256,127.24961 256,130.09961 v 32.09961 c 0,2.7 -2.10078,4.9 -4.80078,5 -58.4,2.7 -104.89844,50.90039 -104.89844,109.90039 0,60.8 49.2,110 110,110 -42,0 -76.10156,-34.09961 -76.10156,-76.09961 0,-40.1 31.00039,-73.00039 70.40039,-75.90039 2.9,-0.2 5.40039,2.1 5.40039,5 v 31 c 0,3.8 4.2,6.20078 7.5,4.30078 l 122.09961,-70.5 c 3.3,-1.9 3.3,-6.79961 0,-8.59961 L 263.5,125.80078 c -0.825,-0.5 -1.70664,-0.71953 -2.56445,-0.70703 z"
       style="opacity:1;fill:#ff6600;fill-opacity:1;stroke-width:0.97710252" /><path
       id="path830"
       d="m 255.69531,199.05078 a 93.961311,93.961311 0 0 0 -0.10937,0.004 h -0.66602 v 0.0234 a 93.961311,93.961311 0 0 0 -93.18554,93.9336 93.961311,93.961311 0 0 0 82.82031,93.18164 C 208.12384,380.53788 180.19922,349.00502 180.19922,311 c 0,-40.1 31.00039,-73.00039 70.40039,-75.90039 2.9,-0.2 5.40039,2.1 5.40039,5 v 31 c 0,3.8 4.2,6.20078 7.5,4.30078 l 122.09961,-70.5 c 2.15081,-1.23834 2.8911,-3.74758 2.23828,-5.8457 H 255.77344 a 93.961311,93.961311 0 0 0 -0.0781,-0.004 z"
       style="opacity:1;fill:#ff9955;fill-opacity:1;stroke-width:0.97710252" /></g><g
     transform="matrix(-0.91804249,-0.5300321,0.5300321,-0.91804249,431.00622,746.56143)"
     id="g862"><path
       style="opacity:1;fill:#aad400;fill-opacity:1;stroke-width:0.97710252"
       d="M 260.93555,125.09375 C 258.36211,125.13125 256,127.24961 256,130.09961 v 32.09961 c 0,2.7 -2.10078,4.9 -4.80078,5 -58.4,2.7 -104.89844,50.90039 -104.89844,109.90039 0,60.8 49.2,110 110,110 -42,0 -76.10156,-34.09961 -76.10156,-76.09961 0,-40.1 31.00039,-73.00039 70.40039,-75.90039 2.9,-0.2 5.40039,2.1 5.40039,5 v 31 c 0,3.8 4.2,6.20078 7.5,4.30078 l 122.09961,-70.5 c 3.3,-1.9 3.3,-6.79961 0,-8.59961 L 263.5,125.80078 c -0.825,-0.5 -1.70664,-0.71953 -2.56445,-0.70703 z"
       id="path858" /><path
       style="opacity:1;fill:#88aa00;fill-opacity:1;stroke-width:0.97710252"
       d="m 255.69531,199.05078 a 93.961311,93.961311 0 0 0 -0.10937,0.004 h -0.66602 v 0.0234 a 93.961311,93.961311 0 0 0 -93.18554,93.9336 93.961311,93.961311 0 0 0 82.82031,93.18164 C 208.12384,380.53788 180.19922,349.00502 180.19922,311 c 0,-40.1 31.00039,-73.00039 70.40039,-75.90039 2.9,-0.2 5.40039,2.1 5.40039,5 v 31 c 0,3.8 4.2,6.20078 7.5,4.30078 l 122.09961,-70.5 c 2.15081,-1.23834 2.8911,-3.74758 2.23828,-5.8457 H 255.77344 a 93.961311,93.961311 0 0 0 -0.0781,-0.004 z"
       id="path860" /></g></g><g
   transform="matrix(1.1389737,0,0,1.1389737,-35.577267,-35.577263)"
   id="layer2"><g
     transform="matrix(0.77857672,0,0,0.52513682,56.684749,121.56497)"
     id="g125"
     style="fill:#ffd42a"><g
       id="g65"
       style="fill:#ffd42a"><path
         style="fill:#88aa00;fill-opacity:1"
         d="m 412.718,252.526 v 0 c 2.035,0 3.685,2.118 3.685,4.731 v -0.756 h -7.371 v 0.756 c 0.001,-2.613 1.651,-4.731 3.686,-4.731 z"
         id="path9" /><path
         style="fill:#88aa00;fill-opacity:1"
         d="m 401.109,246.612 v 0 c 2.035,0 3.685,2.118 3.685,4.731 v 5.158 h -7.371 v -5.158 c 10e-4,-2.612 1.651,-4.731 3.686,-4.731 z"
         id="path11" /><path
         style="fill:#88aa00;fill-opacity:1"
         d="m 389.501,231.164 v 0 c 2.035,0 3.685,2.118 3.685,4.731 v 20.606 h -7.371 v -20.606 c 0,-2.613 1.65,-4.731 3.686,-4.731 z"
         id="path13" /><path
         style="fill:#88aa00;fill-opacity:1"
         d="m 377.892,239.527 v 0 c 2.035,0 3.685,2.118 3.685,4.731 v 12.243 h -7.371 v -12.243 c 10e-4,-2.613 1.651,-4.731 3.686,-4.731 z"
         id="path15" /><path
         style="fill:#88aa00;fill-opacity:1"
         d="m 366.283,177.675 v 0 c 2.035,0 3.685,2.118 3.685,4.731 v 74.095 h -7.371 v -74.095 c 0.001,-2.612 1.651,-4.731 3.686,-4.731 z"
         id="path17" /><path
         style="fill:#88aa00;fill-opacity:1"
         d="m 354.674,162.324 v 0 c 2.035,0 3.685,2.118 3.685,4.731 v 89.446 h -7.371 v -89.446 c 10e-4,-2.613 1.651,-4.731 3.686,-4.731 z"
         id="path19" /><path
         style="fill:#88aa00;fill-opacity:1"
         d="m 343.066,246.612 v 0 c 2.035,0 3.685,2.118 3.685,4.731 v 5.158 h -7.371 v -5.158 c 0,-2.612 1.65,-4.731 3.686,-4.731 z"
         id="path21" /><path
         style="fill:#88aa00;fill-opacity:1"
         d="m 331.457,195.634 v 0 c 2.035,0 3.685,2.118 3.685,4.731 v 56.137 h -7.371 v -56.137 c 10e-4,-2.613 1.651,-4.731 3.686,-4.731 z"
         id="path23" /><path
         style="fill:#88aa00;fill-opacity:1"
         d="m 319.848,212.192 v 0 c 2.035,0 3.685,2.118 3.685,4.731 v 39.578 h -7.371 v -39.578 c 0.001,-2.613 1.651,-4.731 3.686,-4.731 z"
         id="path25" /><path
         style="fill:#88aa00;fill-opacity:1"
         d="m 308.239,231.164 v 0 c 2.035,0 3.685,2.118 3.685,4.731 v 20.606 h -7.371 v -20.606 c 10e-4,-2.613 1.651,-4.731 3.686,-4.731 z"
         id="path27" /><path
         style="fill:#88aa00;fill-opacity:1"
         d="m 296.631,248.543 v 0 c 2.035,0 3.685,2.118 3.685,4.731 v 3.227 h -7.371 v -3.227 c 0,-2.612 1.65,-4.731 3.686,-4.731 z"
         id="path29" /><path
         style="fill:#88aa00;fill-opacity:1"
         d="m 285.022,248.543 v 0 c 2.035,0 3.685,2.118 3.685,4.731 v 3.227 h -7.371 v -3.227 c 10e-4,-2.612 1.651,-4.731 3.686,-4.731 z"
         id="path31" /><path
         style="fill:#88aa00;fill-opacity:1"
         d="m 273.413,242.992 v 0 c 2.035,0 3.685,2.118 3.685,4.731 v 8.779 h -7.371 v -8.779 c 0.001,-2.613 1.651,-4.731 3.686,-4.731 z"
         id="path33" /><path
         style="fill:#88aa00;fill-opacity:1"
         d="m 261.804,219.675 v 0 c 2.035,0 3.685,2.118 3.685,4.731 v 32.095 h -7.371 v -32.095 c 0.001,-2.613 1.651,-4.731 3.686,-4.731 z"
         id="path35" /><path
         style="fill:#88aa00;fill-opacity:1"
         d="m 250.196,187.089 v 0 c 2.035,0 3.685,2.118 3.685,4.731 v 64.681 H 246.51 V 191.82 c 0,-2.613 1.65,-4.731 3.686,-4.731 z"
         id="path37" /><path
         style="fill:#88aa00;fill-opacity:1"
         d="m 238.587,203.454 v 0 c 2.035,0 3.685,2.118 3.685,4.731 v 48.316 h -7.371 v -48.316 c 10e-4,-2.613 1.651,-4.731 3.686,-4.731 z"
         id="path39" /><path
         style="fill:#88aa00;fill-opacity:1"
         d="m 226.978,221.016 v 0 c 2.035,0 3.685,2.118 3.685,4.731 v 30.754 h -7.371 v -30.754 c 0.001,-2.613 1.651,-4.731 3.686,-4.731 z"
         id="path41" /><path
         style="fill:#88aa00;fill-opacity:1"
         d="m 215.369,246.902 v 0 c 2.035,0 3.685,2.118 3.685,4.731 v 4.868 h -7.371 v -4.868 c 0.001,-2.613 1.651,-4.731 3.686,-4.731 z"
         id="path43" /><path
         style="fill:#88aa00;fill-opacity:1"
         d="m 203.761,235.026 v 0 c 2.035,0 3.685,2.118 3.685,4.731 v 16.744 h -7.371 v -16.744 c 0,-2.613 1.65,-4.731 3.686,-4.731 z"
         id="path45" /><path
         style="fill:#88aa00;fill-opacity:1"
         d="m 192.152,246.902 v 0 c 2.035,0 3.685,2.118 3.685,4.731 v 4.868 h -7.371 v -4.868 c 0.001,-2.613 1.651,-4.731 3.686,-4.731 z"
         id="path47" /><path
         style="fill:#88aa00;fill-opacity:1"
         d="m 180.543,235.702 v 0 c 2.035,0 3.685,2.118 3.685,4.731 v 16.068 h -7.371 v -16.068 c 0.001,-2.613 1.651,-4.731 3.686,-4.731 z"
         id="path49" /><path
         style="fill:#88aa00;fill-opacity:1"
         d="m 168.934,223.923 v 0 c 2.035,0 3.685,2.118 3.685,4.731 v 27.847 h -7.371 v -27.847 c 0.001,-2.613 1.651,-4.731 3.686,-4.731 z"
         id="path51" /><path
         style="fill:#88aa00;fill-opacity:1"
         d="m 157.326,184.627 v 0 c 2.035,0 3.685,2.118 3.685,4.731 v 67.143 h -7.371 v -67.143 c 0,-2.613 1.65,-4.731 3.686,-4.731 z"
         id="path53" /><path
         style="fill:#88aa00;fill-opacity:1"
         d="m 145.717,206.351 v 0 c 2.035,0 3.685,2.118 3.685,4.731 v 45.419 h -7.371 v -45.419 c 0,-2.613 1.65,-4.731 3.686,-4.731 z"
         id="path55" /><path
         style="fill:#88aa00;fill-opacity:1"
         d="m 134.108,195.634 v 0 c 2.035,0 3.685,2.118 3.685,4.731 v 56.137 h -7.371 v -56.137 c 0.001,-2.613 1.651,-4.731 3.686,-4.731 z"
         id="path57" /><path
         style="fill:#88aa00;fill-opacity:1"
         d="m 122.499,211.178 v 0 c 2.035,0 3.685,2.118 3.685,4.731 v 40.592 h -7.371 v -40.592 c 10e-4,-2.612 1.651,-4.731 3.686,-4.731 z"
         id="path59" /><path
         style="fill:#88aa00;fill-opacity:1"
         d="m 110.891,242.992 v 0 c 2.035,0 3.685,2.118 3.685,4.731 v 8.779 h -7.371 v -8.779 c 0,-2.613 1.65,-4.731 3.686,-4.731 z"
         id="path61" /><path
         style="fill:#88aa00;fill-opacity:1"
         d="m 99.282,231.744 v 0 c 2.035,0 3.685,2.118 3.685,4.731 v 20.027 h -7.371 v -20.027 c 0,-2.613 1.65,-4.731 3.686,-4.731 z"
         id="path63" /></g><g
       id="g123"
       style="fill:#ffd42a"><path
         style="fill:#ff9955;fill-opacity:1"
         d="m 412.718,259.474 v 0 c 2.035,0 3.685,-2.118 3.685,-4.731 v 0.756 h -7.371 v -0.756 c 0.001,2.613 1.651,4.731 3.686,4.731 z"
         id="path67" /><path
         style="fill:#ff9955;fill-opacity:1"
         d="m 401.109,265.388 v 0 c 2.035,0 3.685,-2.118 3.685,-4.731 v -5.158 h -7.371 v 5.158 c 10e-4,2.613 1.651,4.731 3.686,4.731 z"
         id="path69" /><path
         style="fill:#ff9955;fill-opacity:1"
         d="m 389.501,280.836 v 0 c 2.035,0 3.685,-2.118 3.685,-4.731 v -20.606 h -7.371 v 20.606 c 0,2.613 1.65,4.731 3.686,4.731 z"
         id="path71" /><path
         style="fill:#ff9955;fill-opacity:1"
         d="m 377.892,272.473 v 0 c 2.035,0 3.685,-2.118 3.685,-4.731 v -12.243 h -7.371 v 12.243 c 10e-4,2.613 1.651,4.731 3.686,4.731 z"
         id="path73" /><path
         style="fill:#ff9955;fill-opacity:1"
         d="m 366.283,334.325 v 0 c 2.035,0 3.685,-2.118 3.685,-4.731 v -74.095 h -7.371 v 74.095 c 0.001,2.613 1.651,4.731 3.686,4.731 z"
         id="path75" /><path
         style="fill:#ff9955;fill-opacity:1"
         d="m 354.674,349.676 v 0 c 2.035,0 3.685,-2.118 3.685,-4.731 v -89.446 h -7.371 v 89.446 c 10e-4,2.613 1.651,4.731 3.686,4.731 z"
         id="path77" /><path
         style="fill:#ff9955;fill-opacity:1"
         d="m 343.066,265.388 v 0 c 2.035,0 3.685,-2.118 3.685,-4.731 v -5.158 h -7.371 v 5.158 c 0,2.613 1.65,4.731 3.686,4.731 z"
         id="path79" /><path
         style="fill:#ff9955;fill-opacity:1"
         d="m 331.457,316.366 v 0 c 2.035,0 3.685,-2.118 3.685,-4.731 v -56.137 h -7.371 v 56.137 c 10e-4,2.613 1.651,4.731 3.686,4.731 z"
         id="path81" /><path
         style="fill:#ff9955;fill-opacity:1"
         d="m 319.848,299.808 v 0 c 2.035,0 3.685,-2.118 3.685,-4.731 v -39.578 h -7.371 v 39.578 c 0.001,2.613 1.651,4.731 3.686,4.731 z"
         id="path83" /><path
         style="fill:#ff9955;fill-opacity:1"
         d="m 308.239,280.836 v 0 c 2.035,0 3.685,-2.118 3.685,-4.731 v -20.606 h -7.371 v 20.606 c 10e-4,2.613 1.651,4.731 3.686,4.731 z"
         id="path85" /><path
         style="fill:#ff9955;fill-opacity:1"
         d="m 296.631,263.457 v 0 c 2.035,0 3.685,-2.118 3.685,-4.731 v -3.227 h -7.371 v 3.227 c 0,2.612 1.65,4.731 3.686,4.731 z"
         id="path87" /><path
         style="fill:#ff9955;fill-opacity:1"
         d="m 285.022,263.457 v 0 c 2.035,0 3.685,-2.118 3.685,-4.731 v -3.227 h -7.371 v 3.227 c 10e-4,2.612 1.651,4.731 3.686,4.731 z"
         id="path89" /><path
         style="fill:#ff9955;fill-opacity:1"
         d="m 273.413,269.008 v 0 c 2.035,0 3.685,-2.118 3.685,-4.731 v -8.779 h -7.371 v 8.779 c 0.001,2.613 1.651,4.731 3.686,4.731 z"
         id="path91" /><path
         style="fill:#ff9955;fill-opacity:1"
         d="m 261.804,292.325 v 0 c 2.035,0 3.685,-2.118 3.685,-4.731 v -32.095 h -7.371 v 32.095 c 0.001,2.613 1.651,4.731 3.686,4.731 z"
         id="path93" /><path
         style="fill:#ff9955;fill-opacity:1"
         d="m 250.196,324.911 v 0 c 2.035,0 3.685,-2.118 3.685,-4.731 v -64.681 h -7.371 v 64.681 c 0,2.613 1.65,4.731 3.686,4.731 z"
         id="path95" /><path
         style="fill:#ff9955;fill-opacity:1"
         d="m 238.587,308.546 v 0 c 2.035,0 3.685,-2.118 3.685,-4.731 v -48.316 h -7.371 v 48.316 c 10e-4,2.613 1.65,4.731 3.686,4.731 z"
         id="path97" /><path
         style="fill:#ff9955;fill-opacity:1"
         d="m 226.978,290.984 v 0 c 2.035,0 3.685,-2.118 3.685,-4.731 v -30.754 h -7.371 v 30.754 c 0.001,2.613 1.651,4.731 3.686,4.731 z"
         id="path99" /><path
         style="fill:#ff9955;fill-opacity:1"
         d="m 215.369,265.098 v 0 c 2.035,0 3.685,-2.118 3.685,-4.731 v -4.868 h -7.371 v 4.868 c 0.001,2.613 1.651,4.731 3.686,4.731 z"
         id="path101" /><path
         style="fill:#ff9955;fill-opacity:1"
         d="m 203.761,276.974 v 0 c 2.035,0 3.685,-2.118 3.685,-4.731 v -16.744 h -7.371 v 16.744 c 0,2.613 1.65,4.731 3.686,4.731 z"
         id="path103" /><path
         style="fill:#ff9955;fill-opacity:1"
         d="m 192.152,265.098 v 0 c 2.035,0 3.685,-2.118 3.685,-4.731 v -4.868 h -7.371 v 4.868 c 0,2.613 1.651,4.731 3.686,4.731 z"
         id="path105" /><path
         style="fill:#ff9955;fill-opacity:1"
         d="m 180.543,276.298 v 0 c 2.035,0 3.685,-2.118 3.685,-4.731 v -16.068 h -7.371 v 16.068 c 0.001,2.613 1.651,4.731 3.686,4.731 z"
         id="path107" /><path
         style="fill:#ff9955;fill-opacity:1"
         d="m 168.934,288.077 v 0 c 2.035,0 3.685,-2.118 3.685,-4.731 v -27.847 h -7.371 v 27.847 c 0.001,2.613 1.651,4.731 3.686,4.731 z"
         id="path109" /><path
         style="fill:#ff9955;fill-opacity:1"
         d="m 157.326,327.373 v 0 c 2.035,0 3.685,-2.118 3.685,-4.731 v -67.143 h -7.371 v 67.143 c 0,2.613 1.65,4.731 3.686,4.731 z"
         id="path111" /><path
         style="fill:#ff9955;fill-opacity:1"
         d="m 145.717,305.649 v 0 c 2.035,0 3.685,-2.118 3.685,-4.731 v -45.419 h -7.371 v 45.419 c 0,2.613 1.65,4.731 3.686,4.731 z"
         id="path113" /><path
         style="fill:#ff9955;fill-opacity:1"
         d="m 134.108,316.366 v 0 c 2.035,0 3.685,-2.118 3.685,-4.731 v -56.137 h -7.371 v 56.137 c 0.001,2.613 1.651,4.731 3.686,4.731 z"
         id="path115" /><path
         style="fill:#ff9955;fill-opacity:1"
         d="m 122.499,300.822 v 0 c 2.035,0 3.685,-2.118 3.685,-4.731 v -40.592 h -7.371 v 40.592 c 10e-4,2.612 1.651,4.731 3.686,4.731 z"
         id="path117" /><path
         style="fill:#ff9955;fill-opacity:1"
         d="m 110.891,269.008 v 0 c 2.035,0 3.685,-2.118 3.685,-4.731 v -8.779 h -7.371 v 8.779 c 0,2.613 1.65,4.731 3.686,4.731 z"
         id="path119" /><path
         style="fill:#ff9955;fill-opacity:1"
         d="m 99.282,280.256 v 0 c 2.035,0 3.685,-2.118 3.685,-4.731 v -20.027 h -7.371 v 20.027 c 0,2.613 1.65,4.731 3.686,4.731 z"
         id="path121" /></g></g></g></svg>