<?xml version="1.0" encoding="UTF-8" standalone="no"?>
<svg
   xmlns:dc="http://purl.org/dc/elements/1.1/"
   xmlns:cc="http://creativecommons.org/ns#"
   xmlns:rdf="http://www.w3.org/1999/02/22-rdf-syntax-ns#"
   xmlns:svg="http://www.w3.org/2000/svg"
   xmlns="http://www.w3.org/2000/svg"
   xmlns:sodipodi="http://sodipodi.sourceforge.net/DTD/sodipodi-0.dtd"
   xmlns:inkscape="http://www.inkscape.org/namespaces/inkscape"
   xml:space="preserve"
   enable-background="new 0 0 512 512"
   viewBox="0 0 512 512"
   y="0px"
   x="0px"
   id="Layer_1"
   version="1.1"
   sodipodi:docname="soundconverter.svg"
   inkscape:version="0.92.3 (2405546, 2018-03-11)"><sodipodi:namedview
   pagecolor="#ffffff"
   bordercolor="#666666"
   borderopacity="1"
   objecttolerance="10"
   gridtolerance="10"
   guidetolerance="10"
   inkscape:pageopacity="0"
   inkscape:pageshadow="2"
   inkscape:window-width="1496"
   inkscape:window-height="960"
   id="namedview73"
   showgrid="false"
   inkscape:zoom="0.4609375"
   inkscape:cx="260.33898"
   inkscape:cy="252.74576"
   inkscape:window-x="149"
   inkscape:window-y="10"
   inkscape:window-maximized="0"
   inkscape:current-layer="layer1" /><metadata
   id="metadata9"><rdf:RDF><cc:Work
       rdf:about=""><dc:format>image/svg+xml</dc:format><dc:type
         rdf:resource="http://purl.org/dc/dcmitype/StillImage" /><dc:title></dc:title></cc:Work></rdf:RDF></metadata><defs
   id="defs7"><filter
     style="color-interpolation-filters:sRGB;"
     inkscape:label="Drop Shadow"
     id="filter2096"><feFlood
       flood-opacity="0.498039"
       flood-color="rgb(0,0,0)"
       result="flood"
       id="feFlood2086" /><feComposite
       in="flood"
       in2="SourceGraphic"
       operator="in"
       result="composite1"
       id="feComposite2088" /><feGaussianBlur
       in="composite1"
       stdDeviation="6"
       result="blur"
       id="feGaussianBlur2090" /><feOffset
       dx="0"
       dy="-6.55738"
       result="offset"
       id="feOffset2092" /><feComposite
       in="SourceGraphic"
       in2="offset"
       operator="over"
       result="composite2"
       id="feComposite2094" /></filter></defs>

<g
   inkscape:groupmode="layer"
   id="layer1"
   inkscape:label="Layer 1"
   style="display:inline"><g
     id="g1492"
     transform="matrix(-1.2326016,0,0,-1.2326016,617.34655,688.41612)"
     style="opacity:0.25;fill:#000000"><g
       id="g1370"
       transform="matrix(-1.1720878,-0.67670524,0.67670524,-1.1720878,435.16671,817.45817)"
       style="fill:#000000"><path
         inkscape:connector-curvature="0"
         id="path1366"
         d="M 260.93555,125.09375 C 258.36211,125.13125 256,127.24961 256,130.09961 v 32.09961 c 0,2.7 -2.10078,4.9 -4.80078,5 -58.4,2.7 -104.89844,50.90039 -104.89844,109.90039 0,60.8 49.2,110 110,110 -42,0 -76.10156,-34.09961 -76.10156,-76.09961 0,-40.1 31.00039,-73.00039 70.40039,-75.90039 2.9,-0.2 5.40039,2.1 5.40039,5 v 31 c 0,3.8 4.2,6.20078 7.5,4.30078 l 122.09961,-70.5 c 3.3,-1.9 3.3,-6.79961 0,-8.59961 L 263.5,125.80078 c -0.825,-0.5 -1.70664,-0.71953 -2.56445,-0.70703 z"
         style="opacity:1;fill:#000000;fill-opacity:1;stroke-width:0.97710252" /></g><g
       id="g1490"
       style="fill:#000000"><g
         transform="matrix(0.77857672,0,0,0.52513682,56.684749,121.56497)"
         id="g1488"
         style="fill:#000000"><g
           id="g1428"
           style="fill:#000000"><path
             style="fill:#000000;fill-opacity:1"
             d="m 412.718,252.526 v 0 c 2.035,0 3.685,2.118 3.685,4.731 v -0.756 h -7.371 v 0.756 c 0.001,-2.613 1.651,-4.731 3.686,-4.731 z"
             id="path1372"
             inkscape:connector-curvature="0" /><path
             style="fill:#000000;fill-opacity:1"
             d="m 401.109,246.612 v 0 c 2.035,0 3.685,2.118 3.685,4.731 v 5.158 h -7.371 v -5.158 c 10e-4,-2.612 1.651,-4.731 3.686,-4.731 z"
             id="path1374"
             inkscape:connector-curvature="0" /><path
             style="fill:#000000;fill-opacity:1"
             d="m 389.501,231.164 v 0 c 2.035,0 3.685,2.118 3.685,4.731 v 20.606 h -7.371 v -20.606 c 0,-2.613 1.65,-4.731 3.686,-4.731 z"
             id="path1376"
             inkscape:connector-curvature="0" /><path
             style="fill:#000000;fill-opacity:1"
             d="m 377.892,239.527 v 0 c 2.035,0 3.685,2.118 3.685,4.731 v 12.243 h -7.371 v -12.243 c 10e-4,-2.613 1.651,-4.731 3.686,-4.731 z"
             id="path1378"
             inkscape:connector-curvature="0" /><path
             style="fill:#000000;fill-opacity:1"
             d="m 366.283,177.675 v 0 c 2.035,0 3.685,2.118 3.685,4.731 v 74.095 h -7.371 v -74.095 c 0.001,-2.612 1.651,-4.731 3.686,-4.731 z"
             id="path1380"
             inkscape:connector-curvature="0" /><path
             style="fill:#000000;fill-opacity:1"
             d="m 354.674,162.324 v 0 c 2.035,0 3.685,2.118 3.685,4.731 v 89.446 h -7.371 v -89.446 c 10e-4,-2.613 1.651,-4.731 3.686,-4.731 z"
             id="path1382"
             inkscape:connector-curvature="0" /><path
             style="fill:#000000;fill-opacity:1"
             d="m 343.066,246.612 v 0 c 2.035,0 3.685,2.118 3.685,4.731 v 5.158 h -7.371 v -5.158 c 0,-2.612 1.65,-4.731 3.686,-4.731 z"
             id="path1384"
             inkscape:connector-curvature="0" /><path
             style="fill:#000000;fill-opacity:1"
             d="m 331.457,195.634 v 0 c 2.035,0 3.685,2.118 3.685,4.731 v 56.137 h -7.371 v -56.137 c 10e-4,-2.613 1.651,-4.731 3.686,-4.731 z"
             id="path1386"
             inkscape:connector-curvature="0" /><path
             style="fill:#000000;fill-opacity:1"
             d="m 319.848,212.192 v 0 c 2.035,0 3.685,2.118 3.685,4.731 v 39.578 h -7.371 v -39.578 c 0.001,-2.613 1.651,-4.731 3.686,-4.731 z"
             id="path1388"
             inkscape:connector-curvature="0" /><path
             style="fill:#000000;fill-opacity:1"
             d="m 308.239,231.164 v 0 c 2.035,0 3.685,2.118 3.685,4.731 v 20.606 h -7.371 v -20.606 c 10e-4,-2.613 1.651,-4.731 3.686,-4.731 z"
             id="path1390"
             inkscape:connector-curvature="0" /><path
             style="fill:#000000;fill-opacity:1"
             d="m 296.631,248.543 v 0 c 2.035,0 3.685,2.118 3.685,4.731 v 3.227 h -7.371 v -3.227 c 0,-2.612 1.65,-4.731 3.686,-4.731 z"
             id="path1392"
             inkscape:connector-curvature="0" /><path
             style="fill:#000000;fill-opacity:1"
             d="m 285.022,248.543 v 0 c 2.035,0 3.685,2.118 3.685,4.731 v 3.227 h -7.371 v -3.227 c 10e-4,-2.612 1.651,-4.731 3.686,-4.731 z"
             id="path1394"
             inkscape:connector-curvature="0" /><path
             style="fill:#000000;fill-opacity:1"
             d="m 273.413,242.992 v 0 c 2.035,0 3.685,2.118 3.685,4.731 v 8.779 h -7.371 v -8.779 c 0.001,-2.613 1.651,-4.731 3.686,-4.731 z"
             id="path1396"
             inkscape:connector-curvature="0" /><path
             style="fill:#000000;fill-opacity:1"
             d="m 261.804,219.675 v 0 c 2.035,0 3.685,2.118 3.685,4.731 v 32.095 h -7.371 v -32.095 c 0.001,-2.613 1.651,-4.731 3.686,-4.731 z"
             id="path1398"
             inkscape:connector-curvature="0" /><path
             style="fill:#000000;fill-opacity:1"
             d="m 250.196,187.089 v 0 c 2.035,0 3.685,2.118 3.685,4.731 v 64.681 H 246.51 V 191.82 c 0,-2.613 1.65,-4.731 3.686,-4.731 z"
             id="path1400"
             inkscape:connector-curvature="0" /><path
             style="fill:#000000;fill-opacity:1"
             d="m 238.587,203.454 v 0 c 2.035,0 3.685,2.118 3.685,4.731 v 48.316 h -7.371 v -48.316 c 10e-4,-2.613 1.651,-4.731 3.686,-4.731 z"
             id="path1402"
             inkscape:connector-curvature="0" /><path
             style="fill:#000000;fill-opacity:1"
             d="m 226.978,221.016 v 0 c 2.035,0 3.685,2.118 3.685,4.731 v 30.754 h -7.371 v -30.754 c 0.001,-2.613 1.651,-4.731 3.686,-4.731 z"
             id="path1404"
             inkscape:connector-curvature="0" /><path
             style="fill:#000000;fill-opacity:1"
             d="m 215.369,246.902 v 0 c 2.035,0 3.685,2.118 3.685,4.731 v 4.868 h -7.371 v -4.868 c 0.001,-2.613 1.651,-4.731 3.686,-4.731 z"
             id="path1406"
             inkscape:connector-curvature="0" /><path
             style="fill:#000000;fill-opacity:1"
             d="m 203.761,235.026 v 0 c 2.035,0 3.685,2.118 3.685,4.731 v 16.744 h -7.371 v -16.744 c 0,-2.613 1.65,-4.731 3.686,-4.731 z"
             id="path1408"
             inkscape:connector-curvature="0" /><path
             style="fill:#000000;fill-opacity:1"
             d="m 192.152,246.902 v 0 c 2.035,0 3.685,2.118 3.685,4.731 v 4.868 h -7.371 v -4.868 c 0.001,-2.613 1.651,-4.731 3.686,-4.731 z"
             id="path1410"
             inkscape:connector-curvature="0" /><path
             style="fill:#000000;fill-opacity:1"
             d="m 180.543,235.702 v 0 c 2.035,0 3.685,2.118 3.685,4.731 v 16.068 h -7.371 v -16.068 c 0.001,-2.613 1.651,-4.731 3.686,-4.731 z"
             id="path1412"
             inkscape:connector-curvature="0" /><path
             style="fill:#000000;fill-opacity:1"
             d="m 168.934,223.923 v 0 c 2.035,0 3.685,2.118 3.685,4.731 v 27.847 h -7.371 v -27.847 c 0.001,-2.613 1.651,-4.731 3.686,-4.731 z"
             id="path1414"
             inkscape:connector-curvature="0" /><path
             style="fill:#000000;fill-opacity:1"
             d="m 157.326,184.627 v 0 c 2.035,0 3.685,2.118 3.685,4.731 v 67.143 h -7.371 v -67.143 c 0,-2.613 1.65,-4.731 3.686,-4.731 z"
             id="path1416"
             inkscape:connector-curvature="0" /><path
             style="fill:#000000;fill-opacity:1"
             d="m 145.717,206.351 v 0 c 2.035,0 3.685,2.118 3.685,4.731 v 45.419 h -7.371 v -45.419 c 0,-2.613 1.65,-4.731 3.686,-4.731 z"
             id="path1418"
             inkscape:connector-curvature="0" /><path
             style="fill:#000000;fill-opacity:1"
             d="m 134.108,195.634 v 0 c 2.035,0 3.685,2.118 3.685,4.731 v 56.137 h -7.371 v -56.137 c 0.001,-2.613 1.651,-4.731 3.686,-4.731 z"
             id="path1420"
             inkscape:connector-curvature="0" /><path
             style="fill:#000000;fill-opacity:1"
             d="m 122.499,211.178 v 0 c 2.035,0 3.685,2.118 3.685,4.731 v 40.592 h -7.371 v -40.592 c 10e-4,-2.612 1.651,-4.731 3.686,-4.731 z"
             id="path1422"
             inkscape:connector-curvature="0" /><path
             style="fill:#000000;fill-opacity:1"
             d="m 110.891,242.992 v 0 c 2.035,0 3.685,2.118 3.685,4.731 v 8.779 h -7.371 v -8.779 c 0,-2.613 1.65,-4.731 3.686,-4.731 z"
             id="path1424"
             inkscape:connector-curvature="0" /><path
             style="fill:#000000;fill-opacity:1"
             d="m 99.282,231.744 v 0 c 2.035,0 3.685,2.118 3.685,4.731 v 20.027 h -7.371 v -20.027 c 0,-2.613 1.65,-4.731 3.686,-4.731 z"
             id="path1426"
             inkscape:connector-curvature="0" /></g><g
           id="g1486"
           style="fill:#000000"><path
             style="fill:#000000;fill-opacity:1"
             d="m 412.718,259.474 v 0 c 2.035,0 3.685,-2.118 3.685,-4.731 v 0.756 h -7.371 v -0.756 c 0.001,2.613 1.651,4.731 3.686,4.731 z"
             id="path1430"
             inkscape:connector-curvature="0" /><path
             style="fill:#000000;fill-opacity:1"
             d="m 401.109,265.388 v 0 c 2.035,0 3.685,-2.118 3.685,-4.731 v -5.158 h -7.371 v 5.158 c 10e-4,2.613 1.651,4.731 3.686,4.731 z"
             id="path1432"
             inkscape:connector-curvature="0" /><path
             style="fill:#000000;fill-opacity:1"
             d="m 389.501,280.836 v 0 c 2.035,0 3.685,-2.118 3.685,-4.731 v -20.606 h -7.371 v 20.606 c 0,2.613 1.65,4.731 3.686,4.731 z"
             id="path1434"
             inkscape:connector-curvature="0" /><path
             style="fill:#000000;fill-opacity:1"
             d="m 377.892,272.473 v 0 c 2.035,0 3.685,-2.118 3.685,-4.731 v -12.243 h -7.371 v 12.243 c 10e-4,2.613 1.651,4.731 3.686,4.731 z"
             id="path1436"
             inkscape:connector-curvature="0" /><path
             style="fill:#000000;fill-opacity:1"
             d="m 366.283,334.325 v 0 c 2.035,0 3.685,-2.118 3.685,-4.731 v -74.095 h -7.371 v 74.095 c 0.001,2.613 1.651,4.731 3.686,4.731 z"
             id="path1438"
             inkscape:connector-curvature="0" /><path
             style="fill:#000000;fill-opacity:1"
             d="m 354.674,349.676 v 0 c 2.035,0 3.685,-2.118 3.685,-4.731 v -89.446 h -7.371 v 89.446 c 10e-4,2.613 1.651,4.731 3.686,4.731 z"
             id="path1440"
             inkscape:connector-curvature="0" /><path
             style="fill:#000000;fill-opacity:1"
             d="m 343.066,265.388 v 0 c 2.035,0 3.685,-2.118 3.685,-4.731 v -5.158 h -7.371 v 5.158 c 0,2.613 1.65,4.731 3.686,4.731 z"
             id="path1442"
             inkscape:connector-curvature="0" /><path
             style="fill:#000000;fill-opacity:1"
             d="m 331.457,316.366 v 0 c 2.035,0 3.685,-2.118 3.685,-4.731 v -56.137 h -7.371 v 56.137 c 10e-4,2.613 1.651,4.731 3.686,4.731 z"
             id="path1444"
             inkscape:connector-curvature="0" /><path
             style="fill:#000000;fill-opacity:1"
             d="m 319.848,299.808 v 0 c 2.035,0 3.685,-2.118 3.685,-4.731 v -39.578 h -7.371 v 39.578 c 0.001,2.613 1.651,4.731 3.686,4.731 z"
             id="path1446"
             inkscape:connector-curvature="0" /><path
             style="fill:#000000;fill-opacity:1"
             d="m 308.239,280.836 v 0 c 2.035,0 3.685,-2.118 3.685,-4.731 v -20.606 h -7.371 v 20.606 c 10e-4,2.613 1.651,4.731 3.686,4.731 z"
             id="path1448"
             inkscape:connector-curvature="0" /><path
             style="fill:#000000;fill-opacity:1"
             d="m 296.631,263.457 v 0 c 2.035,0 3.685,-2.118 3.685,-4.731 v -3.227 h -7.371 v 3.227 c 0,2.612 1.65,4.731 3.686,4.731 z"
             id="path1450"
             inkscape:connector-curvature="0" /><path
             style="fill:#000000;fill-opacity:1"
             d="m 285.022,263.457 v 0 c 2.035,0 3.685,-2.118 3.685,-4.731 v -3.227 h -7.371 v 3.227 c 10e-4,2.612 1.651,4.731 3.686,4.731 z"
             id="path1452"
             inkscape:connector-curvature="0" /><path
             style="fill:#000000;fill-opacity:1"
             d="m 273.413,269.008 v 0 c 2.035,0 3.685,-2.118 3.685,-4.731 v -8.779 h -7.371 v 8.779 c 0.001,2.613 1.651,4.731 3.686,4.731 z"
             id="path1454"
             inkscape:connector-curvature="0" /><path
             style="fill:#000000;fill-opacity:1"
             d="m 261.804,292.325 v 0 c 2.035,0 3.685,-2.118 3.685,-4.731 v -32.095 h -7.371 v 32.095 c 0.001,2.613 1.651,4.731 3.686,4.731 z"
             id="path1456"
             inkscape:connector-curvature="0" /><path
             style="fill:#000000;fill-opacity:1"
             d="m 250.196,324.911 v 0 c 2.035,0 3.685,-2.118 3.685,-4.731 v -64.681 h -7.371 v 64.681 c 0,2.613 1.65,4.731 3.686,4.731 z"
             id="path1458"
             inkscape:connector-curvature="0" /><path
             style="fill:#000000;fill-opacity:1"
             d="m 238.587,308.546 v 0 c 2.035,0 3.685,-2.118 3.685,-4.731 v -48.316 h -7.371 v 48.316 c 10e-4,2.613 1.65,4.731 3.686,4.731 z"
             id="path1460"
             inkscape:connector-curvature="0" /><path
             style="fill:#000000;fill-opacity:1"
             d="m 226.978,290.984 v 0 c 2.035,0 3.685,-2.118 3.685,-4.731 v -30.754 h -7.371 v 30.754 c 0.001,2.613 1.651,4.731 3.686,4.731 z"
             id="path1462"
             inkscape:connector-curvature="0" /><path
             style="fill:#000000;fill-opacity:1"
             d="m 215.369,265.098 v 0 c 2.035,0 3.685,-2.118 3.685,-4.731 v -4.868 h -7.371 v 4.868 c 0.001,2.613 1.651,4.731 3.686,4.731 z"
             id="path1464"
             inkscape:connector-curvature="0" /><path
             style="fill:#000000;fill-opacity:1"
             d="m 203.761,276.974 v 0 c 2.035,0 3.685,-2.118 3.685,-4.731 v -16.744 h -7.371 v 16.744 c 0,2.613 1.65,4.731 3.686,4.731 z"
             id="path1466"
             inkscape:connector-curvature="0" /><path
             style="fill:#000000;fill-opacity:1"
             d="m 192.152,265.098 v 0 c 2.035,0 3.685,-2.118 3.685,-4.731 v -4.868 h -7.371 v 4.868 c 0,2.613 1.651,4.731 3.686,4.731 z"
             id="path1468"
             inkscape:connector-curvature="0" /><path
             style="fill:#000000;fill-opacity:1"
             d="m 180.543,276.298 v 0 c 2.035,0 3.685,-2.118 3.685,-4.731 v -16.068 h -7.371 v 16.068 c 0.001,2.613 1.651,4.731 3.686,4.731 z"
             id="path1470"
             inkscape:connector-curvature="0" /><path
             style="fill:#000000;fill-opacity:1"
             d="m 168.934,288.077 v 0 c 2.035,0 3.685,-2.118 3.685,-4.731 v -27.847 h -7.371 v 27.847 c 0.001,2.613 1.651,4.731 3.686,4.731 z"
             id="path1472"
             inkscape:connector-curvature="0" /><path
             style="fill:#000000;fill-opacity:1"
             d="m 157.326,327.373 v 0 c 2.035,0 3.685,-2.118 3.685,-4.731 v -67.143 h -7.371 v 67.143 c 0,2.613 1.65,4.731 3.686,4.731 z"
             id="path1474"
             inkscape:connector-curvature="0" /><path
             style="fill:#000000;fill-opacity:1"
             d="m 145.717,305.649 v 0 c 2.035,0 3.685,-2.118 3.685,-4.731 v -45.419 h -7.371 v 45.419 c 0,2.613 1.65,4.731 3.686,4.731 z"
             id="path1476"
             inkscape:connector-curvature="0" /><path
             style="fill:#000000;fill-opacity:1"
             d="m 134.108,316.366 v 0 c 2.035,0 3.685,-2.118 3.685,-4.731 v -56.137 h -7.371 v 56.137 c 0.001,2.613 1.651,4.731 3.686,4.731 z"
             id="path1478"
             inkscape:connector-curvature="0" /><path
             style="fill:#000000;fill-opacity:1"
             d="m 122.499,300.822 v 0 c 2.035,0 3.685,-2.118 3.685,-4.731 v -40.592 h -7.371 v 40.592 c 10e-4,2.612 1.651,4.731 3.686,4.731 z"
             id="path1480"
             inkscape:connector-curvature="0" /><path
             style="fill:#000000;fill-opacity:1"
             d="m 110.891,269.008 v 0 c 2.035,0 3.685,-2.118 3.685,-4.731 v -8.779 h -7.371 v 8.779 c 0,2.613 1.65,4.731 3.686,4.731 z"
             id="path1482"
             inkscape:connector-curvature="0" /><path
             style="fill:#000000;fill-opacity:1"
             d="m 99.282,280.256 v 0 c 2.035,0 3.685,-2.118 3.685,-4.731 v -20.027 h -7.371 v 20.027 c 0,2.613 1.65,4.731 3.686,4.731 z"
             id="path1484"
             inkscape:connector-curvature="0" /></g></g></g></g></g><g
   inkscape:groupmode="layer"
   id="layer3"
   inkscape:label="Layer 2"
   style="display:inline"
   sodipodi:insensitive="true"><g
     id="g959"
     transform="matrix(-1.2326016,0,0,-1.2326016,617.34655,678.41612)"><g
       id="g862"
       transform="matrix(-1.1720878,-0.67670524,0.67670524,-1.1720878,435.16671,817.45817)"><path
         inkscape:connector-curvature="0"
         id="path858"
         d="M 260.93555,125.09375 C 258.36211,125.13125 256,127.24961 256,130.09961 v 32.09961 c 0,2.7 -2.10078,4.9 -4.80078,5 -58.4,2.7 -104.89844,50.90039 -104.89844,109.90039 0,60.8 49.2,110 110,110 -42,0 -76.10156,-34.09961 -76.10156,-76.09961 0,-40.1 31.00039,-73.00039 70.40039,-75.90039 2.9,-0.2 5.40039,2.1 5.40039,5 v 31 c 0,3.8 4.2,6.20078 7.5,4.30078 l 122.09961,-70.5 c 3.3,-1.9 3.3,-6.79961 0,-8.59961 L 263.5,125.80078 c -0.825,-0.5 -1.70664,-0.71953 -2.56445,-0.70703 z"
         style="opacity:1;fill:#aad400;fill-opacity:1;stroke-width:0.97710252" /><path
         inkscape:connector-curvature="0"
         id="path860"
         d="m 255.69531,199.05078 a 93.961311,93.961311 0 0 0 -0.10937,0.004 h -0.66602 v 0.0234 a 93.961311,93.961311 0 0 0 -93.18554,93.9336 93.961311,93.961311 0 0 0 82.82031,93.18164 C 208.12384,380.53788 180.19922,349.00502 180.19922,311 c 0,-40.1 31.00039,-73.00039 70.40039,-75.90039 2.9,-0.2 5.40039,2.1 5.40039,5 v 31 c 0,3.8 4.2,6.20078 7.5,4.30078 l 122.09961,-70.5 c 2.15081,-1.23834 2.8911,-3.74758 2.23828,-5.8457 H 255.77344 a 93.961311,93.961311 0 0 0 -0.0781,-0.004 z"
         style="opacity:1;fill:#88aa00;fill-opacity:1;stroke-width:0.97710252" /></g><g
       id="layer2"><g
         transform="matrix(0.77857672,0,0,0.52513682,56.684749,121.56497)"
         id="g125"
         style="fill:#ffd42a"><g
           id="g65"
           style="fill:#ffd42a"><path
             style="fill:#88aa00;fill-opacity:1"
             d="m 412.718,252.526 v 0 c 2.035,0 3.685,2.118 3.685,4.731 v -0.756 h -7.371 v 0.756 c 0.001,-2.613 1.651,-4.731 3.686,-4.731 z"
             id="path9"
             inkscape:connector-curvature="0" /><path
             style="fill:#88aa00;fill-opacity:1"
             d="m 401.109,246.612 v 0 c 2.035,0 3.685,2.118 3.685,4.731 v 5.158 h -7.371 v -5.158 c 10e-4,-2.612 1.651,-4.731 3.686,-4.731 z"
             id="path11"
             inkscape:connector-curvature="0" /><path
             style="fill:#88aa00;fill-opacity:1"
             d="m 389.501,231.164 v 0 c 2.035,0 3.685,2.118 3.685,4.731 v 20.606 h -7.371 v -20.606 c 0,-2.613 1.65,-4.731 3.686,-4.731 z"
             id="path13"
             inkscape:connector-curvature="0" /><path
             style="fill:#88aa00;fill-opacity:1"
             d="m 377.892,239.527 v 0 c 2.035,0 3.685,2.118 3.685,4.731 v 12.243 h -7.371 v -12.243 c 10e-4,-2.613 1.651,-4.731 3.686,-4.731 z"
             id="path15"
             inkscape:connector-curvature="0" /><path
             style="fill:#88aa00;fill-opacity:1"
             d="m 366.283,177.675 v 0 c 2.035,0 3.685,2.118 3.685,4.731 v 74.095 h -7.371 v -74.095 c 0.001,-2.612 1.651,-4.731 3.686,-4.731 z"
             id="path17"
             inkscape:connector-curvature="0" /><path
             style="fill:#88aa00;fill-opacity:1"
             d="m 354.674,162.324 v 0 c 2.035,0 3.685,2.118 3.685,4.731 v 89.446 h -7.371 v -89.446 c 10e-4,-2.613 1.651,-4.731 3.686,-4.731 z"
             id="path19"
             inkscape:connector-curvature="0" /><path
             style="fill:#88aa00;fill-opacity:1"
             d="m 343.066,246.612 v 0 c 2.035,0 3.685,2.118 3.685,4.731 v 5.158 h -7.371 v -5.158 c 0,-2.612 1.65,-4.731 3.686,-4.731 z"
             id="path21"
             inkscape:connector-curvature="0" /><path
             style="fill:#88aa00;fill-opacity:1"
             d="m 331.457,195.634 v 0 c 2.035,0 3.685,2.118 3.685,4.731 v 56.137 h -7.371 v -56.137 c 10e-4,-2.613 1.651,-4.731 3.686,-4.731 z"
             id="path23"
             inkscape:connector-curvature="0" /><path
             style="fill:#88aa00;fill-opacity:1"
             d="m 319.848,212.192 v 0 c 2.035,0 3.685,2.118 3.685,4.731 v 39.578 h -7.371 v -39.578 c 0.001,-2.613 1.651,-4.731 3.686,-4.731 z"
             id="path25"
             inkscape:connector-curvature="0" /><path
             style="fill:#88aa00;fill-opacity:1"
             d="m 308.239,231.164 v 0 c 2.035,0 3.685,2.118 3.685,4.731 v 20.606 h -7.371 v -20.606 c 10e-4,-2.613 1.651,-4.731 3.686,-4.731 z"
             id="path27"
             inkscape:connector-curvature="0" /><path
             style="fill:#88aa00;fill-opacity:1"
             d="m 296.631,248.543 v 0 c 2.035,0 3.685,2.118 3.685,4.731 v 3.227 h -7.371 v -3.227 c 0,-2.612 1.65,-4.731 3.686,-4.731 z"
             id="path29"
             inkscape:connector-curvature="0" /><path
             style="fill:#88aa00;fill-opacity:1"
             d="m 285.022,248.543 v 0 c 2.035,0 3.685,2.118 3.685,4.731 v 3.227 h -7.371 v -3.227 c 10e-4,-2.612 1.651,-4.731 3.686,-4.731 z"
             id="path31"
             inkscape:connector-curvature="0" /><path
             style="fill:#88aa00;fill-opacity:1"
             d="m 273.413,242.992 v 0 c 2.035,0 3.685,2.118 3.685,4.731 v 8.779 h -7.371 v -8.779 c 0.001,-2.613 1.651,-4.731 3.686,-4.731 z"
             id="path33"
             inkscape:connector-curvature="0" /><path
             style="fill:#88aa00;fill-opacity:1"
             d="m 261.804,219.675 v 0 c 2.035,0 3.685,2.118 3.685,4.731 v 32.095 h -7.371 v -32.095 c 0.001,-2.613 1.651,-4.731 3.686,-4.731 z"
             id="path35"
             inkscape:connector-curvature="0" /><path
             style="fill:#88aa00;fill-opacity:1"
             d="m 250.196,187.089 v 0 c 2.035,0 3.685,2.118 3.685,4.731 v 64.681 H 246.51 V 191.82 c 0,-2.613 1.65,-4.731 3.686,-4.731 z"
             id="path37"
             inkscape:connector-curvature="0" /><path
             style="fill:#88aa00;fill-opacity:1"
             d="m 238.587,203.454 v 0 c 2.035,0 3.685,2.118 3.685,4.731 v 48.316 h -7.371 v -48.316 c 10e-4,-2.613 1.651,-4.731 3.686,-4.731 z"
             id="path39"
             inkscape:connector-curvature="0" /><path
             style="fill:#88aa00;fill-opacity:1"
             d="m 226.978,221.016 v 0 c 2.035,0 3.685,2.118 3.685,4.731 v 30.754 h -7.371 v -30.754 c 0.001,-2.613 1.651,-4.731 3.686,-4.731 z"
             id="path41"
             inkscape:connector-curvature="0" /><path
             style="fill:#88aa00;fill-opacity:1"
             d="m 215.369,246.902 v 0 c 2.035,0 3.685,2.118 3.685,4.731 v 4.868 h -7.371 v -4.868 c 0.001,-2.613 1.651,-4.731 3.686,-4.731 z"
             id="path43"
             inkscape:connector-curvature="0" /><path
             style="fill:#88aa00;fill-opacity:1"
             d="m 203.761,235.026 v 0 c 2.035,0 3.685,2.118 3.685,4.731 v 16.744 h -7.371 v -16.744 c 0,-2.613 1.65,-4.731 3.686,-4.731 z"
             id="path45"
             inkscape:connector-curvature="0" /><path
             style="fill:#88aa00;fill-opacity:1"
             d="m 192.152,246.902 v 0 c 2.035,0 3.685,2.118 3.685,4.731 v 4.868 h -7.371 v -4.868 c 0.001,-2.613 1.651,-4.731 3.686,-4.731 z"
             id="path47"
             inkscape:connector-curvature="0" /><path
             style="fill:#88aa00;fill-opacity:1"
             d="m 180.543,235.702 v 0 c 2.035,0 3.685,2.118 3.685,4.731 v 16.068 h -7.371 v -16.068 c 0.001,-2.613 1.651,-4.731 3.686,-4.731 z"
             id="path49"
             inkscape:connector-curvature="0" /><path
             style="fill:#88aa00;fill-opacity:1"
             d="m 168.934,223.923 v 0 c 2.035,0 3.685,2.118 3.685,4.731 v 27.847 h -7.371 v -27.847 c 0.001,-2.613 1.651,-4.731 3.686,-4.731 z"
             id="path51"
             inkscape:connector-curvature="0" /><path
             style="fill:#88aa00;fill-opacity:1"
             d="m 157.326,184.627 v 0 c 2.035,0 3.685,2.118 3.685,4.731 v 67.143 h -7.371 v -67.143 c 0,-2.613 1.65,-4.731 3.686,-4.731 z"
             id="path53"
             inkscape:connector-curvature="0" /><path
             style="fill:#88aa00;fill-opacity:1"
             d="m 145.717,206.351 v 0 c 2.035,0 3.685,2.118 3.685,4.731 v 45.419 h -7.371 v -45.419 c 0,-2.613 1.65,-4.731 3.686,-4.731 z"
             id="path55"
             inkscape:connector-curvature="0" /><path
             style="fill:#88aa00;fill-opacity:1"
             d="m 134.108,195.634 v 0 c 2.035,0 3.685,2.118 3.685,4.731 v 56.137 h -7.371 v -56.137 c 0.001,-2.613 1.651,-4.731 3.686,-4.731 z"
             id="path57"
             inkscape:connector-curvature="0" /><path
             style="fill:#88aa00;fill-opacity:1"
             d="m 122.499,211.178 v 0 c 2.035,0 3.685,2.118 3.685,4.731 v 40.592 h -7.371 v -40.592 c 10e-4,-2.612 1.651,-4.731 3.686,-4.731 z"
             id="path59"
             inkscape:connector-curvature="0" /><path
             style="fill:#88aa00;fill-opacity:1"
             d="m 110.891,242.992 v 0 c 2.035,0 3.685,2.118 3.685,4.731 v 8.779 h -7.371 v -8.779 c 0,-2.613 1.65,-4.731 3.686,-4.731 z"
             id="path61"
             inkscape:connector-curvature="0" /><path
             style="fill:#88aa00;fill-opacity:1"
             d="m 99.282,231.744 v 0 c 2.035,0 3.685,2.118 3.685,4.731 v 20.027 h -7.371 v -20.027 c 0,-2.613 1.65,-4.731 3.686,-4.731 z"
             id="path63"
             inkscape:connector-curvature="0" /></g><g
           id="g123"
           style="fill:#ffd42a"><path
             style="fill:#ff9955;fill-opacity:1"
             d="m 412.718,259.474 v 0 c 2.035,0 3.685,-2.118 3.685,-4.731 v 0.756 h -7.371 v -0.756 c 0.001,2.613 1.651,4.731 3.686,4.731 z"
             id="path67"
             inkscape:connector-curvature="0" /><path
             style="fill:#ff9955;fill-opacity:1"
             d="m 401.109,265.388 v 0 c 2.035,0 3.685,-2.118 3.685,-4.731 v -5.158 h -7.371 v 5.158 c 10e-4,2.613 1.651,4.731 3.686,4.731 z"
             id="path69"
             inkscape:connector-curvature="0" /><path
             style="fill:#ff9955;fill-opacity:1"
             d="m 389.501,280.836 v 0 c 2.035,0 3.685,-2.118 3.685,-4.731 v -20.606 h -7.371 v 20.606 c 0,2.613 1.65,4.731 3.686,4.731 z"
             id="path71"
             inkscape:connector-curvature="0" /><path
             style="fill:#ff9955;fill-opacity:1"
             d="m 377.892,272.473 v 0 c 2.035,0 3.685,-2.118 3.685,-4.731 v -12.243 h -7.371 v 12.243 c 10e-4,2.613 1.651,4.731 3.686,4.731 z"
             id="path73"
             inkscape:connector-curvature="0" /><path
             style="fill:#ff9955;fill-opacity:1"
             d="m 366.283,334.325 v 0 c 2.035,0 3.685,-2.118 3.685,-4.731 v -74.095 h -7.371 v 74.095 c 0.001,2.613 1.651,4.731 3.686,4.731 z"
             id="path75"
             inkscape:connector-curvature="0" /><path
             style="fill:#ff9955;fill-opacity:1"
             d="m 354.674,349.676 v 0 c 2.035,0 3.685,-2.118 3.685,-4.731 v -89.446 h -7.371 v 89.446 c 10e-4,2.613 1.651,4.731 3.686,4.731 z"
             id="path77"
             inkscape:connector-curvature="0" /><path
             style="fill:#ff9955;fill-opacity:1"
             d="m 343.066,265.388 v 0 c 2.035,0 3.685,-2.118 3.685,-4.731 v -5.158 h -7.371 v 5.158 c 0,2.613 1.65,4.731 3.686,4.731 z"
             id="path79"
             inkscape:connector-curvature="0" /><path
             style="fill:#ff9955;fill-opacity:1"
             d="m 331.457,316.366 v 0 c 2.035,0 3.685,-2.118 3.685,-4.731 v -56.137 h -7.371 v 56.137 c 10e-4,2.613 1.651,4.731 3.686,4.731 z"
             id="path81"
             inkscape:connector-curvature="0" /><path
             style="fill:#ff9955;fill-opacity:1"
             d="m 319.848,299.808 v 0 c 2.035,0 3.685,-2.118 3.685,-4.731 v -39.578 h -7.371 v 39.578 c 0.001,2.613 1.651,4.731 3.686,4.731 z"
             id="path83"
             inkscape:connector-curvature="0" /><path
             style="fill:#ff9955;fill-opacity:1"
             d="m 308.239,280.836 v 0 c 2.035,0 3.685,-2.118 3.685,-4.731 v -20.606 h -7.371 v 20.606 c 10e-4,2.613 1.651,4.731 3.686,4.731 z"
             id="path85"
             inkscape:connector-curvature="0" /><path
             style="fill:#ff9955;fill-opacity:1"
             d="m 296.631,263.457 v 0 c 2.035,0 3.685,-2.118 3.685,-4.731 v -3.227 h -7.371 v 3.227 c 0,2.612 1.65,4.731 3.686,4.731 z"
             id="path87"
             inkscape:connector-curvature="0" /><path
             style="fill:#ff9955;fill-opacity:1"
             d="m 285.022,263.457 v 0 c 2.035,0 3.685,-2.118 3.685,-4.731 v -3.227 h -7.371 v 3.227 c 10e-4,2.612 1.651,4.731 3.686,4.731 z"
             id="path89"
             inkscape:connector-curvature="0" /><path
             style="fill:#ff9955;fill-opacity:1"
             d="m 273.413,269.008 v 0 c 2.035,0 3.685,-2.118 3.685,-4.731 v -8.779 h -7.371 v 8.779 c 0.001,2.613 1.651,4.731 3.686,4.731 z"
             id="path91"
             inkscape:connector-curvature="0" /><path
             style="fill:#ff9955;fill-opacity:1"
             d="m 261.804,292.325 v 0 c 2.035,0 3.685,-2.118 3.685,-4.731 v -32.095 h -7.371 v 32.095 c 0.001,2.613 1.651,4.731 3.686,4.731 z"
             id="path93"
             inkscape:connector-curvature="0" /><path
             style="fill:#ff9955;fill-opacity:1"
             d="m 250.196,324.911 v 0 c 2.035,0 3.685,-2.118 3.685,-4.731 v -64.681 h -7.371 v 64.681 c 0,2.613 1.65,4.731 3.686,4.731 z"
             id="path95"
             inkscape:connector-curvature="0" /><path
             style="fill:#ff9955;fill-opacity:1"
             d="m 238.587,308.546 v 0 c 2.035,0 3.685,-2.118 3.685,-4.731 v -48.316 h -7.371 v 48.316 c 10e-4,2.613 1.65,4.731 3.686,4.731 z"
             id="path97"
             inkscape:connector-curvature="0" /><path
             style="fill:#ff9955;fill-opacity:1"
             d="m 226.978,290.984 v 0 c 2.035,0 3.685,-2.118 3.685,-4.731 v -30.754 h -7.371 v 30.754 c 0.001,2.613 1.651,4.731 3.686,4.731 z"
             id="path99"
             inkscape:connector-curvature="0" /><path
             style="fill:#ff9955;fill-opacity:1"
             d="m 215.369,265.098 v 0 c 2.035,0 3.685,-2.118 3.685,-4.731 v -4.868 h -7.371 v 4.868 c 0.001,2.613 1.651,4.731 3.686,4.731 z"
             id="path101"
             inkscape:connector-curvature="0" /><path
             style="fill:#ff9955;fill-opacity:1"
             d="m 203.761,276.974 v 0 c 2.035,0 3.685,-2.118 3.685,-4.731 v -16.744 h -7.371 v 16.744 c 0,2.613 1.65,4.731 3.686,4.731 z"
             id="path103"
             inkscape:connector-curvature="0" /><path
             style="fill:#ff9955;fill-opacity:1"
             d="m 192.152,265.098 v 0 c 2.035,0 3.685,-2.118 3.685,-4.731 v -4.868 h -7.371 v 4.868 c 0,2.613 1.651,4.731 3.686,4.731 z"
             id="path105"
             inkscape:connector-curvature="0" /><path
             style="fill:#ff9955;fill-opacity:1"
             d="m 180.543,276.298 v 0 c 2.035,0 3.685,-2.118 3.685,-4.731 v -16.068 h -7.371 v 16.068 c 0.001,2.613 1.651,4.731 3.686,4.731 z"
             id="path107"
             inkscape:connector-curvature="0" /><path
             style="fill:#ff9955;fill-opacity:1"
             d="m 168.934,288.077 v 0 c 2.035,0 3.685,-2.118 3.685,-4.731 v -27.847 h -7.371 v 27.847 c 0.001,2.613 1.651,4.731 3.686,4.731 z"
             id="path109"
             inkscape:connector-curvature="0" /><path
             style="fill:#ff9955;fill-opacity:1"
             d="m 157.326,327.373 v 0 c 2.035,0 3.685,-2.118 3.685,-4.731 v -67.143 h -7.371 v 67.143 c 0,2.613 1.65,4.731 3.686,4.731 z"
             id="path111"
             inkscape:connector-curvature="0" /><path
             style="fill:#ff9955;fill-opacity:1"
             d="m 145.717,305.649 v 0 c 2.035,0 3.685,-2.118 3.685,-4.731 v -45.419 h -7.371 v 45.419 c 0,2.613 1.65,4.731 3.686,4.731 z"
             id="path113"
             inkscape:connector-curvature="0" /><path
             style="fill:#ff9955;fill-opacity:1"
             d="m 134.108,316.366 v 0 c 2.035,0 3.685,-2.118 3.685,-4.731 v -56.137 h -7.371 v 56.137 c 0.001,2.613 1.651,4.731 3.686,4.731 z"
             id="path115"
             inkscape:connector-curvature="0" /><path
             style="fill:#ff9955;fill-opacity:1"
             d="m 122.499,300.822 v 0 c 2.035,0 3.685,-2.118 3.685,-4.731 v -40.592 h -7.371 v 40.592 c 10e-4,2.612 1.651,4.731 3.686,4.731 z"
             id="path117"
             inkscape:connector-curvature="0" /><path
             style="fill:#ff9955;fill-opacity:1"
             d="m 110.891,269.008 v 0 c 2.035,0 3.685,-2.118 3.685,-4.731 v -8.779 h -7.371 v 8.779 c 0,2.613 1.65,4.731 3.686,4.731 z"
             id="path119"
             inkscape:connector-curvature="0" /><path
             style="fill:#ff9955;fill-opacity:1"
             d="m 99.282,280.256 v 0 c 2.035,0 3.685,-2.118 3.685,-4.731 v -20.027 h -7.371 v 20.027 c 0,2.613 1.65,4.731 3.686,4.731 z"
             id="path121"
             inkscape:connector-curvature="0" /></g></g></g></g><g
     transform="matrix(-1.2326016,0,0,-1.2326016,617.34655,678.41612)"
     id="g1106"><g
       transform="matrix(-1.1720878,-0.67670524,0.67670524,-1.1720878,435.16671,817.45817)"
       id="g984"><path
         style="opacity:1;fill:#aad400;fill-opacity:1;stroke-width:0.97710252"
         d="M 260.93555,125.09375 C 258.36211,125.13125 256,127.24961 256,130.09961 v 32.09961 c 0,2.7 -2.10078,4.9 -4.80078,5 -58.4,2.7 -104.89844,50.90039 -104.89844,109.90039 0,60.8 49.2,110 110,110 -42,0 -76.10156,-34.09961 -76.10156,-76.09961 0,-40.1 31.00039,-73.00039 70.40039,-75.90039 2.9,-0.2 5.40039,2.1 5.40039,5 v 31 c 0,3.8 4.2,6.20078 7.5,4.30078 l 122.09961,-70.5 c 3.3,-1.9 3.3,-6.79961 0,-8.59961 L 263.5,125.80078 c -0.825,-0.5 -1.70664,-0.71953 -2.56445,-0.70703 z"
         id="path980"
         inkscape:connector-curvature="0" /><path
         style="opacity:1;fill:#88aa00;fill-opacity:1;stroke-width:0.97710252"
         d="m 255.69531,199.05078 a 93.961311,93.961311 0 0 0 -0.10937,0.004 h -0.66602 v 0.0234 a 93.961311,93.961311 0 0 0 -93.18554,93.9336 93.961311,93.961311 0 0 0 82.82031,93.18164 C 208.12384,380.53788 180.19922,349.00502 180.19922,311 c 0,-40.1 31.00039,-73.00039 70.40039,-75.90039 2.9,-0.2 5.40039,2.1 5.40039,5 v 31 c 0,3.8 4.2,6.20078 7.5,4.30078 l 122.09961,-70.5 c 2.15081,-1.23834 2.8911,-3.74758 2.23828,-5.8457 H 255.77344 a 93.961311,93.961311 0 0 0 -0.0781,-0.004 z"
         id="path982"
         inkscape:connector-curvature="0" /></g><g
       id="g1104"><g
         style="fill:#ffd42a"
         id="g1102"
         transform="matrix(0.77857672,0,0,0.52513682,56.684749,121.56497)"><g
           style="fill:#ffd42a"
           id="g1042"><path
             inkscape:connector-curvature="0"
             id="path986"
             d="m 412.718,252.526 v 0 c 2.035,0 3.685,2.118 3.685,4.731 v -0.756 h -7.371 v 0.756 c 0.001,-2.613 1.651,-4.731 3.686,-4.731 z"
             style="fill:#88aa00;fill-opacity:1" /><path
             inkscape:connector-curvature="0"
             id="path988"
             d="m 401.109,246.612 v 0 c 2.035,0 3.685,2.118 3.685,4.731 v 5.158 h -7.371 v -5.158 c 10e-4,-2.612 1.651,-4.731 3.686,-4.731 z"
             style="fill:#88aa00;fill-opacity:1" /><path
             inkscape:connector-curvature="0"
             id="path990"
             d="m 389.501,231.164 v 0 c 2.035,0 3.685,2.118 3.685,4.731 v 20.606 h -7.371 v -20.606 c 0,-2.613 1.65,-4.731 3.686,-4.731 z"
             style="fill:#88aa00;fill-opacity:1" /><path
             inkscape:connector-curvature="0"
             id="path992"
             d="m 377.892,239.527 v 0 c 2.035,0 3.685,2.118 3.685,4.731 v 12.243 h -7.371 v -12.243 c 10e-4,-2.613 1.651,-4.731 3.686,-4.731 z"
             style="fill:#88aa00;fill-opacity:1" /><path
             inkscape:connector-curvature="0"
             id="path994"
             d="m 366.283,177.675 v 0 c 2.035,0 3.685,2.118 3.685,4.731 v 74.095 h -7.371 v -74.095 c 0.001,-2.612 1.651,-4.731 3.686,-4.731 z"
             style="fill:#88aa00;fill-opacity:1" /><path
             inkscape:connector-curvature="0"
             id="path996"
             d="m 354.674,162.324 v 0 c 2.035,0 3.685,2.118 3.685,4.731 v 89.446 h -7.371 v -89.446 c 10e-4,-2.613 1.651,-4.731 3.686,-4.731 z"
             style="fill:#88aa00;fill-opacity:1" /><path
             inkscape:connector-curvature="0"
             id="path998"
             d="m 343.066,246.612 v 0 c 2.035,0 3.685,2.118 3.685,4.731 v 5.158 h -7.371 v -5.158 c 0,-2.612 1.65,-4.731 3.686,-4.731 z"
             style="fill:#88aa00;fill-opacity:1" /><path
             inkscape:connector-curvature="0"
             id="path1000"
             d="m 331.457,195.634 v 0 c 2.035,0 3.685,2.118 3.685,4.731 v 56.137 h -7.371 v -56.137 c 10e-4,-2.613 1.651,-4.731 3.686,-4.731 z"
             style="fill:#88aa00;fill-opacity:1" /><path
             inkscape:connector-curvature="0"
             id="path1002"
             d="m 319.848,212.192 v 0 c 2.035,0 3.685,2.118 3.685,4.731 v 39.578 h -7.371 v -39.578 c 0.001,-2.613 1.651,-4.731 3.686,-4.731 z"
             style="fill:#88aa00;fill-opacity:1" /><path
             inkscape:connector-curvature="0"
             id="path1004"
             d="m 308.239,231.164 v 0 c 2.035,0 3.685,2.118 3.685,4.731 v 20.606 h -7.371 v -20.606 c 10e-4,-2.613 1.651,-4.731 3.686,-4.731 z"
             style="fill:#88aa00;fill-opacity:1" /><path
             inkscape:connector-curvature="0"
             id="path1006"
             d="m 296.631,248.543 v 0 c 2.035,0 3.685,2.118 3.685,4.731 v 3.227 h -7.371 v -3.227 c 0,-2.612 1.65,-4.731 3.686,-4.731 z"
             style="fill:#88aa00;fill-opacity:1" /><path
             inkscape:connector-curvature="0"
             id="path1008"
             d="m 285.022,248.543 v 0 c 2.035,0 3.685,2.118 3.685,4.731 v 3.227 h -7.371 v -3.227 c 10e-4,-2.612 1.651,-4.731 3.686,-4.731 z"
             style="fill:#88aa00;fill-opacity:1" /><path
             inkscape:connector-curvature="0"
             id="path1010"
             d="m 273.413,242.992 v 0 c 2.035,0 3.685,2.118 3.685,4.731 v 8.779 h -7.371 v -8.779 c 0.001,-2.613 1.651,-4.731 3.686,-4.731 z"
             style="fill:#88aa00;fill-opacity:1" /><path
             inkscape:connector-curvature="0"
             id="path1012"
             d="m 261.804,219.675 v 0 c 2.035,0 3.685,2.118 3.685,4.731 v 32.095 h -7.371 v -32.095 c 0.001,-2.613 1.651,-4.731 3.686,-4.731 z"
             style="fill:#88aa00;fill-opacity:1" /><path
             inkscape:connector-curvature="0"
             id="path1014"
             d="m 250.196,187.089 v 0 c 2.035,0 3.685,2.118 3.685,4.731 v 64.681 H 246.51 V 191.82 c 0,-2.613 1.65,-4.731 3.686,-4.731 z"
             style="fill:#88aa00;fill-opacity:1" /><path
             inkscape:connector-curvature="0"
             id="path1016"
             d="m 238.587,203.454 v 0 c 2.035,0 3.685,2.118 3.685,4.731 v 48.316 h -7.371 v -48.316 c 10e-4,-2.613 1.651,-4.731 3.686,-4.731 z"
             style="fill:#88aa00;fill-opacity:1" /><path
             inkscape:connector-curvature="0"
             id="path1018"
             d="m 226.978,221.016 v 0 c 2.035,0 3.685,2.118 3.685,4.731 v 30.754 h -7.371 v -30.754 c 0.001,-2.613 1.651,-4.731 3.686,-4.731 z"
             style="fill:#88aa00;fill-opacity:1" /><path
             inkscape:connector-curvature="0"
             id="path1020"
             d="m 215.369,246.902 v 0 c 2.035,0 3.685,2.118 3.685,4.731 v 4.868 h -7.371 v -4.868 c 0.001,-2.613 1.651,-4.731 3.686,-4.731 z"
             style="fill:#88aa00;fill-opacity:1" /><path
             inkscape:connector-curvature="0"
             id="path1022"
             d="m 203.761,235.026 v 0 c 2.035,0 3.685,2.118 3.685,4.731 v 16.744 h -7.371 v -16.744 c 0,-2.613 1.65,-4.731 3.686,-4.731 z"
             style="fill:#88aa00;fill-opacity:1" /><path
             inkscape:connector-curvature="0"
             id="path1024"
             d="m 192.152,246.902 v 0 c 2.035,0 3.685,2.118 3.685,4.731 v 4.868 h -7.371 v -4.868 c 0.001,-2.613 1.651,-4.731 3.686,-4.731 z"
             style="fill:#88aa00;fill-opacity:1" /><path
             inkscape:connector-curvature="0"
             id="path1026"
             d="m 180.543,235.702 v 0 c 2.035,0 3.685,2.118 3.685,4.731 v 16.068 h -7.371 v -16.068 c 0.001,-2.613 1.651,-4.731 3.686,-4.731 z"
             style="fill:#88aa00;fill-opacity:1" /><path
             inkscape:connector-curvature="0"
             id="path1028"
             d="m 168.934,223.923 v 0 c 2.035,0 3.685,2.118 3.685,4.731 v 27.847 h -7.371 v -27.847 c 0.001,-2.613 1.651,-4.731 3.686,-4.731 z"
             style="fill:#88aa00;fill-opacity:1" /><path
             inkscape:connector-curvature="0"
             id="path1030"
             d="m 157.326,184.627 v 0 c 2.035,0 3.685,2.118 3.685,4.731 v 67.143 h -7.371 v -67.143 c 0,-2.613 1.65,-4.731 3.686,-4.731 z"
             style="fill:#88aa00;fill-opacity:1" /><path
             inkscape:connector-curvature="0"
             id="path1032"
             d="m 145.717,206.351 v 0 c 2.035,0 3.685,2.118 3.685,4.731 v 45.419 h -7.371 v -45.419 c 0,-2.613 1.65,-4.731 3.686,-4.731 z"
             style="fill:#88aa00;fill-opacity:1" /><path
             inkscape:connector-curvature="0"
             id="path1034"
             d="m 134.108,195.634 v 0 c 2.035,0 3.685,2.118 3.685,4.731 v 56.137 h -7.371 v -56.137 c 0.001,-2.613 1.651,-4.731 3.686,-4.731 z"
             style="fill:#88aa00;fill-opacity:1" /><path
             inkscape:connector-curvature="0"
             id="path1036"
             d="m 122.499,211.178 v 0 c 2.035,0 3.685,2.118 3.685,4.731 v 40.592 h -7.371 v -40.592 c 10e-4,-2.612 1.651,-4.731 3.686,-4.731 z"
             style="fill:#88aa00;fill-opacity:1" /><path
             inkscape:connector-curvature="0"
             id="path1038"
             d="m 110.891,242.992 v 0 c 2.035,0 3.685,2.118 3.685,4.731 v 8.779 h -7.371 v -8.779 c 0,-2.613 1.65,-4.731 3.686,-4.731 z"
             style="fill:#88aa00;fill-opacity:1" /><path
             inkscape:connector-curvature="0"
             id="path1040"
             d="m 99.282,231.744 v 0 c 2.035,0 3.685,2.118 3.685,4.731 v 20.027 h -7.371 v -20.027 c 0,-2.613 1.65,-4.731 3.686,-4.731 z"
             style="fill:#88aa00;fill-opacity:1" /></g><g
           style="fill:#ffd42a"
           id="g1100"><path
             inkscape:connector-curvature="0"
             id="path1044"
             d="m 412.718,259.474 v 0 c 2.035,0 3.685,-2.118 3.685,-4.731 v 0.756 h -7.371 v -0.756 c 0.001,2.613 1.651,4.731 3.686,4.731 z"
             style="fill:#ff9955;fill-opacity:1" /><path
             inkscape:connector-curvature="0"
             id="path1046"
             d="m 401.109,265.388 v 0 c 2.035,0 3.685,-2.118 3.685,-4.731 v -5.158 h -7.371 v 5.158 c 10e-4,2.613 1.651,4.731 3.686,4.731 z"
             style="fill:#ff9955;fill-opacity:1" /><path
             inkscape:connector-curvature="0"
             id="path1048"
             d="m 389.501,280.836 v 0 c 2.035,0 3.685,-2.118 3.685,-4.731 v -20.606 h -7.371 v 20.606 c 0,2.613 1.65,4.731 3.686,4.731 z"
             style="fill:#ff9955;fill-opacity:1" /><path
             inkscape:connector-curvature="0"
             id="path1050"
             d="m 377.892,272.473 v 0 c 2.035,0 3.685,-2.118 3.685,-4.731 v -12.243 h -7.371 v 12.243 c 10e-4,2.613 1.651,4.731 3.686,4.731 z"
             style="fill:#ff9955;fill-opacity:1" /><path
             inkscape:connector-curvature="0"
             id="path1052"
             d="m 366.283,334.325 v 0 c 2.035,0 3.685,-2.118 3.685,-4.731 v -74.095 h -7.371 v 74.095 c 0.001,2.613 1.651,4.731 3.686,4.731 z"
             style="fill:#ff9955;fill-opacity:1" /><path
             inkscape:connector-curvature="0"
             id="path1054"
             d="m 354.674,349.676 v 0 c 2.035,0 3.685,-2.118 3.685,-4.731 v -89.446 h -7.371 v 89.446 c 10e-4,2.613 1.651,4.731 3.686,4.731 z"
             style="fill:#ff9955;fill-opacity:1" /><path
             inkscape:connector-curvature="0"
             id="path1056"
             d="m 343.066,265.388 v 0 c 2.035,0 3.685,-2.118 3.685,-4.731 v -5.158 h -7.371 v 5.158 c 0,2.613 1.65,4.731 3.686,4.731 z"
             style="fill:#ff9955;fill-opacity:1" /><path
             inkscape:connector-curvature="0"
             id="path1058"
             d="m 331.457,316.366 v 0 c 2.035,0 3.685,-2.118 3.685,-4.731 v -56.137 h -7.371 v 56.137 c 10e-4,2.613 1.651,4.731 3.686,4.731 z"
             style="fill:#ff9955;fill-opacity:1" /><path
             inkscape:connector-curvature="0"
             id="path1060"
             d="m 319.848,299.808 v 0 c 2.035,0 3.685,-2.118 3.685,-4.731 v -39.578 h -7.371 v 39.578 c 0.001,2.613 1.651,4.731 3.686,4.731 z"
             style="fill:#ff9955;fill-opacity:1" /><path
             inkscape:connector-curvature="0"
             id="path1062"
             d="m 308.239,280.836 v 0 c 2.035,0 3.685,-2.118 3.685,-4.731 v -20.606 h -7.371 v 20.606 c 10e-4,2.613 1.651,4.731 3.686,4.731 z"
             style="fill:#ff9955;fill-opacity:1" /><path
             inkscape:connector-curvature="0"
             id="path1064"
             d="m 296.631,263.457 v 0 c 2.035,0 3.685,-2.118 3.685,-4.731 v -3.227 h -7.371 v 3.227 c 0,2.612 1.65,4.731 3.686,4.731 z"
             style="fill:#ff9955;fill-opacity:1" /><path
             inkscape:connector-curvature="0"
             id="path1066"
             d="m 285.022,263.457 v 0 c 2.035,0 3.685,-2.118 3.685,-4.731 v -3.227 h -7.371 v 3.227 c 10e-4,2.612 1.651,4.731 3.686,4.731 z"
             style="fill:#ff9955;fill-opacity:1" /><path
             inkscape:connector-curvature="0"
             id="path1068"
             d="m 273.413,269.008 v 0 c 2.035,0 3.685,-2.118 3.685,-4.731 v -8.779 h -7.371 v 8.779 c 0.001,2.613 1.651,4.731 3.686,4.731 z"
             style="fill:#ff9955;fill-opacity:1" /><path
             inkscape:connector-curvature="0"
             id="path1070"
             d="m 261.804,292.325 v 0 c 2.035,0 3.685,-2.118 3.685,-4.731 v -32.095 h -7.371 v 32.095 c 0.001,2.613 1.651,4.731 3.686,4.731 z"
             style="fill:#ff9955;fill-opacity:1" /><path
             inkscape:connector-curvature="0"
             id="path1072"
             d="m 250.196,324.911 v 0 c 2.035,0 3.685,-2.118 3.685,-4.731 v -64.681 h -7.371 v 64.681 c 0,2.613 1.65,4.731 3.686,4.731 z"
             style="fill:#ff9955;fill-opacity:1" /><path
             inkscape:connector-curvature="0"
             id="path1074"
             d="m 238.587,308.546 v 0 c 2.035,0 3.685,-2.118 3.685,-4.731 v -48.316 h -7.371 v 48.316 c 10e-4,2.613 1.65,4.731 3.686,4.731 z"
             style="fill:#ff9955;fill-opacity:1" /><path
             inkscape:connector-curvature="0"
             id="path1076"
             d="m 226.978,290.984 v 0 c 2.035,0 3.685,-2.118 3.685,-4.731 v -30.754 h -7.371 v 30.754 c 0.001,2.613 1.651,4.731 3.686,4.731 z"
             style="fill:#ff9955;fill-opacity:1" /><path
             inkscape:connector-curvature="0"
             id="path1078"
             d="m 215.369,265.098 v 0 c 2.035,0 3.685,-2.118 3.685,-4.731 v -4.868 h -7.371 v 4.868 c 0.001,2.613 1.651,4.731 3.686,4.731 z"
             style="fill:#ff9955;fill-opacity:1" /><path
             inkscape:connector-curvature="0"
             id="path1080"
             d="m 203.761,276.974 v 0 c 2.035,0 3.685,-2.118 3.685,-4.731 v -16.744 h -7.371 v 16.744 c 0,2.613 1.65,4.731 3.686,4.731 z"
             style="fill:#ff9955;fill-opacity:1" /><path
             inkscape:connector-curvature="0"
             id="path1082"
             d="m 192.152,265.098 v 0 c 2.035,0 3.685,-2.118 3.685,-4.731 v -4.868 h -7.371 v 4.868 c 0,2.613 1.651,4.731 3.686,4.731 z"
             style="fill:#ff9955;fill-opacity:1" /><path
             inkscape:connector-curvature="0"
             id="path1084"
             d="m 180.543,276.298 v 0 c 2.035,0 3.685,-2.118 3.685,-4.731 v -16.068 h -7.371 v 16.068 c 0.001,2.613 1.651,4.731 3.686,4.731 z"
             style="fill:#ff9955;fill-opacity:1" /><path
             inkscape:connector-curvature="0"
             id="path1086"
             d="m 168.934,288.077 v 0 c 2.035,0 3.685,-2.118 3.685,-4.731 v -27.847 h -7.371 v 27.847 c 0.001,2.613 1.651,4.731 3.686,4.731 z"
             style="fill:#ff9955;fill-opacity:1" /><path
             inkscape:connector-curvature="0"
             id="path1088"
             d="m 157.326,327.373 v 0 c 2.035,0 3.685,-2.118 3.685,-4.731 v -67.143 h -7.371 v 67.143 c 0,2.613 1.65,4.731 3.686,4.731 z"
             style="fill:#ff9955;fill-opacity:1" /><path
             inkscape:connector-curvature="0"
             id="path1090"
             d="m 145.717,305.649 v 0 c 2.035,0 3.685,-2.118 3.685,-4.731 v -45.419 h -7.371 v 45.419 c 0,2.613 1.65,4.731 3.686,4.731 z"
             style="fill:#ff9955;fill-opacity:1" /><path
             inkscape:connector-curvature="0"
             id="path1092"
             d="m 134.108,316.366 v 0 c 2.035,0 3.685,-2.118 3.685,-4.731 v -56.137 h -7.371 v 56.137 c 0.001,2.613 1.651,4.731 3.686,4.731 z"
             style="fill:#ff9955;fill-opacity:1" /><path
             inkscape:connector-curvature="0"
             id="path1094"
             d="m 122.499,300.822 v 0 c 2.035,0 3.685,-2.118 3.685,-4.731 v -40.592 h -7.371 v 40.592 c 10e-4,2.612 1.651,4.731 3.686,4.731 z"
             style="fill:#ff9955;fill-opacity:1" /><path
             inkscape:connector-curvature="0"
             id="path1096"
             d="m 110.891,269.008 v 0 c 2.035,0 3.685,-2.118 3.685,-4.731 v -8.779 h -7.371 v 8.779 c 0,2.613 1.65,4.731 3.686,4.731 z"
             style="fill:#ff9955;fill-opacity:1" /><path
             inkscape:connector-curvature="0"
             id="path1098"
             d="m 99.282,280.256 v 0 c 2.035,0 3.685,-2.118 3.685,-4.731 v -20.027 h -7.371 v 20.027 c 0,2.613 1.65,4.731 3.686,4.731 z"
             style="fill:#ff9955;fill-opacity:1" /></g></g></g></g></g></svg>