<?xml version="1.0" encoding="utf-8"?>
<!-- Generator: Adobe Illustrator 18.0.0, SVG Export Plug-In . SVG Version: 6.00 Build 0)  -->
<!DOCTYPE svg PUBLIC "-//W3C//DTD SVG 1.1//EN" "http://www.w3.org/Graphics/SVG/1.1/DTD/svg11.dtd">
<svg version="1.1" id="Layer_1" xmlns="http://www.w3.org/2000/svg" xmlns:xlink="http://www.w3.org/1999/xlink" x="0px" y="0px"
	 viewBox="0 0 512 512" style="enable-background:new 0 0 512 512;" xml:space="preserve">
<g>
	<g id="g21_1_">
		<path style="opacity:0.9;" d="M365.833,420.99c-10.433-9.807-22.189-18.223-34.98-24.937c-4.364,4.175-8.687,8.251-12.915,12.238
			c-8.152,7.685-15.852,14.945-22.761,21.908c-10.439,10.439-24.343,16.175-39.177,16.175s-28.738-5.735-39.151-16.148
			c-5.521-5.479-11.538-11.236-17.908-17.33c-5.429-5.194-11.094-10.616-16.864-16.265c-12.764,6.759-24.512,15.183-34.955,24.981
			c32.049,21.164,69.588,32.532,108.878,32.532C295.679,454.144,333.578,442.559,365.833,420.99z"/>
		<path id="path25_1_" style="opacity:0.9;" d="M256,71.235c-86.712,0-157.076,70.364-157.076,157.076
			c0,86.001,78.538,149.258,124.737,195.101c17.769,17.769,46.91,17.769,64.678,0c45.844-46.199,124.737-104.125,124.737-195.101
			C413.076,141.6,342.712,71.235,256,71.235z M215.842,283.04c-0.355,3.554-3.198,6.397-6.752,6.752
			c-11.727,1.777-38.736,3.909-53.306-10.661c-14.57-14.57-12.438-41.579-10.661-53.306c0.355-3.554,3.198-6.397,6.752-6.752
			c11.727-1.777,38.736-3.909,53.306,10.661C219.752,243.948,217.619,270.957,215.842,283.04z M302.91,289.792
			c-3.554-0.355-6.397-3.198-6.752-6.752c-1.777-11.727-3.909-38.736,10.661-53.306s41.579-12.438,53.306-10.661
			c3.554,0.355,6.397,3.198,6.752,6.752c1.777,11.727,3.909,38.736-10.661,53.306S314.637,291.569,302.91,289.792z"/>
		<path d="M256,57.856c52.926,0,102.685,20.611,140.109,58.035c37.424,37.425,58.035,87.183,58.035,140.109
			s-20.611,102.684-58.035,140.109c-37.425,37.425-87.183,58.035-140.109,58.035s-102.685-20.611-140.109-58.035
			C78.466,358.685,57.856,308.926,57.856,256s20.611-102.685,58.035-140.109C153.316,78.467,203.074,57.856,256,57.856 M256,26
			C128.974,26,26,128.975,26,256c0,127.026,102.974,230,230,230c127.025,0,230-102.974,230-230C486,128.975,383.025,26,256,26
			L256,26z"/>
	</g>
	<g>
		<path style="opacity:0.69;fill:#C10524;" d="M362.674,180.033H149.327c-41.956,0-75.967,34.011-75.967,75.967
			s34.011,75.967,75.967,75.967h213.345c41.956,0,75.967-34.011,75.967-75.967S404.63,180.033,362.674,180.033z"/>
		<g>
			<g>
				<path style="fill:#FFFFFF;" d="M179.665,239.207c-1.852-3.209-5.957-4.309-9.166-2.455l-46.554,26.878
					c-3.209,1.852-4.309,5.957-2.455,9.166c1.852,3.209,5.957,4.309,9.166,2.455l46.554-26.878
					C180.418,246.519,181.519,242.415,179.665,239.207z"/>
				<path style="fill:#FFFFFF;" d="M177.21,263.629l-46.554-26.878c-3.209-1.852-7.312-0.753-9.166,2.455
					c-1.852,3.209-0.753,7.312,2.455,9.166l46.554,26.878c3.209,1.852,7.312,0.753,9.166-2.455
					C181.519,269.585,180.418,265.481,177.21,263.629z"/>
				<path style="fill:#FFFFFF;" d="M150.578,222.412c-3.706,0-6.71,3.004-6.71,6.71v53.756c0,3.706,3.004,6.71,6.71,6.71
					c3.706,0,6.71-3.004,6.71-6.71v-53.756C157.288,225.416,154.284,222.412,150.578,222.412z"/>
			</g>
			<g>
				<path style="fill:#FFFFFF;" d="M249.948,239.207c-1.852-3.209-5.957-4.309-9.166-2.455l-46.554,26.878
					c-3.209,1.852-4.309,5.957-2.455,9.166c1.852,3.209,5.957,4.309,9.166,2.455l46.554-26.878
					C250.701,246.519,251.8,242.415,249.948,239.207z"/>
				<path style="fill:#FFFFFF;" d="M247.491,263.629l-46.554-26.878c-3.209-1.852-7.312-0.753-9.166,2.455
					c-1.852,3.209-0.753,7.312,2.455,9.166l46.554,26.878c3.209,1.852,7.312,0.753,9.166-2.455
					C251.8,269.585,250.701,265.481,247.491,263.629z"/>
				<path style="fill:#FFFFFF;" d="M220.859,222.412c-3.706,0-6.71,3.004-6.71,6.71v53.756c0,3.706,3.004,6.71,6.71,6.71
					s6.71-3.004,6.71-6.71v-53.756C227.569,225.416,224.565,222.412,220.859,222.412z"/>
			</g>
			<g>
				<path style="fill:#FFFFFF;" d="M320.229,239.207c-1.852-3.209-5.957-4.309-9.166-2.455l-46.554,26.878
					c-3.209,1.852-4.309,5.957-2.455,9.166c1.852,3.209,5.957,4.309,9.166,2.455l46.554-26.878
					C320.982,246.519,322.082,242.415,320.229,239.207z"/>
				<path style="fill:#FFFFFF;" d="M317.774,263.629L271.22,236.75c-3.209-1.852-7.312-0.753-9.166,2.455
					c-1.852,3.209-0.753,7.312,2.455,9.166l46.554,26.878c3.209,1.852,7.312,0.753,9.166-2.455
					C322.082,269.585,320.982,265.481,317.774,263.629z"/>
				<path style="fill:#FFFFFF;" d="M291.141,222.412c-3.706,0-6.71,3.004-6.71,6.71v53.756c0,3.706,3.004,6.71,6.71,6.71
					c3.706,0,6.71-3.004,6.71-6.71v-53.756C297.851,225.416,294.847,222.412,291.141,222.412z"/>
			</g>
			<g>
				<path style="fill:#FFFFFF;" d="M390.511,239.207c-1.852-3.209-5.957-4.309-9.166-2.455l-46.554,26.878
					c-3.209,1.852-4.309,5.957-2.455,9.166c1.852,3.209,5.957,4.309,9.166,2.455l46.554-26.878
					C391.265,246.519,392.363,242.415,390.511,239.207z"/>
				<path style="fill:#FFFFFF;" d="M388.055,263.629L341.5,236.75c-3.209-1.852-7.312-0.753-9.166,2.455
					c-1.852,3.209-0.753,7.312,2.455,9.166l46.554,26.878c3.209,1.852,7.312,0.753,9.166-2.455
					C392.363,269.585,391.265,265.481,388.055,263.629z"/>
				<path style="fill:#FFFFFF;" d="M361.423,222.412c-3.706,0-6.71,3.004-6.71,6.71v53.756c0,3.706,3.004,6.71,6.71,6.71
					c3.706,0,6.71-3.004,6.71-6.71v-53.756C368.132,225.416,365.128,222.412,361.423,222.412z"/>
			</g>
		</g>
	</g>
</g>
</svg>
