<?xml version="1.0" encoding="utf-8"?>
<!-- Generator: Adobe Illustrator 18.0.0, SVG Export Plug-In . SVG Version: 6.00 Build 0)  -->
<!DOCTYPE svg PUBLIC "-//W3C//DTD SVG 1.1//EN" "http://www.w3.org/Graphics/SVG/1.1/DTD/svg11.dtd">
<svg version="1.1" id="Layer_1" xmlns="http://www.w3.org/2000/svg" xmlns:xlink="http://www.w3.org/1999/xlink" x="0px" y="0px"
	 viewBox="0 0 512 512" style="enable-background:new 0 0 512 512;" xml:space="preserve">
<g>
	<path style="fill:#FFF6CC;" d="M426.2,58.9c0-5.5,4.4-9.9,9.8-10V36c-5.4-0.1-9.8-4.5-9.8-10h-12.8c0,5.5-4.5,10-10,10
		c-5.5,0-10-4.5-10-10h-12.8c0,5.5-4.5,10-10,10c-5.5,0-10-4.5-10-10h-12.8c0,5.5-4.5,10-10,10c-5.5,0-10-4.5-10-10h-12.8
		c0,5.5-4.5,10-10,10c-5.5,0-10-4.5-10-10h-12.8c0,5.5-4.5,10-10,10s-10-4.5-10-10h-12.8c0,5.5-4.5,10-10,10s-10-4.5-10-10h-12.8
		c0,5.5-4.5,10-10,10c-5.5,0-10-4.5-10-10h-12.8c0,5.5-4.5,10-10,10c-5.5,0-10-4.5-10-10h-12.8c0,5.5-4.5,10-10,10
		c-5.5,0-10-4.5-10-10h-12.8c0,5.5-4.5,10-10,10c-5.5,0-10-4.5-10-10H85.8c0,5.5-4.4,9.9-9.8,10v12.9c5.4,0.1,9.8,4.5,9.8,10
		c0,5.5-4.4,9.9-9.8,10v12.9c5.4,0.1,9.8,4.5,9.8,10s-4.4,9.9-9.8,10v12.9c5.4,0.1,9.8,4.5,9.8,10c0,5.5-4.4,9.9-9.8,10v12.9
		c5.4,0.1,9.8,4.5,9.8,10c0,5.5-4.4,9.9-9.8,10v12.9c5.4,0.1,9.8,4.5,9.8,10s-4.4,9.9-9.8,10v12.9c5.4,0.1,9.8,4.5,9.8,10
		c0,5.5-4.4,9.9-9.8,10V246c5.4,0.1,9.8,4.5,9.8,10s-4.4,9.9-9.8,10v12.9c5.4,0.1,9.8,4.5,9.8,10c0,5.5-4.4,9.9-9.8,10v12.9
		c5.4,0.1,9.8,4.5,9.8,10s-4.4,9.9-9.8,10v12.9c5.4,0.1,9.8,4.5,9.8,10c0,5.5-4.4,9.9-9.8,10v12.9c5.4,0.1,9.8,4.5,9.8,10
		c0,5.5-4.4,9.9-9.8,10v12.9c5.4,0.1,9.8,4.5,9.8,10s-4.4,9.9-9.8,10v12.9c5.4,0.1,9.8,4.5,9.8,10c0,5.5-4.4,9.9-9.8,10V476
		c5.4,0.1,9.8,4.5,9.8,10h12.8c0-5.5,4.5-10,10-10c5.5,0,10,4.5,10,10h12.8c0-5.5,4.5-10,10-10c5.5,0,10,4.5,10,10h12.8
		c0-5.5,4.5-10,10-10c5.5,0,10,4.5,10,10h12.8c0-5.5,4.5-10,10-10c5.5,0,10,4.5,10,10h12.8c0-5.5,4.5-10,10-10s10,4.5,10,10h12.8
		c0-5.5,4.5-10,10-10s10,4.5,10,10h12.8c0-5.5,4.5-10,10-10c5.5,0,10,4.5,10,10h12.8c0-5.5,4.5-10,10-10c5.5,0,10,4.5,10,10h12.8
		c0-5.5,4.5-10,10-10c5.5,0,10,4.5,10,10h12.8c0-5.5,4.5-10,10-10c5.5,0,10,4.5,10,10h12.8c0-5.5,4.4-9.9,9.8-10v-12.9
		c-5.4-0.1-9.8-4.5-9.8-10c0-5.5,4.4-9.9,9.8-10v-12.9c-5.4-0.1-9.8-4.5-9.8-10s4.4-9.9,9.8-10v-12.9c-5.4-0.1-9.8-4.5-9.8-10
		c0-5.5,4.4-9.9,9.8-10v-12.9c-5.4-0.1-9.8-4.5-9.8-10c0-5.5,4.4-9.9,9.8-10v-12.9c-5.4-0.1-9.8-4.5-9.8-10c0-5.5,4.4-9.9,9.8-10
		v-12.9c-5.4-0.1-9.8-4.5-9.8-10c0-5.5,4.4-9.9,9.8-10V266c-5.4-0.1-9.8-4.5-9.8-10s4.4-9.9,9.8-10v-12.9c-5.4-0.1-9.8-4.5-9.8-10
		c0-5.5,4.4-9.9,9.8-10v-12.9c-5.4-0.1-9.8-4.5-9.8-10s4.4-9.9,9.8-10v-12.9c-5.4-0.1-9.8-4.5-9.8-10c0-5.5,4.4-9.9,9.8-10v-12.9
		c-5.4-0.1-9.8-4.5-9.8-10c0-5.5,4.4-9.9,9.8-10v-12.9c-5.4-0.1-9.8-4.5-9.8-10s4.4-9.9,9.8-10V68.8
		C430.6,68.8,426.2,64.3,426.2,58.9z"/>
	<g>
		<g>
			<rect x="106" y="356" style="fill:#FFDF40;" width="300" height="100"/>
			<rect x="106" y="256" style="fill:#FAA680;" width="300" height="100"/>
			<rect x="106" y="156" style="fill:#F56CBF;" width="300" height="100"/>
			<rect x="106" y="56" style="fill:#F033FF;" width="300" height="100"/>
		</g>
		<g style="opacity:0.5;">
			<rect x="106" y="56" style="fill:#FFFBAE;" width="100" height="400"/>
			<rect x="206" y="56" style="fill:#B9B7D7;" width="100" height="400"/>
			<rect x="306" y="56" style="fill:#7373FF;" width="100" height="400"/>
		</g>
	</g>
</g>
</svg>
