<?xml version="1.0" encoding="utf-8"?>
<!-- Generator: Adobe Illustrator 18.0.0, SVG Export Plug-In . SVG Version: 6.00 Build 0)  -->
<!DOCTYPE svg PUBLIC "-//W3C//DTD SVG 1.1//EN" "http://www.w3.org/Graphics/SVG/1.1/DTD/svg11.dtd">
<svg version="1.1" id="Layer_3" xmlns="http://www.w3.org/2000/svg" xmlns:xlink="http://www.w3.org/1999/xlink" x="0px" y="0px"
	 viewBox="0 0 512 512" style="enable-background:new 0 0 512 512;" xml:space="preserve">
<circle style="fill:#2D2D2D;" cx="256" cy="256" r="230"/>
<g>
	<g>
		<path style="opacity:0.25;fill:#FFFFFF;" d="M314.369,165.934c-49.48,0-89.667,39.905-90.117,89.282l-56.148,80.464
			c-2.288-0.238-4.613-0.37-6.962-0.37c-12.544,0-24.269,3.449-34.339,9.466L31.57,306.474c9.24,41.262,29.557,78.337,57.68,107.932
			l6.184,2.483c0.372,1.71,0.818,3.392,1.318,5.052c20.957,20.117,45.719,36.295,73.096,47.363
			c30.817-4.013,55.162-29.008,58.209-60.119l86.313-63.11c49.75,0,90.117-40.29,90.117-90.025
			C404.485,206.288,364.121,165.934,314.369,165.934z M161.143,452.063c-19.074,0-35.544-10.635-43.805-26.358
			c8.135,3.282,16.284,6.531,24.408,9.839c20.163,8.102,43.126-1.642,51.231-21.809c8.105-20.163-1.738-43.036-21.904-51.137
			l-20.604-8.261c3.434-0.749,7.009-1.207,10.673-1.207c27.422,0,49.467,22.045,49.467,49.467S188.565,452.063,161.143,452.063z
			 M314.369,316.377c-33.335,0-60.419-26.992-60.419-60.325c0-33.335,27.086-60.419,60.419-60.419s60.419,27.084,60.419,60.419
			S347.704,316.377,314.369,316.377z"/>
		<path style="opacity:0.25;fill:#FFFFFF;" d="M314.611,207.513c-26.639,0-48.26,21.621-48.26,48.26s21.621,48.26,48.26,48.26
			s48.26-21.621,48.26-48.26S341.249,207.513,314.611,207.513z"/>
	</g>
	<g>
		<path style="fill:#FFFFFF;" d="M314.856,317.257H197.144c-33.777,0-61.258-27.48-61.258-61.257s27.48-61.257,61.258-61.257
			h117.713c16.363,0,31.745,6.372,43.316,17.942c11.57,11.57,17.942,26.953,17.941,43.316
			C376.114,289.777,348.634,317.257,314.856,317.257z M197.172,312.157l117.74,0.001c30.941-0.031,56.102-25.211,56.102-56.158
			c0-15-5.841-29.103-16.447-39.71c-10.607-10.607-24.71-16.448-39.71-16.448H197.096c-30.943,0.028-56.11,25.21-56.11,56.158
			c0,30.947,25.16,56.127,56.1,56.158L197.172,312.157z"/>
		<circle style="fill:#FFFFFF;" cx="314.857" cy="256" r="44.726"/>
	</g>
</g>
</svg>
