<?xml version="1.0" encoding="UTF-8" standalone="no"?>
<!DOCTYPE svg PUBLIC "-//W3C//DTD SVG 1.1//EN" "http://www.w3.org/Graphics/SVG/1.1/DTD/svg11.dtd">
<svg width="100%" height="100%" viewBox="0 0 512 512" version="1.1" xmlns="http://www.w3.org/2000/svg" xmlns:xlink="http://www.w3.org/1999/xlink" xml:space="preserve" xmlns:serif="http://www.serif.com/" style="fill-rule:evenodd;clip-rule:evenodd;stroke-linejoin:round;stroke-miterlimit:1.41421;">
    <g>
        <g id="g928" transform="matrix(0.986517,0,0,0.986517,376.851,327.941)">
            <path id="rect910" d="M58.3,-249.1C58.3,-275 37.3,-296 11.4,-296L-256.3,-296C-282.2,-296 -303.2,-275 -303.2,-249.1L-303.2,103.3C-303.2,129.2 -282.2,150.2 -256.3,150.2L11.4,150.2C37.3,150.2 58.3,129.2 58.3,103.3L58.3,-249.1Z" style="fill:rgb(26,26,26);fill-rule:nonzero;"/>
            <path id="rect914" d="M-257,-306.1C-288,-306.1 -313.3,-280.8 -313.3,-249.8L-313.3,103.9C-313.3,134.9 -288,160.2 -257,160.2L12,160.2C43,160.2 68.3,134.9 68.3,103.9L68.3,-249.8C68.3,-280.8 43,-306.1 12,-306.1L-257,-306.1ZM-257,-286.1L12,-286.1C32.2,-286.1 48.3,-270.1 48.3,-249.8L48.3,103.9C48.3,124.1 32.3,140.2 12,140.2L-257,140.2C-277.2,140.2 -293.3,124.2 -293.3,103.9L-293.3,-249.8C-293.3,-270 -277.2,-286.1 -257,-286.1Z" style="fill:rgb(255,102,0);fill-rule:nonzero;"/>
        </g>
        <g id="g94">
            <g id="g12">
                <path id="rect4" d="M260,289.2C260,282.2 254.3,276.5 247.3,276.5L127.4,276.5C120.4,276.5 114.7,282.2 114.7,289.2C114.7,296.2 120.4,301.9 127.4,301.9L247.3,301.9C254.3,301.8 260,296.2 260,289.2Z" style="fill:rgb(255,102,0);fill-rule:nonzero;"/>
                <path id="rect6" d="M405.2,338.4C405.2,331.4 399.5,325.7 392.5,325.7L127.4,325.7C120.4,325.7 114.7,331.4 114.7,338.4C114.7,345.4 120.4,351.1 127.4,351.1L392.5,351.1C399.6,351.1 405.2,345.4 405.2,338.4Z" style="fill:rgb(255,102,0);fill-rule:nonzero;"/>
                <path id="rect8" d="M405.2,386.2C405.2,379.2 399.5,373.5 392.5,373.5L127.4,373.5C120.4,373.5 114.7,379.2 114.7,386.2C114.7,393.2 120.4,398.9 127.4,398.9L392.5,398.9C399.6,398.9 405.2,393.2 405.2,386.2Z" style="fill:rgb(255,102,0);fill-rule:nonzero;"/>
                <path id="rect10" d="M405.1,434.2C405.1,427.2 399.4,421.5 392.4,421.5L272.7,421.5C265.7,421.5 260,427.2 260,434.2C260,441.2 265.7,446.9 272.7,446.9L392.5,446.9C399.4,446.8 405.1,441.2 405.1,434.2Z" style="fill:rgb(255,102,0);fill-rule:nonzero;"/>
            </g>
            <g id="g92">
                <g id="g82">
                    <path id="polygon76" d="M260,374.3L283.9,332.9L260,346.5L260,374.3Z" style="fill:rgb(214,214,214);fill-rule:nonzero;"/>
                    <path id="path78" d="M260,129.7L260,346.5L283.9,332.9L283.9,135.7C283.9,132.4 281.3,129.7 277.9,129.7L260,129.7Z" style="fill:rgb(196,131,77);fill-rule:nonzero;"/>
                    <path id="polygon80" d="M236.1,332.9L260,374.3L260,346.6L236.1,332.9Z" style="fill:white;fill-rule:nonzero;"/>
                </g>
                <g id="g90">
                    <path id="polygon84" d="M236.1,332.9L260,346.5L260,147.5L236.1,147.5L236.1,332.9Z" style="fill:rgb(255,224,0);fill-rule:nonzero;"/>
                    <path id="path86" d="M277.9,129.7L260,129.7L260,147.5L283.9,147.5L283.9,135.7C283.9,132.3 281.3,129.7 277.9,129.7Z" style="fill:rgb(173,173,173);fill-rule:nonzero;"/>
                    <path id="path88" d="M236.1,135.7L236.1,147.5L260,147.5L260,129.7L242.1,129.7C238.7,129.7 236.1,132.3 236.1,135.7Z" style="fill:white;fill-rule:nonzero;"/>
                </g>
            </g>
        </g>
    </g>
</svg>
