<?xml version="1.0" encoding="utf-8"?>
<!-- Generator: Adobe Illustrator 18.0.0, SVG Export Plug-In . SVG Version: 6.00 Build 0)  -->
<!DOCTYPE svg PUBLIC "-//W3C//DTD SVG 1.1//EN" "http://www.w3.org/Graphics/SVG/1.1/DTD/svg11.dtd">
<svg version="1.1" id="Layer_1" xmlns="http://www.w3.org/2000/svg" xmlns:xlink="http://www.w3.org/1999/xlink" x="0px" y="0px"
	 viewBox="0 0 512 512" style="enable-background:new 0 0 512 512;" xml:space="preserve">
<g>
	<linearGradient id="SVGID_1_" gradientUnits="userSpaceOnUse" x1="256" y1="485" x2="256" y2="25">
		<stop  offset="0" style="stop-color:#0054D4"/>
		<stop  offset="1" style="stop-color:#2AEAFF"/>
	</linearGradient>
	<path style="fill:url(#SVGID_1_);" d="M446,485H66c-22.1,0-40-17.9-40-40V65c0-22.1,17.9-40,40-40h380c22.1,0,40,17.9,40,40v380
		C486,467.1,468.1,485,446,485z"/>
	<linearGradient id="SVGID_2_" gradientUnits="userSpaceOnUse" x1="256" y1="485" x2="256" y2="85">
		<stop  offset="0" style="stop-color:#0054D4"/>
		<stop  offset="1" style="stop-color:#2AEAFF"/>
	</linearGradient>
	<path style="fill:url(#SVGID_2_);" d="M446,125H66c-22.1,0-40-17.9-40-40v360c0,22.1,17.9,40,40,40h380c22.1,0,40-17.9,40-40V85
		C486,107.1,468.1,125,446,125z"/>
	<path style="opacity:0.3;fill:#1A5CFF;enable-background:new    ;" d="M446,125H66c-22.1,0-40-17.9-40-40v48c0,22.1,17.9,40,40,40
		h380c22.1,0,40-17.9,40-40V85C486,107.1,468.1,125,446,125z"/>
	<path style="fill:#A1E7FF;" d="M446,40c13.8,0,25,11.2,25,25v20c0,13.8-11.2,25-25,25H66c-13.8,0-25-11.2-25-25V65
		c0-13.8,11.2-25,25-25H446 M446,25H66c-22.1,0-40,17.9-40,40v20c0,22.1,17.9,40,40,40h380c22.1,0,40-17.9,40-40V65
		C486,42.9,468.1,25,446,25L446,25z"/>
</g>
<path style="opacity:0.8;fill:#FFFFFF;enable-background:new    ;" d="M256,192.6c-63.8,0-115.4,51.7-115.4,115.4
	S192.2,423.5,256,423.5S371.5,371.8,371.5,308S319.8,192.6,256,192.6z M249.7,231.6c1.7,0.7,3.1,1.9,4.4,3.3
	c3.4,3.6,6.1,7.7,8.7,11.8c7.9,12.6,14.8,25.5,21.9,38.6c1.9,3.6,3.8,7.2,5.7,10.7c1.7,3.2,3.2,6.4,4.9,9.5c0.4,0.8,0.4,1.2-0.4,1.7
	c-2.7,1.4-5.4,3.1-8,4.6c-1.5,0.9-1.5,0.9-2.5-0.6c-5.4-8.2-10.2-16.8-14.8-25.4c-0.6-1-1-2.1-1.7-2.9c0.1-0.1,0.1-0.1,0-0.2
	s-0.2-0.2-0.2-0.4c0.1,0,0.1-0.1,0-0.1c-0.1-0.1-0.2-0.2-0.2-0.4c0.1-0.1,0.1-0.1,0-0.2s-0.2-0.2-0.2-0.4c0-0.1-0.1-0.3-0.1-0.4
	c-0.1-0.1-0.1-0.2-0.2-0.2c-0.9-1.9-1.9-3.8-2.9-5.7c-0.1-0.1-0.1-0.2-0.1-0.3c-0.1-0.1-0.1-0.2-0.2-0.2c0-0.1-0.1-0.2-0.1-0.3
	c-0.1-0.1-0.1-0.2-0.2-0.2c0-0.1-0.1-0.2-0.1-0.2c-0.1-0.1-0.1-0.2-0.2-0.2c0-0.1-0.1-0.2-0.1-0.2c-0.1-0.1-0.1-0.2-0.2-0.2
	c-4.2-8.8-8.3-17.6-12.2-26.5c-1.6-3.7-3-7.5-3.5-11.6c0-0.4-0.1-0.9-0.1-1.3C247.2,231.6,248.2,230.9,249.7,231.6z M240.8,259.5
	c1.4-2.2,3.2-3.8,6.2-3.9c3.7,0.4,6.7,2.4,8.6,5.8c0.9,1.7,0.4,3.6-0.2,5.2c-0.9,2.7-1,2.7-3.4,1.1c-3.7-2.4-7.4-4.8-11.1-7.2
	C240.5,260.3,240.3,260.2,240.8,259.5z M231.4,274.8c2.6-4.1,5.1-8.2,7.7-12.3c0.3-0.5,0.6-0.5,1-0.2c4.4,2.9,8.7,5.8,13.1,8.7
	c0.1,0.1,0.4,0.2,0.4,0.5c-0.1,0.1-0.2,0.2-0.3,0.4c-2.6,4.1-5,8.2-7.5,12.4c-0.5,0.8-0.8,0.2-1.2,0c-3.9-2.6-7.7-5.1-11.6-7.7
	c-0.4-0.2-0.7-0.6-1.2-0.7C231.1,275.6,231,275.3,231.4,274.8z M187.4,321.5c0-7.7-0.1-15.3-0.1-23c0-0.6-0.1-1.2-0.1-1.8
	c0.2-0.7,0.9-0.4,1.3-0.4c5.7,0,11.4,0.1,17.1,0.1c2.4,0.1,4.8,0.1,7.2,0.1c0.4,0,0.9-0.2,1.2,0.2c-2.8,4.7-5.7,9.5-8.5,14.2
	c-2.2,3.7-4.4,7.3-6.5,11c-0.4,0.7-1,1.1-1.9,1.1c-2.8-0.1-5.6-0.1-8.3,0C187.6,323,187.4,322.5,187.4,321.5z M190.6,360.4
	c-0.1-0.1-0.2-0.1-0.2-0.1c1.8-8.3,3.7-16.6,5.5-25.1c4.7,3.2,9.1,6.3,13.7,9.5C203.3,349.9,196.9,355.2,190.6,360.4z M210.8,340.9
	c-4.2-2.9-8.5-5.9-12.8-8.7c-0.5-0.4-0.2-0.6-0.1-0.8c0.7-1.2,1.4-2.4,2.1-3.7c5.3-9,10.6-17.9,15.9-26.9c0.4-0.7,0.9-1.6,1.3-2.3
	c3.1-5,6.1-10.2,9.1-15.2c1.1-1.7,2.1-3.4,3.1-5.2c0.4-0.6,0.6-0.7,1.2-0.3c4.4,2.9,8.8,5.7,13.1,8.5c0.4,0.2,0.7,0.5,0.4,1.1
	c-3.5,5.8-7,11.5-10.5,17.3c-7.2,11.9-14.4,23.8-21.6,35.7C211.7,340.9,211.6,341.5,210.8,340.9z M285.4,322.7
	c-18.9,0-37.8,0.1-56.8,0.1c-0.2,0-0.4,0-0.6,0c-0.9,0.1-0.9-0.2-0.5-0.9c2.1-3.5,4.2-6.9,6.3-10.3c2.7-4.4,5.4-8.8,8.1-13.3
	c0.3-0.6,0.7-1.2,1-1.7c0.4-0.3,0.9-0.2,1.4-0.2c8.7-0.1,17.4-0.1,26.2-0.1c0.5,0,1-0.1,1.4,0.2c3.8,6.4,7.5,12.6,11.3,19
	c1.4,2.4,2.9,4.7,4.4,7.3C286.6,322.7,286,322.7,285.4,322.7z M295.5,329.6c-2.8-4.7-5.7-9.3-8.5-14c-0.3-0.5-0.6-0.9,0.2-1.3
	c3.1-1.7,6-3.6,9.1-5.3c0.1-0.1,0.2-0.1,0.3-0.2c0.4-0.1,0.5,0.2,0.6,0.5c2.5,4.9,4.9,9.8,7.4,14.8c0.3,0.6,0.1,0.8-0.3,1.1
	c-2.6,1.6-5.1,3.1-7.7,4.7C296.1,330.3,295.8,330.2,295.5,329.6z M322.6,357.4c-1.6,3.1-4.8,5-8.7,5c-1.7,0.1-3.4-1-4.6-2.7
	c-2.7-3.8-4.6-8-6.4-12.3c-1.9-4.6-3.4-9.3-5-14c-0.1-0.4-0.1-0.5,0.3-0.7c2.3-1.4,4.7-2.7,7-4.1c0.9-0.5,1.3-0.5,2,0.3
	c4.2,5.2,8,10.7,11.3,16.4c1.3,2.2,2.6,4.5,3.9,6.8C323.4,353.8,323.4,355.5,322.6,357.4z M323.4,322.8c-5-0.1-10-0.1-15,0
	c-0.7,0-1.1-0.2-1.4-0.9c-3.7-7.7-7.5-15.4-11.2-23.1c-0.3-0.7-0.6-1.4-0.9-2.1c0.2-0.4,0.7-0.3,1.1-0.3c9.4-0.1,18.9-0.1,28.3-0.1
	c0.2,0,0.4,0,0.6,0.2c0,8.2,0,16.5,0.1,24.8C324.8,322.4,324.6,322.8,323.4,322.8z"/>
<g style="opacity:0.2;">
	<path style="fill:#FFFFFF;" d="M29.5,101.3l-3.5,3.5V119l8.9-8.9C32.7,107.4,30.9,104.5,29.5,101.3z"/>
	<path style="fill:#FFFFFF;" d="M44.7,118.8L26,137.5v14.1l28.4-28.4C50.9,122.2,47.7,120.7,44.7,118.8z"/>
	<polygon style="fill:#FFFFFF;" points="71.2,125 26,170.2 26,184.4 85.4,125 	"/>
	<polygon style="fill:#FFFFFF;" points="103.9,125 26,202.9 26,217.1 118.1,125 	"/>
	<polygon style="fill:#FFFFFF;" points="136.6,125 26,235.6 26,249.8 150.8,125 	"/>
	<polygon style="fill:#FFFFFF;" points="169.3,125 26,268.3 26,282.5 183.5,125 	"/>
	<polygon style="fill:#FFFFFF;" points="202,125 26,301 26,315.2 216.2,125 	"/>
	<polygon style="fill:#FFFFFF;" points="234.7,125 26,333.7 26,347.9 248.9,125 	"/>
	<polygon style="fill:#FFFFFF;" points="267.4,125 26,366.4 26,380.6 281.6,125 	"/>
	<polygon style="fill:#FFFFFF;" points="300.1,125 26,399.1 26,413.3 314.3,125 	"/>
	<path style="fill:#FFFFFF;" d="M332.8,125L26,431.8V445c0,0.3,0,0.6,0,0.9L347,125H332.8z"/>
	<path style="fill:#FFFFFF;" d="M365.5,125L29.4,461.1c1.4,3.2,3.2,6.1,5.3,8.8l345-344.9H365.5z"/>
	<path style="fill:#FFFFFF;" d="M398.2,125L44.5,478.7c3,1.9,6.2,3.4,9.6,4.5L412.4,125H398.2z"/>
	<polygon style="fill:#FFFFFF;" points="430.9,125 70.9,485 85.1,485 445.1,125 	"/>
	<polygon style="fill:#FFFFFF;" points="486,102.6 103.6,485 117.8,485 486,116.8 	"/>
	<polygon style="fill:#FFFFFF;" points="486,135.3 136.3,485 150.5,485 486,149.5 	"/>
	<polygon style="fill:#FFFFFF;" points="486,168 169,485 183.2,485 486,182.2 	"/>
	<polygon style="fill:#FFFFFF;" points="486,200.7 201.7,485 215.9,485 486,214.9 	"/>
	<polygon style="fill:#FFFFFF;" points="486,233.4 234.4,485 248.6,485 486,247.6 	"/>
	<polygon style="fill:#FFFFFF;" points="486,266.1 267.1,485 281.3,485 486,280.3 	"/>
	<polygon style="fill:#FFFFFF;" points="486,298.8 299.8,485 314,485 486,313 	"/>
	<polygon style="fill:#FFFFFF;" points="486,331.5 332.5,485 346.7,485 486,345.7 	"/>
	<polygon style="fill:#FFFFFF;" points="486,364.2 365.2,485 379.4,485 486,378.4 	"/>
	<polygon style="fill:#FFFFFF;" points="486,396.9 397.9,485 412.1,485 486,411.1 	"/>
	<polygon style="fill:#FFFFFF;" points="486,443.8 486,429.6 430.6,485 444.8,485 	"/>
</g>
<g>
	<g>
		<circle style="fill:#231F20;" cx="152.5" cy="210" r="22"/>
		<path style="fill:#FFFFFF;" d="M152.5,193c9.4,0,17,7.6,17,17s-7.6,17-17,17s-17-7.6-17-17S143.1,193,152.5,193 M152.5,188
			c-12.2,0-22,9.8-22,22s9.8,22,22,22s22-9.8,22-22C174.5,197.9,164.7,188,152.5,188L152.5,188z"/>
	</g>
	<g>
		<circle style="fill:#231F20;" cx="359.5" cy="210" r="22"/>
		<path style="fill:#FFFFFF;" d="M359.5,193c9.4,0,17,7.6,17,17s-7.6,17-17,17s-17-7.6-17-17S350.1,193,359.5,193 M359.5,188
			c-12.2,0-22,9.8-22,22s9.8,22,22,22s22-9.8,22-22S371.7,188,359.5,188L359.5,188z"/>
	</g>
	<path style="opacity:0.4;enable-background:new    ;" d="M372.4,217.4c0-7-5.5-12.7-12.3-12.7s-12.3,5.7-12.3,12.7
		c0,36.1-2,81.5-17.7,111.2c-6.4,12.3-14.8,21.2-25.5,27.3c-12.4,7-28.8,10.6-48.6,10.6c-20.8,0-37.7-3.6-50.4-10.6
		c-10.7-6-18.9-14.8-25.1-26.9c-6.1-12.1-10.4-27.5-13-47.1c-2.2-16.8-3.3-37-3.3-63.5c0-0.3,0-0.6,0-0.9c0-7-5.5-12.7-12.3-12.7
		s-12.3,5.7-12.3,12.7c0.1,96.2,12.4,174.4,116.4,174.4c99.7,0,116.2-77.6,116.3-173.4C372.3,218.1,372.4,217.8,372.4,217.4z"/>
	<path style="fill:#FFF6EE;" d="M372.4,217c0-6.8-5.5-12.3-12.3-12.3s-12.3,5.5-12.3,12.3c0,35-2,78.9-17.7,107.7
		c-6.4,11.9-14.8,20.5-25.5,26.4c-12.4,6.8-28.8,10.3-48.6,10.3c-20.8,0-37.7-3.5-50.4-10.3c-10.7-5.8-18.9-14.3-25.1-26
		c-6.1-11.7-10.4-26.6-13-45.6c-2.2-16.3-3.3-35.8-3.3-61.5c0-0.3,0-0.6,0-0.9c0-6.8-5.5-12.3-12.3-12.3s-12.3,5.5-12.3,12.3
		C139.7,310.3,152,386,256,386c99.7,0,116.2-75.1,116.3-167.9C372.3,217.7,372.4,217.4,372.4,217z"/>
</g>
</svg>
