<?xml version="1.0" encoding="utf-8"?>
<!-- Generator: Adobe Illustrator 18.0.0, SVG Export Plug-In . SVG Version: 6.00 Build 0)  -->
<!DOCTYPE svg PUBLIC "-//W3C//DTD SVG 1.1//EN" "http://www.w3.org/Graphics/SVG/1.1/DTD/svg11.dtd">
<svg version="1.1" id="Layer_1" xmlns="http://www.w3.org/2000/svg" xmlns:xlink="http://www.w3.org/1999/xlink" x="0px" y="0px"
	 viewBox="0 0 512 512" enable-background="new 0 0 512 512" xml:space="preserve">
<g>
	<path fill="#EDEDED" d="M416.9,242.3H385c-1.5-13.3-5-26.1-10.2-37.9l27.3-15.8c2.4-1.4,3.2-4.4,1.8-6.8l-9.4-16.3
		c-1.4-2.4-4.4-3.2-6.8-1.8l-27.4,15.8c-7.6-10.3-16.8-19.5-27.1-27.1l16.3-28.2c1.4-2.4,0.6-5.4-1.8-6.8l-16.3-9.4
		c-2.4-1.4-5.4-0.6-6.8,1.8l-16.2,28.1c-12-5.3-25-8.9-38.7-10.3V95.1c0-2.8-2.2-5-5-5h-18.9c-2.8,0-5,2.2-5,5v32.7
		c-13.3,1.5-26,5.1-37.8,10.4l-16.4-28.3c-1.4-2.4-4.4-3.2-6.8-1.8l-16.3,9.4c-2.4,1.4-3.2,4.4-1.8,6.8l16.5,28.6
		c-10.2,7.6-19.2,16.8-26.8,27l-27.9-16.1c-2.4-1.4-5.4-0.6-6.8,1.8l-9.4,16.3c-1.4,2.4-0.6,5.4,1.8,6.8l27.9,16.1
		c-5.1,11.7-8.6,24.3-10,37.5H95.1c-2.8,0-5,2.2-5,5v18.9c0,2.8,2.2,5,5,5H127c1.5,13.2,4.9,25.7,10,37.4l-28,16
		c-2.4,1.4-3.2,4.4-1.8,6.8l9.4,16.3c1.4,2.4,4.4,3.2,6.8,1.8l27.8-16.1c7.8,10.7,17.3,20.1,28,28l-15.6,27
		c-1.4,2.4-0.6,5.4,1.8,6.8l16.3,9.4c2.4,1.4,5.4,0.6,6.8-1.8l15.6-27.1c11.4,5,23.7,8.3,36.6,9.8v31.2c0,2.8,2.2,5,5,5h18.9
		c2.8,0,5-2.2,5-5v-31.1c13.2-1.4,25.7-4.7,37.4-9.7l15.5,26.8c1.4,2.4,4.4,3.2,6.8,1.8l16.3-9.4c2.4-1.4,3.2-4.4,1.8-6.8L332,361.6
		c10.8-7.8,20.3-17.3,28.3-28l27.3,15.8c2.4,1.4,5.4,0.6,6.8-1.8l9.4-16.3c1.4-2.4,0.6-5.4-1.8-6.8l-27-15.6
		c5.2-11.8,8.6-24.4,10.1-37.7H417c2.8,0,5-2.2,5-5v-18.9C421.9,244.5,419.7,242.3,416.9,242.3z M356,271.2
		c-1.1,8-3.2,15.8-6.2,23.2c-3.6,8.9-8.4,17.3-14.5,25c-2.4,3.1-5.1,6-7.9,8.9c-3.1,3.1-6.3,5.9-9.7,8.6c-7.7,6-16.2,10.7-25.1,14.2
		c-7.3,2.8-15,4.8-22.9,5.9c-4.5,0.6-9.1,0.9-13.7,0.9c-5.1,0-10.2-0.4-15.2-1.1c-7.6-1.1-15-3.1-22-5.9c-8.9-3.5-17.4-8.4-25-14.4
		c-3.2-2.5-6.3-5.2-9.2-8.2c-2.9-2.9-5.6-6-8.1-9.1c-6-7.7-10.9-16.1-14.4-25c-2.9-7.3-4.9-15-6.1-22.8c-0.7-4.7-1-9.6-1-14.4
		c0-4.9,0.3-9.7,1-14.4c1.1-7.9,3.2-15.6,6.1-23c3.6-8.9,8.4-17.3,14.4-25c2.5-3.1,5.1-6.1,8-9c2.6-2.6,5.3-5,8.2-7.3
		c7.6-6.1,15.9-11.1,24.8-14.7c7.4-3.1,15.2-5.2,23.3-6.4c5-0.7,10-1.1,15.2-1.1c4.6,0,9.2,0.3,13.7,0.9c8.3,1.1,16.4,3.3,24.1,6.4
		c8.9,3.6,17.3,8.5,24.9,14.6c3,2.4,5.9,5,8.7,7.7c2.8,2.8,5.4,5.7,7.8,8.7c6.1,7.6,10.9,16,14.5,24.9c3,7.5,5.1,15.3,6.3,23.3
		c0.7,4.7,1,9.6,1,14.4C357,261.6,356.7,266.4,356,271.2z"/>
	<path fill="#515151" d="M256,184.6c39.8,0,72.2,32.4,72.2,72.2S295.8,329,256,329s-72.2-32.4-72.2-72.2S216.2,184.6,256,184.6
		 M256,155.7c-55.8,0-101,45.2-101,101s45.2,101,101,101s101-45.2,101-101S311.8,155.7,256,155.7L256,155.7z"/>
</g>
<g>
	<path fill="#D80000" d="M451.2,63.3L329.1,30.5l32.7,122.1l31.7-31.7c74.1,75.4,73.7,196.5-1.2,271.4
		c-55.1,55.1-135.3,69.9-203.9,44.3l11.4,42.5c75.8,19,159.5-1.1,218.8-60.4c89.4-89.4,89.8-234.1,1.2-324L451.2,63.3L451.2,63.3
		L451.2,63.3z"/>
	<path fill="#D80000" d="M120.9,393.5c-0.4-0.4-0.8-0.8-1.2-1.2c-75.3-75.3-75.3-197.4,0-272.6C176.4,63,259.6,49,329.4,77.7
		l-12.2-43.4C240.1,13,154,32.7,93.4,93.4c-89.8,89.8-89.8,235.5,0,325.3c0.4,0.4,0.8,0.8,1.3,1.2l-31.4,31.4L185.2,484l-32.7-122.1
		L120.9,393.5L120.9,393.5z"/>
</g>
</svg>
