<?xml version="1.0" encoding="utf-8"?>
<!-- Generator: Adobe Illustrator 18.0.0, SVG Export Plug-In . SVG Version: 6.00 Build 0)  -->
<!DOCTYPE svg PUBLIC "-//W3C//DTD SVG 1.1//EN" "http://www.w3.org/Graphics/SVG/1.1/DTD/svg11.dtd">
<svg version="1.1" id="Layer_1" xmlns="http://www.w3.org/2000/svg" xmlns:xlink="http://www.w3.org/1999/xlink" x="0px" y="0px"
	 viewBox="0 0 512 512" style="enable-background:new 0 0 512 512;" xml:space="preserve">
<g>
	<g>
		<g>
			<path style="fill:#3F0606;" d="M230.992,250.027H45.523c-10.782,0-19.523-8.722-19.523-19.481V45.481
				C26,34.722,34.741,26,45.523,26h185.469c10.782,0,19.523,8.722,19.523,19.481v185.066
				C250.515,241.305,241.774,250.027,230.992,250.027z"/>
			<g>
				<linearGradient id="SVGID_1_" gradientUnits="userSpaceOnUse" x1="138.2575" y1="26" x2="138.2575" y2="250.028">
					<stop  offset="0" style="stop-color:#FFFFFF"/>
					<stop  offset="1" style="stop-color:#FFFFFF;stop-opacity:0.5"/>
				</linearGradient>
				<path style="fill:url(#SVGID_1_);" d="M230.992,30.87c8.074,0,14.642,6.554,14.642,14.61v185.066
					c0,8.056-6.568,14.61-14.642,14.61H45.523c-8.074,0-14.642-6.554-14.642-14.61V45.481c0-8.056,6.568-14.61,14.642-14.61
					L230.992,30.87 M230.992,26H45.523C34.741,26,26,34.722,26,45.481v185.066c0,10.759,8.741,19.481,19.523,19.481h185.469
					c10.782,0,19.523-8.722,19.523-19.481V45.481C250.515,34.722,241.774,26,230.992,26L230.992,26z"/>
			</g>
		</g>
	</g>
	<g>
		<g>
			<path style="fill:#151515;" d="M466.477,250.027H281.008c-10.782,0-19.523-8.722-19.523-19.481V45.481
				c0-10.759,8.741-19.481,19.523-19.481h185.469C477.259,26,486,34.722,486,45.481v185.066
				C486,241.305,477.259,250.027,466.477,250.027z"/>
			<g>
				<linearGradient id="SVGID_2_" gradientUnits="userSpaceOnUse" x1="373.7425" y1="26" x2="373.7425" y2="250.028">
					<stop  offset="0" style="stop-color:#FFFFFF"/>
					<stop  offset="1" style="stop-color:#FFFFFF;stop-opacity:0.5"/>
				</linearGradient>
				<path style="fill:url(#SVGID_2_);" d="M466.477,30.87c8.074,0,14.642,6.554,14.642,14.61v185.066
					c0,8.056-6.568,14.61-14.642,14.61H281.008c-8.074,0-14.642-6.554-14.642-14.61V45.481c0-8.056,6.568-14.61,14.642-14.61
					L466.477,30.87 M466.477,26H281.008c-10.782,0-19.523,8.722-19.523,19.481v185.066c0,10.759,8.741,19.481,19.523,19.481h185.469
					c10.782,0,19.523-8.722,19.523-19.481V45.481C486,34.722,477.259,26,466.477,26L466.477,26z"/>
			</g>
		</g>
	</g>
</g>
<g>
	<g>
		<g>
			<path style="fill:#151515;" d="M230.992,485.027H45.523c-10.782,0-19.523-8.722-19.523-19.481V280.481
				C26,269.722,34.741,261,45.523,261h185.469c10.782,0,19.523,8.722,19.523,19.481v185.066
				C250.515,476.305,241.774,485.027,230.992,485.027z"/>
			<g>
				<linearGradient id="SVGID_3_" gradientUnits="userSpaceOnUse" x1="138.2575" y1="261" x2="138.2575" y2="485.028">
					<stop  offset="0" style="stop-color:#FFFFFF"/>
					<stop  offset="1" style="stop-color:#FFFFFF;stop-opacity:0.5"/>
				</linearGradient>
				<path style="fill:url(#SVGID_3_);" d="M230.992,265.87c8.074,0,14.642,6.554,14.642,14.61v185.066
					c0,8.056-6.568,14.61-14.642,14.61H45.523c-8.074,0-14.642-6.554-14.642-14.61V280.481c0-8.056,6.568-14.61,14.642-14.61
					h185.469 M230.992,261H45.523C34.741,261,26,269.722,26,280.481v185.066c0,10.759,8.741,19.481,19.523,19.481h185.469
					c10.782,0,19.523-8.722,19.523-19.481V280.481C250.515,269.722,241.774,261,230.992,261L230.992,261z"/>
			</g>
		</g>
	</g>
	<g>
		<g>
			<path style="fill:#3F0606;" d="M466.477,485.027H281.008c-10.782,0-19.523-8.722-19.523-19.481V280.481
				c0-10.759,8.741-19.481,19.523-19.481h185.469c10.782,0,19.523,8.722,19.523,19.481v185.066
				C486,476.305,477.259,485.027,466.477,485.027z"/>
			<g>
				<linearGradient id="SVGID_4_" gradientUnits="userSpaceOnUse" x1="373.7425" y1="261" x2="373.7425" y2="485.028">
					<stop  offset="0" style="stop-color:#FFFFFF"/>
					<stop  offset="1" style="stop-color:#FFFFFF;stop-opacity:0.5"/>
				</linearGradient>
				<path style="fill:url(#SVGID_4_);" d="M466.477,265.87c8.074,0,14.642,6.554,14.642,14.61v185.066
					c0,8.056-6.568,14.61-14.642,14.61H281.008c-8.074,0-14.642-6.554-14.642-14.61V280.481c0-8.056,6.568-14.61,14.642-14.61
					h185.469 M466.477,261H281.008c-10.782,0-19.523,8.722-19.523,19.481v185.066c0,10.759,8.741,19.481,19.523,19.481h185.469
					c10.782,0,19.523-8.722,19.523-19.481V280.481C486,269.722,477.259,261,466.477,261L466.477,261z"/>
			</g>
		</g>
	</g>
</g>
<g>
	<path style="fill:#FFFFFF;" d="M213.789,235.329c-11.158-6.858-26.698-13.145-46.609-18.86
		c-19.916-5.715-34.209-12.067-42.891-19.051c-8.687-6.983-13.025-16.367-13.025-28.146c0-12.699,4.115-22.599,12.339-29.703
		c8.23-7.098,20.106-10.652,35.646-10.652c14.887,0,26.703,4.801,35.45,14.397c8.747,9.596,13.123,22.55,13.123,38.852h36.033
		c0-23.628-6.102-42.243-18.31-55.845c-12.209-13.602-29.278-21.729-51.213-24.379V63.907h-29.18v37.862
		c-21.805,2.302-38.945,9.509-51.409,21.609c-12.47,12.105-18.702,27.607-18.702,46.511c0,18.555,6.363,33.856,19.094,45.901
		s33.001,21.816,60.809,29.305c5.414,1.593,10.389,3.239,14.954,4.934h61.093c0.24,0,0.474-0.027,0.712-0.036
		C226.95,244.64,220.984,239.749,213.789,235.329z"/>
	<path style="fill:#FFFFFF;" d="M192.498,261c1.861,1.246,3.548,2.513,5.044,3.803c8.42,7.261,12.633,16.193,12.633,26.796
		c0,12.568-4.899,22.48-14.691,29.741c-9.792,7.261-23.242,10.891-40.344,10.891c-17.499,0-31.009-4.322-40.54-12.965
		c-9.536-8.649-14.299-20.977-14.299-37.002H64.074c0,22.823,6.885,40.888,20.662,54.202c13.771,13.314,32.8,20.95,57.086,22.91
		v33.023h28.984v-33.023c23.889-2.188,42.461-9.22,55.715-21.092c13.248-11.871,19.878-27.547,19.878-47.028
		c0-10.328-1.899-19.543-5.679-27.649c-2.866-1.649-6.182-2.607-9.728-2.607H192.498z"/>
	<rect x="268.535" y="351.75" style="fill:#FFFFFF;" width="179.391" height="29.507"/>
</g>
</svg>
