<?xml version="1.0" encoding="utf-8"?>
<!-- Generator: Adobe Illustrator 18.0.0, SVG Export Plug-In . SVG Version: 6.00 Build 0)  -->
<!DOCTYPE svg PUBLIC "-//W3C//DTD SVG 1.1//EN" "http://www.w3.org/Graphics/SVG/1.1/DTD/svg11.dtd">
<svg version="1.1" id="Layer_3" xmlns="http://www.w3.org/2000/svg" xmlns:xlink="http://www.w3.org/1999/xlink" x="0px" y="0px"
	 viewBox="0 0 512 512" enable-background="new 0 0 512 512" xml:space="preserve">
<g>
	<path fill="#31BBF7" d="M251.1,271.3c1.5,0.8,3,1.7,4.4,2.6c-1.2,0.7-2.5,1.4-3.7,2c1.3-0.6,2.5-1.3,3.7-2c1.2-0.7,2.3-1.4,3.4-2.1
		c-1.3-0.9-2.7-1.8-4.1-2.6C253.7,269.9,252.4,270.6,251.1,271.3z"/>
	<path fill="#31BBF7" d="M256,26C129,26,26,129,26,256c0,32.6,6.8,63.6,19,91.7h180.2v0c0.8,0,1.5,0,2.3-0.1
		c14.6-1.4,25.3-14.4,23.9-29c-1.3-13.4-12.4-23.6-25.5-24v0v0h-28.3v-12.6h28.3v0c4.7,0,9.5-0.6,14.1-1.8
		c-4.4-1.6-9.2-2.6-14.1-2.7v-0.1h-28.3v-12.6h28.3c1.3,0,2.5-0.1,3.8-0.2c3.1-0.3,6.1-0.9,9-1.8c-4.2-1-8.5-1.5-12.8-1.6v0h-28.3
		v-12.6h28.3v0c0.7,0,1.5,0,2.2-0.1c14.6-1.4,25.3-14.4,23.9-29c-1.3-13.8-12.9-24.1-26.4-24.1c-0.9,0-1.7,0-2.6,0.1
		c-8.9,0.9-16.4,6.1-20.6,13.3l-10.9-6.3c6.1-10.7,17.1-18.3,30.3-19.6c1.3-0.1,2.5-0.2,3.8-0.2c0,0,0,0,0,0c9.7,0,19,3.6,26.3,10.1
		c7.3,6.6,11.8,15.6,12.7,25.4c1.3,13.8-4.7,26.7-14.9,34.7c1.4,0.5,2.7,1,4.1,1.6c10.5-8.9,16.7-22.7,15.3-37.5
		c-2.2-22.6-21.2-39.5-43.4-39.5c-1.4,0-2.8,0.1-4.2,0.2c-6.5,0.6-12.4,2.6-17.7,5.7l-6.3-10.9c6.8-3.9,14.5-6.5,22.8-7.3
		c1.8-0.2,3.6-0.3,5.4-0.3h0c0,0,0,0,0,0c13.9,0,27.3,5.2,37.7,14.5c10.5,9.4,16.9,22.4,18.3,36.4c1.7,17.3-4.8,33.6-16.2,45.1
		c1.2,0.8,2.4,1.6,3.5,2.5c0,0-0.1,0.1-0.1,0.1c0,0,0.1-0.1,0.1-0.1c22.8-23.9,22-61.8-1.8-84.7c-11.6-11.1-26.4-16.7-41.3-16.7
		v-12.6c18.8,0.1,36.5,7.3,50.1,20.3c14,13.4,21.9,31.5,22.3,50.9c0.4,19.2-6.7,37.4-19.9,51.4c12.1,13.1,18.9,29.9,19.3,47.9
		c0.4,19.4-6.8,37.8-20.3,51.8c-7,7.2-15.2,12.9-24.4,16.7c-8.8,3.7-18.1,5.5-27.7,5.6H71.8c41.9,56,108.8,92.3,184.2,92.3
		c127,0,230-103,230-230S383,26,256,26z"/>
	<path fill="#31BBF7" d="M268.2,362.7c22.2-23.1,22.2-59.3,0.6-82.5c-1,0.7-2,1.5-3,2.1c8.6,9.1,14,20.8,15.2,33.4
		c3,30.9-19.8,58.5-50.7,61.4c-1.7,0.2-3.4,0.2-5.1,0.3v0H60.7c0.8,1.2,1.5,2.5,2.3,3.7h162.2C240.9,381,256.5,374.9,268.2,362.7z"
		/>
	<path fill="#31BBF7" d="M225.2,364.8c1.3,0,2.6-0.1,3.9-0.2c24-2.3,41.6-23.6,39.3-47.7c-1.1-11.3-6.4-21.2-14.3-28.3
		c-0.2,0.1-0.4,0.2-0.6,0.3c-1.3,0.6-2.7,1.1-4.1,1.6c0.6,0.5,1.2,1,1.8,1.5c7.3,6.6,11.8,15.6,12.7,25.4
		c2.1,21.5-13.8,40.7-35.3,42.8c-1.2,0.1-2.3,0.2-3.5,0.2v0H51c0.8,1.5,1.5,3,2.3,4.4L225.2,364.8L225.2,364.8z"/>
</g>
<g>
	<g>
		<path fill="#F4F4F4" d="M225.9,281.9L225.9,281.9c4.7,0,9.5-0.6,14.1-1.8c5.4-1.3,10.6-3.4,15.6-6.3c1.2-0.7,2.3-1.4,3.4-2.1
			c3.5-2.3,6.8-5.1,9.8-8.3c0,0,0.1-0.1,0.1-0.1c22.8-23.9,22-61.8-1.8-84.7c-11.6-11.1-26.4-16.7-41.3-16.7v-12.6
			c18.8,0.1,36.5,7.3,50.1,20.3c14,13.4,21.9,31.5,22.3,50.9c0.4,19.2-6.7,37.4-19.9,51.4c-0.1,0.1-0.2,0.3-0.4,0.4
			c-2.8,2.9-5.9,5.6-9.1,8c-1,0.7-2,1.5-3,2.1c-3.7,2.4-7.5,4.5-11.6,6.3c-0.2,0.1-0.4,0.2-0.6,0.3c-1.3,0.6-2.7,1.1-4.1,1.6
			c-7.6,2.6-15.5,4-23.5,4v0h-28.3v-12.6H225.9z"/>
		<path fill="#F4F4F4" d="M225.9,264.8c1.3,0,2.5-0.1,3.8-0.2c3.1-0.3,6.1-0.9,9-1.8c5.6-1.8,10.7-4.6,15-8.3
			c10.5-8.9,16.7-22.7,15.3-37.5c-2.2-22.6-21.2-39.5-43.4-39.5c-1.4,0-2.8,0.1-4.2,0.2c-6.5,0.6-12.4,2.6-17.7,5.7l-6.3-10.9
			c6.8-3.9,14.5-6.5,22.8-7.3c1.8-0.2,3.6-0.3,5.4-0.3h0c0,0,0,0,0,0c13.9,0,27.3,5.2,37.7,14.5c10.5,9.4,16.9,22.4,18.3,36.4
			c1.7,17.3-4.8,33.6-16.2,45.1c-3.1,3.2-6.7,6-10.5,8.3c-1.2,0.8-2.5,1.5-3.8,2.1c-6.1,3.1-12.9,5.2-20.2,5.9
			c-1.7,0.2-3.4,0.2-5,0.3h-28.3v-12.6H225.9z"/>
		<path fill="#F4F4F4" d="M225.9,248.5c0.7,0,1.5,0,2.2-0.1c14.6-1.4,25.3-14.4,23.9-29c-1.3-13.8-12.9-24.1-26.4-24.1
			c-0.9,0-1.7,0-2.6,0.1c-8.9,0.9-16.4,6.1-20.6,13.3l-10.9-6.3c6.1-10.7,17.1-18.3,30.3-19.6c1.3-0.1,2.5-0.2,3.8-0.2c0,0,0,0,0,0
			c9.7,0,19,3.6,26.3,10.1c7.3,6.6,11.8,15.6,12.7,25.4c1.3,13.8-4.7,26.7-14.9,34.7c-5.7,4.5-12.7,7.4-20.4,8.1
			c-1.1,0.1-2.3,0.2-3.4,0.2v0h-28.3v-12.6L225.9,248.5L225.9,248.5z"/>
	</g>
	<g>
		<path fill="#FFFFFF" d="M252.9,388.2c9.2-3.8,17.4-9.5,24.4-16.7c13.4-14,20.6-32.4,20.3-51.8c-0.4-18-7.2-34.8-19.3-47.9
			c-0.1,0.1-0.2,0.3-0.4,0.4c-2.8,2.9-5.9,5.6-9.1,8c21.6,23.1,21.5,59.4-0.6,82.5c-11.7,12.2-27.3,18.3-43,18.4H63
			c2.8,4.3,5.7,8.5,8.8,12.6h153.4C234.8,393.7,244.1,391.8,252.9,388.2z"/>
		<path fill="#FFFFFF" d="M225.2,377.4c1.7,0,3.4-0.1,5.1-0.3c30.9-3,53.6-30.5,50.7-61.4c-1.2-12.6-6.6-24.3-15.2-33.4
			c-3.7,2.4-7.5,4.5-11.6,6.3c7.8,7.1,13.2,17,14.3,28.3c2.3,24-15.3,45.3-39.3,47.7c-1.3,0.1-2.6,0.2-3.9,0.2v0H53.3
			c2.3,4.3,4.8,8.5,7.3,12.6L225.2,377.4L225.2,377.4z"/>
		<path fill="#FFFFFF" d="M225.2,360.3c1.2,0,2.3-0.1,3.5-0.2c21.5-2.1,37.4-21.3,35.3-42.8c-0.9-9.8-5.5-18.8-12.7-25.4
			c-0.6-0.5-1.2-1-1.8-1.5c-7.6,2.6-15.5,4-23.5,4v0c13.1,0.5,24.2,10.6,25.5,24c1.4,14.6-9.3,27.6-23.9,29
			c-0.8,0.1-1.5,0.1-2.3,0.1v0H45c1.9,4.3,3.8,8.5,6,12.6L225.2,360.3L225.2,360.3z"/>
		<path fill="#FFFFFF" d="M253.8,254.4c-1.3-0.6-2.7-1.1-4.1-1.6c-5.7,4.5-12.7,7.4-20.4,8.1c-1.1,0.1-2.3,0.2-3.4,0.2v0
			c4.3,0.1,8.6,0.6,12.8,1.6C244.3,261,249.4,258.1,253.8,254.4z"/>
		<path fill="#FFFFFF" d="M254.9,269.1c1.4,0.8,2.7,1.7,4.1,2.6c3.5-2.3,6.8-5.1,9.8-8.3c0,0,0.1-0.1,0.1-0.1
			c-1.1-0.9-2.3-1.7-3.5-2.5C262.3,264,258.8,266.8,254.9,269.1z"/>
		<path fill="#FFFFFF" d="M230.9,277.1c-1.7,0.2-3.4,0.2-5,0.3v0.1c4.9,0.1,9.7,1,14.1,2.7c5.4-1.3,10.6-3.4,15.6-6.3
			c-1.4-0.9-2.9-1.8-4.4-2.6C245,274.4,238.2,276.5,230.9,277.1z"/>
	</g>
</g>
</svg>
