<?xml version="1.0" encoding="utf-8"?>
<!-- Generator: Adobe Illustrator 18.0.0, SVG Export Plug-In . SVG Version: 6.00 Build 0)  -->
<!DOCTYPE svg PUBLIC "-//W3C//DTD SVG 1.1//EN" "http://www.w3.org/Graphics/SVG/1.1/DTD/svg11.dtd">
<svg version="1.1" id="Layer_1" xmlns="http://www.w3.org/2000/svg" xmlns:xlink="http://www.w3.org/1999/xlink" x="0px" y="0px"
	 viewBox="0 0 512 512" style="enable-background:new 0 0 512 512;" xml:space="preserve">
<path style="fill:#FF0074;" d="M256,26C129.136,26,25.979,129.166,25.979,255.986C25.979,382.808,129.145,486,256,486
	c18.189,0,35.838-2.26,52.829-6.29V281.32l-158.21,111.947c-1.411,0.957-3.153,1.508-4.824,1.508c-1.302,0-2.635-0.274-3.831-0.962
	c-2.806-1.43-4.548-4.307-4.548-7.389v-262.43c0-3.08,1.742-5.985,4.548-7.457c2.806-1.366,6.126-1.125,8.656,0.652l158.21,111.954
	V115.624h6.734h63.355v334.538c64.281-40.824,107.095-112.529,107.103-194.176C486.021,129.159,382.82,26,256,26z"/>
</svg>
