<?xml version="1.0" encoding="utf-8"?>
<!-- Generator: Adobe Illustrator 18.0.0, SVG Export Plug-In . SVG Version: 6.00 Build 0)  -->
<!DOCTYPE svg PUBLIC "-//W3C//DTD SVG 1.1//EN" "http://www.w3.org/Graphics/SVG/1.1/DTD/svg11.dtd">
<svg version="1.1" id="Layer_3" xmlns="http://www.w3.org/2000/svg" xmlns:xlink="http://www.w3.org/1999/xlink" x="0px" y="0px"
	 viewBox="0 0 512 512" style="enable-background:new 0 0 512 512;" xml:space="preserve">
<g>
	<path style="fill:#2D2D2D;" d="M256,145.492c-21.859,0-39.642,17.784-39.642,39.642v69.792
		c11.189-7.964,24.862-12.663,39.642-12.663c14.78,0,28.454,4.7,39.642,12.663v-69.792C295.642,163.274,277.859,145.492,256,145.492
		z"/>
	<path style="fill:#2D2D2D;" d="M256,283.605c-7.416,0-13.429,6.012-13.429,13.428c0,5.181,2.939,9.668,7.235,11.908v22.702
		c0,3.421,2.773,6.194,6.194,6.194s6.194-2.773,6.194-6.194v-22.702c4.296-2.24,7.235-6.727,7.235-11.908
		C269.429,289.617,263.416,283.605,256,283.605z"/>
	<path style="fill:#2D2D2D;" d="M256,26C128.975,26,26,128.975,26,256c0,72.327,33.395,136.844,85.596,179.007L82.155,486H256
		c127.025,0,230-102.974,230-230S383.025,26,256,26z M256,379.179c-37.809,0-68.458-30.65-68.458-68.458
		c0-16.824,6.079-32.22,16.146-44.139v-81.449c0-28.891,23.421-52.312,52.312-52.312c28.891,0,52.312,23.421,52.312,52.312v81.449
		c10.067,11.919,16.146,27.316,16.146,44.139C324.458,348.529,293.809,379.179,256,379.179z"/>
</g>
</svg>
