<?xml version="1.0" encoding="utf-8"?>
<!-- Generator: Adobe Illustrator 22.0.1, SVG Export Plug-In . SVG Version: 6.00 Build 0)  -->
<svg version="1.1"
	 id="svg2" xmlns:cc="http://creativecommons.org/ns#" xmlns:dc="http://purl.org/dc/elements/1.1/" xmlns:rdf="http://www.w3.org/1999/02/22-rdf-syntax-ns#" xmlns:svg="http://www.w3.org/2000/svg"
	 xmlns="http://www.w3.org/2000/svg" xmlns:xlink="http://www.w3.org/1999/xlink" x="0px" y="0px" viewBox="0 0 640 640"
	 enable-background="new 0 0 640 640" xml:space="preserve">
<g id="g210" transform="translate(265.6093,298.185)">
	<path id="path212" fill="#FE3300" d="M70.708-49.818c23.302,0,46.603-0.005,69.906,0.003c6.201,0.002,8.991,2.068,10.839,7.95
		c1.355,4.313,1.581,8.765,1.481,13.23c-0.664,29.619,1.158,59.065,6.439,88.24c4.919,27.167,13.6,52.979,28.171,76.623
		c4.856,7.881,4.751,9.222-2.376,15.361c-15.527,13.376-33.148,23.345-52.154,30.828c-7.882,3.104-10.154,2.207-14.281-5.536
		c-12.401-23.26-21.407-47.785-26.716-73.641c-2.189-10.657-4.361-21.324-6.882-31.905c-0.941-3.951-1.094-9.75-6.571-9.737
		c-5.412,0.014-6.407,5.588-7.477,9.822c-3.875,15.339-7.599,30.706-12.795,45.678C41.673,164.987,14.755,206.1-22.607,240.36
		c-4.019,3.686-8.392,6.925-12.915,9.991c-3.09,2.094-5.68,1.898-8.511-0.311c-4.318-3.371-8.159-7.222-11.807-11.282
		c-8.85-9.85-16.721-20.395-23.513-31.801c-3.844-6.456-3.727-11.937,0.661-18.188c11.277-16.067,22.577-32.131,32.195-49.303
		c17.701-31.601,29.752-65.019,32.964-101.298c1.284-14.495,0.883-29.047,0.949-43.581c0.048-10.238,0.229-20.475,0.464-30.709
		c0.255-11.16,2.647-13.61,13.914-13.663C24.765-49.892,47.737-49.818,70.708-49.818"/>
	<path id="path216" fill="#FE3300" d="M29.975-208.168c14.364-0.372,28.13,5.366,39.578,16.79c2.805,2.8,5.738,5.505,8.273,8.538
		c8.219,9.825,18.757,12.341,30.793,9.888c10.778-2.196,21.251-2.046,31.533,2.362c19.287,8.27,31.254,28.325,28.763,48.474
		c-2.608,21.097-19.081,38.471-39.558,42.041c-11.098,1.936-21.277-0.613-31.04-5.593c-2.783-1.42-5.52-3.016-8.034-4.867
		c-8.168-6.013-16.828-6.841-26.22-3.282c-8.776,3.323-17.509,6.818-26.907,8.176c-34.752,5.018-74.061-19.677-70.702-66.304
		C-30.873-189.049-1.662-208.472,29.975-208.168"/>
</g>
</svg>
