<?xml version="1.0" encoding="UTF-8" standalone="no"?>
<!-- Generator: Adobe Illustrator 18.0.0, SVG Export Plug-In . SVG Version: 6.00 Build 0)  -->

<svg
   xmlns:dc="http://purl.org/dc/elements/1.1/"
   xmlns:cc="http://creativecommons.org/ns#"
   xmlns:rdf="http://www.w3.org/1999/02/22-rdf-syntax-ns#"
   xmlns:svg="http://www.w3.org/2000/svg"
   xmlns="http://www.w3.org/2000/svg"
   xmlns:sodipodi="http://sodipodi.sourceforge.net/DTD/sodipodi-0.dtd"
   xmlns:inkscape="http://www.inkscape.org/namespaces/inkscape"
   version="1.1"
   id="Layer_3"
   x="0px"
   y="0px"
   viewBox="0 0 512 512"
   enable-background="new 0 0 512 512"
   xml:space="preserve"
   sodipodi:docname="vpn.svg"
   inkscape:version="0.92.3 (2405546, 2018-03-11)"><metadata
   id="metadata57"><rdf:RDF><cc:Work
       rdf:about=""><dc:format>image/svg+xml</dc:format><dc:type
         rdf:resource="http://purl.org/dc/dcmitype/StillImage" /></cc:Work></rdf:RDF></metadata><defs
   id="defs55" /><sodipodi:namedview
   pagecolor="#ffffff"
   bordercolor="#666666"
   borderopacity="1"
   objecttolerance="10"
   gridtolerance="10"
   guidetolerance="10"
   inkscape:pageopacity="0"
   inkscape:pageshadow="2"
   inkscape:window-width="1920"
   inkscape:window-height="1003"
   id="namedview53"
   showgrid="false"
   inkscape:zoom="0.97848663"
   inkscape:cx="256"
   inkscape:cy="353.43819"
   inkscape:window-x="0"
   inkscape:window-y="0"
   inkscape:window-maximized="1"
   inkscape:current-layer="layer3" />
<g
   inkscape:groupmode="layer"
   id="layer3"
   inkscape:label="Layer 3"
   style="display:inline"><path
     inkscape:connector-curvature="0"
     style="display:inline;fill:#1d94f6;fill-opacity:1;stroke-width:1"
     d="M 256.00001,26 C 129,26 25.999989,129.00001 25.999989,256 c 0,127 103.000011,230 230.000021,230 127,0 230,-103 230,-230 0,-127 -103,-230 -230,-230 z"
     id="path4"
     sodipodi:nodetypes="sssss" /><path
     style="display:inline;fill:#ffffff;fill-opacity:1;stroke-width:1"
     d="m 262,26.099609 -53.40039,26.59961 c -2.4,-4 -6.69961,-6.59961 -11.59961,-6.59961 -6.5,0 -11.99922,4.600782 -13.19922,10.800782 l -34.92187,-4.455079 c -1.05347,0.555677 -2.10667,1.112121 -3.15039,1.683594 L 183.59961,59 v 0.699219 c 0,1.8 0.4,3.601562 1,5.101562 l -84.5,42.398439 c -2.100001,-3.5 -5.700001,-6 -10.000001,-6.5 l 0.177735,-4.150392 c -0.739603,0.768493 -1.47026,1.545525 -2.199219,2.324219 L 88,100.59961 c -0.565614,0.008 -1.117861,0.0661 -1.664062,0.14453 -3.94041,4.30355 -7.724269,8.75112 -11.332032,13.3457 0.02235,3.4627 1.3152,6.531 3.496094,8.91016 l -27.664062,28.96875 c -1.052904,2.07181 -2.067201,4.16608 -3.058594,6.27344 L 80,124.5 c 1.8,1.5 4.000391,2.50039 6.400391,2.90039 l -8.09961,92.19922 h -0.201172 c -2.8,0 -5.3,0.80078 -7.5,2.30078 L 40.900391,183.59961 c 2.7,-2.5 4.5,-6 4.5,-10 -0.06452,-2.32253 -0.676545,-4.43254 -1.66211,-6.28516 -2.542328,6.07572 -4.825109,12.28639 -6.847656,18.61328 0.84586,-0.33845 1.653204,-0.75044 2.410156,-1.22851 L 69,223 c -2.7,2.5 -4.5,6 -4.5,10 0,4.2 1.900781,7.90078 4.800781,10.30078 l -30.5,42.39844 c -1.8,-1 -3.8,-1.69844 -6,-1.89844 v -83.46484 c -0.757305,3.04509 -1.467021,6.10952 -2.101562,9.20117 v 74.16211 c -1.006238,0.0774 -2.01084,0.27815 -2.970703,0.54883 1.096032,8.94369 2.711777,17.72601 4.804687,26.32226 1.118531,-0.0637 2.226002,-0.24983 3.267578,-0.57031 l 30.566407,76.14258 c 1.611077,2.34267 3.258594,4.65857 4.953124,6.9375 L 37.699219,309.40039 c 0.8,-0.4 1.60039,-0.9 2.40039,-1.5 l 41.59961,45.79883 C 79.399219,356.09922 78,359.4 78,363 c 0,7.3 5.8,13.2 13,13.5 v 39.69141 c 0.33258,0.34249 0.665312,0.68496 1,1.02539 V 376.5 c 4.3,-0.2 8.10039,-2.29961 10.40039,-5.59961 L 157.5,404.69922 c -0.6,1.3 -1,2.80078 -1,4.30078 0,1.2 0.19961,2.4 0.59961,3.5 l -45.49805,22.49609 c 0.5025,0.40592 1.0038,0.81309 1.50977,1.21485 L 158,414.09961 c 1.8,2.8 4.9,4.70117 8.5,4.70117 1.2,0 2.30039,-0.20156 3.40039,-0.60156 l 28.83399,60.60937 c 0.84661,0.21705 1.70043,0.41543 2.55078,0.62305 l -29.58594,-62.13086 c 2.1,-1.3 3.70039,-3.30117 4.40039,-5.70117 l 53.59961,10.20117 -12.45899,60.92774 c 0.65748,0.11165 1.31526,0.22206 1.97461,0.32812 l 12.48438,-60.85742 44.5,8.5 c -0.1,0.5 -0.0996,1 -0.0996,1.5 0,3.3 1.20117,6.40117 3.20117,8.70117 l -44.97461,44.07617 c 0.81996,0.0767 1.64046,0.15069 2.46289,0.21875 0.0371,3.3e-4 0.0742,0.004 0.11133,0.004 l 43.79883,-42.89844 c 2.4,2.1 5.50039,3.39844 8.90039,3.39844 5.8,0 10.69961,-3.59883 12.59961,-8.79883 l 35.60156,10.40039 c -0.2,0.9 -0.30078,1.89883 -0.30078,2.79883 0,1.5 0.19922,2.90117 0.69922,4.20117 l -75.66602,31.60156 c 1.99017,-0.0555 3.97395,-0.13634 5.95118,-0.24218 L 339,456.59961 c 2.2,4.4 6.79961,7.5 12.09961,7.5 1.73709,0 3.39115,-0.33945 4.91406,-0.93945 0.68901,-0.33335 1.36953,-0.68149 2.05469,-1.02149 2.90018,-1.76558 5.09075,-4.58894 6.03125,-7.93945 l 6.45508,1.27344 c 0.87752,-0.50515 1.7431,-1.02858 2.61328,-1.54493 L 364.5,452.19922 c 0.1,-0.5 0.0996,-1.09961 0.0996,-1.59961 0,-3.8 -1.59922,-7.29922 -4.19922,-9.69922 L 394,400.30078 l 23.83203,19.09961 c 0.48113,-0.47654 0.96057,-0.9548 1.4375,-1.43555 L 395.30078,398.80078 445,338.69922 c 2.2,1.6 4.90078,2.5 7.80078,2.5 0.9,0 1.69961,-0.0988 2.59961,-0.29883 l 5.4082,19.8457 c 0.46394,-0.90507 0.90714,-1.8224 1.35938,-2.73437 l -4.76758,-17.61133 c 5.2,-1.9 9,-6.80117 9,-12.70117 0,-3.7 -1.50078,-6.99844 -3.80078,-9.39844 l 19.95508,-22.48242 c 0.21168,-1.21213 0.4109,-2.42792 0.60351,-3.64648 L 461.09961,317 c -2,-1.5 -4.09883,-2.40078 -6.29883,-2.80078 l 8.39844,-93.89844 20.37305,2.27344 c -0.0975,-0.66919 -0.18777,-1.3405 -0.29102,-2.00781 l -19.88086,-2.16602 4.625,-51.66016 c -0.54593,-1.2948 -1.1128,-2.57873 -1.68164,-3.86132 l -4.94336,55.2207 -11.70117,-1.29883 v -0.20117 c 0,-4.4 -2.69961,-8.19883 -6.59961,-9.79883 l 17.05664,-56.78125 c -0.44021,-0.84605 -0.88556,-1.68944 -1.33594,-2.5293 l -17.62109,58.70899 c -0.7,-0.1 -1.39961,-0.19922 -2.09961,-0.19922 -1.4,0 -2.79961,0.30078 -4.09961,0.80078 L 373.59961,91.199219 c 2.1,-1.4 3.79961,-3.5 4.59961,-6 l 41.48047,9.255859 c -0.88836,-0.90002 -1.78646,-1.790433 -2.68946,-2.675781 l -38.39062,-8.580078 c 0.1,-0.5 0.0996,-1 0.0996,-1.5 C 378.69922,75.499219 373.7,70.5 367.5,70.5 c -2.3,0 -4.50078,0.700391 -6.30078,1.900391 l -46.12695,-38.72461 c -1.47768,-0.391777 -2.962,-0.765976 -4.45118,-1.128906 l 48.97852,41.152344 c -1.5,1.5 -2.59961,3.401562 -3.09961,5.601562 L 271.80078,68.199219 285.5957,27.890625 c -0.68079,-0.08751 -1.36618,-0.160651 -2.04882,-0.242187 L 269.80078,68 210.5,60.300781 v -0.701172 c 0,-1.8 -0.4,-3.499609 -1,-5.099609 l 56.72461,-28.261719 c -0.89452,-0.03917 -1.79036,-0.0746 -2.6875,-0.103515 -0.51678,-0.01642 -1.03675,-0.03516 -1.53711,-0.03516 z m -51.80078,36.09961 58.90039,7.701172 L 260,96.699219 c -0.6,-0.1 -1.20039,-0.199219 -1.90039,-0.199219 -2.5,0 -4.80039,1.099219 -6.40039,2.699219 l -43.39844,-32.5 c 0.9,-1.3 1.59844,-2.8 1.89844,-4.5 z m -24.79883,4.201172 c 0.7,1.1 1.5,2.1 2.5,3 L 154.09961,112.30078 C 151.89961,110.80078 149.3,110 146.5,110 c -6.4,0 -11.69961,4.40078 -13.09961,10.30078 L 102,115.09961 c 0,-0.4 0.0996,-0.79922 0.0996,-1.19922 0,-1.8 -0.4,-3.59961 -1,-5.09961 z m 21.79883,2 43.40039,32.499999 c -0.8,1.3 -1.19922,2.80039 -1.19922,4.40039 v 0.39844 l -89.70117,14.70117 c -0.6,-2.7 -2.1,-5.00078 -4,-6.80078 L 189.5,70.699219 c 2.1,1.4 4.7,2.300781 7.5,2.300781 4.1,0 7.69922,-1.799609 10.19922,-4.599609 z m 63.90039,1.798828 85.09961,11.101562 v 0.5 c 0,0.5 0.002,0.898438 0.10156,1.398438 l -90,19.300781 c -0.8,-2.2 -2.4,-4.099609 -4.5,-5.099609 z m 85.70117,14.90039 c 0.5,1.5 1.29883,2.89961 2.29883,4.09961 l -40.40039,57.400391 -52.89844,-37.19922 c 0.7,-1.2 1.09961,-2.70117 1.09961,-4.20117 v -0.79883 z m 3.79883,5.5 c 1.4,1.1 3.1,1.901172 5,2.201172 L 359.69922,163 h -0.0996 c -4.2,0 -8.00039,1.90039 -10.40039,4.90039 L 320.5,147.69922 Z m 11.30078,1.5 61.40039,115.599611 c -1.3,0.8 -2.30156,1.90117 -3.10156,3.20117 L 372,181.69922 c 0.7,-1.6 1,-3.29922 1,-5.19922 0,-6.7 -4.90039,-12.30078 -11.40039,-13.30078 l 6,-70.19922 c 1.5,0 3.00078,-0.300391 4.30078,-0.900391 z M 249.59961,107.59961 c 0.6,2 1.8,3.70039 3.5,4.90039 l -37.29883,71.59961 C 214.20078,183.39961 212.4,183 210.5,183 c -3,0 -5.89961,0.99922 -8.09961,2.69922 L 156.09961,133 c 2.4,-2.4 3.90039,-5.8 3.90039,-9.5 0,-0.4 3.9e-4,-0.79922 -0.0996,-1.19922 z m 15.09961,3.5 53,37.20117 -25.59961,36.19922 -29.69922,4 L 259.5,113.90039 c 2.1,-0.3 3.89922,-1.30078 5.19922,-2.80078 z m -9.79883,2.30078 c 0.8,0.3 1.6,0.49961 2.5,0.59961 l 2.90039,74.80078 -36.60156,4.89844 c -0.8,-3.7 -2.99961,-6.79922 -6.09961,-8.69922 z M 101.59961,117.19922 133,122.40039 c 0,0.4 -0.0996,0.79922 -0.0996,1.19922 0,6.8 5,12.40078 11.5,13.30078 l -1,13.09961 -43.30078,-29.30078 c 0.7,-1.1 1.2,-2.3 1.5,-3.5 z m -2.500001,5.20117 44.201171,29.90039 -4.80078,63 -18.40039,5.09961 -27.000001,-93.70117 c 2.4,-0.9 4.5,-2.39883 6,-4.29883 z m -7.798828,4.79883 26.999999,93.70117 L 90.800781,228.5 c -1.6,-4.6 -5.6,-8.00078 -10.5,-8.80078 l 8,-92.19922 H 88.5 c 0.9,0 1.900781,-0.10078 2.800781,-0.30078 z m 63.298829,7 L 200.90039,187 c -0.3,0.3 -0.7,0.69961 -1,1.09961 l -54.5,-36.90039 1.09961,-14.29883 c 3,0 5.89961,-1.00117 8.09961,-2.70117 z m 164.59961,15.20117 28.70117,20.19922 C 346.70039,171.59961 346,174 346,176.5 v 0.80078 l -51.30078,6.89844 z m -174,4.19922 53.60156,36.20117 c -1.1,2 -1.80078,4.29922 -1.80078,6.69922 0,0.9 0.10078,1.79961 0.30078,2.59961 l -56.70117,15.59961 z m 201,25.70117 c 1.2,5.9 6.40117,10.39922 12.70117,10.69922 l 1,30.69922 -86.90039,5.5 c -0.4,-2.5 -1.7,-4.59922 -3.5,-6.19922 l 23.59961,-33.59961 z M 371,183.40039 l 58.19922,29.29883 c -0.4,1.1 -0.59922,2.30156 -0.69922,3.60156 l -66.59961,4.19922 -1,-30.59961 c 4.3,-0.5 7.99961,-2.9 10.09961,-6.5 z m -80.5,3.29883 -22.59961,32.10156 c -1.3,-0.8 -2.9,-1.20078 -4.5,-1.30078 l -1,-27 z m -30.09961,4.10156 1,26.79883 c -2.8,0.4 -5.30039,1.89961 -6.90039,4.09961 l -32,-19.09961 c 0.9,-1.8 1.40039,-3.89961 1.40039,-6.09961 0.1,-0.3 0.0996,-0.50078 0.0996,-0.80078 z M 197.80078,201 c 0.6,1.7 1.59883,3.29961 2.79883,4.59961 l -54.69922,58.80078 c -2.3,-2.3 -5.30117,-3.80078 -8.70117,-4.30078 L 140.5,216.80078 Z m 23.69922,3.30078 32,19.09961 c -0.6,1.3 -1,2.80039 -1,4.40039 0,3.3 1.50039,6.19961 3.90039,8.09961 l -34,52.69922 c -1.8,-1 -3.90117,-1.59961 -6.20117,-1.59961 l -4,-77.09961 c 3.8,-0.5 7.20078,-2.59961 9.30078,-5.59961 z M 202,207 c 2.2,1.8 5.09961,2.9 8.09961,3 l 4.09961,77.09961 c -4.9,0.6 -8.99883,3.90039 -10.79883,8.40039 l -53.30078,-16.90039 c 0.2,-1 0.30078,-2.09961 0.30078,-3.09961 0.1,-3.6 -1.10117,-6.9 -3.20117,-9.5 z M 138.40039,217.40039 135.19922,260 H 135 c -1.1,0 -2.20078,0.10039 -3.30078,0.40039 l -11,-38.09961 z m 290.19922,1 c 0.3,2 1.2,3.89883 2.5,5.29883 L 367,292.09961 c -0.8,-0.6 -1.69922,-0.9 -2.69922,-1 L 362,222.59961 Z M 449.5,218.69922 461.19922,220 452.80078,314 H 452.59961 452 l -10.59961,-87.09961 c 4,-0.9 7.19961,-4.10117 8.09961,-8.20117 z m -89.40039,3.90039 2.20117,68.5 c -1.3,0.3 -2.40078,0.90078 -3.30078,1.80078 l -87.09961,-60.09961 c 0.8,-1.4 1.19883,-3.00117 1.29883,-4.70117 z m -241.40039,0.20117 11,38.09961 c -2.6,0.9 -4.79961,2.5 -6.59961,4.5 L 89.300781,240.19922 c 1.3,-2.1 2.09961,-4.59922 2.09961,-7.19922 0.1,-0.9 -0.0012,-1.79961 -0.201172,-2.59961 z m 314,2.09961 c 0.6,0.5 1.3,0.89922 2,1.19922 l -29.29883,83.80078 -35.70117,-11.80078 c 0,-0.3 0.10156,-0.60039 0.10156,-0.90039 0,-1.4 -0.50078,-2.79883 -1.30078,-3.79883 z m 3.90039,2 c 0.8,0.2 1.7,0.29883 2.5,0.29883 h 0.30078 L 450,314.30078 c -4.2,0.8 -7.6,3.59922 -9.5,7.19922 l -33.19922,-11 z m -165.90039,7.5 87.10156,60.09961 c -0.3,0.6 -0.5,1.20078 -0.5,1.80078 l -103.90039,2.29883 8.90039,-60.5 h 0.5 c 3.2,0 5.99844,-1.39922 7.89844,-3.69922 z M 258.09961,237 c 0.7,0.4 1.50117,0.60078 2.20117,0.80078 l -9,60.89844 -21.90039,0.5 c -0.4,-3.9 -2.40078,-7.2 -5.30078,-9.5 z M 88.199219,241.90039 122,267.09961 c -1.6,2.4 -2.5,5.30039 -2.5,8.40039 0,5.8 3.20078,10.8 7.80078,13.5 L 97.199219,350.80078 C 95.499219,350.00078 93.5,349.5 91.5,349.5 H 91.099609 L 80.400391,246.30078 c 3.1,-0.6 5.798828,-2.20039 7.798828,-4.40039 z M 71,244.5 c 2.1,1.3 4.5,2 7,2 h 0.400391 l 10.699218,103.19922 c -2.2,0.4 -4.20039,1.30156 -5.90039,2.60156 L 41.599609,306.5 c 2.3,-2.4 3.701172,-5.70078 3.701172,-9.30078 0,-4.1 -1.90039,-7.79883 -4.90039,-10.29883 z m 78.59961,36 53.20117,16.80078 c -0.2,1 -0.40039,1.99961 -0.40039,3.09961 0,1.8 0.4,3.5 1,5 l -10.80078,5.29883 -44,-27.79883 c 0.4,-0.8 0.8,-1.60039 1,-2.40039 z m -2,4.09961 43,27.30078 -40.09961,19.69922 -9.30078,-41.90039 c 2.5,-1.1 4.70039,-2.89961 6.40039,-5.09961 z m -18.5,5.30078 c 1.8,0.7 3.80039,1.09961 5.90039,1.09961 1.5,0 2.90078,-0.19961 4.30078,-0.59961 l 9.29883,42.09961 -46.19922,22.59961 c -0.9,-1.3 -2.10039,-2.39883 -3.40039,-3.29883 z m 228.20117,8.5 c 0,0.1 -3.9e-4,0.19883 0.0996,0.29883 l -102.59961,42 c -1.4,-2.6 -3.80078,-4.59883 -6.80078,-5.29883 l 5.09961,-34.70117 z m 11.79883,1.69922 35.59961,11.70117 -21.39844,61.09961 c -1.6,-0.6 -3.30156,-0.90039 -5.10156,-0.90039 -0.4,0 -0.89883,-3.9e-4 -1.29883,0.0996 L 365.5,303.19922 c 1.6,-0.5 2.79961,-1.69961 3.59961,-3.09961 z M 358.19922,300.5 c 0.4,0.6 0.9,1.19922 1.5,1.69922 l -36.89844,67.5 -67,-21.89844 c 0.2,-0.7 0.29883,-1.50078 0.29883,-2.30078 -0.1,-1.1 -0.3,-2.1 -0.5,-3 z M 251.09961,300.69922 246,335 h -0.5 c -1.8,0 -3.40039,0.39922 -4.90039,1.19922 l -16.40039,-25 c 3,-2.3 5.00078,-5.9 5.30078,-10 z m 110.30078,2.40039 c 0.7,0.2 1.39961,0.40039 2.09961,0.40039 l 11.40039,68.90039 c -5.4,1.2 -9.7,5.39922 -11,10.69922 l -39.30078,-12.79883 z m -157,4.20117 c 1.2,2.1 2.99961,3.8 5.09961,5 l -3.19922,7.09961 L 194.69922,312 Z m 18.09961,5 16.40039,25 c -0.6,0.5 -1.20117,1.09883 -1.70117,1.79883 L 208,320.5 l 3.30078,-7.30078 c 1.5,0.5 2.99922,0.80078 4.69922,0.80078 2.4,0 4.6,-0.59922 6.5,-1.69922 z m 184.09961,0.0996 33.09961,10.90039 c -0.4,1.3 -0.69922,2.69961 -0.69922,4.09961 0.1,3 0.99961,5.70039 2.59961,7.90039 l -51.40039,42.79883 c -1.3,-1.8 -2.99961,-3.40039 -5.09961,-4.40039 z M 192.5,313.19922 205.40039,321.40039 169.69922,399.5 c -1,-0.3 -2.09922,-0.5 -3.19922,-0.5 -0.4,0 -0.79922,-3.9e-4 -1.19922,0.0996 l -14.5,-65.5 z m 14.5,9.20117 29,18.40039 c -0.7,1.4 -1.09961,2.99922 -1.09961,4.69922 0,5 3.49922,9.19922 8.19922,10.19922 L 230,420.09961 176.40039,409.90039 V 409 c 0,-3.7 -2,-6.89961 -5,-8.59961 z M 149,334.5 l 14.40039,65 c -2,0.6 -3.60078,1.9 -4.80078,3.5 L 103.5,369.19922 c 1,-1.9 1.5,-3.99922 1.5,-6.19922 0,-2.2 -0.6,-4.39922 -1.5,-6.19922 z m 294,2.40039 0.40039,0.40039 -49.80078,60.09961 -3,-2.40039 c 1.6,-2.3 2.5,-5.09922 2.5,-8.19922 0,-2.5 -0.59922,-4.80039 -1.69922,-6.90039 z M 255.09961,349.59961 321.69922,371.40039 295,420.19922 c -1.6,-0.8 -3.5,-1.19922 -5.5,-1.19922 -1.8,0 -3.59922,0.4 -5.19922,1 l -33.20117,-65.69922 c 1.8,-1.1 3.2,-2.70117 4,-4.70117 z m -5.79883,5.70117 L 282.5,421 c -2.9,1.7 -5.1,4.6 -6,8 L 232,420.5 245.19922,356 H 245.5 c 1.3,0 2.60078,-0.29922 3.80078,-0.69922 z m 74.39844,16.79883 39.90039,13 c -0.1,0.5 -0.0996,1.09961 -0.0996,1.59961 0,2.8 0.79961,5.3 2.09961,7.5 l -64.40039,31.40039 c -1.1,-1.7 -2.59844,-3.30039 -4.39844,-4.40039 z m 43.10156,24 c 1.5,1.9 3.49883,3.40039 5.79883,4.40039 L 355.69922,438 c -1.6,-0.7 -3.09922,-1 -4.69922,-1 -5.8,0 -10.69961,3.60078 -12.59961,8.80078 l -35.59961,-10.40039 c 0.2,-0.9 0.29883,-1.90078 0.29883,-2.80078 0,-1.8 -0.3,-3.4 -1,-5 z m 22.59961,0.30078 3,2.40039 L 358.80078,439.5 c -0.4,-0.3 -0.90078,-0.60039 -1.30078,-0.90039 l 17,-37.69922 c 1.2,0.3 2.50078,0.5 3.80078,0.5 4.4,0 8.39961,-1.9 11.09961,-5 z"
     id="path888"
     inkscape:connector-curvature="0" /></g><g
   inkscape:groupmode="layer"
   id="layer4"
   inkscape:label="Layer 4"
   style="display:inline" /><g
   id="g44">
	<g
   id="g35">
		<g
   opacity="0.4"
   enable-background="new    "
   id="g11">
			
				<radialGradient
   id="SVGID_1_"
   cx="1.0125"
   cy="515"
   r="118.8609"
   gradientTransform="matrix(2 0 0 -2 254 1286)"
   gradientUnits="userSpaceOnUse">
				<stop
   offset="0"
   style="stop-color:#010101"
   id="stop2" />
				<stop
   offset="0.8587"
   style="stop-color:#010101;stop-opacity:0.1413"
   id="stop4" />
				<stop
   offset="1"
   style="stop-color:#010101;stop-opacity:0"
   id="stop6" />
			</radialGradient>
			
		</g>
		<g
   opacity="0.4"
   enable-background="new    "
   id="g22">
			
				<radialGradient
   id="SVGID_2_"
   cx="2.0286"
   cy="516.0684"
   r="133.1551"
   gradientTransform="matrix(1.4138 -1.4146 -0.979 -0.9784 758.388 763.7472)"
   gradientUnits="userSpaceOnUse">
				<stop
   offset="0"
   style="stop-color:#010101"
   id="stop13" />
				<stop
   offset="0.8587"
   style="stop-color:#010101;stop-opacity:0.1413"
   id="stop15" />
				<stop
   offset="1"
   style="stop-color:#010101;stop-opacity:0"
   id="stop17" />
			</radialGradient>
			
		</g>
		<g
   opacity="0.4"
   enable-background="new    "
   id="g33">
			
				<radialGradient
   id="SVGID_3_"
   cx="3.4424"
   cy="513.9732"
   r="133.1784"
   gradientTransform="matrix(-1.4138 -1.4146 0.979 -0.9784 -242.3879 763.7472)"
   gradientUnits="userSpaceOnUse">
				<stop
   offset="0"
   style="stop-color:#010101"
   id="stop24" />
				<stop
   offset="0.8587"
   style="stop-color:#010101;stop-opacity:0.1413"
   id="stop26" />
				<stop
   offset="1"
   style="stop-color:#010101;stop-opacity:0"
   id="stop28" />
			</radialGradient>
			
		</g>
	</g>
	<radialGradient
   id="SVGID_4_"
   cx="295"
   cy="204"
   r="267.0019"
   gradientUnits="userSpaceOnUse">
		<stop
   offset="0"
   style="stop-color:#1ACDFB"
   id="stop37" />
		<stop
   offset="1"
   style="stop-color:#1F77F3"
   id="stop39" />
	</radialGradient>
	
</g>
<g
   id="g48">
	
</g>

<g
   inkscape:groupmode="layer"
   id="layer2"
   inkscape:label="Layer 2"
   style="display:inline" /><g
   inkscape:groupmode="layer"
   id="layer1"
   inkscape:label="Layer 1"
   style="display:inline"><path
     style="fill:#ffffff"
     d="m 307.2,266.4 v -79.7 c 0,-28.3 -22.9,-51.2 -51.2,-51.2 -28.3,0 -51.2,22.9 -51.2,51.2 v 79.7 c -9.9,11.7 -15.8,26.7 -15.8,43.2 0,37 30,67 67,67 37,0 67,-30 67,-67 0,-16.5 -5.9,-31.6 -15.8,-43.2 z m -45.1,41.4 V 330 c 0,3.3 -2.7,6.1 -6.1,6.1 -3.4,0 -6.1,-2.7 -6.1,-6.1 v -22.2 c -4.2,-2.2 -7.1,-6.6 -7.1,-11.7 0,-7.3 5.9,-13.1 13.1,-13.1 7.2,0 13.1,5.9 13.1,13.1 0.1,5.1 -2.7,9.5 -6.9,11.7 z m 32.7,-52.9 c -11,-7.8 -24.3,-12.4 -38.8,-12.4 -14.5,0 -27.9,4.6 -38.8,12.4 v -68.3 c 0,-21.4 17.4,-38.8 38.8,-38.8 21.4,0 38.8,17.4 38.8,38.8 z"
     id="path50"
     inkscape:connector-curvature="0" /></g></svg>