<?xml version="1.0" encoding="utf-8"?>
<!-- Generator: Adobe Illustrator 22.0.1, SVG Export Plug-In . SVG Version: 6.00 Build 0)  -->
<svg version="1.1" id="Layer_3" xmlns="http://www.w3.org/2000/svg" xmlns:xlink="http://www.w3.org/1999/xlink" x="0px" y="0px"
	 viewBox="0 0 512 512" enable-background="new 0 0 512 512" xml:space="preserve">
<linearGradient id="SVGID_1_" gradientUnits="userSpaceOnUse" x1="26" y1="256" x2="486" y2="256">
	<stop  offset="0" style="stop-color:#F7F7F7"/>
	<stop  offset="1" style="stop-color:#F7F7F7"/>
</linearGradient>
<circle fill="url(#SVGID_1_)" cx="256" cy="256" r="230"/>
<g>
	<g>
		<path fill="#D8002A" d="M484.896,233.426c-3.88,3.743-45.944,39.655-231.534,39.655c-117.932,0-217.239-42.684-225.519-46.336
			C26.627,236.326,26,246.09,26,256c0,127.025,102.974,230,230,230s230-102.975,230-230C486,248.382,485.62,240.854,484.896,233.426
			z"/>
		<path fill="#E50526" d="M484.908,233.553c-6.337,9.224-112.211,158.862-231.545,39.528
			C109.787,129.506,36.08,215.089,28.018,225.492C26.695,235.475,26,245.656,26,256c0,127.025,102.974,230,230,230
			s230-102.975,230-230C486,248.426,485.623,240.94,484.908,233.553z"/>
	</g>
</g>
<g>
	<circle opacity="0.95" fill="#CCA68D" enable-background="new    " cx="256" cy="256" r="112.27"/>
	<g opacity="0.95" enable-background="new    ">
		<path fill="#FFFFFF" d="M253.62,345.014c-0.007,0-0.015,0-0.022,0c-2.913-0.028-5.849-0.11-8.726-0.242
			c-1.211-0.055-2.147-1.082-2.092-2.292c0.055-1.211,1.063-2.155,2.292-2.091c2.825,0.129,5.708,0.208,8.568,0.237
			c1.212,0.012,2.184,1.004,2.173,2.215C255.802,344.046,254.822,345.014,253.62,345.014z M263.992,344.896
			c-1.178,0-2.152-0.935-2.191-2.121c-0.039-1.211,0.909-2.226,2.12-2.266c2.877-0.095,5.752-0.243,8.547-0.439
			c1.212-0.082,2.257,0.826,2.342,2.035c0.085,1.208-0.827,2.257-2.035,2.342c-2.848,0.2-5.778,0.35-8.708,0.447
			C264.041,344.896,264.017,344.896,263.992,344.896z M234.627,344.067c-0.067,0-0.135-0.003-0.204-0.009
			c-2.955-0.272-5.877-0.603-8.684-0.985c-1.201-0.164-2.041-1.269-1.878-2.47c0.163-1.201,1.273-2.041,2.469-1.879
			c2.745,0.374,5.603,0.698,8.495,0.964c1.207,0.111,2.095,1.179,1.984,2.385C236.704,343.213,235.748,344.067,234.627,344.067z
			 M282.945,343.48c-1.095,0-2.042-0.818-2.176-1.933c-0.144-1.203,0.715-2.295,1.918-2.439c2.892-0.346,5.736-0.754,8.451-1.213
			c1.199-0.205,2.328,0.603,2.529,1.797c0.202,1.196-0.602,2.328-1.797,2.529c-2.785,0.47-5.7,0.889-8.662,1.244
			C283.12,343.474,283.032,343.48,282.945,343.48z M215.807,341.385c-0.143,0-0.289-0.014-0.435-0.043
			c-3.001-0.604-5.881-1.283-8.56-2.017c-1.169-0.321-1.856-1.528-1.536-2.696c0.321-1.169,1.53-1.854,2.696-1.536
			c2.582,0.708,5.362,1.363,8.265,1.947c1.188,0.239,1.957,1.396,1.718,2.584C217.746,340.666,216.831,341.385,215.807,341.385z
			 M301.662,340.169c-0.986,0-1.883-0.67-2.129-1.671c-0.289-1.177,0.43-2.365,1.607-2.654c2.892-0.71,5.625-1.501,8.12-2.347
			c1.149-0.391,2.393,0.225,2.783,1.372c0.39,1.148-0.225,2.394-1.372,2.783c-2.615,0.888-5.469,1.713-8.484,2.454
			C302.011,340.147,301.835,340.169,301.662,340.169z M197.568,336.096c-0.279,0-0.563-0.054-0.838-0.167
			c-3.053-1.263-5.755-2.652-8.032-4.128c-1.016-0.659-1.306-2.018-0.647-3.035c0.659-1.017,2.019-1.305,3.035-0.647
			c2.053,1.331,4.516,2.594,7.322,3.755c1.12,0.464,1.652,1.747,1.189,2.866C199.246,335.585,198.429,336.096,197.568,336.096z
			 M319.495,333.702c-0.778,0-1.532-0.415-1.93-1.147c-0.578-1.065-0.183-2.397,0.881-2.976c2.669-1.449,4.851-3.013,6.486-4.648
			c0.857-0.857,2.245-0.857,3.102,0c0.857,0.857,0.857,2.245,0,3.102c-1.933,1.933-4.455,3.75-7.494,5.402
			C320.208,333.616,319.849,333.702,319.495,333.702z M182.504,324.994c-0.7,0-1.388-0.333-1.813-0.955
			c-1.534-2.241-2.976-4.924-4.285-7.977c-0.478-1.114,0.037-2.404,1.151-2.882c1.114-0.476,2.403,0.038,2.881,1.151
			c1.198,2.791,2.501,5.224,3.874,7.23c0.684,1,0.429,2.365-0.571,3.05C183.362,324.87,182.931,324.994,182.504,324.994z
			 M332.275,320.21c-0.328,0-0.662-0.075-0.975-0.231c-1.085-0.54-1.527-1.856-0.987-2.941c1.129-2.269,2.193-4.866,3.163-7.721
			c0.391-1.147,1.637-1.763,2.784-1.371c1.148,0.39,1.761,1.636,1.371,2.784c-1.034,3.039-2.174,5.819-3.389,8.262
			C333.857,319.763,333.081,320.21,332.275,320.21z M175.013,307.603c-0.957,0-1.836-0.631-2.11-1.597
			c-0.755-2.665-1.453-5.542-2.077-8.55c-0.246-1.187,0.516-2.348,1.703-2.594c1.184-0.243,2.347,0.517,2.593,1.703
			c0.602,2.906,1.277,5.681,2.002,8.247c0.33,1.166-0.348,2.378-1.513,2.708C175.412,307.576,175.211,307.603,175.013,307.603z
			 M338.361,302.236c-0.164,0-0.33-0.019-0.496-0.057c-1.181-0.273-1.916-1.452-1.643-2.632c0.61-2.635,1.169-5.444,1.661-8.349
			c0.203-1.194,1.336-1.999,2.53-1.796c1.195,0.202,1.999,1.335,1.796,2.53c-0.507,2.99-1.082,5.885-1.712,8.604
			C340.262,301.55,339.36,302.236,338.361,302.236z M171.211,288.983c-1.076,0-2.016-0.792-2.17-1.888
			c-0.394-2.801-0.738-5.721-1.022-8.682c-0.116-1.207,0.768-2.278,1.975-2.394c1.207-0.112,2.278,0.768,2.394,1.974
			c0.278,2.897,0.614,5.753,0.999,8.49c0.169,1.2-0.667,2.31-1.867,2.478C171.415,288.976,171.313,288.983,171.211,288.983z
			 M341.478,283.485c-0.081,0-0.163-0.004-0.245-0.014c-1.204-0.134-2.072-1.219-1.938-2.423c0.309-2.776,0.567-5.643,0.77-8.521
			c0.085-1.209,1.129-2.121,2.343-2.035c1.208,0.086,2.119,1.134,2.035,2.343c-0.207,2.937-0.471,5.863-0.787,8.698
			C343.532,282.656,342.581,283.485,341.478,283.485z M169.455,270.052c-1.162,0-2.132-0.913-2.19-2.086
			c-0.141-2.873-0.233-5.805-0.271-8.717c-0.016-1.212,0.953-2.207,2.165-2.223c0.01,0,0.02,0,0.03,0
			c1.199,0,2.178,0.963,2.194,2.165c0.038,2.859,0.127,5.739,0.266,8.559c0.06,1.21-0.873,2.239-2.083,2.299
			C169.528,270.051,169.491,270.052,169.455,270.052z M342.751,264.514c-0.019,0-0.039,0-0.058-0.001
			c-1.211-0.032-2.167-1.039-2.136-2.25c0.054-2.073,0.081-4.181,0.081-6.263c0.001-0.77-0.003-1.537-0.01-2.303
			c-0.012-1.212,0.961-2.204,2.172-2.216c0.008,0,0.015,0,0.023,0c1.202,0,2.181,0.968,2.193,2.172
			c0.008,0.782,0.011,1.565,0.01,2.349c0,2.118-0.028,4.264-0.083,6.375C344.912,263.569,343.936,264.514,342.751,264.514z
			 M169.273,251.039c-0.022,0-0.044,0-0.066-0.001c-1.211-0.036-2.164-1.046-2.128-2.258c0.086-2.918,0.226-5.85,0.416-8.715
			c0.08-1.209,1.13-2.122,2.335-2.044c1.209,0.081,2.124,1.126,2.044,2.335c-0.187,2.811-0.324,5.689-0.408,8.554
			C171.43,250.099,170.455,251.039,169.273,251.039z M342.498,245.503c-1.159,0-2.127-0.907-2.189-2.078
			c-0.153-2.886-0.36-5.759-0.615-8.538c-0.111-1.207,0.778-2.275,1.985-2.385c1.204-0.104,2.275,0.779,2.384,1.985
			c0.26,2.834,0.471,5.763,0.626,8.706c0.064,1.21-0.864,2.243-2.074,2.307C342.577,245.502,342.538,245.503,342.498,245.503z
			 M170.62,232.074c-0.084,0-0.169-0.005-0.254-0.015c-1.204-0.139-2.067-1.227-1.928-2.431c0.342-2.964,0.747-5.879,1.203-8.665
			c0.196-1.196,1.323-2.008,2.52-1.811c1.196,0.196,2.007,1.324,1.811,2.52c-0.445,2.718-0.84,5.565-1.175,8.459
			C172.668,231.25,171.719,232.074,170.62,232.074z M340.666,226.58c-1.072,0-2.01-0.786-2.168-1.879
			c-0.424-2.913-0.91-5.74-1.445-8.403c-0.238-1.188,0.531-2.344,1.719-2.583c1.19-0.235,2.345,0.531,2.583,1.719
			c0.55,2.74,1.05,5.645,1.484,8.635c0.175,1.199-0.656,2.312-1.855,2.487C340.878,226.573,340.771,226.58,340.666,226.58z
			 M173.831,213.341c-0.168,0-0.34-0.019-0.511-0.06c-1.178-0.281-1.906-1.464-1.625-2.643c0.719-3.015,1.52-5.874,2.382-8.497
			c0.378-1.152,1.619-1.78,2.769-1.4c1.151,0.378,1.778,1.618,1.4,2.769c-0.824,2.508-1.591,5.249-2.283,8.146
			C175.723,212.663,174.824,213.341,173.831,213.341z M336.754,207.985c-0.95,0-1.826-0.622-2.106-1.58
			c-0.839-2.878-1.765-5.55-2.751-7.94c-0.463-1.12,0.07-2.403,1.19-2.865c1.124-0.462,2.404,0.072,2.865,1.191
			c1.046,2.535,2.025,5.357,2.909,8.386c0.339,1.163-0.329,2.381-1.492,2.72C337.163,207.956,336.957,207.985,336.754,207.985z
			 M180.099,195.437c-0.341,0-0.686-0.08-1.01-0.248c-1.076-0.558-1.494-1.883-0.935-2.958c1.582-3.045,3.323-5.604,5.175-7.605
			c0.824-0.889,2.211-0.942,3.101-0.12c0.889,0.823,0.943,2.211,0.12,3.101c-1.586,1.713-3.1,3.95-4.502,6.647
			C181.657,195.006,180.892,195.437,180.099,195.437z M329.02,190.712c-0.68,0-1.35-0.315-1.778-0.907
			c-0.746-1.031-1.524-1.951-2.31-2.737c-0.932-0.932-2.049-1.848-3.323-2.724c-0.998-0.686-1.252-2.052-0.566-3.051
			c0.687-0.999,2.053-1.251,3.051-0.565c1.495,1.027,2.82,2.116,3.941,3.236c0.949,0.949,1.878,2.048,2.76,3.266
			c0.711,0.981,0.492,2.353-0.489,3.064C329.916,190.577,329.467,190.712,329.02,190.712z M193.3,182.267
			c-0.794,0-1.56-0.432-1.95-1.186c-0.557-1.076-0.136-2.4,0.94-2.957c2.417-1.252,5.187-2.428,8.232-3.496
			c1.143-0.402,2.396,0.201,2.796,1.344c0.401,1.143-0.201,2.395-1.344,2.796c-2.852,1.001-5.431,2.095-7.667,3.253
			C193.985,182.188,193.64,182.267,193.3,182.267z M313.658,179.979c-0.271,0-0.546-0.05-0.812-0.157
			c-2.407-0.961-5.091-1.863-7.975-2.681c-1.166-0.331-1.843-1.544-1.512-2.709s1.542-1.843,2.71-1.512
			c3.029,0.86,5.856,1.81,8.404,2.827c1.125,0.449,1.674,1.725,1.225,2.851C315.354,179.456,314.53,179.979,313.658,179.979z
			 M211.205,176.01c-0.993,0-1.893-0.678-2.133-1.686c-0.281-1.179,0.447-2.362,1.626-2.643c2.713-0.646,5.607-1.238,8.6-1.759
			c1.199-0.206,2.33,0.591,2.538,1.785c0.208,1.194-0.591,2.33-1.785,2.538c-2.906,0.506-5.711,1.08-8.337,1.705
			C211.544,175.991,211.373,176.01,211.205,176.01z M295.379,174.841c-0.14,0-0.281-0.013-0.423-0.041
			c-2.674-0.522-5.504-0.995-8.412-1.405c-1.2-0.169-2.035-1.279-1.866-2.479c0.169-1.199,1.273-2.03,2.479-1.866
			c2.982,0.421,5.889,0.906,8.64,1.443c1.189,0.232,1.964,1.385,1.733,2.574C297.325,174.114,296.407,174.841,295.379,174.841z
			 M229.94,172.804c-1.1,0-2.048-0.824-2.177-1.943c-0.139-1.204,0.725-2.292,1.929-2.43c2.828-0.326,5.754-0.601,8.696-0.818
			c1.213-0.094,2.26,0.818,2.35,2.026c0.089,1.208-0.818,2.26-2.026,2.35c-2.883,0.213-5.748,0.482-8.517,0.801
			C230.108,172.799,230.023,172.804,229.94,172.804z M276.548,172.245c-0.064,0-0.129-0.003-0.195-0.009
			c-2.794-0.246-5.667-0.443-8.541-0.585c-1.21-0.06-2.143-1.09-2.083-2.3c0.06-1.211,1.097-2.15,2.3-2.083
			c2.928,0.145,5.859,0.346,8.707,0.597c1.208,0.106,2.1,1.171,1.993,2.378C278.63,171.385,277.672,172.245,276.548,172.245z
			 M248.904,171.464c-1.182,0-2.157-0.941-2.192-2.13c-0.035-1.211,0.918-2.222,2.129-2.257c2.873-0.084,5.809-0.117,8.721-0.1
			c1.212,0.007,2.188,0.995,2.181,2.207c-0.007,1.207-0.988,2.181-2.194,2.181c-0.004,0-0.009,0-0.013,0
			c-2.863-0.016-5.745,0.016-8.567,0.098C248.948,171.464,248.926,171.464,248.904,171.464z"/>
	</g>
	<g opacity="0.9">
		<path fill="#FFFFFF" d="M265.219,214.716l-10.515,36.93c0,0-14.828-13.746-40.171-2.119l10.425-35.769
			C224.959,213.759,247.27,200.258,265.219,214.716z"/>
		<path fill="#FFFFFF" d="M253.153,257.495l-10.515,36.93c0,0-14.828-13.746-40.171-2.119l10.425-35.769
			C212.893,256.537,235.204,243.036,253.153,257.495z"/>
		<path fill="#FFFFFF" d="M258.847,254.375l10.515-36.93c0,0,14.828,14.733,40.171,3.106l-10.425,36.317
			C299.107,256.868,276.796,268.834,258.847,254.375z"/>
		<path fill="#FFFFFF" d="M247.001,296.825l10.515-36.93c0,0,14.718,15.062,40.061,3.435l-10.316,35.988
			C287.261,299.318,264.949,311.284,247.001,296.825z"/>
	</g>
</g>
</svg>
