<?xml version="1.0" encoding="utf-8"?>
<!-- Generator: Adobe Illustrator 22.0.1, SVG Export Plug-In . SVG Version: 6.00 Build 0)  -->
<svg version="1.1" id="Layer_3" xmlns="http://www.w3.org/2000/svg" xmlns:xlink="http://www.w3.org/1999/xlink" x="0px" y="0px"
	 viewBox="0 0 512 512" enable-background="new 0 0 512 512" xml:space="preserve">
<linearGradient id="SVGID_1_" gradientUnits="userSpaceOnUse" x1="26" y1="256" x2="486" y2="256">
	<stop  offset="0" style="stop-color:#F7F7F7"/>
	<stop  offset="1" style="stop-color:#F7F7F7"/>
</linearGradient>
<circle fill="url(#SVGID_1_)" cx="256" cy="256" r="230"/>
<g>
	<g>
		<path fill="#D8002A" d="M484.896,233.426c-3.88,3.743-45.944,39.655-231.534,39.655c-117.932,0-217.239-42.684-225.519-46.336
			C26.627,236.326,26,246.09,26,256c0,127.025,102.974,230,230,230s230-102.975,230-230C486,248.382,485.62,240.854,484.896,233.426
			z"/>
		<path fill="#E50526" d="M484.908,233.553c-6.337,9.224-112.211,158.862-231.545,39.528
			C109.787,129.506,36.08,215.089,28.018,225.492C26.695,235.475,26,245.656,26,256c0,127.025,102.974,230,230,230
			s230-102.975,230-230C486,248.426,485.623,240.94,484.908,233.553z"/>
	</g>
	<polygon fill="#353535" points="319.271,158.49 170.997,306.764 171.012,306.778 158.491,353.51 205.221,340.987 205.236,341.004 
		230.716,315.523 353.509,192.729 	"/>
	<path fill="#D8002A" d="M485.209,233.11c0,0-88.998,117.87-219.959,40.39c-32.507-19.232-53.855-38.815-71.386-50.313
		c18.294,12.221,38.122,28.517,59.499,49.894C376.445,396.163,485.209,233.11,485.209,233.11z"/>
	<path fill="#4C0202" d="M253.363,273.081c-8.647-8.647-17.037-16.454-25.178-23.505l-57.188,57.187l0.015,0.014l-12.521,46.732
		l46.73-12.522l0.014,0.016l25.481-25.481l32.857-32.857C260.182,279.681,256.778,276.497,253.363,273.081z"/>
</g>
</svg>
