<?xml version="1.0" encoding="utf-8"?>
<!-- Generator: Adobe Illustrator 22.0.1, SVG Export Plug-In . SVG Version: 6.00 Build 0)  -->
<svg version="1.1" id="Layer_3" xmlns="http://www.w3.org/2000/svg" xmlns:xlink="http://www.w3.org/1999/xlink" x="0px" y="0px"
	 viewBox="0 0 512 512" enable-background="new 0 0 512 512" xml:space="preserve">
<linearGradient id="SVGID_1_" gradientUnits="userSpaceOnUse" x1="26" y1="256" x2="486" y2="256" gradientTransform="matrix(1 0 0 -1 0 512)">
	<stop  offset="0" style="stop-color:#F7F7F7"/>
	<stop  offset="1" style="stop-color:#F7F7F7"/>
</linearGradient>
<circle fill="url(#SVGID_1_)" cx="256" cy="256" r="230"/>
<g>
	<g>
		<path fill="#D8002A" d="M484.896,233.426c-3.88,3.743-45.944,39.655-231.534,39.655c-117.932,0-217.239-42.684-225.519-46.336
			C26.627,236.326,26,246.09,26,256c0,127.025,102.974,230,230,230s230-102.975,230-230C486,248.382,485.62,240.854,484.896,233.426
			z"/>
		<path fill="#E50526" d="M484.908,233.553c-6.337,9.224-112.211,158.862-231.545,39.528
			C109.787,129.506,36.08,215.089,28.018,225.492C26.695,235.475,26,245.656,26,256c0,127.025,102.974,230,230,230
			s230-102.975,230-230C486,248.426,485.623,240.94,484.908,233.553z"/>
	</g>
</g>
<g>
	<g>
		<path fill="#E2E2E2" d="M256.163,196.064c35.719,0,64.676,28.957,64.676,64.676c0,18.465-7.751,35.109-20.161,46.893
			c25.645,12.21,50.022,13.607,72.154,8.845c3.577-7.44,6.484-15.259,8.59-23.403l36.43-12.933v-38.804l-36.43-12.934
			c-3.063-11.851-7.788-23.032-13.873-33.316l0.049-0.05l16.615-34.906l-27.439-27.439l-34.906,16.614l-0.051,0.05
			c-10.286-6.086-21.468-10.811-33.316-13.872l-12.934-36.431h-38.804l-12.934,36.431c-11.849,3.061-23.032,7.786-33.316,13.873
			l-0.05-0.053l-34.906-16.614l-27.439,27.439l16.614,34.906l0.053,0.05c-0.518,0.875-1.011,1.765-1.509,2.652
			c17.141,5.62,36.222,15.139,57.264,30.006C211.813,208.779,232.499,196.064,256.163,196.064z"/>
		<path fill="#6B0303" d="M94.48,241.337v38.804l36.431,12.934c3.061,11.849,7.788,23.032,13.873,33.316l-0.053,0.051
			l-16.614,34.905l27.439,27.439l34.906-16.615l0.05-0.049c10.286,6.086,21.468,10.809,33.316,13.873l12.934,36.431h38.804
			l12.934-36.431c11.849-3.063,23.032-7.788,33.316-13.873l0.051,0.049l34.906,16.615l27.439-27.439L367.6,326.442l-0.049-0.051
			c1.903-3.216,3.655-6.529,5.283-9.913c-22.132,4.762-46.509,3.365-72.154-8.845c-11.597,11.012-27.261,17.783-44.516,17.783
			c-35.719,0-64.676-28.957-64.676-64.676c0-12.055,3.309-23.334,9.052-32.996c-21.042-14.867-40.123-24.385-57.264-30.006
			c-5.355,9.549-9.563,19.823-12.364,30.664L94.48,241.337z"/>
	</g>
	<path fill="#D8002A" d="M484.912,233.258c0,0-53.144,60.947-118.939,65.459c-46.313,3.176-112.438-25.569-112.438-25.569l0,0
		C376.367,395.981,484.912,233.258,484.912,233.258z"/>
</g>
</svg>
