<?xml version="1.0" encoding="utf-8"?>
<!-- Generator: Adobe Illustrator 22.0.1, SVG Export Plug-In . SVG Version: 6.00 Build 0)  -->
<svg version="1.1" id="Layer_3" xmlns="http://www.w3.org/2000/svg" xmlns:xlink="http://www.w3.org/1999/xlink" x="0px" y="0px"
	 viewBox="0 0 512 512" enable-background="new 0 0 512 512" xml:space="preserve">
<linearGradient id="SVGID_1_" gradientUnits="userSpaceOnUse" x1="26" y1="256" x2="486" y2="256">
	<stop  offset="0" style="stop-color:#F7F7F7"/>
	<stop  offset="1" style="stop-color:#F7F7F7"/>
</linearGradient>
<circle fill="url(#SVGID_1_)" cx="256" cy="256" r="230"/>
<g>
	<path fill="#D8002A" d="M484.896,233.426c-3.88,3.743-45.944,39.655-231.534,39.655c-117.932,0-217.239-42.684-225.519-46.336
		C26.627,236.326,26,246.09,26,256c0,127.025,102.974,230,230,230s230-102.975,230-230C486,248.382,485.62,240.854,484.896,233.426z
		"/>
	<path fill="#E50526" d="M484.908,233.553c-6.337,9.224-112.211,158.862-231.545,39.528
		C109.787,129.506,36.08,215.089,28.018,225.492C26.695,235.475,26,245.656,26,256c0,127.025,102.974,230,230,230
		s230-102.975,230-230C486,248.426,485.623,240.94,484.908,233.553z"/>
</g>
<path fill="#840404" d="M253.363,273.081c-39.211-39.211-73.21-61.329-102.085-72.555l-1.301,1.301l-1.691,1.691l57.771,57.771
	l-57.771,57.771l49.944,49.944l57.771-57.771l57.769,57.77l49.944-49.944l-0.853-0.853
	C329.785,322.31,292.291,312.009,253.363,273.081z"/>
<path d="M362.861,318.205l-2.685-2.685l-22.003-22.003l-32.229-32.229l57.77-57.77l-49.944-49.944l-57.77,57.77l-57.771-57.771
	l-46.952,46.952c28.875,11.226,62.874,33.344,102.085,72.555C292.291,312.009,329.785,322.31,362.861,318.205z"/>
<path fill="#350202" d="M362.858,318.203l-2.683-2.683l-20.642-20.642c-23.176-2.416-48.528-10.29-75.622-26.319
	c-32.507-19.232-52.517-33.874-70.049-45.373c18.294,12.221,38.122,28.517,59.499,49.894
	C292.29,312.008,329.783,322.308,362.858,318.203z"/>
</svg>
