<?xml version="1.0" encoding="utf-8"?>
<!-- Generator: Adobe Illustrator 18.0.0, SVG Export Plug-In . SVG Version: 6.00 Build 0)  -->
<!DOCTYPE svg PUBLIC "-//W3C//DTD SVG 1.1//EN" "http://www.w3.org/Graphics/SVG/1.1/DTD/svg11.dtd">
<svg version="1.1" id="Layer_1" xmlns="http://www.w3.org/2000/svg" xmlns:xlink="http://www.w3.org/1999/xlink" x="0px" y="0px"
	 viewBox="0 0 512 512" style="enable-background:new 0 0 512 512;" xml:space="preserve">
<radialGradient id="SVGID_1_" cx="256" cy="256" r="230" gradientUnits="userSpaceOnUse">
	<stop  offset="0" style="stop-color:#4DFF3F"/>
	<stop  offset="1" style="stop-color:#318A00"/>
</radialGradient>
<circle style="fill:url(#SVGID_1_);" cx="256" cy="256" r="230"/>
<g>
	<path style="display:none;opacity:0.2;fill:#070707;" d="M236,277c13-0.2,35.2-1.8,35.2-1.8l0-31.5l-31.9,4.1
		c-12.7,0-22.2-13.5-19.8-26c1.8-9,3-16.8,19-18.5c21.5-2.2,79.8-5.8,79.8-5.8V166c0,0-81.7,6-81.8,6v0
		c-29.8,0.4-56.2,24.8-55.6,54.6C181.5,261,210.5,277.3,236,277z M237,203.5C237,203.5,237,203.5,237,203.5
		C237,203.5,237,203.5,237,203.5L237,203.5z M237,249.7L237,249.7C237,249.7,237,249.7,237,249.7C237,249.7,237,249.7,237,249.7z"/>
	<path style="opacity:0.2;fill:#070707;" d="M273,319c-17.9,4.1-58,2.3-58,2.3v31.5h56.4h0c0.2,0,0.3,0,0.5,0v0
		c29.8-0.4,59.3-23.5,58.1-53.3c-1.5-36.5-28.3-55.4-58.1-55.8c0,0-55.4,9.3-53.9-21.2c0.6-12.7,6.5-19.5,19-22
		c17.5-3.5,54.5-3,54.5-3V166l-59.5,5c-34,3-58.5,28.5-53,62.5c4.8,29.5,29.5,40,54.5,41.5c8.8,0.5,26.6-0.6,35,0.5
		c19.5,2.5,22.5,15,23,22.5C292.3,310.7,286,316,273,319z M237,197.5C237,197.5,237,197.5,237,197.5C237,197.5,237,197.5,237,197.5
		L237,197.5z M237,243.7C237,243.7,237,243.7,237,243.7C237,243.7,237,243.7,237,243.7L237,243.7z M271.4,275.2L271.4,275.2
		C271.4,275.2,271.4,275.2,271.4,275.2C271.4,275.2,271.4,275.2,271.4,275.2z M271.4,321.3L271.4,321.3
		C271.4,321.3,271.4,321.3,271.4,321.3C271.4,321.3,271.4,321.3,271.4,321.3z"/>
	
		<radialGradient id="SVGID_2_" cx="252.3099" cy="259.4114" r="119.8061" gradientTransform="matrix(-1 0 0 1 506.5038 0)" gradientUnits="userSpaceOnUse">
		<stop  offset="5.102041e-03" style="stop-color:#FFFFFF"/>
		<stop  offset="0.4343" style="stop-color:#FDFDFD"/>
		<stop  offset="0.5889" style="stop-color:#F6F6F6"/>
		<stop  offset="0.6992" style="stop-color:#EBEBEB"/>
		<stop  offset="0.7883" style="stop-color:#DADADA"/>
		<stop  offset="0.8646" style="stop-color:#C4C4C4"/>
		<stop  offset="0.9322" style="stop-color:#A8A8A8"/>
		<stop  offset="0.9919" style="stop-color:#898989"/>
		<stop  offset="1" style="stop-color:#848484"/>
	</radialGradient>
	<path style="fill:url(#SVGID_2_);" d="M271.1,321.3H215v31.5h56.4h0c0.2,0,0.3,0,0.5,0v0c29.8-0.4,53.8-24.7,53.8-54.6
		c0-29.9-24-54.1-53.8-54.6l-34.6,0c-12.7,0-23.1-10.4-23.1-23.1c0-12.7,10.4-23.1,23.1-23.1h54.2V166c0,0-54.9,0-55,0v0
		c-29.8,0.4-53.8,24.7-53.8,54.6c0,29.9,24,54.1,53.8,54.6l34.7,0v0c12.7,0,23,10.4,23,23.1C294.2,311,283.8,321.3,271.1,321.3z
		 M237,197.5C237,197.5,237,197.5,237,197.5C237,197.5,237,197.5,237,197.5L237,197.5z M237,243.7C237,243.7,237,243.7,237,243.7
		C237,243.7,237,243.7,237,243.7L237,243.7z M271.4,275.2L271.4,275.2C271.4,275.2,271.4,275.2,271.4,275.2
		C271.4,275.2,271.4,275.2,271.4,275.2z M271.4,321.3L271.4,321.3C271.4,321.3,271.4,321.3,271.4,321.3
		C271.4,321.3,271.4,321.3,271.4,321.3z"/>
</g>
</svg>
