<?xml version="1.0" encoding="UTF-8" standalone="no"?>
<svg
   xmlns:dc="http://purl.org/dc/elements/1.1/"
   xmlns:cc="http://creativecommons.org/ns#"
   xmlns:rdf="http://www.w3.org/1999/02/22-rdf-syntax-ns#"
   xmlns:svg="http://www.w3.org/2000/svg"
   xmlns="http://www.w3.org/2000/svg"
   xmlns:sodipodi="http://sodipodi.sourceforge.net/DTD/sodipodi-0.dtd"
   xmlns:inkscape="http://www.inkscape.org/namespaces/inkscape"
   viewBox="0 0 640 640"
   height="640"
   width="640"
   xml:space="preserve"
   version="1.1"
   id="svg2"
   sodipodi:docname="wordpress.svg"
   inkscape:version="0.92.3 (2405546, 2018-03-11)"><sodipodi:namedview
     pagecolor="#ffffff"
     bordercolor="#666666"
     borderopacity="1"
     objecttolerance="10"
     gridtolerance="10"
     guidetolerance="10"
     inkscape:pageopacity="0"
     inkscape:pageshadow="2"
     inkscape:window-width="1115"
     inkscape:window-height="903"
     id="namedview109"
     showgrid="false"
     inkscape:zoom="0.52149125"
     inkscape:cx="334.05283"
     inkscape:cy="320"
     inkscape:window-x="803"
     inkscape:window-y="136"
     inkscape:window-maximized="0"
     inkscape:current-layer="svg2" /><metadata
     id="metadata8"><rdf:RDF><cc:Work
         rdf:about=""><dc:format>image/svg+xml</dc:format><dc:type
           rdf:resource="http://purl.org/dc/dcmitype/StillImage" /></cc:Work></rdf:RDF></metadata><defs
     id="defs6"><clipPath
       id="clipPath16"
       clipPathUnits="userSpaceOnUse"><path
         id="path18"
         d="M 0,512 512,512 512,0 0,0 0,512 Z" /></clipPath><clipPath
       id="clipPath24"
       clipPathUnits="userSpaceOnUse"><path
         id="path26"
         d="m 18.325,493.744 475.4,0 0,-475.4877 -475.4,0 0,475.4877 z" /></clipPath><clipPath
       id="clipPath28"
       clipPathUnits="userSpaceOnUse"><path
         id="path30"
         d="M 448.99,63.029 C 389.293,3.332 122.807,3.332 63.11,63.029 3.413,122.726 3.413,389.312 63.01,449.009 c 59.597,59.696 326.283,59.596 385.98,0 59.697,-59.597 59.597,-326.283 0,-385.98" /></clipPath><radialGradient
       id="radialGradient36"
       spreadMethod="pad"
       gradientTransform="matrix(237.72188,0,0,237.72188,256.02499,256)"
       gradientUnits="userSpaceOnUse"
       r="1"
       cy="0"
       cx="0"
       fy="0"
       fx="0"><stop
         id="stop38"
         offset="0"
         style="stop-opacity:1;stop-color:#ffffff" /><stop
         id="stop40"
         offset="0.8587"
         style="stop-opacity:0.14129854;stop-color:#ffffff" /><stop
         id="stop42"
         offset="1"
         style="stop-opacity:0;stop-color:#ffffff" /></radialGradient><mask
       id="mask44"
       height="1"
       width="1"
       y="0"
       x="0"
       maskUnits="userSpaceOnUse"><g
         id="g46"><g
           id="g48"><g
             id="g50"><g
               id="g52"><path
                 id="path54"
                 style="fill:url(#radialGradient36);stroke:none"
                 d="m -32768,32767 65535,0 0,-65535 -65535,0 0,65535 z" /></g></g></g></g></mask><radialGradient
       id="radialGradient56"
       spreadMethod="pad"
       gradientTransform="matrix(237.72188,0,0,237.72188,256.02499,256)"
       gradientUnits="userSpaceOnUse"
       r="1"
       cy="0"
       cx="0"
       fy="0"
       fx="0"><stop
         id="stop58"
         offset="0"
         style="stop-opacity:1;stop-color:#010101" /><stop
         id="stop60"
         offset="0.8587"
         style="stop-opacity:1;stop-color:#010101" /><stop
         id="stop62"
         offset="1"
         style="stop-opacity:1;stop-color:#010101" /></radialGradient><clipPath
       id="clipPath86"
       clipPathUnits="userSpaceOnUse"><path
         id="path88"
         d="m 18.325,493.744 475.4,0 0,-475.4877 -475.4,0 0,475.4877 z" /></clipPath><clipPath
       id="clipPath90"
       clipPathUnits="userSpaceOnUse"><path
         id="path92"
         d="M 448.99,63.029 C 389.293,3.332 122.807,3.332 63.11,63.029 3.413,122.726 3.413,389.312 63.01,449.009 c 59.597,59.696 326.283,59.596 385.98,0 59.697,-59.597 59.597,-326.283 0,-385.98" /></clipPath><radialGradient
       id="radialGradient98"
       spreadMethod="pad"
       gradientTransform="matrix(188.25467,188.36119,-130.35883,130.27895,256.02499,256.04376)"
       gradientUnits="userSpaceOnUse"
       r="1"
       cy="0"
       cx="0"
       fy="0"
       fx="0"><stop
         id="stop100"
         offset="0"
         style="stop-opacity:1;stop-color:#ffffff" /><stop
         id="stop102"
         offset="0.8587"
         style="stop-opacity:0.14129854;stop-color:#ffffff" /><stop
         id="stop104"
         offset="1"
         style="stop-opacity:0;stop-color:#ffffff" /></radialGradient><mask
       id="mask106"
       height="1"
       width="1"
       y="0"
       x="0"
       maskUnits="userSpaceOnUse"><g
         id="g108"><g
           id="g110"><g
             id="g112"><g
               id="g114"><path
                 id="path116"
                 style="fill:url(#radialGradient98);stroke:none"
                 d="m -32768,32767 65535,0 0,-65535 -65535,0 0,65535 z" /></g></g></g></g></mask><radialGradient
       id="radialGradient118"
       spreadMethod="pad"
       gradientTransform="matrix(188.25467,188.36119,-130.35883,130.27895,256.02499,256.04376)"
       gradientUnits="userSpaceOnUse"
       r="1"
       cy="0"
       cx="0"
       fy="0"
       fx="0"><stop
         id="stop120"
         offset="0"
         style="stop-opacity:1;stop-color:#010101" /><stop
         id="stop122"
         offset="0.8587"
         style="stop-opacity:1;stop-color:#010101" /><stop
         id="stop124"
         offset="1"
         style="stop-opacity:1;stop-color:#010101" /></radialGradient><clipPath
       id="clipPath148"
       clipPathUnits="userSpaceOnUse"><path
         id="path150"
         d="m 18.275,493.694 475.387,0 0,-475.4377 -475.387,0 0,475.4377 z" /></clipPath><clipPath
       id="clipPath152"
       clipPathUnits="userSpaceOnUse"><path
         id="path154"
         d="m 63.01,63.029 c 59.697,-59.697 326.183,-59.697 385.88,0 59.697,59.697 59.697,326.183 0,385.88 -59.697,59.696 -326.183,59.696 -385.88,0.1 -59.697,-59.597 -59.597,-326.283 0,-385.98" /></clipPath><radialGradient
       id="radialGradient160"
       spreadMethod="pad"
       gradientTransform="matrix(-188.28767,188.39421,130.38168,130.30179,255.92499,255.99377)"
       gradientUnits="userSpaceOnUse"
       r="1"
       cy="0"
       cx="0"
       fy="0"
       fx="0"><stop
         id="stop162"
         offset="0"
         style="stop-opacity:1;stop-color:#ffffff" /><stop
         id="stop164"
         offset="0.8587"
         style="stop-opacity:0.14129854;stop-color:#ffffff" /><stop
         id="stop166"
         offset="1"
         style="stop-opacity:0;stop-color:#ffffff" /></radialGradient><mask
       id="mask168"
       height="1"
       width="1"
       y="0"
       x="0"
       maskUnits="userSpaceOnUse"><g
         id="g170"><g
           id="g172"><g
             id="g174"><g
               id="g176"><path
                 id="path178"
                 style="fill:url(#radialGradient160);stroke:none"
                 d="m -32768,32767 65535,0 0,-65535 -65535,0 0,65535 z" /></g></g></g></g></mask><radialGradient
       id="radialGradient180"
       spreadMethod="pad"
       gradientTransform="matrix(-188.28767,188.39421,130.38168,130.30179,255.92499,255.99377)"
       gradientUnits="userSpaceOnUse"
       r="0.85869998"
       cy="0"
       cx="0"
       fy="0"
       fx="0"><stop
         id="stop182"
         offset="0"
         style="stop-opacity:1;stop-color:#010101" /><stop
         id="stop184"
         offset="1"
         style="stop-opacity:1;stop-color:#010101" /></radialGradient></defs><g
     transform="matrix(2.0125702,0,0,-2.0125702,-195.21797,835.21954)"
     id="g10"><g
       id="g12"><g
         clip-path="url(#clipPath16)"
         id="g14"><g
           id="g20"><g
             id="g22" /><g
             id="g64"><g
               style="opacity:0.39999402"
               id="g66"
               clip-path="url(#clipPath24)"><g
                 id="g68"><g
                   id="g70"
                   clip-path="url(#clipPath28)"><g
                     id="g72"><g
                       id="g74" /><g
                       id="g76"
                       mask="url(#mask44)"><g
                         id="g78" /></g></g></g></g></g></g></g><g
           id="g82"><g
             id="g84" /><g
             id="g126"><g
               style="opacity:0.39999402"
               id="g128"
               clip-path="url(#clipPath86)"><g
                 id="g130"><g
                   id="g132"
                   clip-path="url(#clipPath90)"><g
                     id="g134"><g
                       id="g136" /><g
                       id="g138"
                       mask="url(#mask106)"><g
                         id="g140" /></g></g></g></g></g></g></g><g
           id="g144"><g
             id="g146" /><g
             id="g188"><g
               style="opacity:0.39999402"
               id="g190"
               clip-path="url(#clipPath148)"><g
                 id="g192"><g
                   id="g194"
                   clip-path="url(#clipPath152)"><g
                     id="g196"><g
                       id="g198" /><g
                       id="g200"
                       mask="url(#mask168)"><g
                         id="g202" /></g></g></g></g></g></g></g><g
           transform="translate(433.2792,78.7208)"
           id="g206" /><g
           transform="translate(132.7514,256)"
           id="g210"><path
             id="path212"
             style="fill:#004b75;fill-opacity:1;fill-rule:nonzero;stroke:none"
             d="M 0,0 C 0,-49.187 28.833,-91.648 70.512,-111.414 L 11.074,51.111 C 3.967,35.54 0,18.232 0,0"
             inkscape:connector-curvature="0" /></g><g
           transform="translate(220.1579,138.0553)"
           id="g214"><path
             id="path216"
             style="fill:#004b75;fill-opacity:1;fill-rule:nonzero;stroke:none"
             d="m 0,0 c 11.343,-3.444 23.375,-5.304 35.842,-5.304 14.475,0 28.364,2.505 41.266,7.092 L 37.969,108.81 Z"
             inkscape:connector-curvature="0" /></g><g
           transform="translate(197.7387,322.8792)"
           id="g218"><path
             id="path220"
             style="fill:#004b75;fill-opacity:1;fill-rule:nonzero;stroke:none"
             d="m 0,0 v -7.378 c 0,-0.677 -0.529,-1.23 -1.177,-1.23 h -14.271 c -1.596,0 -2.268,-0.963 -1.708,-2.613 l 44.76,-131.853 27.236,82.229 -18.107,49.513 c -0.657,1.796 -1.437,2.724 -4.223,2.724 H 19.985 c -0.648,0 -1.177,0.554 -1.177,1.23 V 0 c 0,0.676 0.531,1.258 1.177,1.229 23.307,-1.039 46.758,-1.031 70.347,0 C 90.978,1.257 91.509,0.676 91.509,0 v -7.378 c 0,-0.677 -0.529,-1.23 -1.177,-1.23 H 77.876 c -2.47,0 -3.265,-1.142 -2.583,-3.15 l 44.061,-129.79 16.178,49.243 c 19.56,59.536 -16.735,65.836 -15.833,95.435 0.446,14.641 11.179,21.032 21.932,20.747 C 119.686,44.048 90.411,56.369 58.26,56.369 14.912,56.369 -23.211,33.976 -45.182,0.131 -31.181,0.274 -16.151,0.434 -1.178,1.23 -0.531,1.263 0,0.677 0,0"
             inkscape:connector-curvature="0" /></g><g
           transform="translate(256,121.188)"
           id="g222"><path
             style="fill:#004b75;fill-opacity:1;fill-rule:nonzero;stroke:none;stroke-width:1.25"
             d="m 320,140.83203 c -98.93375,0 -179.16602,80.23422 -179.16602,179.16797 0,98.93375 80.23227,179.16602 179.16602,179.16602 98.93375,0 179.16602,-80.23227 179.16602,-179.16602 0,-98.93375 -80.23227,-179.16797 -179.16602,-179.16797 z m 0,10.65235 c 93.05125,0 168.51563,75.46312 168.51562,168.51562 0,93.05125 -75.46312,168.51563 -168.51562,168.51562 -93.0525,0 -168.51562,-75.46437 -168.51562,-168.51562 0,-93.0525 75.46437,-168.51563 168.51562,-168.51562 z"
             transform="matrix(0.8,0,0,-0.8,-256,390.812)"
             id="path224"
             inkscape:connector-curvature="0" /></g><g
           transform="translate(364.4004,314.6862)"
           id="g226"><path
             id="path228"
             style="fill:#004b75;fill-opacity:1;fill-rule:nonzero;stroke:none"
             d="m 0,0 c 0.675,-18.336 -4.852,-41.105 -10.803,-57.957 l -38.445,-108.869 c 38.193,20.94 64.096,61.519 64.096,108.141 C 14.848,-37.441 9.47,-17.45 0,0"
             inkscape:connector-curvature="0" /></g></g></g></g></svg>