<?xml version="1.0" encoding="utf-8"?>
<!-- Generator: Adobe Illustrator 22.0.1, SVG Export Plug-In . SVG Version: 6.00 Build 0)  -->
<svg version="1.1" id="Layer_1" xmlns="http://www.w3.org/2000/svg" xmlns:xlink="http://www.w3.org/1999/xlink" x="0px" y="0px"
	 viewBox="0 0 512 512" enable-background="new 0 0 512 512" xml:space="preserve">
<circle fill="#1E1E1D" cx="256" cy="256" r="230"/>
<g transform="matrix(3.931,0,0,-3.931,6.88,432.3)">
	<path id="path46" fill="#82C223" d="M47.559,55.168l-0.614-4.236h-3.709c-2.254,0-4.341-0.799-6.261-2.392
		c-0.506-0.418-0.957-0.854-1.359-1.317c-0.226,0.464-0.506,0.899-0.848,1.317c-1.313,1.593-3.107,2.392-5.361,2.392h-4.793
		c-0.172-0.895,0-1.656,0.506-2.288c0.511-0.632,1.209-0.953,2.108-0.953h1.569c1.343,0,2.392-0.481,3.149-1.451
		c0.757-0.969,1.012-2.132,0.757-3.475c-0.255-1.347-0.941-2.492-2.066-3.45c-1.125-0.953-2.371-1.438-3.709-1.438h-1.569
		c-0.899,0-1.719-0.309-2.471-0.941s-1.217-1.389-1.385-2.288h4.809c2.254,0,4.329,0.786,6.247,2.367
		c0.502,0.414,0.957,0.858,1.355,1.321c0.226-0.464,0.519-0.907,0.866-1.321c1.313-1.581,3.091-2.367,5.344-2.367h4.809
		c0.172,0.899,0,1.656-0.511,2.288c-0.511,0.632-1.221,0.941-2.116,0.941h-1.555c-1.347,0-2.401,0.485-3.162,1.438
		c-0.765,0.957-1.02,2.104-0.761,3.45c0.255,1.343,0.949,2.505,2.078,3.475c1.129,0.971,2.371,1.451,3.713,1.451h1.569
		c0.874,0,1.677,0.313,2.417,0.916l-0.848-5.805c-0.339-2.292,0.196-4.232,1.619-5.838c1.389-1.631,3.257-2.433,5.516-2.433
		c2.3,0,4.391,0.803,6.273,2.433c1.882,1.606,3.011,3.546,3.346,5.838c0.335,2.296-0.21,4.236-1.589,5.842
		c-1.422,1.593-3.303,2.405-5.603,2.405h-4.893l0.083,0.64c0.167,0.945-0.042,1.773-0.669,2.459
		C49.294,54.833,48.513,55.168,47.559,55.168z M49.922,47.757h4.935c1.338,0,2.425-0.468,3.261-1.438
		c0.753-0.966,1.046-2.158,0.878-3.517c-0.21-1.359-0.836-2.522-1.924-3.501c-1.088-0.987-2.3-1.488-3.68-1.488
		s-2.467,0.502-3.261,1.488c-0.795,0.979-1.088,2.141-0.92,3.501L49.922,47.757z"/>
	<path id="path48" fill="#FFFFFF" d="M71.751,51.048c-2.3,0-4.391-0.807-6.231-2.417c-1.882-1.635-3.011-3.572-3.346-5.867
		l-1.213-8.234c0.961,0,1.84,0.322,2.593,1.008c0.795,0.673,1.254,1.488,1.38,2.455l0.711,4.771c0.21,1.371,0.836,2.546,1.924,3.542
		c1.088,0.971,2.342,1.451,3.68,1.451c1.38,0,2.467-0.481,3.261-1.451c0.795-0.995,1.088-2.17,0.878-3.542l-0.669-4.771
		c-0.167-0.949,0.083-1.744,0.669-2.429c0.585-0.682,1.338-1.033,2.3-1.033l1.213,8.234c0.167,1.371,0.836,2.546,1.924,3.542
		c1.088,0.971,2.3,1.451,3.68,1.451c1.338,0,2.425-0.481,3.22-1.451c0.795-0.995,1.129-2.17,0.92-3.542l-0.711-4.771
		c-0.125-0.949,0.083-1.744,0.669-2.429c0.585-0.682,1.338-1.033,2.3-1.033l0.585,3.856c0.251-0.506,0.543-0.987,0.961-1.438
		c1.422-1.61,3.261-2.417,5.52-2.417h4.893c0.125,0.907-0.083,1.686-0.628,2.33c-0.543,0.636-1.296,0.953-2.175,0.953H98.47
		c-1.38,0-2.467,0.493-3.261,1.464c-0.836,0.966-1.129,2.128-0.961,3.487c0.21,1.371,0.878,2.546,1.965,3.542
		c1.088,0.971,2.342,1.451,3.68,1.451h1.589c0.92,0,1.756,0.339,2.509,0.979c0.711,0.64,1.129,1.397,1.254,2.312h-4.851
		c-2.3,0-4.349-0.807-6.231-2.417c-0.92-0.803-1.672-1.682-2.217-2.639c-0.251,0.961-0.753,1.844-1.422,2.639
		c-1.422,1.61-3.261,2.417-5.562,2.417c-1.254,0-2.509-0.297-3.764-0.874c-1.254-0.577-2.384-1.351-3.303-2.367
		c-0.669,1.016-1.547,1.815-2.593,2.392C74.218,50.76,73.047,51.048,71.751,51.048L71.751,51.048z"/>
</g>
</svg>
