<?xml version="1.0" encoding="utf-8"?>
<!-- Generator: Adobe Illustrator 22.0.1, SVG Export Plug-In . SVG Version: 6.00 Build 0)  -->
<svg version="1.1" id="Layer_1" xmlns="http://www.w3.org/2000/svg" xmlns:xlink="http://www.w3.org/1999/xlink" x="0px" y="0px"
	 viewBox="0 0 512 512" enable-background="new 0 0 512 512" xml:space="preserve">
<g id="g214" transform="translate(196.0381,206.0318)">
	<path id="path212" d="M290,50c0,127-103,230-230,230S-170,177-170,50s103-230,230-230S290-77.1,290,50"/>
	<path id="path216" fill="#FFFFFF" d="M-20.3,116.9c-36.9,0-66.9-30-66.9-66.9c0-36.9,30-66.9,66.9-66.9c36.9,0,66.9,30,66.9,66.9
		C46.6,86.9,16.6,116.9-20.3,116.9 M155.7-42.3c-5-0.8-10.1-1.4-15.4-1.4c-3.8,0-7.6,0.3-11.4,0.7v0c4.3,7.1,7.6,14.8,9.9,22.9
		c0.3,1,0.6,2.1,0.8,3.2c0.2,0,0.4,0,0.6,0c5.3,0,10.4,0.7,15.4,1.9c29.5,7,51.5,33.5,51.5,65.1c0,36.9-30,66.9-66.9,66.9
		c-36.9,0-66.9-30-66.9-66.9c0-17.6-4.9-34-13.4-48.1C43.6-25.4,13.8-43.7-20.3-43.7C-72.1-43.7-114-1.8-114,50
		c0,51.7,41.9,93.7,93.7,93.7c34.1,0,63.9-18.3,80.3-45.6c16.4,27.3,46.2,45.6,80.3,45.6c51.7,0,93.7-41.9,93.7-93.7
		C233.9,3.5,200-35,155.7-42.3"/>
</g>
</svg>
