<?xml version="1.0" encoding="utf-8"?>
<!-- Generator: Adobe Illustrator 22.0.1, SVG Export Plug-In . SVG Version: 6.00 Build 0)  -->
<svg version="1.1" id="Layer_1" xmlns="http://www.w3.org/2000/svg" xmlns:xlink="http://www.w3.org/1999/xlink" x="0px" y="0px"
	 viewBox="0 0 512 512" enable-background="new 0 0 512 512" xml:space="preserve">
<g id="g928" transform="matrix(0.986517,0,0,0.986517,376.851,327.941)">
	<path id="rect910" fill="#333333" d="M58.719-249.002c0-25.896-21.025-46.92-46.921-46.92h-267.735
		c-25.896,0-46.92,21.024-46.92,46.92v352.447c0,25.896,21.024,46.921,46.92,46.921H11.798c25.896,0,46.921-21.025,46.921-46.921
		V-249.002z"/>
	<path id="rect914" fill="#262626" d="M-256.568-305.922c-31.011,0-56.289,25.277-56.289,56.287v353.713
		c0,31.011,25.278,56.287,56.289,56.287h269c31.01,0,56.287-25.276,56.287-56.287v-353.713c0-31.01-25.277-56.287-56.287-56.287
		H-256.568z M-256.568-285.922h269c20.276,0,36.287,16.011,36.287,36.287v353.713c0,20.277-16.011,36.287-36.287,36.287h-269
		c-20.277,0-36.289-16.01-36.289-36.287v-353.713C-292.857-269.911-276.845-285.922-256.568-285.922z"/>
</g>
<g>
	<g id="g210" transform="translate(218.8167,332.2)">
		<path id="path212" fill="#E8E8E8" d="M-13.296-170.45h-57.708L79.623,19.987h57.709L-13.296-170.45z"/>
	</g>
	<path id="path228" opacity="0.4" fill="#1C1C1C" d="M351.852,175.866l-15.926-17.535L159.064,319.017l-14.429,44.984l0.062,0.004
		l46.099-10.047l0.062,0.004l176.86-160.625L351.852,175.866z"/>
	<g id="g230" transform="translate(206.6344,179.975)">
		<path id="path232" fill="#FFFFFF" d="M-16.341,172.056h0.062L152.659,3.119l-16.688-16.688L-61.904,184.306L-16.341,172.056z"/>
	</g>
	<g id="g234" transform="translate(179.9344,206.675)">
		<path id="path236" fill="#BCBCBC" d="M-23.016,111.981L-23.016,111.981l-12.25,45.625h0.062L162.671-40.269l-16.75-16.75
			L-23.016,111.981z"/>
	</g>
</g>
</svg>
