<?xml version="1.0" encoding="UTF-8" standalone="no"?>
<svg
   xmlns:dc="http://purl.org/dc/elements/1.1/"
   xmlns:cc="http://creativecommons.org/ns#"
   xmlns:rdf="http://www.w3.org/1999/02/22-rdf-syntax-ns#"
   xmlns:svg="http://www.w3.org/2000/svg"
   xmlns="http://www.w3.org/2000/svg"
   id="svg934"
   version="1.1"
   viewBox="0 0 135.46666 135.46666"
   height="512"
   width="512">
  <defs
     id="defs928" />
  <metadata
     id="metadata931">
    <rdf:RDF>
      <cc:Work
         rdf:about="">
        <dc:format>image/svg+xml</dc:format>
        <dc:type
           rdf:resource="http://purl.org/dc/dcmitype/StillImage" />
        <dc:title></dc:title>
      </cc:Work>
    </rdf:RDF>
  </metadata>
  <g
     transform="translate(0,-161.53336)"
     id="layer1">
    <g
       id="g1519"
       transform="matrix(0.40447562,0,0,-0.40447562,49.56356,195.3866)">
      <path
         style="fill:#ff0000;fill-opacity:1;fill-rule:nonzero;stroke:none;stroke-width:1.25"
         d="m 263.84766,215.29688 -48.54688,48.54687 56.1543,56.1543 -56.1543,56.15429 48.54688,48.54883 56.15429,-56.15625 56.1543,56.1543 48.54687,-48.54688 -56.15429,-56.15429 56.15429,-56.1543 -48.54687,-48.54687 -56.1543,56.15429 z"
         transform="matrix(0.8,0,0,-0.8,-211.0782,172.2372)"
         id="path216" />
      <path
         transform="translate(44.9218,-221.664)"
         id="path212"
         style="fill:#ff0000;fill-opacity:1;fill-rule:nonzero;stroke:none"
         d="m 0,0 c -75.947,0 -137.514,61.567 -137.514,137.514 0,75.947 61.567,137.515 137.514,137.515 C 75.946,275.03 137.514,213.461 137.514,137.514 137.514,61.567 75.946,0 0,0 m 0,288.353 c -83.092,0 -150.452,-67.36 -150.452,-150.452 0,-83.092 67.36,-150.452 150.452,-150.452 83.092,0 150.452,67.36 150.452,150.452 0,83.092 -67.36,150.452 -150.452,150.452" />
    </g>
  </g>
</svg>
