<?xml version="1.0" encoding="utf-8"?>
<!-- Generator: Adobe Illustrator 22.0.1, SVG Export Plug-In . SVG Version: 6.00 Build 0)  -->
<svg version="1.1" id="Layer_3" xmlns="http://www.w3.org/2000/svg" xmlns:xlink="http://www.w3.org/1999/xlink" x="0px" y="0px"
	 viewBox="0 0 512 512" enable-background="new 0 0 512 512" xml:space="preserve">
<path display="none" fill="#FFFFFF" d="M209.4,174.7c0.9,0,1.7,0.2,2.5,0.7l132.2,76.3c1.5,0.9,2.5,2.5,2.5,4.3c0,1.8-1,3.4-2.5,4.3
	l-132.2,76.3c-0.8,0.4-1.6,0.7-2.5,0.7s-1.7-0.2-2.5-0.7c-1.5-0.9-2.5-2.5-2.5-4.3V179.7c0-1.8,1-3.4,2.5-4.3
	C207.7,174.9,208.6,174.7,209.4,174.7 M209.4,154.7c-4.4,0-8.7,1.2-12.5,3.4c-7.7,4.4-12.5,12.7-12.5,21.6v152.7
	c0,8.9,4.8,17.2,12.5,21.7c3.8,2.2,8.1,3.3,12.5,3.3s8.7-1.2,12.5-3.3l132.2-76.3c7.7-4.5,12.5-12.8,12.5-21.7
	c0-8.9-4.8-17.2-12.5-21.7L221.9,158C218.1,155.8,213.8,154.7,209.4,154.7L209.4,154.7z"/>
<g>
	<g>
		
			<linearGradient id="SVGID_1_" gradientUnits="userSpaceOnUse" x1="-59.0158" y1="340.8901" x2="382.2198" y2="340.8901" gradientTransform="matrix(0.866 -0.5 0.5 0.866 -54.3964 41.5817)">
			<stop  offset="0" style="stop-color:#FE9105"/>
			<stop  offset="1" style="stop-color:#FE5F38"/>
		</linearGradient>
		<path fill="url(#SVGID_1_)" d="M256,476.6c-11.7,0-23.2-3.1-33.4-8.9L89.3,390.8c-20.6-11.9-33.4-34-33.4-57.8V179.1
			c0-23.8,12.8-45.9,33.4-57.8l133.3-76.9c10.1-5.9,21.7-8.9,33.4-8.9s23.2,3.1,33.4,8.9l133.3,76.9c20.6,11.9,33.4,34,33.4,57.8
			v153.9c0,23.8-12.8,45.9-33.4,57.8l-133.3,76.9C279.2,473.6,267.7,476.6,256,476.6z"/>
		<path fill="#FFFFFF" d="M256,45.4c9.9,0,19.8,2.6,28.4,7.6l133.3,76.9c17.5,10.1,28.4,28.9,28.4,49.2v153.9
			c0,20.2-10.9,39-28.4,49.2L284.4,459c-8.6,5-18.4,7.6-28.4,7.6s-19.8-2.6-28.4-7.6L94.3,382.1C76.8,372,66,353.2,66,332.9V179.1
			c0-20.2,10.9-39,28.4-49.2L227.6,53C236.2,48,246.1,45.4,256,45.4 M256,25.4c-13.3,0-26.5,3.4-38.4,10.3L84.3,112.6
			C60.6,126.3,46,151.6,46,179.1v153.9c0,27.4,14.6,52.8,38.4,66.5l133.3,76.9c11.9,6.9,25.1,10.3,38.4,10.3
			c13.3,0,26.5-3.4,38.4-10.3l133.3-76.9c23.7-13.7,38.4-39.1,38.4-66.5V179.1c0-27.4-14.6-52.8-38.4-66.5L294.4,35.6
			C282.5,28.8,269.3,25.4,256,25.4L256,25.4z"/>
	</g>
	<g>
		<path fill="#FFFFFF" d="M256,186.2v139.5l102.6-59.2c8.1-4.7,8.1-16.4,0-21L256,186.2z"/>
		<path fill="#E2E2E2" d="M240.2,213.6v84.8L166.8,256L240.2,213.6 M256,186.2l-101.6,58.7c-8.5,4.9-8.5,17.3,0,22.2L256,325.8
			V186.2L256,186.2z"/>
	</g>
</g>
</svg>
