<?xml version="1.0" encoding="utf-8"?>
<!-- Generator: Adobe Illustrator 22.0.1, SVG Export Plug-In . SVG Version: 6.00 Build 0)  -->
<svg version="1.1" id="Layer_3" xmlns="http://www.w3.org/2000/svg" xmlns:xlink="http://www.w3.org/1999/xlink" x="0px" y="0px"
	 viewBox="0 0 512 512" enable-background="new 0 0 512 512" xml:space="preserve">
<circle fill="#6C18C4" cx="256" cy="256" r="230"/>
<g>
	<path fill="#FFFFFF" d="M395.7,223.5L395.7,223.5L395.7,223.5c0,0-0.5-0.1-0.9-0.1c-2.1,0-4.2,1.2-4.2,4.4
		c-1.2,15.8-2.5,31.6-4.7,46.7l0,0c0,0,0,0,0,0v0l0,0c1.3-0.2,2.3,0.1,3.3,0.5l0,0c2.4-15.3,8.2-38.3,9.6-44.7
		c0.2-0.9,0.5-2,0.5-2.8C399.3,225.2,397.9,223.9,395.7,223.5z"/>
	<path fill="#FFFFFF" d="M243.6,229.7c0.4,8.2,0.6,16.3,0.7,24.5c-9.8,0.2-19.6,0.2-29.3,0c0-8.2,0.3-16.3,0.7-24.5
		c-2.9,0.7-5.8,0.7-8.8,0c0.8,17.5,0.7,35,0,52.5c2.8-0.7,5.8-0.7,8.7,0l0,0l0,0c-0.4-8.1-0.6-16.3-0.7-24.4
		c9.8-0.1,19.6-0.1,29.3,0c0,8.1-0.2,16.3-0.7,24.4l0,0l0,0c3-0.7,5.9-0.7,8.7,0c-0.7-17.5-0.8-35,0-52.5
		C249.3,230.4,246.4,230.4,243.6,229.7z"/>
	<path fill="#FFFFFF" d="M181.1,229.7L181.1,229.7L181.1,229.7c-2.2,0.8-4,0.7-6.1,0l0,0c-7,17.7-15.2,37.6-22.5,52.5l0,0l0,0l0,0
		c0,0,0,0,0,0l0.1,0l0,0c3.3-0.8,6.5-0.6,8.6,0c0,0,0,0,0,0l0,0c1.9-4.7,4-10,6.1-15.4l0,0c7.2-0.2,14.3-0.2,21.5,0l0,0
		c2,5.1,4.1,10.3,6.1,15.4l0,0c3.2-0.8,6.4-0.6,8.7,0l0,0C198.4,272.4,187.8,246.7,181.1,229.7z M178.1,238.8
		c2.9,8.1,6.1,16.2,9.3,24.4l0,0c-6.2,0.2-12.4,0.2-18.6,0l0,0C172.6,253.5,176.2,244.2,178.1,238.8z"/>
	<path fill="#FFFFFF" d="M165.2,222.7C165.2,222.7,165.2,222.7,165.2,222.7L165.2,222.7c-3.2,0.7-6,0.7-8.8,0
		c-2.5,4.6-11.7,19.6-17.5,29.2c-5.9-9.8-12.9-21.1-17.5-29.2c-3.6,0.8-5.1,0.8-8.8,0c7.2,10.8,18.7,31.4,22.6,38.1l-0.5,28.2
		c0,0,2.5-0.4,4.2-0.4c1.9,0,4.2,0.4,4.2,0.4l-0.5-28.2C149.9,248.1,161.9,227.2,165.2,222.7z"/>
	<path fill="#FFFFFF" d="M283.1,229c-18.6,0-28.3,11.8-28.3,27c0,16.7,10.6,26.9,28.3,26.9c19.1,0,28.4-11.5,28.4-26.7
		C311.5,239.2,300.4,229,283.1,229z M283.2,280c-12.4,0-19.6-8.9-19.6-23.8c0-16.9,9-23.7,19.1-23.9c0.2,0,0.3,0,0.5,0
		c11.4,0,19.7,7.7,19.7,23.9C302.8,272.2,294.5,280,283.2,280z"/>
	<path fill="#FFFFFF" d="M347.2,225.9c-18.5,0-32.6,10.5-32.6,30c0,16.1,9.4,30.2,32.8,30.2c19.8,0,32.7-10.9,32.7-29.9
		C380.1,238.2,368,225.9,347.2,225.9z M323.3,255.8c0-20.6,12.6-26.6,23.9-26.6c13.9,0,24.1,8.4,24.1,27c0,20.2-12.4,26.8-24.1,26.8
		C334.7,282.9,323.3,275.6,323.3,255.8z"/>
	<path fill="#FFFFFF" d="M385.6,280.9c-2.8,0-4.1,2.1-4.1,4.4c0,2.7,2.1,4,4.8,4c1.9,0,4-1.2,4-4.3
		C390.2,282.5,388.3,280.9,385.6,280.9z"/>
</g>
</svg>
