<?xml version="1.0" encoding="utf-8"?>
<!-- Generator: Adobe Illustrator 22.0.1, SVG Export Plug-In . SVG Version: 6.00 Build 0)  -->
<svg version="1.1" id="Layer_1" xmlns="http://www.w3.org/2000/svg" xmlns:xlink="http://www.w3.org/1999/xlink" x="0px" y="0px"
	 viewBox="0 0 512 512" enable-background="new 0 0 512 512" xml:space="preserve">
<circle fill="#FFD7D7" cx="256" cy="256" r="230"/>
<path fill="#6B1010" d="M338.9,41.4L256,200.9L173.5,41.3C145.6,52,120.3,68,98.9,88l110.6,201.1v192.2c15,3.1,30.6,4.7,46.5,4.7
	c15.9,0,31.5-1.6,46.5-4.7V289.1L413.1,88C391.8,68.1,366.6,52.1,338.9,41.4z"/>
<g>
	<circle fill="#3F1C1C" cx="256" cy="256" r="195.5"/>
	<g>
		<path fill="#FFFFFF" d="M440.9,284.8l6.6-1.1c-0.6,1.7,0.1,3.2,1.4,4.2c1.7-10.4,2.6-21.1,2.6-32c0-64.9-31.6-122.4-80.3-158
			c-5.1,3.7-10.1,7.4-12.3,11.5c-15.9,29.5-51.1,25.3-55,45.9c-0.5,2.8-0.7,6.6-3.6,6.2c-7.7-1,26.2-23.8-17.5-27.2
			c-7.3-0.6-23.5,11.8-26,18.7c-1.3,3.5-8.2,19-7.4,22.7c1,4.8,22,5,18.9,10.4c-0.7,1.2-1.7,2.2-2.8,3c-4.3,2.9-9.6,2.8-14.4,4.3
			c-11.5,3.7-18,15.6-24,25.7c-1.1,1.9-1.5,4.1-1,6.2c1.5,6.5,11.3,8.9,15,4.4c22.9-28.4,17.5,0.7,30.9-2.9c6.3-1.7,6.1,4,12.5,6.2
			c3.1,1.1,8.8-4,10.2-1.1c3.6,7.1,11,5.7,4.7,7.8c-5,1.6-10.6-0.7-15.7,0.7c-17.3,4.6-31.8-8.7-45-3.9s-28.3,23.5-30.6,37.4
			c-0.6,3.7,5.9,15.8,7.4,19.3c2.8,7,16.7,3.9,23.8,6.2c7.1,2.3,8.5,2,14.4,6.7c10,7.8,12.1,21.9,12.4,34.6s0.1,26.4,7.3,36.8
			c1.1,1.5,2.4,3.1,4,4c4.2,2.4,9.5,0.8,13.7-1.9c11-6.9,21.2-30.3,32.6-39.4c10.1-8.1-2.9-17.1,5-27.4c6.1-8,15-14.9,16.4-24.8
			c-3.7-1-7.4-2.5-10.7-4.5c2.5-1,5.4-2.7,6.9-2.9c7.4-0.5,11.4-9.1,17.1-13.4c0.4-0.3,0.9-0.8,1.3-1.2c2.1-2.8-7.7-2.9-9.9-4.7
			c-7.6-6.3-8.6-10.7-17-15.9c12.2-5.7,5.4,5.3,17.9,10.5c3,1.2,18.9-0.9,25.2,4.8c6.2,5.7,8.8,6,9.6,12.5
			c1.2,8.4,7.7,14.5,12.5,21.5c5.7-4.1,7.4-11.3,10.2-17.8c2.8-6.5,5.4-15.2,12.6-15.9c6-0.6,8.8,11.3,10,17.2
			c1.2,5.9,8.5-2.3,8.5,11.9c0,4.7,2.7,7.1,5.7,10.8c0.4,0.5,0.7,1.1,0.9,1.7c0.5-2,0.9-4,1.4-6
			C442.9,294.7,439.3,293.3,440.9,284.8z M310.8,245.4c5.7,0,6.3,12.8,7.7,18.3c0.7,2.5,1.4,5.4,2.5,8.3
			C315.1,264.4,311.2,255.1,310.8,245.4z"/>
		<path fill="#FFFFFF" d="M151.9,100.4c6.7,11.3,8.7,25.3,5.4,38.1c-1,3.8-2.5,7.6-2.6,11.6c0,4.8,2.1,9.3,4.2,13.6
			c0.5,1.1,1.1,2.3,2,3.1c3.1,2.5,7.6-0.4,10.2-3.4c7.6-8.5,14.2-19.3,25.2-22.4c2.2-0.6,4.6-0.9,6.3-2.6c1.2-1.2,1.8-2.8,2.3-4.4
			c3.6-11.5,3.7-24,8.5-35c2-4.8,0.3-14.6,5.5-14.4c20.7,0.8,1-9.5-3.8-15.1c-1.1-1.3-2-2.6-3.1-4.1c-22.9,5.3-44.3,14.5-63.3,27.1
			C148.7,95.4,150.4,98,151.9,100.4z"/>
		<g>
			<path fill="#FFFFFF" d="M155.4,313.5c-12.8-4.8-14.7-13.6-25.1-22.4c-2.3-2-4.5-4-7.3-5.1c-2.4-0.9-4.9-1-7.5-1.1
				c-7.7-0.3-18.2,5.1-25.8,4.8c-3.9-0.2-6.5-4.9-6.7-0.9c-16.6-9.8-8.4-17.3-14.3-23.4c-0.8-0.9-7.1,5.5-7.6,4.3
				c-0.1-0.3-0.2-0.6-0.3-0.9c0.3,4.9,0.8,9.9,1.5,14.7c2.7,2.2,5.6,4.3,8.8,6.1c4.8,2.6,10,4.3,14.4,7.6s0.1,4.2-1,9.4
				c-0.8,4-3.1,5.9-4.5,9.6c-2.1,5.8,7.2,18,11.1,23c3.8,4.8,8.9,8.6,13.1,13.1c1.4,1.5,2.9,3.3,3.5,5.4c0.5,1.8,0.3,3.7,0.3,5.5
				c-0.5,6.2-1,12.4-1.4,18.6c5.7,6.7,11.8,13.1,18.4,19c10.8-11.4,14.7-23.7,23.9-37.5c3-4.5,17.5-6.7,19.2-11.8
				c1.4-4.2,1.9-8.7,2.3-13c0.6-5.4,5.7-4.9,6.3-10.3c0.3-2.5-5.9-8.7-7.4-10.8C167.8,315.7,157.5,314.3,155.4,313.5z"/>
			<path fill="#FFFFFF" d="M60.8,266.8c0.2-1.6,0.8-3.2,1.4-4.8c1.3-3.1,2.6-6.4,5.2-8.6s6.7-2.9,9.3-0.6c2.6,2.4,3.3,7.4,6.8,7.3
				c5.1-3.9,3.9-11.9,6.5-17.8c1.4-3.2,4.1-5.8,6.7-8.2c7.2-6.5,8.6-17.2,16.9-22.1c9.5-5.7,27.5-7.4,28.2-18.4
				c0.3-4.9-1.7-9.8-3.7-14.3c-4-9.1-7-5.8-11-14.9c-6,0.5-12.9-10.5-18.6-8.2c-1.9,0.8-3.8,1.6-5.2,3.2c-1.2,1.4,2.4,15.6,1.6,17.4
				c-2.9,7.3-6.8,17-22.8-3.2c-0.8-1-1.4-2-2-3.1c-12.7,25.8-19.7,54.7-19.7,85.4C60.5,259.7,60.6,263.2,60.8,266.8z"/>
		</g>
	</g>
</g>
</svg>
