<?xml version="1.0" encoding="utf-8"?>
<!-- Generator: Adobe Illustrator 22.0.1, SVG Export Plug-In . SVG Version: 6.00 Build 0)  -->
<svg version="1.1" id="Layer_3" xmlns="http://www.w3.org/2000/svg" xmlns:xlink="http://www.w3.org/1999/xlink" x="0px" y="0px"
	 viewBox="0 0 512 512" enable-background="new 0 0 512 512" xml:space="preserve">
<g>
	<g>
		<rect x="31.2" y="23.4" width="6.3" height="458.1"/>
	</g>
	<g>
		<rect x="43" y="23.4" width="1.6" height="458.1"/>
	</g>
	<g>
		<rect x="50" y="23.4" width="12.6" height="458.1"/>
	</g>
	<g>
		<rect x="68.1" y="23.4" width="3.1" height="458.1"/>
	</g>
	<g>
		<rect x="76.8" y="23.4" width="4.6" height="458.1"/>
	</g>
	<g>
		<rect x="86.2" y="23.4" width="7.9" height="458.1"/>
	</g>
	<g>
		<rect x="102" y="23.2" width="7.9" height="396.1"/>
	</g>
	<g>
		<rect x="116.1" y="23.2" width="5.5" height="396.1"/>
	</g>
	<g>
		<rect x="126.4" y="23.2" width="8.7" height="396.1"/>
	</g>
	<g>
		<rect x="139.7" y="23.2" width="13" height="396.1"/>
	</g>
	<g>
		<rect x="157.7" y="23.2" width="25.6" height="398"/>
	</g>
	<g>
		<rect x="196.9" y="23.2" width="12.1" height="396.1"/>
	</g>
	<g>
		<rect x="215.8" y="23.2" width="6.3" height="396.1"/>
	</g>
	<g>
		<rect x="227.6" y="23.2" width="1.6" height="396.1"/>
	</g>
	<g>
		<rect x="234.7" y="23.2" width="12.6" height="396.1"/>
	</g>
	<g>
		<rect x="252.8" y="23.2" width="3.1" height="396.1"/>
	</g>
	<g>
		<rect x="261.4" y="23.2" width="4.6" height="396.1"/>
	</g>
	<g>
		<rect x="270.9" y="23.2" width="7.9" height="396.1"/>
	</g>
	<g>
		<rect x="286.6" y="23.2" width="7.9" height="396.1"/>
	</g>
	<g>
		<rect x="300.8" y="23.2" width="5.5" height="396.1"/>
	</g>
	<g>
		<rect x="311" y="23.2" width="8.7" height="396.1"/>
	</g>
	<g>
		<rect x="324.4" y="23.2" width="13" height="396.1"/>
	</g>
	<g>
		<rect x="342.8" y="22.2" width="25.6" height="398"/>
	</g>
	<g>
		<rect x="382.1" y="22.2" width="12.1" height="396.1"/>
	</g>
	<g>
		<rect x="401" y="22.2" width="6.3" height="396.1"/>
	</g>
	<g>
		<rect x="412.8" y="22.2" width="1.6" height="396.1"/>
	</g>
	<g>
		<rect x="419.9" y="22.2" width="12.6" height="396.1"/>
	</g>
	<g>
		<rect x="438" y="22.2" width="3.1" height="396.1"/>
	</g>
	<g>
		<rect x="446.6" y="22.2" width="4.6" height="396.1"/>
	</g>
	<g>
		<rect x="456.1" y="22.2" width="7.9" height="396.1"/>
	</g>
	<g>
		<rect x="471.8" y="22.2" width="7.9" height="396.1"/>
	</g>
	<g enable-background="new    ">
		<path d="M133.5,462.8c0,12.5-4.6,19.4-12.7,19.4c-7.1,0-12-6.7-12.1-18.9c0-12.4,5.3-19.2,12.7-19.2
			C129.1,444.1,133.5,451.1,133.5,462.8z M113.7,463.4c0,9.6,2.9,15,7.4,15c5.1,0,7.5-6,7.5-15.4c0-9.1-2.3-15-7.4-15
			C116.8,448,113.7,453.3,113.7,463.4z"/>
		<path d="M138.1,481.6v-3.1l3.9-3.8c9.3-9,13.6-13.7,13.6-19.3c0-3.7-1.8-7.2-7.3-7.2c-3.3,0-6.1,1.7-7.8,3.1l-1.6-3.5
			c2.5-2.2,6.1-3.7,10.3-3.7c7.9,0,11.2,5.4,11.2,10.7c0,6.8-4.9,12.3-12.6,19.8l-2.9,2.7v0.1h16.4v4.1H138.1z"/>
		<path d="M182.2,481.6v-10h-17v-3.3l16.3-23.5h5.3v22.9h5.1v3.9h-5.1v10H182.2z M182.2,467.7v-12.3c0-1.9,0.1-3.9,0.2-5.8h-0.2
			c-1.1,2.2-2,3.7-3,5.4l-8.9,12.5v0.1H182.2z"/>
		<path d="M216.6,448.3c-1-0.1-2.3,0-3.7,0.2c-7.8,1.3-11.9,7-12.7,13.1h0.2c1.7-2.3,4.8-4.3,8.8-4.3c6.5,0,11,4.7,11,11.9
			c0,6.7-4.6,13-12.1,13c-7.8,0-12.9-6.1-12.9-15.7c0-7.3,2.6-13,6.2-16.6c3-3,7.1-4.9,11.7-5.4c1.5-0.2,2.7-0.3,3.6-0.3V448.3z
			 M215.2,469.5c0-5.3-3-8.4-7.5-8.4c-3,0-5.7,1.9-7.1,4.5c-0.3,0.6-0.6,1.3-0.6,2.2c0.1,6.1,2.9,10.5,8,10.5
			C212.4,478.4,215.2,474.8,215.2,469.5z"/>
		<path d="M224.2,472.3c0-4.6,2.8-7.9,7.3-9.9l-0.1-0.2c-4-1.9-5.8-5.1-5.8-8.3c0-5.8,4.9-9.8,11.3-9.8c7.1,0,10.6,4.5,10.6,9.1
			c0,3.1-1.5,6.5-6,8.6v0.2c4.6,1.8,7.4,5,7.4,9.5c0,6.4-5.5,10.7-12.4,10.7C228.8,482.2,224.2,477.6,224.2,472.3z M243.9,472
			c0-4.5-3.1-6.6-8-8c-4.3,1.2-6.6,4.1-6.6,7.6c-0.2,3.7,2.6,7,7.3,7C241,478.6,243.9,475.8,243.9,472z M230.3,453.6
			c0,3.7,2.8,5.7,7,6.8c3.1-1.1,5.6-3.3,5.6-6.7c0-2.9-1.7-6-6.2-6C232.5,447.7,230.3,450.4,230.3,453.6z"/>
		<path d="M275.3,449h-13.9l-1.4,9.5c0.8-0.1,1.6-0.2,3-0.2c2.8,0,5.6,0.6,7.9,2c2.9,1.6,5.2,4.8,5.2,9.5c0,7.2-5.7,12.6-13.6,12.6
			c-4,0-7.4-1.1-9.1-2.3l1.2-3.8c1.5,0.9,4.5,2,7.8,2c4.7,0,8.7-3.1,8.7-8c-0.1-4.8-3.2-8.2-10.5-8.2c-2.1,0-3.7,0.2-5.1,0.4
			l2.4-17.7h17.5V449z"/>
		<path d="M297.6,481.6v-10h-17v-3.3l16.3-23.5h5.3v22.9h5.1v3.9h-5.1v10H297.6z M297.6,467.7v-12.3c0-1.9,0.1-3.9,0.2-5.8h-0.2
			c-1.1,2.2-2,3.7-3,5.4l-8.9,12.5v0.1H297.6z"/>
		<path d="M333,449h-13.9l-1.4,9.5c0.8-0.1,1.6-0.2,3-0.2c2.8,0,5.6,0.6,7.9,2c2.9,1.6,5.2,4.8,5.2,9.5c0,7.2-5.7,12.6-13.6,12.6
			c-4,0-7.4-1.1-9.1-2.3l1.2-3.8c1.5,0.9,4.5,2,7.8,2c4.7,0,8.7-3.1,8.7-8c-0.1-4.8-3.2-8.2-10.5-8.2c-2.1,0-3.7,0.2-5.1,0.4
			l2.4-17.7H333V449z"/>
		<path d="M360.9,448.3c-1-0.1-2.3,0-3.7,0.2c-7.8,1.3-11.9,7-12.7,13.1h0.2c1.7-2.3,4.8-4.3,8.8-4.3c6.5,0,11,4.7,11,11.9
			c0,6.7-4.6,13-12.1,13c-7.8,0-12.9-6.1-12.9-15.7c0-7.3,2.6-13,6.2-16.6c3-3,7.1-4.9,11.7-5.4c1.5-0.2,2.7-0.3,3.6-0.3V448.3z
			 M359.5,469.5c0-5.3-3-8.4-7.5-8.4c-3,0-5.7,1.9-7.1,4.5c-0.3,0.6-0.6,1.3-0.6,2.2c0.1,6.1,2.9,10.5,8,10.5
			C356.6,478.4,359.5,474.8,359.5,469.5z"/>
		<path d="M370.1,475.9c1.4,0.9,4.7,2.3,8.1,2.3c6.4,0,8.3-4.1,8.3-7.1c-0.1-5.2-4.7-7.4-9.4-7.4h-2.8V460h2.8
			c3.6,0,8.2-1.9,8.2-6.2c0-2.9-1.9-5.6-6.4-5.6c-2.9,0-5.7,1.3-7.3,2.4l-1.3-3.6c1.9-1.4,5.6-2.8,9.6-2.8c7.2,0,10.5,4.3,10.5,8.8
			c0,3.8-2.2,7-6.7,8.7v0.1c4.5,0.9,8.2,4.3,8.2,9.5c0,5.9-4.6,11.1-13.3,11.1c-4.1,0-7.7-1.3-9.5-2.5L370.1,475.9z"/>
		<path d="M397.7,481.6v-3.1l3.9-3.8c9.3-9,13.6-13.7,13.6-19.3c0-3.7-1.8-7.2-7.3-7.2c-3.3,0-6.1,1.7-7.8,3.1l-1.6-3.5
			c2.5-2.2,6.1-3.7,10.3-3.7c7.9,0,11.2,5.4,11.2,10.7c0,6.8-4.9,12.3-12.6,19.8l-2.9,2.7v0.1h16.4v4.1H397.7z"/>
		<path d="M441.9,481.6v-10h-17v-3.3l16.3-23.5h5.3v22.9h5.1v3.9h-5.1v10H441.9z M441.9,467.7v-12.3c0-1.9,0.1-3.9,0.2-5.8h-0.2
			c-1.1,2.2-2,3.7-3,5.4l-8.9,12.5v0.1H441.9z"/>
		<path d="M455,472.3c0-4.6,2.8-7.9,7.3-9.9l-0.1-0.2c-4-1.9-5.8-5.1-5.8-8.3c0-5.8,4.9-9.8,11.3-9.8c7.1,0,10.6,4.5,10.6,9.1
			c0,3.1-1.5,6.5-6,8.6v0.2c4.6,1.8,7.4,5,7.4,9.5c0,6.4-5.5,10.7-12.4,10.7C459.6,482.2,455,477.6,455,472.3z M474.7,472
			c0-4.5-3.1-6.6-8-8c-4.3,1.2-6.6,4.1-6.6,7.6c-0.2,3.7,2.6,7,7.3,7C471.8,478.6,474.7,475.8,474.7,472z M461.1,453.6
			c0,3.7,2.8,5.7,7,6.8c3.1-1.1,5.6-3.3,5.6-6.7c0-2.9-1.7-6-6.2-6C463.3,447.7,461.1,450.4,461.1,453.6z"/>
	</g>
</g>
</svg>
