<?xml version="1.0" encoding="utf-8"?>
<!-- Generator: Adobe Illustrator 18.0.0, SVG Export Plug-In . SVG Version: 6.00 Build 0)  -->
<!DOCTYPE svg PUBLIC "-//W3C//DTD SVG 1.1//EN" "http://www.w3.org/Graphics/SVG/1.1/DTD/svg11.dtd">
<svg version="1.1" id="Layer_1" xmlns="http://www.w3.org/2000/svg" xmlns:xlink="http://www.w3.org/1999/xlink" x="0px" y="0px"
	 viewBox="0 0 512 512" style="enable-background:new 0 0 512 512;" xml:space="preserve">
<g id="g2303">
	<path id="path1948" style="fill:#044AAF;" d="M254.3,26c-18.8,0.1-36.7,1.7-52.4,4.5c-46.4,8.2-54.9,25.4-54.9,57v41.8h109.7v13.9
		H147h-41.2c-31.9,0-59.8,19.2-68.6,55.6c-10.1,41.8-10.5,67.9,0,111.5c7.8,32.5,26.4,55.6,58.3,55.6h37.7V316
		c0-36.2,31.3-68.2,68.6-68.2h109.6c30.5,0,54.9-25.1,54.9-55.8V87.5c0-29.7-25.1-52.1-54.9-57C292.6,27.3,273.1,25.9,254.3,26z
		 M194.9,59.6c11.3,0,20.6,9.4,20.6,21c0,11.5-9.3,20.8-20.6,20.8c-11.4,0-20.6-9.3-20.6-20.8C174.4,69.1,183.6,59.6,194.9,59.6z"/>
	<path id="path1950" style="fill:#FFCE00;" d="M380,143.3V192c0,37.8-32,69.6-68.6,69.6H201.8c-30,0-54.9,25.7-54.9,55.8v104.5
		c0,29.7,25.9,47.2,54.9,55.8c34.7,10.2,68,12.1,109.6,0c27.6-8,54.9-24.1,54.9-55.8V380H256.7v-13.9h109.6h54.9
		c31.9,0,43.8-22.2,54.9-55.6c11.5-34.4,11-67.4,0-111.5c-7.9-31.8-22.9-55.6-54.9-55.6H380L380,143.3z M318.4,407.9
		c11.4,0,20.6,9.3,20.6,20.8c0,11.6-9.2,21-20.6,21c-11.3,0-20.6-9.4-20.6-21C297.8,417.2,307,407.9,318.4,407.9z"/>
</g>
</svg>
