<?xml version="1.0" encoding="utf-8"?>
<!-- Generator: Adobe Illustrator 18.0.0, SVG Export Plug-In . SVG Version: 6.00 Build 0)  -->
<!DOCTYPE svg PUBLIC "-//W3C//DTD SVG 1.1//EN" "http://www.w3.org/Graphics/SVG/1.1/DTD/svg11.dtd">
<svg version="1.1" id="Layer_1" xmlns="http://www.w3.org/2000/svg" xmlns:xlink="http://www.w3.org/1999/xlink" x="0px" y="0px"
	 viewBox="0 0 512 512" style="enable-background:new 0 0 512 512;" xml:space="preserve">
<g>
	<g id="Layer_2">
		<g>
			<path style="opacity:0.4;" d="M486,286.744c0,50.064-38.64,90.648-86.304,90.648H112.304C64.64,377.392,26,336.806,26,286.744
				v-49.153c0-50.064,38.64-90.648,86.304-90.648h287.393c47.664,0,86.304,40.585,86.304,90.648V286.744z"/>
			<path style="fill:#F7F7F7;" d="M486,274.41c0,50.064-38.64,90.648-86.304,90.648H112.304C64.64,365.058,26,324.473,26,274.41
				v-49.154c0-50.064,38.64-90.648,86.304-90.648h287.393c47.664,0,86.304,40.585,86.304,90.648V274.41z"/>
		</g>
	</g>
	<g id="Layer_3_copy">
		<g>
			<circle style="fill:#F15922;" cx="377.67" cy="200.919" r="23.015"/>
			<circle style="fill:#F15922;" cx="377.67" cy="301.081" r="23.015"/>
			<circle style="fill:#F15922;" cx="327.589" cy="251" r="23.015"/>
			<circle style="fill:#F15922;" cx="427.751" cy="251" r="23.015"/>
			<path style="fill:#020202;" d="M184.411,227.985h-27.066v-27.066c0-12.71-10.305-23.015-23.015-23.015
				s-23.015,10.305-23.015,23.015v27.066H84.249c-12.71,0-23.015,10.305-23.015,23.015c0,12.71,10.305,23.015,23.015,23.015h27.066
				v27.066c0,12.71,10.305,23.015,23.015,23.015s23.015-10.305,23.015-23.015v-27.066h27.066c12.71,0,23.015-10.305,23.015-23.015
				C207.426,238.29,197.121,227.985,184.411,227.985z"/>
		</g>
	</g>
</g>
</svg>
