<?xml version="1.0" encoding="utf-8"?>
<!-- Generator: Adobe Illustrator 18.0.0, SVG Export Plug-In . SVG Version: 6.00 Build 0)  -->
<!DOCTYPE svg PUBLIC "-//W3C//DTD SVG 1.1//EN" "http://www.w3.org/Graphics/SVG/1.1/DTD/svg11.dtd">
<svg version="1.1" id="Layer_1" xmlns="http://www.w3.org/2000/svg" xmlns:xlink="http://www.w3.org/1999/xlink" x="0px" y="0px"
	 viewBox="0 0 512 512" enable-background="new 0 0 512 512" xml:space="preserve">
<g>
	<path fill="#56E48E" d="M118.8,385.8c0-0.5,0-1,0.1-1.6c0-0.6,0.1-1.2,0.1-1.8c0-0.5,0.1-1,0.1-1.5c0-0.6,0.1-1.2,0.2-1.8
		c0-0.5,0.1-1,0.1-1.5c0.1-0.6,0.1-1.2,0.2-1.8c0.1-0.5,0.1-1,0.2-1.5c0.1-0.6,0.2-1.2,0.3-1.9c0.1-0.5,0.1-0.9,0.2-1.4
		c0.1-0.6,0.2-1.3,0.3-1.9c0.1-0.4,0.1-0.9,0.2-1.3c0.1-0.7,0.3-1.4,0.4-2.1c0.1-0.4,0.1-0.8,0.2-1.1c0.2-0.8,0.4-1.7,0.5-2.5
		c0-0.2,0.1-0.4,0.1-0.7c0.2-1.1,0.5-2.1,0.8-3.2c0-0.1,0.1-0.2,0.1-0.4c0.2-0.9,0.5-1.9,0.7-2.8c0.1-0.3,0.2-0.6,0.3-1
		c0.2-0.7,0.4-1.5,0.6-2.2c0.1-0.4,0.2-0.7,0.3-1.1c0.2-0.7,0.4-1.3,0.6-2c0.1-0.4,0.3-0.8,0.4-1.2c0.2-0.6,0.4-1.3,0.7-1.9
		c0.1-0.4,0.3-0.8,0.5-1.2c0.2-0.6,0.4-1.2,0.7-1.8c0.2-0.4,0.3-0.8,0.5-1.3c0.2-0.6,0.5-1.2,0.7-1.8c0.2-0.4,0.4-0.8,0.5-1.3
		c0.2-0.6,0.5-1.2,0.7-1.7c0.2-0.4,0.4-0.8,0.6-1.3c0.3-0.6,0.5-1.1,0.8-1.7c0.2-0.4,0.4-0.8,0.6-1.3c0.3-0.6,0.5-1.1,0.8-1.7
		c0.2-0.4,0.4-0.8,0.6-1.2c0.3-0.6,0.6-1.1,0.9-1.7c0.2-0.4,0.4-0.8,0.7-1.2c0.3-0.6,0.6-1.1,0.9-1.6c0.2-0.4,0.5-0.8,0.7-1.2
		c0.3-0.5,0.6-1.1,0.9-1.6c0.2-0.4,0.5-0.8,0.7-1.2c0.3-0.5,0.7-1.1,1-1.6c0.2-0.4,0.5-0.8,0.7-1.2c0.3-0.5,0.7-1.1,1.1-1.6
		c0.2-0.4,0.5-0.8,0.8-1.1c0.4-0.5,0.7-1.1,1.1-1.6c0.3-0.4,0.5-0.7,0.8-1.1c0.4-0.6,0.8-1.1,1.2-1.7c0.2-0.3,0.5-0.7,0.7-1
		c0.4-0.6,0.9-1.2,1.3-1.7c0.2-0.3,0.5-0.6,0.7-0.9c0.5-0.6,1-1.3,1.5-1.9c0.2-0.2,0.4-0.4,0.5-0.7c1.4-1.7,2.9-3.4,4.4-5.1
		c0.2-0.2,0.4-0.4,0.6-0.7c0.5-0.5,1-1.1,1.5-1.6h-0.1l0.1-0.1c-0.7,0-1.4,0-2-0.1c-0.4,0-0.7,0-1.1,0c-2.2-0.1-4.4-0.3-6.6-0.5
		c-0.3,0-0.6-0.1-0.9-0.1c-0.8-0.1-1.6-0.2-2.4-0.3c-0.4,0-0.8-0.1-1.2-0.2c-0.7-0.1-1.4-0.2-2.1-0.3c-0.4-0.1-0.8-0.1-1.3-0.2
		c-0.7-0.1-1.3-0.2-2-0.3c-0.4-0.1-0.9-0.2-1.3-0.2c-0.6-0.1-1.3-0.2-1.9-0.4c-0.4-0.1-0.9-0.2-1.3-0.3c-0.6-0.1-1.3-0.3-1.9-0.4
		c-0.4-0.1-0.9-0.2-1.3-0.3c-0.6-0.1-1.2-0.3-1.9-0.4c-0.4-0.1-0.9-0.2-1.3-0.3c-0.6-0.2-1.2-0.3-1.8-0.5c-0.4-0.1-0.9-0.2-1.3-0.4
		c-0.6-0.2-1.2-0.3-1.8-0.5c-0.4-0.1-0.9-0.3-1.3-0.4c-0.6-0.2-1.2-0.4-1.8-0.6c-0.4-0.1-0.9-0.3-1.3-0.4c-0.6-0.2-1.2-0.4-1.8-0.6
		c-0.4-0.2-0.9-0.3-1.3-0.5c-0.6-0.2-1.2-0.4-1.8-0.7c-0.4-0.2-0.9-0.3-1.3-0.5c-0.6-0.2-1.2-0.5-1.8-0.7c-0.4-0.2-0.8-0.3-1.2-0.5
		c-0.6-0.2-1.2-0.5-1.8-0.8c-0.4-0.2-0.8-0.4-1.2-0.5c-0.6-0.3-1.2-0.5-1.8-0.8c-0.4-0.2-0.8-0.4-1.2-0.5c-0.6-0.3-1.2-0.6-1.8-0.9
		c-0.4-0.2-0.7-0.4-1.1-0.5c-0.6-0.3-1.3-0.7-1.9-1c-0.3-0.2-0.7-0.3-1-0.5c-0.7-0.4-1.4-0.8-2.1-1.1c-0.3-0.1-0.5-0.3-0.8-0.4
		c-0.9-0.5-1.8-1-2.6-1.5c-0.1,0-0.1-0.1-0.2-0.1c-0.9-0.6-1.9-1.1-2.8-1.7c-0.2-0.1-0.3-0.2-0.5-0.3c-0.8-0.5-1.5-1-2.3-1.5
		c-0.3-0.2-0.6-0.4-0.9-0.6c-0.6-0.4-1.2-0.8-1.8-1.2c-0.3-0.2-0.7-0.5-1-0.7c-0.5-0.4-1.1-0.8-1.6-1.2c-0.4-0.3-0.7-0.6-1.1-0.8
		c-0.5-0.4-1-0.8-1.5-1.2c-0.4-0.3-0.8-0.6-1.1-0.9c-0.5-0.4-1-0.8-1.5-1.2c-0.4-0.3-0.8-0.6-1.1-1c-0.5-0.4-0.9-0.8-1.4-1.2
		c-0.4-0.3-0.8-0.7-1.1-1c-0.5-0.4-0.9-0.8-1.4-1.2c-0.4-0.3-0.8-0.7-1.1-1c-0.4-0.4-0.9-0.8-1.3-1.2c-0.4-0.4-0.8-0.7-1.1-1.1
		c-0.2-0.2-0.5-0.4-0.7-0.7c-24.5,25-38,58-38.1,93c24.9,24.6,57.7,38.4,92.7,38.8c0-0.3,0-0.6,0-0.9c0-0.5,0-1,0-1.6
		C118.8,386.9,118.8,386.4,118.8,385.8z"/>
	<path fill="#0CDEB6" d="M250.7,444.7c-0.3-0.4-0.7-0.7-1-1.1c-0.4-0.5-0.8-0.9-1.2-1.4c-0.3-0.4-0.6-0.7-1-1.1
		c-0.4-0.5-0.8-0.9-1.2-1.4c-0.3-0.4-0.6-0.7-0.9-1.1c-0.4-0.5-0.8-1-1.2-1.5c-0.3-0.4-0.6-0.7-0.9-1.1c-0.4-0.5-0.8-1-1.2-1.5
		c-0.3-0.4-0.5-0.7-0.8-1.1c-0.4-0.5-0.8-1.1-1.2-1.7c-0.2-0.3-0.5-0.7-0.7-1c-0.4-0.6-0.8-1.2-1.3-1.8c-0.2-0.3-0.4-0.6-0.6-0.9
		c-0.5-0.8-1-1.5-1.5-2.3c-0.1-0.2-0.2-0.3-0.3-0.5c-0.6-0.9-1.2-1.9-1.7-2.8c0-0.1-0.1-0.1-0.1-0.2c-0.5-0.9-1-1.8-1.5-2.6
		c-0.1-0.3-0.3-0.5-0.4-0.8c-0.4-0.7-0.8-1.4-1.1-2.1c-0.2-0.3-0.3-0.7-0.5-1c-0.3-0.6-0.7-1.3-1-1.9c-0.2-0.4-0.4-0.7-0.5-1.1
		c-0.3-0.6-0.6-1.2-0.9-1.8c-0.2-0.4-0.4-0.8-0.5-1.2c-0.3-0.6-0.6-1.2-0.8-1.8c-0.2-0.4-0.4-0.8-0.5-1.2c-0.3-0.6-0.5-1.2-0.8-1.8
		c-0.2-0.4-0.3-0.8-0.5-1.2c-0.2-0.6-0.5-1.2-0.7-1.8c-0.2-0.4-0.3-0.8-0.5-1.3c-0.2-0.6-0.4-1.2-0.7-1.8c-0.2-0.4-0.3-0.9-0.5-1.3
		c-0.2-0.6-0.4-1.2-0.6-1.8c-0.1-0.4-0.3-0.9-0.4-1.3c-0.2-0.6-0.4-1.2-0.6-1.8c-0.1-0.4-0.3-0.9-0.4-1.3c-0.2-0.6-0.4-1.2-0.5-1.8
		c-0.1-0.4-0.3-0.9-0.4-1.3c-0.2-0.6-0.3-1.2-0.5-1.8c-0.1-0.4-0.2-0.9-0.3-1.3c-0.2-0.6-0.3-1.2-0.4-1.9c-0.1-0.4-0.2-0.9-0.3-1.3
		c-0.1-0.6-0.3-1.3-0.4-1.9c-0.1-0.4-0.2-0.9-0.3-1.3c-0.1-0.6-0.2-1.3-0.4-1.9c-0.1-0.4-0.2-0.9-0.2-1.3c-0.1-0.7-0.2-1.3-0.3-2
		c-0.1-0.4-0.1-0.8-0.2-1.2c-0.1-0.7-0.2-1.4-0.3-2.1c-0.1-0.4-0.1-0.8-0.2-1.2c-0.1-0.8-0.2-1.6-0.3-2.4c0-0.3-0.1-0.6-0.1-0.9
		c-0.2-2.2-0.4-4.4-0.5-6.6c0-0.4,0-0.7,0-1.1c0-0.7-0.1-1.4-0.1-2l-0.1,0.1V356c-0.5,0.5-1,1-1.5,1.4c-0.2,0.2-0.5,0.5-0.7,0.7
		c-1.7,1.5-3.3,2.9-5,4.4c-0.2,0.2-0.5,0.4-0.7,0.6c-0.6,0.5-1.2,1-1.9,1.5c-0.3,0.2-0.6,0.5-0.9,0.7c-0.6,0.4-1.1,0.9-1.7,1.3
		c-0.3,0.3-0.7,0.5-1,0.8c-0.5,0.4-1.1,0.8-1.6,1.2c-0.4,0.3-0.7,0.5-1.1,0.8c-0.5,0.4-1.1,0.7-1.6,1.1c-0.4,0.3-0.8,0.5-1.1,0.8
		c-0.5,0.4-1.1,0.7-1.6,1c-0.4,0.2-0.8,0.5-1.2,0.7c-0.5,0.3-1.1,0.7-1.6,1c-0.4,0.2-0.8,0.5-1.2,0.7c-0.5,0.3-1.1,0.6-1.6,0.9
		c-0.4,0.2-0.8,0.5-1.2,0.7c-0.5,0.3-1.1,0.6-1.6,0.9c-0.4,0.2-0.8,0.4-1.2,0.7c-0.6,0.3-1.1,0.6-1.7,0.9c-0.4,0.2-0.8,0.4-1.3,0.6
		c-0.6,0.3-1.1,0.6-1.7,0.8c-0.4,0.2-0.8,0.4-1.3,0.6c-0.6,0.3-1.1,0.5-1.7,0.8c-0.4,0.2-0.8,0.4-1.3,0.6c-0.6,0.3-1.2,0.5-1.7,0.7
		c-0.4,0.2-0.8,0.4-1.3,0.5c-0.6,0.2-1.2,0.5-1.8,0.7c-0.4,0.2-0.8,0.3-1.2,0.5c-0.6,0.2-1.2,0.5-1.8,0.7c-0.4,0.1-0.8,0.3-1.2,0.4
		c-0.6,0.2-1.3,0.4-1.9,0.7c-0.4,0.1-0.8,0.3-1.2,0.4c-0.7,0.2-1.3,0.4-2,0.6c-0.4,0.1-0.7,0.2-1.1,0.3c-0.7,0.2-1.5,0.4-2.2,0.6
		c-0.3,0.1-0.6,0.2-0.9,0.3c-1,0.3-1.9,0.5-2.9,0.8c-0.1,0-0.2,0.1-0.3,0.1c-1.1,0.3-2.1,0.5-3.2,0.8c-0.2,0-0.4,0.1-0.6,0.1
		c-0.9,0.2-1.7,0.4-2.6,0.5c-0.4,0.1-0.7,0.1-1.1,0.2c-0.7,0.1-1.4,0.3-2.1,0.4c-0.4,0.1-0.9,0.1-1.3,0.2c-0.6,0.1-1.3,0.2-2,0.3
		c-0.5,0.1-0.9,0.1-1.4,0.2c-0.6,0.1-1.2,0.2-1.9,0.3c-0.5,0.1-1,0.1-1.5,0.2c-0.6,0.1-1.2,0.1-1.8,0.2c-0.5,0-1,0.1-1.5,0.1
		c-0.6,0.1-1.2,0.1-1.8,0.2c-0.5,0-1,0.1-1.5,0.1c-0.6,0-1.2,0.1-1.8,0.1c-0.5,0-1,0-1.5,0.1c-0.6,0-1.2,0-1.8,0.1c-0.5,0-1,0-1.6,0
		c-0.3,0-0.6,0-0.9,0c0.4,35,14.1,67.8,38.8,92.7c35-0.2,68-13.7,93-38.1c-0.2-0.2-0.5-0.5-0.7-0.7c-0.3-0.4-0.7-0.7-1-1.1
		C251.6,445.6,251.2,445.2,250.7,444.7z"/>
	<path fill="#56E48E" d="M214.8,346.4c0-0.3,0-0.5,0-0.8c0.1-1.6,0.2-3.2,0.3-4.7c0-0.3,0.1-0.7,0.1-1c0.1-1.6,0.3-3.2,0.5-4.8
		c0,0,0,0,0-0.1c0.2-1.6,0.4-3.2,0.7-4.8c0.1-0.3,0.1-0.7,0.2-1c0.3-1.5,0.5-3.1,0.8-4.6c0-0.2,0.1-0.5,0.1-0.7
		c0.3-1.4,0.6-2.8,0.9-4.2c0.1-0.3,0.1-0.5,0.2-0.8c0.4-1.5,0.8-3,1.2-4.5c0.1-0.3,0.2-0.6,0.3-0.9c0.4-1.5,0.9-3,1.4-4.5v-0.1
		c0.5-1.5,1-3,1.6-4.5c0.1-0.3,0.2-0.6,0.3-0.9c0.6-1.5,1.1-2.9,1.7-4.4c0.1-0.2,0.2-0.4,0.3-0.6c0.6-1.3,1.1-2.6,1.8-4
		c0.1-0.2,0.2-0.5,0.3-0.7c0.7-1.4,1.3-2.8,2.1-4.2c0.1-0.3,0.3-0.6,0.4-0.9c0.7-1.4,1.4-2.7,2.2-4.1l0.1-0.1
		c0.8-1.4,1.6-2.7,2.4-4.1c0.2-0.3,0.4-0.6,0.5-0.9c0.8-1.3,1.7-2.6,2.5-3.9c0.1-0.2,0.3-0.4,0.4-0.6c0.8-1.2,1.6-2.4,2.5-3.5
		c0.1-0.2,0.2-0.3,0.3-0.5c-0.1,0.1-0.3,0.2-0.5,0.3c-1.2,0.9-2.4,1.7-3.6,2.5c-0.2,0.1-0.4,0.3-0.6,0.4c-1.3,0.9-2.6,1.7-3.9,2.6
		c-0.3,0.2-0.6,0.4-0.9,0.5c-1.4,0.8-2.7,1.6-4.1,2.4l-0.1,0.1c-1.4,0.8-2.7,1.5-4.1,2.2c-0.3,0.1-0.6,0.3-0.9,0.4
		c-1.4,0.7-2.8,1.4-4.2,2.1c-0.2,0.1-0.5,0.2-0.7,0.3c-1.3,0.6-2.6,1.2-4,1.8c-0.2,0.1-0.4,0.2-0.6,0.3c-1.4,0.6-2.9,1.2-4.4,1.7
		c-0.3,0.1-0.6,0.2-0.9,0.3c-1.5,0.6-3,1.1-4.5,1.6l0,0c-1.5,0.5-3,1-4.5,1.4c-0.3,0.1-0.6,0.2-0.9,0.3c-1.5,0.4-3,0.8-4.6,1.2
		c-0.2,0.1-0.5,0.1-0.7,0.2c-1.4,0.3-2.8,0.7-4.3,1c-0.2,0-0.4,0.1-0.7,0.1c-1.5,0.3-3.1,0.6-4.7,0.9c-0.3,0.1-0.6,0.1-1,0.2
		c-1.6,0.3-3.2,0.5-4.8,0.7l0,0c-1.6,0.2-3.2,0.4-4.8,0.5c-0.3,0-0.7,0.1-1,0.1c-1.6,0.1-3.2,0.2-4.7,0.3c-0.3,0-0.5,0-0.8,0
		c-1.5,0.1-2.9,0.1-4.4,0.1c-0.2,0-0.4,0-0.5,0c-0.3,0.3-0.7,0.7-1,1c-0.4,0.4-0.7,0.8-1.1,1.1c-0.4,0.4-0.8,0.8-1.2,1.3
		c-0.4,0.4-0.7,0.8-1.1,1.2c-0.4,0.4-0.8,0.9-1.1,1.3s-0.7,0.8-1,1.2c-0.4,0.4-0.7,0.9-1.1,1.3c-0.3,0.4-0.7,0.8-1,1.2
		c-0.4,0.4-0.7,0.9-1.1,1.3c-0.3,0.4-0.7,0.8-1,1.2c-0.4,0.5-0.7,0.9-1,1.4c-0.3,0.4-0.6,0.8-0.9,1.2c-0.3,0.5-0.7,0.9-1,1.4
		c-0.3,0.4-0.6,0.8-0.9,1.2c-0.3,0.5-0.7,1-1,1.5c-0.3,0.4-0.6,0.8-0.8,1.2c-0.4,0.6-0.7,1.1-1.1,1.7c-0.2,0.4-0.5,0.7-0.7,1.1
		c-0.6,0.9-1.1,1.8-1.7,2.7c-0.2,0.4-0.5,0.8-0.7,1.2c-0.3,0.5-0.6,1-0.9,1.6c-0.2,0.4-0.5,0.9-0.7,1.3c-0.3,0.5-0.6,1-0.8,1.5
		s-0.5,0.9-0.7,1.4c-0.3,0.5-0.5,1-0.8,1.5c-0.2,0.5-0.5,0.9-0.7,1.4s-0.5,1-0.7,1.5s-0.4,0.9-0.7,1.4c-0.2,0.5-0.5,1-0.7,1.5
		s-0.4,1-0.6,1.4c-0.2,0.5-0.4,1-0.7,1.5c-0.2,0.5-0.4,1-0.6,1.4c-0.2,0.5-0.4,1-0.6,1.6c-0.2,0.5-0.4,1-0.5,1.5
		c-0.2,0.5-0.4,1-0.6,1.6c-0.2,0.5-0.3,1-0.5,1.5s-0.4,1.1-0.5,1.6c-0.2,0.5-0.3,1-0.5,1.5s-0.3,1.1-0.5,1.6s-0.3,1-0.4,1.5
		c-0.2,0.5-0.3,1.1-0.5,1.6c-0.1,0.5-0.3,1-0.4,1.5s-0.3,1.1-0.4,1.6s-0.2,1-0.4,1.5c-0.1,0.5-0.3,1.1-0.4,1.6s-0.2,1-0.3,1.5
		c-0.1,0.6-0.2,1.1-0.3,1.7c-0.1,0.5-0.2,1-0.3,1.5c-0.1,0.6-0.2,1.1-0.3,1.7c-0.1,0.5-0.2,1-0.3,1.5c-0.1,0.6-0.2,1.1-0.3,1.7
		c-0.1,0.5-0.2,1-0.2,1.5c-0.1,0.6-0.2,1.1-0.2,1.7c-0.1,0.5-0.1,1-0.2,1.6s-0.1,1.1-0.2,1.7c-0.1,0.5-0.1,1-0.1,1.6
		c-0.1,0.6-0.1,1.1-0.1,1.7c0,0.5-0.1,1-0.1,1.6s-0.1,1.1-0.1,1.7c0,0.5-0.1,1.1-0.1,1.6c0,0.6,0,1.1-0.1,1.7c0,0.5,0,1.1,0,1.6
		c0,0.3,0,0.6,0,0.9c0.3,0,0.6,0,0.9,0c0.5,0,1.1,0,1.6,0c0.6,0,1.1,0,1.7-0.1c0.5,0,1.1,0,1.6-0.1c0.6,0,1.1-0.1,1.7-0.1
		c0.5,0,1.1-0.1,1.6-0.1c0.6,0,1.1-0.1,1.7-0.1c0.5,0,1.1-0.1,1.6-0.2c0.6-0.1,1.1-0.1,1.7-0.2c0.5-0.1,1.1-0.1,1.6-0.2
		s1.1-0.1,1.6-0.2s1.1-0.1,1.6-0.2s1.1-0.2,1.6-0.3c0.5-0.1,1.1-0.2,1.6-0.3c0.5-0.1,1.1-0.2,1.6-0.3c0.5-0.1,1.1-0.2,1.6-0.3
		c0.5-0.1,1.1-0.2,1.6-0.3c0.5-0.1,1.1-0.2,1.6-0.3c0.5-0.1,1-0.2,1.6-0.4c0.5-0.1,1.1-0.3,1.6-0.4s1-0.3,1.6-0.4
		c0.5-0.1,1.1-0.3,1.6-0.4s1-0.3,1.5-0.4c0.5-0.2,1-0.3,1.6-0.5c0.5-0.2,1-0.3,1.5-0.5s1-0.3,1.6-0.5c0.5-0.2,1-0.3,1.5-0.5
		s1-0.4,1.6-0.5c0.5-0.2,1-0.4,1.5-0.5c0.5-0.2,1-0.4,1.6-0.6c0.5-0.2,1-0.4,1.4-0.6c0.5-0.2,1-0.4,1.6-0.6c0.5-0.2,0.9-0.4,1.4-0.6
		s1-0.4,1.6-0.7c0.5-0.2,0.9-0.4,1.4-0.6s1-0.5,1.6-0.7c0.5-0.2,0.9-0.4,1.3-0.7c0.5-0.3,1-0.5,1.5-0.8c0.4-0.2,0.9-0.4,1.3-0.7
		c0.5-0.3,1-0.5,1.6-0.8c0.4-0.2,0.8-0.4,1.2-0.7c0.5-0.3,1.1-0.6,1.6-0.9c0.3-0.2,0.7-0.4,1-0.6c2.2-1.3,4.3-2.6,6.4-3.9
		c0.3-0.2,0.5-0.4,0.8-0.5c0.5-0.4,1.1-0.7,1.6-1.1c0.4-0.2,0.7-0.5,1.1-0.7c0.5-0.4,1-0.7,1.5-1.1c0.4-0.3,0.8-0.5,1.1-0.8
		c0.5-0.4,1-0.7,1.4-1.1c0.4-0.3,0.8-0.6,1.2-0.9c0.5-0.4,0.9-0.7,1.4-1.1c0.4-0.3,0.8-0.6,1.2-0.9c0.5-0.4,0.9-0.8,1.4-1.1
		c0.4-0.3,0.8-0.6,1.2-1s0.9-0.8,1.3-1.2c0.4-0.3,0.8-0.7,1.2-1c0.4-0.4,0.9-0.8,1.3-1.2c0.4-0.4,0.8-0.7,1.1-1.1
		c0.4-0.4,0.8-0.8,1.2-1.2c0.3-0.3,0.6-0.6,0.9-0.9c0-0.2,0-0.4,0-0.5C214.7,349.3,214.7,347.8,214.8,346.4z"/>
	<path fill="#AB3EC6" d="M393.1,126.2c0,0.5,0,1-0.1,1.5c0,0.6-0.1,1.2-0.1,1.8c0,0.5-0.1,1-0.1,1.5c0,0.6-0.1,1.2-0.2,1.8
		c0,0.5-0.1,1-0.1,1.5c-0.1,0.6-0.1,1.2-0.2,1.8c-0.1,0.5-0.1,1-0.2,1.5c-0.1,0.6-0.2,1.2-0.3,1.9c-0.1,0.5-0.1,0.9-0.2,1.4
		c-0.1,0.7-0.2,1.3-0.3,2c-0.1,0.4-0.1,0.9-0.2,1.3c-0.1,0.7-0.3,1.4-0.4,2.1c-0.1,0.4-0.1,0.7-0.2,1.1c-0.2,0.9-0.4,1.7-0.5,2.6
		c0,0.2-0.1,0.4-0.1,0.6c-0.2,1.1-0.5,2.1-0.8,3.2c0,0.1,0,0.2-0.1,0.3c-0.2,1-0.5,1.9-0.8,2.9c-0.1,0.3-0.2,0.6-0.3,0.9
		c-0.2,0.7-0.4,1.5-0.6,2.2c-0.1,0.4-0.2,0.7-0.3,1.1c-0.2,0.7-0.4,1.3-0.6,2c-0.1,0.4-0.3,0.8-0.4,1.2c-0.2,0.6-0.4,1.3-0.7,1.9
		c-0.1,0.4-0.3,0.8-0.4,1.2c-0.2,0.6-0.4,1.2-0.7,1.8c-0.2,0.4-0.3,0.8-0.5,1.3c-0.2,0.6-0.5,1.2-0.7,1.8c-0.2,0.4-0.4,0.8-0.5,1.3
		c-0.2,0.6-0.5,1.2-0.7,1.7c-0.2,0.4-0.4,0.8-0.6,1.3c-0.3,0.6-0.5,1.1-0.8,1.7c-0.2,0.4-0.4,0.8-0.6,1.3c-0.3,0.6-0.5,1.1-0.8,1.7
		c-0.2,0.4-0.4,0.8-0.6,1.3c-0.3,0.6-0.6,1.1-0.9,1.7c-0.2,0.4-0.4,0.8-0.7,1.2c-0.3,0.5-0.6,1.1-0.9,1.6c-0.2,0.4-0.5,0.8-0.7,1.2
		c-0.3,0.5-0.6,1.1-0.9,1.6c-0.2,0.4-0.5,0.8-0.7,1.2c-0.3,0.5-0.7,1.1-1,1.6c-0.2,0.4-0.5,0.8-0.7,1.2c-0.3,0.5-0.7,1.1-1,1.6
		c-0.3,0.4-0.5,0.8-0.8,1.1c-0.4,0.5-0.7,1.1-1.1,1.6c-0.3,0.4-0.5,0.7-0.8,1.1c-0.4,0.5-0.8,1.1-1.2,1.6c-0.3,0.3-0.5,0.7-0.8,1
		c-0.4,0.6-0.9,1.1-1.3,1.7c-0.2,0.3-0.5,0.6-0.7,0.9c-0.5,0.6-1,1.2-1.5,1.8c-0.2,0.2-0.4,0.5-0.6,0.7c-1.4,1.7-2.9,3.4-4.4,5
		c-0.2,0.2-0.4,0.5-0.7,0.7c-0.5,0.5-0.9,1-1.4,1.5h0.1l-0.1,0.1c0.7,0,1.4,0,2,0.1c0.4,0,0.7,0,1.1,0c2.2,0.1,4.4,0.3,6.6,0.5
		c0.3,0,0.6,0.1,0.9,0.1c0.8,0.1,1.6,0.2,2.4,0.3c0.4,0,0.8,0.1,1.2,0.2c0.7,0.1,1.4,0.2,2.1,0.3c0.4,0.1,0.8,0.1,1.2,0.2
		c0.7,0.1,1.3,0.2,2,0.3c0.4,0.1,0.9,0.2,1.3,0.2c0.6,0.1,1.3,0.2,1.9,0.4c0.4,0.1,0.9,0.2,1.3,0.3c0.6,0.1,1.3,0.3,1.9,0.4
		c0.4,0.1,0.9,0.2,1.3,0.3c0.6,0.1,1.2,0.3,1.9,0.4c0.4,0.1,0.9,0.2,1.3,0.3c0.6,0.2,1.2,0.3,1.8,0.5c0.4,0.1,0.9,0.2,1.3,0.4
		c0.6,0.2,1.2,0.3,1.8,0.5c0.4,0.1,0.9,0.3,1.3,0.4c0.6,0.2,1.2,0.4,1.8,0.6c0.4,0.1,0.9,0.3,1.3,0.4c0.6,0.2,1.2,0.4,1.8,0.6
		c0.4,0.2,0.9,0.3,1.3,0.5c0.6,0.2,1.2,0.4,1.8,0.7c0.4,0.2,0.8,0.3,1.3,0.5c0.6,0.2,1.2,0.5,1.8,0.7c0.4,0.2,0.8,0.3,1.2,0.5
		c0.6,0.2,1.2,0.5,1.8,0.8c0.4,0.2,0.8,0.4,1.2,0.5c0.6,0.3,1.2,0.5,1.8,0.8c0.4,0.2,0.8,0.4,1.2,0.5c0.6,0.3,1.2,0.6,1.8,0.9
		c0.4,0.2,0.7,0.4,1.1,0.5c0.6,0.3,1.3,0.7,1.9,1c0.3,0.2,0.7,0.3,1,0.5c0.7,0.4,1.4,0.8,2.1,1.1c0.3,0.2,0.5,0.3,0.8,0.4
		c0.9,0.5,1.8,1,2.7,1.6c0.1,0,0.1,0.1,0.2,0.1c0.9,0.6,1.9,1.1,2.8,1.7c0.2,0.1,0.3,0.2,0.5,0.3c0.8,0.5,1.5,1,2.3,1.5
		c0.3,0.2,0.6,0.4,0.9,0.6c0.6,0.4,1.2,0.8,1.8,1.3c0.3,0.2,0.7,0.5,1,0.7c0.5,0.4,1.1,0.8,1.6,1.2c0.4,0.3,0.7,0.5,1.1,0.8
		c0.5,0.4,1,0.8,1.5,1.2c0.4,0.3,0.7,0.6,1.1,0.9c0.5,0.4,1,0.8,1.5,1.2c0.4,0.3,0.7,0.6,1.1,0.9c0.5,0.4,1,0.8,1.4,1.2
		c0.4,0.3,0.7,0.6,1.1,1c0.5,0.4,0.9,0.8,1.4,1.2c0.4,0.3,0.7,0.7,1.1,1c0.5,0.4,0.9,0.8,1.4,1.3c0.4,0.3,0.7,0.7,1.1,1
		c0.2,0.2,0.5,0.5,0.7,0.7c24.5-25,38-58,38.1-93c-24.9-24.6-57.7-38.4-92.7-38.8c0,0.3,0,0.6,0,0.9c0,0.5,0,1,0,1.6
		C393.2,125.1,393.2,125.6,393.1,126.2z"/>
	<path fill="#F362D2" d="M261.2,67.3c0.3,0.4,0.7,0.8,1,1.1c0.4,0.4,0.8,0.9,1.2,1.3c0.3,0.4,0.7,0.8,1,1.1c0.4,0.5,0.8,0.9,1.2,1.4
		c0.3,0.4,0.6,0.8,1,1.2c0.4,0.5,0.8,1,1.2,1.4c0.3,0.4,0.6,0.8,0.9,1.1c0.4,0.5,0.8,1,1.2,1.5c0.3,0.4,0.6,0.7,0.8,1.1
		c0.4,0.5,0.8,1.1,1.2,1.6c0.2,0.3,0.5,0.7,0.8,1c0.4,0.6,0.8,1.2,1.2,1.8c0.2,0.3,0.4,0.6,0.6,0.9c0.5,0.7,1,1.5,1.5,2.3
		c0.1,0.2,0.2,0.3,0.3,0.5c0.6,0.9,1.2,1.9,1.7,2.8c0,0.1,0.1,0.1,0.1,0.2c0.5,0.9,1,1.8,1.5,2.6c0.2,0.3,0.3,0.5,0.4,0.8
		c0.4,0.7,0.8,1.4,1.1,2.1c0.2,0.3,0.3,0.7,0.5,1c0.3,0.6,0.7,1.3,1,1.9c0.2,0.4,0.4,0.7,0.5,1.1c0.3,0.6,0.6,1.2,0.9,1.8
		c0.2,0.4,0.4,0.8,0.5,1.2c0.3,0.6,0.6,1.2,0.8,1.8c0.2,0.4,0.4,0.8,0.5,1.2c0.3,0.6,0.5,1.2,0.8,1.8c0.2,0.4,0.3,0.8,0.5,1.3
		c0.2,0.6,0.5,1.2,0.7,1.8c0.2,0.4,0.3,0.9,0.5,1.3c0.2,0.6,0.4,1.2,0.7,1.8c0.2,0.4,0.3,0.9,0.5,1.3c0.2,0.6,0.4,1.2,0.6,1.8
		c0.1,0.4,0.3,0.9,0.4,1.3c0.2,0.6,0.4,1.2,0.6,1.8c0.1,0.4,0.3,0.9,0.4,1.3c0.2,0.6,0.4,1.2,0.5,1.8c0.1,0.4,0.3,0.9,0.4,1.3
		c0.2,0.6,0.3,1.2,0.5,1.8c0.1,0.4,0.2,0.9,0.3,1.3c0.2,0.6,0.3,1.2,0.4,1.9c0.1,0.4,0.2,0.9,0.3,1.3c0.1,0.6,0.3,1.3,0.4,1.9
		c0.1,0.4,0.2,0.9,0.3,1.3c0.1,0.6,0.2,1.3,0.4,1.9c0.1,0.4,0.2,0.9,0.2,1.3c0.1,0.7,0.2,1.3,0.3,2c0.1,0.4,0.1,0.8,0.2,1.3
		c0.1,0.7,0.2,1.4,0.3,2.1c0.1,0.4,0.1,0.8,0.2,1.2c0.1,0.8,0.2,1.6,0.3,2.4c0,0.3,0.1,0.6,0.1,0.9c0.2,2.2,0.4,4.4,0.5,6.6
		c0,0.4,0,0.7,0,1.1c0,0.7,0.1,1.3,0.1,2l0.1-0.1v0.1c0.5-0.5,1.1-1,1.6-1.5c0.2-0.2,0.4-0.4,0.7-0.6c1.7-1.5,3.3-3,5.1-4.4
		c0.2-0.2,0.4-0.4,0.7-0.5c0.6-0.5,1.3-1,1.9-1.5c0.3-0.2,0.6-0.5,0.9-0.7c0.6-0.4,1.1-0.9,1.7-1.3c0.3-0.2,0.7-0.5,1-0.7
		c0.6-0.4,1.1-0.8,1.7-1.2c0.4-0.3,0.7-0.5,1.1-0.8c0.5-0.4,1.1-0.8,1.6-1.1c0.4-0.3,0.8-0.5,1.1-0.7c0.5-0.4,1.1-0.7,1.6-1.1
		c0.4-0.2,0.8-0.5,1.2-0.7c0.5-0.3,1.1-0.7,1.6-1c0.4-0.2,0.8-0.5,1.2-0.7c0.5-0.3,1.1-0.6,1.6-1c0.4-0.2,0.8-0.5,1.2-0.7
		c0.5-0.3,1.1-0.6,1.7-0.9c0.4-0.2,0.8-0.4,1.2-0.7c0.6-0.3,1.1-0.6,1.7-0.9c0.4-0.2,0.8-0.4,1.2-0.6c0.6-0.3,1.1-0.6,1.7-0.8
		c0.4-0.2,0.8-0.4,1.3-0.6c0.6-0.3,1.1-0.5,1.7-0.8c0.4-0.2,0.8-0.4,1.3-0.6c0.6-0.3,1.2-0.5,1.7-0.7c0.4-0.2,0.8-0.4,1.3-0.5
		c0.6-0.2,1.2-0.5,1.8-0.7c0.4-0.2,0.8-0.3,1.3-0.5c0.6-0.2,1.2-0.5,1.8-0.7c0.4-0.2,0.8-0.3,1.2-0.4c0.6-0.2,1.3-0.4,1.9-0.7
		c0.4-0.1,0.8-0.3,1.2-0.4c0.7-0.2,1.3-0.4,2-0.6c0.4-0.1,0.7-0.2,1.1-0.3c0.7-0.2,1.5-0.4,2.2-0.6c0.3-0.1,0.6-0.2,0.9-0.3
		c1-0.3,1.9-0.5,2.9-0.8c0.1,0,0.2-0.1,0.3-0.1c1.1-0.3,2.1-0.5,3.2-0.8c0.2,0,0.4-0.1,0.6-0.1c0.9-0.2,1.7-0.4,2.6-0.5
		c0.4-0.1,0.7-0.1,1.1-0.2c0.7-0.1,1.4-0.3,2.1-0.4c0.4-0.1,0.9-0.1,1.3-0.2c0.7-0.1,1.3-0.2,2-0.3c0.5-0.1,0.9-0.1,1.4-0.2
		c0.6-0.1,1.2-0.2,1.9-0.3c0.5-0.1,1-0.1,1.4-0.2c0.6-0.1,1.2-0.1,1.8-0.2c0.5-0.1,1-0.1,1.5-0.1c0.6-0.1,1.2-0.1,1.8-0.2
		c0.5,0,1-0.1,1.5-0.1c0.6,0,1.2-0.1,1.8-0.1c0.5,0,1-0.1,1.5-0.1c0.6,0,1.2,0,1.8-0.1c0.5,0,1,0,1.6,0c0.3,0,0.6,0,0.9,0
		c-0.4-35-14.1-67.8-38.8-92.7c-35,0.2-68,13.7-93,38.1c0.2,0.2,0.4,0.5,0.7,0.7c0.4,0.4,0.7,0.8,1.1,1.1
		C260.4,66.4,260.8,66.8,261.2,67.3z"/>
	<path fill="#AB3EC6" d="M297.2,165.7c0,0.3,0,0.5,0,0.8c-0.1,1.6-0.2,3.2-0.3,4.7c0,0.3-0.1,0.7-0.1,1c-0.1,1.6-0.3,3.2-0.5,4.8
		l0,0c-0.2,1.6-0.4,3.2-0.7,4.8c-0.1,0.3-0.1,0.7-0.2,1c-0.3,1.6-0.5,3.1-0.9,4.7c0,0.2-0.1,0.4-0.1,0.7c-0.3,1.4-0.6,2.9-1,4.3
		c-0.1,0.2-0.1,0.5-0.2,0.7c-0.4,1.5-0.8,3-1.2,4.6c-0.1,0.3-0.2,0.6-0.3,0.9c-0.4,1.5-0.9,3-1.4,4.5l0,0c-0.5,1.5-1,3-1.6,4.5
		c-0.1,0.3-0.2,0.6-0.3,0.9c-0.6,1.5-1.1,2.9-1.7,4.4c-0.1,0.2-0.2,0.4-0.3,0.6c-0.6,1.3-1.1,2.7-1.8,4c-0.1,0.2-0.2,0.5-0.3,0.7
		c-0.7,1.4-1.3,2.8-2.1,4.2c-0.1,0.3-0.3,0.6-0.4,0.9c-0.7,1.4-1.4,2.7-2.2,4.1c0,0,0,0.1-0.1,0.1c-0.8,1.4-1.6,2.7-2.4,4.1
		c-0.2,0.3-0.4,0.6-0.5,0.9c-0.8,1.3-1.7,2.6-2.6,3.9c-0.1,0.2-0.3,0.4-0.4,0.6c-0.8,1.2-1.6,2.4-2.5,3.6c-0.1,0.1-0.2,0.3-0.3,0.5
		c0.2-0.1,0.3-0.2,0.5-0.3c1.2-0.8,2.3-1.7,3.5-2.5c0.2-0.1,0.4-0.3,0.6-0.4c1.3-0.9,2.6-1.7,3.9-2.5c0.3-0.2,0.6-0.4,0.9-0.5
		c1.4-0.8,2.7-1.6,4.1-2.4l0.1-0.1c1.4-0.8,2.7-1.5,4.1-2.2c0.3-0.1,0.6-0.3,0.9-0.4c1.4-0.7,2.8-1.4,4.2-2.1
		c0.2-0.1,0.5-0.2,0.7-0.3c1.3-0.6,2.6-1.2,4-1.8c0.2-0.1,0.4-0.2,0.6-0.3c1.4-0.6,2.9-1.2,4.4-1.7c0.3-0.1,0.6-0.2,0.9-0.3
		c1.5-0.6,3-1.1,4.5-1.6c0,0,0,0,0.1,0c1.5-0.5,3-0.9,4.5-1.4c0.3-0.1,0.6-0.2,0.9-0.3c1.5-0.4,3-0.8,4.5-1.2
		c0.3-0.1,0.5-0.1,0.8-0.2c1.4-0.3,2.8-0.7,4.2-0.9c0.2,0,0.5-0.1,0.7-0.1c1.5-0.3,3.1-0.6,4.6-0.8c0.3-0.1,0.7-0.1,1-0.2
		c1.6-0.3,3.2-0.5,4.8-0.7c0,0,0,0,0.1,0c1.6-0.2,3.2-0.4,4.8-0.5c0.3,0,0.7-0.1,1-0.1c1.6-0.1,3.1-0.2,4.7-0.3c0.3,0,0.5,0,0.8,0
		c1.5-0.1,2.9-0.1,4.4-0.1c0.2,0,0.4,0,0.5,0c0.3-0.3,0.6-0.6,0.9-0.9c0.4-0.4,0.8-0.8,1.2-1.2c0.4-0.4,0.7-0.8,1.1-1.1
		c0.4-0.4,0.8-0.8,1.2-1.3c0.3-0.4,0.7-0.8,1-1.2c0.4-0.4,0.8-0.9,1.2-1.3c0.3-0.4,0.7-0.8,1-1.2c0.4-0.4,0.8-0.9,1.1-1.4
		c0.3-0.4,0.6-0.8,0.9-1.2c0.4-0.5,0.7-0.9,1.1-1.4c0.3-0.4,0.6-0.8,0.9-1.2c0.4-0.5,0.7-0.9,1.1-1.4c0.3-0.4,0.5-0.8,0.8-1.1
		c0.4-0.5,0.7-1,1.1-1.5c0.2-0.4,0.5-0.7,0.7-1.1c0.4-0.5,0.7-1.1,1.1-1.6c0.2-0.3,0.4-0.5,0.5-0.8c1.4-2.1,2.7-4.2,3.9-6.3
		c0.2-0.4,0.4-0.7,0.6-1.1c0.3-0.5,0.6-1.1,0.9-1.6c0.2-0.4,0.5-0.8,0.7-1.2c0.3-0.5,0.5-1,0.8-1.6c0.2-0.4,0.5-0.9,0.7-1.3
		c0.3-0.5,0.5-1,0.8-1.5c0.2-0.5,0.4-0.9,0.7-1.4c0.2-0.5,0.5-1,0.7-1.5s0.4-0.9,0.6-1.4s0.4-1,0.7-1.6c0.2-0.5,0.4-0.9,0.6-1.4
		s0.4-1,0.6-1.6c0.2-0.5,0.4-1,0.6-1.4c0.2-0.5,0.4-1,0.6-1.6c0.2-0.5,0.4-1,0.5-1.5c0.2-0.5,0.4-1,0.5-1.6c0.2-0.5,0.3-1,0.5-1.5
		s0.3-1,0.5-1.6c0.2-0.5,0.3-1,0.5-1.5s0.3-1,0.5-1.6c0.1-0.5,0.3-1,0.4-1.5s0.3-1,0.4-1.6c0.1-0.5,0.3-1,0.4-1.6
		c0.1-0.5,0.3-1.1,0.4-1.6s0.3-1,0.4-1.6c0.1-0.5,0.2-1.1,0.3-1.6c0.1-0.5,0.2-1.1,0.3-1.6c0.1-0.5,0.2-1.1,0.3-1.6
		c0.1-0.5,0.2-1.1,0.3-1.6c0.1-0.5,0.2-1.1,0.3-1.6c0.1-0.5,0.2-1.1,0.3-1.6c0.1-0.5,0.2-1.1,0.2-1.6c0.1-0.5,0.2-1.1,0.2-1.6
		c0.1-0.5,0.1-1.1,0.2-1.6c0.1-0.6,0.1-1.1,0.2-1.7c0.1-0.5,0.1-1.1,0.2-1.6c0.1-0.6,0.1-1.1,0.1-1.7c0-0.5,0.1-1.1,0.1-1.6
		c0-0.6,0.1-1.1,0.1-1.7c0-0.5,0.1-1.1,0.1-1.6c0-0.6,0-1.1,0.1-1.7c0-0.5,0-1.1,0-1.6c0-0.3,0-0.6,0-0.9c-0.3,0-0.6,0-0.9,0
		c-0.5,0-1.1,0-1.6,0c-0.6,0-1.1,0-1.7,0.1c-0.5,0-1.1,0-1.6,0.1c-0.6,0-1.1,0.1-1.7,0.1c-0.5,0-1.1,0.1-1.6,0.1
		c-0.6,0-1.1,0.1-1.7,0.1c-0.5,0-1,0.1-1.6,0.2s-1.1,0.1-1.7,0.2c-0.5,0.1-1,0.1-1.6,0.2s-1.1,0.1-1.7,0.2c-0.5,0.1-1,0.1-1.6,0.2
		s-1.1,0.2-1.7,0.3c-0.5,0.1-1,0.2-1.6,0.3c-0.6,0.1-1.1,0.2-1.7,0.3c-0.5,0.1-1,0.2-1.5,0.3c-0.5,0.1-1.1,0.2-1.6,0.3
		c-0.5,0.1-1,0.2-1.5,0.3c-0.5,0.1-1.1,0.3-1.6,0.4s-1,0.2-1.5,0.4c-0.5,0.1-1.1,0.3-1.6,0.4s-1,0.3-1.5,0.4
		c-0.5,0.2-1.1,0.3-1.6,0.5c-0.5,0.1-1,0.3-1.5,0.4c-0.5,0.2-1.1,0.3-1.6,0.5c-0.5,0.2-1,0.3-1.5,0.5s-1,0.4-1.6,0.5
		c-0.5,0.2-1,0.3-1.5,0.5s-1,0.4-1.6,0.6c-0.5,0.2-1,0.4-1.5,0.6c-0.5,0.2-1,0.4-1.5,0.6c-0.5,0.2-1,0.4-1.5,0.6
		c-0.5,0.2-1,0.4-1.5,0.7c-0.5,0.2-1,0.4-1.4,0.6c-0.5,0.2-1,0.5-1.5,0.7s-1,0.4-1.4,0.7c-0.5,0.2-1,0.5-1.5,0.7s-0.9,0.5-1.4,0.7
		c-0.5,0.3-1,0.5-1.5,0.8c-0.5,0.2-0.9,0.5-1.4,0.7c-0.5,0.3-1,0.6-1.5,0.8c-0.4,0.2-0.9,0.5-1.3,0.7c-0.5,0.3-1.1,0.6-1.6,0.9
		c-0.4,0.2-0.8,0.5-1.2,0.7c-0.8,0.5-1.5,0.9-2.3,1.4c-0.5,0.3-1,0.6-1.5,1s-1.1,0.7-1.6,1.1c-0.4,0.3-0.8,0.5-1.2,0.8
		c-0.5,0.3-1,0.7-1.5,1c-0.4,0.3-0.8,0.6-1.2,0.9c-0.5,0.3-0.9,0.7-1.4,1c-0.4,0.3-0.8,0.6-1.2,0.9c-0.5,0.3-0.9,0.7-1.4,1
		c-0.4,0.3-0.8,0.6-1.2,1c-0.4,0.4-0.9,0.7-1.3,1.1c-0.4,0.3-0.8,0.7-1.2,1c-0.4,0.4-0.9,0.7-1.3,1.1c-0.4,0.3-0.8,0.7-1.2,1
		c-0.4,0.4-0.9,0.8-1.3,1.1c-0.4,0.4-0.8,0.7-1.2,1.1c-0.4,0.4-0.9,0.8-1.3,1.2s-0.8,0.7-1.1,1.1c-0.3,0.3-0.7,0.7-1,1
		c0,0.2,0,0.4,0,0.5C297.3,162.7,297.3,164.2,297.2,165.7z"/>
	<path fill="#464AD2" d="M444.7,261.3c-0.4,0.3-0.7,0.7-1.1,1c-0.5,0.4-0.9,0.8-1.4,1.2c-0.4,0.3-0.7,0.6-1.1,1
		c-0.5,0.4-1,0.8-1.4,1.2c-0.4,0.3-0.7,0.6-1.1,0.9c-0.5,0.4-1,0.8-1.5,1.2c-0.4,0.3-0.7,0.6-1.1,0.9c-0.5,0.4-1,0.8-1.6,1.2
		c-0.4,0.3-0.7,0.5-1.1,0.8c-0.5,0.4-1.1,0.8-1.7,1.2c-0.3,0.2-0.7,0.5-1,0.7c-0.6,0.4-1.2,0.8-1.8,1.3c-0.3,0.2-0.6,0.4-0.9,0.6
		c-0.8,0.5-1.5,1-2.3,1.5c-0.1,0.1-0.3,0.2-0.4,0.3c-0.9,0.6-1.9,1.2-2.8,1.7c-0.1,0-0.1,0.1-0.2,0.1c-0.9,0.5-1.8,1-2.7,1.6
		c-0.3,0.1-0.5,0.3-0.8,0.4c-0.7,0.4-1.4,0.8-2.1,1.1c-0.3,0.2-0.7,0.3-1,0.5c-0.6,0.3-1.3,0.7-1.9,1c-0.4,0.2-0.7,0.4-1.1,0.5
		c-0.6,0.3-1.2,0.6-1.8,0.9c-0.4,0.2-0.8,0.4-1.2,0.5c-0.6,0.3-1.2,0.6-1.8,0.8c-0.4,0.2-0.8,0.4-1.2,0.5c-0.6,0.3-1.2,0.5-1.8,0.8
		c-0.4,0.2-0.8,0.3-1.2,0.5c-0.6,0.2-1.2,0.5-1.8,0.7c-0.4,0.2-0.8,0.3-1.3,0.5c-0.6,0.2-1.2,0.4-1.8,0.7c-0.4,0.2-0.9,0.3-1.3,0.5
		c-0.6,0.2-1.2,0.4-1.8,0.6c-0.4,0.1-0.9,0.3-1.3,0.4c-0.6,0.2-1.2,0.4-1.8,0.6c-0.4,0.1-0.9,0.3-1.3,0.4c-0.6,0.2-1.2,0.4-1.8,0.5
		c-0.4,0.1-0.9,0.3-1.3,0.4c-0.6,0.2-1.2,0.3-1.8,0.5c-0.4,0.1-0.9,0.2-1.3,0.3c-0.6,0.2-1.2,0.3-1.9,0.4c-0.4,0.1-0.9,0.2-1.3,0.3
		c-0.6,0.1-1.3,0.3-1.9,0.4c-0.4,0.1-0.9,0.2-1.3,0.3c-0.6,0.1-1.3,0.2-1.9,0.4c-0.4,0.1-0.9,0.2-1.3,0.2c-0.7,0.1-1.3,0.2-2,0.3
		c-0.4,0.1-0.8,0.1-1.2,0.2c-0.7,0.1-1.4,0.2-2.1,0.3c-0.4,0.1-0.8,0.1-1.2,0.2c-0.8,0.1-1.6,0.2-2.4,0.3c-0.3,0-0.6,0.1-0.9,0.1
		c-2.2,0.2-4.4,0.4-6.6,0.5c-0.4,0-0.7,0-1.1,0c-0.7,0-1.4,0.1-2,0.1l0.1,0.1h-0.1c0.5,0.5,1,1.1,1.5,1.6c0.2,0.2,0.4,0.4,0.6,0.7
		c1.5,1.7,3,3.3,4.4,5.1c0.2,0.2,0.3,0.4,0.5,0.6c0.5,0.7,1.1,1.3,1.6,2c0.2,0.3,0.4,0.6,0.6,0.8c0.5,0.6,0.9,1.2,1.4,1.8
		c0.2,0.3,0.5,0.6,0.7,1c0.4,0.6,0.8,1.1,1.2,1.7c0.2,0.3,0.5,0.7,0.7,1c0.4,0.6,0.8,1.1,1.2,1.7c0.2,0.4,0.5,0.7,0.7,1.1
		c0.4,0.6,0.7,1.1,1.1,1.7c0.2,0.4,0.5,0.7,0.7,1.1c0.3,0.6,0.7,1.1,1,1.7c0.2,0.4,0.5,0.8,0.7,1.1c0.3,0.6,0.7,1.1,1,1.7
		c0.2,0.4,0.4,0.8,0.7,1.2c0.3,0.6,0.6,1.1,0.9,1.7c0.2,0.4,0.4,0.8,0.6,1.2c0.3,0.6,0.6,1.1,0.9,1.7c0.2,0.4,0.4,0.8,0.6,1.2
		c0.3,0.6,0.6,1.2,0.8,1.7c0.2,0.4,0.4,0.8,0.6,1.2c0.3,0.6,0.5,1.2,0.8,1.8c0.2,0.4,0.4,0.8,0.5,1.2c0.3,0.6,0.5,1.2,0.8,1.8
		c0.2,0.4,0.3,0.8,0.5,1.2c0.2,0.6,0.5,1.2,0.7,1.8c0.2,0.4,0.3,0.8,0.5,1.2c0.2,0.6,0.5,1.3,0.7,1.9c0.1,0.4,0.3,0.8,0.4,1.2
		c0.2,0.6,0.5,1.3,0.7,2c0.1,0.4,0.3,0.8,0.4,1.1c0.2,0.7,0.4,1.4,0.6,2.1c0.1,0.4,0.2,0.7,0.3,1.1c0.2,0.7,0.4,1.5,0.7,2.3
		c0.1,0.3,0.2,0.6,0.3,0.9c0.3,1,0.5,2,0.8,2.9c0,0.1,0,0.1,0.1,0.2c0.3,1.1,0.5,2.1,0.8,3.2c0,0.2,0.1,0.4,0.1,0.6
		c0.2,0.9,0.4,1.7,0.6,2.6c0.1,0.4,0.1,0.7,0.2,1.1c0.1,0.7,0.3,1.4,0.4,2.1c0.1,0.4,0.1,0.9,0.2,1.3c0.1,0.7,0.2,1.3,0.3,2
		c0.1,0.5,0.1,0.9,0.2,1.4c0.1,0.6,0.2,1.2,0.3,1.9c0.1,0.5,0.1,1,0.2,1.5c0.1,0.6,0.1,1.2,0.2,1.8c0,0.5,0.1,1,0.1,1.5
		c0.1,0.6,0.1,1.2,0.2,1.8c0,0.5,0.1,1,0.1,1.5c0,0.6,0.1,1.2,0.1,1.8c0,0.5,0,1,0.1,1.5c0,0.6,0,1.2,0.1,1.8c0,0.5,0,1,0,1.6
		c0,0.3,0,0.6,0,0.9c35-0.4,67.8-14.1,92.7-38.8c-0.2-35-13.7-68-38.1-93c-0.2,0.2-0.5,0.5-0.7,0.7c-0.4,0.3-0.7,0.7-1.1,1
		C445.6,260.4,445.2,260.8,444.7,261.3z"/>
	<path fill="#1CB1EE" d="M385.8,393.1c-0.5,0-1,0-1.5-0.1c-0.6,0-1.2-0.1-1.8-0.1c-0.5,0-1-0.1-1.5-0.1c-0.6,0-1.2-0.1-1.8-0.2
		c-0.5,0-1-0.1-1.5-0.1c-0.6-0.1-1.2-0.1-1.8-0.2c-0.5-0.1-1-0.1-1.5-0.2c-0.6-0.1-1.3-0.2-1.9-0.3c-0.5-0.1-0.9-0.1-1.4-0.2
		c-0.7-0.1-1.3-0.2-2-0.3c-0.4-0.1-0.9-0.1-1.3-0.2c-0.7-0.1-1.4-0.3-2.1-0.4c-0.4-0.1-0.7-0.1-1.1-0.2c-0.9-0.2-1.8-0.4-2.6-0.6
		c-0.2,0-0.4-0.1-0.6-0.1c-1.1-0.2-2.2-0.5-3.2-0.8c-0.1,0-0.1,0-0.2-0.1c-1-0.2-2-0.5-2.9-0.8c-0.3-0.1-0.6-0.2-0.9-0.3
		c-0.8-0.2-1.5-0.4-2.3-0.7c-0.4-0.1-0.7-0.2-1.1-0.3c-0.7-0.2-1.4-0.4-2.1-0.7c-0.4-0.1-0.8-0.3-1.1-0.4c-0.7-0.2-1.3-0.4-2-0.7
		c-0.4-0.1-0.8-0.3-1.2-0.4c-0.6-0.2-1.3-0.5-1.9-0.7c-0.4-0.2-0.8-0.3-1.2-0.5c-0.6-0.2-1.2-0.5-1.8-0.7c-0.4-0.2-0.8-0.3-1.2-0.5
		c-0.6-0.3-1.2-0.5-1.8-0.8c-0.4-0.2-0.8-0.4-1.2-0.5c-0.6-0.3-1.2-0.5-1.8-0.8c-0.4-0.2-0.8-0.4-1.2-0.6c-0.6-0.3-1.2-0.6-1.7-0.8
		c-0.4-0.2-0.8-0.4-1.2-0.6c-0.6-0.3-1.1-0.6-1.7-0.9c-0.4-0.2-0.8-0.4-1.2-0.6c-0.6-0.3-1.1-0.6-1.7-0.9c-0.4-0.2-0.8-0.4-1.2-0.7
		c-0.6-0.3-1.1-0.6-1.7-1c-0.4-0.2-0.8-0.5-1.1-0.7c-0.6-0.3-1.1-0.7-1.7-1c-0.4-0.2-0.7-0.5-1.1-0.7c-0.6-0.4-1.1-0.7-1.7-1.1
		c-0.4-0.2-0.7-0.5-1.1-0.7c-0.6-0.4-1.1-0.8-1.7-1.2c-0.3-0.2-0.7-0.5-1-0.7c-0.6-0.4-1.1-0.8-1.7-1.2c-0.3-0.2-0.6-0.5-1-0.7
		c-0.6-0.4-1.2-0.9-1.8-1.4c-0.3-0.2-0.6-0.4-0.8-0.6c-0.7-0.5-1.3-1.1-2-1.6c-0.2-0.2-0.4-0.3-0.6-0.5c-1.7-1.4-3.4-2.9-5.1-4.4
		c-0.2-0.2-0.4-0.4-0.7-0.6c-0.5-0.5-1.1-1-1.6-1.5v0.1l-0.1-0.1c0,0.7,0,1.4-0.1,2c0,0.4,0,0.7,0,1.1c-0.1,2.2-0.3,4.4-0.5,6.6
		c0,0.3-0.1,0.6-0.1,0.9c-0.1,0.8-0.2,1.6-0.3,2.4c0,0.4-0.1,0.8-0.2,1.2c-0.1,0.7-0.2,1.4-0.3,2.1c-0.1,0.4-0.1,0.8-0.2,1.2
		c-0.1,0.7-0.2,1.3-0.3,2c-0.1,0.4-0.2,0.9-0.2,1.3c-0.1,0.6-0.2,1.3-0.4,1.9c-0.1,0.4-0.2,0.9-0.3,1.3c-0.1,0.6-0.3,1.3-0.4,1.9
		c-0.1,0.4-0.2,0.9-0.3,1.3c-0.1,0.6-0.3,1.2-0.4,1.9c-0.1,0.4-0.2,0.9-0.3,1.3c-0.2,0.6-0.3,1.2-0.5,1.8c-0.1,0.4-0.2,0.9-0.4,1.3
		c-0.2,0.6-0.3,1.2-0.5,1.8c-0.1,0.4-0.3,0.9-0.4,1.3c-0.2,0.6-0.4,1.2-0.6,1.8c-0.1,0.4-0.3,0.9-0.4,1.3c-0.2,0.6-0.4,1.2-0.6,1.8
		c-0.2,0.4-0.3,0.9-0.5,1.3c-0.2,0.6-0.4,1.2-0.7,1.8c-0.2,0.4-0.3,0.8-0.5,1.3c-0.2,0.6-0.5,1.2-0.7,1.8c-0.2,0.4-0.3,0.8-0.5,1.2
		c-0.2,0.6-0.5,1.2-0.8,1.8c-0.2,0.4-0.3,0.8-0.5,1.2c-0.3,0.6-0.5,1.2-0.8,1.8c-0.2,0.4-0.4,0.8-0.5,1.2c-0.3,0.6-0.6,1.2-0.9,1.8
		c-0.2,0.4-0.4,0.7-0.5,1.1c-0.3,0.6-0.7,1.3-1,1.9c-0.2,0.3-0.3,0.7-0.5,1c-0.4,0.7-0.8,1.4-1.1,2.1c-0.1,0.3-0.3,0.5-0.4,0.8
		c-0.5,0.9-1,1.8-1.5,2.6c0,0.1-0.1,0.1-0.1,0.2c-0.6,0.9-1.1,1.9-1.7,2.8c-0.1,0.2-0.2,0.3-0.3,0.5c-0.5,0.8-1,1.5-1.5,2.3
		c-0.2,0.3-0.4,0.6-0.6,0.9c-0.4,0.6-0.8,1.2-1.3,1.8c-0.2,0.3-0.5,0.7-0.7,1c-0.4,0.6-0.8,1.1-1.2,1.7c-0.3,0.4-0.5,0.7-0.8,1.1
		c-0.4,0.5-0.8,1-1.2,1.5c-0.3,0.4-0.6,0.7-0.9,1.1c-0.4,0.5-0.8,1-1.2,1.5c-0.3,0.4-0.6,0.7-0.9,1.1c-0.4,0.5-0.8,1-1.2,1.4
		c-0.3,0.4-0.6,0.7-1,1.1c-0.4,0.5-0.8,0.9-1.2,1.4c-0.3,0.4-0.7,0.7-1,1.1c-0.4,0.5-0.8,0.9-1.3,1.4c-0.3,0.4-0.7,0.7-1,1.1
		c-0.2,0.2-0.5,0.5-0.7,0.7c25,24.5,58,38,93,38.1c24.6-24.9,38.4-57.7,38.8-92.7c-0.3,0-0.6,0-0.9,0c-0.5,0-1,0-1.6,0
		C387,393.2,386.4,393.2,385.8,393.1z"/>
	<path fill="#1CB1EE" d="M346.3,297.2c-0.3,0-0.5,0-0.8,0c-1.6-0.1-3.2-0.2-4.7-0.3c-0.3,0-0.7-0.1-1-0.1c-1.6-0.1-3.2-0.3-4.8-0.5
		l0,0c-1.6-0.2-3.2-0.4-4.8-0.7c-0.3-0.1-0.7-0.1-1-0.2c-1.6-0.3-3.1-0.5-4.6-0.9c-0.2,0-0.4-0.1-0.7-0.1c-1.4-0.3-2.9-0.6-4.3-1
		c-0.2-0.1-0.5-0.1-0.7-0.2c-1.5-0.4-3-0.8-4.5-1.2c-0.3-0.1-0.6-0.2-0.9-0.3c-1.5-0.4-3-0.9-4.5-1.4c0,0,0,0-0.1,0
		c-1.5-0.5-3-1-4.5-1.6c-0.3-0.1-0.6-0.2-0.9-0.3c-1.5-0.6-2.9-1.1-4.4-1.7c-0.2-0.1-0.4-0.2-0.6-0.3c-1.3-0.6-2.6-1.1-4-1.8
		c-0.2-0.1-0.5-0.2-0.7-0.3c-1.4-0.7-2.8-1.3-4.2-2.1c-0.3-0.1-0.6-0.3-0.9-0.5c-1.4-0.7-2.7-1.4-4.1-2.2c0,0-0.1-0.1-0.2-0.1
		c-1.4-0.8-2.7-1.6-4.1-2.4c-0.3-0.2-0.6-0.4-0.9-0.5c-1.3-0.8-2.6-1.7-3.9-2.5c-0.2-0.1-0.4-0.3-0.6-0.4c-1.2-0.8-2.4-1.6-3.5-2.5
		c-0.2-0.1-0.3-0.2-0.5-0.3c0.1,0.2,0.2,0.3,0.3,0.5c0.8,1.2,1.7,2.3,2.5,3.5c0.1,0.2,0.3,0.4,0.4,0.6c0.9,1.3,1.7,2.6,2.5,3.9
		c0.2,0.3,0.4,0.6,0.5,0.9c0.8,1.4,1.6,2.7,2.4,4.1c0,0,0.1,0.1,0.1,0.2c0.8,1.3,1.5,2.7,2.2,4.1c0.2,0.3,0.3,0.6,0.5,0.9
		c0.7,1.4,1.4,2.8,2.1,4.2c0.1,0.2,0.2,0.5,0.3,0.7c0.6,1.3,1.2,2.6,1.8,4c0.1,0.2,0.2,0.4,0.3,0.6c0.6,1.4,1.2,2.9,1.7,4.4
		c0.1,0.3,0.2,0.6,0.3,0.9c0.6,1.5,1.1,3,1.6,4.5c0,0,0,0,0,0.1c0.5,1.5,1,3,1.4,4.5c0.1,0.3,0.2,0.6,0.3,0.9c0.4,1.5,0.8,3,1.2,4.5
		c0.1,0.2,0.1,0.5,0.2,0.7c0.3,1.4,0.7,2.8,1,4.3c0,0.2,0.1,0.4,0.1,0.7c0.3,1.5,0.6,3.1,0.9,4.6c0.1,0.3,0.1,0.7,0.2,1
		c0.3,1.6,0.5,3.2,0.7,4.8l0,0c0.2,1.6,0.4,3.2,0.5,4.8c0,0.3,0.1,0.7,0.1,1c0.1,1.6,0.2,3.2,0.3,4.7c0,0.3,0,0.5,0,0.8
		c0.1,1.5,0.1,2.9,0.1,4.4c0,0.2,0,0.4,0,0.5c0.3,0.3,0.6,0.6,0.9,0.9c0.4,0.4,0.8,0.8,1.2,1.2c0.4,0.4,0.8,0.7,1.2,1.1
		c0.4,0.4,0.8,0.8,1.3,1.2c0.4,0.4,0.8,0.7,1.2,1c0.4,0.4,0.9,0.8,1.3,1.1c0.4,0.3,0.8,0.7,1.2,1c0.4,0.4,0.9,0.7,1.3,1.1
		c0.4,0.3,0.8,0.7,1.2,1c0.4,0.3,0.9,0.7,1.3,1s0.8,0.6,1.3,1c0.4,0.3,0.9,0.7,1.3,1s0.8,0.6,1.3,0.9s0.9,0.7,1.4,1
		c0.4,0.3,0.9,0.6,1.3,0.9c0.5,0.3,0.9,0.6,1.4,1c0.4,0.3,0.9,0.6,1.3,0.9c0.9,0.6,1.8,1.1,2.7,1.7c0.5,0.3,0.9,0.6,1.4,0.9
		s0.9,0.5,1.4,0.8s0.9,0.6,1.4,0.8c0.5,0.3,0.9,0.5,1.4,0.8s0.9,0.5,1.4,0.8s1,0.5,1.4,0.7c0.5,0.2,1,0.5,1.4,0.7
		c0.5,0.2,1,0.5,1.4,0.7c0.5,0.2,1,0.5,1.5,0.7s1,0.4,1.5,0.7c0.5,0.2,1,0.5,1.5,0.7s1,0.4,1.5,0.6s1,0.4,1.5,0.6s1,0.4,1.5,0.6
		s1,0.4,1.5,0.6s1,0.4,1.5,0.6s1,0.4,1.5,0.6s1,0.4,1.5,0.5c0.5,0.2,1,0.4,1.5,0.5c0.5,0.2,1,0.3,1.5,0.5s1,0.3,1.5,0.5
		s1,0.3,1.5,0.5s1,0.3,1.6,0.5c0.5,0.1,1,0.3,1.5,0.4s1,0.3,1.6,0.4c0.5,0.1,1,0.3,1.6,0.4c0.5,0.1,1.1,0.3,1.6,0.4s1,0.2,1.6,0.3
		c0.5,0.1,1.1,0.2,1.6,0.3c0.5,0.1,1,0.2,1.6,0.3c0.5,0.1,1.1,0.2,1.6,0.3c0.5,0.1,1.1,0.2,1.6,0.3c0.5,0.1,1.1,0.2,1.6,0.3
		c0.5,0.1,1.1,0.2,1.6,0.2c0.5,0.1,1.1,0.2,1.6,0.2c0.5,0.1,1.1,0.1,1.6,0.2c0.6,0.1,1.1,0.1,1.7,0.2c0.5,0.1,1.1,0.1,1.6,0.2
		c0.6,0.1,1.1,0.1,1.7,0.1c0.5,0,1.1,0.1,1.6,0.1c0.6,0,1.1,0.1,1.7,0.1c0.5,0,1.1,0.1,1.6,0.1c0.6,0,1.1,0,1.7,0.1
		c0.5,0,1.1,0,1.6,0c0.3,0,0.6,0,0.9,0c0-0.3,0-0.6,0-0.9c0-0.5,0-1.1,0-1.6c0-0.6,0-1.1-0.1-1.7c0-0.5,0-1.1-0.1-1.6
		c0-0.6-0.1-1.1-0.1-1.7c0-0.5-0.1-1.1-0.1-1.6c0-0.6-0.1-1.1-0.1-1.7c0-0.5-0.1-1.1-0.2-1.6c-0.1-0.6-0.1-1.1-0.2-1.7
		c-0.1-0.5-0.1-1.1-0.2-1.6c-0.1-0.6-0.1-1.1-0.2-1.6s-0.1-1.1-0.2-1.6s-0.2-1.1-0.3-1.6c-0.1-0.5-0.2-1.1-0.3-1.6
		c-0.1-0.5-0.2-1.1-0.3-1.6c-0.1-0.5-0.2-1.1-0.3-1.6c-0.1-0.5-0.2-1.1-0.3-1.6c-0.1-0.5-0.2-1-0.3-1.6c-0.1-0.5-0.2-1.1-0.4-1.6
		c-0.1-0.5-0.2-1-0.4-1.6c-0.1-0.5-0.3-1.1-0.4-1.6s-0.3-1-0.4-1.5s-0.3-1-0.5-1.6c-0.1-0.5-0.3-1-0.5-1.5s-0.3-1-0.5-1.6
		c-0.2-0.5-0.3-1-0.5-1.5s-0.4-1-0.5-1.5c-0.2-0.5-0.3-1-0.5-1.5s-0.4-1-0.6-1.5s-0.4-1-0.6-1.5s-0.4-1-0.6-1.5s-0.4-1-0.6-1.5
		s-0.4-1-0.6-1.5s-0.4-1-0.6-1.5s-0.5-1-0.7-1.5s-0.4-1-0.7-1.5c-0.2-0.5-0.5-1-0.7-1.5s-0.5-1-0.7-1.4c-0.2-0.5-0.5-1-0.8-1.4
		c-0.2-0.5-0.5-0.9-0.7-1.4c-0.3-0.5-0.5-1-0.8-1.4c-0.3-0.5-0.5-0.9-0.8-1.4s-0.5-0.9-0.8-1.4s-0.5-0.9-0.8-1.4s-0.6-0.9-0.9-1.4
		c-0.6-0.9-1.1-1.8-1.7-2.7c-0.3-0.4-0.6-0.9-0.9-1.3c-0.3-0.5-0.6-0.9-0.9-1.4c-0.3-0.4-0.6-0.9-0.9-1.3c-0.3-0.5-0.7-0.9-1-1.4
		c-0.3-0.4-0.6-0.9-0.9-1.3s-0.7-0.9-1-1.3s-0.6-0.8-1-1.3c-0.3-0.4-0.7-0.9-1-1.3s-0.7-0.8-1-1.2c-0.4-0.4-0.7-0.9-1.1-1.3
		c-0.3-0.4-0.7-0.8-1-1.2c-0.4-0.4-0.7-0.9-1.1-1.3s-0.7-0.8-1.1-1.2c-0.4-0.4-0.8-0.8-1.2-1.3c-0.4-0.4-0.7-0.8-1.1-1.2
		c-0.4-0.4-0.8-0.8-1.2-1.2c-0.3-0.3-0.6-0.6-0.9-0.9c-0.2,0-0.4,0-0.5,0C349.3,297.3,347.8,297.3,346.3,297.2z"/>
	<path fill="#0CDEB6" d="M290.8,349.1c-0.2-0.2-0.4-0.4-0.6-0.6c-1.1-1.2-2.1-2.3-3.1-3.5c-0.2-0.3-0.5-0.5-0.7-0.8
		c-1-1.2-2-2.4-3-3.6l-0.1-0.1c-1-1.3-1.9-2.5-2.9-3.8c-0.2-0.3-0.4-0.6-0.6-0.9c-0.9-1.3-1.8-2.5-2.7-3.8c-0.1-0.2-0.3-0.4-0.4-0.7
		c-0.8-1.2-1.5-2.4-2.3-3.6c-0.1-0.2-0.3-0.5-0.4-0.7c-0.8-1.3-1.6-2.7-2.3-4c-0.2-0.3-0.3-0.6-0.5-0.9c-0.7-1.4-1.5-2.7-2.2-4.1
		c0,0,0-0.1-0.1-0.1c-0.7-1.4-1.4-2.8-2-4.3c-0.1-0.3-0.3-0.6-0.4-0.9c-0.6-1.4-1.3-2.8-1.8-4.3c-0.1-0.2-0.2-0.5-0.3-0.7
		c-0.5-1.3-1-2.6-1.5-4c-0.1-0.3-0.2-0.5-0.3-0.8c-0.5-1.5-1-2.9-1.5-4.4c-0.1-0.3-0.2-0.6-0.3-1c-0.5-1.5-0.9-2.9-1.3-4.4
		c0-0.1,0-0.1-0.1-0.2c-0.4-1.5-0.8-3.1-1.2-4.6c-0.1-0.3-0.2-0.7-0.2-1c-0.4-1.5-0.7-3-1-4.6c0-0.2-0.1-0.5-0.1-0.7
		c-0.3-1.4-0.5-2.8-0.7-4.2c0-0.2-0.1-0.4-0.1-0.6c0,0.2-0.1,0.4-0.1,0.6c-0.2,1.4-0.5,2.8-0.7,4.3c0,0.2-0.1,0.5-0.1,0.7
		c-0.3,1.5-0.6,3.1-1,4.6c-0.1,0.3-0.2,0.7-0.2,1c-0.4,1.5-0.8,3.1-1.2,4.6v0.1c-0.4,1.5-0.9,3-1.3,4.5c-0.1,0.3-0.2,0.6-0.3,0.9
		c-0.5,1.5-1,3-1.5,4.4c-0.1,0.2-0.2,0.5-0.3,0.7c-0.5,1.4-1,2.7-1.6,4.1c-0.1,0.2-0.2,0.4-0.2,0.6c-0.6,1.4-1.2,2.9-1.9,4.3
		c-0.1,0.3-0.3,0.6-0.4,0.9c-0.7,1.4-1.4,2.9-2.1,4.3c0,0,0,0,0,0.1c-0.7,1.4-1.5,2.8-2.2,4.2c-0.2,0.3-0.3,0.6-0.5,0.9
		c-0.8,1.4-1.5,2.7-2.4,4.1c-0.1,0.2-0.3,0.4-0.4,0.7c-0.8,1.2-1.5,2.4-2.3,3.7c-0.1,0.2-0.3,0.4-0.4,0.6c-0.9,1.3-1.8,2.6-2.7,3.9
		c-0.2,0.3-0.4,0.6-0.6,0.8c-0.9,1.3-1.9,2.6-2.9,3.8c0,0,0,0-0.1,0.1c-1,1.2-2,2.5-3,3.7c-0.2,0.3-0.5,0.5-0.7,0.8
		c-1,1.2-2.1,2.4-3.1,3.5c-0.2,0.2-0.4,0.4-0.6,0.6c-1,1.1-2,2.1-3,3.1c-0.1,0.1-0.3,0.3-0.4,0.4c0,0.5,0,1,0,1.4c0,0.5,0,1,0,1.5
		c0,0.6,0,1.2,0.1,1.8c0,0.5,0,1,0.1,1.5c0,0.6,0.1,1.2,0.1,1.8c0,0.5,0.1,1,0.1,1.5c0,0.6,0.1,1.2,0.2,1.8c0,0.5,0.1,1,0.1,1.5
		c0.1,0.6,0.1,1.2,0.2,1.9c0.1,0.5,0.1,0.9,0.2,1.4c0.1,0.6,0.2,1.3,0.3,1.9c0.1,0.4,0.1,0.9,0.2,1.3c0.1,0.7,0.2,1.3,0.3,2
		c0.1,0.4,0.1,0.8,0.2,1.2c0.1,0.7,0.3,1.5,0.4,2.2c0.1,0.3,0.1,0.7,0.2,1c0.2,1,0.4,2,0.6,3c0,0.1,0,0.1,0,0.2
		c0.2,1.1,0.5,2.1,0.8,3.2c0.1,0.2,0.1,0.5,0.2,0.7c0.2,0.8,0.4,1.6,0.6,2.5c0.1,0.4,0.2,0.7,0.3,1.1c0.2,0.7,0.4,1.4,0.6,2
		c0.1,0.4,0.3,0.8,0.4,1.2c0.2,0.6,0.4,1.3,0.6,1.9c0.1,0.4,0.3,0.8,0.4,1.3c0.2,0.6,0.4,1.2,0.6,1.8c0.2,0.4,0.3,0.9,0.5,1.3
		c0.2,0.6,0.4,1.1,0.6,1.7c0.2,0.4,0.4,0.9,0.5,1.3c0.2,0.6,0.4,1.1,0.7,1.7c0.2,0.5,0.4,0.9,0.6,1.3c0.2,0.5,0.5,1.1,0.7,1.6
		s0.4,0.9,0.6,1.4c0.2,0.5,0.5,1.1,0.7,1.6s0.4,0.9,0.7,1.4c0.2,0.5,0.5,1,0.8,1.5c0.2,0.5,0.5,0.9,0.7,1.4c0.3,0.5,0.5,1,0.8,1.5
		c0.2,0.5,0.5,0.9,0.7,1.4c0.3,0.5,0.5,1,0.8,1.5s0.5,0.9,0.8,1.3c0.3,0.5,0.6,1,0.8,1.5c0.3,0.4,0.5,0.9,0.8,1.3
		c0.3,0.5,0.6,1,0.9,1.4c0.3,0.4,0.6,0.9,0.9,1.3c0.3,0.5,0.6,0.9,0.9,1.4c0.3,0.4,0.6,0.9,0.9,1.3c0.3,0.5,0.6,0.9,0.9,1.4
		c0.3,0.4,0.6,0.9,0.9,1.3c0.3,0.4,0.6,0.9,1,1.3c0.3,0.4,0.6,0.9,1,1.3c0.3,0.4,0.7,0.9,1,1.3s0.7,0.9,1,1.3s0.7,0.9,1,1.3
		s0.7,0.8,1,1.3c0.4,0.4,0.7,0.8,1.1,1.3c0.4,0.4,0.7,0.8,1.1,1.2c0.4,0.4,0.7,0.8,1.1,1.2c0.4,0.4,0.7,0.8,1.1,1.2
		c0.4,0.4,0.7,0.8,1.1,1.2c0.4,0.4,0.8,0.8,1.2,1.2c0.2,0.2,0.4,0.4,0.6,0.6c0.2-0.2,0.4-0.4,0.6-0.6c0.4-0.4,0.8-0.8,1.2-1.2
		c0.4-0.4,0.8-0.8,1.1-1.2s0.7-0.8,1.1-1.2c0.4-0.4,0.7-0.8,1.1-1.2c0.4-0.4,0.7-0.8,1.1-1.2c0.4-0.4,0.7-0.8,1.1-1.3
		c0.3-0.4,0.7-0.8,1-1.2c0.4-0.4,0.7-0.9,1-1.3s0.7-0.8,1-1.2c0.3-0.4,0.7-0.9,1-1.3s0.6-0.8,0.9-1.3s0.7-0.9,1-1.4
		c0.3-0.4,0.6-0.8,0.9-1.3s0.6-0.9,1-1.4c0.3-0.4,0.6-0.8,0.9-1.3s0.6-1,0.9-1.4s0.6-0.9,0.8-1.3c0.3-0.5,0.6-1,0.9-1.5
		c0.3-0.4,0.5-0.9,0.8-1.3c0.3-0.5,0.6-1,0.9-1.5c0.2-0.4,0.5-0.9,0.7-1.3c0.3-0.5,0.6-1,0.9-1.5c0.2-0.4,0.5-0.9,0.7-1.3
		c0.3-0.5,0.5-1.1,0.8-1.6c0.2-0.4,0.4-0.9,0.7-1.3c0.3-0.5,0.5-1.1,0.8-1.6c0.2-0.4,0.4-0.9,0.6-1.3c0.3-0.5,0.5-1.1,0.8-1.6
		c0.2-0.4,0.4-0.9,0.6-1.3c0.2-0.6,0.5-1.1,0.7-1.7c0.2-0.4,0.4-0.8,0.5-1.3c0.2-0.6,0.5-1.2,0.7-1.8c0.2-0.4,0.3-0.8,0.5-1.2
		c0.2-0.6,0.5-1.2,0.7-1.8c0.1-0.4,0.3-0.8,0.4-1.2c0.2-0.6,0.4-1.3,0.6-1.9c0.1-0.4,0.3-0.8,0.4-1.2c0.2-0.7,0.4-1.3,0.6-2
		c0.1-0.4,0.2-0.7,0.3-1.1c0.2-0.7,0.4-1.5,0.6-2.2c0.1-0.3,0.2-0.6,0.3-0.9c0.2-0.9,0.5-1.8,0.7-2.7c0-0.1,0.1-0.3,0.1-0.4
		c0.5-2.1,1-4.2,1.4-6.4c0.1-0.3,0.1-0.6,0.2-0.9c0.1-0.8,0.3-1.5,0.4-2.3c0.1-0.4,0.1-0.8,0.2-1.2c0.1-0.7,0.2-1.4,0.3-2
		c0.1-0.4,0.1-0.9,0.2-1.3c0.1-0.6,0.2-1.3,0.3-1.9c0.1-0.5,0.1-0.9,0.2-1.4c0.1-0.6,0.1-1.3,0.2-1.9c0-0.5,0.1-1,0.1-1.4
		c0.1-0.6,0.1-1.2,0.2-1.8c0-0.5,0.1-1,0.1-1.5c0-0.6,0.1-1.2,0.1-1.8c0-0.5,0-1,0.1-1.5c0-0.6,0-1.2,0.1-1.8c0-0.5,0-1,0-1.5
		s0-1,0-1.4c-0.1-0.1-0.3-0.3-0.4-0.4C292.7,351.2,291.7,350.1,290.8,349.1z"/>
	<path fill="#56E48E" d="M253.3,261.1c-0.3,0.3-0.6,0.7-0.9,1c-0.5,0.5-0.9,1-1.4,1.6c-0.2,0.3-0.5,0.6-0.7,0.8
		c-0.7,0.8-1.4,1.6-2,2.4c-0.2,0.2-0.3,0.4-0.5,0.6c-0.5,0.6-1,1.2-1.5,1.8c-0.2,0.3-0.5,0.6-0.7,1c-0.4,0.5-0.8,1-1.2,1.6
		c-0.3,0.4-0.5,0.7-0.8,1.1c-0.4,0.5-0.7,1-1.1,1.5c-0.3,0.4-0.5,0.7-0.8,1.1c-0.3,0.5-0.7,1-1,1.5c-0.3,0.4-0.5,0.8-0.8,1.1
		c-0.3,0.5-0.7,1-1,1.5c-0.2,0.4-0.5,0.8-0.7,1.2c-0.3,0.5-0.6,1-0.9,1.5c-0.2,0.4-0.5,0.8-0.7,1.2c-0.3,0.5-0.6,1-0.9,1.6
		c-0.2,0.4-0.4,0.8-0.7,1.2c-0.3,0.5-0.6,1.1-0.9,1.6c-0.2,0.4-0.4,0.8-0.6,1.1c-0.3,0.6-0.6,1.1-0.9,1.7c-0.2,0.4-0.4,0.7-0.6,1.1
		c-0.3,0.6-0.6,1.2-0.9,1.8c-0.2,0.3-0.3,0.7-0.5,1c-0.3,0.7-0.6,1.4-0.9,2.1c-0.1,0.3-0.2,0.5-0.4,0.8c-0.9,1.9-1.7,3.9-2.4,5.8
		c-0.1,0.3-0.2,0.5-0.3,0.8c-0.3,0.7-0.5,1.4-0.8,2.1c-0.1,0.4-0.2,0.7-0.4,1.1c-0.2,0.6-0.4,1.3-0.7,1.9c-0.1,0.4-0.3,0.8-0.4,1.2
		c-0.2,0.6-0.4,1.2-0.6,1.8c-0.1,0.4-0.2,0.8-0.4,1.2c-0.2,0.6-0.4,1.2-0.5,1.8c-0.1,0.4-0.2,0.8-0.3,1.3c-0.2,0.6-0.3,1.2-0.5,1.8
		c-0.1,0.4-0.2,0.9-0.3,1.3c-0.1,0.6-0.3,1.2-0.4,1.8c-0.1,0.4-0.2,0.9-0.3,1.3c-0.1,0.6-0.3,1.2-0.4,1.8c-0.1,0.4-0.2,0.9-0.3,1.3
		c-0.1,0.6-0.2,1.2-0.3,1.8c-0.1,0.4-0.2,0.9-0.2,1.3c-0.1,0.6-0.2,1.3-0.3,1.9c-0.1,0.4-0.1,0.8-0.2,1.2c-0.1,0.7-0.2,1.4-0.3,2.1
		c0,0.4-0.1,0.7-0.1,1.1c-0.1,0.9-0.2,1.7-0.3,2.6c0,0.2,0,0.4-0.1,0.6c-0.1,1.1-0.2,2.1-0.3,3.2c0,0.3,0,0.6-0.1,0.9
		c-0.1,0.8-0.1,1.5-0.1,2.3c0,0.4,0,0.8-0.1,1.2c0,0.5,0,1.1-0.1,1.6c0.3-0.4,0.7-0.7,1-1.1c0.3-0.3,0.6-0.7,0.9-1
		c0.5-0.5,0.9-1,1.4-1.6c0.2-0.3,0.5-0.6,0.7-0.8c0.7-0.8,1.4-1.6,2-2.4c0.2-0.2,0.3-0.4,0.5-0.6c0.5-0.6,1-1.2,1.5-1.9
		c0.2-0.3,0.5-0.6,0.7-0.9c0.4-0.5,0.8-1.1,1.2-1.6c0.3-0.3,0.5-0.7,0.8-1c0.4-0.5,0.7-1,1.1-1.5c0.3-0.4,0.5-0.7,0.8-1.1
		c0.3-0.5,0.7-1,1-1.5c0.3-0.4,0.5-0.8,0.8-1.1c0.3-0.5,0.7-1,1-1.5c0.2-0.4,0.5-0.8,0.7-1.2c0.3-0.5,0.6-1,0.9-1.5
		c0.2-0.4,0.5-0.8,0.7-1.2c0.3-0.5,0.6-1,0.9-1.6c0.2-0.4,0.4-0.8,0.7-1.2c0.3-0.5,0.6-1.1,0.9-1.6c0.2-0.4,0.4-0.8,0.6-1.2
		c0.3-0.6,0.6-1.1,0.9-1.7c0.2-0.4,0.4-0.7,0.6-1.1c0.3-0.6,0.6-1.2,0.9-1.8c0.2-0.3,0.3-0.7,0.5-1c0.3-0.7,0.6-1.4,0.9-2.1
		c0.1-0.3,0.2-0.5,0.4-0.8c0.9-1.9,1.7-3.9,2.4-5.8c0.1-0.3,0.2-0.5,0.3-0.8c0.3-0.7,0.5-1.4,0.8-2.1c0.1-0.4,0.2-0.7,0.4-1.1
		c0.2-0.6,0.4-1.3,0.7-1.9c0.1-0.4,0.3-0.8,0.4-1.2c0.2-0.6,0.4-1.2,0.6-1.8c0.1-0.4,0.2-0.8,0.4-1.2c0.2-0.6,0.4-1.2,0.5-1.8
		c0.1-0.4,0.2-0.9,0.4-1.3c0.2-0.6,0.3-1.2,0.5-1.8c0.1-0.4,0.2-0.9,0.3-1.3c0.1-0.6,0.3-1.2,0.4-1.8c0.1-0.4,0.2-0.9,0.3-1.3
		c0.1-0.6,0.3-1.2,0.4-1.8c0.1-0.4,0.2-0.9,0.3-1.3c0.1-0.6,0.2-1.2,0.3-1.8c0.1-0.4,0.2-0.9,0.2-1.3c0.1-0.6,0.2-1.3,0.3-1.9
		c0.1-0.4,0.1-0.8,0.2-1.2c0.1-0.7,0.2-1.4,0.3-2.1c0-0.4,0.1-0.7,0.1-1.1c0.1-0.9,0.2-1.8,0.3-2.7c0-0.2,0-0.3,0.1-0.5
		c0.1-1.1,0.2-2.1,0.3-3.2c0-0.3,0-0.6,0.1-0.9c0.1-0.8,0.1-1.5,0.1-2.3c0-0.4,0-0.8,0.1-1.2c0-0.5,0-1.1,0.1-1.6
		C254,260.4,253.6,260.8,253.3,261.1z"/>
	<path fill="#0CDEB6" d="M257.7,261.8c0,0.3,0,0.7,0,1c0,0.9,0.1,1.8,0.2,2.6c0,0.2,0,0.4,0,0.6c0.1,1.1,0.2,2.2,0.3,3.2v0.1
		c0.1,1,0.2,2,0.3,3.1c0,0.3,0.1,0.6,0.1,0.9c0.1,0.8,0.2,1.5,0.3,2.3c0.1,0.4,0.1,0.7,0.2,1.1c0.1,0.7,0.2,1.4,0.3,2
		c0.1,0.4,0.1,0.8,0.2,1.2c0.1,0.6,0.2,1.3,0.4,1.9c0.1,0.4,0.2,0.8,0.3,1.2c0.1,0.6,0.3,1.2,0.4,1.9c0.1,0.4,0.2,0.8,0.3,1.3
		c0.1,0.6,0.3,1.2,0.4,1.8c0.1,0.4,0.2,0.8,0.3,1.3c0.2,0.6,0.3,1.2,0.5,1.8c0.1,0.4,0.2,0.8,0.3,1.2c0.2,0.6,0.3,1.2,0.5,1.8
		c0.1,0.4,0.2,0.8,0.4,1.2c0.2,0.6,0.4,1.2,0.6,1.9c0.1,0.4,0.2,0.8,0.4,1.1c0.2,0.6,0.4,1.3,0.7,1.9c0.1,0.4,0.2,0.7,0.4,1
		c0.3,0.7,0.5,1.4,0.8,2.2c0.1,0.3,0.2,0.5,0.3,0.8c0.8,2,1.6,3.9,2.4,5.8c0.1,0.3,0.2,0.5,0.4,0.8c0.3,0.7,0.6,1.4,0.9,2.1
		c0.2,0.4,0.3,0.7,0.5,1c0.3,0.6,0.6,1.2,0.9,1.8c0.2,0.4,0.4,0.8,0.6,1.1c0.3,0.6,0.6,1.1,0.9,1.7c0.2,0.4,0.4,0.8,0.6,1.2
		c0.3,0.5,0.6,1.1,0.9,1.6c0.2,0.4,0.5,0.8,0.7,1.2c0.3,0.5,0.6,1,0.9,1.5c0.2,0.4,0.5,0.8,0.7,1.2c0.3,0.5,0.6,1,0.9,1.5
		c0.2,0.4,0.5,0.8,0.8,1.2c0.3,0.5,0.6,1,1,1.5c0.3,0.4,0.5,0.8,0.8,1.2c0.3,0.5,0.7,1,1,1.5c0.3,0.4,0.5,0.8,0.8,1.2
		c0.3,0.5,0.7,1,1,1.5c0.3,0.4,0.5,0.8,0.8,1.1c0.4,0.5,0.7,1,1.1,1.5c0.3,0.4,0.5,0.7,0.8,1.1c0.4,0.5,0.9,1.1,1.3,1.6
		c0.2,0.3,0.5,0.6,0.7,0.9c0.7,0.8,1.3,1.6,2,2.4c0.3,0.3,0.6,0.7,0.9,1c0.4,0.5,0.8,0.9,1.2,1.4c0.3,0.4,0.7,0.8,1,1.1
		c0.3,0.3,0.6,0.7,0.9,1c0-0.6,0-1.2-0.1-1.8c0-0.3,0-0.7,0-1c0-0.9-0.1-1.8-0.2-2.6c0-0.2,0-0.4,0-0.6c-0.1-1.1-0.2-2.2-0.3-3.2
		v-0.1c-0.1-1-0.2-2-0.3-3c0-0.3-0.1-0.6-0.1-0.9c-0.1-0.8-0.2-1.5-0.3-2.3c-0.1-0.4-0.1-0.7-0.2-1.1c-0.1-0.7-0.2-1.4-0.3-2
		c-0.1-0.4-0.1-0.8-0.2-1.2c-0.1-0.6-0.2-1.3-0.4-1.9c-0.1-0.4-0.2-0.8-0.3-1.2c-0.1-0.6-0.3-1.2-0.4-1.9c-0.1-0.4-0.2-0.8-0.3-1.3
		c-0.1-0.6-0.3-1.2-0.4-1.8c-0.1-0.4-0.2-0.8-0.3-1.3c-0.2-0.6-0.3-1.2-0.5-1.8c-0.1-0.4-0.2-0.8-0.3-1.2c-0.2-0.6-0.3-1.2-0.5-1.8
		c-0.1-0.4-0.2-0.8-0.4-1.2c-0.2-0.6-0.4-1.2-0.6-1.9c-0.1-0.4-0.2-0.8-0.4-1.1c-0.2-0.6-0.4-1.3-0.7-1.9c-0.1-0.3-0.2-0.7-0.4-1
		c-0.3-0.7-0.5-1.4-0.8-2.2c-0.1-0.3-0.2-0.5-0.3-0.8c-0.8-2-1.6-3.9-2.4-5.8c-0.1-0.3-0.2-0.5-0.4-0.8c-0.3-0.7-0.6-1.4-0.9-2.1
		c-0.2-0.4-0.3-0.7-0.5-1c-0.3-0.6-0.6-1.2-0.9-1.8c-0.2-0.4-0.4-0.8-0.6-1.1c-0.3-0.6-0.6-1.1-0.9-1.7c-0.2-0.4-0.4-0.8-0.6-1.2
		c-0.3-0.5-0.6-1.1-0.9-1.6c-0.2-0.4-0.5-0.8-0.7-1.2c-0.3-0.5-0.6-1-0.9-1.5c-0.2-0.4-0.5-0.8-0.7-1.2c-0.3-0.5-0.6-1-0.9-1.5
		c-0.2-0.4-0.5-0.8-0.8-1.2c-0.3-0.5-0.6-1-1-1.5c-0.3-0.4-0.5-0.8-0.8-1.2c-0.3-0.5-0.7-1-1-1.5c-0.3-0.4-0.5-0.8-0.8-1.2
		c-0.3-0.5-0.7-1-1-1.4s-0.5-0.8-0.8-1.1c-0.4-0.5-0.7-1-1.1-1.5c-0.3-0.4-0.5-0.7-0.8-1.1c-0.4-0.5-0.9-1.1-1.3-1.6
		c-0.2-0.3-0.5-0.6-0.7-0.9c-0.7-0.8-1.3-1.6-2-2.4c-0.3-0.3-0.6-0.7-0.9-1c-0.4-0.5-0.8-0.9-1.2-1.4c-0.3-0.4-0.7-0.8-1-1.1
		c-0.3-0.3-0.6-0.7-0.9-1C257.7,260.6,257.7,261.2,257.7,261.8z"/>
	<path fill="#464AD2" d="M349.1,221.2c-0.2,0.2-0.4,0.4-0.6,0.6c-1.2,1.1-2.3,2.1-3.5,3.1c-0.3,0.2-0.5,0.5-0.8,0.7
		c-1.2,1-2.4,2-3.7,3c0,0-0.1,0-0.1,0.1c-1.3,1-2.5,1.9-3.8,2.9c-0.3,0.2-0.6,0.4-0.8,0.6c-1.3,0.9-2.6,1.8-3.9,2.7
		c-0.2,0.1-0.4,0.3-0.6,0.4c-1.2,0.8-2.4,1.6-3.6,2.3c-0.2,0.1-0.4,0.3-0.7,0.4c-1.3,0.8-2.7,1.6-4,2.4c-0.3,0.2-0.6,0.3-0.9,0.5
		c-1.4,0.8-2.8,1.5-4.2,2.2h-0.1c-1.4,0.7-2.9,1.4-4.3,2.1c-0.3,0.1-0.6,0.3-0.9,0.4c-1.4,0.6-2.9,1.3-4.3,1.9
		c-0.2,0.1-0.4,0.2-0.6,0.2c-1.3,0.5-2.7,1.1-4,1.6c-0.2,0.1-0.5,0.2-0.7,0.3c-1.5,0.5-2.9,1-4.4,1.5c-0.3,0.1-0.6,0.2-0.9,0.3
		c-1.5,0.5-3,0.9-4.5,1.3c0,0-0.1,0-0.2,0c-1.5,0.4-3.1,0.8-4.6,1.2c-0.3,0.1-0.7,0.2-1,0.2c-1.5,0.4-3.1,0.7-4.6,1
		c-0.2,0-0.5,0.1-0.7,0.1c-1.4,0.3-2.8,0.5-4.2,0.7c-0.2,0-0.4,0.1-0.6,0.1c0.2,0,0.4,0.1,0.6,0.1c1.4,0.2,2.8,0.5,4.2,0.7
		c0.2,0,0.5,0.1,0.7,0.1c1.5,0.3,3.1,0.6,4.6,1c0.3,0.1,0.7,0.2,1,0.2c1.5,0.4,3.1,0.8,4.6,1.2c0.1,0,0.1,0,0.2,0.1
		c1.5,0.4,2.9,0.9,4.4,1.3c0.3,0.1,0.6,0.2,1,0.3c1.5,0.5,2.9,1,4.4,1.5c0.3,0.1,0.5,0.2,0.8,0.3c1.3,0.5,2.7,1,4,1.5
		c0.2,0.1,0.5,0.2,0.7,0.3c1.4,0.6,2.9,1.2,4.3,1.8c0.3,0.1,0.6,0.3,0.9,0.4c1.4,0.7,2.9,1.3,4.3,2l0.1,0.1c1.4,0.7,2.7,1.4,4.1,2.2
		c0.3,0.2,0.6,0.3,0.9,0.5c1.3,0.8,2.7,1.5,4,2.3c0.2,0.1,0.5,0.3,0.7,0.4c1.2,0.7,2.4,1.5,3.6,2.3c0.2,0.1,0.4,0.3,0.7,0.4
		c1.3,0.9,2.6,1.7,3.8,2.7c0.3,0.2,0.6,0.4,0.9,0.6c1.3,0.9,2.6,1.9,3.8,2.9l0.1,0.1c1.2,1,2.4,2,3.6,3c0.3,0.2,0.5,0.5,0.8,0.7
		c1.2,1,2.4,2.1,3.5,3.1c0.2,0.2,0.4,0.4,0.6,0.6c1,1,2.1,2,3.1,3c0.1,0.1,0.3,0.3,0.4,0.4c0.5,0,1,0,1.4,0c0.5,0,1,0,1.6,0
		s1.2,0,1.8-0.1c0.5,0,1,0,1.5-0.1c0.6,0,1.2-0.1,1.8-0.1c0.5,0,1-0.1,1.5-0.1c0.6,0,1.2-0.1,1.8-0.2c0.5,0,1-0.1,1.5-0.1
		c0.6-0.1,1.2-0.1,1.9-0.2c0.5-0.1,0.9-0.1,1.4-0.2c0.6-0.1,1.3-0.2,1.9-0.3c0.4-0.1,0.9-0.1,1.3-0.2c0.7-0.1,1.4-0.2,2-0.3
		c0.4-0.1,0.8-0.1,1.2-0.2c0.8-0.1,1.5-0.3,2.3-0.4c0.3-0.1,0.6-0.1,0.9-0.2c2.1-0.4,4.2-0.9,6.3-1.4c0.2,0,0.3-0.1,0.5-0.1
		c0.9-0.2,1.8-0.5,2.7-0.7c0.3-0.1,0.6-0.2,0.9-0.3c0.7-0.2,1.5-0.4,2.2-0.6c0.4-0.1,0.7-0.2,1.1-0.3c0.7-0.2,1.3-0.4,2-0.6
		c0.4-0.1,0.8-0.3,1.2-0.4c0.6-0.2,1.3-0.4,1.9-0.6c0.4-0.1,0.8-0.3,1.2-0.5c0.6-0.2,1.2-0.4,1.8-0.7c0.4-0.2,0.8-0.3,1.3-0.5
		c0.6-0.2,1.2-0.5,1.7-0.7c0.4-0.2,0.9-0.4,1.3-0.5c0.6-0.2,1.1-0.5,1.7-0.7c0.4-0.2,0.9-0.4,1.3-0.6c0.5-0.2,1.1-0.5,1.6-0.8
		c0.4-0.2,0.9-0.4,1.3-0.6c0.5-0.3,1.1-0.5,1.6-0.8c0.4-0.2,0.9-0.4,1.3-0.7c0.5-0.3,1-0.5,1.6-0.8c0.4-0.2,0.9-0.5,1.3-0.7
		c0.5-0.3,1-0.6,1.5-0.8c0.4-0.2,0.9-0.5,1.3-0.7c0.5-0.3,1-0.6,1.5-0.9c0.4-0.3,0.9-0.5,1.3-0.8c0.5-0.3,1-0.6,1.5-0.9
		c0.4-0.3,0.9-0.5,1.3-0.8c0.5-0.3,1-0.6,1.4-0.9s0.8-0.6,1.3-0.9s0.9-0.6,1.4-1c0.4-0.3,0.8-0.6,1.3-0.9s0.9-0.7,1.4-1
		c0.4-0.3,0.8-0.6,1.3-0.9s0.9-0.7,1.3-1s0.8-0.7,1.2-1c0.4-0.3,0.9-0.7,1.3-1.1c0.4-0.3,0.8-0.7,1.2-1c0.4-0.4,0.9-0.7,1.3-1.1
		s0.8-0.7,1.2-1.1c0.4-0.4,0.8-0.7,1.2-1.1c0.4-0.4,0.8-0.7,1.2-1.1c0.4-0.4,0.8-0.7,1.2-1.1c0.4-0.4,0.8-0.8,1.2-1.1
		c0.2-0.2,0.4-0.4,0.6-0.6c-0.2-0.2-0.4-0.4-0.6-0.6c-0.4-0.4-0.8-0.8-1.2-1.2c-0.4-0.4-0.8-0.7-1.2-1.1c-0.4-0.4-0.8-0.7-1.2-1.1
		c-0.4-0.4-0.8-0.7-1.2-1.1c-0.4-0.4-0.8-0.7-1.2-1.1c-0.4-0.4-0.8-0.7-1.3-1.1c-0.4-0.4-0.8-0.7-1.3-1c-0.4-0.3-0.9-0.7-1.3-1
		s-0.8-0.7-1.3-1c-0.4-0.3-0.9-0.7-1.3-1s-0.9-0.6-1.3-1c-0.4-0.3-0.9-0.6-1.3-1c-0.4-0.3-0.9-0.6-1.3-0.9c-0.5-0.3-0.9-0.6-1.4-0.9
		c-0.4-0.3-0.9-0.6-1.3-0.9c-0.5-0.3-0.9-0.6-1.4-0.9c-0.4-0.3-0.9-0.6-1.3-0.9c-0.5-0.3-0.9-0.6-1.4-0.9c-0.4-0.3-0.9-0.5-1.3-0.8
		c-0.5-0.3-1-0.6-1.4-0.8c-0.5-0.3-0.9-0.5-1.4-0.8s-1-0.5-1.5-0.8c-0.5-0.2-0.9-0.5-1.4-0.7c-0.5-0.3-1-0.5-1.5-0.8
		c-0.5-0.2-0.9-0.5-1.4-0.7c-0.5-0.3-1-0.5-1.5-0.8c-0.5-0.2-0.9-0.4-1.4-0.7c-0.5-0.2-1-0.5-1.6-0.7c-0.5-0.2-0.9-0.4-1.4-0.6
		c-0.5-0.2-1.1-0.5-1.6-0.7s-0.9-0.4-1.4-0.6c-0.5-0.2-1.1-0.4-1.7-0.7c-0.4-0.2-0.9-0.4-1.3-0.5c-0.6-0.2-1.1-0.4-1.7-0.6
		c-0.4-0.2-0.9-0.3-1.3-0.5c-0.6-0.2-1.2-0.4-1.8-0.6c-0.4-0.1-0.9-0.3-1.3-0.4c-0.6-0.2-1.2-0.4-1.9-0.6c-0.4-0.1-0.8-0.3-1.2-0.4
		c-0.7-0.2-1.3-0.4-2-0.6c-0.4-0.1-0.7-0.2-1.1-0.3c-0.8-0.2-1.6-0.4-2.4-0.6c-0.2-0.1-0.5-0.1-0.7-0.2c-1.1-0.3-2.1-0.5-3.2-0.8
		c-0.1,0-0.1,0-0.2,0c-1-0.2-2-0.4-3-0.6c-0.3-0.1-0.7-0.1-1-0.2c-0.7-0.1-1.5-0.3-2.2-0.4c-0.4-0.1-0.8-0.1-1.2-0.2
		c-0.7-0.1-1.3-0.2-2-0.3c-0.4-0.1-0.9-0.1-1.3-0.2c-0.6-0.1-1.3-0.2-1.9-0.3c-0.5-0.1-0.9-0.1-1.4-0.2c-0.6-0.1-1.2-0.1-1.9-0.2
		c-0.5,0-1-0.1-1.5-0.1c-0.6-0.1-1.2-0.1-1.8-0.2c-0.5,0-1-0.1-1.5-0.1c-0.6,0-1.2-0.1-1.8-0.1c-0.5,0-1,0-1.5-0.1
		c-0.6,0-1.2,0-1.8-0.1c-0.5,0-1,0-1.5,0s-1,0-1.4,0c-0.1,0.1-0.3,0.3-0.4,0.4C351.1,219.3,350.1,220.3,349.1,221.2z"/>
	<path fill="#1CB1EE" d="M261,258.6c0.4,0.4,0.8,0.7,1.1,1c0.4,0.4,0.9,0.8,1.3,1.2c0.4,0.3,0.7,0.6,1,0.9c0.8,0.7,1.6,1.4,2.4,2
		c0.3,0.2,0.6,0.5,0.9,0.7c0.5,0.4,1.1,0.9,1.6,1.3c0.4,0.3,0.7,0.5,1.1,0.8c0.5,0.4,1,0.8,1.5,1.1c0.4,0.3,0.8,0.6,1.1,0.8
		c0.5,0.4,1,0.7,1.4,1s0.8,0.5,1.2,0.8c0.5,0.3,1,0.7,1.5,1c0.4,0.3,0.8,0.5,1.2,0.8c0.5,0.3,1,0.6,1.5,1c0.4,0.3,0.8,0.5,1.2,0.8
		c0.5,0.3,1,0.6,1.5,0.9c0.4,0.2,0.8,0.5,1.2,0.7c0.5,0.3,1,0.6,1.5,0.9c0.4,0.2,0.8,0.5,1.2,0.7c0.5,0.3,1.1,0.6,1.6,0.9
		c0.4,0.2,0.8,0.4,1.2,0.6c0.6,0.3,1.1,0.6,1.7,0.9c0.4,0.2,0.8,0.4,1.1,0.6c0.6,0.3,1.2,0.6,1.8,0.9c0.4,0.2,0.7,0.3,1.1,0.5
		c0.7,0.3,1.4,0.6,2,0.9c0.3,0.1,0.5,0.2,0.8,0.4c1.9,0.9,3.9,1.7,5.8,2.4c0.3,0.1,0.5,0.2,0.8,0.3c0.7,0.3,1.4,0.5,2.2,0.8
		c0.3,0.1,0.7,0.2,1,0.4c0.6,0.2,1.3,0.5,1.9,0.7c0.4,0.1,0.8,0.2,1.2,0.4c0.6,0.2,1.2,0.4,1.9,0.6c0.4,0.1,0.8,0.2,1.2,0.4
		c0.6,0.2,1.2,0.4,1.8,0.5c0.4,0.1,0.8,0.2,1.2,0.3c0.6,0.2,1.2,0.3,1.8,0.5c0.4,0.1,0.8,0.2,1.3,0.3c0.6,0.1,1.2,0.3,1.8,0.4
		c0.4,0.1,0.8,0.2,1.3,0.3c0.6,0.1,1.2,0.3,1.9,0.4c0.4,0.1,0.8,0.2,1.2,0.3c0.6,0.1,1.3,0.2,1.9,0.4c0.4,0.1,0.8,0.1,1.2,0.2
		c0.7,0.1,1.3,0.2,2,0.3c0.4,0.1,0.7,0.1,1.1,0.2c0.8,0.1,1.5,0.2,2.3,0.3c0.3,0,0.6,0.1,0.9,0.1c1,0.1,2,0.2,3.1,0.3h0.1
		c1.1,0.1,2.2,0.2,3.2,0.3c0.2,0,0.4,0,0.6,0c0.9,0.1,1.8,0.1,2.6,0.2c0.3,0,0.7,0,1,0c0.6,0,1.2,0,1.8,0.1c-0.3-0.3-0.7-0.6-1-0.9
		c-0.4-0.3-0.7-0.7-1.1-1c-0.5-0.4-0.9-0.8-1.4-1.2c-0.3-0.3-0.7-0.6-1-0.9c-0.8-0.7-1.6-1.4-2.4-2c-0.3-0.2-0.6-0.5-0.9-0.7
		c-0.5-0.4-1.1-0.9-1.6-1.3c-0.3-0.3-0.7-0.5-1.1-0.8c-0.5-0.4-1-0.8-1.5-1.1c-0.4-0.3-0.8-0.5-1.1-0.8c-0.5-0.4-1-0.7-1.4-1
		s-0.8-0.5-1.2-0.8c-0.5-0.3-1-0.7-1.5-1c-0.4-0.3-0.8-0.5-1.2-0.8c-0.5-0.3-1-0.6-1.5-1c-0.4-0.3-0.8-0.5-1.2-0.8
		c-0.5-0.3-1-0.6-1.5-0.9c-0.4-0.2-0.8-0.5-1.2-0.7c-0.5-0.3-1-0.6-1.5-0.9c-0.4-0.2-0.8-0.5-1.2-0.7c-0.5-0.3-1.1-0.6-1.6-0.9
		c-0.4-0.2-0.8-0.4-1.2-0.6c-0.5-0.3-1.1-0.6-1.6-0.9c-0.4-0.2-0.8-0.4-1.1-0.6c-0.6-0.3-1.2-0.6-1.8-0.9c-0.4-0.2-0.7-0.3-1.1-0.5
		c-0.7-0.3-1.4-0.6-2-0.9c-0.3-0.1-0.5-0.2-0.8-0.4c-1.9-0.9-3.9-1.7-5.8-2.4c-0.3-0.1-0.5-0.2-0.8-0.3c-0.7-0.3-1.4-0.5-2.1-0.8
		c-0.4-0.1-0.7-0.2-1.1-0.4c-0.6-0.2-1.3-0.4-1.9-0.7c-0.4-0.1-0.8-0.3-1.2-0.4c-0.6-0.2-1.2-0.4-1.8-0.6c-0.4-0.1-0.8-0.2-1.2-0.4
		c-0.6-0.2-1.2-0.4-1.8-0.5c-0.4-0.1-0.8-0.2-1.2-0.3c-0.6-0.2-1.2-0.3-1.8-0.5c-0.4-0.1-0.8-0.2-1.3-0.3c-0.6-0.1-1.2-0.3-1.8-0.4
		c-0.4-0.1-0.8-0.2-1.3-0.3c-0.6-0.1-1.2-0.3-1.9-0.4c-0.4-0.1-0.8-0.2-1.3-0.3c-0.6-0.1-1.3-0.2-1.9-0.4c-0.4-0.1-0.8-0.1-1.2-0.2
		c-0.7-0.1-1.3-0.2-2-0.3c-0.4-0.1-0.8-0.1-1.1-0.2c-0.7-0.1-1.5-0.2-2.2-0.3c-0.3,0-0.6-0.1-0.9-0.1c-1-0.1-2-0.2-3-0.3h-0.1
		c-1.1-0.1-2.2-0.2-3.2-0.3c-0.2,0-0.4,0-0.6,0c-0.9-0.1-1.8-0.1-2.6-0.2c-0.3,0-0.7,0-1,0c-0.6,0-1.2,0-1.8-0.1
		C260.4,258,260.7,258.3,261,258.6z"/>
	<path fill="#464AD2" d="M261.7,254.3c0.4,0,0.8,0,1.2-0.1c0.8,0,1.5-0.1,2.3-0.1c0.3,0,0.6,0,0.9-0.1c1.1-0.1,2.1-0.2,3.2-0.3
		c0.2,0,0.4,0,0.5-0.1c0.9-0.1,1.8-0.2,2.6-0.3c0.4,0,0.7-0.1,1.1-0.1c0.7-0.1,1.4-0.2,2.1-0.3c0.4-0.1,0.8-0.1,1.2-0.2
		c0.6-0.1,1.3-0.2,1.9-0.3c0.4-0.1,0.9-0.2,1.3-0.2c0.6-0.1,1.2-0.2,1.8-0.3c0.4-0.1,0.9-0.2,1.3-0.3c0.6-0.1,1.2-0.2,1.8-0.4
		c0.4-0.1,0.9-0.2,1.3-0.3c0.6-0.1,1.2-0.3,1.8-0.4c0.4-0.1,0.9-0.2,1.3-0.3c0.6-0.2,1.2-0.3,1.8-0.5c0.4-0.1,0.8-0.2,1.3-0.3
		c0.6-0.2,1.2-0.3,1.8-0.5c0.4-0.1,0.8-0.2,1.2-0.4c0.6-0.2,1.2-0.4,1.8-0.6c0.4-0.1,0.8-0.2,1.2-0.4c0.6-0.2,1.3-0.4,1.9-0.7
		c0.4-0.1,0.7-0.2,1.1-0.4c0.7-0.3,1.4-0.5,2.1-0.8c0.3-0.1,0.5-0.2,0.8-0.3c2-0.8,3.9-1.6,5.8-2.4c0.3-0.1,0.5-0.2,0.8-0.4
		c0.7-0.3,1.4-0.6,2.1-1c0.3-0.2,0.7-0.3,1-0.5c0.6-0.3,1.2-0.6,1.8-0.9c0.4-0.2,0.7-0.4,1.1-0.6c0.6-0.3,1.1-0.6,1.7-0.9
		c0.4-0.2,0.8-0.4,1.2-0.6c0.5-0.3,1.1-0.6,1.6-0.9c0.4-0.2,0.8-0.4,1.2-0.7c0.5-0.3,1-0.6,1.6-0.9c0.4-0.2,0.8-0.5,1.2-0.7
		c0.5-0.3,1-0.6,1.5-0.9c0.4-0.2,0.8-0.5,1.2-0.7c0.5-0.3,1-0.7,1.5-1c0.4-0.3,0.8-0.5,1.1-0.8c0.5-0.3,1-0.7,1.5-1
		c0.4-0.3,0.7-0.5,1.1-0.8c0.5-0.4,1-0.7,1.5-1.1c0.4-0.3,0.7-0.5,1.1-0.8c0.5-0.4,1.1-0.8,1.6-1.2c0.3-0.2,0.6-0.5,1-0.7
		c0.6-0.5,1.2-1,1.9-1.5c0.2-0.2,0.4-0.3,0.6-0.5c0.8-0.7,1.6-1.4,2.4-2c0.3-0.2,0.6-0.5,0.8-0.7c0.5-0.5,1-0.9,1.6-1.4
		c0.3-0.3,0.7-0.6,1-0.9c0.4-0.3,0.7-0.7,1.1-1c-0.5,0-1.1,0-1.6,0.1c-0.4,0-0.8,0-1.2,0.1c-0.8,0-1.5,0.1-2.3,0.1
		c-0.3,0-0.6,0-0.9,0.1c-1.1,0.1-2.1,0.2-3.2,0.3c-0.2,0-0.3,0-0.5,0.1c-0.9,0.1-1.8,0.2-2.7,0.3c-0.4,0-0.7,0.1-1.1,0.1
		c-0.7,0.1-1.4,0.2-2.1,0.3c-0.4,0.1-0.8,0.1-1.2,0.2c-0.6,0.1-1.3,0.2-1.9,0.3c-0.4,0.1-0.9,0.2-1.3,0.2c-0.6,0.1-1.2,0.2-1.8,0.3
		c-0.4,0.1-0.9,0.2-1.3,0.3c-0.6,0.1-1.2,0.2-1.8,0.4c-0.4,0.1-0.9,0.2-1.3,0.3c-0.6,0.1-1.2,0.3-1.8,0.4c-0.4,0.1-0.9,0.2-1.3,0.3
		c-0.6,0.2-1.2,0.3-1.8,0.5c-0.4,0.1-0.9,0.2-1.3,0.4c-0.6,0.2-1.2,0.3-1.8,0.5c-0.4,0.1-0.8,0.2-1.2,0.4c-0.6,0.2-1.2,0.4-1.8,0.6
		c-0.4,0.1-0.8,0.2-1.2,0.4c-0.6,0.2-1.3,0.4-1.9,0.7c-0.4,0.1-0.7,0.2-1.1,0.4c-0.7,0.3-1.4,0.5-2.1,0.8c-0.3,0.1-0.5,0.2-0.8,0.3
		c-2,0.8-3.9,1.6-5.8,2.4c-0.3,0.1-0.5,0.2-0.8,0.4c-0.7,0.3-1.4,0.6-2,0.9c-0.3,0.2-0.7,0.3-1,0.5c-0.6,0.3-1.2,0.6-1.8,0.9
		c-0.4,0.2-0.7,0.4-1.1,0.6c-0.6,0.3-1.1,0.6-1.7,0.9c-0.4,0.2-0.8,0.4-1.2,0.6c-0.5,0.3-1.1,0.6-1.6,0.9c-0.4,0.2-0.8,0.4-1.2,0.7
		c-0.5,0.3-1,0.6-1.6,0.9c-0.4,0.2-0.8,0.5-1.2,0.7c-0.5,0.3-1,0.6-1.5,0.9c-0.4,0.2-0.8,0.5-1.2,0.7c-0.5,0.3-1,0.7-1.5,1
		c-0.4,0.3-0.8,0.5-1.1,0.8c-0.5,0.3-1,0.7-1.5,1c-0.4,0.3-0.7,0.5-1.1,0.8c-0.5,0.4-1,0.7-1.5,1.1c-0.4,0.3-0.7,0.5-1.1,0.8
		c-0.5,0.4-1.1,0.8-1.6,1.2c-0.3,0.2-0.6,0.5-1,0.7c-0.6,0.5-1.2,1-1.8,1.5c-0.2,0.2-0.4,0.3-0.6,0.5c-0.8,0.7-1.6,1.4-2.4,2
		c-0.3,0.2-0.6,0.5-0.8,0.7c-0.5,0.5-1,0.9-1.6,1.4c-0.3,0.3-0.7,0.6-1,0.9c-0.4,0.3-0.7,0.7-1.1,1
		C260.6,254.3,261.1,254.3,261.7,254.3z"/>
	<path fill="#FFFFFF" d="M260,254.3c0.4-0.3,0.7-0.7,1.1-1c0.3-0.3,0.7-0.6,1-0.9c0.5-0.5,1-0.9,1.6-1.4c0.3-0.2,0.6-0.5,0.8-0.7
		c0.8-0.7,1.6-1.4,2.4-2c0.2-0.2,0.4-0.3,0.6-0.5c0.6-0.5,1.2-1,1.8-1.5c0.3-0.2,0.6-0.5,1-0.7c0.5-0.4,1-0.8,1.6-1.2
		c0.4-0.3,0.7-0.5,1.1-0.8c0.5-0.4,1-0.7,1.5-1.1c0.4-0.3,0.7-0.5,1.1-0.8c0.5-0.3,1-0.7,1.5-1c0.4-0.3,0.8-0.5,1.1-0.8
		c0.5-0.3,1-0.7,1.5-1c0.4-0.2,0.8-0.5,1.2-0.7c0.5-0.3,1-0.6,1.5-0.9c0.4-0.2,0.8-0.5,1.2-0.7c0.5-0.3,1-0.6,1.6-0.9
		c0.4-0.2,0.8-0.4,1.2-0.7c0.5-0.3,1.1-0.6,1.6-0.9c0.4-0.2,0.8-0.4,1.2-0.6c0.6-0.3,1.1-0.6,1.7-0.9c0.4-0.2,0.7-0.4,1.1-0.6
		c0.6-0.3,1.2-0.6,1.8-0.9c0.3-0.2,0.7-0.3,1-0.5c0.7-0.3,1.4-0.6,2-0.9c0.3-0.1,0.5-0.2,0.8-0.4c1.9-0.9,3.9-1.7,5.8-2.4
		c0.3-0.1,0.5-0.2,0.8-0.3c0.7-0.3,1.4-0.5,2.1-0.8c0.4-0.1,0.7-0.2,1.1-0.4c0.6-0.2,1.3-0.4,1.9-0.7c0.4-0.1,0.8-0.3,1.2-0.4
		c0.6-0.2,1.2-0.4,1.8-0.6c0.4-0.1,0.8-0.2,1.2-0.4c0.6-0.2,1.2-0.4,1.8-0.5c0.4-0.1,0.9-0.2,1.3-0.4c0.6-0.2,1.2-0.3,1.8-0.5
		c0.4-0.1,0.9-0.2,1.3-0.3c0.6-0.1,1.2-0.3,1.8-0.4c0.4-0.1,0.9-0.2,1.3-0.3c0.6-0.1,1.2-0.3,1.8-0.4c0.4-0.1,0.9-0.2,1.3-0.3
		c0.6-0.1,1.2-0.2,1.8-0.3c0.4-0.1,0.9-0.2,1.3-0.2c0.6-0.1,1.3-0.2,1.9-0.3c0.4-0.1,0.8-0.1,1.2-0.2c0.7-0.1,1.4-0.2,2.1-0.3
		c0.4,0,0.7-0.1,1.1-0.1c0.9-0.1,1.8-0.2,2.7-0.3c0.2,0,0.3,0,0.5-0.1c1.1-0.1,2.1-0.2,3.2-0.3c0.3,0,0.6,0,0.9-0.1
		c0.8-0.1,1.5-0.1,2.3-0.1c0.4,0,0.8,0,1.2-0.1c0.5,0,1.1-0.1,1.6-0.1c0.6-0.5,1.1-1.1,1.7-1.6c-29.3,0.5-58.5,10.4-82.5,29.8
		c-2.3,2.8-4.7,5.6-7.2,8.3C259.9,254.3,260,254.3,260,254.3z"/>
	<path fill="#FAE708" d="M67.3,250.8c0.4-0.3,0.8-0.7,1.1-1c0.4-0.4,0.9-0.8,1.3-1.2c0.4-0.3,0.8-0.7,1.2-1c0.5-0.4,0.9-0.8,1.4-1.2
		c0.4-0.3,0.8-0.6,1.2-1c0.5-0.4,1-0.8,1.4-1.2c0.4-0.3,0.8-0.6,1.1-0.9c0.5-0.4,1-0.8,1.5-1.1c0.4-0.3,0.7-0.6,1.1-0.8
		c0.5-0.4,1.1-0.8,1.6-1.2c0.4-0.3,0.7-0.5,1.1-0.8c0.6-0.4,1.2-0.8,1.8-1.2c0.3-0.2,0.6-0.4,0.9-0.6c0.7-0.5,1.5-1,2.2-1.5
		c0.2-0.1,0.3-0.2,0.5-0.3c0.9-0.6,1.9-1.2,2.8-1.7c0.1,0,0.1-0.1,0.2-0.1c0.9-0.5,1.7-1,2.6-1.5c0.3-0.2,0.6-0.3,0.8-0.5
		c0.7-0.4,1.4-0.8,2-1.1c0.3-0.2,0.7-0.4,1-0.5c0.6-0.3,1.3-0.7,1.9-1c0.4-0.2,0.7-0.4,1.1-0.5c0.6-0.3,1.2-0.6,1.8-0.9
		c0.4-0.2,0.8-0.4,1.2-0.5c0.6-0.3,1.2-0.6,1.8-0.8c0.4-0.2,0.8-0.4,1.2-0.5c0.6-0.3,1.2-0.5,1.8-0.8c0.4-0.2,0.8-0.3,1.3-0.5
		c0.6-0.2,1.2-0.5,1.8-0.7c0.4-0.2,0.9-0.3,1.3-0.5c0.6-0.2,1.2-0.4,1.8-0.7c0.4-0.2,0.9-0.3,1.3-0.5c0.6-0.2,1.2-0.4,1.8-0.6
		c0.4-0.1,0.9-0.3,1.3-0.4c0.6-0.2,1.2-0.4,1.8-0.6c0.4-0.1,0.9-0.3,1.3-0.4c0.6-0.2,1.2-0.4,1.8-0.5c0.4-0.1,0.9-0.2,1.3-0.4
		c0.6-0.2,1.2-0.3,1.8-0.5c0.4-0.1,0.9-0.2,1.3-0.3c0.6-0.2,1.2-0.3,1.9-0.4c0.4-0.1,0.9-0.2,1.3-0.3c0.6-0.1,1.3-0.3,1.9-0.4
		c0.4-0.1,0.9-0.2,1.3-0.3c0.6-0.1,1.3-0.2,1.9-0.4c0.4-0.1,0.9-0.2,1.3-0.2c0.7-0.1,1.3-0.2,2-0.3c0.4-0.1,0.8-0.1,1.3-0.2
		c0.7-0.1,1.4-0.2,2.1-0.3c0.4-0.1,0.8-0.1,1.2-0.2c0.8-0.1,1.6-0.2,2.4-0.3c0.3,0,0.6-0.1,0.9-0.1c2.2-0.2,4.4-0.4,6.6-0.5
		c0.4,0,0.7,0,1.1,0c0.7,0,1.3-0.1,2-0.1l-0.1-0.1h0.1c-0.5-0.5-1-1.1-1.5-1.6c-0.2-0.2-0.4-0.5-0.6-0.7c-1.5-1.7-3-3.3-4.4-5.1
		c-0.2-0.2-0.4-0.4-0.5-0.7c-0.5-0.6-1-1.3-1.5-1.9c-0.2-0.3-0.5-0.6-0.7-0.9c-0.4-0.6-0.9-1.1-1.3-1.7c-0.3-0.3-0.5-0.7-0.7-1
		c-0.4-0.5-0.8-1.1-1.2-1.7c-0.3-0.4-0.5-0.7-0.8-1.1c-0.4-0.5-0.7-1.1-1.1-1.6c-0.3-0.4-0.5-0.8-0.8-1.1c-0.4-0.5-0.7-1.1-1.1-1.6
		c-0.2-0.4-0.5-0.8-0.7-1.2c-0.3-0.5-0.7-1.1-1-1.6c-0.2-0.4-0.5-0.8-0.7-1.2c-0.3-0.5-0.6-1.1-0.9-1.6c-0.2-0.4-0.5-0.8-0.7-1.2
		c-0.3-0.5-0.6-1.1-0.9-1.6c-0.2-0.4-0.4-0.8-0.7-1.2c-0.3-0.6-0.6-1.1-0.9-1.7c-0.2-0.4-0.4-0.8-0.6-1.2c-0.3-0.6-0.6-1.1-0.8-1.7
		c-0.2-0.4-0.4-0.8-0.6-1.3c-0.3-0.6-0.5-1.1-0.8-1.7c-0.2-0.4-0.4-0.8-0.6-1.3c-0.3-0.6-0.5-1.2-0.7-1.7c-0.2-0.4-0.4-0.8-0.5-1.3
		c-0.2-0.6-0.5-1.2-0.7-1.8c-0.2-0.4-0.3-0.8-0.5-1.3c-0.2-0.6-0.5-1.2-0.7-1.8c-0.2-0.4-0.3-0.8-0.5-1.2c-0.2-0.6-0.4-1.3-0.7-1.9
		c-0.1-0.4-0.3-0.8-0.4-1.2c-0.2-0.7-0.4-1.3-0.6-2c-0.1-0.4-0.2-0.7-0.4-1.1c-0.2-0.7-0.4-1.5-0.6-2.2c-0.1-0.3-0.2-0.6-0.3-1
		c-0.3-0.9-0.5-1.9-0.7-2.8c0-0.1-0.1-0.2-0.1-0.4c-0.3-1.1-0.5-2.1-0.8-3.2c-0.1-0.2-0.1-0.4-0.1-0.7c-0.2-0.8-0.4-1.7-0.5-2.5
		c-0.1-0.4-0.1-0.8-0.2-1.1c-0.1-0.7-0.3-1.4-0.4-2.1c-0.1-0.4-0.1-0.9-0.2-1.3c-0.1-0.6-0.2-1.3-0.3-1.9c-0.1-0.5-0.1-0.9-0.2-1.4
		c-0.1-0.6-0.2-1.2-0.3-1.9c-0.1-0.5-0.1-1-0.2-1.5c-0.1-0.6-0.1-1.2-0.2-1.8c-0.1-0.5-0.1-1-0.1-1.5c-0.1-0.6-0.1-1.2-0.2-1.8
		c0-0.5-0.1-1-0.1-1.5c0-0.6-0.1-1.2-0.1-1.8c0-0.5-0.1-1-0.1-1.6s0-1.2-0.1-1.8c0-0.5,0-1,0-1.6c0-0.3,0-0.6,0-0.9
		c-35,0.4-67.8,14.1-92.7,38.8c0.2,35,13.7,68,38.1,93c0.2-0.2,0.5-0.4,0.7-0.7c0.4-0.4,0.8-0.7,1.1-1.1
		C66.4,251.6,66.8,251.2,67.3,250.8z"/>
	<path fill="#E74D3D" d="M126.2,118.9c0.5,0,1,0,1.5,0.1c0.6,0,1.2,0.1,1.8,0.1c0.5,0,1,0.1,1.5,0.1c0.6,0,1.2,0.1,1.8,0.2
		c0.5,0,1,0.1,1.5,0.1c0.6,0.1,1.2,0.1,1.8,0.2c0.5,0.1,1,0.1,1.4,0.2c0.6,0.1,1.2,0.2,1.9,0.3c0.5,0.1,0.9,0.1,1.4,0.2
		c0.7,0.1,1.3,0.2,2,0.3c0.4,0.1,0.9,0.1,1.3,0.2c0.7,0.1,1.4,0.3,2.1,0.4c0.4,0.1,0.7,0.1,1.1,0.2c0.9,0.2,1.7,0.4,2.6,0.5
		c0.2,0,0.4,0.1,0.6,0.1c1.1,0.2,2.1,0.5,3.2,0.8c0.1,0,0.2,0.1,0.3,0.1c1,0.2,1.9,0.5,2.9,0.8c0.3,0.1,0.6,0.2,0.9,0.3
		c0.7,0.2,1.5,0.4,2.2,0.6c0.4,0.1,0.7,0.2,1.1,0.3c0.7,0.2,1.3,0.4,2,0.6c0.4,0.1,0.8,0.3,1.2,0.4c0.6,0.2,1.3,0.4,1.9,0.7
		c0.4,0.1,0.8,0.3,1.2,0.4c0.6,0.2,1.2,0.4,1.8,0.7c0.4,0.2,0.8,0.3,1.3,0.5c0.6,0.2,1.2,0.5,1.8,0.7c0.4,0.2,0.8,0.4,1.3,0.5
		c0.6,0.2,1.2,0.5,1.7,0.7c0.4,0.2,0.8,0.4,1.3,0.6c0.6,0.3,1.1,0.5,1.7,0.8c0.4,0.2,0.8,0.4,1.2,0.6c0.6,0.3,1.1,0.5,1.7,0.8
		c0.4,0.2,0.8,0.4,1.2,0.6c0.6,0.3,1.1,0.6,1.7,0.9c0.4,0.2,0.8,0.4,1.2,0.7c0.6,0.3,1.1,0.6,1.7,0.9c0.4,0.2,0.8,0.5,1.2,0.7
		c0.5,0.3,1.1,0.6,1.6,1c0.4,0.2,0.8,0.5,1.2,0.7c0.5,0.3,1.1,0.7,1.6,1c0.4,0.2,0.8,0.5,1.2,0.7c0.5,0.3,1.1,0.7,1.6,1.1
		c0.4,0.2,0.8,0.5,1.1,0.7c0.5,0.4,1.1,0.7,1.6,1.1c0.4,0.3,0.7,0.5,1.1,0.8c0.6,0.4,1.1,0.8,1.7,1.2c0.3,0.2,0.7,0.5,1,0.7
		c0.6,0.4,1.1,0.9,1.7,1.3c0.3,0.2,0.6,0.5,0.9,0.7c0.6,0.5,1.3,1,1.9,1.5c0.2,0.2,0.5,0.4,0.7,0.5c1.7,1.4,3.4,2.9,5.1,4.4
		c0.2,0.2,0.5,0.4,0.7,0.6c0.5,0.5,1.1,1,1.6,1.5v-0.1l0.1,0.1c0-0.7,0-1.4,0.1-2c0-0.4,0-0.7,0-1.1c0.1-2.2,0.3-4.4,0.5-6.6
		c0-0.3,0.1-0.6,0.1-0.9c0.1-0.8,0.2-1.6,0.3-2.4c0-0.4,0.1-0.8,0.2-1.2c0.1-0.7,0.2-1.4,0.3-2.1c0.1-0.4,0.1-0.8,0.2-1.2
		c0.1-0.7,0.2-1.3,0.3-2c0.1-0.4,0.2-0.9,0.2-1.3c0.1-0.6,0.2-1.3,0.4-1.9c0.1-0.4,0.2-0.9,0.3-1.3c0.1-0.6,0.3-1.3,0.4-1.9
		c0.1-0.4,0.2-0.9,0.3-1.3c0.1-0.6,0.3-1.2,0.4-1.9c0.1-0.4,0.2-0.9,0.3-1.3c0.2-0.6,0.3-1.2,0.5-1.8c0.1-0.4,0.2-0.9,0.4-1.3
		c0.2-0.6,0.3-1.2,0.5-1.8c0.1-0.4,0.3-0.9,0.4-1.3c0.2-0.6,0.4-1.2,0.6-1.8c0.1-0.4,0.3-0.9,0.4-1.3c0.2-0.6,0.4-1.2,0.6-1.8
		c0.1-0.4,0.3-0.9,0.5-1.3c0.2-0.6,0.4-1.2,0.7-1.8c0.2-0.4,0.3-0.8,0.5-1.3c0.2-0.6,0.5-1.2,0.7-1.8c0.2-0.4,0.3-0.8,0.5-1.2
		c0.3-0.6,0.5-1.2,0.8-1.8c0.2-0.4,0.3-0.8,0.5-1.2c0.3-0.6,0.6-1.2,0.8-1.8c0.2-0.4,0.4-0.8,0.5-1.1c0.3-0.6,0.6-1.2,0.9-1.9
		c0.2-0.4,0.4-0.7,0.5-1.1c0.3-0.6,0.7-1.3,1-1.9c0.2-0.3,0.3-0.6,0.5-1c0.4-0.7,0.8-1.4,1.2-2.1c0.1-0.3,0.3-0.5,0.4-0.8
		c0.5-0.9,1-1.8,1.6-2.7c0,0,0-0.1,0.1-0.1c0.6-0.9,1.1-1.9,1.7-2.8c0.1-0.1,0.2-0.3,0.3-0.4c0.5-0.8,1-1.5,1.5-2.3
		c0.2-0.3,0.4-0.6,0.6-0.9c0.4-0.6,0.8-1.2,1.3-1.8c0.2-0.3,0.5-0.7,0.7-1c0.4-0.5,0.8-1.1,1.2-1.6c0.3-0.4,0.6-0.7,0.8-1.1
		c0.4-0.5,0.8-1,1.2-1.5c0.3-0.4,0.6-0.8,0.9-1.1c0.4-0.5,0.8-1,1.2-1.4c0.3-0.4,0.6-0.8,1-1.2c0.4-0.5,0.8-0.9,1.2-1.4
		c0.3-0.4,0.7-0.8,1-1.2c0.4-0.5,0.8-0.9,1.2-1.3c0.3-0.4,0.7-0.8,1-1.1c0.4-0.4,0.8-0.9,1.2-1.3s0.7-0.8,1.1-1.1
		c0.2-0.2,0.4-0.5,0.7-0.7c-25-24.5-58-38-93-38.1c-24.6,24.9-38.4,57.7-38.8,92.7c0.3,0,0.6,0,0.9,0c0.5,0,1,0,1.6,0
		C125.1,118.8,125.6,118.8,126.2,118.9z"/>
	<path fill="#E74D3D" d="M165.7,214.8c0.3,0,0.5,0,0.8,0c1.6,0.1,3.2,0.2,4.7,0.3c0.3,0,0.7,0.1,1,0.1c1.6,0.1,3.2,0.3,4.8,0.5l0,0
		c1.6,0.2,3.2,0.4,4.8,0.7c0.3,0.1,0.7,0.1,1,0.2c1.6,0.3,3.1,0.5,4.6,0.8c0.2,0,0.5,0.1,0.7,0.1c1.4,0.3,2.8,0.6,4.2,0.9
		c0.3,0.1,0.5,0.1,0.8,0.2c1.5,0.4,3,0.8,4.5,1.2c0.3,0.1,0.6,0.2,0.9,0.3c1.5,0.4,3,0.9,4.5,1.4h0.1c1.5,0.5,3,1,4.5,1.6
		c0.3,0.1,0.6,0.2,0.9,0.3c1.5,0.6,2.9,1.1,4.3,1.7c0.2,0.1,0.4,0.2,0.6,0.3c1.3,0.6,2.6,1.1,3.9,1.7c0.2,0.1,0.5,0.2,0.7,0.3
		c1.4,0.7,2.8,1.3,4.2,2.1c0.3,0.1,0.6,0.3,0.9,0.5c1.4,0.7,2.7,1.4,4.1,2.2c0.1,0,0.1,0.1,0.2,0.1c1.4,0.8,2.7,1.6,4.1,2.4
		c0.3,0.2,0.6,0.4,0.9,0.5c1.3,0.8,2.6,1.7,3.9,2.5c0.2,0.1,0.4,0.3,0.6,0.4c1.2,0.8,2.3,1.6,3.5,2.5c0.2,0.1,0.3,0.2,0.5,0.3
		c-0.1-0.2-0.2-0.3-0.3-0.5c-0.8-1.2-1.7-2.3-2.5-3.5c-0.1-0.2-0.3-0.4-0.4-0.6c-0.9-1.3-1.7-2.6-2.5-3.9c-0.2-0.3-0.4-0.6-0.5-0.9
		c-0.8-1.4-1.6-2.7-2.4-4.1c0-0.1-0.1-0.1-0.1-0.2c-0.8-1.3-1.5-2.7-2.2-4.1c-0.2-0.3-0.3-0.6-0.5-0.9c-0.7-1.4-1.4-2.8-2.1-4.2
		c-0.1-0.2-0.2-0.5-0.3-0.7c-0.6-1.3-1.2-2.6-1.7-3.9c-0.1-0.2-0.2-0.4-0.3-0.6c-0.6-1.4-1.2-2.9-1.7-4.3c-0.1-0.3-0.2-0.6-0.3-0.9
		c-0.6-1.5-1.1-3-1.6-4.5V203c-0.5-1.5-0.9-3-1.4-4.5c-0.1-0.3-0.2-0.6-0.3-0.9c-0.4-1.5-0.8-3-1.2-4.5c-0.1-0.3-0.1-0.5-0.2-0.8
		c-0.3-1.4-0.7-2.8-0.9-4.2c0-0.2-0.1-0.5-0.1-0.7c-0.3-1.5-0.6-3.1-0.8-4.6c-0.1-0.3-0.1-0.7-0.2-1c-0.3-1.6-0.5-3.2-0.7-4.8
		c0,0,0,0,0-0.1c-0.2-1.6-0.4-3.2-0.5-4.8c0-0.3-0.1-0.7-0.1-1c-0.1-1.6-0.2-3.1-0.3-4.7c0-0.3,0-0.5,0-0.8
		c-0.1-1.5-0.1-2.9-0.1-4.4c0-0.2,0-0.4,0-0.5c-0.3-0.3-0.7-0.7-1-1c-0.4-0.4-0.7-0.7-1.1-1.1c-0.4-0.4-0.9-0.8-1.3-1.2
		c-0.4-0.3-0.8-0.7-1.1-1c-0.4-0.4-0.9-0.8-1.3-1.2c-0.4-0.3-0.8-0.7-1.1-1c-0.5-0.4-0.9-0.8-1.4-1.2c-0.4-0.3-0.7-0.6-1.1-0.9
		c-0.5-0.4-1-0.8-1.4-1.2c-0.4-0.3-0.7-0.6-1.1-0.9c-0.5-0.4-1-0.8-1.5-1.2c-0.4-0.3-0.7-0.5-1.1-0.8c-0.5-0.4-1.1-0.8-1.6-1.2
		c-0.3-0.2-0.7-0.5-1-0.7c-0.6-0.4-1.2-0.9-1.9-1.3c-0.3-0.2-0.5-0.4-0.8-0.6c-0.8-0.5-1.6-1.1-2.5-1.6c-0.1-0.1-0.2-0.1-0.2-0.2
		c-0.9-0.6-1.8-1.1-2.8-1.7c-0.2-0.1-0.4-0.2-0.6-0.4c-0.7-0.4-1.4-0.8-2.2-1.3c-0.3-0.2-0.6-0.4-1-0.5c-0.6-0.3-1.2-0.7-1.9-1
		c-0.4-0.2-0.8-0.4-1.1-0.6c-0.6-0.3-1.2-0.6-1.7-0.9c-0.4-0.2-0.8-0.4-1.2-0.6c-0.6-0.3-1.1-0.6-1.7-0.8c-0.4-0.2-0.9-0.4-1.3-0.6
		c-0.5-0.3-1.1-0.5-1.6-0.8c-0.4-0.2-0.9-0.4-1.3-0.6c-0.5-0.2-1.1-0.5-1.6-0.7s-0.9-0.4-1.4-0.6c-0.5-0.2-1.1-0.4-1.6-0.7
		c-0.5-0.2-0.9-0.3-1.4-0.5s-1.1-0.4-1.6-0.6c-0.5-0.2-0.9-0.3-1.4-0.5s-1.1-0.4-1.6-0.6c-0.5-0.2-1-0.3-1.4-0.5
		c-0.5-0.2-1.1-0.4-1.6-0.5s-1-0.3-1.4-0.4c-0.6-0.2-1.1-0.3-1.7-0.5c-0.5-0.1-1-0.3-1.5-0.4c-0.6-0.1-1.1-0.3-1.7-0.4
		c-0.5-0.1-1-0.2-1.5-0.4c-0.6-0.1-1.1-0.3-1.7-0.4c-0.5-0.1-1-0.2-1.5-0.3c-0.6-0.1-1.1-0.2-1.7-0.4c-0.5-0.1-1-0.2-1.5-0.3
		c-0.6-0.1-1.1-0.2-1.7-0.3c-0.5-0.1-1-0.2-1.5-0.3c-0.6-0.1-1.1-0.2-1.7-0.3c-0.5-0.1-1-0.2-1.6-0.2c-0.6-0.1-1.1-0.2-1.7-0.2
		c-0.5-0.1-1-0.1-1.6-0.2s-1.1-0.1-1.7-0.2c-0.5-0.1-1-0.1-1.6-0.2s-1.1-0.1-1.7-0.1c-0.5,0-1-0.1-1.6-0.1s-1.1-0.1-1.7-0.1
		c-0.5,0-1.1-0.1-1.6-0.1c-0.6,0-1.1,0-1.7-0.1c-0.5,0-1.1,0-1.6,0c-0.3,0-0.6,0-0.9,0c0,0.3,0,0.6,0,0.9c0,0.5,0,1.1,0,1.6
		c0,0.6,0,1.1,0.1,1.7c0,0.5,0,1.1,0.1,1.6c0,0.6,0.1,1.1,0.1,1.7c0,0.5,0.1,1,0.1,1.6s0.1,1.1,0.1,1.7c0,0.5,0.1,1,0.1,1.6
		c0.1,0.6,0.1,1.1,0.2,1.7c0.1,0.5,0.1,1,0.2,1.5c0.1,0.6,0.2,1.1,0.2,1.7c0.1,0.5,0.1,1,0.2,1.5c0.1,0.6,0.2,1.1,0.3,1.7
		c0.1,0.5,0.2,1,0.3,1.5c0.1,0.6,0.2,1.1,0.3,1.7c0.1,0.5,0.2,1,0.3,1.5c0.1,0.6,0.2,1.1,0.4,1.7c0.1,0.5,0.2,1,0.3,1.5
		c0.1,0.6,0.3,1.1,0.4,1.7c0.1,0.5,0.2,1,0.4,1.5c0.1,0.6,0.3,1.1,0.4,1.7c0.1,0.5,0.3,1,0.4,1.5c0.2,0.6,0.3,1.1,0.5,1.7
		c0.1,0.5,0.3,1,0.4,1.4c0.2,0.6,0.3,1.1,0.5,1.7c0.2,0.5,0.3,0.9,0.5,1.4c0.2,0.6,0.4,1.1,0.6,1.6c0.2,0.5,0.3,0.9,0.5,1.4
		c0.2,0.6,0.4,1.1,0.6,1.6c0.2,0.5,0.3,0.9,0.5,1.4c0.2,0.6,0.4,1.1,0.7,1.6c0.2,0.4,0.4,0.9,0.5,1.3c0.2,0.6,0.5,1.1,0.7,1.6
		c0.2,0.4,0.4,0.9,0.6,1.3c0.2,0.6,0.5,1.1,0.8,1.7c0.2,0.4,0.4,0.8,0.6,1.3c0.3,0.6,0.6,1.1,0.8,1.7c0.2,0.4,0.4,0.8,0.6,1.2
		c0.3,0.6,0.6,1.2,0.9,1.7c0.2,0.4,0.4,0.7,0.6,1.1c0.3,0.6,0.7,1.2,1,1.9c0.2,0.3,0.4,0.6,0.5,1c0.4,0.7,0.8,1.4,1.3,2.2
		c0.1,0.2,0.2,0.4,0.4,0.6c0.6,0.9,1.1,1.9,1.7,2.8l0.1,0.1c0.6,0.9,1.1,1.7,1.7,2.6c0.2,0.3,0.4,0.5,0.6,0.8
		c0.4,0.6,0.8,1.2,1.3,1.9c0.2,0.3,0.5,0.7,0.7,1c0.4,0.5,0.8,1.1,1.2,1.6c0.3,0.4,0.5,0.7,0.8,1.1c0.4,0.5,0.8,1,1.2,1.5
		c0.3,0.4,0.6,0.7,0.9,1.1c0.4,0.5,0.8,1,1.2,1.4c0.3,0.4,0.6,0.8,0.9,1.1c0.4,0.5,0.8,0.9,1.2,1.4c0.3,0.4,0.7,0.8,1,1.1
		c0.4,0.4,0.8,0.9,1.2,1.3c0.3,0.4,0.7,0.8,1,1.1c0.4,0.4,0.8,0.9,1.2,1.3c0.4,0.4,0.7,0.8,1.1,1.1c0.3,0.3,0.7,0.7,1,1
		c0.2,0,0.4,0,0.5,0C162.7,214.7,164.2,214.7,165.7,214.8z"/>
	<path fill="#FAE708" d="M163,290.7c0.2-0.2,0.4-0.4,0.6-0.6c1.2-1.1,2.4-2.1,3.6-3.1c0.3-0.2,0.5-0.4,0.8-0.7c1.2-1,2.4-2,3.7-3
		c0,0,0,0,0.1-0.1c1.3-1,2.5-1.9,3.8-2.9c0.3-0.2,0.6-0.4,0.8-0.6c1.3-0.9,2.6-1.8,3.9-2.7c0.2-0.1,0.4-0.3,0.6-0.4
		c1.2-0.8,2.4-1.5,3.6-2.3c0.2-0.1,0.5-0.3,0.7-0.4c1.3-0.8,2.7-1.6,4-2.3c0.3-0.2,0.6-0.3,0.9-0.5c1.4-0.7,2.7-1.5,4.1-2.2
		c0,0,0.1,0,0.1-0.1c1.4-0.7,2.8-1.4,4.3-2c0.3-0.1,0.6-0.3,0.9-0.4c1.4-0.6,2.8-1.3,4.3-1.8c0.2-0.1,0.4-0.2,0.7-0.3
		c1.3-0.5,2.6-1,4-1.5c0.3-0.1,0.5-0.2,0.8-0.3c1.5-0.5,2.9-1,4.4-1.5c0.3-0.1,0.6-0.2,1-0.3c1.5-0.5,2.9-0.9,4.4-1.3
		c0.1,0,0.1,0,0.2-0.1c1.5-0.4,3.1-0.8,4.6-1.2c0.3-0.1,0.7-0.2,1-0.2c1.5-0.4,3-0.7,4.6-1c0.2,0,0.5-0.1,0.7-0.1
		c1.4-0.3,2.8-0.5,4.2-0.7c0.2,0,0.4-0.1,0.6-0.1c-0.2,0-0.4-0.1-0.6-0.1c-1.4-0.2-2.8-0.5-4.2-0.7c-0.2,0-0.5-0.1-0.7-0.1
		c-1.5-0.3-3.1-0.6-4.6-1c-0.3-0.1-0.7-0.2-1-0.2c-1.5-0.4-3.1-0.8-4.6-1.2c-0.1,0-0.1,0-0.1,0c-1.5-0.4-3-0.9-4.5-1.3
		c-0.3-0.1-0.6-0.2-0.9-0.3c-1.5-0.5-3-1-4.4-1.5c-0.2-0.1-0.5-0.2-0.7-0.3c-1.4-0.5-2.7-1-4-1.6c-0.2-0.1-0.4-0.2-0.6-0.2
		c-1.4-0.6-2.9-1.2-4.3-1.9c-0.3-0.1-0.6-0.3-0.9-0.4c-1.4-0.7-2.9-1.4-4.3-2.1c0,0,0,0-0.1,0c-1.4-0.7-2.8-1.5-4.2-2.2
		c-0.3-0.2-0.6-0.3-0.8-0.5c-1.4-0.8-2.7-1.5-4.1-2.4c-0.2-0.1-0.4-0.3-0.7-0.4c-1.2-0.8-2.5-1.5-3.7-2.3c-0.2-0.1-0.4-0.3-0.6-0.4
		c-1.3-0.9-2.6-1.8-3.9-2.7c-0.3-0.2-0.5-0.4-0.8-0.6c-1.3-0.9-2.6-1.9-3.9-2.9l0,0c-1.3-1-2.5-2-3.7-3c-0.3-0.2-0.5-0.4-0.8-0.7
		c-1.2-1-2.4-2.1-3.6-3.1c-0.2-0.2-0.4-0.4-0.6-0.5c-1.1-1-2.1-2-3.2-3c-0.1-0.1-0.3-0.2-0.4-0.4c-0.5,0-1,0-1.4,0c-0.5,0-1,0-1.5,0
		c-0.6,0-1.2,0-1.8,0.1c-0.5,0-1,0-1.5,0.1c-0.6,0-1.2,0.1-1.8,0.1c-0.5,0-1,0.1-1.5,0.1c-0.6,0-1.2,0.1-1.8,0.2
		c-0.5,0-1,0.1-1.5,0.1c-0.6,0.1-1.2,0.1-1.8,0.2c-0.5,0.1-1,0.1-1.4,0.2c-0.6,0.1-1.3,0.2-1.9,0.3c-0.5,0.1-0.9,0.1-1.4,0.2
		c-0.7,0.1-1.3,0.2-2,0.3c-0.4,0.1-0.8,0.1-1.3,0.2c-0.7,0.1-1.4,0.3-2.1,0.4c-0.3,0.1-0.7,0.1-1,0.2c-1,0.2-1.9,0.4-2.9,0.6
		c-0.1,0-0.2,0-0.3,0.1c-1.1,0.2-2.1,0.5-3.2,0.7c-0.3,0.1-0.5,0.1-0.8,0.2c-0.8,0.2-1.6,0.4-2.4,0.6c-0.4,0.1-0.8,0.2-1.1,0.3
		c-0.7,0.2-1.3,0.4-2,0.6c-0.4,0.1-0.8,0.3-1.2,0.4c-0.6,0.2-1.2,0.4-1.9,0.6c-0.4,0.1-0.9,0.3-1.3,0.4c-0.6,0.2-1.2,0.4-1.8,0.6
		c-0.4,0.2-0.9,0.3-1.3,0.5c-0.6,0.2-1.1,0.4-1.7,0.6c-0.4,0.2-0.9,0.4-1.3,0.5c-0.6,0.2-1.1,0.4-1.7,0.7c-0.5,0.2-0.9,0.4-1.3,0.6
		c-0.5,0.2-1.1,0.5-1.6,0.7s-0.9,0.4-1.4,0.6c-0.5,0.2-1.1,0.5-1.6,0.7s-0.9,0.4-1.3,0.7c-0.5,0.3-1,0.5-1.6,0.8
		c-0.4,0.2-0.9,0.5-1.3,0.7c-0.5,0.3-1,0.5-1.5,0.8c-0.5,0.2-0.9,0.5-1.3,0.7c-0.5,0.3-1,0.5-1.5,0.8c-0.4,0.3-0.9,0.5-1.3,0.8
		c-0.5,0.3-1,0.6-1.5,0.9c-0.4,0.3-0.9,0.5-1.3,0.8c-0.5,0.3-1,0.6-1.4,0.9c-0.4,0.3-0.9,0.6-1.3,0.8c-0.5,0.3-0.9,0.6-1.4,0.9
		c-0.4,0.3-0.9,0.6-1.3,0.9c-0.5,0.3-0.9,0.6-1.4,1c-0.4,0.3-0.8,0.6-1.3,0.9c-0.5,0.3-0.9,0.7-1.4,1c-0.4,0.3-0.8,0.6-1.3,0.9
		c-0.5,0.3-0.9,0.7-1.3,1s-0.8,0.6-1.2,1c-0.4,0.4-0.9,0.7-1.3,1.1c-0.4,0.3-0.8,0.7-1.2,1c-0.4,0.4-0.9,0.7-1.3,1.1
		c-0.4,0.3-0.8,0.7-1.2,1c-0.4,0.4-0.9,0.8-1.3,1.1c-0.4,0.4-0.8,0.7-1.2,1.1c-0.4,0.4-0.8,0.8-1.3,1.2c-0.4,0.4-0.8,0.7-1.2,1.1
		c-0.2,0.2-0.4,0.4-0.6,0.6c0.2,0.2,0.4,0.4,0.6,0.6c0.4,0.4,0.8,0.7,1.1,1.1c0.4,0.4,0.8,0.8,1.3,1.2c0.4,0.4,0.8,0.7,1.2,1.1
		c0.4,0.4,0.9,0.8,1.3,1.2c0.4,0.3,0.8,0.7,1.2,1c0.4,0.4,0.9,0.7,1.3,1.1c0.4,0.3,0.8,0.7,1.2,1c0.4,0.4,0.9,0.7,1.4,1.1
		c0.4,0.3,0.8,0.6,1.2,0.9c0.5,0.4,0.9,0.7,1.4,1.1c0.4,0.3,0.8,0.6,1.2,0.9c0.5,0.3,0.9,0.7,1.4,1c0.4,0.3,0.8,0.6,1.2,0.9
		c0.5,0.3,1,0.7,1.4,1s0.8,0.6,1.2,0.8c0.5,0.3,1,0.6,1.5,1c0.4,0.3,0.8,0.5,1.3,0.8s1,0.6,1.5,0.9c0.4,0.3,0.8,0.5,1.3,0.8
		s1,0.6,1.5,0.9c0.4,0.2,0.8,0.5,1.3,0.7c0.5,0.3,1,0.6,1.6,0.9c0.4,0.2,0.9,0.5,1.3,0.7c0.5,0.3,1.1,0.6,1.6,0.8
		c0.4,0.2,0.9,0.4,1.3,0.7c0.5,0.3,1.1,0.5,1.6,0.8c0.4,0.2,0.9,0.4,1.3,0.6c0.6,0.3,1.1,0.5,1.7,0.8c0.4,0.2,0.8,0.4,1.3,0.6
		c0.6,0.2,1.1,0.5,1.7,0.7c0.4,0.2,0.9,0.4,1.3,0.5c0.6,0.2,1.2,0.5,1.7,0.7c0.4,0.2,0.8,0.3,1.3,0.5c0.6,0.2,1.2,0.4,1.8,0.7
		c0.4,0.2,0.8,0.3,1.2,0.5c0.6,0.2,1.2,0.4,1.9,0.6c0.4,0.1,0.8,0.3,1.2,0.4c0.6,0.2,1.3,0.4,2,0.6c0.4,0.1,0.8,0.2,1.1,0.4
		c0.7,0.2,1.4,0.4,2.2,0.6c0.3,0.1,0.6,0.2,0.9,0.3c0.9,0.2,1.7,0.5,2.6,0.7c0.2,0,0.4,0.1,0.5,0.1c1.1,0.3,2.1,0.5,3.2,0.8l0,0
		c1,0.2,2.1,0.5,3.2,0.7c0.3,0.1,0.7,0.1,1,0.2c0.7,0.1,1.5,0.3,2.2,0.4c0.4,0.1,0.8,0.1,1.2,0.2c0.7,0.1,1.3,0.2,2,0.3
		c0.5,0.1,0.9,0.1,1.4,0.2c0.6,0.1,1.3,0.2,1.9,0.3c0.5,0.1,0.9,0.1,1.4,0.2c0.6,0.1,1.2,0.1,1.8,0.2c0.5,0,1,0.1,1.5,0.1
		c0.6,0.1,1.2,0.1,1.8,0.2c0.5,0,1,0.1,1.5,0.1c0.6,0,1.2,0.1,1.8,0.1c0.5,0,1,0,1.5,0.1c0.6,0,1.2,0,1.8,0.1c0.5,0,1,0,1.6,0
		c0.5,0,1,0,1.4,0c0.1-0.1,0.3-0.2,0.4-0.4C160.8,292.7,161.9,291.7,163,290.7z"/>
	<path fill="#FAE708" d="M250.2,257.7c-0.3,0-0.7,0-1,0c-0.9,0-1.8,0.1-2.6,0.2c-0.2,0-0.4,0-0.6,0c-1.1,0.1-2.2,0.2-3.2,0.3
		c-0.1,0-0.1,0-0.2,0c-1,0.1-2,0.2-3,0.3c-0.3,0-0.6,0.1-0.9,0.1c-0.7,0.1-1.5,0.2-2.2,0.3c-0.4,0.1-0.8,0.1-1.1,0.2
		c-0.7,0.1-1.3,0.2-2,0.3c-0.4,0.1-0.8,0.1-1.2,0.2c-0.6,0.1-1.3,0.2-1.9,0.4c-0.4,0.1-0.8,0.2-1.3,0.3c-0.6,0.1-1.2,0.3-1.8,0.4
		c-0.4,0.1-0.9,0.2-1.3,0.3c-0.6,0.1-1.2,0.3-1.8,0.4c-0.4,0.1-0.8,0.2-1.3,0.3c-0.6,0.2-1.2,0.3-1.8,0.5c-0.4,0.1-0.8,0.2-1.3,0.3
		c-0.6,0.2-1.2,0.3-1.8,0.5c-0.4,0.1-0.8,0.2-1.2,0.4c-0.6,0.2-1.2,0.4-1.8,0.6c-0.4,0.1-0.8,0.2-1.2,0.4c-0.6,0.2-1.3,0.4-1.9,0.7
		c-0.4,0.1-0.7,0.2-1.1,0.4c-0.7,0.3-1.4,0.5-2.1,0.8c-0.3,0.1-0.5,0.2-0.8,0.3c-2,0.8-3.9,1.6-5.8,2.4c-0.3,0.1-0.5,0.2-0.8,0.4
		c-0.7,0.3-1.4,0.6-2,0.9c-0.4,0.2-0.7,0.3-1.1,0.5c-0.6,0.3-1.2,0.6-1.8,0.9c-0.4,0.2-0.8,0.4-1.1,0.6c-0.6,0.3-1.1,0.6-1.7,0.9
		c-0.4,0.2-0.8,0.4-1.2,0.6c-0.5,0.3-1.1,0.6-1.6,0.9c-0.4,0.2-0.8,0.4-1.2,0.7c-0.5,0.3-1,0.6-1.6,0.9c-0.4,0.2-0.8,0.5-1.2,0.7
		c-0.5,0.3-1,0.6-1.5,0.9c-0.4,0.2-0.8,0.5-1.2,0.7c-0.5,0.3-1,0.6-1.5,1c-0.4,0.3-0.8,0.5-1.2,0.8c-0.5,0.3-1,0.7-1.5,1
		c-0.4,0.3-0.8,0.5-1.1,0.8c-0.5,0.4-1,0.7-1.5,1.1c-0.4,0.3-0.7,0.5-1.1,0.8c-0.5,0.4-1,0.8-1.6,1.2c-0.3,0.2-0.6,0.5-1,0.7
		c-0.6,0.5-1.2,1-1.8,1.5c-0.2,0.2-0.4,0.3-0.7,0.5c-0.8,0.7-1.6,1.4-2.4,2c-0.3,0.2-0.6,0.5-0.8,0.7c-0.5,0.5-1.1,0.9-1.6,1.4
		c-0.3,0.3-0.7,0.6-1,0.9c-0.4,0.3-0.7,0.7-1.1,1c0.6,0,1.2,0,1.8-0.1c0.3,0,0.7,0,1,0c0.9,0,1.8-0.1,2.6-0.2c0.2,0,0.4,0,0.6,0
		c1.1-0.1,2.2-0.2,3.2-0.3c0.1,0,0.1,0,0.2,0c1-0.1,2-0.2,3-0.3c0.3,0,0.6-0.1,0.9-0.1c0.7-0.1,1.5-0.2,2.2-0.3
		c0.4-0.1,0.8-0.1,1.1-0.2c0.7-0.1,1.3-0.2,2-0.3c0.4-0.1,0.8-0.1,1.2-0.2c0.6-0.1,1.3-0.2,1.9-0.4c0.4-0.1,0.8-0.2,1.3-0.3
		c0.6-0.1,1.2-0.3,1.8-0.4c0.4-0.1,0.9-0.2,1.3-0.3c0.6-0.1,1.2-0.3,1.8-0.4c0.4-0.1,0.9-0.2,1.3-0.3c0.6-0.2,1.2-0.3,1.8-0.5
		c0.4-0.1,0.8-0.2,1.3-0.3c0.6-0.2,1.2-0.3,1.8-0.5c0.4-0.1,0.8-0.2,1.2-0.4c0.6-0.2,1.2-0.4,1.8-0.6c0.4-0.1,0.8-0.2,1.2-0.4
		c0.6-0.2,1.3-0.4,1.9-0.7c0.4-0.1,0.7-0.2,1.1-0.4c0.7-0.3,1.4-0.5,2.1-0.8c0.3-0.1,0.6-0.2,0.8-0.3c2-0.8,3.9-1.6,5.8-2.4
		c0.3-0.1,0.6-0.3,0.8-0.4c0.7-0.3,1.3-0.6,2-0.9c0.4-0.2,0.7-0.3,1.1-0.5c0.6-0.3,1.2-0.6,1.8-0.9c0.4-0.2,0.8-0.4,1.2-0.6
		c0.6-0.3,1.1-0.6,1.6-0.9c0.4-0.2,0.8-0.4,1.2-0.6c0.5-0.3,1.1-0.6,1.6-0.9c0.4-0.2,0.8-0.5,1.2-0.7c0.5-0.3,1-0.6,1.5-0.9
		c0.4-0.2,0.8-0.5,1.2-0.7c0.5-0.3,1-0.6,1.5-0.9c0.4-0.2,0.8-0.5,1.2-0.8c0.5-0.3,1-0.6,1.5-1c0.4-0.3,0.8-0.5,1.2-0.8
		c0.5-0.3,1-0.7,1.5-1c0.4-0.3,0.8-0.5,1.1-0.8c0.5-0.4,1-0.7,1.5-1.1c0.4-0.3,0.7-0.5,1.1-0.8c0.5-0.4,1-0.8,1.5-1.2
		c0.3-0.3,0.7-0.5,1-0.8c0.6-0.5,1.2-0.9,1.8-1.4c0.2-0.2,0.5-0.4,0.7-0.6c0.8-0.7,1.6-1.3,2.4-2c0.3-0.2,0.6-0.5,0.9-0.8
		c0.5-0.5,1-0.9,1.5-1.4c0.3-0.3,0.7-0.6,1-0.9c0.4-0.3,0.7-0.7,1.1-1C251.4,257.7,250.8,257.7,250.2,257.7z"/>
	<path fill="#E74D3D" d="M250.8,253.2c-0.3-0.3-0.6-0.5-0.9-0.8c-0.6-0.5-1.2-1-1.8-1.5c-0.2-0.2-0.4-0.4-0.7-0.6
		c-0.8-0.7-1.6-1.4-2.5-2.1c-0.1-0.1-0.3-0.2-0.4-0.3c-0.7-0.6-1.4-1.1-2.1-1.7c-0.3-0.2-0.6-0.4-0.9-0.7c-0.6-0.4-1.1-0.9-1.7-1.3
		c-0.3-0.2-0.7-0.5-1-0.7c-0.5-0.4-1-0.8-1.6-1.1c-0.4-0.3-0.7-0.5-1.1-0.7c-0.5-0.4-1-0.7-1.5-1.1c-0.4-0.2-0.7-0.5-1.1-0.7
		c-0.5-0.3-1-0.7-1.5-1c-0.4-0.2-0.8-0.5-1.1-0.7c-0.5-0.3-1-0.6-1.6-1c-0.4-0.2-0.8-0.5-1.1-0.7c-0.5-0.3-1.1-0.6-1.6-0.9
		c-0.4-0.2-0.8-0.4-1.2-0.7c-0.5-0.3-1.1-0.6-1.6-0.9c-0.4-0.2-0.8-0.4-1.1-0.6c-0.6-0.3-1.1-0.6-1.7-0.9c-0.4-0.2-0.7-0.4-1.1-0.6
		c-0.6-0.3-1.2-0.6-1.8-0.9c-0.3-0.2-0.7-0.3-1-0.5c-0.7-0.3-1.4-0.6-2.1-0.9c-0.3-0.1-0.5-0.2-0.8-0.4c-1.9-0.9-3.9-1.7-5.8-2.4
		c-0.3-0.1-0.5-0.2-0.8-0.3c-0.7-0.3-1.4-0.5-2.1-0.8c-0.4-0.1-0.7-0.2-1.1-0.4c-0.6-0.2-1.3-0.4-1.9-0.7c-0.4-0.1-0.8-0.3-1.2-0.4
		c-0.6-0.2-1.2-0.4-1.8-0.6c-0.4-0.1-0.8-0.2-1.2-0.4c-0.6-0.2-1.2-0.3-1.8-0.5c-0.4-0.1-0.9-0.2-1.3-0.4c-0.6-0.2-1.2-0.3-1.8-0.5
		c-0.4-0.1-0.9-0.2-1.3-0.3c-0.6-0.1-1.2-0.3-1.8-0.4c-0.4-0.1-0.9-0.2-1.3-0.3c-0.6-0.1-1.2-0.3-1.8-0.4c-0.4-0.1-0.9-0.2-1.3-0.3
		c-0.6-0.1-1.2-0.2-1.8-0.3c-0.4-0.1-0.9-0.2-1.3-0.2c-0.6-0.1-1.3-0.2-1.9-0.3c-0.4-0.1-0.8-0.1-1.2-0.2c-0.7-0.1-1.4-0.2-2.1-0.3
		c-0.4,0-0.7-0.1-1.1-0.1c-0.9-0.1-1.7-0.2-2.6-0.3c-0.2,0-0.4,0-0.6-0.1c-1.1-0.1-2.1-0.2-3.2-0.3c-0.3,0-0.6,0-0.9-0.1
		c-0.8-0.1-1.5-0.1-2.3-0.1c-0.4,0-0.8,0-1.2-0.1c-0.5,0-1.1,0-1.6-0.1c0.4,0.4,0.8,0.7,1.2,1.1c0.3,0.3,0.6,0.5,0.9,0.8
		c0.6,0.5,1.2,1,1.8,1.6c0.2,0.2,0.4,0.4,0.7,0.6c0.8,0.7,1.6,1.4,2.5,2.1c0.1,0.1,0.3,0.2,0.4,0.3c0.7,0.6,1.4,1.1,2.1,1.7
		c0.3,0.2,0.6,0.4,0.9,0.7c0.6,0.4,1.1,0.9,1.7,1.3c0.3,0.2,0.7,0.5,1,0.7c0.5,0.4,1,0.8,1.6,1.1c0.4,0.3,0.7,0.5,1.1,0.7
		c0.5,0.4,1,0.7,1.5,1.1c0.4,0.2,0.7,0.5,1.1,0.7c0.5,0.3,1,0.7,1.5,1c0.4,0.2,0.8,0.5,1.1,0.7c0.5,0.3,1,0.6,1.6,1
		c0.4,0.2,0.8,0.5,1.2,0.7c0.5,0.3,1.1,0.6,1.6,0.9c0.4,0.2,0.8,0.4,1.2,0.7c0.5,0.3,1.1,0.6,1.6,0.9c0.4,0.2,0.8,0.4,1.1,0.6
		c0.6,0.3,1.1,0.6,1.7,0.9c0.4,0.2,0.7,0.4,1.1,0.6c0.6,0.3,1.2,0.6,1.8,0.9c0.3,0.2,0.7,0.3,1,0.5c0.7,0.3,1.4,0.6,2.1,1
		c0.3,0.1,0.5,0.2,0.8,0.4c1.9,0.9,3.9,1.7,5.8,2.4c0.3,0.1,0.5,0.2,0.8,0.3c0.7,0.3,1.4,0.5,2.1,0.8c0.4,0.1,0.7,0.2,1.1,0.4
		c0.6,0.2,1.3,0.4,1.9,0.7c0.4,0.1,0.8,0.3,1.2,0.4c0.6,0.2,1.2,0.4,1.8,0.6c0.4,0.1,0.8,0.2,1.2,0.4c0.6,0.2,1.2,0.4,1.8,0.5
		c0.4,0.1,0.9,0.2,1.3,0.4c0.6,0.2,1.2,0.3,1.8,0.5c0.4,0.1,0.9,0.2,1.3,0.3c0.6,0.1,1.2,0.3,1.8,0.4c0.4,0.1,0.9,0.2,1.3,0.3
		c0.6,0.1,1.2,0.3,1.8,0.4c0.4,0.1,0.9,0.2,1.3,0.3c0.6,0.1,1.2,0.2,1.8,0.3c0.4,0.1,0.9,0.2,1.3,0.2c0.6,0.1,1.3,0.2,1.9,0.3
		c0.4,0.1,0.8,0.1,1.2,0.2c0.7,0.1,1.4,0.2,2,0.3c0.4,0,0.7,0.1,1.1,0.1c0.9,0.1,1.7,0.2,2.6,0.3c0.2,0,0.4,0,0.6,0.1
		c1.1,0.1,2.1,0.2,3.2,0.3c0.3,0,0.6,0,0.9,0.1c0.8,0.1,1.5,0.1,2.3,0.1c0.4,0,0.8,0,1.2,0.1c0.5,0,1.1,0,1.6,0.1
		C251.6,254,251.2,253.6,250.8,253.2z"/>
	<path fill="#F362D2" d="M221.3,163c0.2,0.2,0.4,0.4,0.5,0.6c1.1,1.2,2.1,2.4,3.1,3.6c0.2,0.3,0.4,0.5,0.7,0.8c1,1.2,2.1,2.5,3,3.7
		l0,0c1,1.3,2,2.6,2.9,3.9c0.2,0.3,0.4,0.5,0.6,0.8c0.9,1.3,1.8,2.6,2.7,3.9c0.1,0.2,0.3,0.4,0.4,0.6c0.8,1.2,1.6,2.4,2.3,3.7
		c0.1,0.2,0.3,0.4,0.4,0.7c0.8,1.3,1.6,2.7,2.4,4.1c0.2,0.3,0.3,0.6,0.5,0.8c0.8,1.4,1.5,2.8,2.2,4.2c0,0,0,0,0,0.1
		c0.7,1.4,1.4,2.9,2.1,4.3c0.1,0.3,0.3,0.6,0.4,0.9c0.6,1.4,1.3,2.9,1.9,4.3c0.1,0.2,0.2,0.4,0.2,0.6c0.5,1.3,1.1,2.7,1.6,4.1
		c0.1,0.2,0.2,0.5,0.3,0.7c0.5,1.5,1,2.9,1.5,4.4c0.1,0.3,0.2,0.6,0.3,0.9c0.5,1.5,0.9,3,1.3,4.5v0.1c0.4,1.5,0.8,3.1,1.2,4.6
		c0.1,0.3,0.2,0.7,0.2,1c0.4,1.5,0.7,3.1,1,4.6c0,0.2,0.1,0.5,0.1,0.7c0.3,1.4,0.5,2.8,0.7,4.3c0,0.2,0.1,0.4,0.1,0.6
		c0-0.2,0.1-0.4,0.1-0.6c0.2-1.4,0.5-2.8,0.7-4.2c0-0.2,0.1-0.5,0.1-0.7c0.3-1.5,0.6-3.1,1-4.6c0.1-0.3,0.2-0.7,0.2-1
		c0.4-1.5,0.8-3.1,1.2-4.6c0-0.1,0-0.1,0.1-0.2c0.4-1.5,0.9-2.9,1.3-4.4c0.1-0.3,0.2-0.6,0.3-1c0.5-1.5,1-2.9,1.5-4.4
		c0.1-0.3,0.2-0.5,0.3-0.8c0.5-1.3,1-2.7,1.5-4c0.1-0.2,0.2-0.5,0.3-0.7c0.6-1.4,1.2-2.9,1.8-4.3c0.1-0.3,0.3-0.6,0.4-0.9
		c0.7-1.4,1.3-2.9,2-4.3c0,0,0-0.1,0.1-0.1c0.7-1.4,1.4-2.7,2.2-4.1c0.2-0.3,0.3-0.6,0.5-0.9c0.8-1.4,1.5-2.7,2.3-4
		c0.1-0.2,0.3-0.5,0.4-0.7c0.7-1.2,1.5-2.4,2.3-3.6c0.1-0.2,0.3-0.4,0.4-0.6c0.9-1.3,1.8-2.6,2.7-3.9c0.2-0.3,0.4-0.6,0.6-0.8
		c0.9-1.3,1.9-2.6,2.9-3.8c0,0,0,0,0.1-0.1c1-1.2,2-2.5,3-3.7c0.2-0.3,0.4-0.5,0.7-0.8c1-1.2,2.1-2.4,3.1-3.6
		c0.2-0.2,0.4-0.4,0.5-0.6c1-1.1,2-2.1,3-3.2c0.1-0.1,0.2-0.3,0.4-0.4c0-0.5,0-1,0-1.4c0-0.5,0-1,0-1.5c0-0.6,0-1.2-0.1-1.8
		c0-0.5,0-1-0.1-1.5c0-0.6-0.1-1.2-0.1-1.8c0-0.5-0.1-1-0.1-1.5c0-0.6-0.1-1.2-0.2-1.8c0-0.5-0.1-1-0.1-1.5
		c-0.1-0.6-0.1-1.2-0.2-1.9c-0.1-0.5-0.1-0.9-0.2-1.4c-0.1-0.6-0.2-1.3-0.3-1.9c-0.1-0.4-0.1-0.9-0.2-1.3c-0.1-0.7-0.2-1.3-0.3-2
		c-0.1-0.4-0.1-0.8-0.2-1.2c-0.1-0.8-0.3-1.5-0.4-2.3c-0.1-0.3-0.1-0.6-0.2-0.9c-0.2-1-0.4-2.1-0.7-3.1l0,0
		c-0.2-1.1-0.5-2.1-0.8-3.2c0-0.2-0.1-0.3-0.1-0.5c-0.2-0.9-0.5-1.8-0.7-2.6c-0.1-0.3-0.2-0.6-0.3-0.9c-0.2-0.7-0.4-1.5-0.6-2.2
		c-0.1-0.4-0.2-0.7-0.3-1.1c-0.2-0.7-0.4-1.3-0.6-2c-0.1-0.4-0.3-0.8-0.4-1.2c-0.2-0.6-0.4-1.2-0.6-1.9c-0.1-0.4-0.3-0.8-0.5-1.2
		c-0.2-0.6-0.4-1.2-0.7-1.8c-0.2-0.4-0.3-0.8-0.5-1.3c-0.2-0.6-0.5-1.2-0.7-1.7c-0.2-0.4-0.4-0.8-0.5-1.3c-0.2-0.6-0.5-1.1-0.7-1.7
		c-0.2-0.4-0.4-0.8-0.6-1.3c-0.3-0.6-0.5-1.1-0.8-1.7c-0.2-0.4-0.4-0.9-0.6-1.3c-0.3-0.5-0.5-1.1-0.8-1.6c-0.2-0.4-0.4-0.9-0.7-1.3
		c-0.3-0.5-0.5-1.1-0.8-1.6c-0.2-0.4-0.5-0.8-0.7-1.3c-0.3-0.5-0.6-1-0.9-1.6c-0.2-0.4-0.5-0.8-0.7-1.3c-0.3-0.5-0.6-1-0.9-1.5
		c-0.3-0.4-0.5-0.8-0.8-1.3s-0.6-1-0.9-1.5c-0.3-0.4-0.5-0.8-0.8-1.3s-0.6-1-1-1.5c-0.3-0.4-0.6-0.8-0.8-1.2c-0.3-0.5-0.7-1-1-1.4
		s-0.6-0.8-0.9-1.2c-0.3-0.5-0.7-0.9-1-1.4c-0.3-0.4-0.6-0.8-0.9-1.2c-0.3-0.5-0.7-0.9-1.1-1.4c-0.3-0.4-0.6-0.8-1-1.2
		c-0.4-0.5-0.7-0.9-1.1-1.4c-0.3-0.4-0.7-0.8-1-1.2c-0.4-0.4-0.7-0.9-1.1-1.3c-0.3-0.4-0.7-0.8-1-1.2c-0.4-0.4-0.8-0.9-1.1-1.3
		c-0.4-0.4-0.7-0.8-1.1-1.2c-0.4-0.4-0.8-0.8-1.2-1.3c-0.4-0.4-0.7-0.8-1.1-1.1c-0.2-0.2-0.4-0.4-0.6-0.6c-0.2,0.2-0.4,0.4-0.6,0.6
		c-0.4,0.4-0.7,0.8-1.1,1.2c-0.4,0.4-0.8,0.8-1.2,1.3c-0.4,0.4-0.7,0.8-1.1,1.2c-0.4,0.4-0.8,0.8-1.1,1.3c-0.3,0.4-0.7,0.8-1,1.2
		c-0.4,0.4-0.7,0.9-1.1,1.3c-0.3,0.4-0.7,0.8-1,1.2c-0.4,0.4-0.7,0.9-1.1,1.3c-0.3,0.4-0.7,0.8-1,1.2c-0.3,0.4-0.7,0.9-1,1.3
		s-0.6,0.8-0.9,1.3c-0.3,0.5-0.7,0.9-1,1.4c-0.3,0.4-0.6,0.8-0.9,1.3c-0.3,0.5-0.6,0.9-1,1.4c-0.3,0.4-0.6,0.9-0.9,1.3
		c-0.3,0.5-0.6,0.9-0.9,1.4c-0.3,0.4-0.6,0.9-0.8,1.3c-0.3,0.5-0.6,1-0.9,1.4c-0.3,0.4-0.5,0.9-0.8,1.3c-0.3,0.5-0.6,1-0.9,1.5
		c-0.3,0.4-0.5,0.9-0.8,1.3c-0.3,0.5-0.6,1-0.8,1.5c-0.2,0.4-0.5,0.9-0.7,1.3c-0.3,0.5-0.5,1-0.8,1.5c-0.2,0.4-0.5,0.9-0.7,1.3
		c-0.3,0.5-0.5,1-0.8,1.6c-0.2,0.4-0.4,0.9-0.7,1.3c-0.2,0.5-0.5,1.1-0.7,1.6c-0.2,0.4-0.4,0.9-0.6,1.3c-0.2,0.5-0.5,1.1-0.7,1.6
		c-0.2,0.4-0.4,0.9-0.6,1.3c-0.2,0.5-0.4,1.1-0.7,1.7c-0.2,0.4-0.4,0.9-0.5,1.3c-0.2,0.6-0.4,1.1-0.6,1.7c-0.2,0.4-0.3,0.9-0.5,1.3
		c-0.2,0.6-0.4,1.2-0.6,1.8c-0.1,0.4-0.3,0.9-0.4,1.3c-0.2,0.6-0.4,1.2-0.6,1.9c-0.1,0.4-0.3,0.8-0.4,1.2c-0.2,0.7-0.4,1.3-0.6,2
		c-0.1,0.4-0.2,0.7-0.3,1.1c-0.2,0.8-0.4,1.6-0.6,2.4c-0.1,0.3-0.1,0.5-0.2,0.8c-0.3,1-0.5,2.1-0.7,3.2c0,0.1,0,0.2-0.1,0.3
		c-0.2,0.9-0.4,1.9-0.6,2.8c-0.1,0.4-0.1,0.7-0.2,1.1c-0.1,0.7-0.3,1.4-0.4,2.1c-0.1,0.4-0.1,0.8-0.2,1.3c-0.1,0.6-0.2,1.3-0.3,2
		c-0.1,0.5-0.1,0.9-0.2,1.4c-0.1,0.6-0.2,1.2-0.3,1.9c-0.1,0.5-0.1,1-0.2,1.4c-0.1,0.6-0.1,1.2-0.2,1.8c0,0.5-0.1,1-0.1,1.5
		c-0.1,0.6-0.1,1.2-0.2,1.8c0,0.5-0.1,1-0.1,1.5c0,0.6-0.1,1.2-0.1,1.8c0,0.5,0,1-0.1,1.5c0,0.6,0,1.2-0.1,1.8c0,0.5,0,1,0,1.5
		s0,1,0,1.4c0.1,0.1,0.2,0.3,0.4,0.4C219.3,160.8,220.3,161.9,221.3,163z"/>
	<path fill="#F362D2" d="M254.3,250.3c0-0.4,0-0.8-0.1-1.2c0-0.8-0.1-1.5-0.1-2.3c0-0.3,0-0.6-0.1-0.9c-0.1-1.1-0.2-2.1-0.3-3.2
		c0-0.2,0-0.4-0.1-0.6c-0.1-0.9-0.2-1.8-0.3-2.6c0-0.4-0.1-0.7-0.1-1.1c-0.1-0.7-0.2-1.4-0.3-2.1c-0.1-0.4-0.1-0.8-0.2-1.2
		c-0.1-0.6-0.2-1.3-0.3-1.9c-0.1-0.4-0.2-0.9-0.2-1.3c-0.1-0.6-0.2-1.2-0.3-1.8c-0.1-0.4-0.2-0.9-0.3-1.3c-0.1-0.6-0.2-1.2-0.4-1.8
		c-0.1-0.4-0.2-0.9-0.3-1.3c-0.1-0.6-0.3-1.2-0.4-1.8c-0.1-0.4-0.2-0.9-0.3-1.3c-0.2-0.6-0.3-1.2-0.5-1.8c-0.1-0.4-0.2-0.9-0.4-1.3
		c-0.2-0.6-0.3-1.2-0.5-1.8c-0.1-0.4-0.2-0.8-0.4-1.2c-0.2-0.6-0.4-1.2-0.6-1.8c-0.1-0.4-0.3-0.8-0.4-1.2c-0.2-0.6-0.4-1.3-0.7-1.9
		c-0.1-0.4-0.2-0.7-0.4-1.1c-0.3-0.7-0.5-1.4-0.8-2.1c-0.1-0.3-0.2-0.5-0.3-0.8c-0.8-2-1.6-3.9-2.4-5.8c-0.1-0.3-0.2-0.5-0.4-0.8
		c-0.3-0.7-0.6-1.4-0.9-2.1c-0.2-0.3-0.3-0.7-0.5-1c-0.3-0.6-0.6-1.2-0.9-1.8c-0.2-0.4-0.4-0.7-0.6-1.1c-0.3-0.6-0.6-1.1-0.9-1.7
		c-0.2-0.4-0.4-0.8-0.6-1.1c-0.3-0.5-0.6-1.1-0.9-1.6c-0.2-0.4-0.4-0.8-0.7-1.1c-0.3-0.5-0.6-1.1-0.9-1.6c-0.2-0.4-0.5-0.8-0.7-1.1
		c-0.3-0.5-0.6-1-1-1.6c-0.2-0.4-0.5-0.8-0.7-1.1c-0.3-0.5-0.7-1-1-1.5c-0.2-0.4-0.5-0.7-0.7-1.1c-0.3-0.5-0.7-1-1.1-1.5
		c-0.2-0.4-0.5-0.7-0.7-1.1c-0.4-0.5-0.8-1.1-1.1-1.6c-0.2-0.3-0.5-0.7-0.7-1c-0.4-0.6-0.8-1.1-1.3-1.7c-0.2-0.3-0.4-0.6-0.7-0.9
		c-0.6-0.7-1.1-1.4-1.7-2.1c-0.1-0.1-0.2-0.3-0.3-0.4c-0.7-0.8-1.4-1.6-2.1-2.5c-0.2-0.2-0.4-0.4-0.6-0.6c-0.5-0.6-1-1.2-1.6-1.8
		c-0.3-0.3-0.5-0.6-0.8-0.9c-0.4-0.4-0.7-0.8-1.1-1.2c0,0.5,0,1.1,0.1,1.6c0,0.4,0,0.8,0.1,1.2c0,0.8,0.1,1.5,0.1,2.3
		c0,0.3,0,0.6,0.1,0.9c0.1,1.1,0.2,2.1,0.3,3.2c0,0.2,0,0.4,0.1,0.6c0.1,0.9,0.2,1.7,0.3,2.6c0,0.4,0.1,0.7,0.1,1.1
		c0.1,0.7,0.2,1.4,0.3,2.1c0.1,0.4,0.1,0.8,0.2,1.2c0.1,0.6,0.2,1.3,0.3,1.9c0.1,0.4,0.2,0.9,0.2,1.3c0.1,0.6,0.2,1.2,0.3,1.8
		c0.1,0.4,0.2,0.9,0.3,1.3c0.1,0.6,0.2,1.2,0.4,1.8c0.1,0.4,0.2,0.9,0.3,1.3c0.1,0.6,0.3,1.2,0.4,1.8c0.1,0.4,0.2,0.9,0.3,1.3
		c0.2,0.6,0.3,1.2,0.5,1.8c0.1,0.4,0.2,0.9,0.4,1.3c0.2,0.6,0.3,1.2,0.5,1.8c0.1,0.4,0.2,0.8,0.4,1.2c0.2,0.6,0.4,1.2,0.6,1.8
		c0.1,0.4,0.3,0.8,0.4,1.2c0.2,0.6,0.4,1.3,0.7,1.9c0.1,0.4,0.2,0.7,0.4,1.1c0.3,0.7,0.5,1.4,0.8,2.1c0.1,0.3,0.2,0.5,0.3,0.8
		c0.8,2,1.6,3.9,2.4,5.8c0.1,0.3,0.2,0.5,0.4,0.8c0.3,0.7,0.6,1.4,1,2.1c0.2,0.3,0.3,0.7,0.5,1c0.3,0.6,0.6,1.2,0.9,1.8
		c0.2,0.4,0.4,0.7,0.6,1.1c0.3,0.6,0.6,1.1,0.9,1.7c0.2,0.4,0.4,0.8,0.6,1.1c0.3,0.5,0.6,1.1,0.9,1.6c0.2,0.4,0.4,0.8,0.7,1.2
		c0.3,0.5,0.6,1.1,0.9,1.6c0.2,0.4,0.5,0.8,0.7,1.2c0.3,0.5,0.6,1,1,1.6c0.2,0.4,0.5,0.8,0.7,1.1c0.3,0.5,0.7,1,1,1.5
		c0.2,0.4,0.5,0.7,0.7,1.1c0.3,0.5,0.7,1,1.1,1.5c0.2,0.4,0.5,0.7,0.7,1.1c0.4,0.5,0.8,1,1.1,1.6c0.2,0.3,0.5,0.7,0.7,1
		c0.4,0.6,0.8,1.1,1.3,1.7c0.2,0.3,0.4,0.6,0.7,0.9c0.6,0.7,1.1,1.4,1.7,2.1c0.1,0.1,0.2,0.3,0.3,0.4c0.7,0.8,1.4,1.6,2.1,2.5
		c0.2,0.2,0.4,0.4,0.6,0.7c0.5,0.6,1,1.2,1.5,1.7c0.3,0.3,0.5,0.6,0.8,0.9c0.4,0.4,0.7,0.8,1.1,1.2
		C254.3,251.4,254.3,250.9,254.3,250.3z"/>
	<path fill="#FFFFFF" d="M219.1,165.3c0.3,0.3,0.5,0.6,0.8,0.9c0.5,0.6,1.1,1.2,1.6,1.8c0.2,0.2,0.4,0.4,0.6,0.6
		c0.7,0.8,1.4,1.6,2.1,2.5c0.1,0.1,0.2,0.3,0.3,0.4c0.6,0.7,1.1,1.4,1.7,2.1c0.2,0.3,0.4,0.6,0.7,0.9c0.4,0.6,0.9,1.1,1.3,1.7
		c0.2,0.3,0.5,0.7,0.7,1c0.4,0.5,0.8,1.1,1.1,1.6c0.3,0.4,0.5,0.7,0.7,1.1c0.4,0.5,0.7,1,1.1,1.5c0.2,0.4,0.5,0.7,0.7,1.1
		c0.3,0.5,0.7,1,1,1.5c0.2,0.4,0.5,0.8,0.7,1.1c0.3,0.5,0.6,1,1,1.6c0.2,0.4,0.5,0.8,0.7,1.1c0.3,0.5,0.6,1.1,0.9,1.6
		c0.2,0.4,0.4,0.8,0.7,1.1c0.3,0.5,0.6,1.1,0.9,1.6c0.2,0.4,0.4,0.8,0.6,1.1c0.3,0.6,0.6,1.1,0.9,1.7c0.2,0.4,0.4,0.7,0.6,1.1
		c0.3,0.6,0.6,1.2,0.9,1.8c0.2,0.3,0.3,0.7,0.5,1c0.3,0.7,0.6,1.4,0.9,2.1c0.1,0.3,0.2,0.5,0.4,0.8c0.9,1.9,1.7,3.9,2.4,5.8
		c0.1,0.3,0.2,0.5,0.3,0.8c0.3,0.7,0.5,1.4,0.8,2.1c0.1,0.4,0.2,0.7,0.4,1.1c0.2,0.6,0.4,1.3,0.7,1.9c0.1,0.4,0.3,0.8,0.4,1.2
		c0.2,0.6,0.4,1.2,0.6,1.8c0.1,0.4,0.2,0.8,0.4,1.2c0.2,0.6,0.3,1.2,0.5,1.8c0.1,0.4,0.2,0.9,0.4,1.3c0.2,0.6,0.3,1.2,0.5,1.8
		c0.1,0.4,0.2,0.9,0.3,1.3c0.1,0.6,0.3,1.2,0.4,1.8c0.1,0.4,0.2,0.9,0.3,1.3c0.1,0.6,0.3,1.2,0.4,1.8c0.1,0.4,0.2,0.9,0.3,1.3
		c0.1,0.6,0.2,1.2,0.3,1.8c0.1,0.4,0.2,0.9,0.2,1.3c0.1,0.6,0.2,1.3,0.3,1.9c0.1,0.4,0.1,0.8,0.2,1.2c0.1,0.7,0.2,1.4,0.3,2.1
		c0,0.4,0.1,0.7,0.1,1.1c0.1,0.9,0.2,1.7,0.3,2.6c0,0.2,0,0.4,0.1,0.6c0.1,1.1,0.2,2.1,0.3,3.2c0,0.3,0,0.6,0.1,0.9
		c0.1,0.8,0.1,1.5,0.1,2.3c0,0.4,0,0.8,0.1,1.2c0,0.5,0.1,1.1,0.1,1.6l0.1,0.1c0.1-3.7,0.4-7.3,0.7-10.9
		c-3.3-30.7-16.9-58.4-37.3-79.4c0,0.8,0,1.6,0,2.4C218.3,164.5,218.7,164.9,219.1,165.3z"/>
	<path fill="#AB3EC6" d="M293,165.2c-0.3,0.3-0.6,0.7-0.9,1c-0.5,0.5-0.9,1-1.4,1.6c-0.2,0.3-0.5,0.6-0.7,0.8
		c-0.7,0.8-1.4,1.6-2,2.4c-0.2,0.2-0.3,0.4-0.5,0.7c-0.5,0.6-1,1.2-1.5,1.8c-0.2,0.3-0.5,0.6-0.7,1c-0.4,0.5-0.8,1-1.2,1.6
		c-0.3,0.4-0.5,0.7-0.8,1.1c-0.4,0.5-0.7,1-1.1,1.5c-0.3,0.4-0.5,0.7-0.8,1.1c-0.3,0.5-0.7,1-1,1.5c-0.3,0.4-0.5,0.8-0.8,1.2
		c-0.3,0.5-0.7,1-1,1.5c-0.2,0.4-0.5,0.8-0.7,1.2c-0.3,0.5-0.6,1-0.9,1.5c-0.2,0.4-0.5,0.8-0.7,1.2c-0.3,0.5-0.6,1-0.9,1.6
		c-0.2,0.4-0.5,0.8-0.7,1.2c-0.3,0.5-0.6,1.1-0.9,1.6c-0.2,0.4-0.4,0.8-0.6,1.2c-0.3,0.6-0.6,1.1-0.9,1.7c-0.2,0.4-0.4,0.7-0.6,1.1
		c-0.3,0.6-0.6,1.2-0.9,1.8c-0.2,0.3-0.3,0.7-0.5,1c-0.3,0.7-0.6,1.4-0.9,2.1c-0.1,0.3-0.2,0.5-0.4,0.8c-0.9,1.9-1.7,3.9-2.4,5.8
		c-0.1,0.3-0.2,0.5-0.3,0.8c-0.3,0.7-0.5,1.4-0.8,2.1c-0.1,0.4-0.2,0.7-0.4,1.1c-0.2,0.6-0.4,1.3-0.7,1.9c-0.1,0.4-0.2,0.8-0.4,1.2
		c-0.2,0.6-0.4,1.2-0.6,1.8c-0.1,0.4-0.2,0.8-0.4,1.2c-0.2,0.6-0.4,1.2-0.5,1.8c-0.1,0.4-0.2,0.8-0.3,1.3c-0.2,0.6-0.3,1.2-0.5,1.8
		c-0.1,0.4-0.2,0.8-0.3,1.3c-0.1,0.6-0.3,1.2-0.4,1.8c-0.1,0.4-0.2,0.8-0.3,1.3c-0.1,0.6-0.3,1.2-0.4,1.9c-0.1,0.4-0.2,0.8-0.3,1.3
		c-0.1,0.6-0.2,1.3-0.4,1.9c-0.1,0.4-0.1,0.8-0.2,1.2c-0.1,0.7-0.2,1.3-0.3,2c-0.1,0.4-0.1,0.8-0.2,1.1c-0.1,0.7-0.2,1.5-0.3,2.2
		c0,0.3-0.1,0.6-0.1,0.9c-0.1,1-0.2,2-0.3,3c0,0.1,0,0.1,0,0.2c-0.1,1.1-0.2,2.2-0.3,3.2c0,0.2,0,0.4,0,0.6
		c-0.1,0.9-0.1,1.7-0.2,2.6c0,0.3,0,0.7,0,1c0,0.6,0,1.2-0.1,1.8c0.3-0.4,0.7-0.7,1-1.1c0.3-0.3,0.6-0.7,0.9-1
		c0.5-0.5,0.9-1,1.4-1.5c0.3-0.3,0.5-0.6,0.8-0.9c0.7-0.8,1.4-1.6,2-2.4c0.2-0.2,0.4-0.5,0.6-0.7c0.5-0.6,1-1.2,1.4-1.8
		c0.3-0.3,0.5-0.7,0.8-1c0.4-0.5,0.8-1,1.2-1.5c0.3-0.4,0.5-0.7,0.8-1.1c0.4-0.5,0.7-1,1.1-1.5c0.3-0.4,0.5-0.8,0.8-1.1
		c0.3-0.5,0.7-1,1-1.5c0.3-0.4,0.5-0.8,0.8-1.2c0.3-0.5,0.6-1,1-1.5c0.3-0.4,0.5-0.8,0.8-1.2c0.3-0.5,0.6-1,0.9-1.5
		c0.2-0.4,0.5-0.8,0.7-1.2c0.3-0.5,0.6-1,0.9-1.5c0.2-0.4,0.5-0.8,0.7-1.2c0.3-0.5,0.6-1.1,0.9-1.6c0.2-0.4,0.4-0.8,0.6-1.2
		c0.3-0.5,0.6-1.1,0.9-1.6c0.2-0.4,0.4-0.8,0.6-1.2c0.3-0.6,0.6-1.2,0.9-1.8c0.2-0.4,0.3-0.7,0.5-1.1c0.3-0.7,0.6-1.3,0.9-2
		c0.1-0.3,0.3-0.6,0.4-0.8c0.9-1.9,1.7-3.9,2.4-5.8c0.1-0.3,0.2-0.6,0.3-0.8c0.3-0.7,0.5-1.4,0.8-2.1c0.1-0.4,0.2-0.7,0.4-1.1
		c0.2-0.6,0.4-1.3,0.7-1.9c0.1-0.4,0.3-0.8,0.4-1.2c0.2-0.6,0.4-1.2,0.6-1.8c0.1-0.4,0.2-0.8,0.4-1.2c0.2-0.6,0.4-1.2,0.5-1.8
		c0.1-0.4,0.2-0.8,0.3-1.3c0.2-0.6,0.3-1.2,0.5-1.8c0.1-0.4,0.2-0.9,0.3-1.3c0.1-0.6,0.3-1.2,0.4-1.8c0.1-0.4,0.2-0.9,0.3-1.3
		c0.1-0.6,0.3-1.2,0.4-1.8c0.1-0.4,0.2-0.8,0.3-1.3c0.1-0.6,0.2-1.3,0.4-1.9c0.1-0.4,0.1-0.8,0.2-1.2c0.1-0.7,0.2-1.3,0.3-2
		c0.1-0.4,0.1-0.8,0.2-1.1c0.1-0.7,0.2-1.5,0.3-2.2c0-0.3,0.1-0.6,0.1-0.9c0.1-1,0.2-2,0.3-3c0-0.1,0-0.1,0-0.2
		c0.1-1.1,0.2-2.2,0.3-3.2c0-0.2,0-0.4,0-0.6c0.1-0.9,0.1-1.7,0.2-2.6c0-0.3,0-0.7,0-1c0-0.6,0-1.2,0.1-1.8
		C293.7,164.5,293.4,164.8,293,165.2z"/>
</g>
</svg>
