<?xml version="1.0" encoding="utf-8"?>
<!-- Generator: Adobe Illustrator 18.0.0, SVG Export Plug-In . SVG Version: 6.00 Build 0)  -->
<!DOCTYPE svg PUBLIC "-//W3C//DTD SVG 1.1//EN" "http://www.w3.org/Graphics/SVG/1.1/DTD/svg11.dtd">
<svg version="1.1" id="Layer_1" xmlns="http://www.w3.org/2000/svg" xmlns:xlink="http://www.w3.org/1999/xlink" x="0px" y="0px"
	 viewBox="0 0 512 512" style="enable-background:new 0 0 512 512;" xml:space="preserve">
<g>
	<path style="fill:#E8E8E8;" d="M446,486H66c-22.1,0-40-17.9-40-40V66c0-22.1,17.9-40,40-40h380c22.1,0,40,17.9,40,40v380
		C486,468.1,468.1,486,446,486z"/>
	<path style="fill:#60493D;" d="M446,486H66c-22.1,0-40-17.9-40-40V66c0-22.1,17.9-40,40-40h380c22.1,0,40,17.9,40,40v380
		C486,468.1,468.1,486,446,486z"/>
	<g>
		<path style="fill:#825E46;" d="M26.1,94.6c0,0.8-0.1,1.6-0.1,2.4v349c0,0.7,0,1.4,0.1,2.1l165.8-176.8L26.1,94.6z"/>
		<path style="fill:#825E46;" d="M320.1,271.3l165.8,176.8c0-0.7,0.1-1.4,0.1-2.1V97c0-0.8,0-1.6-0.1-2.4L320.1,271.3z"/>
		
			<linearGradient id="SVGID_1_" gradientUnits="userSpaceOnUse" x1="256" y1="26" x2="256" y2="309" gradientTransform="matrix(1 0 0 -1 0 512)">
			<stop  offset="0" style="stop-color:#563D2A"/>
			<stop  offset="0.362" style="stop-color:#6D4E39"/>
			<stop  offset="0.7165" style="stop-color:#7D5A43"/>
			<stop  offset="1" style="stop-color:#825E46"/>
		</linearGradient>
		<path style="fill:url(#SVGID_1_);" d="M320.1,271.3L256,203l-64.1,68.3L26.1,448.1c0,0,0,0,0,0.1C27.2,469.3,44.6,486,66,486h380
			c21.4,0,38.8-16.7,39.9-37.8c0,0,0,0,0-0.1L320.1,271.3z"/>
		
			<linearGradient id="SVGID_2_" gradientUnits="userSpaceOnUse" x1="256" y1="172.3" x2="256" y2="455" gradientTransform="matrix(1 0 0 -1 0 512)">
			<stop  offset="0" style="stop-color:#483221"/>
			<stop  offset="0.3122" style="stop-color:#563D2A"/>
			<stop  offset="0.9016" style="stop-color:#7B5942"/>
			<stop  offset="1" style="stop-color:#825E46"/>
		</linearGradient>
		<path style="fill:url(#SVGID_2_);" d="M485.9,94.5C484.6,73.6,467.3,57,446,57H66c-21.3,0-38.6,16.6-39.9,37.5v0.1l165.8,176.8
			l64.1,68.3l64.1-68.3L485.9,94.5C485.9,94.6,485.9,94.5,485.9,94.5z"/>
	</g>
</g>
<g>
	<path style="fill:#CCA68D;" d="M416.901,281.607L266.607,431.901c-5.858,5.858-15.355,5.858-21.213,0L95.099,281.607
		c-5.858-5.858-5.858-15.355,0-21.213l150.295-150.295c5.858-5.858,15.355-5.858,21.213,0l150.295,150.295
		C422.759,266.251,422.759,275.749,416.901,281.607z"/>
	<g>
		<path style="fill:#E8E8E8;" d="M353.84,262.728h-19.404c-0.912-8.09-3.041-15.876-6.204-23.053l16.606-9.611
			c1.46-0.852,1.946-2.676,1.095-4.136l-5.718-9.915c-0.852-1.46-2.676-1.946-4.136-1.095l-16.667,9.611
			c-4.623-6.265-10.219-11.861-16.484-16.484l9.915-17.153c0.852-1.46,0.365-3.285-1.095-4.136l-9.915-5.718
			c-1.46-0.852-3.285-0.365-4.136,1.095l-9.854,17.092c-7.299-3.224-15.207-5.414-23.54-6.265v-19.769
			c0-1.703-1.338-3.041-3.041-3.041h-11.496c-1.703,0-3.041,1.338-3.041,3.041v19.89c-8.09,0.912-15.815,3.102-22.992,6.326
			l-9.976-17.214c-0.852-1.46-2.676-1.946-4.136-1.095l-9.915,5.718c-1.46,0.852-1.946,2.676-1.095,4.136l10.036,17.396
			c-6.204,4.623-11.679,10.219-16.302,16.423l-16.971-9.793c-1.46-0.852-3.285-0.365-4.136,1.095l-5.718,9.915
			c-0.852,1.46-0.365,3.285,1.095,4.136l16.971,9.793c-3.102,7.117-5.231,14.781-6.083,22.81h-19.404
			c-1.703,0-3.041,1.338-3.041,3.041v11.496c0,1.703,1.338,3.041,3.041,3.041h19.404c0.912,8.029,2.98,15.632,6.083,22.749
			l-17.031,9.732c-1.46,0.852-1.946,2.676-1.095,4.136l5.718,9.915c0.852,1.46,2.676,1.946,4.136,1.095l16.91-9.793
			c4.744,6.508,10.523,12.226,17.031,17.031l-9.489,16.423c-0.852,1.46-0.365,3.285,1.095,4.136l9.915,5.718
			c1.46,0.852,3.285,0.365,4.136-1.095l9.489-16.484c6.934,3.041,14.416,5.049,22.263,5.961v18.978c0,1.703,1.338,3.041,3.041,3.041
			h11.496c1.703,0,3.041-1.338,3.041-3.041v-18.917c8.029-0.852,15.632-2.859,22.749-5.9l9.428,16.302
			c0.852,1.46,2.676,1.946,4.136,1.095l9.915-5.718c1.46-0.852,1.946-2.676,1.095-4.136l-9.367-16.241
			c6.569-4.744,12.348-10.523,17.214-17.031l16.606,9.611c1.46,0.852,3.285,0.365,4.136-1.095l5.718-9.915
			c0.852-1.46,0.365-3.285-1.095-4.136l-16.423-9.489c3.163-7.178,5.231-14.842,6.143-22.932h19.404
			c1.703,0,3.041-1.338,3.041-3.041v-11.496C356.881,264.066,355.543,262.728,353.84,262.728z M316.796,280.307
			c-0.669,4.866-1.946,9.611-3.771,14.112c-2.19,5.414-5.109,10.523-8.82,15.207c-1.46,1.886-3.102,3.65-4.805,5.414
			c-1.886,1.886-3.832,3.589-5.9,5.231c-4.684,3.65-9.854,6.508-15.267,8.637c-4.44,1.703-9.124,2.92-13.929,3.589
			c-2.737,0.365-5.535,0.547-8.333,0.547c-3.102,0-6.204-0.243-9.246-0.669c-4.623-0.669-9.124-1.886-13.382-3.589
			c-5.414-2.129-10.584-5.109-15.207-8.759c-1.946-1.521-3.832-3.163-5.596-4.988c-1.764-1.764-3.406-3.65-4.927-5.535
			c-3.65-4.684-6.63-9.793-8.759-15.207c-1.764-4.44-2.981-9.124-3.71-13.868c-0.426-2.859-0.608-5.839-0.608-8.759
			c0-2.98,0.182-5.9,0.608-8.759c0.669-4.805,1.946-9.489,3.71-13.99c2.19-5.414,5.109-10.523,8.759-15.207
			c1.521-1.886,3.102-3.71,4.866-5.474c1.581-1.581,3.224-3.041,4.988-4.44c4.623-3.71,9.671-6.752,15.085-8.942
			c4.501-1.886,9.246-3.163,14.173-3.893c3.041-0.426,6.083-0.669,9.246-0.669c2.798,0,5.596,0.182,8.333,0.547
			c5.049,0.669,9.976,2.007,14.659,3.893c5.414,2.19,10.523,5.17,15.146,8.881c1.825,1.46,3.589,3.041,5.292,4.684
			c1.703,1.703,3.285,3.467,4.744,5.292c3.71,4.623,6.63,9.732,8.82,15.146c1.825,4.562,3.102,9.307,3.832,14.173
			c0.426,2.859,0.608,5.839,0.608,8.759C317.405,274.467,317.222,277.387,316.796,280.307z"/>
		<path style="fill:#515151;" d="M255.97,227.631c24.209,0,43.917,19.708,43.917,43.917s-19.708,43.917-43.917,43.917
			s-43.917-19.708-43.917-43.917C212.053,247.338,231.761,227.631,255.97,227.631 M255.97,210.052
			c-33.941,0-61.435,27.494-61.435,61.435s27.494,61.435,61.435,61.435s61.435-27.494,61.435-61.435S289.911,210.052,255.97,210.052
			L255.97,210.052z"/>
	</g>
</g>
</svg>
