<?xml version="1.0" encoding="utf-8"?>
<!-- Generator: Adobe Illustrator 18.0.0, SVG Export Plug-In . SVG Version: 6.00 Build 0)  -->
<!DOCTYPE svg PUBLIC "-//W3C//DTD SVG 1.1//EN" "http://www.w3.org/Graphics/SVG/1.1/DTD/svg11.dtd">
<svg version="1.1" id="Layer_1" xmlns="http://www.w3.org/2000/svg" xmlns:xlink="http://www.w3.org/1999/xlink" x="0px" y="0px"
	 viewBox="0 0 512 512" style="enable-background:new 0 0 512 512;" xml:space="preserve">
<style type="text/css">
	.st0{fill:#E2E2E2;}
	.st1{fill:#969696;}
	.st2{fill:url(#SVGID_1_);}
	.st3{fill:#0E0E0E;}
	.st4{opacity:0.4;fill:url(#SVGID_2_);enable-background:new    ;}
	.st5{fill:#FFFFFF;}
	.st6{fill:#515151;}
</style>
<g>
	<polygon class="st0" points="313,430.9 308.2,382.7 203.8,382.7 199,430.9 	"/>
	<rect x="174" y="429.6" class="st1" width="164.1" height="6.4"/>
	<g>
		<g>
			<radialGradient id="SVGID_1_" cx="262.7633" cy="587.3285" r="636.7156" gradientUnits="userSpaceOnUse">
				<stop  offset="0.0193" style="stop-color:#FAAD1C"/>
				<stop  offset="0.3892" style="stop-color:#F26731"/>
				<stop  offset="0.7239" style="stop-color:#E71670"/>
				<stop  offset="1" style="stop-color:#652F8C"/>
			</radialGradient>
			<path class="st2" d="M464.1,103.5H47.9c-1.2,0-2,0.9-2,2v247.7c0,1.2,0.9,2,2,2h416.2c1.2,0,2-0.9,2-2V105.5
				C466.1,104.3,465.3,103.5,464.1,103.5z"/>
			<path class="st3" d="M471.9,76.1H40.1c-7.8,0-14.1,6.2-14.1,14.1v278.7c0,7.8,6.2,14.1,14.1,14.1H472c7.8,0,14.1-6.2,14.1-14.1
				V90.1C486,82.3,479.8,76.1,471.9,76.1z M466.1,353.2c0,1.2-0.9,2-2,2H47.9c-1.2,0-2-0.9-2-2V105.5c0-1.2,0.9-2,2-2h416.2
				c1.2,0,2,0.9,2,2V353.2z"/>
		</g>
		
			<linearGradient id="SVGID_2_" gradientUnits="userSpaceOnUse" x1="258" y1="284.65" x2="486" y2="284.65" gradientTransform="matrix(1 0 0 -1 0 514)">
			<stop  offset="0" style="stop-color:#FFFFFF"/>
			<stop  offset="1" style="stop-color:#FFFFFF;stop-opacity:0"/>
		</linearGradient>
		<path class="st4" d="M471.9,382.7c7.8,0,14.1-6.2,14.1-14.1V90.1c0-7.8-6.2-14.1-14.1-14.1H258L471.9,382.7z"/>
	</g>
</g>
<g>
	<g>
		<path class="st5" d="M353.599,220.851h-19.356c-0.91-8.07-3.034-15.837-6.189-22.997l16.565-9.587
			c1.456-0.849,1.942-2.67,1.092-4.126l-5.704-9.89c-0.849-1.456-2.67-1.942-4.126-1.092l-16.626,9.587
			c-4.611-6.25-10.194-11.832-16.443-16.443l9.89-17.111c0.849-1.456,0.364-3.277-1.092-4.126l-9.89-5.704
			c-1.456-0.849-3.277-0.364-4.126,1.092l-9.83,17.05c-7.281-3.216-15.169-5.4-23.482-6.25v-19.72c0-1.699-1.335-3.034-3.034-3.034
			h-11.468c-1.699,0-3.034,1.335-3.034,3.034v19.841c-8.07,0.91-15.776,3.095-22.936,6.31l-9.951-17.172
			c-0.849-1.456-2.67-1.942-4.126-1.092l-9.89,5.704c-1.456,0.849-1.942,2.67-1.092,4.126l10.012,17.354
			c-6.189,4.611-11.65,10.194-16.261,16.383l-16.929-9.769c-1.456-0.849-3.277-0.364-4.126,1.092l-5.704,9.89
			c-0.849,1.456-0.364,3.277,1.092,4.126l16.929,9.769c-3.095,7.099-5.218,14.745-6.068,22.754H158.34
			c-1.699,0-3.034,1.335-3.034,3.034v11.468c0,1.699,1.335,3.034,3.034,3.034h19.356c0.91,8.009,2.973,15.594,6.068,22.693
			l-16.99,9.708c-1.456,0.849-1.942,2.67-1.092,4.126l5.704,9.89c0.849,1.456,2.67,1.942,4.126,1.092l16.868-9.769
			c4.733,6.492,10.497,12.196,16.99,16.99l-9.466,16.383c-0.849,1.456-0.364,3.277,1.092,4.126l9.89,5.704
			c1.456,0.849,3.277,0.364,4.126-1.092l9.466-16.443c6.917,3.034,14.38,5.036,22.208,5.946v18.931c0,1.699,1.335,3.034,3.034,3.034
			h11.468c1.699,0,3.034-1.335,3.034-3.034v-18.871c8.009-0.849,15.594-2.852,22.693-5.886l9.405,16.261
			c0.849,1.456,2.67,1.942,4.126,1.092l9.89-5.704c1.456-0.849,1.942-2.67,1.092-4.126l-9.344-16.201
			c6.553-4.733,12.317-10.497,17.172-16.99l16.565,9.587c1.456,0.849,3.277,0.364,4.126-1.092l5.704-9.89
			c0.849-1.456,0.364-3.277-1.092-4.126l-16.383-9.466c3.155-7.16,5.218-14.805,6.128-22.875h19.356
			c1.699,0,3.034-1.335,3.034-3.034v-11.468C356.633,222.185,355.298,220.851,353.599,220.851z M316.647,238.386
			c-0.667,4.854-1.942,9.587-3.762,14.077c-2.184,5.4-5.097,10.497-8.798,15.169c-1.456,1.881-3.095,3.641-4.793,5.4
			c-1.881,1.881-3.823,3.58-5.886,5.218c-4.672,3.641-9.83,6.492-15.23,8.616c-4.429,1.699-9.102,2.912-13.895,3.58
			c-2.73,0.364-5.522,0.546-8.313,0.546c-3.095,0-6.189-0.243-9.223-0.667c-4.611-0.667-9.102-1.881-13.349-3.58
			c-5.4-2.124-10.558-5.097-15.169-8.737c-1.942-1.517-3.823-3.155-5.582-4.976c-1.76-1.76-3.398-3.641-4.915-5.522
			c-3.641-4.672-6.614-9.769-8.738-15.169c-1.76-4.429-2.973-9.102-3.701-13.834c-0.425-2.852-0.607-5.825-0.607-8.738
			c0-2.973,0.182-5.886,0.607-8.738c0.667-4.793,1.942-9.466,3.701-13.956c2.184-5.4,5.097-10.497,8.738-15.169
			c1.517-1.881,3.095-3.701,4.854-5.461c1.578-1.578,3.216-3.034,4.976-4.429c4.611-3.701,9.648-6.735,15.048-8.92
			c4.49-1.881,9.223-3.155,14.138-3.883c3.034-0.425,6.068-0.667,9.223-0.667c2.791,0,5.582,0.182,8.313,0.546
			c5.036,0.667,9.951,2.002,14.623,3.883c5.4,2.184,10.497,5.158,15.109,8.859c1.82,1.456,3.58,3.034,5.279,4.672
			c1.699,1.699,3.277,3.459,4.733,5.279c3.701,4.611,6.614,9.708,8.798,15.109c1.82,4.551,3.095,9.284,3.823,14.138
			c0.425,2.852,0.607,5.825,0.607,8.738C317.254,232.561,317.072,235.474,316.647,238.386z"/>
		<path class="st6" d="M255.97,185.84c24.149,0,43.809,19.659,43.809,43.809s-19.659,43.809-43.809,43.809
			s-43.809-19.659-43.809-43.809S231.82,185.84,255.97,185.84 M255.97,168.304c-33.858,0-61.284,27.426-61.284,61.284
			s27.426,61.284,61.284,61.284s61.284-27.426,61.284-61.284S289.827,168.304,255.97,168.304L255.97,168.304z"/>
	</g>
	<g>
		<path class="st5" d="M201.929,337.517h-19.356c-0.91-8.07-3.034-15.837-6.189-22.997l16.565-9.587
			c1.456-0.849,1.942-2.67,1.092-4.126l-5.704-9.89c-0.849-1.456-2.67-1.942-4.126-1.092l-16.625,9.587
			c-4.611-6.25-10.194-11.832-16.443-16.444l9.89-17.111c0.849-1.456,0.364-3.277-1.092-4.126l-9.89-5.704
			c-1.456-0.849-3.277-0.364-4.126,1.092l-9.83,17.05c-7.281-3.216-15.169-5.4-23.482-6.25v-19.72c0-1.699-1.335-3.034-3.034-3.034
			H98.11c-1.699,0-3.034,1.335-3.034,3.034v19.841c-8.07,0.91-15.776,3.095-22.936,6.31l-9.951-17.172
			c-0.849-1.456-2.67-1.942-4.126-1.092l-9.89,5.704c-1.456,0.849-1.942,2.67-1.092,4.126l10.012,17.354
			c-4.058,3.023-7.795,6.47-11.193,10.225v34.274c0.432-1.357,0.904-2.701,1.424-4.027c2.184-5.4,5.097-10.497,8.737-15.169
			c1.517-1.881,3.095-3.701,4.854-5.461c1.578-1.578,3.216-3.034,4.976-4.429c4.611-3.701,9.648-6.735,15.048-8.919
			c4.49-1.881,9.223-3.155,14.138-3.883c3.034-0.425,6.068-0.667,9.223-0.667c2.791,0,5.582,0.182,8.313,0.546
			c5.036,0.667,9.951,2.002,14.623,3.883c5.4,2.184,10.497,5.158,15.109,8.859c1.82,1.456,3.58,3.034,5.279,4.672
			c1.699,1.699,3.277,3.459,4.733,5.279c3.701,4.611,6.614,9.708,8.798,15.109c1.82,4.551,3.094,9.284,3.823,14.138
			c0.425,2.852,0.607,5.825,0.607,8.737c0,2.791-0.182,5.704-0.607,8.616c-0.007,0.049-0.016,0.098-0.023,0.147h17.66
			c0.006-0.049,0.014-0.098,0.019-0.147h19.356c1.699,0,3.034-1.335,3.034-3.034v-11.468
			C204.963,338.852,203.628,337.517,201.929,337.517z"/>
		<path class="st6" d="M104.299,284.971c-27.367,0-50.523,17.921-58.399,42.671V353.2c0,1.2,0.9,2,2,2h13.498
			c-0.594-2.87-0.908-5.841-0.908-8.885c0-24.15,19.659-43.809,43.809-43.809s43.809,19.659,43.809,43.809
			c0,3.043-0.314,6.014-0.908,8.885h17.726c0.427-2.921,0.656-5.906,0.656-8.945C165.583,312.397,138.157,284.971,104.299,284.971z"
			/>
	</g>
	<g>
		<path class="st5" d="M454.483,282.969l9.89-17.111c0.849-1.456,0.364-3.277-1.092-4.126l-9.89-5.704
			c-1.456-0.849-3.277-0.364-4.126,1.092l-9.83,17.05c-7.281-3.216-15.169-5.4-23.482-6.25v-19.72c0-1.699-1.335-3.034-3.034-3.034
			h-11.468c-1.699,0-3.034,1.335-3.034,3.034v19.841c-8.07,0.91-15.776,3.095-22.936,6.31l-9.951-17.172
			c-0.849-1.456-2.67-1.942-4.126-1.092l-9.89,5.704c-1.456,0.849-1.942,2.67-1.092,4.126l10.012,17.354
			c-6.189,4.611-11.65,10.194-16.261,16.383l-16.929-9.769c-1.456-0.849-3.277-0.364-4.126,1.092l-5.704,9.89
			c-0.849,1.456-0.364,3.277,1.092,4.126l16.929,9.769c-3.095,7.099-5.218,14.745-6.068,22.754H310.01
			c-1.699,0-3.034,1.335-3.034,3.034v11.468c0,1.699,1.335,3.034,3.034,3.034h19.356c0.006,0.049,0.014,0.098,0.019,0.147h17.582
			c-0.001-0.009-0.003-0.017-0.005-0.026c-0.425-2.852-0.607-5.825-0.607-8.738c0-2.973,0.182-5.886,0.607-8.737
			c0.667-4.793,1.942-9.466,3.701-13.956c2.184-5.4,5.097-10.497,8.737-15.169c1.517-1.881,3.095-3.701,4.854-5.461
			c1.578-1.578,3.216-3.034,4.976-4.429c4.611-3.701,9.648-6.735,15.048-8.919c4.49-1.881,9.223-3.155,14.138-3.883
			c3.034-0.425,6.068-0.667,9.223-0.667c2.791,0,5.582,0.182,8.313,0.546c5.036,0.667,9.951,2.002,14.623,3.883
			c5.4,2.184,10.497,5.158,15.109,8.859c1.82,1.456,3.58,3.034,5.279,4.672c1.699,1.699,3.277,3.459,4.733,5.279
			c3.701,4.611,6.614,9.708,8.798,15.109c0.603,1.506,1.123,3.039,1.606,4.584v-34.622
			C462.589,289.629,458.692,286.075,454.483,282.969z"/>
		<path class="st6" d="M464.1,355.2c1.2,0,2-0.9,2-2v-25.379c-7.821-24.843-31.027-42.85-58.46-42.85
			c-33.858,0-61.284,27.426-61.284,61.284c0,3.04,0.229,6.025,0.656,8.945h17.727c-0.594-2.87-0.908-5.841-0.908-8.885
			c0-24.15,19.659-43.809,43.809-43.809s43.809,19.659,43.809,43.809c0,3.043-0.314,6.014-0.908,8.885H464.1z"/>
	</g>
</g>
</svg>
