<?xml version="1.0" encoding="UTF-8" standalone="no"?>
<!-- Generator: Adobe Illustrator 18.0.0, SVG Export Plug-In . SVG Version: 6.00 Build 0)  -->

<svg
   xmlns:dc="http://purl.org/dc/elements/1.1/"
   xmlns:cc="http://creativecommons.org/ns#"
   xmlns:rdf="http://www.w3.org/1999/02/22-rdf-syntax-ns#"
   xmlns:svg="http://www.w3.org/2000/svg"
   xmlns="http://www.w3.org/2000/svg"
   xmlns:sodipodi="http://sodipodi.sourceforge.net/DTD/sodipodi-0.dtd"
   xmlns:inkscape="http://www.inkscape.org/namespaces/inkscape"
   version="1.1"
   id="Layer_1"
   x="0px"
   y="0px"
   viewBox="0 0 512 512"
   enable-background="new 0 0 512 512"
   xml:space="preserve"
   sodipodi:docname="application-x-cd-image.svg"
   inkscape:version="0.92.3 (2405546, 2018-03-11)"><metadata
   id="metadata100"><rdf:RDF><cc:Work
       rdf:about=""><dc:format>image/svg+xml</dc:format><dc:type
         rdf:resource="http://purl.org/dc/dcmitype/StillImage" /></cc:Work></rdf:RDF></metadata><defs
   id="defs98" /><sodipodi:namedview
   pagecolor="#ffffff"
   bordercolor="#666666"
   borderopacity="1"
   objecttolerance="10"
   gridtolerance="10"
   guidetolerance="10"
   inkscape:pageopacity="0"
   inkscape:pageshadow="2"
   inkscape:window-width="1920"
   inkscape:window-height="1003"
   id="namedview96"
   showgrid="false"
   inkscape:zoom="0.65186406"
   inkscape:cx="5.6846584"
   inkscape:cy="249.86375"
   inkscape:window-x="0"
   inkscape:window-y="0"
   inkscape:window-maximized="1"
   inkscape:current-layer="Layer_1" />
<g
   id="g73">
	
	<g
   id="g32">
		<linearGradient
   id="SVGID_1_"
   gradientUnits="userSpaceOnUse"
   x1="91.025"
   y1="271.025"
   x2="305.025"
   y2="57.025">
			<stop
   offset="0"
   style="stop-color:#FFFFFF;stop-opacity:0.2"
   id="stop4" />
			<stop
   offset="1"
   style="stop-color:#FFFFFF;stop-opacity:0"
   id="stop6" />
		</linearGradient>
		
		<linearGradient
   id="SVGID_2_"
   gradientUnits="userSpaceOnUse"
   x1="239"
   y1="239"
   x2="447.125"
   y2="30.875">
			<stop
   offset="0"
   style="stop-color:#FFFFFF;stop-opacity:0.2"
   id="stop11" />
			<stop
   offset="1"
   style="stop-color:#FFFFFF;stop-opacity:0"
   id="stop13" />
		</linearGradient>
		
		<linearGradient
   id="SVGID_3_"
   gradientUnits="userSpaceOnUse"
   x1="64.875"
   y1="481.125"
   x2="273"
   y2="273">
			<stop
   offset="0"
   style="stop-color:#FFFFFF;stop-opacity:0.2"
   id="stop18" />
			<stop
   offset="1"
   style="stop-color:#FFFFFF;stop-opacity:0"
   id="stop20" />
		</linearGradient>
		
		<linearGradient
   id="SVGID_4_"
   gradientUnits="userSpaceOnUse"
   x1="236.0625"
   y1="484.0625"
   x2="450.0625"
   y2="270.0625">
			<stop
   offset="0"
   style="stop-color:#FFFFFF;stop-opacity:0.2"
   id="stop25" />
			<stop
   offset="1"
   style="stop-color:#FFFFFF;stop-opacity:0"
   id="stop27" />
		</linearGradient>
		
	</g>
	<g
   display="none"
   id="g62">
		<linearGradient
   id="SVGID_5_"
   gradientUnits="userSpaceOnUse"
   x1="76"
   y1="271.025"
   x2="256"
   y2="271.025">
			<stop
   offset="0"
   style="stop-color:#FFFFFF;stop-opacity:0.2"
   id="stop34" />
			<stop
   offset="1"
   style="stop-color:#FFFFFF;stop-opacity:0"
   id="stop36" />
		</linearGradient>
		<path
   display="inline"
   fill="url(#SVGID_5_)"
   d="M256,256L106,106l-22.5,22.5c-2.2,2.2-4,4.7-5.1,7.6c-1.5,3.3-2.3,6.9-2.3,10.6    l-0.1,5.7V436L256,256z"
   id="path39" />
		<linearGradient
   id="SVGID_6_"
   gradientUnits="userSpaceOnUse"
   x1="106.05"
   y1="132"
   x2="436"
   y2="132">
			<stop
   offset="0"
   style="stop-color:#FFFFFF;stop-opacity:0.2"
   id="stop41" />
			<stop
   offset="1"
   style="stop-color:#FFFFFF;stop-opacity:0"
   id="stop43" />
		</linearGradient>
		<path
   display="inline"
   fill="url(#SVGID_6_)"
   d="M256,256L436,76V28c0-11-9-20-20-20H219h-4.1c-3.7,0-7.3,0.8-10.6,2.3    c-2.8,1.3-5.4,2.9-7.6,5.1L106,106L256,256z"
   id="path46" />
		<linearGradient
   id="SVGID_7_"
   gradientUnits="userSpaceOnUse"
   x1="76"
   y1="380"
   x2="436"
   y2="380">
			<stop
   offset="0"
   style="stop-color:#FFFFFF;stop-opacity:0.2"
   id="stop48" />
			<stop
   offset="1"
   style="stop-color:#FFFFFF;stop-opacity:0"
   id="stop50" />
		</linearGradient>
		<path
   display="inline"
   fill="url(#SVGID_7_)"
   d="M436,484v-48L256,256L76,436v48c0,11,9,20,20,20h320C427,504,436,495,436,484z"
   id="path53" />
		<linearGradient
   id="SVGID_8_"
   gradientUnits="userSpaceOnUse"
   x1="256"
   y1="256"
   x2="436"
   y2="256">
			<stop
   offset="0"
   style="stop-color:#FFFFFF;stop-opacity:0.2"
   id="stop55" />
			<stop
   offset="1"
   style="stop-color:#FFFFFF;stop-opacity:0"
   id="stop57" />
		</linearGradient>
		<polygon
   display="inline"
   fill="url(#SVGID_8_)"
   points="436,436 436,76 256,256   "
   id="polygon60" />
	</g>
	
		<linearGradient
   id="SVGID_9_"
   gradientUnits="userSpaceOnUse"
   x1="95.8"
   y1="-70.4"
   x2="462.7"
   y2="-437.3"
   gradientTransform="matrix(0.5 0 0 0.5 0 256)">
		<stop
   offset="0"
   style="stop-color:#FFFFFF"
   id="stop64" />
		<stop
   offset="1"
   style="stop-color:#FFFFFF;stop-opacity:0"
   id="stop66" />
	</linearGradient>
	
	
</g>
<g
   id="g93"
   transform="matrix(2.6233013,0,0,2.6233013,-415.6963,-415.6963)">
	<g
   id="g79">
		<g
   enable-background="new    "
   id="g77">
			<path
   d="m 256,237.2 c -10.4,0 -18.8,8.4 -18.8,18.8 0,10.4 8.4,18.8 18.8,18.8 10.4,0 18.8,-8.4 18.8,-18.8 0,-10.4 -8.4,-18.8 -18.8,-18.8 z m 0,35.6 c -9.2,0 -16.8,-7.5 -16.8,-16.8 0,-9.3 7.5,-16.8 16.8,-16.8 9.3,0 16.8,7.5 16.8,16.8 0,9.3 -7.6,16.8 -16.8,16.8 z"
   id="path75"
   inkscape:connector-curvature="0"
   style="fill:#26bdd3;fill-opacity:1" />
		</g>
	</g>
	<g
   id="g91">
		<g
   enable-background="new    "
   id="g89">
			<g
   id="g85">
				<path
   d="m 256,217.9 c -21.1,0 -38.1,17.1 -38.1,38.1 0,21 17.1,38.1 38.1,38.1 21,0 38.1,-17.1 38.1,-38.1 0,-21.1 -17.1,-38.1 -38.1,-38.1 z m 0,73.9 c -19.7,0 -35.8,-16 -35.8,-35.8 0,-19.8 16.1,-35.8 35.8,-35.8 19.7,0 35.8,16.1 35.8,35.8 0,19.7 -16.1,35.8 -35.8,35.8 z"
   id="path81"
   inkscape:connector-curvature="0"
   style="fill:#ffffff" />
				<path
   d="m 319.8,192.2 c -17,-17.1 -39.7,-26.4 -63.8,-26.4 -24.1,0 -46.8,9.4 -63.8,26.4 -17.1,17.1 -26.4,39.7 -26.4,63.8 0,24.1 9.4,46.8 26.4,63.8 17.1,17 39.7,26.5 63.8,26.5 24.1,0 46.8,-9.4 63.8,-26.5 17,-17 26.5,-39.7 26.5,-63.8 -0.1,-24.1 -9.4,-46.8 -26.5,-63.8 z m -1.7,125.9 c -16.6,16.6 -38.6,25.8 -62.1,25.8 -23.5,0 -45.6,-9.1 -62.1,-25.8 -16.6,-16.6 -25.8,-38.6 -25.8,-62.1 0,-23.5 9.1,-45.6 25.8,-62.1 16.6,-16.6 38.6,-25.8 62.1,-25.8 23.5,0 45.5,9.1 62.1,25.8 16.6,16.6 25.8,38.6 25.8,62.1 0,23.5 -9.1,45.5 -25.8,62.1 z"
   id="path83"
   inkscape:connector-curvature="0"
   style="fill:#ffffff" />
			</g>
			<path
   d="m 318.1,193.9 c -16.6,-16.6 -38.6,-25.8 -62.1,-25.8 -23.5,0 -45.6,9.1 -62.1,25.8 -16.6,16.6 -25.8,38.6 -25.8,62.1 0,23.5 9.1,45.5 25.8,62.1 16.6,16.6 38.6,25.8 62.1,25.8 23.5,0 45.5,-9.1 62.1,-25.8 16.6,-16.6 25.8,-38.6 25.8,-62.1 0,-23.5 -9.1,-45.6 -25.8,-62.1 z M 256,294.1 c -21.1,0 -38.1,-17.1 -38.1,-38.1 0,-21.1 17.1,-38.1 38.1,-38.1 21,0 38.1,17.1 38.1,38.1 0,21 -17.1,38.1 -38.1,38.1 z"
   id="path87"
   style="fill:#26bdd3;fill-opacity:1"
   inkscape:connector-curvature="0" />
		</g>
	</g>
</g>
</svg>