<?xml version="1.0" encoding="utf-8"?>
<!-- Generator: Adobe Illustrator 22.0.1, SVG Export Plug-In . SVG Version: 6.00 Build 0)  -->
<svg version="1.1" id="Layer_1" xmlns="http://www.w3.org/2000/svg" xmlns:xlink="http://www.w3.org/1999/xlink" x="0px" y="0px"
	 viewBox="0 0 512 512" style="enable-background:new 0 0 512 512;" xml:space="preserve">
<style type="text/css">
	.st0{fill:none;}
	.st1{fill:#BEBEBE;}
</style>
<g>
	<path class="st0" d="M277.7,350.3v7.3c55.7-10.2,98.1-59.2,98.1-117.8c0-26.3-8.5-50.6-22.8-70.3v86.3
		C353,301.8,320.7,340.4,277.7,350.3z"/>
	<path class="st0" d="M352.9,156.4c19.3,22.4,31,51.5,31,83.3c0,63.2-46,115.8-106.2,126.1v20.6c71.5-10.6,126.6-72.3,126.6-146.7
		c0-44.8-20-85-51.6-112.2c0.1,2.1,0.2,4.2,0.2,6.3V156.4z"/>
	<path class="st0" d="M128,239.7c0-31.9,11.7-61,31-83.4v-22.6c0-2.1,0.1-4.2,0.2-6.3c-31.5,27.2-51.5,67.5-51.5,112.3
		c0,74.4,55.1,136.2,126.5,146.7v-20.6C174,355.4,128,302.8,128,239.7z"/>
	<path class="st0" d="M159,255.8v-86.3c-14.3,19.8-22.8,44.1-22.8,70.3c0,58.6,42.4,107.6,98.1,117.8v-7.3
		C191.3,340.4,159,301.8,159,255.8z"/>
	<path class="st0" d="M344.8,255.7v-96.3v-11.7v-14c0-4.6-0.3-9-1-13.4c-0.6-4-1.5-7.9-2.6-11.7c-10.9-36.8-44.9-63.7-85.2-63.7
		s-74.3,26.9-85.2,63.7c-1.1,3.8-2,7.7-2.6,11.7c-0.7,4.4-1,8.9-1,13.4v14v11.7v96.3c0,49,39.8,88.8,88.8,88.8
		C305,344.5,344.8,304.7,344.8,255.7z"/>
	<path class="st1" d="M412.4,239.7c0-50.4-24-95.3-61.1-123.9c-8.4-44.9-47.9-79-95.3-79c-47.3,0-86.8,34.1-95.3,79
		c-37.1,28.6-61.1,73.5-61.1,123.9c0,78.9,58.7,144.3,134.7,154.9v18.6c-8,6.4-13.1,16.2-13.1,27.2c0,19.2,15.6,34.8,34.8,34.8
		s34.8-15.6,34.8-34.8c0-11-5.1-20.8-13.1-27.2v-18.6C353.7,384,412.4,318.6,412.4,239.7z M404.3,239.7
		c0,74.4-55.1,136.1-126.6,146.7v-20.6c60.2-10.3,106.2-62.9,106.2-126.1c0-31.8-11.7-60.9-31-83.3v-22.6c0-2.1-0.1-4.2-0.2-6.3
		C384.3,154.7,404.3,194.9,404.3,239.7z M353,255.8v-86.3c14.3,19.7,22.8,44,22.8,70.3c0,58.6-42.4,107.6-98.1,117.8v-7.3
		C320.7,340.4,353,301.8,353,255.8z M234.2,386.4c-71.4-10.5-126.5-72.3-126.5-146.7c0-44.8,20-85.1,51.5-112.3
		c-0.1,2.1-0.2,4.2-0.2,6.3v22.6c-19.3,22.4-31,51.5-31,83.4c0,63.1,46,115.7,106.2,126.1V386.4z M234.3,357.6
		c-55.7-10.2-98.1-59.2-98.1-117.8c0-26.2,8.5-50.5,22.8-70.3v86.3c0,46,32.3,84.6,75.3,94.5V357.6z M167.2,187v-27.6v-11.7v-14
		c0-4.5,0.3-9,1-13.4c0.6-4,1.5-7.9,2.6-11.7c10.9-36.8,44.9-63.7,85.2-63.7s74.3,26.9,85.2,63.7c1.1,3.8,2,7.7,2.6,11.7
		c0.7,4.4,1,8.8,1,13.4v14v11.7V187C344.8,236,167.2,236,167.2,187z"/>
</g>
</svg>
