<?xml version="1.0" encoding="UTF-8" standalone="no"?>
<!-- Generator: Adobe Illustrator 18.0.0, SVG Export Plug-In . SVG Version: 6.00 Build 0)  -->

<svg
   xmlns:dc="http://purl.org/dc/elements/1.1/"
   xmlns:cc="http://creativecommons.org/ns#"
   xmlns:rdf="http://www.w3.org/1999/02/22-rdf-syntax-ns#"
   xmlns:svg="http://www.w3.org/2000/svg"
   xmlns="http://www.w3.org/2000/svg"
   xmlns:sodipodi="http://sodipodi.sourceforge.net/DTD/sodipodi-0.dtd"
   xmlns:inkscape="http://www.inkscape.org/namespaces/inkscape"
   version="1.1"
   x="0px"
   y="0px"
   viewBox="0 0 512 512"
   enable-background="new 0 0 512 512"
   xml:space="preserve"
   id="svg198"
   sodipodi:docname="audio-card.svg"
   inkscape:version="0.92.3 (2405546, 2018-03-11)"><metadata
   id="metadata204"><rdf:RDF><cc:Work
       rdf:about=""><dc:format>image/svg+xml</dc:format><dc:type
         rdf:resource="http://purl.org/dc/dcmitype/StillImage" /></cc:Work></rdf:RDF></metadata><defs
   id="defs202" /><sodipodi:namedview
   pagecolor="#ffffff"
   bordercolor="#666666"
   borderopacity="1"
   objecttolerance="10"
   gridtolerance="10"
   guidetolerance="10"
   inkscape:pageopacity="0"
   inkscape:pageshadow="2"
   inkscape:window-width="1920"
   inkscape:window-height="1002"
   id="namedview200"
   showgrid="false"
   inkscape:zoom="0.4609375"
   inkscape:cx="225.62712"
   inkscape:cy="256"
   inkscape:window-x="0"
   inkscape:window-y="0"
   inkscape:window-maximized="1"
   inkscape:current-layer="svg198" />
<g
   id="Layer_3">
	<g
   id="g35">
		<g
   opacity="0.4"
   enable-background="new    "
   id="g11">
			
				<radialGradient
   id="SVGID_1_"
   cx="1.0125"
   cy="515"
   r="118.8609"
   gradientTransform="matrix(2 0 0 -2 254 1286)"
   gradientUnits="userSpaceOnUse">
				<stop
   offset="0"
   style="stop-color:#020202"
   id="stop2" />
				<stop
   offset="0.8587"
   style="stop-color:#020202;stop-opacity:0.1413"
   id="stop4" />
				<stop
   offset="1"
   style="stop-color:#020202;stop-opacity:0"
   id="stop6" />
			</radialGradient>
			
		</g>
		<g
   opacity="0.4"
   enable-background="new    "
   id="g22">
			
				<radialGradient
   id="SVGID_2_"
   cx="2.0286"
   cy="516.0684"
   r="133.1551"
   gradientTransform="matrix(1.4138 -1.4146 -0.979 -0.9784 758.388 763.7472)"
   gradientUnits="userSpaceOnUse">
				<stop
   offset="0"
   style="stop-color:#020202"
   id="stop13" />
				<stop
   offset="0.8587"
   style="stop-color:#020202;stop-opacity:0.1413"
   id="stop15" />
				<stop
   offset="1"
   style="stop-color:#020202;stop-opacity:0"
   id="stop17" />
			</radialGradient>
			
		</g>
		<g
   opacity="0.4"
   enable-background="new    "
   id="g33">
			
				<radialGradient
   id="SVGID_3_"
   cx="3.4424"
   cy="513.9732"
   r="133.1784"
   gradientTransform="matrix(-1.4138 -1.4146 0.979 -0.9784 -242.3879 763.7472)"
   gradientUnits="userSpaceOnUse">
				<stop
   offset="0"
   style="stop-color:#020202"
   id="stop24" />
				<stop
   offset="0.8587"
   style="stop-color:#020202;stop-opacity:0.1413"
   id="stop26" />
				<stop
   offset="1"
   style="stop-color:#020202;stop-opacity:0"
   id="stop28" />
			</radialGradient>
			
		</g>
	</g>
	<radialGradient
   id="SVGID_4_"
   cx="256"
   cy="256"
   r="230"
   gradientUnits="userSpaceOnUse">
		<stop
   offset="0"
   style="stop-color:#72D0F6"
   id="stop37" />
		<stop
   offset="1"
   style="stop-color:#006D7D"
   id="stop39" />
	</radialGradient>
	
</g>
<g
   id="Layer_2"
   style="fill:#008000"
   transform="matrix(1.9491525,0,0,1.9491525,-242.98304,-243.0805)">
	<g
   id="g193"
   style="fill:#008000">
		<g
   id="g117"
   style="fill:#008000">
			<g
   id="g79"
   style="fill:#008000">
				<path
   d="m 172.1,203.3 h -31.9 c -1.2,0 -2.2,-1 -2.2,-2.2 0,-1.2 1,-2.2 2.2,-2.2 h 31.9 c 1.2,0 2.2,1 2.2,2.2 0.1,1.2 -0.9,2.2 -2.2,2.2 z"
   id="path45"
   style="fill:#008000"
   inkscape:connector-curvature="0" />
				<path
   d="m 172.1,210.2 h -31.9 c -1.2,0 -2.2,-1 -2.2,-2.2 0,-1.2 1,-2.2 2.2,-2.2 h 31.9 c 1.2,0 2.2,1 2.2,2.2 0.1,1.2 -0.9,2.2 -2.2,2.2 z"
   id="path47"
   style="fill:#008000"
   inkscape:connector-curvature="0" />
				<path
   d="m 172.1,217 h -31.9 c -1.2,0 -2.2,-1 -2.2,-2.2 0,-1.2 1,-2.2 2.2,-2.2 h 31.9 c 1.2,0 2.2,1 2.2,2.2 0.1,1.2 -0.9,2.2 -2.2,2.2 z"
   id="path49"
   style="fill:#008000"
   inkscape:connector-curvature="0" />
				<path
   d="m 172.1,223.9 h -31.9 c -1.2,0 -2.2,-1 -2.2,-2.2 0,-1.2 1,-2.2 2.2,-2.2 h 31.9 c 1.2,0 2.2,1 2.2,2.2 0,1.2 -0.9,2.2 -2.2,2.2 z"
   id="path51"
   style="fill:#008000"
   inkscape:connector-curvature="0" />
				<path
   d="m 172.1,230.8 h -31.9 c -1.2,0 -2.2,-1 -2.2,-2.2 0,-1.2 1,-2.2 2.2,-2.2 h 31.9 c 1.2,0 2.2,1 2.2,2.2 0,1.2 -0.9,2.2 -2.2,2.2 z"
   id="path53"
   style="fill:#008000"
   inkscape:connector-curvature="0" />
				<path
   d="m 172.1,237.6 h -31.9 c -1.2,0 -2.2,-1 -2.2,-2.2 0,-1.2 1,-2.2 2.2,-2.2 h 31.9 c 1.2,0 2.2,1 2.2,2.2 0.1,1.2 -0.9,2.2 -2.2,2.2 z"
   id="path55"
   style="fill:#008000"
   inkscape:connector-curvature="0" />
				<path
   d="m 172.1,244.5 h -31.9 c -1.2,0 -2.2,-1 -2.2,-2.2 0,-1.2 1,-2.2 2.2,-2.2 h 31.9 c 1.2,0 2.2,1 2.2,2.2 0.1,1.2 -0.9,2.2 -2.2,2.2 z"
   id="path57"
   style="fill:#008000"
   inkscape:connector-curvature="0" />
				<path
   d="m 172.1,251.4 h -31.9 c -1.2,0 -2.2,-1 -2.2,-2.2 0,-1.2 1,-2.2 2.2,-2.2 h 31.9 c 1.2,0 2.2,1 2.2,2.2 0.1,1.2 -0.9,2.2 -2.2,2.2 z"
   id="path59"
   style="fill:#008000"
   inkscape:connector-curvature="0" />
				<path
   d="m 172.1,258.2 h -31.9 c -1.2,0 -2.2,-1 -2.2,-2.2 0,-1.2 1,-2.2 2.2,-2.2 h 31.9 c 1.2,0 2.2,1 2.2,2.2 0,1.2 -0.9,2.2 -2.2,2.2 z"
   id="path61"
   style="fill:#008000"
   inkscape:connector-curvature="0" />
				<path
   d="m 172.1,265.1 h -31.9 c -1.2,0 -2.2,-1 -2.2,-2.2 0,-1.2 1,-2.2 2.2,-2.2 h 31.9 c 1.2,0 2.2,1 2.2,2.2 0,1.2 -0.9,2.2 -2.2,2.2 z"
   id="path63"
   style="fill:#008000"
   inkscape:connector-curvature="0" />
				<path
   d="m 172.1,272 h -31.9 c -1.2,0 -2.2,-1 -2.2,-2.2 0,-1.2 1,-2.2 2.2,-2.2 h 31.9 c 1.2,0 2.2,1 2.2,2.2 0.1,1.2 -0.9,2.2 -2.2,2.2 z"
   id="path65"
   style="fill:#008000"
   inkscape:connector-curvature="0" />
				<path
   d="m 172.1,278.8 h -31.9 c -1.2,0 -2.2,-1 -2.2,-2.2 0,-1.2 1,-2.2 2.2,-2.2 h 31.9 c 1.2,0 2.2,1 2.2,2.2 0.1,1.2 -0.9,2.2 -2.2,2.2 z"
   id="path67"
   style="fill:#008000"
   inkscape:connector-curvature="0" />
				<path
   d="m 172.1,285.7 h -31.9 c -1.2,0 -2.2,-1 -2.2,-2.2 0,-1.2 1,-2.2 2.2,-2.2 h 31.9 c 1.2,0 2.2,1 2.2,2.2 0.1,1.2 -0.9,2.2 -2.2,2.2 z"
   id="path69"
   style="fill:#008000"
   inkscape:connector-curvature="0" />
				<path
   d="m 172.1,292.5 h -31.9 c -1.2,0 -2.2,-1 -2.2,-2.2 0,-1.2 1,-2.2 2.2,-2.2 h 31.9 c 1.2,0 2.2,1 2.2,2.2 0.1,1.3 -0.9,2.2 -2.2,2.2 z"
   id="path71"
   style="fill:#008000"
   inkscape:connector-curvature="0" />
				<path
   d="m 172.1,299.4 h -31.9 c -1.2,0 -2.2,-1 -2.2,-2.2 0,-1.2 1,-2.2 2.2,-2.2 h 31.9 c 1.2,0 2.2,1 2.2,2.2 0.1,1.2 -0.9,2.2 -2.2,2.2 z"
   id="path73"
   style="fill:#008000"
   inkscape:connector-curvature="0" />
				<path
   d="m 172.1,306.3 h -31.9 c -1.2,0 -2.2,-1 -2.2,-2.2 0,-1.2 1,-2.2 2.2,-2.2 h 31.9 c 1.2,0 2.2,1 2.2,2.2 0.1,1.2 -0.9,2.2 -2.2,2.2 z"
   id="path75"
   style="fill:#008000"
   inkscape:connector-curvature="0" />
				<path
   d="m 172.1,313.1 h -31.9 c -1.2,0 -2.2,-1 -2.2,-2.2 0,-1.2 1,-2.2 2.2,-2.2 h 31.9 c 1.2,0 2.2,1 2.2,2.2 0,1.2 -0.9,2.2 -2.2,2.2 z"
   id="path77"
   style="fill:#008000"
   inkscape:connector-curvature="0" />
			</g>
			<g
   id="g115"
   style="fill:#008000">
				<path
   d="m 371.8,203.3 h -31.9 c -1.2,0 -2.2,-1 -2.2,-2.2 0,-1.2 1,-2.2 2.2,-2.2 h 31.9 c 1.2,0 2.2,1 2.2,2.2 0,1.2 -1,2.2 -2.2,2.2 z"
   id="path81"
   style="fill:#008000"
   inkscape:connector-curvature="0" />
				<path
   d="m 371.8,210.2 h -31.9 c -1.2,0 -2.2,-1 -2.2,-2.2 0,-1.2 1,-2.2 2.2,-2.2 h 31.9 c 1.2,0 2.2,1 2.2,2.2 0,1.2 -1,2.2 -2.2,2.2 z"
   id="path83"
   style="fill:#008000"
   inkscape:connector-curvature="0" />
				<path
   d="m 371.8,217 h -31.9 c -1.2,0 -2.2,-1 -2.2,-2.2 0,-1.2 1,-2.2 2.2,-2.2 h 31.9 c 1.2,0 2.2,1 2.2,2.2 0,1.2 -1,2.2 -2.2,2.2 z"
   id="path85"
   style="fill:#008000"
   inkscape:connector-curvature="0" />
				<path
   d="m 371.8,223.9 h -31.9 c -1.2,0 -2.2,-1 -2.2,-2.2 0,-1.2 1,-2.2 2.2,-2.2 h 31.9 c 1.2,0 2.2,1 2.2,2.2 0,1.2 -1,2.2 -2.2,2.2 z"
   id="path87"
   style="fill:#008000"
   inkscape:connector-curvature="0" />
				<path
   d="m 371.8,230.8 h -31.9 c -1.2,0 -2.2,-1 -2.2,-2.2 0,-1.2 1,-2.2 2.2,-2.2 h 31.9 c 1.2,0 2.2,1 2.2,2.2 0,1.2 -1,2.2 -2.2,2.2 z"
   id="path89"
   style="fill:#008000"
   inkscape:connector-curvature="0" />
				<path
   d="m 371.8,237.6 h -31.9 c -1.2,0 -2.2,-1 -2.2,-2.2 0,-1.2 1,-2.2 2.2,-2.2 h 31.9 c 1.2,0 2.2,1 2.2,2.2 0,1.2 -1,2.2 -2.2,2.2 z"
   id="path91"
   style="fill:#008000"
   inkscape:connector-curvature="0" />
				<path
   d="m 371.8,244.5 h -31.9 c -1.2,0 -2.2,-1 -2.2,-2.2 0,-1.2 1,-2.2 2.2,-2.2 h 31.9 c 1.2,0 2.2,1 2.2,2.2 0,1.2 -1,2.2 -2.2,2.2 z"
   id="path93"
   style="fill:#008000"
   inkscape:connector-curvature="0" />
				<path
   d="m 371.8,251.4 h -31.9 c -1.2,0 -2.2,-1 -2.2,-2.2 0,-1.2 1,-2.2 2.2,-2.2 h 31.9 c 1.2,0 2.2,1 2.2,2.2 0,1.2 -1,2.2 -2.2,2.2 z"
   id="path95"
   style="fill:#008000"
   inkscape:connector-curvature="0" />
				<path
   d="m 371.8,258.2 h -31.9 c -1.2,0 -2.2,-1 -2.2,-2.2 0,-1.2 1,-2.2 2.2,-2.2 h 31.9 c 1.2,0 2.2,1 2.2,2.2 0,1.2 -1,2.2 -2.2,2.2 z"
   id="path97"
   style="fill:#008000"
   inkscape:connector-curvature="0" />
				<path
   d="m 371.8,265.1 h -31.9 c -1.2,0 -2.2,-1 -2.2,-2.2 0,-1.2 1,-2.2 2.2,-2.2 h 31.9 c 1.2,0 2.2,1 2.2,2.2 0,1.2 -1,2.2 -2.2,2.2 z"
   id="path99"
   style="fill:#008000"
   inkscape:connector-curvature="0" />
				<path
   d="m 371.8,272 h -31.9 c -1.2,0 -2.2,-1 -2.2,-2.2 0,-1.2 1,-2.2 2.2,-2.2 h 31.9 c 1.2,0 2.2,1 2.2,2.2 0,1.2 -1,2.2 -2.2,2.2 z"
   id="path101"
   style="fill:#008000"
   inkscape:connector-curvature="0" />
				<path
   d="m 371.8,278.8 h -31.9 c -1.2,0 -2.2,-1 -2.2,-2.2 0,-1.2 1,-2.2 2.2,-2.2 h 31.9 c 1.2,0 2.2,1 2.2,2.2 0,1.2 -1,2.2 -2.2,2.2 z"
   id="path103"
   style="fill:#008000"
   inkscape:connector-curvature="0" />
				<path
   d="m 371.8,285.7 h -31.9 c -1.2,0 -2.2,-1 -2.2,-2.2 0,-1.2 1,-2.2 2.2,-2.2 h 31.9 c 1.2,0 2.2,1 2.2,2.2 0,1.2 -1,2.2 -2.2,2.2 z"
   id="path105"
   style="fill:#008000"
   inkscape:connector-curvature="0" />
				<path
   d="m 371.8,292.5 h -31.9 c -1.2,0 -2.2,-1 -2.2,-2.2 0,-1.2 1,-2.2 2.2,-2.2 h 31.9 c 1.2,0 2.2,1 2.2,2.2 0,1.3 -1,2.2 -2.2,2.2 z"
   id="path107"
   style="fill:#008000"
   inkscape:connector-curvature="0" />
				<path
   d="m 371.8,299.4 h -31.9 c -1.2,0 -2.2,-1 -2.2,-2.2 0,-1.2 1,-2.2 2.2,-2.2 h 31.9 c 1.2,0 2.2,1 2.2,2.2 0,1.2 -1,2.2 -2.2,2.2 z"
   id="path109"
   style="fill:#008000"
   inkscape:connector-curvature="0" />
				<path
   d="m 371.8,306.3 h -31.9 c -1.2,0 -2.2,-1 -2.2,-2.2 0,-1.2 1,-2.2 2.2,-2.2 h 31.9 c 1.2,0 2.2,1 2.2,2.2 0,1.2 -1,2.2 -2.2,2.2 z"
   id="path111"
   style="fill:#008000"
   inkscape:connector-curvature="0" />
				<path
   d="m 371.8,313.1 h -31.9 c -1.2,0 -2.2,-1 -2.2,-2.2 0,-1.2 1,-2.2 2.2,-2.2 h 31.9 c 1.2,0 2.2,1 2.2,2.2 0,1.2 -1,2.2 -2.2,2.2 z"
   id="path113"
   style="fill:#008000"
   inkscape:connector-curvature="0" />
			</g>
		</g>
		<g
   id="g191"
   style="fill:#008000">
			<g
   id="g153"
   style="fill:#008000">
				<path
   d="m 201.1,374 c -1.2,0 -2.2,-1 -2.2,-2.2 v -31.9 c 0,-1.2 1,-2.2 2.2,-2.2 1.2,0 2.2,1 2.2,2.2 v 31.9 c 0,1.2 -1,2.2 -2.2,2.2 z"
   id="path119"
   style="fill:#008000"
   inkscape:connector-curvature="0" />
				<path
   d="m 207.9,374 c -1.2,0 -2.2,-1 -2.2,-2.2 v -31.9 c 0,-1.2 1,-2.2 2.2,-2.2 1.2,0 2.2,1 2.2,2.2 v 31.9 c 0.1,1.2 -0.9,2.2 -2.2,2.2 z"
   id="path121"
   style="fill:#008000"
   inkscape:connector-curvature="0" />
				<path
   d="m 214.8,374 c -1.2,0 -2.2,-1 -2.2,-2.2 v -31.9 c 0,-1.2 1,-2.2 2.2,-2.2 1.2,0 2.2,1 2.2,2.2 v 31.9 c 0,1.2 -1,2.2 -2.2,2.2 z"
   id="path123"
   style="fill:#008000"
   inkscape:connector-curvature="0" />
				<path
   d="m 221.7,374 c -1.2,0 -2.2,-1 -2.2,-2.2 v -31.9 c 0,-1.2 1,-2.2 2.2,-2.2 1.2,0 2.2,1 2.2,2.2 v 31.9 c 0,1.2 -1,2.2 -2.2,2.2 z"
   id="path125"
   style="fill:#008000"
   inkscape:connector-curvature="0" />
				<path
   d="m 228.5,374 c -1.2,0 -2.2,-1 -2.2,-2.2 v -31.9 c 0,-1.2 1,-2.2 2.2,-2.2 1.2,0 2.2,1 2.2,2.2 v 31.9 c 0.1,1.2 -0.9,2.2 -2.2,2.2 z"
   id="path127"
   style="fill:#008000"
   inkscape:connector-curvature="0" />
				<path
   d="m 235.4,374 c -1.2,0 -2.2,-1 -2.2,-2.2 v -31.9 c 0,-1.2 1,-2.2 2.2,-2.2 1.2,0 2.2,1 2.2,2.2 v 31.9 c 0,1.2 -1,2.2 -2.2,2.2 z"
   id="path129"
   style="fill:#008000"
   inkscape:connector-curvature="0" />
				<path
   d="m 242.3,374 c -1.2,0 -2.2,-1 -2.2,-2.2 v -31.9 c 0,-1.2 1,-2.2 2.2,-2.2 1.2,0 2.2,1 2.2,2.2 v 31.9 c 0,1.2 -1,2.2 -2.2,2.2 z"
   id="path131"
   style="fill:#008000"
   inkscape:connector-curvature="0" />
				<path
   d="m 249.1,374 c -1.2,0 -2.2,-1 -2.2,-2.2 v -31.9 c 0,-1.2 1,-2.2 2.2,-2.2 1.2,0 2.2,1 2.2,2.2 v 31.9 c 0.1,1.2 -0.9,2.2 -2.2,2.2 z"
   id="path133"
   style="fill:#008000"
   inkscape:connector-curvature="0" />
				<path
   d="m 256,374 c -1.2,0 -2.2,-1 -2.2,-2.2 v -31.9 c 0,-1.2 1,-2.2 2.2,-2.2 1.2,0 2.2,1 2.2,2.2 v 31.9 c 0,1.2 -1,2.2 -2.2,2.2 z"
   id="path135"
   style="fill:#008000"
   inkscape:connector-curvature="0" />
				<path
   d="m 262.9,374 c -1.2,0 -2.2,-1 -2.2,-2.2 v -31.9 c 0,-1.2 1,-2.2 2.2,-2.2 1.2,0 2.2,1 2.2,2.2 v 31.9 c 0,1.2 -1,2.2 -2.2,2.2 z"
   id="path137"
   style="fill:#008000"
   inkscape:connector-curvature="0" />
				<path
   d="m 269.7,374 c -1.2,0 -2.2,-1 -2.2,-2.2 v -31.9 c 0,-1.2 1,-2.2 2.2,-2.2 1.2,0 2.2,1 2.2,2.2 v 31.9 c 0.1,1.2 -0.9,2.2 -2.2,2.2 z"
   id="path139"
   style="fill:#008000"
   inkscape:connector-curvature="0" />
				<path
   d="m 276.6,374 c -1.2,0 -2.2,-1 -2.2,-2.2 v -31.9 c 0,-1.2 1,-2.2 2.2,-2.2 1.2,0 2.2,1 2.2,2.2 v 31.9 c 0,1.2 -1,2.2 -2.2,2.2 z"
   id="path141"
   style="fill:#008000"
   inkscape:connector-curvature="0" />
				<path
   d="m 283.5,374 c -1.2,0 -2.2,-1 -2.2,-2.2 v -31.9 c 0,-1.2 1,-2.2 2.2,-2.2 1.2,0 2.2,1 2.2,2.2 v 31.9 c 0,1.2 -1,2.2 -2.2,2.2 z"
   id="path143"
   style="fill:#008000"
   inkscape:connector-curvature="0" />
				<path
   d="m 290.3,374 c -1.2,0 -2.2,-1 -2.2,-2.2 v -31.9 c 0,-1.2 1,-2.2 2.2,-2.2 1.2,0 2.2,1 2.2,2.2 v 31.9 c 0,1.2 -0.9,2.2 -2.2,2.2 z"
   id="path145"
   style="fill:#008000"
   inkscape:connector-curvature="0" />
				<path
   d="m 297.2,374 c -1.2,0 -2.2,-1 -2.2,-2.2 v -31.9 c 0,-1.2 1,-2.2 2.2,-2.2 1.2,0 2.2,1 2.2,2.2 v 31.9 c 0,1.2 -1,2.2 -2.2,2.2 z"
   id="path147"
   style="fill:#008000"
   inkscape:connector-curvature="0" />
				<path
   d="m 304.1,374 c -1.2,0 -2.2,-1 -2.2,-2.2 v -31.9 c 0,-1.2 1,-2.2 2.2,-2.2 1.2,0 2.2,1 2.2,2.2 v 31.9 c 0,1.2 -1,2.2 -2.2,2.2 z"
   id="path149"
   style="fill:#008000"
   inkscape:connector-curvature="0" />
				<path
   d="m 310.9,374 c -1.2,0 -2.2,-1 -2.2,-2.2 v -31.9 c 0,-1.2 1,-2.2 2.2,-2.2 1.2,0 2.2,1 2.2,2.2 v 31.9 c 0,1.2 -1,2.2 -2.2,2.2 z"
   id="path151"
   style="fill:#008000"
   inkscape:connector-curvature="0" />
			</g>
			<g
   id="g189"
   style="fill:#008000">
				<path
   d="m 201.1,174.4 c -1.2,0 -2.2,-1 -2.2,-2.2 v -31.9 c 0,-1.2 1,-2.2 2.2,-2.2 1.2,0 2.2,1 2.2,2.2 v 31.9 c 0,1.2 -1,2.2 -2.2,2.2 z"
   id="path155"
   style="fill:#008000"
   inkscape:connector-curvature="0" />
				<path
   d="m 207.9,174.4 c -1.2,0 -2.2,-1 -2.2,-2.2 v -31.9 c 0,-1.2 1,-2.2 2.2,-2.2 1.2,0 2.2,1 2.2,2.2 v 31.9 c 0.1,1.2 -0.9,2.2 -2.2,2.2 z"
   id="path157"
   style="fill:#008000"
   inkscape:connector-curvature="0" />
				<path
   d="m 214.8,174.4 c -1.2,0 -2.2,-1 -2.2,-2.2 v -31.9 c 0,-1.2 1,-2.2 2.2,-2.2 1.2,0 2.2,1 2.2,2.2 v 31.9 c 0,1.2 -1,2.2 -2.2,2.2 z"
   id="path159"
   style="fill:#008000"
   inkscape:connector-curvature="0" />
				<path
   d="m 221.7,174.4 c -1.2,0 -2.2,-1 -2.2,-2.2 v -31.9 c 0,-1.2 1,-2.2 2.2,-2.2 1.2,0 2.2,1 2.2,2.2 v 31.9 c 0,1.2 -1,2.2 -2.2,2.2 z"
   id="path161"
   style="fill:#008000"
   inkscape:connector-curvature="0" />
				<path
   d="m 228.5,174.4 c -1.2,0 -2.2,-1 -2.2,-2.2 v -31.9 c 0,-1.2 1,-2.2 2.2,-2.2 1.2,0 2.2,1 2.2,2.2 v 31.9 c 0.1,1.2 -0.9,2.2 -2.2,2.2 z"
   id="path163"
   style="fill:#008000"
   inkscape:connector-curvature="0" />
				<path
   d="m 235.4,174.4 c -1.2,0 -2.2,-1 -2.2,-2.2 v -31.9 c 0,-1.2 1,-2.2 2.2,-2.2 1.2,0 2.2,1 2.2,2.2 v 31.9 c 0,1.2 -1,2.2 -2.2,2.2 z"
   id="path165"
   style="fill:#008000"
   inkscape:connector-curvature="0" />
				<path
   d="m 242.3,174.4 c -1.2,0 -2.2,-1 -2.2,-2.2 v -31.9 c 0,-1.2 1,-2.2 2.2,-2.2 1.2,0 2.2,1 2.2,2.2 v 31.9 c 0,1.2 -1,2.2 -2.2,2.2 z"
   id="path167"
   style="fill:#008000"
   inkscape:connector-curvature="0" />
				<path
   d="m 249.1,174.4 c -1.2,0 -2.2,-1 -2.2,-2.2 v -31.9 c 0,-1.2 1,-2.2 2.2,-2.2 1.2,0 2.2,1 2.2,2.2 v 31.9 c 0.1,1.2 -0.9,2.2 -2.2,2.2 z"
   id="path169"
   style="fill:#008000"
   inkscape:connector-curvature="0" />
				<path
   d="m 256,174.4 c -1.2,0 -2.2,-1 -2.2,-2.2 v -31.9 c 0,-1.2 1,-2.2 2.2,-2.2 1.2,0 2.2,1 2.2,2.2 v 31.9 c 0,1.2 -1,2.2 -2.2,2.2 z"
   id="path171"
   style="fill:#008000"
   inkscape:connector-curvature="0" />
				<path
   d="m 262.9,174.4 c -1.2,0 -2.2,-1 -2.2,-2.2 v -31.9 c 0,-1.2 1,-2.2 2.2,-2.2 1.2,0 2.2,1 2.2,2.2 v 31.9 c 0,1.2 -1,2.2 -2.2,2.2 z"
   id="path173"
   style="fill:#008000"
   inkscape:connector-curvature="0" />
				<path
   d="m 269.7,174.4 c -1.2,0 -2.2,-1 -2.2,-2.2 v -31.9 c 0,-1.2 1,-2.2 2.2,-2.2 1.2,0 2.2,1 2.2,2.2 v 31.9 c 0.1,1.2 -0.9,2.2 -2.2,2.2 z"
   id="path175"
   style="fill:#008000"
   inkscape:connector-curvature="0" />
				<path
   d="m 276.6,174.4 c -1.2,0 -2.2,-1 -2.2,-2.2 v -31.9 c 0,-1.2 1,-2.2 2.2,-2.2 1.2,0 2.2,1 2.2,2.2 v 31.9 c 0,1.2 -1,2.2 -2.2,2.2 z"
   id="path177"
   style="fill:#008000"
   inkscape:connector-curvature="0" />
				<path
   d="m 283.5,174.4 c -1.2,0 -2.2,-1 -2.2,-2.2 v -31.9 c 0,-1.2 1,-2.2 2.2,-2.2 1.2,0 2.2,1 2.2,2.2 v 31.9 c 0,1.2 -1,2.2 -2.2,2.2 z"
   id="path179"
   style="fill:#008000"
   inkscape:connector-curvature="0" />
				<path
   d="m 290.3,174.4 c -1.2,0 -2.2,-1 -2.2,-2.2 v -31.9 c 0,-1.2 1,-2.2 2.2,-2.2 1.2,0 2.2,1 2.2,2.2 v 31.9 c 0,1.2 -0.9,2.2 -2.2,2.2 z"
   id="path181"
   style="fill:#008000"
   inkscape:connector-curvature="0" />
				<path
   d="m 297.2,174.4 c -1.2,0 -2.2,-1 -2.2,-2.2 v -31.9 c 0,-1.2 1,-2.2 2.2,-2.2 1.2,0 2.2,1 2.2,2.2 v 31.9 c 0,1.2 -1,2.2 -2.2,2.2 z"
   id="path183"
   style="fill:#008000"
   inkscape:connector-curvature="0" />
				<path
   d="m 304.1,174.4 c -1.2,0 -2.2,-1 -2.2,-2.2 v -31.9 c 0,-1.2 1,-2.2 2.2,-2.2 1.2,0 2.2,1 2.2,2.2 v 31.9 c 0,1.2 -1,2.2 -2.2,2.2 z"
   id="path185"
   style="fill:#008000"
   inkscape:connector-curvature="0" />
				<path
   d="m 310.9,174.4 c -1.2,0 -2.2,-1 -2.2,-2.2 v -31.9 c 0,-1.2 1,-2.2 2.2,-2.2 1.2,0 2.2,1 2.2,2.2 v 31.9 c 0,1.2 -1,2.2 -2.2,2.2 z"
   id="path187"
   style="fill:#008000"
   inkscape:connector-curvature="0" />
			</g>
		</g>
	</g>
	<path
   d="M 317.6,169.9 H 194.4 c -13.5,0 -24.5,11 -24.5,24.5 v 123.2 c 0,13.5 11,24.5 24.5,24.5 h 123.2 c 13.5,0 24.5,-11 24.5,-24.5 V 194.4 c 0,-13.5 -11,-24.5 -24.5,-24.5 z m -42,113.6 c 13.7,-28.2 8.8,-45 -15.7,-55.3 0,22.6 0,39.5 0,59.8 0.8,24.6 -24.5,26.1 -30.7,19.6 -10.5,-10.5 2.4,-32 27.3,-21.8 0,-18 0,-51.9 0,-84.6 6.6,16.2 13.9,25.7 18.5,30.9 3.6,4.1 23.6,22.6 0.6,51.4 z"
   id="path195"
   style="fill:#008000"
   inkscape:connector-curvature="0" />
</g>
</svg>