<?xml version="1.0" encoding="utf-8"?>
<!-- Generator: Adobe Illustrator 22.0.1, SVG Export Plug-In . SVG Version: 6.00 Build 0)  -->
<svg version="1.1" xmlns="http://www.w3.org/2000/svg" xmlns:xlink="http://www.w3.org/1999/xlink" x="0px" y="0px"
	 viewBox="0 0 512 512" style="enable-background:new 0 0 512 512;" xml:space="preserve">
<style type="text/css">
	.st0{fill:url(#SVGID_1_);}
	.st1{opacity:0.4;fill:#2B2B2B;enable-background:new    ;}
	.st2{fill:#EDEDED;}
	.st3{fill:#FFFFFF;}
</style>
<g id="Layer_2">
	<linearGradient id="SVGID_1_" gradientUnits="userSpaceOnUse" x1="26" y1="256" x2="486" y2="256">
		<stop  offset="0" style="stop-color:#8E8E93"/>
		<stop  offset="1" style="stop-color:#8E8E93"/>
	</linearGradient>
	<circle class="st0" cx="256" cy="256" r="230"/>
</g>
<g id="Layer_3">
	<g>
		<g>
			<path class="st1" d="M254.7,486c0.9,0,1.7,0,2.6,0c69.6-0.4,132-31.7,173.9-80.9v-89.6c0-72.9-59.1-132.1-132.1-132.1
				S167,242.5,167,315.5v152.7C194,479.5,223.6,485.8,254.7,486z"/>
			<path class="st2" d="M256,161.9c-72.9,0-132.1,59.1-132.1,132.1v150.4c36.9,25.9,81.8,41.3,130.3,41.7c1.2,0,2.4,0,3.5,0
				c48.5-0.4,93.4-15.7,130.3-41.7V293.9C388.1,221,328.9,161.9,256,161.9z M256,296.2c-8.3,0-15.1-6.7-15.1-15.1
				c0-8.3,6.7-15.1,15.1-15.1s15.1,6.7,15.1,15.1C271.1,289.5,264.3,296.2,256,296.2z"/>
		</g>
		<g>
			<circle class="st3" cx="256" cy="281.2" r="15.1"/>
			<path class="st3" d="M256,297.2c-8.9,0-16.1-7.2-16.1-16.1s7.2-16.1,16.1-16.1c8.9,0,16.1,7.2,16.1,16.1S264.9,297.2,256,297.2z
				 M256,267.1c-7.7,0-14,6.3-14,14c0,7.7,6.3,14,14,14c7.7,0,14-6.3,14-14C270,273.4,263.7,267.1,256,267.1z"/>
		</g>
	</g>
</g>
</svg>
