<?xml version="1.0" encoding="UTF-8" standalone="no"?>
<!-- Generator: Adobe Illustrator 17.0.0, SVG Export Plug-In . SVG Version: 6.00 Build 0)  -->

<svg
   xmlns:dc="http://purl.org/dc/elements/1.1/"
   xmlns:cc="http://creativecommons.org/ns#"
   xmlns:rdf="http://www.w3.org/1999/02/22-rdf-syntax-ns#"
   xmlns:svg="http://www.w3.org/2000/svg"
   xmlns="http://www.w3.org/2000/svg"
   xmlns:sodipodi="http://sodipodi.sourceforge.net/DTD/sodipodi-0.dtd"
   xmlns:inkscape="http://www.inkscape.org/namespaces/inkscape"
   version="1.1"
   id="Layer_1"
   x="0px"
   y="0px"
   width="512px"
   height="512px"
   viewBox="0 0 512 512"
   enable-background="new 0 0 512 512"
   xml:space="preserve"
   sodipodi:docname="mouse.svg"
   inkscape:version="0.92.3 (2405546, 2018-03-11)"><metadata
   id="metadata54"><rdf:RDF><cc:Work
       rdf:about=""><dc:format>image/svg+xml</dc:format><dc:type
         rdf:resource="http://purl.org/dc/dcmitype/StillImage" /></cc:Work></rdf:RDF></metadata><defs
   id="defs52"><radialGradient
     id="SVGID_1_-3"
     cx="0.76249999"
     cy="514.25"
     r="118.8609"
     gradientTransform="matrix(2,0,0,-2,254.5,1284.5)"
     gradientUnits="userSpaceOnUse"><stop
       offset="0"
       style="stop-color:#010101"
       id="stop2-6" /><stop
       offset="0.8587"
       style="stop-color:#010101;stop-opacity:0.1413"
       id="stop4-7" /><stop
       offset="1"
       style="stop-color:#010101;stop-opacity:0"
       id="stop6-5" /></radialGradient><radialGradient
     id="SVGID_2_-3"
     cx="1.5285"
     cy="515.05762"
     r="133.15511"
     gradientTransform="matrix(1.4138,-1.4146,-0.979,-0.9784,758.1053,762.0507)"
     gradientUnits="userSpaceOnUse"><stop
       offset="0"
       style="stop-color:#010101"
       id="stop13" /><stop
       offset="0.8587"
       style="stop-color:#010101;stop-opacity:0.1413"
       id="stop15" /><stop
       offset="1"
       style="stop-color:#010101;stop-opacity:0"
       id="stop17-5" /></radialGradient><radialGradient
     id="SVGID_3_-6"
     cx="2.5888"
     cy="513.47333"
     r="133.17841"
     gradientTransform="matrix(-1.4138,-1.4146,0.979,-0.9784,-243.1053,762.0507)"
     gradientUnits="userSpaceOnUse"><stop
       offset="0"
       style="stop-color:#010101"
       id="stop24" /><stop
       offset="0.8587"
       style="stop-color:#010101;stop-opacity:0.1413"
       id="stop26" /><stop
       offset="1"
       style="stop-color:#010101;stop-opacity:0"
       id="stop28" /></radialGradient><linearGradient
     id="SVGID_4_"
     gradientUnits="userSpaceOnUse"
     x1="26.0005"
     y1="257"
     x2="485.99991"
     y2="257"
     gradientTransform="matrix(1,0,0,-1,0,513)"><stop
       offset="0"
       style="stop-color:#8E8E93"
       id="stop37" /><stop
       offset="1"
       style="stop-color:#8E8E93"
       id="stop39" /></linearGradient></defs><sodipodi:namedview
   pagecolor="#ffffff"
   bordercolor="#666666"
   borderopacity="1"
   objecttolerance="10"
   gridtolerance="10"
   guidetolerance="10"
   inkscape:pageopacity="0"
   inkscape:pageshadow="2"
   inkscape:window-width="1920"
   inkscape:window-height="1002"
   id="namedview50"
   showgrid="false"
   inkscape:zoom="0.921875"
   inkscape:cx="111.72881"
   inkscape:cy="438.23729"
   inkscape:window-x="0"
   inkscape:window-y="0"
   inkscape:window-maximized="1"
   inkscape:current-layer="Layer_1" />

<g
   inkscape:groupmode="layer"
   id="layer1"
   inkscape:label="Layer 1"
   style="display:inline"><path
     style="fill:#666669;fill-opacity:1"
     id="path966"
     d="m 409.33714,130.211 c -0.154,0.055 -0.309,0.108 -0.464,0.159 -10.694,-58.541 -61.955,-102.917 -123.585,-102.917 -63.224,0 -115.532,46.702 -124.33,107.489 -0.125,-0.041 -0.248,-0.089 -0.372,-0.132 -5.243,37.779 -8.106,78.6 -8.106,121.191 0,43.446 2.98,85.048 8.426,123.461 0.135,-0.051 0.272,-0.095 0.407,-0.144 0,0 0,0 0,-10e-4 9.749,59.681 61.536,105.232 123.975,105.232 62.364,0 114.104,-45.442 123.941,-105.018 0.141,0.017 0.283,0.03 0.424,0.049 5.456,-38.445 8.442,-80.088 8.442,-123.578 10e-4,-44.327 -3.101,-86.734 -8.758,-125.791 z"
     inkscape:connector-curvature="0" /></g><g
   inkscape:groupmode="layer"
   id="layer2"
   inkscape:label="Layer 2"
   style="display:inline"><g
     id="g47">
	<radialGradient
   id="SVGID_1_"
   cx="257.40939"
   cy="147.6687"
   r="275.40131"
   gradientUnits="userSpaceOnUse">
		<stop
   offset="0"
   style="stop-color:#FFFFFF"
   id="stop2" />
		<stop
   offset="0.2992"
   style="stop-color:#FCFCFC"
   id="stop4" />
		<stop
   offset="0.5462"
   style="stop-color:#F2F2F2"
   id="stop6" />
		<stop
   offset="0.7738"
   style="stop-color:#E0E0E0"
   id="stop8" />
		<stop
   offset="0.9899"
   style="stop-color:#C8C8C8"
   id="stop10" />
		<stop
   offset="1"
   style="stop-color:#C7C7C7"
   id="stop12" />
	</radialGradient>
	<path
   d="m 380.049,130.211 c -0.154,0.055 -0.309,0.108 -0.464,0.159 C 368.891,71.829 317.63,27.453 256,27.453 c -63.224,0 -115.532,46.702 -124.33,107.489 -0.125,-0.041 -0.248,-0.089 -0.372,-0.132 -5.243,37.779 -8.106,78.6 -8.106,121.191 0,43.446 2.98,85.048 8.426,123.461 0.135,-0.051 0.272,-0.095 0.407,-0.144 0,0 0,0 0,-10e-4 9.749,59.681 61.536,105.232 123.975,105.232 62.364,0 114.104,-45.442 123.941,-105.018 0.141,0.017 0.283,0.03 0.424,0.049 5.456,-38.445 8.442,-80.088 8.442,-123.578 10e-4,-44.327 -3.101,-86.734 -8.758,-125.791 z"
   id="path15"
   style="fill:#ededed;fill-opacity:1"
   inkscape:connector-curvature="0" />
	<g
   id="g29">
		
			<linearGradient
   id="path7_2_"
   gradientUnits="userSpaceOnUse"
   x1="301.06769"
   y1="20.142"
   x2="301.06769"
   y2="57.824001"
   gradientTransform="matrix(1,0,0,-1,-50,373)">
			<stop
   offset="0"
   style="stop-color:#FFFFFF"
   id="stop17" />
			<stop
   offset="1"
   style="stop-color:#888888"
   id="stop19" />
		</linearGradient>
		
		
			<linearGradient
   id="path11_2_"
   gradientUnits="userSpaceOnUse"
   x1="305.34351"
   y1="57.5"
   x2="305.34351"
   y2="69.339996"
   gradientTransform="matrix(1,0,0,-1,-50,373)">
			<stop
   offset="0"
   style="stop-color:#FFFFFF"
   id="stop23" />
			<stop
   offset="1"
   style="stop-color:#888888"
   id="stop25" />
		</linearGradient>
		
	</g>
	<g
   id="g45">
		
			<linearGradient
   id="SVGID_2_"
   gradientUnits="userSpaceOnUse"
   x1="355.82999"
   y1="407.535"
   x2="355.82999"
   y2="367.82779"
   gradientTransform="translate(-100,-279)">
			<stop
   offset="0"
   style="stop-color:#FFFFFF"
   id="stop31" />
			<stop
   offset="1"
   style="stop-color:#929292"
   id="stop33" />
		</linearGradient>
		
		
			<radialGradient
   id="SVGID_3_"
   cx="455.82999"
   cy="662.17419"
   r="16.173599"
   gradientTransform="translate(-200,-558)"
   gradientUnits="userSpaceOnUse">
			<stop
   offset="0"
   style="stop-color:#FFFFFF"
   id="stop38" />
			<stop
   offset="0.9949"
   style="stop-color:#D8D9DA"
   id="stop40" />
		</radialGradient>
		<circle
   cx="255.83"
   cy="110.841"
   r="14.694"
   id="circle43"
   style="fill:#ffffff;fill-opacity:1" />
	</g>
</g></g></svg>