<?xml version="1.0" encoding="utf-8"?>
<!-- Generator: Adobe Illustrator 22.0.1, SVG Export Plug-In . SVG Version: 6.00 Build 0)  -->
<svg version="1.1" id="Layer_1" xmlns="http://www.w3.org/2000/svg" xmlns:xlink="http://www.w3.org/1999/xlink" x="0px" y="0px"
	 viewBox="0 0 512 512" style="enable-background:new 0 0 512 512;" xml:space="preserve">
<style type="text/css">
	.st0{fill:url(#SVGID_1_);}
	.st1{fill:#151718;}
	.st2{fill:#1C1E1F;}
	.st3{opacity:0.4;fill:url(#SVGID_2_);enable-background:new    ;}
</style>
<linearGradient id="SVGID_1_" gradientUnits="userSpaceOnUse" x1="26" y1="256" x2="486" y2="256">
	<stop  offset="0" style="stop-color:#DEDEDE"/>
	<stop  offset="3.500000e-03" style="stop-color:#DFDFDF"/>
	<stop  offset="8.989999e-02" style="stop-color:#EDEDED"/>
	<stop  offset="0.1946" style="stop-color:#F5F5F5"/>
	<stop  offset="0.3673" style="stop-color:#F8F8F8"/>
	<stop  offset="0.484" style="stop-color:#F2F2F2"/>
	<stop  offset="0.644" style="stop-color:#E0E0E0"/>
	<stop  offset="0.8283" style="stop-color:#C3C3C3"/>
	<stop  offset="1" style="stop-color:#A2A2A2"/>
</linearGradient>
<path class="st0" d="M360,486H152c-69.6,0-126-56.4-126-126V152C26,82.4,82.4,26,152,26H360c69.6,0,126,56.4,126,126V360
	C486,429.6,429.6,486,360,486z"/>
<g>
	<g>
		<circle class="st1" cx="195.4" cy="373" r="43.7"/>
		<circle class="st1" cx="316.6" cy="373" r="43.7"/>
	</g>
	<path class="st2" d="M256,95.4c-56.9,0-103.1,46.1-103.1,103.1S199.1,301.5,256,301.5s103.1-46.1,103.1-103.1S312.9,95.4,256,95.4z
		 M256,249.1c-28,0-50.6-22.7-50.6-50.6s22.7-50.6,50.6-50.6s50.6,22.7,50.6,50.6S284,249.1,256,249.1z"/>
</g>
<linearGradient id="SVGID_2_" gradientUnits="userSpaceOnUse" x1="78.6027" y1="188.2588" x2="402.9908" y2="272.1088">
	<stop  offset="0" style="stop-color:#FFFFFF"/>
	<stop  offset="1" style="stop-color:#FFFFFF;stop-opacity:0"/>
</linearGradient>
<path class="st3" d="M486,152c0-69.6-56.4-126-126-126H200.6l104.7,460H360c69.6,0,126-56.4,126-126V152z"/>
</svg>
