<?xml version="1.0" encoding="utf-8"?>
<!-- Generator: Adobe Illustrator 22.0.1, SVG Export Plug-In . SVG Version: 6.00 Build 0)  -->
<svg version="1.1"
	 id="Layer_1" inkscape:version="0.92.3 (2405546, 2018-03-11)" sodipodi:docname="drive-harddisk-system-symbolic.svg" xmlns:cc="http://creativecommons.org/ns#" xmlns:dc="http://purl.org/dc/elements/1.1/" xmlns:inkscape="http://www.inkscape.org/namespaces/inkscape" xmlns:rdf="http://www.w3.org/1999/02/22-rdf-syntax-ns#" xmlns:sodipodi="http://sodipodi.sourceforge.net/DTD/sodipodi-0.dtd" xmlns:svg="http://www.w3.org/2000/svg"
	 xmlns="http://www.w3.org/2000/svg" xmlns:xlink="http://www.w3.org/1999/xlink" x="0px" y="0px" viewBox="0 0 512 512"
	 enable-background="new 0 0 512 512" xml:space="preserve">
<path fill="#BEBEBE" d="M417.663,420.142H223.539c-7.654,0-13.755,6.212-13.755,13.755c0,7.654,6.212,13.755,13.755,13.755h194.013
	c7.654,0,13.755-6.212,13.755-13.755C431.418,426.243,425.206,420.142,417.663,420.142z"/>
<path fill="#BEBEBE" d="M420.846,26H91.154C55.059,26,26,55.059,26,91.154v329.691C26,456.941,55.059,486,91.154,486h329.691
	C456.941,486,486,456.941,486,420.846V91.154C486,55.059,456.941,26,420.846,26z M393.439,129.561L366.672,222.8
	c0,0-57.281,30.721-103.364-6.4l26.996-94.813C290.305,121.586,328.375,159.412,393.439,129.561z M362.744,239.39l-26.485,92.394
	c0,0-57.283,30.721-103.364-6.4l26.996-94.813C259.892,230.57,297.678,269.241,362.744,239.39z M176.305,112.121
	c0,0,57.283-34.663,103.364,2.458l-26.996,94.813c0,0-38.07-35.292-103.134-5.439L176.305,112.121z M145.328,221.951
	c0-0.002,57.281-34.665,103.364,2.458l-26.996,94.813c0,0-38.07-35.292-103.134-5.439L145.328,221.951z M422.508,463.186
	c-0.844-0.005-1.688-0.047-2.529-0.125H91.996c-0.832,0.077-1.668,0.119-2.504,0.125c-16.175,0-29.289-13.112-29.289-29.287
	c0-16.176,13.113-29.29,29.289-29.289c0.846,0.006,1.691,0.048,2.533,0.127h327.979c0.832-0.078,1.668-0.12,2.504-0.127
	c16.176-0.001,29.29,13.113,29.289,29.289C451.796,450.074,438.683,463.186,422.508,463.186z"/>
</svg>
