<?xml version="1.0" encoding="utf-8"?>
<!-- Generator: Adobe Illustrator 22.0.1, SVG Export Plug-In . SVG Version: 6.00 Build 0)  -->
<svg version="1.1" id="Layer_2_1_" xmlns="http://www.w3.org/2000/svg" xmlns:xlink="http://www.w3.org/1999/xlink" x="0px" y="0px"
	 viewBox="0 0 512 512" enable-background="new 0 0 512 512" xml:space="preserve">
<g>
	<linearGradient id="SVGID_1_" gradientUnits="userSpaceOnUse" x1="256" y1="486" x2="256" y2="26">
		<stop  offset="0" style="stop-color:#F7F7F7"/>
		<stop  offset="1" style="stop-color:#696969"/>
	</linearGradient>
	<circle fill="url(#SVGID_1_)" enable-background="new    " cx="256" cy="256" r="230"/>
	<linearGradient id="SVGID_2_" gradientUnits="userSpaceOnUse" x1="256" y1="486" x2="256" y2="26">
		<stop  offset="0" style="stop-color:#545454"/>
		<stop  offset="1" style="stop-color:#FFFFFF"/>
	</linearGradient>
	<path opacity="0.5" fill="url(#SVGID_2_)" enable-background="new    " d="M256,46c28.4,0,55.9,5.5,81.7,16.5
		c25,10.6,47.5,25.7,66.8,45s34.4,41.8,45,66.8c10.9,25.9,16.5,53.4,16.5,81.7s-5.5,55.9-16.5,81.7c-10.6,25-25.7,47.5-45,66.8
		s-41.8,34.4-66.8,45c-25.8,11-53.3,16.5-81.7,16.5s-55.9-5.5-81.7-16.5c-25-10.6-47.5-25.7-66.8-45s-34.4-41.8-45-66.8
		C51.5,311.9,46,284.4,46,256s5.5-55.9,16.5-81.7c10.6-25,25.7-47.5,45-66.8s41.8-34.4,66.8-45C200.1,51.5,227.6,46,256,46 M256,26
		C129,26,26,129,26,256s103,230,230,230s230-103,230-230S383,26,256,26L256,26z"/>
	<circle fill="#F4F4F4" cx="256" cy="256" r="143"/>
	<path fill="#969696" d="M195.5,295.3c-1.9,3.4-3.4,8.5-3.4,11.7c0,0.7,0,1.7,0.2,3l-23.6-40.6c-0.8-1.3-1.3-3.2-1.3-4.9
		c0-1.7,0.6-3.8,1.3-5.1l11.3-19.9l-12.7-7.2l41.2-0.8l20,36.1l-12.9-7.4L195.5,295.3z M213.6,180.8c3.6-6.2,9.5-9.6,16.6-9.6
		c7.8,0,13.8,3.6,18.2,11l6.4,10.8l-22.3,38.6l-36.1-21L213.6,180.8z M216.3,328c-10.8,0-19.7-8.9-19.7-19.7c0-3,1.3-8.1,3.2-11.3
		l6-10.8h44.8V328H216.3L216.3,328z M252.2,179.6c-2.8-4.9-6.6-8.3-11.2-10.2h46.5c4.2,0,7.4,1.7,9.3,4.9l11.5,19.7l12.5-7.4
		l-20,35.9l-41-0.6l12.7-7.2L252.2,179.6z M323.9,286.6c5.7,0,10.4-1.5,14.4-4.5l-23.4,40.8c-1.9,3.2-5.3,5.1-9.3,5.1h-22.1v14.6
		l-21.2-35.3l21.2-35.4v14.8h40.4V286.6z M342,252.6c1.7,3,2.7,6.2,2.7,9.6c0,6.8-4.4,14-10.4,17.4c-2.8,1.5-6.8,2.5-10.8,2.5H311
		l-22.3-38.6l36.1-20.6L342,252.6z"/>
</g>
<g>
	<g>
		
			<linearGradient id="SVGID_3_" gradientUnits="userSpaceOnUse" x1="386.3" y1="742.6" x2="386.3" y2="592.7" gradientTransform="matrix(1 0 0 1 -100 -278)">
			<stop  offset="0" style="stop-color:#231F20"/>
			<stop  offset="0.2221" style="stop-color:#262223;stop-opacity:0.7779"/>
			<stop  offset="0.3635" style="stop-color:#2E2A2B;stop-opacity:0.6365"/>
			<stop  offset="0.4824" style="stop-color:#3D393A;stop-opacity:0.5176"/>
			<stop  offset="0.5888" style="stop-color:#514E4F;stop-opacity:0.4112"/>
			<stop  offset="0.6869" style="stop-color:#6C696A;stop-opacity:0.3131"/>
			<stop  offset="0.7789" style="stop-color:#8C8A8B;stop-opacity:0.2211"/>
			<stop  offset="0.8662" style="stop-color:#B3B2B2;stop-opacity:0.1338"/>
			<stop  offset="0.9476" style="stop-color:#DFDEDE;stop-opacity:0.0524"/>
			<stop  offset="1" style="stop-color:#FFFFFF;stop-opacity:0"/>
		</linearGradient>
		<polygon opacity="0.2" fill="url(#SVGID_3_)" enable-background="new    " points="247.7,314.7 371.9,365.4 294.9,464.6 
			275.8,387.7 200.7,333.1 		"/>
		
			<linearGradient id="SVGID_4_" gradientUnits="userSpaceOnUse" x1="309.75" y1="732.1" x2="309.75" y2="621.9" gradientTransform="matrix(1 0 0 1 -100 -278)">
			<stop  offset="0" style="stop-color:#231F20"/>
			<stop  offset="0.2221" style="stop-color:#262223;stop-opacity:0.7779"/>
			<stop  offset="0.3635" style="stop-color:#2E2A2B;stop-opacity:0.6365"/>
			<stop  offset="0.4824" style="stop-color:#3D393A;stop-opacity:0.5176"/>
			<stop  offset="0.5888" style="stop-color:#514E4F;stop-opacity:0.4112"/>
			<stop  offset="0.6869" style="stop-color:#6C696A;stop-opacity:0.3131"/>
			<stop  offset="0.7789" style="stop-color:#8C8A8B;stop-opacity:0.2211"/>
			<stop  offset="0.8662" style="stop-color:#B3B2B2;stop-opacity:0.1338"/>
			<stop  offset="0.9476" style="stop-color:#DFDEDE;stop-opacity:0.0524"/>
			<stop  offset="1" style="stop-color:#FFFFFF;stop-opacity:0"/>
		</linearGradient>
		<polygon opacity="0.2" fill="url(#SVGID_4_)" enable-background="new    " points="252.5,451.8 290.6,454.1 258.1,401.2 
			193,343.9 128.9,396.1 		"/>
		
			<linearGradient id="SVGID_5_" gradientUnits="userSpaceOnUse" x1="466" y1="627.3" x2="466" y2="402.7" gradientTransform="matrix(1 0 0 1 -100 -278)">
			<stop  offset="0" style="stop-color:#231F20"/>
			<stop  offset="0.2221" style="stop-color:#262223;stop-opacity:0.7779"/>
			<stop  offset="0.3635" style="stop-color:#2E2A2B;stop-opacity:0.6365"/>
			<stop  offset="0.4824" style="stop-color:#3D393A;stop-opacity:0.5176"/>
			<stop  offset="0.5888" style="stop-color:#514E4F;stop-opacity:0.4112"/>
			<stop  offset="0.6869" style="stop-color:#6C696A;stop-opacity:0.3131"/>
			<stop  offset="0.7789" style="stop-color:#8C8A8B;stop-opacity:0.2211"/>
			<stop  offset="0.8662" style="stop-color:#B3B2B2;stop-opacity:0.1338"/>
			<stop  offset="0.9476" style="stop-color:#DFDEDE;stop-opacity:0.0524"/>
			<stop  offset="1" style="stop-color:#FFFFFF;stop-opacity:0"/>
		</linearGradient>
		<polygon opacity="0.2" fill="url(#SVGID_5_)" enable-background="new    " points="310.8,225.3 355.6,124.7 379,214.5 
			415.8,220.3 421.2,349.3 		"/>
		
			<linearGradient id="SVGID_6_" gradientUnits="userSpaceOnUse" x1="363.8" y1="373" x2="363.8" y2="207.6" gradientTransform="matrix(1 0 0 1 0 1)">
			<stop  offset="0" style="stop-color:#231F20"/>
			<stop  offset="0.2221" style="stop-color:#262223;stop-opacity:0.7779"/>
			<stop  offset="0.3635" style="stop-color:#2E2A2B;stop-opacity:0.6365"/>
			<stop  offset="0.4824" style="stop-color:#3D393A;stop-opacity:0.5176"/>
			<stop  offset="0.5888" style="stop-color:#514E4F;stop-opacity:0.4112"/>
			<stop  offset="0.6869" style="stop-color:#6C696A;stop-opacity:0.3131"/>
			<stop  offset="0.7789" style="stop-color:#8C8A8B;stop-opacity:0.2211"/>
			<stop  offset="0.8662" style="stop-color:#B3B2B2;stop-opacity:0.1338"/>
			<stop  offset="0.9476" style="stop-color:#DFDEDE;stop-opacity:0.0524"/>
			<stop  offset="1" style="stop-color:#FFFFFF;stop-opacity:0"/>
		</linearGradient>
		<polygon opacity="0.2" fill="url(#SVGID_6_)" enable-background="new    " points="326.3,208.6 385.8,305.5 401.3,374 
			355.5,359.3 344.3,253.5 		"/>
	</g>
	<g>
		<polygon fill="#FFCE00" points="86.7,171.2 180.5,107.8 298.6,148.1 195.2,216.7 135,168.2 		"/>
		<polygon fill="#DBB205" points="195.2,216.7 298.6,148.1 271,247.1 148.5,238.5 135,168.2 		"/>
		<path fill="#FFCE00" d="M286.3,143.9l67.1-45.5c0.2-0.1,0.5,0,0.5,0.3l-12.3,66.7L271,247.1l-10.4-20.3L286.3,143.9z"/>
		<polygon fill="#DBB205" points="304.4,208.4 353.9,98.7 372.7,197.7 416.4,204.5 411,352.6 		"/>
		<polygon fill="#FFCE00" points="183.8,227 271,247.1 198.3,280.2 192.8,246.8 148.5,238.5 		"/>
		<polygon fill="#DBB205" points="148.5,238.5 192.8,246.8 198.3,280.2 277.4,305.5 143.6,298.7 		"/>
		<polygon fill="#FFCE00" points="266.6,258.2 338.1,266.6 277.7,280.9 277.4,305.5 198.3,280.2 		"/>
		<polygon fill="#FFCE00" points="90.6,184.9 138.4,154 160.2,209.4 148.5,238.5 90.8,241.7 		"/>
		<polygon fill="#DBB205" points="83.7,224 148.5,238.5 129.8,270.3 114.1,264.5 99.3,290.4 		"/>
	</g>
	<g>
		<polygon fill="#FFCE00" points="304,170.6 384.3,264.1 392.5,364.4 294.9,287.8 322,215.4 		"/>
		<polygon fill="#DBB205" points="294.9,287.8 392.5,364.4 289.9,369.4 259.5,250.4 322,215.4 		"/>
		<polygon fill="#FFCE00" points="308.4,342.3 362.5,377.8 305.5,388.6 205.7,347.2 221.8,331 		"/>
		<polygon fill="#DBB205" points="235.4,314.8 371.9,365.4 296.2,453.7 263.6,387.7 188.4,333.2 		"/>
		<polygon fill="#FFCE00" points="281.5,280.3 254.3,436.9 235.6,310.8 265.5,295 259.5,250.4 		"/>
		<polygon fill="#DBB205" points="259.5,250.4 265.5,295 235.6,310.8 236.3,393.8 200.8,264.6 		"/>
		<polygon fill="#FFCE00" points="254.3,436.9 292.4,439.2 259.9,386.4 194.8,329.1 130.7,381.3 		"/>
		<polygon fill="#FFCE00" points="292.2,178.6 322,215.4 290.8,252.3 259.5,250.4 238.3,196.6 		"/>
		<polygon fill="#DBB205" points="252.9,184.3 259.5,250.4 223.5,242.6 224,225.9 194.8,220 		"/>
	</g>
	<g>
		<polygon fill="#FFCE00" points="142.7,255.4 172.5,292.3 141.3,329.1 110,327.2 88.9,273.4 		"/>
		
			<linearGradient id="SVGID_7_" gradientUnits="userSpaceOnUse" x1="140.7" y1="599.55" x2="347.4" y2="599.55" gradientTransform="matrix(1 0 0 1 -100 -278)">
			<stop  offset="0" style="stop-color:#231F20"/>
			<stop  offset="0.2221" style="stop-color:#262223;stop-opacity:0.7779"/>
			<stop  offset="0.3635" style="stop-color:#2E2A2B;stop-opacity:0.6365"/>
			<stop  offset="0.4824" style="stop-color:#3D393A;stop-opacity:0.5176"/>
			<stop  offset="0.5888" style="stop-color:#514E4F;stop-opacity:0.4112"/>
			<stop  offset="0.6869" style="stop-color:#6C696A;stop-opacity:0.3131"/>
			<stop  offset="0.7789" style="stop-color:#8C8A8B;stop-opacity:0.2211"/>
			<stop  offset="0.8662" style="stop-color:#B3B2B2;stop-opacity:0.1338"/>
			<stop  offset="0.9476" style="stop-color:#DFDEDE;stop-opacity:0.0524"/>
			<stop  offset="1" style="stop-color:#FFFFFF;stop-opacity:0"/>
		</linearGradient>
		<polygon opacity="0.2" fill="url(#SVGID_7_)" enable-background="new    " points="40.7,330.4 50.9,319.5 157.1,278.1 247.4,302 
			130.7,365 91.4,321.9 51.3,324.2 		"/>
		<polygon fill="#DBB205" points="138.4,345.4 209,263.7 242.7,297.5 205.5,365 188.4,333.2 		"/>
		<polygon fill="#DBB205" points="176.3,119.4 252.5,70.5 353.4,98.4 295.7,167.3 198.1,132.5 		"/>
		<polygon fill="#FFCE00" points="353.4,98.4 416.4,204.5 352.2,230.4 357.5,203.1 363.9,163.7 		"/>
		<polygon fill="#FFCE00" points="37.7,319.6 151.6,268.6 249.5,300.5 151.6,370.4 85.9,312.5 		"/>
	</g>
</g>
<linearGradient id="SVGID_8_" gradientUnits="userSpaceOnUse" x1="256" y1="357.3" x2="256" y2="26">
	<stop  offset="0" style="stop-color:#545454"/>
	<stop  offset="1" style="stop-color:#FFFFFF;stop-opacity:0"/>
</linearGradient>
<path opacity="0.5" fill="url(#SVGID_8_)" enable-background="new    " d="M73.2,302.9l57.5-5.9l29.4,60.3l54.1-31.4l21.2-11.1
	l34.1,34.5l67.2-28.6l54.6,29.4c7.2-3.9,8.2-12.8,8.2-12.8l12.5-3c37.9-37.9,54-78.3,54-78.3h20c0-127-103-230-230-230
	S26,129,26,256h20C46,256,54.3,277,73.2,302.9z"/>
</svg>
