<?xml version="1.0" encoding="utf-8"?>
<!-- Generator: Adobe Illustrator 22.0.1, SVG Export Plug-In . SVG Version: 6.00 Build 0)  -->
<svg version="1.1"
	 id="svg2" xmlns:cc="http://creativecommons.org/ns#" xmlns:dc="http://purl.org/dc/elements/1.1/" xmlns:rdf="http://www.w3.org/1999/02/22-rdf-syntax-ns#" xmlns:svg="http://www.w3.org/2000/svg"
	 xmlns="http://www.w3.org/2000/svg" xmlns:xlink="http://www.w3.org/1999/xlink" x="0px" y="0px" viewBox="0 0 640 640"
	 enable-background="new 0 0 640 640" xml:space="preserve">
<g id="g226">
	<g id="g234" transform="translate(227.1298,240.5633)">
		<path id="path236" fill="#0081D1" d="M30.432,112.822L30.432,112.822h-118.25c-27.14,0-49.312,22.172-49.312,49.314
			c0,27.14,22.172,49.312,49.312,49.312h118.25c27.142,0,49.314-22.172,49.314-49.312C79.746,134.994,57.574,112.822,30.432,112.822
			"/>
	</g>
	<g id="g238" transform="translate(339.5467,240.5633)">
		<path id="path240" fill="#0081D1" d="M161.14,112.822L161.14,112.822H42.89c-27.14,0-49.312,22.172-49.312,49.314
			c0,27.14,22.172,49.312,49.312,49.312h118.25c27.142,0,49.314-22.172,49.314-49.312
			C210.454,134.994,188.282,112.822,161.14,112.822"/>
	</g>
	<g id="g242" transform="translate(339.5467,235.1428)">
		<path id="path244" fill="#FFFFFF" d="M161.14,129.965c-20.643,0-37.462,16.819-37.462,37.462s16.819,37.462,37.462,37.462
			s37.462-16.819,37.462-37.462S181.783,129.965,161.14,129.965"/>
	</g>
	<g id="g246" transform="translate(339.5467,317.0398)">
		<path id="path248" fill="#0081D1" d="M161.14-129.051h-361.372c-27.142,0-49.314,22.172-49.314,49.314
			c0,27.14,22.172,49.312,49.314,49.312H161.14c27.142,0,49.314-22.172,49.314-49.312
			C210.454-106.751,188.282-129.051,161.14-129.051"/>
	</g>
	<g id="g228">
		<g id="g252">
		</g>
		<g id="g250">
			<g id="g258">
				<defs>
					<polygon id="SVGID_1_" points="118.417,216.405 521.583,216.405 521.583,258.199 118.417,258.199 118.417,216.405 					"/>
				</defs>
				<clipPath id="SVGID_2_">
					<use xlink:href="#SVGID_1_"  overflow="visible"/>
				</clipPath>
				<g id="g260" opacity="0.5" clip-path="url(#SVGID_2_)">
					<g id="g262" transform="translate(172.4532,284.5756)">
						<path id="path264" fill="#FFFFFF" d="M-33.14-26.376h361.374c11.339,0,20.896-9.557,20.896-20.898
							c0-11.339-9.557-20.896-20.896-20.896H-33.14c-11.341,0-20.898,9.557-20.898,20.896
							C-54.038-35.933-44.481-26.376-33.14-26.376"/>
					</g>
				</g>
			</g>
		</g>
		<g id="g266" transform="translate(172.9835,311.5604)">
			<path id="path268" fill="#FFFFFF" d="M-32.524-111.721c-20.643,0-37.462,16.819-37.462,37.462s16.819,37.462,37.462,37.462
				S4.939-53.616,4.939-74.259S-11.881-111.721-32.524-111.721"/>
		</g>
	</g>
</g>
</svg>
