<?xml version="1.0" encoding="utf-8"?>
<!-- Generator: Adobe Illustrator 22.0.1, SVG Export Plug-In . SVG Version: 6.00 Build 0)  -->
<svg version="1.1" id="Layer_1" xmlns="http://www.w3.org/2000/svg" xmlns:xlink="http://www.w3.org/1999/xlink" x="0px" y="0px"
	 viewBox="0 0 512 512" enable-background="new 0 0 512 512" xml:space="preserve">
<g id="g10" transform="matrix(1.25,0,0,-1.25,0,640)">
	<g id="g226">
		<g>
			<g id="g228">
				<g id="g234" transform="translate(308.1308,356.4218)">
					<path id="path236" fill="#E84C3D" d="M-186.193,59.597c0,0,126.02-31.445,65.85-100.816
						c-17.763-20.483,4.641-38.806,4.641-38.806s-45.047,23.284-24.404,52.408C-120.742-0.413-105.94,13.11-186.193,59.597"/>
				</g>
				<g id="g238" transform="translate(256.348,342.6598)">
					<path id="path240" fill="#E84C3D" d="M-52.091,51.485c-74.492,58.809-36.246,97.055-36.246,97.055
						C-103.779,87.811-33.928,69.408-8.724,31.562C8.399,5.798-17.125-21.966-52.011-53.411
						C-38.408-22.607,7.679,4.278-52.091,51.485"/>
				</g>
				<g id="g242" transform="translate(225.6349,224.7607)">
					<path id="path244" fill="#2D98E0" d="M27.521-18.166C84.089-34.008-6.885-66.654-78.976-35.769
						c11.762,4.561,20.243,9.922,20.243,9.922c32.165-6.081,47.047-6.561,76.172-3.201C41.603-26.327,27.521-18.166,27.521-18.166"
						/>
				</g>
				<g id="g246" transform="translate(287.1492,244.1492)">
					<path id="path248_2_" fill="#2D98E0" d="M-33.525-11.381c24.084,2.48,8.321,14.162,8.321,14.162
						c62.33-20.723-34.725-44.167-121.779-18.643c9.281,3.201,15.122,9.201,15.122,9.201"/>
					<path id="path248_1_" fill="#2D98E0" d="M-131.86-6.66"/>
				</g>
				<g id="g250" transform="translate(220.0972,250.0885)">
					<path id="path252" fill="#2D98E0" d="M41.89-3.19"/>
				</g>
				<g id="g254" transform="translate(326.6582,206.0241)">
					<path id="path256" fill="#2D98E0" d="M-234.186-29.245c0,0-10.402-8.561,11.442-15.202
						c41.607-12.562,173.067-16.403,209.633-0.48C0.01-39.246-24.634-31.325-32.395-29.645c-8.081,1.76-12.722,1.44-12.722,1.44
						c14.642,10.322,94.415-20.163,40.486-28.965C-151.454-80.933-272.352-46.447-234.186-29.245"/>
				</g>
				<g id="g258" transform="translate(294.9205,262.2432)">
					<path id="path260" fill="#2D98E0" d="M-152.011,3.975c-7.041,4.801-16.803,9.041-16.803,9.041s27.764-4.961,55.449-7.281
						c33.925-2.88,70.251-3.441,88.494-0.96c43.207,5.761-23.684,21.683-23.684,21.683s26.004,1.76,57.929-13.682
						C47.14-5.547-84.08-13.868-152.011,3.975"/>
				</g>
				<g id="g262" transform="translate(305.3187,234.1745)">
					<path id="path264" fill="#2D98E0" d="M-178.97-12.628c0.32-0.88,1.36-1.84,1.36-1.84
						c-92.174,24.324-58.249,85.533-14.162,70.011c3.841-1.36,5.921-4.561,5.921-4.561s-2.48,0.96-7.921,2.16
						C-216.016,57.783-248.021,23.297-178.97-12.628"/>
				</g>
				<g id="g266" transform="translate(306.8857,180.8394)">
					<path id="path268" fill="#2D98E0" d="M-182.991-44.079c56.569-10.642,126.34-9.441,167.706-2.56c0,0-8.481-7.041-52.008-9.842
						c-66.25-4.241-168.106,2.32-170.507,33.685C-237.8-22.795-233.159-34.637-182.991-44.079"/>
				</g>
			</g>
		</g>
	</g>
</g>
</svg>
