<?xml version="1.0" encoding="UTF-8" standalone="no"?>
<svg
   xmlns:dc="http://purl.org/dc/elements/1.1/"
   xmlns:cc="http://creativecommons.org/ns#"
   xmlns:rdf="http://www.w3.org/1999/02/22-rdf-syntax-ns#"
   xmlns:svg="http://www.w3.org/2000/svg"
   xmlns="http://www.w3.org/2000/svg"
   xml:space="preserve"
   style="enable-background:new 0 0 512 512;"
   viewBox="0 0 512 512"
   y="0px"
   x="0px"
   id="Layer_1"
   version="1.1"><metadata
     id="metadata44"><rdf:RDF><cc:Work
         rdf:about=""><dc:format>image/svg+xml</dc:format><dc:type
           rdf:resource="http://purl.org/dc/dcmitype/StillImage" /><dc:title></dc:title></cc:Work></rdf:RDF></metadata><defs
     id="defs42" /><g
     id="g3"><radialGradient
       gradientUnits="userSpaceOnUse"
       gradientTransform="matrix(1 0 0 8.064469e-02 0 403.3393)"
       r="248.0014"
       cy="442.1956"
       cx="256"
       id="SVGID_1_"><stop
         id="stop6"
         style="stop-color:#000000;stop-opacity:0.2"
         offset="0" /><stop
         id="stop8"
         style="stop-color:#000000;stop-opacity:0"
         offset="1" /></radialGradient><ellipse
       id="ellipse10"
       ry="23"
       rx="230"
       cy="439"
       cx="256"
       style="fill:url(#SVGID_1_);" /><g
       id="g12"><g
         id="g14"><linearGradient
           y2="73.4346"
           x2="256.0004"
           y1="433.7987"
           x1="256.0004"
           gradientUnits="userSpaceOnUse"
           id="SVGID_2_"><stop
             id="stop17"
             style="stop-color:#7D4F43"
             offset="0" /><stop
             id="stop19"
             style="stop-color:#86594C"
             offset="0.1856" /><stop
             id="stop21"
             style="stop-color:#9F7765"
             offset="0.5144" /><stop
             id="stop23"
             style="stop-color:#CCB097"
             offset="0.9454" /><stop
             id="stop25"
             style="stop-color:#D3B99F"
             offset="1" /></linearGradient><path
           id="path27"
           d="M467.2,117.2l-240.7,0c-1.6,0-3-0.6-4.1-1.7L182,75.1c-1.1-1.1-2.6-1.7-4.1-1.7H44.8     c-3.2,0-5.8,2.6-5.8,5.8v354.5h434.1l0-310.7C473,119.9,470.4,117.2,467.2,117.2z"
           style="fill:url(#SVGID_2_);" /><path
           id="path29"
           d="M221.3,124.4l-40.4,40.4c-1,1.1-2.4,1.7-3.9,1.7H44.4c-3,0-5.5,2.7-5.5,6v260.1     c0,3.3,2.5,6,5.5,6h423.1c3,0,5.5-2.7,5.5-6v-304c0-3.3-2.5-6-5.5-6H225.2C223.8,122.6,222.4,123.2,221.3,124.4z"
           style="opacity:0.1" /><linearGradient
           y2="128.9345"
           x2="256"
           y1="438.5654"
           x1="256"
           gradientUnits="userSpaceOnUse"
           id="SVGID_3_"><stop
             id="stop32"
             style="stop-color:#F6DABE"
             offset="0" /><stop
             id="stop34"
             style="stop-color:#E3C5A4"
             offset="0.9239" /><stop
             id="stop36"
             style="stop-color:#E2C3A2"
             offset="1" /></linearGradient><path
           id="path38"
           d="M220,130.6l-39.5,39.6c-1.1,1.1-2.6,1.7-4.1,1.7H31.8c-3.2,0-5.8,2.6-5.8,5.8v254.9     c0,3.2,2.6,5.8,5.8,5.8h448.3c3.2,0,5.8-2.6,5.8-5.8V134.8c0-3.2-2.6-5.8-5.8-5.8h-256C222.6,128.9,221.1,129.6,220,130.6z"
           style="fill:url(#SVGID_3_);" /></g></g></g></svg>