<?xml version="1.0" encoding="UTF-8" standalone="no"?>
<svg
   xmlns:dc="http://purl.org/dc/elements/1.1/"
   xmlns:cc="http://creativecommons.org/ns#"
   xmlns:rdf="http://www.w3.org/1999/02/22-rdf-syntax-ns#"
   xmlns:svg="http://www.w3.org/2000/svg"
   xmlns="http://www.w3.org/2000/svg"
   xml:space="preserve"
   style="enable-background:new 0 0 512 512;"
   viewBox="0 0 512 512"
   y="0px"
   x="0px"
   id="Layer_1"
   version="1.1"><metadata
     id="metadata271"><rdf:RDF><cc:Work
         rdf:about=""><dc:format>image/svg+xml</dc:format><dc:type
           rdf:resource="http://purl.org/dc/dcmitype/StillImage" /><dc:title></dc:title></cc:Work></rdf:RDF></metadata><defs
     id="defs269" /><g
     id="g224"><radialGradient
       gradientUnits="userSpaceOnUse"
       gradientTransform="matrix(1 0 0 8.064469e-02 0 402.9344)"
       r="248.0014"
       cy="441.8271"
       cx="256"
       id="SVGID_1_"><stop
         id="stop227"
         style="stop-color:#000000;stop-opacity:0.2"
         offset="0" /><stop
         id="stop229"
         style="stop-color:#000000;stop-opacity:0"
         offset="1" /></radialGradient><ellipse
       id="ellipse231"
       ry="23"
       rx="230"
       cy="438.6"
       cx="256"
       style="fill:url(#SVGID_1_);" /><g
       id="g233"><g
         id="g235"><linearGradient
           y2="73.4346"
           x2="256.0004"
           y1="433.7987"
           x1="256.0004"
           gradientUnits="userSpaceOnUse"
           id="SVGID_2_"><stop
             id="stop238"
             style="stop-color:#78A5D7"
             offset="0" /><stop
             id="stop240"
             style="stop-color:#78A5D7"
             offset="0.1856" /><stop
             id="stop242"
             style="stop-color:#78A5D7"
             offset="0.5144" /><stop
             id="stop244"
             style="stop-color:#78A5D7"
             offset="0.9454" /><stop
             id="stop246"
             style="stop-color:#78A5D7"
             offset="1" /></linearGradient><path
           id="path248"
           d="M467.2,117.2l-240.7,0c-1.6,0-3-0.6-4.1-1.7L182,75.1c-1.1-1.1-2.6-1.7-4.1-1.7H44.8     c-3.2,0-5.8,2.6-5.8,5.8v354.5h434.1l0-310.7C473,119.9,470.4,117.2,467.2,117.2z"
           style="fill:url(#SVGID_2_);" /><path
           id="path250"
           d="M221.3,124.4l-40.4,40.4c-1,1.1-2.4,1.7-3.9,1.7H44.4c-3,0-5.5,2.7-5.5,6v260.1     c0,3.3,2.5,6,5.5,6h423.1c3,0,5.5-2.7,5.5-6v-304c0-3.3-2.5-6-5.5-6H225.2C223.8,122.6,222.4,123.2,221.3,124.4z"
           style="opacity:0.1" /></g><linearGradient
         y2="128.9345"
         x2="256"
         y1="438.5654"
         x1="256"
         gradientUnits="userSpaceOnUse"
         id="SVGID_3_"><stop
           id="stop253"
           style="stop-color:#D4E4F5"
           offset="0" /><stop
           id="stop255"
           style="stop-color:#D4E4F5"
           offset="0.9239" /><stop
           id="stop257"
           style="stop-color:#D4E4F5"
           offset="1" /></linearGradient><path
         id="path259"
         d="M220,130.6l-39.5,39.6c-1.1,1.1-2.6,1.7-4.1,1.7H31.8c-3.2,0-5.8,2.6-5.8,5.8v254.9    c0,3.2,2.6,5.8,5.8,5.8h448.3c3.2,0,5.8-2.6,5.8-5.8V134.8c0-3.2-2.6-5.8-5.8-5.8h-256C222.6,128.9,221.1,129.6,220,130.6z"
         style="fill:url(#SVGID_3_);" /></g><g
       id="g261"><path
         id="path263"
         d="M336.6,281.4c-3.5-11-44.2-4.5-53.5-11.3c-9.3-6.8-15.4-47.5-26.9-47.6c-11.5,0-18,40.6-27.3,47.4    c-9.3,6.7-50-0.1-53.6,10.9c-3.6,10.9,33.1,29.6,36.6,40.6c3.5,11-15.5,47.5-6.2,54.3c9.3,6.8,38.4-22.3,49.9-22.3    c11.5,0,40.4,29.4,49.7,22.7l0,0c9.3-6.7-9.4-43.4-5.8-54.4C303.3,310.8,340.1,292.4,336.6,281.4z M289.7,353.2L289.7,353.2    c-6.4,4.6-26-15.4-33.9-15.4c-7.8,0-27.7,19.8-34,15.2c-6.3-4.6,6.6-29.5,4.2-37c-2.4-7.5-27.4-20.2-24.9-27.6    c2.4-7.4,30.1-2.8,36.5-7.4c6.4-4.6,10.8-32.3,18.6-32.3c7.8,0,12,27.8,18.3,32.4c6.3,4.6,34,0.3,36.4,7.7    c2.4,7.5-22.7,20-25.2,27.4C283.3,323.6,296,348.6,289.7,353.2z"
         style="fill:#5A83C2;" /><path
         id="path265"
         d="M336.7,284.5C336.6,284.5,336.6,284.4,336.7,284.5c-3.5-11.1-44.2-4.6-53.5-11.4    c-9.3-6.8-15.4-47.5-26.9-47.6c-11.5,0-18,40.6-27.3,47.4c-9.3,6.7-50-0.1-53.6,10.9c0,0,0,0.1,0,0.1    c2.8,11.1,33.5,27.5,36.7,37.5c0.4,1.3,0.5,3,0.4,5c0.9,9.7-8.3,30.9-9.1,43.5c0.2,2.6,0.9,4.7,2.5,5.8    c9.3,6.8,38.4-22.3,49.9-22.3c11.5,0,40.4,29.4,49.7,22.7l0,0c1.6-1.2,2.4-3.3,2.6-6c-0.7-12.5-9.6-33.5-8.7-43.2    c-0.1-2,0-3.8,0.4-5.2C303,311.7,333.8,295.6,336.7,284.5z M310.9,291.7c2.4,7.5-22.7,20-25.2,27.4c-0.1,0.3-0.2,0.7-0.2,1.1    c0.8,8.1,6.6,22.2,5.9,29.3c0.3,3.1-0.1,5.5-1.7,6.7l0,0c-6.4,4.6-26-15.4-33.9-15.4c-7.8,0-27.7,19.8-34,15.2    c-1.5-1.1-1.9-3.5-1.7-6.5c-0.8-7.1,5.3-21.4,6.1-29.5c0-0.3-0.1-0.7-0.2-0.9c-2.4-7.5-27.4-20.2-24.9-27.6c0-0.1,0.1-0.2,0.1-0.3    c-0.3-0.9-0.4-1.8-0.1-2.7c2.4-7.4,30.1-2.8,36.5-7.4c6.4-4.6,10.8-32.3,18.6-32.3c7.8,0,12,27.8,18.3,32.4    c6.3,4.6,34,0.3,36.4,7.7c0.3,0.8,0.2,1.7-0.2,2.6C310.8,291.5,310.9,291.6,310.9,291.7z"
         style="fill:#78A5D7;" /></g></g></svg>
