<?xml version="1.0" encoding="UTF-8" standalone="no"?>
<svg
   xmlns:dc="http://purl.org/dc/elements/1.1/"
   xmlns:cc="http://creativecommons.org/ns#"
   xmlns:rdf="http://www.w3.org/1999/02/22-rdf-syntax-ns#"
   xmlns:svg="http://www.w3.org/2000/svg"
   xmlns="http://www.w3.org/2000/svg"
   xml:space="preserve"
   style="enable-background:new 0 0 512 512;"
   viewBox="0 0 512 512"
   y="0px"
   x="0px"
   id="Layer_1"
   version="1.1"><metadata
     id="metadata221"><rdf:RDF><cc:Work
         rdf:about=""><dc:format>image/svg+xml</dc:format><dc:type
           rdf:resource="http://purl.org/dc/dcmitype/StillImage" /><dc:title></dc:title></cc:Work></rdf:RDF></metadata><defs
     id="defs219" /><g
     id="g166"><radialGradient
       gradientUnits="userSpaceOnUse"
       gradientTransform="matrix(1 0 0 8.064469e-02 0 402.9344)"
       r="248.0014"
       cy="441.8271"
       cx="256"
       id="SVGID_1_"><stop
         id="stop169"
         style="stop-color:#000000;stop-opacity:0.2"
         offset="0" /><stop
         id="stop171"
         style="stop-color:#000000;stop-opacity:0"
         offset="1" /></radialGradient><ellipse
       id="ellipse173"
       ry="23"
       rx="230"
       cy="438.6"
       cx="256"
       style="fill:url(#SVGID_1_);" /><g
       id="g175"><linearGradient
         y2="73.4346"
         x2="256.0004"
         y1="433.7987"
         x1="256.0004"
         gradientUnits="userSpaceOnUse"
         id="SVGID_2_"><stop
           id="stop178"
           style="stop-color:#78A5D7"
           offset="0" /><stop
           id="stop180"
           style="stop-color:#78A5D7"
           offset="0.1856" /><stop
           id="stop182"
           style="stop-color:#78A5D7"
           offset="0.5144" /><stop
           id="stop184"
           style="stop-color:#78A5D7"
           offset="0.9454" /><stop
           id="stop186"
           style="stop-color:#78A5D7"
           offset="1" /></linearGradient><path
         id="path188"
         d="M467.2,117.2l-240.7,0c-1.6,0-3-0.6-4.1-1.7L182,75.1c-1.1-1.1-2.6-1.7-4.1-1.7H44.8    c-3.2,0-5.8,2.6-5.8,5.8v354.5h434.1l0-310.7C473,119.9,470.4,117.2,467.2,117.2z"
         style="fill:url(#SVGID_2_);" /><path
         id="path190"
         d="M221.3,124.4l-40.4,40.4c-1,1.1-2.4,1.7-3.9,1.7H44.4c-3,0-5.5,2.7-5.5,6v260.1    c0,3.3,2.5,6,5.5,6h423.1c3,0,5.5-2.7,5.5-6v-304c0-3.3-2.5-6-5.5-6H225.2C223.8,122.6,222.4,123.2,221.3,124.4z"
         style="opacity:0.1" /><linearGradient
         y2="128.9345"
         x2="256"
         y1="438.5654"
         x1="256"
         gradientUnits="userSpaceOnUse"
         id="SVGID_3_"><stop
           id="stop193"
           style="stop-color:#D4E4F5"
           offset="0" /><stop
           id="stop195"
           style="stop-color:#D4E4F5"
           offset="0.9239" /><stop
           id="stop197"
           style="stop-color:#D4E4F5"
           offset="1" /></linearGradient><path
         id="path199"
         d="M220,130.6l-39.5,39.6c-1.1,1.1-2.6,1.7-4.1,1.7H31.8c-3.2,0-5.8,2.6-5.8,5.8v254.9    c0,3.2,2.6,5.8,5.8,5.8h448.3c3.2,0,5.8-2.6,5.8-5.8V134.8c0-3.2-2.6-5.8-5.8-5.8h-256C222.6,128.9,221.1,129.6,220,130.6z"
         style="fill:url(#SVGID_3_);" /></g><g
       id="g201"><g
         transform="translate(-501.0002,-195)"
         id="layer13"><path
           d="     M690.8,495.4v11c0,0.1,0,0.2,0,0.3c0.1,2.8,1.4,5.6,3.4,7.6l57.6,58.3l10.7,0l57.6-58.3c2.1-2.1,3.1-5,3.1-7.9v-11h-18.8     c-2.9,0-5.9,1-7.9,3.1l-38.1,41l-1.2,16.6l-1.4-16.6l-38.4-41c-2.1-2.3-5.2-3.3-8.3-3.1L690.8,495.4z"
           style="fill:#5A83C2;"
           id="path11142" /><path
           d="M751.5,484.3h11c3,0,5.5,2.5,5.5,5.5v11c0,3-2.5,5.5-5.5,5.5h-11     c-3,0-5.5-2.5-5.5-5.5v-11C746,486.8,748.4,484.3,751.5,484.3z"
           style="fill:#5A83C2;"
           id="rect81861" /><path
           d="M757,418.1L757,418.1c6.1,0,11,4.9,11,11l0,0c0,6.1-4.9,11-11,11l0,0     c-6.1,0-11-4.9-11-11l0,0C746,423,750.9,418.1,757,418.1z"
           style="fill:#5A83C2;"
           id="rect81863" /><path
           d="M753.6,451.2h6.9c4.2,0,7.6,3.4,7.6,7.6v6.9c0,4.2-3.4,7.6-7.6,7.6h-6.9     c-4.2,0-7.6-3.4-7.6-7.6v-6.9C746,454.6,749.4,451.2,753.6,451.2z"
           style="fill:#5A83C2;"
           id="rect81886" /></g><g
         transform="translate(-501.0002,-195)"
         id="layer13_2_"><path
           id="path209"
           d="M796.5,501.4l-38.1,41l-1.2,16.6l-1.4-16.6l-38.4-41c-2.1-2.3-5.2-3.3-8.3-3.1l-18.4,0v8.1     c0,0.1,0,0.2,0,0.3c0.1,2.8,1.4,5.6,3.4,7.6l57.6,58.3l10.7,0l57.6-58.3c2.1-2.1,3.1-5,3.1-7.9v-8.1h-18.8     C801.5,498.3,798.5,499.4,796.5,501.4z"
           style="fill:#78A5D7;" /><path
           id="path211"
           d="M762.5,487.3h-11c-3,0-5.5,2.5-5.5,5.5v8.1c0,3,2.5,5.5,5.5,5.5h11c3,0,5.5-2.5,5.5-5.5v-8.1     C768,489.7,765.6,487.3,762.5,487.3z"
           style="fill:#78A5D7;" /><path
           id="path213"
           d="M757,421c-5.6,0-10.2,4.2-10.9,9.6c0.7,5.4,5.3,9.6,10.9,9.6s10.2-4.2,10.9-9.6     C767.2,425.2,762.6,421,757,421z"
           style="fill:#78A5D7;" /><path
           id="path215"
           d="M760.5,454.1h-6.9c-4.2,0-7.6,3.4-7.6,7.6v3.9c0,4.2,3.4,7.6,7.6,7.6h6.9c4.2,0,7.6-3.4,7.6-7.6     v-3.9C768,457.5,764.6,454.1,760.5,454.1z"
           style="fill:#78A5D7;" /></g></g></g></svg>
