<?xml version="1.0" encoding="UTF-8" standalone="no"?>
<svg
   xmlns:dc="http://purl.org/dc/elements/1.1/"
   xmlns:cc="http://creativecommons.org/ns#"
   xmlns:rdf="http://www.w3.org/1999/02/22-rdf-syntax-ns#"
   xmlns:svg="http://www.w3.org/2000/svg"
   xmlns="http://www.w3.org/2000/svg"
   xml:space="preserve"
   style="enable-background:new 0 0 512 512;"
   viewBox="0 0 512 512"
   y="0px"
   x="0px"
   id="Layer_1"
   version="1.1"><metadata
     id="metadata371"><rdf:RDF><cc:Work
         rdf:about=""><dc:format>image/svg+xml</dc:format><dc:type
           rdf:resource="http://purl.org/dc/dcmitype/StillImage" /><dc:title></dc:title></cc:Work></rdf:RDF></metadata><defs
     id="defs369" /><g
     id="g324"><radialGradient
       gradientUnits="userSpaceOnUse"
       gradientTransform="matrix(1 0 0 8.064469e-02 0 402.9344)"
       r="248.0014"
       cy="441.8271"
       cx="256"
       id="SVGID_1_"><stop
         id="stop327"
         style="stop-color:#000000;stop-opacity:0.2"
         offset="0" /><stop
         id="stop329"
         style="stop-color:#000000;stop-opacity:0"
         offset="1" /></radialGradient><ellipse
       id="ellipse331"
       ry="23"
       rx="230"
       cy="438.6"
       cx="256"
       style="fill:url(#SVGID_1_);" /><g
       id="g333"><g
         id="g335"><linearGradient
           y2="73.4346"
           x2="256.0004"
           y1="433.7987"
           x1="256.0004"
           gradientUnits="userSpaceOnUse"
           id="SVGID_2_"><stop
             id="stop338"
             style="stop-color:#78A5D7"
             offset="0" /><stop
             id="stop340"
             style="stop-color:#78A5D7"
             offset="0.1856" /><stop
             id="stop342"
             style="stop-color:#78A5D7"
             offset="0.5144" /><stop
             id="stop344"
             style="stop-color:#78A5D7"
             offset="0.9454" /><stop
             id="stop346"
             style="stop-color:#78A5D7"
             offset="1" /></linearGradient><path
           id="path348"
           d="M467.2,117.2l-240.7,0c-1.6,0-3-0.6-4.1-1.7L182,75.1c-1.1-1.1-2.6-1.7-4.1-1.7H44.8     c-3.2,0-5.8,2.6-5.8,5.8v354.5h434.1l0-310.7C473,119.9,470.4,117.2,467.2,117.2z"
           style="fill:url(#SVGID_2_);" /><path
           id="path350"
           d="M221.3,124.4l-40.4,40.4c-1,1.1-2.4,1.7-3.9,1.7H44.4c-3,0-5.5,2.7-5.5,6v260.1     c0,3.3,2.5,6,5.5,6h423.1c3,0,5.5-2.7,5.5-6v-304c0-3.3-2.5-6-5.5-6H225.2C223.8,122.6,222.4,123.2,221.3,124.4z"
           style="opacity:0.1" /><linearGradient
           y2="128.9345"
           x2="256"
           y1="438.5654"
           x1="256"
           gradientUnits="userSpaceOnUse"
           id="SVGID_3_"><stop
             id="stop353"
             style="stop-color:#D4E4F5"
             offset="0" /><stop
             id="stop355"
             style="stop-color:#D4E4F5"
             offset="0.9239" /><stop
             id="stop357"
             style="stop-color:#D4E4F5"
             offset="1" /></linearGradient><path
           id="path359"
           d="M220,130.6l-39.5,39.6c-1.1,1.1-2.6,1.7-4.1,1.7H31.8c-3.2,0-5.8,2.6-5.8,5.8v254.9     c0,3.2,2.6,5.8,5.8,5.8h448.3c3.2,0,5.8-2.6,5.8-5.8V134.8c0-3.2-2.6-5.8-5.8-5.8h-256C222.6,128.9,221.1,129.6,220,130.6z"
           style="fill:url(#SVGID_3_);" /></g></g><g
       id="g361"><path
         id="path363"
         d="M304.3,319.4c-7.6,0-14.4,3-19.6,7.8l-48.6-24.6c0.1-1,0.3-1.9,0.3-2.9c0-1.2-0.2-2.3-0.3-3.4    l49-23.8c5.1,4.6,11.8,7.5,19.3,7.5c15.9,0,28.8-12.9,28.8-28.8c0-15.9-12.9-28.8-28.8-28.8s-28.8,12.9-28.8,28.8    c0,1.5,0.2,2.8,0.4,4.2L227.5,279c-5.2-4.9-12.1-8-19.9-8c-15.9,0-28.8,12.9-28.8,28.8c0,15.9,12.9,28.8,28.8,28.8    c7.8,0,14.8-3.1,19.9-8.1l48.3,24.4c-0.1,1.1-0.3,2.3-0.3,3.4c0,15.9,12.9,28.8,28.8,28.8s28.8-12.9,28.8-28.8    S320.2,319.4,304.3,319.4z"
         style="fill:#5A83C2;" /><path
         id="path365"
         d="M304.3,226.4c-15.1,0-27.6,11.7-28.7,26.6c0.1,0.9,0.2,1.7,0.3,2.5l-0.4,0.2c0,1.3,0.2,2.5,0.4,3.7    l-48.5,23.5c-5.2-4.9-12.1-8-19.9-8c-15.2,0-27.7,11.8-28.7,26.8c1,15,13.5,26.8,28.7,26.8c7.8,0,14.8-3.1,19.9-8.1l48.3,24.4    c-0.1,1.1-0.3,2.3-0.3,3.4c0,0.1,0,0.2,0,0.3l0.3,0.2c-0.1,0.6-0.2,1.2-0.2,1.9c1.2,14.8,13.6,26.4,28.7,26.4    c15.2,0,27.7-11.8,28.7-26.8c-1-15-13.5-26.8-28.7-26.8c-7.6,0-14.4,3-19.6,7.8l-48.6-24.6c0.1-1,0.3-1.9,0.3-2.9    c0-0.3,0-0.6,0-0.9l-0.3-0.1c0-0.3,0.1-0.7,0.1-1c-0.1-0.4-0.1-0.9-0.2-1.3l0.3-0.2c0-0.1,0-0.3,0-0.4c0-1.2-0.2-2.3-0.3-3.4    l49-23.8c5.1,4.6,11.8,7.5,19.3,7.5c15.2,0,27.7-11.8,28.7-26.8C332,238.2,319.6,226.4,304.3,226.4z"
         style="fill:#78A5D7;" /></g></g></svg>
