<?xml version="1.0" encoding="UTF-8" standalone="no"?>
<svg
   xmlns:dc="http://purl.org/dc/elements/1.1/"
   xmlns:cc="http://creativecommons.org/ns#"
   xmlns:rdf="http://www.w3.org/1999/02/22-rdf-syntax-ns#"
   xmlns:svg="http://www.w3.org/2000/svg"
   xmlns="http://www.w3.org/2000/svg"
   xml:space="preserve"
   style="enable-background:new 0 0 512 512;"
   viewBox="0 0 512 512"
   y="0px"
   x="0px"
   id="Layer_1"
   version="1.1"><metadata
     id="metadata163"><rdf:RDF><cc:Work
         rdf:about=""><dc:format>image/svg+xml</dc:format><dc:type
           rdf:resource="http://purl.org/dc/dcmitype/StillImage" /><dc:title></dc:title></cc:Work></rdf:RDF></metadata><defs
     id="defs161" /><g
     id="g103"><radialGradient
       gradientUnits="userSpaceOnUse"
       gradientTransform="matrix(1 0 0 8.064469e-02 0 402.9344)"
       r="248.0014"
       cy="441.8271"
       cx="256"
       id="SVGID_1_"><stop
         id="stop106"
         style="stop-color:#000000;stop-opacity:0.2"
         offset="0" /><stop
         id="stop108"
         style="stop-color:#000000;stop-opacity:0"
         offset="1" /></radialGradient><ellipse
       id="ellipse110"
       ry="23"
       rx="230"
       cy="438.6"
       cx="256"
       style="fill:url(#SVGID_1_);" /><g
       id="g112"><g
         id="g114"><linearGradient
           y2="73.4346"
           x2="256.0004"
           y1="433.7987"
           x1="256.0004"
           gradientUnits="userSpaceOnUse"
           id="SVGID_2_"><stop
             id="stop117"
             style="stop-color:#78A5D7"
             offset="0" /><stop
             id="stop119"
             style="stop-color:#78A5D7"
             offset="0.1856" /><stop
             id="stop121"
             style="stop-color:#78A5D7"
             offset="0.5144" /><stop
             id="stop123"
             style="stop-color:#78A5D7"
             offset="0.9454" /><stop
             id="stop125"
             style="stop-color:#78A5D7"
             offset="1" /></linearGradient><path
           id="path127"
           d="M467.2,117.2l-240.7,0c-1.6,0-3-0.6-4.1-1.7L182,75.1c-1.1-1.1-2.6-1.7-4.1-1.7H44.8     c-3.2,0-5.8,2.6-5.8,5.8v354.5h434.1l0-310.7C473,119.9,470.4,117.2,467.2,117.2z"
           style="fill:url(#SVGID_2_);" /><path
           id="path129"
           d="M221.3,124.4l-40.4,40.4c-1,1.1-2.4,1.7-3.9,1.7H44.4c-3,0-5.5,2.7-5.5,6v260.1     c0,3.3,2.5,6,5.5,6h423.1c3,0,5.5-2.7,5.5-6v-304c0-3.3-2.5-6-5.5-6H225.2C223.8,122.6,222.4,123.2,221.3,124.4z"
           style="opacity:0.1" /><linearGradient
           y2="128.9345"
           x2="256"
           y1="438.5654"
           x1="256"
           gradientUnits="userSpaceOnUse"
           id="SVGID_3_"><stop
             id="stop132"
             style="stop-color:#D4E4F5"
             offset="0" /><stop
             id="stop134"
             style="stop-color:#D4E4F5"
             offset="0.9239" /><stop
             id="stop136"
             style="stop-color:#D4E4F5"
             offset="1" /></linearGradient><path
           id="path138"
           d="M220,130.6l-39.5,39.6c-1.1,1.1-2.6,1.7-4.1,1.7H31.8c-3.2,0-5.8,2.6-5.8,5.8v254.9     c0,3.2,2.6,5.8,5.8,5.8h448.3c3.2,0,5.8-2.6,5.8-5.8V134.8c0-3.2-2.6-5.8-5.8-5.8h-256C222.6,128.9,221.1,129.6,220,130.6z"
           style="fill:url(#SVGID_3_);" /></g></g><g
       id="g140"><g
         transform="matrix(0.14909103,0,0,0.14909103,565.15384,193.1857)"
         id="g6230"><path
           d="M-1757.6,200.4c-215.7,0-256.1,307.2-134.8,307.2     C-1771.1,507.6-1541.9,200.4-1757.6,200.4z"
           style="fill:#5A83C2;"
           id="path9" /><path
           d="M-2115.7,469.5c64.6,3.9,135.5-246.5,14.1-230.8     C-2223,254.5-2180.3,465.6-2115.7,469.5z"
           style="fill:#5A83C2;"
           id="path11" /><path
           d="M-2411.8,625.2c45.9-20.2,5.9-218-72.2-164.1     C-2562.1,515-2457.7,645.4-2411.8,625.2z"
           style="fill:#5A83C2;"
           id="path13" /><path
           d="M-2282.3,521.6c54.7-11.2,57.7-235.5-39.8-195.3     C-2419.7,366.6-2337,532.8-2282.3,521.6L-2282.3,521.6z"
           style="fill:#5A83C2;"
           id="path15" /><path
           d="M-1996.7,1023.7c9.7,74.1-54.4,110.7-117.1,62.9     c-199.8-152.1,330.8-228,295.8-435.8c-29-172.5-558.2-119.4-618.5,150.5c-40.8,182.5,167.9,435.8,385.7,435.8     c107.1,0,230.7-96.7,253.8-219.3C-1779.4,924.4-2004.8,961.9-1996.7,1023.7L-1996.7,1023.7z"
           style="fill:#5A83C2;"
           id="newshape" /></g><g
         transform="matrix(0.14909103,0,0,0.14909103,565.15384,193.1857)"
         id="g6230_1_"><path
           id="path149"
           d="M-1757.6,220.2c-131,0-197.4,113.4-202.1,202.4c2.7,48.2,25.3,85,67.3,85     c82.1,0,213.5-140.6,223.1-231.5C-1673.2,243-1698.9,220.2-1757.6,220.2z"
           style="fill:#78A5D7;" /><path
           id="path151"
           d="M-2101.6,258.6c-52.5,6.8-74.3,50.2-76.9,97.5c2.9,56.1,30,111.4,62.8,113.4     c37,2.3,76.1-79.1,79.9-146C-2038.3,283.1-2056.9,252.8-2101.6,258.6z"
           style="fill:#78A5D7;" /><path
           id="path153"
           d="M-2484,480.9c-16.8,11.6-25.2,26.8-27.4,43.3c6.8,55.5,67.5,115.1,99.7,101     c11.6-5.1,17.7-21.4,19.1-42.2C-2396.2,522.1-2431.5,444.6-2484,480.9z"
           style="fill:#78A5D7;" /><path
           id="path155"
           d="M-2322.2,346.2c-29.4,12.1-42.3,35.7-44.7,62.3c5.1,57.6,50.3,120.1,84.5,113.1     c22.3-4.5,36-44.4,37.8-87.4C-2247,378-2270.4,324.8-2322.2,346.2z"
           style="fill:#78A5D7;" /><path
           id="path157"
           d="M-2436.5,821.2c-2.7,12.3-4.3,24.9-4.8,37.8c6.7,173.9,194.9,378.2,390.5,378.2     c106.9,0,230.2-96.4,253.7-218.6c-14.6-64.3-184.6-36.1-198.7,15c0.2,5,0.1,9.9-0.4,14.5c6.5,71-56.1,105.2-117.6,58.4     c-36.9-28.1-48.8-53.6-44.1-77.8c-21.4-110.5,327.3-188.9,341.1-348.5c-0.3-3.1-0.7-6.3-1.2-9.5     C-1847.1,498.2-2376.3,551.3-2436.5,821.2z"
           style="fill:#78A5D7;" /></g></g></g></svg>
