<?xml version="1.0" encoding="utf-8"?>
<!-- Generator: Adobe Illustrator 22.0.1, SVG Export Plug-In . SVG Version: 6.00 Build 0)  -->
<svg version="1.1" id="Layer_1" xmlns="http://www.w3.org/2000/svg" xmlns:xlink="http://www.w3.org/1999/xlink" x="0px" y="0px"
	 viewBox="0 0 512 512" style="enable-background:new 0 0 512 512;" xml:space="preserve">
<style type="text/css">
	.st0{fill:#825E46;}
	.st1{fill:url(#SVGID_1_);}
	.st2{fill:url(#SVGID_2_);}
	.st3{fill:url(#SVGID_3_);}
	.st4{opacity:0.95;fill:#FF9100;enable-background:new    ;}
	.st5{opacity:0.95;enable-background:new    ;}
	.st6{fill:#FFFFFF;}
	.st7{fill:#DBDBDB;}
	.st8{fill:#F9F9F9;}
</style>
<g>
	<path class="st0" d="M411,486H101c-41.2,0-75-33.8-75-75V101c0-41.2,33.8-75,75-75h310c41.2,0,75,33.8,75,75v310
		C486,452.2,452.2,486,411,486z"/>
	<g>
		
			<linearGradient id="SVGID_1_" gradientUnits="userSpaceOnUse" x1="256" y1="71" x2="256" y2="286.7" gradientTransform="matrix(1 0 0 -1 0 514)">
			<stop  offset="0" style="stop-color:#825E46"/>
			<stop  offset="0.3286" style="stop-color:#73523C"/>
			<stop  offset="0.9622" style="stop-color:#4B3423"/>
			<stop  offset="1" style="stop-color:#483221"/>
		</linearGradient>
		<polygon class="st1" points="68.9,443 256,227.3 443.1,443 		"/>
		
			<linearGradient id="SVGID_2_" gradientUnits="userSpaceOnUse" x1="220.7" y1="258" x2="447.6" y2="258" gradientTransform="matrix(1 0 0 -1 0 514)">
			<stop  offset="0" style="stop-color:#483221"/>
			<stop  offset="0.3122" style="stop-color:#563D2A"/>
			<stop  offset="0.9016" style="stop-color:#7B5942"/>
			<stop  offset="1" style="stop-color:#825E46"/>
		</linearGradient>
		<polygon class="st2" points="447.6,445.4 220.7,256 447.6,66.6 		"/>
		
			<linearGradient id="SVGID_3_" gradientUnits="userSpaceOnUse" x1="64.4" y1="258" x2="291.3" y2="258" gradientTransform="matrix(1 0 0 -1 0 514)">
			<stop  offset="0" style="stop-color:#825E46"/>
			<stop  offset="9.840000e-02" style="stop-color:#7B5942"/>
			<stop  offset="0.6878" style="stop-color:#563D2A"/>
			<stop  offset="1" style="stop-color:#483221"/>
		</linearGradient>
		<polygon class="st3" points="64.4,445.4 291.3,256 64.4,66.6 		"/>
	</g>
	<circle class="st4" cx="256" cy="256" r="128.9"/>
	<g class="st5">
		<g>
			<path class="st6" d="M256,361.2L256,361.2c-3.5,0-6.9-0.2-10.3-0.5c-1.4-0.1-2.4-1.4-2.2-2.7s1.3-2.4,2.7-2.2
				c3.2,0.3,6.5,0.5,9.8,0.5h0.1c1.3,0,2.4,1.1,2.4,2.5C258.5,360.1,257.4,361.2,256,361.2z M266.1,360.7c-1.3,0-2.4-1-2.5-2.3
				c-0.1-1.4,0.9-2.6,2.2-2.7c3.3-0.3,6.5-0.8,9.7-1.4c1.4-0.3,2.7,0.6,2.9,2c0.3,1.4-0.6,2.7-2,2.9c-3.4,0.7-6.8,1.2-10.2,1.5
				C266.2,360.7,266.2,360.7,266.1,360.7z M236,359.3c-0.2,0-0.3,0-0.5,0c-3.4-0.7-6.7-1.5-10-2.5c-1.3-0.4-2.1-1.8-1.7-3.1
				c0.4-1.3,1.8-2.1,3.1-1.7c3.1,0.9,6.3,1.7,9.5,2.4c1.4,0.3,2.2,1.6,2,2.9C238.2,358.4,237.2,359.3,236,359.3z M285.8,356.8
				c-1.1,0-2.1-0.7-2.4-1.8c-0.4-1.3,0.3-2.7,1.7-3.1c3.1-0.9,6.2-2.1,9.3-3.3c1.3-0.5,2.7,0.1,3.3,1.4c0.5,1.3-0.1,2.7-1.4,3.3
				c-3.2,1.3-6.4,2.5-9.7,3.5C286.3,356.8,286.1,356.8,285.8,356.8z M216.7,353.4c-0.3,0-0.6-0.1-1-0.2c-3.2-1.3-6.3-2.8-9.3-4.4
				c-1.2-0.7-1.7-2.2-1-3.4c0.7-1.2,2.2-1.7,3.4-1c2.9,1.5,5.9,3,8.9,4.2c1.3,0.5,1.9,2,1.4,3.3
				C218.6,352.8,217.7,353.4,216.7,353.4z M304.4,349.1c-0.9,0-1.8-0.5-2.2-1.3c-0.7-1.2-0.2-2.7,1-3.4c2.9-1.5,5.7-3.2,8.4-5.1
				c1.1-0.8,2.7-0.5,3.5,0.7c0.8,1.1,0.5,2.7-0.7,3.5c-2.9,1.9-5.8,3.7-8.9,5.3C305.2,349,304.8,349.1,304.4,349.1z M199,343.9
				c-0.5,0-1-0.1-1.4-0.4c-2.9-1.9-5.6-4-8.3-6.2c-1.1-0.9-1.2-2.5-0.3-3.5c0.9-1.1,2.5-1.2,3.5-0.3c2.5,2.1,5.2,4,7.9,5.9
				c1.1,0.8,1.5,2.3,0.7,3.5C200.6,343.5,199.8,343.9,199,343.9z M321.2,337.9c-0.7,0-1.4-0.3-1.9-0.9c-0.9-1.1-0.7-2.6,0.3-3.5
				c2.5-2.1,5-4.3,7.3-6.6c1-1,2.6-1,3.5,0c1,1,1,2.6,0,3.5c-2.4,2.4-5,4.8-7.6,6.9C322.3,337.7,321.7,337.9,321.2,337.9z
				 M183.4,331.1c-0.6,0-1.3-0.2-1.8-0.7c-2.4-2.4-4.8-5-6.9-7.6c-0.9-1.1-0.7-2.6,0.3-3.5c1.1-0.9,2.6-0.7,3.5,0.3
				c2.1,2.5,4.3,5,6.6,7.3c1,1,1,2.6,0,3.5C184.7,330.9,184,331.1,183.4,331.1z M335.4,323.6c-0.6,0-1.1-0.2-1.6-0.6
				c-1.1-0.9-1.2-2.5-0.3-3.5c2.1-2.5,4-5.2,5.9-7.9c0.8-1.1,2.3-1.5,3.5-0.7c1.1,0.8,1.5,2.3,0.7,3.5c-1.9,2.9-4,5.6-6.2,8.3
				C336.8,323.3,336.1,323.6,335.4,323.6z M170.6,315.6c-0.8,0-1.6-0.4-2.1-1.1c-1.9-2.9-3.7-5.8-5.3-8.9c-0.7-1.2-0.2-2.7,1-3.4
				c1.2-0.7,2.7-0.2,3.4,1c1.5,2.9,3.2,5.7,5.1,8.4c0.8,1.1,0.5,2.7-0.7,3.5C171.6,315.4,171.1,315.6,170.6,315.6z M346.6,306.9
				c-0.4,0-0.8-0.1-1.2-0.3c-1.2-0.7-1.7-2.2-1-3.4c1.5-2.9,3-5.9,4.2-8.9c0.5-1.3,2-1.9,3.3-1.4s1.9,2,1.4,3.3
				c-1.3,3.2-2.8,6.3-4.4,9.3C348.4,306.4,347.5,306.9,346.6,306.9z M161.1,297.8c-1,0-1.9-0.6-2.3-1.5c-1.3-3.2-2.5-6.4-3.5-9.7
				c-0.4-1.3,0.3-2.7,1.7-3.1c1.3-0.4,2.7,0.3,3.1,1.7c0.9,3.1,2.1,6.2,3.3,9.3c0.5,1.3-0.1,2.7-1.4,3.3
				C161.7,297.8,161.4,297.8,161.1,297.8z M354.3,288.3c-0.2,0-0.5,0-0.7-0.1c-1.3-0.4-2.1-1.8-1.7-3.1c0.9-3.1,1.7-6.3,2.4-9.5
				c0.3-1.4,1.6-2.2,2.9-2c1.4,0.3,2.2,1.6,2,2.9c-0.7,3.4-1.5,6.7-2.5,10C356.4,287.6,355.4,288.3,354.3,288.3z M155.3,278.6
				c-1.2,0-2.2-0.8-2.4-2c-0.7-3.4-1.2-6.8-1.5-10.2c-0.1-1.4,0.9-2.6,2.2-2.7c1.4-0.1,2.6,0.9,2.7,2.2c0.3,3.3,0.8,6.5,1.4,9.7
				c0.3,1.4-0.6,2.7-2,2.9C155.6,278.6,155.4,278.6,155.3,278.6z M358.2,268.6c-0.1,0-0.2,0-0.2,0c-1.4-0.1-2.4-1.4-2.2-2.7
				c0.3-3.2,0.5-6.5,0.5-9.8c0-1.4,1.1-2.5,2.5-2.5s2.5,1.1,2.5,2.5l0,0c0,3.4-0.2,6.9-0.5,10.3
				C360.6,267.6,359.5,268.6,358.2,268.6z M153.3,258.5c-1.4,0-2.5-1.1-2.5-2.5l0,0c0-3.4,0.2-6.9,0.5-10.3c0.1-1.4,1.4-2.4,2.7-2.2
				c1.4,0.1,2.4,1.4,2.2,2.7c-0.3,3.2-0.5,6.5-0.5,9.8C155.8,257.4,154.7,258.5,153.3,258.5z M358.2,248.4c-1.3,0-2.4-1-2.5-2.3
				c-0.3-3.3-0.8-6.5-1.4-9.7c-0.3-1.4,0.6-2.7,2-2.9c1.4-0.3,2.7,0.6,2.9,2c0.7,3.4,1.2,6.8,1.5,10.2c0.1,1.4-0.9,2.6-2.2,2.7
				C358.4,248.4,358.3,248.4,358.2,248.4z M155.2,238.5c-0.2,0-0.3,0-0.5,0c-1.4-0.3-2.2-1.6-2-2.9c0.7-3.4,1.5-6.7,2.5-10
				c0.4-1.3,1.8-2.1,3.1-1.7c1.3,0.4,2.1,1.8,1.7,3.1c-0.9,3.1-1.7,6.3-2.4,9.5C157.5,237.7,156.4,238.5,155.2,238.5z M354.3,228.7
				c-1.1,0-2.1-0.7-2.4-1.8c-0.9-3.1-2.1-6.2-3.3-9.3c-0.5-1.3,0.1-2.7,1.4-3.3c1.3-0.5,2.7,0.1,3.3,1.4c1.3,3.2,2.5,6.4,3.5,9.7
				c0.4,1.3-0.3,2.7-1.7,3.1C354.8,228.6,354.5,228.7,354.3,228.7z M161.1,219.2c-0.3,0-0.6-0.1-1-0.2c-1.3-0.5-1.9-2-1.4-3.3
				c1.3-3.2,2.8-6.3,4.4-9.3c0.7-1.2,2.2-1.7,3.4-1s1.7,2.2,1,3.4c-1.5,2.9-3,5.9-4.2,8.9C163,218.6,162.1,219.2,161.1,219.2z
				 M346.6,210.1c-0.9,0-1.8-0.5-2.2-1.3c-1.5-2.9-3.2-5.7-5.1-8.4c-0.8-1.1-0.5-2.7,0.7-3.5c1.1-0.8,2.7-0.5,3.5,0.7
				c1.9,2.9,3.7,5.8,5.3,8.9c0.7,1.2,0.2,2.7-1,3.4C347.4,210,347,210.1,346.6,210.1z M170.6,201.5c-0.5,0-1-0.1-1.4-0.4
				c-1.1-0.8-1.5-2.3-0.7-3.5c1.9-2.9,4-5.6,6.2-8.3c0.9-1.1,2.5-1.2,3.5-0.3c1.1,0.9,1.2,2.5,0.3,3.5c-2.1,2.5-4,5.2-5.9,7.9
				C172.2,201.1,171.4,201.5,170.6,201.5z M335.4,193.3c-0.7,0-1.4-0.3-1.9-0.9c-2.1-2.5-4.3-5-6.6-7.3c-1-1-1-2.6,0-3.5
				c1-1,2.6-1,3.5,0c2.4,2.4,4.8,5,6.9,7.6c0.9,1.1,0.7,2.6-0.3,3.5C336.5,193.2,335.9,193.3,335.4,193.3z M183.4,185.9
				c-0.6,0-1.3-0.2-1.8-0.7c-1-1-1-2.6,0-3.5c2.4-2.4,5-4.8,7.6-6.9c1.1-0.9,2.6-0.7,3.5,0.3c0.9,1.1,0.7,2.6-0.3,3.5
				c-2.5,2.1-5,4.3-7.3,6.6C184.6,185.7,184,185.9,183.4,185.9z M321.1,179.1c-0.6,0-1.1-0.2-1.6-0.6c-2.5-2.1-5.2-4.1-7.9-5.9
				c-1.1-0.8-1.5-2.3-0.7-3.5c0.8-1.1,2.3-1.5,3.5-0.7c2.8,1.9,5.6,4,8.3,6.2c1.1,0.9,1.2,2.5,0.3,3.5
				C322.6,178.8,321.9,179.1,321.1,179.1z M198.9,173.1c-0.8,0-1.6-0.4-2.1-1.1c-0.8-1.1-0.5-2.7,0.7-3.5c2.9-1.9,5.8-3.7,8.8-5.3
				c1.2-0.7,2.7-0.2,3.4,1s0.2,2.7-1,3.4c-2.9,1.5-5.7,3.2-8.4,5.1C199.9,173,199.4,173.1,198.9,173.1z M304.4,167.9
				c-0.4,0-0.8-0.1-1.2-0.3c-2.9-1.5-5.9-3-8.9-4.2c-1.3-0.5-1.9-2-1.4-3.3s2-1.9,3.3-1.4c3.2,1.3,6.3,2.8,9.3,4.4
				c1.2,0.7,1.7,2.2,1,3.4C306.2,167.4,305.3,167.9,304.4,167.9z M216.7,163.6c-1,0-1.9-0.6-2.3-1.5c-0.5-1.3,0.1-2.7,1.4-3.3
				c3.2-1.3,6.4-2.5,9.7-3.5c1.3-0.4,2.7,0.3,3.1,1.7c0.4,1.3-0.3,2.7-1.7,3.1c-3.1,0.9-6.2,2.1-9.3,3.3
				C217.3,163.5,217,163.6,216.7,163.6z M285.8,160.2c-0.2,0-0.5,0-0.7-0.1c-3.1-0.9-6.3-1.7-9.5-2.4c-1.4-0.3-2.2-1.6-2-2.9
				s1.6-2.2,2.9-2c3.4,0.7,6.7,1.5,10,2.5c1.3,0.4,2.1,1.8,1.7,3.1C287.9,159.5,286.9,160.2,285.8,160.2z M235.9,157.8
				c-1.2,0-2.2-0.8-2.4-2c-0.3-1.4,0.6-2.7,2-2.9c3.4-0.7,6.8-1.2,10.2-1.5c1.4-0.1,2.6,0.9,2.7,2.2c0.1,1.4-0.9,2.6-2.2,2.7
				c-3.3,0.3-6.5,0.8-9.7,1.4C236.2,157.7,236.1,157.8,235.9,157.8z M266.1,156.3c-0.1,0-0.2,0-0.2,0c-3.2-0.3-6.5-0.5-9.8-0.5
				c-1.4,0-2.5-1.1-2.5-2.5s1.1-2.5,2.5-2.5l0,0c3.4,0,6.9,0.2,10.3,0.5c1.4,0.1,2.4,1.4,2.2,2.7
				C268.4,155.3,267.3,156.3,266.1,156.3z"/>
		</g>
	</g>
	<g>
		<path class="st7" d="M273,423c0.3,2.2-1.2,4-3.4,4h-27.2c-2.2,0-3.7-1.8-3.4-4l7.7-51.1c0.3-2.2,2.4-4,4.6-4h9.8
			c2.2,0,4.3,1.8,4.6,4L273,423z"/>
		<g>
			<path class="st7" d="M265.4,361.3c0,2.2-1.8,4-4,4h-10.8c-2.2,0-4-1.8-4-4v-10.8c0-2.2,1.8-4,4-4h10.8c2.2,0,4,1.8,4,4V361.3z"/>
			<path class="st8" d="M263,359.9c0,1.6-1.3,3-3,3h-8c-1.6,0-3-1.3-3-3v-8.1c0-1.6,1.3-3,3-3h8.1c1.6,0,3,1.3,3,3v8.1H263z"/>
		</g>
		<path class="st8" d="M269.5,415.4c0.3,1.7-1,3.1-2.7,3.1h-21.6c-1.8,0-3-1.4-2.7-3.1l6.1-40.6c0.3-1.7,1.9-3.1,3.7-3.1h7.8
			c1.8,0,3.4,1.4,3.6,3.1L269.5,415.4z"/>
	</g>
	<g>
		<path class="st8" d="M255.2,228.2l-22.5,51.6h-12.2L243,231h-28.9v-9.3h41L255.2,228.2L255.2,228.2z"/>
		<path class="st8" d="M276.3,270.6h21.1v9.3h-35.8v-7l20.3-26.8h-19.7v-9.3h34.6v6.8L276.3,270.6z"/>
	</g>
</g>
</svg>
