<?xml version="1.0" encoding="utf-8"?>
<!-- Generator: Adobe Illustrator 18.0.0, SVG Export Plug-In . SVG Version: 6.00 Build 0)  -->
<!DOCTYPE svg PUBLIC "-//W3C//DTD SVG 1.1//EN" "http://www.w3.org/Graphics/SVG/1.1/DTD/svg11.dtd">
<svg version="1.1" id="Layer_1" xmlns="http://www.w3.org/2000/svg" xmlns:xlink="http://www.w3.org/1999/xlink" x="0px" y="0px"
	 viewBox="0 0 512 512" style="enable-background:new 0 0 512 512;" xml:space="preserve">
<path style="fill:#EFEDED;" d="M469.6,398.1l-286,104c-2.6,1-5.4-0.4-6.4-3L39.3,120.3c-1-2.6,0.4-5.4,3-6.4L328.3,10
	c2.6-1,5.4,0.4,6.4,3l137.9,378.8C473.6,394.2,472.2,397.1,469.6,398.1z"/>
<path style="fill:#E2E2E2;" d="M441.7,433L142,485.8c-2.7,0.5-5.3-1.3-5.8-4.1l-70-397c-0.5-2.7,1.3-5.3,4.1-5.8L370,26.2
	c2.7-0.5,5.3,1.3,5.8,4.1l70,397C446.3,429.9,444.4,432.5,441.7,433z"/>
<path style="fill:#509BD4;" d="M408.2,462.6H103.8c-2.8,0-5-2.2-5-5V54.4c0-2.8,2.2-5,5-5h304.3c2.8,0,5,2.2,5,5v403.1
	C413.2,460.3,410.9,462.6,408.2,462.6z"/>
<g id="g218" transform="translate(257.6594,298.3256)">
	<path id="path220" style="fill:#FFFFFF;" d="M0-85.4C14.2-85.1,71,25.9,71,25.9C70.5,0.1,58.5-35.3,43.7-64.1
		C28.9-93,11.3-115.3-0.5-115c-23.5,0.5-74,101.3-73.9,136.2c0.5,9.1,9.9,9,16.1,9.2c41.4-8.6,96.5-45.1,98.3-47.9
		c0,0-84.5,27.5-89,19C-53.6-7.2-14.4-85.8,0-85.4"/>
</g>
</svg>
