<?xml version="1.0" encoding="utf-8"?>
<!-- Generator: Adobe Illustrator 18.0.0, SVG Export Plug-In . SVG Version: 6.00 Build 0)  -->
<!DOCTYPE svg PUBLIC "-//W3C//DTD SVG 1.1//EN" "http://www.w3.org/Graphics/SVG/1.1/DTD/svg11.dtd">
<svg version="1.1" id="Layer_1" xmlns="http://www.w3.org/2000/svg" xmlns:xlink="http://www.w3.org/1999/xlink" x="0px" y="0px"
	 viewBox="0 0 512 512" enable-background="new 0 0 512 512" xml:space="preserve">
<g>
	<circle fill="#0D1529" cx="256" cy="256" r="230"/>
	<path fill="#12264B" d="M256,220.1c-23.8,0-48.5,1.9-73.4,5.5c15.1,20.2,31.2,39,48,55.8c9.8,9.8,20.4,19.5,31.5,28.8
		c28.9-0.5,58.1-4.4,87.1-11.8c-17.6-29.2-37.5-55.1-59.3-77.2C278.5,220.5,267.1,220.1,256,220.1z"/>
	<path fill="#5682C2" d="M256,204.1c5.3,0,10.7,0.1,16,0.3c-58.1-51.5-123.2-76.8-152.5-86.2c8.5,19.2,25.7,54.3,52.5,92.9
		C200.6,206.4,228.8,204.1,256,204.1z"/>
	<path fill="#365DAB" d="M451,257.5c-23.6-9.1-74.5-26.5-137-33.8c18.6,20.8,35.8,44.5,51.2,70.5C404.9,282.3,435,266.8,451,257.5z"
		/>
	<path fill="#8EB3DF" d="M219.2,292.8c-20.3-20.3-39.6-43.4-57.4-68.4c-31.7-44.8-50.7-84.9-58.9-104.1c-0.3,0.3-1.8,2-1.8,2
		c-0.9,1-1.7,2-2.5,3l-0.6,0.7c-0.9,1.1-1.8,2.3-2.7,3.4l-0.3,0.4c-1,1.2-1.9,2.5-2.9,3.8c-5.9,7.9-11.2,16.2-15.9,24.8l-0.1,0.2
		c-0.7,1.4-1.4,2.7-2.1,4.1l-0.3,0.5c-0.6,1.2-1.2,2.5-1.9,3.7l-0.5,1c-0.5,1.1-1,2.2-1.5,3.3c-0.2,0.5-0.5,1-0.7,1.6
		c-0.4,0.9-0.8,1.8-1.2,2.8c-0.3,0.7-0.6,1.4-0.9,2.2c-0.3,0.7-0.6,1.5-0.9,2.2c-0.4,0.9-0.7,1.9-1.1,2.8l-0.6,1.6
		c-0.4,1.1-0.8,2.3-1.2,3.4l-0.4,1c-0.5,1.3-0.9,2.6-1.4,4.1l-0.1,0.4c-0.5,1.5-0.9,2.9-1.4,4.4l0,0.2c-2.8,9.4-4.9,19.1-6.3,28.7
		l0,0.2c-0.2,1.6-0.4,3.1-0.6,4.7l-0.1,0.5c-0.2,1.4-0.3,2.9-0.5,4.3l-0.1,1c-0.1,1.3-0.2,2.6-0.3,3.9l-0.1,1.6
		c-0.1,1.1-0.1,2.2-0.2,3.3c0,0.6,0,1.2-0.1,1.7l-0.1,1.5c0,0.6,0,1.1-0.1,1.7c0,0.2,0,0.4,0,0.6c17.2,10.4,93,52.9,185.6,58.2
		C230.9,304.2,224.9,298.5,219.2,292.8z"/>
	<path fill="#4E81C2" d="M259.3,326.4l-0.9,0c-0.8,0-1.6,0-2.4,0c-94.5,0-173.8-38.9-204-55.9l0,0.5c0.1,1.3,0.2,2.6,0.3,3.9l0.1,1
		c0.1,1.4,0.3,2.9,0.5,4.4l0.1,0.4c0.2,1.6,0.4,3.1,0.6,4.5l0,0.3c1.4,9.7,3.5,19.4,6.3,28.8l0,0.2c0.4,1.5,0.9,2.9,1.4,4.4l0.2,0.6
		c0.4,1.3,0.9,2.6,1.3,3.9l0.4,1c0.4,1.1,0.8,2.3,1.2,3.4l0.6,1.6c0.4,0.9,0.7,1.9,1.1,2.8c0.3,0.7,0.6,1.5,0.9,2.2
		c0.3,0.7,0.6,1.5,0.9,2.2c0.4,0.9,0.8,1.8,1.2,2.8c0.2,0.5,0.5,1,0.7,1.6c0.5,1.1,1,2.2,1.5,3.3l0.5,1c0.6,1.2,1.2,2.5,1.9,3.7
		l0.3,0.5c0.7,1.4,1.4,2.7,2.2,4.1l0.1,0.1c4.7,8.6,10,16.9,16,24.9c0.9,1.3,1.9,2.5,2.9,3.7l0.3,0.4c0.9,1.1,1.8,2.3,2.7,3.4
		l0.6,0.8c0.8,1,1.7,2,2.5,3l1.1,1.2c0.7,0.8,1.4,1.7,2.2,2.5c0.4,0.4,0.8,0.8,1.2,1.3l0.5,0.5c0,0,1.3,1.4,1.7,1.8
		c1.2,1.2,2.3,2.4,3.5,3.6c1.2,1.2,2.4,2.4,3.6,3.5c0.4,0.4,0.9,0.8,1.3,1.2l0.6,0.5c0,0,1.4,1.3,1.8,1.7c0.8,0.8,1.7,1.5,2.5,2.2
		l1.2,1c1,0.9,2,1.7,3,2.5l0.7,0.6c1.1,0.9,2.3,1.8,3.4,2.7l0.4,0.3c1.2,1,2.5,1.9,3.8,2.9c7.8,5.9,16.2,11.2,24.8,15.9l0.2,0.1
		c1.4,0.7,2.7,1.5,4,2.1l0.6,0.3c1.2,0.6,2.5,1.2,3.7,1.8l1,0.5c1.1,0.5,2.2,1,3.3,1.5l1.6,0.7c0.9,0.4,1.8,0.8,2.8,1.2
		c0.7,0.3,1.4,0.6,2.2,0.9c0.7,0.3,1.5,0.6,2.2,0.9c0.9,0.4,1.9,0.7,2.9,1.1l1.5,0.6c1.1,0.4,2.3,0.8,3.4,1.2l1,0.4
		c1.3,0.5,2.6,0.9,3.9,1.3l0.6,0.2c1.5,0.5,2.9,0.9,4.4,1.4l0.2,0c9.4,2.8,19,4.9,28.7,6.3l0.2,0c1.6,0.2,3.1,0.4,4.6,0.6l0.5,0.1
		c1.4,0.2,2.9,0.3,4.3,0.5l1,0.1c1.3,0.1,2.6,0.2,3.9,0.3l1.6,0.1c1.1,0.1,2.2,0.1,3.3,0.2c0.6,0,3.2,0.1,3.2,0.1
		c0.6,0,1.2,0,1.8,0.1c1.7,0,3.4,0.1,5.1,0.1s3.4,0,5.1-0.1c0.6,0,1.2,0,1.8-0.1l0.7,0c0,0,1.9-0.1,2.5-0.1c1.1-0.1,2.2-0.1,3.3-0.2
		l1.6-0.1c1.3-0.1,2.6-0.2,3.9-0.3l0.9-0.1c1.4-0.1,2.9-0.3,4.4-0.5l0.4-0.1c1.6-0.2,3.1-0.4,4.8-0.6c9.7-1.4,19.4-3.5,28.7-6.3
		l0.2-0.1c1.5-0.4,2.9-0.9,4.4-1.4l0.6-0.2c1.3-0.4,2.6-0.9,4-1.3l1-0.4c1.1-0.4,2.3-0.8,3.4-1.2l1.6-0.6c0.9-0.4,1.9-0.7,2.8-1.1
		c0.7-0.3,1.5-0.6,2.2-0.9c0.7-0.3,1.5-0.6,2.2-0.9c0.9-0.4,1.8-0.8,2.8-1.2l1.5-0.7c1.1-0.5,2.2-1,3.3-1.5l1-0.5
		c1.2-0.6,2.5-1.2,3.8-1.9l0.5-0.2c1.4-0.7,2.7-1.4,4.1-2.2l0.1-0.1c8.6-4.7,16.9-10,24.9-16c1.3-0.9,2.5-1.9,3.7-2.9l0.4-0.3
		c1.1-0.9,2.3-1.8,3.4-2.7l0.7-0.6c1-0.8,2-1.7,3-2.5l1.3-1.1c0.8-0.7,1.6-1.4,2.4-2.1c0.4-0.4,2.4-2.2,2.4-2.2
		c0.4-0.4,0.8-0.8,1.2-1.2c1.2-1.2,2.4-2.3,3.6-3.5c1.2-1.2,2.4-2.4,3.5-3.6c0.4-0.4,0.8-0.8,1.2-1.2c0,0,1.9-2,2.2-2.4
		c0.7-0.8,1.4-1.6,2.1-2.4l1.1-1.3c0.9-1,1.7-2,2.6-3l0.6-0.7c0.9-1.1,1.8-2.3,2.7-3.4l0.3-0.4c1-1.2,1.9-2.5,2.9-3.8
		c5.9-7.9,11.2-16.2,15.9-24.8l0.1-0.1c0.7-1.4,1.4-2.7,2.1-4l0.3-0.6c0.6-1.2,1.2-2.5,1.8-3.7l0.5-1c0.5-1.1,1-2.2,1.5-3.3l0.7-1.6
		c0.4-0.9,0.8-1.8,1.2-2.8c0.3-0.7,0.6-1.4,0.9-2.2c0.3-0.7,0.6-1.5,0.9-2.2c0.4-0.9,0.7-1.9,1.1-2.8l0.6-1.6
		c0.4-1.1,0.8-2.3,1.3-3.6l0.3-0.9c0.5-1.3,0.9-2.6,1.3-4l0.2-0.6c0.5-1.5,0.9-2.9,1.4-4.4l0-0.2c2.8-9.4,4.9-19,6.3-28.7l0-0.2
		c0.2-1.6,0.4-3.1,0.6-4.6l0.1-0.5c0.2-1.4,0.3-2.9,0.5-4.3l0.1-1c0.1-1.3,0.2-2.6,0.3-3.9l0-0.1c-17.4,10.2-51.1,27.7-96.3,40.4
		C329,321,293.9,326.1,259.3,326.4z"/>
</g>
</svg>
