<?xml version="1.0" encoding="UTF-8" standalone="no"?>
<!DOCTYPE svg PUBLIC "-//W3C//DTD SVG 1.1//EN" "http://www.w3.org/Graphics/SVG/1.1/DTD/svg11.dtd">
<svg width="100%" height="100%" viewBox="0 0 512 512" version="1.1" xmlns="http://www.w3.org/2000/svg" xmlns:xlink="http://www.w3.org/1999/xlink" xml:space="preserve" xmlns:serif="http://www.serif.com/" style="fill-rule:evenodd;clip-rule:evenodd;stroke-linejoin:round;stroke-miterlimit:1.41421;">
    <path d="M446,486L66,486C44,486 26,468 26,446L26,66C26,44 44,26 66,26L446,26C468,26 486,44 486,66L486,446C486,468 468,486 446,486Z" style="fill:rgb(4,110,175);fill-rule:nonzero;"/>
    <g>
        <rect x="387.1" y="326" width="98.9" height="70" style="fill:rgb(59,151,211);"/>
        <rect x="387.1" y="256" width="98.9" height="70" style="fill:rgb(105,193,134);"/>
        <rect x="387.1" y="186" width="98.9" height="70" style="fill:rgb(240,197,25);"/>
        <rect x="387.1" y="116" width="98.9" height="70" style="fill:rgb(231,77,61);"/>
    </g>
    <path d="M374,486L66,486C44,486 26,468 26,446L26,66C26,44 44,26 66,26L374,26C396.1,26 414,43.9 414,66L414,446C414,468.1 396.1,486 374,486Z" style="fill:rgb(0,134,255);fill-rule:nonzero;"/>
    <path id="path50" d="M268.94,248.4L268.94,168.7C268.94,140.4 246.04,117.5 217.74,117.5C189.44,117.5 166.54,140.4 166.54,168.7L166.54,248.4C156.64,260.1 150.74,275.1 150.74,291.6C150.74,328.6 180.74,358.6 217.74,358.6C254.74,358.6 284.74,328.6 284.74,291.6C284.74,275.1 278.84,260 268.94,248.4ZM223.84,289.8L223.84,312C223.84,315.3 221.14,318.1 217.74,318.1C214.34,318.1 211.64,315.4 211.64,312L211.64,289.8C207.44,287.6 204.54,283.2 204.54,278.1C204.54,270.8 210.44,265 217.64,265C224.84,265 230.74,270.9 230.74,278.1C230.84,283.2 228.04,287.6 223.84,289.8ZM256.54,236.9C245.54,229.1 232.24,224.5 217.74,224.5C203.24,224.5 189.84,229.1 178.94,236.9L178.94,168.6C178.94,147.2 196.34,129.8 217.74,129.8C239.14,129.8 256.54,147.2 256.54,168.6L256.54,236.9Z" style="fill:white;fill-rule:nonzero;"/>
</svg>
