<?xml version="1.0" encoding="utf-8"?>
<!-- Generator: Adobe Illustrator 18.0.0, SVG Export Plug-In . SVG Version: 6.00 Build 0)  -->
<!DOCTYPE svg PUBLIC "-//W3C//DTD SVG 1.1//EN" "http://www.w3.org/Graphics/SVG/1.1/DTD/svg11.dtd">
<svg version="1.1" id="Layer_1" xmlns="http://www.w3.org/2000/svg" xmlns:xlink="http://www.w3.org/1999/xlink" x="0px" y="0px"
	 viewBox="0 0 512 512" style="enable-background:new 0 0 512 512;" xml:space="preserve">
<g>
	<linearGradient id="SVGID_1_" gradientUnits="userSpaceOnUse" x1="26" y1="256" x2="486" y2="256">
		<stop  offset="0" style="stop-color:#FFCD0A"/>
		<stop  offset="1" style="stop-color:#FFCD0A"/>
	</linearGradient>
	<circle style="fill:url(#SVGID_1_);" cx="256" cy="256" r="230"/>
	<g>
		<g>
			<path style="fill:#F6B477;" d="M362.39,265.326c0,58.758-39.206,113.637-106.041,113.637
				c-67.951,0-106.739-54.879-106.739-113.637H362.39z"/>
			<path style="fill:#FFFFFF;" d="M362.39,265.326c0,58.758-47.633,100.36-106.39,100.36s-106.39-41.602-106.39-100.36H362.39z"/>
		</g>
		<g>
			<g>
				<circle style="fill:#FFFFFF;" cx="170.256" cy="190.626" r="57.59"/>
				<path style="fill:#010101;" d="M214.823,190.046c0,24.328-19.722,0-44.05,0s-44.05,24.328-44.05,0s19.722-44.05,44.05-44.05
					S214.823,165.716,214.823,190.046z"/>
			</g>
			<g>
				<circle style="fill:#FFFFFF;" cx="341.744" cy="190.626" r="57.59"/>
				<path style="fill:#010101;" d="M386.311,190.046c0,24.328-19.722,0-44.05,0s-44.05,24.328-44.05,0s19.722-44.05,44.05-44.05
					S386.311,165.716,386.311,190.046z"/>
			</g>
		</g>
	</g>
</g>
</svg>
