<?xml version="1.0" encoding="utf-8"?>
<!-- Generator: Adobe Illustrator 18.0.0, SVG Export Plug-In . SVG Version: 6.00 Build 0)  -->
<!DOCTYPE svg PUBLIC "-//W3C//DTD SVG 1.1//EN" "http://www.w3.org/Graphics/SVG/1.1/DTD/svg11.dtd">
<svg version="1.1" id="Layer_1" xmlns="http://www.w3.org/2000/svg" xmlns:xlink="http://www.w3.org/1999/xlink" x="0px" y="0px"
	 viewBox="0 0 512 512" enable-background="new 0 0 512 512" xml:space="preserve">
<g>
	<path fill="#7DB342" d="M256,26C142.4,26,50.1,118.3,50.1,231.9H256h205.9C462.1,118.1,369.8,26,256,26z"/>
	<path fill="#8CC349" d="M256,231.9H50.1c0,113.6,92.3,205.9,205.9,205.9s205.9-92.3,205.9-205.9H256z"/>
	<path fill="#E1E1E1" d="M421.1,447.5c-0.2-1.9-0.7-3.6-1.7-5.2l0,0l-59.9-103.9l-19.8-34.6l-37.1-64L274.3,268l34.8,60.5l19.1,33.1
		l57.8,100c0.9,1.7,2.2,3,3.7,3.9l28.8,19.7c1.1,0.7,2.4,0.7,3.6,0.2l0,0l0,0c1.1-0.7,1.7-1.9,1.7-3.2L421.1,447.5z"/>
	<path fill="#F2F2F2" d="M366.2,231.9c0,27.3-10.1,52.4-26.8,71.9c-8.6,9.9-18.7,18.3-30.3,24.7c-15.7,8.8-33.9,13.7-53.2,13.7
		s-37.4-5.1-53-13.7l34.8-60.5l-28.3-28.3l-117,202.5c-0.9,1.7-1.5,3.4-1.7,5.2l-2.6,34.8c-0.2,1.3,0.6,2.4,1.7,3.2l0,0l0,0
		c1.1,0.7,2.4,0.6,3.6-0.2l28.8-19.5c1.5-1.1,2.8-2.4,3.7-3.9l0,0l57.8-100.1c21.3,12,46,18.9,72.3,18.9c26.2,0,50.9-6.9,72.3-18.9
		c11.4-6.4,21.9-14.2,31.1-23.2c27.7-27,45.1-64.8,45.1-106.5L366.2,231.9L366.2,231.9z"/>
	<path fill="#656565" d="M291.9,155.3h-12V117v-0.2h-24h-23.8v0.2v38.4h-12.2c-11.8,0-21.5,9.7-21.5,21.5v48.9h0.2
		c-0.2,1.9,0.9,3.9,3.4,6.4l43.2,43.2c3,3,6.9,4.5,10.7,4.5v-0.2l0.2,0.2c3.9,0,7.9-1.5,10.7-4.5l43.2-43.2c2.4-2.4,3.4-4.7,3.4-6.4
		h0.2v-48.7C313.5,165.1,303.9,155.3,291.9,155.3z M256.2,231.9H256l0,0c-15.7,0-28.6-12.9-28.6-28.8s12.9-28.8,28.6-28.8v-0.4
		l0.2,0.4c15.7,0.2,28.6,12.9,28.6,28.8S271.9,231.7,256.2,231.9z"/>
</g>
</svg>
