<?xml version="1.0" encoding="utf-8"?>
<!-- Generator: Adobe Illustrator 18.0.0, SVG Export Plug-In . SVG Version: 6.00 Build 0)  -->
<!DOCTYPE svg PUBLIC "-//W3C//DTD SVG 1.1//EN" "http://www.w3.org/Graphics/SVG/1.1/DTD/svg11.dtd">
<svg version="1.1" id="Layer_1" xmlns="http://www.w3.org/2000/svg" xmlns:xlink="http://www.w3.org/1999/xlink" x="0px" y="0px"
	 viewBox="0 0 512 512" enable-background="new 0 0 512 512" xml:space="preserve">
<path id="path236" opacity="0.4" d="M376.1,307c-8.9-0.1-17.9,0-26.8,0c-1.3,0-2-0.3-2.6-1.6c-6.6-13.7-13.3-27.4-20-41.1
	c-0.6-1.2-1.1-2.5-1.7-3.7c0.5-0.7,1.2-0.5,1.9-0.5c16.8,0,33.6-0.1,50.4-0.1c0.4,0,0.8,0.1,1.1,0.1c0,14.7,0,29.5,0.1,44.2
	C378.6,306.3,378.3,307,376.1,307 M374.5,368.8c-2.7,5.5-8.5,9-15.5,9c-3.1,0.1-6-1.8-8.2-4.9c-4.8-6.8-8.2-14.3-11.3-21.9
	c-3.4-8.2-6.1-16.6-8.9-25c-0.3-0.8-0.1-0.9,0.5-1.3c4.2-2.4,8.4-4.8,12.5-7.3c1.5-0.9,2.4-0.9,3.6,0.5c7.5,9.3,14.2,19.1,20.2,29.3
	c2.3,4,4.6,8.1,6.8,12.1C375.9,362.5,376.1,365.6,374.5,368.8 M326.3,319.4c-5-8.3-10.1-16.6-15.1-25c-0.5-0.9-1-1.6,0.4-2.4
	c5.4-3.1,10.8-6.3,16.2-9.4c0.2-0.1,0.4-0.2,0.6-0.3c0.7-0.1,0.9,0.5,1.1,0.9c4.4,8.8,8.8,17.6,13.2,26.4c0.5,1.1,0.1,1.4-0.7,1.9
	c-4.6,2.8-9.1,5.5-13.6,8.4C327.3,320.5,326.9,320.4,326.3,319.4 M308.3,307c-33.7,0-67.4,0.1-101.1,0.1c-0.4,0-0.8,0-1.1,0
	c-1.7,0.1-1.6-0.5-0.9-1.7c3.6-6.2,7.4-12.3,11.2-18.4c4.9-7.8,9.6-15.8,14.4-23.7c0.6-1,1.2-2.1,1.8-3.2c0.8-0.5,1.6-0.4,2.4-0.4
	c15.6,0,31.1-0.1,46.7-0.1c0.8,0,1.7-0.2,2.4,0.4c6.7,11.3,13.5,22.5,20.2,33.8c2.5,4.2,5,8.4,7.7,13C310.5,307,309.4,307,308.3,307
	 M175.4,339.5c-7.6-5.2-15.2-10.4-22.9-15.6c-0.9-0.6-0.3-1-0.1-1.4c1.2-2.2,2.5-4.4,3.8-6.5c9.5-16,18.9-32,28.4-48
	c0.8-1.4,1.6-2.8,2.4-4.1c5.4-9,10.8-18.1,16.2-27.1c1.8-3.1,3.7-6.1,5.4-9.2c0.6-1.1,1.1-1.3,2.2-0.5c7.8,5.1,15.6,10.2,23.4,15.2
	c0.8,0.5,1.3,1,0.7,1.9c-6.3,10.3-12.5,20.6-18.8,30.9c-12.8,21.2-25.7,42.4-38.5,63.7C177,339.5,176.8,340.4,175.4,339.5
	 M139.4,374.2c-0.2-0.1-0.3-0.1-0.5-0.2c3.3-14.8,6.6-29.6,10-44.7c8.3,5.7,16.2,11.2,24.4,16.9
	C161.9,355.6,150.7,364.9,139.4,374.2 M133.6,304.9c0-13.7,0-27.3-0.1-41c0-1.1,0-2.1-0.1-3.2c0.5-1.2,1.5-0.8,2.4-0.8
	c10.2,0.1,20.3,0.2,30.5,0.3c4.3,0,8.6,0,12.8,0.1c0.7,0,1.5-0.3,2.1,0.4c-5.1,8.4-10.2,16.9-15.3,25.3c-3.9,6.5-7.8,13-11.6,19.5
	c-0.8,1.4-1.8,2-3.4,1.9c-5-0.1-9.9-0.2-14.9,0C133.9,307.5,133.6,306.8,133.6,304.9 M212.1,221.6c4.5-7.3,9.1-14.6,13.6-22
	c0.6-0.9,1.1-0.9,1.8-0.3c7.8,5.1,15.5,10.3,23.3,15.4c0.3,0.2,0.7,0.4,0.7,0.9c-0.2,0.2-0.4,0.4-0.5,0.7c-4.5,7.4-9,14.7-13.4,22.1
	c-0.9,1.4-1.5,0.4-2.1,0c-6.9-4.5-13.8-9.1-20.6-13.7c-0.7-0.5-1.4-1-2.1-1.3C211.6,223.1,211.5,222.6,212.1,221.6 M228.7,194.5
	c2.5-4.1,5.7-6.8,11.1-6.9c6.5,0.8,11.9,4.2,15.3,10.3c1.7,3,0.7,6.3-0.3,9.3c-1.7,4.9-1.7,4.8-6,2c-6.6-4.3-13.1-8.6-19.7-12.8
	C228.2,195.8,228,195.6,228.7,194.5 M244.9,144.6c3.1,1.3,5.6,3.4,7.8,5.8c6,6.4,10.9,13.7,15.5,21.1c14,22.3,26.5,45.5,39,68.7
	c3.4,6.3,6.8,12.7,10.2,19.1c2.9,5.6,5.8,11.3,8.7,16.9c0.8,1.4,0.8,2.1-0.8,3c-4.8,2.6-9.5,5.5-14.3,8.2c-2.7,1.6-2.7,1.6-4.4-1.1
	c-9.6-14.6-18.1-29.9-26.3-45.3c-1-1.8-1.7-3.7-3.1-5.3c0.1-0.1,0-0.2,0-0.3c-0.2-0.2-0.3-0.4-0.5-0.7c0.1-0.1,0.1-0.2,0-0.3
	c-0.2-0.2-0.3-0.4-0.4-0.6c0.1-0.1,0.1-0.2,0-0.3c-0.1-0.2-0.3-0.4-0.4-0.6c0-0.3-0.1-0.5-0.1-0.8c-0.1-0.1-0.2-0.3-0.4-0.4l0.1,0
	c-1.7-3.4-3.4-6.7-5.1-10.1c-0.1-0.2-0.1-0.3-0.2-0.5c-0.1-0.1-0.2-0.3-0.3-0.4c-0.1-0.2-0.1-0.3-0.2-0.5c-0.1-0.1-0.2-0.3-0.3-0.4
	c-0.1-0.2-0.1-0.3-0.2-0.5c-0.1-0.1-0.2-0.3-0.3-0.4c-0.1-0.2-0.1-0.3-0.2-0.5c-0.1-0.1-0.2-0.3-0.3-0.4
	c-7.5-15.6-14.9-31.4-21.7-47.3c-2.8-6.6-5.3-13.5-6.1-20.8c-0.1-0.8-0.2-1.5-0.2-2.3C240.4,144.6,242.1,143.5,244.9,144.6
	 M486,288.6v-55.2L434.2,215c-4.4-16.9-11.1-32.8-19.7-47.4l0.1-0.1l23.6-49.7l-39-39l-49.7,23.6l-0.1,0.1
	c-14.6-8.7-30.5-15.4-47.4-19.7L283.6,31h-55.2L210,82.8c-16.9,4.4-32.8,11.1-47.4,19.7l-0.1-0.1l-49.7-23.6l-39,39l23.6,49.7
	l0.1,0.1c-8.7,14.6-15.4,30.5-19.7,47.4L26,233.4v55.2L77.8,307c4.4,16.9,11.1,32.8,19.7,47.4l-0.1,0.1l-23.6,49.7l39,39l49.7-23.6
	l0.1-0.1c14.6,8.7,30.5,15.4,47.4,19.7l18.4,51.8h55.2l18.4-51.8c16.9-4.4,32.8-11.1,47.4-19.7l0.1,0.1l49.7,23.6l39-39l-23.6-49.7
	l-0.1-0.1c8.7-14.6,15.4-30.5,19.7-47.4L486,288.6L486,288.6z"/>
<linearGradient id="path236_2_" gradientUnits="userSpaceOnUse" x1="256" y1="486" x2="256" y2="26">
	<stop  offset="0" style="stop-color:#F7911E"/>
	<stop  offset="1" style="stop-color:#F1603D"/>
</linearGradient>
<path id="path236_1_" fill="url(#path236_2_)" d="M376.1,302c-8.9-0.1-17.9,0-26.8,0c-1.3,0-2-0.3-2.6-1.6
	c-6.6-13.7-13.3-27.4-20-41.1c-0.6-1.2-1.1-2.5-1.7-3.7c0.5-0.7,1.2-0.5,1.9-0.5c16.8,0,33.6-0.1,50.4-0.1c0.4,0,0.8,0.1,1.1,0.1
	c0,14.7,0,29.5,0.1,44.2C378.6,301.3,378.3,302,376.1,302 M374.5,363.8c-2.7,5.5-8.5,9-15.5,9c-3.1,0.1-6-1.8-8.2-4.9
	c-4.8-6.8-8.2-14.3-11.3-21.9c-3.4-8.2-6.1-16.6-8.9-25c-0.3-0.8-0.1-0.9,0.5-1.3c4.2-2.4,8.4-4.8,12.5-7.3c1.5-0.9,2.4-0.9,3.6,0.5
	c7.5,9.3,14.2,19.1,20.2,29.3c2.3,4,4.6,8.1,6.8,12.1C375.9,357.5,376.1,360.6,374.5,363.8 M326.3,314.4c-5-8.3-10.1-16.6-15.1-25
	c-0.5-0.9-1-1.6,0.4-2.4c5.4-3.1,10.8-6.3,16.2-9.4c0.2-0.1,0.4-0.2,0.6-0.3c0.7-0.1,0.9,0.5,1.1,0.9c4.4,8.8,8.8,17.6,13.2,26.4
	c0.5,1.1,0.1,1.4-0.7,1.9c-4.6,2.8-9.1,5.5-13.6,8.4C327.3,315.5,326.9,315.4,326.3,314.4 M308.3,302c-33.7,0-67.4,0.1-101.1,0.1
	c-0.4,0-0.8,0-1.1,0c-1.7,0.1-1.6-0.5-0.9-1.7c3.6-6.2,7.4-12.3,11.2-18.4c4.9-7.8,9.6-15.8,14.4-23.7c0.6-1,1.2-2.1,1.8-3.2
	c0.8-0.5,1.6-0.4,2.4-0.4c15.6,0,31.1-0.1,46.7-0.1c0.8,0,1.7-0.2,2.4,0.4c6.7,11.3,13.5,22.5,20.2,33.8c2.5,4.2,5,8.4,7.7,13
	C310.5,302,309.4,302,308.3,302 M175.4,334.5c-7.6-5.2-15.2-10.4-22.9-15.6c-0.9-0.6-0.3-1-0.1-1.4c1.2-2.2,2.5-4.4,3.8-6.5
	c9.5-16,18.9-32,28.4-48c0.8-1.4,1.6-2.8,2.4-4.1c5.4-9,10.8-18.1,16.2-27.1c1.8-3.1,3.7-6.1,5.4-9.2c0.6-1.1,1.1-1.3,2.2-0.5
	c7.8,5.1,15.6,10.2,23.4,15.2c0.8,0.5,1.3,1,0.7,1.9c-6.3,10.3-12.5,20.6-18.8,30.9c-12.8,21.2-25.7,42.4-38.5,63.7
	C177,334.5,176.8,335.4,175.4,334.5 M139.4,369.2c-0.2-0.1-0.3-0.1-0.5-0.2c3.3-14.8,6.6-29.6,10-44.7c8.3,5.7,16.2,11.2,24.4,16.9
	C161.9,350.6,150.7,359.9,139.4,369.2 M133.6,299.9c0-13.7,0-27.3-0.1-41c0-1.1,0-2.1-0.1-3.2c0.5-1.2,1.5-0.8,2.4-0.8
	c10.2,0.1,20.3,0.2,30.5,0.3c4.3,0,8.6,0,12.8,0.1c0.7,0,1.5-0.3,2.1,0.4c-5.1,8.4-10.2,16.9-15.3,25.3c-3.9,6.5-7.8,13-11.6,19.5
	c-0.8,1.4-1.8,2-3.4,1.9c-5-0.1-9.9-0.2-14.9,0C133.9,302.5,133.6,301.8,133.6,299.9 M212.1,216.6c4.5-7.3,9.1-14.6,13.6-22
	c0.6-0.9,1.1-0.9,1.8-0.3c7.8,5.1,15.5,10.3,23.3,15.4c0.3,0.2,0.7,0.4,0.7,0.9c-0.2,0.2-0.4,0.4-0.5,0.7c-4.5,7.4-9,14.7-13.4,22.1
	c-0.9,1.4-1.5,0.4-2.1,0c-6.9-4.5-13.8-9.1-20.6-13.7c-0.7-0.5-1.4-1-2.1-1.3C211.6,218.1,211.5,217.6,212.1,216.6 M228.7,189.5
	c2.5-4.1,5.7-6.8,11.1-6.9c6.5,0.8,11.9,4.2,15.3,10.3c1.7,3,0.7,6.3-0.3,9.3c-1.7,4.9-1.7,4.8-6,2c-6.6-4.3-13.1-8.6-19.7-12.8
	C228.2,190.8,228,190.6,228.7,189.5 M244.9,139.6c3.1,1.3,5.6,3.4,7.8,5.8c6,6.4,10.9,13.7,15.5,21.1c14,22.3,26.5,45.5,39,68.7
	c3.4,6.3,6.8,12.7,10.2,19.1c2.9,5.6,5.8,11.3,8.7,16.9c0.8,1.4,0.8,2.1-0.8,3c-4.8,2.6-9.5,5.5-14.3,8.2c-2.7,1.6-2.7,1.6-4.4-1.1
	c-9.6-14.6-18.1-29.9-26.3-45.3c-1-1.8-1.7-3.7-3.1-5.3c0.1-0.1,0-0.2,0-0.3c-0.2-0.2-0.3-0.4-0.5-0.7c0.1-0.1,0.1-0.2,0-0.3
	c-0.2-0.2-0.3-0.4-0.4-0.6c0.1-0.1,0.1-0.2,0-0.3c-0.1-0.2-0.3-0.4-0.4-0.6c0-0.3-0.1-0.5-0.1-0.8c-0.1-0.1-0.2-0.3-0.4-0.4l0.1,0
	c-1.7-3.4-3.4-6.7-5.1-10.1c-0.1-0.2-0.1-0.3-0.2-0.5c-0.1-0.1-0.2-0.3-0.3-0.4c-0.1-0.2-0.1-0.3-0.2-0.5c-0.1-0.1-0.2-0.3-0.3-0.4
	c-0.1-0.2-0.1-0.3-0.2-0.5c-0.1-0.1-0.2-0.3-0.3-0.4c-0.1-0.2-0.1-0.3-0.2-0.5c-0.1-0.1-0.2-0.3-0.3-0.4
	c-7.5-15.6-14.9-31.4-21.7-47.3c-2.8-6.6-5.3-13.5-6.1-20.8c-0.1-0.8-0.2-1.5-0.2-2.3C240.4,139.6,242.1,138.5,244.9,139.6
	 M486,283.6v-55.2L434.2,210c-4.4-16.9-11.1-32.8-19.7-47.4l0.1-0.1l23.6-49.7l-39-39l-49.7,23.6l-0.1,0.1
	c-14.6-8.7-30.5-15.4-47.4-19.7L283.6,26h-55.2L210,77.8c-16.9,4.4-32.8,11.1-47.4,19.7l-0.1-0.1l-49.7-23.6l-39,39l23.6,49.7
	l0.1,0.1c-8.7,14.6-15.4,30.5-19.7,47.4L26,228.4v55.2L77.8,302c4.4,16.9,11.1,32.8,19.7,47.4l-0.1,0.1l-23.6,49.7l39,39l49.7-23.6
	l0.1-0.1c14.6,8.7,30.5,15.4,47.4,19.7l18.4,51.8h55.2l18.4-51.8c16.9-4.4,32.8-11.1,47.4-19.7l0.1,0.1l49.7,23.6l39-39l-23.6-49.7
	l-0.1-0.1c8.7-14.6,15.4-30.5,19.7-47.4L486,283.6L486,283.6z"/>
</svg>
