<?xml version="1.0" encoding="utf-8"?>
<!-- Generator: Adobe Illustrator 22.0.1, SVG Export Plug-In . SVG Version: 6.00 Build 0)  -->
<svg version="1.1" id="Layer_1" xmlns="http://www.w3.org/2000/svg" xmlns:xlink="http://www.w3.org/1999/xlink" x="0px" y="0px"
	 viewBox="0 0 512 512" style="enable-background:new 0 0 512 512;" xml:space="preserve">
<style type="text/css">
	.st0{fill:#E8E8E8;}
	.st1{fill:#60493D;}
	.st2{fill:#825E46;}
	.st3{fill:url(#SVGID_1_);}
	.st4{fill:url(#SVGID_2_);}
	.st5{fill:#CCA68D;}
	.st6{fill:#FFFFFF;}
	.st7{fill:#DBDBDB;}
	.st8{fill:#F9F9F9;}
</style>
<g>
	<path class="st0" d="M446,486H66c-22.1,0-40-17.9-40-40V66c0-22.1,17.9-40,40-40h380c22.1,0,40,17.9,40,40v380
		C486,468.1,468.1,486,446,486z"/>
	<path class="st1" d="M446,486H66c-22.1,0-40-17.9-40-40V66c0-22.1,17.9-40,40-40h380c22.1,0,40,17.9,40,40v380
		C486,468.1,468.1,486,446,486z"/>
	<g>
		<path class="st2" d="M26.1,94.6c0,0.8-0.1,1.6-0.1,2.4v349c0,0.7,0,1.4,0.1,2.1l165.8-176.8L26.1,94.6z"/>
		<path class="st2" d="M320.1,271.3l165.8,176.8c0-0.7,0.1-1.4,0.1-2.1V97c0-0.8,0-1.6-0.1-2.4L320.1,271.3z"/>
		
			<linearGradient id="SVGID_1_" gradientUnits="userSpaceOnUse" x1="256" y1="26" x2="256" y2="309" gradientTransform="matrix(1 0 0 -1 0 512)">
			<stop  offset="0" style="stop-color:#563D2A"/>
			<stop  offset="0.362" style="stop-color:#6D4E39"/>
			<stop  offset="0.7165" style="stop-color:#7D5A43"/>
			<stop  offset="1" style="stop-color:#825E46"/>
		</linearGradient>
		<path class="st3" d="M320.1,271.3L256,203l-64.1,68.3L26.1,448.1c0,0,0,0,0,0.1C27.2,469.3,44.6,486,66,486h380
			c21.4,0,38.8-16.7,39.9-37.8c0,0,0,0,0-0.1L320.1,271.3z"/>
		
			<linearGradient id="SVGID_2_" gradientUnits="userSpaceOnUse" x1="256" y1="172.3" x2="256" y2="455" gradientTransform="matrix(1 0 0 -1 0 512)">
			<stop  offset="0" style="stop-color:#483221"/>
			<stop  offset="0.3122" style="stop-color:#563D2A"/>
			<stop  offset="0.9016" style="stop-color:#7B5942"/>
			<stop  offset="1" style="stop-color:#825E46"/>
		</linearGradient>
		<path class="st4" d="M485.9,94.5C484.6,73.6,467.3,57,446,57H66c-21.3,0-38.6,16.6-39.9,37.5v0.1l165.8,176.8l64.1,68.3l64.1-68.3
			L485.9,94.5C485.9,94.6,485.9,94.5,485.9,94.5z"/>
	</g>
</g>
<g>
	<path class="st5" d="M410.2,288.8l-137,137c-9.5,9.5-24.8,9.5-34.3,0l-137-137c-9.5-9.5-9.5-24.8,0-34.3l137-137
		c9.5-9.5,24.8-9.5,34.3,0l137,137C419.7,264,419.7,279.3,410.2,288.8z"/>
	<path class="st6" d="M385.6,281.2l-8.5,8.5c-1.6,1.6-4.1,1.6-5.7,0s-1.6-4.1,0-5.7l8.4-8.4c1.6-1.6,4.1-1.6,5.7,0
		S387.2,279.7,385.6,281.2z M368.7,298.1l-8.4,8.4c-1.6,1.6-4.1,1.6-5.7,0s-1.6-4.1,0-5.7l8.4-8.4c1.6-1.6,4.1-1.6,5.7,0
		S370.3,296.6,368.7,298.1z M351.8,315l-8.4,8.4c-1.6,1.6-4.1,1.6-5.7,0c-1.6-1.6-1.6-4.1,0-5.7l8.4-8.4c1.6-1.6,4.1-1.6,5.7,0
		S353.4,313.4,351.8,315z M335,331.9l-8.4,8.4c-1.6,1.6-4.1,1.6-5.7,0c-1.6-1.6-1.6-4.1,0-5.7l8.4-8.4c1.6-1.6,4.1-1.6,5.7,0
		S336.5,330.3,335,331.9z M318.1,348.8l-8.4,8.4c-1.6,1.6-4.1,1.6-5.7,0s-1.6-4.1,0-5.7l8.4-8.4c1.6-1.6,4.1-1.6,5.7,0
		S319.6,347.2,318.1,348.8z M301.2,365.6l-8.4,8.4c-1.6,1.6-4.1,1.6-5.7,0s-1.6-4.1,0-5.7l8.4-8.4c1.6-1.6,4.1-1.6,5.7,0
		S302.8,364.1,301.2,365.6z M284.3,382.5l-8.4,8.4c-1.6,1.6-4.1,1.6-5.7,0s-1.6-4.1,0-5.7l8.4-8.4c1.6-1.6,4.1-1.6,5.7,0
		S285.9,380.9,284.3,382.5z M267.5,399.4l-1.6,1.6c-3.3,3.3-8,4.7-12.5,3.9c-2.2-0.4-3.6-2.5-3.2-4.7c0.4-2.2,2.5-3.6,4.7-3.2
		c2,0.4,4-0.2,5.4-1.7l1.6-1.6c1.6-1.6,4.1-1.6,5.7,0S269,397.8,267.5,399.4z M387.7,270.2c-0.3,0.3-0.8,0.6-1.2,0.8
		c-2,0.9-4.4,0-5.3-2.1c-0.3-0.7-0.7-1.3-1.3-1.8l-5.8-5.8c-1.6-1.6-1.6-4.1,0-5.7c1.6-1.6,4.1-1.6,5.7,0l5.8,5.8
		c1.2,1.2,2.2,2.7,2.9,4.3C389.2,267.3,388.8,269,387.7,270.2z M247.5,396.7c-1.6,1.6-4.1,1.6-5.7,0l-8.4-8.4
		c-1.6-1.6-1.6-4.1,0-5.7c1.6-1.6,4.1-1.6,5.7,0l8.4,8.4C249.1,392.6,249.1,395.2,247.5,396.7z M371.4,252.9c-1.6,1.6-4.1,1.6-5.7,0
		l-8.4-8.4c-1.6-1.6-1.6-4.1,0-5.7s4.1-1.6,5.7,0l8.4,8.4C372.9,248.8,372.9,251.3,371.4,252.9z M230.7,379.8
		c-1.6,1.6-4.1,1.6-5.7,0l-8.4-8.4c-1.6-1.6-1.6-4.1,0-5.7c1.6-1.6,4.1-1.6,5.7,0l8.4,8.4C232.2,375.8,232.2,378.3,230.7,379.8z
		 M354.5,236c-1.6,1.6-4.1,1.6-5.7,0l-8.4-8.4c-1.6-1.6-1.6-4.1,0-5.7s4.1-1.6,5.7,0l8.4,8.4C356,231.9,356,234.4,354.5,236z
		 M213.8,363c-1.6,1.6-4.1,1.6-5.7,0l-8.4-8.4c-1.6-1.6-1.6-4.1,0-5.7c1.6-1.6,4.1-1.6,5.7,0l8.4,8.4
		C215.4,358.9,215.4,361.4,213.8,363z M337.6,219.1c-1.6,1.6-4.1,1.6-5.7,0l-8.4-8.4c-1.6-1.6-1.6-4.1,0-5.7s4.1-1.6,5.7,0l8.4,8.4
		C339.2,215,339.2,217.6,337.6,219.1z M196.9,346.1c-1.6,1.6-4.1,1.6-5.7,0l-8.4-8.4c-1.6-1.6-1.6-4.1,0-5.7c1.6-1.6,4.1-1.6,5.7,0
		l8.4,8.4C198.5,342,198.5,344.5,196.9,346.1z M320.7,202.2c-1.6,1.6-4.1,1.6-5.7,0l-8.4-8.4c-1.6-1.6-1.6-4.1,0-5.7s4.1-1.6,5.7,0
		l8.4,8.4C322.3,198.2,322.3,200.7,320.7,202.2z M180,329.2c-1.6,1.6-4.1,1.6-5.7,0l-8.4-8.4c-1.6-1.6-1.6-4.1,0-5.7
		c1.6-1.6,4.1-1.6,5.7,0l8.4,8.4C181.6,325.1,181.6,327.7,180,329.2z M303.8,185.4c-1.6,1.6-4.1,1.6-5.7,0l-8.4-8.4
		c-1.6-1.6-1.6-4.1,0-5.7c1.6-1.6,4.1-1.6,5.7,0l8.4,8.4C305.4,181.3,305.4,183.8,303.8,185.4z M163.2,312.3c-1.6,1.6-4.1,1.6-5.7,0
		l-8.4-8.4c-1.6-1.6-1.6-4.1,0-5.7s4.1-1.6,5.7,0l8.4,8.4C164.7,308.2,164.7,310.8,163.2,312.3z M287,168.5c-1.6,1.6-4.1,1.6-5.7,0
		l-8.4-8.4c-1.6-1.6-1.6-4.1,0-5.7s4.1-1.6,5.7,0l8.4,8.4C288.5,164.4,288.5,166.9,287,168.5z M146.3,295.5c-1.6,1.6-4.1,1.6-5.7,0
		l-8.4-8.4c-1.6-1.6-1.6-4.1,0-5.7c1.6-1.6,4.1-1.6,5.7,0l8.4,8.4C147.9,291.4,147.9,293.9,146.3,295.5z M270.1,151.6
		c-1.6,1.6-4.1,1.6-5.7,0l-4.2-4.2c-0.9-0.9-1.9-1.4-3.1-1.7c-2.2-0.4-3.6-2.5-3.2-4.7c0.4-2.2,2.5-3.6,4.7-3.2
		c2.8,0.5,5.3,1.9,7.3,3.9l4.2,4.2C271.7,147.5,271.7,150.1,270.1,151.6z M130,278.2c-0.3,0.3-0.8,0.6-1.2,0.8
		c-2,0.9-4.4-0.1-5.3-2.1c-2.3-5.3-1.1-11.4,2.9-15.5c1.6-1.6,4.1-1.6,5.7,0c1.6,1.6,1.6,4.1,0,5.7c-1.7,1.8-2.2,4.4-1.3,6.6
		C131.5,275.3,131.1,277,130,278.2z M250.2,149l-8.4,8.4c-1.6,1.6-4.1,1.6-5.7,0c-1.6-1.6-1.6-4.1,0-5.7l8.4-8.4
		c1.6-1.6,4.1-1.6,5.7,0C251.8,144.9,251.8,147.4,250.2,149z M233.3,165.9l-8.4,8.4c-1.6,1.6-4.1,1.6-5.7,0c-1.6-1.6-1.6-4.1,0-5.7
		l8.4-8.4c1.6-1.6,4.1-1.6,5.7,0C234.9,161.8,234.9,164.3,233.3,165.9z M216.4,182.7l-8.4,8.4c-1.6,1.6-4.1,1.6-5.7,0
		c-1.6-1.6-1.6-4.1,0-5.7l8.4-8.4c1.6-1.6,4.1-1.6,5.7,0C218,178.6,218,181.2,216.4,182.7z M199.6,199.6l-8.4,8.4
		c-1.6,1.6-4.1,1.6-5.7,0c-1.6-1.6-1.6-4.1,0-5.7l8.4-8.4c1.6-1.6,4.1-1.6,5.7,0C201.1,195.5,201.1,198.1,199.6,199.6z M182.7,216.5
		l-8.4,8.4c-1.6,1.6-4.1,1.6-5.7,0c-1.6-1.6-1.6-4.1,0-5.7l8.4-8.4c1.6-1.6,4.1-1.6,5.7,0S184.2,214.9,182.7,216.5z M165.8,233.4
		l-8.4,8.4c-1.6,1.6-4.1,1.6-5.7,0c-1.6-1.6-1.6-4.1,0-5.7l8.4-8.4c1.6-1.6,4.1-1.6,5.7,0C167.4,229.3,167.4,231.8,165.8,233.4z
		 M148.9,250.2l-8.4,8.4c-1.6,1.6-4.1,1.6-5.7,0c-1.6-1.6-1.6-4.1,0-5.7l8.4-8.4c1.6-1.6,4.1-1.6,5.7,0
		C150.5,246.2,150.5,248.7,148.9,250.2z"/>
	<g>
		<path class="st7" d="M272.5,457.4c0.3,1.8-1.2,3.3-3.3,3.3h-26.3c-2.1,0-3.6-1.5-3.3-3.3l7.4-42.3c0.3-1.8,2.3-3.3,4.4-3.3h9.5
			c2.1,0,4.1,1.5,4.4,3.3L272.5,457.4z"/>
		<g>
			<path class="st7" d="M265.1,405.3c0,2.1-1.7,3.9-3.9,3.9h-10.4c-2.1,0-3.9-1.7-3.9-3.9v-10.4c0-2.1,1.7-3.9,3.9-3.9h10.4
				c2.1,0,3.9,1.7,3.9,3.9V405.3z"/>
			<path class="st8" d="M262.8,404c0,1.6-1.3,2.9-2.9,2.9h-7.8c-1.6,0-2.9-1.3-2.9-2.9v-7.8c0-1.6,1.3-2.9,2.9-2.9h7.8
				c1.6,0,2.9,1.3,2.9,2.9V404z"/>
		</g>
		<path class="st8" d="M269.1,457.6c0.2,1.7-0.9,3-2.6,3h-20.9c-1.7,0-2.9-1.4-2.6-3l5.9-39.2c0.3-1.7,1.8-3,3.5-3h7.6
			c1.7,0,3.3,1.4,3.5,3L269.1,457.6z"/>
	</g>
</g>
<g>
	<path class="st8" d="M210.9,289.9h29.3v9.6h-44.2v-7l28.7-41.4H196v-9.7h43.5v6.9L210.9,289.9z"/>
	<path class="st8" d="M260.4,299.5h-12v-58.1h12V299.5z"/>
	<path class="st8" d="M283.5,279.1v20.5h-12v-58.1h22.7c4.4,0,8.2,0.8,11.5,2.4c3.3,1.6,5.9,3.9,7.6,6.8c1.8,2.9,2.7,6.3,2.7,10
		c0,5.7-1.9,10.2-5.8,13.5c-3.9,3.3-9.3,4.9-16.2,4.9H283.5z M283.5,269.4h10.7c3.2,0,5.6-0.7,7.2-2.2c1.7-1.5,2.5-3.6,2.5-6.4
		c0-2.8-0.8-5.1-2.5-6.9c-1.7-1.8-4-2.7-6.9-2.7h-11V269.4z"/>
</g>
</svg>
