<?xml version="1.0" encoding="utf-8"?>
<!-- Generator: Adobe Illustrator 18.0.0, SVG Export Plug-In . SVG Version: 6.00 Build 0)  -->
<!DOCTYPE svg PUBLIC "-//W3C//DTD SVG 1.1//EN" "http://www.w3.org/Graphics/SVG/1.1/DTD/svg11.dtd">
<svg version="1.1" id="Layer_1" xmlns="http://www.w3.org/2000/svg" xmlns:xlink="http://www.w3.org/1999/xlink" x="0px" y="0px"
	 viewBox="0 0 512 512" style="enable-background:new 0 0 512 512;" xml:space="preserve">
<g>
	<path style="fill:#E8E8E8;" d="M446,486H66c-22.1,0-40-17.9-40-40V66c0-22.1,17.9-40,40-40h380c22.1,0,40,17.9,40,40v380
		C486,468.1,468.1,486,446,486z"/>
	<path style="fill:#60493D;" d="M446,486H66c-22.1,0-40-17.9-40-40V66c0-22.1,17.9-40,40-40h380c22.1,0,40,17.9,40,40v380
		C486,468.1,468.1,486,446,486z"/>
	<g>
		<path style="fill:#825E46;" d="M26.1,94.6c0,0.8-0.1,1.6-0.1,2.4v349c0,0.7,0,1.4,0.1,2.1l165.8-176.8L26.1,94.6z"/>
		<path style="fill:#825E46;" d="M320.1,271.3l165.8,176.8c0-0.7,0.1-1.4,0.1-2.1V97c0-0.8,0-1.6-0.1-2.4L320.1,271.3z"/>
		<linearGradient id="SVGID_1_" gradientUnits="userSpaceOnUse" x1="256" y1="486" x2="256" y2="203">
			<stop  offset="0" style="stop-color:#563D2A"/>
			<stop  offset="0.362" style="stop-color:#6D4E39"/>
			<stop  offset="0.7165" style="stop-color:#7D5A43"/>
			<stop  offset="1" style="stop-color:#825E46"/>
		</linearGradient>
		<path style="fill:url(#SVGID_1_);" d="M320.1,271.3L256,203l-64.1,68.3L26.1,448.1c0,0,0,0,0,0.1C27.2,469.3,44.6,486,66,486h380
			c21.4,0,38.8-16.7,39.9-37.8c0,0,0,0,0-0.1L320.1,271.3z"/>
		<linearGradient id="SVGID_2_" gradientUnits="userSpaceOnUse" x1="256" y1="339.7" x2="256" y2="57">
			<stop  offset="0" style="stop-color:#483221"/>
			<stop  offset="0.3122" style="stop-color:#563D2A"/>
			<stop  offset="0.9016" style="stop-color:#7B5942"/>
			<stop  offset="1" style="stop-color:#825E46"/>
		</linearGradient>
		<path style="fill:url(#SVGID_2_);" d="M485.9,94.5C484.6,73.6,467.3,57,446,57H66c-21.3,0-38.6,16.6-39.9,37.5v0.1l165.8,176.8
			l64.1,68.3l64.1-68.3L485.9,94.5C485.9,94.6,485.9,94.5,485.9,94.5z"/>
	</g>
</g>
<g>
	<circle style="opacity:0.4;" cx="256" cy="261" r="150"/>
	<circle style="fill:#FF5D15;" cx="256" cy="256" r="150"/>
	<g>
		<path style="fill:#FFFFFF;" d="M270.576,255.601c-0.367-0.34-0.823-0.225-1.246-0.225c-8.069,0.007-16.139,0.024-24.21,0.037
			c-0.434,0.001-0.873-0.04-1.266,0.208c-0.31,0.545-0.607,1.099-0.932,1.635c-2.487,4.098-4.947,8.214-7.481,12.282
			c-1.97,3.162-3.932,6.327-5.809,9.545c-0.357,0.612-0.406,0.944,0.452,0.882c0.197-0.014,0.396-0.003,0.595-0.003
			c17.488-0.024,34.977-0.047,52.465-0.071c0.579-0.001,1.159,0,1.936,0c-1.408-2.364-2.712-4.557-4.019-6.745
			C277.568,267.296,274.071,261.449,270.576,255.601z"/>
		<path style="fill:#FFFFFF;" d="M244.993,247.234c0.349-0.497,0.066-0.728-0.35-0.996c-4.057-2.615-8.11-5.238-12.141-7.893
			c-0.583-0.383-0.834-0.308-1.164,0.278c-0.907,1.615-1.867,3.199-2.816,4.79c-2.794,4.688-5.594,9.373-8.391,14.058
			c-0.406,0.717-0.802,1.439-1.221,2.149c-4.902,8.299-9.809,16.596-14.713,24.894c-0.665,1.125-1.338,2.247-1.981,3.384
			c-0.122,0.216-0.426,0.432,0.045,0.747c3.984,2.664,7.953,5.351,11.896,8.074c0.73,0.504,0.859-0.008,1.119-0.437
			c6.657-11.01,13.308-22.024,19.972-33.031C238.486,257.905,241.744,252.573,244.993,247.234z"/>
		<path style="fill:#FFFFFF;" d="M251.177,209.101c3.524,8.284,7.329,16.447,11.238,24.558c0.052,0.074,0.104,0.147,0.155,0.22
			c0.027,0.086,0.054,0.171,0.081,0.257c0.052,0.073,0.104,0.146,0.155,0.218c0.027,0.086,0.055,0.172,0.083,0.259
			c0.051,0.073,0.103,0.145,0.154,0.217c0.028,0.087,0.056,0.174,0.084,0.261c0.05,0.071,0.102,0.143,0.152,0.213
			c0.029,0.089,0.058,0.179,0.088,0.268c0.879,1.747,1.759,3.493,2.638,5.24l-0.026-0.007c0.063,0.077,0.126,0.154,0.188,0.23
			c0.02,0.14,0.041,0.281,0.061,0.422c0.076,0.107,0.151,0.212,0.227,0.319c0.045,0.047,0.048,0.096,0.011,0.15
			c0.078,0.11,0.155,0.22,0.233,0.329c0.045,0.045,0.048,0.091,0.006,0.14c0.079,0.114,0.159,0.227,0.238,0.341
			c0.045,0.043,0.052,0.092,0.02,0.146c0.72,0.8,1.105,1.8,1.601,2.73c4.264,8.006,8.67,15.929,13.661,23.512
			c0.906,1.377,0.908,1.377,2.287,0.573c2.464-1.436,4.903-2.913,7.404-4.28c0.819-0.448,0.82-0.818,0.43-1.553
			c-1.539-2.899-3.021-5.828-4.525-8.745c-1.758-3.302-3.503-6.612-5.279-9.904c-6.486-12.027-12.978-24.051-20.222-35.646
			c-2.402-3.845-4.93-7.619-8.04-10.947c-1.158-1.239-2.431-2.371-4.045-3.027c-1.439-0.584-2.326,0.004-2.295,1.545
			c0.008,0.395,0.047,0.79,0.086,1.182C248.402,202.11,249.712,205.657,251.177,209.101z"/>
		<path style="fill:#FFFFFF;" d="M319.549,255.584c-0.196-0.022-0.391-0.065-0.587-0.065c-8.725,0.013-17.451,0.029-26.176,0.05
			c-0.341,0.001-0.729-0.105-0.975,0.269c0.292,0.645,0.568,1.298,0.879,1.934c3.466,7.101,6.948,14.194,10.389,21.308
			c0.308,0.638,0.662,0.819,1.331,0.813c4.638-0.037,9.277-0.081,13.914-0.016c1.117,0.016,1.274-0.357,1.269-1.339
			C319.547,270.887,319.556,263.235,319.549,255.584z"/>
		<path style="fill:#FFFFFF;" d="M201.486,280.089c0.87,0.022,1.357-0.277,1.779-0.994c1.989-3.385,4.009-6.753,6.031-10.12
			c2.633-4.384,5.279-8.76,7.92-13.139c-0.293-0.411-0.727-0.227-1.096-0.231c-2.221-0.024-4.442-0.012-6.663-0.03
			c-5.273-0.044-10.546-0.104-15.82-0.137c-0.426-0.002-0.988-0.252-1.23,0.395c0.011,0.554,0.031,1.109,0.033,1.663
			c0.02,7.091,0.054,14.183,0.034,21.274c-0.002,0.991,0.177,1.372,1.289,1.329C196.334,279.997,198.912,280.022,201.486,280.089z"
			/>
		<path style="fill:#FFFFFF;" d="M313.781,300.812c-3.122-5.329-6.59-10.42-10.48-15.225c-0.62-0.766-1.065-0.757-1.843-0.276
			c-2.123,1.312-4.292,2.548-6.463,3.78c-0.328,0.187-0.426,0.216-0.282,0.655c1.434,4.361,2.875,8.718,4.625,12.965
			c1.629,3.954,3.39,7.842,5.863,11.365c1.151,1.64,2.644,2.59,4.24,2.551c3.635,0.006,6.629-1.859,8.038-4.689
			c0.826-1.659,0.747-3.266-0.155-4.86C316.143,304.989,314.994,302.882,313.781,300.812z"/>
		<path style="fill:#FFFFFF;" d="M300.987,281.184c-2.306-4.549-4.58-9.115-6.865-13.674c-0.118-0.236-0.187-0.545-0.573-0.481
			c-0.099,0.056-0.203,0.112-0.305,0.172c-2.802,1.633-5.595,3.284-8.412,4.89c-0.677,0.387-0.467,0.767-0.182,1.236
			c2.618,4.313,5.242,8.624,7.836,12.952c0.315,0.525,0.533,0.619,1.074,0.275c2.338-1.481,4.702-2.923,7.069-4.359
			C301.057,281.934,301.266,281.735,300.987,281.184z"/>
		<path style="fill:#FFFFFF;" d="M195.256,314.635c0.083,0.038,0.166,0.077,0.249,0.116c5.835-4.836,11.671-9.673,17.577-14.568
			c-4.235-2.933-8.366-5.794-12.658-8.765C198.674,299.285,196.964,306.96,195.256,314.635z"/>
		<path style="fill:#FFFFFF;" d="M233.549,236.542c0.401,0.139,0.747,0.439,1.109,0.679c3.568,2.363,7.131,4.733,10.707,7.086
			c0.332,0.218,0.662,0.743,1.108-0.006c2.289-3.846,4.624-7.664,6.944-11.491c0.081-0.133,0.191-0.248,0.273-0.352
			c-0.027-0.259-0.202-0.351-0.365-0.458c-4.036-2.661-8.073-5.322-12.104-7.992c-0.401-0.265-0.655-0.302-0.949,0.176
			c-2.339,3.807-4.701,7.6-7.062,11.393C232.911,236.058,232.96,236.337,233.549,236.542z"/>
		<path style="fill:#FFFFFF;" d="M242.068,222.491c3.426,2.197,6.832,4.429,10.243,6.652c2.215,1.443,2.237,1.454,3.099-1.064
			c0.542-1.583,1.05-3.254,0.158-4.828c-1.793-3.163-4.568-4.93-7.958-5.349c-2.841,0.037-4.483,1.476-5.775,3.584
			C241.468,222.082,241.579,222.177,242.068,222.491z"/>
	</g>
</g>
</svg>
