<?xml version="1.0" encoding="utf-8"?>
<!-- Generator: Adobe Illustrator 18.0.0, SVG Export Plug-In . SVG Version: 6.00 Build 0)  -->
<!DOCTYPE svg PUBLIC "-//W3C//DTD SVG 1.1//EN" "http://www.w3.org/Graphics/SVG/1.1/DTD/svg11.dtd">
<svg version="1.1" id="Layer_3" xmlns="http://www.w3.org/2000/svg" xmlns:xlink="http://www.w3.org/1999/xlink" x="0px" y="0px"
	 viewBox="0 0 512 512" style="enable-background:new 0 0 512 512;" xml:space="preserve">
<g id="Layer_2">
	<g>
		<path style="fill:#FFFFFF;" d="M486,391.557c0,18.892-15.315,34.207-34.208,34.207H88.193c-18.892,0-34.208-15.315-34.208-34.207
			l0,0c0-18.892,15.315-34.208,34.208-34.208h363.598C470.685,357.349,486,372.664,486,391.557L486,391.557z"/>
		<path style="fill:#FFFFFF;" d="M352.649,296.865c0,10.784-8.741,19.525-19.525,19.525H274.55
			c-10.784,0-19.525-8.741-19.525-19.525v-58.575c0-10.784,8.741-19.525,19.525-19.525h58.575c10.784,0,19.525,8.741,19.525,19.525
			V296.865z"/>
		<path style="fill:#FFFFFF;" d="M484.864,296.865c0,10.784-8.741,19.525-19.525,19.525h-58.575
			c-10.784,0-19.525-8.741-19.525-19.525v-58.575c0-10.784,8.741-19.525,19.525-19.525h58.575c10.784,0,19.525,8.741,19.525,19.525
			V296.865z"/>
	</g>
	<polygon style="fill:#FFFFFF;" points="118.755,335.696 130.544,315.277 142.331,335.696 	"/>
	<path style="fill:#FFFFFF;" d="M180.425,99.214c-6.419,6.419-9.254,15.061-8.514,23.447L138.98,89.73
		c-4.659-4.659-12.215-4.659-16.875,0l-32.698,32.698c8.25-0.607,16.707,2.236,23.015,8.545c11.511,11.511,11.511,30.174,0,41.685
		s-30.174,11.511-41.685,0c-6.308-6.308-9.151-14.765-8.545-23.015l-32.698,32.698c-4.659,4.659-4.659,12.215,0,16.875
		l92.612,92.612c4.659,4.659,12.215,4.659,16.875,0l33.8-33.8c-0.3,8.097,2.633,16.291,8.814,22.472
		c11.787,11.787,30.898,11.787,42.685,0c11.787-11.787,11.787-30.898,0-42.685c-6.181-6.181-14.376-9.114-22.472-8.814
		l29.785-29.785c4.659-4.659,4.659-12.215,0-16.875l-32.931-32.931c8.386,0.74,17.028-2.095,23.447-8.514
		c11.511-11.511,11.511-30.174,0-41.685C210.599,87.703,191.937,87.703,180.425,99.214z"/>
</g>
</svg>
