<?xml version="1.0" encoding="utf-8"?>
<!-- Generator: Adobe Illustrator 22.0.1, SVG Export Plug-In . SVG Version: 6.00 Build 0)  -->
<svg version="1.1" id="Layer_3" xmlns="http://www.w3.org/2000/svg" xmlns:xlink="http://www.w3.org/1999/xlink" x="0px" y="0px"
	 viewBox="0 0 512 512" enable-background="new 0 0 512 512" xml:space="preserve">
<g>
	<g>
		
			<linearGradient id="SVGID_1_" gradientUnits="userSpaceOnUse" x1="46.2788" y1="540.6356" x2="276.9252" y2="141.1442" gradientTransform="matrix(0.866 -0.5 0.5 0.866 -54.3964 41.5817)">
			<stop  offset="0" style="stop-color:#FE9105"/>
			<stop  offset="1" style="stop-color:#FEDA38"/>
		</linearGradient>
		<path fill="url(#SVGID_1_)" d="M217.621,35.637L84.35,112.581c-23.749,13.712-38.379,39.052-38.379,66.475v153.888
			c0,27.423,14.63,52.763,38.379,66.475l133.271,76.944c23.749,13.712,53.009,13.712,76.758,0l133.271-76.944
			c23.749-13.712,38.379-39.052,38.379-66.475V179.056c0-27.423-14.63-52.763-38.379-66.475L294.379,35.637
			C270.63,21.926,241.37,21.926,217.621,35.637z"/>
	</g>
	<g>
		
			<linearGradient id="SVGID_2_" gradientUnits="userSpaceOnUse" x1="46.2788" y1="540.6356" x2="276.9252" y2="141.1442" gradientTransform="matrix(0.866 -0.5 0.5 0.866 -54.3964 41.5817)">
			<stop  offset="0" style="stop-color:#FE9105"/>
			<stop  offset="1" style="stop-color:#FEDA38"/>
		</linearGradient>
		<path fill="url(#SVGID_2_)" d="M217.621,35.637L84.35,112.581c-23.749,13.712-38.379,39.052-38.379,66.475v153.888
			c0,27.423,14.63,52.763,38.379,66.475l133.271,76.944c23.749,13.712,53.009,13.712,76.758,0l133.271-76.944
			c23.749-13.712,38.379-39.052,38.379-66.475V179.056c0-27.423-14.63-52.763-38.379-66.475L294.379,35.637
			C270.63,21.926,241.37,21.926,217.621,35.637z"/>
		<path fill="#FFFFFF" d="M256,45.354c9.949,0,19.763,2.629,28.379,7.604l133.271,76.944c17.505,10.106,28.379,28.941,28.379,49.154
			v153.888c0,20.213-10.874,39.048-28.379,49.154l-133.271,76.944c-8.616,4.975-18.43,7.604-28.379,7.604
			s-19.763-2.629-28.379-7.604L94.35,382.098c-17.505-10.106-28.379-28.941-28.379-49.154V179.056
			c0-20.213,10.874-39.048,28.379-49.154l133.271-76.944C236.237,47.983,246.051,45.354,256,45.354 M256,25.354
			c-13.252,0-26.505,3.428-38.379,10.284L84.35,112.581c-23.749,13.712-38.379,39.051-38.379,66.475v153.888
			c0,27.423,14.63,52.763,38.379,66.475l133.271,76.944c11.875,6.856,25.127,10.284,38.379,10.284
			c13.252,0,26.505-3.428,38.379-10.284l133.271-76.944c23.749-13.712,38.379-39.051,38.379-66.475V179.056
			c0-27.423-14.63-52.763-38.379-66.475L294.379,35.637C282.505,28.781,269.252,25.354,256,25.354L256,25.354z"/>
	</g>
</g>
<g opacity="0.9">
	<path fill="#FFFFFF" d="M256,372c-53.656,0-105.714,10.512-154.729,31.243c-1.966,0.831-3.911,1.7-5.86,2.562l32.812,18.944
		C168.578,409.816,211.686,402,256,402c44.315,0,87.422,7.816,127.777,22.749l32.812-18.944c-1.949-0.861-3.894-1.73-5.86-2.562
		C361.714,382.512,309.655,372,256,372z"/>
	<path fill="#FFFFFF" d="M256,302.25c-53.656,0-105.714,10.512-154.729,31.243c-17.56,7.427-34.452,16.049-50.622,25.813
		c3.459,9.455,8.749,18.154,15.576,25.582C122.909,350.583,188.043,332.25,256,332.25c67.957,0,133.091,18.333,189.776,52.638
		c6.827-7.428,12.117-16.128,15.576-25.582c-16.171-9.764-33.063-18.386-50.622-25.813C361.714,312.762,309.655,302.25,256,302.25z"
		/>
	<path fill="#FFFFFF" d="M256,232.5c-53.656,0-105.714,10.512-154.729,31.243c-19.265,8.148-37.714,17.751-55.3,28.707v35.88
		C107.14,285.55,179.796,262.5,256,262.5c76.204,0,148.86,23.05,210.029,65.83v-35.88c-17.586-10.956-36.035-20.559-55.3-28.707
		C361.714,243.012,309.655,232.5,256,232.5z"/>
	<path fill="#FFFFFF" d="M256,162.75c-53.656,0-105.714,10.512-154.729,31.244c-19.265,8.148-37.714,17.751-55.3,28.707v35.879
		C107.14,215.8,179.796,192.75,256,192.75c76.204,0,148.86,23.05,210.029,65.83v-35.879c-17.586-10.956-36.035-20.559-55.3-28.707
		C361.714,173.262,309.655,162.75,256,162.75z"/>
	<path fill="#FFFFFF" d="M256,93c-53.656,0-105.714,10.512-154.729,31.244c-17.076,7.223-33.513,15.587-49.278,25.02
		c-3.911,9.284-6.022,19.387-6.022,29.792v9.774C107.14,146.05,179.796,123,256,123c76.204,0,148.86,23.05,210.029,65.83v-9.774
		c0-10.405-2.111-20.508-6.022-29.792c-15.764-9.433-32.202-17.797-49.278-25.02C361.714,103.512,309.655,93,256,93z"/>
</g>
</svg>
