<?xml version="1.0" encoding="utf-8"?>
<!-- Generator: Adobe Illustrator 18.0.0, SVG Export Plug-In . SVG Version: 6.00 Build 0)  -->
<!DOCTYPE svg PUBLIC "-//W3C//DTD SVG 1.1//EN" "http://www.w3.org/Graphics/SVG/1.1/DTD/svg11.dtd">
<svg version="1.1" id="Layer_1" xmlns="http://www.w3.org/2000/svg" xmlns:xlink="http://www.w3.org/1999/xlink" x="0px" y="0px"
	 viewBox="0 0 512 512" style="enable-background:new 0 0 512 512;" xml:space="preserve">
<path style="fill:#EFEDED;" d="M469.6,398.1l-286,104c-2.6,1-5.4-0.4-6.4-3L39.3,120.3c-1-2.6,0.4-5.4,3-6.4L328.3,10
	c2.6-1,5.4,0.4,6.4,3l137.9,378.8C473.6,394.2,472.2,397.1,469.6,398.1z"/>
<path style="fill:#E2E2E2;" d="M441.7,433L142,485.8c-2.7,0.5-5.3-1.3-5.8-4.1l-70-397c-0.5-2.7,1.3-5.3,4.1-5.8L370,26.2
	c2.7-0.5,5.3,1.3,5.8,4.1l70,397C446.3,429.9,444.4,432.5,441.7,433z"/>
<radialGradient id="SVGID_1_" cx="255.9516" cy="256" r="183.5486" gradientUnits="userSpaceOnUse">
	<stop  offset="0" style="stop-color:#1ACDFB"/>
	<stop  offset="1" style="stop-color:#1F77F3"/>
</radialGradient>
<radialGradient id="SVGID_2_" cx="255.9516" cy="256" r="184.0441" gradientUnits="userSpaceOnUse">
	<stop  offset="0" style="stop-color:#1ACDFB"/>
	<stop  offset="1" style="stop-color:#1F77F3"/>
</radialGradient>
<path style="fill:url(#SVGID_1_);stroke:url(#SVGID_2_);stroke-miterlimit:10;" d="M408.2,462.6H103.8c-2.8,0-5-2.2-5-5V54.4
	c0-2.8,2.2-5,5-5h304.3c2.8,0,5,2.2,5,5v403.1C413.2,460.3,410.9,462.6,408.2,462.6z"/>
<path style="fill:#FFFFFF;" d="M413.1,373.931l-19.352,23.421l-3.047-2.441c1.556-2.337,2.466-5.141,2.466-8.16
	c0-2.49-0.623-4.833-1.713-6.891l21.645-18.027v-2.603l-22.716,18.92c-1.322-1.836-3.048-3.36-5.059-4.428l21.451-61.291
	l6.324,2.085v-2.107l-5.662-1.867l5.662-16.178v-6.057l-7.563,21.609l-35.692-11.767c0.042-0.294,0.072-0.592,0.072-0.898
	c0-1.437-0.49-2.758-1.306-3.813l44.488-47.47v-2.924l-45.943,49.022c-0.788-0.532-1.706-0.883-2.695-1.008l-2.271-68.547
	l50.908-3.247v-2.004l-50.974,3.251l-1.013-30.589c4.303-0.458,7.99-2.944,10.117-6.477l41.871,21.091v-2.24l-40.96-20.632
	c0.659-1.591,1.027-3.333,1.027-5.163c0-6.73-4.93-12.294-11.372-13.316l5.926-70.186c1.531-0.007,2.991-0.318,4.32-0.879
	l41.059,77.334v-4.263l-39.298-74.017c2.146-1.4,3.786-3.509,4.581-6l34.717,7.77v-2.05l-34.289-7.674
	c0.063-0.482,0.107-0.97,0.107-1.469c0-6.213-5.037-11.25-11.25-11.25c-2.327,0-4.489,0.707-6.284,1.917L333.973,49.4h-3.111
	l28.947,24.308c-1.534,1.499-2.638,3.432-3.119,5.602l-84.714-11.055l6.456-18.855h-2.114l-6.366,18.591l-59.323-7.742
	c0.014-0.249,0.038-0.496,0.038-0.748c0-1.805-0.361-3.524-1.003-5.098l10.061-5.003h-4.492l-6.468,3.217
	c-0.718-1.206-1.619-2.29-2.662-3.217h-17.874c-2.15,1.905-3.696,4.477-4.29,7.4l-57.831-7.4h-1.312
	c-1.11,0.47-2.22,0.94-3.309,1.425l62.217,7.961c-0.013,0.238-0.036,0.474-0.036,0.715c0,1.824,0.366,3.561,1.022,5.149
	l-84.453,42.421c-0.416-0.693-0.908-1.332-1.437-1.937v17.764c0.154-0.175,0.307-0.349,0.451-0.532l44.236,29.914l-4.767,63.004
	l-18.392,5.066L98.8,145.578v7.228l19.6,68.075l-19.6,5.399v2.074l20.154-5.552l10.977,38.125c-2.568,0.923-4.822,2.495-6.558,4.532
	L98.8,247.137v2.495l23.377,17.43c-1.581,2.43-2.509,5.324-2.509,8.439c0,5.77,3.159,10.793,7.836,13.462L98.8,347.937v26.486
	c1.484-0.928,2.787-2.12,3.81-3.538l55.061,33.771c-0.636,1.315-1.004,2.785-1.004,4.344c0,1.234,0.234,2.41,0.643,3.502
	l-54.023,26.651c-1.105-1.871-2.649-3.447-4.488-4.595v14.487c1.605,1.028,3.238,2.039,4.914,3.024
	c0.922-1.826,1.453-3.884,1.453-6.069c0-1.79-0.356-3.494-0.989-5.057l54.016-26.648c1.768,2.823,4.896,4.706,8.472,4.706
	c1.184,0,2.315-0.217,3.369-0.594l21.034,44.193h2.215l-21.443-45.054c2.1-1.274,3.694-3.292,4.408-5.696l53.556,10.232
	l-8.285,40.518h2.042l8.208-40.142l44.491,8.5c-0.058,0.507-0.095,1.02-0.095,1.543c0,3.319,1.203,6.354,3.189,8.704L257.526,462.6
	h2.857l20.379-19.971c2.378,2.093,5.489,3.372,8.906,3.372c5.785,0,10.706-3.646,12.627-8.76l35.636,10.436
	c-0.194,0.911-0.301,1.854-0.301,2.823c0,1.468,0.242,2.878,0.675,4.201l-19.174,7.898h5.252l14.69-6.051
	c1.317,2.62,3.462,4.748,6.089,6.051h11.932c3.407-1.687,6.003-4.764,7.035-8.497l29.397,5.84c1.023-0.474,2.047-0.946,3.051-1.432
	l-32.056-6.369c0.065-0.539,0.109-1.084,0.109-1.641c0-3.828-1.601-7.277-4.161-9.734l33.565-40.624l19.065,15.274v-2.562
	l-17.791-14.253l17.791-21.532V373.931z M369.247,300.059l35.629,11.746l-21.388,61.11c-1.583-0.581-3.286-0.914-5.07-0.914
	c-0.439,0-0.872,0.028-1.301,0.066l-11.452-68.898C367.228,302.642,368.512,301.512,369.247,300.059z M363.693,303.5l11.449,68.879
	c-5.394,1.225-9.652,5.401-11.006,10.745l-39.294-12.828l36.744-67.158c0.652,0.231,1.351,0.363,2.082,0.363
	C363.676,303.501,363.684,303.5,363.693,303.5z M255.719,342.471l102.622-41.962c0.394,0.643,0.898,1.208,1.491,1.669
	l-36.924,67.486l-66.999-21.872c0.165-0.739,0.258-1.504,0.258-2.292C256.168,344.447,256.008,343.431,255.719,342.471z
	 M160.108,122.316l89.732-14.676c0.568,2.003,1.824,3.716,3.505,4.857l-37.34,71.606c-1.638-0.706-3.441-1.101-5.338-1.101
	c-3.05,0-5.853,1.023-8.114,2.729l-46.263-52.768c2.395-2.436,3.876-5.774,3.876-9.46
	C160.168,123.101,160.142,122.707,160.108,122.316z M224.127,195.703l36.439-4.891l1.038,26.794
	c-2.827,0.383-5.284,1.905-6.904,4.093l-31.978-19.146c0.917-1.822,1.445-3.873,1.445-6.052
	C224.168,196.232,224.143,195.969,224.127,195.703z M253.672,223.414c-0.637,1.342-1.004,2.837-1.004,4.421
	c0,3.284,1.537,6.204,3.925,8.097l-33.972,52.71c-1.838-1.002-3.936-1.579-6.166-1.626l-4.079-77.134
	c3.848-0.487,7.187-2.589,9.32-5.611L253.672,223.414z M258.273,237.016c0.704,0.363,1.455,0.644,2.241,0.838l-8.966,60.866
	l-21.946,0.484c-0.369-3.866-2.374-7.246-5.309-9.466L258.273,237.016z M262.494,238.143c0.169,0.008,0.336,0.026,0.508,0.026
	c3.169,0,6-1.429,7.896-3.675l87.128,60.081c-0.268,0.563-0.453,1.171-0.542,1.812l-103.908,2.289L262.494,238.143z
	 M262.557,190.545l28.097-3.771l-22.558,32.078c-1.34-0.762-2.866-1.226-4.493-1.32L262.557,190.545z M269.732,220.003
	l23.624-33.592l53.103-7.128c1.246,5.944,6.404,10.436,12.656,10.69l1.016,30.665l-86.939,5.545
	C272.795,223.724,271.538,221.558,269.732,220.003z M346.168,176.501c0,0.269,0.025,0.532,0.04,0.798l-51.286,6.884l24.451-34.768
	l28.715,20.174C346.876,171.612,346.168,173.971,346.168,176.501z M292.222,184.545l-29.742,3.992l-2.893-74.649
	c2.056-0.316,3.873-1.343,5.195-2.828l52.955,37.203L292.222,184.545z M260.489,188.805l-36.611,4.914
	c-0.768-3.663-3.026-6.768-6.104-8.681l37.349-71.623c0.776,0.298,1.603,0.488,2.466,0.553L260.489,188.805z M201.044,187.041
	c-0.341,0.346-0.658,0.714-0.96,1.096l-54.514-36.864l1.08-14.272c0.006,0,0.012,0.001,0.019,0.001c3.05,0,5.853-1.023,8.114-2.729
	L201.044,187.041z M202.234,207.033c2.241,1.797,5.065,2.888,8.145,2.953l4.079,77.134c-4.933,0.625-9.031,3.903-10.819,8.367
	l-53.287-16.863c0.206-1.009,0.315-2.054,0.315-3.124c0-3.591-1.232-6.887-3.282-9.515L202.234,207.033z M147.686,284.615
	l43.022,27.254l-40.132,19.673l-9.242-41.822C143.883,288.612,146.067,286.834,147.686,284.615z M148.77,282.934
	c0.414-0.757,0.755-1.557,1.04-2.384l53.231,16.845c-0.236,0.999-0.373,2.035-0.373,3.105c0,1.778,0.352,3.471,0.977,5.026
	l-10.83,5.309L148.77,282.934z M204.53,307.319c1.232,2.099,3.005,3.84,5.141,5.015l-3.249,7.122l-11.626-7.365L204.53,307.319z
	 M211.494,313.153c1.458,0.539,3.028,0.848,4.673,0.848c2.375,0,4.604-0.618,6.543-1.695l16.393,25.007
	c-0.642,0.515-1.217,1.106-1.723,1.756l-29.255-18.532L211.494,313.153z M224.377,311.201c3.037-2.333,5.044-5.923,5.255-9.996
	l21.62-0.476l-5.053,34.299c-0.177-0.009-0.352-0.027-0.532-0.027c-1.768,0-3.431,0.441-4.893,1.213L224.377,311.201z
	 M253.28,300.684l104.245-2.297c0.017,0.091,0.036,0.182,0.057,0.272L254.96,340.621c-1.38-2.622-3.836-4.581-6.782-5.305
	L253.28,300.684z M362.464,291.119c-1.288,0.251-2.431,0.899-3.304,1.809l-87.126-60.08c0.774-1.391,1.228-2.979,1.284-4.67
	l86.878-5.541L362.464,291.119z M360.734,90.599c1.428,1.121,3.132,1.9,4.995,2.224l-5.926,70.185c-0.046,0-0.09-0.007-0.136-0.007
	c-4.208,0-7.964,1.926-10.44,4.943l-28.704-20.166L360.734,90.599z M356.92,85.082c0.48,1.549,1.293,2.947,2.344,4.13
	l-40.377,57.416L265.94,109.43c0.676-1.242,1.061-2.665,1.061-4.179c0-0.286-0.016-0.568-0.043-0.847L356.92,85.082z
	 M271.315,70.186l85.125,11.109c-0.006,0.153-0.023,0.302-0.023,0.456c0,0.466,0.037,0.923,0.092,1.374l-89.975,19.325
	c-0.76-2.247-2.406-4.079-4.524-5.09L271.315,70.186z M210.39,62.235l58.902,7.687l-9.171,26.784
	c-0.603-0.131-1.227-0.205-1.869-0.205c-2.504,0-4.756,1.057-6.351,2.743l-43.365-32.479
	C209.408,65.401,210.052,63.875,210.39,62.235z M197.168,73.001c4.06,0,7.691-1.8,10.166-4.636l43.367,32.48
	c-0.758,1.295-1.199,2.797-1.199,4.406c0,0.14,0.014,0.276,0.021,0.415l-89.741,14.677c-0.637-2.652-2.053-4.995-3.998-6.779
	l33.83-42.873C191.769,72.149,194.368,73.001,197.168,73.001z M185.598,66.431c0.672,1.119,1.498,2.13,2.454,3.007l-33.83,42.873
	c-2.156-1.459-4.756-2.311-7.555-2.311c-6.365,0-11.688,4.411-13.112,10.339l-31.448-5.151c0.034-0.392,0.06-0.787,0.06-1.188
	c0-1.824-0.366-3.561-1.022-5.149L185.598,66.431z M100.372,120.709c0.629-1.095,1.105-2.286,1.408-3.547l31.448,5.151
	c-0.034,0.392-0.06,0.787-0.06,1.188c0,6.77,4.989,12.36,11.488,13.334l-0.995,13.147L100.372,120.709z M145.395,153.569
	l53.567,36.224c-1.136,1.978-1.795,4.264-1.795,6.708c0,0.894,0.092,1.766,0.258,2.611l-56.656,15.607L145.395,153.569z
	 M140.609,216.837l57.357-15.8c0.62,1.736,1.582,3.304,2.81,4.629l-54.717,58.812c-2.314-2.286-5.348-3.835-8.727-4.308
	L140.609,216.837z M120.882,222.271l17.679-4.87l-3.224,42.608c-0.057-0.001-0.112-0.009-0.169-0.009
	c-1.14,0-2.248,0.131-3.317,0.365L120.882,222.271z M102.576,355.07c-0.939-1.289-2.091-2.412-3.418-3.299l30.141-61.928
	c1.811,0.742,3.79,1.158,5.869,1.158c1.482,0,2.909-0.22,4.266-0.609l9.293,42.055L102.576,355.07z M158.718,402.952l-55.058-33.769
	c0.958-1.854,1.508-3.952,1.508-6.182c0-2.247-0.557-4.362-1.529-6.226l45.532-22.32l14.374,65.049
	C161.604,400.143,159.93,401.361,158.718,402.952z M169.885,399.54c-1.011-0.344-2.09-0.539-3.217-0.539
	c-0.396,0-0.785,0.029-1.169,0.074l-14.479-65.525l41.67-20.426l12.895,8.169L169.885,399.54z M230.207,420.122l-53.584-10.238
	c0.026-0.292,0.045-0.585,0.045-0.884c0-3.684-1.998-6.895-4.964-8.629l35.585-77.999l29.021,18.384
	c-0.725,1.426-1.142,3.035-1.142,4.745c0,5.009,3.51,9.192,8.203,10.24L230.207,420.122z M276.644,428.994l-44.472-8.497
	l13.191-64.512c0.102,0.003,0.202,0.015,0.305,0.015c1.35,0,2.636-0.264,3.821-0.728l33.216,65.678
	C279.762,422.729,277.558,425.593,276.644,428.994z M289.668,419.001c-1.837,0-3.587,0.37-5.183,1.035l-33.211-65.667
	c1.765-1.118,3.175-2.742,4.018-4.674l66.641,21.755l-26.684,48.77C293.546,419.444,291.66,419.001,289.668,419.001z
	 M297.003,421.177l26.863-49.097l39.9,13.025c-0.06,0.541-0.097,1.088-0.097,1.645c0,2.763,0.774,5.339,2.095,7.549l-64.442,31.409
	C300.253,423.881,298.774,422.327,297.003,421.177z M351.13,437.001c-5.785,0-10.706,3.646-12.627,8.76l-35.636-10.436
	c0.194-0.911,0.301-1.854,0.301-2.823c0-1.767-0.349-3.45-0.966-4.997l64.709-31.539c1.525,1.902,3.505,3.422,5.783,4.383
	l-16.936,37.484C354.312,437.304,352.758,437.001,351.13,437.001z M358.929,439.494c-0.432-0.306-0.876-0.596-1.343-0.851
	l17.015-37.659c1.219,0.326,2.495,0.517,3.817,0.517c4.409,0,8.355-1.945,11.058-5.011l3,2.403L358.929,439.494z"/>
<g>
	<g>
		<polygon style="fill:#D6D6D6;" points="256,358.3 276,323.7 256,335.1 		"/>
		<path style="fill:#C4834D;" d="M256,153.7v170v11.4l20-11.4v-165c0-2.8-2.2-5-5-5L256,153.7L256,153.7z"/>
		<polygon style="fill:#FFFFFF;" points="236,323.7 256,358.3 256,335.1 		"/>
	</g>
	<g>
		<polygon style="fill:#FFE000;" points="236,323.7 256,335.1 256,168.6 236,168.6 		"/>
		<path style="fill:#ADADAD;" d="M271,153.7h-15v14.9h20v-9.9C276,155.9,273.8,153.7,271,153.7z"/>
		<path style="fill:#FFFFFF;" d="M236,158.7v9.9h20v-14.9h-15C238.2,153.7,236,155.9,236,158.7z"/>
	</g>
</g>
</svg>
