<?xml version="1.0" encoding="utf-8"?>
<!-- Generator: Adobe Illustrator 22.0.1, SVG Export Plug-In . SVG Version: 6.00 Build 0)  -->
<svg version="1.1" id="Layer_2" xmlns="http://www.w3.org/2000/svg" xmlns:xlink="http://www.w3.org/1999/xlink" x="0px" y="0px"
	 viewBox="0 0 512 512" enable-background="new 0 0 512 512" xml:space="preserve">
<radialGradient id="SVGID_1_" cx="252" cy="373" r="230" gradientUnits="userSpaceOnUse">
	<stop  offset="0" style="stop-color:#000000"/>
	<stop  offset="1" style="stop-color:#2B2F84"/>
</radialGradient>
<circle fill="url(#SVGID_1_)" cx="256" cy="256" r="230"/>
<g>
	<g>
		<g>
			<circle fill="#F90000" cx="170.257" cy="219.265" r="57.589"/>
			<path d="M138.332,188.163c17.203-17.203,13.946,13.946,31.148,31.148s48.35,13.946,31.148,31.148s-45.093,17.203-62.296,0
				S121.128,205.366,138.332,188.163z"/>
		</g>
		<g>
			<circle fill="#F90000" cx="341.743" cy="219.265" r="57.589"/>
			<path d="M310.641,251.19c-17.203-17.203,13.946-13.946,31.148-31.148s13.946-48.35,31.148-31.148
				c17.203,17.203,17.203,45.093,0,62.296S327.844,268.393,310.641,251.19z"/>
		</g>
	</g>
	<g>
		<path fill="#FFD400" d="M356.86,324.605c0,4.975-2.856,16.293-13.206,18.051c-59.518,10.111-87.672,51.668-87.672,51.668
			s-23.175-39.988-89.246-53.023c-9.298-1.835-11.632-12.054-11.632-16.696c0-21.941,45.164-22.104,100.878-22.104
			S356.86,302.664,356.86,324.605z"/>
		<path fill="#F9E075" d="M356.86,324.605c-0.985,7.858-2.856,16.293-13.206,18.051c-59.518,10.111-87.672,51.668-87.672,51.668
			s-23.175-39.988-89.246-53.023c-9.298-1.835-11.632-12.054-11.632-16.696c0-22.104,100.878,53.361,100.878,53.361
			S359.057,307.079,356.86,324.605z"/>
	</g>
</g>
</svg>
