<?xml version="1.0" encoding="utf-8"?>
<!-- Generator: Adobe Illustrator 22.0.1, SVG Export Plug-In . SVG Version: 6.00 Build 0)  -->
<svg version="1.1" id="Layer_2" xmlns="http://www.w3.org/2000/svg" xmlns:xlink="http://www.w3.org/1999/xlink" x="0px" y="0px"
	 viewBox="0 0 512 512" style="enable-background:new 0 0 512 512;" xml:space="preserve">
<g id="Layer_2_1_">
	<g id="Layer_1_copy_2_4_">
		<path style="fill:#EAEAEA;" d="M480.613,274.078c0.411,123.827-99.639,224.544-223.468,224.956l-1.488-448.422
			C379.486,50.2,480.203,150.25,480.613,274.078z"/>
	</g>
	<g id="Layer_1_copy_2_5_">
		<path style="fill:#EFEDED;" d="M256.842,50.611l-1.488,448.422C131.526,498.622,31.476,397.907,31.887,274.078
			C32.297,150.25,133.014,50.2,256.842,50.611z"/>
	</g>
	<path style="fill:#CE0505;" d="M482.224,238.288C461.645,126.962,362.115,50.179,252.145,55.031
		C145.266,54.004,49.874,129.787,29.776,238.505C7.267,360.271,87.728,477.229,209.494,499.739l47.348-306.118l45.664,305.901
		C424.272,477.012,504.735,360.054,482.224,238.288z"/>
	<g>
		<circle style="fill:#231F20;" cx="174.921" cy="285.008" r="31.779"/>
		
			<ellipse transform="matrix(0.0709 -0.9975 0.9975 0.0709 -248.184 391.5712)" style="fill:#231F20;" cx="86.101" cy="329.01" rx="31.779" ry="31.779"/>
		<circle style="fill:#231F20;" cx="170.847" cy="405.607" r="31.779"/>
		<circle style="fill:#231F20;" cx="96.696" cy="242.261" r="31.779"/>
		<circle style="fill:#231F20;" cx="385.274" cy="245.487" r="31.779"/>
		<circle style="fill:#231F20;" cx="308.558" cy="297.23" r="31.779"/>
		<circle style="fill:#231F20;" cx="407.971" cy="342.049" r="31.779"/>
		<circle style="fill:#231F20;" cx="353.494" cy="419.459" r="31.779"/>
		<circle style="fill:#231F20;" cx="194.628" cy="193.622" r="31.779"/>
		<circle style="fill:#231F20;" cx="294.095" cy="193.622" r="31.779"/>
	</g>
	<g id="Layer_1_copy_2_2_">
		<path style="fill:#161616;" d="M256,12.261c127.025,0,230,102.975,230,230c0,0-105.929-77.238-229.158-77.238
			C126.244,165.022,26,242.261,26,242.261C26,115.235,128.975,12.261,256,12.261z"/>
	</g>
	<g>
		<g>
			<circle style="fill:#FFFFFF;" cx="173.496" cy="67.847" r="44.409"/>
			<path d="M212.609,67.847c0,21.602-17.511,39.113-39.113,39.113s-39.113-17.511-39.113-39.113s17.511,0,39.113,0
				S212.609,46.246,212.609,67.847z"/>
		</g>
		<g>
			<circle style="fill:#FFFFFF;" cx="338.504" cy="67.847" r="44.409"/>
			<path d="M377.617,67.847c0,21.602-17.511,39.113-39.113,39.113s-39.113-17.511-39.113-39.113s17.511,0,39.113,0
				S377.617,46.246,377.617,67.847z"/>
		</g>
	</g>
</g>
</svg>
