<?xml version="1.0" encoding="utf-8"?>
<!-- Generator: Adobe Illustrator 18.0.0, SVG Export Plug-In . SVG Version: 6.00 Build 0)  -->
<!DOCTYPE svg PUBLIC "-//W3C//DTD SVG 1.1//EN" "http://www.w3.org/Graphics/SVG/1.1/DTD/svg11.dtd">
<svg version="1.1"
	 id="svg2" xmlns:cc="http://creativecommons.org/ns#" xmlns:rdf="http://www.w3.org/1999/02/22-rdf-syntax-ns#" xmlns:dc="http://purl.org/dc/elements/1.1/" xmlns:svg="http://www.w3.org/2000/svg"
	 xmlns="http://www.w3.org/2000/svg" xmlns:xlink="http://www.w3.org/1999/xlink" x="0px" y="0px" viewBox="0 0 640 640"
	 style="enable-background:new 0 0 640 640;" xml:space="preserve">
<g>
	<path id="path212" style="fill:#FFA539;" d="M93.515,90.904c9.532,0,18.894-0.5,28.187,0.087
		c42.591,2.68,83.886,11.306,123.25,28.15c23.829,10.196,46.143,22.954,66.096,39.676c3.666,3.072,5.394,6.675,5.452,11.289
		c0.017,1.341,0.046,2.683,0.046,4.024c0.014,117.534,0.027,235.069,0.041,352.603v4.147
		c-64.126-55.494-139.87-77.298-223.072-79.19C93.515,331.329,93.515,210.899,93.515,90.904"/>
	<path id="path216" style="fill:#FFA539;" d="M546.729,90.01v361.671c-83.134,1.897-158.924,23.631-223.135,79.243v-4.51
		c0.012-117.199,0.089-234.397-0.104-351.596c-0.014-8.381,2.753-14.063,9.309-19.175c33.881-26.42,72.285-43.096,113.598-53.647
		c31.321-7.997,63.247-11.383,95.508-11.985C543.384,89.986,544.861,90.01,546.729,90.01"/>
	<path id="path220" style="fill:#FFA539;" d="M564.932,130.167h13.821v354.406c-91.395,1.542-179.715,15.218-258.988,65.427
		c-47.799-31.979-101.898-48.019-158.305-57.461c-31.28-5.237-62.855-7.649-94.595-7.625c-1.796,0.002-3.589,0-5.619,0V130.278
		h13.635v339.816c43.828,0.379,86.576,5.491,128.325,17.352c41.812,11.881,81.319,28.863,116.884,54.513
		c35.546-25.635,75.045-42.629,116.86-54.5c41.641-11.823,84.251-16.995,127.98-17.326
		C564.932,356.78,564.932,243.719,564.932,130.167"/>
</g>
</svg>
