<?xml version="1.0" encoding="UTF-8" standalone="no"?>
<!DOCTYPE svg PUBLIC "-//W3C//DTD SVG 1.1//EN" "http://www.w3.org/Graphics/SVG/1.1/DTD/svg11.dtd">
<svg width="100%" height="100%" viewBox="0 0 512 512" version="1.1" xmlns="http://www.w3.org/2000/svg" xmlns:xlink="http://www.w3.org/1999/xlink" xml:space="preserve" xmlns:serif="http://www.serif.com/" style="fill-rule:evenodd;clip-rule:evenodd;stroke-linejoin:round;stroke-miterlimit:1.41421;">
    <g id="g228" transform="matrix(1.74876,-2.46519e-32,2.46519e-32,-1.74876,-191.682,703.681)">
        <g id="path236" transform="matrix(1,0,0,1,359.52,199.4)">
            <path d="M0,0C-4.998,-19.549 -22.727,-34.002 -43.833,-34.002C-62.67,-34.002 -78.813,-22.487 -85.621,-6.115L-183.059,-6.115C-198.699,-6.115 -212.738,0.838 -222.276,11.804C-222.278,11.616 -222.29,11.43 -222.29,11.24C-222.29,-21.557 -195.703,-48.145 -162.905,-48.145C-162.894,-48.145 -162.884,-48.144 -162.873,-48.144L-43.865,-48.144C-43.855,-48.144 -43.844,-48.145 -43.833,-48.145C-11.036,-48.145 15.552,-21.557 15.552,11.24C15.552,11.837 15.524,12.428 15.507,13.021C11.25,7.664 5.96,3.237 0,0" style="fill:rgb(46,146,229);fill-rule:nonzero;"/>
        </g>
        <g id="path240" transform="matrix(1,0,0,1,315.687,165.398)">
            <path d="M0,0C21.106,0 38.835,14.453 43.833,34.002C39.176,31.473 34.12,29.66 28.836,28.703C27.685,28.179 26.406,27.887 25.059,27.887L-41.787,27.887C-34.98,11.514 -18.837,0 0,0" style="fill:white;fill-rule:nonzero;"/>
        </g>
        <g id="path244" transform="matrix(1,0,0,1,387.522,245.27)">
            <path d="M0,0C0,20.413 -12.951,38.358 -32.278,44.798C-35.835,46.311 -39.512,47.4 -43.278,48.057C-44.963,85.52 -75.968,115.474 -113.839,115.474C-140.067,115.474 -163.483,101.267 -175.706,79C-181.325,82.561 -187.909,84.522 -194.791,84.522C-214.483,84.522 -230.504,68.501 -230.504,48.808C-230.504,48.607 -230.502,48.406 -230.499,48.204C-238.616,44.92 -245.87,39.592 -251.441,32.731C-258.923,23.515 -263.044,11.89 -263.044,0C-263.044,-13.024 -258.219,-24.934 -250.278,-34.065C-249.973,-1.529 -223.515,24.755 -190.907,24.755L-71.835,24.755C-39.635,24.755 -13.439,-0.878 -12.495,-32.849C-10.984,-30.947 -9.591,-28.939 -8.36,-26.813C-2.889,-18.9 0,-9.638 0,0" style="fill:rgb(46,146,229);fill-rule:nonzero;"/>
        </g>
        <g id="path248" transform="matrix(1,0,0,1,344.523,194.101)">
            <path d="M0,0C5.283,0.957 10.34,2.77 14.997,5.299C15.916,8.893 16.406,12.659 16.406,16.539C16.406,41.526 -3.85,61.781 -28.836,61.781C-53.823,61.781 -74.078,41.526 -74.078,16.539C-74.078,10.389 -72.846,4.529 -70.624,-0.816L-3.777,-0.816C-2.43,-0.816 -1.152,-0.524 0,0" style="fill:rgb(46,146,229);fill-rule:nonzero;"/>
        </g>
        <g id="path252" transform="matrix(1,0,0,1,315.687,270.026)">
            <path d="M0,0L-119.049,0L-119.049,-0.001C-119.056,-0.001 -119.064,0 -119.072,0C-151.68,0 -178.138,-26.285 -178.443,-58.821C-168.905,-69.787 -154.866,-76.741 -139.226,-76.741L-41.787,-76.741C-44.01,-71.395 -45.242,-65.535 -45.242,-59.385C-45.242,-34.398 -24.987,-14.143 0,-14.143C24.987,-14.143 45.242,-34.398 45.242,-59.385C45.242,-63.265 44.752,-67.031 43.833,-70.625C49.793,-67.388 55.084,-62.961 59.34,-57.605C58.396,-25.633 32.2,0 0,0" style="fill:white;fill-rule:nonzero;"/>
        </g>
    </g>
</svg>
