<?xml version="1.0" encoding="UTF-8" standalone="no"?>
<!DOCTYPE svg PUBLIC "-//W3C//DTD SVG 1.1//EN" "http://www.w3.org/Graphics/SVG/1.1/DTD/svg11.dtd">
<svg width="100%" height="100%" viewBox="0 0 512 512" version="1.1" xmlns="http://www.w3.org/2000/svg" xmlns:xlink="http://www.w3.org/1999/xlink" xml:space="preserve" xmlns:serif="http://www.serif.com/" style="fill-rule:evenodd;clip-rule:evenodd;stroke-linejoin:round;stroke-miterlimit:1.41421;">
    <g id="g228" transform="matrix(1.88491,0,0,-1.88491,-226.535,738.536)">
        <g id="path236" transform="matrix(1,0,0,1,255.998,245.87)">
            <path d="M0,0C-16.581,0 -30.024,-13.442 -30.024,-30.023L30.024,-30.023C30.024,-13.442 16.581,0 0,0" style="fill:rgb(46,173,229);fill-rule:nonzero;"/>
        </g>
        <g id="path240" transform="matrix(1,0,0,1,348.076,305.639)">
            <path d="M0,0C-3.301,1.404 -6.712,2.415 -10.205,3.024C-11.769,37.781 -40.535,65.572 -75.67,65.572C-100.003,65.572 -121.728,52.391 -133.068,31.732C-138.281,35.036 -144.39,36.856 -150.774,36.856C-169.044,36.856 -183.908,21.991 -183.908,3.721C-183.908,3.535 -183.907,3.348 -183.904,3.161C-191.434,0.113 -198.165,-4.829 -203.333,-11.195C-210.274,-19.746 -214.098,-30.53 -214.098,-41.562C-214.098,-67.733 -193.143,-89.085 -167.133,-89.76L-167.133,-80.785L-150.221,-74.78C-148.8,-69.281 -146.607,-64.09 -143.781,-59.315L-143.806,-59.291L-151.518,-43.087L-138.78,-30.35L-122.576,-38.062L-122.553,-38.086C-117.779,-35.261 -112.588,-33.067 -107.087,-31.646L-101.083,-14.734L-83.069,-14.734L-77.065,-31.646C-71.565,-33.067 -66.374,-35.261 -61.599,-38.086L-61.576,-38.062L-45.372,-30.35L-32.634,-43.088L-40.347,-59.292L-40.37,-59.315C-37.545,-64.089 -35.352,-69.28 -33.93,-74.781L-17.018,-80.785L-17.018,-89.792L-13.451,-89.792C-12.201,-89.792 -11.015,-89.521 -9.947,-89.034C3.455,-86.606 15.316,-78.304 22.19,-66.438C27.266,-59.097 29.946,-50.504 29.946,-41.562C29.946,-22.624 17.931,-5.975 0,0" style="fill:rgb(46,173,229);fill-rule:nonzero;"/>
        </g>
        <g id="path244" transform="matrix(1,0,0,1,286.022,215.847)">
            <path d="M0,0C0,-16.581 -13.442,-30.024 -30.024,-30.024C-46.605,-30.024 -60.047,-16.581 -60.047,0L-103.815,0C-104.239,0 -104.658,0.021 -105.079,0.032L-105.079,-9.006L-88.167,-15.011C-86.746,-20.511 -84.552,-25.702 -81.727,-30.476L-81.752,-30.5L-89.464,-46.703L-76.727,-59.441L-60.523,-51.728L-60.499,-51.705C-55.724,-54.53 -50.533,-56.723 -45.033,-58.145L-39.029,-75.057L-21.015,-75.057L-15.011,-58.145C-9.511,-56.723 -4.319,-54.53 0.455,-51.705L0.478,-51.728L16.682,-59.441L29.42,-46.703L21.707,-30.5L21.684,-30.476C24.509,-25.701 26.701,-20.511 28.124,-15.011L45.035,-9.007L45.035,0L0,0Z" style="fill:rgb(46,173,229);fill-rule:nonzero;"/>
        </g>
        <g id="path248" transform="matrix(1,0,0,1,314.146,230.858)">
            <path d="M0,0C-1.422,5.501 -3.615,10.692 -6.44,15.466L-6.417,15.489L1.296,31.693L-11.442,44.431L-27.646,36.719L-27.669,36.695C-32.444,39.52 -37.635,41.714 -43.135,43.134L-49.139,60.047L-67.153,60.047L-73.157,43.134C-78.658,41.714 -83.849,39.52 -88.623,36.695L-88.646,36.719L-104.85,44.431L-117.588,31.694L-109.876,15.49L-109.851,15.466C-112.677,10.691 -114.87,5.5 -116.291,0.001L-133.203,-6.004L-133.203,-14.979C-132.782,-14.99 -132.363,-15.011 -131.939,-15.011L-88.171,-15.011C-88.171,1.57 -74.729,15.013 -58.148,15.013C-41.566,15.013 -28.124,1.57 -28.124,-15.011L16.911,-15.011L16.911,-6.004L0,0Z" style="fill:white;fill-rule:nonzero;"/>
        </g>
    </g>
</svg>
