<?xml version="1.0" encoding="utf-8"?>
<!-- Generator: Adobe Illustrator 18.0.0, SVG Export Plug-In . SVG Version: 6.00 Build 0)  -->
<!DOCTYPE svg PUBLIC "-//W3C//DTD SVG 1.1//EN" "http://www.w3.org/Graphics/SVG/1.1/DTD/svg11.dtd">
<svg version="1.1" id="Layer_1" xmlns="http://www.w3.org/2000/svg" xmlns:xlink="http://www.w3.org/1999/xlink" x="0px" y="0px"
	 viewBox="0 0 512 512" enable-background="new 0 0 512 512" xml:space="preserve">
<g>
	<g>
		<linearGradient id="SVGID_1_" gradientUnits="userSpaceOnUse" x1="288.1338" y1="309.209" x2="288.1338" y2="68.06">
			<stop  offset="0" style="stop-color:#FFFFFF"/>
			<stop  offset="1" style="stop-color:#FFFFFF;stop-opacity:0.8"/>
		</linearGradient>
		<circle opacity="0.95" fill="url(#SVGID_1_)" enable-background="new    " cx="288.1" cy="188.6" r="120.6"/>
		<linearGradient id="SVGID_2_" gradientUnits="userSpaceOnUse" x1="107.3807" y1="138.0977" x2="193.8549" y2="224.5719">
			<stop  offset="0" style="stop-color:#FFFFFF;stop-opacity:0.8"/>
			<stop  offset="1" style="stop-color:#FFFFFF"/>
		</linearGradient>
		<circle opacity="0.95" fill="url(#SVGID_2_)" enable-background="new    " cx="150.6" cy="181.3" r="61.1"/>
		<linearGradient id="SVGID_3_" gradientUnits="userSpaceOnUse" x1="52.007" y1="202.3067" x2="177.5798" y2="327.8795">
			<stop  offset="0" style="stop-color:#FFFFFF;stop-opacity:0.8"/>
			<stop  offset="1" style="stop-color:#FFFFFF"/>
		</linearGradient>
		<circle opacity="0.95" fill="url(#SVGID_3_)" enable-background="new    " cx="114.8" cy="265.1" r="88.8"/>
		<linearGradient id="SVGID_4_" gradientUnits="userSpaceOnUse" x1="339.5995" y1="328.7681" x2="460.8816" y2="207.4859">
			<stop  offset="0" style="stop-color:#FFFFFF"/>
			<stop  offset="1" style="stop-color:#FFFFFF;stop-opacity:0.8"/>
		</linearGradient>
		<circle opacity="0.95" fill="url(#SVGID_4_)" enable-background="new    " cx="400.2" cy="268.1" r="85.8"/>
		
			<radialGradient id="SVGID_5_" cx="256.5327" cy="310.0135" r="104.2172" gradientTransform="matrix(1.838 0 0 1.838 -213.7024 -214.3181)" gradientUnits="userSpaceOnUse">
			<stop  offset="0" style="stop-color:#FFFFFF"/>
			<stop  offset="1" style="stop-color:#FFFFFF;stop-opacity:0"/>
		</radialGradient>
		<path fill="url(#SVGID_5_)" d="M400.2,353.9H115.4c0-78.7,63.8-142.4,142.4-142.4S400.2,275.2,400.2,353.9z"/>
	</g>
	<linearGradient id="SVGID_6_" gradientUnits="userSpaceOnUse" x1="256" y1="443.94" x2="256" y2="168.9733">
		<stop  offset="0" style="stop-color:#56EECC"/>
		<stop  offset="1" style="stop-color:#5CCAFF"/>
	</linearGradient>
	<path fill="url(#SVGID_6_)" d="M279.7,332.3c0.3-17.9,33.6-18.2,38.2-78c0.5-7.4,0.5-15.6-0.7-23.8c-1.2-34.1-29.5-61.6-64.3-61.6
		c-30.3,0-55.7,20.9-62.6,48.9c-4.4,13.7-4.9,28.5-3.5,39.3c8,64.3,39.3,51.7,38.3,79.3c-1,27.8-93.2,21.8-87.9,79.5
		c1.5,16.6,60.2,27.9,110.3,27.9c52.9,0,127.4-3.3,127.4-22.3C375.3,356.2,279.2,363.1,279.7,332.3z"/>
</g>
</svg>
