<?xml version="1.0" encoding="utf-8"?>
<!-- Generator: Adobe Illustrator 22.0.1, SVG Export Plug-In . SVG Version: 6.00 Build 0)  -->
<svg version="1.1" id="Layer_2_1_" xmlns="http://www.w3.org/2000/svg" xmlns:xlink="http://www.w3.org/1999/xlink" x="0px" y="0px"
	 viewBox="0 0 512 512" style="enable-background:new 0 0 512 512;" xml:space="preserve">
<g id="g928" transform="matrix(0.986517,0,0,0.986517,376.851,327.941)">
	<path id="rect914_1_" d="M-257.002-306.068c-31.011,0-56.289,25.277-56.289,56.287v353.713c0,31.011,25.278,56.287,56.289,56.287
		h269c31.01,0,56.287-25.276,56.287-56.287v-353.713c0-31.01-25.277-56.287-56.287-56.287H-257.002z"/>
</g>
<g id="g12">
	<path id="rect4" style="fill:#FFFFFF;" d="M256,298.7c0-5.85-4.75-10.6-10.6-10.6H145.1c-5.85,0-10.6,4.75-10.6,10.6
		s4.75,10.6,10.6,10.6h100.3C251.25,309.3,256,304.55,256,298.7z"/>
	<path id="rect6" style="fill:#FFFFFF;" d="M377.5,339.9c0-5.85-4.75-10.6-10.6-10.6H145.1c-5.85,0-10.6,4.75-10.6,10.6
		s4.75,10.6,10.6,10.6h221.8C372.75,350.5,377.5,345.75,377.5,339.9z"/>
	<path id="rect8" style="fill:#FFFFFF;" d="M377.5,379.9c0-5.85-4.75-10.6-10.6-10.6H145.1c-5.85,0-10.6,4.75-10.6,10.6
		s4.75,10.6,10.6,10.6h221.8C372.75,390.5,377.5,385.75,377.5,379.9z"/>
	<path id="rect10" style="fill:#FFFFFF;" d="M377.4,420c0-5.85-4.75-10.6-10.6-10.6H266.6c-5.85,0-10.6,4.75-10.6,10.6
		s4.75,10.6,10.6,10.6h100.2C372.65,430.6,377.4,425.85,377.4,420z"/>
</g>
<g>
	<path style="fill:#FFFFFF;" d="M359.976,254.123H152.024c-9.663,0-17.524-7.861-17.524-17.524v-114.49
		c0-9.663,7.861-17.524,17.524-17.524h207.952c9.663,0,17.524,7.861,17.524,17.524v114.49
		C377.5,246.262,369.639,254.123,359.976,254.123z M152.024,116.267c-3.221,0-5.841,2.621-5.841,5.841v114.49
		c0,3.221,2.621,5.841,5.841,5.841h207.952c3.221,0,5.841-2.621,5.841-5.841v-114.49c0-3.221-2.621-5.841-5.841-5.841H152.024z"/>
	<path style="fill:#FFFFFF;" d="M169.548,217.075v-75.442c0-1.105,0.895-2,2-2h20.404c0.608,0,1.182,0.276,1.562,0.751
		l21.203,26.504c0.801,1.001,2.323,1.001,3.123,0l21.203-26.504c0.38-0.474,0.954-0.751,1.562-0.751h20.404c1.105,0,2,0.895,2,2
		v75.442c0,1.105-0.895,2-2,2h-19.365c-1.105,0-2-0.895-2-2v-37.861c0-1.891-2.381-2.726-3.562-1.249l-18.242,22.802
		c-0.801,1.001-2.323,1.001-3.123,0l-18.242-22.802c-1.181-1.476-3.562-0.641-3.562,1.249v37.861c0,1.105-0.895,2-2,2h-19.365
		C170.444,219.075,169.548,218.18,169.548,217.075z"/>
	<path style="fill:#FFFFFF;" d="M313.362,216.633l-28.266-31.093c-1.752-1.927-0.385-5.018,2.22-5.018h13.584c1.657,0,3-1.343,3-3
		v-34.889c0-1.657,1.343-3,3-3h17.365c1.657,0,3,1.343,3,3v34.889c0,1.657,1.343,3,3,3h13.584c2.604,0,3.972,3.091,2.22,5.018
		l-28.266,31.093C316.611,217.943,314.552,217.943,313.362,216.633z"/>
</g>
</svg>
