<?xml version="1.0" encoding="UTF-8" standalone="no"?>
<!DOCTYPE svg PUBLIC "-//W3C//DTD SVG 1.1//EN" "http://www.w3.org/Graphics/SVG/1.1/DTD/svg11.dtd">
<svg width="100%" height="100%" viewBox="0 0 512 512" version="1.1" xmlns="http://www.w3.org/2000/svg" xmlns:xlink="http://www.w3.org/1999/xlink" xml:space="preserve" xmlns:serif="http://www.serif.com/" style="fill-rule:evenodd;clip-rule:evenodd;stroke-linejoin:round;stroke-miterlimit:1.41421;">
    <g transform="matrix(1,0,0,1,-64,-64)">
        <path d="M320,90C446.94,90 550,193.06 550,320C550,446.94 446.94,550 320,550C193.06,550 90,446.94 90,320C90,193.06 193.06,90 320,90ZM326.327,423.225C327.199,423.359 328.055,423.411 328.892,423.405L331.619,423.172L334.179,422.523L334.922,422.195L336.542,421.477L337.291,420.978L338.681,420.051L339.165,419.592L339.266,419.517L339.517,419.258L340.564,418.265L340.862,417.868L340.999,417.726L341.389,417.166L342.163,416.135L342.336,415.806L342.464,415.622L342.892,414.745L343.45,413.68L343.54,413.417L343.636,413.221L344.017,412.02L344.394,410.92L344.432,410.718L344.488,410.54L344.755,408.994L344.966,407.871L344.973,407.731L344.997,407.595L345.084,405.592L345.138,404.552L345.132,404.478C345.122,403.359 345.037,402.189 344.879,400.981C344.707,399.671 344.93,398.402 345.517,397.207C346.426,395.2 348.238,393.345 350.664,391.701C354.871,388.864 360.915,386.678 367.261,385.488C382.917,382.54 400.529,385.538 397.903,399.432L397.569,400.981C397.158,402.893 396.654,404.781 396.031,406.64L394.779,410.224L394.066,412.031L392.02,416.499L391.13,418.138L389.475,421.043L388.142,423.192L386.827,425.106L385.567,426.903L383.023,430.135C381.604,431.87 380.111,433.542 378.534,435.152L378.114,435.594L375.95,437.695L373.896,439.552L372.862,440.47L371.354,441.693L368.766,443.7L367.288,444.794L363.403,447.362L362.039,448.193L357.834,450.529L356.83,451.02L352.642,452.927L352.006,453.201L347.332,454.873L346.316,455.194L341.659,456.407L340.768,456.584C337.311,457.303 333.873,457.665 330.498,457.665C325.079,457.665 319.682,457.074 314.349,455.962L309.049,454.68L308.282,454.445C293.893,450.352 280.207,442.574 268.321,432.552L265.488,430.135L262.021,426.903C249.67,415.055 239.706,400.823 233.559,386.114C229.763,377.076 227.414,367.854 226.885,358.91C226.474,353.097 226.854,347.399 228.074,341.938L228.889,338.723L229.212,337.675L229.869,335.586L230.317,334.365L231.01,332.528L231.552,331.257L232.307,329.548L232.93,328.271L233.754,326.647L234.45,325.382L235.196,324.085L238.154,319.519L238.676,318.79L242.058,314.479L242.618,313.833L245.073,311.194L247.655,308.58L249.863,306.549L252.672,304.13L255.055,302.235L258.081,299.996L260.609,298.247L263.843,296.179L266.481,294.583L269.921,292.676L272.629,291.242L276.287,289.484L279.012,288.223L282.93,286.597L285.587,285.526L289.901,283.991L292.313,283.15L297.603,281.556L299.146,281.096L306.086,279.36L307.379,279.096L313.018,277.96L315.378,277.583L319.928,276.884L322.599,276.576L326.774,276.132L329.56,275.934L333.512,275.703L336.326,275.633L340.1,275.6L342.89,275.664L346.496,275.822L349.223,276.024L352.656,276.369L355.29,276.713L358.538,277.244L361.053,277.728L364.1,278.446L366.47,279.072L369.3,279.977L371.5,280.743L374.097,281.84L376.101,282.742L378.453,284.042L380.36,285.145L380.696,285.372L383.906,287.772L384.373,288.192C386.312,289.891 387.955,291.795 389.25,293.878L390.18,295.532L390.325,295.797L390.989,297.306L391.193,297.781L391.681,299.278L391.86,299.837L392.328,301.971C392.657,303.929 392.798,305.844 392.745,307.711C392.608,315.543 389.432,322.646 384.343,329.175C382.577,331.451 380.58,333.662 378.382,335.799C376.269,337.886 373.983,339.919 371.562,341.938C345.323,363.474 303.748,379.34 301.86,398.381C301.727,399.701 301.787,401.038 302.078,402.346C303,407.179 306.627,412.253 313.774,417.695C314.71,418.408 315.647,419.05 316.571,419.592L316.898,419.814L317.163,419.952C318.066,420.485 318.968,420.954 319.867,421.357L320.001,421.427L320.304,421.538L321.54,422.051L322.767,422.445L323.054,422.551L323.186,422.58C324.066,422.836 324.933,423.031 325.794,423.153L326.027,423.204L326.327,423.225ZM215.472,251.563L217.321,250.452L217.922,250.187L219.113,249.686L219.806,249.497L220.846,249.247L221.558,249.172L222.518,249.116L223.225,249.161L224.128,249.274L224.816,249.437L225.673,249.705L226.335,249.977L227.151,250.389L227.782,250.762L228.562,251.309L229.157,251.772L229.904,252.45L230.458,252.988L231.176,253.796L231.683,254.392L232.385,255.343L232.832,255.965L232.994,256.225L234.331,258.565L235.367,260.665L236.152,262.488L236.981,264.768L237.624,266.755L238.238,269.105L238.731,271.216L239.123,273.513L239.456,275.718L239.628,277.822L239.782,280.108L239.755,281.797C239.737,286.619 238.828,290.768 236.958,293.216L236.065,294.184L235.832,294.404L234.649,295.142C233.518,295.64 232.254,295.794 230.903,295.649L230.411,295.567L229.589,295.42L227.119,294.573L226.827,294.45L225.556,293.754L223.861,292.771L222.601,291.844L220.979,290.582L219.722,289.423L218.187,287.919L216.985,286.569L215.569,284.861L214.467,283.359L213.21,281.488L212.249,279.871L211.196,277.879L210.413,276.184L209.612,274.111L208.874,271.853L208.758,271.429L208.165,268.16L208.089,267.485L208.037,266.625L208.012,265.583L208.036,264.729L208.113,263.705L208.218,262.867L208.403,261.863L208.593,261.046L208.893,260.064L209.17,259.278L209.597,258.318L209.961,257.571L210.53,256.63L210.976,255.937L211.716,255.002L212.226,254.384L213.214,253.411L213.721,252.923L215.472,251.563C215.472,251.563 215.472,251.563 215.472,251.563ZM258.448,215.789L260.74,215.009L261.464,214.864L262.886,214.598L263.694,214.561L264.888,214.534L265.691,214.633L266.748,214.798L267.517,215.031L268.469,215.366L269.19,215.729L270.052,216.218L270.721,216.702L271.5,217.332L272.113,217.927L272.815,218.688L273.37,219.383L273.998,220.262L274.496,221.049L275.053,222.035L275.494,222.902L275.98,223.984L276.365,224.922L276.631,225.664L277.769,229.511L277.883,230.035L278.397,232.927L278.759,235.575L278.958,237.977L279.072,240.655L279.068,243.138L278.955,245.73L278.746,248.234L278.43,250.632L278.01,253.088L277.518,255.198L276.733,258.052L276.681,258.21L275.219,261.728L275.141,261.883L274.357,263.263L274.258,263.418L273.378,264.649L273.299,264.745L272.317,265.804L272.269,265.846L271.175,266.706L270.219,267.248L269.029,267.644C269.029,267.644 267.648,267.786 267.648,267.786C267.648,267.786 266.079,267.629 266.079,267.629L265.524,267.488L264.478,267.172L263.83,266.905L262.851,266.429L262.19,266.06L261.18,265.393L260.577,264.97L260.239,264.69L257.814,262.482L257.523,262.193L255.158,259.363L254.708,258.754L252.566,255.501L252.278,254.985L250.559,251.679L250.248,251.033L248.781,247.342L248.435,246.318L247.38,242.547L247.206,241.648L246.697,238.403L246.556,237.185L246.477,234.269L246.486,233.834L246.719,230.953L247.13,228.818L247.781,226.663L248.037,226.051L248.676,224.591L248.999,224.014L249.857,222.589L250.126,222.223L251.422,220.623L252.378,219.611L254.138,218.165C254.138,218.165 256.157,216.887 256.157,216.887L258.448,215.789L258.448,215.789ZM428.195,188.736C424.604,184.752 418.245,182.335 408.385,182.335C394.135,182.335 382.765,187.384 374.226,194.975C366.028,202.251 360.43,211.862 357.414,221.588C350.839,242.475 356.065,263.916 372.585,263.916C379.205,263.916 387.034,260.472 394.775,254.98L396.303,253.913L399.653,251.303C404.86,247.062 409.916,242.024 414.422,236.598L416.191,234.463L418.456,231.485C420.082,229.291 421.604,227.064 422.999,224.798C431.684,210.874 435.367,196.689 428.195,188.736ZM317.011,192.519L319.575,192.35L320.215,192.355L322.247,192.512L322.53,192.543L324.568,193.041L325.057,193.216L326.562,193.883L326.901,194.055L328.46,195.122L328.802,195.421L329.902,196.506L330.206,196.842L331.297,198.343L332.572,200.819L332.824,201.493L333.536,203.717L333.744,204.526L334.3,207.644L334.532,211.032L334.545,211.938L334.484,214.785L334.447,215.574L334.085,219.259L334.012,219.739L333.535,222.589L332.376,227.781L332.134,228.6L330.741,233.008L330.239,234.401L328.24,239.214C328.24,239.214 325.895,243.594 325.895,243.594L324.147,246.342L323.904,246.664L322.755,248.182L322.109,248.904L321.239,249.877L320.061,250.958L317.833,252.571L317.123,252.93C316.576,253.216 316.011,253.419 315.443,253.552L314.612,253.728L313.276,253.808L311.46,253.47L310.904,253.27L309.679,252.737L309.079,252.4L307.904,251.593L307.391,251.201L305.802,249.695L304.306,247.864L303.862,247.227L302.895,245.749L302.432,244.964L301.865,243.9L300.045,239.971C300.045,239.971 298.592,235.588 298.592,235.588L298.32,234.622L297.31,230.039L297.194,229.259L296.685,224.897L296.605,223.95L296.568,222.974L296.529,220.774L296.548,219.678L296.664,217.502L296.738,216.529L297.139,213.473L297.682,210.881L298.607,207.843L298.935,206.978L299.886,204.802L300.251,204.051L301.82,201.46L302.175,201L303.759,199.093L304.396,198.439L306.289,196.795L306.797,196.387L307.153,196.15L308.768,195.157L309.278,194.878L311.407,193.913L311.701,193.813L313.779,193.165L314.429,193.001L317.011,192.519C317.011,192.519 317.011,192.519 317.011,192.519Z" style="fill:rgb(25,25,25);"/>
    </g>
</svg>
