<?xml version="1.0" encoding="UTF-8" standalone="no"?>
<!DOCTYPE svg PUBLIC "-//W3C//DTD SVG 1.1//EN" "http://www.w3.org/Graphics/SVG/1.1/DTD/svg11.dtd">
<svg width="100%" height="100%" viewBox="0 0 512 512" version="1.1" xmlns="http://www.w3.org/2000/svg" xmlns:xlink="http://www.w3.org/1999/xlink" xml:space="preserve" xmlns:serif="http://www.serif.com/" style="fill-rule:evenodd;clip-rule:evenodd;stroke-linejoin:round;stroke-miterlimit:1.41421;">
    <g transform="matrix(1.31681,0,0,1.31681,-30.6537,-34.8752)">
        <circle cx="217.688" cy="220.894" r="174.665" style="fill:rgb(31,32,33);"/>
    </g>
    <g id="path236" transform="matrix(1.25,0,0,-1.25,358.056,322.314)">
        <path d="M0,0C0.704,1.19 0.452,0.58 1.105,1.801L-18.484,31.171C-26.112,3.05 -51.803,-17.64 -82.339,-17.64C-118.886,-17.64 -148.512,11.986 -148.512,48.532C-148.512,75.423 -132.463,98.551 -109.428,108.903L-109.428,140.242C-117.011,137.995 -124.2,134.821 -130.874,130.871L-130.912,130.91L-156.716,143.192L-177,122.908L-164.718,97.104L-164.679,97.066C-169.179,89.462 -172.671,81.197 -174.934,72.438L-201.865,62.876L-201.865,34.19L-174.934,24.628C-172.671,15.869 -169.177,7.602 -164.679,0L-164.718,-0.038L-177,-25.841L-156.716,-46.125L-130.912,-33.843L-130.874,-33.806C-123.27,-38.305 -115.004,-41.797 -106.246,-44.061L-96.683,-70.992L-67.998,-70.992L-58.436,-44.061C-49.677,-41.797 -41.409,-38.304 -33.808,-33.806L-33.77,-33.843L-7.966,-46.125L12.319,-25.841L0.037,-0.038L0,0Z" style="fill:white;fill-rule:nonzero;"/>
    </g>
    <g id="path240" transform="matrix(1.25,0,0,-1.25,302.543,219.815)">
        <path d="M0,0L-19.966,-20.633L-19.966,-71.724L-58.366,-71.724L-58.366,107.096L-19.966,107.096L-19.966,26.037L-3.072,48.267L44.415,107.096L70.588,81.333L25.472,27.634L78.986,-50.404L47.872,-71.724L0,0Z" style="fill:white;fill-rule:nonzero;"/>
    </g>
</svg>
