<?xml version="1.0" encoding="utf-8"?>
<!-- Generator: Adobe Illustrator 22.0.1, SVG Export Plug-In . SVG Version: 6.00 Build 0)  -->
<svg version="1.1" id="Layer_1" xmlns="http://www.w3.org/2000/svg" xmlns:xlink="http://www.w3.org/1999/xlink" x="0px" y="0px"
	 viewBox="0 0 512 512" enable-background="new 0 0 512 512" xml:space="preserve">
<g>
	<g id="g210" transform="translate(272.811,249.9259)">
		<path id="path212" fill="#D70751" d="M19.3,19.1c-7.6,0.1,1.4,3.9,11.4,5.5c2.8-2.1,5.2-4.3,7.5-6.4
			C31.9,19.7,25.6,19.7,19.3,19.1"/>
	</g>
	<g id="g214" transform="translate(291.8715,254.6781)">
		<path id="path216" fill="#D70751" d="M41.1,4.2c4.5-6.3,7.8-13.1,9-20.2c-1,5.1-3.8,9.4-6.3,14c-14.2,9-1.3-5.3,0-10.8
			C28.5,6.5,41.7-1.2,41.1,4.2"/>
	</g>
	<g id="g218" transform="translate(298.9086,272.9853)">
		<path id="path220" fill="#D70751" d="M49.2-53.4c0.9-13.7-2.7-9.4-3.9-4.1C46.7-56.8,47.8-47.9,49.2-53.4"/>
	</g>
	<g id="g222" transform="translate(259.3446,360.3951)">
		<path id="path224" fill="#D70751" d="M3.8-328.5c4.1,0.7,8.8,1.3,8.1,2.3C16.4-327.2,17.4-328.1,3.8-328.5"/>
	</g>
	<g id="g226" transform="translate(263.1309,359.3414)">
		<path id="path228" fill="#D70751" d="M8.2-325.1l-2.9,0.6l2.7-0.2L8.2-325.1z"/>
	</g>
	<g id="g230" transform="translate(322.2314,270.5601)">
		<path id="path232" fill="#D70751" d="M75.9-45.8c0.5,12.3-3.6,18.3-7.3,28.9l-6.6,3.3c-5.4,10.5,0.5,6.6-3.3,15
			c-8.4,7.5-25.5,23.4-31,24.9c-4-0.1,2.7-4.7,3.6-6.5C20,27.4,22.3,31.3,5,36l-0.5-1.1C-38,54.9-97,15.2-96.2-38.8
			c-0.5,3.4-1.3,2.6-2.2,4c-2.2-27.8,12.8-55.7,38.2-67.2c24.8-12.3,53.9-7.2,71.7,9.3c-9.8-12.8-29.2-26.3-52.2-25.1
			c-22.6,0.4-43.7,14.7-50.7,30.2c-11.6,7.3-12.9,28-17.9,31.8c-6.8,49.8,12.7,71.3,45.8,96.6c5.2,3.5,1.5,4,2.2,6.7
			c-11-5.1-21-12.9-29.3-22.4c4.4,6.4,9.1,12.7,15.2,17.6c-10.3-3.5-24.2-25.1-28.2-25.9c17.8,31.9,72.3,56,100.9,44
			c-13.2,0.5-30,0.3-44.8-5.2c-6.2-3.2-14.7-9.8-13.2-11.1c38.9,14.6,79.2,11,112.9-16c8.6-6.7,17.9-18,20.6-18.2
			c-4.1,6.1,0.7,2.9-2.4,8.4C78.7,5,66.5,13.2,79-5l4.6,6.4C81.9-10.1,97.9-24,96.2-42.1c3.6-5.5,4.1,5.9,0.2,18.7
			c5.4-14.1,1.4-16.4,2.8-28c1.5,3.9,3.5,8.1,4.5,12.2c-3.5-13.6,3.6-23,5.4-30.9c-1.7-0.8-5.4,6-6.3-10.1c0.1-7,1.9-3.7,2.7-5.4
			c-1.4-0.8-5-6.2-7.2-16.4c1.6-2.4,4.3,6.3,6.4,6.6c-1.4-8.2-3.8-14.4-3.9-20.7c-6.3-13.2-2.2,1.8-7.4-5.7
			c-6.7-21,5.6-4.9,6.4-14.4c10.2,14.8,16,37.7,18.7,47.2c-2-11.6-5.3-22.8-9.3-33.6c3.1,1.3-5-23.8,4-7.2
			c-9.6-35.4-41.2-68.5-70.3-84.1c3.6,3.3,8,7.3,6.4,8c-14.4-8.6-11.9-9.3-14-12.9c-11.8-4.8-12.5,0.4-20.3,0
			c-22.2-11.8-26.5-10.5-46.9-17.9l0.9,4.3c-14.7-4.9-17.1,1.9-33,0c-1-0.8,5.1-2.7,10.1-3.5c-14.2,1.9-13.5-2.8-27.4,0.5
			c3.4-2.4,7-4,10.7-6c-11.6,0.7-27.7,6.7-22.7,1.2c-18.9,8.4-52.5,20.3-71.3,37.9l-0.6-4c-8.6,10.4-37.6,30.9-40,44.4l-2.3,0.5
			c-4.5,7.6-7.4,16.2-11,24.1c-5.9,10-8.6,3.9-7.8,5.4c-11.6,23.4-17.3,43.1-22.3,59.3c3.5,5.3,0.1,31.8,1.4,53
			c-5.8,104.8,73.5,206.5,160.3,230c12.7,4.5,31.6,4.4,47.7,4.8c-19-5.4-21.4-2.9-39.9-9.3c-13.3-6.3-16.3-13.4-25.7-21.6l3.7,6.6
			c-18.5-6.6-10.8-8.1-25.8-12.9l4-5.2c-6-0.5-15.9-10.1-18.6-15.5l-6.6,0.3c-7.9-9.7-12.1-16.7-11.8-22.2l-2.1,3.8
			c-2.4-4.1-29-36.5-15.2-29c-2.6-2.4-6-3.8-9.7-10.5l2.8-3.2c-6.6-8.6-12.2-19.5-11.8-23.2c3.5,4.8,6,5.7,8.4,6.5
			c-16.8-41.6-17.7-2.3-30.4-42.4l2.7-0.2c-2.1-3.1-3.3-6.5-5-9.8l1.2-11.7c-12.1-14-3.4-59.4-1.6-84.3
			c1.2-10.1,10.1-20.9,16.8-37.8l-4.1-0.7c7.9-13.7,44.9-55.1,62.1-53c8.3-10.4-1.6,0-3.3-2.7c18.3-18.9,24-13.3,36.3-16.7
			c13.3-7.9-11.4,3.1-5.1-3c23-5.9,16.3-13.3,46.2-16.3c3.2,1.8-7.3,2.8-10,5.1c19.1-9.4,60.6-7.2,87.4,5.2
			c31.2,14.6,66.3,57.7,67.7,98.3l1.6,0.4c-0.8,16.1,2.5,34.8-3.2,51.9L75.9-45.8"/>
	</g>
	<g id="g234" transform="translate(234.0485,245.0514)">
		<path id="path236" fill="#D70751" d="M-25.2,34.4l-1.1,5.3c5,6.8,9,14.2,15.4,19.5C-15.5,50.3-18.9,46.6-25.2,34.4"/>
	</g>
	<g id="g238" transform="translate(239.5661,245.2675)">
		<path id="path240" fill="#D70751" d="M-18.8,33.8c-2.7-2.9-4.2-6.5-6-10c1.7,6.2,5.1,11.5,8.3,16.9L-18.8,33.8"/>
	</g>
	<g id="g242" transform="translate(337.2027,266.4889)">
		<path id="path244" fill="#D70751" d="M93.1-33L92-30.2c-2.1,14.6-6.5,29-13.3,42.4C86.2-1.9,91-17.4,93.1-33"/>
	</g>
	<g id="g246" transform="translate(260.0463,362.0988)">
		<path id="path248" fill="#D70751" d="M4.6-333.8c5.2-1.9,12.7-1,18.1-2.3c-7.1,0.6-14.2,1-21.2,1.9L4.6-333.8"/>
	</g>
	<g id="g250" transform="translate(175.7486,317.2739)">
		<path id="path252" fill="#D70751" d="M-92-192.8c1.2,11-8.3,15.3,2.1,8C-84.3-197.3-92.1-188.2-92-192.8"/>
	</g>
	<g id="g254" transform="translate(170.0727,293.5662)">
		<path id="path256" fill="#D70751" d="M-98.5-118.2c2.4-7.3,2.8-11.7,3.7-16C-101.4-125.7-97.8-123.9-98.5-118.2"/>
	</g>
</g>
</svg>
