<?xml version="1.0" encoding="UTF-8" standalone="no"?>
<!DOCTYPE svg PUBLIC "-//W3C//DTD SVG 1.1//EN" "http://www.w3.org/Graphics/SVG/1.1/DTD/svg11.dtd">
<svg width="100%" height="100%" viewBox="0 0 512 512" version="1.1" xmlns="http://www.w3.org/2000/svg" xmlns:xlink="http://www.w3.org/1999/xlink" xml:space="preserve" xmlns:serif="http://www.serif.com/" style="fill-rule:evenodd;clip-rule:evenodd;stroke-linejoin:round;stroke-miterlimit:1.41421;">
    <g transform="matrix(0.991996,0,0,0.991996,19.4536,8.48167)">
        <circle cx="238.455" cy="249.515" r="231.856" style="fill:rgb(41,65,114);"/>
    </g>
    <g id="Layer-2" serif:id="Layer 2">
        <g transform="matrix(1,0,0,1,204.755,343.007)">
            <path d="M0,-71.376C-19.679,-71.376 -35.688,-55.367 -35.688,-35.688C-35.688,-16.01 -19.679,-0.001 0,-0.001C19.679,-0.001 35.688,-16.01 35.688,-35.688L35.688,-71.376L0,-71.376ZM0,31.362C-36.972,31.362 -67.05,1.283 -67.05,-35.688C-67.05,-72.659 -36.972,-102.738 0,-102.738L67.05,-102.738L67.05,-35.688C67.05,1.283 36.972,31.362 0,31.362" style="fill:rgb(60,110,180);fill-rule:nonzero;"/>
        </g>
        <g transform="matrix(1,0,0,1,271.557,168.993)">
            <path d="M0,71.376L35.688,71.376C55.366,71.376 71.375,55.367 71.375,35.688C71.375,16.009 55.366,0 35.688,0C16.009,0 0,16.009 0,35.688L0,71.376ZM35.688,102.738L-31.362,102.738L-31.362,35.688C-31.362,-1.284 -1.283,-31.362 35.688,-31.362C72.659,-31.362 102.738,-1.284 102.738,35.688C102.738,72.659 72.659,102.738 35.688,102.738" style="fill:rgb(60,110,180);fill-rule:nonzero;"/>
        </g>
        <g transform="matrix(1,0,0,1,271.838,374.329)">
            <path d="M0,-134.021L0,-67.082C0,-30.037 -30.036,0 -67.083,0C-72.703,0 -76.699,-0.635 -81.902,-1.995C-89.488,-3.98 -95.688,-10.2 -95.691,-17.435C-95.691,-26.18 -89.343,-32.541 -79.854,-32.541C-75.338,-32.541 -73.699,-31.674 -67.083,-31.674C-47.551,-31.674 -31.708,-47.495 -31.674,-67.026L-31.674,-97.794C-31.674,-100.551 -33.914,-102.784 -36.676,-102.784L-59.937,-102.789C-68.604,-102.789 -75.606,-109.702 -75.606,-118.392C-75.611,-127.137 -68.532,-134.021 -59.772,-134.021" style="fill:white;fill-rule:nonzero;"/>
        </g>
        <g transform="matrix(1,0,0,1,240.161,137.67)">
            <path d="M0,134.021L0,67.082C0,30.037 30.036,0 67.083,0C72.703,0 76.699,0.635 81.902,1.995C89.488,3.98 95.688,10.2 95.691,17.435C95.691,26.18 89.343,32.541 79.854,32.541C75.338,32.541 73.699,31.674 67.083,31.674C47.551,31.674 31.708,47.495 31.674,67.026L31.674,97.794C31.674,100.551 33.914,102.784 36.676,102.784L59.937,102.789C68.604,102.789 75.606,109.702 75.606,118.392C75.611,127.137 68.532,134.021 59.772,134.021" style="fill:white;fill-rule:nonzero;"/>
        </g>
    </g>
</svg>
