<?xml version="1.0" encoding="utf-8"?>
<!-- Generator: Adobe Illustrator 22.0.1, SVG Export Plug-In . SVG Version: 6.00 Build 0)  -->
<svg version="1.1"
	 id="svg2" xmlns:cc="http://creativecommons.org/ns#" xmlns:dc="http://purl.org/dc/elements/1.1/" xmlns:rdf="http://www.w3.org/1999/02/22-rdf-syntax-ns#" xmlns:svg="http://www.w3.org/2000/svg"
	 xmlns="http://www.w3.org/2000/svg" xmlns:xlink="http://www.w3.org/1999/xlink" x="0px" y="0px" viewBox="0 0 512 512"
	 style="enable-background:new 0 0 512 512;" xml:space="preserve">
<g>
	<path style="fill:#2B0000;" d="M256,26C129,26,26,129,26,256c0,127,103,230,230,230s230-103,230-230C486,129,383,26,256,26z
		 M395.9,395.9c-37.4,37.4-87.1,58-139.9,58s-102.6-20.6-139.9-58c-37.4-37.4-58-87.1-58-139.9c0-52.9,20.6-102.6,58-139.9
		c37.4-37.4,87.1-58,139.9-58s102.6,20.6,139.9,58c37.4,37.4,58,87.1,58,139.9C453.9,308.9,433.3,358.6,395.9,395.9z"/>
	<path style="fill:#2B0000;" d="M372.6,259.1c-7.9-7.9-20.8-7.9-28.8,0c-0.2,0.2-0.4,0.5-0.6,0.7l-66.9,66.9V130.8h0
		c0.1-5.3-1.9-10.7-5.9-14.8c-7.9-7.9-20.8-7.9-28.8,0c-4.1,4.1-6,9.4-5.9,14.8h0v195.9l-67.4-67.4c0,0-0.1-0.1-0.1-0.1
		c-7.9-7.9-20.8-7.9-28.8,0c-7.9,7.9-7.9,20.8,0,28.8l0,0l87.9,87.9l0,0l8.4,8.4v0h0l15.8,15.8l0.2,0.2c1.1,1.1,2.6,1.7,4.3,1.7
		c1.7,0,3.2-0.7,4.3-1.7l0.2-0.2l15.8-15.8h0v0l96.3-96.3l0,0C380.6,279.9,380.6,267,372.6,259.1z"/>
	<g style="opacity:0.75;">
		<polygon style="fill:#2B0000;" points="235.7,270.8 207.8,298.7 213.3,304.2 235.7,281.9 		"/>
		<path style="fill:#2B0000;" d="M259.9,58.1L58.1,259.9c0.1,3.5,0.2,7.1,0.5,10.6L270.5,58.6C267,58.4,263.4,58.2,259.9,58.1z"/>
		<path style="fill:#2B0000;" d="M367,255.2l72.8-72.8c-1-2.6-2.1-5.2-3.3-7.7L358,253.1C361.1,253.1,364.2,253.8,367,255.2z"/>
		<path style="fill:#2B0000;" d="M260.4,110.5l46-46c-3-0.8-5.9-1.5-8.9-2.1l-49.1,49.1C252.2,110,256.4,109.7,260.4,110.5z"/>
		<path style="fill:#2B0000;" d="M276.4,324.9l157-157c-1.2-2.4-2.5-4.8-3.8-7.2L276.4,313.9V324.9z"/>
		<path style="fill:#2B0000;" d="M279.5,59.5l-220,220c0.4,3.2,0.8,6.5,1.4,9.7L289.2,60.9C286,60.3,282.7,59.9,279.5,59.5z"/>
		<path style="fill:#2B0000;" d="M235.7,145.2L66.7,314.1c0.9,2.8,1.8,5.6,2.7,8.3l166.2-166.2V145.2z"/>
		<path style="fill:#2B0000;" d="M238.2,58.9L58.9,238.2c-0.3,3.9-0.6,7.8-0.7,11.7L250,58.2C246,58.3,242.1,58.5,238.2,58.9z"/>
		<path style="fill:#2B0000;" d="M213.5,62.6L62.6,213.5c-1,4.5-1.8,9-2.5,13.5L227,60.2C222.5,60.9,218,61.7,213.5,62.6z"/>
		<path style="fill:#2B0000;" d="M134.3,267.5l-62.1,62.1c1,2.6,2.1,5.2,3.3,7.7l58.6-58.6C133.1,275,133.2,271.1,134.3,267.5z"/>
		<path style="fill:#2B0000;" d="M270.4,116c0.9,0.9,1.8,2,2.5,3l49.5-49.5c-2.7-1-5.5-1.9-8.3-2.7l-46.8,46.8
			C268.4,114.2,269.5,115,270.4,116z"/>
		<path style="fill:#2B0000;" d="M183.5,71.8L71.8,183.5c-2.2,5.5-4.1,11.1-5.7,16.8L200.2,66C194.6,67.7,189,69.6,183.5,71.8z"/>
		<path style="fill:#2B0000;" d="M235.7,130.8L235.7,130.8c0-2.7,0.5-5.4,1.5-8L62.4,297.5c0.6,3,1.3,6,2.1,8.9l171.1-171.1V130.8z"
			/>
		<path style="fill:#2B0000;" d="M276.4,283l141.3-141.3c-1.5-2.1-3.1-4.3-4.7-6.3L276.4,272V283z"/>
		<path style="fill:#2B0000;" d="M235.7,187.1l-70,70c0.9,0.6,1.7,1.3,2.4,2.1c0,0,0.1,0.1,0.1,0.1l3.2,3.2l64.3-64.3V187.1z"/>
		<path style="fill:#2B0000;" d="M276.4,241.1l122.3-122.3c-0.9-0.9-1.8-1.9-2.7-2.8c-0.9-0.9-1.9-1.8-2.8-2.7L276.4,230.1V241.1z"
			/>
		<polygon style="fill:#2B0000;" points="235.7,208 176.4,267.3 181.9,272.8 235.7,219 		"/>
		<path style="fill:#2B0000;" d="M276.4,262.1l132.2-132.2c-1.7-2-3.4-4-5.1-5.9L276.4,251V262.1z"/>
		<path style="fill:#2B0000;" d="M276.4,199.3L376.6,99.1c-2.1-1.6-4.2-3.2-6.3-4.7l-93.9,93.9V199.3z"/>
		<path style="fill:#2B0000;" d="M276.4,220.2L388,108.6c-1.9-1.7-3.9-3.5-5.9-5.1L276.4,209.2V220.2z"/>
		<path style="fill:#2B0000;" d="M276.4,130.8L276.4,130.8l0,5.7l61-61c-2.6-1.2-5.1-2.2-7.7-3.3l-53.8,53.8
			C276.2,127.5,276.4,129.1,276.4,130.8z"/>
		<path style="fill:#2B0000;" d="M276.4,157.4l74.9-74.9c-2.4-1.3-4.8-2.6-7.2-3.8l-67.7,67.7V157.4z"/>
		<polygon style="fill:#2B0000;" points="235.7,291.8 218.2,309.2 223.7,314.7 235.7,302.8 		"/>
		<polygon style="fill:#2B0000;" points="235.7,249.9 197.3,288.3 202.8,293.8 235.7,260.9 		"/>
		<path style="fill:#2B0000;" d="M276.4,304l149.6-149.6c-1.4-2.3-2.8-4.5-4.3-6.8L276.4,292.9V304z"/>
		<polygon style="fill:#2B0000;" points="235.7,228.9 186.8,277.8 192.3,283.3 235.7,240 		"/>
		<path style="fill:#2B0000;" d="M276.4,178.3l88-88c-2.2-1.5-4.5-2.9-6.8-4.3l-81.2,81.2V178.3z"/>
		<path style="fill:#2B0000;" d="M453.8,262L262,453.8c3.9-0.1,7.8-0.4,11.7-0.7l179.3-179.3C453.5,269.9,453.7,266,453.8,262z"/>
		<path style="fill:#2B0000;" d="M220.9,369.4l-60.2,60.2c2.4,1.3,4.8,2.6,7.2,3.8l58.4-58.4L220.9,369.4z"/>
		<path style="fill:#2B0000;" d="M451.1,222.8L222.8,451.1c3.2,0.5,6.4,1,9.7,1.4l220-220C452.1,229.3,451.7,226,451.1,222.8z"/>
		<path style="fill:#2B0000;" d="M453.4,241.5L241.5,453.4c3.5,0.3,7,0.4,10.6,0.5l201.8-201.8C453.8,248.6,453.6,245,453.4,241.5z"
			/>
		<path style="fill:#2B0000;" d="M241.8,390.3l-52.2,52.2c2.7,1,5.5,1.9,8.3,2.7l49.4-49.4L241.8,390.3z"/>
		<path style="fill:#2B0000;" d="M235.7,384.2L235.7,384.2L235.7,384.2l-4.4-4.4l-56.7,56.7c2.6,1.2,5.1,2.2,7.7,3.3l54.4-54.4
			L235.7,384.2z"/>
		<path style="fill:#2B0000;" d="M447.5,205.6l-68.9,68.9c-0.2,4.9-2.2,9.7-5.9,13.4l0,0l-96.3,96.3v0h0L260.6,400l-0.2,0.2
			c-1.1,1.1-2.6,1.7-4.3,1.7c-1.4,0-2.7-0.5-3.7-1.2l-46.7,46.7c3,0.8,5.9,1.5,8.9,2.1l235-235C448.9,211.5,448.2,208.5,447.5,205.6
			z"/>
		<path style="fill:#2B0000;" d="M446,311.8L311.8,446c5.7-1.7,11.3-3.6,16.8-5.7l111.7-111.7C442.4,323,444.3,317.4,446,311.8z"/>
		<path style="fill:#2B0000;" d="M432,346.6L346.6,432c10.7-5.5,21-12.1,30.6-19.6l35.2-35.2C419.9,367.6,426.5,357.4,432,346.6z"/>
		<path style="fill:#2B0000;" d="M377.2,266l68.1-68.1c-0.9-2.8-1.8-5.6-2.7-8.3l-69.7,69.7C374.7,261.3,376.2,263.6,377.2,266z"/>
		<path style="fill:#2B0000;" d="M451.8,285L285,451.8c4.5-0.7,9-1.5,13.5-2.5l150.9-150.9C450.3,294,451.1,289.5,451.8,285z"/>
		<path style="fill:#2B0000;" d="M199.9,348.4l-64.5,64.5c2.1,1.6,4.2,3.2,6.3,4.7l63.7-63.7L199.9,348.4z"/>
		<path style="fill:#2B0000;" d="M158,306.6l-63.7,63.7c1.5,2.1,3.1,4.3,4.7,6.3l64.5-64.5L158,306.6z"/>
		<path style="fill:#2B0000;" d="M159,253.8l76.7-76.7v-11L147.7,254C151.4,252.9,155.3,252.9,159,253.8z"/>
		<path style="fill:#2B0000;" d="M168.5,317l-65.1,65.1c1.7,2,3.4,4,5.1,5.9l65.5-65.5L168.5,317z"/>
		<path style="fill:#2B0000;" d="M147.6,296.1l-61.5,61.5c1.4,2.3,2.8,4.5,4.3,6.8l62.8-62.8L147.6,296.1z"/>
		<path style="fill:#2B0000;" d="M134.7,99.6l-35.2,35.2c-7.5,9.6-14,19.9-19.6,30.6L165.4,80C154.6,85.5,144.4,92.1,134.7,99.6z"/>
		<polygon style="fill:#2B0000;" points="228.7,319.7 234.2,325.2 235.7,323.7 235.7,312.7 		"/>
		<path style="fill:#2B0000;" d="M210.4,358.9l-62.8,62.8c2.2,1.5,4.5,2.9,6.8,4.3l61.5-61.5L210.4,358.9z"/>
		<path style="fill:#2B0000;" d="M179,327.5l-65.6,65.6c0.9,0.9,1.8,1.9,2.7,2.8c0.9,0.9,1.9,1.8,2.8,2.7l65.6-65.6L179,327.5z"/>
		<path style="fill:#2B0000;" d="M139.4,287.9L139.4,287.9c-0.8-0.8-1.4-1.6-2.1-2.4l-58.6,58.6c1.2,2.4,2.5,4.8,3.8,7.2l60.2-60.2
			L139.4,287.9z"/>
		<path style="fill:#2B0000;" d="M189.4,338L124,403.4c1.9,1.7,3.9,3.5,5.9,5.1l65.1-65.1L189.4,338z"/>
	</g>
</g>
</svg>
