<?xml version="1.0" encoding="utf-8"?>
<!-- Generator: Adobe Illustrator 18.0.0, SVG Export Plug-In . SVG Version: 6.00 Build 0)  -->
<!DOCTYPE svg PUBLIC "-//W3C//DTD SVG 1.1//EN" "http://www.w3.org/Graphics/SVG/1.1/DTD/svg11.dtd">
<svg version="1.1" id="Layer_2" xmlns="http://www.w3.org/2000/svg" xmlns:xlink="http://www.w3.org/1999/xlink" x="0px" y="0px"
	 viewBox="0 0 512 512" style="enable-background:new 0 0 512 512;" xml:space="preserve">
<g>
	<g>
		<path style="fill:#FFFFFF;" d="M256,26C128.975,26,26,128.975,26,256s102.975,230,230,230s230-102.975,230-230S383.025,26,256,26z
			 M256,354.398c-54.344,0-98.398-44.054-98.398-98.398s44.054-98.398,98.398-98.398s98.398,44.054,98.398,98.398
			S310.344,354.398,256,354.398z"/>
		<path style="opacity:0.8;fill:#E8E8E8;enable-background:new    ;" d="M256,116.899c-76.823,0-139.101,62.278-139.101,139.101
			S179.177,395.101,256,395.101S395.101,332.823,395.101,256S332.823,116.899,256,116.899z M256,354.398
			c-54.344,0-98.398-44.054-98.398-98.398s44.054-98.398,98.398-98.398s98.398,44.054,98.398,98.398S310.344,354.398,256,354.398z"
			/>
	</g>
	<path style="opacity:0.4;enable-background:new    ;" d="M368.729,275.631L206.706,158.077c-1.878-1.085-4.192-1.085-6.07,0
		c-1.878,1.084-3.035,3.089-3.035,5.257v185.334c0,2.168,1.157,4.173,3.035,5.257c0.938,0.541,1.987,0.813,3.035,0.813
		s2.097-0.272,3.035-0.813l162.022-67.779c1.878-1.085,3.035-3.089,3.035-5.258S370.607,276.715,368.729,275.631z"/>
	<path style="fill:#FF9700;" d="M367.211,250.743l-160.505-92.667c-1.878-1.085-4.192-1.085-6.07,0
		c-1.878,1.084-3.035,3.089-3.035,5.257v185.334c0,2.168,1.157,4.173,3.035,5.257c0.938,0.541,1.987,0.813,3.035,0.813
		s2.097-0.272,3.035-0.813l160.505-92.667c1.878-1.085,3.035-3.089,3.035-5.258S369.089,251.827,367.211,250.743z"/>
</g>
</svg>
