<?xml version="1.0" encoding="utf-8"?>
<!-- Generator: Adobe Illustrator 22.0.1, SVG Export Plug-In . SVG Version: 6.00 Build 0)  -->
<svg version="1.1" id="Layer_3" xmlns="http://www.w3.org/2000/svg" xmlns:xlink="http://www.w3.org/1999/xlink" x="0px" y="0px"
	 viewBox="0 0 512 512" style="enable-background:new 0 0 512 512;" xml:space="preserve">
<linearGradient id="SVGID_1_" gradientUnits="userSpaceOnUse" x1="26" y1="256" x2="486" y2="256">
	<stop  offset="0" style="stop-color:#1F1F21"/>
	<stop  offset="1" style="stop-color:#1F1F21"/>
</linearGradient>
<circle style="fill:url(#SVGID_1_);" cx="256" cy="256" r="230"/>
<g>
	<path id="e" style="fill:#E53238;" d="M130.9,217.9c-23.8,0-43.6,10.1-43.6,40.6c0,24.1,13.3,39.3,44.3,39.3
		c36.4,0,38.7-24,38.7-24h-17.6c0,0-3.8,12.9-22.2,12.9c-15,0-25.7-10.1-25.7-24.3h67.4v-8.9C172.1,239.5,163.2,217.9,130.9,217.9z
		 M130.3,229.3c14.3,0,24,8.7,24,21.8h-49.2C105.1,237.2,117.8,229.3,130.3,229.3z"/>
	<path id="b" style="fill:#0064D2;" d="M172.1,188.4v94.1c0,5.3-0.4,12.8-0.4,12.8h16.8c0,0,0.6-5.4,0.6-10.3c0,0,8.3,13,30.9,13
		c23.8,0,39.9-16.5,39.9-40.2c0-22-14.8-39.7-39.9-39.7c-23.5,0-30.8,12.7-30.8,12.7v-42.4H172.1z M215.7,229.8
		c16.2,0,26.4,12,26.4,28.1c0,17.3-11.9,28.5-26.3,28.5c-17.2,0-26.5-13.5-26.5-28.4C189.3,244.1,197.6,229.8,215.7,229.8z"/>
	<path id="a" style="fill:#F5AF02;" d="M301.7,217.9c-35.8,0-38.1,19.6-38.1,22.7h17.8c0,0,0.9-11.4,19.1-11.4
		c11.8,0,20.9,5.4,20.9,15.7v3.7h-20.9c-27.7,0-42.4,8.1-42.4,24.6c0,16.2,13.5,25,31.9,25c25,0,33-13.8,33-13.8
		c0,5.5,0.4,10.9,0.4,10.9h15.8c0,0-0.6-6.7-0.6-11v-37C338.6,223,319,217.9,301.7,217.9L301.7,217.9z M321.4,259.7v4.9
		c0,6.4-4,22.4-27.3,22.4c-12.8,0-18.2-6.4-18.2-13.8C275.9,259.8,294.4,259.7,321.4,259.7L321.4,259.7z"/>
	<path id="y" style="fill:#86B817;" d="M329,221h20.1l28.8,57.7l28.7-57.7h18.2l-52.3,102.6h-19.1l15.1-28.6L329,221z"/>
</g>
</svg>
