<?xml version="1.0" encoding="UTF-8" standalone="no"?>
<!DOCTYPE svg PUBLIC "-//W3C//DTD SVG 1.1//EN" "http://www.w3.org/Graphics/SVG/1.1/DTD/svg11.dtd">
<svg width="100%" height="100%" viewBox="0 0 512 512" version="1.1" xmlns="http://www.w3.org/2000/svg" xmlns:xlink="http://www.w3.org/1999/xlink" xml:space="preserve" xmlns:serif="http://www.serif.com/" style="fill-rule:evenodd;clip-rule:evenodd;stroke-linejoin:round;stroke-miterlimit:1.41421;">
    <g id="g10" transform="matrix(1.25,0,0,-1.25,-64,576)">
        <g>
            <g transform="matrix(0.734117,0,0,-0.734117,22.3317,474.979)">
                <circle cx="318.298" cy="298.289" r="250.641" style="fill:rgb(244,120,33);"/>
            </g>
            <g id="path228" transform="matrix(1,0,0,1,325.246,200.9)">
                <path d="M0,0L10.843,52.675L97.254,55.167L23.658,57.289L17.721,86.667L11.853,57.63L-12.005,58.318L-30.643,148.866L-49.062,59.386L-69.246,59.968L-90.54,59.354L-108.746,130.1L-127.225,58.296L-151.237,57.604L-157.11,86.667L-163.052,57.263L-235.746,55.167L-150.237,52.701L-139.389,0L-128.669,52.079L-87.682,50.897L-69.246,-38.666L-50.81,50.897L-10.715,52.054L0,0Z" style="fill:rgb(249,165,104);fill-rule:nonzero;"/>
            </g>
            <g id="g232">
                <g id="path240" transform="matrix(1,0,0,1,241.59,140.628)">
                    <path d="M0,0C-8.38,0 -15.174,5.834 -15.174,13.031C-15.174,13.031 -20.194,66.629 -20.194,115.372C-20.194,162.373 -15.174,217.713 -15.174,217.713C-15.174,224.91 -8.38,230.744 0,230.744C8.38,230.744 15.174,224.91 15.174,217.713L15.174,115.689L15.174,13.031C15.174,5.835 8.38,0 0,0" style="fill:white;fill-rule:nonzero;"/>
                </g>
                <g id="path244" transform="matrix(1,0,0,1,275.221,308.763)">
                    <path d="M0,0C-8.496,0 -15.383,4.976 -15.383,11.115L-15.383,63.912C-15.383,70.051 -8.496,75.027 0,75.027C8.496,75.027 15.383,70.051 15.383,63.912L15.383,11.115C15.383,4.977 8.496,0 0,0" style="fill:white;fill-rule:nonzero;"/>
                </g>
                <g id="path248" transform="matrix(1,0,0,1,275.221,128.21)">
                    <path d="M0,0C-8.496,0 -15.383,4.976 -15.383,11.115L-15.383,63.912C-15.383,70.051 -8.496,75.027 0,75.027C8.496,75.027 15.383,70.051 15.383,63.912L15.383,11.115C15.383,4.976 8.496,0 0,0" style="fill:white;fill-rule:nonzero;"/>
                </g>
            </g>
        </g>
    </g>
</svg>
