<?xml version="1.0" encoding="UTF-8" standalone="no"?>
<!DOCTYPE svg PUBLIC "-//W3C//DTD SVG 1.1//EN" "http://www.w3.org/Graphics/SVG/1.1/DTD/svg11.dtd">
<svg width="100%" height="100%" viewBox="0 0 512 512" version="1.1" xmlns="http://www.w3.org/2000/svg" xmlns:xlink="http://www.w3.org/1999/xlink" xml:space="preserve" xmlns:serif="http://www.serif.com/" style="fill-rule:evenodd;clip-rule:evenodd;stroke-linejoin:round;stroke-miterlimit:1.41421;">
    <circle cx="256" cy="256" r="230" style="fill:url(#_Linear1);"/>
    <g id="g10" transform="matrix(-1.25,0,0,1.25,576,-64)">
        <path id="path244" d="M194.8,317.2L256,399.1L317.2,317.2L256,256L194.8,317.2Z" style="fill:url(#_Linear2);fill-rule:nonzero;"/>
        <path id="path264" d="M117.5,213.9L184.7,303.7L194.8,317.2L256,256L165.7,165.7L117.5,213.9Z" style="fill:url(#_Linear3);fill-rule:nonzero;"/>
        <path id="path284" d="M113.4,208.3L117.6,213.9L165.8,165.7L154,154L113.4,208.3Z" style="fill:url(#_Linear4);fill-rule:nonzero;"/>
        <path id="path304" d="M256,256L317.2,317.2L327.3,303.7L395,213.2L346.9,165.1L256,256Z" style="fill:url(#_Linear5);fill-rule:nonzero;"/>
        <path id="path324" d="M346.9,165.1L395,213.2L398.6,208.4L358,154L346.9,165.1Z" style="fill:url(#_Linear6);fill-rule:nonzero;"/>
        <path id="path344" d="M218.4,112.9L165.6,165.7L256,256L346.9,165.1L294.8,113L218.4,113L218.4,112.9Z" style="fill:url(#_Linear7);fill-rule:nonzero;"/>
        <path id="path364" d="M294.8,112.9L346.9,165L358,154L327.3,112.9L294.8,112.9Z" style="fill:url(#_Linear8);fill-rule:nonzero;"/>
        <path id="path384" d="M184.7,112.9L154,154L165.7,165.7L218.5,112.9L184.7,112.9Z" style="fill:url(#_Linear9);fill-rule:nonzero;"/>
    </g>
    <defs>
        <linearGradient id="_Linear1" x1="0" y1="0" x2="1" y2="0" gradientUnits="userSpaceOnUse" gradientTransform="matrix(460,0,0,460,26,256)"><stop offset="0" style="stop-color:rgb(224,248,216);stop-opacity:1"/><stop offset="1" style="stop-color:rgb(224,248,216);stop-opacity:1"/></linearGradient>
        <linearGradient id="_Linear2" x1="0" y1="0" x2="1" y2="0" gradientUnits="userSpaceOnUse" gradientTransform="matrix(181.25,0,0,181.25,165.693,327.524)"><stop offset="0" style="stop-color:rgb(133,251,110);stop-opacity:1"/><stop offset="1" style="stop-color:rgb(18,212,28);stop-opacity:1"/></linearGradient>
        <linearGradient id="_Linear3" x1="0" y1="0" x2="1" y2="0" gradientUnits="userSpaceOnUse" gradientTransform="matrix(180.625,0,0,180.625,75.3759,241.448)"><stop offset="0" style="stop-color:rgb(133,251,110);stop-opacity:1"/><stop offset="1" style="stop-color:rgb(18,212,28);stop-opacity:1"/></linearGradient>
        <linearGradient id="_Linear4" x1="0" y1="0" x2="1" y2="0" gradientUnits="userSpaceOnUse" gradientTransform="matrix(173.125,0,0,173.125,-7.44037,183.92)"><stop offset="0" style="stop-color:rgb(133,251,110);stop-opacity:1"/><stop offset="1" style="stop-color:rgb(18,212,28);stop-opacity:1"/></linearGradient>
        <linearGradient id="_Linear5" x1="0" y1="0" x2="1" y2="0" gradientUnits="userSpaceOnUse" gradientTransform="matrix(181.875,0,0,181.875,255.994,241.137)"><stop offset="0" style="stop-color:rgb(133,251,110);stop-opacity:1"/><stop offset="1" style="stop-color:rgb(18,212,28);stop-opacity:1"/></linearGradient>
        <linearGradient id="_Linear6" x1="0" y1="0" x2="1" y2="0" gradientUnits="userSpaceOnUse" gradientTransform="matrix(174.375,0,0,174.375,346.936,183.556)"><stop offset="0" style="stop-color:rgb(133,251,110);stop-opacity:1"/><stop offset="1" style="stop-color:rgb(18,212,28);stop-opacity:1"/></linearGradient>
        <linearGradient id="_Linear7" x1="0" y1="0" x2="1" y2="0" gradientUnits="userSpaceOnUse" gradientTransform="matrix(181.25,0,0,181.25,165.693,184.461)"><stop offset="0" style="stop-color:rgb(133,251,110);stop-opacity:1"/><stop offset="1" style="stop-color:rgb(18,212,28);stop-opacity:1"/></linearGradient>
        <linearGradient id="_Linear8" x1="0" y1="0" x2="1" y2="0" gradientUnits="userSpaceOnUse" gradientTransform="matrix(173.75,0,0,173.75,256.621,138.994)"><stop offset="0" style="stop-color:rgb(133,251,110);stop-opacity:1"/><stop offset="1" style="stop-color:rgb(18,212,28);stop-opacity:1"/></linearGradient>
        <linearGradient id="_Linear9" x1="0" y1="0" x2="1" y2="0" gradientUnits="userSpaceOnUse" gradientTransform="matrix(173.75,0,0,173.75,82.8713,139.306)"><stop offset="0" style="stop-color:rgb(133,251,110);stop-opacity:1"/><stop offset="1" style="stop-color:rgb(18,212,28);stop-opacity:1"/></linearGradient>
    </defs>
</svg>
