<?xml version="1.0" encoding="utf-8"?>
<!-- Generator: Adobe Illustrator 22.0.1, SVG Export Plug-In . SVG Version: 6.00 Build 0)  -->
<svg version="1.1" id="Layer_2" xmlns="http://www.w3.org/2000/svg" xmlns:xlink="http://www.w3.org/1999/xlink" x="0px" y="0px"
	 viewBox="0 0 512 512" style="enable-background:new 0 0 512 512;" xml:space="preserve">
<style type="text/css">
	.st0{fill:url(#SVGID_1_);}
	.st1{fill:url(#SVGID_2_);}
	.st2{opacity:0.4;}
	.st3{opacity:0.9;fill:#FFFFFF;}
</style>
<g>
	<linearGradient id="SVGID_1_" gradientUnits="userSpaceOnUse" x1="26" y1="256" x2="486" y2="256">
		<stop  offset="0" style="stop-color:#057F00"/>
		<stop  offset="1" style="stop-color:#52E900"/>
	</linearGradient>
	<path class="st0" d="M411,486H101c-41.421,0-75-33.579-75-75V101c0-41.421,33.579-75,75-75h310c41.421,0,75,33.579,75,75v310
		C486,452.421,452.421,486,411,486z"/>
	<linearGradient id="SVGID_2_" gradientUnits="userSpaceOnUse" x1="106" y1="256" x2="406" y2="256">
		<stop  offset="0" style="stop-color:#52E900"/>
		<stop  offset="1" style="stop-color:#057F00"/>
	</linearGradient>
	<circle class="st1" cx="256" cy="256" r="150"/>
</g>
<g id="Layer_2_2_">
	<g>
		<path class="st2" d="M324.912,265.171l-132.824-76.686c-1.547-0.894-3.453-0.894-5,0c-1.547,0.893-2.5,2.544-2.5,4.33v153.371
			c0,1.786,0.953,3.437,2.5,4.33c0.773,0.446,1.637,0.67,2.5,0.67s1.727-0.224,2.5-0.67l132.824-76.686
			c1.547-0.894,2.5-2.544,2.5-4.33C327.412,267.714,326.459,266.064,324.912,265.171z"/>
		<path class="st2" d="M324.912,238.171l-132.824-76.686c-1.547-0.894-3.453-0.894-5,0c-1.547,0.893-2.5,2.544-2.5,4.33v153.371
			c0,1.786,0.953,3.437,2.5,4.33c0.773,0.446,1.637,0.67,2.5,0.67s1.727-0.224,2.5-0.67l132.824-76.686
			c1.547-0.894,2.5-2.544,2.5-4.33C327.412,240.714,326.459,239.064,324.912,238.171z"/>
	</g>
	<path class="st3" d="M324.912,251.671l-132.824-76.686c-1.547-0.894-3.453-0.894-5,0c-1.547,0.893-2.5,2.544-2.5,4.33v153.371
		c0,1.786,0.953,3.437,2.5,4.33c0.773,0.446,1.637,0.67,2.5,0.67s1.727-0.224,2.5-0.67l132.824-76.686
		c1.547-0.894,2.5-2.544,2.5-4.33C327.412,254.214,326.459,252.564,324.912,251.671z"/>
</g>
</svg>
