<?xml version="1.0" encoding="utf-8"?>
<!-- Generator: Adobe Illustrator 22.0.1, SVG Export Plug-In . SVG Version: 6.00 Build 0)  -->
<svg version="1.1"
	 id="svg2" xmlns:cc="http://creativecommons.org/ns#" xmlns:dc="http://purl.org/dc/elements/1.1/" xmlns:rdf="http://www.w3.org/1999/02/22-rdf-syntax-ns#" xmlns:svg="http://www.w3.org/2000/svg"
	 xmlns="http://www.w3.org/2000/svg" xmlns:xlink="http://www.w3.org/1999/xlink" x="0px" y="0px" viewBox="0 0 512 512"
	 style="enable-background:new 0 0 512 512;" xml:space="preserve">
<circle style="fill:#294172;" cx="256" cy="256" r="230"/>
<g>
	<g id="g210" transform="translate(324.0122,372.2458)">
		<path id="path212" style="fill:#3C6EB4;" d="M3.8-237.6l-6.6-18.5h-20.5l-6.5,18.3c5.2-1.3,10.7-2,16.3-2
			C-7.5-239.8-1.7-239.1,3.8-237.6"/>
	</g>
	<g id="g214" transform="translate(372.2126,290.7219)">
		<path id="path216" style="fill:#3C6EB4;" d="M5.2-72.2l19-6.7v-20.5l-19-6.7c1.4,5.4,2.1,11.1,2.1,16.9
			C7.3-83.4,6.6-77.7,5.2-72.2"/>
	</g>
	<g id="g218" transform="translate(365.0212,341.2841)">
		<path id="path220" style="fill:#3C6EB4;" d="M5-174.8l8.6-18.1l-14.5-14.5l-17.9,8.5C-9-193-0.8-184.7,5-174.8"/>
	</g>
	<g id="g222" transform="translate(242.1607,323.4133)">
		<path id="path224" style="fill:#3C6EB4;" d="M1.4-138.6l-18,6.4v20.5l16,5.7v-16C-0.6-127.7,0.1-133.2,1.4-138.6"/>
	</g>
	<g id="g226" transform="translate(341.7529,249.8558)">
		<path id="path228" style="fill:#3C6EB4;" d="M4.3,10.7l18.1,8.6L36.9,4.8l-8.7-18.2C22.4-3.5,14.1,4.8,4.3,10.7"/>
	</g>
	<g id="g230" transform="translate(272.9565,364.9092)">
		<path id="path232" style="fill:#3C6EB4;" d="M2.3-222.8l-17.4-8.3l-14.5,14.5l8.2,17.3C-15.5-208.9-7.4-217,2.3-222.8"/>
	</g>
	<g id="g234" transform="translate(292.0044,240.2692)">
		<path id="path236" style="fill:#3C6EB4;" d="M2.9,30.2l5.9,16.5h20.5L35.9,28c-5.5,1.4-11.3,2.2-17.3,2.2H2.9z"/>
	</g>
	<g id="g238" transform="translate(204.7548,240.3688)">
		<path id="path240" style="fill:#3C6EB4;" d="M0.3,30c-20.3,0-36.7,16.5-36.7,36.7c0,20.3,16.5,36.7,36.7,36.7S37,87,37,66.7V30
			H0.3z M0.3,135.7c-38.1,0-69-31-69-69s31-69,69-69h69v69C69.3,104.8,38.4,135.7,0.3,135.7"/>
	</g>
	<g id="g242" transform="translate(271.5571,271.6312)">
		<path id="path244" style="fill:#3C6EB4;" d="M2.3-33.5H39c20.3,0,36.7-16.5,36.7-36.7S59.2-106.9,39-106.9
			c-20.3,0-36.7,16.5-36.7,36.7V-33.5z M39-1.2h-69v-69c0-38.1,31-69,69-69s69,31,69,69C108-32.2,77-1.2,39-1.2"/>
	</g>
	<g id="g246" transform="translate(271.838,271.6916)">
		<path id="path248" style="fill:#FFFFFF;" d="M2.3-33.6v68.9c0,38.1-30.9,69-69,69c-5.8,0-9.9-0.7-15.3-2.1
			c-7.8-2-14.2-8.4-14.2-15.9c0-9,6.5-15.5,16.3-15.5c4.6,0,6.3,0.9,13.1,0.9c20.1,0,36.4-16.3,36.4-36.4V3.7c0-2.8-2.3-5.1-5.1-5.1
			l-23.9,0c-8.9,0-16.1-7.1-16.1-16.1c0-9,7.3-16.1,16.3-16.1"/>
	</g>
	<g id="g250" transform="translate(240.1615,240.3088)">
		<path id="path252" style="fill:#FFFFFF;" d="M1.3,30.1v-68.9c0-38.1,30.9-69,69-69c5.8,0,9.9,0.7,15.3,2.1
			c7.8,2,14.2,8.4,14.2,15.9c0,9-6.5,15.5-16.3,15.5c-4.6,0-6.3-0.9-13.1-0.9C50.3-75.3,34-59,33.9-38.9v31.7c0,2.8,2.3,5.1,5.1,5.1
			l23.9,0C72-2.1,79.2,5.1,79.2,14c0,9-7.3,16.1-16.3,16.1"/>
	</g>
	<g id="g254" transform="translate(323.4485,307.2284)">
		<path id="path256" style="fill:#FFFFFF;" d="M3.8-105.7c0,9-7.3,16.2-16.2,16.2s-16.2-7.3-16.2-16.2s7.3-16.2,16.2-16.2
			S3.8-114.7,3.8-105.7"/>
	</g>
</g>
</svg>
