<?xml version="1.0" encoding="utf-8"?>
<!-- Generator: Adobe Illustrator 22.0.1, SVG Export Plug-In . SVG Version: 6.00 Build 0)  -->
<svg version="1.1" id="Layer_1" xmlns="http://www.w3.org/2000/svg" xmlns:xlink="http://www.w3.org/1999/xlink" x="0px" y="0px"
	 viewBox="0 0 512 512" style="enable-background:new 0 0 512 512;" xml:space="preserve">
<style type="text/css">
	.st0{fill:#825E46;}
	.st1{fill:url(#SVGID_1_);}
	.st2{fill:url(#SVGID_2_);}
	.st3{fill:url(#SVGID_3_);}
	.st4{opacity:0.95;fill:#F45C08;enable-background:new    ;}
	.st5{opacity:0.95;enable-background:new    ;}
	.st6{fill:#FFFFFF;}
</style>
<g>
	<g>
		<path class="st0" d="M411,486H101c-41.2,0-75-33.8-75-75V101c0-41.2,33.8-75,75-75h310c41.2,0,75,33.8,75,75v310
			C486,452.2,452.2,486,411,486z"/>
		<g>
			
				<linearGradient id="SVGID_1_" gradientUnits="userSpaceOnUse" x1="256" y1="70.986" x2="256" y2="286.728" gradientTransform="matrix(1 0 0 -1 0 514)">
				<stop  offset="0" style="stop-color:#825E46"/>
				<stop  offset="0.3286" style="stop-color:#73523C"/>
				<stop  offset="0.9622" style="stop-color:#4B3423"/>
				<stop  offset="1" style="stop-color:#483221"/>
			</linearGradient>
			<polygon class="st1" points="68.9,443 256,227.3 443.1,443 			"/>
			
				<linearGradient id="SVGID_2_" gradientUnits="userSpaceOnUse" x1="220.708" y1="258" x2="447.57" y2="258" gradientTransform="matrix(1 0 0 -1 0 514)">
				<stop  offset="0" style="stop-color:#483221"/>
				<stop  offset="0.3122" style="stop-color:#563D2A"/>
				<stop  offset="0.9016" style="stop-color:#7B5942"/>
				<stop  offset="1" style="stop-color:#825E46"/>
			</linearGradient>
			<polygon class="st2" points="447.6,445.4 220.7,256 447.6,66.6 			"/>
			
				<linearGradient id="SVGID_3_" gradientUnits="userSpaceOnUse" x1="64.43" y1="258" x2="291.292" y2="258" gradientTransform="matrix(1 0 0 -1 0 514)">
				<stop  offset="0" style="stop-color:#825E46"/>
				<stop  offset="9.840000e-02" style="stop-color:#7B5942"/>
				<stop  offset="0.6878" style="stop-color:#563D2A"/>
				<stop  offset="1" style="stop-color:#483221"/>
			</linearGradient>
			<polygon class="st3" points="64.4,445.4 291.3,256 64.4,66.6 			"/>
		</g>
	</g>
	<circle class="st4" cx="256" cy="256" r="128.9"/>
	<g class="st5">
		<g>
			<path class="st6" d="M256.1,361.2L256.1,361.2c-3.5,0-6.9-0.2-10.3-0.5c-1.4-0.1-2.4-1.4-2.2-2.7c0.1-1.4,1.3-2.4,2.7-2.2
				c3.2,0.3,6.5,0.5,9.8,0.5c1.4,0,2.5,1.1,2.5,2.5S257.4,361.2,256.1,361.2z M266.1,360.7c-1.3,0-2.4-1-2.5-2.3
				c-0.1-1.4,0.9-2.6,2.2-2.7c3.3-0.3,6.5-0.8,9.7-1.4c1.4-0.3,2.7,0.6,2.9,2s-0.6,2.7-2,2.9c-3.4,0.7-6.8,1.2-10.2,1.5
				C266.3,360.7,266.2,360.7,266.1,360.7z M236,359.3c-0.2,0-0.3,0-0.5,0c-3.4-0.7-6.7-1.5-10-2.5c-1.3-0.4-2.1-1.8-1.7-3.1
				c0.4-1.3,1.8-2.1,3.1-1.7c3.1,0.9,6.3,1.7,9.5,2.4c1.4,0.3,2.2,1.6,2,2.9C238.2,358.5,237.2,359.3,236,359.3z M285.9,356.8
				c-1.1,0-2.1-0.7-2.4-1.8c-0.4-1.3,0.3-2.7,1.7-3.1c3.1-0.9,6.2-2.1,9.3-3.3c1.3-0.5,2.7,0.1,3.3,1.4c0.5,1.3-0.1,2.7-1.4,3.3
				c-3.2,1.3-6.4,2.5-9.7,3.5C286.4,356.8,286.1,356.8,285.9,356.8z M216.7,353.5c-0.3,0-0.6-0.1-1-0.2c-3.2-1.3-6.3-2.8-9.3-4.4
				c-1.2-0.7-1.7-2.2-1-3.4c0.7-1.2,2.2-1.7,3.4-1c2.9,1.5,5.9,3,8.9,4.2c1.3,0.5,1.9,2,1.4,3.3
				C218.7,352.9,217.7,353.5,216.7,353.5z M304.5,349.1c-0.9,0-1.8-0.5-2.2-1.3c-0.7-1.2-0.2-2.7,1-3.4c2.9-1.5,5.7-3.2,8.4-5.1
				c1.1-0.8,2.7-0.5,3.5,0.7s0.5,2.7-0.7,3.5c-2.9,1.9-5.8,3.7-8.9,5.3C305.3,349,304.9,349.1,304.5,349.1z M199,344
				c-0.5,0-1-0.1-1.4-0.4c-2.8-1.9-5.6-4-8.3-6.1c-1.1-0.9-1.2-2.5-0.3-3.5c0.9-1.1,2.5-1.2,3.5-0.3c2.5,2.1,5.2,4,7.9,5.9
				c1.1,0.8,1.5,2.3,0.7,3.5C200.6,343.6,199.8,344,199,344z M321.2,337.9c-0.7,0-1.4-0.3-1.9-0.9c-0.9-1.1-0.7-2.6,0.3-3.5
				c2.5-2.1,5-4.3,7.3-6.6c1-1,2.6-1,3.5,0c1,1,1,2.6,0,3.5c-2.4,2.4-5,4.8-7.6,6.9C322.3,337.7,321.8,337.9,321.2,337.9z
				 M183.4,331.2c-0.6,0-1.3-0.2-1.8-0.7c-2.4-2.4-4.8-5-6.9-7.6c-0.9-1.1-0.7-2.6,0.3-3.5c1.1-0.9,2.6-0.7,3.5,0.3
				c2.1,2.5,4.3,5,6.6,7.3c1,1,1,2.6,0,3.5C184.7,331,184.1,331.2,183.4,331.2z M335.4,323.7c-0.6,0-1.1-0.2-1.6-0.6
				c-1.1-0.9-1.2-2.5-0.3-3.5c2.1-2.5,4-5.2,5.9-7.9c0.8-1.1,2.3-1.5,3.5-0.7c1.1,0.8,1.5,2.3,0.7,3.5c-1.9,2.9-4,5.6-6.2,8.3
				C336.9,323.3,336.2,323.7,335.4,323.7z M170.6,315.7c-0.8,0-1.6-0.4-2.1-1.1c-1.9-2.9-3.7-5.8-5.3-8.8c-0.7-1.2-0.2-2.7,1-3.4
				c1.2-0.6,2.7-0.2,3.4,1c1.5,2.9,3.2,5.7,5.1,8.4c0.8,1.1,0.5,2.7-0.7,3.5C171.6,315.5,171.1,315.7,170.6,315.7z M346.6,306.9
				c-0.4,0-0.8-0.1-1.2-0.3c-1.2-0.7-1.7-2.2-1-3.4c1.5-2.9,3-5.9,4.2-8.9c0.5-1.3,2-1.9,3.3-1.4c1.3,0.5,1.9,2,1.4,3.3
				c-1.3,3.2-2.8,6.3-4.4,9.3C348.4,306.4,347.5,306.9,346.6,306.9z M161.1,297.9c-1,0-1.9-0.6-2.3-1.5c-1.3-3.2-2.5-6.4-3.5-9.7
				c-0.4-1.3,0.3-2.7,1.7-3.1c1.3-0.4,2.7,0.3,3.1,1.7c0.9,3.1,2.1,6.2,3.3,9.3c0.5,1.3-0.1,2.7-1.3,3.3
				C161.7,297.9,161.4,297.9,161.1,297.9z M354.3,288.3c-0.2,0-0.5,0-0.7-0.1c-1.3-0.4-2.1-1.8-1.7-3.1c0.9-3.1,1.7-6.3,2.4-9.5
				c0.3-1.4,1.6-2.2,2.9-2c1.4,0.3,2.2,1.6,2,2.9c-0.7,3.4-1.5,6.7-2.5,10C356.4,287.6,355.4,288.3,354.3,288.3z M155.2,278.7
				c-1.2,0-2.2-0.8-2.5-2c-0.7-3.4-1.2-6.8-1.5-10.2c-0.1-1.4,0.9-2.6,2.2-2.7c1.4-0.1,2.6,0.9,2.7,2.2c0.3,3.3,0.8,6.5,1.4,9.7
				c0.3,1.4-0.6,2.7-2,2.9C155.6,278.6,155.4,278.7,155.2,278.7z M358.2,268.6c-0.1,0-0.2,0-0.2,0c-1.4-0.1-2.4-1.4-2.2-2.7
				c0.3-3.2,0.5-6.6,0.5-9.8v-0.2c0-1.4,1.1-2.5,2.5-2.5s2.5,1.1,2.5,2.5v0.2c0,3.4-0.2,6.9-0.5,10.3
				C360.6,267.6,359.5,268.6,358.2,268.6z M153.3,258.6c-1.4,0-2.5-1.1-2.5-2.5V256c0-3.4,0.2-6.8,0.5-10.2c0.1-1.4,1.4-2.4,2.7-2.2
				c1.4,0.1,2.4,1.4,2.2,2.7c-0.3,3.2-0.5,6.5-0.5,9.7v0.1C155.8,257.5,154.7,258.6,153.3,258.6z M358.2,248.2c-1.3,0-2.4-1-2.5-2.3
				c-0.3-3.3-0.8-6.5-1.5-9.7c-0.3-1.4,0.6-2.7,2-2.9c1.3-0.3,2.7,0.6,2.9,2c0.7,3.4,1.2,6.8,1.5,10.2c0.1,1.4-0.9,2.6-2.2,2.7
				C358.4,248.2,358.3,248.2,358.2,248.2z M155.2,238.6c-0.2,0-0.3,0-0.5,0c-1.4-0.3-2.2-1.6-2-2.9c0.7-3.4,1.5-6.7,2.5-10
				c0.4-1.3,1.8-2.1,3.1-1.7c1.3,0.4,2.1,1.8,1.7,3.1c-0.9,3.1-1.7,6.3-2.4,9.5C157.4,237.8,156.4,238.6,155.2,238.6z M354.3,228.5
				c-1.1,0-2.1-0.7-2.4-1.8c-1-3.1-2.1-6.2-3.3-9.2c-0.5-1.3,0.1-2.7,1.3-3.3c1.3-0.5,2.7,0.1,3.3,1.3c1.3,3.2,2.5,6.4,3.5,9.7
				c0.4,1.3-0.3,2.7-1.7,3.1C354.8,228.4,354.5,228.5,354.3,228.5z M161,219.3c-0.3,0-0.6-0.1-1-0.2c-1.3-0.5-1.9-2-1.4-3.3
				c1.3-3.2,2.8-6.3,4.4-9.3c0.6-1.2,2.2-1.7,3.4-1c1.2,0.6,1.7,2.2,1,3.4c-1.5,2.9-3,5.9-4.2,8.9C162.9,218.7,162,219.3,161,219.3z
				 M346.5,209.9c-0.9,0-1.8-0.5-2.2-1.3c-1.5-2.9-3.3-5.7-5.1-8.4c-0.8-1.1-0.5-2.7,0.7-3.5c1.1-0.8,2.7-0.5,3.5,0.7
				c1.9,2.9,3.7,5.8,5.3,8.8c0.7,1.2,0.2,2.7-1,3.4C347.3,209.8,346.9,209.9,346.5,209.9z M170.5,201.5c-0.5,0-1-0.1-1.4-0.4
				c-1.1-0.8-1.5-2.3-0.7-3.5c1.9-2.9,4-5.6,6.1-8.3c0.9-1.1,2.5-1.2,3.5-0.4c1.1,0.9,1.2,2.4,0.4,3.5c-2.1,2.5-4,5.2-5.9,7.9
				C172.1,201.2,171.3,201.5,170.5,201.5z M335.3,193.2c-0.7,0-1.4-0.3-1.9-0.9c-2.1-2.5-4.3-5-6.6-7.3c-1-1-1-2.6,0-3.5
				c1-1,2.6-1,3.5,0c2.4,2.4,4.8,5,7,7.6c0.9,1.1,0.7,2.6-0.3,3.5C336.4,193,335.8,193.2,335.3,193.2z M183.3,186
				c-0.6,0-1.3-0.2-1.8-0.7c-1-1-1-2.6,0-3.5c2.4-2.4,5-4.8,7.6-6.9c1.1-0.9,2.6-0.7,3.5,0.3c0.9,1.1,0.7,2.6-0.3,3.5
				c-2.5,2.1-5,4.3-7.3,6.6C184.5,185.7,183.9,186,183.3,186z M321,179c-0.6,0-1.1-0.2-1.6-0.6c-2.5-2.1-5.2-4-7.9-5.8
				c-1.1-0.8-1.5-2.3-0.7-3.5c0.8-1.2,2.3-1.5,3.5-0.7c2.8,1.9,5.6,4,8.3,6.1c1.1,0.9,1.2,2.4,0.4,3.5
				C322.5,178.6,321.7,179,321,179z M198.8,173.2c-0.8,0-1.6-0.4-2.1-1.1c-0.8-1.1-0.5-2.7,0.7-3.5c2.8-1.9,5.8-3.7,8.8-5.3
				c1.2-0.7,2.7-0.2,3.4,1c0.7,1.2,0.2,2.7-1,3.4c-2.9,1.5-5.7,3.3-8.4,5.1C199.8,173,199.3,173.2,198.8,173.2z M304.3,167.8
				c-0.4,0-0.8-0.1-1.2-0.3c-2.9-1.5-5.9-2.9-8.9-4.2c-1.3-0.5-1.9-2-1.4-3.3c0.5-1.3,2-1.9,3.3-1.4c3.2,1.3,6.3,2.8,9.3,4.4
				c1.2,0.6,1.7,2.2,1,3.4C306,167.3,305.1,167.8,304.3,167.8z M216.5,163.6c-1,0-1.9-0.6-2.3-1.5c-0.5-1.3,0.1-2.7,1.3-3.3
				c3.2-1.3,6.4-2.5,9.7-3.5c1.3-0.4,2.7,0.3,3.1,1.7c0.4,1.3-0.3,2.7-1.7,3.1c-3.1,1-6.2,2.1-9.3,3.3
				C217.2,163.6,216.8,163.6,216.5,163.6z M285.6,160.1c-0.2,0-0.5,0-0.7-0.1c-3.1-0.9-6.3-1.7-9.5-2.4c-1.4-0.3-2.2-1.6-2-2.9
				s1.6-2.2,2.9-2c3.4,0.7,6.7,1.5,10,2.5c1.3,0.4,2.1,1.8,1.7,3.1C287.7,159.4,286.7,160.1,285.6,160.1z M235.8,157.8
				c-1.2,0-2.2-0.8-2.4-2c-0.3-1.4,0.6-2.7,2-2.9c3.4-0.7,6.8-1.2,10.2-1.5c1.4-0.1,2.6,0.9,2.7,2.2c0.1,1.4-0.9,2.6-2.2,2.7
				c-3.3,0.3-6.5,0.8-9.7,1.4C236.1,157.7,235.9,157.8,235.8,157.8z M265.9,156.2c-0.1,0-0.2,0-0.2,0c-3.2-0.3-6.4-0.5-9.6-0.5h-0.2
				c-1.4,0-2.5-1.1-2.5-2.5s1.1-2.5,2.5-2.5h0.2c3.4,0,6.8,0.2,10.1,0.5c1.4,0.1,2.4,1.4,2.3,2.7
				C268.3,155.3,267.2,156.2,265.9,156.2z"/>
		</g>
	</g>
	<g>
		<path id="path236" class="st6" d="M311.8,257.5c-3.8-3.8-9.9-3.8-13.7,0c-0.1,0.1-0.2,0.2-0.3,0.3l-32,32v-93.6l0,0
			c0.1-2.6-0.9-5.1-2.8-7.1c-3.8-3.8-9.9-3.8-13.7,0c-2,2-2.9,4.5-2.8,7.1l0,0v93.6l-32.2-32.2c0,0,0-0.1-0.1-0.1
			c-3.8-3.8-9.9-3.8-13.7,0c-3.8,3.8-3.8,9.9,0,13.7l0,0l42,42l0,0l4,4l0,0l0,0l7.5,7.5l0.1,0.1c0.6,0.5,1.3,0.9,2.1,0.9
			c0.8,0,1.5-0.3,2.1-0.9l0.1-0.1l7.5-7.5l0,0l0,0l46-46l0,0C315.5,267.4,315.5,261.3,311.8,257.5"/>
		<path id="path240" class="st6" d="M256,146c-60.7,0-110,49.2-110,110s49.2,110,110,110s110-49.2,110-110S316.7,146,256,146
			 M256,161.4c25.3,0,49,9.8,66.9,27.7c17.9,17.9,27.7,41.6,27.7,66.9s-9.8,49-27.7,66.9c-17.9,17.9-41.6,27.7-66.9,27.7
			s-49-9.8-66.9-27.7c-17.9-17.9-27.7-41.6-27.7-66.9s9.8-49,27.7-66.9C207,171.3,230.7,161.4,256,161.4"/>
	</g>
</g>
</svg>
