<?xml version="1.0" encoding="UTF-8" standalone="no"?>
<!DOCTYPE svg PUBLIC "-//W3C//DTD SVG 1.1//EN" "http://www.w3.org/Graphics/SVG/1.1/DTD/svg11.dtd">
<svg width="100%" height="100%" viewBox="0 0 512 512" version="1.1" xmlns="http://www.w3.org/2000/svg" xmlns:xlink="http://www.w3.org/1999/xlink" xml:space="preserve" xmlns:serif="http://www.serif.com/" style="fill-rule:evenodd;clip-rule:evenodd;stroke-linejoin:round;stroke-miterlimit:1.41421;">
    <g>
        <path d="M445,485L65,485C42.9,485 25,467.1 25,445L25,65C25,42.9 42.9,25 65,25L445,25C467.1,25 485,42.9 485,65L485,445C485,467.1 467.1,485 445,485Z" style="fill:url(#_Linear1);fill-rule:nonzero;"/>
        <circle cx="255" cy="255" r="200" style="fill:url(#_Linear2);"/>
    </g>
    <g>
        <g id="path252" transform="matrix(1,0,0,1,256.072,253.058)">
            <path d="M0,6.6L-82.6,-125.6C-57.3,-141.4 -29.9,-149.3 0,-149.3L0,6.6Z" style="fill:rgb(0,189,155);fill-rule:nonzero;"/>
        </g>
        <g id="path256" transform="matrix(1,0,0,1,256.072,253.058)">
            <path d="M0,6.6L-155.5,17.5C-159.7,-42.2 -133.3,-93.9 -82.6,-125.6L0,6.6Z" style="fill:rgb(45,152,224);fill-rule:nonzero;"/>
        </g>
        <g id="path260" transform="matrix(1,0,0,1,256.072,253.058)">
            <path d="M0,6.6L127.7,96C78.3,166.5 -18.9,183.7 -89.4,134.3C-129.2,106.4 -152.1,66 -155.5,17.5L0,6.6Z" style="fill:rgb(156,86,184);fill-rule:nonzero;"/>
        </g>
        <g id="path264" transform="matrix(1,0,0,1,256.072,253.058)">
            <path d="M0,6.6L112.1,-101.7C164.1,-47.9 170.6,34.7 127.7,96L0,6.6Z" style="fill:rgb(232,76,61);fill-rule:nonzero;"/>
        </g>
        <g id="path268" transform="matrix(1,0,0,1,256.072,253.058)">
            <path d="M0,6.6L40.3,-144C69.2,-136.3 91.3,-123.2 112.1,-101.7L0,6.6Z" style="fill:rgb(241,197,14);fill-rule:nonzero;"/>
        </g>
        <g id="path272" transform="matrix(1,0,0,1,256.072,253.058)">
            <path d="M0,6.6L0,-149.3C14.9,-149.3 26,-147.8 40.3,-144L0,6.6Z" style="fill:rgb(81,216,139);fill-rule:nonzero;"/>
        </g>
        <g id="path276" transform="matrix(1,0,0,1,256.086,395.468)">
            <path d="M0,-313.8C-93.2,-313.8 -168.8,-238.2 -168.8,-145C-168.8,-51.8 -93.2,23.8 0,23.8C93.2,23.8 168.8,-51.8 168.8,-145C168.8,-238.2 93.2,-313.8 0,-313.8M0,-300.9C41.7,-300.9 80.8,-284.7 110.3,-255.2C139.7,-225.8 156,-186.7 156,-145C156,-103.3 139.8,-64.2 110.3,-34.7C80.8,-5.3 41.7,10.9 0,10.9C-41.7,10.9 -80.8,-5.3 -110.2,-34.7C-139.7,-64.2 -155.9,-103.3 -155.9,-145C-155.9,-186.7 -139.7,-225.8 -110.2,-255.3C-80.8,-284.7 -41.6,-300.9 0,-300.9" style="fill:rgb(209,209,209);fill-rule:nonzero;"/>
        </g>
        <g id="g10" transform="matrix(1.25,0,0,1.25,-17.8841,-17.6455)">
            <g id="path292" transform="matrix(1,0,0,1,166.102,375.675)">
                <path d="M-22.5,-269.3L33.9,-170.6L-73.5,-215.4L-22.5,-269.3Z" style="fill:rgb(76,76,76);fill-opacity:0.4;fill-rule:nonzero;"/>
            </g>
            <g id="path296" transform="matrix(1,0,0,1,164.1,391.903)">
                <path d="M-23,-305.8L40.6,-188.4L-77,-257.4L-23,-305.8Z" style="fill:rgb(234,234,234);fill-rule:nonzero;"/>
            </g>
        </g>
    </g>
    <defs>
        <linearGradient id="_Linear1" x1="0" y1="0" x2="1" y2="0" gradientUnits="userSpaceOnUse" gradientTransform="matrix(2.81669e-14,-460,460,2.81669e-14,255,485)"><stop offset="0" style="stop-color:rgb(201,201,201);stop-opacity:1"/><stop offset="1" style="stop-color:rgb(245,245,245);stop-opacity:1"/></linearGradient>
        <linearGradient id="_Linear2" x1="0" y1="0" x2="1" y2="0" gradientUnits="userSpaceOnUse" gradientTransform="matrix(2.44929e-14,-400,400,2.44929e-14,255,455)"><stop offset="0" style="stop-color:rgb(245,245,245);stop-opacity:1"/><stop offset="1" style="stop-color:rgb(201,201,201);stop-opacity:1"/></linearGradient>
    </defs>
</svg>
