<?xml version="1.0" encoding="utf-8"?>
<!-- Generator: Adobe Illustrator 22.0.1, SVG Export Plug-In . SVG Version: 6.00 Build 0)  -->
<svg version="1.1" id="Layer_1" xmlns="http://www.w3.org/2000/svg" xmlns:xlink="http://www.w3.org/1999/xlink" x="0px" y="0px"
	 viewBox="0 0 512 512" enable-background="new 0 0 512 512" xml:space="preserve">
<linearGradient id="SVGID_1_" gradientUnits="userSpaceOnUse" x1="256" y1="29.7818" x2="256" y2="489.7818">
	<stop  offset="0" style="stop-color:#D1EEFC"/>
	<stop  offset="1" style="stop-color:#D1EEFC"/>
</linearGradient>
<circle fill="url(#SVGID_1_)" cx="256" cy="256" r="230"/>
<g id="Layer_2_1_">
	<g>
		<path fill="#FFFFFF" d="M363.11,368.213l-63.659-110.26c-11.481-19.886-17.525-42.443-17.525-65.405v-43.893
			c0-7.541-6.113-13.654-13.654-13.654h-24.552c-7.541,0-13.654,6.113-13.654,13.654v43.86c0,22.962-6.044,45.52-17.525,65.405
			L148.626,368.62c-2.121,3.674-2.82,8.061-1.666,12.142c1.945,6.881,8.126,11.359,14.943,11.359h188.162
			c0.007-0.001,0.015-0.001,0.02,0c8.561,0,15.5-6.939,15.5-15.5C365.586,373.523,364.677,370.635,363.11,368.213z"/>
		
			<linearGradient id="SVGID_2_" gradientUnits="userSpaceOnUse" x1="255.9971" y1="125.377" x2="255.9971" y2="230.672" gradientTransform="matrix(1 0 0 -1 0 512)">
			<stop  offset="0" style="stop-color:#81F1FD"/>
			<stop  offset="1" style="stop-color:#2279F0"/>
		</linearGradient>
		<path fill="url(#SVGID_2_)" d="M358.347,370.963l-51.751-89.635c0,0-21.434,15.167-52.434,15.167
			c-26.667,0-48.787-15.166-48.787-15.166l-52.131,90.294c-1.781,3.084-1.781,6.916,0,10c1.78,3.084,5.099,5,8.66,5l188.301-0.001
			c5.459-0.063,9.881-4.524,9.881-9.999c0-1.936-0.551-3.81-1.594-5.421L358.347,370.963z"/>
		<g>
			
				<radialGradient id="SVGID_3_" cx="231.745" cy="193.9219" r="7.0881" gradientTransform="matrix(1 0 0 -1 0 512)" gradientUnits="userSpaceOnUse">
				<stop  offset="0.6591" style="stop-color:#FFFFFF"/>
				<stop  offset="0.8485" style="stop-color:#81F1FD"/>
				<stop  offset="1" style="stop-color:#2279F0"/>
			</radialGradient>
			<circle fill="url(#SVGID_3_)" cx="231.745" cy="319.078" r="5.75"/>
			
				<radialGradient id="SVGID_4_" cx="265.0678" cy="173.7552" r="9.7699" gradientTransform="matrix(1 0 0 -1 0 512)" gradientUnits="userSpaceOnUse">
				<stop  offset="0.6591" style="stop-color:#FFFFFF"/>
				<stop  offset="0.8485" style="stop-color:#81F1FD"/>
				<stop  offset="1" style="stop-color:#2279F0"/>
			</radialGradient>
			<circle fill="url(#SVGID_4_)" cx="265.234" cy="339.578" r="8.75"/>
			
				<radialGradient id="SVGID_5_" cx="225.245" cy="157.4219" r="10.4174" gradientTransform="matrix(1 0 0 -1 0 512)" gradientUnits="userSpaceOnUse">
				<stop  offset="0.6591" style="stop-color:#FFFFFF"/>
				<stop  offset="0.8485" style="stop-color:#81F1FD"/>
				<stop  offset="1" style="stop-color:#2279F0"/>
			</radialGradient>
			<circle fill="url(#SVGID_5_)" cx="225.245" cy="356.578" r="8.25"/>
			
				<radialGradient id="SVGID_6_" cx="302.2038" cy="186.4635" r="10.9622" gradientTransform="matrix(1 0 0 -1 0 512)" gradientUnits="userSpaceOnUse">
				<stop  offset="0.6591" style="stop-color:#FFFFFF"/>
				<stop  offset="0.8485" style="stop-color:#81F1FD"/>
				<stop  offset="1" style="stop-color:#2279F0"/>
			</radialGradient>
			<circle fill="url(#SVGID_6_)" cx="302.37" cy="327.703" r="8.625"/>
			
				<radialGradient id="SVGID_7_" cx="253.245" cy="206.0885" r="9.4204" gradientTransform="matrix(1 0 0 -1 0 512)" gradientUnits="userSpaceOnUse">
				<stop  offset="0.6591" style="stop-color:#FFFFFF"/>
				<stop  offset="0.8485" style="stop-color:#81F1FD"/>
				<stop  offset="1" style="stop-color:#2279F0"/>
			</radialGradient>
			<circle fill="url(#SVGID_7_)" cx="253.245" cy="307.578" r="7.25"/>
			
				<radialGradient id="SVGID_8_" cx="282.2038" cy="152.4635" r="10.9622" gradientTransform="matrix(1 0 0 -1 0 512)" gradientUnits="userSpaceOnUse">
				<stop  offset="0.6591" style="stop-color:#FFFFFF"/>
				<stop  offset="0.8485" style="stop-color:#81F1FD"/>
				<stop  offset="1" style="stop-color:#2279F0"/>
			</radialGradient>
			<circle fill="url(#SVGID_8_)" cx="282.37" cy="361.703" r="8.625"/>
		</g>
		
			<linearGradient id="SVGID_9_" gradientUnits="userSpaceOnUse" x1="255.9981" y1="125.377" x2="255.9981" y2="232.9258" gradientTransform="matrix(1 0 0 -1 0 512)">
			<stop  offset="0" style="stop-color:#2279F0;stop-opacity:0"/>
			<stop  offset="1" style="stop-color:#81F1FD"/>
		</linearGradient>
		<path fill="url(#SVGID_9_)" d="M358.347,370.963l-51.751-89.635c0,0-13.917,42.409-54.6,10.501c-25.5-20-46.62-10.5-46.62-10.5
			l-52.131,90.294c-1.781,3.084-1.781,6.916,0,10c1.78,3.084,5.099,5,8.66,5l188.301-0.001c5.459-0.063,9.881-4.524,9.881-9.999
			c0-1.936-0.551-3.81-1.594-5.421L358.347,370.963z"/>
		<g>
			
				<linearGradient id="SVGID_10_" gradientUnits="userSpaceOnUse" x1="247.152" y1="238.353" x2="247.152" y2="251.397" gradientTransform="matrix(1 0 0 -1 0 512)">
				<stop  offset="0" style="stop-color:#2279F0;stop-opacity:0"/>
				<stop  offset="1" style="stop-color:#81F1FD"/>
			</linearGradient>
			<circle fill="url(#SVGID_10_)" cx="247.152" cy="267.125" r="6.522"/>
			
				<linearGradient id="SVGID_11_" gradientUnits="userSpaceOnUse" x1="264.244" y1="260.842" x2="264.244" y2="273.886" gradientTransform="matrix(1 0 0 -1 0 512)">
				<stop  offset="0" style="stop-color:#2279F0;stop-opacity:0"/>
				<stop  offset="1" style="stop-color:#81F1FD"/>
			</linearGradient>
			<circle fill="url(#SVGID_11_)" cx="264.244" cy="244.636" r="6.522"/>
			
				<linearGradient id="SVGID_12_" gradientUnits="userSpaceOnUse" x1="275.001" y1="234.155" x2="275.001" y2="244.875" gradientTransform="matrix(1 0 0 -1 0 512)">
				<stop  offset="0" style="stop-color:#2279F0;stop-opacity:0"/>
				<stop  offset="1" style="stop-color:#81F1FD"/>
			</linearGradient>
			<circle fill="url(#SVGID_12_)" cx="275.001" cy="272.485" r="5.36"/>
			
				<linearGradient id="SVGID_13_" gradientUnits="userSpaceOnUse" x1="249.098" y1="254.996" x2="249.098" y2="263.836" gradientTransform="matrix(1 0 0 -1 0 512)">
				<stop  offset="0" style="stop-color:#2279F0;stop-opacity:0"/>
				<stop  offset="1" style="stop-color:#81F1FD"/>
			</linearGradient>
			<circle fill="url(#SVGID_13_)" cx="249.098" cy="252.584" r="4.42"/>
			
				<linearGradient id="SVGID_14_" gradientUnits="userSpaceOnUse" x1="249.241" y1="286.03" x2="249.241" y2="295.156" gradientTransform="matrix(1 0 0 -1 0 512)">
				<stop  offset="0" style="stop-color:#2279F0;stop-opacity:0"/>
				<stop  offset="1" style="stop-color:#81F1FD"/>
			</linearGradient>
			<circle fill="url(#SVGID_14_)" cx="249.241" cy="221.407" r="4.563"/>
		</g>
	</g>
</g>
</svg>
