<?xml version="1.0" encoding="utf-8"?>
<!-- Generator: Adobe Illustrator 18.0.0, SVG Export Plug-In . SVG Version: 6.00 Build 0)  -->
<!DOCTYPE svg PUBLIC "-//W3C//DTD SVG 1.1//EN" "http://www.w3.org/Graphics/SVG/1.1/DTD/svg11.dtd">
<svg version="1.1" id="Layer_1" xmlns="http://www.w3.org/2000/svg" xmlns:xlink="http://www.w3.org/1999/xlink" x="0px" y="0px"
	 viewBox="0 0 512 512" style="enable-background:new 0 0 512 512;" xml:space="preserve">
<g>
	<path style="fill:#F57900;" d="M26,375.974l7.835-44.431h53.322l1.567-8.889H35.402l32.907-186.628h97.757l-42.308,239.947H26z
		 M96.559,278.22l17.237-97.757h-8.887L87.672,278.22H96.559z"/>
	<path style="fill:#F57900;" d="M167.12,180.461l7.835-44.435h44.435l-7.835,44.435H167.12z M142.048,322.654l23.505-133.306h44.435
		l-23.505,133.306H142.048z"/>
	<path style="fill:#F57900;" d="M195.369,322.654l32.907-186.628h151.078l-32.907,186.628h-44.432l25.072-142.193h-8.886
		l-25.072,142.193h-44.438l25.072-142.193h-8.887l-25.072,142.193H195.369z"/>
	<path style="fill:#F57900;" d="M355.335,322.654l32.907-186.628H486l-23.505,133.306h-53.322l-9.402,53.322L355.335,322.654
		L355.335,322.654z M425.895,224.896l7.835-44.435h-8.886l-7.835,44.435H425.895z"/>
</g>
</svg>
