<?xml version="1.0" encoding="utf-8"?>
<!-- Generator: Adobe Illustrator 18.0.0, SVG Export Plug-In . SVG Version: 6.00 Build 0)  -->
<!DOCTYPE svg PUBLIC "-//W3C//DTD SVG 1.1//EN" "http://www.w3.org/Graphics/SVG/1.1/DTD/svg11.dtd">
<svg version="1.1" id="Layer_1" xmlns="http://www.w3.org/2000/svg" xmlns:xlink="http://www.w3.org/1999/xlink" x="0px" y="0px"
	 viewBox="0 0 512 512" style="enable-background:new 0 0 512 512;" xml:space="preserve">
<g id="g228">
	<g id="g234" transform="translate(149.7563,335.9818)">
		<path id="path236" style="fill:#FFFFFF;" d="M-108.073-241.323v354.05c0,20.596,16.697,37.29,37.292,37.29h32.534L176.071-64.298
			L-38.247-278.615H-70.78C-91.376-278.615-108.073-261.919-108.073-241.323"/>
	</g>
	<g id="g238" transform="translate(327.6289,141.9814)">
		<path id="path240" style="fill:#F7F7F7;" d="M72.862,344.018h32.534c20.596,0,37.292-16.697,37.292-37.292V-47.322
			c0-20.598-16.697-37.292-37.292-37.292H72.862l-214.317,214.315L72.862,344.018z"/>
	</g>
	<g id="g242" transform="translate(362.2437,160.4683)">
		<path id="path244" style="fill:#F4F4F4;" d="M108.073,288.239v-32.534L-106.244,41.388l-214.315,214.317v32.534
			c0,20.596,16.697,37.292,37.292,37.292H70.781C91.377,325.532,108.073,308.835,108.073,288.239"/>
	</g>
	<g id="g246" transform="translate(270.8548,228.4651)">
		<path id="path248" style="fill:#E8E8E8;" d="M15.111,83.078l184.351-184.352v-32.534c0-20.596-16.697-37.292-37.292-37.292
			h-354.05c-20.596,0-37.292,16.697-37.292,37.292v32.534L-44.821,83.078C-28.272,99.628-1.438,99.628,15.111,83.078"/>
	</g>
	<g id="g250" transform="translate(174.9658,303.1044)">
		<path id="path252" d="M-82.429-142.125l-16.951,16.951v23.133l16.951-16.953V-142.125z"/>
	</g>
	<g id="g254" transform="translate(286.9768,329.2593)">
		<path id="path256" style="fill:#3F8CFC;" d="M31.51-221.04l16.951-16.951H25.328L8.377-221.04H31.51z"/>
	</g>
	<g id="g258" transform="translate(268.3791,329.2593)">
		<path id="path260" style="fill:#FC354D;" d="M12.592-221.04l16.951-16.951H6.412l-16.951,16.951H12.592z"/>
	</g>
	<g id="g262" transform="translate(324.1711,329.2593)">
		<path id="path264" style="fill:#FC354D;" d="M69.345-221.04l16.174-16.174c-2.316-0.498-4.712-0.777-7.177-0.777H63.164
			L46.214-221.04H69.345z"/>
	</g>
	<g id="g266" transform="translate(174.9658,320.8561)">
		<path id="path268" style="fill:#FC354D;" d="M-82.429-195.686c0-0.609,0.036-1.21,0.099-1.805l-17.05,17.052v23.131l16.951-16.951
			V-195.686z"/>
	</g>
	<g id="g270" transform="translate(183.3689,329.2593)">
		<path id="path272" d="M-73.881-221.04h21.427l16.951-16.951h-23.131l-17.052,17.05C-75.092-221.003-74.491-221.04-73.881-221.04"
			/>
	</g>
	<g id="g274" transform="translate(336.6982,323.1895)">
		<path id="path276" style="fill:#3F8CFC;" d="M82.088-202.726l12.751-12.749c-2.856-4.738-6.828-8.71-11.567-11.567l-12.751,12.751
			C76.087-212.679,80.474-208.291,82.088-202.726"/>
	</g>
	<g id="g278" transform="translate(231.1849,329.2593)">
		<path id="path280" style="fill:#3F8CFC;" d="M-25.242-221.04l16.951-16.951h-23.131l-16.951,16.951H-25.242z"/>
	</g>
	<g id="g282" transform="translate(212.588,329.2593)">
		<path id="path284" style="fill:#FC354D;" d="M-44.159-221.04l16.951-16.951H-50.34l-16.951,16.951H-44.159z"/>
	</g>
	<g id="g286" transform="translate(249.7822,329.2593)">
		<path id="path288" d="M-6.325-221.04l0.288-0.288l16.662-16.662h-23.133l-16.951,16.951H-6.325z"/>
	</g>
	<g id="g290" transform="translate(337.0346,211.9429)">
		<path id="path292" style="fill:#3F8CFC;" d="M82.43,132.929l16.951-16.951V92.845L82.43,109.798V132.929z"/>
	</g>
	<g id="g294" transform="translate(337.0346,193.3456)">
		<path id="path296" d="M82.43,189.041l16.951-16.951v-23.133L82.43,165.908V189.041z"/>
	</g>
	<g id="g298" transform="translate(337.0346,304.9287)">
		<path id="path300" d="M82.43-147.629l16.951-16.951v-15.178c0-2.465-0.278-4.864-0.777-7.179L82.43-170.763V-147.629z"/>
	</g>
	<g id="g302" transform="translate(328.6315,158.7873)">
		<path id="path304" style="fill:#3F8CFC;" d="M73.882,293.311c18.724,0,33.901-15.178,33.901-33.901v-0.865l-34.767,34.767H73.882z
			"/>
	</g>
	<g id="g306" transform="translate(183.3689,337.6624)">
		<path id="path308" style="fill:#3F8CFC;" d="M-73.881-246.394c-18.724,0-33.901,15.178-33.901,33.901v0.863l34.765-34.765H-73.881
			z"/>
	</g>
	<g id="g310" transform="translate(337.0346,175.5936)">
		<path id="path312" style="fill:#FC354D;" d="M82.43,242.603c0,0.609-0.036,1.21-0.099,1.803l17.05-17.05v-23.133L82.43,221.176
			V242.603z"/>
	</g>
	<g id="g314" transform="translate(337.0346,286.3318)">
		<path id="path316" style="fill:#FC354D;" d="M82.43-91.518l16.951-16.951v-23.133L82.43-114.65V-91.518z"/>
	</g>
	<g id="g318" transform="translate(337.0346,267.734)">
		<path id="path320" style="fill:#3F8CFC;" d="M82.43-35.405l16.951-16.951v-23.133L82.43-58.538V-35.405z"/>
	</g>
	<g id="g322" transform="translate(337.0346,230.5398)">
		<path id="path324" style="fill:#FC354D;" d="M82.43,76.818l16.951-16.951V36.736L82.43,53.687V76.818z"/>
	</g>
	<g id="g326" transform="translate(337.0346,249.1367)">
		<path id="path328" d="M82.43,20.708L99.381,3.757v-23.133L82.43-2.426V20.708z"/>
	</g>
	<g id="g330" transform="translate(305.5742,329.2593)">
		<path id="path332" d="M50.428-221.04l16.951-16.951H44.245L27.294-221.04H50.428z"/>
	</g>
	<g id="g334" transform="translate(328.6315,167.1904)">
		<path id="path336" d="M73.882,267.957H52.455l-16.953,16.951h23.133l17.05-17.049C75.093,267.921,74.491,267.957,73.882,267.957"
			/>
	</g>
	<g id="g338" transform="translate(187.8286,167.1904)">
		<path id="path340" style="fill:#FC354D;" d="M-69.345,267.957l-16.174,16.174c2.316,0.498,4.712,0.777,7.177,0.777h15.18
			l16.951-16.951H-69.345z"/>
	</g>
	<g id="g342" transform="translate(174.9658,228.7164)">
		<path id="path344" style="fill:#3F8CFC;" d="M-82.429,82.32L-99.38,99.271v23.133l16.951-16.951V82.32z"/>
	</g>
	<g id="g346" transform="translate(299.4117,167.1904)">
		<path id="path348" style="fill:#FC354D;" d="M44.159,267.957l-16.951,16.951h23.133l16.951-16.951H44.159z"/>
	</g>
	<g id="g350" transform="translate(174.9658,247.3133)">
		<path id="path352" d="M-82.429,26.209L-99.38,43.16v23.133l16.951-16.953V26.209z"/>
	</g>
	<g id="g354" transform="translate(174.9658,191.5214)">
		<path id="path356" d="M-82.429,194.545l-16.951,16.951v15.18c0,2.463,0.278,4.861,0.777,7.175l16.174-16.174V194.545z"/>
	</g>
	<g id="g358" transform="translate(174.9658,210.1187)">
		<path id="path360" style="fill:#FC354D;" d="M-82.429,138.433l-16.951,16.951v23.133l16.951-16.951V138.433z"/>
	</g>
	<g id="g362" transform="translate(175.3021,173.2608)">
		<path id="path364" style="fill:#3F8CFC;" d="M-82.087,249.642l-12.751,12.751c2.856,4.736,6.828,8.708,11.567,11.565
			l12.749-12.749C-76.088,259.595-80.475,255.207-82.087,249.642"/>
	</g>
	<g id="g366" transform="translate(206.4259,167.1904)">
		<path id="path368" d="M-50.427,267.957l-16.951,16.951h23.131l16.951-16.951H-50.427z"/>
	</g>
	<g id="g370" transform="translate(243.6206,167.1904)">
		<path id="path372" style="fill:#FC354D;" d="M-12.592,267.957l-16.951,16.951H-6.41l16.951-16.951H-12.592z"/>
	</g>
	<g id="g374" transform="translate(174.9658,284.5075)">
		<path id="path376" style="fill:#3F8CFC;" d="M-82.429-86.014L-99.38-69.063v23.133l16.951-16.953V-86.014z"/>
	</g>
	<g id="g378" transform="translate(225.0229,167.1904)">
		<path id="path380" style="fill:#3F8CFC;" d="M-31.51,267.957l-16.951,16.951h23.133l16.951-16.951H-31.51z"/>
	</g>
	<g id="g382" transform="translate(262.2179,167.1904)">
		<path id="path384" d="M6.325,267.957l-16.951,16.951h23.131l16.951-16.951H6.325z"/>
	</g>
	<g id="g386" transform="translate(280.8148,167.1904)">
		<path id="path388" style="fill:#3F8CFC;" d="M25.242,267.957L8.292,284.908h23.131l16.951-16.951H25.242z"/>
	</g>
	<g id="g390" transform="translate(174.9658,265.9106)">
		<path id="path392" style="fill:#FC354D;" d="M-82.429-29.903L-99.38-12.952v23.133L-82.429-6.77V-29.903z"/>
	</g>
	<g id="g394" transform="translate(168.2432,157.5312)">
		<path id="path396" style="fill:#FFFFFF;" d="M-89.268,297.101h32.534h288.983h32.534c20.596,0,37.29-16.697,37.29-37.292v-32.534
			V-61.707v-32.532c0-20.596-16.694-37.292-37.29-37.292h-32.534H-56.734h-32.534c-20.596,0-37.292,16.696-37.292,37.292v32.532
			v288.983v32.534C-126.56,280.405-109.863,297.101-89.268,297.101"/>
	</g>
	<g id="g398" transform="translate(343.7567,357.2018)">
		<path id="path400" style="fill:#E5E5E5;" d="M89.268-305.348H56.734h-288.983h-32.534c-20.596,0-37.29,16.697-37.29,37.292v32.534
			V53.46v32.532c0,20.598,16.694,37.292,37.29,37.292h32.534H56.734h32.534c20.596,0,37.292-16.694,37.292-37.292V53.46v-288.983
			v-32.534C126.56-288.652,109.864-305.348,89.268-305.348 M89.268-303.331c19.45,0,35.275,15.825,35.275,35.275v32.534V53.46
			v32.532c0,19.452-15.825,35.275-35.275,35.275H56.734h-288.983h-32.534c-19.45,0-35.273-15.823-35.273-35.275V53.46v-288.983
			v-32.534c0-19.45,15.823-35.275,35.273-35.275h32.534H56.734L89.268-303.331"/>
	</g>
	<g id="g402" transform="translate(343.7567,359.5464)">
		<path id="path404" style="fill:#E5E5E5;" d="M89.268-312.422H56.734h-288.983h-32.534c-20.596,0-37.29,16.697-37.29,37.292v32.534
			V46.386v32.532c0,20.598,16.694,37.292,37.29,37.292h32.534H56.734h32.534c20.596,0,37.292-16.694,37.292-37.292V46.386v-288.983
			v-32.534C126.56-295.726,109.864-312.422,89.268-312.422 M89.268-310.405c19.45,0,35.275,15.825,35.275,35.275v32.534V46.386
			v32.532c0,19.452-15.825,35.275-35.275,35.275H56.734h-288.983h-32.534c-19.45,0-35.273-15.823-35.273-35.275V46.386v-288.983
			v-32.534c0-19.45,15.823-35.275,35.273-35.275h32.534H56.734H89.268"/>
	</g>
	<g id="g406" transform="translate(343.7567,363.3457)">
		<path id="path408" style="fill:#E5E5E5;" d="M89.268-323.886H56.734h-288.983h-32.534c-20.596,0-37.29,16.697-37.29,37.292v32.534
			V34.923v32.532c0,20.598,16.694,37.292,37.29,37.292h32.534H56.734h32.534c20.596,0,37.292-16.694,37.292-37.292V34.923V-254.06
			v-32.534C126.56-307.189,109.864-323.886,89.268-323.886 M89.268-321.869c19.45,0,35.275,15.825,35.275,35.275v32.534V34.923
			v32.532c0,19.452-15.825,35.275-35.275,35.275H56.734h-288.983h-32.534c-19.45,0-35.273-15.823-35.273-35.275V34.923V-254.06
			v-32.534c0-19.45,15.823-35.275,35.273-35.275h32.534H56.734L89.268-321.869"/>
	</g>
	<g id="g410" transform="translate(343.7567,366.3046)">
		<path id="path412" style="fill:#E5E5E5;" d="M89.268-332.813H56.734h-288.983h-32.534c-20.596,0-37.29,16.697-37.29,37.292v32.534
			V25.995v32.532c0,20.598,16.694,37.292,37.29,37.292h32.534H56.734h32.534c20.596,0,37.292-16.694,37.292-37.292V25.995v-288.983
			v-32.534C126.56-316.117,109.864-332.813,89.268-332.813 M89.268-330.796c19.45,0,35.275,15.825,35.275,35.275v32.534V25.995
			v32.532c0,19.452-15.825,35.275-35.275,35.275H56.734h-288.983h-32.534c-19.45,0-35.273-15.823-35.273-35.275V25.995v-288.983
			v-32.534c0-19.45,15.823-35.275,35.273-35.275h32.534H56.734H89.268"/>
	</g>
	<g id="g414" transform="translate(312.2438,149.7562)">
		<path id="path416" style="fill:#CCCBCB;" d="M57.212,320.56H-169.7c-55.703,0-100.861-45.157-100.861-100.861V-7.213
			c0-55.703,45.157-100.861,100.861-100.861H57.212c55.703,0,100.861,45.157,100.861,100.861l0,226.913
			C158.073,275.403,112.916,320.56,57.212,320.56"/>
	</g>
	<g id="g418" transform="translate(174.0156,149.7562)">
		<path id="path420" style="fill:#F9F9F9;" d="M-83.396,320.56h330.761L81.984,155.181L-83.396,320.56z"/>
	</g>
	<g id="g422" transform="translate(173.9711,198.2304)">
		<path id="path424" style="fill:#F9F9F9;" d="M-83.441,174.303L33.094,57.768L-83.441-58.764V174.303z"/>
	</g>
	<g id="g426" transform="translate(231.7407,256)">
		<path id="path428" style="fill:#F7F8F9;" d="M-24.677-0.001L2.16,26.837c12.204,12.204,31.993,12.204,44.199,0L73.197-0.001
			L24.259-48.936L-24.677-0.001z"/>
	</g>
	<g id="g430" transform="translate(149.7562,174.0156)">
		<path id="path432" style="fill:#F9F9F9;" d="M-108.073,247.364v17.681c0,17.261,13.993,31.255,31.255,31.255h17.681L155.18,81.985
			l-48.936-48.938L-108.073,247.364z"/>
	</g>
	<g id="g434" transform="translate(256,280.2593)">
		<path id="path436" style="fill:#CCCBCB;" d="M0-73.196L-48.935-24.26L165.38,190.057h17.683c17.261,0,31.255-13.993,31.255-31.255
			v-17.681L0-73.196z"/>
	</g>
	<g id="g438" transform="translate(165.2501,149.7562)">
		<path id="path440" style="fill:#0087F8;" d="M-92.312,320.56h17.592v-428.635h-17.592c-17.261,0-31.255,13.993-31.255,31.255
			v366.125C-123.567,306.567-109.574,320.56-92.312,320.56"/>
	</g>
	<g id="g442" transform="translate(362.1993,347.8669)">
		<path id="path444" style="fill:#0054B1;" d="M108.028-277.183c-1.156-16.208-14.661-29.002-31.164-29.002H59.181V122.45h17.683
			c16.503,0,30.008-12.793,31.164-29.002V-277.183z"/>
	</g>
	<g id="g446" transform="translate(362.2438,346.7499)">
		<path id="path448" style="fill:#0068FF;" d="M108.073-273.813c0-17.261-13.993-31.255-31.255-31.255H59.138l-165.382,165.382
			l-165.38-165.382h-17.683c-17.261,0-31.255,13.993-31.255,31.255v17.681L-155.18-90.75l26.835,26.835
			c12.206,12.206,31.995,12.206,44.201,0l26.837-26.835l165.38-165.382V-273.813z"/>
	</g>
	<g id="g450" transform="translate(337.9844,362.2438)">
		<path id="path452" style="fill:#F9F9F9;" d="M83.396-320.561h-330.761l165.382,165.38L83.396-320.561z"/>
	</g>
</g>
</svg>
