<?xml version="1.0" encoding="utf-8"?>
<!-- Generator: Adobe Illustrator 18.0.0, SVG Export Plug-In . SVG Version: 6.00 Build 0)  -->
<!DOCTYPE svg PUBLIC "-//W3C//DTD SVG 1.1//EN" "http://www.w3.org/Graphics/SVG/1.1/DTD/svg11.dtd">
<svg version="1.1" id="Layer_1" xmlns="http://www.w3.org/2000/svg" xmlns:xlink="http://www.w3.org/1999/xlink" x="0px" y="0px"
	 viewBox="0 0 512 512" enable-background="new 0 0 512 512" xml:space="preserve">
<g>
	
		<linearGradient id="SVGID_1_" gradientUnits="userSpaceOnUse" x1="37.5884" y1="403.7491" x2="510.2868" y2="83.9823" gradientTransform="matrix(1 0 0 -1 0 512)">
		<stop  offset="0" style="stop-color:#121212"/>
		<stop  offset="1" style="stop-color:#000000"/>
	</linearGradient>
	<path fill="url(#SVGID_1_)" d="M36,26h440c5.5,0,10,4.5,10,10v440c0,5.5-4.5,10-10,10H36c-5.5,0-10-4.5-10-10V36
		C26,30.5,30.5,26,36,26z"/>
	<linearGradient id="SVGID_2_" gradientUnits="userSpaceOnUse" x1="256" y1="486" x2="256" y2="124.207">
		<stop  offset="0" style="stop-color:#002FE9"/>
		<stop  offset="1" style="stop-color:#00C9FF"/>
	</linearGradient>
	<path fill="url(#SVGID_2_)" d="M36,124.2h440c5.5,0,10,4.5,10,10V476c0,5.5-4.5,10-10,10H36c-5.5,0-10-4.5-10-10V134.2
		C26,128.7,30.5,124.2,36,124.2z"/>
	<polygon opacity="0.2" fill="#B6FFFF" points="350.8,124.2 264.9,282.7 321.2,124.2 320.7,124.2 262,281.7 294.2,124.2 
		293.7,124.2 259.1,281 268.8,124.2 268.2,124.2 256,280.8 243.8,124.2 243.2,124.2 252.9,281 218.3,124.2 217.8,124.2 250,281.7 
		191.3,124.2 190.8,124.2 247.1,282.7 161.2,124.2 160.9,124.2 244.4,284.1 127.2,125.4 241.9,285.9 103.7,145 239.7,288.1 
		83.3,167.8 237.8,290.5 66.2,193.1 236.3,293.1 52.8,220.6 235.2,296 43.3,249.7 234.4,298.9 38,279.8 234.1,302 36.9,310.4 
		234.2,305 40.1,340.8 234.7,308 47.5,370.5 235.7,310.9 59,398.8 237,313.7 74.3,425.3 238.7,316.2 93.1,449.4 240.8,318.5 
		115.1,470.7 243.1,320.5 141.5,486 141.5,486 245.7,322.1 174.2,486 174.6,486 248.5,323.3 203.2,486 203.7,486 251.4,324.2 
		230,486 230.5,486 254.5,324.6 255.7,486 256.3,486 257.5,324.6 281.5,486 282,486 260.6,324.2 308.3,486 308.8,486 263.5,323.3 
		337.4,486 337.8,486 266.3,322.1 370.5,486 370.5,486 268.9,320.5 396.9,470.7 271.2,318.5 418.9,449.4 273.3,316.2 437.7,425.3 
		275,313.7 453,398.8 276.3,310.9 464.5,370.5 277.3,308 471.9,340.8 277.8,305 475.1,310.4 277.9,302 474,279.8 277.6,298.9 
		468.7,249.7 276.8,296 459.2,220.6 275.7,293.1 445.8,193.1 274.2,290.5 428.7,167.8 272.3,288.1 408.3,145 270.1,285.9 
		384.8,125.4 267.6,284.1 351.1,124.2 	"/>
	<g>
		<path fill="#1E1E1E" d="M36,26h440c5.5,0,10,4.5,10,10v88.2H26V36C26,30.5,30.5,26,36,26z"/>
	</g>
	<g>
		<g>
			<g>
				<polygon fill="#FFFFFF" points="171.1,121.8 123.5,121.8 168.3,74.6 215.9,74.6 				"/>
			</g>
			<g>
				<polygon points="218.7,121.8 171.1,121.8 215.9,74.6 263.5,74.6 				"/>
			</g>
			<g>
				<polygon fill="#FFFFFF" points="266.3,121.8 218.7,121.8 263.5,74.6 311.1,74.6 				"/>
			</g>
			<g>
				<polygon points="314,121.8 266.3,121.8 311.1,74.6 358.8,74.6 				"/>
			</g>
			<g>
				<polygon fill="#FFFFFF" points="361.6,121.8 314,121.8 358.7,74.6 406.4,74.6 				"/>
			</g>
			<g>
				<polygon points="409.2,121.8 361.6,121.8 406.4,74.6 454,74.6 				"/>
			</g>
			<g>
				<polygon fill="#FFFFFF" points="486,74.6 454,74.6 409.2,121.8 456.8,121.8 486,91.1 				"/>
			</g>
		</g>
		<g>
			<g>
				<polygon fill="#FFFFFF" points="171.1,26 123.5,26 168.3,73.2 215.9,73.2 				"/>
			</g>
			<g>
				<polygon points="218.7,26 171.1,26 215.9,73.2 263.5,73.2 				"/>
			</g>
			<g>
				<polygon fill="#FFFFFF" points="266.3,26 218.7,26 263.5,73.2 311.1,73.2 				"/>
			</g>
			<g>
				<polygon points="314,26 266.3,26 311.1,73.2 358.8,73.2 				"/>
			</g>
			<g>
				<polygon fill="#FFFFFF" points="361.6,26 314,26 358.7,73.2 406.4,73.2 				"/>
			</g>
			<g>
				<polygon points="409.2,26 361.6,26 406.4,73.2 454,73.2 				"/>
			</g>
			<g>
				<polygon fill="#FFFFFF" points="486,73.2 486,56.7 456.8,26 409.2,26 454,73.2 				"/>
			</g>
		</g>
	</g>
	<g>
		<g>
			<path d="M111.1,121.8H26V36c0-5.5,4.5-10,10-10h8.6l66.5,78.9V121.8z"/>
		</g>
		<g>
			<circle fill="#636364" cx="37.8" cy="35.5" r="5.8"/>
		</g>
		<g>
			<circle fill="#636364" cx="38.2" cy="110.7" r="5.8"/>
		</g>
		<g>
			<circle fill="#636364" cx="91.6" cy="110.7" r="5.8"/>
		</g>
	</g>
</g>
<g id="Layer_2_2_">
	<g>
		<path fill="#FFFFFF" d="M348.2,300.4l-145-83.7c-1.7-1-3.8-1-5.5,0c-1.7,1-2.7,2.8-2.7,4.7v167.5c0,2,1,3.8,2.7,4.7
			c0.8,0.5,1.8,0.7,2.7,0.7c0.9,0,1.9-0.2,2.7-0.7l145-83.7c1.7-1,2.7-2.8,2.7-4.7C351,303.2,349.9,301.4,348.2,300.4z"/>
	</g>
</g>
</svg>
