<?xml version="1.0" encoding="UTF-8" standalone="no"?>
<!-- Generator: Adobe Illustrator 18.0.0, SVG Export Plug-In . SVG Version: 6.00 Build 0)  -->

<svg
   xmlns:dc="http://purl.org/dc/elements/1.1/"
   xmlns:cc="http://creativecommons.org/ns#"
   xmlns:rdf="http://www.w3.org/1999/02/22-rdf-syntax-ns#"
   xmlns:svg="http://www.w3.org/2000/svg"
   xmlns="http://www.w3.org/2000/svg"
   xmlns:sodipodi="http://sodipodi.sourceforge.net/DTD/sodipodi-0.dtd"
   xmlns:inkscape="http://www.inkscape.org/namespaces/inkscape"
   version="1.1"
   id="Layer_1"
   x="0px"
   y="0px"
   viewBox="0 0 512 512"
   style="enable-background:new 0 0 512 512;"
   xml:space="preserve"
   sodipodi:docname="gnome-sudoku.svg"
   inkscape:version="0.92.3 (2405546, 2018-03-11)"><metadata
   id="metadata104"><rdf:RDF><cc:Work
       rdf:about=""><dc:format>image/svg+xml</dc:format><dc:type
         rdf:resource="http://purl.org/dc/dcmitype/StillImage" /></cc:Work></rdf:RDF></metadata><defs
   id="defs102" /><sodipodi:namedview
   pagecolor="#ffffff"
   bordercolor="#666666"
   borderopacity="1"
   objecttolerance="10"
   gridtolerance="10"
   guidetolerance="10"
   inkscape:pageopacity="0"
   inkscape:pageshadow="2"
   inkscape:window-width="1920"
   inkscape:window-height="1003"
   id="namedview100"
   showgrid="false"
   inkscape:zoom="1.3037281"
   inkscape:cx="265.76271"
   inkscape:cy="247.32203"
   inkscape:window-x="0"
   inkscape:window-y="0"
   inkscape:window-maximized="1"
   inkscape:current-layer="Layer_1" />
<g
   id="g44">
	<g
   id="g35">
		<g
   style="opacity:0.4;enable-background:new    ;"
   id="g11">
			
				<radialGradient
   id="SVGID_1_"
   cx="256.525"
   cy="257.4813"
   r="237.7344"
   gradientTransform="matrix(1 0 0 -1 -0.5 513.5)"
   gradientUnits="userSpaceOnUse">
				<stop
   offset="0"
   style="stop-color:#010101"
   id="stop2" />
				<stop
   offset="0.8587"
   style="stop-color:#010101;stop-opacity:0.1413"
   id="stop4" />
				<stop
   offset="1"
   style="stop-color:#010101;stop-opacity:0"
   id="stop6" />
			</radialGradient>
			
		</g>
		<g
   style="opacity:0.4;enable-background:new    ;"
   id="g22">
			
				<radialGradient
   id="SVGID_2_"
   cx="257.0394"
   cy="258.0371"
   r="266.3242"
   gradientTransform="matrix(0.7069 -0.7073 -0.4895 -0.4892 200.633 564.0107)"
   gradientUnits="userSpaceOnUse">
				<stop
   offset="0"
   style="stop-color:#010101"
   id="stop13" />
				<stop
   offset="0.8587"
   style="stop-color:#010101;stop-opacity:0.1413"
   id="stop15" />
				<stop
   offset="1"
   style="stop-color:#010101;stop-opacity:0"
   id="stop17" />
			</radialGradient>
			
		</g>
		<g
   style="opacity:0.4;enable-background:new    ;"
   id="g33">
			
				<radialGradient
   id="SVGID_3_"
   cx="257.7463"
   cy="256.9128"
   r="266.3709"
   gradientTransform="matrix(-0.7069 -0.7073 0.4895 -0.4892 312.367 564.0107)"
   gradientUnits="userSpaceOnUse">
				<stop
   offset="0"
   style="stop-color:#010101"
   id="stop24" />
				<stop
   offset="0.8587"
   style="stop-color:#010101;stop-opacity:0.1413"
   id="stop26" />
				<stop
   offset="1"
   style="stop-color:#010101;stop-opacity:0"
   id="stop28" />
			</radialGradient>
			
		</g>
	</g>
	
		<radialGradient
   id="SVGID_4_"
   cx="258.5"
   cy="-185.5"
   r="261.0019"
   gradientTransform="matrix(1,0,0,-1,-0.5,-53.5)"
   gradientUnits="userSpaceOnUse">
		<stop
   offset="0"
   style="stop-color:#C742FA"
   id="stop37" />
		<stop
   offset="1"
   style="stop-color:#EE4DB8"
   id="stop39" />
	</radialGradient>
	<path
   style="fill:url(#SVGID_4_)"
   d="M 256 26.423828 A 230 229.57574 0 0 0 26 256 A 230 229.57574 0 0 0 256 485.57617 A 230 229.57574 0 0 0 486 256 A 230 229.57574 0 0 0 256 26.423828 z "
   id="path42" />
</g>
<g
   style="opacity:0.4;"
   id="g68">
	<g
   id="g54">
		<path
   d="M119.4,217.7h273.1c-0.1-0.8-0.2-1.6-0.3-2.4H119.7C119.6,216.1,119.5,216.9,119.4,217.7z"
   id="path46" />
		<path
   d="M392.6,314.3H119.4c0.1,0.8,0.2,1.6,0.3,2.4h272.6C392.4,315.9,392.5,315.1,392.6,314.3z"
   id="path48" />
		<path
   d="M205.3,402.3c0.8,0.1,1.6,0.2,2.4,0.3V129.4c-0.8,0.1-1.6,0.2-2.4,0.3V402.3z"
   id="path50" />
		<path
   d="M304.3,402.6c0.8-0.1,1.6-0.2,2.4-0.3V129.7c-0.8-0.1-1.6-0.2-2.4-0.3V402.6z"
   id="path52" />
	</g>
	<g
   id="g58">
		<path
   d="M254.1,176c-1.9,0-3.8-0.3-5.6-1c-1.8-0.7-3.5-1.7-4.9-3c-1.4-1.3-2.6-3-3.5-5c-0.9-2-1.3-4.3-1.3-6.9    c0-2.5,0.5-4.8,1.4-6.9c0.9-2.2,2.2-4.1,3.9-5.7c1.7-1.6,3.6-2.9,6-3.9c2.3-0.9,4.9-1.4,7.7-1.4c2.8,0,5.4,0.4,7.6,1.3    c2.3,0.9,4.2,2.1,5.8,3.7c1.6,1.6,2.8,3.5,3.7,5.8c0.9,2.2,1.3,4.7,1.3,7.4c0,1.7-0.1,3.3-0.4,4.8c-0.3,1.5-0.7,3-1.3,4.4    c-0.5,1.4-1.2,2.8-2,4.1c-0.8,1.3-1.6,2.7-2.6,4l-12.6,18c-0.4,0.6-1.1,1.1-1.9,1.5c-0.9,0.4-1.8,0.6-2.9,0.6h-8.7l17.1-21.4    c0.4-0.5,0.8-1.1,1.2-1.6c0.4-0.5,0.8-1,1.1-1.5c-1.3,0.8-2.7,1.4-4.2,1.9C257.4,175.8,255.8,176,254.1,176z M267,159.4    c0-1.5-0.2-2.8-0.7-4c-0.5-1.2-1.1-2.2-2-3c-0.8-0.8-1.8-1.4-3-1.9c-1.2-0.4-2.4-0.6-3.8-0.6c-1.4,0-2.7,0.2-3.9,0.7    c-1.1,0.5-2.1,1.1-2.9,2c-0.8,0.8-1.4,1.8-1.9,3c-0.4,1.2-0.7,2.4-0.7,3.8c0,3.1,0.8,5.4,2.4,7c1.6,1.6,3.9,2.4,6.8,2.4    c1.5,0,2.9-0.2,4.1-0.7c1.2-0.5,2.2-1.1,3-2c0.8-0.8,1.4-1.8,1.9-3C266.8,162,267,160.8,267,159.4z"
   id="path56" />
	</g>
	<g
   id="g62">
		<path
   d="M171.4,345.7c2.1,0,4.1,0.3,6.1,1c2,0.7,3.7,1.7,5.2,3.1c1.5,1.4,2.7,3.1,3.6,5.2c0.9,2.1,1.4,4.5,1.4,7.2    c0,2.6-0.5,5-1.4,7.2c-0.9,2.3-2.3,4.2-4,5.9c-1.7,1.7-3.8,3-6.2,4c-2.4,1-5.1,1.5-8,1.5c-3,0-5.6-0.5-7.9-1.4    c-2.3-0.9-4.3-2.3-6-4c-1.7-1.7-2.9-3.7-3.8-6.1c-0.9-2.4-1.3-5-1.3-7.9c0-2.6,0.5-5.3,1.6-8c1.1-2.7,2.7-5.6,4.9-8.5l13.2-17.7    c0.5-0.6,1.1-1.1,2-1.6c0.9-0.4,1.9-0.6,3-0.6h8.4l-16.4,20c-0.4,0.4-0.7,0.8-1,1.2c-0.3,0.4-0.6,0.8-0.9,1.2    c1.1-0.5,2.2-1,3.5-1.3C168.6,345.8,170,345.7,171.4,345.7z M158.2,362.8c0,1.5,0.2,2.9,0.6,4.2c0.4,1.3,1,2.3,1.9,3.2    c0.8,0.9,1.9,1.6,3.1,2.1c1.2,0.5,2.6,0.7,4.2,0.7c1.5,0,2.9-0.3,4.2-0.8c1.3-0.5,2.3-1.2,3.3-2.1c0.9-0.9,1.6-2,2.1-3.2    c0.5-1.2,0.8-2.6,0.8-4c0-1.6-0.2-3-0.7-4.3c-0.5-1.3-1.2-2.3-2.1-3.2c-0.9-0.9-2-1.5-3.2-2c-1.2-0.5-2.6-0.7-4.1-0.7    c-1.5,0-2.9,0.3-4.1,0.8c-1.2,0.5-2.3,1.2-3.2,2.1c-0.9,0.9-1.6,2-2,3.2C158.4,360.1,158.2,361.4,158.2,362.8z"
   id="path60" />
	</g>
	<g
   id="g66">
		<path
   d="M364.6,273.8h6.9v5.5c0,0.5-0.2,0.9-0.5,1.3c-0.3,0.4-0.8,0.6-1.5,0.6h-5v13.5h-8.2v-13.5H333c-0.6,0-1.2-0.2-1.7-0.6    c-0.5-0.4-0.8-0.9-0.9-1.5l-1-4.8l26.2-34.9h8.9V273.8z M356.3,255.7c0-0.8,0-1.7,0.1-2.6c0.1-0.9,0.1-1.9,0.3-2.9l-17.1,23.6    h16.8V255.7z"
   id="path64" />
	</g>
</g>
<g
   id="g92">
	<g
   id="g78">
		<path
   style="fill:#FFFFFF;"
   d="M119.4,207.7h273.1c-0.1-0.8-0.2-1.6-0.3-2.4H119.7C119.6,206.1,119.5,206.9,119.4,207.7z"
   id="path70" />
		<path
   style="fill:#FFFFFF;"
   d="M392.6,304.3H119.4c0.1,0.8,0.2,1.6,0.3,2.4h272.6C392.4,305.9,392.5,305.1,392.6,304.3z"
   id="path72" />
		<path
   style="fill:#FFFFFF;"
   d="M205.3,392.3c0.8,0.1,1.6,0.2,2.4,0.3V119.4c-0.8,0.1-1.6,0.2-2.4,0.3V392.3z"
   id="path74" />
		<path
   style="fill:#FFFFFF;"
   d="M304.3,392.6c0.8-0.1,1.6-0.2,2.4-0.3V119.7c-0.8-0.1-1.6-0.2-2.4-0.3V392.6z"
   id="path76" />
	</g>
	<g
   id="g82">
		<path
   style="fill:#FFFFFF;"
   d="M254.1,166c-1.9,0-3.8-0.3-5.6-1c-1.8-0.7-3.5-1.7-4.9-3c-1.4-1.3-2.6-3-3.5-5    c-0.9-2-1.3-4.3-1.3-6.9c0-2.5,0.5-4.8,1.4-6.9c0.9-2.2,2.2-4.1,3.9-5.7c1.7-1.6,3.6-2.9,6-3.9c2.3-0.9,4.9-1.4,7.7-1.4    c2.8,0,5.4,0.4,7.6,1.3c2.3,0.9,4.2,2.1,5.8,3.7c1.6,1.6,2.8,3.5,3.7,5.8c0.9,2.2,1.3,4.7,1.3,7.4c0,1.7-0.1,3.3-0.4,4.8    c-0.3,1.5-0.7,3-1.3,4.4c-0.5,1.4-1.2,2.8-2,4.1c-0.8,1.3-1.6,2.7-2.6,4l-12.6,18c-0.4,0.6-1.1,1.1-1.9,1.5    c-0.9,0.4-1.8,0.6-2.9,0.6h-8.7l17.1-21.4c0.4-0.5,0.8-1.1,1.2-1.6c0.4-0.5,0.8-1,1.1-1.5c-1.3,0.8-2.7,1.4-4.2,1.9    C257.4,165.8,255.8,166,254.1,166z M267,149.4c0-1.5-0.2-2.8-0.7-4c-0.5-1.2-1.1-2.2-2-3c-0.8-0.8-1.8-1.4-3-1.9    c-1.2-0.4-2.4-0.6-3.8-0.6c-1.4,0-2.7,0.2-3.9,0.7c-1.1,0.5-2.1,1.1-2.9,2c-0.8,0.8-1.4,1.8-1.9,3c-0.4,1.2-0.7,2.4-0.7,3.8    c0,3.1,0.8,5.4,2.4,7c1.6,1.6,3.9,2.4,6.8,2.4c1.5,0,2.9-0.2,4.1-0.7c1.2-0.5,2.2-1.1,3-2c0.8-0.8,1.4-1.8,1.9-3    C266.8,152,267,150.8,267,149.4z"
   id="path80" />
	</g>
	<g
   id="g86">
		<path
   style="fill:#FFFFFF;"
   d="M171.4,335.7c2.1,0,4.1,0.3,6.1,1c2,0.7,3.7,1.7,5.2,3.1c1.5,1.4,2.7,3.1,3.6,5.2    c0.9,2.1,1.4,4.5,1.4,7.2c0,2.6-0.5,5-1.4,7.2c-0.9,2.3-2.3,4.2-4,5.9c-1.7,1.7-3.8,3-6.2,4c-2.4,1-5.1,1.5-8,1.5    c-3,0-5.6-0.5-7.9-1.4c-2.3-0.9-4.3-2.3-6-4c-1.7-1.7-2.9-3.7-3.8-6.1c-0.9-2.4-1.3-5-1.3-7.9c0-2.6,0.5-5.3,1.6-8    c1.1-2.7,2.7-5.6,4.9-8.5l13.2-17.7c0.5-0.6,1.1-1.1,2-1.6c0.9-0.4,1.9-0.6,3-0.6h8.4l-16.4,20c-0.4,0.4-0.7,0.8-1,1.2    c-0.3,0.4-0.6,0.8-0.9,1.2c1.1-0.5,2.2-1,3.5-1.3C168.6,335.8,170,335.7,171.4,335.7z M158.2,352.8c0,1.5,0.2,2.9,0.6,4.2    c0.4,1.3,1,2.3,1.9,3.2c0.8,0.9,1.9,1.6,3.1,2.1c1.2,0.5,2.6,0.7,4.2,0.7c1.5,0,2.9-0.3,4.2-0.8c1.3-0.5,2.3-1.2,3.3-2.1    c0.9-0.9,1.6-2,2.1-3.2c0.5-1.2,0.8-2.6,0.8-4c0-1.6-0.2-3-0.7-4.3c-0.5-1.3-1.2-2.3-2.1-3.2c-0.9-0.9-2-1.5-3.2-2    c-1.2-0.5-2.6-0.7-4.1-0.7c-1.5,0-2.9,0.3-4.1,0.8c-1.2,0.5-2.3,1.2-3.2,2.1c-0.9,0.9-1.6,2-2,3.2    C158.4,350.1,158.2,351.4,158.2,352.8z"
   id="path84" />
	</g>
	<g
   id="g90">
		<path
   style="fill:#FFFFFF;"
   d="M364.6,263.8h6.9v5.5c0,0.5-0.2,0.9-0.5,1.3c-0.3,0.4-0.8,0.6-1.5,0.6h-5v13.5h-8.2v-13.5H333    c-0.6,0-1.2-0.2-1.7-0.6c-0.5-0.4-0.8-0.9-0.9-1.5l-1-4.8l26.2-34.9h8.9V263.8z M356.3,245.7c0-0.8,0-1.7,0.1-2.6    c0.1-0.9,0.1-1.9,0.3-2.9l-17.1,23.6h16.8V245.7z"
   id="path88" />
	</g>
</g>
<g
   id="_x3C_Group_x3E_">
	
	
</g>
<g
   inkscape:groupmode="layer"
   id="layer1"
   inkscape:label="Layer 1"
   style="display:inline" /><g
   inkscape:groupmode="layer"
   id="layer2"
   inkscape:label="Layer 2" /></svg>