<?xml version="1.0" encoding="utf-8"?>
<!-- Generator: Adobe Illustrator 22.0.1, SVG Export Plug-In . SVG Version: 6.00 Build 0)  -->
<svg version="1.1"
	 id="svg2" xmlns:cc="http://creativecommons.org/ns#" xmlns:dc="http://purl.org/dc/elements/1.1/" xmlns:rdf="http://www.w3.org/1999/02/22-rdf-syntax-ns#" xmlns:svg="http://www.w3.org/2000/svg"
	 xmlns="http://www.w3.org/2000/svg" xmlns:xlink="http://www.w3.org/1999/xlink" x="0px" y="0px" viewBox="0 0 512 512"
	 enable-background="new 0 0 512 512" xml:space="preserve">
<linearGradient id="SVGID_1_" gradientUnits="userSpaceOnUse" x1="256" y1="486" x2="256" y2="26">
	<stop  offset="0" style="stop-color:#5B5EAA"/>
	<stop  offset="1" style="stop-color:#965BA5"/>
</linearGradient>
<path fill="url(#SVGID_1_)" d="M411,486H101c-41.421,0-75-33.579-75-75V101c0-41.421,33.579-75,75-75h310c41.421,0,75,33.579,75,75
	v310C486,452.421,452.421,486,411,486z"/>
<g id="g228">
	<path id="path248" opacity="0.7" fill="#FFFFFF" d="M380.821,386.451H131.18c-6.214,0-11.25-5.036-11.25-11.25V136.799
		c0-6.214,5.036-11.25,11.25-11.25h249.641c6.214,0,11.25,5.036,11.25,11.25v238.403
		C392.071,381.415,387.034,386.451,380.821,386.451"/>
	<path id="path256" fill="#FFFFFF" d="M255.998,314.694c-17.688,0-32.026-14.339-32.026-32.026
		c0-17.689,14.339-32.028,32.026-32.028s32.026,14.339,32.026,32.028C288.025,300.355,273.686,314.694,255.998,314.694
		 M336.064,292.275v-19.216l-18.039-6.404c-1.518-5.869-3.858-11.406-6.87-16.497l0.024-0.026l8.228-17.285l-13.588-13.587
		l-17.285,8.227l-0.025,0.025c-5.092-3.014-10.63-5.354-16.497-6.869l-6.405-18.04h-19.215l-6.405,18.04
		c-5.867,1.515-11.405,3.855-16.497,6.869l-0.025-0.025l-17.285-8.227l-13.587,13.587l8.227,17.285l0.025,0.025
		c-3.014,5.094-5.354,10.631-6.869,16.497l-18.04,6.405v19.215l18.04,6.405c1.515,5.868,3.856,11.405,6.869,16.498l-0.025,0.025
		l-8.227,17.285l13.587,13.587l17.285-8.228l0.025-0.025c5.094,3.014,10.631,5.353,16.497,6.87l6.405,18.04h19.215l6.405-18.04
		c5.868-1.516,11.405-3.856,16.497-6.87l0.025,0.025l17.285,8.228l13.588-13.587l-8.228-17.285l-0.024-0.025
		c3.014-5.092,5.352-10.63,6.87-16.497C318.026,298.679,336.064,292.275,336.064,292.275z"/>
	<path id="path252" fill="#FFFFFF" d="M379.759,125.549H132.241c-6.8,0-12.313,5.513-12.313,12.313v24.389
		c0,6.904,5.596,12.5,12.5,12.5h247.143c6.902,0,12.5-5.596,12.5-12.5v-24.389C392.071,131.061,386.559,125.549,379.759,125.549"/>
</g>
</svg>
