<?xml version="1.0" encoding="utf-8"?>
<!-- Generator: Adobe Illustrator 18.0.0, SVG Export Plug-In . SVG Version: 6.00 Build 0)  -->
<!DOCTYPE svg PUBLIC "-//W3C//DTD SVG 1.1//EN" "http://www.w3.org/Graphics/SVG/1.1/DTD/svg11.dtd">
<svg version="1.1" id="Layer_1" xmlns="http://www.w3.org/2000/svg" xmlns:xlink="http://www.w3.org/1999/xlink" x="0px" y="0px"
	 viewBox="0 0 512 512" style="enable-background:new 0 0 512 512;" xml:space="preserve">
<path style="fill:#DBDBDB;" d="M469.6,398.1l-286,104c-2.6,1-5.4-0.4-6.4-3L39.3,120.3c-1-2.6,0.4-5.4,3-6.4l286-103.9
	c2.6-1,5.4,0.4,6.4,3l137.9,378.8C473.6,394.2,472.2,397.1,469.6,398.1z"/>
<g>
	<path style="fill:#E8E8E8;" d="M441.7,433L142,485.8c-2.7,0.5-5.3-1.3-5.8-4.1l-70-397c-0.5-2.7,1.3-5.3,4.1-5.8L370,26.2
		c2.7-0.5,5.3,1.3,5.8,4.1l70,397C446.3,429.9,444.4,432.5,441.7,433z"/>
	<path style="fill:#14CAFF;" d="M405.3,465.4H100.9c-2.8,0-5-2.2-5-5V57.2c0-2.8,2.2-5,5-5h304.3c2.8,0,5,2.2,5,5v403.1
		C410.3,463.1,408,465.4,405.3,465.4z"/>
</g>
<g style="opacity:0.3;">
	<g>
		<path style="fill:#FFFFFF;" d="M347.5,185.5H224.4v-22.1h123.1V185.5z"/>
		<path style="fill:#FFFFFF;" d="M347.5,226.3h-183v-22.1h183V226.3z"/>
		<path style="fill:#FFFFFF;" d="M347.5,267.1h-183V245h183V267.1z"/>
		<path style="fill:#FFFFFF;" d="M347.5,307.8h-183v-22.1h183V307.8z"/>
		<path style="fill:#FFFFFF;" d="M282.4,348.6H164.5v-22.1h117.9V348.6z"/>
	</g>
</g>
<path style="fill:#FFFFFF;" d="M256,193.7c-58.3,0-105.6,62.3-105.6,62.3s47.3,62.3,105.6,62.3S361.6,256,361.6,256
	S314.3,193.7,256,193.7z M256,296.6c-22.4,0-40.6-18.2-40.6-40.6s18.2-40.6,40.6-40.6s40.6,18.2,40.6,40.6S278.4,296.6,256,296.6z"
	/>
</svg>
