<?xml version="1.0" encoding="utf-8"?>
<!-- Generator: Adobe Illustrator 22.0.1, SVG Export Plug-In . SVG Version: 6.00 Build 0)  -->
<svg version="1.1"
	 id="svg2" xmlns:cc="http://creativecommons.org/ns#" xmlns:dc="http://purl.org/dc/elements/1.1/" xmlns:rdf="http://www.w3.org/1999/02/22-rdf-syntax-ns#" xmlns:svg="http://www.w3.org/2000/svg"
	 xmlns="http://www.w3.org/2000/svg" xmlns:xlink="http://www.w3.org/1999/xlink" x="0px" y="0px" viewBox="0 0 512 512"
	 style="enable-background:new 0 0 512 512;" xml:space="preserve">
<circle style="fill:#DC4A38;" cx="256" cy="256" r="230"/>
<path id="path212" style="fill:#FFFFFF;" d="M221.251,364.563c-33.941,0-55.827-16.235-55.827-38.81
	c0-22.57,20.294-30.204,27.276-32.731c13.316-4.481,30.454-5.108,33.312-5.108c3.171,0,4.759,0,7.285,0.319
	c24.127,17.171,34.6,25.73,34.6,41.985C267.896,349.903,251.712,364.563,221.251,364.563 M220.938,236.727
	c-27.293,0-39.658-35.284-39.658-56.574c0-8.289,1.57-16.847,6.967-23.531c5.09-6.365,13.951-10.496,22.225-10.496
	c26.314,0,39.959,35.6,39.959,58.496c0,5.729-0.63,15.88-7.928,23.219C237.403,232.931,228.866,236.727,220.938,236.727
	 M262.492,273.283l-11.431-8.876c-3.481-2.889-8.241-6.699-8.241-13.676c0-7.006,4.76-11.459,8.893-15.584
	c13.316-10.481,26.622-21.637,26.622-45.145c0-24.174-15.21-36.89-22.5-42.924h19.656l20.633-12.964h-62.505
	c-17.151,0-41.867,4.059-59.962,18.996c-13.638,11.766-20.291,27.99-20.291,42.596c0,24.794,19.038,49.926,52.652,49.926
	c3.175,0,6.649-0.312,10.144-0.638c-1.57,3.82-3.156,7-3.156,12.4c0,9.846,5.06,15.885,9.52,21.605
	c-14.285,0.983-40.949,2.564-60.606,14.648c-18.72,11.131-24.417,27.336-24.417,38.772c0,23.539,22.189,45.466,68.197,45.466
	c54.559,0,83.442-30.19,83.442-60.075C289.139,295.852,276.456,285.044,262.492,273.283"/>
<path id="path216" style="fill:#FFFFFF;" d="M342.605,204.455h-15.699v31.785h-31.734v15.874h31.734v31.98h15.699v-31.98h31.894
	V236.24h-31.894V204.455z"/>
</svg>
