<?xml version="1.0" encoding="utf-8"?>
<!-- Generator: Adobe Illustrator 22.0.1, SVG Export Plug-In . SVG Version: 6.00 Build 0)  -->
<svg version="1.1"
	 id="svg2" xmlns:cc="http://creativecommons.org/ns#" xmlns:dc="http://purl.org/dc/elements/1.1/" xmlns:rdf="http://www.w3.org/1999/02/22-rdf-syntax-ns#" xmlns:svg="http://www.w3.org/2000/svg"
	 xmlns="http://www.w3.org/2000/svg" xmlns:xlink="http://www.w3.org/1999/xlink" x="0px" y="0px" viewBox="0 0 512 512"
	 enable-background="new 0 0 512 512" xml:space="preserve">
<g id="g14">
	<g id="g210" transform="translate(211.2566,272.1264)">
		<path id="path212" fill="#A4CE3B" d="M-22.696-40.428c-56.222,0-163.728,25.112-163.728,25.112S-103.011,4.167-44.708,8.809
			c7.883,0.627,15.315,0.987,22.012,0.987c53.163,0,66.058-22.45,67.303-24.894c0.072-0.14,0.107-0.219,0.107-0.219
			C44.714-15.316,33.526-40.428-22.696-40.428"/>
	</g>
	<g id="g214" transform="translate(219.2061,225.0598)">
		<path id="path216" fill="#88C540" d="M-18.663,77.584c28.11-48.69,55.454-45.823,55.454-45.823s16.153,22.245-11.958,70.936
			C-3.279,151.387-78.779,231.933-78.779,231.933S-46.774,126.274-18.663,77.584"/>
	</g>
	<g id="g218" transform="translate(208.9522,247.3169)">
		<path id="path220" fill="#4BAD47" d="M-23.865,21.778C24.825-6.332,47.07,9.82,47.07,9.82s2.867,27.342-45.823,55.454
			c-48.69,28.11-154.349,60.116-154.349,60.116S-72.556,49.888-23.865,21.778"/>
	</g>
	<g id="g222" transform="translate(219.2061,225.0598)">
		<path id="path224" fill="#88C540" d="M-18.663,77.584c28.11-48.69,55.454-45.823,55.454-45.823s16.153,22.245-11.958,70.936
			C-3.279,151.387-78.779,231.933-78.779,231.933S-46.774,126.274-18.663,77.584"/>
	</g>
	<g id="g226" transform="translate(239.3321,212.0587)">
		<path id="path228" fill="#5BBA47" d="M-8.452,110.182c0-56.222,25.112-67.41,25.112-67.41s25.112,11.188,25.112,67.41
			S16.66,273.91,16.66,273.91S-8.452,166.405-8.452,110.182"/>
	</g>
	<g id="g230" transform="translate(292.7701,225.0732)">
		<path id="path232" fill="#A4CE3B" d="M18.659,77.551c-28.11-48.69-55.454-45.823-55.454-45.823s-16.153,22.245,11.958,70.936
			C3.275,151.353,78.775,231.9,78.775,231.9S46.77,126.241,18.659,77.551"/>
	</g>
	<g id="g234" transform="translate(303.0716,247.3243)">
		<path id="path236" fill="#4BAD47" d="M23.886,21.759C-24.805-6.351-47.05,9.802-47.05,9.802s-2.867,27.342,45.823,55.454
			c48.69,28.11,154.349,60.116,154.349,60.116S72.576,49.87,23.886,21.759"/>
	</g>
	<g id="g238" transform="translate(300.7121,272.1259)">
		<path id="path240" fill="#88C540" d="M22.688-40.427c-56.222,0-67.41,25.112-67.41,25.112s11.188,25.112,67.41,25.112
			s163.728-25.112,163.728-25.112S78.911-40.427,22.688-40.427"/>
	</g>
	<g id="g242" transform="translate(286.3854,293.5722)">
		<path id="path244" fill="#5BBA47" d="M15.42-94.2c-48.69,28.11-45.823,55.454-45.823,55.454s22.245,16.153,70.936-11.958
			c48.69-28.112,129.237-103.612,129.237-103.612S64.11-122.31,15.42-94.2"/>
	</g>
	<g id="g246" transform="translate(292.7701,285.8877)">
		<path id="path248" fill="#A4CE3B" d="M18.659-74.932c-28.11,48.69-55.454,45.823-55.454,45.823s-16.153-22.245,11.958-70.936
			C3.275-148.735,78.775-229.281,78.775-229.281C78.775-229.281,46.77-123.623,18.659-74.932"/>
	</g>
	<g id="g250" transform="translate(272.6643,299.9913)">
		<path id="path252" fill="#4BAD47" d="M8.459-110.295c0,56.222-25.112,67.41-25.112,67.41s-25.112-11.188-25.112-67.41
			s25.112-163.728,25.112-163.728S8.459-166.517,8.459-110.295"/>
	</g>
	<g id="g254" transform="translate(248.0452,302.5332)">
		<path id="path256" fill="#88C540" d="M-4.032-116.668c28.11,48.69,11.958,70.936,11.958,70.936s-27.342,2.867-55.454-45.823
			c-28.11-48.69-60.116-154.349-60.116-154.349S-32.142-165.359-4.032-116.668"/>
	</g>
	<g id="g258" transform="translate(225.5708,293.5722)">
		<path id="path260" fill="#5BBA47" d="M-15.434-94.2c48.69,28.11,45.823,55.454,45.823,55.454S8.144-22.594-40.546-50.704
			c-48.69-28.112-129.237-103.612-129.237-103.612S-64.124-122.31-15.434-94.2"/>
	</g>
	<g id="g262" transform="translate(198.0606,271.581)">
		<path id="path264" fill="#A4CE3B" d="M-29.391-39.06c5.717,3.88,11.215,7.38,16.355,10.346
			c43.298,24.999,65.684,14.994,70.111,12.47C53.642-21.616,38.454-39.882-9.5-39.882C-15.594-39.882-22.293-39.587-29.391-39.06"/>
	</g>
	<g id="g266" transform="translate(228.4915,256.0105)">
		<path id="path268" fill="#4BAD47" d="M-13.952-0.02c21.89,6.504,34.723,2.231,39.393-0.024C20.715-2.31,7.877-6.521-13.952-0.02"
			/>
	</g>
	<g id="g270" transform="translate(220.0577,239.1506)">
		<path id="path272" fill="#A4CE3B" d="M-18.231,42.254c-33.112,33.112-81.636,111.215-81.636,111.215s60.6-37.652,97.67-69.253
			c5.013-4.273,9.6-8.438,13.545-12.383C42.657,40.523,37.03,19.708,36.324,17.535c-0.041-0.125-0.065-0.193-0.065-0.193
			S14.881,9.142-18.231,42.254"/>
	</g>
	<g id="g274" transform="translate(252.4586,216.1132)">
		<path id="path276" fill="#88C540" d="M-1.793,100.016c-12.119-45.231,5.671-59.646,5.671-59.646s22.615,3.589,34.735,48.818
			c12.119,45.231,15.092,137.134,15.092,137.134S10.326,145.247-1.793,100.016"/>
	</g>
	<g id="g278" transform="translate(233.3117,223.1823)">
		<path id="path280" fill="#4BAD47" d="M-11.507,82.292C0.612,37.061,23.227,33.473,23.227,33.473s17.791,14.415,5.672,59.646
			c-12.121,45.229-55.497,126.305-55.497,126.305S-23.626,127.523-11.507,82.292"/>
	</g>
	<g id="g282" transform="translate(252.4586,216.1132)">
		<path id="path284" fill="#88C540" d="M-1.793,100.016c-12.119-45.231,5.671-59.646,5.671-59.646s22.615,3.589,34.735,48.818
			c12.119,45.231,15.092,137.134,15.092,137.134S10.326,145.247-1.793,100.016"/>
	</g>
	<g id="g286" transform="translate(271.9683,220.3093)">
		<path id="path288" fill="#5BBA47" d="M8.105,89.495c-33.112-33.112-24.912-54.49-24.912-54.49s21.38-8.2,54.49,24.912
			c33.112,33.11,81.636,111.215,81.636,111.215S41.217,122.607,8.105,89.495"/>
	</g>
	<g id="g290" transform="translate(295.7752,259.4455)">
		<path id="path292" fill="#A4CE3B" d="M20.184-8.633c-45.231-12.119-59.646,5.671-59.646,5.671s3.589,22.615,48.818,34.735
			C54.587,43.892,146.49,46.865,146.49,46.865S65.415,3.486,20.184-8.633"/>
	</g>
	<g id="g294" transform="translate(288.7375,278.6169)">
		<path id="path296" fill="#4BAD47" d="M16.613-56.702c-45.231,12.119-48.818,34.734-48.818,34.734S-17.79-4.177,27.44-16.296
			C72.67-28.417,153.745-71.793,153.745-71.793S61.844-68.821,16.613-56.702"/>
	</g>
	<g id="g298" transform="translate(272.7415,291.8339)">
		<path id="path300" fill="#88C540" d="M8.498-89.841c-33.112,33.112-24.91,54.49-24.91,54.49s21.379,8.2,54.489-24.912
			c33.112-33.11,81.636-111.215,81.636-111.215S41.61-122.953,8.498-89.841"/>
	</g>
	<g id="g302" transform="translate(251.6735,296.0268)">
		<path id="path304" fill="#5BBA47" d="M-2.191-100.354C-14.31-55.124,3.48-40.709,3.48-40.709s22.615-3.589,34.735-48.818
			c12.119-45.231,15.092-137.134,15.092-137.134S9.928-145.585-2.191-100.354"/>
	</g>
	<g id="g306" transform="translate(259.9593,295.2614)">
		<path id="path308" fill="#A4CE3B" d="M2.013-98.435C14.132-53.205-3.658-38.79-3.658-38.79s-22.615-3.589-34.735-48.818
			c-12.119-45.231-15.092-137.134-15.092-137.134S-10.106-143.666,2.013-98.435"/>
	</g>
	<g id="g310" transform="translate(239.8122,291.7264)">
		<path id="path312" fill="#4BAD47" d="M-8.209-89.572c33.112,33.112,24.912,54.49,24.912,54.49s-21.38,8.2-54.49-24.912
			c-33.112-33.11-81.636-111.215-81.636-111.215S-41.321-122.684-8.209-89.572"/>
	</g>
	<g id="g314" transform="translate(223.8161,278.7244)">
		<path id="path316" fill="#88C540" d="M-16.324-56.971c45.231,12.119,48.818,34.734,48.818,34.734S18.079-4.447-27.152-16.566
			c-45.229-12.121-126.305-55.497-126.305-55.497S-61.555-69.09-16.324-56.971"/>
	</g>
	<g id="g318" transform="translate(215.8576,260.211)">
		<path id="path320" fill="#5BBA47" d="M-20.362-10.552c45.231-12.119,59.646,5.671,59.646,5.671S35.695,17.733-9.535,29.854
			c-45.231,12.119-137.134,15.092-137.134,15.092S-65.593,1.567-20.362-10.552"/>
	</g>
	<g id="g322" transform="translate(212.6073,231.0578)">
		<path id="path324" fill="#A4CE3B" d="M-22.011,62.545c5.653-1.082,10.951-2.26,15.726-3.538
			C33.937,48.23,41.228,29.153,42.35,25.06c-5.185-1.144-24.888-2.956-53.131,25.286C-14.37,53.935-18.14,58.055-22.011,62.545"/>
	</g>
	<g id="g326" transform="translate(239.6991,239.8096)">
		<path id="path328" fill="#4BAD47" d="M-8.266,40.601C8.456,31.539,13.498,21.466,14.92,17.387
			C10.802,18.837,0.761,23.917-8.266,40.601"/>
	</g>
</g>
</svg>
