<?xml version="1.0" encoding="utf-8"?>
<!-- Generator: Adobe Illustrator 18.0.0, SVG Export Plug-In . SVG Version: 6.00 Build 0)  -->
<!DOCTYPE svg PUBLIC "-//W3C//DTD SVG 1.1//EN" "http://www.w3.org/Graphics/SVG/1.1/DTD/svg11.dtd">
<svg version="1.1" id="Layer_3" xmlns="http://www.w3.org/2000/svg" xmlns:xlink="http://www.w3.org/1999/xlink" x="0px" y="0px"
	 viewBox="0 0 512 512" style="enable-background:new 0 0 512 512;" xml:space="preserve">
<g>
	<g style="opacity:0.15;">
		<path style="fill:#AE00FF;" d="M122.198,216.811c0,36.948,14.976,70.399,39.19,94.612c-34.243,0-68.486,13.063-94.612,39.19
			c-26.126-26.126-39.19-60.369-39.19-94.612C51.8,231.787,85.25,216.811,122.198,216.811z"/>
		<path style="fill:#FFFFFF;" d="M123.784,216.81c0,35.316,13.753,68.518,38.725,93.492l2.708,2.708h-3.829
			c-35.316,0-68.518,13.753-93.491,38.725l-1.121,1.121l-1.121-1.121C40.083,326.162,26,292.164,26,256.001v-0.657l0.465-0.465
			c25.571-25.573,59.57-39.656,95.734-39.656h1.586V216.81z M66.789,348.369c24.554-23.997,56.645-37.569,90.889-38.483
			c-23.568-24.863-36.663-57.151-37.056-91.481c-34.508,0.4-66.903,13.945-91.448,38.254
			C29.341,291.202,42.671,323.686,66.789,348.369z"/>
	</g>
	<g>
		<path style="fill:#6CDE47;" d="M122.198,216.811c0,36.948,14.976,70.399,39.19,94.612c-34.243,0-68.486,13.063-94.612,39.19
			c-26.126-26.126-39.19-60.369-39.19-94.612C51.8,231.787,85.25,216.811,122.198,216.811z"/>
		<path style="fill:#FFFFFF;" d="M123.784,216.81c0,35.316,13.753,68.518,38.725,93.492l2.708,2.708h-3.829
			c-35.316,0-68.518,13.753-93.491,38.725l-1.121,1.121l-1.121-1.121C40.083,326.162,26,292.164,26,256.001v-0.657l0.465-0.465
			c25.571-25.573,59.57-39.656,95.734-39.656h1.586V216.81z M66.789,348.369c24.554-23.997,56.645-37.569,90.889-38.483
			c-23.568-24.863-36.663-57.151-37.056-91.481c-34.508,0.4-66.903,13.945-91.448,38.254
			C29.341,291.202,42.671,323.686,66.789,348.369z"/>
	</g>
	<g style="opacity:0.15;">
		<path style="fill:#AE00FF;" d="M216.81,256c-24.213-24.213-57.664-39.19-94.612-39.19c0-36.948,14.976-70.399,39.19-94.612
			c34.243,0,68.486,13.063,94.612,39.19C229.874,187.514,216.81,221.757,216.81,256z"/>
		<path style="fill:#FFFFFF;" d="M257.121,160.266l1.121,1.121l-1.121,1.121c-24.972,24.973-38.725,58.176-38.725,93.492v3.829
			l-2.708-2.708c-24.973-24.973-58.175-38.726-93.491-38.726h-1.586v-1.586c0-36.163,14.083-70.162,39.654-95.733l0.465-0.465h0.657
			C197.551,120.612,231.549,134.695,257.121,160.266z M215.274,252.291c0.914-34.245,14.486-66.336,38.483-90.891
			c-24.684-24.117-57.168-37.447-91.712-37.614c-24.308,24.544-37.851,56.94-38.252,91.447
			C158.125,215.626,190.412,228.721,215.274,252.291z"/>
	</g>
	<g>
		<path style="fill:#51D88B;" d="M216.81,256c-24.213-24.213-57.664-39.19-94.612-39.19c0-36.948,14.976-70.399,39.19-94.612
			c34.243,0,68.486,13.063,94.612,39.19C229.874,187.514,216.81,221.757,216.81,256z"/>
		<path style="fill:#FFFFFF;" d="M257.121,160.266l1.121,1.121l-1.121,1.121c-24.972,24.973-38.725,58.176-38.725,93.492v3.829
			l-2.708-2.708c-24.973-24.973-58.175-38.726-93.491-38.726h-1.586v-1.586c0-36.163,14.083-70.162,39.654-95.733l0.465-0.465h0.657
			C197.551,120.612,231.549,134.695,257.121,160.266z M215.274,252.291c0.914-34.245,14.486-66.336,38.483-90.891
			c-24.684-24.117-57.168-37.447-91.712-37.614c-24.308,24.544-37.851,56.94-38.252,91.447
			C158.125,215.626,190.412,228.721,215.274,252.291z"/>
	</g>
	<g style="opacity:0.15;">
		<path style="fill:#AE00FF;" d="M161.388,311.423c-24.213-24.213-39.19-57.664-39.19-94.612c36.948,0,70.399,14.976,94.612,39.19
			c0,34.243,13.063,68.486,39.19,94.612C229.874,324.486,195.631,311.423,161.388,311.423z"/>
		<path style="fill:#FFFFFF;" d="M217.932,254.879l0.465,0.465v0.657c0,35.317,13.753,68.518,38.725,93.49l-2.243,2.243
			c-24.973-24.972-58.175-38.725-93.491-38.725h-0.657l-0.465-0.465c-25.571-25.573-39.654-59.572-39.654-95.734v-1.586h1.586
			C158.362,215.224,192.361,229.307,217.932,254.879z M241.253,335.866c-16.773-22.865-25.89-50.332-26.027-79.204
			c-24.541-24.307-56.93-37.851-91.432-38.257c0.405,34.501,13.949,66.89,38.255,91.433
			C190.92,309.976,218.388,319.093,241.253,335.866z"/>
	</g>
	<g style="opacity:0.15;">
		<path style="fill:#AE00FF;" d="M161.388,311.423c-24.213-24.213-39.19-57.664-39.19-94.612c36.948,0,70.399,14.976,94.612,39.19
			c0,34.243,13.063,68.486,39.19,94.612C229.874,324.486,195.631,311.423,161.388,311.423z"/>
		<path style="fill:#FFFFFF;" d="M217.932,254.879l0.465,0.465v0.657c0,35.317,13.753,68.518,38.725,93.49l-2.243,2.243
			c-24.973-24.972-58.175-38.725-93.491-38.725h-0.657l-0.465-0.465c-25.571-25.573-39.654-59.572-39.654-95.734v-1.586h1.586
			C158.362,215.224,192.361,229.307,217.932,254.879z M241.253,335.866c-16.773-22.865-25.89-50.332-26.027-79.204
			c-24.541-24.307-56.93-37.851-91.432-38.257c0.405,34.501,13.949,66.89,38.255,91.433
			C190.92,309.976,218.388,319.093,241.253,335.866z"/>
	</g>
	<g>
		<path style="fill:#6CDE47;" d="M161.388,311.423c-24.213-24.213-39.19-57.664-39.19-94.612c36.948,0,70.399,14.976,94.612,39.19
			c0,34.243,13.063,68.486,39.19,94.612C229.874,324.486,195.631,311.423,161.388,311.423z"/>
		<path style="fill:#FFFFFF;" d="M217.932,254.879l0.465,0.465v0.657c0,35.317,13.753,68.518,38.725,93.49l-2.243,2.243
			c-24.973-24.972-58.175-38.725-93.491-38.725h-0.657l-0.465-0.465c-25.571-25.573-39.654-59.572-39.654-95.734v-1.586h1.586
			C158.362,215.224,192.361,229.307,217.932,254.879z M241.253,335.866c-16.773-22.865-25.89-50.332-26.027-79.204
			c-24.541-24.307-56.93-37.851-91.432-38.257c0.405,34.501,13.949,66.89,38.255,91.433
			C190.92,309.976,218.388,319.093,241.253,335.866z"/>
	</g>
	<g style="opacity:0.15;">
		<path style="fill:#AE00FF;" d="M350.612,311.423c24.213-24.213,39.19-57.664,39.19-94.612c36.948,0,70.399,14.976,94.612,39.19
			c0,34.243-13.063,68.486-39.19,94.612C419.098,324.486,384.855,311.423,350.612,311.423z"/>
		<path style="fill:#FFFFFF;" d="M485.535,254.879l0.465,0.465v0.657c0,36.163-14.083,70.162-39.654,95.733l-1.121,1.121
			l-1.121-1.121c-24.973-24.972-58.176-38.725-93.492-38.725h-3.829l2.708-2.708c24.973-24.973,38.726-58.176,38.726-93.492v-1.586
			h1.586C425.967,215.224,459.964,229.307,485.535,254.879z M445.212,348.369c24.117-24.684,37.447-57.168,37.614-91.71
			c-24.544-24.309-56.939-37.854-91.447-38.254c-0.393,34.33-13.488,66.619-37.058,91.481
			C388.566,310.8,420.655,324.372,445.212,348.369z"/>
	</g>
	<g>
		<path style="fill:#2D98E0;" d="M350.612,311.423c24.213-24.213,39.19-57.664,39.19-94.612c36.948,0,70.399,14.976,94.612,39.19
			c0,34.243-13.063,68.486-39.19,94.612C419.098,324.486,384.855,311.423,350.612,311.423z"/>
		<path style="fill:#FFFFFF;" d="M485.535,254.879l0.465,0.465v0.657c0,36.163-14.083,70.162-39.654,95.733l-1.121,1.121
			l-1.121-1.121c-24.973-24.972-58.176-38.725-93.492-38.725h-3.829l2.708-2.708c24.973-24.973,38.726-58.176,38.726-93.492v-1.586
			h1.586C425.967,215.224,459.964,229.307,485.535,254.879z M445.212,348.369c24.117-24.684,37.447-57.168,37.614-91.71
			c-24.544-24.309-56.939-37.854-91.447-38.254c-0.393,34.33-13.488,66.619-37.058,91.481
			C388.566,310.8,420.655,324.372,445.212,348.369z"/>
	</g>
	<g style="opacity:0.15;">
		<path style="fill:#AE00FF;" d="M295.19,256c0-34.243-13.063-68.486-39.19-94.612c26.126-26.126,60.369-39.19,94.612-39.19
			c24.213,24.213,39.19,57.664,39.19,94.612C352.853,216.811,319.403,231.787,295.19,256z"/>
		<path style="fill:#FFFFFF;" d="M351.733,121.077c25.573,25.571,39.656,59.569,39.656,95.733v1.586h-1.586
			c-35.315,0-68.518,13.753-93.492,38.726l-2.708,2.708v-3.829c0-35.315-13.753-68.518-38.725-93.492l-1.121-1.121l1.121-1.121
			c25.571-25.571,59.57-39.654,95.733-39.654h0.657L351.733,121.077z M296.726,252.291c24.862-23.57,57.151-36.665,91.481-37.058
			c-0.4-34.509-13.945-66.903-38.254-91.447c-34.543,0.167-67.027,13.497-91.71,37.614
			C282.24,185.957,295.812,218.046,296.726,252.291z"/>
	</g>
	<g>
		<path style="fill:#46B5A2;" d="M295.19,256c0-34.243-13.063-68.486-39.19-94.612c26.126-26.126,60.369-39.19,94.612-39.19
			c24.213,24.213,39.19,57.664,39.19,94.612C352.853,216.811,319.403,231.787,295.19,256z"/>
		<path style="fill:#FFFFFF;" d="M351.733,121.077c25.573,25.571,39.656,59.569,39.656,95.733v1.586h-1.586
			c-35.315,0-68.518,13.753-93.492,38.726l-2.708,2.708v-3.829c0-35.315-13.753-68.518-38.725-93.492l-1.121-1.121l1.121-1.121
			c25.571-25.571,59.57-39.654,95.733-39.654h0.657L351.733,121.077z M296.726,252.291c24.862-23.57,57.151-36.665,91.481-37.058
			c-0.4-34.509-13.945-66.903-38.254-91.447c-34.543,0.167-67.027,13.497-91.71,37.614
			C282.24,185.957,295.812,218.046,296.726,252.291z"/>
	</g>
	<g style="opacity:0.15;">
		<path style="fill:#AE00FF;" d="M350.612,311.423c-34.243,0-68.486,13.063-94.612,39.19c26.126-26.126,39.19-60.369,39.19-94.612
			c24.213-24.213,57.664-39.19,94.612-39.19C389.802,253.759,374.825,287.209,350.612,311.423z"/>
		<path style="fill:#FFFFFF;" d="M391.389,216.81c0,36.163-14.083,70.162-39.656,95.734l-0.465,0.465h-0.657
			c-35.315,0-68.518,13.753-93.49,38.725l-2.243-2.243c24.972-24.972,38.725-58.175,38.725-93.49v-0.657l0.465-0.465
			c25.573-25.573,59.572-39.656,95.734-39.656h1.586V216.81z M270.746,335.866c22.865-16.773,50.334-25.89,79.204-26.028
			c24.307-24.541,37.851-56.931,38.257-91.433c-34.502,0.406-66.892,13.95-91.433,38.257
			C296.636,285.533,287.519,313.001,270.746,335.866z"/>
	</g>
	<g style="opacity:0.15;">
		<path style="fill:#AE00FF;" d="M350.612,311.423c-34.243,0-68.486,13.063-94.612,39.19c26.126-26.126,39.19-60.369,39.19-94.612
			c24.213-24.213,57.664-39.19,94.612-39.19C389.802,253.759,374.825,287.209,350.612,311.423z"/>
		<path style="fill:#FFFFFF;" d="M391.389,216.81c0,36.163-14.083,70.162-39.656,95.734l-0.465,0.465h-0.657
			c-35.315,0-68.518,13.753-93.49,38.725l-2.243-2.243c24.972-24.972,38.725-58.175,38.725-93.49v-0.657l0.465-0.465
			c25.573-25.573,59.572-39.656,95.734-39.656h1.586V216.81z M270.746,335.866c22.865-16.773,50.334-25.89,79.204-26.028
			c24.307-24.541,37.851-56.931,38.257-91.433c-34.502,0.406-66.892,13.95-91.433,38.257
			C296.636,285.533,287.519,313.001,270.746,335.866z"/>
	</g>
	<g>
		<path style="fill:#46B5A2;" d="M350.612,311.423c-34.243,0-68.486,13.063-94.612,39.19c26.126-26.126,39.19-60.369,39.19-94.612
			c24.213-24.213,57.664-39.19,94.612-39.19C389.802,253.759,374.825,287.209,350.612,311.423z"/>
		<path style="fill:#FFFFFF;" d="M391.389,216.81c0,36.163-14.083,70.162-39.656,95.734l-0.465,0.465h-0.657
			c-35.315,0-68.518,13.753-93.49,38.725l-2.243-2.243c24.972-24.972,38.725-58.175,38.725-93.49v-0.657l0.465-0.465
			c25.573-25.573,59.572-39.656,95.734-39.656h1.586V216.81z M270.746,335.866c22.865-16.773,50.334-25.89,79.204-26.028
			c24.307-24.541,37.851-56.931,38.257-91.433c-34.502,0.406-66.892,13.95-91.433,38.257
			C296.636,285.533,287.519,313.001,270.746,335.866z"/>
	</g>
	<g style="opacity:0.15;">
		<path style="fill:#AE00FF;" d="M216.81,256c0-34.243,13.063-68.486,39.19-94.612c26.126,26.126,39.19,60.369,39.19,94.612
			C270.976,280.214,256,313.664,256,350.612C256,313.664,241.024,280.214,216.81,256z"/>
		<path style="fill:#FFFFFF;" d="M257.121,160.266c25.571,25.573,39.654,59.572,39.654,95.734v0.657l-0.465,0.465
			c-24.972,24.972-38.725,58.175-38.725,93.49h-3.172c0-35.316-13.753-68.518-38.725-93.49l-0.465-0.465v-0.657
			c0-36.163,14.083-70.163,39.654-95.734l1.121-1.121L257.121,160.266z M256,329.758c4.308-28.028,17.283-53.898,37.602-74.41
			c-0.166-34.539-13.491-67.019-37.602-91.703c-24.11,24.684-37.436,57.163-37.602,91.703
			C238.716,275.86,251.692,301.73,256,329.758z"/>
	</g>
	<g style="opacity:0.15;">
		<path style="fill:#AE00FF;" d="M216.81,256c0-34.243,13.063-68.486,39.19-94.612c26.126,26.126,39.19,60.369,39.19,94.612
			C270.976,280.214,256,313.664,256,350.612C256,313.664,241.024,280.214,216.81,256z"/>
		<path style="fill:#FFFFFF;" d="M257.121,160.266c25.571,25.573,39.654,59.572,39.654,95.734v0.657l-0.465,0.465
			c-24.972,24.972-38.725,58.175-38.725,93.49h-3.172c0-35.316-13.753-68.518-38.725-93.49l-0.465-0.465v-0.657
			c0-36.163,14.083-70.163,39.654-95.734l1.121-1.121L257.121,160.266z M256,329.758c4.308-28.028,17.283-53.898,37.602-74.41
			c-0.166-34.539-13.491-67.019-37.602-91.703c-24.11,24.684-37.436,57.163-37.602,91.703
			C238.716,275.86,251.692,301.73,256,329.758z"/>
	</g>
	<g>
		<path style="fill:#51D88B;" d="M216.81,256c0-34.243,13.063-68.486,39.19-94.612c26.126,26.126,39.19,60.369,39.19,94.612
			C270.976,280.214,256,313.664,256,350.612C256,313.664,241.024,280.214,216.81,256z"/>
		<path style="fill:#FFFFFF;" d="M257.121,160.266c25.571,25.573,39.654,59.572,39.654,95.734v0.657l-0.465,0.465
			c-24.972,24.972-38.725,58.175-38.725,93.49h-3.172c0-35.316-13.753-68.518-38.725-93.49l-0.465-0.465v-0.657
			c0-36.163,14.083-70.163,39.654-95.734l1.121-1.121L257.121,160.266z M256,329.758c4.308-28.028,17.283-53.898,37.602-74.41
			c-0.166-34.539-13.491-67.019-37.602-91.703c-24.11,24.684-37.436,57.163-37.602,91.703
			C238.716,275.86,251.692,301.73,256,329.758z"/>
	</g>
	<g style="opacity:0.15;">
		<path style="fill:#AE00FF;" d="M216.81,256c24.213,24.213,39.19,57.664,39.19,94.612C229.874,324.486,216.81,290.243,216.81,256z"
			/>
		<path style="fill:#FFFFFF;" d="M217.932,254.879c25.571,25.571,39.654,59.57,39.654,95.733v3.829l-2.708-2.708
			c-25.571-25.57-39.654-59.569-39.654-95.733v-3.829L217.932,254.879z M218.455,259.971c0.952,32.51,13.586,63.012,35.901,86.672
			C253.404,314.134,240.769,283.631,218.455,259.971z"/>
	</g>
	<g style="opacity:0.15;">
		<path style="fill:#AE00FF;" d="M216.81,256c24.213,24.213,39.19,57.664,39.19,94.612C229.874,324.486,216.81,290.243,216.81,256z"
			/>
		<path style="fill:#FFFFFF;" d="M217.932,254.879c25.571,25.571,39.654,59.57,39.654,95.733v3.829l-2.708-2.708
			c-25.571-25.57-39.654-59.569-39.654-95.733v-3.829L217.932,254.879z M218.455,259.971c0.952,32.51,13.586,63.012,35.901,86.672
			C253.404,314.134,240.769,283.631,218.455,259.971z"/>
	</g>
	<g style="opacity:0.15;">
		<path style="fill:#AE00FF;" d="M216.81,256c24.213,24.213,39.19,57.664,39.19,94.612C229.874,324.486,216.81,290.243,216.81,256z"
			/>
		<path style="fill:#FFFFFF;" d="M217.932,254.879c25.571,25.571,39.654,59.57,39.654,95.733v3.829l-2.708-2.708
			c-25.571-25.57-39.654-59.569-39.654-95.733v-3.829L217.932,254.879z M218.455,259.971c0.952,32.51,13.586,63.012,35.901,86.672
			C253.404,314.134,240.769,283.631,218.455,259.971z"/>
	</g>
	<g>
		<path style="fill:#6CDE47;" d="M216.81,256c24.213,24.213,39.19,57.664,39.19,94.612C229.874,324.486,216.81,290.243,216.81,256z"
			/>
		<path style="fill:#FFFFFF;" d="M217.932,254.879c25.571,25.571,39.654,59.57,39.654,95.733v3.829l-2.708-2.708
			c-25.571-25.57-39.654-59.569-39.654-95.733v-3.829L217.932,254.879z M218.455,259.971c0.952,32.51,13.586,63.012,35.901,86.672
			C253.404,314.134,240.769,283.631,218.455,259.971z"/>
	</g>
	<g style="opacity:0.15;">
		<path style="fill:#AE00FF;" d="M295.19,256c0,34.243-13.063,68.486-39.19,94.612C256,313.664,270.976,280.214,295.19,256z"/>
		<path style="fill:#FFFFFF;" d="M296.775,256.001c0,36.163-14.083,70.162-39.654,95.733l-2.708,2.708v-3.829
			c0-36.163,14.083-70.162,39.654-95.733l2.708-2.708V256.001z M293.546,259.971c-22.315,23.66-34.95,54.163-35.903,86.672
			C279.959,322.983,292.593,292.48,293.546,259.971z"/>
	</g>
	<g style="opacity:0.15;">
		<path style="fill:#AE00FF;" d="M295.19,256c0,34.243-13.063,68.486-39.19,94.612C256,313.664,270.976,280.214,295.19,256z"/>
		<path style="fill:#FFFFFF;" d="M296.775,256.001c0,36.163-14.083,70.162-39.654,95.733l-2.708,2.708v-3.829
			c0-36.163,14.083-70.162,39.654-95.733l2.708-2.708V256.001z M293.546,259.971c-22.315,23.66-34.95,54.163-35.903,86.672
			C279.959,322.983,292.593,292.48,293.546,259.971z"/>
	</g>
	<g style="opacity:0.15;">
		<path style="fill:#AE00FF;" d="M295.19,256c0,34.243-13.063,68.486-39.19,94.612C256,313.664,270.976,280.214,295.19,256z"/>
		<path style="fill:#FFFFFF;" d="M296.775,256.001c0,36.163-14.083,70.162-39.654,95.733l-2.708,2.708v-3.829
			c0-36.163,14.083-70.162,39.654-95.733l2.708-2.708V256.001z M293.546,259.971c-22.315,23.66-34.95,54.163-35.903,86.672
			C279.959,322.983,292.593,292.48,293.546,259.971z"/>
	</g>
	<g>
		<path style="fill:#51D88B;" d="M295.19,256c0,34.243-13.063,68.486-39.19,94.612C256,313.664,270.976,280.214,295.19,256z"/>
		<path style="fill:#FFFFFF;" d="M296.775,256.001c0,36.163-14.083,70.162-39.654,95.733l-2.708,2.708v-3.829
			c0-36.163,14.083-70.162,39.654-95.733l2.708-2.708V256.001z M293.546,259.971c-22.315,23.66-34.95,54.163-35.903,86.672
			C279.959,322.983,292.593,292.48,293.546,259.971z"/>
	</g>
	<g style="opacity:0.15;">
		<path style="fill:#AE00FF;" d="M350.612,311.423c34.243,0,68.486,13.063,94.612,39.19c-26.126,26.126-60.369,39.19-94.612,39.19
			c-24.213-24.213-57.664-39.19-94.612-39.19C292.948,350.612,326.399,335.636,350.612,311.423z"/>
		<path style="fill:#FFFFFF;" d="M446.346,349.491l1.121,1.121l-1.121,1.121c-25.571,25.571-59.572,39.654-95.734,39.654h-0.657
			l-0.465-0.465c-24.972-24.972-58.175-38.725-93.49-38.725v-3.172c35.316,0,68.518-13.753,93.49-38.725l0.465-0.465h0.657
			C386.774,309.837,420.773,323.92,446.346,349.491z M351.265,388.214c34.54-0.166,67.019-13.492,91.703-37.602
			c-24.684-24.111-57.163-37.436-91.703-37.602c-20.512,20.319-46.383,33.294-74.41,37.602
			C304.883,354.921,330.753,367.896,351.265,388.214z"/>
	</g>
	<g style="opacity:0.15;">
		<path style="fill:#AE00FF;" d="M350.612,311.423c34.243,0,68.486,13.063,94.612,39.19c-26.126,26.126-60.369,39.19-94.612,39.19
			c-24.213-24.213-57.664-39.19-94.612-39.19C292.948,350.612,326.399,335.636,350.612,311.423z"/>
		<path style="fill:#FFFFFF;" d="M446.346,349.491l1.121,1.121l-1.121,1.121c-25.571,25.571-59.572,39.654-95.734,39.654h-0.657
			l-0.465-0.465c-24.972-24.972-58.175-38.725-93.49-38.725v-3.172c35.316,0,68.518-13.753,93.49-38.725l0.465-0.465h0.657
			C386.774,309.837,420.773,323.92,446.346,349.491z M351.265,388.214c34.54-0.166,67.019-13.492,91.703-37.602
			c-24.684-24.111-57.163-37.436-91.703-37.602c-20.512,20.319-46.383,33.294-74.41,37.602
			C304.883,354.921,330.753,367.896,351.265,388.214z"/>
	</g>
	<g>
		<path style="fill:#2D98E0;" d="M350.612,311.423c34.243,0,68.486,13.063,94.612,39.19c-26.126,26.126-60.369,39.19-94.612,39.19
			c-24.213-24.213-57.664-39.19-94.612-39.19C292.948,350.612,326.399,335.636,350.612,311.423z"/>
		<path style="fill:#FFFFFF;" d="M446.346,349.491l1.121,1.121l-1.121,1.121c-25.571,25.571-59.572,39.654-95.734,39.654h-0.657
			l-0.465-0.465c-24.972-24.972-58.175-38.725-93.49-38.725v-3.172c35.316,0,68.518-13.753,93.49-38.725l0.465-0.465h0.657
			C386.774,309.837,420.773,323.92,446.346,349.491z M351.265,388.214c34.54-0.166,67.019-13.492,91.703-37.602
			c-24.684-24.111-57.163-37.436-91.703-37.602c-20.512,20.319-46.383,33.294-74.41,37.602
			C304.883,354.921,330.753,367.896,351.265,388.214z"/>
	</g>
	<g style="opacity:0.15;">
		<path style="fill:#AE00FF;" d="M350.612,311.423c-24.213,24.213-57.664,39.19-94.612,39.19
			C282.126,324.486,316.369,311.423,350.612,311.423z"/>
		<path style="fill:#FFFFFF;" d="M351.733,312.544c-25.571,25.571-59.57,39.654-95.733,39.654h-3.829l2.708-2.708
			c25.571-25.571,59.57-39.654,95.733-39.654h3.829L351.733,312.544z M346.642,313.066c-32.509,0.953-63.012,13.587-86.672,35.903
			C292.479,348.016,322.982,335.382,346.642,313.066z"/>
	</g>
	<g style="opacity:0.15;">
		<path style="fill:#AE00FF;" d="M350.612,311.423c-24.213,24.213-57.664,39.19-94.612,39.19
			C282.126,324.486,316.369,311.423,350.612,311.423z"/>
		<path style="fill:#FFFFFF;" d="M351.733,312.544c-25.571,25.571-59.57,39.654-95.733,39.654h-3.829l2.708-2.708
			c25.571-25.571,59.57-39.654,95.733-39.654h3.829L351.733,312.544z M346.642,313.066c-32.509,0.953-63.012,13.587-86.672,35.903
			C292.479,348.016,322.982,335.382,346.642,313.066z"/>
	</g>
	<g style="opacity:0.15;">
		<path style="fill:#AE00FF;" d="M350.612,311.423c-24.213,24.213-57.664,39.19-94.612,39.19
			C282.126,324.486,316.369,311.423,350.612,311.423z"/>
		<path style="fill:#FFFFFF;" d="M351.733,312.544c-25.571,25.571-59.57,39.654-95.733,39.654h-3.829l2.708-2.708
			c25.571-25.571,59.57-39.654,95.733-39.654h3.829L351.733,312.544z M346.642,313.066c-32.509,0.953-63.012,13.587-86.672,35.903
			C292.479,348.016,322.982,335.382,346.642,313.066z"/>
	</g>
	<g>
		<path style="fill:#46B5A2;" d="M350.612,311.423c-24.213,24.213-57.664,39.19-94.612,39.19
			C282.126,324.486,316.369,311.423,350.612,311.423z"/>
		<path style="fill:#FFFFFF;" d="M351.733,312.544c-25.571,25.571-59.57,39.654-95.733,39.654h-3.829l2.708-2.708
			c25.571-25.571,59.57-39.654,95.733-39.654h3.829L351.733,312.544z M346.642,313.066c-32.509,0.953-63.012,13.587-86.672,35.903
			C292.479,348.016,322.982,335.382,346.642,313.066z"/>
	</g>
	<g style="opacity:0.15;">
		<path style="fill:#AE00FF;" d="M350.612,389.802c-34.243,0-68.486-13.063-94.612-39.19
			C292.948,350.612,326.399,365.589,350.612,389.802z"/>
		<path style="fill:#FFFFFF;" d="M351.733,388.68l2.708,2.708h-3.829c-36.164,0-70.163-14.083-95.733-39.654l-2.708-2.708H256
			C292.163,349.026,326.162,363.109,351.733,388.68z M259.97,352.256c23.66,22.315,54.161,34.949,86.672,35.901
			C322.982,365.843,292.479,353.208,259.97,352.256z"/>
	</g>
	<g style="opacity:0.15;">
		<path style="fill:#AE00FF;" d="M350.612,389.802c-34.243,0-68.486-13.063-94.612-39.19
			C292.948,350.612,326.399,365.589,350.612,389.802z"/>
		<path style="fill:#FFFFFF;" d="M351.733,388.68l2.708,2.708h-3.829c-36.164,0-70.163-14.083-95.733-39.654l-2.708-2.708H256
			C292.163,349.026,326.162,363.109,351.733,388.68z M259.97,352.256c23.66,22.315,54.161,34.949,86.672,35.901
			C322.982,365.843,292.479,353.208,259.97,352.256z"/>
	</g>
	<g style="opacity:0.15;">
		<path style="fill:#AE00FF;" d="M350.612,389.802c-34.243,0-68.486-13.063-94.612-39.19
			C292.948,350.612,326.399,365.589,350.612,389.802z"/>
		<path style="fill:#FFFFFF;" d="M351.733,388.68l2.708,2.708h-3.829c-36.164,0-70.163-14.083-95.733-39.654l-2.708-2.708H256
			C292.163,349.026,326.162,363.109,351.733,388.68z M259.97,352.256c23.66,22.315,54.161,34.949,86.672,35.901
			C322.982,365.843,292.479,353.208,259.97,352.256z"/>
	</g>
	<g>
		<path style="fill:#2D98E0;" d="M350.612,389.802c-34.243,0-68.486-13.063-94.612-39.19
			C292.948,350.612,326.399,365.589,350.612,389.802z"/>
		<path style="fill:#FFFFFF;" d="M351.733,388.68l2.708,2.708h-3.829c-36.164,0-70.163-14.083-95.733-39.654l-2.708-2.708H256
			C292.163,349.026,326.162,363.109,351.733,388.68z M259.97,352.256c23.66,22.315,54.161,34.949,86.672,35.901
			C322.982,365.843,292.479,353.208,259.97,352.256z"/>
	</g>
	<g style="opacity:0.15;">
		<path style="fill:#AE00FF;" d="M161.388,389.802c-34.243,0-68.486-13.063-94.612-39.19c26.126-26.126,60.369-39.19,94.612-39.19
			c24.213,24.213,57.664,39.19,94.612,39.19C219.052,350.612,185.601,365.589,161.388,389.802z"/>
		<path style="fill:#FFFFFF;" d="M162.509,310.301c24.973,24.972,58.175,38.725,93.491,38.725v3.172
			c-35.316,0-68.518,13.753-93.491,38.725l-0.465,0.465h-0.657c-36.164,0-70.162-14.083-95.734-39.654l-1.121-1.121l1.121-1.121
			c25.572-25.571,59.571-39.654,95.734-39.654h0.657L162.509,310.301z M160.735,388.214c20.512-20.318,46.383-33.293,74.41-37.602
			c-28.028-4.308-53.898-17.283-74.41-37.602c-34.54,0.166-67.019,13.491-91.703,37.602
			C93.715,374.722,126.194,388.048,160.735,388.214z"/>
	</g>
	<g style="opacity:0.15;">
		<path style="fill:#AE00FF;" d="M161.388,389.802c-34.243,0-68.486-13.063-94.612-39.19c26.126-26.126,60.369-39.19,94.612-39.19
			c24.213,24.213,57.664,39.19,94.612,39.19C219.052,350.612,185.601,365.589,161.388,389.802z"/>
		<path style="fill:#FFFFFF;" d="M162.509,310.301c24.973,24.972,58.175,38.725,93.491,38.725v3.172
			c-35.316,0-68.518,13.753-93.491,38.725l-0.465,0.465h-0.657c-36.164,0-70.162-14.083-95.734-39.654l-1.121-1.121l1.121-1.121
			c25.572-25.571,59.571-39.654,95.734-39.654h0.657L162.509,310.301z M160.735,388.214c20.512-20.318,46.383-33.293,74.41-37.602
			c-28.028-4.308-53.898-17.283-74.41-37.602c-34.54,0.166-67.019,13.491-91.703,37.602
			C93.715,374.722,126.194,388.048,160.735,388.214z"/>
	</g>
	<g>
		<path style="fill:#88FE02;" d="M161.388,389.802c-34.243,0-68.486-13.063-94.612-39.19c26.126-26.126,60.369-39.19,94.612-39.19
			c24.213,24.213,57.664,39.19,94.612,39.19C219.052,350.612,185.601,365.589,161.388,389.802z"/>
		<path style="fill:#FFFFFF;" d="M162.509,310.301c24.973,24.972,58.175,38.725,93.491,38.725v3.172
			c-35.316,0-68.518,13.753-93.491,38.725l-0.465,0.465h-0.657c-36.164,0-70.162-14.083-95.734-39.654l-1.121-1.121l1.121-1.121
			c25.572-25.571,59.571-39.654,95.734-39.654h0.657L162.509,310.301z M160.735,388.214c20.512-20.318,46.383-33.293,74.41-37.602
			c-28.028-4.308-53.898-17.283-74.41-37.602c-34.54,0.166-67.019,13.491-91.703,37.602
			C93.715,374.722,126.194,388.048,160.735,388.214z"/>
	</g>
	<g style="opacity:0.15;">
		<path style="fill:#AE00FF;" d="M161.388,311.423c34.243,0,68.486,13.063,94.612,39.19
			C219.052,350.612,185.601,335.636,161.388,311.423z"/>
		<path style="fill:#FFFFFF;" d="M257.121,349.491l2.708,2.708H256c-36.163,0-70.162-14.083-95.734-39.654l-2.708-2.708h3.829
			C197.551,309.837,231.549,323.92,257.121,349.491z M165.357,313.066c23.662,22.315,54.164,34.95,86.674,35.903
			C228.369,326.653,197.866,314.019,165.357,313.066z"/>
	</g>
	<g style="opacity:0.15;">
		<path style="fill:#AE00FF;" d="M161.388,311.423c34.243,0,68.486,13.063,94.612,39.19
			C219.052,350.612,185.601,335.636,161.388,311.423z"/>
		<path style="fill:#FFFFFF;" d="M257.121,349.491l2.708,2.708H256c-36.163,0-70.162-14.083-95.734-39.654l-2.708-2.708h3.829
			C197.551,309.837,231.549,323.92,257.121,349.491z M165.357,313.066c23.662,22.315,54.164,34.95,86.674,35.903
			C228.369,326.653,197.866,314.019,165.357,313.066z"/>
	</g>
	<g style="opacity:0.15;">
		<path style="fill:#AE00FF;" d="M161.388,311.423c34.243,0,68.486,13.063,94.612,39.19
			C219.052,350.612,185.601,335.636,161.388,311.423z"/>
		<path style="fill:#FFFFFF;" d="M257.121,349.491l2.708,2.708H256c-36.163,0-70.162-14.083-95.734-39.654l-2.708-2.708h3.829
			C197.551,309.837,231.549,323.92,257.121,349.491z M165.357,313.066c23.662,22.315,54.164,34.95,86.674,35.903
			C228.369,326.653,197.866,314.019,165.357,313.066z"/>
	</g>
	<g>
		<path style="fill:#88FE02;" d="M161.388,311.423c34.243,0,68.486,13.063,94.612,39.19
			C219.052,350.612,185.601,335.636,161.388,311.423z"/>
		<path style="fill:#FFFFFF;" d="M257.121,349.491l2.708,2.708H256c-36.163,0-70.162-14.083-95.734-39.654l-2.708-2.708h3.829
			C197.551,309.837,231.549,323.92,257.121,349.491z M165.357,313.066c23.662,22.315,54.164,34.95,86.674,35.903
			C228.369,326.653,197.866,314.019,165.357,313.066z"/>
	</g>
	<g style="opacity:0.15;">
		<path style="fill:#AE00FF;" d="M161.388,389.802c24.213-24.213,57.664-39.19,94.612-39.19
			C229.874,376.739,195.631,389.802,161.388,389.802z"/>
		<path style="fill:#FFFFFF;" d="M257.121,351.734c-25.571,25.571-59.57,39.654-95.734,39.654h-3.829l2.708-2.708
			c25.572-25.571,59.571-39.654,95.734-39.654h3.829L257.121,351.734z M252.031,352.256c-32.51,0.952-63.012,13.586-86.674,35.901
			C197.867,387.206,228.369,374.571,252.031,352.256z"/>
	</g>
	<g style="opacity:0.15;">
		<path style="fill:#AE00FF;" d="M161.388,389.802c24.213-24.213,57.664-39.19,94.612-39.19
			C229.874,376.739,195.631,389.802,161.388,389.802z"/>
		<path style="fill:#FFFFFF;" d="M257.121,351.734c-25.571,25.571-59.57,39.654-95.734,39.654h-3.829l2.708-2.708
			c25.572-25.571,59.571-39.654,95.734-39.654h3.829L257.121,351.734z M252.031,352.256c-32.51,0.952-63.012,13.586-86.674,35.901
			C197.867,387.206,228.369,374.571,252.031,352.256z"/>
	</g>
	<g style="opacity:0.15;">
		<path style="fill:#AE00FF;" d="M161.388,389.802c24.213-24.213,57.664-39.19,94.612-39.19
			C229.874,376.739,195.631,389.802,161.388,389.802z"/>
		<path style="fill:#FFFFFF;" d="M257.121,351.734c-25.571,25.571-59.57,39.654-95.734,39.654h-3.829l2.708-2.708
			c25.572-25.571,59.571-39.654,95.734-39.654h3.829L257.121,351.734z M252.031,352.256c-32.51,0.952-63.012,13.586-86.674,35.901
			C197.867,387.206,228.369,374.571,252.031,352.256z"/>
	</g>
	<g>
		<path style="fill:#88FE02;" d="M161.388,389.802c24.213-24.213,57.664-39.19,94.612-39.19
			C229.874,376.739,195.631,389.802,161.388,389.802z"/>
		<path style="fill:#FFFFFF;" d="M257.121,351.734c-25.571,25.571-59.57,39.654-95.734,39.654h-3.829l2.708-2.708
			c25.572-25.571,59.571-39.654,95.734-39.654h3.829L257.121,351.734z M252.031,352.256c-32.51,0.952-63.012,13.586-86.674,35.901
			C197.867,387.206,228.369,374.571,252.031,352.256z"/>
	</g>
</g>
</svg>
