<?xml version="1.0" encoding="utf-8"?>
<!-- Generator: Adobe Illustrator 18.0.0, SVG Export Plug-In . SVG Version: 6.00 Build 0)  -->
<!DOCTYPE svg PUBLIC "-//W3C//DTD SVG 1.1//EN" "http://www.w3.org/Graphics/SVG/1.1/DTD/svg11.dtd">
<svg version="1.1" id="Layer_1" xmlns="http://www.w3.org/2000/svg" xmlns:xlink="http://www.w3.org/1999/xlink" x="0px" y="0px"
	 viewBox="0 0 512 512" style="enable-background:new 0 0 512 512;" xml:space="preserve">
<g>
	<path style="fill:#FF9100;" d="M256,26C129,26,26,129,26,256c0,72.3,33.4,136.8,85.6,179l-29.4,51H256c127,0,230-103,230-230
		S383,26,256,26z"/>
	<g>
		<polygon style="fill:#FFFFFF;" points="384,161.7 277.2,100 277.2,223.3 		"/>
		<polygon style="fill:#FFFFFF;" points="128,350.3 241.8,416 241.8,284.6 		"/>
		<polygon style="fill:#FFFFFF;" points="241.8,96 128,161.7 241.8,227.4 		"/>
		<polygon style="fill:#FFFFFF;" points="401.7,319.7 401.7,192.3 291.4,256 		"/>
		<polygon style="fill:#FFFFFF;" points="277.2,412 384,350.3 277.2,288.7 		"/>
		<polygon style="fill:#FFFFFF;" points="110.3,192.3 110.3,319.7 220.6,256 		"/>
	</g>
</g>
</svg>
