<?xml version="1.0" encoding="utf-8"?>
<!-- Generator: Adobe Illustrator 22.0.1, SVG Export Plug-In . SVG Version: 6.00 Build 0)  -->
<svg version="1.1" id="Layer_3" xmlns="http://www.w3.org/2000/svg" xmlns:xlink="http://www.w3.org/1999/xlink" x="0px" y="0px"
	 viewBox="0 0 512 512" style="enable-background:new 0 0 512 512;" xml:space="preserve">
<style type="text/css">
	.st0{fill:#033047;}
	.st1{display:none;fill:#FFFFFF;}
</style>
<path class="st0" d="M256,26C128.9,26,26,129.1,26,256c0,72.4,33.5,136.8,85.6,179l-29.5,51H256c127.1,0,230-103.1,230-230
	S383.1,26,256,26z M156.2,288.8h-38L99.4,256l18.9-32.8h38l18.9,32.8L156.2,288.8z M274.9,288.8h-37.7L218.3,256l18.9-32.8h37.7
	l18.9,32.8L274.9,288.8z M393.8,288.8h-38L336.9,256l18.9-32.8h38l18.9,32.8L393.8,288.8z"/>
<path class="st1" d="M256,158.5c-53.9,0-97.5,43.7-97.5,97.5c0,30.7,14.2,58,36.3,75.9l-12.5,21.6H256c53.9,0,97.5-43.7,97.5-97.5
	S309.9,158.5,256,158.5z M266.4,262h51.7l-25.8,44.8L266.4,262z M266.4,250l25.8-44.8L318,250H266.4z M288.8,199.2L288.8,199.2
	L288.8,199.2L288.8,199.2z M281.8,199.2L256,244l-25.8-44.8H281.8z M223.2,199.2L223.2,199.2L223.2,199.2L223.2,199.2z M245.6,250
	h-51.7l25.8-44.8L245.6,250z M193.9,262h51.7l-25.8,44.8L193.9,262z M230.2,312.8L256,268l25.8,44.8H230.2z"/>
</svg>
