<?xml version="1.0" encoding="utf-8"?>
<!-- Generator: Adobe Illustrator 22.0.1, SVG Export Plug-In . SVG Version: 6.00 Build 0)  -->
<svg version="1.1"
	 id="svg2" xmlns:cc="http://creativecommons.org/ns#" xmlns:dc="http://purl.org/dc/elements/1.1/" xmlns:rdf="http://www.w3.org/1999/02/22-rdf-syntax-ns#" xmlns:svg="http://www.w3.org/2000/svg"
	 xmlns="http://www.w3.org/2000/svg" xmlns:xlink="http://www.w3.org/1999/xlink" x="0px" y="0px" viewBox="0 0 512 512"
	 style="enable-background:new 0 0 512 512;" xml:space="preserve">
<linearGradient id="SVGID_1_" gradientUnits="userSpaceOnUse" x1="26" y1="256" x2="486" y2="256">
	<stop  offset="0" style="stop-color:#9ACC61"/>
	<stop  offset="1" style="stop-color:#4EB748"/>
</linearGradient>
<circle style="fill:url(#SVGID_1_);" cx="256" cy="256" r="230"/>
<path id="path66" style="fill:#FFFFFF;" d="M260.313,182.304c0-13.099,11.312-23.813,24.409-23.813
	c11.913,0,20.544,8.032,20.544,20.245c0,13.7-11.312,23.824-24.704,23.824C268.353,202.559,260.313,194.516,260.313,182.304
	 M244.24,240.959c2.089-5.352-0.591-8.033-2.977-8.033c-11.015,0-25.305,25.903-30.655,25.903c-2.089,0-3.874-2.089-3.874-3.874
	c0-5.361,13.096-17.86,16.97-21.735c11.904-11.313,27.385-19.948,44.649-19.948c12.801,0,26.498,7.738,15.777,36.626l-21.433,58.056
	c-1.784,4.465-5.056,11.916-5.056,16.677c0,2.079,1.183,4.169,3.565,4.169c8.928,0,25.305-25.312,29.475-25.312
	c1.488,0,3.566,1.784,3.566,4.465c0,8.633-34.823,45.556-64.889,45.556c-10.721,0-18.161-5.057-18.161-16.371
	c0-14.291,10.121-38.707,12.209-43.773C223.406,293.365,244.24,240.959,244.24,240.959z"/>
</svg>
