<?xml version="1.0" encoding="utf-8"?>
<!-- Generator: Adobe Illustrator 22.0.1, SVG Export Plug-In . SVG Version: 6.00 Build 0)  -->
<svg version="1.1" id="Layer_2" xmlns="http://www.w3.org/2000/svg" xmlns:xlink="http://www.w3.org/1999/xlink" x="0px" y="0px"
	 viewBox="0 0 512 512" style="enable-background:new 0 0 512 512;" xml:space="preserve">
<radialGradient id="SVGID_1_" cx="256" cy="256" r="230" gradientUnits="userSpaceOnUse">
	<stop  offset="0" style="stop-color:#EEFCFF"/>
	<stop  offset="0.1917" style="stop-color:#EBFBFF"/>
	<stop  offset="0.3283" style="stop-color:#E2F9FE"/>
	<stop  offset="0.4479" style="stop-color:#D2F6FC"/>
	<stop  offset="0.5576" style="stop-color:#BCF0FA"/>
	<stop  offset="0.6607" style="stop-color:#9FEAF8"/>
	<stop  offset="0.7588" style="stop-color:#7CE2F4"/>
	<stop  offset="0.853" style="stop-color:#52D8F1"/>
	<stop  offset="0.9418" style="stop-color:#23CDEC"/>
	<stop  offset="1" style="stop-color:#00C5E9"/>
</radialGradient>
<circle style="fill:url(#SVGID_1_);" cx="256" cy="256" r="230"/>
<g>
	
		<radialGradient id="SVGID_2_" cx="-11.1546" cy="7.4686" r="64.0904" gradientTransform="matrix(2.1537 0 0 2.1537 273.6856 273.7357)" gradientUnits="userSpaceOnUse">
		<stop  offset="0" style="stop-color:#2AFCFF"/>
		<stop  offset="0.1149" style="stop-color:#27F0FE"/>
		<stop  offset="0.3202" style="stop-color:#20D2FA"/>
		<stop  offset="0.5922" style="stop-color:#14A0F4"/>
		<stop  offset="0.9169" style="stop-color:#045CEB"/>
		<stop  offset="1" style="stop-color:#0049E9"/>
	</radialGradient>
	<path style="fill:url(#SVGID_2_);" d="M364.733,197.226c0-0.233,0-0.466,0-0.746c0-19.338-15.656-34.994-34.994-34.994
		c-13.42,0-25.022,7.549-30.94,18.592c-7.455-32.757-36.765-57.221-71.805-57.221c-40.679,0-73.623,32.99-73.623,73.623
		c0,0.047,0,0.047,0,0.093c-30.195,1.584-54.192,26.56-54.192,57.174v4.566c0,31.593,25.628,57.221,57.221,57.221H355.6
		c31.592,0,57.221-25.628,57.221-57.221v-4.566C412.868,225.231,391.992,201.607,364.733,197.226z"/>
	<g>
		<path style="fill:#FFFFFF;" d="M256,200.933c23.266,0,45.139,9.06,61.591,25.512c16.452,16.452,25.512,38.325,25.512,61.591
			c0,23.266-9.06,45.139-25.512,61.591c-16.452,16.452-38.325,25.512-61.591,25.512c-23.266,0-45.139-9.06-61.591-25.512
			c-16.452-16.451-25.512-38.325-25.512-61.591c0-23.266,9.06-45.139,25.512-61.591C210.861,209.993,232.734,200.933,256,200.933
			 M256,186.929c-55.84,0-101.106,45.267-101.106,101.106c0,55.84,45.267,101.106,101.106,101.106
			c55.84,0,101.106-45.267,101.106-101.106C357.106,232.196,311.84,186.929,256,186.929L256,186.929z"/>
		<path style="fill:#FFFFFF;" d="M271.539,328.809c0.211-11.382,21.392-11.602,24.292-49.672c0.357-4.681,0.312-9.908-0.398-15.164
			c-0.739-21.784-18.777-39.221-40.935-39.221c-19.348,0-35.553,13.297-39.846,31.172c-2.822,8.791-3.067,18.124-2.212,25.026
			c5.076,40.97,25.017,32.994,24.426,50.534c-0.356,10.57-21.548,13.449-37.782,21.939c15.908,14.032,36.118,21.715,57.518,21.715
			c20.864,0,40.594-7.306,56.313-20.674C295.015,343.918,271.313,341.008,271.539,328.809z"/>
	</g>
</g>
</svg>
