<?xml version="1.0" encoding="utf-8"?>
<!-- Generator: Adobe Illustrator 18.0.0, SVG Export Plug-In . SVG Version: 6.00 Build 0)  -->
<!DOCTYPE svg PUBLIC "-//W3C//DTD SVG 1.1//EN" "http://www.w3.org/Graphics/SVG/1.1/DTD/svg11.dtd">
<svg version="1.1" id="Layer_1" xmlns="http://www.w3.org/2000/svg" xmlns:xlink="http://www.w3.org/1999/xlink" x="0px" y="0px"
	 viewBox="0 0 512 512" style="enable-background:new 0 0 512 512;" xml:space="preserve">
<g id="Layer_2_1_">
	<path style="opacity:0.4;fill:#4C4C4C;enable-background:new    ;" d="M256.142,57.573c54.953,0,106.616,21.4,145.474,60.257
		s60.257,90.521,60.257,145.474s-21.4,106.616-60.257,145.474s-90.521,60.259-145.474,60.259s-106.616-21.4-145.474-60.257
		s-60.257-90.521-60.257-145.474s21.4-106.616,60.257-145.473S201.189,57.573,256.142,57.573 M256.142,40.608
		c-122.991,0-222.695,99.704-222.695,222.695S133.151,486,256.142,486s222.695-99.704,222.695-222.695
		S379.133,40.608,256.142,40.608L256.142,40.608z"/>
	<g>
		<g>
			<g>
				<path style="fill:#31CAFF;" d="M147.143,86.454l108.975,174.398V55.208C216.711,55.208,180.563,65.567,147.143,86.454z"/>
				<path style="fill:#69DFFF;" d="M50.971,275.196l205.147-14.344L147.141,86.454C80.2,128.279,45.463,196.455,50.971,275.196z"/>
				<path style="fill:#31CAFF;" d="M404.046,117.999L256.118,260.852L50.973,275.196c4.477,64.012,34.626,117.304,87.191,154.11
					c93.037,65.147,221.27,42.537,286.413-50.5l-0.004-0.003C481.181,297.96,472.606,188.996,404.046,117.999z"/>
				<path style="fill:#58D7F9;" d="M309.343,62.211l-53.225,198.641l147.929-142.857C376.669,89.644,347.412,72.41,309.343,62.211z"
					/>
			</g>
			<g>
				<g>
					<path style="fill:#FF2400;" d="M256.118,260.852V55.208c19.647,0,34.247,1.923,53.225,7.008L256.118,260.852z"/>
				</g>
			</g>
		</g>
	</g>
	<path style="fill:#D1D1D1;" d="M256.142,42.965c54.953,0,106.616,21.4,145.474,60.257s60.257,90.521,60.257,145.473
		s-21.4,106.616-60.257,145.473s-90.521,60.257-145.474,60.257s-106.616-21.4-145.474-60.257s-60.257-90.521-60.257-145.473
		s21.4-106.616,60.257-145.473S201.189,42.965,256.142,42.965 M256.142,26C133.151,26,33.447,125.704,33.447,248.695
		s99.704,222.695,222.695,222.695s222.695-99.704,222.695-222.695S379.133,26,256.142,26L256.142,26z"/>
	<polygon style="opacity:0.4;fill:#4C4C4C;enable-background:new    ;" points="107.746,58.64 182.144,188.793 40.412,129.649 	"/>
	<polygon style="fill:#EAEAEA;" points="104.445,31.878 188.355,186.725 33.163,95.732 	"/>
</g>
</svg>
