<?xml version="1.0" encoding="utf-8"?>
<!-- Generator: Adobe Illustrator 18.0.0, SVG Export Plug-In . SVG Version: 6.00 Build 0)  -->
<!DOCTYPE svg PUBLIC "-//W3C//DTD SVG 1.1//EN" "http://www.w3.org/Graphics/SVG/1.1/DTD/svg11.dtd">
<svg version="1.1" id="Layer_1" xmlns="http://www.w3.org/2000/svg" xmlns:xlink="http://www.w3.org/1999/xlink" x="0px" y="0px"
	 viewBox="0 0 512 512" style="enable-background:new 0 0 512 512;" xml:space="preserve">
<g style="opacity:0.4;">
	<path id="path9" d="M190.894,154.695c-0.719-0.431-1.39-0.766-2.06-1.054c-3.784-1.82-7.856-2.731-12.312-2.731
		c-7.952,0-14.707,2.827-20.312,8.479c-5.605,5.605-8.431,12.36-8.431,20.265c0,7.953,2.827,14.755,8.431,20.361
		c0.048,0.048,0.048,0.048,0.096,0.096l60.937,60.986l-64.626,64.578h-0.048c-3.21,4.982-4.791,10.587-4.791,16.767
		c0,7.905,2.827,14.707,8.431,20.312c5.604,5.604,12.36,8.432,20.312,8.432c6.18-0.048,11.737-1.629,16.719-4.839h0.048
		l84.795-84.795l-0.049-0.048c0,0,0,0,0.049-0.048c1.772-1.772,3.257-3.594,4.454-5.557c0.097-0.144,0.192-0.288,0.288-0.431
		c0.383-0.671,0.719-1.341,1.054-2.06c1.773-3.736,2.683-7.857,2.732-12.312c-0.049-0.527-0.049-1.054-0.049-1.581
		c-0.096-1.485-0.288-2.97-0.527-4.359c-0.43-1.964-1.005-3.88-1.819-5.7c-0.383-0.815-0.815-1.629-1.246-2.395
		c-0.431-0.863-0.958-1.677-1.534-2.491h-0.048l-84.46-85.13v0.048c-0.048-0.048-0.048-0.048-0.048-0.048
		C195.014,157.521,193.002,155.941,190.894,154.695L190.894,154.695z"/>
	<path id="path8" d="M485.952,261c0-63.524-22.469-117.755-67.357-162.643S319.476,31,256,31
		c-63.525,0-117.755,22.469-162.643,67.357C48.468,143.245,26.048,197.476,26.048,261c0,63.477,22.421,117.707,67.309,162.595
		C138.245,468.484,192.476,490.952,256,491c63.476-0.048,117.706-22.517,162.594-67.405S485.952,324.477,485.952,261L485.952,261z
		 M256,88.488c47.57,0,88.244,16.815,121.922,50.494s50.542,74.351,50.542,121.97s-16.863,88.292-50.542,121.97
		S303.571,433.464,256,433.464c-47.619,0-88.292-16.863-121.97-50.542s-50.542-74.351-50.494-121.97
		c-0.048-47.619,16.815-88.292,50.494-121.97C167.707,105.303,208.381,88.488,256,88.488L256,88.488z"/>
	<path id="path7" d="M358.472,159.342c-5.605-5.605-12.408-8.431-20.312-8.431c-6.228,0-11.834,1.629-16.767,4.887l-37.367,37.367
		c-0.048,0-0.048,0-0.048,0.048c-1.868,1.868-3.45,3.833-4.695,5.989c-0.43,0.671-0.767,1.341-1.101,2.06
		c-1.773,3.736-2.683,7.857-2.683,12.312c-0.048,7.905,2.778,14.707,8.383,20.312c5.605,5.604,12.408,8.431,20.361,8.431
		c7.904-0.048,14.707-2.875,20.36-8.48c0-0.048,0-0.048,0.048-0.048l11.545-11.497l25.821-25.869
		c3.21-4.982,4.839-10.587,4.887-16.767C366.855,171.703,364.077,164.947,358.472,159.342L358.472,159.342z"/>
	<path id="path11" d="M347.357,311.973l-25.869-25.869c-0.527-0.335-1.054-0.623-1.581-0.959c-4.551-2.587-9.629-3.88-15.187-3.88
		c-7.952,0-14.707,2.827-20.312,8.431c-5.604,5.604-8.431,12.36-8.431,20.312c0,6.181,1.629,11.785,4.887,16.767l37.367,37.367
		c0,0,0,0,0.048,0.049c1.868,1.868,3.833,3.401,5.989,4.694c0.67,0.383,1.341,0.719,2.059,1.054
		c3.736,1.773,7.857,2.683,12.313,2.731c7.904,0,14.707-2.826,20.312-8.431c5.604-5.605,8.431-12.408,8.431-20.313
		c-0.048-7.952-2.875-14.755-8.48-20.36c-0.048-0.048-0.048-0.048-0.048-0.096L347.357,311.973L347.357,311.973z"/>
</g>
<g>
	<path id="path9_1_" style="fill:#FFFFFF;" d="M190.894,149.695c-0.719-0.431-1.39-0.766-2.06-1.054
		c-3.784-1.82-7.856-2.731-12.312-2.731c-7.952,0-14.707,2.827-20.312,8.479c-5.605,5.605-8.431,12.36-8.431,20.265
		c0,7.953,2.827,14.755,8.431,20.361c0.048,0.048,0.048,0.048,0.096,0.096l60.937,60.986l-64.626,64.578h-0.048
		c-3.21,4.982-4.791,10.587-4.791,16.767c0,7.905,2.827,14.707,8.431,20.312c5.604,5.604,12.36,8.432,20.312,8.432
		c6.18-0.048,11.737-1.629,16.719-4.839h0.048l84.795-84.795l-0.049-0.048c0,0,0,0,0.049-0.048c1.772-1.772,3.257-3.594,4.454-5.557
		c0.097-0.144,0.192-0.288,0.288-0.431c0.383-0.671,0.719-1.341,1.054-2.06c1.773-3.736,2.683-7.857,2.732-12.312
		c-0.049-0.527-0.049-1.054-0.049-1.581c-0.096-1.485-0.288-2.97-0.527-4.359c-0.43-1.964-1.005-3.88-1.819-5.7
		c-0.383-0.815-0.815-1.629-1.246-2.395c-0.431-0.863-0.958-1.677-1.534-2.491h-0.048l-84.46-85.13v0.048
		c-0.048-0.048-0.048-0.048-0.048-0.048C195.014,152.521,193.002,150.941,190.894,149.695L190.894,149.695z"/>
	<path id="path8_1_" style="fill:#FFFFFF;" d="M485.952,256c0-63.524-22.469-117.755-67.357-162.643S319.476,26,256,26
		c-63.525,0-117.755,22.469-162.643,67.357C48.468,138.245,26.048,192.476,26.048,256c0,63.477,22.421,117.707,67.309,162.595
		C138.245,463.484,192.476,485.952,256,486c63.476-0.048,117.706-22.517,162.594-67.405S485.952,319.477,485.952,256L485.952,256z
		 M256,83.488c47.57,0,88.244,16.815,121.922,50.494s50.542,74.351,50.542,121.97s-16.863,88.292-50.542,121.97
		S303.571,428.464,256,428.464c-47.619,0-88.292-16.863-121.97-50.542s-50.542-74.351-50.494-121.97
		c-0.048-47.619,16.815-88.292,50.494-121.97C167.707,100.303,208.381,83.488,256,83.488L256,83.488z"/>
	<path id="path7_1_" style="fill:#FFFFFF;" d="M358.472,154.342c-5.605-5.605-12.408-8.431-20.312-8.431
		c-6.228,0-11.834,1.629-16.767,4.887l-37.367,37.367c-0.048,0-0.048,0-0.048,0.048c-1.868,1.868-3.45,3.833-4.695,5.989
		c-0.43,0.671-0.767,1.341-1.101,2.06c-1.773,3.736-2.683,7.857-2.683,12.312c-0.048,7.905,2.778,14.707,8.383,20.312
		c5.605,5.604,12.408,8.431,20.361,8.431c7.904-0.048,14.707-2.875,20.36-8.48c0-0.048,0-0.048,0.048-0.048l11.545-11.497
		l25.821-25.869c3.21-4.982,4.839-10.587,4.887-16.767C366.855,166.703,364.077,159.947,358.472,154.342L358.472,154.342z"/>
	<path id="path11_1_" style="fill:#FFFFFF;" d="M347.357,306.973l-25.869-25.869c-0.527-0.335-1.054-0.623-1.581-0.959
		c-4.551-2.587-9.629-3.88-15.187-3.88c-7.952,0-14.707,2.827-20.312,8.431c-5.604,5.604-8.431,12.36-8.431,20.312
		c0,6.181,1.629,11.785,4.887,16.767l37.367,37.367c0,0,0,0,0.048,0.049c1.868,1.868,3.833,3.401,5.989,4.694
		c0.67,0.383,1.341,0.719,2.059,1.054c3.736,1.773,7.857,2.683,12.313,2.731c7.904,0,14.707-2.826,20.312-8.431
		c5.604-5.605,8.431-12.408,8.431-20.313c-0.048-7.952-2.875-14.755-8.48-20.36c-0.048-0.048-0.048-0.048-0.048-0.096
		L347.357,306.973L347.357,306.973z"/>
</g>
</svg>
