<?xml version="1.0" encoding="utf-8"?>
<!-- Generator: Adobe Illustrator 22.0.1, SVG Export Plug-In . SVG Version: 6.00 Build 0)  -->
<svg version="1.1" id="Layer_1" xmlns="http://www.w3.org/2000/svg" xmlns:xlink="http://www.w3.org/1999/xlink" x="0px" y="0px"
	 viewBox="0 0 512 512" style="enable-background:new 0 0 512 512;" xml:space="preserve">
<path style="fill:#890622;" d="M426,486H86c-33.137,0-60-26.863-60-60V86c0-33.137,26.863-60,60-60h340c33.137,0,60,26.863,60,60
	v340C486,459.137,459.137,486,426,486z"/>
<path style="fill:#FF0000;" d="M426,486H86c-33.137,0-60-26.863-60-60V209.085c0-33.137,26.863-60,60-60h340
	c33.137,0,60,26.863,60,60V426C486,459.137,459.137,486,426,486z"/>
<path style="fill:#6B0015;" d="M426,149.008H86c-33.137,0-60-26.863-60-60V86c0-33.137,26.863-60,60-60h340
	c33.137,0,60,26.863,60,60v3.008C486,122.145,459.137,149.008,426,149.008z"/>
<g>
	<g>
		<ellipse cx="186" cy="64.269" rx="27" ry="7.6"/>
		<ellipse cx="326" cy="64.269" rx="27" ry="7.6"/>
	</g>
	<g>
		<ellipse cx="186" cy="86.369" rx="27" ry="7.6"/>
		<ellipse cx="326" cy="86.369" rx="27" ry="7.6"/>
	</g>
	<g>
		<ellipse cx="186" cy="108.569" rx="27" ry="7.6"/>
		<ellipse cx="326" cy="108.569" rx="27" ry="7.6"/>
	</g>
</g>
<circle style="fill:#510000;" cx="256" cy="315.047" r="57"/>
</svg>
