<?xml version="1.0" encoding="utf-8"?>
<!-- Generator: Adobe Illustrator 22.0.1, SVG Export Plug-In . SVG Version: 6.00 Build 0)  -->
<svg version="1.1" id="Layer_3" xmlns="http://www.w3.org/2000/svg" xmlns:xlink="http://www.w3.org/1999/xlink" x="0px" y="0px"
	 viewBox="0 0 512 512" style="enable-background:new 0 0 512 512;" xml:space="preserve">
<linearGradient id="SVGID_1_" gradientUnits="userSpaceOnUse" x1="26" y1="256" x2="486" y2="256">
	<stop  offset="0" style="stop-color:#1F1F21"/>
	<stop  offset="1" style="stop-color:#1F1F21"/>
</linearGradient>
<circle style="fill:url(#SVGID_1_);" cx="256" cy="256" r="230"/>
<g>
	<path style="fill:#F7F6FF;" d="M292.333,83.433c-9.053-1.43-22.562-2.414-35.942-2.548v-0.009c-0.13,0.001-0.26,0.004-0.391,0.005
		c-0.131-0.001-0.26-0.003-0.391-0.005v0.009c-13.38,0.135-26.89,1.118-35.942,2.548c-52.513,8.301-53.131,72.252-53.131,118.411
		v37.878v2.02v28.514v8.984v30.915c0,46.159,0.618,110.11,53.131,118.411c9.052,1.431,22.562,2.414,35.942,2.549v0.009
		c0.13-0.001,0.26-0.004,0.391-0.005c0.131,0.001,0.261,0.004,0.391,0.005v-0.009c13.38-0.136,26.889-1.118,35.942-2.549
		c52.513-8.301,53.131-68.751,53.131-118.411v-30.915v-8.984v-28.514v-2.02v-37.878C345.465,152.184,344.846,91.735,292.333,83.433z
		"/>
	
		<radialGradient id="SVGID_2_" cx="356" cy="-22" r="139.0549" gradientTransform="matrix(1 0 0 -1 -100 234)" gradientUnits="userSpaceOnUse">
		<stop  offset="0" style="stop-color:#FFFFFF"/>
		<stop  offset="1" style="stop-color:#FEFEFE;stop-opacity:0"/>
	</radialGradient>
	<path style="fill:url(#SVGID_2_);" d="M292.333,83.433c-9.053-1.43-22.562-2.414-35.942-2.548v-0.009
		c-0.13,0.001-0.26,0.004-0.391,0.005c-0.131-0.001-0.26-0.003-0.391-0.005v0.009c-13.38,0.135-26.89,1.118-35.942,2.548
		c-52.513,8.301-53.131,72.252-53.131,118.411v37.878v2.02v28.514v8.984v30.915c0,46.159,0.618,110.11,53.131,118.411
		c9.052,1.431,22.562,2.414,35.942,2.549v0.009c0.13-0.001,0.26-0.004,0.391-0.005c0.131,0.001,0.261,0.004,0.391,0.005v-0.009
		c13.38-0.136,26.889-1.118,35.942-2.549c52.513-8.301,53.131-68.751,53.131-118.411v-30.915v-8.984v-28.514v-2.02v-37.878
		C345.465,152.184,344.846,91.735,292.333,83.433z"/>
	<path style="fill:#DFE3E6;" d="M184.929,114.707c-15.03,23.939-15.293,61.078-15.293,90.643v36.51v1.947v27.484v8.659v29.799
		c0,44.491,0.596,106.131,51.211,114.132c8.725,1.379,21.747,2.327,34.644,2.457v0.009c0.126-0.001,0.25-0.003,0.376-0.004
		c0.126,0.001,0.252,0.003,0.377,0.004v-0.009c12.897-0.13,25.918-1.078,34.644-2.457c50.615-8.001,40.77-62.741,40.77-110.607
		c0,0-3.246-97.979-42.694-149.534C251.675,115.007,188.616,108.835,184.929,114.707z"/>
	
		<radialGradient id="SVGID_3_" cx="355.6092" cy="164.9157" r="134.0304" gradientTransform="matrix(1 0 0 -1.8171 -100 498.232)" gradientUnits="userSpaceOnUse">
		<stop  offset="0" style="stop-color:#FFFFFF"/>
		<stop  offset="1" style="stop-color:#FEFEFE;stop-opacity:0"/>
	</radialGradient>
	<path style="fill:url(#SVGID_3_);" d="M290.888,86.454c-8.726-1.405-21.747-2.37-34.644-2.503v-0.009
		c-0.126,0.001-0.251,0.003-0.377,0.005c-0.126-0.001-0.251-0.003-0.376-0.005v0.009c-12.897,0.132-25.919,1.098-34.644,2.503
		c-50.615,8.153-51.211,70.955-51.211,116.285v37.198v1.984v28.002v8.823v30.361c0,45.33,0.596,108.133,51.211,116.285
		c8.725,1.406,21.747,2.37,34.644,2.503v0.009c0.126-0.001,0.25-0.003,0.376-0.005c0.126,0.001,0.252,0.003,0.377,0.005v-0.009
		c12.897-0.133,25.918-1.098,34.644-2.503c50.615-8.151,51.211-67.517,51.211-116.285v-30.361v-8.823v-28.002v-1.984v-37.199
		C342.099,153.97,341.503,94.606,290.888,86.454z"/>
	<path style="opacity:0.51;fill:#BFC5CB;" d="M255.998,335.807c7.904,0,14.334,6.43,14.334,14.334
		c0,7.904-6.43,14.334-14.334,14.334c-7.904,0-14.334-6.43-14.334-14.334C241.664,342.237,248.094,335.807,255.998,335.807
		 M255.998,328.833c-11.768,0-21.308,9.54-21.308,21.308c0,11.768,9.54,21.308,21.308,21.308c11.768,0,21.308-9.54,21.308-21.308
		C277.306,338.373,267.766,328.833,255.998,328.833L255.998,328.833z"/>
</g>
</svg>
