<?xml version="1.0" encoding="utf-8"?>
<!-- Generator: Adobe Illustrator 18.0.0, SVG Export Plug-In . SVG Version: 6.00 Build 0)  -->
<!DOCTYPE svg PUBLIC "-//W3C//DTD SVG 1.1//EN" "http://www.w3.org/Graphics/SVG/1.1/DTD/svg11.dtd">
<svg version="1.1" id="Layer_1" xmlns="http://www.w3.org/2000/svg" xmlns:xlink="http://www.w3.org/1999/xlink" x="0px" y="0px"
	 viewBox="0 0 512 512" style="enable-background:new 0 0 512 512;" xml:space="preserve">
<path style="fill:#EFEDED;" d="M469.6,398.1l-286,104c-2.6,1-5.4-0.4-6.4-3L39.3,120.3c-1-2.6,0.4-5.4,3-6.4L328.3,10
	c2.6-1,5.4,0.4,6.4,3l137.9,378.8C473.6,394.2,472.2,397.1,469.6,398.1z"/>
<path style="fill:#E2E2E2;" d="M441.7,433L142,485.8c-2.7,0.5-5.3-1.3-5.8-4.1l-70-397c-0.5-2.7,1.3-5.3,4.1-5.8L370,26.2
	c2.7-0.5,5.3,1.3,5.8,4.1l70,397C446.3,429.9,444.4,432.5,441.7,433z"/>
<linearGradient id="SVGID_1_" gradientUnits="userSpaceOnUse" x1="98.8" y1="256" x2="413.1031" y2="256" gradientTransform="matrix(1 0 0 -1 0 512)">
	<stop  offset="0" style="stop-color:#FF3C31"/>
	<stop  offset="1" style="stop-color:#FF3C31"/>
</linearGradient>
<path style="fill:url(#SVGID_1_);" d="M408.2,462.6H103.8c-2.8,0-5-2.2-5-5V54.4c0-2.8,2.2-5,5-5h304.3c2.8,0,5,2.2,5,5v403.1
	C413.2,460.3,410.9,462.6,408.2,462.6z"/>
<g style="opacity:0.2;">
	<path style="fill:#FFFFFF;" d="M413.1,54.4c0-2.8-2.2-5-5-5H294.3l118.8,118.8L413.1,54.4L413.1,54.4z"/>
</g>
<path id="path260" style="fill:#FFFFFF;" d="M183.7,214.6c0,7.5,2.8,14.6,7.8,20.8l0,0c-4.9,6.2-7.7,13.2-7.7,20.6l0,0
	c0,7.4,2.8,14.4,7.7,20.6l0,0c-5,6.3-7.8,13.3-7.8,20.8l0,0c0,25.4,32.3,45.9,72.2,45.9l0,0c39.9,0,72.2-20.6,72.2-45.9l0,0
	c0-7.4-2.8-14.4-7.7-20.6l0,0c5-6.2,7.8-13.3,7.8-20.8l0,0c0-7.5-2.8-14.6-7.8-20.8l0,0c4.9-6.2,7.7-13.2,7.7-20.6l0,0
	c0-25.4-32.3-45.9-72.2-45.9l0,0C216,168.6,183.7,189.2,183.7,214.6 M204.2,235.4c-2.4-2-4.6-4.2-6.3-6.5l0,0
	c-3.3-4.4-5.1-9.2-5.1-14.3l0,0c0-20,28.9-36.9,63.1-36.9l0,0c34.2,0,63.1,16.9,63.1,36.9l0,0c0,4.9-1.8,9.7-5,14.1l0,0
	c-1.7,2.3-3.8,4.5-6.2,6.6l0,0c-11.5,9.7-30.7,16.2-51.9,16.2l0,0C234.8,251.4,215.7,245,204.2,235.4 M287.1,256
	c10.7-3.3,20-8.2,27-14.3l0,0c3.3,4.4,5.1,9.2,5.1,14.3l0,0c0,5-1.8,9.8-5.1,14.3l0,0c-1.7,2.3-3.8,4.5-6.3,6.5l0,0
	c-11.5,9.6-30.6,16.1-51.7,16.1l0,0c-21.2,0-40.4-6.5-51.9-16.2l0,0c-2.4-2.1-4.5-4.3-6.2-6.6l0,0c-3.2-4.4-5-9.1-5-14.1l0,0
	c0-4.9,1.8-9.7,5-14.1l0,0c7,6,16.2,10.8,26.8,14.1l0,0c9.4,2.9,20,4.5,31.2,4.5l0,0C267.1,260.5,277.7,258.9,287.1,256
	 M192.8,297.4c0-5,1.8-9.8,5.1-14.3l0,0c13.1,11.4,34.3,18.8,58.2,18.8l0,0c23.7,0,44.8-7.3,58-18.6l0,0c3.2,4.4,5,9.1,5,14.1l0,0
	c0,20-28.9,36.9-63.1,36.9l0,0C221.7,334.3,192.8,317.4,192.8,297.4"/>
</svg>
