<?xml version="1.0" encoding="utf-8"?>
<!-- Generator: Adobe Illustrator 18.0.0, SVG Export Plug-In . SVG Version: 6.00 Build 0)  -->
<!DOCTYPE svg PUBLIC "-//W3C//DTD SVG 1.1//EN" "http://www.w3.org/Graphics/SVG/1.1/DTD/svg11.dtd">
<svg version="1.1" id="Layer_1" xmlns="http://www.w3.org/2000/svg" xmlns:xlink="http://www.w3.org/1999/xlink" x="0px" y="0px"
	 viewBox="0 0 512 512" style="enable-background:new 0 0 512 512;" xml:space="preserve">
<g>
	<path style="fill:#3A3A3A;" d="M160.923,185.166c1.139-1.523,2.313-3.017,3.522-4.482c2.418-2.931,4.975-5.741,7.658-8.425
		c4.025-4.025,8.339-7.764,12.907-11.18c6.091-4.556,12.635-8.54,19.55-11.872c13.475-6.492,28.37-10.489,44.086-11.451
		c0-0.142,0.011-0.279,0.011-0.421c0-61.375-49.932-111.307-111.307-111.307S26.043,75.96,26.043,137.336
		S75.975,248.643,137.35,248.643c0.088,0,0.174-0.007,0.262-0.007c0.475-7.59,1.637-14.996,3.474-22.133
		C144.989,211.339,151.812,197.348,160.923,185.166z"/>
	<path style="fill:#3A3A3A;" d="M185.01,351.233c-4.568-3.416-8.882-7.155-12.907-11.18c-2.684-2.684-5.24-5.496-7.658-8.425
		c-1.209-1.465-2.384-2.959-3.522-4.482c-9.111-12.182-15.935-26.172-19.836-41.337c-1.859-7.227-3.033-14.727-3.495-22.418
		c-0.081,0-0.159-0.005-0.24-0.005c-61.375,0-111.307,49.932-111.307,111.307S75.977,486,137.352,486
		s111.307-49.932,111.307-111.307c0-0.045-0.004-0.09-0.004-0.134c-15.72-0.96-30.617-4.959-44.094-11.451
		C197.645,359.771,191.101,355.787,185.01,351.233z"/>
	<path style="fill:#3A3A3A;" d="M374.385,248.607c0.088,0,0.176,0.007,0.263,0.007c61.375,0,111.307-49.932,111.307-111.307
		S436.023,26,374.648,26S263.341,75.932,263.341,137.307c0,0.15,0.011,0.299,0.011,0.45
		C322.954,141.402,370.641,189.032,374.385,248.607z"/>
	<path style="fill:#3A3A3A;" d="M263.345,374.555c0,0.036-0.002,0.07-0.002,0.106c0,61.375,49.932,111.307,111.307,111.307
		s111.307-49.932,111.307-111.307S436.025,263.354,374.65,263.354c-0.081,0-0.158,0.005-0.238,0.005
		C370.829,323.099,323.063,370.904,263.345,374.555z"/>
	<g>
		<path style="fill:#3A3A3A;" d="M249.775,145.062c-0.473,0.029-0.949,0.047-1.421,0.079
			c-55.236,3.769-99.511,47.995-103.357,103.21c-0.032,0.473-0.052,0.949-0.081,1.422h104.858V145.062z"/>
		<path style="fill:#3A3A3A;" d="M367.083,249.773c-0.029-0.484-0.048-0.969-0.082-1.451c-3.86-55.2-48.128-99.412-103.353-103.181
			c-0.473-0.032-0.949-0.05-1.422-0.079v104.711H367.083z"/>
		<path style="fill:#3A3A3A;" d="M144.897,262.223c0.029,0.484,0.047,0.967,0.079,1.449c3.714,55.356,48.06,99.733,103.402,103.498
			c0.464,0.032,0.933,0.05,1.399,0.077V262.222H144.897V262.223z"/>
		<path style="fill:#3A3A3A;" d="M262.225,367.248c0.466-0.027,0.933-0.045,1.397-0.077c55.353-3.766,99.706-48.158,103.405-103.527
			c0.032-0.473,0.05-0.948,0.077-1.421H262.225V367.248z"/>
	</g>
</g>
</svg>
