<?xml version="1.0" encoding="utf-8"?>
<!-- Generator: Adobe Illustrator 18.0.0, SVG Export Plug-In . SVG Version: 6.00 Build 0)  -->
<!DOCTYPE svg PUBLIC "-//W3C//DTD SVG 1.1//EN" "http://www.w3.org/Graphics/SVG/1.1/DTD/svg11.dtd">
<svg version="1.1" id="Layer_1" xmlns="http://www.w3.org/2000/svg" xmlns:xlink="http://www.w3.org/1999/xlink" x="0px" y="0px"
	 viewBox="0 0 512 512" style="enable-background:new 0 0 512 512;" xml:space="preserve">
<g>
	<path style="fill:#FFFFFF;" d="M214.718,96.769V55.487c0-16.285-13.202-29.487-29.487-29.487H90.872
		c-16.285,0-29.487,13.202-29.487,29.487v41.282v359.744c0,16.285,13.202,29.487,29.487,29.487h330.256
		c16.285,0,29.487-13.202,29.487-29.487V126.256c0-16.285-13.202-29.487-29.487-29.487H214.718z"/>
	<path style="fill:#228AFC;" d="M214.718,96.769H61.385V55.487C61.385,39.202,74.586,26,90.872,26h94.359
		c16.285,0,29.487,13.202,29.487,29.487V96.769z"/>
	<rect x="61.385" y="210.786" style="fill:#228AFC;" width="389.231" height="58.974"/>
</g>
</svg>
