<?xml version="1.0" encoding="utf-8"?>
<!-- Generator: Adobe Illustrator 18.0.0, SVG Export Plug-In . SVG Version: 6.00 Build 0)  -->
<!DOCTYPE svg PUBLIC "-//W3C//DTD SVG 1.1//EN" "http://www.w3.org/Graphics/SVG/1.1/DTD/svg11.dtd">
<svg version="1.1" id="Layer_1" xmlns="http://www.w3.org/2000/svg" xmlns:xlink="http://www.w3.org/1999/xlink" x="0px" y="0px"
	 viewBox="0 0 512 512" style="enable-background:new 0 0 512 512;" xml:space="preserve">
<g>
	<path style="fill:#2E6799;" d="M446,486H66c-22.1,0-40-17.9-40-40V66c0-22.1,17.9-40,40-40h380c22.1,0,40,17.9,40,40v380
		C486,468.1,468.1,486,446,486z"/>
	<g>
		<g>
			<g>
				<path d="M53.3,389.6c9.5,1.2,18.9,3.7,27.8,7.6c3.5,1.5,7,3.3,10.4,5.2c3.4,2,6.7,4.1,9.8,6.4c7.8,5.8,14.7,12.6,20.5,20.3
					c4.8,6.4,8.9,13.4,12.1,20.9c1.9,4.4,3.5,9,4.7,13.7c1.3,4.7,2.2,9.5,2.7,14.2c0.3,2.7,0.5,5.4,0.6,8.1h28.8
					c-0.1-5.2-0.6-10.4-1.5-15.7L200,462c2.7-0.7,4.3-3.5,3.5-6.1l-4.8-18.2c-0.7-2.7-3.5-4.3-6.1-3.5l-30.8,8.3
					c-4.9-12.5-11.5-23.9-19.6-33.9l22.3-22.3c2-2,2-5.1,0-7.1l-13.3-13.3c-2-2-5.1-2-7.1,0l-22.4,22.4c-10.1-8-21.2-14.4-33.2-19.2
					l8.4-31.4c0.7-2.7-0.9-5.4-3.5-6.1l-18.2-4.9c-2.7-0.7-5.4,0.9-6.1,3.5l-8.4,31.3c-11.3-1.8-23-2-34.8-0.6V390
					c0.8-0.1,1.6-0.2,2.3-0.3C36.6,388.6,45,388.6,53.3,389.6z"/>
				<path d="M110.7,471c1.3,5,2.1,10,2.4,15H142c-0.3-7.4-1.4-15-3.4-22.4c-13.4-50.2-62.4-81.4-112.5-73.8v29.3
					C63.2,411.2,100.7,433.8,110.7,471z"/>
			</g>
			<g>
				<path d="M452.6,361l-8.4-31.4c-0.7-2.7-3.5-4.3-6.1-3.5l-18.2,4.9c-2.7,0.7-4.3,3.5-3.5,6.1l8.4,31.3
					c-12.3,4.8-24,11.4-34.6,20.1l-23-23c-2-2-5.1-2-7.1,0l-13.3,13.3c-2,2-2,5.1,0,7.1l23.1,23.1c-8.3,10.5-14.8,22-19.4,34.1
					l-31.6-8.5c-2.7-0.7-5.4,0.9-6.1,3.5l-4.9,18.2c-0.7,2.7,0.9,5.4,3.5,6.1l31.8,8.5c-0.7,5-1.1,10-1.3,15.1h28.8
					c0.1-2.5,0.3-4.9,0.5-7.4c1-9.7,3.5-19.1,7.1-28c3.1-7.4,7.1-14.5,11.9-21c3-4,6.3-7.9,9.9-11.5c3.3-3.3,6.7-6.3,10.3-9
					c6.7-5.1,13.9-9.3,21.6-12.6c8.8-3.8,18.2-6.2,27.9-7.3c3.8-0.4,7.7-0.7,11.6-0.7s7.8,0.2,11.7,0.7c0.9,0.1,1.7,0.2,2.6,0.3
					v-29.1C474.8,359.2,463.6,359.4,452.6,361z"/>
				<path d="M400.3,418c-18.8,18.8-28.7,43.3-29.6,68h29c0.9-17.3,7.9-34.4,21-47.6c17.7-17.7,42.4-24.3,65.2-19.7v-29.3
					C455.5,385.1,423.6,394.6,400.3,418z"/>
			</g>
		</g>
		<g>
			<g>
				<path style="fill:#FFFFFF;" d="M198.8,432.7c-0.7-2.7-3.5-4.3-6.1-3.5l-30.8,8.3c-4.9-12.5-11.5-23.9-19.6-33.9l22.3-22.3
					c2-2,2-5.1,0-7.1l-13.3-13.3c-2-2-5.1-2-7.1,0l-22.4,22.4c-10.1-8-21.2-14.4-33.2-19.2l8.4-31.4c0.7-2.7-0.9-5.4-3.5-6.1
					l-18.2-4.9c-2.7-0.7-5.4,0.9-6.1,3.5l-8.4,31.3c-11.3-1.8-23-2-34.8-0.6V385c0.8-0.1,1.6-0.2,2.3-0.3c8.3-1.1,16.7-1.1,25-0.1
					c9.5,1.2,18.9,3.7,27.8,7.6c3.5,1.5,7,3.3,10.4,5.2c3.4,2,6.7,4.1,9.8,6.4c7.8,5.8,14.7,12.6,20.5,20.3
					c4.8,6.4,8.9,13.4,12.1,20.9c1.9,4.4,3.5,9,4.7,13.7c1.3,4.7,2.2,9.5,2.7,14.2c0.5,4.4,0.8,8.8,0.7,13.2h28.8
					c0.1-6.9-0.4-13.8-1.5-20.8l30.8-8.3c2.7-0.7,4.3-3.5,3.5-6.1L198.8,432.7z"/>
				<path style="fill:#515151;" d="M26,384.8v29.3c37.2-7.9,74.7,14.7,84.7,51.9c1.8,6.7,2.6,13.4,2.4,20H142c0.1-9-1-18.3-3.5-27.4
					C125.1,408.4,76.1,377.2,26,384.8z"/>
			</g>
			<g>
				<path style="fill:#FFFFFF;" d="M370.7,484.5c0-3.7,0.2-7.3,0.6-10.9c1-9.7,3.5-19.1,7.1-28c3.1-7.4,7.1-14.5,11.9-21
					c3-4,6.3-7.9,9.9-11.5c3.3-3.3,6.7-6.3,10.3-9c6.7-5.1,13.9-9.3,21.6-12.6c8.8-3.8,18.2-6.2,27.9-7.3c3.8-0.4,7.7-0.7,11.6-0.7
					s7.8,0.2,11.7,0.7c0.9,0.1,1.7,0.2,2.6,0.3v-29.1c-11.1-1.2-22.3-1-33.3,0.6l-8.4-31.4c-0.7-2.7-3.5-4.3-6.1-3.5l-18.2,4.9
					c-2.7,0.7-4.3,3.5-3.5,6.1l8.4,31.3c-12.3,4.8-24,11.4-34.6,20.1l-23-23c-2-2-5.1-2-7.1,0l-13.3,13.3c-2,2-2,5.1,0,7.1
					l23.1,23.1c-8.3,10.5-14.8,22-19.4,34.1l-31.6-8.5c-2.7-0.7-5.4,0.9-6.1,3.5l-4.9,18.2c-0.7,2.7,0.9,5.4,3.5,6.1l31.8,8.5
					c-0.9,6.6-1.4,13.3-1.3,20h28.9C370.7,485.5,370.7,485,370.7,484.5z"/>
				<path style="fill:#515151;" d="M420.7,433.4c17.7-17.7,42.4-24.3,65.2-19.7v-29.3c-30.4-4.3-62.3,5.2-85.6,28.6
					c-20.1,20.1-30,46.6-29.6,73h28.9C399.3,467,406.3,447.9,420.7,433.4z"/>
			</g>
		</g>
		<linearGradient id="SVGID_1_" gradientUnits="userSpaceOnUse" x1="256.0375" y1="486" x2="256.0375" y2="57">
			<stop  offset="5.100000e-03" style="stop-color:#0065BF"/>
			<stop  offset="1" style="stop-color:#00EDFF"/>
		</linearGradient>
		<path style="opacity:0.9;fill:url(#SVGID_1_);enable-background:new    ;" d="M486,94.6L486,94.6c-1.3-21-18.7-37.6-40-37.6H66
			c-21.3,0-38.6,16.6-39.9,37.5v0.1c0,0.8-0.1,1.6-0.1,2.4v349c0,0.7,0,1.4,0.1,2.1c0,0,0,0,0,0.1C27.2,469.3,44.6,486,66,486h380
			c21.4,0,38.8-16.7,39.9-37.8c0,0,0,0,0-0.1c0-0.7,0.1-1.4,0.1-2.1V97C486.1,96.2,486.1,95.4,486,94.6z"/>
		<g style="opacity:0.8;">
			<polygon style="fill:#FFFFFF;" points="486,154.5 434.2,57 431.1,57 486,160.4 			"/>
			<path style="fill:#FFFFFF;" d="M446.5,451.4l-4.2-3.4c2.2-3.2,3.4-7.1,3.4-11.3c0-3.4-0.9-6.7-2.4-9.5l42.7-35.6v-3.6l-44.2,36.8
				c-1.8-2.5-4.2-4.6-7-6.1l29.7-84.7l21.5,7.1v-2.9l-20.6-6.8l20.6-58.9v-8.4l-23.2,66.4l-49.4-16.3c0.1-0.4,0.1-0.8,0.1-1.2
				c0-2-0.7-3.8-1.8-5.3l74.3-79.3v-4l-76.3,81.4c-1.1-0.7-2.4-1.2-3.7-1.4l-3.1-94.8l83.2-5.3v-2.8l-83.3,5.3l-1.4-42.3
				c5.9-0.6,11-4.1,14-9l70.7,35.6v-3.1l-69.4-35c0.9-2.2,1.4-4.6,1.4-7.1c0-9.3-6.8-17-15.7-18.4l6-70.7h-2.8l-5.9,70.4
				c-0.1,0-0.1,0-0.2,0c-5.8,0-11,2.7-14.4,6.8l-39.7-27.9L379.9,57h-3.4L343,104.8L275,57h-4.8l71.2,50l-35.3,50.2l-41.1,5.5
				l-4-103.2c2.1-0.3,4.1-1.2,5.7-2.5h-15.1c0.3,0.2,0.5,0.4,0.8,0.6l-51.6,99c-2.3-1-4.8-1.5-7.4-1.5c-4.2,0-8.1,1.4-11.2,3.8
				l-64-73c3.3-3.4,5.4-8,5.4-13.1c0-0.6,0-1.1-0.1-1.6L210,57h-17.1L123,68.4c-0.9-3.7-2.8-6.9-5.5-9.4l1.6-2.1h-3.5l-0.3,0.3
				c-0.2-0.1-0.3-0.2-0.5-0.3H94.9c-4.1,2.6-7.1,6.6-8.2,11.4l-39.9-6.5c-1.2,0.7-2.4,1.4-3.6,2.2l43,7c0,0.5-0.1,1.1-0.1,1.6
				c0,9.4,6.9,17.1,15.9,18.4l-1.4,18.2L40.8,68.9c0.8-1.4,1.4-2.8,1.8-4.4C38,67.9,34.2,72.1,31.4,77c3.1-1.2,5.9-3.2,7.9-5.8
				l61.2,41.4l-6.6,87.1l-25.4,7L31.2,77.4c-0.7,1.2-1.3,2.4-1.8,3.7l36.4,126.4l-38.1,10.5c-0.4-1.2-1-2.4-1.7-3.5V234
				c1.8-2.8,2.8-6.2,2.8-9.8c0-1.2-0.1-2.4-0.4-3.6l38.1-10.5l15.2,52.7c-3.6,1.3-6.7,3.4-9.1,6.3L26,234.3v3.4l45,33.5
				c-2.2,3.4-3.5,7.4-3.5,11.7c0,8,4.4,14.9,10.8,18.6l-41.6,85.5c-2.4-1.1-5.1-1.8-7.9-1.8c-0.2,0-0.4,0-0.5,0L26,363.8v58.6
				c0.7,0.1,1.4,0.2,2.1,0.2v36.1c0.4,1.2,0.9,2.4,1.4,3.6v-39.7c5.9-0.2,11.2-3.2,14.4-7.7l76.1,46.7c-0.9,1.8-1.4,3.9-1.4,6
				c0,1.7,0.3,3.3,0.9,4.8L92,486h6.2l22.6-11.1c2.4,3.9,6.8,6.5,11.7,6.5c1.6,0,3.2-0.3,4.7-0.8l2.6,5.4h3.1l-3.2-6.6
				c2.9-1.8,5.1-4.6,6.1-7.9l74.1,14.1l-0.1,0.4h16.7l-13.4-2.6l18.2-89.2c0.1,0,0.3,0,0.4,0c1.9,0,3.6-0.4,5.3-1l45.9,90.8
				c-0.9,0.6-1.8,1.2-2.6,1.9h24.5c-0.7-0.6-1.4-1.1-2.1-1.6l37.1-67.9l55.2,18c-0.1,0.7-0.1,1.5-0.1,2.3c0,3.8,1.1,7.4,2.9,10.4
				L328.2,486h6.3l74.8-36.5c2.1,2.6,4.8,4.7,8,6.1L403.6,486h3l13.3-29.5c1.7,0.5,3.4,0.7,5.3,0.7c6.1,0,11.6-2.7,15.3-6.9l4.1,3.3
				L417.9,486h3.6l25.4-30.7l25.7,20.6c0.7-0.6,1.4-1.3,2-1.9l-26-20.8l37.4-45.2v-4.3L446.5,451.4z M403.2,304.6
				c-1.8,0.3-3.4,1.2-4.6,2.5L278.2,224c1.1-1.9,1.7-4.1,1.8-6.5l120.1-7.7L403.2,304.6z M343.6,108.6l39.7,27.9
				c-1.7,2.8-2.7,6.1-2.7,9.6c0,0.4,0,0.7,0.1,1.1l-70.9,9.5L343.6,108.6z M307.7,159.8l73.4-9.9c1.7,8.2,8.9,14.4,17.5,14.8
				l1.4,42.4l-120.2,7.7c-0.5-3.4-2.3-6.4-4.8-8.5L307.7,159.8z M303.9,160.3l-31.2,44.4c-1.9-1.1-4-1.7-6.2-1.8l-1.4-37.3
				L303.9,160.3z M265,231.3c0.2,0,0.5,0,0.7,0c4.4,0,8.3-2,10.9-5.1l120.5,83.1c-0.4,0.8-0.6,1.6-0.7,2.5L252.6,315L265,231.3z
				 M107.7,293.2c0.6-1,1-2.2,1.4-3.3l73.6,23.3c-0.3,1.4-0.5,2.8-0.5,4.3c0,2.5,0.5,4.8,1.4,6.9l-15,7.3L107.7,293.2z M165.7,333.2
				l-55.5,27.2l-12.8-57.8c3.5-1.5,6.5-4,8.8-7.1L165.7,333.2z M184.8,327c1.7,2.9,4.2,5.3,7.1,6.9l-4.5,9.8l-16.1-10.2L184.8,327z
				 M194.5,335c2,0.7,4.2,1.2,6.5,1.2c3.3,0,6.4-0.9,9-2.3l22.7,34.6c-0.9,0.7-1.7,1.5-2.4,2.4l-40.5-25.6L194.5,335z M249.8,315.1
				l-30.3,0.7c-0.5-5.3-3.3-10-7.3-13.1l47-72.9c1,0.5,2,0.9,3.1,1.2L249.8,315.1z M263.7,202.9c-3.9,0.5-7.3,2.6-9.5,5.7L210,182.1
				c1.3-2.5,2-5.4,2-8.4c0-0.4,0-0.7-0.1-1.1l50.4-6.8L263.7,202.9z M254.8,58.8c1.1,0.4,2.2,0.7,3.4,0.8l4,103.5l-50.6,6.8
				c-1.1-5.1-4.2-9.4-8.4-12L254.8,58.8z M208.6,184.5l44.2,26.5c-0.9,1.9-1.4,3.9-1.4,6.1c0,4.5,2.1,8.6,5.4,11.2l-47,72.9
				c-2.5-1.4-5.4-2.2-8.5-2.2l-5.6-106.7C201,191.6,205.6,188.7,208.6,184.5z M192.9,192.4l5.6,106.7c-6.8,0.9-12.5,5.4-15,11.6
				l-73.7-23.3c0.3-1.4,0.4-2.8,0.4-4.3c0-5-1.7-9.5-4.5-13.2l75.8-81.5C184.8,190.8,188.7,192.3,192.9,192.4z M104.8,91.5
				C104.8,91.5,104.8,91.5,104.8,91.5c4.2,0,8.1-1.4,11.2-3.8l64,73c-0.5,0.5-0.9,1-1.3,1.5l-75.4-51L104.8,91.5z M103.1,114.4
				l74.1,50.1c-1.6,2.7-2.5,5.9-2.5,9.3c0,1.2,0.1,2.4,0.4,3.6l-78.3,21.6L103.1,114.4z M96.4,201.9l79.3-21.8
				c0.9,2.4,2.2,4.6,3.9,6.4L104,267.7c-3.2-3.2-7.4-5.3-12.1-6L96.4,201.9z M69.2,209.4l24.4-6.7l-4.5,58.9c-0.1,0-0.2,0-0.2,0
				c-1.6,0-3.1,0.2-4.6,0.5L69.2,209.4z M43.9,393c-1.3-1.8-2.9-3.3-4.7-4.6l41.7-85.6c2.5,1,5.2,1.6,8.1,1.6c2,0,4-0.3,5.9-0.8
				l12.8,58.1L43.9,393z M121.5,459.2l-76.1-46.7c1.3-2.6,2.1-5.5,2.1-8.5c0-3.1-0.8-6-2.1-8.6l63-30.9l19.9,89.9
				C125.5,455.3,123.2,457,121.5,459.2z M136.9,454.5c-1.4-0.5-2.9-0.7-4.4-0.7c-0.5,0-1.1,0-1.6,0.1l-20-90.6l57.6-28.2l17.8,11.3
				L136.9,454.5z M220.3,482.9l-74.1-14.2c0-0.4,0.1-0.8,0.1-1.2c0-5.1-2.8-9.5-6.9-11.9l49.2-107.8l40.1,25.4c-1,2-1.6,4.2-1.6,6.6
				c0,6.9,4.9,12.7,11.3,14.2L220.3,482.9z M241.7,365.2c-2.4,0-4.7,0.6-6.8,1.7l-22.7-34.6c4.2-3.2,7-8.2,7.3-13.8l29.9-0.7
				l-7,47.4C242.2,365.3,242,365.2,241.7,365.2z M245.2,365.7l7.1-47.9l144.1-3.2c0,0.1,0,0.3,0.1,0.4l-141.9,58
				C252.7,369.4,249.3,366.7,245.2,365.7z M310.3,483.1c-2.4-1.1-5-1.7-7.7-1.7c-2.5,0-5,0.5-7.2,1.4L249.5,392
				c2.4-1.5,4.4-3.8,5.6-6.5l92.1,30.1L310.3,483.1z M348.5,413.2l-92.6-30.2c0.2-1,0.4-2.1,0.4-3.2c0-1.5-0.2-2.9-0.6-4.2l141.9-58
				c0.5,0.9,1.2,1.7,2.1,2.3L348.5,413.2z M405.5,431.8L351.2,414l50.8-92.9c0.9,0.3,1.9,0.5,2.9,0.5c0,0,0,0,0,0l15.8,95.2
				C413.3,418.6,407.4,424.4,405.5,431.8z M425.3,416.4c-0.6,0-1.2,0-1.8,0.1l-15.8-95.3c2.2-0.7,3.9-2.3,5-4.3l49.3,16.2
				l-29.6,84.5C430.1,416.9,427.7,416.4,425.3,416.4z"/>
		</g>
		<g style="opacity:0.3;">
			<g>
				<radialGradient id="SVGID_2_" cx="256.561" cy="271.1885" r="236.5159" gradientUnits="userSpaceOnUse">
					<stop  offset="0" style="stop-color:#FFFFFF;stop-opacity:0.5"/>
					<stop  offset="1" style="stop-color:#000000;stop-opacity:0"/>
				</radialGradient>
				<path style="fill:url(#SVGID_2_);" d="M485.9,448.2c0,0,0,0,0-0.1c0-0.7,0.1-1.4,0.1-2.1V331.7l-228.8-61.3L314.9,486h131
					C467.4,486,484.8,469.3,485.9,448.2z"/>
				<radialGradient id="SVGID_3_" cx="258.364" cy="273.3115" r="240.4472" gradientUnits="userSpaceOnUse">
					<stop  offset="0" style="stop-color:#FFFFFF;stop-opacity:0.5"/>
					<stop  offset="1" style="stop-color:#000000;stop-opacity:0"/>
				</radialGradient>
				<path style="fill:url(#SVGID_3_);" d="M26.1,94.5L26.1,94.5c0,0.9-0.1,1.7-0.1,2.5v112.8l230.8,61.8L199.3,57H66
					C44.7,57,27.4,73.6,26.1,94.5z"/>
			</g>
			<g>
				<radialGradient id="SVGID_4_" cx="258.1885" cy="270.9015" r="234.7816" gradientUnits="userSpaceOnUse">
					<stop  offset="0" style="stop-color:#FFFFFF;stop-opacity:0.5"/>
					<stop  offset="1" style="stop-color:#000000;stop-opacity:0"/>
				</radialGradient>
				<path style="fill:url(#SVGID_4_);" d="M486,97c0.1-0.8,0.1-1.6,0-2.4c-1.3-21-18.7-37.6-40-37.6H313.6l-57.3,213.8L486,209.3V97
					z"/>
				<radialGradient id="SVGID_5_" cx="258.774" cy="270.5985" r="244.6635" gradientUnits="userSpaceOnUse">
					<stop  offset="0" style="stop-color:#FFFFFF;stop-opacity:0.5"/>
					<stop  offset="1" style="stop-color:#000000;stop-opacity:0"/>
				</radialGradient>
				<path style="fill:url(#SVGID_5_);" d="M26,446c0,0.7,0,1.4,0.1,2.1c0,0,0,0,0,0.1C27.2,469.3,44.6,486,66,486h134l57.6-214.8
					L26,333.3V446z"/>
			</g>
		</g>
		<g style="opacity:0.3;">
			<g>
				<radialGradient id="SVGID_6_" cx="256.4154" cy="137.7194" r="262.9241" gradientUnits="userSpaceOnUse">
					<stop  offset="0" style="stop-color:#FFFFFF;stop-opacity:0.5"/>
					<stop  offset="1" style="stop-color:#000000;stop-opacity:0"/>
				</radialGradient>
				<polygon style="fill:url(#SVGID_6_);" points="486,401.1 486,136.7 257,268.9 				"/>
				<radialGradient id="SVGID_7_" cx="259.389" cy="406.3364" r="273.8537" gradientUnits="userSpaceOnUse">
					<stop  offset="0" style="stop-color:#FFFFFF;stop-opacity:0.5"/>
					<stop  offset="1" style="stop-color:#000000;stop-opacity:0"/>
				</radialGradient>
				<polygon style="fill:url(#SVGID_7_);" points="26,404.2 257.8,270.4 26,136.5 				"/>
			</g>
			<g>
				<radialGradient id="SVGID_8_" cx="135.6442" cy="270.1309" r="251.4333" gradientUnits="userSpaceOnUse">
					<stop  offset="0" style="stop-color:#FFFFFF;stop-opacity:0.5"/>
					<stop  offset="1" style="stop-color:#000000;stop-opacity:0"/>
				</radialGradient>
				<polygon style="fill:url(#SVGID_8_);" points="256.7,270 379.7,57 133.7,57 				"/>
				<radialGradient id="SVGID_9_" cx="384.5563" cy="268.6597" r="246.8663" gradientUnits="userSpaceOnUse">
					<stop  offset="0" style="stop-color:#FFFFFF;stop-opacity:0.5"/>
					<stop  offset="1" style="stop-color:#000000;stop-opacity:0"/>
				</radialGradient>
				<polygon style="fill:url(#SVGID_9_);" points="258.1,269.3 133,486 383.3,486 				"/>
			</g>
		</g>
	</g>
</g>
<g style="opacity:0.4;">
	<path d="M327.7,193.5H184.3l0,0l0,0c-39.5,0-71.6,32.1-71.6,71.6s32.1,71.5,71.6,71.5c0,0,0,0,0.2,0h143.4l0,0
		c39.5,0,71.5-32.1,71.5-71.6C399.3,225.5,367.3,193.5,327.7,193.5z M327.7,319.7c-30.2,0-54.6-24.5-54.6-54.6s24.5-54.6,54.6-54.6
		s54.6,24.5,54.6,54.6C382.3,295.3,357.9,319.7,327.7,319.7z"/>
	<path d="M327.7,222.5c-23.5,0-42.6,19.1-42.6,42.6s19.1,42.6,42.6,42.6s42.6-19.1,42.6-42.6C370.3,241.6,351.2,222.5,327.7,222.5z"
		/>
</g>
<g>
	<path style="fill:#EDEDED;" d="M327.7,184.5H184.3l0,0l0,0c-39.5,0-71.6,32.1-71.6,71.6s32.1,71.5,71.6,71.5c0,0,0,0,0.2,0h143.4
		l0,0c39.5,0,71.5-32.1,71.5-71.6C399.3,216.5,367.3,184.5,327.7,184.5z M327.7,310.7c-30.2,0-54.6-24.5-54.6-54.6
		s24.5-54.6,54.6-54.6s54.6,24.5,54.6,54.6C382.3,286.3,357.9,310.7,327.7,310.7z"/>
	<path style="fill:#EDEDED;" d="M327.7,213.5c-23.5,0-42.6,19.1-42.6,42.6s19.1,42.6,42.6,42.6s42.6-19.1,42.6-42.6
		C370.3,232.6,351.2,213.5,327.7,213.5z"/>
</g>
</svg>
