<?xml version="1.0" encoding="utf-8"?>
<!-- Generator: Adobe Illustrator 18.0.0, SVG Export Plug-In . SVG Version: 6.00 Build 0)  -->
<!DOCTYPE svg PUBLIC "-//W3C//DTD SVG 1.1//EN" "http://www.w3.org/Graphics/SVG/1.1/DTD/svg11.dtd">
<svg version="1.1" id="Layer_1" xmlns="http://www.w3.org/2000/svg" xmlns:xlink="http://www.w3.org/1999/xlink" x="0px" y="0px"
	 viewBox="0 0 512 512" style="enable-background:new 0 0 512 512;" xml:space="preserve">
<g>
	<path style="fill:#EFEDED;" d="M469.6,398.1l-286,104c-2.6,1-5.4-0.4-6.4-3L39.3,120.3c-1-2.6,0.4-5.4,3-6.4L328.3,10
		c2.6-1,5.4,0.4,6.4,3l137.9,378.8C473.6,394.2,472.2,397.1,469.6,398.1z"/>
	<path style="fill:#E2E2E2;" d="M441.7,433L142,485.8c-2.7,0.5-5.3-1.3-5.8-4.1l-70-397c-0.5-2.7,1.3-5.3,4.1-5.8L370,26.2
		c2.7-0.5,5.3,1.3,5.8,4.1l70,397C446.3,429.9,444.4,432.5,441.7,433z"/>
	<path style="fill:#CEC7BA;" d="M408.2,462.6H103.8c-2.8,0-5-2.2-5-5V54.4c0-2.8,2.2-5,5-5h304.3c2.8,0,5,2.2,5,5v403.1
		C413.2,460.3,410.9,462.6,408.2,462.6z"/>
	<path style="opacity:0.2;fill:#FFFFFF;enable-background:new    ;" d="M98.8,54.4v93.8c54-0.7,97.6-44.7,97.6-98.8h-92.6
		C101.1,49.4,98.8,51.5,98.8,54.4z"/>
	<path style="opacity:0.2;fill:#FFFFFF;enable-background:new    ;" d="M98.8,54.4v69.2c40.4-0.7,73-33.6,73-74.2h-68
		C101.1,49.4,98.8,51.5,98.8,54.4z"/>
	<path style="opacity:0.2;fill:#FFFFFF;enable-background:new    ;" d="M98.8,54.4V99c26.8-0.7,48.4-22.6,48.4-49.6h-43.4
		C101.1,49.4,98.8,51.5,98.8,54.4z"/>
</g>
<g id="g244">
	<g id="g246">
		<g id="g252">
			<g id="g254">
				<path id="path264" style="fill:#FFFFFF;" d="M183.1,326.9H327V183.1H183.1V326.9L183.1,326.9z M194.1,194.1h55.4v55.4h-55.4
					V194.1z M260.5,194.1h55.4v55.4h-55.4V194.1z M194.1,260.5h55.4v55.4h-55.4V260.5z M260.5,260.5h55.4v55.4h-55.4V260.5z"/>
			</g>
		</g>
	</g>
</g>
</svg>
