<?xml version="1.0" encoding="utf-8"?>
<!-- Generator: Adobe Illustrator 18.0.0, SVG Export Plug-In . SVG Version: 6.00 Build 0)  -->
<!DOCTYPE svg PUBLIC "-//W3C//DTD SVG 1.1//EN" "http://www.w3.org/Graphics/SVG/1.1/DTD/svg11.dtd">
<svg version="1.1" id="Layer_1" xmlns="http://www.w3.org/2000/svg" xmlns:xlink="http://www.w3.org/1999/xlink" x="0px" y="0px"
	 viewBox="0 0 512 512" style="enable-background:new 0 0 512 512;" xml:space="preserve">
<path style="fill:#EFEDED;" d="M469.6,398.1l-286,104c-2.6,1-5.4-0.4-6.4-3L39.3,120.3c-1-2.6,0.4-5.4,3-6.4L328.3,10
	c2.6-1,5.4,0.4,6.4,3l137.9,378.8C473.6,394.2,472.2,397.1,469.6,398.1z"/>
<path style="fill:#E2E2E2;" d="M441.7,433L142,485.8c-2.7,0.5-5.3-1.3-5.8-4.1l-70-397c-0.5-2.7,1.3-5.3,4.1-5.8L370,26.2
	c2.7-0.5,5.3,1.3,5.8,4.1l70,397C446.3,429.9,444.4,432.5,441.7,433z"/>
<path style="fill:#333333;" d="M408.2,462.6H103.8c-2.8,0-5-2.2-5-5V54.4c0-2.8,2.2-5,5-5h304.3c2.8,0,5,2.2,5,5v403.1
	C413.2,460.3,410.9,462.6,408.2,462.6z"/>
<path style="fill:#FFFFFF;" d="M357.8,418.3v-4l12.1,0v4v-2l0,2L357.8,418.3z M347.8,418.3h-12.1v-4h12.1V418.3z M325.7,418.3h-12.1
	v-4h12.1V418.3z M303.6,418.3h-12.1v-4h12.1V418.3z M281.5,418.3h-12.1v-4h12.1V418.3z M259.4,418.3h-12.1v-4h12.1V418.3z
	 M237.3,418.3h-12.1v-4h12.1V418.3z M215.2,418.3h-12.1v-4h12.1V418.3z M193.1,418.3h-12.1v-4h12.1V418.3z M171,418.3H159v-4H171
	V418.3z M148.9,418.3h-6.7c-2.8,0-5.2-2-5.7-4.9l3.9-0.7c0.2,0.9,0.9,1.5,1.7,1.5h6.7V418.3z M375.5,408.2h-4v-12.1h4V408.2z
	 M140.5,403h-4V391h4V403z M375.5,386.1h-4v-12.1h4V386.1z M140.5,380.9h-4v-12.1h4V380.9z M375.5,364h-4V352h4V364z M140.5,358.8
	h-4v-12.1h4V358.8z M375.5,341.9h-4v-12.1h4V341.9z M140.5,336.8h-4v-12.1h4V336.8z M375.5,319.8h-4v-12.1h4V319.8z M140.5,314.7h-4
	v-12.1h4V314.7z M375.5,297.8h-4v-12.1h4V297.8z M140.5,292.6h-4v-12.1h4V292.6z M375.5,275.7h-4v-12.1h4V275.7z M140.5,270.5h-4
	v-12.1h4V270.5z M375.5,253.6h-4v-12.1h4V253.6z M140.5,248.4h-4v-12.1h4V248.4z M375.5,231.5h-4v-12.1h4V231.5z M140.5,226.3h-4
	v-12.1h4V226.3z M375.5,209.4h-4v-12.1h4V209.4z M140.5,204.2h-4v-12.1h4V204.2z M375.5,187.3h-4v-12.1h4V187.3z M140.5,182.1h-4
	V170h4V182.1z M375.5,165.2h-4v-12.1h4V165.2z M140.5,160h-4v-12.1h4V160z M375.5,143.1h-4V131h4V143.1z M140.5,137.9h-4v-12.1h4
	V137.9z M375.5,121h-4v-12.1h4V121z M140.5,115.8h-4v-12.1h4V115.8z M371.5,99.2c-0.2-0.9-0.9-1.5-1.7-1.5H363v-4h6.8
	c2.8,0,5.2,2,5.7,4.8L371.5,99.2z M353,97.7h-12.1v-4H353V97.7z M330.9,97.7h-12.1v-4h12.1V97.7z M308.8,97.7h-12.1v-4h12.1V97.7z
	 M286.7,97.7h-12.1v-4h12.1V97.7z M264.6,97.7h-12.1v-4h12.1V97.7z M242.5,97.7h-12.1v-4h12.1V97.7z M220.4,97.7h-12.1v-4h12.1V97.7
	z M198.3,97.7h-12.1v-4h12.1V97.7z M176.2,97.7h-12.1v-4h12.1V97.7z M154.1,97.7h-12l-0.2-4l0.2,0h12V97.7z"/>
<path style="opacity:0.1;" d="M98.9,54.3v93.8c54-0.7,97.6-44.7,97.6-98.8h-92.6C101.2,49.3,98.9,51.4,98.9,54.3z"/>
<path style="opacity:0.1;" d="M98.9,54.3v69.2c40.4-0.7,73-33.6,73-74.2h-68C101.2,49.3,98.9,51.4,98.9,54.3z"/>
<path style="opacity:0.2;" d="M98.9,54.3v44.6c26.8-0.7,48.4-22.6,48.4-49.6h-43.4C101.2,49.3,98.9,51.4,98.9,54.3z"/>
</svg>
