<?xml version="1.0" encoding="utf-8"?>
<!-- Generator: Adobe Illustrator 18.0.0, SVG Export Plug-In . SVG Version: 6.00 Build 0)  -->
<!DOCTYPE svg PUBLIC "-//W3C//DTD SVG 1.1//EN" "http://www.w3.org/Graphics/SVG/1.1/DTD/svg11.dtd">
<svg version="1.1" id="Layer_1" xmlns="http://www.w3.org/2000/svg" xmlns:xlink="http://www.w3.org/1999/xlink" x="0px" y="0px"
	 viewBox="0 0 512 512" style="enable-background:new 0 0 512 512;" xml:space="preserve">
<g>
	<g style="opacity:0.4;">
		<g>
			<path style="fill:#050505;" d="M248.922,254.042H31.693c-2.75,0-5-2.25-5-5V31.813c0-2.75,2.25-5,5-5h217.229c2.75,0,5,2.25,5,5
				v217.229C253.922,251.792,251.672,254.042,248.922,254.042z"/>
			<path style="fill:#050505;" d="M248.922,486.813H31.693c-2.75,0-5-2.25-5-5V264.584c0-2.75,2.25-5,5-5h217.229c2.75,0,5,2.25,5,5
				v217.229C253.922,484.563,251.672,486.813,248.922,486.813z"/>
		</g>
		<g>
			<path style="fill:#050505;" d="M480.307,254.042H263.078c-2.75,0-5-2.25-5-5V31.813c0-2.75,2.25-5,5-5h217.229c2.75,0,5,2.25,5,5
				v217.229C485.307,251.792,483.057,254.042,480.307,254.042z"/>
			<path style="fill:#050505;" d="M480.307,486.813H263.078c-2.75,0-5-2.25-5-5V264.584c0-2.75,2.25-5,5-5h217.229
				c2.75,0,5,2.25,5,5v217.229C485.307,484.563,483.057,486.813,480.307,486.813z"/>
		</g>
	</g>
	<g>
		<g>
			<linearGradient id="SVGID_1_" gradientUnits="userSpaceOnUse" x1="252.4529" y1="249.5729" x2="28.1615" y2="25.2815">
				<stop  offset="0" style="stop-color:#CCCCCC"/>
				<stop  offset="0.1798" style="stop-color:#DEDEDE"/>
				<stop  offset="0.4383" style="stop-color:#F0F0F0"/>
				<stop  offset="0.7071" style="stop-color:#FBFBFB"/>
				<stop  offset="1" style="stop-color:#FFFFFF"/>
			</linearGradient>
			<path style="fill:url(#SVGID_1_);" d="M248.922,251.042H31.693c-2.75,0-5-2.25-5-5V28.813c0-2.75,2.25-5,5-5h217.229
				c2.75,0,5,2.25,5,5v217.229C253.922,248.792,251.672,251.042,248.922,251.042z"/>
			<linearGradient id="SVGID_2_" gradientUnits="userSpaceOnUse" x1="252.4529" y1="482.344" x2="28.1615" y2="258.0526">
				<stop  offset="0" style="stop-color:#CCCCCC"/>
				<stop  offset="0.1798" style="stop-color:#DEDEDE"/>
				<stop  offset="0.4383" style="stop-color:#F0F0F0"/>
				<stop  offset="0.7071" style="stop-color:#FBFBFB"/>
				<stop  offset="1" style="stop-color:#FFFFFF"/>
			</linearGradient>
			<path style="fill:url(#SVGID_2_);" d="M248.922,483.813H31.693c-2.75,0-5-2.25-5-5V261.584c0-2.75,2.25-5,5-5h217.229
				c2.75,0,5,2.25,5,5v217.229C253.922,481.563,251.672,483.813,248.922,483.813z"/>
		</g>
		<g>
			<linearGradient id="SVGID_3_" gradientUnits="userSpaceOnUse" x1="483.8385" y1="249.5729" x2="259.5471" y2="25.2815">
				<stop  offset="0" style="stop-color:#CCCCCC"/>
				<stop  offset="0.1798" style="stop-color:#DEDEDE"/>
				<stop  offset="0.4383" style="stop-color:#F0F0F0"/>
				<stop  offset="0.7071" style="stop-color:#FBFBFB"/>
				<stop  offset="1" style="stop-color:#FFFFFF"/>
			</linearGradient>
			<path style="fill:url(#SVGID_3_);" d="M480.307,251.042H263.078c-2.75,0-5-2.25-5-5V28.813c0-2.75,2.25-5,5-5h217.229
				c2.75,0,5,2.25,5,5v217.229C485.307,248.792,483.057,251.042,480.307,251.042z"/>
			<linearGradient id="SVGID_4_" gradientUnits="userSpaceOnUse" x1="483.8385" y1="482.344" x2="259.5471" y2="258.0526">
				<stop  offset="0" style="stop-color:#CCCCCC"/>
				<stop  offset="0.1798" style="stop-color:#DEDEDE"/>
				<stop  offset="0.4383" style="stop-color:#F0F0F0"/>
				<stop  offset="0.7071" style="stop-color:#FBFBFB"/>
				<stop  offset="1" style="stop-color:#FFFFFF"/>
			</linearGradient>
			<path style="fill:url(#SVGID_4_);" d="M480.307,483.813H263.078c-2.75,0-5-2.25-5-5V261.584c0-2.75,2.25-5,5-5h217.229
				c2.75,0,5,2.25,5,5v217.229C485.307,481.563,483.057,483.813,480.307,483.813z"/>
		</g>
	</g>
	<g>
		<path style="fill:#D6220B;" d="M240.646,206.798c3.461,8.779,7.175,17.463,11.281,25.972c0.649,1.334,1.329,2.656,1.995,3.983
			V205.12c-0.638-1.569-1.303-3.125-1.911-4.706c-1.157-3.074-2.259-6.167-3.308-9.28c-1.02-3.094-1.989-6.204-2.909-9.329
			c0.811-3.876,1.673-7.741,2.456-11.622c0.714-3.925,1.545-7.83,2.163-11.773c0.657-3.936,1.313-7.873,1.834-11.83
			c0.596-3.947,1.026-7.916,1.499-11.879c0.058-0.59,0.117-1.181,0.176-1.771V87.336c-4.635,20.754-9.751,41.41-15.167,61.978
			c-2.813-16.18-4.489-32.54-5.713-48.935l-0.97-13.174c-0.148-2.206-0.217-4.351-0.211-6.539c0.003-2.177,0.1-4.349,0.348-6.489
			c0.231-2.141,0.633-4.26,1.327-6.231c0.698-1.936,1.752-3.81,3.336-4.749c1.556-0.972,3.585-0.812,5.384,0.036
			c1.769,0.82,3.52,2.26,4.395,3.819c0.063,0.111,0.146,0.221,0.245,0.313l0.013,0.012c0.378,0.356,0.742,0.749,1.07,1.213
			c0.318,0.469,0.634,0.951,0.899,1.481c0.553,1.038,1.018,2.155,1.42,3.3c0.81,2.281,1.43,4.697,1.881,7.069l0.006,0.032
			c0.106,0.547,0.614,0.932,1.179,0.875c0.218-0.022,0.401-0.122,0.559-0.249v-4.114c-0.375-2.445-0.885-4.85-1.535-7.247
			c-0.967-3.399-2.199-6.785-4.192-9.861c-0.952-1.515-2.355-2.993-3.619-4.098c-1.414-1.222-2.929-2.291-4.758-2.993
			c-1.802-0.709-3.995-0.835-5.89-0.143c-1.904,0.669-3.414,1.907-4.703,3.211c-1.317,1.308-2.359,2.781-3.368,4.26
			c-0.471,0.785-0.944,1.447-1.412,2.334c-0.387,0.783-0.808,1.518-1.167,2.341c-1.505,3.403-2.346,6.766-3.172,10.212
			c-0.722,3.442-1.336,6.903-1.721,10.383c-0.441,3.475-0.711,6.964-0.889,10.455c-0.186,3.49-0.265,6.986-0.23,10.478
			c-0.012,1.747,0.04,3.493,0.106,5.238c0.043,1.746,0.121,3.491,0.247,5.233c0.189,3.488,0.523,6.967,0.913,10.439
			c0.388,3.479,0.919,6.916,1.484,10.393c1.239,6.873,2.848,13.667,4.612,20.401c1.73,6.578,3.636,13.106,5.663,19.593
			l-7.494,24.839l-3.809,12.626l-1.904,6.313c-0.621,2.042-1.409,4.15-2.105,6.222c-1.419,4.171-2.853,8.333-4.477,12.383
			c-1.413,3.697-2.839,7.39-4.393,11.045h19.936C231.549,236.514,236.46,221.762,240.646,206.798z"/>
		<path style="fill:#D6220B;" d="M194.873,276.207c-7.543,15.849-15.79,31.368-24.48,46.637c-4.349,7.633-8.8,15.209-13.354,22.726
			c-4.548,7.52-9.172,14.996-13.886,22.419c-4.692,7.436-9.469,14.821-14.252,22.209c-2.414,3.666-4.729,7.493-7.296,10.838
			c-2.598,3.448-5.417,6.754-8.366,9.945c-5.907,6.379-12.327,12.321-19.079,17.811c-3.377,2.742-6.856,5.359-10.446,7.748
			c-1.798,1.183-3.622,2.321-5.477,3.31c-0.927,0.483-1.861,0.942-2.779,1.304c-0.818,0.338-1.706,0.571-2.226,0.606l-0.029-0.078
			c-0.043-0.124-0.107-0.269-0.134-0.376l0.036-0.167c0.015-0.107,0.008-0.205-0.02-0.313l0.081-0.607
			c0.008-0.391,0.162-0.849,0.283-1.294c0.548-1.805,1.505-3.696,2.554-5.535c2.132-3.691,4.634-7.3,7.112-10.915l7.507-10.881
			c1.24-1.784,2.476-3.762,3.696-5.406c0.647-0.884,1.28-1.804,1.937-2.659l2.021-2.418c5.567-6.479,12.217-12.222,19.019-17.628
			c6.866-5.347,14.054-10.416,21.42-14.978l0.111-0.068c0.608-0.379,1.01-1.056,1.004-1.825c-0.009-1.175-0.97-2.121-2.145-2.111
			c-0.981,0.008-1.491,0.111-2.172,0.218c-0.623,0.124-1.253,0.241-1.839,0.412c-1.207,0.298-2.341,0.7-3.479,1.098
			c-2.241,0.849-4.424,1.787-6.513,2.865c-4.203,2.117-8.219,4.507-12.074,7.1c-7.745,5.144-15.009,10.885-22.03,16.874
			l-2.631,2.249l-0.658,0.562l-0.68,0.613l-1.264,1.165c-1.679,1.573-3.388,3.063-5.042,4.703l-4.893,5.074
			c-1.503,1.802-3.052,3.56-4.512,5.403l-2.066,2.88c-0.706,0.946-1.375,1.922-1.948,2.977l-1.807,3.091l-1.487,3.308
			c-1.808,4.461-2.869,9.586-1.729,14.678c1.193,5.077,4.733,9.399,9.131,11.897c1.926,1.133,4.2,2.404,6.677,3.073
			c2.47,0.706,5.095,0.857,7.587,0.55c5.025-0.6,9.499-2.717,13.564-5.14c4.066-2.472,7.747-5.398,11.275-8.455
			c6.964-6.213,13.21-13.075,19.113-20.172c5.88-7.118,11.48-14.446,16.797-21.96c5.338-7.5,10.491-15.121,15.475-22.846
			c4.995-7.718,9.872-15.508,14.603-23.382c2.386-3.925,4.748-7.864,7.055-11.835c2.32-3.946,4.673-7.931,6.909-11.927
			c4.548-7.96,8.9-16.118,13.059-24.305c8.049-15.867,15.354-32.118,21.843-48.687h-20.164c-1.088,2.576-2.191,5.147-3.376,7.683
			C198.585,268.257,196.825,272.275,194.873,276.207z"/>
		<path style="fill:#D6220B;" d="M247.599,317.343l-8.466,2.415l-8.379,2.702l-8.271,3.019c-2.712,1.123-5.472,2.131-8.144,3.35
			c-2.694,1.166-5.37,2.374-8.003,3.677c-2.656,1.252-5.245,2.645-7.83,4.039c-2.575,1.416-5.116,2.894-7.606,4.461
			c-2.498,1.566-4.922,3.199-7.293,5.034c-0.245,0.19-0.359,0.521-0.26,0.834c0.127,0.402,0.556,0.624,0.958,0.497l0.021-0.007
			c12.054-3.822,24.243-7.303,36.472-10.582c6.122-1.618,12.252-3.206,18.401-4.717c3.067-0.786,6.157-1.48,9.235-2.223
			c1.825-0.44,3.657-0.847,5.487-1.266v-12.793L247.599,317.343z"/>
		<path style="fill:#D6220B;" d="M274.886,243.885c-1.915-2.667-3.723-5.411-5.469-8.191c-3.493-5.561-6.68-11.313-9.574-17.209
			c-0.603-1.234-1.186-2.477-1.765-3.721v27.214c0,4.985,4.079,9.064,9.064,9.064h13.123c-0.842-1.049-1.669-2.107-2.472-3.183
			C276.792,246.559,275.82,245.237,274.886,243.885z"/>
		<path style="fill:#D6220B;" d="M265.162,256.819c0.961,1.517,1.908,3.043,2.919,4.531c1.548,2.266,3.129,4.514,4.824,6.683
			c0.821,1.103,1.688,2.173,2.578,3.226c0.87,1.072,1.779,2.134,2.679,3.131c3.665,4.12,7.597,7.951,11.682,11.611
			c7.491,6.663,15.537,12.642,23.871,18.159l-31.711,5.961l-8.624,1.621c-2.855,0.552-5.78,1.049-8.632,1.67
			c-2.222,0.474-4.446,0.923-6.668,1.404v12.805c6.045-1.381,12.114-2.647,18.186-3.899c3.097-0.66,6.216-1.207,9.323-1.817
			c3.11-0.594,6.217-1.207,9.341-1.722l9.361-1.614l9.389-1.437c3.128-0.492,6.261-0.946,9.405-1.322l9.316-1.192
			c9.586,5.262,19.422,10.072,29.527,14.253c10.128,4.219,20.507,7.862,31.112,10.698c2.648,0.718,5.317,1.364,7.997,1.953
			c2.673,0.63,5.399,1.04,8.09,1.52c2.684,0.551,5.453,0.678,8.175,1.034c1.367,0.142,2.744,0.142,4.116,0.22
			c1.373,0.06,2.745,0.146,4.12,0.065c1.374-0.05,2.75-0.059,4.121-0.142l4.103-0.44c1.361-0.191,2.706-0.499,4.06-0.744
			c1.347-0.28,2.657-0.724,3.987-1.079c2.591-0.921,5.174-1.946,7.487-3.472c2.306-1.5,4.513-3.247,6.048-5.622
			c0.016-0.025,0.026-0.055,0.026-0.088v-0.012v-0.097c0-0.068-0.035-0.134-0.097-0.172c-0.095-0.058-0.22-0.028-0.278,0.067
			l-0.02,0.033c-0.465,0.76-1.453,1.31-2.368,1.696c-0.951,0.376-1.938,0.68-2.951,0.883c-2.019,0.434-4.09,0.641-6.161,0.729
			c-2.071,0.112-4.151,0.093-6.227,0.015c-2.074-0.054-4.156-0.206-6.216-0.402c-2.075-0.208-4.108-0.572-6.153-0.963
			c-2.039-0.398-4.073-0.834-6.092-1.335c-4.046-0.963-8.053-2.089-12.035-3.294c-7.962-2.42-15.819-5.185-23.562-8.237
			c-3.867-1.54-7.708-3.14-11.523-4.803c-3.691-1.627-7.349-3.325-10.989-5.065l11.089-0.691c3.829-0.155,7.656-0.369,11.487-0.476
			c3.831-0.078,7.662-0.226,11.494-0.195c3.833-0.042,7.664,0.036,11.495,0.135c1.916,0.025,3.828,0.167,5.743,0.245
			c1.915,0.073,3.826,0.211,5.736,0.371c1.911,0.137,3.821,0.295,5.723,0.529c1.906,0.195,3.809,0.422,5.701,0.726
			c1.901,0.249,3.783,0.607,5.664,0.972c1.88,0.363,3.745,0.818,5.592,1.32c1.848,0.509,3.667,1.114,5.444,1.833
			c1.753,0.762,3.494,1.599,5.001,2.793l0.002,0.001c0.002,0.002,0.004,0.004,0.007,0.006c0.871,0.737,1.718,1.503,2.474,2.358
			c0.775,0.842,1.445,1.773,2.061,2.735c1.164,1.954,2.047,4.14,2.183,6.427l0.004,0.011l0.02,0
			c0.051-0.053,0.091-0.115,0.142-0.169c0.214-0.227,0.647-0.708,1.179-1.407c0.127-0.167,0.25-0.335,0.372-0.506
			c0.29-0.405,0.59-0.864,0.891-1.368c0.065-0.109,0.144-0.209,0.207-0.318c0.386-0.68,0.753-1.377,1.031-2.11
			c0.099-0.227,0.174-0.462,0.256-0.696c0.001-0.004,0.003-0.008,0.004-0.012c0.175-0.503,0.33-1.013,0.462-1.527
			c0.172-0.767,0.288-1.542,0.31-2.329c0.051-0.391-0.01-0.783-0.026-1.175c-0.023-0.392-0.036-0.785-0.14-1.166l-0.247-1.151
			l-0.414-1.103c-0.042-0.128-0.117-0.241-0.171-0.364c-0.03-0.066-0.061-0.131-0.093-0.197c-0.254-0.517-0.556-1.012-0.816-1.527
			l0.001,0.002c-1.194-2.281-2.664-4.478-4.664-6.141c-0.265-0.22-0.548-0.415-0.824-0.621c-0.139-0.106-0.275-0.212-0.42-0.317
			c-0.225-0.16-0.453-0.315-0.684-0.466c-0.21-0.138-0.432-0.274-0.656-0.409c-1.308-0.795-2.686-1.476-4.117-2.023
			c-1.189-0.509-2.453-0.813-3.675-1.229c-1.241-0.356-2.511-0.608-3.765-0.917c-2.534-0.49-5.077-0.979-7.646-1.246
			c-2.561-0.346-5.133-0.574-7.71-0.755c-2.573-0.244-5.156-0.298-7.735-0.435c-2.579-0.154-5.163-0.133-7.744-0.205
			c-2.582-0.075-5.164-0.043-7.746-0.039c-5.165-0.029-10.327,0.156-15.491,0.249l-15.483,0.499
			c-10.302,0.387-20.605,0.88-30.881,1.766c-11.372-6.559-22.328-13.864-32.559-22.088c-2.562-2.056-5.081-4.168-7.532-6.354
			c-2.463-2.173-4.876-4.405-7.206-6.719c-2.353-2.291-4.627-4.664-6.827-7.101c-0.799-0.875-1.573-1.77-2.348-2.664h-17.71
			C266.46,256.584,265.801,256.674,265.162,256.819z M457.6,330.761c-0.037-0.483-0.104-0.962-0.202-1.434
			C457.549,330.041,457.588,330.535,457.6,330.761z M457.318,328.989c-0.097-0.409-0.214-0.813-0.35-1.212
			C457.104,328.175,457.221,328.579,457.318,328.989z M456.825,327.37c-0.161-0.429-0.338-0.851-0.534-1.265
			C456.487,326.518,456.664,326.941,456.825,327.37z M456.147,325.813c-0.179-0.36-0.374-0.712-0.574-1.059
			C455.774,325.101,455.968,325.453,456.147,325.813z M455.219,324.18c-0.219-0.332-0.443-0.661-0.678-0.982
			C454.776,323.519,455,323.848,455.219,324.18z M454.325,322.915c-0.281-0.369-0.575-0.727-0.887-1.071
			C453.75,322.188,454.044,322.547,454.325,322.915z M453.307,321.694c-0.746-0.834-1.577-1.586-2.432-2.306
			C451.814,320.152,452.611,320.926,453.307,321.694z M442.977,315.515c0.137,0.046,0.274,0.092,0.411,0.139
			c0.858,0.293,1.66,0.588,2.384,0.886c0.032,0.013,0.064,0.023,0.096,0.036c0.093,0.041,0.185,0.085,0.278,0.126
			c2.129,0.907,3.678,1.822,4.718,2.678c-1.424-1.134-3.061-1.945-4.718-2.678c-0.126-0.054-0.243-0.108-0.374-0.161
			c-0.786-0.318-1.582-0.611-2.384-0.886C443.253,315.607,443.116,315.561,442.977,315.515c-0.828-0.276-1.661-0.535-2.502-0.77
			C441.373,314.997,442.193,315.255,442.977,315.515z M440.368,314.715c-0.89-0.243-1.783-0.475-2.68-0.692
			C438.585,314.24,439.479,314.472,440.368,314.715z M437.443,313.968c-0.74-0.176-1.482-0.336-2.226-0.487
			C435.961,313.632,436.704,313.793,437.443,313.968z M434.309,313.299c-0.38-0.074-0.761-0.145-1.141-0.216
			C433.549,313.154,433.929,313.225,434.309,313.299z M429.147,312.411c-1.663-0.247-3.432-0.478-5.315-0.688
			C425.609,311.912,427.382,312.124,429.147,312.411z M422.382,311.573c-1.039-0.115-2.081-0.21-3.123-0.295
			C420.302,311.363,421.343,311.458,422.382,311.573z M414.936,310.947c-0.164-0.011-0.328-0.022-0.491-0.033
			C414.608,310.924,414.772,310.935,414.936,310.947z"/>
	</g>
</g>
</svg>
