<?xml version="1.0" encoding="utf-8"?>
<!-- Generator: Adobe Illustrator 18.0.0, SVG Export Plug-In . SVG Version: 6.00 Build 0)  -->
<!DOCTYPE svg PUBLIC "-//W3C//DTD SVG 1.1//EN" "http://www.w3.org/Graphics/SVG/1.1/DTD/svg11.dtd">
<svg version="1.1" id="Layer_3" xmlns="http://www.w3.org/2000/svg" xmlns:xlink="http://www.w3.org/1999/xlink" x="0px" y="0px"
	 viewBox="0 0 512 512" style="enable-background:new 0 0 512 512;" xml:space="preserve">
<g>
	<g>
		<path style="opacity:0.4;" d="M196.883,97.706C102.507,97.706,26,172.53,26,264.83c0,52.555,24.812,99.434,63.595,130.071
			l-21.874,37.053h129.162c94.376,0,170.883-74.824,170.883-167.124S291.259,97.706,196.883,97.706z"/>
		<path style="fill:#FFFFFF;" d="M195.286,80.046C101.792,80.046,26,155.838,26,249.332c0,53.235,24.58,100.721,63.001,131.754
			l-21.67,37.532h127.955c93.494,0,169.286-75.792,169.286-169.286S288.78,80.046,195.286,80.046z"/>
	</g>
	<g>
		<path style="opacity:0.4;" d="M315.117,97.706C409.493,97.706,486,172.53,486,264.83c0,52.555-24.812,99.434-63.595,130.071
			l21.874,37.053H315.117c-94.376,0-170.883-74.824-170.883-167.124S220.741,97.706,315.117,97.706z"/>
		<radialGradient id="SVGID_1_" cx="315.1169" cy="249.8314" r="169.2858" gradientUnits="userSpaceOnUse">
			<stop  offset="0" style="stop-color:#AE3FFF"/>
			<stop  offset="1" style="stop-color:#6F2AFF"/>
		</radialGradient>
		<path style="fill:url(#SVGID_1_);" d="M315.117,80.546c93.494,0,169.286,75.792,169.286,169.286
			c0,53.235-24.58,100.721-63.001,131.754l21.67,37.532H315.117c-93.494,0-169.286-75.792-169.286-169.286
			S221.623,80.546,315.117,80.546z"/>
		<g>
			<g>
				<g>
					<circle style="fill:#FFFFFF;" cx="244.833" cy="245.343" r="49.189"/>
					<path d="M282.9,244.846c0,20.779-16.845,0-37.624,0s-37.624,20.779-37.624,0s16.845-37.624,37.624-37.624
						S282.9,224.066,282.9,244.846z"/>
				</g>
				<g>
					<circle style="fill:#FFFFFF;" cx="391.306" cy="245.343" r="49.189"/>
					<path d="M429.372,244.846c0,20.779-16.845,0-37.624,0s-37.624,20.779-37.624,0s16.845-37.624,37.624-37.624
						S429.372,224.066,429.372,244.846z"/>
				</g>
			</g>
			<g>
				<path style="fill:#FFD400;" d="M274.275,314.157l41.731,41.402c1.142,1.134,2.985,1.134,4.128,0l41.731-41.402
					c1.857-1.843,0.552-5.011-2.064-5.011h-83.461C273.723,309.146,272.418,312.314,274.275,314.157z"/>
				<path style="fill:#F9E075;" d="M275.831,312.809l41.291,22.888c0.589,0.327,1.305,0.327,1.894,0l41.291-22.888
					c1.764-0.978,1.07-3.662-0.947-3.662h-82.582C274.762,309.146,274.067,311.831,275.831,312.809z"/>
			</g>
		</g>
	</g>
</g>
</svg>
