<?xml version="1.0" encoding="utf-8"?>
<!-- Generator: Adobe Illustrator 18.0.0, SVG Export Plug-In . SVG Version: 6.00 Build 0)  -->
<!DOCTYPE svg PUBLIC "-//W3C//DTD SVG 1.1//EN" "http://www.w3.org/Graphics/SVG/1.1/DTD/svg11.dtd">
<svg version="1.1" id="Layer_1" xmlns="http://www.w3.org/2000/svg" xmlns:xlink="http://www.w3.org/1999/xlink" x="0px" y="0px"
	 viewBox="0 0 512 512" style="enable-background:new 0 0 512 512;" xml:space="preserve">
<path style="fill:#282828;" d="M446,486H66c-22.091,0-40-17.909-40-40V66c0-22.091,17.909-40,40-40h380c22.091,0,40,17.909,40,40
	v380C486,468.091,468.091,486,446,486z"/>
<g>
	<g>
		<path style="fill:#9C56B8;" d="M115.683,414.98H79.814c-18.938,0-34.29-15.352-34.29-34.29V79.794
			c0-18.938,15.352-34.29,34.29-34.29h35.869V414.98z"/>
		<rect x="115.683" y="45.504" style="fill:#2D98E0;" width="70.159" height="369.476"/>
		<rect x="185.841" y="45.504" style="fill:#00BD9B;" width="70.159" height="369.476"/>
		<rect x="256" y="45.504" style="fill:#51D88B;" width="70.159" height="369.476"/>
		<rect x="326.159" y="45.504" style="fill:#F1C50E;" width="70.159" height="369.476"/>
		<path style="fill:#E84C3D;" d="M432.186,414.98h-35.869V45.504h35.869c18.938,0,34.29,15.352,34.29,34.29V380.69
			C466.476,399.628,451.124,414.98,432.186,414.98z"/>
	</g>
	<path style="opacity:0.3;fill:#FFFFFF;" d="M466.476,344.821v35.869c0,18.938-15.352,34.29-34.29,34.29H79.814
		c-18.938,0-34.29-15.352-34.29-34.29v-35.869H466.476z"/>
	<path style="opacity:0.4;" d="M432.191,45.635H79.809c-18.935,0-34.285,15.35-34.285,34.285v26
		c0-18.935,15.35-34.285,34.285-34.285h352.381c18.935,0,34.285,15.35,34.285,34.285v-26
		C466.476,60.985,451.126,45.635,432.191,45.635z"/>
</g>
<g>
	<circle style="fill:#E8E8E8;" cx="256" cy="450.702" r="15.029"/>
	<path style="opacity:0.4;enable-background:new    ;" d="M271.029,450.702c0,0-6.729-6.75-15.029-6.75s-15.029,6.75-15.029,6.75
		c0-8.301,6.729-15.029,15.029-15.029S271.029,442.402,271.029,450.702z"/>
	<path style="fill:#303030;" d="M256,466.877c-8.919,0-16.176-7.256-16.176-16.176c0-8.919,7.256-16.175,16.176-16.175
		s16.176,7.256,16.176,16.175C272.176,459.621,264.92,466.877,256,466.877z M256,436.819c-7.655,0-13.883,6.227-13.883,13.882
		c0,7.656,6.227,13.883,13.883,13.883s13.883-6.227,13.883-13.883C269.883,443.047,263.656,436.819,256,436.819z"/>
</g>
</svg>
