<?xml version="1.0" encoding="utf-8"?>
<!-- Generator: Adobe Illustrator 18.0.0, SVG Export Plug-In . SVG Version: 6.00 Build 0)  -->
<!DOCTYPE svg PUBLIC "-//W3C//DTD SVG 1.1//EN" "http://www.w3.org/Graphics/SVG/1.1/DTD/svg11.dtd">
<svg version="1.1" id="Layer_1" xmlns="http://www.w3.org/2000/svg" xmlns:xlink="http://www.w3.org/1999/xlink" x="0px" y="0px"
	 viewBox="0 0 512 512" style="enable-background:new 0 0 512 512;" xml:space="preserve">
<g>
	<g>
		<path style="fill:#898989;" d="M219.502,186.688c0,4.445,3.603,8.048,8.048,8.048h83.506c4.445,0,8.048-3.603,8.048-8.048v-83.507
			c0-4.445-3.603-8.048-8.048-8.048H227.55c-4.445,0-8.048,3.603-8.048,8.048V186.688z"/>
		<path style="fill:#898989;" d="M331.27,186.688c0,4.445,3.603,8.048,8.048,8.048h83.509c4.445,0,8.048-3.603,8.048-8.048v-83.507
			c0-4.445-3.603-8.048-8.048-8.048h-83.509c-4.445,0-8.048,3.603-8.048,8.048V186.688z"/>
		<path style="fill:#898989;" d="M274.625,295.033c0,4.445,3.603,8.048,8.048,8.048h83.507c4.445,0,8.048-3.603,8.048-8.048v-83.507
			c0-4.445-3.603-8.048-8.048-8.048h-83.507c-4.445,0-8.048,3.603-8.048,8.048V295.033z"/>
		<path style="fill:#898989;" d="M26,417.07c0,4.445,3.603,8.048,8.048,8.048h83.506c4.445,0,8.048-3.603,8.048-8.048v-96.814
			c0-4.445-3.603-8.048-8.048-8.048H34.048c-4.445,0-8.048,3.603-8.048,8.048V417.07z"/>
		<path style="fill:#0068FF;" d="M137.008,417.07c0,4.445,3.603,8.048,8.048,8.048h83.506c4.445,0,8.048-3.603,8.048-8.048v-96.814
			c0-4.445-3.603-8.048-8.048-8.048h-83.506c-4.445,0-8.048,3.603-8.048,8.048V417.07z"/>
		<path style="fill:#898989;" d="M248.012,417.07c0,4.445,3.603,8.048,8.048,8.048h83.51c4.445,0,8.048-3.603,8.048-8.048v-96.814
			c0-4.445-3.603-8.048-8.048-8.048h-83.51c-4.445,0-8.048,3.603-8.048,8.048V417.07z"/>
		<path style="fill:#0068FF;" d="M386.395,295.033c0,4.445,3.603,8.048,8.048,8.048h83.509c4.445,0,8.048-3.603,8.048-8.048v-83.507
			c0-4.445-3.603-8.048-8.048-8.048h-83.509c-4.445,0-8.048,3.603-8.048,8.048V295.033z"/>
		<path style="fill:#898989;" d="M26,186.688c0,4.445,3.603,8.048,8.048,8.048H200.43c4.445,0,8.048-3.603,8.048-8.048v-83.507
			c0-4.445-3.603-8.048-8.048-8.048H34.048c-4.445,0-8.048,3.603-8.048,8.048V186.688z"/>
		<path style="fill:#898989;" d="M26,295.033c0,4.445,3.603,8.048,8.048,8.048h223.407c4.445,0,8.048-3.603,8.048-8.048v-83.507
			c0-4.445-3.603-8.048-8.048-8.048H34.048c-4.445,0-8.048,3.603-8.048,8.048V295.033z"/>
		<path style="fill:#898989;" d="M359.022,417.07c0,4.445,3.603,8.048,8.048,8.048h110.882c4.445,0,8.048-3.603,8.048-8.048v-96.814
			c0-4.445-3.603-8.048-8.048-8.048H367.07c-4.445,0-8.048,3.603-8.048,8.048V417.07z"/>
	</g>
	<g>
		<path style="fill:#232323;" d="M219.502,180.437c0,4.445,3.603,8.048,8.048,8.048h83.506c4.445,0,8.048-3.603,8.048-8.048V96.93
			c0-4.445-3.603-8.048-8.048-8.048H227.55c-4.445,0-8.048,3.603-8.048,8.048V180.437z"/>
		<path style="fill:#232323;" d="M331.27,180.437c0,4.445,3.603,8.048,8.048,8.048h83.509c4.445,0,8.048-3.603,8.048-8.048V96.93
			c0-4.445-3.603-8.048-8.048-8.048h-83.509c-4.445,0-8.048,3.603-8.048,8.048V180.437z"/>
		<path style="fill:#232323;" d="M274.625,288.782c0,4.445,3.603,8.048,8.048,8.048h83.507c4.445,0,8.048-3.603,8.048-8.048v-83.507
			c0-4.445-3.603-8.048-8.048-8.048h-83.507c-4.445,0-8.048,3.603-8.048,8.048V288.782z"/>
		<path style="fill:#232323;" d="M26,410.819c0,4.445,3.603,8.048,8.048,8.048h83.506c4.445,0,8.048-3.603,8.048-8.048v-96.814
			c0-4.445-3.603-8.048-8.048-8.048H34.048c-4.445,0-8.048,3.603-8.048,8.048V410.819z"/>
		<path style="fill:#232323;" d="M137.008,410.819c0,4.445,3.603,8.048,8.048,8.048h83.506c4.445,0,8.048-3.603,8.048-8.048v-96.814
			c0-4.445-3.603-8.048-8.048-8.048h-83.506c-4.445,0-8.048,3.603-8.048,8.048V410.819z"/>
		<path style="fill:#232323;" d="M248.012,410.819c0,4.445,3.603,8.048,8.048,8.048h83.51c4.445,0,8.048-3.603,8.048-8.048v-96.814
			c0-4.445-3.603-8.048-8.048-8.048h-83.51c-4.445,0-8.048,3.603-8.048,8.048V410.819z"/>
		<path style="fill:#232323;" d="M386.395,288.782c0,4.445,3.603,8.048,8.048,8.048h83.509c4.445,0,8.048-3.603,8.048-8.048v-83.507
			c0-4.445-3.603-8.048-8.048-8.048h-83.509c-4.445,0-8.048,3.603-8.048,8.048V288.782z"/>
		<path style="fill:#232323;" d="M26,180.437c0,4.445,3.603,8.048,8.048,8.048H200.43c4.445,0,8.048-3.603,8.048-8.048V96.93
			c0-4.445-3.603-8.048-8.048-8.048H34.048c-4.445,0-8.048,3.603-8.048,8.048V180.437z"/>
		<path style="fill:#232323;" d="M26,288.782c0,4.445,3.603,8.048,8.048,8.048h223.407c4.445,0,8.048-3.603,8.048-8.048v-83.507
			c0-4.445-3.603-8.048-8.048-8.048H34.048c-4.445,0-8.048,3.603-8.048,8.048V288.782z"/>
		<path style="fill:#232323;" d="M359.022,410.819c0,4.445,3.603,8.048,8.048,8.048h110.882c4.445,0,8.048-3.603,8.048-8.048
			v-96.814c0-4.445-3.603-8.048-8.048-8.048H367.07c-4.445,0-8.048,3.603-8.048,8.048V410.819z"/>
		<g>
			<path style="fill:#0068FF;" d="M211.548,374.216c0,1.387-0.262,2.695-0.786,3.926c-0.523,1.231-1.231,2.3-2.121,3.205
				c-0.892,0.906-1.946,1.626-3.162,2.165c-1.217,0.537-2.519,0.806-3.906,0.806c-1.387,0-2.695-0.27-3.926-0.806
				c-1.231-0.539-2.3-1.259-3.205-2.165c-0.906-0.905-1.627-1.974-2.165-3.205c-0.538-1.231-0.806-2.54-0.806-3.926v-5.051h-9.975
				v5.051c0,1.387-0.269,2.695-0.806,3.926c-0.538,1.231-1.259,2.3-2.165,3.205c-0.905,0.906-1.973,1.626-3.204,2.165
				c-1.231,0.537-2.541,0.806-3.926,0.806c-1.388,0-2.695-0.27-3.926-0.806c-1.231-0.539-2.3-1.259-3.205-2.165
				c-0.906-0.905-1.627-1.974-2.165-3.205c-0.538-1.231-0.806-2.54-0.806-3.926s0.269-2.688,0.806-3.906
				c0.538-1.216,1.259-2.271,2.165-3.162c0.905-0.891,1.974-1.598,3.205-2.121c1.231-0.524,2.539-0.786,3.926-0.786h5.221v-10.018
				h-5.221c-1.388,0-2.695-0.262-3.926-0.786c-1.231-0.523-2.3-1.231-3.205-2.121c-0.906-0.892-1.627-1.946-2.165-3.162
				s-0.806-2.519-0.806-3.906s0.269-2.695,0.806-3.926c0.538-1.231,1.259-2.313,2.165-3.248c0.905-0.934,1.974-1.669,3.205-2.207
				s2.539-0.807,3.926-0.807c1.386,0,2.695,0.27,3.926,0.807c1.231,0.538,2.299,1.272,3.204,2.207
				c0.906,0.934,1.627,2.017,2.165,3.248c0.538,1.231,0.806,2.54,0.806,3.926v5.009h9.975v-5.009c0-1.387,0.269-2.695,0.806-3.926
				c0.538-1.231,1.259-2.313,2.165-3.248c0.905-0.934,1.974-1.669,3.205-2.207s2.54-0.807,3.926-0.807
				c1.387,0,2.688,0.27,3.906,0.807c1.216,0.538,2.271,1.272,3.162,2.207c0.891,0.934,1.598,2.017,2.121,3.248
				c0.524,1.231,0.786,2.54,0.786,3.926c0,1.359-0.262,2.647-0.786,3.863c-0.523,1.216-1.238,2.278-2.143,3.183
				c-0.906,0.906-1.967,1.62-3.183,2.143c-1.217,0.524-2.504,0.786-3.863,0.786h-5.137v10.018h5.137
				c1.359,0,2.646,0.262,3.863,0.786c1.216,0.523,2.277,1.238,3.183,2.143c0.905,0.906,1.62,1.967,2.143,3.183
				C211.287,371.57,211.548,372.857,211.548,374.216z M176.614,344.248c0-0.736-0.135-1.415-0.403-2.037
				c-0.27-0.623-0.645-1.174-1.125-1.655c-0.482-0.481-1.034-0.855-1.655-1.125c-0.623-0.269-1.303-0.403-2.037-0.403
				c-0.708,0-1.38,0.134-2.017,0.403c-0.636,0.27-1.182,0.645-1.635,1.125c-0.453,0.482-0.814,1.033-1.081,1.655
				c-0.27,0.623-0.404,1.302-0.404,2.037c0,0.679,0.134,1.323,0.404,1.932c0.268,0.608,0.636,1.14,1.103,1.592
				c0.467,0.453,1.011,0.814,1.634,1.081c0.623,0.27,1.288,0.404,1.996,0.404h5.221V344.248z M176.614,369.164h-5.221
				c-0.708,0-1.373,0.135-1.996,0.404c-0.623,0.269-1.167,0.63-1.634,1.083c-0.467,0.453-0.836,0.99-1.103,1.613
				c-0.27,0.623-0.404,1.273-0.404,1.952c0,0.708,0.134,1.379,0.404,2.017c0.268,0.636,0.629,1.196,1.081,1.676
				c0.453,0.482,0.998,0.856,1.635,1.125c0.636,0.269,1.309,0.403,2.017,0.403c0.735,0,1.415-0.134,2.037-0.403
				c0.622-0.269,1.174-0.643,1.655-1.125c0.481-0.481,0.855-1.04,1.125-1.676c0.268-0.637,0.403-1.309,0.403-2.017V369.164z
				 M191.47,354.223h-9.975v10.018h9.975V354.223z M206.582,344.248c0-0.707-0.135-1.372-0.404-1.995
				c-0.269-0.623-0.63-1.174-1.081-1.655c-0.454-0.482-0.984-0.864-1.592-1.146c-0.609-0.283-1.253-0.424-1.932-0.424
				c-0.708,0-1.379,0.134-2.017,0.403c-0.636,0.27-1.181,0.645-1.634,1.125c-0.454,0.482-0.814,1.033-1.083,1.655
				c-0.27,0.623-0.404,1.302-0.404,2.037v5.009h5.137c0.679,0,1.322-0.134,1.932-0.404c0.608-0.268,1.139-0.629,1.592-1.081
				c0.451-0.453,0.813-0.984,1.081-1.592C206.447,345.571,206.582,344.927,206.582,344.248z M206.582,374.216
				c0-0.679-0.135-1.33-0.404-1.952s-0.63-1.16-1.081-1.613c-0.454-0.453-0.984-0.814-1.592-1.083
				c-0.609-0.269-1.253-0.404-1.932-0.404h-5.137v5.051c0,0.708,0.134,1.379,0.404,2.017c0.269,0.636,0.629,1.196,1.083,1.676
				c0.453,0.482,0.997,0.856,1.634,1.125c0.637,0.269,1.309,0.403,2.017,0.403c0.679,0,1.322-0.141,1.932-0.424
				c0.608-0.282,1.139-0.664,1.592-1.146c0.451-0.481,0.813-1.033,1.081-1.655C206.447,375.589,206.582,374.924,206.582,374.216z"/>
		</g>
		<g>
			<path style="fill:#0068FF;" d="M436.21,239.826l10.276-16.43c0.552-0.883,1.519-1.419,2.56-1.419h0.051
				c2.384,0,3.828,2.632,2.547,4.643l-11.755,18.451l12.08,18.825c1.29,2.01-0.154,4.651-2.542,4.651h-0.101
				c-1.037,0-2.002-0.532-2.555-1.41L436.21,250.38l-10.625,16.765c-0.554,0.874-1.516,1.403-2.551,1.403h-0.067
				c-2.389,0-3.832-2.644-2.54-4.653l12.105-18.823l-11.78-18.449c-1.284-2.01,0.16-4.645,2.545-4.645h0.017
				c1.038,0,2.003,0.533,2.556,1.412L436.21,239.826z"/>
		</g>
	</g>
</g>
</svg>
