<?xml version="1.0" encoding="utf-8"?>
<!-- Generator: Adobe Illustrator 18.0.0, SVG Export Plug-In . SVG Version: 6.00 Build 0)  -->
<!DOCTYPE svg PUBLIC "-//W3C//DTD SVG 1.1//EN" "http://www.w3.org/Graphics/SVG/1.1/DTD/svg11.dtd">
<svg version="1.1" id="Layer_1" xmlns="http://www.w3.org/2000/svg" xmlns:xlink="http://www.w3.org/1999/xlink" x="0px" y="0px"
	 viewBox="0 0 512 512" style="enable-background:new 0 0 512 512;" xml:space="preserve">
<circle style="fill:#FFFFFF;" cx="256" cy="256" r="229.5"/>
<g>
	<path style="fill:#DC71AC;" d="M362.298,342.65c-22.41,27.44-55.207,46.081-92.338,49.85
		c12.809,12.581,27.366,23.388,43.296,31.987c3.391,1.831,6.844,3.562,10.355,5.19c1.755,0.814,3.525,1.602,5.309,2.364
		c17.519,7.483,36.381,12.423,56.123,14.369c49.515-33.622,85.212-86.053,96.853-147.022
		c-15.338,12.587-32.172,22.434-49.855,29.531C409.701,337.885,386.015,342.448,362.298,342.65z"/>
	<path style="fill:#23B899;" d="M149.702,169.35c22.41-27.44,55.207-46.081,92.338-49.85c-14.173-13.92-30.489-25.665-48.429-34.658
		c-3.452-1.73-6.963-3.359-10.53-4.883c-17.519-7.483-36.381-12.423-56.123-14.369c-49.515,33.622-85.212,86.053-96.853,147.022
		c15.338-12.587,32.173-22.434,49.855-29.531C102.299,174.115,125.985,169.552,149.702,169.35z"/>
	<path style="fill:#945AA4;" d="M323.61,429.677c-3.51-1.628-6.963-3.359-10.355-5.19c-15.93-8.599-30.488-19.406-43.297-31.987
		c-4.591,0.466-9.247,0.705-13.959,0.705c-32.834,0-63.006-11.598-86.648-30.906c0.202,23.717,4.765,47.403,13.731,69.741
		c7.097,17.683,16.945,34.518,29.533,49.856C226.667,484.579,241.167,486,256,486c47.829,0,92.246-14.604,129.042-39.59
		c-19.742-1.946-38.605-6.886-56.123-14.369C327.135,431.279,325.365,430.491,323.61,429.677z"/>
	<path style="fill:#69C186;" d="M193.612,84.842c17.941,8.993,34.257,20.738,48.429,34.658c4.591-0.466,9.247-0.705,13.959-0.705
		c32.834,0,63.006,11.598,86.648,30.906c-0.202-23.717-4.765-47.403-13.731-69.741c-7.097-17.683-16.944-34.518-29.533-49.856
		C285.333,27.421,270.833,26,256,26c-47.829,0-92.246,14.604-129.042,39.59c19.742,1.946,38.605,6.886,56.123,14.369
		C186.649,81.483,190.16,83.112,193.612,84.842z"/>
	<path style="fill:#3B97D3;" d="M84.842,318.388c8.993-17.941,20.738-34.257,34.658-48.429c-0.466-4.591-0.705-9.247-0.705-13.959
		c0-32.834,11.598-63.006,30.906-86.648c-23.717,0.202-47.403,4.765-69.741,13.731c-17.683,7.097-34.518,16.944-49.856,29.533
		C27.421,226.667,26,241.167,26,256c0,47.829,14.604,92.246,39.59,129.042c1.946-19.742,6.886-38.605,14.369-56.123
		C81.483,325.351,83.112,321.84,84.842,318.388z"/>
	<path style="fill:#E74D3D;" d="M427.158,193.612c-8.993,17.941-20.738,34.257-34.658,48.429c0.466,4.591,0.705,9.247,0.705,13.959
		c0,32.834-11.598,63.006-30.906,86.648c23.717-0.202,47.403-4.765,69.741-13.731c17.683-7.097,34.518-16.944,49.856-29.533
		C484.579,285.333,486,270.833,486,256c0-47.829-14.604-92.246-39.59-129.042c-1.946,19.742-6.886,38.605-14.369,56.123
		C430.517,186.649,428.888,190.16,427.158,193.612z"/>
	<path style="fill:#6063AC;" d="M169.35,362.298c-27.44-22.41-46.081-55.207-49.85-92.338
		c-13.92,14.173-25.665,30.488-34.658,48.429c-1.73,3.452-3.359,6.963-4.883,10.531c-7.483,17.519-12.423,36.381-14.369,56.123
		c33.622,49.515,86.053,85.212,147.022,96.853c-12.587-15.338-22.434-32.173-29.531-49.855
		C174.115,409.701,169.552,386.015,169.35,362.298z"/>
	<path style="fill:#F0C519;" d="M342.65,149.702c27.44,22.41,46.081,55.207,49.85,92.338c13.92-14.173,25.665-30.488,34.658-48.429
		c1.73-3.452,3.359-6.963,4.883-10.53c7.483-17.519,12.423-36.381,14.369-56.123c-33.622-49.515-86.053-85.212-147.022-96.853
		c12.587,15.338,22.434,32.173,29.531,49.855C337.885,102.299,342.448,125.985,342.65,149.702z"/>
	
		<radialGradient id="SVGID_1_" cx="256" cy="256" r="146.816" gradientTransform="matrix(1 0 0 -1 0 512)" gradientUnits="userSpaceOnUse">
		<stop  offset="0" style="stop-color:#010101;stop-opacity:0"/>
		<stop  offset="0.3434" style="stop-color:#040404;stop-opacity:0.3434"/>
		<stop  offset="0.6249" style="stop-color:#0F0E0E;stop-opacity:0.6249"/>
		<stop  offset="0.8837" style="stop-color:#1C191A;stop-opacity:0.8837"/>
		<stop  offset="1" style="stop-color:#231F20"/>
	</radialGradient>
	<path style="opacity:0.15;fill:url(#SVGID_1_);enable-background:new    ;" d="M256,109.184
		c-81.084,0-146.816,65.732-146.816,146.816S174.916,402.816,256,402.816S402.816,337.084,402.816,256S337.084,109.184,256,109.184z
		 M256,393.44c-75.906,0-137.44-61.534-137.44-137.44S180.094,118.56,256,118.56S393.44,180.094,393.44,256
		S331.906,393.44,256,393.44z"/>
	
		<radialGradient id="SVGID_2_" cx="256" cy="256" r="259.1677" gradientTransform="matrix(1 0 0 -1 0 512)" gradientUnits="userSpaceOnUse">
		<stop  offset="0.1151" style="stop-color:#010101;stop-opacity:0"/>
		<stop  offset="0.5915" style="stop-color:#030303;stop-opacity:0.5384"/>
		<stop  offset="0.7631" style="stop-color:#0A0A0A;stop-opacity:0.7323"/>
		<stop  offset="0.885" style="stop-color:#151314;stop-opacity:0.87"/>
		<stop  offset="0.9833" style="stop-color:#211D1E;stop-opacity:0.9811"/>
		<stop  offset="1" style="stop-color:#231F20"/>
	</radialGradient>
	<path style="opacity:0.1;fill:url(#SVGID_2_);enable-background:new    ;" d="M256,26C128.975,26,26,128.975,26,256
		s102.975,230,230,230s230-102.975,230-230S383.025,26,256,26z M256,471.313c-118.914,0-215.313-96.399-215.313-215.313
		S137.086,40.687,256,40.687S471.313,137.086,471.313,256S374.914,471.313,256,471.313z"/>
</g>
</svg>
