<?xml version="1.0" encoding="utf-8"?>
<!-- Generator: Adobe Illustrator 18.0.0, SVG Export Plug-In . SVG Version: 6.00 Build 0)  -->
<!DOCTYPE svg PUBLIC "-//W3C//DTD SVG 1.1//EN" "http://www.w3.org/Graphics/SVG/1.1/DTD/svg11.dtd">
<svg version="1.1" id="Layer_1" xmlns="http://www.w3.org/2000/svg" xmlns:xlink="http://www.w3.org/1999/xlink" x="0px" y="0px"
	 viewBox="0 0 512 512" style="enable-background:new 0 0 512 512;" xml:space="preserve">
<g>
	<g>
		<linearGradient id="SVGID_1_" gradientUnits="userSpaceOnUse" x1="89.3348" y1="422.6652" x2="422.6652" y2="89.3348">
			<stop  offset="0" style="stop-color:#989AA5"/>
			<stop  offset="1" style="stop-color:#FFFFFF"/>
		</linearGradient>
		<path style="fill:url(#SVGID_1_);" d="M486,357.647c0,2.244-1.819,4.064-4.064,4.064H30.064c-2.244,0-4.064-1.819-4.064-4.064
			V154.353c0-2.244,1.819-4.064,4.064-4.064h451.873c2.244,0,4.064,1.819,4.064,4.064V357.647z"/>
		<linearGradient id="SVGID_2_" gradientUnits="userSpaceOnUse" x1="256" y1="167.8485" x2="256" y2="150.2891">
			<stop  offset="0" style="stop-color:#E5E6ED;stop-opacity:0"/>
			<stop  offset="0.3674" style="stop-color:#E4E5EB"/>
			<stop  offset="0.4826" style="stop-color:#F0F0F4"/>
			<stop  offset="0.6539" style="stop-color:#FCFCFD"/>
			<stop  offset="0.8503" style="stop-color:#FFFFFF"/>
			<stop  offset="1" style="stop-color:#EDECF1"/>
		</linearGradient>
		<path style="fill:url(#SVGID_2_);" d="M481.936,150.289H30.064c-2.244,0-4.064,1.486-4.064,3.318v14.241h460v-14.241
			C486,151.775,484.181,150.289,481.936,150.289z"/>
	</g>
	<g>
		<path style="fill:#282828;" d="M64.255,224.073c0,2.761,2.239,5,5,5h17.709c2.761,0,5-2.239,5-5v-17.71c0-2.761-2.239-5-5-5
			H69.255c-2.761,0-5,2.239-5,5V224.073z"/>
		<path style="fill:#282828;" d="M33.372,224.073c0,2.761,2.239,5,5,5h17.709c2.761,0,5-2.239,5-5v-17.71c0-2.761-2.239-5-5-5
			H38.372c-2.761,0-5,2.239-5,5V224.073z"/>
		<path style="fill:#282828;" d="M126.018,224.073c0,2.761,2.239,5,5,5h17.71c2.761,0,5-2.239,5-5v-17.71c0-2.761-2.239-5-5-5
			h-17.71c-2.761,0-5,2.239-5,5V224.073z"/>
		<path style="fill:#282828;" d="M95.136,224.073c0,2.761,2.239,5,5,5h17.71c2.761,0,5-2.239,5-5v-17.71c0-2.761-2.239-5-5-5h-17.71
			c-2.761,0-5,2.239-5,5V224.073z"/>
		<path style="fill:#282828;" d="M187.995,224.073c0,2.761,2.239,5,5,5h17.709c2.761,0,5-2.239,5-5v-17.71c0-2.761-2.239-5-5-5
			h-17.709c-2.761,0-5,2.239-5,5V224.073z"/>
		<path style="fill:#282828;" d="M157.112,224.073c0,2.761,2.239,5,5,5h17.711c2.761,0,5-2.239,5-5v-17.71c0-2.761-2.239-5-5-5
			h-17.711c-2.761,0-5,2.239-5,5V224.073z"/>
		<path style="fill:#282828;" d="M249.759,224.073c0,2.761,2.239,5,5,5h17.709c2.761,0,5-2.239,5-5v-17.71c0-2.761-2.239-5-5-5
			h-17.709c-2.761,0-5,2.239-5,5V224.073z"/>
		<path style="fill:#282828;" d="M218.876,224.073c0,2.761,2.239,5,5,5h17.71c2.761,0,5-2.239,5-5v-17.71c0-2.761-2.239-5-5-5
			h-17.71c-2.761,0-5,2.239-5,5V224.073z"/>
		<path style="fill:#282828;" d="M280.852,224.073c0,2.761,2.239,5,5,5h17.71c2.761,0,5-2.239,5-5v-17.71c0-2.761-2.239-5-5-5
			h-17.71c-2.761,0-5,2.239-5,5V224.073z"/>
		<path style="fill:#282828;" d="M342.829,224.073c0,2.761,2.239,5,5,5h17.709c2.761,0,5-2.239,5-5v-17.71c0-2.761-2.239-5-5-5
			h-17.709c-2.761,0-5,2.239-5,5V224.073z"/>
		<path style="fill:#282828;" d="M311.948,224.073c0,2.761,2.239,5,5,5h17.71c2.761,0,5-2.239,5-5v-17.71c0-2.761-2.239-5-5-5
			h-17.71c-2.761,0-5,2.239-5,5V224.073z"/>
		<path style="fill:#282828;" d="M404.593,224.073c0,2.761,2.239,5,5,5h17.709c2.761,0,5-2.239,5-5v-17.71c0-2.761-2.239-5-5-5
			h-17.709c-2.761,0-5,2.239-5,5V224.073z"/>
		<path style="fill:#282828;" d="M373.393,224.39c0,2.761,2.239,5,5,5h18.344c2.761,0,5-2.239,5-5v-18.344c0-2.761-2.239-5-5-5
			h-18.344c-2.761,0-5,2.239-5,5V224.39z"/>
		<path style="fill:#282828;" d="M327.493,253.58c0,2.761,2.239,5,5,5h17.075c2.761,0,5-2.239,5-5v-17.074c0-2.761-2.239-5-5-5
			h-17.075c-2.761,0-5,2.239-5,5V253.58z"/>
		<path style="fill:#282828;" d="M389.154,253.899c0,2.761,2.239,5,5,5h17.709c2.761,0,5-2.239,5-5v-17.711c0-2.761-2.239-5-5-5
			h-17.709c-2.761,0-5,2.239-5,5V253.899z"/>
		<path style="fill:#282828;" d="M358.27,253.899c0,2.761,2.239,5,5,5h17.709c2.761,0,5-2.239,5-5v-17.711c0-2.761-2.239-5-5-5
			H363.27c-2.761,0-5,2.239-5,5V253.899z"/>
		<path style="fill:#282828;" d="M450.916,253.899c0,2.761,2.239,5,5,5h17.71c2.761,0,5-2.239,5-5v-17.711c0-2.761-2.239-5-5-5
			h-17.71c-2.761,0-5,2.239-5,5V253.899z"/>
		<path style="fill:#282828;" d="M420.034,253.899c0,2.761,2.239,5,5,5h17.71c2.761,0,5-2.239,5-5v-17.711c0-2.761-2.239-5-5-5
			h-17.71c-2.761,0-5,2.239-5,5V253.899z"/>
		<path style="fill:#282828;" d="M172.341,253.899c0,2.761,2.239,5,5,5h17.71c2.761,0,5-2.239,5-5v-17.711c0-2.761-2.239-5-5-5
			h-17.71c-2.761,0-5,2.239-5,5V253.899z"/>
		<path style="fill:#282828;" d="M234.318,253.899c0,2.761,2.239,5,5,5h17.709c2.761,0,5-2.239,5-5v-17.711c0-2.761-2.239-5-5-5
			h-17.709c-2.761,0-5,2.239-5,5V253.899z"/>
		<path style="fill:#282828;" d="M203.436,253.899c0,2.761,2.239,5,5,5h17.709c2.761,0,5-2.239,5-5v-17.711c0-2.761-2.239-5-5-5
			h-17.709c-2.761,0-5,2.239-5,5V253.899z"/>
		<path style="fill:#282828;" d="M79.695,253.899c0,2.761,2.239,5,5,5h17.709c2.761,0,5-2.239,5-5v-17.711c0-2.761-2.239-5-5-5
			H84.695c-2.761,0-5,2.239-5,5V253.899z"/>
		<path style="fill:#282828;" d="M141.671,253.899c0,2.761,2.239,5,5,5h17.709c2.761,0,5-2.239,5-5v-17.711c0-2.761-2.239-5-5-5
			h-17.709c-2.761,0-5,2.239-5,5V253.899z"/>
		<path style="fill:#282828;" d="M110.788,253.899c0,2.761,2.239,5,5,5h17.71c2.761,0,5-2.239,5-5v-17.711c0-2.761-2.239-5-5-5
			h-17.71c-2.761,0-5,2.239-5,5V253.899z"/>
		<path style="fill:#282828;" d="M296.082,253.899c0,2.761,2.239,5,5,5h17.709c2.761,0,5-2.239,5-5v-17.711c0-2.761-2.239-5-5-5
			h-17.709c-2.761,0-5,2.239-5,5V253.899z"/>
		<path style="fill:#282828;" d="M265.199,253.899c0,2.761,2.239,5,5,5h17.711c2.761,0,5-2.239,5-5v-17.711c0-2.761-2.239-5-5-5
			h-17.711c-2.761,0-5,2.239-5,5V253.899z"/>
		<path style="fill:#282828;" d="M334.685,284.357c0,2.761,2.239,5,5,5h17.71c2.761,0,5-2.239,5-5v-17.709c0-2.761-2.239-5-5-5
			h-17.71c-2.761,0-5,2.239-5,5V284.357z"/>
		<path style="fill:#282828;" d="M396.662,284.357c0,2.761,2.239,5,5,5h17.709c2.761,0,5-2.239,5-5v-17.709c0-2.761-2.239-5-5-5
			h-17.709c-2.761,0-5,2.239-5,5V284.357z"/>
		<path style="fill:#282828;" d="M365.779,284.357c0,2.761,2.239,5,5,5h17.709c2.761,0,5-2.239,5-5v-17.709c0-2.761-2.239-5-5-5
			h-17.709c-2.761,0-5,2.239-5,5V284.357z"/>
		<path style="fill:#282828;" d="M179.851,284.357c0,2.761,2.239,5,5,5h17.71c2.761,0,5-2.239,5-5v-17.709c0-2.761-2.239-5-5-5
			h-17.71c-2.761,0-5,2.239-5,5V284.357z"/>
		<path style="fill:#282828;" d="M241.827,284.357c0,2.761,2.239,5,5,5h17.71c2.761,0,5-2.239,5-5v-17.709c0-2.761-2.239-5-5-5
			h-17.71c-2.761,0-5,2.239-5,5V284.357z"/>
		<path style="fill:#282828;" d="M210.944,284.357c0,2.761,2.239,5,5,5h17.71c2.761,0,5-2.239,5-5v-17.709c0-2.761-2.239-5-5-5
			h-17.71c-2.761,0-5,2.239-5,5V284.357z"/>
		<path style="fill:#282828;" d="M87.204,284.357c0,2.761,2.239,5,5,5h17.709c2.761,0,5-2.239,5-5v-17.709c0-2.761-2.239-5-5-5
			H92.204c-2.761,0-5,2.239-5,5V284.357z"/>
		<path style="fill:#282828;" d="M149.181,284.357c0,2.761,2.239,5,5,5h17.709c2.761,0,5-2.239,5-5v-17.709c0-2.761-2.239-5-5-5
			h-17.709c-2.761,0-5,2.239-5,5V284.357z"/>
		<path style="fill:#282828;" d="M118.298,284.357c0,2.761,2.239,5,5,5h17.71c2.761,0,5-2.239,5-5v-17.709c0-2.761-2.239-5-5-5
			h-17.71c-2.761,0-5,2.239-5,5V284.357z"/>
		<path style="fill:#282828;" d="M303.592,284.357c0,2.761,2.239,5,5,5H326.3c2.761,0,5-2.239,5-5v-17.709c0-2.761-2.239-5-5-5
			h-17.709c-2.761,0-5,2.239-5,5V284.357z"/>
		<path style="fill:#282828;" d="M272.709,284.357c0,2.761,2.239,5,5,5h17.709c2.761,0,5-2.239,5-5v-17.709c0-2.761-2.239-5-5-5
			h-17.709c-2.761,0-5,2.239-5,5V284.357z"/>
		<path style="fill:#282828;" d="M350.022,314.498c0,2.761,2.239,5,5,5h17.709c2.761,0,5-2.239,5-5v-17.709c0-2.761-2.239-5-5-5
			h-17.709c-2.761,0-5,2.239-5,5V314.498z"/>
		<path style="fill:#282828;" d="M381.113,314.498c0,2.761,2.239,5,5,5h17.709c2.761,0,5-2.239,5-5v-17.709c0-2.761-2.239-5-5-5
			h-17.709c-2.761,0-5,2.239-5,5V314.498z"/>
		<path style="fill:#282828;" d="M195.186,314.498c0,2.761,2.239,5,5,5h17.711c2.761,0,5-2.239,5-5v-17.709c0-2.761-2.239-5-5-5
			h-17.711c-2.761,0-5,2.239-5,5V314.498z"/>
		<path style="fill:#282828;" d="M257.164,314.498c0,2.761,2.239,5,5,5h17.71c2.761,0,5-2.239,5-5v-17.709c0-2.761-2.239-5-5-5
			h-17.71c-2.761,0-5,2.239-5,5V314.498z"/>
		<path style="fill:#282828;" d="M226.281,314.498c0,2.761,2.239,5,5,5h17.708c2.761,0,5-2.239,5-5v-17.709c0-2.761-2.239-5-5-5
			h-17.708c-2.761,0-5,2.239-5,5V314.498z"/>
		<path style="fill:#282828;" d="M102.539,314.498c0,2.761,2.239,5,5,5h17.709c2.761,0,5-2.239,5-5v-17.709c0-2.761-2.239-5-5-5
			h-17.709c-2.761,0-5,2.239-5,5V314.498z"/>
		<path style="fill:#282828;" d="M33.372,348.449c0,2.761,2.239,5,5,5h17.709c2.761,0,5-2.239,5-5v-21.411c0-2.761-2.239-5-5-5
			H38.372c-2.761,0-5,2.239-5,5V348.449z"/>
		<path style="fill:#282828;" d="M64.255,348.449c0,2.761,2.239,5,5,5h17.709c2.761,0,5-2.239,5-5v-21.411c0-2.761-2.239-5-5-5
			H69.255c-2.761,0-5,2.239-5,5V348.449z"/>
		<path style="fill:#282828;" d="M95.136,348.449c0,2.761,2.239,5,5,5h17.71c2.761,0,5-2.239,5-5v-21.411c0-2.761-2.239-5-5-5
			h-17.71c-2.761,0-5,2.239-5,5V348.449z"/>
		<path style="fill:#282828;" d="M358.27,348.449c0,2.761,2.239,5,5,5h17.709c2.761,0,5-2.239,5-5v-21.411c0-2.761-2.239-5-5-5
			H363.27c-2.761,0-5,2.239-5,5V348.449z"/>
		<path style="fill:#282828;" d="M164.516,314.498c0,2.761,2.239,5,5,5h17.709c2.761,0,5-2.239,5-5v-17.709c0-2.761-2.239-5-5-5
			h-17.709c-2.761,0-5,2.239-5,5V314.498z"/>
		<path style="fill:#282828;" d="M133.634,314.498c0,2.761,2.239,5,5,5h17.71c2.761,0,5-2.239,5-5v-17.709c0-2.761-2.239-5-5-5
			h-17.71c-2.761,0-5,2.239-5,5V314.498z"/>
		<path style="fill:#282828;" d="M318.927,314.498c0,2.761,2.239,5,5,5h17.709c2.761,0,5-2.239,5-5v-17.709c0-2.761-2.239-5-5-5
			h-17.709c-2.761,0-5,2.239-5,5V314.498z"/>
		<path style="fill:#282828;" d="M288.045,314.498c0,2.761,2.239,5,5,5h17.709c2.761,0,5-2.239,5-5v-17.709c0-2.761-2.239-5-5-5
			h-17.709c-2.761,0-5,2.239-5,5V314.498z"/>
		<path style="fill:#282828;" d="M33.372,193.613c0,2.761,2.239,5,5,5h17.709c2.761,0,5-2.239,5-5v-6.179c0-2.761-2.239-5-5-5
			H38.372c-2.761,0-5,2.239-5,5V193.613z"/>
		<path style="fill:#282828;" d="M65.84,193.613c0,2.761,2.239,5,5,5H88.55c2.761,0,5-2.239,5-5v-6.179c0-2.761-2.239-5-5-5H70.84
			c-2.761,0-5,2.239-5,5V193.613z"/>
		<path style="fill:#282828;" d="M97.57,193.613c0,2.761,2.239,5,5,5h17.71c2.761,0,5-2.239,5-5v-6.179c0-2.761-2.239-5-5-5h-17.71
			c-2.761,0-5,2.239-5,5V193.613z"/>
		<path style="fill:#282828;" d="M130.038,193.613c0,2.761,2.239,5,5,5h17.71c2.761,0,5-2.239,5-5v-6.179c0-2.761-2.239-5-5-5
			h-17.71c-2.761,0-5,2.239-5,5V193.613z"/>
		<path style="fill:#282828;" d="M161.503,193.613c0,2.761,2.239,5,5,5h17.71c2.761,0,5-2.239,5-5v-6.179c0-2.761-2.239-5-5-5
			h-17.71c-2.761,0-5,2.239-5,5V193.613z"/>
		<path style="fill:#282828;" d="M193.97,193.613c0,2.761,2.239,5,5,5h17.709c2.761,0,5-2.239,5-5v-6.179c0-2.761-2.239-5-5-5
			H198.97c-2.761,0-5,2.239-5,5V193.613z"/>
		<path style="fill:#282828;" d="M225.963,193.613c0,2.761,2.239,5,5,5h17.71c2.761,0,5-2.239,5-5v-6.179c0-2.761-2.239-5-5-5
			h-17.71c-2.761,0-5,2.239-5,5V193.613z"/>
		<path style="fill:#282828;" d="M258.432,193.613c0,2.761,2.239,5,5,5h17.709c2.761,0,5-2.239,5-5v-6.179c0-2.761-2.239-5-5-5
			h-17.709c-2.761,0-5,2.239-5,5V193.613z"/>
		<path style="fill:#282828;" d="M290.161,193.613c0,2.761,2.239,5,5,5h17.71c2.761,0,5-2.239,5-5v-6.179c0-2.761-2.239-5-5-5
			h-17.71c-2.761,0-5,2.239-5,5V193.613z"/>
		<path style="fill:#282828;" d="M322.629,193.613c0,2.761,2.239,5,5,5h17.708c2.761,0,5-2.239,5-5v-6.179c0-2.761-2.239-5-5-5
			h-17.708c-2.761,0-5,2.239-5,5V193.613z"/>
		<path style="fill:#282828;" d="M354.094,193.613c0,2.761,2.239,5,5,5h17.71c2.761,0,5-2.239,5-5v-6.179c0-2.761-2.239-5-5-5
			h-17.71c-2.761,0-5,2.239-5,5V193.613z"/>
		<path style="fill:#282828;" d="M386.561,193.613c0,2.761,2.239,5,5,5h17.709c2.761,0,5-2.239,5-5v-6.179c0-2.761-2.239-5-5-5
			h-17.709c-2.761,0-5,2.239-5,5V193.613z"/>
		<path style="fill:#282828;" d="M418.449,193.613c0,2.761,2.239,5,5,5h17.709c2.761,0,5-2.239,5-5v-6.179c0-2.761-2.239-5-5-5
			h-17.709c-2.761,0-5,2.239-5,5V193.613z"/>
		<path style="fill:#282828;" d="M450.917,193.613c0,2.761,2.239,5,5,5h17.709c2.761,0,5-2.239,5-5v-6.179c0-2.761-2.239-5-5-5
			h-17.709c-2.761,0-5,2.239-5,5V193.613z"/>
		<path style="fill:#282828;" d="M33.372,253.899c0,2.761,2.239,5,5,5h32.833c2.761,0,5-2.239,5-5v-17.711c0-2.761-2.239-5-5-5
			H38.372c-2.761,0-5,2.239-5,5V253.899z"/>
		<path style="fill:#282828;" d="M33.372,284.357c0,2.761,2.239,5,5,5h40.765c2.761,0,5-2.239,5-5v-17.709c0-2.761-2.239-5-5-5
			H38.372c-2.761,0-5,2.239-5,5V284.357z"/>
		<path style="fill:#282828;" d="M33.372,314.498c0,2.761,2.239,5,5,5h56.629c2.761,0,5-2.239,5-5v-17.709c0-2.761-2.239-5-5-5
			H38.372c-2.761,0-5,2.239-5,5V314.498z"/>
		<path style="fill:#282828;" d="M126.018,348.449c0,2.761,2.239,5,5,5h25.325c2.761,0,5-2.239,5-5v-21.411c0-2.761-2.239-5-5-5
			h-25.325c-2.761,0-5,2.239-5,5V348.449z"/>
		<path style="fill:#282828;" d="M318.822,348.449c0,2.761,2.239,5,5,5h25.326c2.761,0,5-2.239,5-5v-21.411c0-2.761-2.239-5-5-5
			h-25.326c-2.761,0-5,2.239-5,5V348.449z"/>
		<path style="fill:#282828;" d="M434.839,224.073c0,2.761,2.239,5,5,5h33.787c2.761,0,5-2.239,5-5v-17.71c0-2.761-2.239-5-5-5
			h-33.787c-2.761,0-5,2.239-5,5V224.073z"/>
		<path style="fill:#282828;" d="M427.437,284.357c0,2.761,2.239,5,5,5h41.19c2.761,0,5-2.239,5-5v-17.709c0-2.761-2.239-5-5-5
			h-41.19c-2.761,0-5,2.239-5,5V284.357z"/>
		<path style="fill:#282828;" d="M412.21,314.498c0,2.761,2.239,5,5,5h56.416c2.761,0,5-2.239,5-5v-17.709c0-2.761-2.239-5-5-5
			H417.21c-2.761,0-5,2.239-5,5V314.498z"/>
		<path style="fill:#282828;" d="M389.154,348.449c0,2.761,2.239,5,5,5h17.709c2.761,0,5-2.239,5-5v-5.706c0-2.761-2.239-5-5-5
			h-17.709c-2.761,0-5,2.239-5,5V348.449z"/>
		<path style="fill:#282828;" d="M450.916,348.449c0,2.761,2.239,5,5,5h17.71c2.761,0,5-2.239,5-5v-5.706c0-2.761-2.239-5-5-5
			h-17.71c-2.761,0-5,2.239-5,5V348.449z"/>
		<path style="fill:#282828;" d="M420.034,348.449c0,2.761,2.239,5,5,5h17.71c2.761,0,5-2.239,5-5v-21.411c0-2.761-2.239-5-5-5
			h-17.71c-2.761,0-5,2.239-5,5V348.449z"/>
		<path style="fill:#282828;" d="M164.516,348.449c0,2.761,2.239,5,5,5h141.237c2.761,0,5-2.239,5-5v-21.411c0-2.761-2.239-5-5-5
			H169.516c-2.761,0-5,2.239-5,5V348.449z"/>
	</g>
</g>
</svg>
