<?xml version="1.0" encoding="utf-8"?>
<!-- Generator: Adobe Illustrator 18.0.0, SVG Export Plug-In . SVG Version: 6.00 Build 0)  -->
<!DOCTYPE svg PUBLIC "-//W3C//DTD SVG 1.1//EN" "http://www.w3.org/Graphics/SVG/1.1/DTD/svg11.dtd">
<svg version="1.1" id="Layer_3" xmlns="http://www.w3.org/2000/svg" xmlns:xlink="http://www.w3.org/1999/xlink" x="0px" y="0px"
	 viewBox="0 0 512 512" style="enable-background:new 0 0 512 512;" xml:space="preserve">
<g>
	<g>
		<polygon style="fill:#E2E2E2;" points="313,430.9 308.2,382.7 203.8,382.7 199,430.9 		"/>
		<rect x="174" y="429.6" style="fill:#969696;" width="164.1" height="6.4"/>
	</g>
	<g>
		<g>
			<radialGradient id="SVGID_1_" cx="262.7633" cy="587.3286" r="636.7156" gradientUnits="userSpaceOnUse">
				<stop  offset="1.933882e-02" style="stop-color:#FAAD1C"/>
				<stop  offset="0.3892" style="stop-color:#F26731"/>
				<stop  offset="0.7239" style="stop-color:#E71670"/>
				<stop  offset="1" style="stop-color:#652F8C"/>
			</radialGradient>
			<path style="fill:url(#SVGID_1_);" d="M464.1,103.5H47.9c-1.2,0-2,0.9-2,2v247.7c0,1.2,0.9,2,2,2h416.2c1.2,0,2-0.9,2-2V105.5
				C466.1,104.3,465.3,103.5,464.1,103.5z"/>
			<path style="fill:#0E0E0E;" d="M471.9,76.1H40.1c-7.8,0-14.1,6.2-14.1,14.1v278.7c0,7.8,6.2,14.1,14.1,14.1h431.9
				c7.8,0,14.1-6.2,14.1-14.1V90.1C486,82.3,479.8,76.1,471.9,76.1z M466.1,353.2c0,1.2-0.9,2-2,2H47.9c-1.2,0-2-0.9-2-2V105.5
				c0-1.2,0.9-2,2-2h416.2c1.2,0,2,0.9,2,2V353.2z"/>
		</g>
		
			<linearGradient id="SVGID_2_" gradientUnits="userSpaceOnUse" x1="258.029" y1="284.5941" x2="486" y2="284.5941" gradientTransform="matrix(1 0 0 -1 0 514)">
			<stop  offset="0" style="stop-color:#FFFFFF"/>
			<stop  offset="1" style="stop-color:#FFFFFF;stop-opacity:0"/>
		</linearGradient>
		<path style="opacity:0.4;fill:url(#SVGID_2_);enable-background:new    ;" d="M471.9,382.7c7.8,0,14.1-6.2,14.1-14.1V90.1
			c0-7.8-6.2-14.1-14.1-14.1H258L471.9,382.7z"/>
	</g>
	<g>
		<g id="g23_1_">
			<path id="path25_1_" style="fill:#FFFFFF;" d="M246,300.9l10.1,11.9l10.1-11.9c-2.8-2.3-6.2-3.8-10.1-3.8
				C252.2,297.2,248.8,298.5,246,300.9z"/>
			<path id="path27_1_" style="fill:#FFFFFF;" d="M256.1,264.3c-11.9,0-22.8,4.3-31.2,11.4l12.5,14.8c5.1-4.2,11.6-6.8,18.7-6.8
				c7.2,0,13.6,2.6,18.7,6.8l12.5-14.8C278.9,268.8,267.9,264.3,256.1,264.3z"/>
			<path id="path29_1_" style="fill:#FFFFFF;" d="M203.7,250.9l12.5,14.8c10.7-9.1,24.6-14.6,39.9-14.6c15.2,0,29,5.5,39.9,14.6
				l12.5-14.8c-14.2-11.9-32.3-19.3-52.5-19.3C236.1,231.6,218,239,203.7,250.9z"/>
			<path id="path31_1_" style="fill:#FFFFFF;" d="M182.7,225.9l12.5,14.8c17.1-14.5,38.4-22.3,61-22.3s43.9,7.8,61,22.3l12.5-14.8
				c-20.6-17.5-46.2-27-73.5-27C228.9,198.8,203.2,208.4,182.7,225.9z"/>
			<path id="path33_1_" style="fill:#FFFFFF;" d="M256.1,166.2c-19.9,0-39,3.9-57.1,11.6c-13.8,5.8-26.4,13.5-37.7,23.2l12.5,14.8
				c22.9-19.4,51.7-30,82.2-30c30.4,0,59.3,10.7,82.2,30l12.5-14.8c-11.3-9.6-23.9-17.4-37.7-23.2
				C295.1,170.1,275.9,166.2,256.1,166.2z"/>
		</g>
	</g>
</g>
</svg>
