<?xml version="1.0" encoding="UTF-8" standalone="no"?>
<!DOCTYPE svg PUBLIC "-//W3C//DTD SVG 1.1//EN" "http://www.w3.org/Graphics/SVG/1.1/DTD/svg11.dtd">
<svg width="100%" height="100%" viewBox="0 0 512 512" version="1.1" xmlns="http://www.w3.org/2000/svg" xmlns:xlink="http://www.w3.org/1999/xlink" xml:space="preserve" xmlns:serif="http://www.serif.com/" style="fill-rule:evenodd;clip-rule:evenodd;stroke-linejoin:round;stroke-miterlimit:1.41421;">
    <g transform="matrix(1.65277,0,0,1.65277,-155.014,-191.652)">
        <circle cx="248.682" cy="270.85" r="139.16" style="fill:rgb(255,206,78);"/>
    </g>
    <g transform="matrix(1.65277,0,0,1.59574,-154.962,-176.135)">
        <path d="M249.132,131.69C292.241,131.895 334.345,153.073 360.181,187.61C385.994,222.117 394.612,268.963 381.957,310.985C370.155,350.179 340.063,383.577 302.046,399.395C268.319,413.427 229.052,413.43 195.318,399.395C157.489,383.656 127.308,350.506 115.406,310.985C105.232,277.198 108.465,239.543 124.564,207.895C147.119,163.552 194.438,132.859 245.54,131.724C246.736,131.698 247.932,131.688 249.132,131.69ZM248.27,143.791C208.895,143.978 170.505,163.266 146.873,194.858C123.289,226.385 115.543,269.043 126.881,307.121C137.613,343.164 165.094,373.713 199.966,388.222C237.652,403.902 282.923,399.975 317.454,377.681C352.635,354.966 375.605,314.267 375.741,271.261C375.851,236.446 360.934,201.933 335.492,178.107C312.979,157.022 282.695,144.513 251.555,143.822C250.46,143.798 249.363,143.789 248.27,143.791Z" style="fill-opacity:0.4;fill-rule:nonzero;"/>
    </g>
    <g transform="matrix(1.65277,0,0,1.65277,-155.014,-191.652)">
        <path d="M249.132,131.69C292.241,131.895 334.345,153.073 360.181,187.61C385.994,222.117 394.612,268.963 381.957,310.985C370.155,350.179 340.063,383.577 302.046,399.395C268.319,413.427 229.052,413.43 195.318,399.395C157.489,383.656 127.308,350.506 115.406,310.985C105.232,277.198 108.465,239.543 124.564,207.895C147.119,163.552 194.438,132.859 245.54,131.724C246.736,131.698 247.932,131.688 249.132,131.69ZM248.27,143.791C208.895,143.978 170.505,163.266 146.873,194.858C123.289,226.385 115.543,269.043 126.881,307.121C137.613,343.164 165.094,373.713 199.966,388.222C237.652,403.902 282.923,399.975 317.454,377.681C352.635,354.966 375.605,314.267 375.741,271.261C375.851,236.446 360.934,201.933 335.492,178.107C312.979,157.022 282.695,144.513 251.555,143.822C250.46,143.798 249.363,143.789 248.27,143.791Z" style="fill:white;fill-rule:nonzero;"/>
    </g>
    <g>
        <g>
            <g id="Layer_3_2_">
                <g opacity="0.4">
                    <path d="M339.3,178.7L287.2,164.7L301.2,216.8L314.7,203.3C346.3,235.5 346.2,287.2 314.2,319.2C290.7,342.7 256.4,349 227.2,338.1L232.1,356.2C264.5,364.3 300.2,355.7 325.5,330.4C363.7,292.2 363.8,230.4 326,192L339.3,178.7Z" style="fill-rule:nonzero;"/>
                    <path d="M198.3,319.7C198.1,319.5 197.9,319.4 197.8,319.2C165.7,287.1 165.7,234.9 197.8,202.8C222,178.6 257.5,172.6 287.3,184.9L282.1,166.4C249.2,157.3 212.4,165.7 186.5,191.6C148.1,230 148.1,292.1 186.5,330.5C186.7,330.7 186.9,330.8 187,331L173.6,344.4L225.7,358.4L211.7,306.3L198.3,319.7Z" style="fill-rule:nonzero;"/>
                </g>
            </g>
            <g id="Layer_3_1_">
                <path d="M339.3,173.7L287.2,159.7L301.2,211.8L314.7,198.3C346.3,230.5 346.2,282.2 314.2,314.2C290.7,337.7 256.4,344 227.2,333.1L232.1,351.2C264.5,359.3 300.2,350.7 325.5,325.4C363.7,287.2 363.8,225.4 326,187L339.3,173.7Z" style="fill:white;fill-rule:nonzero;"/>
                <path d="M198.3,314.7C198.1,314.5 197.9,314.4 197.8,314.2C165.7,282.1 165.7,229.9 197.8,197.8C222,173.6 257.5,167.6 287.3,179.9L282.1,161.4C249.2,152.3 212.4,160.7 186.5,186.6C148.1,225 148.1,287.1 186.5,325.5C186.7,325.7 186.9,325.8 187,326L173.6,339.4L225.7,353.4L211.7,301.3L198.3,314.7Z" style="fill:white;fill-rule:nonzero;"/>
            </g>
        </g>
        <g>
            <g opacity="0.4">
                <rect x="226" y="219.5" width="24" height="83"/>
                <rect x="264" y="219.5" width="136.1" height="83"/>
            </g>
        </g>
        <rect x="226" y="214.5" width="24" height="83" style="fill:white;"/>
        <rect x="264" y="214.5" width="136.1" height="83" style="fill:white;"/>
    </g>
</svg>
