<?xml version="1.0" encoding="utf-8"?>
<!-- Generator: Adobe Illustrator 18.0.0, SVG Export Plug-In . SVG Version: 6.00 Build 0)  -->
<!DOCTYPE svg PUBLIC "-//W3C//DTD SVG 1.1//EN" "http://www.w3.org/Graphics/SVG/1.1/DTD/svg11.dtd">
<svg version="1.1" id="Layer_2" xmlns="http://www.w3.org/2000/svg" xmlns:xlink="http://www.w3.org/1999/xlink" x="0px" y="0px"
	 viewBox="0 0 512 512" style="enable-background:new 0 0 512 512;" xml:space="preserve">
<g>
	<path style="fill:#FF0000;" d="M283.872,467.906c-5.623,0-11.245,0-17.766,0c-0.51,6.209-0.957,11.65-1.467,17.855
		c-5.641,0-11.035,0-17.14,0c0-11.77,0-23.302,0-35.612c5.559-0.294,10.653-0.563,16.744-0.886c0-5.439,0-10.832,0-17.28
		c-4.986-0.413-10.422-0.864-17.211-1.425c0-6.093,0-12.021,0-17.952l-0.374,0.374c17.853,0,35.704,0,54.516,0
		c0-6.23,0-11.599,0-17.874c-5.17-0.455-10.608-0.935-16.741-1.475c0-5.693,0-11.085,0-17.806c11.971,0,23.555,0,35.614,0
		c0-6.401,0-11.487,0-17.592c-5.438-0.452-10.875-0.905-17.7-1.474c0-6.091,0-12.03,0-17.966l-0.387,0.362
		c5.914,0,11.826,0,17.763,0c0-13.3,0-24.792,0-36.211c-12.412,0-23.941,0-36.21,0c0,6.495,0,12.13,0,17.763l0.362-0.387
		c-5.649,0-11.298,0-17.734,0c-0.554,6.306-1.033,11.776-1.574,17.921c-5.725,0-11.134,0-17.157,0c0-11.758,0-23.005,0-35.301
		c5.401-0.479,10.834-0.962,17.036-1.514c0-5.614,0-11.027,0-17.343c-5.378-0.271-10.498-0.529-16.956-0.854
		c-0.318-5.899-0.638-11.81-0.941-17.737c0.015-0.016-0.366,0.42-0.366,0.42c12.07,0,24.14,0,36.98,0
		c0.323,5.473,0.623,10.562,0.985,16.681c5.336,0,10.743,0,17.464,0c0-10.98,0-22.519,0-34.91c6.601-0.581,12.01-1.056,19.185-1.687
		c0-6.037,0-11.965,0-17.892l-0.387,0.362c5.972,0,11.942,0,18.817,0c0-7.504,0-13.159,0-18.817l-0.362,0.387
		c5.66,0,11.323,0,18.429,0c0,12.594,0,24.734,0,36.875l0.383-0.365c-5.924,0-11.849,0-17.756,0c0,13.389,0,24.935,0,36.407
		c6.329,0.578,11.779,1.075,16.93,1.545c0,6.225,0,11.321,0,17.106c-6.024,0.349-11.466,0.663-16.935,0.98
		c0,6.379,0,11.757,0,16.973c12.402,0,23.907,0,36.208,0c0-18.83,0-36.694,0-54.56l-0.368,0.368c6.272,0,12.544,0,18.817,0
		l-0.368-0.368c0,5.935,0,11.868,0,17.746c7.213,0,12.604,0,18.817,0c0-6.501,0-12.123,0-17.746l-0.362,0.387
		c6.261,0.01,12.522,0.018,18.783,0.027l-0.374-0.374c0.145,18.545,0.29,37.089,0.434,55.636c-6.132-0.16-12.264-0.32-18.395-0.479
		c-0.299-5.87-0.599-11.741-0.872-17.094c-6.698,0-12.072,0-17.216,0c0,6.091,0,11.161,0,16.691c6.548,0,12.494,0,18.426,0.016
		c-0.015,6.243-0.015,12.47-0.015,18.187c6.714,0,12.065,0,17.696,0c0-6.547,0-12.122,0-17.696c5.649,0,11.298,0,18.295,0
		c0,12.446,0,24.043,0,37.023c12.866,0,24.44,0,36.578,0c0,43.311,0,85.22,0,128.185c-36.239,0-72.653,0-109.699,0
		c-0.242-5.473-0.466-10.593-0.73-16.541c-5.79,0-11.19,0-17.587,0c-0.31,5.543-0.617,11.013-0.951,16.988
		c-5.869,0-10.974,0-17.175,0c-0.447-5.31-0.905-10.769-1.517-18.045c-12.147,0-24.261,0-36.374,0l0.362,0.387
		c0.05-6.12,0.098-12.241,0.149-18.361c5.87-0.297,11.741-0.596,17.96-0.91c0-6.835,0-12.436,0-18.039
		c6.279,0.024,12.556,0.048,18.834,0.073c0,5.882,0,11.765,0,17.919c12.691,0,24.122,0,35.93,0c0-6.574,0-12.481,0.016-18.374
		c6.477,0.161,12.938,0.308,19.398,0.455c0,5.946,0,11.892,0,18.387c13.258,0,25.036,0,36.813,0c0,5.953,0,11.905,0,17.687
		c13.085,0,24.632,0,36.116,0c0-12.234,0-23.484,0-35.164c-6.048,0-11.458,0-17.167,0c-0.528,6.169-0.994,11.636-1.525,17.851
		c-6.497,0-12.149,0-17.8,0c0-12.041,0-24.082,0-36.234c-6.656,0-12.038,0-17.624,0c-0.504,6.219-0.944,11.65-1.446,17.847
		c-6.522,0-12.131,0-17.742,0c0-5.904,0-11.807,0-17.889c-6.706,0-12.08,0-18.636,0c0,6.308,0,11.854,0,17.399
		c-12.236,0.163-24.472,0.326-36.708,0.489c0-5.936,0-11.873,0-17.792c-6.86,0-12.251,0-18.085,0c0,6.479,0,12.099,0,17.721
		c-5.872,0-11.742,0-17.929,0c0,7.137,0,13.032-0.016,18.913c-6.25-0.015-12.481-0.015-19.351-0.015c0,6.895,0,12.465,0,18.035
		L283.872,467.906z M340.077,339.452c0,19.062,0,36.739,0,54.176c18.408,0,35.772,0,53.501,0c0-18.366,0-36.037,0-54.176
		C375.415,339.452,358.056,339.452,340.077,339.452z M431.853,376.353c0,6.44,0,11.545,0,17.27c12.131,0,23.693,0,35.496,0
		c0-6.099,0-11.487,0-17.27C455.302,376.353,444.078,376.353,431.853,376.353z"/>
	<path style="fill:#FF0000;" d="M26,153.552c0-42.881,0-84.836,0-127.494c42.529,0,84.488,0,127.504,0c0,42.006,0,84.278,0,127.494
		C111.606,153.552,69.339,153.552,26,153.552z M44.386,135.409c31.116,0,60.772,0,90.974,0c0-30.604,0-60.572,0-90.742
		c-30.725,0-60.695,0-90.974,0C44.386,75.191,44.386,104.848,44.386,135.409z"/>
	<path style="fill:#FF0000;" d="M485.689,153.909c-42.882,0-84.839,0-127.497,0c0-42.53,0-84.488,0-127.504
		c42.009,0,84.281,0,127.497,0C485.689,68.306,485.689,110.575,485.689,153.909z M376.569,44.318c0,31.116,0,60.772,0,90.974
		c30.604,0,60.572,0,90.742,0c0-30.725,0-60.695,0-90.974C436.786,44.318,407.131,44.318,376.569,44.318z"/>
	<path style="fill:#FF0000;" d="M153.967,358.348c0,42.911,0,84.868,0,127.515c-42.54,0-84.497,0-127.504,0
		c0-42.038,0-84.308,0-127.515C68.393,358.348,110.66,358.348,153.967,358.348z M44.424,467.148c31.116,0,61.087,0,90.606,0
		c0-30.948,0-60.924,0-90.552c-30.744,0-60.406,0-90.606,0C44.424,406.979,44.424,436.637,44.424,467.148z"/>
	<path style="fill:#FF0000;" d="M246.977,98.942c-6.267,0-12.536,0-18.804,0l0.362,0.387c0-5.935,0-11.868,0-17.746
		c-7.22,0-12.614,0-18.817,0c0,6.501,0,12.123,0,17.746l0.362-0.387c-11.77,0-23.539,0-36.185,0c0-5.967,0-11.358,0-17.758
		c5.478-0.305,10.935-0.608,16.944-0.943c0-5.849,0-10.956,0-17.185c-5.28-0.441-10.735-0.897-16.998-1.42c0-5.586,0-11,0-17.293
		c5.252-0.313,10.382-0.62,16.717-0.997c0.487-5.251,0.994-10.696,1.587-17.073c5.315,0,10.725,0,17.546,0
		c0,11.452,0,23.062,0,35.298c6.427,0,11.519,0,17.782,0c0.473-5.112,0.978-10.57,1.611-17.393c17.583,0,35.328,0,54.029,0
		c0.392-6.674,0.715-12.143,1.067-18.129c18.395,0,36.108,0,54.339,0c0,5.79,0,10.888,0,16.914
		c-5.554,0.484-11.009,0.959-17.174,1.495c0,5.699,0,11.111,0,17.366c5.548,0.257,10.687,0.494,16.76,0.773
		c0,11.662,0,23.234,0,36.348c-11.962,0-24.051,0-36.14,0l0.365,0.383c0-12.075,0-24.148,0-36.169c-19.517,0-37.172,0-55.712,0
		c0,12.659,0,24.414,0,36.169L246.977,98.942z"/>
	<path style="fill:#FF0000;" d="M154.761,210.012c0-5.652,0-11.303,0-17.726c-6.332-0.567-11.805-1.057-17.94-1.606
		c0-5.407,0-10.525,0-16.707c29.695,0,59.704,0,90.624,0c0,5.1,0,10.493,0,16.872c-5.462,0.337-10.922,0.675-16.931,1.046
		c0,11.997,0,23.257,0,35.458c5.481,0,10.877,0,17.199,0c0.394-5.367,0.794-10.829,1.238-16.873c11.831,0,23.092,0,35.327,0
		c0,5.378,0,10.762,0,17.075c-5.27,0.449-10.733,0.915-18.069,1.54c0,12.456,0,24.622-0.015,36.807
		c-0.015,0.016,0.368-0.418,0.353-0.402c-6.135-0.161-12.255-0.339-18.376-0.517l0.362,0.387c0-5.935,0-11.868,0-17.746
		c-7.195,0-12.596,0-18.817,0c0,6.501,0,12.123,0,17.746l0.362-0.387c-6.267,0-12.536,0-18.804,0l0.362,0.387
		c0-12.143,0-24.285,0-37.265c-7.488,0-13.151,0-18.815,0l0.368,0.368c0-5.97,0-11.942,0-18.817c-7.512,0-13.164,0-18.817,0
		L154.761,210.012z"/>
	<path style="fill:#FF0000;" d="M44.089,265.325c0-5.612,0-11.223,0-17.743c-6.198-0.502-11.634-0.943-17.859-1.446
		c0-11.671,0-23.178,0-36.52c5.982,0,11.884,0,17.785,0c0,5.925,0,11.849,0,17.818c6.805,0,12.18,0,17.383,0
		c0-6.272,0-11.65,0-17.443c-6.527,0-12.144,0-17.759,0c0-5.648,0-11.297,0-17.746c-5.898-0.526-11.366-1.014-17.504-1.559
		c0-5.423,0-10.533,0-16.699c29.658,0,59.642,0,90.579,0c0,5.031,0,10.422,0,16.733c-5.33,0.412-10.793,0.834-17.064,1.319
		c-0.263,5.572-0.507,10.708-0.801,16.925c-5.485,0.483-10.953,0.962-18.289,1.606c0,12.078,0,24.209,0,36.339l0.387-0.362
		c-5.972,0-11.942,0-18.817,0c0,7.512,0,13.164,0,18.817l0.362-0.387c-6.259-0.008-12.519-0.016-18.778-0.024L44.089,265.325z"/>
	<path style="fill:#FF0000;" d="M431.437,265.409c0-5.669,0-11.335,0-18.382c12.089,0,23.727,0,36.024,0c0-6.463,0-11.565,0-17.868
		c-5.034-0.468-10.504-0.975-16.86-1.566c0-17.658,0-35.409,0-53.911c5.564,0,10.961,0,17.343,0c0,11.779,0,23.055,0,35.204
		c6.314,0.571,11.758,1.062,17.927,1.621c0,17.992,0,35.738,0,54.234c-5.61,0.265-10.735,0.505-16.768,0.789
		c0,5.675,0,11.097,0,17.416c5.355,0.42,10.829,0.849,16.875,1.324c0,11.766,0,23.028,0,35.273c-5.372,0-10.766,0-17.057,0
		c-0.452-5.254-0.922-10.727-1.454-16.933c-5.493-0.326-10.635-0.629-17.183-1.018c0-11.515,0-23.121,0-36.562
		c-7.315,0-13.266,0-19.217,0C431.064,265.035,431.437,265.409,431.437,265.409z"/>
	<path style="fill:#FF0000;" d="M173.182,338.769c-23.993,0-47.984,0-73.055,0c-0.518-5.723-1.01-11.142-1.622-17.897
		c-11.519,0-23.091,0-36.011,0c0-19.504,0-37.699,0-55.896l-0.362,0.387c6.272,0,12.544,0,18.817,0l-0.368-0.368
		c0,5.972,0,11.942,0,18.817c7.512,0,13.164,0,18.817,0l-0.368-0.368c0,5.924,0,11.846,0,17.918
		c7.139,0.605,12.561,1.065,17.985,1.525c0.555,6.296,1.031,11.689,1.604,18.177c18.608,0,36.255,0,54.203,0
		c0,6.837,0,12.464,0,18.092L173.182,338.769z"/>
	<path style="fill:#FF0000;" d="M301.94,135.864c0,11.704,0,23.409,0,36.147c6.117,0.542,11.513,1.02,17.843,1.58
		c0.454,5.396,0.91,10.819,1.516,18.026c6.056,0,11.976,0,17.897,0l-0.374-0.374c0.013,6.266,0.026,12.53,0.039,18.796l0.362-0.387
		c-5.97,0-11.942,0-18.817,0c0,7.504,0,13.159,0,18.817l0.387-0.362c-5.63,0-11.261,0-17.821,0
		c-0.479-5.825-0.928-11.269-1.441-17.506c-5.612-0.476-11.05-0.938-17.634-1.498c0-24.611,0-48.925,0-73.238l-0.387,0.362
		c6.272,0,12.544,0,18.817,0L301.94,135.864z"/>
	<path style="fill:#FF0000;" d="M376.133,246.912c0-24.02,0-48.042,0-73.013c5.854,0,11.239,0,18.006,0c0,11.373,0,22.957,0,35.877
		c12.882,0,24.477,0,36.566,0c0,6.463,0,11.557,0,17.693c-5.397,0.45-10.851,0.905-18.052,1.508c0,12.191,0,24.298,0,36.407
		l0.362-0.387c-6.272,0-12.544,0-18.817,0l0.368,0.368c0-5.97,0-11.942,0-18.817c-7.504,0-13.159,0-18.817,0L376.133,246.912z"/>
	<path style="fill:#FF0000;" d="M209.166,430.588c0.168,12.559,0.337,25.118,0.505,37.678l0.374-0.374c-5.625,0-11.25,0-17.722,0
		c-0.526,6.267-0.983,11.715-1.503,17.895c-5.675,0-11.072,0-17.146,0c0-30.247,0-60.152,0-90.763c5.807,0,11.184,0,17.855,0
		c0,12.117,0,23.714,0,35.917c6.868,0,12.454,0,18.056,0.015C209.602,430.972,209.166,430.588,209.166,430.588z"/>
	<path style="fill:#FF0000;" d="M247.032,412.606c-5.577,0-11.151,0-17.851,0c-0.471,5.893-0.902,11.274-1.441,18.011
		c-6.083,0-12.31,0-18.554-0.015c-0.016-0.015,0.42,0.37,0.404,0.355c-0.016-17.835-0.016-35.656-0.016-54.456
		c6.587-0.423,12.01-0.77,18.203-1.167c0.347-5.565,0.665-10.675,1.049-16.851c11.381,0,22.889,0,35.415,0
		c0,4.879,0,10.248,0,16.604c-5.062,0.431-10.503,0.893-17.585,1.496c0,12.225,0,24.311,0.002,36.397L247.032,412.606z"/>
	<path style="fill:#FF0000;" d="M136.312,265.356c0-5.623,0-11.245,0-17.8c5.798-0.475,11.237-0.922,18.449-1.512
		c0-6.074,0-12.005,0-17.939l-0.387,0.362c6.272,0,12.544,0,18.817,0l-0.368-0.368c0,12.143,0,24.285,0,37.265
		c7.494,0,13.155,0,18.815,0l-0.362-0.387c-0.008,12.425-0.018,24.852-0.026,37.277l0.387-0.362c-5.932,0-11.865,0-17.976,0
		c-0.56-6.818-1.006-12.262-1.482-18.061c-6.558,0-12.18,0-17.8,0c0-5.815,0-11.631,0-18.834c-6.8,0-12.627,0-18.453,0
		L136.312,265.356z"/>
	<path style="fill:#FF0000;" d="M43.714,264.952c0,24.011,0,48.02,0,73.021c-5.83,0-11.213,0-17.454,0c0-23.515,0-47.332,0-72.645
		c5.943,0,11.884,0,17.827,0C44.089,265.325,43.714,264.952,43.714,264.952z"/>
	<path style="fill:#FF0000;" d="M264.51,135.415c0,18.215,0,36.428,0,55.299c-5.499,0-10.583,0-16.693,0c0-17.732,0-35.729,0-54.946
		c5.919,0,11.508,0,17.112,0.015C264.944,135.799,264.51,135.415,264.51,135.415z"/>
	<path style="fill:#FF0000;" d="M301.963,117.791c11.705,0,23.41,0,36.093,0c0,11.826,0,23.3,0,35.742c-5.031,0-10.385,0-16.678,0
		c-0.439-5.138-0.902-10.558-1.509-17.669c-6.08,0-12.004,0-17.927,0l0.387,0.362c0-6.272,0-12.544,0-18.817L301.963,117.791z"/>
	<path style="fill:#FF0000;" d="M228.173,98.942c0,17.895,0,35.79,0,54.611c-5.917,0-11.303,0-18.094,0c0-18.127,0-36.369,0-54.611
		l-0.362,0.387c6.272,0,12.544,0,18.817,0L228.173,98.942z"/>
	<path style="fill:#FF0000;" d="M191.25,338.794c0,11.745,0,23.491,0,36.15c-5.872,0-11.25,0-18.068,0c0-11.996,0-24.087,0-36.176
		l-0.362,0.387c6.272,0,12.544,0,18.815,0L191.25,338.794z"/>
	<path style="fill:#FF0000;" d="M191.25,302.253c5.646,0,11.294,0,17.792,0c0,11.963,0,23.518,0,36.541c-5.917,0-11.854,0-17.792,0
		l0.387,0.362c0-12.422,0-24.843,0-37.265L191.25,302.253z"/>
	<path style="fill:#FF0000;" d="M99.036,265.382c12.425-0.008,24.852-0.018,37.277-0.026l-0.387-0.362
		c0.121,6.279,0.242,12.557,0.362,18.834c-12.42-0.129-24.839-0.258-37.259-0.386l0.368,0.368c0-6.272,0-12.544,0-18.817
		L99.036,265.382z"/>
	<path style="fill:#FF0000;" d="M173.831,118.229c6.196,0,11.303,0,17.009,0c0,11.839,0,23.068,0,35.28c-5.391,0-10.779,0-17.009,0
		C173.831,142.184,173.831,130.624,173.831,118.229z"/>
	<path style="fill:#FF0000;" d="M154.761,228.105c-11.75,0-23.501,0-36.171,0c0-5.914,0-11.297,0-18.094c11.986,0,24.078,0,36.171,0
		l-0.387-0.362c0,6.272,0,12.544,0,18.817L154.761,228.105z"/>
	<path style="fill:#FF0000;" d="M430.544,190.767c-5.572,0-10.674,0-16.744,0c0-5.292,0-10.703,0-16.978c5.183,0,10.591,0,16.744,0
		C430.544,179.33,430.544,184.739,430.544,190.767z"/>
	<path style="fill:#FF0000;" d="M339.197,191.616c0-5.615,0-11.232,0-17.759c5.793,0,11.171,0,17.443,0c0,5.204,0,10.577,0,17.383
		c-5.967,0-11.891,0-17.816,0C338.823,191.242,339.197,191.616,339.197,191.616z"/>
	<path style="fill:#FF0000;" d="M301.961,98.947c0,6.282,0,12.562,0,18.844l0.365-0.383c-6.272,0-12.544,0-18.817,0l0.368,0.368
		c-0.121-6.277-0.244-12.554-0.365-18.83c6.271,0.128,12.541,0.255,18.813,0.383L301.961,98.947z"/>
	<path style="fill:#FF0000;" d="M283.898,135.864c-6.451-0.14-12.903-0.281-19.372-0.434c-0.016-0.015,0.418,0.37,0.402,0.355
		c0.163-6.132,0.342-12.251,0.521-18.368l-0.387,0.362c6.272,0,12.544,0,18.817,0l-0.368-0.368c0,6.272,0,12.544,0,18.817
		L283.898,135.864z"/>
	<path style="fill:#FF0000;" d="M209.673,468.266c5.615,0,11.232,0,17.759,0c0,5.793,0,11.171,0,17.443c-5.204,0-10.577,0-17.383,0
		c0-5.967,0-11.891,0-17.816C210.047,467.892,209.673,468.266,209.673,468.266z"/>
	<path style="fill:#FF0000;" d="M301.966,467.906c0,5.628,0,11.258,0,17.763c-5.857,0-11.261,0-18.092,0c0-5.886,0-11.825,0-17.763
		l-0.362,0.387c6.272,0,12.544,0,18.817,0L301.966,467.906z"/>
	<path style="fill:#FF0000;" d="M357.289,246.912c6.282,0,12.562,0,18.844,0l-0.381-0.365c0,6.272,0,12.544,0,18.817l0.368-0.368
		c-5.97,0-11.939,0-18.447,0c0-7.145,0-12.796,0-18.449L357.289,246.912z"/>
	<path style="fill:#FF0000;" d="M80.561,246.909c5.817,0,11.636,0,18.473,0c0,6.839,0,12.656,0,18.473l0.362-0.387
		c-6.272,0-12.544,0-18.817,0l0.368,0.368c0-6.272,0-12.544,0-18.817L80.561,246.909z"/>
	<path style="fill:#FF0000;" d="M228.173,264.977c0,5.627,0,11.253,0,17.763c-5.857,0-11.261,0-18.092,0c0-5.886,0-11.825,0-17.763
		l-0.362,0.387c6.272,0,12.544,0,18.817,0L228.173,264.977z"/>
	<path style="fill:#FF0000;" d="M302.347,338.794c-5.817,0-11.636,0-18.473,0c0-6.839,0-12.656,0-18.473l-0.362,0.387
		c5.97,0,11.939,0,18.449,0c0,7.145,0,12.796,0,18.449L302.347,338.794z"/>
	<path style="fill:#FF0000;" d="M265.449,117.415c-5.817,0-11.636,0-18.473,0c0-6.839,0-12.656,0-18.473l-0.362,0.387
		c6.271-0.128,12.541-0.255,18.813-0.383c-0.121,6.277-0.244,12.554-0.365,18.83L265.449,117.415z"/>
	<path style="fill:#FF0000;" d="M357.961,374.876c0-5.743,0-10.842,0-16.694c5.869,0,11.276,0,17.332,0c0,5.477,0,10.58,0,16.694
		C370.074,374.876,364.665,374.876,357.961,374.876z"/>
	<path style="fill:#FF0000;" d="M116.623,117.113c-17.979,0-35.338,0-53.501,0c0-18.139,0-35.809,0-54.176
		c17.73,0,35.093,0,53.501,0C116.623,80.376,116.623,98.054,116.623,117.113z"/>
	<path style="fill:#FF0000;" d="M394.864,116.556c0-17.979,0-35.338,0-53.501c18.139,0,35.808,0,54.176,0c0,17.73,0,35.093,0,53.501
		C431.602,116.556,413.924,116.556,394.864,116.556z"/>
	<path style="fill:#FF0000;" d="M117.142,394.951c0,18.255,0,35.614,0,53.842c-17.968,0-35.638,0-54.074,0
		c0-17.864,0-35.533,0-53.842C80.962,394.951,98.322,394.951,117.142,394.951z"/>
	<path style="fill:#FF0000;" d="M283.879,99.33c-6.272,0-12.544,0-18.817,0c0-5.623,0-11.245,0-17.746c6.212,0,11.602,0,18.817,0
		C283.879,87.461,283.879,93.395,283.879,99.33z"/>
	<path style="fill:#FF0000;" d="M135.925,283.443c6.272,0,12.544,0,18.817,0c0,5.625,0,11.252,0,17.746c-6.212,0-11.602,0-18.817,0
		C135.925,295.311,135.925,289.378,135.925,283.443z"/>
</g>
</svg>
