<?xml version="1.0" encoding="utf-8"?>
<!-- Generator: Adobe Illustrator 22.0.1, SVG Export Plug-In . SVG Version: 6.00 Build 0)  -->
<svg version="1.1" id="Layer_1" xmlns="http://www.w3.org/2000/svg" xmlns:xlink="http://www.w3.org/1999/xlink" x="0px" y="0px"
	 viewBox="0 0 512 512" enable-background="new 0 0 512 512" xml:space="preserve">
<g>
	<path id="path3" opacity="0.4" d="M480.898,252.388l-19.145-11.851c-0.161-1.865-0.344-3.725-0.545-5.577l16.452-15.346
		c1.673-1.56,2.423-3.869,1.969-6.104c-0.44-2.244-2.013-4.091-4.152-4.889l-21.031-7.864c-0.527-1.821-1.081-3.629-1.647-5.429
		l13.119-18.221c1.338-1.852,1.612-4.261,0.741-6.374c-0.871-2.104-2.775-3.612-5.028-3.982l-22.177-3.608
		c-0.863-1.682-1.76-3.337-2.667-4.98l9.32-20.456c0.954-2.083,0.758-4.505-0.514-6.396c-1.268-1.9-3.416-3.011-5.708-2.924
		l-22.509,0.784c-1.163-1.455-2.348-2.897-3.555-4.313l5.172-21.925c0.523-2.226-0.135-4.557-1.756-6.174
		c-1.608-1.612-3.943-2.279-6.17-1.756l-21.92,5.167c-1.42-1.203-2.863-2.392-4.322-3.555l0.789-22.509
		c0.087-2.279-1.024-4.444-2.924-5.708c-1.904-1.272-4.313-1.464-6.392-0.518l-20.452,9.324c-1.651-0.906-3.307-1.804-4.98-2.671
		l-3.616-22.182c-0.366-2.248-1.874-4.157-3.982-5.028c-2.104-0.876-4.518-0.593-6.37,0.741l-18.234,13.119
		c-1.795-0.571-3.599-1.12-5.42-1.643l-7.864-21.036c-0.797-2.144-2.645-3.717-4.889-4.161c-2.24-0.44-4.544,0.305-6.1,1.969
		l-15.346,16.465c-1.852-0.205-3.717-0.392-5.577-0.545l-11.851-19.149c-1.198-1.939-3.32-3.12-5.603-3.12
		c-2.283,0-4.405,1.181-5.599,3.12l-11.851,19.149c-1.865,0.152-3.73,0.34-5.581,0.545l-15.35-16.465
		c-1.555-1.664-3.865-2.409-6.1-1.969c-2.244,0.449-4.091,2.017-4.889,4.161l-7.864,21.036c-1.821,0.523-3.625,1.076-5.425,1.643
		l-18.23-13.119c-1.852-1.338-4.266-1.621-6.374-0.741c-2.104,0.871-3.616,2.78-3.982,5.028l-3.616,22.182
		c-1.673,0.867-3.329,1.76-4.98,2.671l-20.452-9.324c-2.078-0.95-4.501-0.754-6.392,0.518c-1.9,1.264-3.011,3.429-2.924,5.708
		l0.784,22.508c-1.455,1.163-2.897,2.353-4.322,3.555l-21.92-5.167c-2.226-0.518-4.562,0.144-6.174,1.756
		c-1.621,1.616-2.279,3.947-1.756,6.174l5.163,21.925c-1.198,1.42-2.383,2.858-3.547,4.313l-22.508-0.784
		c-2.27-0.065-4.44,1.024-5.708,2.924c-1.272,1.891-1.464,4.313-0.518,6.396l9.324,20.456c-0.906,1.643-1.804,3.298-2.671,4.98
		l-22.177,3.608c-2.253,0.366-4.152,1.874-5.028,3.982c-0.871,2.113-0.588,4.523,0.741,6.374l13.119,18.221
		c-0.571,1.799-1.124,3.608-1.647,5.429l-21.036,7.864c-2.135,0.797-3.708,2.645-4.152,4.889c-0.444,2.24,0.301,4.544,1.969,6.104
		l16.457,15.346c-0.205,1.852-0.388,3.717-0.545,5.577l-19.145,11.851c-1.939,1.198-3.12,3.316-3.12,5.603
		c0,2.287,1.181,4.405,3.12,5.599l19.145,11.851c0.157,1.865,0.34,3.725,0.545,5.577l-16.457,15.35
		c-1.669,1.555-2.414,3.865-1.969,6.1c0.444,2.244,2.017,4.087,4.152,4.889l21.036,7.864c0.523,1.821,1.076,3.629,1.647,5.429
		l-13.119,18.226c-1.333,1.856-1.616,4.266-0.741,6.37c0.876,2.113,2.78,3.621,5.032,3.982l22.173,3.608
		c0.867,1.682,1.756,3.337,2.671,4.989l-9.324,20.448c-0.95,2.078-0.754,4.496,0.518,6.396c1.272,1.904,3.438,3.015,5.708,2.924
		l22.5-0.789c1.172,1.464,2.353,2.897,3.555,4.322l-5.163,21.929c-0.523,2.222,0.135,4.544,1.756,6.161
		c1.608,1.625,3.947,2.274,6.174,1.752l21.92-5.163c1.425,1.211,2.867,2.388,4.322,3.547l-0.784,22.513
		c-0.087,2.279,1.024,4.44,2.924,5.712c1.891,1.268,4.313,1.46,6.392,0.51l20.452-9.32c1.647,0.915,3.303,1.804,4.98,2.671
		l3.616,22.169c0.366,2.257,1.874,4.165,3.982,5.032c2.104,0.876,4.523,0.593,6.374-0.736l18.221-13.128
		c1.799,0.571,3.608,1.129,5.429,1.651l7.864,21.027c0.797,2.135,2.645,3.717,4.889,4.152c2.24,0.453,4.544-0.296,6.1-1.969
		l15.35-16.457c1.852,0.214,3.717,0.392,5.581,0.558l11.851,19.145c1.194,1.93,3.316,3.12,5.599,3.12
		c2.283,0,4.405-1.185,5.603-3.12l11.851-19.145c1.865-0.166,3.725-0.344,5.577-0.558l15.346,16.457
		c1.555,1.673,3.865,2.423,6.1,1.969c2.244-0.44,4.091-2.017,4.889-4.152l7.864-21.027c1.821-0.523,3.629-1.081,5.429-1.651
		l18.226,13.128c1.852,1.329,4.266,1.612,6.37,0.736c2.109-0.867,3.616-2.78,3.982-5.032l3.616-22.169
		c1.673-0.867,3.329-1.769,4.98-2.671l20.452,9.32c2.078,0.95,4.496,0.758,6.392-0.51c1.9-1.272,3.006-3.429,2.924-5.712
		l-0.784-22.513c1.455-1.163,2.897-2.335,4.318-3.547l21.92,5.163c2.226,0.523,4.562-0.126,6.17-1.752
		c1.621-1.616,2.279-3.939,1.756-6.161l-5.163-21.929c1.203-1.425,2.388-2.858,3.547-4.322l22.508,0.789
		c2.27,0.092,4.44-1.02,5.708-2.924c1.272-1.9,1.468-4.318,0.514-6.396l-9.32-20.448c0.911-1.651,1.804-3.307,2.667-4.989
		l22.177-3.608c2.257-0.362,4.157-1.869,5.028-3.982c0.871-2.104,0.597-4.514-0.741-6.37l-13.119-18.226
		c0.566-1.799,1.12-3.608,1.647-5.429l21.031-7.864c2.139-0.802,3.717-2.645,4.152-4.889c0.453-2.24-0.296-4.544-1.969-6.1
		l-16.452-15.35c0.2-1.852,0.383-3.717,0.545-5.577l19.145-11.851c1.939-1.194,3.12-3.316,3.12-5.599
		C484.013,255.708,482.837,253.586,480.898,252.388L480.898,252.388z M352.761,411.207c-7.311-1.577-11.96-8.784-10.392-16.117
		c1.564-7.324,8.766-11.986,16.073-10.409c7.311,1.564,11.969,8.784,10.4,16.104C367.275,408.105,360.068,412.771,352.761,411.207z
		 M346.256,367.21c-6.671-1.429-13.232,2.815-14.661,9.498l-6.797,31.719c-20.975,9.52-44.268,14.81-68.798,14.81
		c-25.092,0-48.89-5.551-70.24-15.476l-6.793-31.719c-1.429-6.675-7.991-10.927-14.657-9.494l-28.003,6.013
		c-5.198-5.35-10.034-11.049-14.478-17.067h136.254c1.542,0,2.571-0.279,2.571-1.682v-48.198c0-1.403-1.028-1.682-2.571-1.682
		h-39.85v-30.552h43.1c3.934,0,21.036,1.124,26.504,22.983c1.712,6.723,5.472,28.591,8.043,35.593
		c2.562,7.851,12.993,23.537,24.108,23.537h67.896c0.771,0,1.595-0.087,2.462-0.244c-4.71,6.401-9.877,12.457-15.441,18.117
		L346.256,367.21L346.256,367.21z M157.805,410.545c-7.311,1.577-14.509-3.085-16.082-10.409
		c-1.564-7.337,3.085-14.539,10.396-16.117c7.311-1.564,14.513,3.098,16.082,10.422
		C169.765,401.761,165.112,408.976,157.805,410.545z M106.118,200.949c3.032,6.845-0.052,14.866-6.888,17.894
		c-6.836,3.037-14.836-0.052-17.868-6.902c-3.033-6.849,0.052-14.858,6.888-17.894C95.09,191.015,103.085,194.1,106.118,200.949z
		 M90.232,238.607l29.17-12.962c6.231-2.767,9.045-10.069,6.278-16.313l-6.008-13.585h23.628V302.25H95.63
		c-4.135-14.535-6.353-29.876-6.353-45.732C89.278,250.467,89.604,244.485,90.232,238.607z M218.242,228.263v-31.393h56.267
		c2.906,0,20.522,3.359,20.522,16.531c0,10.936-13.511,14.858-24.622,14.858h-52.167V228.263z M422.727,256.519
		c0,4.165-0.152,8.287-0.457,12.378h-17.106c-1.712,0-2.401,1.124-2.401,2.802v7.856c0,18.491-10.426,22.513-19.563,23.537
		c-8.701,0.98-18.348-3.642-19.537-8.967c-5.133-28.87-13.685-35.035-27.192-45.688c16.762-10.644,34.203-26.347,34.203-47.365
		c0-22.696-15.559-36.991-26.164-44.002c-14.879-9.808-31.353-11.773-35.798-11.773H131.802
		c23.99-26.774,56.502-45.74,93.276-52.642l20.853,21.877c4.714,4.937,12.522,5.12,17.454,0.401l23.332-22.317
		c48.89,9.102,90.282,39.536,114.137,81.289l-15.973,36.076c-2.758,6.244,0.057,13.546,6.283,16.313l30.752,13.659
		C422.448,245.413,422.727,250.929,422.727,256.519L422.727,256.519z M245.94,74.046c5.403-5.176,13.973-4.971,19.145,0.44
		c5.163,5.425,4.967,14.004-0.449,19.175c-5.403,5.176-13.973,4.976-19.145-0.444C240.332,87.801,240.528,79.222,245.94,74.046z
		 M404.449,201.607c3.028-6.845,11.028-9.934,17.864-6.897c6.836,3.033,9.921,11.049,6.888,17.894
		c-3.028,6.849-11.028,9.938-17.868,6.902C404.506,216.473,401.421,208.461,404.449,201.607z"/>
	<path id="path3_1_" fill="#FFFFFF" d="M480.898,248.423l-19.145-11.851c-0.161-1.865-0.344-3.725-0.545-5.577l16.452-15.346
		c1.673-1.56,2.423-3.869,1.969-6.104c-0.44-2.244-2.013-4.091-4.152-4.889l-21.031-7.864c-0.527-1.821-1.081-3.629-1.647-5.429
		l13.119-18.221c1.338-1.852,1.612-4.261,0.741-6.374c-0.871-2.104-2.775-3.612-5.028-3.982l-22.177-3.608
		c-0.863-1.682-1.76-3.337-2.667-4.98l9.32-20.456c0.954-2.083,0.758-4.505-0.514-6.396c-1.268-1.9-3.416-3.011-5.708-2.924
		l-22.509,0.784c-1.163-1.455-2.348-2.897-3.555-4.313l5.172-21.925c0.523-2.226-0.135-4.557-1.756-6.174
		c-1.608-1.612-3.943-2.279-6.17-1.756l-21.92,5.167c-1.42-1.203-2.863-2.392-4.322-3.555l0.789-22.508
		c0.087-2.279-1.024-4.444-2.924-5.708c-1.904-1.272-4.313-1.464-6.392-0.518l-20.452,9.324c-1.651-0.906-3.307-1.804-4.98-2.671
		l-3.616-22.182c-0.366-2.248-1.874-4.157-3.982-5.028c-2.104-0.876-4.518-0.593-6.37,0.741l-18.234,13.119
		c-1.795-0.571-3.599-1.12-5.42-1.643l-7.864-21.036c-0.797-2.144-2.645-3.717-4.889-4.161c-2.24-0.44-4.544,0.305-6.1,1.969
		l-15.346,16.465c-1.852-0.205-3.717-0.392-5.577-0.545L261.616,29.12c-1.198-1.939-3.32-3.12-5.603-3.12
		c-2.283,0-4.405,1.181-5.599,3.12l-11.851,19.149c-1.865,0.152-3.73,0.34-5.581,0.545l-15.35-16.465
		c-1.555-1.664-3.865-2.409-6.1-1.969c-2.244,0.449-4.091,2.017-4.889,4.161l-7.864,21.036c-1.821,0.523-3.625,1.076-5.425,1.643
		l-18.23-13.119c-1.852-1.338-4.266-1.621-6.374-0.741c-2.104,0.871-3.616,2.78-3.982,5.028l-3.616,22.182
		c-1.673,0.867-3.329,1.76-4.98,2.671l-20.452-9.324c-2.078-0.95-4.501-0.754-6.392,0.518c-1.9,1.264-3.011,3.429-2.924,5.708
		l0.784,22.508c-1.455,1.163-2.897,2.353-4.322,3.555l-21.92-5.167c-2.226-0.518-4.562,0.144-6.174,1.756
		c-1.621,1.616-2.279,3.947-1.756,6.174l5.163,21.925c-1.198,1.42-2.383,2.858-3.547,4.313l-22.508-0.784
		c-2.27-0.065-4.44,1.024-5.708,2.924c-1.272,1.891-1.464,4.313-0.518,6.396l9.324,20.456c-0.906,1.643-1.804,3.298-2.671,4.98
		l-22.177,3.608c-2.253,0.366-4.152,1.874-5.028,3.982c-0.871,2.113-0.588,4.523,0.741,6.374l13.119,18.221
		c-0.571,1.799-1.124,3.608-1.647,5.429l-21.036,7.864c-2.135,0.797-3.708,2.645-4.152,4.889c-0.444,2.24,0.301,4.544,1.969,6.104
		l16.457,15.346c-0.205,1.852-0.388,3.717-0.545,5.577l-19.145,11.851c-1.939,1.198-3.12,3.316-3.12,5.603s1.181,4.405,3.12,5.599
		l19.145,11.851c0.157,1.865,0.34,3.725,0.545,5.577l-16.457,15.35c-1.669,1.555-2.414,3.865-1.969,6.1
		c0.444,2.244,2.017,4.087,4.152,4.889l21.036,7.864c0.523,1.821,1.076,3.629,1.647,5.429L46.086,334.91
		c-1.333,1.856-1.616,4.266-0.741,6.37c0.876,2.113,2.78,3.621,5.032,3.982l22.173,3.608c0.867,1.682,1.756,3.337,2.671,4.989
		l-9.324,20.448c-0.95,2.078-0.754,4.496,0.518,6.396c1.272,1.904,3.438,3.015,5.708,2.924l22.5-0.789
		c1.172,1.464,2.353,2.897,3.555,4.322l-5.163,21.929c-0.523,2.222,0.135,4.544,1.756,6.161c1.608,1.625,3.947,2.274,6.174,1.752
		l21.92-5.163c1.425,1.211,2.867,2.388,4.322,3.547l-0.784,22.513c-0.087,2.279,1.024,4.44,2.924,5.712
		c1.891,1.268,4.313,1.46,6.392,0.51l20.452-9.32c1.647,0.915,3.303,1.804,4.98,2.671l3.616,22.169
		c0.366,2.257,1.874,4.165,3.982,5.032c2.104,0.876,4.523,0.593,6.374-0.736l18.221-13.128c1.799,0.571,3.608,1.128,5.429,1.651
		l7.864,21.027c0.797,2.135,2.645,3.717,4.889,4.152c2.24,0.453,4.544-0.296,6.1-1.969l15.35-16.457
		c1.852,0.214,3.717,0.392,5.581,0.558l11.851,19.145c1.194,1.93,3.316,3.12,5.599,3.12c2.283,0,4.405-1.185,5.603-3.12
		l11.851-19.145c1.865-0.166,3.725-0.344,5.577-0.558l15.346,16.457c1.555,1.673,3.865,2.423,6.1,1.969
		c2.244-0.44,4.091-2.017,4.889-4.152l7.864-21.027c1.821-0.523,3.629-1.081,5.429-1.651l18.226,13.128
		c1.852,1.329,4.266,1.612,6.37,0.736c2.109-0.867,3.616-2.78,3.982-5.032l3.616-22.169c1.673-0.867,3.329-1.769,4.98-2.671
		l20.452,9.32c2.078,0.95,4.496,0.758,6.392-0.51c1.9-1.272,3.006-3.429,2.924-5.712l-0.784-22.513
		c1.455-1.163,2.897-2.335,4.318-3.547l21.92,5.163c2.226,0.523,4.562-0.126,6.17-1.752c1.621-1.616,2.279-3.939,1.756-6.161
		l-5.163-21.929c1.203-1.425,2.388-2.858,3.547-4.322l22.508,0.789c2.27,0.091,4.44-1.02,5.708-2.924
		c1.272-1.9,1.468-4.318,0.514-6.396l-9.32-20.448c0.911-1.651,1.804-3.307,2.667-4.989l22.177-3.608
		c2.257-0.362,4.157-1.869,5.028-3.982c0.871-2.104,0.597-4.514-0.741-6.37l-13.119-18.225c0.566-1.799,1.12-3.608,1.647-5.429
		l21.031-7.864c2.139-0.802,3.717-2.645,4.152-4.889c0.453-2.24-0.296-4.544-1.969-6.1l-16.452-15.35
		c0.2-1.852,0.383-3.717,0.545-5.577l19.145-11.851c1.939-1.194,3.12-3.316,3.12-5.599S482.837,249.621,480.898,248.423
		L480.898,248.423z M352.761,407.242c-7.311-1.577-11.96-8.784-10.392-16.117c1.564-7.324,8.766-11.986,16.073-10.409
		c7.311,1.564,11.969,8.784,10.4,16.104C367.275,404.139,360.068,408.806,352.761,407.242z M346.256,363.244
		c-6.671-1.429-13.232,2.815-14.661,9.498l-6.797,31.719c-20.975,9.52-44.268,14.81-68.798,14.81
		c-25.092,0-48.89-5.551-70.24-15.476l-6.793-31.719c-1.429-6.675-7.991-10.927-14.657-9.494l-28.003,6.013
		c-5.198-5.35-10.034-11.049-14.478-17.067h136.254c1.542,0,2.571-0.279,2.571-1.682v-48.198c0-1.403-1.028-1.682-2.571-1.682
		h-39.85v-30.552h43.1c3.934,0,21.036,1.124,26.504,22.983c1.712,6.723,5.472,28.591,8.043,35.593
		c2.562,7.851,12.993,23.537,24.108,23.537h67.896c0.771,0,1.595-0.087,2.462-0.244c-4.71,6.401-9.877,12.457-15.441,18.117
		L346.256,363.244L346.256,363.244z M157.805,406.579c-7.311,1.577-14.509-3.085-16.082-10.409
		c-1.564-7.337,3.085-14.539,10.396-16.117c7.311-1.564,14.513,3.098,16.082,10.422
		C169.765,397.796,165.112,405.011,157.805,406.579z M106.118,196.984c3.032,6.845-0.052,14.866-6.888,17.894
		c-6.836,3.037-14.836-0.052-17.868-6.902c-3.033-6.849,0.052-14.858,6.888-17.894C95.09,187.05,103.085,190.134,106.118,196.984z
		 M90.232,234.642l29.17-12.962c6.231-2.767,9.045-10.069,6.278-16.313l-6.008-13.585h23.628v106.504H95.63
		c-4.135-14.535-6.353-29.876-6.353-45.732C89.278,246.501,89.604,240.519,90.232,234.642z M218.242,224.298v-31.393h56.267
		c2.906,0,20.522,3.359,20.522,16.531c0,10.936-13.511,14.858-24.622,14.858h-52.167V224.298z M422.727,252.553
		c0,4.165-0.152,8.287-0.457,12.378h-17.106c-1.712,0-2.401,1.124-2.401,2.802v7.856c0,18.491-10.426,22.513-19.563,23.537
		c-8.701,0.98-18.348-3.642-19.537-8.967c-5.133-28.87-13.685-35.035-27.192-45.688c16.762-10.644,34.203-26.347,34.203-47.365
		c0-22.696-15.559-36.991-26.164-44.002c-14.879-9.808-31.353-11.773-35.798-11.773H131.802
		c23.99-26.774,56.502-45.74,93.276-52.642l20.853,21.877c4.714,4.937,12.522,5.12,17.454,0.401l23.332-22.317
		c48.89,9.102,90.282,39.536,114.137,81.289l-15.973,36.076c-2.758,6.244,0.057,13.546,6.283,16.313l30.752,13.659
		C422.448,241.447,422.727,246.963,422.727,252.553L422.727,252.553z M245.94,70.08c5.403-5.176,13.973-4.971,19.145,0.44
		c5.163,5.425,4.967,14.004-0.449,19.175c-5.403,5.176-13.973,4.976-19.145-0.444C240.332,83.835,240.528,75.256,245.94,70.08z
		 M404.449,197.642c3.028-6.845,11.028-9.934,17.864-6.897c6.836,3.033,9.921,11.049,6.888,17.894
		c-3.028,6.849-11.028,9.938-17.868,6.902C404.506,212.508,401.421,204.495,404.449,197.642z"/>
</g>
</svg>
