<?xml version="1.0" encoding="utf-8"?>
<!-- Generator: Adobe Illustrator 18.0.0, SVG Export Plug-In . SVG Version: 6.00 Build 0)  -->
<!DOCTYPE svg PUBLIC "-//W3C//DTD SVG 1.1//EN" "http://www.w3.org/Graphics/SVG/1.1/DTD/svg11.dtd">
<svg version="1.1" id="Layer_1" xmlns="http://www.w3.org/2000/svg" xmlns:xlink="http://www.w3.org/1999/xlink" x="0px" y="0px"
	 viewBox="0 0 512 512" style="enable-background:new 0 0 512 512;" xml:space="preserve">
<radialGradient id="SVGID_1_" cx="245.2857" cy="465.5238" r="362.4308" gradientUnits="userSpaceOnUse">
	<stop  offset="0.0193" style="stop-color:#FAAC18"/>
	<stop  offset="0.3892" style="stop-color:#F16630"/>
	<stop  offset="0.7239" style="stop-color:#E70F6F"/>
	<stop  offset="1" style="stop-color:#642D8C"/>
</radialGradient>
<path style="fill:url(#SVGID_1_);" d="M446,486H66c-22.091,0-40-17.909-40-40V66c0-22.091,17.909-40,40-40h380
	c22.091,0,40,17.909,40,40v380C486,468.091,468.091,486,446,486z"/>
<path style="opacity:0.7;fill:#FFFFFF;" d="M134.938,443.055h242.123c8.284,0,15,6.716,15,15V486H119.938v-27.945
	C119.938,449.771,126.654,443.055,134.938,443.055z"/>
<g>
	<linearGradient id="SVGID_2_" gradientUnits="userSpaceOnUse" x1="25.3935" y1="248" x2="485.2965" y2="248">
		<stop  offset="0" style="stop-color:#FFFFFF"/>
		<stop  offset="1" style="stop-color:#FFFFFF;stop-opacity:0"/>
	</linearGradient>
	<path style="fill:none;stroke:url(#SVGID_2_);stroke-linecap:round;stroke-linejoin:round;stroke-miterlimit:10;" d="M25.894,378
		c0-137,188.023-260,109.058-109c-34.92,66.775-81.926-87.337,15.031-97.337C324.392,153.674,417.971,380.339,227.91,277
		c-24.306-13.216,47.979-55.898,41.422,32c-7.08,94.909,30.546-169,124.197-95.853c32.264,25.2,62.136-52.966,91.267-95.147"/>
	<linearGradient id="SVGID_3_" gradientUnits="userSpaceOnUse" x1="25.3935" y1="251.7439" x2="485.2965" y2="251.7439">
		<stop  offset="0" style="stop-color:#FFFFFF"/>
		<stop  offset="1" style="stop-color:#FFFFFF;stop-opacity:0"/>
	</linearGradient>
	<path style="fill:none;stroke:url(#SVGID_3_);stroke-linecap:round;stroke-linejoin:round;stroke-miterlimit:10;" d="
		M25.894,379.146c0-133.659,182.598-255.656,108.01-107.366c-32.012,63.644-78.803-87.169,16.03-96.378
		c170.927-16.599,258.715,212.611,78.855,104.402c-21.212-12.762,50.305-55.911,42.825,29.976
		c-8.104,93.06,28.193-160.584,122.045-92.441c32.706,23.747,62.717-51.844,91.138-92.998"/>
	<linearGradient id="SVGID_4_" gradientUnits="userSpaceOnUse" x1="25.3935" y1="255.4878" x2="485.2965" y2="255.4878">
		<stop  offset="0" style="stop-color:#FFFFFF"/>
		<stop  offset="1" style="stop-color:#FFFFFF;stop-opacity:0"/>
	</linearGradient>
	<path style="fill:none;stroke:url(#SVGID_4_);stroke-linecap:round;stroke-linejoin:round;stroke-miterlimit:10;" d="
		M25.894,380.293c0-130.317,177.006-251.344,106.962-105.732c-29.131,60.558-75.678-86.998,17.029-95.419
		c167.45-15.209,248.186,217.665,79.782,103.467c-18.253-12.378,52.625-55.916,44.228,27.951
		c-9.133,91.225,26.022-152.171,119.894-89.03c33.26,22.371,63.299-50.723,91.008-90.848"/>
	<linearGradient id="SVGID_5_" gradientUnits="userSpaceOnUse" x1="25.3935" y1="259.2317" x2="485.2965" y2="259.2317">
		<stop  offset="0" style="stop-color:#FFFFFF"/>
		<stop  offset="1" style="stop-color:#FFFFFF;stop-opacity:0"/>
	</linearGradient>
	<path style="fill:none;stroke:url(#SVGID_5_);stroke-linecap:round;stroke-linejoin:round;stroke-miterlimit:10;" d="
		M25.894,381.439c0-126.976,171.221-247.062,105.913-104.098c-26.28,57.528-72.551-86.827,18.027-94.459
		c163.978-13.818,235.915,223.939,80.709,102.532c-15.479-12.108,54.937-55.912,45.632,25.927
		c-10.166,89.404,24.056-143.802,117.742-85.619c33.93,21.071,63.88-49.602,90.879-88.698"/>
	<linearGradient id="SVGID_6_" gradientUnits="userSpaceOnUse" x1="25.3935" y1="262.9756" x2="485.2965" y2="262.9756">
		<stop  offset="0" style="stop-color:#FFFFFF"/>
		<stop  offset="1" style="stop-color:#FFFFFF;stop-opacity:0"/>
	</linearGradient>
	<path style="fill:none;stroke:url(#SVGID_6_);stroke-linecap:round;stroke-linejoin:round;stroke-miterlimit:10;" d="
		M25.894,382.585c0-123.634,165.212-242.805,104.865-102.463c-23.463,54.566-69.422-86.653,19.026-93.5
		c160.512-12.425,247.109,196.221,81.637,101.597c-9.89-14.648,57.242-55.899,47.035,23.902
		c-11.204,87.599,22.313-135.517,115.591-82.208c34.721,19.843,64.461-48.481,90.75-86.548"/>
	<linearGradient id="SVGID_7_" gradientUnits="userSpaceOnUse" x1="25.3935" y1="266.7195" x2="485.2965" y2="266.7195">
		<stop  offset="0" style="stop-color:#FFFFFF"/>
		<stop  offset="1" style="stop-color:#FFFFFF;stop-opacity:0"/>
	</linearGradient>
	<path style="fill:none;stroke:url(#SVGID_7_);stroke-linecap:round;stroke-linejoin:round;stroke-miterlimit:10;" d="
		M25.894,383.732c0-120.293,158.944-238.567,103.817-100.829c-20.687,51.686-66.29-86.478,20.025-92.54
		c157.052-11.031,241.889,193.107,82.564,100.662c-6.285-15.005,59.537-55.877,48.438,21.878
		c-12.248,85.81,20.804-127.357,113.439-78.797c35.635,18.68,65.042-47.36,90.62-84.398"/>
	<linearGradient id="SVGID_8_" gradientUnits="userSpaceOnUse" x1="25.3935" y1="270.4634" x2="485.2965" y2="270.4634">
		<stop  offset="0" style="stop-color:#FFFFFF"/>
		<stop  offset="1" style="stop-color:#FFFFFF;stop-opacity:0"/>
	</linearGradient>
	<path style="fill:none;stroke:url(#SVGID_8_);stroke-linecap:round;stroke-linejoin:round;stroke-miterlimit:10;" d="
		M25.894,384.878c0-116.951,152.376-234.33,102.768-99.195c-17.955,48.91-63.155-86.3,21.023-91.581
		c153.599-9.635,236.669,189.992,83.491,99.727c-2.681-15.363,61.821-55.846,49.842,19.854
		c-13.299,84.037,29.844-136.387,111.288-75.386c39.391,10.098,65.623-46.239,90.491-82.248"/>
	<linearGradient id="SVGID_9_" gradientUnits="userSpaceOnUse" x1="25.3935" y1="274.2073" x2="485.2965" y2="274.2073">
		<stop  offset="0" style="stop-color:#FFFFFF"/>
		<stop  offset="1" style="stop-color:#FFFFFF;stop-opacity:0"/>
	</linearGradient>
	<path style="fill:none;stroke:url(#SVGID_9_);stroke-linecap:round;stroke-linejoin:round;stroke-miterlimit:10;" d="
		M25.894,386.024c0-113.61,145.47-230.072,101.72-97.561c-15.273,46.26-60.017-86.12,22.022-90.621
		c150.152-8.238,231.449,186.878,84.419,98.792c0.923-15.721,64.094-55.805,51.245,17.829
		c-14.358,82.282,29.727-130.951,109.136-71.975c40.579,7.581,66.204-45.118,90.361-80.098"/>
	<linearGradient id="SVGID_10_" gradientUnits="userSpaceOnUse" x1="25.3935" y1="277.9512" x2="485.2965" y2="277.9512">
		<stop  offset="0" style="stop-color:#FFFFFF"/>
		<stop  offset="1" style="stop-color:#FFFFFF;stop-opacity:0"/>
	</linearGradient>
	<path style="fill:none;stroke:url(#SVGID_10_);stroke-linecap:round;stroke-linejoin:round;stroke-miterlimit:10;" d="
		M25.894,387.171c0-110.268,161.609-216.54,100.672-95.927c-4.312,45.356-56.877-85.938,23.02-89.662
		c146.713-6.838,226.229,183.764,85.346,97.857c4.527-16.079,66.353-55.754,52.648,15.805
		c-15.426,80.544,29.611-125.515,106.985-68.564c41.767,5.064,66.785-43.997,90.232-77.948"/>
	<linearGradient id="SVGID_11_" gradientUnits="userSpaceOnUse" x1="25.3935" y1="281.6951" x2="485.2965" y2="281.6951">
		<stop  offset="0" style="stop-color:#FFFFFF"/>
		<stop  offset="1" style="stop-color:#FFFFFF;stop-opacity:0"/>
	</linearGradient>
	<path style="fill:none;stroke:url(#SVGID_11_);stroke-linecap:round;stroke-linejoin:round;stroke-miterlimit:10;" d="
		M25.894,388.317c0-106.927,158.308-211.107,99.623-94.293c-0.486,42.678-53.733-85.753,24.019-88.702
		c143.282-5.436,221.01,180.65,86.274,96.922c8.131-16.437,68.598-55.694,54.051,13.78c-16.504,78.825,29.494-120.08,104.833-65.153
		c42.954,2.547,67.366-42.876,90.103-75.798"/>
	<linearGradient id="SVGID_12_" gradientUnits="userSpaceOnUse" x1="25.3935" y1="285.439" x2="485.2965" y2="285.439">
		<stop  offset="0" style="stop-color:#FFFFFF"/>
		<stop  offset="1" style="stop-color:#FFFFFF;stop-opacity:0"/>
	</linearGradient>
	<path style="fill:none;stroke:url(#SVGID_12_);stroke-linecap:round;stroke-linejoin:round;stroke-miterlimit:10;" d="
		M25.894,389.463c0-103.585,155.006-205.675,98.575-92.659c3.34,40.001-50.586-85.564,25.018-87.743
		c139.859-4.031,215.79,177.536,87.201,95.987c11.735-16.795,70.826-55.624,55.455,11.756
		c-17.594,77.125,29.377-114.644,102.682-61.742c44.142,0.03,67.947-41.754,89.973-73.648"/>
	<linearGradient id="SVGID_13_" gradientUnits="userSpaceOnUse" x1="25.3935" y1="289.1829" x2="485.2965" y2="289.1829">
		<stop  offset="0" style="stop-color:#FFFFFF"/>
		<stop  offset="1" style="stop-color:#FFFFFF;stop-opacity:0"/>
	</linearGradient>
	<path style="fill:none;stroke:url(#SVGID_13_);stroke-linecap:round;stroke-linejoin:round;stroke-miterlimit:10;" d="
		M25.894,390.61c0-100.244,151.704-200.242,97.527-91.024c7.166,37.323-47.405-89.333,26.016-86.783
		c136.388,4.736,210.57,174.422,88.128,95.052c15.34-17.153,73.036-55.545,56.858,9.732c-18.698,75.444,29.26-109.209,100.53-58.331
		c45.33-2.487,68.529-40.633,89.844-71.498"/>
	<linearGradient id="SVGID_14_" gradientUnits="userSpaceOnUse" x1="25.3935" y1="292.9268" x2="485.2965" y2="292.9268">
		<stop  offset="0" style="stop-color:#FFFFFF"/>
		<stop  offset="1" style="stop-color:#FFFFFF;stop-opacity:0"/>
	</linearGradient>
	<path style="fill:none;stroke:url(#SVGID_14_);stroke-linecap:round;stroke-linejoin:round;stroke-miterlimit:10;" d="
		M25.894,391.756c0-96.902,148.403-194.81,96.478-89.39c10.992,34.646-44.192-89.46,27.015-85.824
		c132.873,6.785,205.35,171.308,89.056,94.117c18.944-17.511,75.225-55.457,58.261,7.707
		c-19.816,73.783,29.143-103.773,98.378-54.92c46.518-5.005,69.11-39.512,89.714-69.348"/>
	<linearGradient id="SVGID_15_" gradientUnits="userSpaceOnUse" x1="25.3935" y1="296.6707" x2="485.2965" y2="296.6707">
		<stop  offset="0" style="stop-color:#FFFFFF"/>
		<stop  offset="1" style="stop-color:#FFFFFF;stop-opacity:0"/>
	</linearGradient>
	<path style="fill:none;stroke:url(#SVGID_15_);stroke-linecap:round;stroke-linejoin:round;stroke-miterlimit:10;" d="
		M25.894,392.902c0-93.561,145.101-189.377,95.43-87.756c14.818,31.968-40.963-89.573,28.014-84.865
		c129.345,8.828,200.13,168.194,89.983,93.182c22.548-17.869,77.393-55.359,59.664,5.683
		c-20.951,72.141,29.026-98.338,96.227-51.509c47.706-7.522,69.691-38.391,89.585-67.198"/>
	<linearGradient id="SVGID_16_" gradientUnits="userSpaceOnUse" x1="25.3935" y1="300.4146" x2="485.2965" y2="300.4146">
		<stop  offset="0" style="stop-color:#FFFFFF"/>
		<stop  offset="1" style="stop-color:#FFFFFF;stop-opacity:0"/>
	</linearGradient>
	<path style="fill:none;stroke:url(#SVGID_16_);stroke-linecap:round;stroke-linejoin:round;stroke-miterlimit:10;" d="
		M25.894,394.049c0-90.22,141.799-183.945,94.382-86.122c18.644,29.291-37.718-89.669,29.012-83.905
		c125.805,10.866,194.911,165.08,90.91,92.247c26.152-18.227,79.535-55.254,61.068,3.659
		c-22.106,70.519,28.909-92.902,94.075-48.098c48.893-10.039,70.272-37.27,89.456-65.048"/>
	<linearGradient id="SVGID_17_" gradientUnits="userSpaceOnUse" x1="25.3935" y1="304.1585" x2="485.2965" y2="304.1585">
		<stop  offset="0" style="stop-color:#FFFFFF"/>
		<stop  offset="1" style="stop-color:#FFFFFF;stop-opacity:0"/>
	</linearGradient>
	<path style="fill:none;stroke:url(#SVGID_17_);stroke-linecap:round;stroke-linejoin:round;stroke-miterlimit:10;" d="
		M25.894,395.195c0-86.878,138.498-178.512,93.333-84.488c22.47,26.613-34.456-89.746,30.011-82.946
		c122.25,12.896,189.691,161.966,91.838,91.312c29.756-18.585,81.651-55.141,62.471,1.634
		c-23.282,68.915,28.792-87.466,91.924-44.687c50.081-12.556,70.853-36.149,89.326-62.898"/>
	<linearGradient id="SVGID_18_" gradientUnits="userSpaceOnUse" x1="25.3935" y1="307.9024" x2="485.2965" y2="307.9024">
		<stop  offset="0" style="stop-color:#FFFFFF"/>
		<stop  offset="1" style="stop-color:#FFFFFF;stop-opacity:0"/>
	</linearGradient>
	<path style="fill:none;stroke:url(#SVGID_18_);stroke-linecap:round;stroke-linejoin:round;stroke-miterlimit:10;" d="
		M25.894,396.341c0-83.537,135.196-173.08,92.285-82.854c26.296,23.936-31.177-89.803,31.009-81.986
		c118.681,14.919,184.471,158.852,92.765,90.376c33.36-18.943,83.738-55.022,63.874-0.39c-24.481,67.33,28.675-82.031,89.772-41.276
		c51.269-15.073,71.434-35.028,89.197-60.748"/>
	<linearGradient id="SVGID_19_" gradientUnits="userSpaceOnUse" x1="25.3935" y1="311.6463" x2="485.2965" y2="311.6463">
		<stop  offset="0" style="stop-color:#FFFFFF"/>
		<stop  offset="1" style="stop-color:#FFFFFF;stop-opacity:0"/>
	</linearGradient>
	<path style="fill:none;stroke:url(#SVGID_19_);stroke-linecap:round;stroke-linejoin:round;stroke-miterlimit:10;" d="
		M25.894,397.488c0-80.195,131.894-167.647,91.237-81.22c30.122,21.259-28.445-84.115,32.008-81.027
		c116.182,5.935,179.251,155.738,93.692,89.441c36.965-19.301,85.794-54.898,65.278-2.415
		c-25.708,65.763,28.558-76.595,87.621-37.865c52.457-17.59,72.015-33.907,89.067-58.599"/>
	<linearGradient id="SVGID_20_" gradientUnits="userSpaceOnUse" x1="25.3935" y1="315.3903" x2="485.2965" y2="315.3903">
		<stop  offset="0" style="stop-color:#FFFFFF"/>
		<stop  offset="1" style="stop-color:#FFFFFF;stop-opacity:0"/>
	</linearGradient>
	<path style="fill:none;stroke:url(#SVGID_20_);stroke-linecap:round;stroke-linejoin:round;stroke-miterlimit:10;" d="
		M25.894,398.634c0-76.854,128.592-162.215,90.188-79.585c33.948,18.581-25.263-83.881,33.007-80.067
		c112.849,7.387,174.031,152.624,94.62,88.506c40.569-19.659,87.816-54.77,66.681-4.439c-26.964,64.211,28.441-71.16,85.469-34.454
		c53.645-20.107,72.596-32.786,88.938-56.449"/>
	<linearGradient id="SVGID_21_" gradientUnits="userSpaceOnUse" x1="25.3935" y1="319.1342" x2="485.2965" y2="319.1342">
		<stop  offset="0" style="stop-color:#FFFFFF"/>
		<stop  offset="1" style="stop-color:#FFFFFF;stop-opacity:0"/>
	</linearGradient>
	<path style="fill:none;stroke:url(#SVGID_21_);stroke-linecap:round;stroke-linejoin:round;stroke-miterlimit:10;" d="
		M25.894,399.78c0-73.512,125.291-156.782,89.14-77.951c37.774,15.904-22.076-83.639,34.005-79.108
		c109.53,8.85,168.812,149.51,95.547,87.571c44.173-20.017,89.802-54.64,68.084-6.463c-28.253,62.674,28.324-65.724,83.318-31.043
		c54.832-22.624,73.177-31.664,88.809-54.299"/>
	<linearGradient id="SVGID_22_" gradientUnits="userSpaceOnUse" x1="25.3935" y1="322.8781" x2="485.2965" y2="322.8781">
		<stop  offset="0" style="stop-color:#FFFFFF"/>
		<stop  offset="1" style="stop-color:#FFFFFF;stop-opacity:0"/>
	</linearGradient>
	<path style="fill:none;stroke:url(#SVGID_22_);stroke-linecap:round;stroke-linejoin:round;stroke-miterlimit:10;" d="
		M25.894,400.927c0-70.171,121.989-151.35,88.092-76.317c41.6,13.226-18.883-83.386,35.004-78.148
		c106.226,10.325,163.592,146.395,96.474,86.636c47.777-20.375,91.749-54.511,69.487-8.488
		c-29.577,61.147,28.207-60.289,81.166-27.632c56.02-25.141,73.759-30.543,88.679-52.149"/>
	<linearGradient id="SVGID_23_" gradientUnits="userSpaceOnUse" x1="25.3935" y1="326.0019" x2="485.2965" y2="326.0019">
		<stop  offset="0" style="stop-color:#FFFFFF"/>
		<stop  offset="1" style="stop-color:#FFFFFF;stop-opacity:0"/>
	</linearGradient>
	<path style="fill:none;stroke:url(#SVGID_23_);stroke-linecap:round;stroke-linejoin:round;stroke-miterlimit:10;" d="
		M25.894,402.073c0-66.829,118.687-145.917,87.044-74.683c45.426,10.549-15.684-83.122,36.003-77.189
		c102.937,11.815,158.372,143.281,97.402,85.701c51.381-20.733,93.657-54.385,70.891-10.512
		c-30.942,59.629,28.09-54.853,79.015-24.221c57.208-27.658,74.34-29.422,88.55-49.999"/>
	<linearGradient id="SVGID_24_" gradientUnits="userSpaceOnUse" x1="25.3935" y1="328.4077" x2="485.2965" y2="328.4077">
		<stop  offset="0" style="stop-color:#FFFFFF"/>
		<stop  offset="1" style="stop-color:#FFFFFF;stop-opacity:0"/>
	</linearGradient>
	<path style="fill:none;stroke:url(#SVGID_24_);stroke-linecap:round;stroke-linejoin:round;stroke-miterlimit:10;" d="
		M25.894,403.22c0-63.488,115.386-140.484,85.995-73.049c49.252,7.871-12.48-82.844,37.001-76.23
		c99.666,13.323,153.152,140.167,98.329,84.766c54.985-21.09,95.523-54.265,72.294-12.537c-32.35,58.114,27.973-49.417,76.863-20.81
		c58.396-30.175,74.921-28.301,88.42-47.849"/>
	<linearGradient id="SVGID_25_" gradientUnits="userSpaceOnUse" x1="25.3935" y1="330.8087" x2="485.2965" y2="330.8087">
		<stop  offset="0" style="stop-color:#FFFFFF"/>
		<stop  offset="1" style="stop-color:#FFFFFF;stop-opacity:0"/>
	</linearGradient>
	<path style="fill:none;stroke:url(#SVGID_25_);stroke-linecap:round;stroke-linejoin:round;stroke-miterlimit:10;" d="
		M25.894,404.366c0-60.146,112.084-135.052,84.947-71.415c53.078,5.194-9.271-82.551,38-75.27
		c96.411,14.85,147.932,137.053,99.256,83.831c58.59-21.448,97.346-54.154,73.697-14.561
		c-33.805,56.597,27.856-43.982,74.712-17.399c59.584-32.692,75.502-27.18,88.291-45.699"/>
	<linearGradient id="SVGID_26_" gradientUnits="userSpaceOnUse" x1="25.3935" y1="333.2046" x2="485.2965" y2="333.2046">
		<stop  offset="0" style="stop-color:#FFFFFF"/>
		<stop  offset="1" style="stop-color:#FFFFFF;stop-opacity:0"/>
	</linearGradient>
	<path style="fill:none;stroke:url(#SVGID_26_);stroke-linecap:round;stroke-linejoin:round;stroke-miterlimit:10;" d="
		M25.894,405.512c0-56.805,108.782-129.619,83.899-69.78c56.904,2.516-6.055-82.241,38.998-74.311
		c93.173,16.401,142.713,133.939,100.184,82.896c62.194-21.806,99.124-54.055,75.1-16.585c-35.31,55.073,27.739-38.546,72.56-13.988
		c60.771-35.21,76.083-26.059,88.162-43.549"/>
	<linearGradient id="SVGID_27_" gradientUnits="userSpaceOnUse" x1="25.3935" y1="335.5956" x2="485.2965" y2="335.5956">
		<stop  offset="0" style="stop-color:#FFFFFF"/>
		<stop  offset="1" style="stop-color:#FFFFFF;stop-opacity:0"/>
	</linearGradient>
	<path style="fill:none;stroke:url(#SVGID_27_);stroke-linecap:round;stroke-linejoin:round;stroke-miterlimit:10;" d="
		M25.894,406.659c0-53.463,105.481-124.187,82.85-68.146c60.73-0.161-2.835-81.913,39.997-73.351
		c89.951,17.98,137.493,130.825,101.111,81.961c65.798-22.164,100.859-53.973,76.504-18.61
		c-36.87,53.534,27.622-33.111,70.409-10.577c61.959-37.727,76.664-24.938,88.032-41.399"/>
	<linearGradient id="SVGID_28_" gradientUnits="userSpaceOnUse" x1="25.3935" y1="337.9815" x2="485.2965" y2="337.9815">
		<stop  offset="0" style="stop-color:#FFFFFF"/>
		<stop  offset="1" style="stop-color:#FFFFFF;stop-opacity:0"/>
	</linearGradient>
	<path style="fill:none;stroke:url(#SVGID_28_);stroke-linecap:round;stroke-linejoin:round;stroke-miterlimit:10;" d="
		M25.894,407.805c0-50.122,102.179-118.754,81.802-66.512c64.556-2.838,0.39-81.562,40.996-72.392
		c86.746,19.591,132.273,127.711,102.038,81.026c69.402-22.522,102.55-53.911,77.907-20.634
		c-38.487,51.971,27.505-27.675,68.257-7.166c63.147-40.244,77.245-23.817,87.903-39.249"/>
	<linearGradient id="SVGID_29_" gradientUnits="userSpaceOnUse" x1="25.3935" y1="340.3625" x2="485.2965" y2="340.3625">
		<stop  offset="0" style="stop-color:#FFFFFF"/>
		<stop  offset="1" style="stop-color:#FFFFFF;stop-opacity:0"/>
	</linearGradient>
	<path style="fill:none;stroke:url(#SVGID_29_);stroke-linecap:round;stroke-linejoin:round;stroke-miterlimit:10;" d="
		M25.894,408.951c0-46.78,98.877-113.322,80.754-64.878c68.382-5.516,3.618-81.188,41.994-71.432
		c83.555,21.241,127.053,124.597,102.966,80.091c73.006-22.88,104.199-53.874,79.31-22.659
		c-40.164,50.374,27.388-22.24,66.105-3.755c64.335-42.761,77.826-22.696,87.773-37.099"/>
	<linearGradient id="SVGID_30_" gradientUnits="userSpaceOnUse" x1="25.3935" y1="342.7387" x2="485.2965" y2="342.7387">
		<stop  offset="0" style="stop-color:#FFFFFF"/>
		<stop  offset="1" style="stop-color:#FFFFFF;stop-opacity:0"/>
	</linearGradient>
	<path style="fill:none;stroke:url(#SVGID_30_);stroke-linecap:round;stroke-linejoin:round;stroke-miterlimit:10;" d="
		M25.894,410.098c0-43.439,95.575-107.889,79.705-63.244c72.208-8.193,6.849-80.786,42.993-70.473
		c80.377,22.935,121.833,121.483,103.893,79.156c76.61-23.238,105.807-53.867,80.714-24.683
		c-41.903,48.732,27.271-16.804,63.954-0.344c65.523-45.278,78.407-21.574,87.644-34.949"/>
	<linearGradient id="SVGID_31_" gradientUnits="userSpaceOnUse" x1="25.3935" y1="345.1101" x2="485.2965" y2="345.1101">
		<stop  offset="0" style="stop-color:#FFFFFF"/>
		<stop  offset="1" style="stop-color:#FFFFFF;stop-opacity:0"/>
	</linearGradient>
	<path style="fill:none;stroke:url(#SVGID_31_);stroke-linecap:round;stroke-linejoin:round;stroke-miterlimit:10;" d="
		M25.894,411.244c0-40.098,92.274-102.457,78.657-61.61c76.034-10.871,10.081-80.355,43.992-69.513
		c77.206,24.683,116.614,118.369,104.82,78.221c80.214-23.596,107.379-53.892,82.117-26.707
		c-43.706,47.033,27.154-11.368,61.802,3.068c66.71-47.795,78.989-20.453,87.515-32.799"/>
	<linearGradient id="SVGID_32_" gradientUnits="userSpaceOnUse" x1="25.3935" y1="347.4771" x2="485.2965" y2="347.4771">
		<stop  offset="0" style="stop-color:#FFFFFF"/>
		<stop  offset="1" style="stop-color:#FFFFFF;stop-opacity:0"/>
	</linearGradient>
	<path style="fill:none;stroke:url(#SVGID_32_);stroke-linecap:round;stroke-linejoin:round;stroke-miterlimit:10;" d="
		M25.894,412.39c0-36.756,88.972-97.024,77.609-59.976c79.86-13.548,13.31-79.89,44.99-68.554
		c74.037,26.492,111.394,115.255,105.748,77.286c83.819-23.954,108.918-53.956,83.52-28.732
		c-45.572,45.262,27.037-5.933,59.651,6.479c67.898-50.312,79.57-19.332,87.385-30.649"/>
	<linearGradient id="SVGID_33_" gradientUnits="userSpaceOnUse" x1="25.3935" y1="349.8397" x2="485.2965" y2="349.8397">
		<stop  offset="0" style="stop-color:#FFFFFF"/>
		<stop  offset="1" style="stop-color:#FFFFFF;stop-opacity:0"/>
	</linearGradient>
	<path style="fill:none;stroke:url(#SVGID_33_);stroke-linecap:round;stroke-linejoin:round;stroke-miterlimit:10;" d="
		M25.894,413.537c0-33.415,85.67-91.592,76.56-58.341c83.686-16.226,16.534-79.389,45.989-67.595
		c70.861,28.375,106.174,112.141,106.675,76.351c87.423-24.312,110.429-54.063,84.923-30.756c-47.5,43.405,26.92-0.497,57.499,9.89
		c69.086-52.829,80.151-18.211,87.256-28.499"/>
	<linearGradient id="SVGID_34_" gradientUnits="userSpaceOnUse" x1="25.3935" y1="352.1982" x2="485.2965" y2="352.1982">
		<stop  offset="0" style="stop-color:#FFFFFF"/>
		<stop  offset="1" style="stop-color:#FFFFFF;stop-opacity:0"/>
	</linearGradient>
	<path style="fill:none;stroke:url(#SVGID_34_);stroke-linecap:round;stroke-linejoin:round;stroke-miterlimit:10;" d="
		M25.894,414.683c0-30.073,82.369-86.159,75.512-56.707c87.512-18.903,19.748-78.849,46.988-66.635
		c67.667,30.341,100.954,109.027,107.602,75.416c91.027-24.67,111.92-54.215,86.327-32.78
		c-49.485,41.445,26.803,4.938,55.348,13.301c70.274-55.346,80.732-17.09,87.126-26.349"/>
	<linearGradient id="SVGID_35_" gradientUnits="userSpaceOnUse" x1="25.3935" y1="354.5527" x2="485.2965" y2="354.5527">
		<stop  offset="0" style="stop-color:#FFFFFF"/>
		<stop  offset="1" style="stop-color:#FFFFFF;stop-opacity:0"/>
	</linearGradient>
	<path style="fill:none;stroke:url(#SVGID_35_);stroke-linecap:round;stroke-linejoin:round;stroke-miterlimit:10;" d="
		M25.894,415.829c0-26.732,79.067-80.727,74.464-55.073c91.338-21.58,22.946-78.268,47.986-65.676
		c64.437,32.405,95.734,105.913,108.53,74.48c94.631-25.028,113.398-54.418,87.73-34.805
		c-51.521,39.368,26.687,10.374,53.196,16.712c71.462-57.863,81.313-15.969,86.997-24.2"/>
	<linearGradient id="SVGID_36_" gradientUnits="userSpaceOnUse" x1="25.3935" y1="356.9032" x2="485.2965" y2="356.9032">
		<stop  offset="0" style="stop-color:#FFFFFF"/>
		<stop  offset="1" style="stop-color:#FFFFFF;stop-opacity:0"/>
	</linearGradient>
	<path style="fill:none;stroke:url(#SVGID_36_);stroke-linecap:round;stroke-linejoin:round;stroke-miterlimit:10;" d="
		M25.894,416.976c0-23.39,75.765-75.294,73.415-53.439c95.164-24.258,26.123-77.645,48.985-64.716
		c61.147,34.579,90.515,102.798,109.457,73.545c98.235-25.386,114.871-54.672,89.133-36.829
		c-53.6,37.158,26.57,15.809,51.045,20.123c72.649-60.38,81.894-14.848,86.868-22.05"/>
	<linearGradient id="SVGID_37_" gradientUnits="userSpaceOnUse" x1="25.3935" y1="359.2492" x2="485.2965" y2="359.2492">
		<stop  offset="0" style="stop-color:#FFFFFF"/>
		<stop  offset="1" style="stop-color:#FFFFFF;stop-opacity:0"/>
	</linearGradient>
	<path style="fill:none;stroke:url(#SVGID_37_);stroke-linecap:round;stroke-linejoin:round;stroke-miterlimit:10;" d="
		M25.894,418.122c0-20.049,72.464-69.862,72.367-51.805c98.99-26.935,29.268-76.98,49.983-63.757
		c57.769,36.876,85.295,99.684,110.385,72.61c101.839-25.744,116.35-54.981,90.536-38.854
		c-55.707,34.802,26.453,21.245,48.893,23.534c73.837-62.897,82.475-13.727,86.738-19.9"/>
	<linearGradient id="SVGID_38_" gradientUnits="userSpaceOnUse" x1="25.3935" y1="361.59" x2="485.2965" y2="361.59">
		<stop  offset="0" style="stop-color:#FFFFFF"/>
		<stop  offset="1" style="stop-color:#FFFFFF;stop-opacity:0"/>
	</linearGradient>
	<path style="fill:none;stroke:url(#SVGID_38_);stroke-linecap:round;stroke-linejoin:round;stroke-miterlimit:10;" d="
		M25.894,419.268c0-16.707,69.162-64.429,71.319-50.171c102.816-29.613,32.372-76.278,50.982-62.797
		c54.261,39.305,80.075,96.57,111.312,71.675c105.444-26.102,117.846-55.343,91.94-40.878
		c-57.83,32.291,26.336,26.681,46.742,26.945c75.025-65.415,83.056-12.606,86.609-17.75"/>
	<linearGradient id="SVGID_39_" gradientUnits="userSpaceOnUse" x1="25.3935" y1="363.9239" x2="485.2965" y2="363.9239">
		<stop  offset="0" style="stop-color:#FFFFFF"/>
		<stop  offset="1" style="stop-color:#FFFFFF;stop-opacity:0"/>
	</linearGradient>
	<path style="fill:none;stroke:url(#SVGID_39_);stroke-linecap:round;stroke-linejoin:round;stroke-miterlimit:10;" d="
		M25.894,420.415c0-13.366,65.86-58.997,70.27-48.537c106.642-32.29,35.423-75.545,51.981-61.838
		c50.577,41.87,71.816,87.453,112.239,70.74c103.703-42.875,119.367-55.76,93.343-42.902c-59.948,29.618,26.219,32.116,44.59,30.356
		c76.213-67.932,83.637-11.484,86.479-15.6"/>
	<linearGradient id="SVGID_40_" gradientUnits="userSpaceOnUse" x1="25.3935" y1="366.248" x2="485.2965" y2="366.248">
		<stop  offset="0" style="stop-color:#FFFFFF"/>
		<stop  offset="1" style="stop-color:#FFFFFF;stop-opacity:0"/>
	</linearGradient>
	<path style="fill:none;stroke:url(#SVGID_40_);stroke-linecap:round;stroke-linejoin:round;stroke-miterlimit:10;" d="
		M25.894,421.561c0-10.024,62.558-53.564,69.222-46.902c110.468-34.968,38.408-74.794,52.979-60.878
		c46.661,44.561,67.747,85.732,113.167,69.805c109.279-38.32,120.926-56.229,94.746-44.927
		c-62.042,26.784,26.102,37.552,42.439,33.767c77.401-70.449,84.219-10.363,86.35-13.45"/>
	<linearGradient id="SVGID_41_" gradientUnits="userSpaceOnUse" x1="25.3935" y1="368.5581" x2="485.2965" y2="368.5581">
		<stop  offset="0" style="stop-color:#FFFFFF"/>
		<stop  offset="1" style="stop-color:#FFFFFF;stop-opacity:0"/>
	</linearGradient>
	<path style="fill:none;stroke:url(#SVGID_41_);stroke-linecap:round;stroke-linejoin:round;stroke-miterlimit:10;" d="
		M25.894,422.707c0-6.683,59.257-48.132,68.174-45.268c114.294-37.645,41.317-74.041,53.978-59.919
		c42.454,47.352,63.372,84.106,114.094,68.87c114.345-34.347,122.532-56.745,96.15-46.951
		c-64.091,23.793,25.985,42.987,40.287,37.178c78.588-72.966,84.8-9.242,86.221-11.3"/>
	<linearGradient id="SVGID_42_" gradientUnits="userSpaceOnUse" x1="25.3935" y1="371.239" x2="485.2965" y2="371.239">
		<stop  offset="0" style="stop-color:#FFFFFF"/>
		<stop  offset="1" style="stop-color:#FFFFFF;stop-opacity:0"/>
	</linearGradient>
	<path style="fill:none;stroke:url(#SVGID_42_);stroke-linecap:round;stroke-linejoin:round;stroke-miterlimit:10;" d="
		M25.894,423.854c0-3.341,56.153-41.339,67.126-43.634c122.164-25.559,44.138-73.311,54.977-58.959
		c37.904,50.191,58.763,82.537,115.021,67.935c119.039-30.896,124.193-57.305,97.553-48.976
		c-66.073,20.659,26.663,49.548,38.136,40.589c86.554-67.597,85.381-8.121,86.091-9.15"/>
	<linearGradient id="SVGID_43_" gradientUnits="userSpaceOnUse" x1="25.3935" y1="373.1096" x2="485.2965" y2="373.1096">
		<stop  offset="0" style="stop-color:#FFFFFF"/>
		<stop  offset="1" style="stop-color:#FFFFFF;stop-opacity:0"/>
	</linearGradient>
	<path style="fill:none;stroke:url(#SVGID_43_);stroke-linecap:round;stroke-linejoin:round;stroke-miterlimit:10;" d="M25.894,425
		c0,0,52.653-37.267,66.077-42c121.946-43,46.869-72.632,55.975-58c32.985,53,53.976,81,115.949,67
		c123.464-27.891,125.916-57.902,98.956-51c-67.97,17.401,25.751,53.858,35.984,44c80.964-78,85.962-7,85.962-7"/>
</g>
<path d="M446,26H66c-22.091,0-40,17.909-40,40v8.055h460V66C486,43.909,468.091,26,446,26z"/>
<g>
	<path style="fill:#FFFFFF;" d="M339.716,196.382H172.285c-32.926,0-59.618,26.692-59.618,59.618s26.692,59.618,59.618,59.618
		h167.43c32.926,0,59.618-26.692,59.618-59.618S372.642,196.382,339.716,196.382z"/>
	<g>
		<g>
			<path d="M196.094,242.821c-1.454-2.519-4.675-3.381-7.193-1.927l-36.535,21.094c-2.519,1.454-3.381,4.675-1.927,7.193
				c1.454,2.519,4.675,3.381,7.193,1.927l36.535-21.094C196.685,248.56,197.548,245.339,196.094,242.821z"/>
			<path d="M194.167,261.987l-36.535-21.094c-2.519-1.454-5.739-0.591-7.193,1.927c-1.454,2.519-0.591,5.739,1.927,7.193
				l36.535,21.093c2.519,1.454,5.739,0.591,7.193-1.927C197.548,266.661,196.685,263.44,194.167,261.987z"/>
			<path d="M173.267,229.641c-2.908,0-5.266,2.357-5.266,5.266v42.187c0,2.908,2.357,5.266,5.266,5.266
				c2.908,0,5.266-2.357,5.266-5.266v-42.187C178.532,231.998,176.175,229.641,173.267,229.641z"/>
		</g>
		<g>
			<path d="M251.25,242.821c-1.454-2.519-4.675-3.381-7.193-1.927l-36.535,21.094c-2.519,1.454-3.381,4.675-1.927,7.193
				c1.454,2.519,4.675,3.381,7.193,1.927l36.535-21.094C251.841,248.56,252.704,245.339,251.25,242.821z"/>
			<path d="M249.323,261.987l-36.535-21.094c-2.519-1.454-5.739-0.591-7.193,1.927c-1.454,2.519-0.591,5.739,1.927,7.193
				l36.535,21.093c2.519,1.454,5.739,0.591,7.193-1.927C252.704,266.661,251.841,263.44,249.323,261.987z"/>
			<path d="M228.422,229.641c-2.908,0-5.266,2.357-5.266,5.266v42.187c0,2.908,2.357,5.266,5.266,5.266
				c2.908,0,5.266-2.357,5.266-5.266v-42.187C233.688,231.998,231.331,229.641,228.422,229.641z"/>
		</g>
		<g>
			<path d="M306.406,242.821c-1.454-2.519-4.675-3.381-7.193-1.927l-36.535,21.094c-2.519,1.454-3.381,4.675-1.927,7.193
				c1.454,2.519,4.675,3.381,7.193,1.927l36.535-21.094C306.997,248.56,307.86,245.339,306.406,242.821z"/>
			<path d="M304.479,261.987l-36.535-21.094c-2.519-1.454-5.739-0.591-7.193,1.927c-1.454,2.519-0.591,5.739,1.927,7.193
				l36.535,21.093c2.519,1.454,5.739,0.591,7.193-1.927C307.86,266.661,306.997,263.44,304.479,261.987z"/>
			<path d="M283.578,229.641c-2.908,0-5.266,2.357-5.266,5.266v42.187c0,2.908,2.357,5.266,5.266,5.266
				c2.908,0,5.266-2.357,5.266-5.266v-42.187C288.844,231.998,286.486,229.641,283.578,229.641z"/>
		</g>
		<g>
			<path d="M361.562,242.821c-1.454-2.519-4.675-3.381-7.193-1.927l-36.535,21.094c-2.519,1.454-3.381,4.675-1.927,7.193
				c1.454,2.519,4.675,3.381,7.193,1.927l36.535-21.094C362.154,248.56,363.015,245.339,361.562,242.821z"/>
			<path d="M359.634,261.987l-36.535-21.094c-2.519-1.454-5.739-0.591-7.193,1.927c-1.454,2.519-0.591,5.739,1.927,7.193
				l36.535,21.093c2.519,1.454,5.739,0.591,7.193-1.927C363.015,266.661,362.154,263.44,359.634,261.987z"/>
			<path d="M338.734,229.641c-2.908,0-5.266,2.357-5.266,5.266v42.187c0,2.908,2.357,5.266,5.266,5.266
				c2.908,0,5.266-2.357,5.266-5.266v-42.187C343.999,231.998,341.642,229.641,338.734,229.641z"/>
		</g>
	</g>
</g>
</svg>
