<?xml version="1.0" encoding="utf-8"?>
<!-- Generator: Adobe Illustrator 22.0.1, SVG Export Plug-In . SVG Version: 6.00 Build 0)  -->
<svg version="1.1" id="Layer_1" xmlns="http://www.w3.org/2000/svg" xmlns:xlink="http://www.w3.org/1999/xlink" x="0px" y="0px"
	 viewBox="0 0 512 512" enable-background="new 0 0 512 512" xml:space="preserve">
<g>
	<linearGradient id="SVGID_1_" gradientUnits="userSpaceOnUse" x1="26" y1="256" x2="486" y2="256">
		<stop  offset="0" style="stop-color:#EF3923"/>
		<stop  offset="1" style="stop-color:#F7991D"/>
	</linearGradient>
	<circle fill="url(#SVGID_1_)" cx="256" cy="256" r="230"/>
</g>
<path id="path236" fill="#FFFFFF" d="M255.151,161.016c-2.648,0-4.821,2.173-4.859,4.844l-1.989,99.291l1.993,36.035
	c0.035,2.632,2.209,4.801,4.856,4.801c2.64,0,4.812-2.169,4.851-4.84v0.042l2.161-36.039l-2.161-99.298
	C259.964,163.19,257.791,161.016,255.151,161.016 M391.097,218.151c-6.039,0-11.8,1.221-17.049,3.421
	c-3.506-39.724-36.818-70.884-77.451-70.884c-9.943,0-19.635,1.958-28.194,5.268c-3.326,1.287-4.211,2.614-4.242,5.184v139.889
	c0.034,2.697,2.126,4.944,4.759,5.21c0.112,0.011,121.388,0.074,122.174,0.074c24.34,0,44.074-19.735,44.074-44.079
	S415.437,218.151,391.097,218.151 M198.729,302.518V302.5l2.543-37.381l-2.543-81.482c-0.062-2.023-1.657-3.61-3.626-3.61
	c-1.981,0-3.576,1.584-3.63,3.61l-2.259,81.479l2.262,37.4c0.054,2.004,1.649,3.588,3.626,3.588c1.972,0,3.561-1.585,3.626-3.599
	C198.729,302.503,198.729,302.518,198.729,302.518z M165.681,306.106c1.61,0,2.94-1.314,3.018-2.99l2.96-38.009l-2.96-72.75
	c-0.081-1.68-1.408-2.99-3.018-2.99c-1.626,0-2.952,1.314-3.022,2.99c0,0.005-2.621,72.75-2.621,72.75l2.625,38.025
	C162.728,304.792,164.054,306.106,165.681,306.106 M224.988,184.405c-2.331,0-4.2,1.854-4.246,4.227l-1.896,76.499l1.896,36.811
	c0.046,2.342,1.911,4.196,4.246,4.196c2.327,0,4.185-1.85,4.239-4.222v0.03l2.128-36.81l-2.128-76.511
	C229.173,186.257,227.316,184.405,224.988,184.405 M108.213,303.622c0.934,0,1.689-0.737,1.796-1.754l3.8-36.795l-3.796-38.182
	c-0.112-1.021-0.866-1.758-1.8-1.758c-0.944,0-1.699,0.74-1.796,1.758c0,0.005-3.345,38.182-3.345,38.182l3.345,36.788
	C106.511,302.881,107.266,303.622,108.213,303.622 M136.716,305.718c1.276,0,2.309-1.021,2.405-2.366l3.384-38.271l-3.384-36.405
	c-0.092-1.345-1.125-2.359-2.405-2.359c-1.294,0-2.326,1.021-2.409,2.374l-2.979,36.39l2.979,38.266
	C134.392,304.696,135.422,305.718,136.716,305.718 M209.989,306.065c2.146,0,3.878-1.724,3.935-3.919v0.026l2.335-37.049
	l-2.339-79.397c-0.057-2.197-1.787-3.916-3.934-3.916c-2.163,0-3.894,1.719-3.94,3.916l-2.077,79.4l2.081,37.041
	C206.098,304.341,207.828,306.065,209.989,306.065 M240.103,306.207c2.466,0,4.5-2.031,4.546-4.529v0.028v-0.028l1.92-36.54
	l-1.92-91.04c-0.041-2.493-2.08-4.528-4.546-4.528c-2.47,0-4.509,2.031-4.548,4.531l-1.715,91.004
	c0,0.057,1.715,36.595,1.715,36.595C235.593,304.176,237.636,306.207,240.103,306.207 M180.332,306.03
	c1.793,0,3.249-1.445,3.321-3.295l2.751-37.619l-2.748-78.827c-0.074-1.85-1.53-3.294-3.322-3.294c-1.807,0-3.268,1.449-3.325,3.299
	c0,0.004-2.44,78.819-2.44,78.819l2.44,37.635C177.068,304.581,178.528,306.03,180.332,306.03 M122.407,223.781
	c-1.11,0-2.016,0.886-2.104,2.069l-3.16,39.231l3.16,37.955c0.085,1.175,0.995,2.062,2.104,2.062c1.099,0,2.004-0.888,2.1-2.062
	l3.592-37.955l-3.592-39.237C124.411,224.667,123.506,223.781,122.407,223.781 M151.137,203.202c-1.445,0-2.64,1.184-2.709,2.686
	l-2.806,59.209l2.806,38.264c0.072,1.495,1.264,2.674,2.709,2.674c1.438,0,2.629-1.184,2.714-2.681v0.011l3.171-38.266
	l-3.171-59.209C153.764,204.385,152.573,203.202,151.137,203.202 M95.628,232.887c-0.124-0.855-0.736-1.445-1.491-1.445
	c-0.76,0-1.386,0.609-1.491,1.445c0,0.007-3.521,32.182-3.521,32.182l3.521,31.469c0.1,0.844,0.729,1.453,1.491,1.453
	c0.751,0,1.364-0.594,1.488-1.444l4.009-31.478C99.633,265.07,95.628,232.887,95.628,232.887z M80.892,243.762
	c-0.749,0-1.341,0.577-1.438,1.403l-2.621,19.904l2.621,19.561c0.096,0.825,0.689,1.399,1.438,1.399c0.724,0,1.314-0.571,1.43-1.391
	v-0.005v0.005l3.105-19.57l-3.105-19.907C82.209,244.34,81.612,243.762,80.892,243.762"/>
</svg>
