<?xml version="1.0" encoding="utf-8"?>
<!-- Generator: Adobe Illustrator 22.0.1, SVG Export Plug-In . SVG Version: 6.00 Build 0)  -->
<svg version="1.1" id="Layer_2" xmlns="http://www.w3.org/2000/svg" xmlns:xlink="http://www.w3.org/1999/xlink" x="0px" y="0px"
	 viewBox="0 0 512 512" enable-background="new 0 0 512 512" xml:space="preserve">
<circle fill="#709B3A" cx="256" cy="256" r="230"/>
<path fill="#2C5615" d="M328.144,333.211c-3.174-3.461-6.411-6.965-9.688-10.427c-3.279-3.461-6.558-6.923-9.785-10.33
	c-3.215-3.42-6.378-6.786-9.44-10.043c-3.051-3.267-6.001-6.427-8.798-9.422c-2.785-3.007-5.418-5.851-7.848-8.476
	c-4.854-5.256-8.926-9.61-11.732-12.701c-2.816-3.081-4.426-4.842-4.426-4.842l0.54-0.54c0,0,1.761,1.609,4.842,4.426
	c3.091,2.806,7.445,6.878,12.701,11.732c2.625,2.43,5.468,5.063,8.476,7.848c2.995,2.797,6.154,5.747,9.422,8.798
	c3.257,3.062,6.623,6.225,10.043,9.44c3.408,3.227,6.869,6.507,10.33,9.785c3.463,3.277,6.966,6.514,10.427,9.688
	c3.468,3.167,6.842,6.322,10.025,9.458c1.372,1.374,2.706,2.736,4.012,4.089c7.332-13.716,28.453-67.402-41.733-137.588
	c-49.901-49.901-149.508-48.203-149.508-48.203s-1.699,99.606,48.203,149.508c70.437,70.437,123.659,49.337,137.479,41.835
	c-1.352-1.304-2.713-2.637-4.086-4.008C334.466,340.054,331.312,336.679,328.144,333.211z"/>
</svg>
