<?xml version="1.0" encoding="utf-8"?>
<!-- Generator: Adobe Illustrator 18.0.0, SVG Export Plug-In . SVG Version: 6.00 Build 0)  -->
<!DOCTYPE svg PUBLIC "-//W3C//DTD SVG 1.1//EN" "http://www.w3.org/Graphics/SVG/1.1/DTD/svg11.dtd">
<svg version="1.1" id="Layer_1" xmlns="http://www.w3.org/2000/svg" xmlns:xlink="http://www.w3.org/1999/xlink" x="0px" y="0px"
	 viewBox="0 0 512 512" style="enable-background:new 0 0 512 512;" xml:space="preserve">
<linearGradient id="SVGID_1_" gradientUnits="userSpaceOnUse" x1="26" y1="256" x2="486" y2="256">
	<stop  offset="0" style="stop-color:#CCCCCC"/>
	<stop  offset="0.5" style="stop-color:#F2F2F2"/>
	<stop  offset="1" style="stop-color:#CCCCCC"/>
</linearGradient>
<path style="fill:url(#SVGID_1_);" d="M426,486H86c-33.137,0-60-26.863-60-60V86c0-33.137,26.863-60,60-60h340
	c33.137,0,60,26.863,60,60v340C486,459.137,459.137,486,426,486z"/>
<linearGradient id="SVGID_2_" gradientUnits="userSpaceOnUse" x1="256" y1="486" x2="256" y2="149.0855">
	<stop  offset="0" style="stop-color:#E8E8E8"/>
	<stop  offset="1" style="stop-color:#F2F2F2"/>
</linearGradient>
<path style="fill:url(#SVGID_2_);" d="M426,486H86c-33.137,0-60-26.863-60-60V209.085c0-33.137,26.863-60,60-60h340
	c33.137,0,60,26.863,60,60V426C486,459.137,459.137,486,426,486z"/>
<linearGradient id="SVGID_3_" gradientUnits="userSpaceOnUse" x1="256" y1="149.0078" x2="256" y2="26">
	<stop  offset="0" style="stop-color:#E8E8E8"/>
	<stop  offset="1" style="stop-color:#F2F2F2"/>
</linearGradient>
<path style="fill:url(#SVGID_3_);" d="M426,149.008H86c-33.137,0-60-26.863-60-60V86c0-33.137,26.863-60,60-60h340
	c33.137,0,60,26.863,60,60v3.008C486,122.145,459.137,149.008,426,149.008z"/>
<g>
	<path id="path216" d="M202.246,221.702c0,18.639-15.11,33.749-33.749,33.749s-33.748-15.11-33.748-33.749
		s15.109-33.749,33.748-33.749S202.246,203.064,202.246,221.702"/>
	<path id="path220" d="M377.251,221.702c0,18.639-15.11,33.749-33.749,33.749c-18.639,0-33.748-15.11-33.748-33.749
		s15.109-33.749,33.747-33.749C362.141,187.954,377.251,203.064,377.251,221.702"/>
	<path id="path224" d="M168.497,286.074c18.639,0,33.749,15.11,33.749,33.749s-15.11,33.747-33.749,33.747
		s-33.749-15.109-33.749-33.747S149.859,286.074,168.497,286.074"/>
	<path id="path228" d="M343.502,286.074c18.639,0,33.749,15.11,33.749,33.749s-15.11,33.747-33.749,33.747
		c-18.639,0-33.749-15.109-33.749-33.747S324.864,286.074,343.502,286.074"/>
	<path id="path232" d="M168.497,384.194c-18.639,0-33.749,15.11-33.749,33.749c0,18.639,15.11,33.748,33.749,33.748
		s33.749-15.109,33.749-33.747C202.246,399.305,187.136,384.194,168.497,384.194"/>
	<path id="path236" d="M343.503,384.194c-18.639,0-33.749,15.11-33.749,33.749c0,18.639,15.11,33.748,33.749,33.748
		s33.749-15.109,33.749-33.747C377.251,399.305,362.141,384.194,343.503,384.194"/>
</g>
<g>
	<path id="path240" style="fill:#700808;" d="M168.497,99.628c-18.639,0-33.749,4.8-33.749,10.723
		c0,5.921,15.11,10.721,33.749,10.721s33.749-4.8,33.749-10.721C202.246,104.428,187.136,99.628,168.497,99.628"/>
	<path id="path244" style="fill:#700808;" d="M343.503,99.628c-18.639,0-33.749,4.8-33.749,10.723
		c0,5.921,15.11,10.721,33.749,10.721s33.749-4.8,33.749-10.721C377.251,104.428,362.141,99.628,343.503,99.628"/>
	<path id="path248" style="fill:#700808;" d="M168.497,48c-18.639,0-33.749,4.8-33.749,10.722c0,5.921,15.11,10.721,33.749,10.721
		s33.749-4.8,33.749-10.721C202.246,52.8,187.136,48,168.497,48"/>
	<path id="path252" style="fill:#700808;" d="M343.503,48c-18.639,0-33.749,4.8-33.749,10.722c0,5.921,15.11,10.721,33.749,10.721
		s33.749-4.8,33.749-10.721C377.251,52.8,362.141,48,343.503,48"/>
</g>
</svg>
