<?xml version="1.0" encoding="utf-8"?>
<!-- Generator: Adobe Illustrator 22.0.1, SVG Export Plug-In . SVG Version: 6.00 Build 0)  -->
<svg version="1.1" id="Layer_1" xmlns:serif="http://www.serif.com/"
	 xmlns="http://www.w3.org/2000/svg" xmlns:xlink="http://www.w3.org/1999/xlink" x="0px" y="0px" viewBox="0 0 512 512"
	 enable-background="new 0 0 512 512" xml:space="preserve">
<path fill="#2DD594" d="M342.646,174.217c-4.253-4.253-11.214-4.253-15.467,0l-78.348,78.348c-4.254,4.253-11.214,4.253-15.467,0
	l-48.542-48.542c-4.253-4.253-11.214-4.253-15.467,0l-27.141,27.141c-4.254,4.255-4.254,11.214,0,15.467l48.54,48.542l15.467,15.467
	l27.143,27.141c4.253,4.255,11.213,4.255,15.466,0l27.142-27.141c4.253-4.253,11.214-11.214,15.467-15.467l78.348-78.348
	c4.253-4.253,4.253-11.214,0-15.467L342.646,174.217z"/>
<path fill="#2DD594" d="M256,46c28.359,0,55.858,5.55,81.735,16.495c25.004,10.576,47.465,25.72,66.757,45.013
	c19.292,19.293,34.437,41.753,45.013,66.757C460.45,200.142,466,227.641,466,256s-5.55,55.858-16.495,81.735
	c-10.576,25.004-25.72,47.465-45.013,66.757c-19.293,19.292-41.753,34.437-66.757,45.013C311.858,460.45,284.359,466,256,466
	s-55.858-5.55-81.735-16.495c-25.004-10.576-47.465-25.72-66.757-45.013C88.215,385.2,73.071,362.74,62.495,337.735
	C51.55,311.858,46,284.359,46,256s5.55-55.858,16.495-81.735c10.576-25.004,25.72-47.465,45.013-66.757
	c19.293-19.292,41.753-34.437,66.757-45.013C200.142,51.55,227.641,46,256,46 M256,26C128.975,26,26,128.975,26,256
	s102.975,230,230,230s230-102.975,230-230S383.025,26,256,26L256,26z"/>
</svg>
