<?xml version="1.0" encoding="utf-8"?>
<!-- Generator: Adobe Illustrator 18.0.0, SVG Export Plug-In . SVG Version: 6.00 Build 0)  -->
<!DOCTYPE svg PUBLIC "-//W3C//DTD SVG 1.1//EN" "http://www.w3.org/Graphics/SVG/1.1/DTD/svg11.dtd">
<svg version="1.1" id="Layer_1" xmlns="http://www.w3.org/2000/svg" xmlns:xlink="http://www.w3.org/1999/xlink" x="0px" y="0px"
	 viewBox="0 0 512 512" style="enable-background:new 0 0 512 512;" xml:space="preserve">
<g>
	<g>
		<g>
			<path style="fill:#3F0606;" d="M230.992,250.027H45.523c-10.782,0-19.523-8.722-19.523-19.481V45.481
				C26,34.722,34.741,26,45.523,26h185.469c10.782,0,19.523,8.722,19.523,19.481v185.066
				C250.515,241.305,241.774,250.027,230.992,250.027z"/>
			<g>
				
					<linearGradient id="SVGID_1_" gradientUnits="userSpaceOnUse" x1="138.2575" y1="486" x2="138.2575" y2="261.972" gradientTransform="matrix(1 0 0 -1 0 512)">
					<stop  offset="0" style="stop-color:#FFFFFF"/>
					<stop  offset="1" style="stop-color:#FFFFFF;stop-opacity:0.5"/>
				</linearGradient>
				<path style="fill:url(#SVGID_1_);" d="M230.992,30.87c8.074,0,14.642,6.554,14.642,14.61v185.066
					c0,8.056-6.568,14.61-14.642,14.61H45.523c-8.074,0-14.642-6.554-14.642-14.61V45.481c0-8.056,6.568-14.61,14.642-14.61
					L230.992,30.87 M230.992,26H45.523C34.741,26,26,34.722,26,45.481v185.066c0,10.759,8.741,19.481,19.523,19.481h185.469
					c10.782,0,19.523-8.722,19.523-19.481V45.481C250.515,34.722,241.774,26,230.992,26L230.992,26z"/>
			</g>
		</g>
		<g>
			<path style="fill:#FFFFFF;" d="M99.07,105.739c0-1.948-0.774-3.589-2.321-4.923s-4.156-2.541-7.826-3.621
				c-5.109-1.376-8.833-3.171-11.172-5.384c-2.339-2.213-3.508-5.024-3.508-8.433c0-3.473,1.145-6.321,3.436-8.545
				c2.29-2.223,5.439-3.547,9.445-3.97v-6.956h5.361v6.988c4.03,0.487,7.166,1.98,9.409,4.479c2.243,2.499,3.364,5.919,3.364,10.26
				h-6.62c0-2.995-0.804-5.375-2.411-7.138s-3.778-2.645-6.513-2.645c-2.855,0-5.037,0.653-6.549,1.957
				c-1.511,1.305-2.267,3.124-2.267,5.457c0,2.164,0.797,3.888,2.393,5.171c1.595,1.283,4.221,2.45,7.88,3.5
				c3.658,1.05,6.513,2.205,8.563,3.465c2.051,1.26,3.562,2.727,4.534,4.399c0.971,1.673,1.457,3.632,1.457,5.876
				c0,3.579-1.218,6.459-3.652,8.64c-2.435,2.181-5.847,3.473-10.236,3.875v6.067h-5.325v-6.067
				c-4.462-0.36-7.958-1.763-10.488-4.209c-2.531-2.446-3.796-5.765-3.796-9.958h6.656c0,2.944,0.875,5.209,2.627,6.798
				c1.751,1.588,4.233,2.382,7.448,2.382c3.142,0,5.613-0.667,7.412-2.001C98.17,109.869,99.07,108.048,99.07,105.739z"/>
			<path style="fill:#FFFFFF;" d="M142.75,122.211h-32.958v-5.421h32.958V122.211z"/>
		</g>
	</g>
	<g>
		<g>
			<path style="fill:#151515;" d="M466.477,250.027H281.008c-10.782,0-19.523-8.722-19.523-19.481V45.481
				c0-10.759,8.741-19.481,19.523-19.481h185.469C477.259,26,486,34.722,486,45.481v185.066
				C486,241.305,477.259,250.027,466.477,250.027z"/>
			<g>
				
					<linearGradient id="SVGID_2_" gradientUnits="userSpaceOnUse" x1="373.7425" y1="486" x2="373.7425" y2="261.972" gradientTransform="matrix(1 0 0 -1 0 512)">
					<stop  offset="0" style="stop-color:#FFFFFF"/>
					<stop  offset="1" style="stop-color:#FFFFFF;stop-opacity:0.5"/>
				</linearGradient>
				<path style="fill:url(#SVGID_2_);" d="M466.477,30.87c8.074,0,14.642,6.554,14.642,14.61v185.066
					c0,8.056-6.568,14.61-14.642,14.61H281.008c-8.074,0-14.642-6.554-14.642-14.61V45.481c0-8.056,6.568-14.61,14.642-14.61
					L466.477,30.87 M466.477,26H281.008c-10.782,0-19.523,8.722-19.523,19.481v185.066c0,10.759,8.741,19.481,19.523,19.481h185.469
					c10.782,0,19.523-8.722,19.523-19.481V45.481C486,34.722,477.259,26,466.477,26L466.477,26z"/>
			</g>
		</g>
		<g>
			<path style="fill:#FFFFFF;" d="M334.555,105.739c0-1.948-0.774-3.589-2.321-4.923c-1.547-1.334-4.156-2.541-7.826-3.621
				c-5.109-1.376-8.833-3.171-11.172-5.384c-2.339-2.213-3.508-5.024-3.508-8.433c0-3.473,1.145-6.321,3.436-8.545
				c2.29-2.223,5.439-3.547,9.445-3.97v-6.956h5.361v6.988c4.03,0.487,7.166,1.98,9.409,4.479c2.243,2.499,3.364,5.919,3.364,10.26
				h-6.62c0-2.995-0.804-5.375-2.411-7.138c-1.607-1.763-3.778-2.645-6.513-2.645c-2.855,0-5.037,0.653-6.549,1.957
				c-1.511,1.305-2.267,3.124-2.267,5.457c0,2.164,0.797,3.888,2.393,5.171c1.595,1.283,4.221,2.45,7.88,3.5
				c3.658,1.05,6.513,2.205,8.563,3.465c2.051,1.26,3.562,2.727,4.534,4.399c0.971,1.673,1.457,3.632,1.457,5.876
				c0,3.579-1.218,6.459-3.652,8.64c-2.435,2.181-5.847,3.473-10.236,3.875v6.067h-5.325v-6.067
				c-4.462-0.36-7.958-1.763-10.488-4.209c-2.531-2.446-3.796-5.765-3.796-9.958h6.656c0,2.944,0.875,5.209,2.626,6.798
				c1.751,1.588,4.233,2.382,7.448,2.382c3.142,0,5.613-0.667,7.412-2.001C333.655,109.869,334.555,108.048,334.555,105.739z"/>
			<path style="fill:#FFFFFF;" d="M378.235,122.211h-32.958v-5.421h32.958V122.211z"/>
		</g>
	</g>
</g>
<g>
	<g>
		<g>
			<path style="fill:#151515;" d="M230.992,485.027H45.523c-10.782,0-19.523-8.722-19.523-19.481V280.481
				C26,269.722,34.741,261,45.523,261h185.469c10.782,0,19.523,8.722,19.523,19.481v185.066
				C250.515,476.305,241.774,485.027,230.992,485.027z"/>
			<g>
				
					<linearGradient id="SVGID_3_" gradientUnits="userSpaceOnUse" x1="138.2575" y1="251" x2="138.2575" y2="26.972" gradientTransform="matrix(1 0 0 -1 0 512)">
					<stop  offset="0" style="stop-color:#FFFFFF"/>
					<stop  offset="1" style="stop-color:#FFFFFF;stop-opacity:0.5"/>
				</linearGradient>
				<path style="fill:url(#SVGID_3_);" d="M230.992,265.87c8.074,0,14.642,6.554,14.642,14.61v185.066
					c0,8.056-6.568,14.61-14.642,14.61H45.523c-8.074,0-14.642-6.554-14.642-14.61V280.481c0-8.056,6.568-14.61,14.642-14.61
					h185.469 M230.992,261H45.523C34.741,261,26,269.722,26,280.481v185.066c0,10.759,8.741,19.481,19.523,19.481h185.469
					c10.782,0,19.523-8.722,19.523-19.481V280.481C250.515,269.722,241.774,261,230.992,261L230.992,261z"/>
			</g>
		</g>
		<g>
			<path style="fill:#FFFFFF;" d="M99.07,340.739c0-1.948-0.774-3.589-2.321-4.923s-4.156-2.541-7.826-3.621
				c-5.109-1.376-8.833-3.171-11.172-5.384s-3.508-5.024-3.508-8.433c0-3.473,1.145-6.321,3.436-8.545
				c2.29-2.223,5.439-3.547,9.445-3.97v-6.956h5.361v6.988c4.03,0.487,7.166,1.98,9.409,4.479s3.364,5.919,3.364,10.26h-6.62
				c0-2.995-0.804-5.375-2.411-7.138c-1.607-1.764-3.778-2.645-6.513-2.645c-2.855,0-5.037,0.653-6.549,1.957
				c-1.511,1.305-2.267,3.124-2.267,5.457c0,2.164,0.797,3.888,2.393,5.171c1.595,1.283,4.221,2.45,7.88,3.5
				c3.658,1.05,6.513,2.205,8.563,3.465c2.051,1.26,3.562,2.727,4.534,4.399c0.971,1.673,1.457,3.632,1.457,5.876
				c0,3.579-1.218,6.459-3.652,8.64c-2.435,2.181-5.847,3.473-10.236,3.875v6.067h-5.325v-6.067
				c-4.462-0.36-7.958-1.763-10.488-4.209c-2.531-2.446-3.796-5.765-3.796-9.958h6.656c0,2.944,0.875,5.209,2.627,6.798
				c1.751,1.588,4.233,2.382,7.448,2.382c3.142,0,5.613-0.667,7.412-2.001C98.17,344.869,99.07,343.048,99.07,340.739z"/>
			<path style="fill:#FFFFFF;" d="M142.75,357.211h-32.958v-5.421h32.958V357.211z"/>
		</g>
	</g>
	<g>
		<g>
			<path style="fill:#3F0606;" d="M466.477,485.027H281.008c-10.782,0-19.523-8.722-19.523-19.481V280.481
				c0-10.759,8.741-19.481,19.523-19.481h185.469c10.782,0,19.523,8.722,19.523,19.481v185.066
				C486,476.305,477.259,485.027,466.477,485.027z"/>
			<g>
				
					<linearGradient id="SVGID_4_" gradientUnits="userSpaceOnUse" x1="373.7425" y1="251" x2="373.7425" y2="26.972" gradientTransform="matrix(1 0 0 -1 0 512)">
					<stop  offset="0" style="stop-color:#FFFFFF"/>
					<stop  offset="1" style="stop-color:#FFFFFF;stop-opacity:0.5"/>
				</linearGradient>
				<path style="fill:url(#SVGID_4_);" d="M466.477,265.87c8.074,0,14.642,6.554,14.642,14.61v185.066
					c0,8.056-6.568,14.61-14.642,14.61H281.008c-8.074,0-14.642-6.554-14.642-14.61V280.481c0-8.056,6.568-14.61,14.642-14.61
					h185.469 M466.477,261H281.008c-10.782,0-19.523,8.722-19.523,19.481v185.066c0,10.759,8.741,19.481,19.523,19.481h185.469
					c10.782,0,19.523-8.722,19.523-19.481V280.481C486,269.722,477.259,261,466.477,261L466.477,261z"/>
			</g>
		</g>
		<g>
			<path style="fill:#FFFFFF;" d="M334.555,340.739c0-1.948-0.774-3.589-2.321-4.923c-1.547-1.334-4.156-2.541-7.826-3.621
				c-5.109-1.376-8.833-3.171-11.172-5.384s-3.508-5.024-3.508-8.433c0-3.473,1.145-6.321,3.436-8.545
				c2.29-2.223,5.439-3.547,9.445-3.97v-6.956h5.361v6.988c4.03,0.487,7.166,1.98,9.409,4.479s3.364,5.919,3.364,10.26h-6.62
				c0-2.995-0.804-5.375-2.411-7.138c-1.607-1.764-3.778-2.645-6.513-2.645c-2.855,0-5.037,0.653-6.549,1.957
				c-1.511,1.305-2.267,3.124-2.267,5.457c0,2.164,0.797,3.888,2.393,5.171c1.595,1.283,4.221,2.45,7.88,3.5
				c3.658,1.05,6.513,2.205,8.563,3.465c2.051,1.26,3.562,2.727,4.534,4.399c0.971,1.673,1.457,3.632,1.457,5.876
				c0,3.579-1.218,6.459-3.652,8.64c-2.435,2.181-5.847,3.473-10.236,3.875v6.067h-5.325v-6.067
				c-4.462-0.36-7.958-1.763-10.488-4.209c-2.531-2.446-3.796-5.765-3.796-9.958h6.656c0,2.944,0.875,5.209,2.626,6.798
				c1.751,1.588,4.233,2.382,7.448,2.382c3.142,0,5.613-0.667,7.412-2.001C333.655,344.869,334.555,343.048,334.555,340.739z"/>
			<path style="fill:#FFFFFF;" d="M378.235,357.211h-32.958v-5.421h32.958V357.211z"/>
		</g>
	</g>
</g>
</svg>
