<?xml version="1.0" encoding="utf-8"?>
<!-- Generator: Adobe Illustrator 18.0.0, SVG Export Plug-In . SVG Version: 6.00 Build 0)  -->
<!DOCTYPE svg PUBLIC "-//W3C//DTD SVG 1.1//EN" "http://www.w3.org/Graphics/SVG/1.1/DTD/svg11.dtd">
<svg version="1.1" id="Layer_1" xmlns="http://www.w3.org/2000/svg" xmlns:xlink="http://www.w3.org/1999/xlink" x="0px" y="0px"
	 viewBox="0 0 512 512" style="enable-background:new 0 0 512 512;" xml:space="preserve">
<radialGradient id="SVGID_1_" cx="256" cy="256" r="230" gradientTransform="matrix(1 0 0 -1 0 512)" gradientUnits="userSpaceOnUse">
	<stop  offset="0" style="stop-color:#330055"/>
	<stop  offset="1" style="stop-color:#000000"/>
</radialGradient>
<circle style="fill:url(#SVGID_1_);" cx="256" cy="256" r="230"/>
<linearGradient id="SVGID_2_" gradientUnits="userSpaceOnUse" x1="256" y1="26" x2="256" y2="336.7" gradientTransform="matrix(1 0 0 -1 0 512)">
	<stop  offset="0" style="stop-color:#E655FF"/>
	<stop  offset="1" style="stop-color:#0090D4;stop-opacity:0"/>
</linearGradient>
<path style="fill:url(#SVGID_2_);" d="M486,256c0,127-103,230-230,230S26,383,26,256c0,0,103-80.7,230-80.7S486,256,486,256z"/>
<g>
	
		<radialGradient id="SVGID_3_" cx="256" cy="256" r="230" gradientTransform="matrix(1 0 0 -1 0 512)" gradientUnits="userSpaceOnUse">
		<stop  offset="0" style="stop-color:#008BE9"/>
		<stop  offset="1" style="stop-color:#000000;stop-opacity:0"/>
	</radialGradient>
	<circle style="fill:url(#SVGID_3_);" cx="256" cy="256" r="230"/>
	<path style="opacity:0.4;" d="M174.265,449.505C200.142,460.45,227.641,466,256,466c28.359,0,55.858-5.55,81.735-16.495
		c25.004-10.576,47.465-25.72,66.757-45.013c19.292-19.293,34.437-41.753,45.013-66.757C460.45,311.858,466,284.359,466,256
		c0-1.503-0.024-3.002-0.055-4.5c-0.557,26.768-6.074,52.73-16.44,77.235c-10.576,25.004-25.72,47.465-45.013,66.757
		c-19.293,19.292-41.753,34.437-66.757,45.013C311.858,451.45,284.359,457,256,457c-28.359,0-55.858-5.55-81.735-16.495
		c-25.004-10.576-47.465-25.72-66.757-45.013C88.215,376.2,73.071,353.74,62.495,328.735C52.13,304.23,46.612,278.268,46.055,251.5
		C46.024,252.998,46,254.497,46,256c0,28.359,5.55,55.858,16.495,81.735c10.576,25.004,25.72,47.465,45.013,66.757
		C126.8,423.785,149.26,438.929,174.265,449.505z"/>
	<path style="fill:#FFFFFF;" d="M256,46c28.359,0,55.858,5.55,81.735,16.495c25.004,10.576,47.465,25.72,66.757,45.013
		c19.292,19.293,34.437,41.753,45.013,66.757C460.45,200.142,466,227.641,466,256s-5.55,55.858-16.495,81.735
		c-10.576,25.004-25.72,47.465-45.013,66.757c-19.293,19.292-41.753,34.437-66.757,45.013C311.858,460.45,284.359,466,256,466
		s-55.858-5.55-81.735-16.495c-25.004-10.576-47.465-25.72-66.757-45.013C88.215,385.2,73.071,362.74,62.495,337.735
		C51.55,311.858,46,284.359,46,256s5.55-55.858,16.495-81.735c10.576-25.004,25.72-47.465,45.013-66.757
		c19.293-19.292,41.753-34.437,66.757-45.013C200.142,51.55,227.641,46,256,46 M256,26C128.975,26,26,128.975,26,256
		s102.975,230,230,230s230-102.975,230-230S383.025,26,256,26L256,26z"/>
</g>
<g style="opacity:0.4;">
	<path d="M207.5,192.6c2.9-0.8,5.8,0.6,8.2,2.6c-5.7,0.1-8.8,4.5-15.5,2.2c1.4-0.5,2-1.6,2.6-2.6C204.2,193.8,205.8,193,207.5,192.6
		z"/>
	<path d="M209.9,248.3c2.1,1.2,3.8,3.6,2,4.2c-4,1-9.4,0.4-7.5-3.5C205.1,247.9,207.5,247.5,209.9,248.3z"/>
	<path d="M226.2,273.6c2.1,1.2,3.8,3.6,2,4.2c-4,1-9.4,0.4-7.5-3.5C221.5,273.2,223.9,272.7,226.2,273.6z"/>
	<path d="M214,241.6c2,1.2,4.7,3.1,3.8,4.9c-0.9,2.7-7.3,1.8-8.5-2.6C209.1,242.1,211.1,241.1,214,241.6z"/>
	<path d="M210,232c2.1,1.7,7.6-0.1,6.7,4.5c-1.8,6.4-9.1,3.6-11.4-1.1C204.5,233.6,206.4,232.2,210,232z"/>
	<path d="M207.5,223.2c3.1-0.3,7-2.9,9.3,0.9c1.2,1.9,0.3,4.6-0.6,5.5c-4.2,2.4-11.5,2.4-14.3-1.7
		C201,226.1,203.3,224.1,207.5,223.2z"/>
	<path d="M205.8,213.7c2.2-1.7,5.7-2.3,5.4,0.1c1.6,5.8-0.5,8.3-3.4,8.8s-6.6-0.7-9.1-2.4C198.1,218.3,201,215.5,205.8,213.7z"/>
	<path d="M209.1,199.4c3.7-0.4,6.4-0.4,10-1.3c-3.6,7.3-10.9,10-19.1,10c1.8-0.9,2.7-2.7,3-4.1C204.6,202.3,206.7,200.6,209.1,199.4
		z"/>
	<path d="M222.3,254.7c2,1.4,2.8,4.1,0.4,5.8c-3.7,0.8-8.1-3-6.5-5.8C217.3,253.4,220,253.3,222.3,254.7z"/>
	<path d="M226.2,247.1c1.3,3,5,5.8,2.2,7.6c-3.6,2.7-7.3-2.7-7.8-6.7C221.1,245.9,223.6,245.3,226.2,247.1z"/>
	<path d="M226.3,234c0.4,1.3,1.5,4,1.7,6.2c0.2,2.1-0.6,3.7-3.9,2.7c-1.9-0.9-2.6-5.4-4.7-8.3C219.5,232,222.7,231.4,226.3,234z"/>
	<path d="M232.4,224.4c2.1,1.3,2.7,3.5,3.1,5.9c0.4,2.4,0.6,4.9,2,6.7c-4.1,0.5-7.3-1.1-9.8-3.6c-2-3.6-9.3-10-1.9-11.8
		C227.7,221.6,230.1,222.5,232.4,224.4z"/>
	<path d="M241.8,211.5c0.5,3.7,3.2,8.2,2.3,10.9c-0.9,1.4-3,2-5.1,1.8s-4.4-1.4-5.8-3.6c-1.8-3.6-8.2-12.7-0.2-12.6
		C235.6,208.2,238.9,209.3,241.8,211.5z"/>
	<path d="M265.8,224.5c1.8,3.4,5.5,11.6,0.2,12.5c-3.8,0.4-2.8-7.7-4.6-11.4C261.9,222.6,263.9,222.5,265.8,224.5z"/>
	<path d="M234.3,263c2.8,4.2,0.5,5.2-1.8,5.3c-6.1-1.1-6.5-3.5-4.9-6C229.1,261,232,261.3,234.3,263z"/>
	<path d="M235.4,247.5c0.5,2.2,4.2,4.2,1.4,6c-2.3,0.9-4.2-0.1-5.5-1.8s-2.1-4.1-2.4-6.1C229.9,244.3,232.8,245.1,235.4,247.5z"/>
	<path d="M274,285.4c-0.4,2.7,3.3,2.8,3.3,3.9c-1.8,3-4.1,2.1-6.1-0.1c-2-2-3.7-5.3-4.2-7.4C267.9,280.5,271,282.1,274,285.4z"/>
	<path d="M243.8,245.1c0,3.6,5.6,5.9,3.8,6.9c-2.7,2.5-5.1,0.8-7-2.1c-1.9-2.8-3.1-7-3.9-9.8C237.7,238.6,240.9,241,243.8,245.1z"/>
	<path d="M255.1,246c2.4,1.4,4.3,7.9-0.3,6.9c-3.2-0.5-4.4-2.6-4.9-5c-0.6-2.4-0.5-5.3-1.4-7.4C249.9,238.6,252.7,241.5,255.1,246z"
		/>
	<path d="M261.3,235.7c0.8,0.8,2.6,1.7,2.6,3.5c0.9,3.6-1.8,8.2-4.5,7.3c-2.7-0.5-4.1-2.7-4.6-5.5c-0.5-2.7-0.1-5.9,0.7-8.2
		C257.1,230.2,259.6,231.9,261.3,235.7z"/>
	<path d="M295.8,269.6c2,3.8,3.9,11.1-0.7,12c-1.8,0.9-1.8-2.7-1.9-5.4C293.3,272.7,294.3,269.6,295.8,269.6z"/>
	<path d="M300.4,256.2c2.2,2,2.9,4.3,2.6,6.6c-0.2,2.3-1.3,4.7-2.5,6.8c-0.9-1.9-3.6-3.7-2.9-6.9
		C297.6,259.1,298.9,256.2,300.4,256.2z"/>
	<path d="M302,244.3c-1.7,3.8,6.5,7.4,1.1,10.2c-3.6,0.9-2.7-2.7-4.3-4.7C299.1,246.8,300.6,244.4,302,244.3z"/>
	<path d="M308.8,260.4c0,2.3,1.6,4,2.5,5.8s1.3,3.6-1.3,5.7c-3.9,3-2.6-3.1-4.1-5.7C305.9,262.4,307.2,259.8,308.8,260.4z"/>
	<path d="M308.9,247.3c0.3,4.3,5.7,9.8,0.3,11.6c-0.9,0-2.7-3.6-2.9-6.3C306.4,249.4,307.6,247.1,308.9,247.3z"/>
	<path d="M251.3,218.3c3.2,3.6,6.8,9,3.2,11.7c-2.7,2.7-3.6-3.6-5.5-6.8C248.7,219.3,249.7,217,251.3,218.3z"/>
	<path d="M314.3,251.7c0.5,5.1,6.8,10.6,0.5,15.1c-0.9-3.6-3.6-6.4-2.5-9.6C312.1,253.3,313,250.9,314.3,251.7z"/>
	<path d="M318.8,253c2.3,3.4,3,7.6,4.4,11.8c-3.5-0.7-4.3-4.2-5.5-7.2C317.3,254.1,317.9,252,318.8,253z"/>
	<path d="M254.4,277.6c1.3,1.6,2.2,3.4,4,5.2c-7.3,1.8-8.2-8.2-12-12C247.9,270.4,251.4,273.3,254.4,277.6z"/>
	<path d="M261.2,276.2c4.6,2.1,2.7,6.7,4.6,10.3c-7.3-0.9-10-10-12.5-16.5C254.5,269.3,258,272,261.2,276.2z"/>
	<path d="M268.2,270.9c1.3,2.6,5,9,0.4,8.1c-5.5,0-6.4-6.4-7.6-11.4C262.1,266.4,265.4,268,268.2,270.9z"/>
	<path d="M259,256.6c3,1.4,5.7,11.4-0.7,9.6c-1.8-0.9-5.5-3.6-4.8-8.6C254.2,255.4,256.7,255.1,259,256.6z"/>
	<path d="M266.6,246.4c2.8,3.5,5.5,10.7,0.1,10.7c-3.6,0.9-3.6-3.6-4.6-6.5C262.6,247.5,264.8,245.7,266.6,246.4z"/>
	<path d="M275.5,229.4c2,4.3,2.9,14.3-4.3,11.6c-1.8,0-0.9-3.6-0.5-6.3C272,230.8,274.2,228.7,275.5,229.4z"/>
	<path d="M265,290.4c0.8,1.6,2.2,3.5,3.6,5.3c-1.5,2.8-4.4,1.6-7-1.1s-4.8-6.7-5.2-9.8C258.1,284.7,262.1,287.4,265,290.4z"/>
	<path d="M208.1,307.4c2.2,1,3.4,3.8,2.8,6.6c-0.6,2.7-3.1,3.5-5.8,1.3c-2.8-2.5-4.2-6.2-3-7.5C203.1,306.1,205.9,306.2,208.1,307.4
		z"/>
	<path d="M277.9,268.6c4.7,3.3,3.3,7.5,1.8,10c-1.8,0.6-3.7,5.7-5.9-5.3C274.4,270.5,276.2,268.5,277.9,268.6z"/>
	<path d="M272.9,258.5c0,4.8,2.1,8.9-1.4,12.9c-1.5-2.1-1-4.8-2.7-6.7C269.5,261.2,271.4,258.6,272.9,258.5z"/>
	<path d="M275,243.7c3.4,4.2,0.6,8.7-1.2,13.3c-0.9-1.8-0.9-4.5-1.9-6.1C272.1,247.3,273.6,244.1,275,243.7z"/>
	<path d="M240.3,253.9c3.4,4.2,0.6,8.7-1.2,13.3c-0.9-1.8-0.9-4.5-1.9-6.1C237.5,257.5,238.9,254.3,240.3,253.9z"/>
	<path d="M282.6,232.2c3,4.1,0.3,6.9-0.3,9.7c-0.9,0.4-2.9,4.7-3.6-4.6C279.5,234,281.3,231.9,282.6,232.2z"/>
	<path d="M278.8,253c3.6,5.1,2.7,10.5-1,15.1c-1.8-1.8,0-5.5-1.5-7C276.3,257.4,277.4,253.7,278.8,253z"/>
	<path d="M285.6,259.1c2,3.7,3.8,13.7-2.6,11c0,0,0-1.8,0.4-3.2C283.3,263.3,284.3,259.7,285.6,259.1z"/>
	<path d="M287,244.3c1.6,1.6,2.4,4.1,2.3,6.5c-0.2,2.3-1.3,4.5-3.5,5c-2.7,0.1-2.8-2.8-1.9-4.7C284.2,247.5,285.7,244.6,287,244.3z"
		/>
	<path d="M288.9,236.1c4.6,8.1-1.4,7.7-2.5,7.2c-3,1.6-1.3-2.3-1.4-3.1C285.7,237.8,287.5,236.1,288.9,236.1z"/>
	<path d="M204.8,237.7c4.6,8.1-1.4,7.7-2.5,7.2c-3,1.6-1.3-2.3-1.4-3.1C201.6,239.3,203.4,237.6,204.8,237.7z"/>
	<path d="M327.6,256.9c3.2,5.7-1,5.4-1.8,5c-2.1,1.1-0.9-1.6-0.9-2.2C325.4,258,326.6,256.8,327.6,256.9z"/>
	<path d="M285.2,273.3c3,3.6,3.9,10.9-1.5,12.7c0-1.8-0.9-2.7-0.8-5C282.9,277.4,283.9,273.9,285.2,273.3z"/>
	<path d="M292.6,256.8c2,1.2,3.3,4.2,3.4,6.8c0,2.6-1.1,5.1-4.2,4.9c-0.9,0.1-1-2.1-1.5-4.4C290.2,260.5,291.3,257.2,292.6,256.8z"
		/>
	<path d="M294.5,243.3c-0.3,2.1,0.5,4.2,0.9,6.3s0.4,4.2-1.4,6c0-2.7-3.6-3.7-3-6.7C291.5,245.9,293.1,243.5,294.5,243.3z"/>
	<path d="M207.6,254.8c2.1,3,0.4,3.9-1.9,3.6s-5.5-1.6-6.1-2.9c0,0,0.6-0.9,1.8-1.2C202.9,253.7,205.6,253.8,207.6,254.8z"/>
	<path d="M209.6,265.3c3,2.1,1.2,3.1-2.4,4.1c-3.6,1.1-6.1,0.2-7.1-1.3s-0.4-3.6,2-4.8C204.5,262.9,207.8,263.7,209.6,265.3z"/>
	<path d="M215.7,259.5c2.6,2.6,1.5,3.8-0.6,4.2c-2.2,0.3-5.5-0.3-7.1-1.5c-3.3-2.2-2-3.1,0.1-3.7
		C210.2,257.8,213.5,258.2,215.7,259.5z"/>
	<path d="M215.1,274.6c6.2,4.2-0.9,4.9-4.1,5.9c0.4-2.2-2.5-1.1-4.9-0.9s-4.1-0.5-0.8-6.1C208.4,272.7,212.7,273.3,215.1,274.6z"/>
	<path d="M226.7,266.8c3.7,5-1.6,4.1-4.6,4.6c-4.6,0.5-7.5-0.8-3.5-5.2C221,265.2,224.4,265.5,226.7,266.8z"/>
	<path d="M206.4,338.1"/>
	<path d="M205.4,333.5"/>
	<path d="M201.3,328.1c-0.4-1.7,1.7-0.6,4.6,2.8"/>
	<path d="M205.5,322.1c4,0.8,5.9,4.4,9.5,6.2c-6.4,2.7-10-4.5-15.5-5.7C198.2,321.5,200.9,321,205.5,322.1z"/>
	<path d="M210.5,294.8c3-0.2,4.9,1.6,5.8,4.3c0,1.8-0.9,3.6-1.8,4.5c-5.5,3.6-11.8-1.8-14.1-6.6
		C201.6,294.7,206.1,293.8,210.5,294.8z"/>
	<path d="M216.8,285.4c1.4,0.4,5.3,1.6,5.1,2.9c-1.1,3.4-5.1,5.3-9,5.2c-3.9-0.1-7.7-2.2-7.8-6.4c1.2-1,3.2-1.7,5.3-2
		C212.5,284.8,214.8,284.9,216.8,285.4z"/>
	<path d="M230.6,281.1c0.3,1.5,2.5,3.5,2.6,4.5c-1.4,2.7-4.8,3.1-7.9,2.1c-3-1-5.8-3.6-5.1-7C222.9,279.2,227.6,279.3,230.6,281.1z"
		/>
	<path d="M229,293.8c0.3,1.5,2.5,3.5,2.6,4.5c-1.4,2.7-4.8,3.1-7.9,2.1c-3-1-5.8-3.6-5.1-7C221.4,291.9,226,292.1,229,293.8z"/>
	<path d="M239.3,277.1c2.8,1.2,3.7,3,2.8,4.8c-5.5,3.6-11.8-2.7-11-8.4C233.2,272.9,236.7,274.4,239.3,277.1z"/>
	<path d="M219.7,316.3c3.5,1.1,7.1,5.7,3.5,7.5c-2.3,0.9-3.9-0.5-5.4-2.2c-1.6-1.8-3.1-3.9-5.3-4.6
		C212.3,315,215.7,314.5,219.7,316.3z"/>
	<path d="M225.6,307.5c2.8,2.7,7.4,7.3,1.9,8.1c-2.3,0.9-4.1,0-5.7-1.5c-1.6-1.6-3.1-3.8-4.6-5.4
		C217.6,306.5,221.6,305.7,225.6,307.5z"/>
	<path d="M234.7,307.5c1.8,1.3,4.1,3.6,3.1,5.8c-2.1,2.9-3.9,2.1-5.6,0.1c-1.7-2-3.4-5-5-6.1C228,305.6,231.6,305.4,234.7,307.5z"/>
	<path d="M242.3,302.6c3.3,1,5.7,7.9,1,8c-7.3-0.4-9.6-8.3-9.6-13.7C235.6,295.9,239.5,298.3,242.3,302.6z"/>
	<path d="M245.9,296.3c1.7,2,2.6,2.9,4.4,4.8c-8.2,3.6-9.1-8.2-13.6-11.8c1.8,0,3.6,0.9,4.1,1.5C242.4,292.1,244.2,294,245.9,296.3z
		"/>
	<path d="M252.3,294.9c3.1,2.4,3.1,6,4.9,8.8c-8.2-2.7-14.6-10-13.6-18.2c1.8,0.9,2.7,1.8,3.6,3.1
		C248.7,290.2,250.6,292.4,252.3,294.9z"/>
	<path d="M259,294.8c1.5,1.8,2.4,2.7,4.2,4.6c-8.2,1.8-11.8-8.2-13.6-13.6c1.8,0.9,2.7,1.8,4.1,2.9
		C255.3,290.3,257.2,292.5,259,294.8z"/>
	<path d="M247,276.9c-0.4,2.3,1.4,3.2,3.2,5c-5.5,0.9-10.9-3.6-10.7-10.3C241.2,271.3,244.4,273.5,247,276.9z"/>
	<path d="M224.4,204.6c1,4.2,2.8,14.2-3.5,13.3c-4.5-0.9-0.9-9.1-1.8-13.7C220.6,201.2,222.9,201.8,224.4,204.6z"/>
	<path d="M250.8,261.3c-0.4,2.7,3.3,2.8,3.3,3.9c-1.8,3-4.1,2.1-6.1-0.1c-2-2-3.7-5.3-4.2-7.4C244.8,256.4,247.8,257.9,250.8,261.3z
		"/>
	<path d="M246.3,229.4c2.8,3.5,5.5,10.7,0.1,10.7c-3.6,0.9-3.6-3.6-4.6-6.5C242.3,230.5,244.5,228.6,246.3,229.4z"/>
	<path d="M332,256.5c0,0-1.6-0.9-4.7-2.7c-3-1.7-7.5-4.3-13.3-7.5c-5.7-3.2-12.7-7-20.7-11.4s-17.1-9.3-26.9-14.8
		c-9.8-5.5-20.4-11.5-31.5-18c-2.8-1.6-5.6-3.3-8.4-5c-2.8-1.7-5.7-3.4-8.6-5.2c-2.9-1.7-5.8-3.5-8.8-5.3c-1.5-0.9-3-1.8-4.5-2.7
		c-0.7-0.4-1.5-0.9-2.2-1.4l-0.3-0.2c0,0-0.2-0.1-0.1-0.1l-0.1-0.1c-0.2-0.1-0.4-0.2-0.5-0.3c-0.3-0.1-0.6-0.2-1-0.2
		c-0.7-0.1-1.4,0-2.1,0.3l-0.2,0.1c0.1,0-0.1,0-0.1,0.1l-0.1,0.1l-0.3,0.2l-0.2,0.2c-0.1,0.1-0.2,0.2-0.4,0.4
		c-0.1,0.1-0.2,0.3-0.3,0.4c-0.4,0.6-0.7,1.3-0.7,2.1s0,1.8-0.1,2.6c0,3.6-0.1,7.2-0.1,10.8s-0.1,7.3-0.1,10.9s0,7.3,0,11
		c0,7.4,0.1,14.8,0.1,22.3c0.1,7.5,0.2,15,0.3,22.5s0.2,15,0.4,22.5c0.1,7.5,0.2,14.9,0.2,22.3c0.1,7.4,0.1,14.7,0.1,21.9v2.7
		c0,0.2,0,1,0.1,1c0,0.2,0.2,0.5,0.3,0.8c0.3,0.5,0.7,0.9,1.2,1.2l0.5,0.2c0.1,0,0.2,0,0.3,0.1l0.4,0.1h0.2h0.1c0.1,0-0.1,0,0,0
		c0.2,0,0.5,0,0.6-0.1c0.1,0,0.2,0,0.3-0.1s0.3-0.1,0.4-0.1l0.2-0.1h0.1l0.1-0.1l2.3-1.3c1.5-0.9,3.1-1.8,4.6-2.7
		c6.1-3.5,12.1-7,17.9-10.4c5.9-3.4,11.6-6.7,17.2-9.9c11.2-6.4,21.8-12.4,31.6-17.8c9.9-5.4,18.9-10.3,26.9-14.7
		c8-4.4,15-8.2,20.7-11.4c2.9-1.6,5.4-3,7.6-4.3c0.5-0.3,1.1-0.6,1.6-0.9s0.8-0.7,1.2-1.1c0.6-0.8,0.9-1.8,1-2.6
		c0.1-1.7-0.7-2.9-1.3-3.5c-0.3-0.3-0.6-0.5-0.8-0.6C332.1,256.5,332,256.5,332,256.5z M332.2,256.2c0,0,0.1,0.1,0.3,0.2
		c0.2,0.1,0.5,0.3,0.8,0.7c0.3,0.3,0.7,0.8,1,1.4c0.3,0.6,0.5,1.4,0.4,2.4c0,0.9-0.3,1.9-1,2.8c-0.3,0.4-0.8,0.9-1.3,1.2
		c-0.5,0.3-1,0.6-1.6,0.9c-2.2,1.3-4.7,2.8-7.5,4.5c-5.7,3.3-12.4,7.5-20.3,12.2c-7.8,4.8-16.6,10.1-26.2,16
		c-9.6,5.8-20.1,12-31.3,18.5c-5.6,3.3-11.3,6.6-17.2,10s-11.9,6.8-18,10.3c-1.5,0.9-3.1,1.7-4.6,2.6l-2.3,1.3l-0.1,0.1l-0.2,0.1
		l-0.4,0.2c-0.3,0.1-0.6,0.2-0.9,0.3c-0.3,0.1-0.7,0.1-1,0.2c-0.3,0-0.5,0-0.7,0.1c0,0-0.4,0-0.3,0h-0.2h-0.5
		c-0.3,0-0.6-0.1-0.9-0.2c-0.3-0.1-0.7-0.2-1-0.3l-0.3-0.1l-0.1-0.1c0,0-0.2-0.1-0.3-0.1c-1.1-0.6-1.9-1.6-2.5-2.6
		c-0.1-0.3-0.3-0.5-0.4-0.8c-0.1-0.3-0.2-0.6-0.3-0.9l-0.1-0.5c0-0.2,0-0.2,0-0.4v-0.3c0-0.3,0-0.2,0-0.3v-0.2v-2.7
		c0-7.2,0.1-14.6,0.1-21.9c0.1-7.4,0.2-14.8,0.2-22.3c0.1-7.5,0.2-15,0.4-22.5c0.1-7.5,0.2-15,0.3-22.5s0.1-14.9,0.1-22.3
		c0-3.7,0-7.4,0-11c0-3.7,0-7.3-0.1-10.9c0-3.6-0.1-7.2-0.1-10.8c0-0.9,0-1.8,0-2.7c0-1,0.3-2.1,0.9-3c0.1-0.2,0.3-0.4,0.5-0.6
		c0.2-0.2,0.3-0.4,0.6-0.6l0.3-0.3l0.3-0.2l0.1-0.1c0.1,0,0,0,0.2-0.1l0.4-0.2c0.9-0.5,2-0.7,3.1-0.6c0.5,0,1,0.1,1.6,0.3
		c0.3,0.1,0.4,0.2,0.7,0.3l0.1,0.1l0.2,0.1l0.3,0.2c0.8,0.4,1.5,0.8,2.3,1.3c1.5,0.8,3,1.7,4.6,2.5c3,1.7,6,3.3,9,5
		c3,1.6,5.9,3.3,8.8,4.9c2.9,1.6,5.7,3.2,8.5,4.8c11.2,6.4,21.7,12.5,31.4,18.3s18.4,11.2,26.3,15.9c7.8,4.7,14.6,8.9,20.3,12.2
		c5.6,3.4,10.1,6,13.1,7.7C330.6,255.2,332.2,256.2,332.2,256.2z"/>
	<path d="M197.3,353.3c0,0,1.9-1.1,5.4-3.1s8.7-5,15.2-8.9c6.5-3.8,14.4-8.7,23.4-14.2c9.1-5.5,19.2-11.7,30.4-18.4
		c11.2-6.7,23.4-13.8,36.3-21.2c3.2-1.8,6.5-3.7,9.9-5.6c3.3-1.9,6.7-3.7,10.2-5.6c3.4-1.9,6.9-3.8,10.4-5.8c1.7-1,3.5-1.9,5.3-2.9
		c0.9-0.5,1.8-1,2.7-1.5l0.3-0.2c0,0,0.2-0.1,0.1-0.1l0.2-0.1c0.2-0.1,0.5-0.3,0.6-0.4c0.3-0.2,0.6-0.5,0.8-0.8
		c0.5-0.7,0.8-1.4,0.9-2.3v-0.3c0,0.1,0-0.1,0-0.1v-0.2v-0.4l-0.1-0.3c0-0.2-0.1-0.4-0.1-0.6c-0.1-0.2-0.1-0.4-0.2-0.6
		c-0.4-0.8-0.9-1.4-1.7-1.9c-0.8-0.5-1.7-1.1-2.6-1.6c-3.6-2.1-7.1-4.2-10.7-6.4c-3.6-2.1-7.2-4.3-10.9-6.4c-3.7-2.1-7.3-4.3-11-6.4
		c-7.4-4.3-14.9-8.5-22.4-12.8c-7.5-4.2-15.1-8.4-22.7-12.7c-7.6-4.2-15.2-8.4-22.7-12.6c-7.5-4.2-15-8.5-22.5-12.7
		c-7.4-4.2-14.8-8.4-22.1-12.5l-2.7-1.6c-0.1-0.1-1-0.5-1.1-0.5c-0.2-0.1-0.6-0.1-0.9-0.1c-0.7,0-1.3,0.1-1.9,0.5l-0.5,0.3
		c-0.1,0.1-0.2,0.2-0.3,0.3L192,173l-0.1,0.2l-0.1,0.1c-0.1,0.1,0-0.1,0,0c-0.1,0.2-0.3,0.5-0.3,0.6s-0.1,0.2-0.1,0.4
		s-0.1,0.3-0.1,0.5v0.2v0.1v0.2v3.1c0,2.1,0,4.1,0,6.1c0,8.1,0,16.1,0.1,24c0,7.8,0,15.5-0.1,22.9c-0.1,14.9-0.2,29-0.4,42
		c-0.3,13-0.6,24.9-0.8,35.5s-0.5,19.8-0.6,27.4c0,3.8-0.1,7.2-0.1,10.1c0,0.7,0,1.5,0,2.1c0,0.7,0.2,1.2,0.4,1.8
		c0.5,1.1,1.2,1.9,2,2.5c1.7,1.1,3.3,1,4.3,0.7c0.5-0.1,0.8-0.3,1.1-0.4C197.2,353.3,197.3,353.3,197.3,353.3z M197.5,353.6
		c0,0-0.1,0.1-0.4,0.2c-0.2,0.1-0.6,0.3-1.2,0.4c-0.5,0.1-1.2,0.2-2,0.1s-1.7-0.3-2.6-0.9c-0.9-0.6-1.7-1.5-2.3-2.7
		c-0.2-0.6-0.4-1.3-0.4-2s0-1.4,0-2.1c0-2.9-0.1-6.3-0.1-10.1c-0.1-7.6-0.3-16.8-0.6-27.4c-0.2-10.6-0.5-22.5-0.8-35.5
		s-0.4-27.1-0.4-42c0-7.5-0.1-15.1-0.1-22.9c0-7.8,0-15.8,0.1-24c0-2,0-4.1,0-6.1v-3.1v-0.2V175v-0.5c0-0.4,0.1-0.7,0.2-1
		c0.1-0.3,0.2-0.8,0.4-1.1c0.1-0.4,0.2-0.5,0.4-0.8c0,0,0.2-0.4,0.2-0.3l0.1-0.2l0.3-0.4c0.2-0.3,0.5-0.5,0.7-0.8
		c0.3-0.3,0.6-0.5,0.9-0.8l0.3-0.2l0.2-0.1c0,0,0.2-0.2,0.3-0.2c1.2-0.7,2.7-1,4.1-1c0.4,0,0.7,0,1.1,0.1c0.3,0.1,0.7,0.1,1.1,0.3
		l0.6,0.2c0.2,0.1,0.2,0.1,0.4,0.2l0.3,0.2c0.3,0.2,0.2,0.1,0.3,0.2l0.2,0.1l2.7,1.6c7.2,4.2,14.5,8.5,21.9,12.8
		c7.4,4.4,14.8,8.7,22.2,13.1c7.4,4.4,14.9,8.9,22.3,13.4c7.5,4.4,14.9,8.9,22.3,13.3c7.4,4.4,14.9,8.7,22.3,13
		c3.7,2.1,7.4,4.2,11.1,6.4c3.7,2.1,7.3,4.2,11,6.2s7.3,4.1,10.9,6.1c0.9,0.5,1.8,1,2.7,1.5c1,0.6,1.9,1.5,2.5,2.6
		c0.1,0.3,0.3,0.5,0.4,0.8s0.2,0.6,0.3,0.9l0.1,0.5v0.4v0.2c0,0.1,0,0.1,0,0.3v0.5c-0.1,1.2-0.5,2.4-1.2,3.4c-0.3,0.5-0.7,1-1.3,1.4
		c-0.3,0.3-0.4,0.3-0.7,0.5l-0.2,0.1l-0.2,0.1l-0.3,0.2c-0.9,0.5-1.7,1-2.6,1.6c-1.7,1-3.4,2.1-5.2,3.1c-3.4,2.1-6.8,4.1-10.2,6.1
		c-3.4,2-6.7,4-10,6c-3.3,1.9-6.6,3.9-9.8,5.8c-12.9,7.5-25.1,14.6-36.5,20.9s-21.9,12-31.1,17.1c-9.3,5.1-17.4,9.5-24,13.2
		s-11.8,6.7-15.3,8.7C199.4,352.5,197.5,353.6,197.5,353.6z"/>
</g>
<g>
	<path style="fill:#FFFFFF;" d="M207.5,187.6c2.9-0.8,5.8,0.6,8.2,2.6c-5.7,0.1-8.8,4.5-15.5,2.2c1.4-0.5,2-1.6,2.6-2.6
		C204.2,188.8,205.8,188,207.5,187.6z"/>
	<path style="fill:#FFFFFF;" d="M209.9,243.3c2.1,1.2,3.8,3.6,2,4.2c-4,1-9.4,0.4-7.5-3.5C205.1,242.9,207.5,242.5,209.9,243.3z"/>
	<path style="fill:#FFFFFF;" d="M226.2,268.6c2.1,1.2,3.8,3.6,2,4.2c-4,1-9.4,0.4-7.5-3.5C221.5,268.2,223.9,267.7,226.2,268.6z"/>
	<path style="fill:#FFFFFF;" d="M214,236.6c2,1.2,4.7,3.1,3.8,4.9c-0.9,2.7-7.3,1.8-8.5-2.6C209.1,237.1,211.1,236.1,214,236.6z"/>
	<path style="fill:#FFFFFF;" d="M210,227c2.1,1.7,7.6-0.1,6.7,4.5c-1.8,6.4-9.1,3.6-11.4-1.1C204.5,228.6,206.4,227.2,210,227z"/>
	<path style="fill:#FFFFFF;" d="M207.5,218.2c3.1-0.3,7-2.9,9.3,0.9c1.2,1.9,0.3,4.6-0.6,5.5c-4.2,2.4-11.5,2.4-14.3-1.7
		C201,221.1,203.3,219.1,207.5,218.2z"/>
	<path style="fill:#FFFFFF;" d="M205.8,208.7c2.2-1.7,5.7-2.3,5.4,0.1c1.6,5.8-0.5,8.3-3.4,8.8s-6.6-0.7-9.1-2.4
		C198.1,213.3,201,210.5,205.8,208.7z"/>
	<path style="fill:#FFFFFF;" d="M209.1,194.4c3.7-0.4,6.4-0.4,10-1.3c-3.6,7.3-10.9,10-19.1,10c1.8-0.9,2.7-2.7,3-4.1
		C204.6,197.3,206.7,195.6,209.1,194.4z"/>
	<path style="fill:#FFFFFF;" d="M222.3,249.7c2,1.4,2.8,4.1,0.4,5.8c-3.7,0.8-8.1-3-6.5-5.8C217.3,248.4,220,248.3,222.3,249.7z"/>
	<path style="fill:#FFFFFF;" d="M226.2,242.1c1.3,3,5,5.8,2.2,7.6c-3.6,2.7-7.3-2.7-7.8-6.7C221.1,240.9,223.6,240.3,226.2,242.1z"
		/>
	<path style="fill:#FFFFFF;" d="M226.3,229c0.4,1.3,1.5,4,1.7,6.2c0.2,2.1-0.6,3.7-3.9,2.7c-1.9-0.9-2.6-5.4-4.7-8.3
		C219.5,227,222.7,226.4,226.3,229z"/>
	<path style="fill:#FFFFFF;" d="M232.4,219.4c2.1,1.3,2.7,3.5,3.1,5.9c0.4,2.4,0.6,4.9,2,6.7c-4.1,0.5-7.3-1.1-9.8-3.6
		c-2-3.6-9.3-10-1.9-11.8C227.7,216.6,230.1,217.5,232.4,219.4z"/>
	<path style="fill:#FFFFFF;" d="M241.8,206.5c0.5,3.7,3.2,8.2,2.3,10.9c-0.9,1.4-3,2-5.1,1.8s-4.4-1.4-5.8-3.6
		c-1.8-3.6-8.2-12.7-0.2-12.6C235.6,203.2,238.9,204.3,241.8,206.5z"/>
	<path style="fill:#FFFFFF;" d="M265.8,219.5c1.8,3.4,5.5,11.6,0.2,12.5c-3.8,0.4-2.8-7.7-4.6-11.4
		C261.9,217.6,263.9,217.5,265.8,219.5z"/>
	<path style="fill:#FFFFFF;" d="M234.3,258c2.8,4.2,0.5,5.2-1.8,5.3c-6.1-1.1-6.5-3.5-4.9-6C229.1,256,232,256.3,234.3,258z"/>
	<path style="fill:#FFFFFF;" d="M235.4,242.5c0.5,2.2,4.2,4.2,1.4,6c-2.3,0.9-4.2-0.1-5.5-1.8s-2.1-4.1-2.4-6.1
		C229.9,239.3,232.8,240.1,235.4,242.5z"/>
	<path style="fill:#FFFFFF;" d="M274,280.4c-0.4,2.7,3.3,2.8,3.3,3.9c-1.8,3-4.1,2.1-6.1-0.1c-2-2-3.7-5.3-4.2-7.4
		C267.9,275.5,271,277.1,274,280.4z"/>
	<path style="fill:#FFFFFF;" d="M243.8,240.1c0,3.6,5.6,5.9,3.8,6.9c-2.7,2.5-5.1,0.8-7-2.1c-1.9-2.8-3.1-7-3.9-9.8
		C237.7,233.6,240.9,236,243.8,240.1z"/>
	<path style="fill:#FFFFFF;" d="M255.1,241c2.4,1.4,4.3,7.9-0.3,6.9c-3.2-0.5-4.4-2.6-4.9-5c-0.6-2.4-0.5-5.3-1.4-7.4
		C249.9,233.6,252.7,236.5,255.1,241z"/>
	<path style="fill:#FFFFFF;" d="M261.3,230.7c0.8,0.8,2.6,1.7,2.6,3.5c0.9,3.6-1.8,8.2-4.5,7.3c-2.7-0.5-4.1-2.7-4.6-5.5
		c-0.5-2.7-0.1-5.9,0.7-8.2C257.1,225.2,259.6,226.9,261.3,230.7z"/>
	<path style="fill:#FFFFFF;" d="M295.8,264.6c2,3.8,3.9,11.1-0.7,12c-1.8,0.9-1.8-2.7-1.9-5.4C293.3,267.7,294.3,264.6,295.8,264.6z
		"/>
	<path style="fill:#FFFFFF;" d="M300.4,251.2c2.2,2,2.9,4.3,2.6,6.6c-0.2,2.3-1.3,4.7-2.5,6.8c-0.9-1.9-3.6-3.7-2.9-6.9
		C297.6,254.1,298.9,251.2,300.4,251.2z"/>
	<path style="fill:#FFFFFF;" d="M302,239.3c-1.7,3.8,6.5,7.4,1.1,10.2c-3.6,0.9-2.7-2.7-4.3-4.7C299.1,241.8,300.6,239.4,302,239.3z
		"/>
	<path style="fill:#FFFFFF;" d="M308.8,255.4c0,2.3,1.6,4,2.5,5.8s1.3,3.6-1.3,5.7c-3.9,3-2.6-3.1-4.1-5.7
		C305.9,257.4,307.2,254.8,308.8,255.4z"/>
	<path style="fill:#FFFFFF;" d="M308.9,242.3c0.3,4.3,5.7,9.8,0.3,11.6c-0.9,0-2.7-3.6-2.9-6.3C306.4,244.4,307.6,242.1,308.9,242.3
		z"/>
	<path style="fill:#FFFFFF;" d="M251.3,213.3c3.2,3.6,6.8,9,3.2,11.7c-2.7,2.7-3.6-3.6-5.5-6.8C248.7,214.3,249.7,212,251.3,213.3z"
		/>
	<path style="fill:#FFFFFF;" d="M314.3,246.7c0.5,5.1,6.8,10.6,0.5,15.1c-0.9-3.6-3.6-6.4-2.5-9.6
		C312.1,248.3,313,245.9,314.3,246.7z"/>
	<path style="fill:#FFFFFF;" d="M318.8,248c2.3,3.4,3,7.6,4.4,11.8c-3.5-0.7-4.3-4.2-5.5-7.2C317.3,249.1,317.9,247,318.8,248z"/>
	<path style="fill:#FFFFFF;" d="M254.4,272.6c1.3,1.6,2.2,3.4,4,5.2c-7.3,1.8-8.2-8.2-12-12C247.9,265.4,251.4,268.3,254.4,272.6z"
		/>
	<path style="fill:#FFFFFF;" d="M261.2,271.2c4.6,2.1,2.7,6.7,4.6,10.3c-7.3-0.9-10-10-12.5-16.5C254.5,264.3,258,267,261.2,271.2z"
		/>
	<path style="fill:#FFFFFF;" d="M268.2,265.9c1.3,2.6,5,9,0.4,8.1c-5.5,0-6.4-6.4-7.6-11.4C262.1,261.4,265.4,263,268.2,265.9z"/>
	<path style="fill:#FFFFFF;" d="M259,251.6c3,1.4,5.7,11.4-0.7,9.6c-1.8-0.9-5.5-3.6-4.8-8.6C254.2,250.4,256.7,250.1,259,251.6z"/>
	<path style="fill:#FFFFFF;" d="M266.6,241.4c2.8,3.5,5.5,10.7,0.1,10.7c-3.6,0.9-3.6-3.6-4.6-6.5
		C262.6,242.5,264.8,240.7,266.6,241.4z"/>
	<path style="fill:#FFFFFF;" d="M275.5,224.4c2,4.3,2.9,14.3-4.3,11.6c-1.8,0-0.9-3.6-0.5-6.3C272,225.8,274.2,223.7,275.5,224.4z"
		/>
	<path style="fill:#FFFFFF;" d="M265,285.4c0.8,1.6,2.2,3.5,3.6,5.3c-1.5,2.8-4.4,1.6-7-1.1s-4.8-6.7-5.2-9.8
		C258.1,279.7,262.1,282.4,265,285.4z"/>
	<path style="fill:#FFFFFF;" d="M208.1,302.4c2.2,1,3.4,3.8,2.8,6.6c-0.6,2.7-3.1,3.5-5.8,1.3c-2.8-2.5-4.2-6.2-3-7.5
		C203.1,301.1,205.9,301.2,208.1,302.4z"/>
	<path style="fill:#FFFFFF;" d="M277.9,263.6c4.7,3.3,3.3,7.5,1.8,10c-1.8,0.6-3.7,5.7-5.9-5.3C274.4,265.5,276.2,263.5,277.9,263.6
		z"/>
	<path style="fill:#FFFFFF;" d="M272.9,253.5c0,4.8,2.1,8.9-1.4,12.9c-1.5-2.1-1-4.8-2.7-6.7C269.5,256.2,271.4,253.6,272.9,253.5z"
		/>
	<path style="fill:#FFFFFF;" d="M275,238.7c3.4,4.2,0.6,8.7-1.2,13.3c-0.9-1.8-0.9-4.5-1.9-6.1C272.1,242.3,273.6,239.1,275,238.7z"
		/>
	<path style="fill:#FFFFFF;" d="M240.3,248.9c3.4,4.2,0.6,8.7-1.2,13.3c-0.9-1.8-0.9-4.5-1.9-6.1
		C237.5,252.5,238.9,249.3,240.3,248.9z"/>
	<path style="fill:#FFFFFF;" d="M282.6,227.2c3,4.1,0.3,6.9-0.3,9.7c-0.9,0.4-2.9,4.7-3.6-4.6C279.5,229,281.3,226.9,282.6,227.2z"
		/>
	<path style="fill:#FFFFFF;" d="M278.8,248c3.6,5.1,2.7,10.5-1,15.1c-1.8-1.8,0-5.5-1.5-7C276.3,252.4,277.4,248.7,278.8,248z"/>
	<path style="fill:#FFFFFF;" d="M285.6,254.1c2,3.7,3.8,13.7-2.6,11c0,0,0-1.8,0.4-3.2C283.3,258.3,284.3,254.7,285.6,254.1z"/>
	<path style="fill:#FFFFFF;" d="M287,239.3c1.6,1.6,2.4,4.1,2.3,6.5c-0.2,2.3-1.3,4.5-3.5,5c-2.7,0.1-2.8-2.8-1.9-4.7
		C284.2,242.5,285.7,239.6,287,239.3z"/>
	<path style="fill:#FFFFFF;" d="M288.9,231.1c4.6,8.1-1.4,7.7-2.5,7.2c-3,1.6-1.3-2.3-1.4-3.1C285.7,232.8,287.5,231.1,288.9,231.1z
		"/>
	<path style="fill:#FFFFFF;" d="M204.8,232.7c4.6,8.1-1.4,7.7-2.5,7.2c-3,1.6-1.3-2.3-1.4-3.1C201.6,234.3,203.4,232.6,204.8,232.7z
		"/>
	<path style="fill:#FFFFFF;" d="M327.6,251.9c3.2,5.7-1,5.4-1.8,5c-2.1,1.1-0.9-1.6-0.9-2.2C325.4,253,326.6,251.8,327.6,251.9z"/>
	<path style="fill:#FFFFFF;" d="M285.2,268.3c3,3.6,3.9,10.9-1.5,12.7c0-1.8-0.9-2.7-0.8-5C282.9,272.4,283.9,268.9,285.2,268.3z"/>
	<path style="fill:#FFFFFF;" d="M292.6,251.8c2,1.2,3.3,4.2,3.4,6.8c0,2.6-1.1,5.1-4.2,4.9c-0.9,0.1-1-2.1-1.5-4.4
		C290.2,255.5,291.3,252.2,292.6,251.8z"/>
	<path style="fill:#FFFFFF;" d="M294.5,238.3c-0.3,2.1,0.5,4.2,0.9,6.3s0.4,4.2-1.4,6c0-2.7-3.6-3.7-3-6.7
		C291.5,240.9,293.1,238.5,294.5,238.3z"/>
	<path style="fill:#FFFFFF;" d="M207.6,249.8c2.1,3,0.4,3.9-1.9,3.6s-5.5-1.6-6.1-2.9c0,0,0.6-0.9,1.8-1.2
		C202.9,248.7,205.6,248.8,207.6,249.8z"/>
	<path style="fill:#FFFFFF;" d="M209.6,260.3c3,2.1,1.2,3.1-2.4,4.1c-3.6,1.1-6.1,0.2-7.1-1.3s-0.4-3.6,2-4.8
		C204.5,257.9,207.8,258.7,209.6,260.3z"/>
	<path style="fill:#FFFFFF;" d="M215.7,254.5c2.6,2.6,1.5,3.8-0.6,4.2c-2.2,0.3-5.5-0.3-7.1-1.5c-3.3-2.2-2-3.1,0.1-3.7
		C210.2,252.8,213.5,253.2,215.7,254.5z"/>
	<path style="fill:#FFFFFF;" d="M215.1,269.6c6.2,4.2-0.9,4.9-4.1,5.9c0.4-2.2-2.5-1.1-4.9-0.9s-4.1-0.5-0.8-6.1
		C208.4,267.7,212.7,268.3,215.1,269.6z"/>
	<path style="fill:#FFFFFF;" d="M226.7,261.8c3.7,5-1.6,4.1-4.6,4.6c-4.6,0.5-7.5-0.8-3.5-5.2C221,260.2,224.4,260.5,226.7,261.8z"
		/>
	<path style="fill:#FFFFFF;" d="M206.4,333.1"/>
	<path style="fill:#FFFFFF;" d="M205.4,328.5"/>
	<path style="fill:#FFFFFF;" d="M201.3,323.1c-0.4-1.7,1.7-0.6,4.6,2.8"/>
	<path style="fill:#FFFFFF;" d="M205.5,317.1c4,0.8,5.9,4.4,9.5,6.2c-6.4,2.7-10-4.5-15.5-5.7C198.2,316.5,200.9,316,205.5,317.1z"
		/>
	<path style="fill:#FFFFFF;" d="M210.5,289.8c3-0.2,4.9,1.6,5.8,4.3c0,1.8-0.9,3.6-1.8,4.5c-5.5,3.6-11.8-1.8-14.1-6.6
		C201.6,289.7,206.1,288.8,210.5,289.8z"/>
	<path style="fill:#FFFFFF;" d="M216.8,280.4c1.4,0.4,5.3,1.6,5.1,2.9c-1.1,3.4-5.1,5.3-9,5.2c-3.9-0.1-7.7-2.2-7.8-6.4
		c1.2-1,3.2-1.7,5.3-2C212.5,279.8,214.8,279.9,216.8,280.4z"/>
	<path style="fill:#FFFFFF;" d="M230.6,276.1c0.3,1.5,2.5,3.5,2.6,4.5c-1.4,2.7-4.8,3.1-7.9,2.1c-3-1-5.8-3.6-5.1-7
		C222.9,274.2,227.6,274.3,230.6,276.1z"/>
	<path style="fill:#FFFFFF;" d="M229,288.8c0.3,1.5,2.5,3.5,2.6,4.5c-1.4,2.7-4.8,3.1-7.9,2.1c-3-1-5.8-3.6-5.1-7
		C221.4,286.9,226,287.1,229,288.8z"/>
	<path style="fill:#FFFFFF;" d="M239.3,272.1c2.8,1.2,3.7,3,2.8,4.8c-5.5,3.6-11.8-2.7-11-8.4C233.2,267.9,236.7,269.4,239.3,272.1z
		"/>
	<path style="fill:#FFFFFF;" d="M219.7,311.3c3.5,1.1,7.1,5.7,3.5,7.5c-2.3,0.9-3.9-0.5-5.4-2.2c-1.6-1.8-3.1-3.9-5.3-4.6
		C212.3,310,215.7,309.5,219.7,311.3z"/>
	<path style="fill:#FFFFFF;" d="M225.6,302.5c2.8,2.7,7.4,7.3,1.9,8.1c-2.3,0.9-4.1,0-5.7-1.5c-1.6-1.6-3.1-3.8-4.6-5.4
		C217.6,301.5,221.6,300.7,225.6,302.5z"/>
	<path style="fill:#FFFFFF;" d="M234.7,302.5c1.8,1.3,4.1,3.6,3.1,5.8c-2.1,2.9-3.9,2.1-5.6,0.1c-1.7-2-3.4-5-5-6.1
		C228,300.6,231.6,300.4,234.7,302.5z"/>
	<path style="fill:#FFFFFF;" d="M242.3,297.6c3.3,1,5.7,7.9,1,8c-7.3-0.4-9.6-8.3-9.6-13.7C235.6,290.9,239.5,293.3,242.3,297.6z"/>
	<path style="fill:#FFFFFF;" d="M245.9,291.3c1.7,2,2.6,2.9,4.4,4.8c-8.2,3.6-9.1-8.2-13.6-11.8c1.8,0,3.6,0.9,4.1,1.5
		C242.4,287.1,244.2,289,245.9,291.3z"/>
	<path style="fill:#FFFFFF;" d="M252.3,289.9c3.1,2.4,3.1,6,4.9,8.8c-8.2-2.7-14.6-10-13.6-18.2c1.8,0.9,2.7,1.8,3.6,3.1
		C248.7,285.2,250.6,287.4,252.3,289.9z"/>
	<path style="fill:#FFFFFF;" d="M259,289.8c1.5,1.8,2.4,2.7,4.2,4.6c-8.2,1.8-11.8-8.2-13.6-13.6c1.8,0.9,2.7,1.8,4.1,2.9
		C255.3,285.3,257.2,287.5,259,289.8z"/>
	<path style="fill:#FFFFFF;" d="M247,271.9c-0.4,2.3,1.4,3.2,3.2,5c-5.5,0.9-10.9-3.6-10.7-10.3C241.2,266.3,244.4,268.5,247,271.9z
		"/>
	<path style="fill:#FFFFFF;" d="M224.4,199.6c1,4.2,2.8,14.2-3.5,13.3c-4.5-0.9-0.9-9.1-1.8-13.7
		C220.6,196.2,222.9,196.8,224.4,199.6z"/>
	<path style="fill:#FFFFFF;" d="M250.8,256.3c-0.4,2.7,3.3,2.8,3.3,3.9c-1.8,3-4.1,2.1-6.1-0.1c-2-2-3.7-5.3-4.2-7.4
		C244.8,251.4,247.8,252.9,250.8,256.3z"/>
	<path style="fill:#FFFFFF;" d="M246.3,224.4c2.8,3.5,5.5,10.7,0.1,10.7c-3.6,0.9-3.6-3.6-4.6-6.5
		C242.3,225.5,244.5,223.6,246.3,224.4z"/>
	<path style="fill:#FFFFFF;" d="M332,251.5c0,0-1.6-0.9-4.7-2.7c-3-1.7-7.5-4.3-13.3-7.5c-5.7-3.2-12.7-7-20.7-11.4
		s-17.1-9.3-26.9-14.8c-9.8-5.5-20.4-11.5-31.5-18c-2.8-1.6-5.6-3.3-8.4-5c-2.8-1.7-5.7-3.4-8.6-5.2c-2.9-1.7-5.8-3.5-8.8-5.3
		c-1.5-0.9-3-1.8-4.5-2.7c-0.7-0.4-1.5-0.9-2.2-1.4l-0.3-0.2c0,0-0.2-0.1-0.1-0.1l-0.1-0.1c-0.2-0.1-0.4-0.2-0.5-0.3
		c-0.3-0.1-0.6-0.2-1-0.2c-0.7-0.1-1.4,0-2.1,0.3l-0.2,0.1c0.1,0-0.1,0-0.1,0.1l-0.1,0.1l-0.3,0.2l-0.2,0.2
		c-0.1,0.1-0.2,0.2-0.4,0.4c-0.1,0.1-0.2,0.3-0.3,0.4c-0.4,0.6-0.7,1.3-0.7,2.1s0,1.8-0.1,2.6c0,3.6-0.1,7.2-0.1,10.8
		s-0.1,7.3-0.1,10.9s0,7.3,0,11c0,7.4,0.1,14.8,0.1,22.3c0.1,7.5,0.2,15,0.3,22.5c0.1,7.5,0.2,15,0.4,22.5
		c0.1,7.5,0.2,14.9,0.2,22.3c0.1,7.4,0.1,14.7,0.1,21.9v2.7c0,0.2,0,1,0.1,1c0,0.2,0.2,0.5,0.3,0.8c0.3,0.5,0.7,0.9,1.2,1.2l0.5,0.2
		c0.1,0,0.2,0,0.3,0.1l0.4,0.1h0.2h0.1c0.1,0-0.1,0,0,0c0.2,0,0.5,0,0.6-0.1c0.1,0,0.2,0,0.3-0.1s0.3-0.1,0.4-0.1l0.2-0.1h0.1
		l0.1-0.1l2.3-1.3c1.5-0.9,3.1-1.8,4.6-2.7c6.1-3.5,12.1-7,17.9-10.4c5.9-3.4,11.6-6.7,17.2-9.9c11.2-6.4,21.8-12.4,31.6-17.8
		c9.9-5.4,18.9-10.3,26.9-14.7c8-4.4,15-8.2,20.7-11.4c2.9-1.6,5.4-3,7.6-4.3c0.5-0.3,1.1-0.6,1.6-0.9s0.8-0.7,1.2-1.1
		c0.6-0.8,0.9-1.8,1-2.6c0.1-1.7-0.7-2.9-1.3-3.5c-0.3-0.3-0.6-0.5-0.8-0.6C332.1,251.5,332,251.5,332,251.5z M332.2,251.2
		c0,0,0.1,0.1,0.3,0.2c0.2,0.1,0.5,0.3,0.8,0.7c0.3,0.3,0.7,0.8,1,1.4c0.3,0.6,0.5,1.4,0.4,2.4c0,0.9-0.3,1.9-1,2.8
		c-0.3,0.4-0.8,0.9-1.3,1.2c-0.5,0.3-1,0.6-1.6,0.9c-2.2,1.3-4.7,2.8-7.5,4.5c-5.7,3.3-12.4,7.5-20.3,12.2
		c-7.8,4.8-16.6,10.1-26.2,16c-9.6,5.8-20.1,12-31.3,18.5c-5.6,3.3-11.3,6.6-17.2,10s-11.9,6.8-18,10.3c-1.5,0.9-3.1,1.7-4.6,2.6
		l-2.3,1.3l-0.1,0.1l-0.2,0.1l-0.4,0.2c-0.3,0.1-0.6,0.2-0.9,0.3c-0.3,0.1-0.7,0.1-1,0.2c-0.3,0-0.5,0-0.7,0.1c0,0-0.4,0-0.3,0h-0.2
		h-0.5c-0.3,0-0.6-0.1-0.9-0.2c-0.3-0.1-0.7-0.2-1-0.3l-0.3-0.1l-0.1-0.1c0,0-0.2-0.1-0.3-0.1c-1.1-0.6-1.9-1.6-2.5-2.6
		c-0.1-0.3-0.3-0.5-0.4-0.8c-0.1-0.3-0.2-0.6-0.3-0.9l-0.1-0.5c0-0.2,0-0.2,0-0.4v-0.3c0-0.3,0-0.2,0-0.3v-0.2v-2.7
		c0-7.2,0.1-14.6,0.1-21.9c0.1-7.4,0.2-14.8,0.2-22.3c0.1-7.5,0.2-15,0.4-22.5c0.1-7.5,0.2-15,0.3-22.5s0.1-14.9,0.1-22.3
		c0-3.7,0-7.4,0-11c0-3.7,0-7.3-0.1-10.9c0-3.6-0.1-7.2-0.1-10.8c0-0.9,0-1.8,0-2.7c0-1,0.3-2.1,0.9-3c0.1-0.2,0.3-0.4,0.5-0.6
		c0.2-0.2,0.3-0.4,0.6-0.6l0.3-0.3l0.3-0.2l0.1-0.1c0.1,0,0,0,0.2-0.1l0.4-0.2c0.9-0.5,2-0.7,3.1-0.6c0.5,0,1,0.1,1.6,0.3
		c0.3,0.1,0.4,0.2,0.7,0.3l0.1,0.1l0.2,0.1l0.3,0.2c0.8,0.4,1.5,0.8,2.3,1.3c1.5,0.8,3,1.7,4.6,2.5c3,1.7,6,3.3,9,5
		c3,1.6,5.9,3.3,8.8,4.9c2.9,1.6,5.7,3.2,8.5,4.8c11.2,6.4,21.7,12.5,31.4,18.3s18.4,11.2,26.3,15.9c7.8,4.7,14.6,8.9,20.3,12.2
		c5.6,3.4,10.1,6,13.1,7.7C330.6,250.2,332.2,251.2,332.2,251.2z"/>
	<path style="fill:#FFFFFF;" d="M197.3,348.3c0,0,1.9-1.1,5.4-3.1s8.7-5,15.2-8.9c6.5-3.8,14.4-8.7,23.4-14.2
		c9.1-5.5,19.2-11.7,30.4-18.4c11.2-6.7,23.4-13.8,36.3-21.2c3.2-1.8,6.5-3.7,9.9-5.6c3.3-1.9,6.7-3.7,10.2-5.6
		c3.4-1.9,6.9-3.8,10.4-5.8c1.7-1,3.5-1.9,5.3-2.9c0.9-0.5,1.8-1,2.7-1.5l0.3-0.2c0,0,0.2-0.1,0.1-0.1l0.2-0.1
		c0.2-0.1,0.5-0.3,0.6-0.4c0.3-0.2,0.6-0.5,0.8-0.8c0.5-0.7,0.8-1.4,0.9-2.3v-0.3c0,0.1,0-0.1,0-0.1v-0.2v-0.4l-0.1-0.3
		c0-0.2-0.1-0.4-0.1-0.6c-0.1-0.2-0.1-0.4-0.2-0.6c-0.4-0.8-0.9-1.4-1.7-1.9c-0.8-0.5-1.7-1.1-2.6-1.6c-3.6-2.1-7.1-4.2-10.7-6.4
		c-3.6-2.1-7.2-4.3-10.9-6.4c-3.7-2.1-7.3-4.3-11-6.4c-7.4-4.3-14.9-8.5-22.4-12.8c-7.5-4.2-15.1-8.4-22.7-12.7
		c-7.6-4.2-15.2-8.4-22.7-12.6c-7.5-4.2-15-8.5-22.5-12.7c-7.4-4.2-14.8-8.4-22.1-12.5l-2.7-1.6c-0.1-0.1-1-0.5-1.1-0.5
		c-0.2-0.1-0.6-0.1-0.9-0.1c-0.7,0-1.3,0.1-1.9,0.5l-0.5,0.3c-0.1,0.1-0.2,0.2-0.3,0.3L192,168l-0.1,0.2l-0.1,0.1
		c-0.1,0.1,0-0.1,0,0c-0.1,0.2-0.3,0.5-0.3,0.6s-0.1,0.2-0.1,0.4s-0.1,0.3-0.1,0.5v0.2v0.1v0.2v3.1c0,2.1,0,4.1,0,6.1
		c0,8.1,0,16.1,0.1,24c0,7.8,0,15.5-0.1,22.9c-0.1,14.9-0.2,29-0.4,42c-0.3,13-0.6,24.9-0.8,35.5s-0.5,19.8-0.6,27.4
		c0,3.8-0.1,7.2-0.1,10.1c0,0.7,0,1.5,0,2.1c0,0.7,0.2,1.2,0.4,1.8c0.5,1.1,1.2,1.9,2,2.5c1.7,1.1,3.3,1,4.3,0.7
		c0.5-0.1,0.8-0.3,1.1-0.4C197.2,348.3,197.3,348.3,197.3,348.3z M197.5,348.6c0,0-0.1,0.1-0.4,0.2c-0.2,0.1-0.6,0.3-1.2,0.4
		c-0.5,0.1-1.2,0.2-2,0.1s-1.7-0.3-2.6-0.9c-0.9-0.6-1.7-1.5-2.3-2.7c-0.2-0.6-0.4-1.3-0.4-2s0-1.4,0-2.1c0-2.9-0.1-6.3-0.1-10.1
		c-0.1-7.6-0.3-16.8-0.6-27.4c-0.2-10.6-0.5-22.5-0.8-35.5s-0.4-27.1-0.4-42c0-7.5-0.1-15.1-0.1-22.9c0-7.8,0-15.8,0.1-24
		c0-2,0-4.1,0-6.1v-3.1v-0.2V170v-0.5c0-0.4,0.1-0.7,0.2-1c0.1-0.3,0.2-0.8,0.4-1.1c0.1-0.4,0.2-0.5,0.4-0.8c0,0,0.2-0.4,0.2-0.3
		l0.1-0.2l0.3-0.4c0.2-0.3,0.5-0.5,0.7-0.8c0.3-0.3,0.6-0.5,0.9-0.8l0.3-0.2l0.2-0.1c0,0,0.2-0.2,0.3-0.2c1.2-0.7,2.7-1,4.1-1
		c0.4,0,0.7,0,1.1,0.1c0.3,0.1,0.7,0.1,1.1,0.3l0.6,0.2c0.2,0.1,0.2,0.1,0.4,0.2l0.3,0.2c0.3,0.2,0.2,0.1,0.3,0.2l0.2,0.1l2.7,1.6
		c7.2,4.2,14.5,8.5,21.9,12.8c7.4,4.4,14.8,8.7,22.2,13.1c7.4,4.4,14.9,8.9,22.3,13.4c7.5,4.4,14.9,8.9,22.3,13.3
		c7.4,4.4,14.9,8.7,22.3,13c3.7,2.1,7.4,4.2,11.1,6.4c3.7,2.1,7.3,4.2,11,6.2s7.3,4.1,10.9,6.1c0.9,0.5,1.8,1,2.7,1.5
		c1,0.6,1.9,1.5,2.5,2.6c0.1,0.3,0.3,0.5,0.4,0.8s0.2,0.6,0.3,0.9l0.1,0.5v0.4v0.2c0,0.1,0,0.1,0,0.3v0.5c-0.1,1.2-0.5,2.4-1.2,3.4
		c-0.3,0.5-0.7,1-1.3,1.4c-0.3,0.3-0.4,0.3-0.7,0.5l-0.2,0.1l-0.2,0.1l-0.3,0.2c-0.9,0.5-1.7,1-2.6,1.6c-1.7,1-3.4,2.1-5.2,3.1
		c-3.4,2.1-6.8,4.1-10.2,6.1c-3.4,2-6.7,4-10,6c-3.3,1.9-6.6,3.9-9.8,5.8c-12.9,7.5-25.1,14.6-36.5,20.9s-21.9,12-31.1,17.1
		c-9.3,5.1-17.4,9.5-24,13.2s-11.8,6.7-15.3,8.7C199.4,347.5,197.5,348.6,197.5,348.6z"/>
</g>
</svg>
