<?xml version="1.0" encoding="utf-8"?>
<!-- Generator: Adobe Illustrator 18.0.0, SVG Export Plug-In . SVG Version: 6.00 Build 0)  -->
<!DOCTYPE svg PUBLIC "-//W3C//DTD SVG 1.1//EN" "http://www.w3.org/Graphics/SVG/1.1/DTD/svg11.dtd">
<svg version="1.1" id="Layer_1" xmlns="http://www.w3.org/2000/svg" xmlns:xlink="http://www.w3.org/1999/xlink" x="0px" y="0px"
	 viewBox="0 0 512 512" enable-background="new 0 0 512 512" xml:space="preserve">
<path opacity="0.4" d="M486,288.6v-55.2L434.2,215c-4.4-16.9-11.1-32.8-19.7-47.4l0.1-0.1l23.6-49.7l-39-39l-49.7,23.6l-0.1,0.1
	c-14.6-8.7-30.5-15.4-47.4-19.7L283.6,31h-55.2L210,82.8c-16.9,4.4-32.8,11.1-47.4,19.7l-0.1-0.1l-49.7-23.6l-39,39l23.6,49.7
	l0.1,0.1c-8.7,14.6-15.4,30.5-19.7,47.4L26,233.4v55.2L77.8,307c4.4,16.9,11.1,32.8,19.7,47.4l-0.1,0.1l-23.6,49.7l39,39l49.7-23.6
	l0.1-0.1c14.6,8.7,30.5,15.4,47.4,19.7l18.4,51.8h55.2l18.4-51.8c16.9-4.4,32.8-11.1,47.4-19.7l0.1,0.1l49.7,23.6l39-39l-23.6-49.7
	l-0.1-0.1c8.7-14.6,15.4-30.5,19.7-47.4L486,288.6z M301.1,339.1c3.3-1.9,6.9-2.8,10.4-2.9c7.8-0.2,15.5,3.8,19.7,11
	c6.1,10.5,2.5,24-8.1,30.1c-10.5,6.1-24,2.5-30.1-8.1C286.9,358.6,290.5,345.2,301.1,339.1z M323,329.2c-8.4-3.2-18.1-2.7-26.4,2.1
	c-8.4,4.8-13.6,13-15.1,21.8c-8.1,2.3-16.7,3.5-25.6,3.5c-15.2,0-29.6-3.6-42.4-9.9l15.3-27.4c8.2,3.8,17.4,6,27.1,6
	c33.6,0,61.2-25.8,64.1-58.6l31.4,0.5C349.9,291.4,339.3,313.2,323,329.2z M296.6,190.6c8.4,4.8,18,5.3,26.4,2.1
	c16.3,16,26.9,37.8,28.4,62.1l-31.4,0.5c-2.9-32.9-30.5-58.6-64.1-58.6c-9.7,0-18.9,2.2-27.1,6l-15.3-27.4
	c12.8-6.3,27.2-9.9,42.4-9.9c8.9,0,17.4,1.2,25.6,3.5C283,177.7,288.3,185.8,296.6,190.6z M293,152.8c4-6.9,11.2-10.8,18.6-11
	c3.9-0.1,7.9,0.9,11.5,3c10.5,6.1,14.1,19.5,8.1,30.1c-6.1,10.5-19.6,14.1-30.1,8.1C290.5,176.8,286.9,163.4,293,152.8z M174.8,261
	c0-9.7-4.4-18.3-11.4-24c6-23.1,20.3-42.7,39.6-55.6l16.1,27c-16.5,11.6-27.4,30.9-27.4,52.6c0,21.8,10.8,41,27.4,52.6l-16.1,27
	c-19.3-12.9-33.6-32.6-39.6-55.6C170.3,279.3,174.8,270.7,174.8,261z M143.8,283c-12.2,0-22-9.9-22-22c0-12.2,9.9-22,22-22
	c12.2,0,22,9.8,22,22C165.8,273.2,156,283,143.8,283z"/>
<linearGradient id="SVGID_1_" gradientUnits="userSpaceOnUse" x1="25.9987" y1="256" x2="486.0013" y2="256">
	<stop  offset="0" style="stop-color:#F2521A"/>
	<stop  offset="1" style="stop-color:#F3612D"/>
</linearGradient>
<path fill="url(#SVGID_1_)" d="M486,283.6v-55.2L434.2,210c-4.4-16.9-11.1-32.8-19.7-47.4l0.1-0.1l23.6-49.7l-39-39l-49.7,23.6
	l-0.1,0.1c-14.6-8.7-30.5-15.4-47.4-19.7L283.6,26h-55.2L210,77.8c-16.9,4.4-32.8,11.1-47.4,19.7l-0.1-0.1l-49.7-23.6l-39,39
	l23.6,49.7l0.1,0.1c-8.7,14.6-15.4,30.5-19.7,47.4L26,228.4v55.2L77.8,302c4.4,16.9,11.1,32.8,19.7,47.4l-0.1,0.1l-23.6,49.7l39,39
	l49.7-23.6l0.1-0.1c14.6,8.7,30.5,15.4,47.4,19.7l18.4,51.8h55.2l18.4-51.8c16.9-4.4,32.8-11.1,47.4-19.7l0.1,0.1l49.7,23.6l39-39
	l-23.6-49.7l-0.1-0.1c8.7-14.6,15.4-30.5,19.7-47.4L486,283.6z M301.1,334.1c3.3-1.9,6.9-2.8,10.4-2.9c7.8-0.2,15.5,3.8,19.7,11
	c6.1,10.5,2.5,24-8.1,30.1c-10.5,6.1-24,2.5-30.1-8.1C286.9,353.6,290.5,340.2,301.1,334.1z M323,324.2c-8.4-3.2-18.1-2.7-26.4,2.1
	c-8.4,4.8-13.6,13-15.1,21.8c-8.1,2.3-16.7,3.5-25.6,3.5c-15.2,0-29.6-3.6-42.4-9.9l15.3-27.4c8.2,3.8,17.4,6,27.1,6
	c33.6,0,61.2-25.8,64.1-58.6l31.4,0.5C349.9,286.4,339.3,308.2,323,324.2z M296.6,185.6c8.4,4.8,18,5.3,26.4,2.1
	c16.3,16,26.9,37.8,28.4,62.1l-31.4,0.5c-2.9-32.9-30.5-58.6-64.1-58.6c-9.7,0-18.9,2.2-27.1,6l-15.3-27.4
	c12.8-6.3,27.2-9.9,42.4-9.9c8.9,0,17.4,1.2,25.6,3.5C283,172.7,288.3,180.8,296.6,185.6z M293,147.8c4-6.9,11.2-10.8,18.6-11
	c3.9-0.1,7.9,0.9,11.5,3c10.5,6.1,14.1,19.5,8.1,30.1c-6.1,10.5-19.6,14.1-30.1,8.1C290.5,171.8,286.9,158.4,293,147.8z M174.8,256
	c0-9.7-4.4-18.3-11.4-24c6-23.1,20.3-42.7,39.6-55.6l16.1,27c-16.5,11.6-27.4,30.9-27.4,52.6c0,21.8,10.8,41,27.4,52.6l-16.1,27
	c-19.3-12.9-33.6-32.6-39.6-55.6C170.3,274.3,174.8,265.7,174.8,256z M143.8,278c-12.2,0-22-9.9-22-22c0-12.2,9.9-22,22-22
	c12.2,0,22,9.8,22,22C165.8,268.2,156,278,143.8,278z"/>
</svg>
