<?xml version="1.0" encoding="utf-8"?>
<!-- Generator: Adobe Illustrator 22.0.1, SVG Export Plug-In . SVG Version: 6.00 Build 0)  -->
<svg version="1.1"
	 id="Layer_1" inkscape:version="0.92.3 (2405546, 2018-03-11)" sodipodi:docname="drive-harddisk-system-symbolic.svg" xmlns:cc="http://creativecommons.org/ns#" xmlns:dc="http://purl.org/dc/elements/1.1/" xmlns:inkscape="http://www.inkscape.org/namespaces/inkscape" xmlns:rdf="http://www.w3.org/1999/02/22-rdf-syntax-ns#" xmlns:sodipodi="http://sodipodi.sourceforge.net/DTD/sodipodi-0.dtd" xmlns:svg="http://www.w3.org/2000/svg"
	 xmlns="http://www.w3.org/2000/svg" xmlns:xlink="http://www.w3.org/1999/xlink" x="0px" y="0px" viewBox="0 0 512 512"
	 enable-background="new 0 0 512 512" xml:space="preserve">
<g>
	<path fill="#FF7300" d="M295.643,177.961c1.296,1.229,3.086,1.051,3.964-0.689c0.81-1.605,0.867-3.364-1.036-4.45
		c-2.782-1.587-5.643-3.051-9.01-4.858c-0.048,0.841-0.618,2.293-0.084,3.017C291.305,173.463,293.383,175.819,295.643,177.961z"/>
	<path fill="#FF7300" d="M196.957,215.434c-1.516,2.653-2.97,5.196-4.392,7.682C195.67,222.895,198.284,218.663,196.957,215.434z"/>
	<path fill="#FF7300" d="M277.321,108.719c0.9-0.358,1.832-0.644,3.37-1.179c-2.274-1.717-3.874-3.072-5.628-4.214
		c-2.281-1.484-3.502-0.742-3.854,1.927c-0.189,1.432-0.878,2.801-1.289,4.212c-0.18,0.617-0.229,1.268-0.338,1.904
		c0.747-0.129,1.539-0.15,2.231-0.409C273.669,110.266,275.478,109.453,277.321,108.719z"/>
	<path fill="#FF7300" d="M228.953,342.181c2.912-1.836,3.564-2.864,3.624-5.279c0.11-4.438-1.976-8.047-4.802-11.386
		c-1.538-1.817-1.15-3.241,1.243-3.561c1.181-0.158,2.581,0.563,3.763,1.114c2.827,1.318,5.43,3.285,8.397,4.071
		c8.579,2.273,17.177,1.084,25.654-0.893c8.681-2.025,16.197-5.725,20.861-13.399c0.504-0.829,1.286-1.55,2.071-2.174
		c1.405-1.118,2.651-0.953,3.219,0.813c0.352,1.093,0.709,2.301,0.564,3.399c-0.556,4.206-1.183,8.412-2.044,12.569
		c-0.592,2.861-1.844,5.603-2.378,8.469c-0.488,2.62,0.321,3.286,3.435,3.728c0.817-3.892,1.604-7.803,2.464-11.699
		c1.719-7.785,2.785-15.562,1.417-23.551c-0.855-4.992-1.686-10.096-1.498-15.115c0.342-9.1,3.437-13.672,11.518-13.846
		c1.468-5.972,5.089-8.815,11.665-9.275c5.103-0.357,9.972,0.438,14.739,2.403c-1.153-1.252-2.411-2.28-3.795-3.123
		c-1.398-0.851-2.92-1.52-4.352-2.25c7.68-21.871-6.132-49.719-16.214-55.714c-0.04,0.073-0.136,0.177-0.112,0.214
		c0.434,0.681,0.871,1.359,1.329,2.026c7.195,10.485,12.523,21.676,14.171,34.199c0.714,5.426,0.602,10.853-1.377,16.086
		c-1.465,3.876-5.422,6.09-9.546,5.475c-3.407-0.508-4.856-2.526-5.162-7.213c-0.041-0.622-0.044-1.247-0.053-1.871
		c-0.136-9.812-0.796-19.562-3.992-28.996c-1.981-5.848-3.894-11.713-8.519-16.359c-0.966-0.971-1.796-2.286-2.12-3.571
		c-2.332-9.248-5.688-18.015-11.933-25.657c-3.344-4.092-4.27-8.82-2.878-13.894c0.471-1.717,0.892-3.448,1.255-5.188
		c0.704-3.381-0.364-5.105-3.791-6.411c-4.864-1.854-9.653-3.907-14.594-5.549c-2.213-0.736-3.064-2.079-3.105-3.909
		c-0.051-2.292,0.025-4.661,0.59-6.872c0.714-2.791,2.411-5.042,5.821-5.435c3.647-0.42,6.517,0.755,8.262,3.872
		c1.844,3.294,2.286,6.669,0.684,10.263c-0.393,0.881-0.188,2.657,0.479,3.18c2.015,1.578,5.895-0.062,6.065-2.586
		c0.346-5.131,0.627-10.281-1.634-15.212c-2.596-5.664-8.128-9.248-13.292-8.405c-8.138,1.329-12.542,5.753-12.772,12.948
		c-0.096,3.005-0.016,6.015-0.016,8.362c-2.819-0.177-6.112-0.513-9.408-0.544c-2.08-0.019-2.768-0.498-3.051-2.653
		c-0.538-4.086-1.436-8.196-2.825-12.092c-0.993-2.784-3.488-4.649-6.942-4.603c-3.399,0.045-5.232,2.237-6.591,4.752
		c-3.479,6.443-2.912,12.899,0.385,19.229c0.446,0.857,1.668,2.118,2.229,1.992c1.058-0.238,1.897-1.349,2.985-2.225
		c-4.574-2.356-6.392-6.754-5.123-11.378c0.943-3.435,3.89-5.134,7.505-4.326c3.721,0.831,6.9,10.226,4.116,12.675
		c-3.476,3.057-7.294,5.762-10.876,8.715c-1.173,0.968-2.279,2.124-3.039,3.395c-0.967,1.617-0.771,3.105,1.124,4.357
		c1.829,1.209,3.577,2.656,4.97,4.296c2.317,2.727,5.219,3.808,8.804,4.047c8.892,0.594,17.072-2.187,25.322-4.591
		c3.58-1.043,7.111-2.27,9.455-5.45c0.4-0.542,2.088-0.235,3.181-0.32c-0.056,1.049,0.086,2.161-0.248,3.124
		c-0.179,0.516-1.136,0.879-1.816,1.138c-6.357,2.421-12.778,4.698-19.086,7.228c-6.144,2.465-12.454,3.317-19.046,2.515
		c-1.107-0.135-2.217-0.242-3.839-0.417c3.286,4.253,6.871,6.835,11.994,6.32c3.233-0.325,6.625-0.688,9.561-1.881
		c5.597-2.275,10.891-5.208,16.37-7.754c1.518-0.706,3.593-1.882,4.738,0.147c1.267,2.244-1.32,2.752-2.688,3.581
		c-6.558,3.974-13.163,7.879-19.765,11.788c-1.99,1.178-3.949,2.434-6.053,3.399c-4.192,1.923-7.675,1.482-10.75-1.775
		c-3.059-3.241-5.67-6.859-8.499-10.296c-0.632-0.767-1.354-1.467-2.035-2.198c-0.229,0.063-0.458,0.126-0.687,0.188
		c0.11,5.319-2.063,9.895-4.75,14.326c-1.356,2.236-2.626,4.529-3.773,6.867c-2.4,4.893-3.062,9.87-0.487,14.721
		c-2.005,2.514-4.22,4.569-5.512,7.053c-3.391,6.52-6.571,13.153-9.463,19.883c-2.068,4.812-2.701,9.956-2.456,15.19
		c0.141,3.023,0.259,6.093-0.153,9.075c-0.256,1.856-1.106,4.702-2.42,5.139c-2.567,0.853-3.971-1.805-5.144-3.675
		c-3.724-5.94-4.213-12.42-3.244-19.101c0.136-0.936,0.214-1.88,0.319-2.82c-3.099,3.789-3.408,8.094-2.811,12.436
		c0.739,5.378,1.634,10.858,5.854,14.962c3.405,3.312,7.076,6.404,10.832,9.364c8.249,6.502,16.632,12.852,24.948,19.278
		c3.282,2.536,4.561,5.78,3.666,9.731c-0.836,3.69-3.326,5.848-7.1,6.816c-0.573,0.147-1.117,0.398-2.022,0.727
		C224.697,324.82,230.276,332.146,228.953,342.181z"/>
	<path fill="#FF7300" d="M267.074,137.225c-0.025,0.18-0.051,0.361-0.076,0.541c1.223,1.734,2.447,3.469,3.868,5.484
		c1.433-1.733,0.56-3.154-0.565-4.255C269.47,138.18,268.167,137.799,267.074,137.225z"/>
	<path fill="#FF7300" d="M420.846,26H91.154C55.059,26,26,55.059,26,91.154v329.691C26,456.941,55.059,486,91.154,486h329.691
		C456.941,486,486,456.941,486,420.846V91.154C486,55.059,456.941,26,420.846,26z M134.925,329.785
		c0.588-2.045,1.389-4.065,2.358-5.976c2.231-4.403,2.302-8.86,1.071-13.519c-0.885-3.348-1.675-6.76-2.004-10.186
		c-0.336-3.51,1.516-5.514,5.242-6.108c3.145-0.502,6.352-0.648,9.526-1.003c8.232-0.922,13.091-5.414,14.218-13.103
		c3.016,7.799-1.798,15.447-10.685,16.704c-2.766,0.391-5.625,0.432-8.426,0.311c-5.812-0.251-7.993,2.027-6.349,7.246
		c0.772,2.45,2.054,4.763,3.184,7.104c2.003,4.152,2.003,8.246-0.183,12.336c-0.806,1.508-1.606,3.022-2.312,4.572
		c-2.115,4.641-1.054,7.069,4.137,8.389c4.986,1.268,10.132,1.965,15.142,3.158c12.382,2.95,24.722,6.059,37.089,9.067
		c4.476,1.089,8.941,1.888,13.639,0.907c8.908-1.86,13.466-7.87,11.338-16.302c-1.229-4.867-2.776-9.965-5.576-14.118
		c-8.641-12.817-17.817-25.32-27.107-37.73c-2.169-2.897-5.45-5.144-8.512-7.322c-3.078-2.189-6.574-2.508-10.014-0.404
		c-2.335,1.429-2.962-0.292-3.106-1.795c-0.486-5.075-0.965-10.377,1.923-14.878c6.894-10.749,10.712-22.681,15.324-34.297
		c3.619-9.117,10.13-16.329,16.056-24.014c4.97-6.446,9.273-13.362,13.661-20.19c0.851-1.325,1.077-3.218,1.012-4.828
		c-0.673-16.722-1.835-33.434-2.111-50.16c-0.235-14.186,5.836-25.505,19.383-32.693c4.918-2.609,10.222-3.633,15.686-3.837
		c9.917-0.37,19.549,1.125,28.443,5.468c11.663,5.694,17.652,15.642,21.677,26.876c2.005,5.597,2.52,11.383,2.462,17.335
		c-0.235,23.962,6.872,45.382,24.881,63.005c10.085,9.869,15.94,22.131,20.72,34.861c4.013,10.688,7.176,21.58,6.263,33.102
		c-0.194,2.449-0.675,4.987-1.663,7.233c-0.68,1.547-2.426,2.694-3.76,3.959c-1.176,1.117-2.551,2.059-3.64,3.243
		c-1.604,1.744-2.963,3.687-4.546,5.45c-4.738,5.274-10.869,7.154-17.986,6.23c-4.29-0.556-7.433-2.753-9.406-6.469
		c-1.22-2.298-2.411-4.66-4.016-6.714c-2.641-3.38-5.575-3.026-7.563,0.764c-2.89,5.511-2.618,11.38-0.908,16.967
		c3.217,10.509,2.179,20.943,0.687,31.479c-0.371,2.619-0.554,5.388-0.079,7.966c1.764,9.566,9.903,14.073,19.725,10.85
		c3.039-0.997,6.101-2.56,8.501-4.562c8.904-7.429,18.927-12.743,30.273-16.058c3.996-1.167,7.899-2.927,11.481-4.982
		c5.432-3.117,5.238-6.776-0.249-9.927c-1.916-1.1-3.968-2.104-6.096-2.736c-7.975-2.367-11.082-8.063-11.841-15.291
		c-0.605-5.758-0.06-7.95,1.857-10.336c0.81,3.525,1.404,7.046,2.447,10.443c1.68,5.469,5.435,9.404,10.658,12.25
		c2.831,1.542,5.636,3.269,8.036,5.343c3.361,2.905,3.596,6.705,0.218,9.612c-3.501,3.013-7.395,5.925-11.652,7.79
		c-13.794,6.046-26.26,13.77-37.512,23.461c-2.323,2.001-6.312,2.798-9.639,3.095c-3.952,0.354-8.065-0.165-12.02-0.797
		c-4.16-0.664-7.5-2.936-9.502-6.519c-2.67-4.778-6.954-6.414-12.367-6.333c-14.028,0.211-28.06,0.268-42.085,0.589
		c-6.574,0.151-12.382,2.625-17.718,6.209c-4.044,2.717-7.907,6.067-13.194,6.168c-3.319,0.063-6.787-0.265-9.959-1.153
		c-9.719-2.721-19.23-6.131-29.006-8.631c-8.052-2.06-16.377-3.155-24.555-4.791c-2.096-0.419-4.177-1.099-6.124-1.949
		C135.186,337.614,133.601,334.386,134.925,329.785z M422.508,463.186c-0.844-0.005-1.688-0.047-2.529-0.125H91.996
		c-0.832,0.077-1.668,0.119-2.504,0.125c-16.175,0-29.289-13.112-29.289-29.287c0-16.176,13.113-29.29,29.289-29.289
		c0.846,0.006,1.691,0.048,2.533,0.127h327.979c0.832-0.078,1.668-0.12,2.504-0.127c16.176-0.001,29.29,13.113,29.289,29.289
		C451.796,450.074,438.683,463.186,422.508,463.186z"/>
	<path fill="#FF7300" d="M232.746,145.311c0.347-0.172,0.693-0.344,1.04-0.515c-0.627-1.925-1.191-3.873-1.939-5.755
		c-0.127-0.319-1.035-0.399-1.6-0.483c-0.082-0.012-0.399,0.836-0.38,0.845c2.496,1.147,1.525,3.411,1.952,5.224
		C231.885,144.905,232.425,145.085,232.746,145.311z"/>
	<path fill="#FF7300" d="M417.663,420.142H223.539c-7.654,0-13.755,6.212-13.755,13.755c0,7.654,6.212,13.755,13.755,13.755h194.013
		c7.654,0,13.755-6.212,13.755-13.755C431.418,426.243,425.206,420.142,417.663,420.142z"/>
</g>
</svg>
