<?xml version="1.0" encoding="utf-8"?>
<!-- Generator: Adobe Illustrator 22.0.1, SVG Export Plug-In . SVG Version: 6.00 Build 0)  -->
<svg version="1.1" id="Layer_1" xmlns="http://www.w3.org/2000/svg" xmlns:xlink="http://www.w3.org/1999/xlink" x="0px" y="0px"
	 viewBox="0 0 512 512" enable-background="new 0 0 512 512" xml:space="preserve">
<g>
	<path fill="#E39D69" d="M303.425,104.688l-22.792-39.476l-15.746-27.273c-3.95-6.842-13.825-6.842-17.775,0l-15.746,27.273
		l-22.792,39.476C126.459,125.759,65.767,200.271,65.767,288.96c0,105.063,85.17,190.233,190.233,190.233
		s190.233-85.17,190.233-190.233C446.233,200.271,385.541,125.759,303.425,104.688z"/>
	<g>
		<path fill="#EAB283" d="M256,452.531c-90.338,0-163.571-73.233-163.571-163.571S165.662,125.389,256,125.389
			S346.338,452.531,256,452.531z"/>
		<path fill="#F1C89C" d="M256,425.869c-75.613,0-136.909-61.296-136.909-136.909S180.387,152.051,256,152.051
			S331.613,425.869,256,425.869z"/>
		<path fill="#F8DDB6" d="M256,399.208c-60.888,0-110.248-49.36-110.248-110.248S195.112,178.712,256,178.712
			S316.888,399.208,256,399.208z"/>
		<path fill="#FFF2CF" d="M256,372.546c-46.163,0-83.586-37.423-83.586-83.586s37.423-83.586,83.586-83.586
			S302.163,372.546,256,372.546z"/>
	</g>
</g>
</svg>
