<?xml version="1.0" encoding="utf-8"?>
<!-- Generator: Adobe Illustrator 18.0.0, SVG Export Plug-In . SVG Version: 6.00 Build 0)  -->
<!DOCTYPE svg PUBLIC "-//W3C//DTD SVG 1.1//EN" "http://www.w3.org/Graphics/SVG/1.1/DTD/svg11.dtd">
<svg version="1.1" id="Layer_1" xmlns="http://www.w3.org/2000/svg" xmlns:xlink="http://www.w3.org/1999/xlink" x="0px" y="0px"
	 viewBox="0 0 512 512" style="enable-background:new 0 0 512 512;" xml:space="preserve">
<circle style="fill:#FF7B03;" cx="256" cy="256" r="230"/>
<g>
	<path style="fill:#FFFFFF;" d="M310.6,76.4l-11.1-25.9c-14.2-3-28.7-4.5-43.5-4.5c-14.8,0-29.3,1.5-43.5,4.5l-93,217L310.6,76.4z"
		/>
	<path style="fill:#FFFFFF;" d="M334.3,131.9l-247.9,248c6.4,8.7,13.4,16.9,21.1,24.6c19.3,19.3,41.8,34.4,66.8,45
		c7,2.9,14.1,5.5,21.2,7.7l194.9-194.8L334.3,131.9z"/>
	<path style="fill:#FFFFFF;" d="M266.3,465.8c24.7-1.2,48.7-6.6,71.4-16.2c25-10.6,47.5-25.7,66.8-45c11.7-11.7,21.8-24.5,30.3-38.3
		l-20.7-48.2L266.3,465.8z"/>
</g>
</svg>
