<?xml version="1.0" encoding="UTF-8" standalone="no"?>
<!-- Generator: Adobe Illustrator 18.0.0, SVG Export Plug-In . SVG Version: 6.00 Build 0)  -->

<svg
   xmlns:dc="http://purl.org/dc/elements/1.1/"
   xmlns:cc="http://creativecommons.org/ns#"
   xmlns:rdf="http://www.w3.org/1999/02/22-rdf-syntax-ns#"
   xmlns:svg="http://www.w3.org/2000/svg"
   xmlns="http://www.w3.org/2000/svg"
   xmlns:sodipodi="http://sodipodi.sourceforge.net/DTD/sodipodi-0.dtd"
   xmlns:inkscape="http://www.inkscape.org/namespaces/inkscape"
   version="1.1"
   id="Layer_1"
   x="0px"
   y="0px"
   viewBox="0 0 512 512"
   style="enable-background:new 0 0 512 512;"
   xml:space="preserve"
   sodipodi:docname="firefox.svg"
   inkscape:version="0.92.3 (2405546, 2018-03-11)"><metadata
   id="metadata91"><rdf:RDF><cc:Work
       rdf:about=""><dc:format>image/svg+xml</dc:format><dc:type
         rdf:resource="http://purl.org/dc/dcmitype/StillImage" /></cc:Work></rdf:RDF></metadata><defs
   id="defs89" /><sodipodi:namedview
   pagecolor="#ffffff"
   bordercolor="#666666"
   borderopacity="1"
   objecttolerance="10"
   gridtolerance="10"
   guidetolerance="10"
   inkscape:pageopacity="0"
   inkscape:pageshadow="2"
   inkscape:window-width="1920"
   inkscape:window-height="1003"
   id="namedview87"
   showgrid="false"
   inkscape:zoom="0.78222656"
   inkscape:cx="-181.50718"
   inkscape:cy="256"
   inkscape:window-x="0"
   inkscape:window-y="0"
   inkscape:window-maximized="1"
   inkscape:current-layer="Layer_1" />
<g
   id="g84"
   transform="matrix(-0.99971766,0,0,-0.99971766,512.08559,511.95299)">
	
		<radialGradient
   id="SVGID_1_"
   cx="312.22101"
   cy="767.72693"
   r="220.9827"
   gradientTransform="translate(-50,-651)"
   gradientUnits="userSpaceOnUse">
		<stop
   offset="0"
   style="stop-color:#0098c0;stop-opacity:1"
   id="stop2" />
		<stop
   offset="1"
   style="stop-color:#000d26;stop-opacity:1"
   id="stop4" />
	</radialGradient>
	<circle
   style="fill:url(#SVGID_1_)"
   cx="256"
   cy="252.8"
   r="221"
   id="circle7" />
	<g
   id="g82">
		<path
   style="fill:#656465"
   d="m 284.6,163.7 c -0.4,2.9 -4.8,10.8 -9.7,10.5 -22.7,-1 -10.1,-17.2 -4.6,-19.5 0,0 3.2,-0.7 8.1,-0.7 4.9,0.1 7,3.9 6.2,9.7 z"
   id="path9"
   inkscape:connector-curvature="0" />
		<path
   style="fill:#f15d22"
   d="m 272.2,154.4 c 2.9,3 7.4,10.8 -1,18.9 -13.3,12.8 -58.8,15 -68.6,15 -14.8,0 -26.7,-12.7 -26.7,-23.3 0,-10.6 18.1,-34.4 26.1,-21.9 11.9,18.7 70.2,11.3 70.2,11.3 z"
   id="path11"
   inkscape:connector-curvature="0" />
		
			<linearGradient
   id="SVGID_2_"
   gradientUnits="userSpaceOnUse"
   x1="444.79929"
   y1="1398.8683"
   x2="471.66141"
   y2="1254.2491"
   gradientTransform="translate(-150,-930)">
			<stop
   offset="0"
   style="stop-color:#F26522"
   id="stop13" />
			<stop
   offset="1"
   style="stop-color:#FEBD18"
   id="stop15" />
		</linearGradient>
		<path
   style="fill:url(#SVGID_2_)"
   d="m 415.6,164.7 c 3.9,11.7 51.1,174.5 -25.8,262.2 -16,18.2 -110.7,29.4 -128.3,18.2 -19.4,-12.4 -73.3,-110.5 -48.3,-98.3 13,6.3 30.2,24.1 84.1,15.9 98.1,-14.9 107.8,-135.1 77.8,-200.9 -20.9,-45.7 -52.7,-54.9 -51.9,-55.1 15.4,-4.1 76,8.7 92.4,58 z"
   id="path18"
   inkscape:connector-curvature="0" />
		
			<linearGradient
   id="SVGID_3_"
   gradientUnits="userSpaceOnUse"
   x1="181.32719"
   y1="1303.5587"
   x2="197.6803"
   y2="1177.058"
   gradientTransform="matrix(0.8908,-0.4544,0.4544,0.8908,-358.5693,-825.3953)">
			<stop
   offset="0"
   style="stop-color:#F26522"
   id="stop20" />
			<stop
   offset="1"
   style="stop-color:#FEBD18"
   id="stop22" />
		</linearGradient>
		<path
   style="fill:url(#SVGID_3_)"
   d="M 431.9,194.9 C 459.9,306 379,334.4 368,340 c 0,0 26.7,-39.5 20.8,-129.5 -4.2,-64.3 -65.6,-103.9 -65.6,-103.9 0,0 86.4,-0.5 108.7,88.3 z"
   id="path25"
   inkscape:connector-curvature="0" />
		
			<linearGradient
   id="SVGID_4_"
   gradientUnits="userSpaceOnUse"
   x1="222.08211"
   y1="1264.8845"
   x2="239.0089"
   y2="1133.9465"
   gradientTransform="matrix(0.8908,-0.4544,0.4544,0.8908,-358.5693,-825.3953)">
			<stop
   offset="0"
   style="stop-color:#F26522"
   id="stop27" />
			<stop
   offset="1"
   style="stop-color:#FEBD18"
   id="stop29" />
		</linearGradient>
		<path
   style="fill:url(#SVGID_4_)"
   d="m 444.4,139.7 c 28,111.2 -41,142.5 -52,148.1 0,0 10.6,-42.5 4.7,-132.5 C 392.8,91 331.5,51.4 331.5,51.4 c 0,0 90.6,-0.5 112.9,88.3 z"
   id="path32"
   inkscape:connector-curvature="0" />
		
			<linearGradient
   id="SVGID_5_"
   gradientUnits="userSpaceOnUse"
   x1="235.99519"
   y1="1355.0841"
   x2="252.1945"
   y2="1229.772"
   gradientTransform="matrix(0.8908,-0.4544,0.4544,0.8908,-358.5693,-825.3953)">
			<stop
   offset="0"
   style="stop-color:#F26522"
   id="stop34" />
			<stop
   offset="1"
   style="stop-color:#FEBD18"
   id="stop36" />
		</linearGradient>
		<path
   style="fill:url(#SVGID_5_)"
   d="m 483.8,219.7 c -2.2,57 -35.5,107 -46.5,112.6 0,0 39,-45.8 8,-130.5 C 414.6,118 428.7,88.3 428.7,88.3 c 0,0 58.7,37 55.1,131.4 z"
   id="path39"
   inkscape:connector-curvature="0" />
		
			<linearGradient
   id="SVGID_6_"
   gradientUnits="userSpaceOnUse"
   x1="173.2916"
   y1="1400.1361"
   x2="190.37621"
   y2="1267.9762"
   gradientTransform="matrix(0.8908,-0.4544,0.4544,0.8908,-358.5693,-825.3953)">
			<stop
   offset="0"
   style="stop-color:#F26522"
   id="stop41" />
			<stop
   offset="1"
   style="stop-color:#FEBD18"
   id="stop43" />
		</linearGradient>
		<path
   style="fill:url(#SVGID_6_)"
   d="m 433.2,287.1 c -2.8,56.9 -6.5,105.9 -17.6,111.5 0,0 -17.2,-39.3 -20.9,-129.4 -3.5,-84.9 -34.6,-111.3 -34.6,-111.3 0,0 78.7,16.5 73.1,129.2 z"
   id="path46"
   inkscape:connector-curvature="0" />
		
			<linearGradient
   id="SVGID_7_"
   gradientUnits="userSpaceOnUse"
   x1="501.27011"
   y1="1257.7001"
   x2="577.7326"
   y2="1282.3668"
   gradientTransform="translate(-150,-930)">
			<stop
   offset="0"
   style="stop-color:#F26522"
   id="stop48" />
			<stop
   offset="1"
   style="stop-color:#FEBD18"
   id="stop50" />
		</linearGradient>
		<path
   style="fill:url(#SVGID_7_)"
   d="m 424.8,350.2 c -6.7,114.4 -129.8,72.3 -142.2,72.3 0,0 44.3,5.2 79.9,-77.6 14.3,-33.2 8.5,-127.7 8.5,-127.7 0,0 57.9,63 53.8,133 z"
   id="path53"
   inkscape:connector-curvature="0" />
		<path
   style="fill:#ffffff"
   d="m 270.5,173.8 c 0.6,-0.5 4.3,0.4 4.3,0.4 -6.2,9.6 -20.7,21.8 -26.3,25.5 -3.9,2.6 -22.1,17.7 -26.5,16.1 -12.1,-4.4 -19.5,-27.7 -19.5,-27.7 4.8,0.2 63.4,-10.3 68,-14.3 z"
   id="path55"
   inkscape:connector-curvature="0" />
		<path
   style="fill:#f26522;fill-opacity:1"
   d="m 200.9,144.3 c -1.7,3.3 -6.9,24.5 1.7,44 9.1,20.4 33.2,40.5 42.9,52.4 6.7,8.2 -63.6,-10.4 -68,0.6 -1.4,3.5 -3.9,16 3,27.1 5.8,9.5 15.4,8.9 22.1,8.9 11.6,0 65.2,-32.1 67.5,-25.8 2.9,7.9 -17.3,34.5 -56.9,64.6 -0.7,0.6 -9.8,7 -7.7,17.5 3.5,17.5 53.3,71 76.9,84 20,11.1 162.6,29.6 118,-68 -41.3,-90.3 18.2,-210.2 25.9,-203.4 123.1,108.7 18.8,229 16.3,233.3 C 398.8,453.4 318.5,487.4 243.1,479 147.8,468.5 95.6,410 80.9,391.6 75.1,384.3 15.3,318.2 32.4,212.7 40.3,163.8 60.3,158.2 59.8,151 c -2,-28.6 24.8,-80.8 26.9,-72.8 1.1,4.2 5.9,44.6 14.8,43.3 8.5,-1.2 19.2,-5.5 33.4,-5.3 10.9,0.1 20.6,2.5 28.7,5.5 4.5,1.6 14.2,-11.1 27.6,-19.2 18.4,-11.1 44.5,-17.7 41.8,-14.7 -24,27.1 -29.9,52.2 -32.1,56.5 z"
   id="path57"
   inkscape:connector-curvature="0" />
		<g
   id="g80">
			
				<linearGradient
   id="SVGID_8_"
   gradientUnits="userSpaceOnUse"
   x1="212.02991"
   y1="1219.974"
   x2="259.13129"
   y2="1277.7357"
   gradientTransform="translate(-150,-930)">
				<stop
   offset="0"
   style="stop-color:#F26522"
   id="stop59" />
				<stop
   offset="1"
   style="stop-color:#FBB040"
   id="stop61" />
			</linearGradient>
			<path
   style="fill:url(#SVGID_8_)"
   d="m 70.5,323.5 c -4.7,42.9 30.1,90.6 30.1,90.6 -58,-11.9 -69.6,-80.3 -72.1,-98.2 -10.1,-71.2 14,-135.8 27.6,-135.8 13.6,0 16.3,125.5 14.4,143.4 z"
   id="path64"
   inkscape:connector-curvature="0" />
			
				<linearGradient
   id="SVGID_9_"
   gradientUnits="userSpaceOnUse"
   x1="244.76379"
   y1="1203.2581"
   x2="321.34659"
   y2="1308.7416"
   gradientTransform="translate(-150,-930)">
				<stop
   offset="0"
   style="stop-color:#F26522"
   id="stop66" />
				<stop
   offset="1"
   style="stop-color:#FBB040"
   id="stop68" />
			</linearGradient>
			<path
   style="fill:url(#SVGID_9_)"
   d="M 119.5,314.2 C 108.7,366.2 192,381 192,381 78.4,410.9 70.6,324.3 68,306.4 58,235.2 98.9,202.9 112.6,202.9 c 13.6,0 11.3,90.2 6.9,111.3 z"
   id="path71"
   inkscape:connector-curvature="0" />
			
				<linearGradient
   id="SVGID_10_"
   gradientUnits="userSpaceOnUse"
   x1="251.27251"
   y1="1189.2225"
   x2="293.5914"
   y2="1262.9652"
   gradientTransform="translate(-150,-930)">
				<stop
   offset="0"
   style="stop-color:#F26522"
   id="stop73" />
				<stop
   offset="1"
   style="stop-color:#FBB040"
   id="stop75" />
			</linearGradient>
			<path
   style="fill:url(#SVGID_10_)"
   d="M 88.9,252.9 C 64.2,301.6 133.3,357.8 133.3,357.8 26.9,342 39.1,246.4 43.4,228.8 c 16.9,-69.9 59.9,-80.7 72.5,-75.6 12.6,5 -17.3,80.6 -27,99.7 z"
   id="path78"
   inkscape:connector-curvature="0" />
		</g>
	</g>
</g>
</svg>