<?xml version="1.0" encoding="utf-8"?>
<!-- Generator: Adobe Illustrator 18.0.0, SVG Export Plug-In . SVG Version: 6.00 Build 0)  -->
<!DOCTYPE svg PUBLIC "-//W3C//DTD SVG 1.1//EN" "http://www.w3.org/Graphics/SVG/1.1/DTD/svg11.dtd">
<svg version="1.1" id="Layer_1" xmlns="http://www.w3.org/2000/svg" xmlns:xlink="http://www.w3.org/1999/xlink" x="0px" y="0px"
	 viewBox="0 0 512 512" style="enable-background:new 0 0 512 512;" xml:space="preserve">
<g>
	<g>
		<path style="fill:#151515;" d="M446,486H66c-22.091,0-40-17.909-40-40V66c0-22.091,17.909-40,40-40h380c22.091,0,40,17.909,40,40
			v380C486,468.091,468.091,486,446,486z"/>
		<g>
			<linearGradient id="SVGID_1_" gradientUnits="userSpaceOnUse" x1="256" y1="26" x2="256" y2="486">
				<stop  offset="0" style="stop-color:#FFFFFF"/>
				<stop  offset="1" style="stop-color:#FFFFFF;stop-opacity:0.5"/>
			</linearGradient>
			<path style="fill:url(#SVGID_1_);" d="M446,36c16.542,0,30,13.458,30,30v380c0,16.542-13.458,30-30,30H66
				c-16.542,0-30-13.458-30-30V66c0-16.542,13.458-30,30-30H446 M446,26H66c-22.091,0-40,17.909-40,40v380c0,22.091,17.909,40,40,40
				h380c22.091,0,40-17.909,40-40V66C486,43.909,468.091,26,446,26L446,26z"/>
		</g>
	</g>
	<g>
		<path style="fill:#FFFFFF;" d="M175.71,189.731c0-4-1.585-7.37-4.755-10.109c-3.17-2.739-8.515-5.218-16.034-7.436
			c-10.468-2.826-18.098-6.511-22.89-11.055c-4.792-4.543-7.188-10.315-7.188-17.316c0-7.131,2.346-12.979,7.04-17.545
			c4.693-4.565,11.143-7.283,19.352-8.153v-14.284h10.984v14.349c8.256,1.001,14.682,4.066,19.277,9.196
			c4.595,5.131,6.893,12.153,6.893,21.066h-13.564c0-6.15-1.647-11.036-4.939-14.656c-3.293-3.621-7.741-5.432-13.343-5.432
			c-5.849,0-10.321,1.34-13.417,4.018c-3.096,2.679-4.644,6.414-4.644,11.206c0,4.444,1.633,7.982,4.902,10.618
			c3.268,2.635,8.649,5.031,16.144,7.188c7.494,2.157,13.343,4.528,17.545,7.114c4.202,2.588,7.298,5.599,9.289,9.033
			c1.99,3.436,2.985,7.458,2.985,12.066c0,7.349-2.495,13.262-7.482,17.74c-4.989,4.479-11.979,7.131-20.973,7.957v12.457h-10.91
			v-12.457c-9.141-0.74-16.305-3.62-21.489-8.642c-5.186-5.022-7.777-11.838-7.777-20.447h13.638c0,6.044,1.793,10.696,5.381,13.957
			c3.587,3.261,8.674,4.892,15.26,4.892c6.438,0,11.5-1.369,15.187-4.109C173.867,198.21,175.71,194.471,175.71,189.731z"/>
		<path style="fill:#FFFFFF;" d="M265.205,223.553h-67.526v-11.131h67.526V223.553z"/>
	</g>
</g>
</svg>
