<?xml version="1.0" encoding="utf-8"?>
<!-- Generator: Adobe Illustrator 18.0.0, SVG Export Plug-In . SVG Version: 6.00 Build 0)  -->
<!DOCTYPE svg PUBLIC "-//W3C//DTD SVG 1.1//EN" "http://www.w3.org/Graphics/SVG/1.1/DTD/svg11.dtd">
<svg version="1.1" id="Layer_1" xmlns="http://www.w3.org/2000/svg" xmlns:xlink="http://www.w3.org/1999/xlink" x="0px" y="0px"
	 viewBox="0 0 512 512" style="enable-background:new 0 0 512 512;" xml:space="preserve">
<path id="path236" style="opacity:0.4;" d="M293.085,180.314c-18.435-0.002-30.573-12.145-30.573-30.584
	c0-19.776,17.078-35.954,36.852-35.954c17.987,0,31.02,12.129,31.02,30.567C330.384,165.028,313.305,180.314,293.085,180.314
	 M215.775,408.224c-16.187,0-27.422-7.634-27.422-24.718c0-21.577,15.281-58.442,18.434-66.091l31.456-79.125
	c3.156-8.079-0.892-12.127-4.495-12.127c-16.631,0-38.205,39.11-46.284,39.11c-3.154,0-5.848-3.156-5.848-5.849
	c0-8.096,19.773-26.967,25.621-32.817c17.975-17.082,41.349-30.118,67.413-30.118c19.328,0,40.008,11.682,23.821,55.298
	l-32.359,87.656c-2.694,6.741-7.635,17.991-7.635,25.181c0,3.139,1.788,6.293,5.384,6.293c13.48,0,38.207-38.217,44.503-38.217
	c2.247,0,5.383,2.694,5.383,6.741C313.746,352.476,261.17,408.224,215.775,408.224 M256,31C128.975,31,26,133.975,26,261
	s102.975,230,230,230s230-102.975,230-230S383.025,31,256,31"/>
<radialGradient id="path236_2_" cx="258.9762" cy="213.7381" r="230" gradientUnits="userSpaceOnUse">
	<stop  offset="0" style="stop-color:#71CCD4"/>
	<stop  offset="1" style="stop-color:#2DB34A"/>
</radialGradient>
<path id="path236_1_" style="fill:url(#path236_2_);" d="M293.085,175.314c-18.435-0.002-30.573-12.145-30.573-30.584
	c0-19.776,17.078-35.954,36.852-35.954c17.987,0,31.02,12.129,31.02,30.567C330.384,160.028,313.305,175.314,293.085,175.314
	 M215.775,403.224c-16.187,0-27.422-7.634-27.422-24.718c0-21.577,15.281-58.442,18.434-66.091l31.456-79.125
	c3.156-8.079-0.892-12.127-4.495-12.127c-16.631,0-38.205,39.11-46.284,39.11c-3.154,0-5.848-3.156-5.848-5.849
	c0-8.096,19.773-26.967,25.621-32.817c17.975-17.082,41.349-30.118,67.413-30.118c19.328,0,40.008,11.682,23.821,55.298
	l-32.359,87.656c-2.694,6.741-7.635,17.991-7.635,25.181c0,3.139,1.788,6.293,5.384,6.293c13.48,0,38.207-38.217,44.503-38.217
	c2.247,0,5.383,2.694,5.383,6.741C313.746,347.476,261.17,403.224,215.775,403.224 M256,26C128.975,26,26,128.975,26,256
	s102.975,230,230,230s230-102.975,230-230S383.025,26,256,26"/>
</svg>
