<?xml version="1.0" encoding="utf-8"?>
<!-- Generator: Adobe Illustrator 18.0.0, SVG Export Plug-In . SVG Version: 6.00 Build 0)  -->
<!DOCTYPE svg PUBLIC "-//W3C//DTD SVG 1.1//EN" "http://www.w3.org/Graphics/SVG/1.1/DTD/svg11.dtd">
<svg version="1.1" id="Layer_1" xmlns="http://www.w3.org/2000/svg" xmlns:xlink="http://www.w3.org/1999/xlink" x="0px" y="0px"
	 viewBox="0 0 512 512" style="enable-background:new 0 0 512 512;" xml:space="preserve">
<path style="opacity:0.4;" d="M256,32C128.975,32,26,134.975,26,262s102.975,230,230,230s230-102.975,230-230S383.025,32,256,32z
	 M252.969,132.719c32.7-4.243,13.611,63.217-3.787,62.154C231.776,193.811,220.28,136.962,252.969,132.719z M193.579,156.318
	c26.269-10.839,25.461,49.584,10.731,52.587C189.591,211.913,167.305,167.16,193.579,156.318z M149.997,192.597
	c21.042-14.53,31.822,38.747,19.448,44.194C157.07,242.236,128.965,207.13,149.997,192.597z M335.003,342.554
	c-6.226,33.003-39.505,59.054-68.357,59.054c-58.648,0-114.855-68.201-103.869-117.36c16.23-72.682,158.754-86.983,166.571-40.532
	c9.418,55.961-133.462,76.396-79.661,117.358c16.9,12.868,34.157,3.01,31.543-16.95
	C279.049,327.472,339.758,317.388,335.003,342.554z M309.327,205.125c-32.677,0-21.781-82.733,36.306-82.733
	C403.721,122.392,341.999,205.125,309.327,205.125z"/>
<radialGradient id="SVGID_1_" cx="256" cy="256" r="230" gradientUnits="userSpaceOnUse">
	<stop  offset="0" style="stop-color:#00B8D2"/>
	<stop  offset="1" style="stop-color:#33B44A"/>
</radialGradient>
<path style="fill:url(#SVGID_1_);" d="M256,26C128.975,26,26,128.975,26,256s102.975,230,230,230s230-102.975,230-230
	S383.025,26,256,26z M252.969,126.719c32.7-4.243,13.611,63.217-3.787,62.154C231.776,187.811,220.28,130.962,252.969,126.719z
	 M193.579,150.318c26.269-10.839,25.461,49.584,10.731,52.587C189.591,205.913,167.305,161.16,193.579,150.318z M149.997,186.597
	c21.042-14.53,31.822,38.747,19.448,44.194C157.07,236.236,128.965,201.13,149.997,186.597z M335.003,336.554
	c-6.226,33.003-39.505,59.054-68.357,59.054c-58.648,0-114.855-68.201-103.869-117.36c16.23-72.682,158.754-86.983,166.571-40.532
	c9.418,55.961-133.462,76.396-79.661,117.358c16.9,12.868,34.157,3.01,31.543-16.95
	C279.049,321.472,339.758,311.388,335.003,336.554z M309.327,199.125c-32.677,0-21.781-82.733,36.306-82.733
	C403.721,116.392,341.999,199.125,309.327,199.125z"/>
</svg>
