<?xml version="1.0" encoding="utf-8"?>
<!-- Generator: Adobe Illustrator 18.0.0, SVG Export Plug-In . SVG Version: 6.00 Build 0)  -->
<!DOCTYPE svg PUBLIC "-//W3C//DTD SVG 1.1//EN" "http://www.w3.org/Graphics/SVG/1.1/DTD/svg11.dtd">
<svg version="1.1" id="Layer_1" xmlns="http://www.w3.org/2000/svg" xmlns:xlink="http://www.w3.org/1999/xlink" x="0px" y="0px"
	 viewBox="0 0 512 512" enable-background="new 0 0 512 512" xml:space="preserve">
<path id="path236" opacity="0.4" enable-background="new    " d="M293.1,180.3c-18.4,0-30.6-12.1-30.6-30.6c0-19.8,17.1-36,36.9-36
	c18,0,31,12.1,31,30.6C330.4,165,313.3,180.3,293.1,180.3 M215.8,408.2c-16.2,0-27.4-7.6-27.4-24.7c0-21.6,15.3-58.4,18.4-66.1
	l31.5-79.1c3.2-8.1-0.9-12.1-4.5-12.1c-16.6,0-38.2,39.1-46.3,39.1c-3.2,0-5.8-3.2-5.8-5.8c0-8.1,19.8-27,25.6-32.8
	c18-17.1,41.3-30.1,67.4-30.1c19.3,0,40,11.7,23.8,55.3l-32.4,87.7c-2.7,6.7-7.6,18-7.6,25.2c0,3.1,1.8,6.3,5.4,6.3
	c13.5,0,38.2-38.2,44.5-38.2c2.2,0,5.4,2.7,5.4,6.7C313.7,352.5,261.2,408.2,215.8,408.2 M256,31C129,31,26,134,26,261
	s103,230,230,230s230-103,230-230S383,31,256,31"/>
<path id="path236_1_" fill="#2F8E2F" d="M293.1,175.3c-18.4,0-30.6-12.1-30.6-30.6c0-19.8,17.1-36,36.9-36c18,0,31,12.1,31,30.6
	C330.4,160,313.3,175.3,293.1,175.3 M215.8,403.2c-16.2,0-27.4-7.6-27.4-24.7c0-21.6,15.3-58.4,18.4-66.1l31.5-79.1
	c3.2-8.1-0.9-12.1-4.5-12.1c-16.6,0-38.2,39.1-46.3,39.1c-3.2,0-5.8-3.2-5.8-5.8c0-8.1,19.8-27,25.6-32.8
	c18-17.1,41.3-30.1,67.4-30.1c19.3,0,40,11.7,23.8,55.3l-32.4,87.7c-2.7,6.7-7.6,18-7.6,25.2c0,3.1,1.8,6.3,5.4,6.3
	c13.5,0,38.2-38.2,44.5-38.2c2.2,0,5.4,2.7,5.4,6.7C313.7,347.5,261.2,403.2,215.8,403.2 M256,26C129,26,26,129,26,256
	s103,230,230,230s230-103,230-230S383,26,256,26"/>
</svg>
