<?xml version="1.0" encoding="utf-8"?>
<!-- Generator: Adobe Illustrator 18.0.0, SVG Export Plug-In . SVG Version: 6.00 Build 0)  -->
<!DOCTYPE svg PUBLIC "-//W3C//DTD SVG 1.1//EN" "http://www.w3.org/Graphics/SVG/1.1/DTD/svg11.dtd">
<svg version="1.1" id="Layer_1" xmlns="http://www.w3.org/2000/svg" xmlns:xlink="http://www.w3.org/1999/xlink" x="0px" y="0px"
	 viewBox="0 0 512 512" enable-background="new 0 0 512 512" xml:space="preserve">
<path opacity="0.4" enable-background="new    " d="M256,32C129,32,26,135,26,262s103,230,230,230s230-103,230-230S383,32,256,32z
	 M253,132.7c32.7-4.2,13.6,63.2-3.8,62.2C231.8,193.8,220.3,137,253,132.7z M193.6,156.3c26.3-10.8,25.5,49.6,10.7,52.6
	C189.6,211.9,167.3,167.2,193.6,156.3z M150,192.6c21-14.5,31.8,38.7,19.4,44.2C157.1,242.2,129,207.1,150,192.6z M335,342.6
	c-6.2,33-39.5,59.1-68.4,59.1c-58.6,0-114.9-68.2-103.9-117.4c16.2-72.7,158.8-87,166.6-40.5c9.4,56-133.5,76.4-79.7,117.4
	c16.9,12.9,34.2,3,31.5-17C279,327.5,339.8,317.4,335,342.6z M309.3,205.1c-32.7,0-21.8-82.7,36.3-82.7
	C403.7,122.4,342,205.1,309.3,205.1z"/>
<radialGradient id="SVGID_1_" cx="256" cy="256" r="230" gradientTransform="matrix(1 0 0 -1 0 512)" gradientUnits="userSpaceOnUse">
	<stop  offset="0" style="stop-color:#20B6BE"/>
	<stop  offset="1" style="stop-color:#00B37D"/>
</radialGradient>
<path fill="url(#SVGID_1_)" d="M256,26C129,26,26,129,26,256s103,230,230,230s230-103,230-230S383,26,256,26z M253,126.7
	c32.7-4.2,13.6,63.2-3.8,62.2C231.8,187.8,220.3,131,253,126.7z M193.6,150.3c26.3-10.8,25.5,49.6,10.7,52.6
	C189.6,205.9,167.3,161.2,193.6,150.3z M150,186.6c21-14.5,31.8,38.7,19.4,44.2C157.1,236.2,129,201.1,150,186.6z M335,336.6
	c-6.2,33-39.5,59.1-68.4,59.1c-58.6,0-114.9-68.2-103.9-117.4c16.2-72.7,158.8-87,166.6-40.5c9.4,56-133.5,76.4-79.7,117.4
	c16.9,12.9,34.2,3,31.5-17C279,321.5,339.8,311.4,335,336.6z M309.3,199.1c-32.7,0-21.8-82.7,36.3-82.7
	C403.7,116.4,342,199.1,309.3,199.1z"/>
</svg>
