<?xml version="1.0" encoding="utf-8"?>
<!-- Generator: Adobe Illustrator 18.0.0, SVG Export Plug-In . SVG Version: 6.00 Build 0)  -->
<!DOCTYPE svg PUBLIC "-//W3C//DTD SVG 1.1//EN" "http://www.w3.org/Graphics/SVG/1.1/DTD/svg11.dtd">
<svg version="1.1" id="Layer_1" xmlns="http://www.w3.org/2000/svg" xmlns:xlink="http://www.w3.org/1999/xlink" x="0px" y="0px"
	 viewBox="0 0 512 512" style="enable-background:new 0 0 512 512;" xml:space="preserve">
<g>
	<radialGradient id="SVGID_1_" cx="256" cy="256" r="230" gradientUnits="userSpaceOnUse">
		<stop  offset="0" style="stop-color:#3FE1FF"/>
		<stop  offset="1" style="stop-color:#2AB4FF"/>
	</radialGradient>
	<circle style="fill:url(#SVGID_1_);" cx="256" cy="256" r="230"/>
	<path style="fill:#009EFF;" d="M483.53,222.262c-0.1-0.683-0.2-1.365-0.306-2.046l-17.676-1.95l4.233-47.251
		c-0.537-1.35-1.085-2.694-1.647-4.031l-4.574,51.063l-11.716-1.292c0.001-0.054,0.008-0.107,0.008-0.161
		c0-4.438-2.733-8.233-6.605-9.809l16.252-54.163c-0.434-0.861-0.872-1.718-1.317-2.573l-16.85,56.158
		c-0.67-0.133-1.362-0.206-2.072-0.206c-1.44,0-2.811,0.29-4.062,0.81L375.802,91.174c2.146-1.4,3.786-3.509,4.581-6l38.714,8.664
		c-0.889-0.894-1.791-1.774-2.695-2.653l-35.591-7.966c0.063-0.482,0.107-0.97,0.107-1.469c0-6.213-5.037-11.25-11.25-11.25
		c-2.327,0-4.489,0.707-6.284,1.917l-45.109-37.88c-1.524-0.428-3.053-0.845-4.59-1.242l48.124,40.412
		c-1.534,1.499-2.638,3.432-3.119,5.602l-84.714-11.055l13.721-40.071c-0.673-0.093-1.343-0.195-2.018-0.282l-13.727,40.089
		l-59.323-7.742c0.014-0.249,0.038-0.496,0.038-0.748c0-1.805-0.361-3.524-1.003-5.098l56.475-28.085
		c-1.382-0.072-2.771-0.118-4.159-0.166l-53.215,26.464c-2.354-3.956-6.66-6.616-11.598-6.616c-6.531,0-11.978,4.638-13.229,10.799
		l-36.485-4.669c-1.027,0.538-2.057,1.07-3.075,1.622l39.324,5.032c-0.013,0.238-0.036,0.474-0.036,0.715
		c0,1.824,0.366,3.561,1.022,5.149l-84.453,42.421c-2.101-3.499-5.733-5.968-9.978-6.468l0.282-6.394
		c-0.704,0.711-1.402,1.427-2.097,2.147l-0.184,4.165c-1.643,0.049-3.205,0.404-4.65,0.988c-2.777,3.061-5.465,6.205-8.076,9.413
		c-0.232,0.99-0.367,2.017-0.367,3.078c0,3.484,1.331,6.648,3.497,9.043l-32.266,33.844c-0.887,1.856-1.746,3.727-2.585,5.61
		l36.288-38.063c1.798,1.478,3.989,2.485,6.387,2.875l-8.135,92.201c-0.063-0.001-0.124-0.009-0.187-0.009
		c-2.763,0-5.329,0.833-7.468,2.257l-29.717-38.251c2.733-2.47,4.46-6.032,4.46-10.006c0-3.111-1.066-5.963-2.836-8.244
		c-3.002,6.983-5.669,14.142-7.979,21.462c1.738-0.349,3.357-1.026,4.783-1.975l29.717,38.251c-2.733,2.47-4.46,6.032-4.46,10.006
		c0,4.153,1.879,7.864,4.829,10.341L40.985,285.75c-1.784-1.095-3.837-1.786-6.043-1.948v-91.497c-0.708,2.462-1.373,4.943-2,7.439
		v84.058c-1.332,0.098-2.609,0.391-3.806,0.847c0.41,6.097,0.96,12.153,1.634,18.153c0.545,2.639,1.148,5.256,1.783,7.861
		c0.457,0.052,0.918,0.089,1.389,0.089c1.426,0,2.798-0.224,4.088-0.634l33.356,83.075c1.468,1.972,2.971,3.915,4.5,5.838
		l-36.004-89.67c0.841-0.413,1.633-0.908,2.364-1.48l41.637,45.837c-2.297,2.42-3.716,5.683-3.716,9.284
		c0,7.287,5.778,13.21,13,13.475v41.956c0.331,0.331,0.667,0.656,1,0.986v-42.942c4.302-0.158,8.083-2.321,10.443-5.59
		l55.061,33.771c-0.636,1.315-1.004,2.785-1.004,4.344c0,1.234,0.234,2.41,0.643,3.502l-46.918,23.146
		c0.574,0.459,1.142,0.927,1.72,1.381l46.083-22.734c1.768,2.823,4.896,4.706,8.472,4.706c1.184,0,2.315-0.217,3.369-0.594
		l29.019,60.971c0.835,0.205,1.667,0.416,2.506,0.612l-29.72-62.443c2.1-1.274,3.694-3.292,4.408-5.696l53.556,10.232
		l-12.472,60.996c0.659,0.106,1.316,0.219,1.977,0.319l12.46-60.939l44.491,8.5c-0.058,0.507-0.095,1.02-0.095,1.543
		c0,3.319,1.203,6.354,3.189,8.704l-44.861,43.963c0.879,0.074,1.757,0.149,2.639,0.213l43.626-42.753
		c2.378,2.093,5.489,3.372,8.906,3.372c5.785,0,10.706-3.646,12.627-8.76l35.636,10.436c-0.194,0.911-0.301,1.854-0.301,2.823
		c0,1.468,0.242,2.878,0.675,4.201l-75.54,31.115c2.001-0.075,3.996-0.175,5.983-0.301l70.325-28.967
		c2.219,4.415,6.778,7.452,12.057,7.452c0.424,0,0.843-0.024,1.257-0.062c2.942-1.394,5.846-2.852,8.718-4.366
		c1.399-1.542,2.453-3.405,3.024-5.47l5.063,1.006c0.865-0.502,1.723-1.013,2.581-1.526l-7.253-1.441
		c0.065-0.539,0.109-1.084,0.109-1.641c0-3.828-1.601-7.277-4.161-9.734l33.565-40.624l22.811,18.275
		c0.473-0.474,0.935-0.959,1.404-1.438l-22.941-18.379l49.652-60.094c2.204,1.564,4.89,2.493,7.798,2.493
		c0.878,0,1.733-0.091,2.564-0.25l4.749,17.474c0.448-0.9,0.902-1.797,1.338-2.704l-4.158-15.302
		c5.244-1.853,9.008-6.84,9.008-12.718c0-3.658-1.461-6.971-3.823-9.402l17.696-19.95c0.231-1.249,0.449-2.502,0.66-3.758
		l-19.857,22.385c-1.718-1.312-3.755-2.216-5.98-2.581l8.414-93.936L483.53,222.262z M443.784,335.341l-51.4,42.809
		c-1.322-1.836-3.048-3.36-5.059-4.428l21.451-61.291l33.144,10.927c-0.422,1.307-0.661,2.696-0.661,4.143
		C441.26,330.428,442.201,333.129,443.784,335.341z M257.719,342.471l102.622-41.962c0.394,0.643,0.898,1.208,1.491,1.669
		l-36.924,67.486l-66.999-21.872c0.165-0.739,0.258-1.504,0.258-2.292C258.168,344.447,258.008,343.431,257.719,342.471z
		 M93.41,230.39l27.544-7.588l10.977,38.125c-2.568,0.923-4.822,2.495-6.558,4.532L91.549,240.24
		c1.334-2.094,2.118-4.573,2.118-7.239C93.668,232.107,93.576,231.235,93.41,230.39z M122.882,222.271l17.679-4.87l-3.224,42.608
		c-0.057-0.001-0.112-0.009-0.169-0.009c-1.14,0-2.248,0.131-3.317,0.365L122.882,222.271z M142.609,216.837l57.357-15.8
		c0.62,1.736,1.582,3.304,2.81,4.629l-54.717,58.812c-2.314-2.286-5.348-3.835-8.727-4.308L142.609,216.837z M162.108,122.316
		l89.732-14.676c0.568,2.003,1.824,3.716,3.505,4.857l-37.34,71.606c-1.638-0.706-3.441-1.101-5.338-1.101
		c-3.05,0-5.853,1.023-8.114,2.729l-46.263-52.768c2.395-2.436,3.876-5.774,3.876-9.46
		C162.168,123.101,162.142,122.707,162.108,122.316z M430.684,216.265l-66.559,4.245l-1.013-30.589
		c4.303-0.458,7.99-2.944,10.117-6.477l58.17,29.301C430.971,213.842,430.722,215.026,430.684,216.265z M433.327,223.595
		l-64.169,68.47c-0.788-0.532-1.706-0.883-2.695-1.008l-2.271-68.547l66.62-4.249C431.133,220.29,432.026,222.123,433.327,223.595z
		 M364.464,291.119c-1.288,0.251-2.431,0.899-3.304,1.809l-87.126-60.08c0.774-1.391,1.228-2.979,1.284-4.67l86.878-5.541
		L364.464,291.119z M149.386,265.986l54.848-58.953c2.241,1.797,5.065,2.888,8.145,2.953l4.079,77.134
		c-4.933,0.625-9.031,3.903-10.819,8.367l-53.287-16.863c0.206-1.009,0.315-2.054,0.315-3.124
		C152.668,271.91,151.435,268.614,149.386,265.986z M214.376,209.881c3.848-0.487,7.187-2.589,9.32-5.611l31.975,19.144
		c-0.637,1.342-1.004,2.837-1.004,4.421c0,3.284,1.537,6.204,3.925,8.097l-33.972,52.71c-1.838-1.002-3.936-1.579-6.166-1.626
		L214.376,209.881z M226.127,195.703l36.439-4.891l1.038,26.794c-2.827,0.383-5.284,1.905-6.904,4.093l-31.978-19.146
		c0.917-1.822,1.445-3.873,1.445-6.052C226.168,196.232,226.143,195.969,226.127,195.703z M260.273,237.016
		c0.704,0.363,1.455,0.644,2.241,0.838l-8.966,60.866l-21.946,0.484c-0.369-3.866-2.374-7.246-5.309-9.466L260.273,237.016z
		 M264.494,238.143c0.169,0.008,0.336,0.026,0.508,0.026c3.169,0,6-1.429,7.896-3.675l87.128,60.081
		c-0.268,0.563-0.453,1.171-0.542,1.812l-103.908,2.289L264.494,238.143z M264.557,190.545l28.097-3.771l-22.558,32.078
		c-1.34-0.762-2.866-1.226-4.493-1.32L264.557,190.545z M275.191,226.182c-0.396-2.458-1.652-4.625-3.459-6.179l23.624-33.592
		l53.103-7.128c1.246,5.944,6.404,10.436,12.656,10.69l1.016,30.665L275.191,226.182z M348.168,176.501
		c0,0.269,0.025,0.532,0.04,0.798l-51.286,6.884l24.451-34.768l28.715,20.174C348.876,171.612,348.168,173.971,348.168,176.501z
		 M294.222,184.545l-29.742,3.992l-2.893-74.649c2.056-0.316,3.873-1.343,5.195-2.828l52.955,37.203L294.222,184.545z
		 M262.489,188.805l-36.611,4.914c-0.768-3.663-3.026-6.768-6.104-8.681l37.349-71.623c0.776,0.298,1.603,0.488,2.466,0.553
		L262.489,188.805z M203.044,187.041c-0.341,0.346-0.658,0.714-0.96,1.096l-54.514-36.864l1.08-14.272
		c0.006,0,0.012,0.001,0.019,0.001c3.05,0,5.853-1.023,8.114-2.729L203.044,187.041z M200.963,189.793
		c-1.136,1.978-1.795,4.264-1.795,6.708c0,0.894,0.092,1.766,0.258,2.611l-56.656,15.607l4.626-61.15L200.963,189.793z
		 M149.686,284.615l43.022,27.254l-40.132,19.673l-9.242-41.822C145.883,288.612,148.067,286.834,149.686,284.615z M150.77,282.934
		c0.414-0.757,0.755-1.557,1.04-2.384l53.231,16.845c-0.236,0.999-0.373,2.035-0.373,3.105c0,1.778,0.352,3.471,0.977,5.026
		l-10.83,5.309L150.77,282.934z M206.53,307.319c1.232,2.099,3.005,3.84,5.141,5.015l-3.249,7.122l-11.626-7.365L206.53,307.319z
		 M213.494,313.153c1.458,0.539,3.028,0.848,4.673,0.848c2.375,0,4.604-0.618,6.543-1.695l16.393,25.007
		c-0.642,0.515-1.217,1.106-1.723,1.756l-29.255-18.532L213.494,313.153z M226.377,311.201c3.037-2.333,5.044-5.923,5.255-9.996
		l21.62-0.476l-5.053,34.299c-0.177-0.009-0.352-0.027-0.532-0.027c-1.768,0-3.431,0.441-4.893,1.213L226.377,311.201z
		 M255.28,300.684l104.245-2.297c0.017,0.091,0.036,0.182,0.057,0.272L256.96,340.621c-1.38-2.622-3.836-4.581-6.782-5.305
		L255.28,300.684z M363.586,303.138c0.652,0.231,1.351,0.363,2.082,0.363c0.008,0,0.017-0.001,0.025-0.001l11.449,68.879
		c-5.394,1.225-9.652,5.401-11.006,10.745l-39.294-12.828L363.586,303.138z M367.665,303.169c1.563-0.528,2.847-1.657,3.582-3.111
		l35.629,11.746l-21.388,61.11c-1.583-0.581-3.286-0.914-5.07-0.914c-0.439,0-0.872,0.028-1.301,0.066L367.665,303.169z
		 M407.537,309.915l-35.692-11.767c0.042-0.294,0.072-0.592,0.072-0.898c0-1.437-0.49-2.758-1.306-3.813l64.173-68.475
		c0.631,0.489,1.317,0.906,2.049,1.244L407.537,309.915z M369.721,92.998c1.531-0.007,2.991-0.318,4.32-0.879l61.393,115.632
		c-1.261,0.832-2.327,1.929-3.133,3.209l-58.16-29.296c0.659-1.591,1.027-3.333,1.027-5.163c0-6.73-4.93-12.294-11.372-13.316
		L369.721,92.998z M362.734,90.599c1.428,1.121,3.132,1.9,4.995,2.224l-5.926,70.185c-0.046,0-0.09-0.007-0.136-0.007
		c-4.208,0-7.964,1.926-10.44,4.943l-28.704-20.166L362.734,90.599z M358.92,85.082c0.48,1.549,1.293,2.947,2.344,4.13
		l-40.377,57.416L267.94,109.43c0.676-1.242,1.061-2.665,1.061-4.179c0-0.286-0.016-0.568-0.043-0.847L358.92,85.082z
		 M273.315,70.186l85.125,11.109c-0.006,0.153-0.023,0.302-0.023,0.456c0,0.466,0.037,0.923,0.092,1.374l-89.975,19.325
		c-0.76-2.247-2.406-4.079-4.524-5.09L273.315,70.186z M212.39,62.235l58.902,7.687l-9.171,26.784
		c-0.603-0.131-1.227-0.205-1.869-0.205c-2.504,0-4.756,1.057-6.351,2.743l-43.365-32.479
		C211.408,65.401,212.052,63.875,212.39,62.235z M199.168,73.001c4.06,0,7.691-1.8,10.166-4.636l43.367,32.48
		c-0.758,1.295-1.199,2.797-1.199,4.406c0,0.14,0.014,0.276,0.021,0.415l-89.741,14.677c-0.637-2.652-2.053-4.995-3.998-6.779
		l33.83-42.873C193.769,72.149,196.368,73.001,199.168,73.001z M187.598,66.431c0.672,1.119,1.498,2.13,2.454,3.007l-33.83,42.873
		c-2.156-1.459-4.756-2.311-7.555-2.311c-6.365,0-11.688,4.411-13.112,10.339l-31.448-5.151c0.034-0.392,0.06-0.787,0.06-1.188
		c0-1.824-0.366-3.561-1.022-5.149L187.598,66.431z M103.78,117.162l31.448,5.151c-0.034,0.392-0.06,0.787-0.06,1.188
		c0,6.77,4.989,12.36,11.488,13.334l-0.995,13.147l-43.289-29.273C103.001,119.614,103.477,118.423,103.78,117.162z
		 M101.251,122.365l44.236,29.914l-4.767,63.004l-18.392,5.066l-26.979-93.7C97.693,125.782,99.728,124.29,101.251,122.365z
		 M90.481,127.492c0.063,0.001,0.124,0.009,0.187,0.009c0.948,0,1.872-0.1,2.764-0.285l26.969,93.665l-27.531,7.584
		c-1.629-4.559-5.63-7.977-10.524-8.772L90.481,127.492z M85.364,352.372l-41.637-45.837c2.297-2.42,3.716-5.683,3.716-9.284
		c0-4.153-1.879-7.864-4.829-10.341l30.511-42.408c2.052,1.26,4.458,1.999,7.043,1.999c0.133,0,0.262-0.016,0.394-0.02
		l10.721,103.243C89.077,350.118,87.059,351.045,85.364,352.372z M93.668,349.501c-0.133,0-0.262,0.016-0.394,0.02L82.552,246.278
		c3.096-0.553,5.822-2.157,7.802-4.435l33.823,25.219c-1.581,2.43-2.509,5.324-2.509,8.439c0,5.77,3.159,10.793,7.836,13.462
		l-30.095,61.833C97.664,349.974,95.724,349.501,93.668,349.501z M104.576,355.07c-0.939-1.289-2.091-2.412-3.418-3.299
		l30.141-61.928c1.811,0.742,3.79,1.158,5.869,1.158c1.482,0,2.909-0.22,4.266-0.609l9.293,42.055L104.576,355.07z M160.718,402.952
		l-55.058-33.769c0.958-1.854,1.508-3.952,1.508-6.182c0-2.247-0.557-4.362-1.529-6.226l45.532-22.32l14.374,65.049
		C163.604,400.143,161.93,401.361,160.718,402.952z M171.885,399.54c-1.011-0.344-2.09-0.539-3.217-0.539
		c-0.396,0-0.785,0.029-1.169,0.074l-14.479-65.525l41.67-20.426l12.895,8.169L171.885,399.54z M232.207,420.122l-53.584-10.238
		c0.026-0.292,0.045-0.585,0.045-0.884c0-3.684-1.998-6.895-4.964-8.629l35.585-77.999l29.021,18.384
		c-0.725,1.426-1.142,3.035-1.142,4.745c0,5.009,3.51,9.192,8.203,10.24L232.207,420.122z M278.644,428.994l-44.472-8.497
		l13.191-64.512c0.102,0.003,0.202,0.015,0.305,0.015c1.35,0,2.636-0.264,3.821-0.728l33.216,65.678
		C281.762,422.729,279.558,425.593,278.644,428.994z M291.668,419.001c-1.837,0-3.587,0.37-5.183,1.035l-33.211-65.667
		c1.765-1.118,3.175-2.742,4.018-4.674l66.641,21.755l-26.684,48.77C295.546,419.444,293.66,419.001,291.668,419.001z
		 M299.003,421.177l26.863-49.097l39.9,13.025c-0.06,0.541-0.097,1.088-0.097,1.645c0,2.763,0.774,5.339,2.095,7.549l-64.442,31.409
		C302.253,423.881,300.774,422.327,299.003,421.177z M353.13,437.001c-5.785,0-10.706,3.646-12.627,8.76l-35.636-10.436
		c0.194-0.911,0.301-1.854,0.301-2.823c0-1.767-0.349-3.45-0.966-4.997l64.709-31.539c1.525,1.902,3.505,3.422,5.783,4.383
		l-16.936,37.484C356.312,437.304,354.758,437.001,353.13,437.001z M360.929,439.494c-0.432-0.306-0.876-0.596-1.343-0.851
		l17.015-37.659c1.219,0.326,2.495,0.517,3.817,0.517c4.409,0,8.355-1.945,11.058-5.011l3,2.403L360.929,439.494z M395.748,397.352
		l-3.047-2.441c1.556-2.337,2.466-5.141,2.466-8.16c0-2.49-0.623-4.833-1.713-6.891l51.607-42.981
		c0.117,0.121,0.237,0.239,0.359,0.355L395.748,397.352z M442.675,321.499l-33.238-10.957l29.286-83.675
		c0.814,0.2,1.66,0.318,2.536,0.318c0.095,0,0.186-0.012,0.281-0.014l10.601,87.089C447.98,315.078,444.512,317.811,442.675,321.499
		z M454.964,314.011c-0.069-0.001-0.135-0.01-0.204-0.01c-0.214,0-0.422,0.022-0.633,0.032l-10.602-87.097
		c4.068-0.887,7.265-4.108,8.107-8.193l11.749,1.296L454.964,314.011z"/>
	<g>
		<radialGradient id="SVGID_2_" cx="342.8111" cy="237.5372" r="155.767" gradientUnits="userSpaceOnUse">
			<stop  offset="0" style="stop-color:#FFFFFF"/>
			<stop  offset="1" style="stop-color:#FFFFFF;stop-opacity:0.5"/>
		</radialGradient>
		<path style="fill:url(#SVGID_2_);" d="M473.503,289.891l7.786-1.31c-0.702,1.991,0.117,3.766,1.636,5.01
			C484.937,281.357,486,268.803,486,256c0-76.37-37.232-144.034-94.524-185.865c-5.985,4.389-11.893,8.734-14.476,13.532
			c-18.667,34.667-60.132,29.84-64.667,54c-0.622,3.314-0.836,7.777-4.176,7.321c-9.08-1.241,30.843-27.988-20.559-32.029
			C278.986,112.281,259.988,126.895,257,135c-1.522,4.128-9.584,22.364-8.667,26.667c1.185,5.558,25.879,5.945,22.241,12.157
			c-0.821,1.402-1.991,2.579-3.341,3.482c-5.122,3.425-11.256,3.284-16.861,5.059c-13.469,4.263-21.221,18.362-28.181,30.212
			c-1.299,2.211-1.82,4.838-1.234,7.335c1.805,7.685,13.339,10.53,17.69,5.152c27.019-33.397,20.599,0.81,36.353-3.397
			c7.435-1.985,7.193,4.656,14.667,7.333c3.585,1.285,10.28-4.731,12-1.333c4.25,8.395,13.002,6.739,5.474,9.158
			c-5.927,1.905-12.516-0.846-18.531,0.76c-20.277,5.415-37.385-10.25-52.944-4.585c-15.559,5.665-33.345,27.656-36,44
			c-0.699,4.3,7.039,18.626,8.667,22.667c3.309,8.213,19.591,4.56,28,7.333c8.409,2.773,10.001,2.398,16.975,7.854
			c11.758,9.197,14.213,25.821,14.647,40.742c0.434,14.921,0.073,30.992,8.587,43.253c1.284,1.849,2.792,3.606,4.745,4.724
			c4.928,2.82,11.247,0.867,16.051-2.161c12.913-8.138,24.995-35.746,38.329-46.413c11.919-9.535-3.396-20.07,5.862-32.205
			c7.172-9.401,17.551-17.468,19.341-29.156c-4.434-1.178-8.662-2.982-12.604-5.282c2.877-1.168,6.266-3.231,8.069-3.356
			c8.669-0.601,13.408-10.748,20.109-15.755c0.547-0.409,1.064-0.864,1.474-1.411c2.506-3.346-9.079-3.415-11.583-5.501
			c-8.908-7.419-10.099-12.637-20-18.667c14.448-6.702,6.402,6.198,21.1,12.333c3.469,1.448,22.167-1.06,29.566,5.667
			c7.333,6.667,10.257,7.021,11.333,14.667c1.391,9.879,9.138,17.028,14.667,25.333c6.682-4.845,8.734-13.288,12.024-20.857
			c3.349-7.702,6.445-17.909,14.806-18.7c7.009-0.663,10.427,13.326,11.836,20.224c1.409,6.898,10-2.667,10,14
			c0,5.547,3.171,8.36,6.667,12.667c0.478,0.589,0.797,1.257,1.043,1.951c0.577-2.355,1.122-4.722,1.626-7.105
			C475.9,301.545,471.649,299.899,473.503,289.891z M320.547,243.472c6.656,0.041,7.355,15.11,9.12,21.528
			c0.821,2.984,1.716,6.422,2.964,9.784C325.522,265.875,321.038,254.874,320.547,243.472z"/>
		<radialGradient id="SVGID_3_" cx="176.4833" cy="92.0426" r="53.8897" gradientUnits="userSpaceOnUse">
			<stop  offset="0" style="stop-color:#FFFFFF"/>
			<stop  offset="1" style="stop-color:#FFFFFF;stop-opacity:0.5"/>
		</radialGradient>
		<path style="fill:url(#SVGID_3_);" d="M133.521,73.005c7.913,13.321,10.235,29.848,6.3,44.835
			c-1.193,4.544-2.947,9.035-2.956,13.733c-0.011,5.63,2.478,10.927,4.914,16.003c0.627,1.307,1.291,2.66,2.423,3.566
			c3.644,2.912,8.876-0.52,11.973-4.008c8.899-10.023,16.658-22.65,29.555-26.3c2.582-0.731,5.431-1.135,7.377-2.982
			c1.433-1.359,2.142-3.297,2.725-5.184c4.19-13.542,4.376-28.248,10.041-41.243c2.426-5.565,0.386-17.175,6.452-16.927
			c24.282,0.99,1.238-11.242-4.51-17.812c-1.294-1.479-2.448-3.143-3.568-4.837c-26.956,6.198-52.093,17.145-74.506,31.894
			C129.769,67.084,131.795,70.1,133.521,73.005z"/>
		<g>
			<radialGradient id="SVGID_4_" cx="94.4263" cy="346.6803" r="74.087" gradientUnits="userSpaceOnUse">
				<stop  offset="0" style="stop-color:#FFFFFF"/>
				<stop  offset="1" style="stop-color:#FFFFFF;stop-opacity:0.5"/>
			</radialGradient>
			<path style="fill:url(#SVGID_4_);" d="M137.667,323.667c-14.972-5.575-17.35-15.994-29.512-26.354
				c-2.676-2.28-5.346-4.712-8.631-5.961c-2.786-1.059-5.824-1.193-8.802-1.314c-9.017-0.368-21.37,5.997-30.387,5.629
				c-4.649-0.19-7.57-5.768-7.867-1.125C33,283,42.599,274.14,35.667,267c-1.023-1.054-8.295,6.502-8.853,5.143
				c-0.133-0.324-0.228-0.654-0.304-0.987c0.379,5.824,0.974,11.588,1.779,17.285c3.246,2.648,6.616,5.125,10.276,7.154
				c5.61,3.11,11.838,5.149,17.01,8.943c5.172,3.794,0.124,4.859-1.241,11.127C53.319,320.326,50.631,322.519,49,327
				c-2.488,6.837,8.48,21.234,12.972,26.958c4.492,5.723,10.461,10.094,15.44,15.399c1.735,1.849,3.392,3.89,4.083,6.33
				c0.593,2.096,0.427,4.323,0.256,6.495c-0.576,7.3-1.151,14.6-1.727,21.9c6.683,7.934,13.884,15.418,21.567,22.382
				c12.651-13.38,17.332-27.901,28.075-44.129c3.49-5.272,20.566-7.864,22.563-13.862c1.645-4.938,2.2-10.161,2.744-15.337
				c0.669-6.36,6.69-5.773,7.359-12.134c0.31-2.943-6.965-10.245-8.667-12.667C152.172,326.206,140.103,324.574,137.667,323.667z"/>
			<radialGradient id="SVGID_5_" cx="73.8067" cy="203.5297" r="57.1784" gradientUnits="userSpaceOnUse">
				<stop  offset="0" style="stop-color:#FFFFFF"/>
				<stop  offset="1" style="stop-color:#FFFFFF;stop-opacity:0.5"/>
			</radialGradient>
			<path style="fill:url(#SVGID_5_);" d="M26.357,268.747c0.161-1.891,0.876-3.817,1.592-5.604c1.477-3.688,3.059-7.527,6.078-10.11
				c3.018-2.583,7.937-3.415,10.875-0.741c3.04,2.767,3.923,8.739,8.032,8.622c6.01-4.621,4.599-14,7.68-20.927
				c1.697-3.816,4.767-6.831,7.864-9.632c8.475-7.664,10.05-20.156,19.856-26.022c11.187-6.692,32.332-8.716,33.235-21.721
				c0.405-5.835-1.99-11.459-4.336-16.817c-4.671-10.668-8.228-6.794-12.899-17.462c-7.105,0.613-15.235-12.283-21.871-9.671
				c-2.249,0.885-4.539,1.944-6.07,3.813c-1.424,1.738,2.773,18.437,1.941,20.525c-3.442,8.642-8,20-26.827-3.833
				c-0.927-1.173-1.709-2.426-2.408-3.723C34.307,185.822,26,219.94,26,256C26,260.278,26.126,264.526,26.357,268.747z"/>
		</g>
	</g>
</g>
</svg>
