<?xml version="1.0" encoding="utf-8"?>
<!-- Generator: Adobe Illustrator 18.0.0, SVG Export Plug-In . SVG Version: 6.00 Build 0)  -->
<!DOCTYPE svg PUBLIC "-//W3C//DTD SVG 1.1//EN" "http://www.w3.org/Graphics/SVG/1.1/DTD/svg11.dtd">
<svg version="1.1" id="Layer_1" xmlns="http://www.w3.org/2000/svg" xmlns:xlink="http://www.w3.org/1999/xlink" x="0px" y="0px"
	 viewBox="0 0 512 512" enable-background="new 0 0 512 512" xml:space="preserve">
<path fill="#F2F2F2" d="M412.9,486H99.1c-5.5,0-10-4.5-10-10V36c0-5.5,4.5-10,10-10H413c5.5,0,10,4.5,10,10v440
	C422.9,481.5,418.5,486,412.9,486z"/>
<g>
	<g>
		<path fill="#E4E9EA" d="M396.8,73.2H115.2c-0.8,0-1.5-0.7-1.5-1.5l0,0c0-0.8,0.7-1.5,1.5-1.5h281.7c0.8,0,1.5,0.7,1.5,1.5l0,0
			C398.3,72.5,397.7,73.2,396.8,73.2z"/>
	</g>
	<g>
		<path fill="#E4E9EA" d="M396.8,93.6H115.2c-0.8,0-1.5-0.7-1.5-1.5l0,0c0-0.8,0.7-1.5,1.5-1.5h281.7c0.8,0,1.5,0.7,1.5,1.5l0,0
			C398.3,93,397.7,93.6,396.8,93.6z"/>
	</g>
	<g>
		<path fill="#E4E9EA" d="M396.8,114.1H115.2c-0.8,0-1.5-0.7-1.5-1.5l0,0c0-0.8,0.7-1.5,1.5-1.5h281.7c0.8,0,1.5,0.7,1.5,1.5l0,0
			C398.3,113.5,397.7,114.1,396.8,114.1z"/>
	</g>
	<g>
		<path fill="#E4E9EA" d="M396.8,134.6H115.2c-0.8,0-1.5-0.7-1.5-1.5l0,0c0-0.8,0.7-1.5,1.5-1.5h281.7c0.8,0,1.5,0.7,1.5,1.5l0,0
			C398.3,133.9,397.7,134.6,396.8,134.6z"/>
	</g>
	<g>
		<path fill="#E4E9EA" d="M396.8,155.1H115.2c-0.8,0-1.5-0.7-1.5-1.5l0,0c0-0.8,0.7-1.5,1.5-1.5h281.7c0.8,0,1.5,0.7,1.5,1.5l0,0
			C398.3,154.4,397.7,155.1,396.8,155.1z"/>
	</g>
	<g>
		<path fill="#E4E9EA" d="M396.8,175.6H115.2c-0.8,0-1.5-0.7-1.5-1.5l0,0c0-0.8,0.7-1.5,1.5-1.5h281.7c0.8,0,1.5,0.7,1.5,1.5l0,0
			C398.3,174.9,397.7,175.6,396.8,175.6z"/>
	</g>
	<g>
		<path fill="#E4E9EA" d="M396.8,196.1H115.2c-0.8,0-1.5-0.7-1.5-1.5l0,0c0-0.8,0.7-1.5,1.5-1.5h281.7c0.8,0,1.5,0.7,1.5,1.5l0,0
			C398.3,195.4,397.7,196.1,396.8,196.1z"/>
	</g>
	<g>
		<path fill="#E4E9EA" d="M396.8,216.5H115.2c-0.8,0-1.5-0.7-1.5-1.5l0,0c0-0.8,0.7-1.5,1.5-1.5h281.7c0.8,0,1.5,0.7,1.5,1.5l0,0
			C398.3,215.9,397.7,216.5,396.8,216.5z"/>
	</g>
	<g>
		<path fill="#E4E9EA" d="M396.8,237H115.2c-0.8,0-1.5-0.7-1.5-1.5l0,0c0-0.8,0.7-1.5,1.5-1.5h281.7c0.8,0,1.5,0.7,1.5,1.5l0,0
			C398.3,236.3,397.7,237,396.8,237z"/>
	</g>
	<g>
		<path fill="#E4E9EA" d="M396.8,257.5H115.2c-0.8,0-1.5-0.7-1.5-1.5l0,0c0-0.8,0.7-1.5,1.5-1.5h281.7c0.8,0,1.5,0.7,1.5,1.5l0,0
			C398.3,256.8,397.7,257.5,396.8,257.5z"/>
	</g>
	<g>
		<path fill="#E4E9EA" d="M396.8,278H115.2c-0.8,0-1.5-0.7-1.5-1.5l0,0c0-0.8,0.7-1.5,1.5-1.5h281.7c0.8,0,1.5,0.7,1.5,1.5l0,0
			C398.3,277.3,397.7,278,396.8,278z"/>
	</g>
	<g>
		<path fill="#E4E9EA" d="M396.8,298.5H115.2c-0.8,0-1.5-0.7-1.5-1.5l0,0c0-0.8,0.7-1.5,1.5-1.5h281.7c0.8,0,1.5,0.7,1.5,1.5l0,0
			C398.3,297.8,397.7,298.5,396.8,298.5z"/>
	</g>
	<g>
		<path fill="#E4E9EA" d="M396.8,318.9H115.2c-0.8,0-1.5-0.7-1.5-1.5l0,0c0-0.8,0.7-1.5,1.5-1.5h281.7c0.8,0,1.5,0.7,1.5,1.5l0,0
			C398.3,318.3,397.7,318.9,396.8,318.9z"/>
	</g>
	<g>
		<path fill="#E4E9EA" d="M396.8,339.4H115.2c-0.8,0-1.5-0.7-1.5-1.5l0,0c0-0.8,0.7-1.5,1.5-1.5h281.7c0.8,0,1.5,0.7,1.5,1.5l0,0
			C398.3,338.8,397.7,339.4,396.8,339.4z"/>
	</g>
	<g>
		<path fill="#E4E9EA" d="M396.8,359.9H115.2c-0.8,0-1.5-0.7-1.5-1.5l0,0c0-0.8,0.7-1.5,1.5-1.5h281.7c0.8,0,1.5,0.7,1.5,1.5l0,0
			C398.3,359.2,397.7,359.9,396.8,359.9z"/>
	</g>
	<g>
		<path fill="#E4E9EA" d="M396.8,380.4H115.2c-0.8,0-1.5-0.7-1.5-1.5l0,0c0-0.8,0.7-1.5,1.5-1.5h281.7c0.8,0,1.5,0.7,1.5,1.5l0,0
			C398.3,379.7,397.7,380.4,396.8,380.4z"/>
	</g>
	<g>
		<path fill="#E4E9EA" d="M396.8,400.9H115.2c-0.8,0-1.5-0.7-1.5-1.5l0,0c0-0.8,0.7-1.5,1.5-1.5h281.7c0.8,0,1.5,0.7,1.5,1.5l0,0
			C398.3,400.2,397.7,400.9,396.8,400.9z"/>
	</g>
	<g>
		<path fill="#E4E9EA" d="M396.8,421.4H115.2c-0.8,0-1.5-0.7-1.5-1.5l0,0c0-0.8,0.7-1.5,1.5-1.5h281.7c0.8,0,1.5,0.7,1.5,1.5l0,0
			C398.3,420.7,397.7,421.4,396.8,421.4z"/>
	</g>
	<g>
		<path fill="#E4E9EA" d="M396.8,441.8H115.2c-0.8,0-1.5-0.7-1.5-1.5l0,0c0-0.8,0.7-1.5,1.5-1.5h281.7c0.8,0,1.5,0.7,1.5,1.5l0,0
			C398.3,441.2,397.7,441.8,396.8,441.8z"/>
	</g>
</g>
<g id="Layer_2_1_">
	<g>
		<polygon fill="#566268" points="210.5,332.1 210.6,332.1 343.4,199.3 328.1,184 168.7,343.4 		"/>
		<polygon fill="#FFFFFF" points="179.9,301.5 179.9,301.5 168.6,343.4 168.7,343.4 328.1,184 312.7,168.6 		"/>
	</g>
</g>
</svg>
