<?xml version="1.0" encoding="utf-8"?>
<!-- Generator: Adobe Illustrator 18.0.0, SVG Export Plug-In . SVG Version: 6.00 Build 0)  -->
<!DOCTYPE svg PUBLIC "-//W3C//DTD SVG 1.1//EN" "http://www.w3.org/Graphics/SVG/1.1/DTD/svg11.dtd">
<svg version="1.1" id="Layer_3" xmlns="http://www.w3.org/2000/svg" xmlns:xlink="http://www.w3.org/1999/xlink" x="0px" y="0px"
	 viewBox="0 0 512 512" style="enable-background:new 0 0 512 512;" xml:space="preserve">
<g>
	<g>
		<path style="fill:#FF8B00;" d="M446,485H256V255h230v190C486,467.091,468.091,485,446,485z"/>
		<path style="fill:#E5E5E5;" d="M256,485H66c-22.091,0-40-17.909-40-40V255h230V485z"/>
		<g>
			<polygon style="fill:#FF8B00;" points="116.652,316.744 99.135,316.744 99.135,299.227 88.312,299.227 88.312,316.744 
				70.795,316.744 70.795,327.567 88.312,327.567 88.312,345.084 99.135,345.084 99.135,327.567 116.652,327.567 			"/>
			<polygon style="fill:#FF8B00;" points="202.314,303.252 189.927,315.639 177.541,303.252 169.888,310.905 182.274,323.292 
				169.888,335.678 177.541,343.331 189.927,330.945 202.314,343.331 209.967,335.678 197.58,323.292 209.967,310.905 			"/>
			<rect x="70.795" y="414.084" style="fill:#FF8B00;" width="45.857" height="10.823"/>
			<g>
				
					<rect x="166.999" y="414.084" transform="matrix(-0.7071 0.7071 -0.7071 -0.7071 620.8542 581.8245)" style="fill:#FF8B00;" width="45.857" height="10.823"/>
				<g>
					<circle style="fill:#FF8B00;" cx="174.952" cy="404.52" r="6.302"/>
					<circle style="fill:#FF8B00;" cx="204.903" cy="434.471" r="6.302"/>
				</g>
			</g>
		</g>
		<g>
			<rect x="317.172" y="325.979" style="fill:#F9F9F9;" width="109.655" height="26.833"/>
			<rect x="317.172" y="387.187" style="fill:#F9F9F9;" width="109.655" height="26.833"/>
		</g>
	</g>
	<path style="fill:#303030;" d="M486,255.101H26v-190c0-22.091,17.909-40,40-40h380c22.091,0,40,17.909,40,40V255.101z"/>
</g>
<g>
	<path style="fill:#FFFFFF;" d="M83.179,137.715H91.9c5.479-0.083,9.788-1.526,12.925-4.329c3.137-2.802,4.706-6.588,4.706-11.356
		c0-10.708-5.333-16.062-15.999-16.062c-5.02,0-9.025,1.433-12.015,4.298c-2.991,2.865-4.486,6.661-4.486,11.388H65.423
		c0-7.236,2.645-13.249,7.937-18.039c5.291-4.789,12.015-7.184,20.171-7.184c8.616,0,15.372,2.28,20.265,6.839
		c4.894,4.56,7.341,10.896,7.341,19.011c0,3.974-1.286,7.822-3.858,11.544c-2.572,3.723-6.076,6.504-10.509,8.344
		c5.02,1.59,8.898,4.226,11.639,7.906c2.739,3.681,4.109,8.178,4.109,13.489c0,8.199-2.677,14.703-8.031,19.513
		c-5.354,4.811-12.319,7.215-20.893,7.215c-8.575,0-15.55-2.321-20.924-6.964c-5.375-4.643-8.062-10.77-8.062-18.383h11.67
		c0,4.811,1.568,8.658,4.706,11.544c3.137,2.886,7.341,4.329,12.611,4.329c5.604,0,9.892-1.463,12.862-4.392
		c2.97-2.928,4.455-7.131,4.455-12.611c0-5.312-1.631-9.39-4.894-12.234c-3.263-2.844-7.968-4.308-14.117-4.392h-8.721V137.715z"/>
	<path style="fill:#FFFFFF;" d="M139.897,182.952c0-2.008,0.596-3.68,1.788-5.02c1.192-1.338,2.98-2.007,5.365-2.007
		c2.384,0,4.193,0.669,5.427,2.007c1.233,1.339,1.851,3.012,1.851,5.02c0,1.924-0.618,3.535-1.851,4.831
		c-1.234,1.296-3.043,1.945-5.427,1.945c-2.384,0-4.172-0.649-5.365-1.945C140.493,186.487,139.897,184.876,139.897,182.952z"/>
	<path style="fill:#FFFFFF;" d="M210.419,189.038h-11.67v-77.36l-23.403,8.596v-10.541l33.253-12.486h1.82V189.038z"/>
	<path style="fill:#FFFFFF;" d="M293.426,158.357H306.1v9.474h-12.674v21.207h-11.67v-21.207h-41.598v-6.839l40.907-63.306h12.361
		V158.357z M253.334,158.357h28.422V113.56l-1.381,2.51L253.334,158.357z"/>
	<path style="fill:#FFFFFF;" d="M354.724,189.038h-11.67v-77.36l-23.402,8.596v-10.541l33.253-12.486h1.819V189.038z"/>
	<path style="fill:#FFFFFF;" d="M394.063,143.236l4.643-45.55h46.806v10.729h-36.955l-2.761,24.909
		c4.476-2.635,9.558-3.953,15.246-3.953c8.323,0,14.933,2.75,19.826,8.25c4.895,5.5,7.341,12.936,7.341,22.304
		c0,9.412-2.541,16.826-7.623,22.242c-5.082,5.417-12.183,8.125-21.301,8.125c-8.072,0-14.66-2.237-19.764-6.713
		c-5.104-4.475-8.01-10.666-8.721-18.571h10.979c0.711,5.229,2.573,9.171,5.584,11.827c3.012,2.657,6.985,3.984,11.921,3.984
		c5.396,0,9.631-1.84,12.705-5.521c3.075-3.68,4.612-8.762,4.612-15.247c0-6.106-1.663-11.011-4.988-14.713
		c-3.325-3.702-7.749-5.552-13.27-5.552c-5.062,0-9.035,1.108-11.921,3.325l-3.074,2.51L394.063,143.236z"/>
</g>
</svg>
