<?xml version="1.0" encoding="utf-8"?>
<!-- Generator: Adobe Illustrator 18.0.0, SVG Export Plug-In . SVG Version: 6.00 Build 0)  -->
<!DOCTYPE svg PUBLIC "-//W3C//DTD SVG 1.1//EN" "http://www.w3.org/Graphics/SVG/1.1/DTD/svg11.dtd">
<svg version="1.1" id="Layer_1" xmlns="http://www.w3.org/2000/svg" xmlns:xlink="http://www.w3.org/1999/xlink" x="0px" y="0px"
	 viewBox="0 0 512 512" enable-background="new 0 0 512 512" xml:space="preserve">
<g>
	<path fill="#AA2BBC" d="M436.1,435.1l-288,50.8c-2.5,0.4-4.8-1.2-5.2-3.7L72.3,82.1c-0.4-2.5,1.2-4.8,3.7-5.2l288-50.8
		c2.5-0.4,4.8,1.2,5.2,3.7l70.6,400.2C440.2,432.4,438.5,434.7,436.1,435.1z"/>
	<g opacity="0.3">
		
			<linearGradient id="SVGID_1_" gradientUnits="userSpaceOnUse" x1="180.628" y1="105.2551" x2="180.628" y2="406.7447" gradientTransform="matrix(0.9848 -0.1736 -0.1736 -0.9848 48.3431 552.5646)">
			<stop  offset="0" style="stop-color:#FFFFFF;stop-opacity:0.2"/>
			<stop  offset="1" style="stop-color:#FFFFFF;stop-opacity:0"/>
		</linearGradient>
		<polygon fill="url(#SVGID_1_)" points="133.7,430.6 256,256 81.4,133.7 		"/>
		
			<linearGradient id="SVGID_2_" gradientUnits="userSpaceOnUse" x1="256.0004" y1="255.9999" x2="256.0004" y2="463.6933" gradientTransform="matrix(0.9848 -0.1736 -0.1736 -0.9848 48.3431 552.5646)">
			<stop  offset="0" style="stop-color:#FFFFFF;stop-opacity:0.2"/>
			<stop  offset="1" style="stop-color:#FFFFFF;stop-opacity:0"/>
		</linearGradient>
		<path fill="url(#SVGID_2_)" d="M256,256L378.3,81.4l-9.1-51.6c-0.4-2.5-2.8-4.1-5.2-3.7l-288,50.8c-2.5,0.4-4.1,2.8-3.7,5.2
			l9.1,51.6L256,256z"/>
		
			<linearGradient id="SVGID_3_" gradientUnits="userSpaceOnUse" x1="256.0004" y1="48.3065" x2="256.0004" y2="255.9999" gradientTransform="matrix(0.9848 -0.1736 -0.1736 -0.9848 48.3431 552.5646)">
			<stop  offset="0" style="stop-color:#FFFFFF;stop-opacity:0.2"/>
			<stop  offset="1" style="stop-color:#FFFFFF;stop-opacity:0"/>
		</linearGradient>
		<path fill="url(#SVGID_3_)" d="M439.7,429.9l-9.1-51.6L256,256L133.7,430.6l9.1,51.6c0.4,2.5,2.8,4.1,5.2,3.7l288-50.8
			C438.5,434.7,440.2,432.4,439.7,429.9z"/>
		
			<linearGradient id="SVGID_4_" gradientUnits="userSpaceOnUse" x1="331.3728" y1="105.2551" x2="331.3728" y2="406.7447" gradientTransform="matrix(0.9848 -0.1736 -0.1736 -0.9848 48.3431 552.5646)">
			<stop  offset="0" style="stop-color:#FFFFFF;stop-opacity:0.2"/>
			<stop  offset="1" style="stop-color:#FFFFFF;stop-opacity:0"/>
		</linearGradient>
		<polygon fill="url(#SVGID_4_)" points="430.6,378.3 378.3,81.4 256,256 		"/>
	</g>
	<g opacity="0.5">
		
			<linearGradient id="SVGID_5_" gradientUnits="userSpaceOnUse" x1="241.7633" y1="270.2371" x2="419.6598" y2="448.1336" gradientTransform="matrix(0.9848 -0.1736 -0.1736 -0.9848 48.3431 552.5646)">
			<stop  offset="0" style="stop-color:#FFFFFF;stop-opacity:0.2"/>
			<stop  offset="1" style="stop-color:#FFFFFF;stop-opacity:0"/>
		</linearGradient>
		<path fill="url(#SVGID_5_)" d="M404.5,229.8L256,256L219.9,51.5l144-25.4c2.5-0.4,4.8,1.2,5.2,3.7L404.5,229.8z"/>
		
			<linearGradient id="SVGID_6_" gradientUnits="userSpaceOnUse" x1="91.6791" y1="269.5756" x2="270.8987" y2="448.7951" gradientTransform="matrix(0.9848 -0.1736 -0.1736 -0.9848 48.3431 552.5646)">
			<stop  offset="0" style="stop-color:#FFFFFF;stop-opacity:0.2"/>
			<stop  offset="1" style="stop-color:#FFFFFF;stop-opacity:0"/>
		</linearGradient>
		<path fill="url(#SVGID_6_)" d="M256,256l-148.5,26.2L72.3,82.1c-0.4-2.5,1.2-4.8,3.7-5.2l144-25.4L256,256z"/>
		
			<linearGradient id="SVGID_7_" gradientUnits="userSpaceOnUse" x1="241.1021" y1="63.2049" x2="420.3212" y2="242.4239" gradientTransform="matrix(0.9848 -0.1736 -0.1736 -0.9848 48.3431 552.5646)">
			<stop  offset="0" style="stop-color:#FFFFFF;stop-opacity:0.2"/>
			<stop  offset="1" style="stop-color:#FFFFFF;stop-opacity:0"/>
		</linearGradient>
		<path fill="url(#SVGID_7_)" d="M436.1,435.1l-144,25.4L256,256l148.5-26.2l35.3,200.1C440.2,432.4,438.5,434.7,436.1,435.1z"/>
		
			<linearGradient id="SVGID_8_" gradientUnits="userSpaceOnUse" x1="92.3404" y1="63.866" x2="270.2374" y2="241.763" gradientTransform="matrix(0.9848 -0.1736 -0.1736 -0.9848 48.3431 552.5646)">
			<stop  offset="0" style="stop-color:#FFFFFF;stop-opacity:0.2"/>
			<stop  offset="1" style="stop-color:#FFFFFF;stop-opacity:0"/>
		</linearGradient>
		<path fill="url(#SVGID_8_)" d="M292.1,460.5l-144,25.4c-2.5,0.4-4.8-1.2-5.2-3.7l-35.3-200.1L256,256L292.1,460.5z"/>
	</g>
	<g>
		<rect x="167.9" y="280.3" transform="matrix(-0.9848 0.1736 -0.1736 -0.9848 475.694 535.2139)" width="93.1" height="16.2"/>
		<rect x="172.6" y="303.3" transform="matrix(-0.9848 0.1736 -0.1736 -0.9848 581.5867 571.9647)" width="186.3" height="16.2"/>
		<rect x="178" y="333.5" transform="matrix(-0.9848 0.1736 -0.1736 -0.9848 597.3925 630.9527)" width="186.3" height="16.2"/>
		<rect x="275.7" y="355.7" transform="matrix(-0.9848 0.1736 -0.1736 -0.9848 702.7722 666.1125)" width="93" height="16.2"/>
	</g>
</g>
<g id="Layer_2_1_">
	<g>
		<polygon fill="#777777" points="218.8,318.1 218.9,318.1 327.4,209.7 314.9,197.2 184.7,327.4 		"/>
		<polygon fill="#FFFFFF" points="193.9,293.2 193.9,293.2 184.6,327.4 184.7,327.4 314.9,197.2 302.3,184.6 		"/>
	</g>
</g>
</svg>
