<?xml version="1.0" encoding="utf-8"?>
<!-- Generator: Adobe Illustrator 18.0.0, SVG Export Plug-In . SVG Version: 6.00 Build 0)  -->
<!DOCTYPE svg PUBLIC "-//W3C//DTD SVG 1.1//EN" "http://www.w3.org/Graphics/SVG/1.1/DTD/svg11.dtd">
<svg version="1.1" id="Layer_1" xmlns="http://www.w3.org/2000/svg" xmlns:xlink="http://www.w3.org/1999/xlink" x="0px" y="0px"
	 viewBox="0 0 512 512" enable-background="new 0 0 512 512" xml:space="preserve">
<linearGradient id="SVGID_1_" gradientUnits="userSpaceOnUse" x1="89.0645" y1="256" x2="422.9355" y2="256">
	<stop  offset="0" style="stop-color:#F6F6F6"/>
	<stop  offset="1" style="stop-color:#EEEEEE"/>
</linearGradient>
<path fill="url(#SVGID_1_)" d="M420.9,486H91.1c-1.1,0-2-0.9-2-2V28c0-1.1,0.9-2,2-2h329.9c1.1,0,2,0.9,2,2v456
	C422.9,485.1,422,486,420.9,486z"/>
<g opacity="0.2">
	<g>
		<path fill="#8C8A88" d="M407.3,73.2H104.6c-0.9,0-1.6-0.7-1.6-1.5l0,0c0-0.8,0.8-1.5,1.6-1.5h302.7c0.9,0,1.6,0.7,1.6,1.5l0,0
			C408.9,72.5,408.2,73.2,407.3,73.2z"/>
	</g>
	<g>
		<path fill="#8C8A88" d="M407.3,93.6H104.6c-0.9,0-1.6-0.7-1.6-1.5l0,0c0-0.8,0.8-1.5,1.6-1.5h302.7c0.9,0,1.6,0.7,1.6,1.5l0,0
			C408.9,93,408.2,93.6,407.3,93.6z"/>
	</g>
	<g>
		<path fill="#8C8A88" d="M407.3,114.1H104.6c-0.9,0-1.6-0.7-1.6-1.5l0,0c0-0.8,0.8-1.5,1.6-1.5h302.7c0.9,0,1.6,0.7,1.6,1.5l0,0
			C408.9,113.5,408.2,114.1,407.3,114.1z"/>
	</g>
	<g>
		<path fill="#8C8A88" d="M407.3,134.6H104.6c-0.9,0-1.6-0.7-1.6-1.5l0,0c0-0.8,0.8-1.5,1.6-1.5h302.7c0.9,0,1.6,0.7,1.6,1.5l0,0
			C408.9,133.9,408.2,134.6,407.3,134.6z"/>
	</g>
	<g>
		<path fill="#8C8A88" d="M407.3,155.1H104.6c-0.9,0-1.6-0.7-1.6-1.5l0,0c0-0.8,0.8-1.5,1.6-1.5h302.7c0.9,0,1.6,0.7,1.6,1.5l0,0
			C408.9,154.4,408.2,155.1,407.3,155.1z"/>
	</g>
	<g>
		<path fill="#8C8A88" d="M407.3,175.6H104.6c-0.9,0-1.6-0.7-1.6-1.5l0,0c0-0.8,0.8-1.5,1.6-1.5h302.7c0.9,0,1.6,0.7,1.6,1.5l0,0
			C408.9,174.9,408.2,175.6,407.3,175.6z"/>
	</g>
	<g>
		<path fill="#8C8A88" d="M407.3,196.1H104.6c-0.9,0-1.6-0.7-1.6-1.5l0,0c0-0.8,0.8-1.5,1.6-1.5h302.7c0.9,0,1.6,0.7,1.6,1.5l0,0
			C408.9,195.4,408.2,196.1,407.3,196.1z"/>
	</g>
	<g>
		<path fill="#8C8A88" d="M407.3,216.5H104.6c-0.9,0-1.6-0.7-1.6-1.5l0,0c0-0.8,0.8-1.5,1.6-1.5h302.7c0.9,0,1.6,0.7,1.6,1.5l0,0
			C408.9,215.9,408.2,216.5,407.3,216.5z"/>
	</g>
	<g>
		<path fill="#8C8A88" d="M407.3,237H104.6c-0.9,0-1.6-0.7-1.6-1.5l0,0c0-0.8,0.8-1.5,1.6-1.5h302.7c0.9,0,1.6,0.7,1.6,1.5l0,0
			C408.9,236.3,408.2,237,407.3,237z"/>
	</g>
	<g>
		<path fill="#8C8A88" d="M407.3,257.5H104.6c-0.9,0-1.6-0.7-1.6-1.5l0,0c0-0.8,0.8-1.5,1.6-1.5h302.7c0.9,0,1.6,0.7,1.6,1.5l0,0
			C408.9,256.8,408.2,257.5,407.3,257.5z"/>
	</g>
	<g>
		<path fill="#8C8A88" d="M407.3,278H104.6c-0.9,0-1.6-0.7-1.6-1.5l0,0c0-0.8,0.8-1.5,1.6-1.5h302.7c0.9,0,1.6,0.7,1.6,1.5l0,0
			C408.9,277.3,408.2,278,407.3,278z"/>
	</g>
	<g>
		<path fill="#8C8A88" d="M407.3,298.5H104.6c-0.9,0-1.6-0.7-1.6-1.5l0,0c0-0.8,0.8-1.5,1.6-1.5h302.7c0.9,0,1.6,0.7,1.6,1.5l0,0
			C408.9,297.8,408.2,298.5,407.3,298.5z"/>
	</g>
	<g>
		<path fill="#8C8A88" d="M407.3,318.9H104.6c-0.9,0-1.6-0.7-1.6-1.5l0,0c0-0.8,0.8-1.5,1.6-1.5h302.7c0.9,0,1.6,0.7,1.6,1.5l0,0
			C408.9,318.3,408.2,318.9,407.3,318.9z"/>
	</g>
	<g>
		<path fill="#8C8A88" d="M407.3,339.4H104.6c-0.9,0-1.6-0.7-1.6-1.5l0,0c0-0.8,0.8-1.5,1.6-1.5h302.7c0.9,0,1.6,0.7,1.6,1.5l0,0
			C408.9,338.8,408.2,339.4,407.3,339.4z"/>
	</g>
	<g>
		<path fill="#8C8A88" d="M407.3,359.9H104.6c-0.9,0-1.6-0.7-1.6-1.5l0,0c0-0.8,0.8-1.5,1.6-1.5h302.7c0.9,0,1.6,0.7,1.6,1.5l0,0
			C408.9,359.2,408.2,359.9,407.3,359.9z"/>
	</g>
	<g>
		<path fill="#8C8A88" d="M407.3,380.4H104.6c-0.9,0-1.6-0.7-1.6-1.5l0,0c0-0.8,0.8-1.5,1.6-1.5h302.7c0.9,0,1.6,0.7,1.6,1.5l0,0
			C408.9,379.7,408.2,380.4,407.3,380.4z"/>
	</g>
	<g>
		<path fill="#8C8A88" d="M407.3,400.9H104.6c-0.9,0-1.6-0.7-1.6-1.5l0,0c0-0.8,0.8-1.5,1.6-1.5h302.7c0.9,0,1.6,0.7,1.6,1.5l0,0
			C408.9,400.2,408.2,400.9,407.3,400.9z"/>
	</g>
	<g>
		<path fill="#8C8A88" d="M407.3,421.4H104.6c-0.9,0-1.6-0.7-1.6-1.5l0,0c0-0.8,0.8-1.5,1.6-1.5h302.7c0.9,0,1.6,0.7,1.6,1.5l0,0
			C408.9,420.7,408.2,421.4,407.3,421.4z"/>
	</g>
	<g>
		<path fill="#8C8A88" d="M407.3,441.8H104.6c-0.9,0-1.6-0.7-1.6-1.5l0,0c0-0.8,0.8-1.5,1.6-1.5h302.7c0.9,0,1.6,0.7,1.6,1.5l0,0
			C408.9,441.2,408.2,441.8,407.3,441.8z"/>
	</g>
</g>
<g id="Layer_2_1_">
	<g>
		<polygon fill="#777777" points="218.8,318.1 218.9,318.1 327.4,209.7 314.9,197.2 184.7,327.4 		"/>
		<polygon fill="#FFFFFF" points="193.9,293.2 193.9,293.2 184.6,327.4 184.7,327.4 314.9,197.2 302.3,184.6 		"/>
	</g>
</g>
</svg>
