<?xml version="1.0" encoding="utf-8"?>
<!-- Generator: Adobe Illustrator 18.0.0, SVG Export Plug-In . SVG Version: 6.00 Build 0)  -->
<!DOCTYPE svg PUBLIC "-//W3C//DTD SVG 1.1//EN" "http://www.w3.org/Graphics/SVG/1.1/DTD/svg11.dtd">
<svg version="1.1" id="Layer_1" xmlns="http://www.w3.org/2000/svg" xmlns:xlink="http://www.w3.org/1999/xlink" x="0px" y="0px"
	 viewBox="0 0 512 512" enable-background="new 0 0 512 512" xml:space="preserve">
<g>
	<path fill="#AA2BBC" d="M441.7,433L142,485.8c-2.7,0.5-5.3-1.3-5.8-4.1l-70-397c-0.5-2.7,1.3-5.3,4.1-5.8L370,26.2
		c2.7-0.5,5.3,1.3,5.8,4.1l70,397C446.3,429.9,444.4,432.5,441.7,433z"/>
	<g>
		<rect x="152.6" y="283.5" transform="matrix(-0.9848 0.1736 -0.1736 -0.9848 461.9727 545.5236)" width="109.1" height="19"/>
		<rect x="158.2" y="310.4" transform="matrix(-0.9848 0.1736 -0.1736 -0.9848 586.0381 588.5809)" width="218.2" height="19"/>
		<rect x="164.4" y="345.8" transform="matrix(-0.9848 0.1736 -0.1736 -0.9848 604.5567 657.6932)" width="218.2" height="19"/>
		<rect x="278.9" y="371.8" transform="matrix(-0.9848 0.1736 -0.1736 -0.9848 728.0217 698.8876)" width="109" height="19"/>
	</g>
	<g>
		
			<linearGradient id="SVGID_1_" gradientUnits="userSpaceOnUse" x1="177.4183" y1="413.1635" x2="177.4183" y2="98.8365" gradientTransform="matrix(0.9848 -0.1736 0.1736 0.9848 -40.5647 48.3431)">
			<stop  offset="0" style="stop-color:#FFFFFF;stop-opacity:0.2"/>
			<stop  offset="1" style="stop-color:#FFFFFF;stop-opacity:0"/>
		</linearGradient>
		<polygon fill="url(#SVGID_1_)" points="128.5,438.1 256,256 73.9,128.5 		"/>
		
			<linearGradient id="SVGID_2_" gradientUnits="userSpaceOnUse" x1="256" y1="256" x2="256" y2="49.4423" gradientTransform="matrix(0.9848 -0.1736 0.1736 0.9848 -40.5647 48.3431)">
			<stop  offset="0" style="stop-color:#FFFFFF;stop-opacity:0.2"/>
			<stop  offset="1" style="stop-color:#FFFFFF;stop-opacity:0"/>
		</linearGradient>
		<path fill="url(#SVGID_2_)" d="M256,256L383.5,73.9l-7.8-44.2c-0.4-2.4-2.8-4.1-5.2-3.6l-300.7,53c-2.4,0.4-4.1,2.8-3.6,5.2
			l7.8,44.2L256,256z"/>
		
			<linearGradient id="SVGID_3_" gradientUnits="userSpaceOnUse" x1="256" y1="462.5577" x2="256" y2="256" gradientTransform="matrix(0.9848 -0.1736 0.1736 0.9848 -40.5647 48.3431)">
			<stop  offset="0" style="stop-color:#FFFFFF;stop-opacity:0.2"/>
			<stop  offset="1" style="stop-color:#FFFFFF;stop-opacity:0"/>
		</linearGradient>
		<path fill="url(#SVGID_3_)" d="M445.9,427.7l-7.8-44.2L256,256L128.5,438.1l7.8,44.2c0.4,2.4,2.8,4.1,5.2,3.6l300.7-53
			C444.7,432.5,446.3,430.1,445.9,427.7z"/>
		
			<linearGradient id="SVGID_4_" gradientUnits="userSpaceOnUse" x1="334.5817" y1="413.1635" x2="334.5817" y2="98.8365" gradientTransform="matrix(0.9848 -0.1736 0.1736 0.9848 -40.5647 48.3431)">
			<stop  offset="0" style="stop-color:#FFFFFF;stop-opacity:0.2"/>
			<stop  offset="1" style="stop-color:#FFFFFF;stop-opacity:0"/>
		</linearGradient>
		<polygon fill="url(#SVGID_4_)" points="438.1,383.5 383.5,73.9 256,256 		"/>
	</g>
	<g>
		
			<linearGradient id="SVGID_5_" gradientUnits="userSpaceOnUse" x1="87.1456" y1="267.6909" x2="269.0062" y2="449.5515" gradientTransform="matrix(0.9848 -0.1736 0.1736 0.9848 -40.5647 48.3431)">
			<stop  offset="0" style="stop-color:#FFFFFF;stop-opacity:0.2"/>
			<stop  offset="1" style="stop-color:#FFFFFF;stop-opacity:0"/>
		</linearGradient>
		<path fill="url(#SVGID_5_)" d="M136.3,482.3c0.4,2.4,2.8,4.1,5.2,3.6l150.4-26.5L256,256l-154.8,27.3L136.3,482.3z"/>
		
			<linearGradient id="SVGID_6_" gradientUnits="userSpaceOnUse" x1="87.8032" y1="63.1061" x2="268.3486" y2="243.6514" gradientTransform="matrix(0.9848 -0.1736 0.1736 0.9848 -40.5647 48.3431)">
			<stop  offset="0" style="stop-color:#FFFFFF;stop-opacity:0.2"/>
			<stop  offset="1" style="stop-color:#FFFFFF;stop-opacity:0"/>
		</linearGradient>
		<path fill="url(#SVGID_6_)" d="M256,256L220.1,52.6L69.8,79.1c-2.4,0.4-4.1,2.8-3.6,5.2l35.1,199L256,256z"/>
		
			<linearGradient id="SVGID_7_" gradientUnits="userSpaceOnUse" x1="243.6514" y1="268.3486" x2="424.1968" y2="448.894" gradientTransform="matrix(0.9848 -0.1736 0.1736 0.9848 -40.5647 48.3431)">
			<stop  offset="0" style="stop-color:#FFFFFF;stop-opacity:0.2"/>
			<stop  offset="1" style="stop-color:#FFFFFF;stop-opacity:0"/>
		</linearGradient>
		<path fill="url(#SVGID_7_)" d="M256,256l35.9,203.4l150.4-26.5c2.4-0.4,4.1-2.8,3.6-5.2l-35.1-199L256,256z"/>
		
			<linearGradient id="SVGID_8_" gradientUnits="userSpaceOnUse" x1="242.9938" y1="62.4485" x2="424.8544" y2="244.3091" gradientTransform="matrix(0.9848 -0.1736 0.1736 0.9848 -40.5647 48.3431)">
			<stop  offset="0" style="stop-color:#FFFFFF;stop-opacity:0.2"/>
			<stop  offset="1" style="stop-color:#FFFFFF;stop-opacity:0"/>
		</linearGradient>
		<path fill="url(#SVGID_8_)" d="M370.5,26.1L220.1,52.6L256,256l154.8-27.3l-35.1-199C375.3,27.3,372.9,25.6,370.5,26.1z"/>
	</g>
</g>
<g>
	<g>
		<polygon fill="#D6D6D6" points="256,358.3 276,323.7 256,335.1 		"/>
		<path fill="#C4834D" d="M256,153.7v170v11.4l20-11.4v-165c0-2.8-2.2-5-5-5H256z"/>
		<polygon fill="#FFFFFF" points="236,323.7 256,358.3 256,335.1 		"/>
	</g>
	<g>
		<polygon fill="#FFE000" points="236,323.7 256,335.1 256,168.6 236,168.6 		"/>
		<path fill="#ADADAD" d="M271,153.7h-15v14.9h20v-9.9C276,155.9,273.8,153.7,271,153.7z"/>
		<path fill="#FFFFFF" d="M236,158.7v9.9h20v-14.9h-15C238.2,153.7,236,155.9,236,158.7z"/>
	</g>
</g>
</svg>
