<?xml version="1.0" encoding="utf-8"?>
<!-- Generator: Adobe Illustrator 18.0.0, SVG Export Plug-In . SVG Version: 6.00 Build 0)  -->
<!DOCTYPE svg PUBLIC "-//W3C//DTD SVG 1.1//EN" "http://www.w3.org/Graphics/SVG/1.1/DTD/svg11.dtd">
<svg version="1.1" id="Layer_1" xmlns="http://www.w3.org/2000/svg" xmlns:xlink="http://www.w3.org/1999/xlink" x="0px" y="0px"
	 viewBox="0 0 512 512" enable-background="new 0 0 512 512" xml:space="preserve">
<g>
	<path fill="#BCBCBC" d="M446,486H66c-22.1,0-40-17.9-40-40V66c0-22.1,17.9-40,40-40h380c22.1,0,40,17.9,40,40v380
		C486,468.1,468.1,486,446,486z"/>
	<g>
		<radialGradient id="SVGID_1_" cx="256" cy="271.5" r="301.0128" gradientUnits="userSpaceOnUse">
			<stop  offset="5.102041e-03" style="stop-color:#CFCFCF"/>
			<stop  offset="1" style="stop-color:#E0E0E0"/>
		</radialGradient>
		<path fill="url(#SVGID_1_)" d="M486,94.6L486,94.6c-1.3-21-18.7-37.6-40-37.6H66c-21.3,0-38.6,16.6-39.9,37.5v0.1
			c0,0.8-0.1,1.6-0.1,2.4v349c0,0.7,0,1.4,0.1,2.1c0,0,0,0,0,0.1C27.2,469.3,44.6,486,66,486h380c21.4,0,38.8-16.7,39.9-37.8
			c0,0,0,0,0-0.1c0-0.7,0.1-1.4,0.1-2.1V97C486.1,96.2,486.1,95.4,486,94.6z"/>
		<g>
			<g>
				<path fill="#FFFFFF" d="M198.8,432.7c-0.7-2.7-3.5-4.3-6.1-3.5l-30.8,8.3c-4.9-12.5-11.5-23.9-19.6-33.9l22.3-22.3
					c2-2,2-5.1,0-7.1l-13.3-13.3c-2-2-5.1-2-7.1,0l-22.4,22.4c-10.1-8-21.2-14.4-33.2-19.2l8.4-31.4c0.7-2.7-0.9-5.4-3.5-6.1
					l-18.2-4.9c-2.7-0.7-5.4,0.9-6.1,3.5l-8.4,31.3c-11.3-1.8-23-2-34.8-0.6v29.1c0.8-0.1,1.6-0.2,2.3-0.3c8.3-1.1,16.7-1.1,25-0.1
					c9.5,1.2,18.9,3.7,27.8,7.6c3.5,1.5,7,3.3,10.4,5.2c3.4,2,6.7,4.1,9.8,6.4c7.8,5.8,14.7,12.6,20.5,20.3
					c4.8,6.4,8.9,13.4,12.1,20.9c1.9,4.4,3.5,9,4.7,13.7c1.3,4.7,2.2,9.5,2.7,14.2c0.5,4.4,0.8,8.8,0.7,13.2h28.8
					c0.1-6.9-0.4-13.8-1.5-20.8l30.8-8.3c2.7-0.7,4.3-3.5,3.5-6.1L198.8,432.7z"/>
				<path fill="#515151" d="M26,384.8v29.3c37.2-7.9,74.7,14.7,84.7,51.9c1.8,6.7,2.6,13.4,2.4,20H142c0.1-9-1-18.3-3.5-27.4
					C125.1,408.4,76.1,377.2,26,384.8z"/>
			</g>
			<g>
				<path fill="#FFFFFF" d="M370.7,484.5c0-3.7,0.2-7.3,0.6-10.9c1-9.7,3.5-19.1,7.1-28c3.1-7.4,7.1-14.5,11.9-21
					c3-4,6.3-7.9,9.9-11.5c3.3-3.3,6.7-6.3,10.3-9c6.7-5.1,13.9-9.3,21.6-12.6c8.8-3.8,18.2-6.2,27.9-7.3c3.8-0.4,7.7-0.7,11.6-0.7
					c3.9,0,7.8,0.2,11.7,0.7c0.9,0.1,1.7,0.2,2.6,0.3v-29.1c-11.1-1.2-22.3-1-33.3,0.6l-8.4-31.4c-0.7-2.7-3.5-4.3-6.1-3.5
					l-18.2,4.9c-2.7,0.7-4.3,3.5-3.5,6.1l8.4,31.3c-12.3,4.8-24,11.4-34.6,20.1l-23-23c-2-2-5.1-2-7.1,0l-13.3,13.3
					c-2,2-2,5.1,0,7.1l23.1,23.1c-8.3,10.5-14.8,22-19.4,34.1l-31.6-8.5c-2.7-0.7-5.4,0.9-6.1,3.5l-4.9,18.2
					c-0.7,2.7,0.9,5.4,3.5,6.1l31.8,8.5c-0.9,6.6-1.4,13.3-1.3,20h28.9C370.7,485.5,370.7,485,370.7,484.5z"/>
				<path fill="#515151" d="M420.7,433.4c17.7-17.7,42.4-24.3,65.2-19.7v-29.3c-30.4-4.3-62.3,5.2-85.6,28.6
					c-20.1,20.1-30,46.6-29.6,73h28.9C399.3,467,406.3,447.9,420.7,433.4z"/>
			</g>
			<g>
				<path fill="#FFFFFF" d="M416.9,254.3h-31.9c-1.5-13.3-5-26.1-10.2-37.9l27.3-15.8c2.4-1.4,3.2-4.4,1.8-6.8l-9.4-16.3
					c-1.4-2.4-4.4-3.2-6.8-1.8l-27.4,15.8c-7.6-10.3-16.8-19.5-27.1-27.1l16.3-28.2c1.4-2.4,0.6-5.4-1.8-6.8l-16.3-9.4
					c-2.4-1.4-5.4-0.6-6.8,1.8l-16.2,28.1c-12-5.3-25-8.9-38.7-10.3v-32.5c0-2.8-2.2-5-5-5h-18.9c-2.8,0-5,2.2-5,5v32.7
					c-13.3,1.5-26,5.1-37.8,10.4l-16.4-28.3c-1.4-2.4-4.4-3.2-6.8-1.8l-16.3,9.4c-2.4,1.4-3.2,4.4-1.8,6.8l16.5,28.6
					c-10.2,7.6-19.2,16.8-26.8,27l-27.9-16.1c-2.4-1.4-5.4-0.6-6.8,1.8l-9.4,16.3c-1.4,2.4-0.6,5.4,1.8,6.8l27.9,16.1
					c-5.1,11.7-8.6,24.3-10,37.5H95.1c-2.8,0-5,2.2-5,5v18.9c0,2.8,2.2,5,5,5h31.9c1.5,13.2,4.9,25.7,10,37.4L109,336.6
					c-2.4,1.4-3.2,4.4-1.8,6.8l9.4,16.3c1.4,2.4,4.4,3.2,6.8,1.8l27.8-16.1c7.8,10.7,17.3,20.1,28,28l-15.6,27
					c-1.4,2.4-0.6,5.4,1.8,6.8l16.3,9.4c2.4,1.4,5.4,0.6,6.8-1.8l15.6-27.1c11.4,5,23.7,8.3,36.6,9.8v31.2c0,2.8,2.2,5,5,5h18.9
					c2.8,0,5-2.2,5-5v-31.1c13.2-1.4,25.7-4.7,37.4-9.7l15.5,26.8c1.4,2.4,4.4,3.2,6.8,1.8l16.3-9.4c2.4-1.4,3.2-4.4,1.8-6.8
					l-15.4-26.7c10.8-7.8,20.3-17.3,28.3-28l27.3,15.8c2.4,1.4,5.4,0.6,6.8-1.8l9.4-16.3c1.4-2.4,0.6-5.4-1.8-6.8L375,320.9
					c5.2-11.8,8.6-24.4,10.1-37.7h31.9c2.8,0,5-2.2,5-5v-18.9C421.9,256.5,419.7,254.3,416.9,254.3z M356,283.2
					c-1.1,8-3.2,15.8-6.2,23.2c-3.6,8.9-8.4,17.3-14.5,25c-2.4,3.1-5.1,6-7.9,8.9c-3.1,3.1-6.3,5.9-9.7,8.6
					c-7.7,6-16.2,10.7-25.1,14.2c-7.3,2.8-15,4.8-22.9,5.9c-4.5,0.6-9.1,0.9-13.7,0.9c-5.1,0-10.2-0.4-15.2-1.1
					c-7.6-1.1-15-3.1-22-5.9c-8.9-3.5-17.4-8.4-25-14.4c-3.2-2.5-6.3-5.2-9.2-8.2c-2.9-2.9-5.6-6-8.1-9.1c-6-7.7-10.9-16.1-14.4-25
					c-2.9-7.3-4.9-15-6.1-22.8c-0.7-4.7-1-9.6-1-14.4c0-4.9,0.3-9.7,1-14.4c1.1-7.9,3.2-15.6,6.1-23c3.6-8.9,8.4-17.3,14.4-25
					c2.5-3.1,5.1-6.1,8-9c2.6-2.6,5.3-5,8.2-7.3c7.6-6.1,15.9-11.1,24.8-14.7c7.4-3.1,15.2-5.2,23.3-6.4c5-0.7,10-1.1,15.2-1.1
					c4.6,0,9.2,0.3,13.7,0.9c8.3,1.1,16.4,3.3,24.1,6.4c8.9,3.6,17.3,8.5,24.9,14.6c3,2.4,5.9,5,8.7,7.7c2.8,2.8,5.4,5.7,7.8,8.7
					c6.1,7.6,10.9,16,14.5,24.9c3,7.5,5.1,15.3,6.3,23.3c0.7,4.7,1,9.6,1,14.4C357,273.6,356.7,278.4,356,283.2z"/>
				<path fill="#515151" d="M256,196.6c39.8,0,72.2,32.4,72.2,72.2s-32.4,72.2-72.2,72.2s-72.2-32.4-72.2-72.2
					S216.2,196.6,256,196.6 M256,167.7c-55.8,0-101,45.2-101,101s45.2,101,101,101s101-45.2,101-101S311.8,167.7,256,167.7
					L256,167.7z"/>
			</g>
		</g>
		<g opacity="0.3">
			<g>
				<radialGradient id="SVGID_2_" cx="256.561" cy="271.1885" r="236.5159" gradientUnits="userSpaceOnUse">
					<stop  offset="0" style="stop-color:#FFFFFF;stop-opacity:0.5"/>
					<stop  offset="1" style="stop-color:#000000;stop-opacity:0"/>
				</radialGradient>
				<path fill="url(#SVGID_2_)" d="M485.9,448.2c0,0,0,0,0-0.1c0-0.7,0.1-1.4,0.1-2.1V331.7l-228.8-61.3L314.9,486h131
					C467.4,486,484.8,469.3,485.9,448.2z"/>
				<radialGradient id="SVGID_3_" cx="258.364" cy="273.3115" r="240.4472" gradientUnits="userSpaceOnUse">
					<stop  offset="0" style="stop-color:#FFFFFF;stop-opacity:0.5"/>
					<stop  offset="1" style="stop-color:#000000;stop-opacity:0"/>
				</radialGradient>
				<path fill="url(#SVGID_3_)" d="M26.1,94.5L26.1,94.5c0,0.9-0.1,1.7-0.1,2.5v112.8l230.8,61.8L199.3,57H66
					C44.7,57,27.4,73.6,26.1,94.5z"/>
			</g>
			<g>
				<radialGradient id="SVGID_4_" cx="258.1885" cy="270.9015" r="234.7816" gradientUnits="userSpaceOnUse">
					<stop  offset="0" style="stop-color:#FFFFFF;stop-opacity:0.5"/>
					<stop  offset="1" style="stop-color:#000000;stop-opacity:0"/>
				</radialGradient>
				<path fill="url(#SVGID_4_)" d="M486,97c0.1-0.8,0.1-1.6,0-2.4c-1.3-21-18.7-37.6-40-37.6H313.6l-57.3,213.8L486,209.3V97z"/>
				<radialGradient id="SVGID_5_" cx="258.774" cy="270.5985" r="244.6635" gradientUnits="userSpaceOnUse">
					<stop  offset="0" style="stop-color:#FFFFFF;stop-opacity:0.5"/>
					<stop  offset="1" style="stop-color:#000000;stop-opacity:0"/>
				</radialGradient>
				<path fill="url(#SVGID_5_)" d="M26,446c0,0.7,0,1.4,0.1,2.1c0,0,0,0,0,0.1C27.2,469.3,44.6,486,66,486H200l57.6-214.8L26,333.3
					V446z"/>
			</g>
		</g>
		<g opacity="0.3">
			<g>
				<radialGradient id="SVGID_6_" cx="256.4154" cy="137.7194" r="262.9241" gradientUnits="userSpaceOnUse">
					<stop  offset="0" style="stop-color:#FFFFFF;stop-opacity:0.5"/>
					<stop  offset="1" style="stop-color:#000000;stop-opacity:0"/>
				</radialGradient>
				<polygon fill="url(#SVGID_6_)" points="486,401.1 486,136.7 257,268.9 				"/>
				<radialGradient id="SVGID_7_" cx="259.389" cy="406.3364" r="273.8537" gradientUnits="userSpaceOnUse">
					<stop  offset="0" style="stop-color:#FFFFFF;stop-opacity:0.5"/>
					<stop  offset="1" style="stop-color:#000000;stop-opacity:0"/>
				</radialGradient>
				<polygon fill="url(#SVGID_7_)" points="26,404.2 257.8,270.4 26,136.5 				"/>
			</g>
			<g>
				<radialGradient id="SVGID_8_" cx="135.6442" cy="270.1309" r="251.4333" gradientUnits="userSpaceOnUse">
					<stop  offset="0" style="stop-color:#FFFFFF;stop-opacity:0.5"/>
					<stop  offset="1" style="stop-color:#000000;stop-opacity:0"/>
				</radialGradient>
				<polygon fill="url(#SVGID_8_)" points="256.7,270 379.7,57 133.7,57 				"/>
				<radialGradient id="SVGID_9_" cx="384.5563" cy="268.6597" r="246.8663" gradientUnits="userSpaceOnUse">
					<stop  offset="0" style="stop-color:#FFFFFF;stop-opacity:0.5"/>
					<stop  offset="1" style="stop-color:#000000;stop-opacity:0"/>
				</radialGradient>
				<polygon fill="url(#SVGID_9_)" points="258.1,269.3 133,486 383.3,486 				"/>
			</g>
		</g>
	</g>
</g>
</svg>
