<?xml version="1.0" encoding="utf-8"?>
<!-- Generator: Adobe Illustrator 18.0.0, SVG Export Plug-In . SVG Version: 6.00 Build 0)  -->
<!DOCTYPE svg PUBLIC "-//W3C//DTD SVG 1.1//EN" "http://www.w3.org/Graphics/SVG/1.1/DTD/svg11.dtd">
<svg version="1.1" id="Layer_1" xmlns="http://www.w3.org/2000/svg" xmlns:xlink="http://www.w3.org/1999/xlink" x="0px" y="0px"
	 viewBox="0 0 512 512" enable-background="new 0 0 512 512" xml:space="preserve">
<path fill="#E8E8E8" d="M446,486H66c-22.1,0-40-17.9-40-40V66c0-22.1,17.9-40,40-40h380c22.1,0,40,17.9,40,40v380
	C486,468.1,468.1,486,446,486z"/>
<path fill="#BCBCBC" d="M446,486H66c-22.1,0-40-17.9-40-40V66c0-22.1,17.9-40,40-40h380c22.1,0,40,17.9,40,40v380
	C486,468.1,468.1,486,446,486z"/>
<path fill="#E5E5E5" d="M486,94.6L486,94.6C484.7,73.6,467.3,57,446,57H66c-21.3,0-38.6,16.6-39.9,37.5v0.1c0,0.8-0.1,1.6-0.1,2.4
	v349c0,0.7,0,1.4,0.1,2.1c0,0,0,0,0,0.1C27.2,469.3,44.6,486,66,486h380c21.4,0,38.8-16.7,39.9-37.8c0,0,0,0,0-0.1
	c0-0.7,0.1-1.4,0.1-2.1V97C486.1,96.2,486.1,95.4,486,94.6z"/>
<g>
	<path fill="#BCBCBC" d="M327.8,198.4H184.3v0c0,0,0,0,0,0c-39.5,0-71.6,32-71.6,71.6s32,71.6,71.6,71.6c0,0,0,0,0,0h143.4
		c0,0,0,0,0,0c39.5,0,71.6-32,71.6-71.6S367.3,198.4,327.8,198.4z"/>
	<circle fill="#FFFFFF" cx="327.8" cy="270" r="54.5"/>
	<path fill="#E5E5E5" d="M327.7,227.5c-23.5,0-42.6,19.1-42.6,42.6s19.1,42.6,42.6,42.6s42.6-19.1,42.6-42.6
		C370.3,246.6,351.2,227.5,327.7,227.5z"/>
</g>
</svg>
