<?xml version="1.0" encoding="utf-8"?>
<!-- Generator: Adobe Illustrator 18.0.0, SVG Export Plug-In . SVG Version: 6.00 Build 0)  -->
<!DOCTYPE svg PUBLIC "-//W3C//DTD SVG 1.1//EN" "http://www.w3.org/Graphics/SVG/1.1/DTD/svg11.dtd">
<svg version="1.1" id="Layer_1" xmlns="http://www.w3.org/2000/svg" xmlns:xlink="http://www.w3.org/1999/xlink" x="0px" y="0px"
	 viewBox="0 0 512 512" style="enable-background:new 0 0 512 512;" xml:space="preserve">
<linearGradient id="SVGID_1_" gradientUnits="userSpaceOnUse" x1="256" y1="-840.2764" x2="256" y2="1265.8115">
	<stop  offset="0" style="stop-color:#BF2126"/>
	<stop  offset="1" style="stop-color:#E42F28"/>
</linearGradient>
<path style="fill:url(#SVGID_1_);" d="M466.555,344.759c-1.343-1.817-3.468-4.369-5.863-6.825
	c-24.906-25.558-43.506-55.734-53.528-89.159c-0.461-1.553-0.92-3.107-1.333-4.666c-0.432-1.567-0.807-3.169-1.192-4.76
	c-8.021-33.937-7.041-69.388,1.788-103.959c0,0,1.348-5.707,1.694-8.059c7.422-43.681-19.469-86.621-63.099-98.317
	c-44.483-11.918-90.075,13.026-104.62,56.049c-0.601,1.605-1.826,5.661-1.84,5.722c-9.561,33.889-26.173,64.658-49.642,89.844
	c-26.661,27.985-60.556,47.883-98.557,58.064c-46.29,12.401-73.792,60.067-61.386,106.376c12.425,46.3,60.016,73.801,106.338,61.381
	c34.566-8.824,70.019-9.825,103.968-1.807c1.583,0.394,3.174,0.784,4.75,1.211c1.583,0.423,3.15,0.882,4.717,1.329
	c33.411,10.03,63.62,28.619,89.14,53.538c3.136,3.14,5.844,5.351,8.374,7.139c34.307,26.144,83.123,24.14,114.404-7.139
	C492.418,428.99,494.257,378.855,466.555,344.759z M360.268,300.365c-12.147,45.324-58.73,72.233-104.067,60.086
	c-45.319-12.142-72.225-58.743-60.081-104.062c12.152-45.324,58.743-72.23,104.062-60.086
	C345.521,208.455,372.415,255.041,360.268,300.365z"/>
</svg>
