<?xml version="1.0" encoding="utf-8"?>
<!-- Generator: Adobe Illustrator 18.0.0, SVG Export Plug-In . SVG Version: 6.00 Build 0)  -->
<!DOCTYPE svg PUBLIC "-//W3C//DTD SVG 1.1//EN" "http://www.w3.org/Graphics/SVG/1.1/DTD/svg11.dtd">
<svg version="1.1" id="Layer_1" xmlns="http://www.w3.org/2000/svg" xmlns:xlink="http://www.w3.org/1999/xlink" x="0px" y="0px"
	 viewBox="0 0 512 512" style="enable-background:new 0 0 512 512;" xml:space="preserve">
<g>
	<path d="M415.241,164.065c-5.12-8.868-10.584-17.364-16.341-25.481c-0.419,0.509-0.863,0.999-1.36,1.443
		c-5.173,6.098-15.532,6.206-20.87,0.266c-34.852-33.554-84.06-51.697-132.377-48.088c-40.138,2.582-79.024,19.872-108.15,47.563
		c-2.589,2.648-5.897,4.821-9.706,5.008c-9.542,1.119-18.365-8.853-16.306-18.187c0.58-3.351,2.734-6.14,5.193-8.372
		c34.099-32.65,79.876-52.7,126.974-55.806c37.431-2.696,75.429,5.56,108.644,22.905C283.758,26.709,198.852,7.977,134.316,45.238
		C46.37,96.014,29.555,231.537,96.76,347.938s192.977,169.6,280.924,118.824C465.63,415.99,482.445,280.466,415.241,164.065z
		 M256.284,289.014c-15.956,0.552-30.742-12.683-32.14-28.552c-2.274-16.659,10.753-33.339,27.44-35.261
		c17.785-2.984,35.835,11.702,36.408,29.737C289.644,272.621,274.034,289.402,256.284,289.014z M321.808,221.4
		c-5.029,6.069-15.107,6.479-20.574,0.79c-10.826-11.112-25.82-18.136-41.344-18.982c-17.619-1.256-35.447,5.705-47.96,18.085
		c-3.078,3.459-7.647,5.582-12.326,5.03c-10.861-0.762-18.402-15.26-10.919-23.963c15.11-16.386,36.567-26.536,58.678-28.733
		c27.599-2.741,56.131,7.827,75.334,27.815C327.956,206.916,327.347,216.337,321.808,221.4z M359.817,180.528
		c-4.901,5.997-14.78,6.67-20.333,1.233c-19.814-19.534-46.603-31.939-74.379-33.968c-33.734-2.798-68.197,10.001-92.216,33.769
		c-5.539,5.855-15.855,5.189-20.84-1.04c-5.373-5.072-5.819-14.35-0.661-19.721c23.804-23.818,55.995-38.969,89.477-42.405
		c43.732-4.757,89.147,11.363,120.093,42.613C365.793,166.532,365.19,175.564,359.817,180.528z"/>
	<path d="M398.9,138.585c4.333-5.265,4.496-13.688-0.371-18.7c-14.026-13.848-30.147-25.46-47.586-34.566
		C368.338,100.493,384.542,118.344,398.9,138.585z"/>
</g>
</svg>
