<?xml version="1.0" encoding="utf-8"?>
<!-- Generator: Adobe Illustrator 18.0.0, SVG Export Plug-In . SVG Version: 6.00 Build 0)  -->
<!DOCTYPE svg PUBLIC "-//W3C//DTD SVG 1.1//EN" "http://www.w3.org/Graphics/SVG/1.1/DTD/svg11.dtd">
<svg version="1.1" id="Layer_1" xmlns="http://www.w3.org/2000/svg" xmlns:xlink="http://www.w3.org/1999/xlink" x="0px" y="0px"
	 viewBox="0 0 512 512" enable-background="new 0 0 512 512" xml:space="preserve">
<path opacity="0.4" d="M256,31C129,31,26,134,26,261s103,230,230,230s230-103,230-230S383,31,256,31z M256,358.5l-13.4-15.9
	c3.6-3.1,8.3-4.9,13.4-4.9c5.1,0,9.8,1.8,13.4,4.9L256,358.5z M280.9,329.1c-6.7-5.7-15.4-9.1-24.9-9.1s-18.2,3.4-24.9,9.1
	l-16.6-19.7c11.2-9.5,25.7-15.2,41.5-15.2c15.8,0,30.3,5.7,41.5,15.2L280.9,329.1z M308.9,295.9c-14.3-12.1-32.8-19.4-53-19.4
	c-20.1,0-38.6,7.3-53,19.4l-16.6-19.7c18.8-15.9,43.2-25.6,69.5-25.6c26.6,0,50.8,9.6,69.7,25.6L308.9,295.9z M337.1,262.6
	c-22.7-19.2-51.1-29.7-81.1-29.7c-30,0-58.5,10.5-81.1,29.7l-16.6-19.7c27.3-23.2,61.6-35.8,97.8-35.8c36.2,0,70.5,12.6,97.8,35.8
	L337.1,262.6z M365.3,229.3c-30.5-25.9-68.8-40-109.3-40s-78.8,14.1-109.3,40l-16.6-19.7c15-12.8,31.8-23.1,50-30.8
	c24.1-10.2,49.6-15.3,75.9-15.3s51.8,5.2,75.9,15.3c18.2,7.7,35,18,50,30.8L365.3,229.3z"/>
<path fill="#008CFF" d="M256,26C129,26,26,129,26,256s103,230,230,230s230-103,230-230S383,26,256,26z M256,353.5l-13.4-15.9
	c3.6-3.1,8.3-4.9,13.4-4.9c5.1,0,9.8,1.8,13.4,4.9L256,353.5z M280.9,324.1c-6.7-5.7-15.4-9.1-24.9-9.1s-18.2,3.4-24.9,9.1
	l-16.6-19.7c11.2-9.5,25.7-15.2,41.5-15.2c15.8,0,30.3,5.7,41.5,15.2L280.9,324.1z M308.9,290.9c-14.3-12.1-32.8-19.4-53-19.4
	c-20.1,0-38.6,7.3-53,19.4l-16.6-19.7c18.8-15.9,43.2-25.6,69.5-25.6c26.6,0,50.8,9.6,69.7,25.6L308.9,290.9z M337.1,257.6
	c-22.7-19.2-51.1-29.7-81.1-29.7c-30,0-58.5,10.5-81.1,29.7l-16.6-19.7c27.3-23.2,61.6-35.8,97.8-35.8c36.2,0,70.5,12.6,97.8,35.8
	L337.1,257.6z M365.3,224.3c-30.5-25.9-68.8-40-109.3-40s-78.8,14.1-109.3,40l-16.6-19.7c15-12.8,31.8-23.1,50-30.8
	c24.1-10.2,49.6-15.3,75.9-15.3s51.8,5.2,75.9,15.3c18.2,7.7,35,18,50,30.8L365.3,224.3z"/>
</svg>
