<?xml version="1.0" encoding="utf-8"?>
<!-- Generator: Adobe Illustrator 18.0.0, SVG Export Plug-In . SVG Version: 6.00 Build 0)  -->
<!DOCTYPE svg PUBLIC "-//W3C//DTD SVG 1.1//EN" "http://www.w3.org/Graphics/SVG/1.1/DTD/svg11.dtd">
<svg version="1.1" id="Layer_1" xmlns="http://www.w3.org/2000/svg" xmlns:xlink="http://www.w3.org/1999/xlink" x="0px" y="0px"
	 viewBox="0 0 512 512" enable-background="new 0 0 512 512" xml:space="preserve">
<circle fill="#F1EDF6" cx="256" cy="256" r="230"/>
<g>
	<g>
		<path fill="#47294F" d="M479.4,252.6c0-1.3-0.1-3-0.1-4.9c0-2-0.2-4.2-0.3-6.8c-0.6-10.2-2.2-25.2-7.1-43.7
			c-4.9-18.5-12.9-40.6-27.1-63.4c-7.1-11.4-15.7-22.9-25.9-34c-5.1-5.6-10.7-11-16.6-16.3c-1.4-1.4-3-2.6-4.6-3.9
			c-1.6-1.3-3.1-2.6-4.7-3.9c-3.3-2.4-6.6-4.9-10-7.3c-6.9-4.7-14.1-9.3-21.8-13.3c-1.9-1-3.9-2-5.8-3c-2-0.9-4-1.9-6-2.8
			c-4-2-8.2-3.5-12.3-5.3c-2.1-0.9-4.2-1.6-6.4-2.3c-2.1-0.7-4.3-1.5-6.5-2.2c-2.2-0.6-4.4-1.3-6.6-1.9l-3.3-1l-3.4-0.8
			c-2.3-0.5-4.5-1.1-6.8-1.6c-2.3-0.5-4.6-0.9-6.9-1.3l-3.5-0.6l-1.8-0.3l-1.8-0.2c-2.4-0.3-4.7-0.6-7.1-0.9
			c-2.4-0.4-4.8-0.5-7.2-0.7c-2.4-0.2-4.9-0.4-7.3-0.6c-2.4-0.1-4.7-0.1-7.1-0.2l-3.6-0.1c0,0-0.5,0-0.6,0l-0.5,0l-0.9,0l-1.8,0
			c-2.5,0.1-4.9,0.1-7.4,0.2c-2.5,0.1-5,0.4-7.4,0.5c-5,0.3-9.9,1-14.9,1.7c-10,1.6-20,3.5-29.8,6.5c-5,1.3-9.8,3.1-14.7,4.8
			c-2.4,0.9-4.8,1.9-7.3,2.9l-3.6,1.5l-3.6,1.6c-19.1,8.6-37.3,20.1-53.7,34c-2,1.8-4,3.5-6.1,5.3c-2,1.8-3.9,3.7-5.9,5.6
			c-1,0.9-2,1.9-2.9,2.8l-2.8,3c-1.8,2-3.8,3.9-5.5,6c-1.8,2.1-3.5,4.1-5.3,6.2c-1.8,2.1-3.4,4.3-5.1,6.4l-2.5,3.2l-2.4,3.4
			c-1.5,2.3-3.2,4.4-4.6,6.8l-4.4,7c-1.4,2.3-2.7,4.8-4.1,7.1c-0.7,1.2-1.4,2.4-2,3.6l-1.8,3.7l-1.8,3.7c-0.6,1.2-1.2,2.5-1.8,3.7
			c-4.6,10-8.3,20.4-11.5,31l-2.1,8c-0.7,2.7-1.2,5.4-1.8,8.1l-0.9,4.1l-0.7,4.1c-0.4,2.7-0.9,5.4-1.3,8.2l-0.9,8.2
			c-0.2,1.4-0.3,2.8-0.3,4.1l-0.2,4.2l-0.2,4.2c-0.1,1.4,0,2.7-0.1,4.1l-0.1,8.2l0.3,8.3c0.1,2.8,0.3,5.5,0.6,8.2l0.4,4.1
			c0.1,1.4,0.2,2.7,0.5,4.1l1.2,8.2c1.9,10.8,4.3,21.6,7.7,32c6.6,20.9,16.1,40.7,28.1,58.7c23.9,36,57.6,64.4,95.1,81.9l3.5,1.7
			l3.6,1.5c2.4,1,4.7,2,7.1,2.9c4.8,1.7,9.6,3.6,14.5,5c9.7,3.1,19.6,5.3,29.5,7c5,0.7,9.8,1.5,14.9,1.9c2.5,0.2,5,0.5,7.4,0.6
			c2.4,0.1,4.8,0.2,7.2,0.3l1.8,0.1l0.9,0l0.4,0c0.1,0,0.5,0,0.6,0l3.7-0.1c2.4,0,4.9-0.1,7.3-0.1c2.4-0.1,4.8-0.3,7.2-0.5
			c2.4-0.2,4.8-0.3,7.2-0.6c2.4-0.3,4.7-0.6,7.1-0.8l1.8-0.2l1.7-0.3l3.5-0.6c2.3-0.4,4.6-0.8,6.9-1.3c2.3-0.5,4.6-1,6.8-1.6
			l3.4-0.8l3.3-0.9c2.2-0.6,4.4-1.2,6.6-1.9c2.2-0.7,4.3-1.4,6.5-2.2c2.1-0.8,4.3-1.4,6.4-2.3c4.2-1.7,8.4-3.2,12.3-5.2
			c2-0.9,4-1.8,6-2.8c1.9-1,3.9-2,5.8-3c7.7-4,14.9-8.6,21.8-13.2c3.4-2.4,6.7-4.9,10-7.3c1.6-1.3,3.1-2.6,4.7-3.8
			c1.5-1.3,3.1-2.5,4.6-3.9c6-5.3,11.6-10.7,16.7-16.2c10.2-11.1,18.8-22.6,25.9-34c14.2-22.8,22.3-44.9,27.2-63.4
			c4.8-18.5,6.5-33.5,7.1-43.7c0.2-2.6,0.4-4.8,0.4-6.8c0-1.9,0.1-3.6,0.1-4.9c0.1-2.6,0.1-4,0.1-4l0,0
			C479.5,256.7,479.5,255.3,479.4,252.6z M73.9,378.3l-4.3-6.7c-1.4-2.3-2.7-4.6-4-6.9c-0.7-1.2-1.3-2.3-2-3.5l-1.8-3.6l-1.8-3.6
			c-0.6-1.2-1.2-2.4-1.7-3.6c-1.5-3.1-2.8-6.3-4.1-9.6c2.6,2,5.3,3.9,8.2,5.5c4.2,2.4,8.8,4.4,13.9,5.1c2.5,0.4,5.1,0.4,7.7-0.1
			c2.6-0.5,5-1.5,7.2-2.9c4.5-2.8,7.7-7,10.1-11.4c1.7-3.1,3.1-6.4,4.2-9.7c-0.9,10-1.2,19.5-1.4,28.3c0,9.8,0.1,18.8,0.5,26.8
			c0.1,2,0.2,3.9,0.3,5.8c0.1,1.9,0.3,3.7,0.4,5.4c0.3,3.4,0.5,6.6,0.7,9.5c0.5,5.7,1.1,10.1,1.5,13.2c0.1,0.5,0.1,0.9,0.2,1.3
			C95,406.1,83.6,392.8,73.9,378.3z M281.8,472c-2.3,0.4-4.6,0.5-6.8,0.7c-2.3,0.2-4.6,0.4-6.9,0.6c-2.3,0.1-4.6,0.2-7,0.2l-3.5,0.1
			c-0.3,0-0.1,0-0.3,0l-0.4,0l-0.9,0l-1.8,0c-2.4,0-4.8-0.1-7.2-0.1c-2.4,0-4.7-0.3-7.1-0.4c-4.7-0.2-9.5-0.8-14.3-1.3
			c-9.5-1.3-19.2-3-28.7-5.6c-4.8-1.1-9.5-2.8-14.2-4.3c-2.4-0.8-4.7-1.7-7-2.6l-3.5-1.3l-3.5-1.5c-18.6-7.8-36.4-18.4-52.5-31.6
			c-2.5-2-4.9-4.1-7.3-6.3c0-0.7,0-1.5,0.1-2.4c0-3.1,0.1-7.5,0.1-13.3c0.2-5.7,0.1-12.6,0.3-20.5c0.1-7.9,0.4-16.8,0.8-26.6
			c0.1-2.4,0.2-4.9,0.3-7.4c0.1-2.5,0.2-5.1,0.4-7.7c0.2-2.6,0.3-5.3,0.5-8c0.1-2.7,0.4-5.4,0.6-8.2c0.8-11.1,1.7-22.8,3.2-34.9
			c1.5-12.1,4-24.5,7.8-36.7c1-3,2-6.1,3.1-9.1c1.2-3,2.3-6,3.6-9c2.6-5.9,5.4-11.7,8.7-17.3c3.1-5.6,6.8-10.9,10.6-16.1
			c2-2.5,3.8-5.1,6-7.4c1-1.2,2-2.4,3.1-3.6l3.2-3.4c4.4-4.4,9-8.6,14-12.2c4.9-3.6,10.1-6.8,15.3-9.5c5.3-2.6,10.7-4.9,16.1-6.7
			c1.4-0.4,2.7-0.9,4-1.3c1.4-0.4,2.7-0.7,4.1-1.1c2.7-0.7,5.4-1.4,8.1-1.8c5.3-1.1,10.6-1.7,15.7-2.1c5.1-0.4,10.1-0.6,14.9-0.5
			c9.6,0.1,18.4,1,26.2,2.2c7.8,1.2,14.5,2.6,20,4c5.5,1.3,9.8,2.6,12.7,3.6c0.3,0.1,0.6,0.2,0.8,0.3c0.2,3.3,0.5,6.7,0.9,10
			c1.3,9.5,3.7,18.8,7.5,27.7c3.8,8.9,9.1,17.2,15.5,24.4c3.3,3.6,6.8,6.9,10.6,10c3.7,3.1,7.8,5.7,11.9,8.2
			c4.1,2.5,8.5,4.5,12.9,6.5c4.4,1.8,8.9,3.5,13.5,4.8c4.6,1.4,9.2,2.5,13.9,3.5c2.3,0.5,4.7,0.9,7,1.3l2.5,0.4
			c-1.1,3.1-2.3,6.3-3.6,9.3c-1.9,4.4-3.9,8.8-6.1,13.1c-2.2,4.2-4.7,8.3-7.4,12.1c-2.8,3.8-5.8,7.3-9.3,9.8
			c-1.8,1.3-3.6,2.2-5.5,2.8c-0.2,0.1-0.5,0.1-0.7,0.2l-0.9,0.2c-0.5,0.1-0.9,0.2-1.5,0.2c-1,0.1-2.1,0.1-3.2,0.1
			c-4.3-0.2-8.6-1.8-12.7-3.9c-8.4-4.3-16.1-10.6-25.2-15.2c-4.5-2.3-9.5-4.3-14.9-4.8c-5.3-0.5-10.9,0.5-15.6,2.8
			c-2.4,1.2-4.4,2.4-6.6,3.6c-2.1,1.2-4.2,2.4-6.4,3.6c-4.3,2.3-8.6,4.3-13.2,5.6c-4.5,1.3-9.3,1.9-13.9,1.3
			c-4.6-0.6-9.1-2.4-13-5.1c-4-2.7-7.4-6.2-10.4-10c-3-3.8-5.7-7.9-8-12.2l-0.6,0.3c2.1,4.4,4.5,8.8,7.4,12.8
			c2.9,4,6.3,7.8,10.3,10.9c4,3.1,8.8,5.3,13.9,6.2c5.1,0.9,10.3,0.4,15.3-0.8c0.4-0.1,0.7-0.2,1.1-0.3c-0.2,0.2-0.4,0.3-0.6,0.5
			c-2.1,1.8-4.5,4.2-6.9,7.2c-2.5,3-4.9,6.6-7.2,10.8c-2.3,4.2-4.3,9.1-5.8,14.3c-1.6,5.3-2.4,11.1-2.7,17c0,1.5-0.1,3-0.1,4.5
			c0,1.5,0.1,3,0.2,4.6c0.1,3.1,0.6,6.1,0.9,9.2c0.5,3.1,1.2,6.1,1.9,9.2c0.5,1.5,0.9,3,1.4,4.5c0.4,1.5,0.9,3,1.5,4.4l1.6,4.4
			c0.5,1.5,1.1,2.9,1.7,4.3c1.2,2.9,2.2,5.7,3.4,8.5c2.3,5.6,4.6,11.1,6.7,16.6c1.2,2.7,2.3,5.3,3.4,7.9c1.1,2.6,2.5,5,3.8,7.3
			c2.5,4.7,5.5,8.8,8.2,12.6c0.7,0.9,1.3,1.9,2,2.8c0.7,0.9,1.4,1.7,2,2.6c1.3,1.7,2.6,3.2,3.8,4.7c2.4,2.9,4.7,5.3,6.6,7.2
			c0.6,0.6,1.1,1.1,1.6,1.6C298.1,469.6,290,471,281.8,472z M312.8,160.6c-2.8-1.3-7-3.1-12.6-5.1c-2.7-1-5.7-2-9.1-3
			c-3.3-1-7-2-10.9-2.9c-7.8-1.8-16.8-3.3-26.8-3.9c-9.9-0.6-20.9-0.4-32.2,1.7c-5.7,1-11.5,2.3-17.2,4.3c-5.7,2-11.5,4.4-17.1,7.3
			c-5.5,3-10.9,6.5-16,10.5c-5.1,4-9.9,8.5-14.3,13.3c-4.5,4.8-8.4,10.2-12.1,15.6c-3.5,5.6-6.9,11.3-9.7,17.3
			c-3,5.9-5.4,12-7.7,18.1c-1.2,3.1-2.2,6.1-3.3,9.2c-1,3.1-2,6.2-3,9.2c-3.7,12.3-6.8,24.6-9.4,36.6c0.1-3.1,0.2-6.2,0.2-9.3
			c0-2.4,0-4.9-0.1-7.3l-0.1-7.2c-0.1-4.8,0-9.5,0.1-14.3c0.4-9.5,1-19,2.3-28.4c1.4-9.4,3.1-18.7,5.7-27.8
			c2.5-9.1,5.7-18.1,9.7-26.6c4-8.6,8.9-16.7,14.6-24.3c5.7-7.6,12.2-14.5,19.5-20.7c7.2-6.2,15.2-11.5,23.6-16
			c8.4-4.5,17.3-8.1,26.4-11.1c9.1-3,18.5-5,27.9-6.6c9.4-1.5,19-2.4,28.5-2.7c9.6-0.3,19.1-0.1,28.7,0.6c8.7,0.6,17.4,1.7,25.9,3.3
			c-1.4,3.7-2.5,7.3-3.6,11.1c-1.3,4.5-2.5,9.1-3.5,13.7c-1,4.6-1.9,9.3-2.5,13.9c-0.7,4.7-1.2,9.4-1.5,14.1
			C312.7,149.2,312.6,154.9,312.8,160.6z M478.3,260.6c0,1.3-0.1,3-0.1,4.9c0,1.9-0.2,4.2-0.4,6.7c-0.2,2.5-0.4,5.4-0.8,8.5
			c-0.4,3.1-0.8,6.5-1.4,10.1c-0.7,3.6-1.3,7.5-2.3,11.7c-0.5,2.1-1,4.2-1.6,6.3c-0.3,1.1-0.5,2.2-0.8,3.3c-0.3,1.1-0.7,2.2-1,3.4
			c-2.5,9.2-6.3,19-11,29.4c-4.7,10.4-10.8,21.1-18.3,31.9c-7.5,10.8-16.4,21.6-26.9,31.8c-10.4,10.3-22.4,20-35.9,28.7
			c-6.8,4.3-13.8,8.4-21.3,12.1c-1.9,0.9-3.7,1.9-5.6,2.8c-1.9,0.9-3.8,1.7-5.8,2.6c-3.8,1.8-7.9,3.2-11.9,4.8
			c-8.1,3-16.4,5.6-25,7.6c-0.5-0.9-1.1-1.8-1.8-2.9c-0.7-1.2-1.5-2.4-2.4-3.8c-0.9-1.4-1.8-2.9-2.8-4.4c-1-1.6-2-3.2-3.2-5
			c-0.6-0.9-1.2-1.8-1.8-2.7c-0.6-0.9-1.2-1.9-1.8-2.8c-2.4-3.8-5.1-8-7.9-12.4c-0.7-1.1-1.4-2.2-2.2-3.3c-0.8-1.1-1.6-2.2-2.3-3.4
			c-1.5-2.3-3.1-4.6-4.6-7c-1.5-2.4-2.9-5-4.3-7.5l-1-2l-0.9-2c-0.6-1.4-1.2-2.7-1.7-4.1c-2.2-5.6-3.9-11.5-5-17.4
			c-0.3-1.5-0.6-3-0.8-4.5c-0.2-1.5-0.4-3-0.6-4.5c-0.2-1.5-0.3-3-0.5-4.4c-0.1-1.5-0.4-2.9-0.4-4.4c-0.1-2.9-0.4-5.8-0.3-8.7
			c0-1.4,0-2.9,0.1-4.3c0.1-1.4,0.2-2.8,0.3-4.2c0.6-5.5,1.3-10.8,2.5-15.6c0.2-1.2,0.6-2.4,0.9-3.6c0.3-1.2,0.6-2.4,1-3.5
			c0.4-1.1,0.7-2.2,1.1-3.3c0.4-1.1,0.8-2.1,1.3-3.1c1.7-4.1,3.5-7.7,5.4-10.9c1.9-3.1,3.6-5.8,5.2-7.9c1.2-1.6,2.2-2.8,3-3.8
			c2.9-1.1,5.7-2.3,8.5-3.6c2.2-1.1,4.4-2.2,6.6-3.4c2.2-1.1,4.4-2.4,6.4-3.2c4.2-1.8,8.7-2.5,13.1-1.9c4.4,0.6,8.8,2.3,12.9,4.5
			c4.1,2.2,8.1,5,12.2,7.7c4.1,2.8,8.2,5.6,12.7,8.1c4.5,2.4,9.6,4.5,15.2,4.9c1.4,0.1,2.8,0.1,4.2,0c0.7,0,1.5-0.2,2.2-0.3l0.9-0.2
			c0.5-0.1,0.7-0.2,1.1-0.3c2.8-0.8,5.4-2.1,7.7-3.6c4.5-3.1,8-7.1,11.1-11.2c3.1-4.1,5.7-8.5,8.1-12.9c2.4-4.4,4.5-9,6.5-13.6
			c2-4.6,3.8-9.2,5.4-14.1l1.4-4.2l-4.5-0.7l-6.8-1c-2.2-0.4-4.5-0.8-6.7-1.3c-4.5-1-8.9-2-13.2-3.3c-4.4-1.2-8.6-2.9-12.8-4.5
			c-4.1-1.8-8.2-3.7-12.1-5.9c-3.9-2.2-7.7-4.7-11.2-7.5c-3.5-2.8-6.8-5.8-9.9-9.1c-6-6.6-11-14.2-14.6-22.4c-3.6-8.2-6-17-7.4-26
			c-1.4-9-1.8-18.1-1.4-27.3c0.4-9.1,1.6-18.3,3.3-27.3c0.8-4.5,1.9-9,3-13.5c1.2-4.4,2.5-8.9,4-13.2l0.9-2.4l-2.4-0.4
			c-9.7-1.6-19.3-2.5-28.9-3c-9.7-0.5-19.3-0.4-29,0.2c-9.6,0.5-19.3,1.6-28.8,3.2c-9.5,1.6-19,3.8-28.2,6.7
			c-4.6,1.4-9.2,3.1-13.7,4.9c-4.5,1.9-8.9,3.8-13.2,6.1c-8.6,4.4-16.8,9.7-24.4,15.7c-7.6,6-14.6,12.9-20.7,20.6
			c-6.1,7.6-11.4,15.9-15.9,24.6c-4.4,8.7-8.1,17.8-10.8,27.2c-2.8,9.4-4.8,18.9-6.2,28.6c-1.3,9.7-2.1,19.4-2.3,29.1
			c0,4.9-0.2,9.8,0,14.6l0.1,3.6l0.1,3.6c0.1,2.4,0.1,4.8,0.2,7.1c0.1,9.5-0.1,19-1.2,28.4c-1.1,9.3-2.9,18.7-7,27
			c-2,4.1-4.7,7.9-8.3,10.4c-3.6,2.5-8.1,3.6-12.6,3.3c-4.6-0.3-9.1-1.9-13.3-4c-3.4-1.6-6.6-3.6-9.7-5.7
			c-2.4-6.2-4.6-12.4-6.5-18.8l-2.1-7.8c-0.7-2.6-1.2-5.2-1.7-7.9l-0.8-3.9l-0.6-4c-0.4-2.7-0.9-5.3-1.2-8l-0.9-8
			c-0.2-1.3-0.3-2.7-0.3-4l-0.2-4c-0.2-2.7-0.4-5.4-0.3-8l-0.1-8c0.7-43.2,14.5-85.3,38-119.9c6-8.6,12.3-16.9,19.3-24.6
			c1.7-2,3.6-3.8,5.3-5.6l2.7-2.8c0.9-0.9,1.9-1.8,2.8-2.7c1.9-1.8,3.7-3.6,5.7-5.3c2-1.7,3.9-3.3,5.9-5
			c15.8-13,33.2-23.7,51.4-31.6l3.4-1.5l3.5-1.3c2.3-0.9,4.6-1.8,6.9-2.6c4.7-1.5,9.3-3.2,14-4.4c9.3-2.8,18.9-4.6,28.3-6.1
			c4.7-0.6,9.4-1.3,14.2-1.5c2.4-0.2,4.7-0.4,7.1-0.5c2.3-0.1,4.7-0.1,7-0.2l3.4-0.1L261,41c2.4,0,4.8,0.1,7.1,0.1
			c2.3,0.2,4.5,0.3,6.8,0.5c2.3,0.2,4.5,0.3,6.8,0.6c18.1,2,35.5,6.1,51.6,12c4,1.6,8,2.9,11.9,4.7c1.9,0.8,3.9,1.7,5.8,2.5
			c1.9,0.9,3.7,1.9,5.6,2.8c7.5,3.6,14.5,7.8,21.3,12c13.4,8.6,25.5,18.3,35.9,28.6c10.5,10.2,19.4,21,26.9,31.8
			c0.9,1.4,1.8,2.7,2.7,4c0.9,1.3,1.8,2.7,2.6,4c1.6,2.7,3.3,5.4,4.8,8c1.5,2.7,2.9,5.4,4.3,8c1.3,2.6,2.5,5.3,3.8,7.8
			c4.7,10.4,8.5,20.2,11,29.3c0.3,1.1,0.7,2.3,1,3.4c0.3,1.1,0.6,2.2,0.8,3.3c0.5,2.2,1.1,4.3,1.6,6.3c0.9,4.1,1.6,8,2.3,11.7
			c0.5,3.6,0.9,7,1.4,10.1c0.4,3.1,0.5,5.9,0.8,8.5c0.2,2.5,0.4,4.8,0.4,6.7c0.1,1.9,0.1,3.6,0.1,4.9c0.1,2.6,0.1,4,0.1,4
			C478.4,256.7,478.4,258.1,478.3,260.6z"/>
		<path fill="#47294F" d="M243,179.9c0.8,1.1,1.7,2.1,2.6,3.1c0.9,1.1,1.9,2,2.8,2.9c1,1,2,1.9,3.1,2.7l1.6,1.3l1.7,1.2l1.7,1.2
			l1.7,1.1l1.8,1.1l1.8,1l1.8,1l1.9,0.9l1.9,0.9l1.9,0.7c1.3,0.5,2.6,1,3.9,1.4c1.3,0.4,2.6,0.8,4,1.2c1.3,0.4,2.7,0.7,4,1
			c1.3,0.3,2.7,0.5,4,0.8c1.2,0.2,2.5,0.4,3.7,0.5l-0.6,1.6c-0.7,2-1.5,3.9-2.3,5.9c-0.8,1.9-1.6,3.9-2.6,5.6
			c-0.5,0.9-1,1.7-1.7,2.4c-0.7,0.7-1.5,1.3-2.6,0.9c0.4,0.4,1,0.7,1.6,0.7c0.6,0.1,1.3-0.1,1.8-0.4c1.1-0.5,2.1-1.2,3-1.9
			c1.8-1.5,3.3-3.3,4.6-5.1c1.4-1.8,2.6-3.7,3.7-5.6c0.6-1,1.1-1.9,1.6-2.9c0.5-1,1-2,1.5-3l1.8-4l-4.7-0.7
			c-2.5-0.4-5.1-0.8-7.6-1.3c-1.2-0.3-2.5-0.5-3.7-0.8c-1.2-0.3-2.5-0.6-3.7-0.9c-1.2-0.3-2.5-0.6-3.7-1c-1.2-0.3-2.4-0.7-3.6-1.1
			c-1.2-0.4-2.4-0.8-3.6-1.3l-1.8-0.7l-1.7-0.7l-1.8-0.7l-1.7-0.8l-1.7-0.8l-1.7-0.9l-1.7-0.9l-1.6-1c-1.1-0.6-2.2-1.3-3.3-2
			c-1.1-0.7-2.2-1.4-3.2-2.1c-1.1-0.8-2.2-1.4-3.2-2.3c-1-0.8-2.1-1.6-3.1-2.4c-1-0.8-2-1.7-3.1-2.5c0.7,1.2,1.4,2.3,2.1,3.5
			C241.4,177.8,242.2,178.8,243,179.9z"/>
	</g>
	<g>
		<path opacity="0.5" fill="#47294F" d="M482.3,247.7c0-2.1-0.2-4.6-0.4-6.9c-0.9-14.6-3.3-29.5-7.1-44.3
			c-6.2-23.5-15.2-44.5-27.5-64.2c-7.6-12.3-16.4-23.9-26.2-34.5c-4.9-5.4-10.4-10.8-16.8-16.4c-1.1-1-2.2-2-3.3-2.9
			c-0.5-0.4-0.9-0.8-1.4-1.2l-4.8-3.9c-3.1-2.3-6.5-4.9-10.1-7.4c-6.4-4.3-13.9-9.3-22.1-13.5l-5.9-3.1l-5.9-2.8
			c-3-1.5-6.1-2.7-9.1-4c-1.1-0.5-2.2-0.9-3.3-1.4c-1.5-0.7-3-1.2-4.5-1.7c-0.7-0.2-1.3-0.5-2.1-0.7l-1.7-0.6
			c-1.6-0.6-3.2-1.1-4.9-1.7L315,33.6l-10.3-2.4c-1.6-0.4-3.1-0.6-4.6-0.9c-0.8-0.1-1.6-0.3-2.4-0.4l-5.4-1l-8.8-1.2
			c-2-0.3-4-0.5-6-0.6l-3.9-0.3c-1.7-0.1-3.3-0.3-5.1-0.4L257.8,26c0,0-0.4,0-0.6,0l-10.8,0.2c-1.7,0.1-3.3,0.2-5,0.3
			c-0.9,0.1-1.7,0.1-2.5,0.2c-3.9,0.2-7.9,0.7-11.7,1.2c-1.1,0.1-2.3,0.3-3.5,0.5c-12,1.9-21.6,4-30.1,6.6c-3.9,1-7.7,2.4-11.4,3.6
			c-1.2,0.4-2.3,0.8-3.6,1.2c-1.6,0.6-3.2,1.2-4.8,1.9c-0.8,0.3-1.7,0.7-2.5,1l-3.8,1.5l-3.5,1.6c-19.4,8.7-37.7,20.3-54.4,34.4
			l-6.1,5.4c-1.3,1.2-2.6,2.5-3.9,3.7c-0.7,0.7-1.3,1.3-2,2l-1,1c-0.6,0.6-1.3,1.2-2,1.9l-2.8,3c-0.6,0.7-1.3,1.4-1.9,2
			c-1.2,1.3-2.5,2.6-3.7,4l-5.3,6.2c-1.2,1.4-2.3,2.9-3.4,4.3c-0.6,0.7-1.1,1.5-1.8,2.3l-2.6,3.4l-2.4,3.4c-0.5,0.8-1.1,1.6-1.6,2.3
			c-1,1.5-2.1,3-3.1,4.5l-4.4,7c-1,1.6-1.9,3.2-2.7,4.7c-0.5,0.8-0.9,1.7-1.4,2.5l-0.7,1.2c-0.5,0.8-0.9,1.6-1.4,2.5l-3.7,7.4
			c-0.6,1.2-1.3,2.5-1.8,3.8c-4.3,9.3-8.1,19.6-11.6,31.5l-2.1,8c-0.5,1.8-0.8,3.6-1.2,5.4c-0.2,0.9-0.4,1.9-0.6,2.9l-0.9,4.2
			l-0.7,4.1c-0.1,0.9-0.3,1.9-0.5,2.8c-0.3,1.8-0.6,3.6-0.8,5.5l-0.9,8.2c-0.2,1.5-0.3,3.1-0.4,4.4l-0.5,8.3c-0.1,1-0.1,1.9-0.1,2.9
			c0,0.5,0,0.9,0,1.4l-0.1,8.3l0.3,8.3c0.1,2.7,0.3,5.5,0.6,8.1l0.4,4.5c0.1,1.4,0.3,2.8,0.5,4.3l1.2,8.3
			c2.1,12.1,4.6,22.7,7.7,32.4c6.6,20.9,16.1,40.9,28.4,59.4c23.6,35.5,57.8,65,96.3,82.9l3.6,1.7l3.6,1.5c0.8,0.3,1.6,0.7,2.5,1
			c1.6,0.7,3.1,1.3,4.8,2c1.4,0.5,2.7,1,4.1,1.5c3.4,1.2,7,2.5,10.5,3.5c8.8,2.8,18.3,5.1,30,7.1c1.1,0.2,2.3,0.3,3.4,0.5
			c3.8,0.6,7.7,1.1,11.6,1.4c0.8,0.1,1.7,0.2,2.5,0.2c1.6,0.2,3.3,0.3,5,0.4l10.3,0.4c0.1,0,0.3,0,0.4,0l11.4-0.2
			c1.6-0.1,3.2-0.2,4.7-0.3l4.1-0.3c1.9-0.1,3.9-0.2,5.8-0.5l9-1.1l5.3-0.9c0.8-0.1,1.6-0.3,2.4-0.4c1.5-0.3,3.1-0.5,4.6-0.9
			L315,479l10-2.8c1.7-0.5,3.4-1.1,5-1.7l1.6-0.6c0.7-0.2,1.3-0.5,2-0.7c1.5-0.5,3-1,4.5-1.7c1.1-0.5,2.2-0.9,3.4-1.4
			c3-1.2,6.1-2.4,9.1-3.9l6.1-2.8l5.8-3c8-4.1,15.4-8.9,22.1-13.4c3.5-2.5,6.8-4.9,10.1-7.4l4.7-3.9c0.5-0.4,0.9-0.8,1.4-1.2
			c1.1-0.9,2.2-1.8,3.2-2.8c6.5-5.7,12-11.1,16.9-16.4c9.8-10.6,18.6-22.2,26.2-34.5c12.2-19.6,21.2-40.6,27.5-64.2
			c3.9-14.9,6.3-29.8,7.2-44.3c0.2-2.8,0.4-5,0.4-6.9l0.2-9L482.3,247.7z M35.7,261.2l-0.2-4.6l0.1-8.1c0-0.5,0-1,0-1.5
			c0-0.8,0-1.6,0.1-2.5l0.5-8.4c0.1-1.3,0.1-2.6,0.3-4l0.9-8.2c0.2-1.7,0.5-3.4,0.8-5.2c0.2-1,0.3-1.9,0.5-2.9l0.6-4l0.9-4
			c0.2-1,0.4-1.9,0.6-2.9c0.4-1.8,0.7-3.4,1.1-5.1l2.1-7.9c3.4-11.6,7.2-21.6,11.4-30.7c0.5-1.2,1.1-2.5,1.7-3.5l3.7-7.3
			c0.4-0.8,0.8-1.5,1.3-2.3l0.7-1.2c0.5-0.8,1-1.7,1.4-2.6c0.8-1.5,1.7-3.1,2.6-4.5l4.4-7c0.9-1.4,1.8-2.8,2.9-4.2
			c0.6-0.8,1.1-1.6,1.7-2.4l2.3-3.2l2.5-3.2c0.6-0.8,1.2-1.5,1.8-2.3c1.1-1.4,2.1-2.8,3.2-4l5.3-6.2c1.1-1.3,2.2-2.5,3.4-3.8
			c0.7-0.7,1.3-1.4,2-2.1l2.7-2.9c0.6-0.6,1.2-1.2,1.8-1.8l1-1c0.7-0.7,1.4-1.3,2.1-2c1.2-1.2,2.5-2.4,3.7-3.5l6-5.3
			c16.3-13.8,34.1-25.1,53-33.5l3.4-1.6l3.6-1.5c0.8-0.3,1.7-0.7,2.5-1c1.6-0.6,3.1-1.3,4.6-1.8c1.2-0.4,2.4-0.8,3.6-1.2
			c3.8-1.3,7.3-2.6,11.1-3.5c8.4-2.5,17.7-4.6,29.4-6.4c1.2-0.1,2.3-0.3,3.5-0.4c3.9-0.5,7.5-1,11.3-1.2c0.9-0.1,1.8-0.1,2.6-0.2
			c1.6-0.1,3.2-0.3,4.7-0.3l10.7-0.2l11,0.3c1.6,0.1,3.2,0.2,4.8,0.4L277,33c1.9,0.2,3.8,0.3,5.6,0.6l8.7,1.2l5.2,1
			c0.8,0.2,1.7,0.3,2.5,0.5c1.5,0.3,2.9,0.5,4.3,0.8l10.1,2.4l9.9,2.9c1.6,0.5,3.1,1,4.6,1.6l1.7,0.6c0.7,0.3,1.4,0.5,2.1,0.7
			c1.4,0.5,2.8,1,4.1,1.5c1.1,0.5,2.3,0.9,3.4,1.4c3.1,1.2,5.9,2.4,8.8,3.8l5.9,2.7l5.8,3c7.9,4.1,15.3,9,21.4,13.1
			c3.4,2.4,6.9,5,9.8,7.2l4.7,3.8c0.5,0.4,1,0.8,1.5,1.2c1.1,0.9,2.1,1.7,3,2.6c6.3,5.6,11.7,10.9,16.4,16.1
			c5.3,5.7,10.3,11.8,15,18c-5-6-10.3-11.8-15.8-17.2c-10.9-10.7-23.2-20.4-36.4-29c-8.1-5-14.9-8.9-21.5-12.1l-5.7-2.8l-5.7-2.5
			c-2.9-1.3-5.8-2.4-8.7-3.5c-1.1-0.4-2.2-0.8-3.4-1.3c-16.6-6.1-34.2-10.2-52.2-12.2c-1.9-0.3-3.7-0.4-5.5-0.5l-8.4-0.6l-10.9-0.2
			l-10.4,0.3c-1.6,0.1-3.1,0.2-4.7,0.3c-0.8,0.1-1.7,0.1-2.4,0.2c-3.7,0.2-7.4,0.7-10.9,1.1c-1.1,0.1-2.3,0.3-3.5,0.4
			c-11.6,1.8-20.4,3.7-28.6,6.2c-3.3,0.9-6.6,2-9.8,3c-1.5,0.5-2.9,1-4.5,1.5c-1.5,0.5-3,1.1-4.5,1.7c-0.8,0.3-1.6,0.6-2.5,1
			l-3.6,1.4l-3.4,1.5c-18.5,8-36.1,18.8-52.2,32.1l-5.9,5c-1.3,1.1-2.5,2.3-3.7,3.4c-0.7,0.6-1.3,1.3-2,1.9l-1,0.9
			c-0.6,0.6-1.2,1.2-1.9,1.8l-2.7,2.8c-0.6,0.7-1.3,1.3-1.9,2c-1.2,1.2-2.4,2.4-3.5,3.7c-6.4,7-12.8,15.1-19.6,24.9
			C50,170.8,36.3,214,35.6,256.8L35.7,261.2z M76.5,376.7l-4.3-6.7c-0.9-1.4-1.7-2.8-2.5-4.3c-0.5-0.8-0.9-1.7-1.4-2.5l-0.7-1.2
			c-0.4-0.7-0.8-1.4-1.2-2.1l-3.6-7.2c-0.5-1-1.1-2.2-1.7-3.5c0,0,0-0.1-0.1-0.1c5.4,3,10.2,4.8,14.9,5.4c2.9,0.4,5.8,0.4,8.6-0.1
			c2.9-0.5,5.8-1.7,8.3-3.3c3.2-2,6.2-4.9,8.7-8.6c-0.2,4.7-0.3,9.2-0.4,13.3c0,11.1,0.1,19.7,0.5,26.9l0.2,5.6l0.5,6.2
			c0.2,3.2,0.5,6.2,0.7,8.9c0.2,2.3,0.4,4.4,0.7,6.3C93.6,399.7,84.4,388.6,76.5,376.7z M108.9,324.4c-0.1,1.2-0.2,2.4-0.3,3.7
			c-0.1,1.5-0.3,3.1-0.3,4.6l-0.1,1c-0.1,2.3-0.3,4.6-0.4,6.9c-0.2,2.9-0.4,5.7-0.4,7.8l-0.2,5.3c0.2-7.8,0.5-16.7,1.3-26l0.9-10.3
			C109.2,319.8,109.1,322.1,108.9,324.4z M106.7,314.5c0.3-2.1,0.6-4.1,0.8-6c0.7-6,1.1-12.4,1.2-19.6l3.4,0.4
			c-0.6,4.5-1.1,8.9-1.5,13.3L106.7,314.5z M407.3,255.4c-0.8-0.2-1.6-0.3-2.4-0.5c-1.5-0.3-3-0.5-4.5-0.9
			c-3.8-0.8-8.7-1.9-13.7-3.5c-4.8-1.4-9.4-3.2-13.2-4.7c-3.8-1.7-8.3-3.7-12.6-6.3c-4.7-2.8-8.4-5.3-11.6-8
			c-3.8-3.1-7.2-6.3-10.2-9.6c-6.3-7-11.3-14.9-15-23.6c-3.5-8.2-6-17.3-7.3-26.9c-0.4-3.1-0.7-6.4-0.9-9.8l-0.1-1.3
			c-0.1-1.6-0.1-3.1-0.1-4.7c0.2,5.4,0.7,10.7,1.5,15.8c1.4,9.6,4,18.6,7.6,26.7c3.8,8.5,8.9,16.3,15.1,23.2c3,3.2,6.4,6.4,10.2,9.4
			c3.2,2.6,6.9,5,11.5,7.7c3.8,2.3,7.7,4,12.5,6.1c3.8,1.5,8.4,3.3,13,4.6c4.8,1.5,9.7,2.6,13.5,3.4c1.5,0.3,2.9,0.6,4.4,0.8
			c0.8,0.1,1.6,0.3,2.5,0.5l7.7,1.2l-0.3,0.8c-1.5,4.5-3.2,8.9-5.3,13.8c-2.1,4.9-4.2,9.2-6.4,13.3c-2.7,4.9-5.2,8.9-7.9,12.5
			c-3.5,4.7-6.8,8-10.4,10.5c-2.2,1.5-4.5,2.6-6.7,3.2l-0.4,0.1c-0.2,0-0.4,0.1-0.6,0.1l-1,0.2c-0.5,0.1-1.1,0.2-1.7,0.2
			c-1.2,0.1-2.5,0.1-3.7,0c-4.3-0.3-8.8-1.8-14-4.6c-1.7-0.9-3.4-1.9-5-2.9c1.7,1,3.3,1.9,5,2.8c5.1,2.6,9.7,4,13.9,4.2
			c1.2,0.1,2.5,0,3.6-0.1c0.5,0,0.9-0.1,1.3-0.2l1.4-0.3c0.1,0,0.4-0.1,0.7-0.2l0.3-0.1c2.2-0.6,4.4-1.7,6.4-3.2
			c3.3-2.4,6.5-5.7,10-10.5c2.6-3.6,5.1-7.6,7.7-12.5c2.2-4.1,4.2-8.4,6.2-13.3c1.3-3.2,2.6-6.4,3.7-9.5l1.2-3.4L407.3,255.4z
			 M317.7,100.9c-1.4,4.7-2.6,9.4-3.6,13.9c-1,4.4-1.8,9-2.6,14.2c-0.7,4.8-1.2,9.7-1.5,14.3c-0.3,4.3-0.4,8.5-0.3,12.7
			c-2.3-1-5.2-2.1-8.5-3.3c-2.7-1-5.8-2-9.2-3c-3.4-1-7.1-2-11.1-2.9c-8.9-2-18-3.4-27.3-4c-12-0.7-22.7-0.1-32.9,1.7
			c-6.6,1.1-12.3,2.6-17.7,4.4c-6.3,2.1-12.2,4.7-17.5,7.5c-5.8,3.2-11.3,6.8-16.4,10.8c-4.9,3.8-9.7,8.2-14.7,13.7
			c-4,4.3-7.9,9.4-12.5,16.1c-3.2,5.1-6.8,11.1-9.8,17.5c-3.2,6.4-5.8,12.9-7.8,18.4c-0.8,2-1.5,4-2.2,6c-0.4,1.1-0.8,2.2-1.2,3.3
			l-3,9.3c-1.2,4-2.4,8.1-3.5,12.4c-0.1-3.4,0-6.7,0.1-10l0.1-2.8c0.4-10.8,1.2-19.7,2.3-28.1c1.5-10.4,3.3-19.3,5.6-27.4
			c2.7-9.8,5.8-18.3,9.5-26.1c4-8.5,8.8-16.5,14.3-23.8c5.5-7.3,11.9-14.1,19-20.2c6.8-5.9,14.6-11.1,23.1-15.6
			c7.7-4.2,16.2-7.7,25.9-10.8c8-2.6,16.9-4.7,27.4-6.5c8.9-1.4,18.4-2.3,28.2-2.7c2.8-0.1,5.6-0.1,8.4-0.1c6.7,0,13.4,0.2,20,0.7
			c8,0.6,15.3,1.5,22.1,2.6C319.4,95.5,318.5,98.1,317.7,100.9z M257.9,149.1c-1.5-0.1-3.1-0.1-4.6-0.1c-4.7-0.1-9.6,0.1-15.2,0.5
			c-5.8,0.5-11.1,1.2-16,2.2c-2.6,0.5-5.3,1.1-7.8,1.8l-4.6,1.3c-0.9,0.3-1.7,0.5-2.6,0.8l-1.5,0.5c-5.4,1.8-10.9,4.1-16.5,6.9
			c-5.3,2.7-10.6,6-15.7,9.7c-4.5,3.3-9.1,7.2-14.4,12.5l-3.3,3.4c0,0.1-0.1,0.1-0.1,0.2c1.1-1.3,2.2-2.6,3.3-3.7
			c4.8-5.2,9.4-9.4,14-13c4.9-3.8,10.1-7.2,15.6-10.2c5-2.7,10.6-5.1,16.6-7.2c5-1.8,10.5-3.1,16.7-4.2c7.1-1.3,14.4-1.9,22.4-1.9
			c2.9,0,6,0.1,9.1,0.3C254.8,148.8,256.4,148.9,257.9,149.1z M110.9,222.2c-1.1,8.6-1.9,17.7-2.3,28.7l-0.1,2.9
			c-0.1,3.7-0.1,7.6,0,11.5l0.1,7.2c0,1.1,0,2.3,0.1,3.4c0-1.1-0.1-2.3-0.1-3.4l-0.2-7.3c-0.1-3.8-0.1-7.8,0-11.7l0-2.7
			c0.3-9.8,1-19.4,2.3-28.7c1-7,2.4-13.9,4.1-20.7C113.3,207.8,112,214.6,110.9,222.2z M118,422.7c-1.9-1.6-3.9-3.3-6.2-5.3
			l0.1-14.3c0.1-2.6,0.1-5.4,0.1-8.5c0-3.6,0.1-7.7,0.2-12c0.2-9.5,0.4-18.2,0.8-26.5l0.3-7.5c0.1-2.1,0.2-4.8,0.4-7.6
			c0.2-2.3,0.3-4.7,0.4-7l0.1-1c0.1-1.4,0.2-2.9,0.3-4.3c0.1-1.3,0.2-2.5,0.3-3.8c0.7-10.9,1.7-22.7,3.2-34.7
			c1.7-13,4.2-25.1,7.6-36.1l3-9c0.4-1,0.8-2.1,1.2-3.2c0.7-1.9,1.5-3.8,2.3-5.6c2.2-4.8,5.1-11.1,8.6-17.1
			c3.2-5.7,7-11.2,10.3-15.7c0.7-0.8,1.3-1.7,2-2.5c1.3-1.7,2.5-3.3,3.9-4.8c0.4-0.5,0.9-1,1.3-1.5c0.6-0.7,1.2-1.4,1.8-2l3.2-3.4
			c5-5,9.4-8.8,13.6-11.9c4.9-3.5,9.9-6.7,14.9-9.2c5.3-2.6,10.5-4.8,15.6-6.5l1.5-0.5c0.8-0.3,1.7-0.5,2.4-0.8l4.5-1.2
			c2.6-0.6,5-1.2,7.4-1.7c4.8-1,9.8-1.6,15.4-2.1c4.3-0.3,8.2-0.5,11.9-0.5c0.9,0,1.8,0,2.7,0c8.1,0.1,16.6,0.8,25.7,2.2
			c6.6,1,13.3,2.3,19.7,3.9c4.7,1.1,8.5,2.2,11.4,3.2c0.2,2.8,0.5,5.5,0.8,8.2c1.4,10.2,4,19.8,7.7,28.5c4,9.2,9.4,17.7,16.1,25.2
			c3.2,3.6,6.9,7,10.9,10.3c3.4,2.8,7.4,5.5,12.3,8.4c4.5,2.7,9.2,4.9,13.3,6.7c4,1.6,8.8,3.5,13.8,4.9c5.1,1.6,10.2,2.7,14.1,3.6
			c1.5,0.3,3.1,0.6,4.7,0.9c0.5,0.1,0.9,0.2,1.4,0.3c-0.7,1.9-1.5,3.9-2.3,5.8c-2,4.7-3.9,8.9-6,12.8c-2.4,4.6-4.8,8.4-7.2,11.7
			c-3.1,4.3-5.9,7.2-8.7,9.2c-1.5,1.1-3.1,1.9-4.5,2.3l-1.7,0.4c-0.3,0-0.5,0.1-0.9,0.1c-0.8,0.1-1.7,0.1-2.7,0.1
			c-3.4-0.2-7.1-1.3-11.5-3.6c-4-2-7.8-4.6-11.9-7.2c-4.2-2.7-8.6-5.6-13.3-8c-5.9-3-11-4.6-15.9-5.1c-5.7-0.6-11.8,0.5-17.2,3.1
			c-1.9,0.9-3.5,1.8-5.1,2.8c-0.6,0.3-1.1,0.6-1.7,1c-2.1,1.2-4.2,2.4-6.3,3.5c-4.8,2.6-8.9,4.3-12.6,5.4c-4.4,1.3-8.7,1.7-12.7,1.2
			c-4-0.5-8.1-2.1-11.7-4.6c-3.3-2.3-6.5-5.3-9.7-9.3c-2.7-3.4-5.2-7.2-7.8-11.8l-1.4-2.5l-5.8,3l1.3,2.6c2.6,5.4,5.1,9.6,7.7,13.3
			c3.5,4.8,7.1,8.6,10.9,11.5c4.6,3.5,9.8,5.8,15.2,6.7c2.6,0.5,5.3,0.6,8.2,0.5c-0.3,0.4-0.7,0.8-1,1.2c-2.6,3.1-5.1,6.9-7.6,11.3
			c-2.4,4.4-4.4,9.4-6,14.9c-1.5,5.1-2.5,10.9-2.8,17.9l-0.1,4.5c0,1.1,0,2.2,0.1,3.3c0,0.5,0.1,1,0.1,1.4c0.1,2.6,0.4,5.3,0.7,7.8
			l0.2,1.8c0.5,3.4,1.3,6.7,1.9,9.4l1.4,4.6c0.4,1.5,0.9,3.1,1.5,4.6l1.6,4.3c0.5,1.6,1.1,3,1.8,4.5c0.4,1,0.8,2.1,1.2,3.1
			c0.7,1.8,1.4,3.7,2.2,5.4l1.3,3.2c1.9,4.6,3.7,8.9,5.4,13.4l3.4,7.9c1.1,2.5,2.4,4.8,3.6,7l0.3,0.5c2.2,4.1,4.8,7.8,7.1,11.1
			l1.6,2.3c0.6,0.8,1.1,1.6,1.7,2.4l2,2.6c1.3,1.6,2.6,3.2,3.8,4.7c1.6,2,3.2,3.7,4.6,5.2c-6.2,1.3-12.4,2.3-18.7,3.1
			c-1.7,0.3-3.4,0.4-5.2,0.6l-4,0.3c-1.5,0.1-2.9,0.3-4.3,0.4l-10.4,0.4c-0.2,0-0.3,0-0.3,0l-10.3-0.1c-1.5,0-2.9-0.1-4.4-0.2
			c-0.9-0.1-1.7-0.1-2.6-0.2c-3.4-0.1-6.9-0.5-10.5-0.9c-1.2-0.1-2.3-0.3-3.4-0.4c-8.4-1.2-18.4-2.8-28.4-5.6
			c-3.4-0.8-6.6-1.8-10.1-3c-1.3-0.4-2.6-0.8-3.9-1.2c-1.5-0.5-3-1.1-4.5-1.6c-0.8-0.3-1.7-0.6-2.5-0.9l-3.4-1.3l-3.5-1.5
			C151,446,133.6,435.5,118,422.7z M259.3,366.2c0.1,0.9,0.1,1.7,0.1,2.5c0,0.9,0.1,1.7,0.2,2.5c-0.1-0.7-0.3-1.5-0.4-2.2l-0.2-1.7
			c-0.3-2.5-0.6-4.9-0.7-7.2c0-0.5-0.1-1.1-0.1-1.6c-0.1-1-0.1-1.9-0.1-2.8l0.1-4.4c0.3-6.4,1.1-11.7,2.6-16.3
			c1.5-5.1,3.4-9.7,5.5-13.7c0.4-0.7,0.7-1.3,1.1-2c-0.3,0.7-0.6,1.4-0.9,2.1l-1.3,3.1l-1.1,3.4c-0.3,0.9-0.6,1.8-0.8,2.6L263,332
			c-0.3,1-0.6,2.1-0.8,3.3c-1.3,5.2-2,10.8-2.6,16.1l-0.3,4.2c-0.1,0.9-0.1,1.9-0.1,2.9c0,0.5,0,1,0,1.5
			C259.1,362,259.2,364.2,259.3,366.2z M283.3,433.2c0.4,0.6,0.8,1.1,1.1,1.7l7.4,11.7l-0.8-1.1c-2.3-3.3-4.7-6.7-6.8-10.5l-0.3-0.5
			C283.8,434,283.5,433.6,283.3,433.2z M416.6,411.4c-4.8,5.2-10.2,10.4-16.5,16.1c-0.9,0.9-1.9,1.7-3,2.5c-0.5,0.4-1,0.8-1.5,1.2
			l-4.6,3.8c-3.2,2.4-6.5,4.8-9.9,7.2c-6.6,4.4-13.7,9.1-21.5,13.1l-5.7,2.9L348,461c-2.8,1.4-5.7,2.5-8.7,3.7
			c-1.1,0.5-2.3,0.9-3.5,1.4c-1.3,0.6-2.7,1-4.1,1.5c-0.7,0.2-1.4,0.5-2.1,0.7l-1.6,0.6c-1.6,0.6-3.2,1.1-4.7,1.6l-9.8,2.8
			l-10.2,2.3c-1.4,0.3-2.8,0.6-4.3,0.8c-0.8,0.1-1.7,0.3-2.5,0.4l-5.1,0.9l-8.9,1.1c-1.8,0.2-3.5,0.4-5.4,0.5l-4.1,0.3
			c-1.5,0.1-3.1,0.2-4.5,0.3l-11.3,0.2l-10.4-0.4c-1.5-0.1-3.1-0.2-4.7-0.4c-0.9-0.1-1.7-0.2-2.6-0.2c-3.7-0.3-7.4-0.8-11.2-1.3
			c-1.2-0.2-2.3-0.3-3.4-0.5c-11.3-1.9-20.5-4.1-29.2-6.9c-3.4-1-6.7-2.2-10.2-3.4c-1.4-0.5-2.8-1-4-1.4c-1.5-0.6-3.1-1.2-4.6-1.9
			c-0.8-0.3-1.7-0.7-2.5-1L171,461l-3.5-1.7c-0.3-0.1-0.6-0.3-0.9-0.4c0.3,0.1,0.6,0.3,0.9,0.4l3.6,1.5l3.5,1.3
			c0.8,0.3,1.6,0.6,2.5,0.9c1.5,0.6,3.1,1.2,4.7,1.7c1.3,0.4,2.6,0.8,3.9,1.2c3.4,1.1,6.9,2.2,10.4,3.1c10.3,2.9,20.5,4.5,29.2,5.7
			c1.2,0.1,2.3,0.3,3.5,0.4c3.6,0.4,7.3,0.8,11,1c0.8,0,1.7,0.1,2.5,0.2c1.5,0.1,3,0.2,4.7,0.2l7.2,0.1l3.2,0l0.5,0c0,0-0.1,0-0.1,0
			l10.6-0.4c1.5-0.1,3-0.2,4.5-0.4l3.9-0.3c1.8-0.2,3.7-0.3,5.5-0.6c8.1-1,16.3-2.4,24.4-4.3l0.4-0.1l0,0l2.1-0.5
			c0.2-0.1,0.5-0.1,0.7-0.2l2.1-0.5l0,0c7.8-2,15.4-4.4,22.7-7.1c1.1-0.4,2.2-0.9,3.3-1.3c2.9-1.1,5.8-2.2,8.6-3.6l5.9-2.6l5.6-2.8
			c6.7-3.3,13.6-7.2,21.6-12.3c13.2-8.6,25.4-18.4,36.3-29.1c4.5-4.4,8.9-9.1,13.1-13.9C425,401.9,420.9,406.8,416.6,411.4z
			 M475.2,265.5c0,1.9-0.2,4.2-0.4,6.5c-0.1,0.9-0.2,1.9-0.2,2.8c-0.1,1.8-0.3,3.6-0.5,5.5c-0.1,1.1-0.3,2.2-0.4,3.4
			c-0.3,2.1-0.6,4.4-0.9,6.6c-0.2,0.9-0.3,1.8-0.5,2.8c-0.5,2.8-1,5.7-1.7,8.7l-1.8,7.5c-0.2,0.7-0.3,1.4-0.5,2l-1,3.4
			c-2.3,8.6-5.9,18-10.8,28.9c-4.8,10.5-10.8,21.1-18,31.4c-7.8,11.2-16.7,21.8-26.5,31.4c-10.6,10.4-22.5,20-35.4,28.3
			c-7.8,4.9-14.5,8.7-21,12l-5.5,2.7l-5.8,2.6c-2.6,1.2-5.4,2.3-8.3,3.4c-1.1,0.4-2.3,0.9-3.4,1.3c-7.3,2.7-14.9,5.1-22.6,7
			c-0.2-0.3-0.4-0.7-0.6-1c-0.6-1.1-1.4-2.2-2.2-3.4l-0.3-0.5c-0.5-0.7-1-1.5-1.5-2.3c-0.4-0.7-0.8-1.4-1.3-2c-1-1.6-2.1-3.3-3.2-5
			l-1.7-2.6c-0.3-0.5-0.6-1-0.9-1.5c-0.3-0.4-0.5-0.9-0.8-1.3l-7.9-12.4c-0.7-1.1-1.5-2.2-2.3-3.4L287,428c-0.7-1-1.4-2-2.1-3.1
			l-4.6-6.9c-1.6-2.5-3-5.2-4.2-7.4l-1-1.9l-1-2.3c-0.5-1.2-1-2.4-1.5-3.6c-2.1-5.2-3.7-10.8-4.9-17c-0.3-1.3-0.5-2.8-0.7-4.2
			l-0.6-4.5c-0.1-0.9-0.2-1.8-0.3-2.7c0-0.5-0.1-1.1-0.1-1.6c-0.1-0.6-0.1-1.2-0.2-1.8c-0.1-0.9-0.2-1.7-0.2-2.5
			c0-0.9-0.1-1.8-0.1-2.7c-0.1-2-0.2-3.9-0.2-5.8c0-0.6,0-1.1,0-1.7c0-0.8,0-1.6,0.1-2.5l0.3-4.1c0.5-5,1.2-10.3,2.4-15.2l0-0.2
			c0.2-1,0.5-1.9,0.7-2.9l0.1-0.5c0.1-0.4,0.2-0.7,0.3-1.1c0.2-0.7,0.4-1.5,0.7-2.3l1.1-3.2l1.2-3c1.5-3.6,3.2-7.1,5.2-10.5
			c1.7-2.8,3.4-5.4,5-7.6c0.8-1.1,1.7-2.2,2.4-3.1c2.6-1,5.2-2.1,8-3.4c2.3-1.1,4.6-2.3,6.7-3.4c0.6-0.3,1.1-0.6,1.7-0.9
			c1.5-0.8,3.1-1.7,4.6-2.3c3.7-1.6,7.7-2.2,11.5-1.7c3.7,0.5,7.6,1.9,11.9,4.2c4,2.2,7.8,4.8,11.9,7.6l0.7,0.5
			c3.9,2.6,7.9,5.4,12.3,7.8c6,3.2,11.1,4.9,16.3,5.3c1.6,0.1,3.2,0.1,4.6,0c0.7,0,1.5-0.2,2.2-0.3l1.2-0.2c0.4-0.1,0.7-0.1,1-0.2
			l0.4-0.1c2.9-0.8,5.8-2.1,8.6-4.1c4.2-2.9,7.9-6.7,11.8-11.9c2.8-3.8,5.6-8.1,8.3-13.3c2.3-4.3,4.5-8.8,6.6-13.8
			c2.2-5.1,4-9.7,5.5-14.3l2.5-7.5l-14.7-2.2c-0.8-0.2-1.6-0.3-2.5-0.4c-1.4-0.3-2.8-0.5-4.2-0.8c-3.6-0.8-8.4-1.8-13-3.3
			c-4.4-1.3-8.8-3-12.4-4.4c-3.7-1.6-7.9-3.5-11.8-5.8c-4.4-2.5-7.8-4.8-10.8-7.2c-3.5-2.8-6.7-5.7-9.5-8.7
			c-5.8-6.4-10.6-13.6-14.1-21.6c-3.4-7.6-5.8-16.1-7.1-25.2c-1.3-8.4-1.7-17.4-1.3-26.7c0.4-8.5,1.4-17.3,3.2-26.9
			c0.8-4.3,1.8-8.8,3-13.3c1.3-4.9,2.6-9.2,3.9-12.9l2.1-5.8l-5.9-1c-8.9-1.5-18.2-2.4-29.3-3c-9.7-0.5-19.5-0.4-29.3,0.2
			c-9.6,0.5-19.4,1.6-29.1,3.2c-10.1,1.7-19.7,4-28.5,6.8c-4.8,1.5-9.5,3.2-14,5c-5,2.1-9.2,4-13.4,6.2c-8.6,4.4-17,9.8-25,16
			c-7.9,6.2-15,13.3-21.2,21c-6.1,7.6-11.6,16.1-16.2,25.1c-4.5,8.9-8.2,18.2-11,27.7c-2.8,9.4-4.9,19.2-6.3,29
			c-1.3,9.5-2.1,19.4-2.4,29.5l0,2.7c0,3.9-0.1,8,0.1,11.9l0.2,7.3c0.1,2.4,0.1,4.7,0.2,7.1c0.1,10.9-0.2,19.8-1.2,28
			c-0.9,7.7-2.5,17.6-6.7,26c-2.1,4.2-4.5,7.3-7.4,9.3c-2.6,1.8-5.7,2.8-9.1,2.8c-0.5,0-1,0-1.6-0.1c-3.6-0.3-7.6-1.5-12.2-3.7
			c-2.8-1.4-5.6-3-8.6-5c-2.2-5.7-4.2-11.6-6-17.6l-2.1-7.8c-0.4-1.6-0.8-3.2-1.1-4.9c-0.2-1-0.4-1.9-0.6-2.8l-0.8-3.8l-0.6-3.9
			c-0.1-1-0.3-1.9-0.5-2.9c-0.3-1.7-0.6-3.3-0.8-5l-0.9-8.1c-0.2-1.3-0.2-2.6-0.3-3.8l-0.3-4.5c-0.2-2.5-0.3-5-0.3-7.4l-0.1-7.9
			c0.7-41.6,14-83.6,37.5-118.3c6.6-9.6,12.9-17.5,19.1-24.3c1-1.2,2.1-2.3,3.3-3.5c0.7-0.7,1.3-1.4,1.9-2l2.6-2.7
			c0.6-0.6,1.2-1.1,1.7-1.7l1-1c0.7-0.6,1.4-1.3,2-1.9c1.2-1.1,2.3-2.2,3.5-3.3l5.8-5C135.9,80.3,152.9,69.8,171,62l3.3-1.5l3.4-1.3
			c0.8-0.3,1.7-0.6,2.5-1c1.5-0.6,2.9-1.1,4.2-1.6c1.5-0.5,3-1,4.5-1.5c3.2-1.1,6.2-2.1,9.5-2.9c8-2.4,16.6-4.2,27.8-6
			c1.2-0.1,2.3-0.3,3.5-0.4c3.6-0.5,7-0.9,10.5-1.1c0.9-0.1,1.7-0.1,2.6-0.2c1.5-0.1,3-0.2,4.4-0.3l10.2-0.3l10.6,0.2l8.3,0.6
			c1.7,0.1,3.4,0.2,5.1,0.5c17.6,1.9,34.8,5.9,50.8,11.8c1.1,0.4,2.3,0.9,3.4,1.3c2.9,1.1,5.6,2.1,8.3,3.4l5.6,2.5l5.6,2.8
			c6.5,3.1,13.1,6.9,21,11.8c12.9,8.3,24.8,17.8,35.5,28.2c9.8,9.6,18.7,20.1,26.5,31.3l2.8,4.1c0.8,1.2,1.7,2.5,2.5,3.9
			c0.6,1,1.2,1.9,1.8,2.9c1,1.7,2.1,3.4,3,5l4.3,7.9c0.9,1.7,1.6,3.3,2.4,5c0.4,0.9,0.9,1.9,1.3,2.7c5,10.9,8.5,20.3,10.9,29l1,3.3
			c0.2,0.7,0.4,1.4,0.5,2l1.8,7.5c0.7,3,1.2,5.8,1.7,8.6c0.2,1,0.4,2,0.5,2.8c0.3,2.3,0.6,4.6,0.9,6.7c0.2,1.2,0.3,2.3,0.4,3.4
			c0.3,1.9,0.4,3.8,0.5,5.5c0.1,1,0.1,1.9,0.2,2.8c0.2,2.3,0.4,4.6,0.4,6.6l0.2,7.4c0,0.7,0,1.1,0,1.4L475.2,265.5z"/>
		<path opacity="0.5" fill="#47294F" d="M239.4,177.4c0.8,1.2,1.6,2.3,2.4,3.3c0.6,0.8,1.2,1.5,1.8,2.2c0.3,0.3,0.6,0.6,0.8,1
			c0.7,0.9,1.5,1.7,2.3,2.4l0.6,0.6c1.1,1.1,2.2,2,3.2,2.8l1.7,1.4l3.4,2.5l3.6,2.2l3.7,2l3.8,1.8l1.9,0.7c1.2,0.5,2.4,0.9,4,1.4
			c1.3,0.5,2.7,0.8,4,1.2c1.2,0.4,2.4,0.6,3.5,0.9l0.5,0.1c1,0.2,2,0.4,3,0.6l1.1,0.2c0.6,0.1,1.3,0.2,1.9,0.3
			c-0.7,1.9-1.4,3.8-2.2,5.6l-0.1,0.3c-0.7,1.8-1.5,3.6-2.4,5.2c-0.5,0.8-0.9,1.6-1.5,2.1c-0.5,0.5-0.8,0.7-1.2,0.6l-5.1-1.5
			l3.6,3.9c0.7,0.7,1.6,1.2,2.6,1.2c0.1,0,0.2,0,0.3,0c0.7,0,1.4-0.1,2.2-0.5c1.2-0.5,2.3-1.2,3.4-2.2c1.7-1.4,3.3-3.2,4.8-5.3
			c1.3-1.7,2.5-3.6,3.8-5.8c0.6-1,1.1-2,1.6-3c0.6-1.1,1-2,1.5-3.1l2.6-5.8l-7.8-1.2c-2.1-0.3-4.2-0.7-6.3-1.1
			c-0.5-0.1-0.9-0.2-1.4-0.3c-0.8-0.1-1.5-0.3-2.3-0.5l-1.2-0.3c-0.8-0.2-1.6-0.4-2.5-0.6l-0.2-0.1c-1.2-0.3-2.3-0.6-3.4-1
			c-1.1-0.3-2.4-0.7-3.6-1.1c-1.1-0.4-2.3-0.8-3.5-1.2l-1.7-0.6l-6.8-3l-3.3-1.7l-1.7-1c-1.1-0.6-2.2-1.2-3.3-2
			c-1-0.6-2.1-1.3-3.1-2c-0.4-0.3-0.7-0.5-1.1-0.7c-0.7-0.5-1.4-0.9-2-1.5c-0.5-0.4-1-0.8-1.5-1.1c-0.6-0.4-1.1-0.8-1.6-1.3
			c-1-0.9-2.1-1.7-3.2-2.6l-6-4.6l3.7,6.5C237.9,175.1,238.7,176.3,239.4,177.4z M246.1,180.9c0.3,0.2,0.7,0.5,1,0.7
			c1.1,0.8,2.2,1.5,3.3,2.2c1.1,0.8,2.3,1.4,3.4,2l1.7,1l3.4,1.8l3.5,1.6l3.5,1.5l1.8,0.7c1.2,0.5,2.5,0.9,3.6,1.3
			c1.3,0.4,2.5,0.8,3.7,1.1c1.2,0.4,2.4,0.7,3.5,1l0.2,0c0.9,0.2,1.7,0.4,2.6,0.6l1.1,0.3c0.8,0.2,1.6,0.4,2.4,0.5
			c0.5,0.1,0.9,0.2,1.4,0.3c2.1,0.4,4.3,0.8,6.4,1.1l3.9,0.6l-1,2.2c-0.5,1-0.9,1.9-1.4,3c-0.5,1-1,1.9-1.6,2.9
			c-1.2,2.1-2.4,3.9-3.6,5.5c-1.3,1.8-2.6,3.3-4,4.5c0.9-1.7,1.6-3.4,2.4-5.1l0.1-0.3c0.8-2,1.6-3.9,2.3-5.9l1.2-3.4l-1.9-0.2
			c-1.2-0.1-2.4-0.3-3.6-0.5l-1.1-0.2c-1-0.2-1.9-0.3-2.9-0.6l-0.6-0.1c-1.2-0.2-2.2-0.5-3.4-0.8c-1.3-0.4-2.6-0.7-3.9-1.1
			c-1.5-0.5-2.7-0.9-3.8-1.4l-1.8-0.7l-3.7-1.7l-3.6-1.9l-3.4-2.1l-3.3-2.3l-1.6-1.3c-0.9-0.8-2-1.7-3-2.6l-0.7-0.6
			c-0.8-0.7-1.5-1.4-2.1-2.2c-0.3-0.3-0.6-0.7-0.9-1c-0.2-0.3-0.5-0.5-0.7-0.8C245.5,180.5,245.8,180.7,246.1,180.9z"/>
	</g>
</g>
</svg>
