<?xml version="1.0" encoding="utf-8"?>
<!-- Generator: Adobe Illustrator 18.0.0, SVG Export Plug-In . SVG Version: 6.00 Build 0)  -->
<!DOCTYPE svg PUBLIC "-//W3C//DTD SVG 1.1//EN" "http://www.w3.org/Graphics/SVG/1.1/DTD/svg11.dtd">
<svg version="1.1" id="Layer_1" xmlns="http://www.w3.org/2000/svg" xmlns:xlink="http://www.w3.org/1999/xlink" x="0px" y="0px"
	 viewBox="0 0 512 512" style="enable-background:new 0 0 512 512;" xml:space="preserve">
<g>
	<path style="fill:#0573FA;" d="M446,486H66c-22.091,0-40-17.909-40-40V66c0-22.091,17.909-40,40-40h380c22.091,0,40,17.909,40,40
		v380C486,468.091,468.091,486,446,486z"/>
	<path style="fill:#FFFFFF;" d="M446,36c16.542,0,30,13.458,30,30v380c0,16.542-13.458,30-30,30H66c-16.542,0-30-13.458-30-30V66
		c0-16.542,13.458-30,30-30H446 M446,26H66c-22.091,0-40,17.909-40,40v380c0,22.091,17.909,40,40,40h380c22.091,0,40-17.909,40-40
		V66C486,43.909,468.091,26,446,26L446,26z"/>
</g>
<g>
	<g style="opacity:0.2;">
		<path style="fill:#061831;" d="M131.595,243.731v-6.521h6.521v6.521H131.595z M131.595,252.463v-6.521h6.521v6.521H131.595z
			 M131.595,261.085v-6.521h6.521v6.521H131.595z M131.595,269.817v-6.521h6.521v6.521H131.595z M131.595,278.438v-6.521h6.521
			v6.521H131.595z M131.595,287.06v-6.521h6.521v6.521H131.595z M140.327,235.109v-6.521h6.521v6.521H140.327z M140.327,269.817
			v-6.521h6.521v6.521H140.327z M148.949,235.109v-6.521h6.521v6.521H148.949z M148.949,269.817v-6.521h6.521v6.521H148.949z
			 M157.57,235.109v-6.521h6.521v6.521H157.57z M157.57,269.817v-6.521h6.521v6.521H157.57z M166.303,243.731v-6.521h6.521v6.521
			H166.303z M166.303,252.463v-6.521h6.521v6.521H166.303z M166.303,261.085v-6.521h6.521v6.521H166.303z M166.303,269.817v-6.521
			h6.521v6.521H166.303z M166.303,278.438v-6.521h6.521v6.521H166.303z M166.303,287.06v-6.521h6.521v6.521H166.303z"/>
		<path style="fill:#061831;" d="M183.546,235.109v-6.521h6.521v6.521H183.546z M183.546,243.731v-6.521h6.521v6.521H183.546z
			 M183.546,252.463v-6.521h6.521v6.521H183.546z M183.546,261.085v-6.521h6.521v6.521H183.546z M183.546,269.817v-6.521h6.521
			v6.521H183.546z M183.546,278.438v-6.521h6.521v6.521H183.546z M183.546,287.06v-6.521h6.521v6.521H183.546z M192.167,287.06
			v-6.521h6.521v6.521H192.167z M200.899,287.06v-6.521h6.521v6.521H200.899z M209.521,287.06v-6.521h6.521v6.521H209.521z
			 M218.142,287.06v-6.521h6.521v6.521H218.142z"/>
		<path style="fill:#061831;" d="M235.496,235.109v-6.521h6.521v6.521H235.496z M235.496,243.731v-6.521h6.521v6.521H235.496z
			 M235.496,252.463v-6.521h6.521v6.521H235.496z M235.496,261.085v-6.521h6.521v6.521H235.496z M235.496,269.817v-6.521h6.521
			v6.521H235.496z M235.496,278.438v-6.521h6.521v6.521H235.496z M235.496,287.06v-6.521h6.521v6.521H235.496z M244.118,235.109
			v-6.521h6.521v6.521H244.118z M244.118,261.085v-6.521h6.521v6.521H244.118z M244.118,287.06v-6.521h6.521v6.521H244.118z
			 M252.739,235.109v-6.521h6.521v6.521H252.739z M252.739,261.085v-6.521h6.521v6.521H252.739z M252.739,287.06v-6.521h6.521v6.521
			H252.739z M261.471,235.109v-6.521h6.521v6.521H261.471z M261.471,261.085v-6.521h6.521v6.521H261.471z M261.471,287.06v-6.521
			h6.521v6.521H261.471z M270.093,235.109v-6.521h6.521v6.521H270.093z M270.093,287.06v-6.521h6.521v6.521H270.093z"/>
		<path style="fill:#061831;" d="M287.336,235.109v-6.521h6.521v6.521H287.336z M287.336,243.731v-6.521h6.521v6.521H287.336z
			 M287.336,252.463v-6.521h6.521v6.521H287.336z M287.336,261.085v-6.521h6.521v6.521H287.336z M287.336,269.817v-6.521h6.521
			v6.521H287.336z M296.068,278.438v-6.521h6.521v6.521H296.068z M304.69,287.06v-6.521h6.521v6.521H304.69z M313.311,278.438
			v-6.521h6.521v6.521H313.311z M322.043,235.109v-6.521h6.521v6.521H322.043z M322.043,243.731v-6.521h6.521v6.521H322.043z
			 M322.043,252.463v-6.521h6.521v6.521H322.043z M322.043,261.085v-6.521h6.521v6.521H322.043z M322.043,269.817v-6.521h6.521
			v6.521H322.043z"/>
		<path style="fill:#061831;" d="M339.287,235.109v-6.521h6.521v6.521H339.287z M347.908,235.109v-6.521h6.521v6.521H347.908z
			 M356.64,235.109v-6.521h6.521v6.521H356.64z M356.64,243.731v-6.521h6.521v6.521H356.64z M356.64,252.463v-6.521h6.521v6.521
			H356.64z M356.64,261.085v-6.521h6.521v6.521H356.64z M356.64,269.817v-6.521h6.521v6.521H356.64z M356.64,278.438v-6.521h6.521
			v6.521H356.64z M356.64,287.06v-6.521h6.521v6.521H356.64z M365.262,235.109v-6.521h6.521v6.521H365.262z M373.883,235.109v-6.521
			h6.521v6.521H373.883z"/>
	</g>
	<g>
		<path style="fill:#061831;" d="M131.595,240.083v-6.521h6.521v6.521H131.595z M131.595,248.815v-6.521h6.521v6.521H131.595z
			 M131.595,257.437v-6.521h6.521v6.521H131.595z M131.595,266.169v-6.521h6.521v6.521H131.595z M131.595,274.791v-6.521h6.521
			v6.521H131.595z M131.595,283.412v-6.521h6.521v6.521H131.595z M140.327,231.462v-6.521h6.521v6.521H140.327z M140.327,266.169
			v-6.521h6.521v6.521H140.327z M148.949,231.462v-6.521h6.521v6.521H148.949z M148.949,266.169v-6.521h6.521v6.521H148.949z
			 M157.57,231.462v-6.521h6.521v6.521H157.57z M157.57,266.169v-6.521h6.521v6.521H157.57z M166.303,240.083v-6.521h6.521v6.521
			H166.303z M166.303,248.815v-6.521h6.521v6.521H166.303z M166.303,257.437v-6.521h6.521v6.521H166.303z M166.303,266.169v-6.521
			h6.521v6.521H166.303z M166.303,274.791v-6.521h6.521v6.521H166.303z M166.303,283.412v-6.521h6.521v6.521H166.303z"/>
		<path style="fill:#061831;" d="M183.546,231.462v-6.521h6.521v6.521H183.546z M183.546,240.083v-6.521h6.521v6.521H183.546z
			 M183.546,248.815v-6.521h6.521v6.521H183.546z M183.546,257.437v-6.521h6.521v6.521H183.546z M183.546,266.169v-6.521h6.521
			v6.521H183.546z M183.546,274.791v-6.521h6.521v6.521H183.546z M183.546,283.412v-6.521h6.521v6.521H183.546z M192.167,283.412
			v-6.521h6.521v6.521H192.167z M200.899,283.412v-6.521h6.521v6.521H200.899z M209.521,283.412v-6.521h6.521v6.521H209.521z
			 M218.142,283.412v-6.521h6.521v6.521H218.142z"/>
		<path style="fill:#061831;" d="M235.496,231.462v-6.521h6.521v6.521H235.496z M235.496,240.083v-6.521h6.521v6.521H235.496z
			 M235.496,248.815v-6.521h6.521v6.521H235.496z M235.496,257.437v-6.521h6.521v6.521H235.496z M235.496,266.169v-6.521h6.521
			v6.521H235.496z M235.496,274.791v-6.521h6.521v6.521H235.496z M235.496,283.412v-6.521h6.521v6.521H235.496z M244.118,231.462
			v-6.521h6.521v6.521H244.118z M244.118,257.437v-6.521h6.521v6.521H244.118z M244.118,283.412v-6.521h6.521v6.521H244.118z
			 M252.739,231.462v-6.521h6.521v6.521H252.739z M252.739,257.437v-6.521h6.521v6.521H252.739z M252.739,283.412v-6.521h6.521
			v6.521H252.739z M261.471,231.462v-6.521h6.521v6.521H261.471z M261.471,257.437v-6.521h6.521v6.521H261.471z M261.471,283.412
			v-6.521h6.521v6.521H261.471z M270.093,231.462v-6.521h6.521v6.521H270.093z M270.093,283.412v-6.521h6.521v6.521H270.093z"/>
		<path style="fill:#061831;" d="M287.336,231.462v-6.521h6.521v6.521H287.336z M287.336,240.083v-6.521h6.521v6.521H287.336z
			 M287.336,248.815v-6.521h6.521v6.521H287.336z M287.336,257.437v-6.521h6.521v6.521H287.336z M287.336,266.169v-6.521h6.521
			v6.521H287.336z M296.068,274.791v-6.521h6.521v6.521H296.068z M304.69,283.412v-6.521h6.521v6.521H304.69z M313.311,274.791
			v-6.521h6.521v6.521H313.311z M322.043,231.462v-6.521h6.521v6.521H322.043z M322.043,240.083v-6.521h6.521v6.521H322.043z
			 M322.043,248.815v-6.521h6.521v6.521H322.043z M322.043,257.437v-6.521h6.521v6.521H322.043z M322.043,266.169v-6.521h6.521
			v6.521H322.043z"/>
		<path style="fill:#061831;" d="M339.287,231.462v-6.521h6.521v6.521H339.287z M347.908,231.462v-6.521h6.521v6.521H347.908z
			 M356.64,231.462v-6.521h6.521v6.521H356.64z M356.64,240.083v-6.521h6.521v6.521H356.64z M356.64,248.815v-6.521h6.521v6.521
			H356.64z M356.64,257.437v-6.521h6.521v6.521H356.64z M356.64,266.169v-6.521h6.521v6.521H356.64z M356.64,274.791v-6.521h6.521
			v6.521H356.64z M356.64,283.412v-6.521h6.521v6.521H356.64z M365.262,231.462v-6.521h6.521v6.521H365.262z M373.883,231.462
			v-6.521h6.521v6.521H373.883z"/>
	</g>
</g>
<g style="opacity:0.2;">
	<g>
		<rect x="443.5" y="446.5" style="fill:#061831;" width="10" height="10"/>
	</g>
	<g>
		<path style="fill:#061831;" d="M438.565,456.5h-9.868v-10h9.868V456.5z M423.763,456.5h-9.868v-10h9.868V456.5z M408.96,456.5
			h-9.868v-10h9.868V456.5z M394.157,456.5h-9.868v-10h9.868V456.5z M379.354,456.5h-9.868v-10h9.868V456.5z M364.553,456.5h-9.869
			v-10h9.869V456.5z M349.75,456.5h-9.869v-10h9.869V456.5z M334.947,456.5h-9.869v-10h9.869V456.5z M320.145,456.5h-9.868v-10
			h9.868V456.5z M305.342,456.5h-9.868v-10h9.868V456.5z M290.539,456.5h-9.868v-10h9.868V456.5z M275.736,456.5h-9.868v-10h9.868
			V456.5z M260.934,456.5h-9.868v-10h9.868V456.5z M246.131,456.5h-9.869v-10h9.869V456.5z M231.329,456.5h-9.869v-10h9.869V456.5z
			 M216.526,456.5h-9.868v-10h9.868V456.5z M201.723,456.5h-9.868v-10h9.868V456.5z M186.921,456.5h-9.869v-10h9.869V456.5z
			 M172.118,456.5h-9.869v-10h9.869V456.5z M157.315,456.5h-9.869v-10h9.869V456.5z M142.513,456.5h-9.868v-10h9.868V456.5z
			 M127.71,456.5h-9.868v-10h9.868V456.5z M112.907,456.5h-9.868v-10h9.868V456.5z M98.105,456.5h-9.869v-10h9.869V456.5z
			 M83.302,456.5h-9.869v-10h9.869V456.5z"/>
	</g>
	<g>
		<rect x="58.5" y="446.5" style="fill:#061831;" width="10" height="10"/>
	</g>
	<g>
		<path style="fill:#061831;" d="M68.5,441.565h-10v-9.868h10V441.565z M68.5,426.763h-10v-9.868h10V426.763z M68.5,411.96h-10
			v-9.868h10V411.96z M68.5,397.157h-10v-9.868h10V397.157z M68.5,382.354h-10v-9.868h10V382.354z M68.5,367.553h-10v-9.869h10
			V367.553z M68.5,352.75h-10v-9.869h10V352.75z M68.5,337.947h-10v-9.869h10V337.947z M68.5,323.145h-10v-9.868h10V323.145z
			 M68.5,308.342h-10v-9.868h10V308.342z M68.5,293.539h-10v-9.868h10V293.539z M68.5,278.736h-10v-9.868h10V278.736z M68.5,263.934
			h-10v-9.868h10V263.934z M68.5,249.131h-10v-9.869h10V249.131z M68.5,234.329h-10v-9.869h10V234.329z M68.5,219.526h-10v-9.868h10
			V219.526z M68.5,204.723h-10v-9.868h10V204.723z M68.5,189.921h-10v-9.869h10V189.921z M68.5,175.118h-10v-9.869h10V175.118z
			 M68.5,160.315h-10v-9.869h10V160.315z M68.5,145.513h-10v-9.868h10V145.513z M68.5,130.71h-10v-9.868h10V130.71z M68.5,115.907
			h-10v-9.868h10V115.907z M68.5,101.105h-10v-9.869h10V101.105z M68.5,86.302h-10v-9.869h10V86.302z"/>
	</g>
	<g>
		<rect x="58.5" y="61.5" style="fill:#061831;" width="10" height="10"/>
	</g>
	<g>
		<path style="fill:#061831;" d="M438.565,71.5h-9.868v-10h9.868V71.5z M423.763,71.5h-9.868v-10h9.868V71.5z M408.961,71.5h-9.869
			v-10h9.869V71.5z M394.158,71.5h-9.869v-10h9.869V71.5z M379.355,71.5h-9.869v-10h9.869V71.5z M364.553,71.5h-9.868v-10h9.868
			V71.5z M349.75,71.5h-9.868v-10h9.868V71.5z M334.947,71.5h-9.868v-10h9.868V71.5z M320.145,71.5h-9.868v-10h9.868V71.5z
			 M305.342,71.5h-9.868v-10h9.868V71.5z M290.539,71.5h-9.868v-10h9.868V71.5z M275.736,71.5h-9.868v-10h9.868V71.5z M260.934,71.5
			h-9.868v-10h9.868V71.5z M246.131,71.5h-9.868v-10h9.868V71.5z M231.329,71.5h-9.868v-10h9.868V71.5z M216.526,71.5h-9.869v-10
			h9.869V71.5z M201.724,71.5h-9.869v-10h9.869V71.5z M186.921,71.5h-9.868v-10h9.868V71.5z M172.118,71.5h-9.868v-10h9.868V71.5z
			 M157.315,71.5h-9.868v-10h9.868V71.5z M142.513,71.5h-9.869v-10h9.869V71.5z M127.71,71.5h-9.869v-10h9.869V71.5z M112.908,71.5
			h-9.868v-10h9.868V71.5z M98.105,71.5h-9.868v-10h9.868V71.5z M83.303,71.5h-9.869v-10h9.869V71.5z"/>
	</g>
	<g>
		<rect x="443.5" y="61.5" style="fill:#061831;" width="10" height="10"/>
	</g>
	<g>
		<path style="fill:#061831;" d="M453.5,441.565h-10v-9.868h10V441.565z M453.5,426.763h-10v-9.868h10V426.763z M453.5,411.961h-10
			v-9.869h10V411.961z M453.5,397.158h-10v-9.869h10V397.158z M453.5,382.355h-10v-9.869h10V382.355z M453.5,367.553h-10v-9.868h10
			V367.553z M453.5,352.75h-10v-9.868h10V352.75z M453.5,337.947h-10v-9.868h10V337.947z M453.5,323.145h-10v-9.868h10V323.145z
			 M453.5,308.342h-10v-9.868h10V308.342z M453.5,293.539h-10v-9.868h10V293.539z M453.5,278.736h-10v-9.868h10V278.736z
			 M453.5,263.934h-10v-9.868h10V263.934z M453.5,249.131h-10v-9.868h10V249.131z M453.5,234.329h-10v-9.868h10V234.329z
			 M453.5,219.526h-10v-9.869h10V219.526z M453.5,204.724h-10v-9.869h10V204.724z M453.5,189.921h-10v-9.868h10V189.921z
			 M453.5,175.118h-10v-9.868h10V175.118z M453.5,160.315h-10v-9.868h10V160.315z M453.5,145.513h-10v-9.869h10V145.513z
			 M453.5,130.71h-10v-9.869h10V130.71z M453.5,115.908h-10v-9.868h10V115.908z M453.5,101.105h-10v-9.868h10V101.105z
			 M453.5,86.303h-10v-9.869h10V86.303z"/>
	</g>
</g>
<g>
	<g>
		<rect x="443.5" y="443.5" width="10" height="10"/>
	</g>
	<g>
		<path d="M438.565,453.5h-9.868v-10h9.868V453.5z M423.763,453.5h-9.868v-10h9.868V453.5z M408.96,453.5h-9.868v-10h9.868V453.5z
			 M394.157,453.5h-9.868v-10h9.868V453.5z M379.354,453.5h-9.868v-10h9.868V453.5z M364.553,453.5h-9.869v-10h9.869V453.5z
			 M349.75,453.5h-9.869v-10h9.869V453.5z M334.947,453.5h-9.869v-10h9.869V453.5z M320.145,453.5h-9.868v-10h9.868V453.5z
			 M305.342,453.5h-9.868v-10h9.868V453.5z M290.539,453.5h-9.868v-10h9.868V453.5z M275.736,453.5h-9.868v-10h9.868V453.5z
			 M260.934,453.5h-9.868v-10h9.868V453.5z M246.131,453.5h-9.869v-10h9.869V453.5z M231.329,453.5h-9.869v-10h9.869V453.5z
			 M216.526,453.5h-9.868v-10h9.868V453.5z M201.723,453.5h-9.868v-10h9.868V453.5z M186.921,453.5h-9.869v-10h9.869V453.5z
			 M172.118,453.5h-9.869v-10h9.869V453.5z M157.315,453.5h-9.869v-10h9.869V453.5z M142.513,453.5h-9.868v-10h9.868V453.5z
			 M127.71,453.5h-9.868v-10h9.868V453.5z M112.907,453.5h-9.868v-10h9.868V453.5z M98.105,453.5h-9.869v-10h9.869V453.5z
			 M83.302,453.5h-9.869v-10h9.869V453.5z"/>
	</g>
	<g>
		<rect x="58.5" y="443.5" width="10" height="10"/>
	</g>
	<g>
		<path d="M68.5,438.565h-10v-9.868h10V438.565z M68.5,423.763h-10v-9.868h10V423.763z M68.5,408.96h-10v-9.868h10V408.96z
			 M68.5,394.157h-10v-9.868h10V394.157z M68.5,379.354h-10v-9.868h10V379.354z M68.5,364.553h-10v-9.869h10V364.553z M68.5,349.75
			h-10v-9.869h10V349.75z M68.5,334.947h-10v-9.869h10V334.947z M68.5,320.145h-10v-9.868h10V320.145z M68.5,305.342h-10v-9.868h10
			V305.342z M68.5,290.539h-10v-9.868h10V290.539z M68.5,275.736h-10v-9.868h10V275.736z M68.5,260.934h-10v-9.868h10V260.934z
			 M68.5,246.131h-10v-9.869h10V246.131z M68.5,231.329h-10v-9.869h10V231.329z M68.5,216.526h-10v-9.868h10V216.526z M68.5,201.723
			h-10v-9.868h10V201.723z M68.5,186.921h-10v-9.869h10V186.921z M68.5,172.118h-10v-9.869h10V172.118z M68.5,157.315h-10v-9.869h10
			V157.315z M68.5,142.513h-10v-9.868h10V142.513z M68.5,127.71h-10v-9.868h10V127.71z M68.5,112.907h-10v-9.868h10V112.907z
			 M68.5,98.105h-10v-9.869h10V98.105z M68.5,83.302h-10v-9.869h10V83.302z"/>
	</g>
	<g>
		<rect x="58.5" y="58.5" width="10" height="10"/>
	</g>
	<g>
		<path d="M438.565,68.5h-9.868v-10h9.868V68.5z M423.763,68.5h-9.868v-10h9.868V68.5z M408.961,68.5h-9.869v-10h9.869V68.5z
			 M394.158,68.5h-9.869v-10h9.869V68.5z M379.355,68.5h-9.869v-10h9.869V68.5z M364.553,68.5h-9.868v-10h9.868V68.5z M349.75,68.5
			h-9.868v-10h9.868V68.5z M334.947,68.5h-9.868v-10h9.868V68.5z M320.145,68.5h-9.868v-10h9.868V68.5z M305.342,68.5h-9.868v-10
			h9.868V68.5z M290.539,68.5h-9.868v-10h9.868V68.5z M275.736,68.5h-9.868v-10h9.868V68.5z M260.934,68.5h-9.868v-10h9.868V68.5z
			 M246.131,68.5h-9.868v-10h9.868V68.5z M231.329,68.5h-9.868v-10h9.868V68.5z M216.526,68.5h-9.869v-10h9.869V68.5z M201.724,68.5
			h-9.869v-10h9.869V68.5z M186.921,68.5h-9.868v-10h9.868V68.5z M172.118,68.5h-9.868v-10h9.868V68.5z M157.315,68.5h-9.868v-10
			h9.868V68.5z M142.513,68.5h-9.869v-10h9.869V68.5z M127.71,68.5h-9.869v-10h9.869V68.5z M112.908,68.5h-9.868v-10h9.868V68.5z
			 M98.105,68.5h-9.868v-10h9.868V68.5z M83.303,68.5h-9.869v-10h9.869V68.5z"/>
	</g>
	<g>
		<rect x="443.5" y="58.5" width="10" height="10"/>
	</g>
	<g>
		<path d="M453.5,438.565h-10v-9.868h10V438.565z M453.5,423.763h-10v-9.868h10V423.763z M453.5,408.961h-10v-9.869h10V408.961z
			 M453.5,394.158h-10v-9.869h10V394.158z M453.5,379.355h-10v-9.869h10V379.355z M453.5,364.553h-10v-9.868h10V364.553z
			 M453.5,349.75h-10v-9.868h10V349.75z M453.5,334.947h-10v-9.868h10V334.947z M453.5,320.145h-10v-9.868h10V320.145z
			 M453.5,305.342h-10v-9.868h10V305.342z M453.5,290.539h-10v-9.868h10V290.539z M453.5,275.736h-10v-9.868h10V275.736z
			 M453.5,260.934h-10v-9.868h10V260.934z M453.5,246.131h-10v-9.868h10V246.131z M453.5,231.329h-10v-9.868h10V231.329z
			 M453.5,216.526h-10v-9.869h10V216.526z M453.5,201.724h-10v-9.869h10V201.724z M453.5,186.921h-10v-9.868h10V186.921z
			 M453.5,172.118h-10v-9.868h10V172.118z M453.5,157.315h-10v-9.868h10V157.315z M453.5,142.513h-10v-9.869h10V142.513z
			 M453.5,127.71h-10v-9.869h10V127.71z M453.5,112.908h-10v-9.868h10V112.908z M453.5,98.105h-10v-9.868h10V98.105z M453.5,83.303
			h-10v-9.869h10V83.303z"/>
	</g>
</g>
</svg>
