<?xml version="1.0" encoding="utf-8"?>
<!-- Generator: Adobe Illustrator 18.0.0, SVG Export Plug-In . SVG Version: 6.00 Build 0)  -->
<!DOCTYPE svg PUBLIC "-//W3C//DTD SVG 1.1//EN" "http://www.w3.org/Graphics/SVG/1.1/DTD/svg11.dtd">
<svg version="1.1" id="Layer_1" xmlns="http://www.w3.org/2000/svg" xmlns:xlink="http://www.w3.org/1999/xlink" x="0px" y="0px"
	 viewBox="0 0 512 512" enable-background="new 0 0 512 512" xml:space="preserve">
<g>
	<g>
		<g>
			<path fill="#700519" d="M414,429.7c0.5,3.1-1,5.9-3.4,6.3l45.3-8c2.4-0.4,3.9-3.2,3.4-6.3l-43.5-246.5l-45.3,8L414,429.7z"/>
			<g>
				<path fill="#E74D3D" d="M398.5,75.6l-50.3,8.9l-8.9-50.3l45.9-8.1c2.4-0.4,4.7,1.2,5.1,3.6L398.5,75.6z"/>
				
					<rect x="352.2" y="79.3" transform="matrix(-0.9848 0.1736 -0.1736 -0.9848 767.9628 142.4757)" fill="#F0C519" width="51.1" height="51.1"/>
				
					<rect x="361" y="129.2" transform="matrix(-0.9848 0.1736 -0.1736 -0.9848 794.117 240.0847)" fill="#69C186" width="51.1" height="51.1"/>
				
					<rect x="369.8" y="179.2" transform="matrix(-0.9848 0.1736 -0.1736 -0.9848 820.2712 337.6936)" fill="#3B97D3" width="51.1" height="51.1"/>
			</g>
		</g>
		<path fill="#B70000" d="M410.6,436l-283.3,50c-2.4,0.4-4.7-1.2-5.1-3.6L52.7,88.7c-0.4-2.4,1.2-4.7,3.6-5.1l283.3-50
			c2.4-0.4,4.7,1.2,5.1,3.6l69.4,393.6C414.6,433.3,412.9,435.6,410.6,436z"/>
		<g display="none">
			<g display="inline">
				<path fill="#FFFCF1" d="M332.9,55.1c-1,0.2-1.9-0.5-2.1-1.4l-0.9-5.2c-0.2-1,0.5-1.9,1.4-2.1c1-0.2,1.9,0.5,2.1,1.4l0.9,5.2
					C334.5,54,333.8,54.9,332.9,55.1z"/>
			</g>
			<g display="inline">
				<path fill="#FFFCF1" d="M396,413c-1,0.2-1.9-0.5-2.1-1.4l-1.8-10.2c-0.2-1,0.5-1.9,1.4-2.1c1-0.2,1.9,0.5,2.1,1.4l1.8,10.2
					C397.6,411.9,396.9,412.8,396,413z M392.7,394.2c-1,0.2-1.9-0.5-2.1-1.4l-1.8-10.2c-0.2-1,0.5-1.9,1.4-2.1
					c1-0.2,1.9,0.5,2.1,1.4l1.8,10.2C394.3,393.1,393.6,394,392.7,394.2z M389.3,375.3c-1,0.2-1.9-0.5-2.1-1.4l-1.8-10.2
					c-0.2-1,0.5-1.9,1.4-2.1c1-0.2,1.9,0.5,2.1,1.4l1.8,10.2C390.9,374.2,390.3,375.1,389.3,375.3z M386,356.5
					c-1,0.2-1.9-0.5-2.1-1.4l-1.8-10.2c-0.2-1,0.5-1.9,1.4-2.1c1-0.2,1.9,0.5,2.1,1.4l1.8,10.2C387.6,355.4,387,356.3,386,356.5z
					 M382.7,337.6c-1,0.2-1.9-0.5-2.1-1.4l-1.8-10.2c-0.2-1,0.5-1.9,1.4-2.1c1-0.2,1.9,0.5,2.1,1.4l1.8,10.2
					C384.3,336.6,383.6,337.4,382.7,337.6z M379.4,318.8c-1,0.2-1.9-0.5-2.1-1.4l-1.8-10.2c-0.2-1,0.5-1.9,1.4-2.1
					c1-0.2,1.9,0.5,2.1,1.4l1.8,10.2C381,317.7,380.3,318.6,379.4,318.8z M376,300c-1,0.2-1.9-0.5-2.1-1.4l-1.8-10.2
					c-0.2-1,0.5-1.9,1.4-2.1c1-0.2,1.9,0.5,2.1,1.4l1.8,10.2C377.6,298.9,377,299.8,376,300z M372.7,281.1c-1,0.2-1.9-0.5-2.1-1.4
					l-1.8-10.2c-0.2-1,0.5-1.9,1.4-2.1s1.9,0.5,2.1,1.4l1.8,10.2C374.3,280,373.7,280.9,372.7,281.1z M369.4,262.3
					c-1,0.2-1.9-0.5-2.1-1.4l-1.8-10.2c-0.2-1,0.5-1.9,1.4-2.1c1-0.2,1.9,0.5,2.1,1.4l1.8,10.2C371,261.2,370.4,262.1,369.4,262.3z
					 M366.1,243.5c-1,0.2-1.9-0.5-2.1-1.4l-1.8-10.2c-0.2-1,0.5-1.9,1.4-2.1c1-0.2,1.9,0.5,2.1,1.4l1.8,10.2
					C367.7,242.4,367,243.3,366.1,243.5z M362.7,224.6c-1,0.2-1.9-0.5-2.1-1.4l-1.8-10.2c-0.2-1,0.5-1.9,1.4-2.1
					c1-0.2,1.9,0.5,2.1,1.4l1.8,10.2C364.4,223.5,363.7,224.4,362.7,224.6z M359.4,205.8c-1,0.2-1.9-0.5-2.1-1.4l-1.8-10.2
					c-0.2-1,0.5-1.9,1.4-2.1c1-0.2,1.9,0.5,2.1,1.4l1.8,10.2C361,204.7,360.4,205.6,359.4,205.8z M356.1,187c-1,0.2-1.9-0.5-2.1-1.4
					l-1.8-10.2c-0.2-1,0.5-1.9,1.4-2.1c1-0.2,1.9,0.5,2.1,1.4l1.8,10.2C357.7,185.9,357.1,186.8,356.1,187z M352.8,168.1
					c-1,0.2-1.9-0.5-2.1-1.4l-1.8-10.2c-0.2-1,0.5-1.9,1.4-2.1c1-0.2,1.9,0.5,2.1,1.4l1.8,10.2C354.4,167,353.7,167.9,352.8,168.1z
					 M349.5,149.3c-1,0.2-1.9-0.5-2.1-1.4l-1.8-10.2c-0.2-1,0.5-1.9,1.4-2.1c1-0.2,1.9,0.5,2.1,1.4l1.8,10.2
					C351.1,148.2,350.4,149.1,349.5,149.3z M346.1,130.5c-1,0.2-1.9-0.5-2.1-1.4l-1.8-10.2c-0.2-1,0.5-1.9,1.4-2.1
					c1-0.2,1.9,0.5,2.1,1.4l1.8,10.2C347.8,129.4,347.1,130.3,346.1,130.5z M342.8,111.6c-1,0.2-1.9-0.5-2.1-1.4L339,99.9
					c-0.2-1,0.5-1.9,1.4-2.1c1-0.2,1.9,0.5,2.1,1.4l1.8,10.2C344.4,110.5,343.8,111.4,342.8,111.6z M339.5,92.8
					c-1,0.2-1.9-0.5-2.1-1.4L335.6,81c-0.2-1,0.5-1.9,1.4-2.1c1-0.2,1.9,0.5,2.1,1.4l1.8,10.2C341.1,91.7,340.5,92.6,339.5,92.8z
					 M336.2,74c-1,0.2-1.9-0.5-2.1-1.4l-1.8-10.3c-0.2-1,0.5-1.9,1.4-2.1c1-0.2,1.9,0.5,2.1,1.4l1.8,10.2
					C337.8,72.9,337.1,73.8,336.2,74z"/>
			</g>
			<g display="inline">
				<path fill="#FFFCF1" d="M398.4,426.8c-1,0.2-1.9-0.5-2.1-1.4l-0.9-5.2c-0.2-1,0.5-1.9,1.4-2.1c1-0.2,1.9,0.5,2.1,1.4l0.9,5.2
					C400,425.7,399.4,426.7,398.4,426.8z"/>
			</g>
		</g>
		<path fill="#A3002B" d="M167.4,474.3l-34.7-196.8L98,80.7c-0.4-2.4,1.2-4.7,3.6-5.1l-45.3,8c-2.4,0.4-4,2.7-3.6,5.1l69.4,393.6
			c0.4,2.4,2.7,4,5.1,3.6l45.3-8C170.1,478.4,167.8,476.8,167.4,474.3z"/>
	</g>
	<path fill="#FFFFFF" d="M301.6,256.2l-12.3-69.7c-4.4-24.8-27.9-41.3-52.7-36.9c-24.8,4.4-41.3,27.9-36.9,52.7L212,272
		c-6.9,11.8-9.7,25.8-7.2,40.2c5.7,32.4,36.6,54,68.9,48.3s54-36.6,48.3-68.9C319.5,277.1,312,264.8,301.6,256.2z M268.5,299.4
		l3.4,19.4c0.5,2.9-1.4,5.8-4.4,6.3c-3,0.5-5.8-1.4-6.3-4.4l-3.4-19.4c-4-1.3-7.2-4.7-8-9.1c-1.1-6.4,3.1-12.4,9.4-13.5
		c6.3-1.1,12.4,3.1,13.5,9.4C273.6,292.5,271.8,296.8,268.5,299.4z M289,248.1c-10.8-5.1-23.2-7.1-35.9-4.9
		c-12.7,2.2-23.7,8.3-32,16.8l-10.5-59.7c-3.3-18.7,9.2-36.6,28-39.9c18.7-3.3,36.6,9.2,39.9,28L289,248.1z"/>
</g>
</svg>
