<?xml version="1.0" encoding="utf-8"?>
<!-- Generator: Adobe Illustrator 18.0.0, SVG Export Plug-In . SVG Version: 6.00 Build 0)  -->
<!DOCTYPE svg PUBLIC "-//W3C//DTD SVG 1.1//EN" "http://www.w3.org/Graphics/SVG/1.1/DTD/svg11.dtd">
<svg version="1.1" id="Layer_1" xmlns="http://www.w3.org/2000/svg" xmlns:xlink="http://www.w3.org/1999/xlink" x="0px" y="0px"
	 viewBox="0 0 512 512" enable-background="new 0 0 512 512" xml:space="preserve">
<g>
	<path fill="#03263A" d="M311.7,456.5c-0.1-3.9,0.1-9,1-15.1c0-0.3-66.6-85.9,92.4-200.2c9.7-4.2,9.5-29.6,5.6-31.3
		c-3.9-1.7-30.7,12.6-56.7,6.7c9.7-28.5,23.2-55.9,27.1-62.6c3.9-6.7,9.4-18,2.2-31.9c0,0-10.9-23.4-15.1-19
		c-13.3,14.1-37.3,88.4-157.8,97.4c-56.1,4.2-77.4,65.5-158.3,38C46,236.4,61,334.1,114,344c6.6,1.2-21,19.2-32.6,25.1
		c7.9,12.2,17.1,23.5,27.5,33.9c19.1,19.1,41.4,34.1,66.1,44.6c25.6,10.8,52.9,16.3,81,16.3C275,464,293.7,461.5,311.7,456.5z"/>
	<g>
		<path fill="#03263A" d="M256,46c28.4,0,55.9,5.5,81.7,16.5c25,10.6,47.5,25.7,66.8,45c19.3,19.3,34.4,41.8,45,66.8
			c10.9,25.9,16.5,53.4,16.5,81.7s-5.5,55.9-16.5,81.7c-10.6,25-25.7,47.5-45,66.8c-19.3,19.3-41.8,34.4-66.8,45
			C311.9,460.5,284.4,466,256,466s-55.9-5.5-81.7-16.5c-25-10.6-47.5-25.7-66.8-45c-19.3-19.3-34.4-41.8-45-66.8
			C51.5,311.9,46,284.4,46,256s5.5-55.9,16.5-81.7c10.6-25,25.7-47.5,45-66.8s41.8-34.4,66.8-45C200.1,51.5,227.6,46,256,46 M256,26
			C129,26,26,129,26,256s103,230,230,230s230-103,230-230S383,26,256,26L256,26z"/>
	</g>
</g>
</svg>
