<?xml version="1.0" encoding="utf-8"?>
<!-- Generator: Adobe Illustrator 18.0.0, SVG Export Plug-In . SVG Version: 6.00 Build 0)  -->
<!DOCTYPE svg PUBLIC "-//W3C//DTD SVG 1.1//EN" "http://www.w3.org/Graphics/SVG/1.1/DTD/svg11.dtd">
<svg version="1.1" id="Layer_1" xmlns="http://www.w3.org/2000/svg" xmlns:xlink="http://www.w3.org/1999/xlink" x="0px" y="0px"
	 viewBox="0 0 512 512" style="enable-background:new 0 0 512 512;" xml:space="preserve">
<g>
	<linearGradient id="SVGID_1_" gradientUnits="userSpaceOnUse" x1="104.4347" y1="224.1976" x2="394.0823" y2="224.1976">
		<stop  offset="0" style="stop-color:#202021"/>
		<stop  offset="1" style="stop-color:#202021"/>
	</linearGradient>
	<path style="fill:url(#SVGID_1_);" d="M368.028,212.245c0,24.412,0.481,43.772-0.132,63.096
		c-0.643,20.26,5.285,37.94,17.879,53.625c2.381,2.967,4.639,6.113,6.435,9.454c3.266,6.071,2.237,10.231-2.921,14.689
		c-14.09,12.175-28.169,24.362-42.217,36.585c-8.362,7.278-13.573,7.239-21.911,0.206c-11.037-9.309-19.939-20.387-27.445-32.614
		c-2.121-3.455-3.37-3.546-6.271-0.588c-15.108,15.415-31.688,28.892-52.906,34.927c-23.266,6.618-46.901,8.034-70.521,2.011
		c-29.032-7.403-48.601-25.533-57.657-54.084c-8.693-27.409-7.99-54.908,3.229-81.529c12.479-29.608,35.807-47.549,65.459-57.961
		c22.597-7.933,46.204-10.946,69.847-13.614c10.366-1.17,20.753-2.175,31.138-3.161c1.594-0.15,2.651-0.356,2.594-2.286
		c-0.365-12.155,1.079-24.395-1.729-36.428c-3.938-16.867-15.385-25.706-31.796-27.852c-17.148-2.242-32.875,1.545-45.277,14.677
		c-5.65,5.984-8.602,13.308-10.439,21.222c-1.861,8.016-6.319,11.395-14.107,10.562c-17.808-1.903-35.606-3.902-53.387-6.025
		c-9.046-1.079-12.491-6.298-10.528-15.344c7.945-36.641,28.919-62.977,63.72-76.84c45.594-18.163,91.85-19.372,137.361,0.302
		c32.048,13.853,47.921,39.729,50.614,74.194C369.088,165.408,367.325,191.374,368.028,212.245z M282.62,255.419
		c0-8.455-0.04-14.378,0.022-20.302c0.022-2.136-0.081-3.674-2.991-3.514c-15.094,0.829-30.221,1.429-44.789,6.032
		c-18.299,5.783-32.784,15.864-38.676,35.26c-3.139,10.331-3.467,20.831-1.711,31.469c4.095,24.787,26.368,37.669,49.841,28.716
		c14.956-5.706,24.069-17.225,30.527-31.207C282.032,286.304,282.902,269.675,282.62,255.419z"/>
	<path style="fill:#F49C23;" d="M232.296,461.064c-74.339-0.809-141.742-22.491-201.734-66.649
		c-0.981-0.723-2.033-1.385-2.876-2.248c-1.581-1.619-2.305-3.573-1.042-5.679c1.184-1.974,3.225-1.922,5.137-1.508
		c1.337,0.289,2.611,0.925,3.87,1.499c49.751,22.688,101.946,35.614,156.459,39.547c85.106,6.141,165.355-10.978,241.114-49.895
		c1.081-0.556,2.139-1.165,3.252-1.646c3.94-1.707,7.729-1.53,10.17,2.293c2.411,3.774,0.466,6.969-2.508,9.6
		c-15.208,13.45-31.948,24.709-49.915,34.064c-47.961,24.973-98.831,39.014-153.079,40.077
		C238.191,460.58,235.246,460.879,232.296,461.064z"/>
	<path style="fill:#F49C23;" d="M461.222,337.822c5.404-0.071,10.772,0.187,16.087,1.317c4.784,1.017,7.577,3.48,8.164,8.669
		c2.018,17.811-1.952,34.545-8.752,50.783c-3.382,8.077-8.083,15.388-14.139,21.749c-1.739,1.827-3.815,4.38-6.614,2.572
		c-2.538-1.64-1.047-4.385-0.378-6.665c3.764-12.84,7.364-25.707,9.348-38.987c2.413-16.141-1.437-20.841-17.729-20.219
		c-13.581,0.518-26.886,3.246-40.174,5.966c-2.371,0.485-5.535,2.271-6.947-1.067c-1.373-3.244,1.668-4.953,3.804-6.613
		c11.996-9.316,25.923-13.863,40.695-16.26C450.096,338.175,455.639,337.708,461.222,337.822z"/>
</g>
</svg>
