<?xml version="1.0" encoding="utf-8"?>
<!-- Generator: Adobe Illustrator 18.0.0, SVG Export Plug-In . SVG Version: 6.00 Build 0)  -->
<!DOCTYPE svg PUBLIC "-//W3C//DTD SVG 1.1//EN" "http://www.w3.org/Graphics/SVG/1.1/DTD/svg11.dtd">
<svg version="1.1" id="Layer_1" xmlns="http://www.w3.org/2000/svg" xmlns:xlink="http://www.w3.org/1999/xlink" x="0px" y="0px"
	 viewBox="0 0 512 512" style="enable-background:new 0 0 512 512;" xml:space="preserve">
<g>
	
		<linearGradient id="SVGID_1_" gradientUnits="userSpaceOnUse" x1="256" y1="26" x2="256" y2="486" gradientTransform="matrix(1 0 0 -1 0 512)">
		<stop  offset="0" style="stop-color:#E100FF"/>
		<stop  offset="1" style="stop-color:#6600E9"/>
	</linearGradient>
	<path style="fill:url(#SVGID_1_);" d="M446,486H66c-22.1,0-40-17.9-40-40V66c0-22.1,17.9-40,40-40h380c22.1,0,40,17.9,40,40v380
		C486,468.1,468.1,486,446,486z"/>
	
		<linearGradient id="SVGID_2_" gradientUnits="userSpaceOnUse" x1="256" y1="26" x2="256" y2="426" gradientTransform="matrix(1 0 0 -1 0 512)">
		<stop  offset="0" style="stop-color:#E100FF"/>
		<stop  offset="1" style="stop-color:#6600E9"/>
	</linearGradient>
	<path style="fill:url(#SVGID_2_);" d="M446,126H66c-22.1,0-40-17.9-40-40v360c0,22.1,17.9,40,40,40h380c22.1,0,40-17.9,40-40V86
		C486,108.1,468.1,126,446,126z"/>
	<path style="opacity:0.3;fill:#CD00FF;enable-background:new    ;" d="M446,126H66c-22.1,0-40-17.9-40-40v48c0,22.1,17.9,40,40,40
		h380c22.1,0,40-17.9,40-40V86C486,108.1,468.1,126,446,126z"/>
	<path style="fill:#FFD19F;" d="M446,41c13.8,0,25,11.2,25,25v20c0,13.8-11.2,25-25,25H66c-13.8,0-25-11.2-25-25V66
		c0-13.8,11.2-25,25-25H446 M446,26H66c-22.1,0-40,17.9-40,40v20c0,22.1,17.9,40,40,40h380c22.1,0,40-17.9,40-40V66
		C486,43.9,468.1,26,446,26L446,26z"/>
</g>
<g style="opacity:0.2;">
	<path style="fill:#FFFFFF;" d="M29.5,102.3l-3.5,3.5V120l8.9-8.9C32.7,108.4,30.9,105.5,29.5,102.3z"/>
	<path style="fill:#FFFFFF;" d="M44.7,119.8L26,138.5v14.1l28.4-28.4C50.9,123.2,47.7,121.7,44.7,119.8z"/>
	<polygon style="fill:#FFFFFF;" points="71.2,126 26,171.2 26,185.4 85.4,126 	"/>
	<polygon style="fill:#FFFFFF;" points="103.9,126 26,203.9 26,218.1 118.1,126 	"/>
	<polygon style="fill:#FFFFFF;" points="136.6,126 26,236.6 26,250.8 150.8,126 	"/>
	<polygon style="fill:#FFFFFF;" points="169.3,126 26,269.3 26,283.5 183.5,126 	"/>
	<polygon style="fill:#FFFFFF;" points="202,126 26,302 26,316.2 216.2,126 	"/>
	<polygon style="fill:#FFFFFF;" points="234.7,126 26,334.7 26,348.9 248.9,126 	"/>
	<polygon style="fill:#FFFFFF;" points="267.4,126 26,367.4 26,381.6 281.6,126 	"/>
	<polygon style="fill:#FFFFFF;" points="300.1,126 26,400.1 26,414.3 314.3,126 	"/>
	<path style="fill:#FFFFFF;" d="M332.8,126L26,432.8V446c0,0.3,0,0.6,0,0.9L347,126H332.8z"/>
	<path style="fill:#FFFFFF;" d="M365.5,126L29.4,462.1c1.4,3.2,3.2,6.1,5.3,8.8l345-344.9H365.5z"/>
	<path style="fill:#FFFFFF;" d="M398.2,126L44.5,479.7c3,1.9,6.2,3.4,9.6,4.5L412.4,126H398.2z"/>
	<polygon style="fill:#FFFFFF;" points="430.9,126 70.9,486 85.1,486 445.1,126 	"/>
	<polygon style="fill:#FFFFFF;" points="486,103.6 103.6,486 117.8,486 486,117.8 	"/>
	<polygon style="fill:#FFFFFF;" points="486,136.3 136.3,486 150.5,486 486,150.5 	"/>
	<polygon style="fill:#FFFFFF;" points="486,169 169,486 183.2,486 486,183.2 	"/>
	<polygon style="fill:#FFFFFF;" points="486,201.7 201.7,486 215.9,486 486,215.9 	"/>
	<polygon style="fill:#FFFFFF;" points="486,234.4 234.4,486 248.6,486 486,248.6 	"/>
	<polygon style="fill:#FFFFFF;" points="486,267.1 267.1,486 281.3,486 486,281.3 	"/>
	<polygon style="fill:#FFFFFF;" points="486,299.8 299.8,486 314,486 486,314 	"/>
	<polygon style="fill:#FFFFFF;" points="486,332.5 332.5,486 346.7,486 486,346.7 	"/>
	<polygon style="fill:#FFFFFF;" points="486,365.2 365.2,486 379.4,486 486,379.4 	"/>
	<polygon style="fill:#FFFFFF;" points="486,397.9 397.9,486 412.1,486 486,412.1 	"/>
	<polygon style="fill:#FFFFFF;" points="486,444.8 486,430.6 430.6,486 444.8,486 	"/>
</g>
<g>
	<path style="fill:none;" d="M471,66c0-13.8-11.2-25-25-25H66c-13.8,0-25,11.2-25,25v8h430V66z"/>
	<path style="fill:#DAA1FF;" d="M446,26H66c-22.1,0-40,17.9-40,40v8h15v-8c0-13.8,11.2-25,25-25h380c13.8,0,25,11.2,25,25v8h15v-8
		C486,43.9,468.1,26,446,26z"/>
	<path style="opacity:0.1;fill:#2D2D2D;enable-background:new    ;" d="M66,111h380c13.8,0,25-11.2,25-25V74H41v12
		C41,99.8,52.2,111,66,111z"/>
	<path style="fill:#C986FC;" d="M471,86c0,13.8-11.2,25-25,25H66c-13.8,0-25-11.2-25-25V74H26v12c0,22.1,17.9,40,40,40h380
		c22.1,0,40-17.9,40-40V74h-15V86z"/>
</g>
<g>
	<g>
		<circle style="fill:#231F20;" cx="152.5" cy="211" r="22"/>
		<path style="fill:#FFFFFF;" d="M152.5,194c9.4,0,17,7.6,17,17s-7.6,17-17,17s-17-7.6-17-17S143.1,194,152.5,194 M152.5,189
			c-12.2,0-22,9.8-22,22s9.8,22,22,22s22-9.8,22-22C174.5,198.9,164.7,189,152.5,189L152.5,189z"/>
	</g>
	<g>
		<circle style="fill:#231F20;" cx="359.5" cy="211" r="22"/>
		<path style="fill:#FFFFFF;" d="M359.5,194c9.4,0,17,7.6,17,17s-7.6,17-17,17s-17-7.6-17-17S350.1,194,359.5,194 M359.5,189
			c-12.2,0-22,9.8-22,22s9.8,22,22,22s22-9.8,22-22S371.7,189,359.5,189L359.5,189z"/>
	</g>
	<path style="opacity:0.4;enable-background:new    ;" d="M372.4,218.4c0-7-5.5-12.7-12.3-12.7s-12.3,5.7-12.3,12.7
		c0,36.1-2,81.5-17.7,111.2c-6.4,12.3-14.8,21.2-25.5,27.3c-12.4,7-28.8,10.6-48.6,10.6c-20.8,0-37.7-3.6-50.4-10.6
		c-10.7-6-18.9-14.8-25.1-26.9c-6.1-12.1-10.4-27.5-13-47.1c-2.2-16.8-3.3-37-3.3-63.5c0-0.3,0-0.6,0-0.9c0-7-5.5-12.7-12.3-12.7
		s-12.3,5.7-12.3,12.7c0.1,96.2,12.4,174.4,116.4,174.4c99.7,0,116.2-77.6,116.3-173.4C372.3,219.1,372.4,218.8,372.4,218.4z"/>
	<path style="fill:#FFF6EE;" d="M372.4,218c0-6.8-5.5-12.3-12.3-12.3s-12.3,5.5-12.3,12.3c0,35-2,78.9-17.7,107.7
		c-6.4,11.9-14.8,20.5-25.5,26.4c-12.4,6.8-28.8,10.3-48.6,10.3c-20.8,0-37.7-3.5-50.4-10.3c-10.7-5.8-18.9-14.3-25.1-26
		c-6.1-11.7-10.4-26.6-13-45.6c-2.2-16.3-3.3-35.8-3.3-61.5c0-0.3,0-0.6,0-0.9c0-6.8-5.5-12.3-12.3-12.3s-12.3,5.5-12.3,12.3
		C139.7,311.3,152,387,256,387c99.7,0,116.2-75.1,116.3-167.9C372.3,218.7,372.4,218.4,372.4,218z"/>
</g>
</svg>
