<?xml version="1.0" encoding="utf-8"?>
<!-- Generator: Adobe Illustrator 18.0.0, SVG Export Plug-In . SVG Version: 6.00 Build 0)  -->
<!DOCTYPE svg PUBLIC "-//W3C//DTD SVG 1.1//EN" "http://www.w3.org/Graphics/SVG/1.1/DTD/svg11.dtd">
<svg version="1.1" id="Layer_1" xmlns="http://www.w3.org/2000/svg" xmlns:xlink="http://www.w3.org/1999/xlink" x="0px" y="0px"
	 viewBox="0 0 512 512" enable-background="new 0 0 512 512" xml:space="preserve">
<g opacity="0.4">
	<path d="M256.3,325.3c-10.4,0-18.1,8-18.1,19c0,10.7,7.3,19,18.1,19c11,0,18.1-8.3,18.1-19C274.4,333.2,267.3,325.3,256.3,325.3z"
		/>
	<polygon points="242.3,300.9 272.1,302.1 287.3,153.6 233.8,153.6 	"/>
	<path d="M256,30C129,30,26,133,26,260s103,230,230,230s230-103,230-230S383,30,256,30z M439.6,275.3l-44.8,26.2l17,51.9l-29.9,1.4
		l19.7,28.6L355.4,367l-7.2,42.8l-49.5-23.1l-33,43.5l-16.3-21.4l-23.9,31.5l-4.5-48.2l-37.9,17.7l-9.1-53.8l-13.4-0.6l-33.4,10.2
		l8.3-11.4l-16-0.7l17-51.9L89.5,274l2.1-2L70,266.3l32.5-5l26.1-25.3l-28.9-46.3l17.8-5.2l-27.5-30.9l57.3,22.1l4.9-1.4l-4.1-54.4
		l38.4,7.6l-8.6-47.5l28.4,40l17.1-39.6l42.5,34.3l42.5-34.3l18.6,43l30.6-24.1l-14,28.5l40-7.9l-3.6,47.8l26.5-7.6l-18.5,16.7
		l43.8,13l-28.9,46.3l39.2,38l-1.5,0.9l0.7,0.3L439.6,275.3z"/>
</g>
<g>
	<path fill="#CF2027" d="M256.3,321.3c-10.4,0-18.1,8-18.1,19c0,10.7,7.3,19,18.1,19c11,0,18.1-8.3,18.1-19
		C274.4,329.2,267.3,321.3,256.3,321.3z"/>
	<polygon fill="#CF2027" points="242.3,296.9 272.1,298.1 287.3,149.6 233.8,149.6 	"/>
	<path fill="#CF2027" d="M256,26C129,26,26,129,26,256s103,230,230,230s230-103,230-230S383,26,256,26z M439.6,271.3l-44.8,26.2
		l17,51.9l-29.9,1.4l19.7,28.6L355.4,363l-7.2,42.8l-49.5-23.1l-33,43.5l-16.3-21.4l-23.9,31.5l-4.5-48.2l-37.9,17.7l-9.1-53.8
		l-13.4-0.6l-33.4,10.2l8.3-11.4l-16-0.7l17-51.9L89.5,270l2.1-2L70,262.3l32.5-5l26.1-25.3l-28.9-46.3l17.8-5.2l-27.5-30.9
		l57.3,22.1l4.9-1.4l-4.1-54.4l38.4,7.6l-8.6-47.5l28.4,40l17.1-39.6l42.5,34.3l42.5-34.3l18.6,43l30.6-24.1l-14,28.5l40-7.9
		l-3.6,47.8l26.5-7.6l-18.5,16.7l43.8,13l-28.9,46.3l39.2,38l-1.5,0.9l0.7,0.3L439.6,271.3z"/>
</g>
</svg>
