<?xml version="1.0" encoding="utf-8"?>
<!-- Generator: Adobe Illustrator 18.0.0, SVG Export Plug-In . SVG Version: 6.00 Build 0)  -->
<!DOCTYPE svg PUBLIC "-//W3C//DTD SVG 1.1//EN" "http://www.w3.org/Graphics/SVG/1.1/DTD/svg11.dtd">
<svg version="1.1" id="Layer_1" xmlns="http://www.w3.org/2000/svg" xmlns:xlink="http://www.w3.org/1999/xlink" x="0px" y="0px"
	 viewBox="0 0 512 512" style="enable-background:new 0 0 512 512;" xml:space="preserve">
<g>
	<g id="g4">
		<path style="fill:#00979C;" d="M367.967,364.527c-30.352,0-56.12-10.504-78.777-32.112c-12.72-12.132-23.361-26.71-33.19-41.835
			c-9.829,15.125-20.47,29.703-33.19,41.835c-24.263,23.14-52.085,33.578-85.332,31.95C75.962,364.098,26,315.552,26,255.918
			c0-59.798,50.236-108.447,111.984-108.447c32.851,0,60.595,10.54,84.819,32.224c12.685,11.355,23.329,24.806,33.197,39.269
			c9.868-14.464,20.512-27.915,33.197-39.269c24.224-21.683,51.968-32.224,84.819-32.224C435.764,147.471,486,196.12,486,255.918
			c0,59.633-49.962,108.18-111.477,108.446C372.322,364.472,370.119,364.527,367.967,364.527z M278.499,254.482
			c11.822,19.184,23.297,37.063,37.107,50.234c16.653,15.883,34.733,22.595,57.403,21.4l1.006-0.026
			c40.643,0,73.709-31.479,73.709-70.172s-33.066-70.172-73.709-70.172c-23.327,0-42.167,7.139-59.291,22.467
			C301.094,220.415,289.929,236.353,278.499,254.482z M137.984,185.747c-40.643,0-73.709,31.479-73.709,70.172
			s33.066,70.172,73.709,70.172l1.006,0.026c22.678,1.198,40.75-5.516,57.403-21.4c13.81-13.171,25.285-31.05,37.107-50.234
			c-11.43-18.129-22.594-34.067-36.226-46.268C180.151,192.886,161.311,185.747,137.984,185.747z"/>
	</g>
	<polygon style="fill:#00979C;" points="379.076,242.008 379.076,221.253 357.473,221.253 357.473,242.008 336.718,242.008 
		336.718,263.506 357.473,263.506 357.473,284.417 379.076,284.417 379.076,263.506 399.83,263.506 399.83,242.008 	"/>
	<rect x="106.908" y="241.748" style="fill:#00979C;" width="68.219" height="22.174"/>
</g>
</svg>
