<?xml version="1.0" encoding="utf-8"?>
<!-- Generator: Adobe Illustrator 18.0.0, SVG Export Plug-In . SVG Version: 6.00 Build 0)  -->
<!DOCTYPE svg PUBLIC "-//W3C//DTD SVG 1.1//EN" "http://www.w3.org/Graphics/SVG/1.1/DTD/svg11.dtd">
<svg version="1.1" id="Layer_1" xmlns="http://www.w3.org/2000/svg" xmlns:xlink="http://www.w3.org/1999/xlink" x="0px" y="0px"
	 viewBox="0 0 512 512" style="enable-background:new 0 0 512 512;" xml:space="preserve">
<circle style="fill:#94C93D;" cx="256" cy="256" r="230"/>
<g>
	<g>
		<path style="fill:#EFF1B7;" d="M334.826,128.424l-73.484,127.234l52.104,0.008c-0.88,97.592-64.119,180.268-151.795,210.15
			c19.855,8.942,41.21,15.139,63.58,18.13c78.151-46.221,130.756-131.063,131.492-228.27l51.553,0.008l0-0.003h-0.003
			L334.826,128.424z"/>
		<path style="fill:#EFF1B7;" d="M350.35,46.185c-19.855-8.942-41.209-15.139-63.579-18.13
			c-78.151,46.221-130.756,131.063-131.492,228.271l-51.553-0.008l0,0.003l0.003,0l73.446,127.256l73.484-127.234l-52.104-0.008
			C199.434,158.742,262.674,76.067,350.35,46.185z"/>
	</g>
	<path style="opacity:0.8;fill:#FFFFFF;" d="M256,114.303c-78.257,0-141.697,63.44-141.697,141.697S177.743,397.697,256,397.697
		S397.697,334.257,397.697,256S334.257,114.303,256,114.303z M147.935,256.684h17.507c-0.001-0.229-0.013-0.456-0.013-0.685
		c0-50.031,40.558-90.59,90.59-90.59c33.774,0,63.227,18.484,78.805,45.887l-8.706,15.476
		c-11.449-27.427-38.522-46.704-70.099-46.704c-41.937,0-75.933,33.996-75.933,75.933c0,0.229,0.006,0.456,0.008,0.685l17.612-0.001
		l-24.886,43.104L147.935,256.684z M346.601,256.686c-0.369,49.716-40.779,89.906-90.582,89.906
		c-33.038,0-61.941-17.688-77.767-44.109l8.654-14.991c11.965,26.218,38.41,44.441,69.111,44.441
		c41.707,0,75.555-33.627,75.923-75.248h-17.65l24.886-43.104l24.886,43.104h0.001v0.001H346.601z"/>
</g>
</svg>
