<?xml version="1.0" encoding="utf-8"?>
<!-- Generator: Adobe Illustrator 18.0.0, SVG Export Plug-In . SVG Version: 6.00 Build 0)  -->
<!DOCTYPE svg PUBLIC "-//W3C//DTD SVG 1.1//EN" "http://www.w3.org/Graphics/SVG/1.1/DTD/svg11.dtd">
<svg version="1.1" id="Layer_2" xmlns="http://www.w3.org/2000/svg" xmlns:xlink="http://www.w3.org/1999/xlink" x="0px" y="0px"
	 viewBox="0 0 512 512" style="enable-background:new 0 0 512 512;" xml:space="preserve">
<circle style="fill:#D6D6D6;" cx="256" cy="256" r="230"/>
<g>
	<g>
		<polygon style="fill:#4374B9;" points="271.064,216.906 240.945,216.906 196.767,172.729 185.358,184.138 255.56,254.341 
			256.449,254.341 326.642,184.147 315.233,172.738 		"/>
		<polygon style="fill:#4374B9;" points="271.064,295.094 240.945,295.094 196.767,339.271 185.358,327.862 255.56,257.659 
			256.449,257.659 326.642,327.853 315.233,339.262 		"/>
	</g>
	<g>
		<polygon style="fill:#F7901E;" points="151.617,271.792 151.617,241.673 195.794,197.495 184.385,186.086 114.182,256.288 
			114.182,257.177 184.376,327.37 195.785,315.961 		"/>
		<polygon style="fill:#3D6CB4;" points="360.383,241.664 360.383,271.783 316.206,315.961 327.615,327.37 397.818,257.168 
			397.818,256.279 327.624,186.086 316.215,197.495 		"/>
	</g>
</g>
</svg>
