<?xml version="1.0" encoding="utf-8"?>
<!-- Generator: Adobe Illustrator 18.0.0, SVG Export Plug-In . SVG Version: 6.00 Build 0)  -->
<!DOCTYPE svg PUBLIC "-//W3C//DTD SVG 1.1//EN" "http://www.w3.org/Graphics/SVG/1.1/DTD/svg11.dtd">
<svg version="1.1" id="Layer_3" xmlns="http://www.w3.org/2000/svg" xmlns:xlink="http://www.w3.org/1999/xlink" x="0px" y="0px"
	 viewBox="0 0 512 512" style="enable-background:new 0 0 512 512;" xml:space="preserve">
<g>
	<circle style="fill:#80C342;" cx="256" cy="256" r="230"/>
	<g style="enable-background:new    ;">
		<path style="fill:#FFFFFF;" d="M288.179,372.267c-26.989-7.118-53.389-15.127-76.522-23.135
			c-4.152-1.484-8.305-2.966-12.161-2.966c-47.456-1.78-88.091-36.778-88.091-101.141c0-64.066,39.152-105.293,93.133-105.293
			c54.277,0,89.574,42.117,89.574,101.142c0,51.311-23.728,84.234-56.947,95.801v1.187c19.871,5.042,41.524,9.788,58.431,12.753
			L288.179,372.267z M266.824,242.06c0-40.041-20.763-81.269-63.176-81.269c-43.6,0-64.955,40.339-64.659,83.643
			c-0.296,42.414,23.135,80.675,63.472,80.675C243.69,325.108,266.824,287.736,266.824,242.06z"/>
		<path style="fill:#FFFFFF;" d="M363.224,158.123v41.228h37.371v19.871h-37.371v77.412c0,17.797,5.041,27.88,19.575,27.88
			c6.822,0,11.864-0.889,15.127-1.78l1.186,19.576c-5.042,2.076-13.05,3.56-23.135,3.56c-12.161,0-21.949-3.857-28.177-10.975
			c-7.415-7.712-10.085-20.464-10.085-37.371v-78.303h-22.245V199.35h22.245v-34.406L363.224,158.123z"/>
	</g>
	<g>
		<path style="fill:#FFFFFF;" d="M166.633,188.284c2.167-1.913,4.543-3.73,7.125-5.451s5.37-3.218,8.367-4.496
			c2.996-1.275,6.247-2.279,9.755-3.012c3.506-0.733,7.3-1.1,11.38-1.1c5.547,0,10.599,0.765,15.157,2.296
			c4.558,1.531,8.464,3.715,11.715,6.551c3.252,2.837,5.769,6.264,7.555,10.281c1.785,4.017,2.678,8.512,2.678,13.484
			c0,4.846-0.703,9.037-2.104,12.576c-1.403,3.539-3.172,6.615-5.308,9.229c-2.137,2.615-4.447,4.878-6.933,6.79
			s-4.846,3.715-7.077,5.402c-2.233,1.69-4.161,3.347-5.786,4.973c-1.627,1.626-2.598,3.459-2.917,5.498l-2.2,13.963H191.88
			l-1.626-15.588c-0.064-0.319-0.096-0.589-0.096-0.812c0-0.222,0-0.493,0-0.812c0-2.804,0.702-5.243,2.104-7.316
			c1.402-2.071,3.157-4.017,5.26-5.833c2.104-1.817,4.367-3.586,6.79-5.308c2.422-1.722,4.686-3.586,6.79-5.594
			c2.104-2.009,3.857-4.287,5.26-6.837c1.402-2.549,2.104-5.547,2.104-8.99c0-2.296-0.431-4.351-1.292-6.169
			c-0.861-1.817-2.055-3.379-3.586-4.686c-1.531-1.306-3.364-2.31-5.5-3.012c-2.137-0.702-4.447-1.053-6.933-1.053
			c-3.634,0-6.71,0.399-9.229,1.196c-2.519,0.798-4.655,1.69-6.408,2.678c-1.754,0.989-3.237,1.882-4.447,2.678
			c-1.212,0.799-2.296,1.196-3.251,1.196c-2.296,0-3.954-0.957-4.973-2.869L166.633,188.284z M184.709,301.036
			c0-1.975,0.365-3.857,1.1-5.643c0.732-1.785,1.753-3.314,3.061-4.59c1.306-1.275,2.852-2.296,4.638-3.061
			c1.785-0.765,3.697-1.147,5.738-1.147c1.975,0,3.857,0.382,5.643,1.147c1.785,0.765,3.314,1.786,4.59,3.061
			c1.275,1.276,2.296,2.807,3.061,4.59c0.765,1.786,1.147,3.668,1.147,5.643c0,2.042-0.382,3.937-1.147,5.69
			c-0.765,1.754-1.786,3.268-3.061,4.543c-1.276,1.276-2.807,2.28-4.59,3.012c-1.786,0.732-3.668,1.099-5.643,1.099
			c-2.042,0-3.954-0.368-5.738-1.099c-1.786-0.733-3.333-1.737-4.638-3.012c-1.308-1.275-2.329-2.789-3.061-4.543
			C185.075,304.973,184.709,303.077,184.709,301.036z"/>
	</g>
</g>
</svg>
