<?xml version="1.0" encoding="utf-8"?>
<!-- Generator: Adobe Illustrator 18.0.0, SVG Export Plug-In . SVG Version: 6.00 Build 0)  -->
<!DOCTYPE svg PUBLIC "-//W3C//DTD SVG 1.1//EN" "http://www.w3.org/Graphics/SVG/1.1/DTD/svg11.dtd">
<svg version="1.1" id="Layer_2" xmlns="http://www.w3.org/2000/svg" xmlns:xlink="http://www.w3.org/1999/xlink" x="0px" y="0px"
	 viewBox="0 0 512 512" style="enable-background:new 0 0 512 512;" xml:space="preserve">
<g>
	<radialGradient id="SVGID_1_" cx="256" cy="256" r="230" gradientUnits="userSpaceOnUse">
		<stop  offset="0" style="stop-color:#ECF2BF"/>
		<stop  offset="0.1834" style="stop-color:#E4EFBF"/>
		<stop  offset="0.4677" style="stop-color:#CEE7C0"/>
		<stop  offset="0.8152" style="stop-color:#ABD9C1"/>
		<stop  offset="1" style="stop-color:#95D1C2"/>
	</radialGradient>
	<circle style="fill:url(#SVGID_1_);" cx="256" cy="256" r="230"/>
	<path style="fill:#66595C;" d="M256,46c28.359,0,55.858,5.55,81.735,16.495c25.004,10.576,47.465,25.72,66.757,45.013
		c19.292,19.292,34.437,41.753,45.013,66.757C460.45,200.142,466,227.641,466,256s-5.55,55.858-16.495,81.735
		c-10.576,25.004-25.72,47.465-45.013,66.757c-19.293,19.292-41.753,34.437-66.757,45.013C311.858,460.45,284.359,466,256,466
		s-55.858-5.55-81.735-16.495c-25.004-10.576-47.465-25.72-66.757-45.013C88.215,385.2,73.071,362.74,62.495,337.735
		C51.55,311.858,46,284.359,46,256s5.55-55.858,16.495-81.735c10.576-25.004,25.72-47.465,45.013-66.757
		c19.293-19.292,41.753-34.437,66.757-45.013C200.142,51.55,227.641,46,256,46 M256,26C128.975,26,26,128.974,26,256
		s102.975,230,230,230s230-102.975,230-230S383.025,26,256,26L256,26z"/>
</g>
<g>
	<path style="fill:#66595C;" d="M202.802,360.664c-4.693,0.002-8.88-1.167-12.498-3.516c-24.635-16-5.959-76.987,26.328-126.705
		c30.092-46.338,66.867-78.101,91.507-79.036c5.152-0.201,9.735,0.961,13.558,3.444c10.699,6.946,13.981,22.698,9.492,45.551
		c-0.489,2.495-2.919,4.119-5.404,3.63c-2.496-0.49-4.122-2.91-3.631-5.405c3.599-18.319,1.604-31.46-5.471-36.054
		c-2.199-1.427-4.938-2.085-8.195-1.966c-21.104,0.801-56.488,32.281-84.133,74.851c-16.595,25.553-28.549,51.858-33.659,74.067
		c-4.694,20.399-3.009,34.943,4.625,39.9c7.183,4.663,20.209,0.991,35.738-10.075c2.07-1.476,4.946-0.995,6.421,1.077
		c1.476,2.072,0.993,4.946-1.078,6.422C223.53,356.022,212.161,360.664,202.802,360.664z"/>
	<path style="fill:#66595C;" d="M344.571,291.999c-1.845,0-3.586-1.117-4.295-2.94c-0.919-2.37,0.257-5.037,2.627-5.958
		c15.071-5.847,23.944-13.598,24.347-21.27c0.475-9.09-10.296-19.003-29.552-27.197c-20.968-8.921-49.269-14.712-79.695-16.306
		c-6.099-0.319-11.966-0.462-17.41-0.454c-58.944,0.198-95.018,16.576-95.842,32.296c-0.406,7.751,7.375,16.144,21.912,23.635
		c2.261,1.165,3.149,3.942,1.984,6.203c-1.164,2.259-3.943,3.144-6.201,1.984c-18.208-9.382-27.506-20.552-26.89-32.303
		c1.255-23.949,44.435-40.819,105.006-41.022c5.623-0.015,11.654,0.138,17.924,0.467c31.474,1.649,60.885,7.697,82.817,17.029
		c23.363,9.94,35.842,22.779,35.141,36.151c-0.617,11.789-11.064,21.944-30.21,29.374
		C345.688,291.898,345.123,291.999,344.571,291.999z"/>
	<path style="fill:#66595C;" d="M300.898,365.768c-10.627,0-23.557-6.722-37.49-19.687c-17.46-16.249-34.955-40.662-49.262-68.741
		c-14.305-28.076-23.768-56.586-26.645-80.281c-3.064-25.227,1.82-42.469,13.752-48.548c2.457-1.253,5.175-1.998,8.077-2.216
		c9.536-0.699,21.206,4.424,33.784,14.86c1.957,1.623,2.227,4.526,0.603,6.482c-1.622,1.958-4.526,2.228-6.482,0.603
		c-10.554-8.756-20.226-13.298-27.217-12.763c-1.701,0.127-3.2,0.531-4.583,1.236c-8.114,4.135-11.319,18.435-8.793,39.235
		c2.751,22.651,11.881,50.071,25.709,77.211c13.83,27.143,30.64,50.645,47.331,66.18c15.33,14.265,28.771,20.076,36.887,15.945
		c7.74-3.944,11.04-17.355,9.053-36.792c-2.16-21.14-10.255-47.131-22.795-73.187c-1.102-2.291-0.138-5.042,2.153-6.145
		c2.293-1.105,5.041-0.139,6.145,2.153c12.99,26.992,21.392,54.069,23.658,76.242c2.43,23.771-2.556,40.085-14.035,45.933
		C307.756,365.015,304.456,365.768,300.898,365.768z"/>
	<path style="fill:#66595C;" d="M270.561,257.64c0,7.628-6.184,13.812-13.812,13.812c-7.628,0-13.812-6.184-13.812-13.812l0,0
		c0-7.628,6.184-13.812,13.812-13.812C264.377,243.828,270.561,250.012,270.561,257.64z"/>
</g>
</svg>
