<?xml version="1.0" encoding="utf-8"?>
<!-- Generator: Adobe Illustrator 18.0.0, SVG Export Plug-In . SVG Version: 6.00 Build 0)  -->
<!DOCTYPE svg PUBLIC "-//W3C//DTD SVG 1.1//EN" "http://www.w3.org/Graphics/SVG/1.1/DTD/svg11.dtd">
<svg version="1.1" id="Layer_2" xmlns="http://www.w3.org/2000/svg" xmlns:xlink="http://www.w3.org/1999/xlink" x="0px" y="0px"
	 viewBox="0 0 512 512" enable-background="new 0 0 512 512" xml:space="preserve">
<radialGradient id="SVGID_1_" cx="256" cy="256" r="230" gradientUnits="userSpaceOnUse">
	<stop  offset="0" style="stop-color:#4F006A"/>
	<stop  offset="1" style="stop-color:#24003F"/>
</radialGradient>
<circle fill="url(#SVGID_1_)" cx="256" cy="256" r="230"/>
<g>
	<g>
		<path fill="#FFFFFF" d="M412.718,252.526L412.718,252.526c2.035,0,3.685,2.118,3.685,4.731v-0.756h-7.371v0.756
			C409.033,254.644,410.683,252.526,412.718,252.526z"/>
		<path fill="#FFFFFF" d="M401.109,246.612L401.109,246.612c2.035,0,3.685,2.118,3.685,4.731v5.158h-7.371v-5.158
			C397.424,248.731,399.074,246.612,401.109,246.612z"/>
		<path fill="#FFFFFF" d="M389.501,231.164L389.501,231.164c2.035,0,3.685,2.118,3.685,4.731v20.606h-7.371v-20.606
			C385.815,233.282,387.465,231.164,389.501,231.164z"/>
		<path fill="#FFFFFF" d="M377.892,239.527L377.892,239.527c2.035,0,3.685,2.118,3.685,4.731v12.243h-7.371v-12.243
			C374.207,241.645,375.857,239.527,377.892,239.527z"/>
		<path fill="#FFFFFF" d="M366.283,177.675L366.283,177.675c2.035,0,3.685,2.118,3.685,4.731v74.095h-7.371v-74.095
			C362.598,179.794,364.248,177.675,366.283,177.675z"/>
		<path fill="#FFFFFF" d="M354.674,162.324L354.674,162.324c2.035,0,3.685,2.118,3.685,4.731v89.446h-7.371v-89.446
			C350.989,164.442,352.639,162.324,354.674,162.324z"/>
		<path fill="#FFFFFF" d="M343.066,246.612L343.066,246.612c2.035,0,3.685,2.118,3.685,4.731v5.158h-7.371v-5.158
			C339.38,248.731,341.03,246.612,343.066,246.612z"/>
		<path fill="#FFFFFF" d="M331.457,195.634L331.457,195.634c2.035,0,3.685,2.118,3.685,4.731v56.137h-7.371v-56.137
			C327.772,197.752,329.422,195.634,331.457,195.634z"/>
		<path fill="#FFFFFF" d="M319.848,212.192L319.848,212.192c2.035,0,3.685,2.118,3.685,4.731v39.578h-7.371v-39.578
			C316.163,214.31,317.813,212.192,319.848,212.192z"/>
		<path fill="#FFFFFF" d="M308.239,231.164L308.239,231.164c2.035,0,3.685,2.118,3.685,4.731v20.606h-7.371v-20.606
			C304.554,233.282,306.204,231.164,308.239,231.164z"/>
		<path fill="#FFFFFF" d="M296.631,248.543L296.631,248.543c2.035,0,3.685,2.118,3.685,4.731v3.227h-7.371v-3.227
			C292.945,250.662,294.595,248.543,296.631,248.543z"/>
		<path fill="#FFFFFF" d="M285.022,248.543L285.022,248.543c2.035,0,3.685,2.118,3.685,4.731v3.227h-7.371v-3.227
			C281.337,250.662,282.987,248.543,285.022,248.543z"/>
		<path fill="#FFFFFF" d="M273.413,242.992L273.413,242.992c2.035,0,3.685,2.118,3.685,4.731v8.779h-7.371v-8.779
			C269.728,245.11,271.378,242.992,273.413,242.992z"/>
		<path fill="#FFFFFF" d="M261.804,219.675L261.804,219.675c2.035,0,3.685,2.118,3.685,4.731v32.095h-7.371v-32.095
			C258.119,221.793,259.769,219.675,261.804,219.675z"/>
		<path fill="#FFFFFF" d="M250.196,187.089L250.196,187.089c2.035,0,3.685,2.118,3.685,4.731v64.681h-7.371V191.82
			C246.51,189.207,248.16,187.089,250.196,187.089z"/>
		<path fill="#FFFFFF" d="M238.587,203.454L238.587,203.454c2.035,0,3.685,2.118,3.685,4.731v48.316h-7.371v-48.316
			C234.902,205.572,236.552,203.454,238.587,203.454z"/>
		<path fill="#FFFFFF" d="M226.978,221.016L226.978,221.016c2.035,0,3.685,2.118,3.685,4.731v30.754h-7.371v-30.754
			C223.293,223.134,224.943,221.016,226.978,221.016z"/>
		<path fill="#FFFFFF" d="M215.369,246.902L215.369,246.902c2.035,0,3.685,2.118,3.685,4.731v4.868h-7.371v-4.868
			C211.684,249.02,213.334,246.902,215.369,246.902z"/>
		<path fill="#FFFFFF" d="M203.761,235.026L203.761,235.026c2.035,0,3.685,2.118,3.685,4.731v16.744h-7.371v-16.744
			C200.075,237.144,201.725,235.026,203.761,235.026z"/>
		<path fill="#FFFFFF" d="M192.152,246.902L192.152,246.902c2.035,0,3.685,2.118,3.685,4.731v4.868h-7.371v-4.868
			C188.467,249.02,190.117,246.902,192.152,246.902z"/>
		<path fill="#FFFFFF" d="M180.543,235.702L180.543,235.702c2.035,0,3.685,2.118,3.685,4.731v16.068h-7.371v-16.068
			C176.858,237.82,178.508,235.702,180.543,235.702z"/>
		<path fill="#FFFFFF" d="M168.934,223.923L168.934,223.923c2.035,0,3.685,2.118,3.685,4.731v27.847h-7.371v-27.847
			C165.249,226.041,166.899,223.923,168.934,223.923z"/>
		<path fill="#FFFFFF" d="M157.326,184.627L157.326,184.627c2.035,0,3.685,2.118,3.685,4.731v67.143h-7.371v-67.143
			C153.64,186.745,155.29,184.627,157.326,184.627z"/>
		<path fill="#FFFFFF" d="M145.717,206.351L145.717,206.351c2.035,0,3.685,2.118,3.685,4.731v45.419h-7.371v-45.419
			C142.031,208.469,143.681,206.351,145.717,206.351z"/>
		<path fill="#FFFFFF" d="M134.108,195.634L134.108,195.634c2.035,0,3.685,2.118,3.685,4.731v56.137h-7.371v-56.137
			C130.423,197.752,132.073,195.634,134.108,195.634z"/>
		<path fill="#FFFFFF" d="M122.499,211.178L122.499,211.178c2.035,0,3.685,2.118,3.685,4.731v40.592h-7.371v-40.592
			C118.814,213.297,120.464,211.178,122.499,211.178z"/>
		<path fill="#FFFFFF" d="M110.891,242.992L110.891,242.992c2.035,0,3.685,2.118,3.685,4.731v8.779h-7.371v-8.779
			C107.205,245.11,108.855,242.992,110.891,242.992z"/>
		<path fill="#FFFFFF" d="M99.282,231.744L99.282,231.744c2.035,0,3.685,2.118,3.685,4.731v20.027h-7.371v-20.027
			C95.596,233.862,97.246,231.744,99.282,231.744z"/>
	</g>
	<g>
		<path fill="#FFFFFF" d="M412.718,259.474L412.718,259.474c2.035,0,3.685-2.118,3.685-4.731v0.756h-7.371v-0.756
			C409.033,257.356,410.683,259.474,412.718,259.474z"/>
		<path fill="#FFFFFF" d="M401.109,265.388L401.109,265.388c2.035,0,3.685-2.118,3.685-4.731v-5.158h-7.371v5.158
			C397.424,263.27,399.074,265.388,401.109,265.388z"/>
		<path fill="#FFFFFF" d="M389.501,280.836L389.501,280.836c2.035,0,3.685-2.118,3.685-4.731v-20.606h-7.371v20.606
			C385.815,278.718,387.465,280.836,389.501,280.836z"/>
		<path fill="#FFFFFF" d="M377.892,272.473L377.892,272.473c2.035,0,3.685-2.118,3.685-4.731v-12.243h-7.371v12.243
			C374.207,270.355,375.857,272.473,377.892,272.473z"/>
		<path fill="#FFFFFF" d="M366.283,334.325L366.283,334.325c2.035,0,3.685-2.118,3.685-4.731v-74.095h-7.371v74.095
			C362.598,332.207,364.248,334.325,366.283,334.325z"/>
		<path fill="#FFFFFF" d="M354.674,349.676L354.674,349.676c2.035,0,3.685-2.118,3.685-4.731v-89.446h-7.371v89.446
			C350.989,347.558,352.639,349.676,354.674,349.676z"/>
		<path fill="#FFFFFF" d="M343.066,265.388L343.066,265.388c2.035,0,3.685-2.118,3.685-4.731v-5.158h-7.371v5.158
			C339.38,263.27,341.03,265.388,343.066,265.388z"/>
		<path fill="#FFFFFF" d="M331.457,316.366L331.457,316.366c2.035,0,3.685-2.118,3.685-4.731v-56.137h-7.371v56.137
			C327.772,314.248,329.422,316.366,331.457,316.366z"/>
		<path fill="#FFFFFF" d="M319.848,299.808L319.848,299.808c2.035,0,3.685-2.118,3.685-4.731v-39.578h-7.371v39.578
			C316.163,297.69,317.813,299.808,319.848,299.808z"/>
		<path fill="#FFFFFF" d="M308.239,280.836L308.239,280.836c2.035,0,3.685-2.118,3.685-4.731v-20.606h-7.371v20.606
			C304.554,278.718,306.204,280.836,308.239,280.836z"/>
		<path fill="#FFFFFF" d="M296.631,263.457L296.631,263.457c2.035,0,3.685-2.118,3.685-4.731v-3.227h-7.371v3.227
			C292.945,261.338,294.595,263.457,296.631,263.457z"/>
		<path fill="#FFFFFF" d="M285.022,263.457L285.022,263.457c2.035,0,3.685-2.118,3.685-4.731v-3.227h-7.371v3.227
			C281.337,261.338,282.987,263.457,285.022,263.457z"/>
		<path fill="#FFFFFF" d="M273.413,269.008L273.413,269.008c2.035,0,3.685-2.118,3.685-4.731v-8.779h-7.371v8.779
			C269.728,266.89,271.378,269.008,273.413,269.008z"/>
		<path fill="#FFFFFF" d="M261.804,292.325L261.804,292.325c2.035,0,3.685-2.118,3.685-4.731v-32.095h-7.371v32.095
			C258.119,290.207,259.769,292.325,261.804,292.325z"/>
		<path fill="#FFFFFF" d="M250.196,324.911L250.196,324.911c2.035,0,3.685-2.118,3.685-4.731v-64.681h-7.371v64.681
			C246.51,322.793,248.16,324.911,250.196,324.911z"/>
		<path fill="#FFFFFF" d="M238.587,308.546L238.587,308.546c2.035,0,3.685-2.118,3.685-4.731v-48.316h-7.371v48.316
			C234.902,306.428,236.551,308.546,238.587,308.546z"/>
		<path fill="#FFFFFF" d="M226.978,290.984L226.978,290.984c2.035,0,3.685-2.118,3.685-4.731v-30.754h-7.371v30.754
			C223.293,288.866,224.943,290.984,226.978,290.984z"/>
		<path fill="#FFFFFF" d="M215.369,265.098L215.369,265.098c2.035,0,3.685-2.118,3.685-4.731v-4.868h-7.371v4.868
			C211.684,262.98,213.334,265.098,215.369,265.098z"/>
		<path fill="#FFFFFF" d="M203.761,276.974L203.761,276.974c2.035,0,3.685-2.118,3.685-4.731v-16.744h-7.371v16.744
			C200.075,274.856,201.725,276.974,203.761,276.974z"/>
		<path fill="#FFFFFF" d="M192.152,265.098L192.152,265.098c2.035,0,3.685-2.118,3.685-4.731v-4.868h-7.371v4.868
			C188.466,262.98,190.117,265.098,192.152,265.098z"/>
		<path fill="#FFFFFF" d="M180.543,276.298L180.543,276.298c2.035,0,3.685-2.118,3.685-4.731v-16.068h-7.371v16.068
			C176.858,274.18,178.508,276.298,180.543,276.298z"/>
		<path fill="#FFFFFF" d="M168.934,288.077L168.934,288.077c2.035,0,3.685-2.118,3.685-4.731v-27.847h-7.371v27.847
			C165.249,285.959,166.899,288.077,168.934,288.077z"/>
		<path fill="#FFFFFF" d="M157.326,327.373L157.326,327.373c2.035,0,3.685-2.118,3.685-4.731v-67.143h-7.371v67.143
			C153.64,325.255,155.29,327.373,157.326,327.373z"/>
		<path fill="#FFFFFF" d="M145.717,305.649L145.717,305.649c2.035,0,3.685-2.118,3.685-4.731v-45.419h-7.371v45.419
			C142.031,303.531,143.681,305.649,145.717,305.649z"/>
		<path fill="#FFFFFF" d="M134.108,316.366L134.108,316.366c2.035,0,3.685-2.118,3.685-4.731v-56.137h-7.371v56.137
			C130.423,314.248,132.073,316.366,134.108,316.366z"/>
		<path fill="#FFFFFF" d="M122.499,300.822L122.499,300.822c2.035,0,3.685-2.118,3.685-4.731v-40.592h-7.371v40.592
			C118.814,298.703,120.464,300.822,122.499,300.822z"/>
		<path fill="#FFFFFF" d="M110.891,269.008L110.891,269.008c2.035,0,3.685-2.118,3.685-4.731v-8.779h-7.371v8.779
			C107.205,266.89,108.855,269.008,110.891,269.008z"/>
		<path fill="#FFFFFF" d="M99.282,280.256L99.282,280.256c2.035,0,3.685-2.118,3.685-4.731v-20.027h-7.371v20.027
			C95.596,278.138,97.246,280.256,99.282,280.256z"/>
	</g>
</g>
</svg>
