<?xml version="1.0" encoding="utf-8"?>
<!-- Generator: Adobe Illustrator 18.0.0, SVG Export Plug-In . SVG Version: 6.00 Build 0)  -->
<!DOCTYPE svg PUBLIC "-//W3C//DTD SVG 1.1//EN" "http://www.w3.org/Graphics/SVG/1.1/DTD/svg11.dtd">
<svg version="1.1" id="Layer_1" xmlns="http://www.w3.org/2000/svg" xmlns:xlink="http://www.w3.org/1999/xlink" x="0px" y="0px"
	 viewBox="0 0 512 512" enable-background="new 0 0 512 512" xml:space="preserve">
<g opacity="0.4">
	<path d="M335.7,221.3c2.5,0,3.7-1.4,3.7-4.1c0-2.5-1.2-3.8-3.7-3.8c-2.6,0-3.9,1.3-3.9,3.8C331.8,219.9,333.1,221.3,335.7,221.3z"
		/>
	<path d="M226.7,229.5c-3.5-9.6-17.2-9.6-20.7,0l-14,38.6c-2.6,7.2,2.7,14.7,10.3,14.7h28.1c7.6,0,12.9-7.6,10.3-14.7L226.7,229.5z"
		/>
	<path d="M323.6,298.8c-2.5,0-3.7,1.4-3.7,4.1c0,3.2,1.9,4.4,5.8,3.5c0.7-0.1,1.4-0.9,1.5-1.6C327.9,300.9,326.7,298.8,323.6,298.8z
		"/>
	<path d="M486,287.6v-55.2L434.2,214c-4.4-16.9-11.1-32.8-19.7-47.4l0.1-0.1l23.6-49.7l-39-39l-49.7,23.6l-0.1,0.1
		c-14.6-8.7-30.5-15.4-47.4-19.7L283.6,30h-55.2L210,81.8c-16.9,4.4-32.8,11.1-47.4,19.7l-0.1-0.1l-49.7-23.6l-39,39l23.6,49.7
		l0.1,0.1c-8.7,14.6-15.4,30.5-19.7,47.4L26,232.4v55.2L77.8,306c4.4,16.9,11.1,32.8,19.7,47.4l-0.1,0.1l-23.6,49.7l39,39l49.7-23.6
		l0.1-0.1c14.6,8.7,30.5,15.4,47.4,19.7l18.4,51.8h55.2l18.4-51.8c16.9-4.4,32.8-11.1,47.4-19.7l0.1,0.1l49.7,23.6l39-39l-23.6-49.7
		l-0.1-0.1c8.7-14.6,15.4-30.5,19.7-47.4L486,287.6z M277.4,347.4c-4.6,0-8.7-2.9-10.3-7.2l-11.4-31.3c-1.6-4.3-5.7-7.2-10.3-7.2
		h-57.8c-4.6,0-8.8,2.9-10.3,7.3l-11.2,31.2c-1.6,4.4-5.7,7.3-10.3,7.3h-0.1c-7.7,0-13-7.7-10.3-14.9l58.4-152.8
		c1.6-4.3,5.7-7.1,10.3-7.1h5c4.6,0,8.6,2.8,10.3,7.1l58.5,152.8C290.4,339.7,285.1,347.4,277.4,347.4z M322.1,184
		c0-0.6,0.2-1.1,0.7-1.5c1.8-1.5,3.5-2.7,5.2-3.7c3.9-2.3,7.9-3.8,11.8-4.5c1.3-0.3,2.7-0.4,4-0.4c4.4,0,8.5,0.8,12.4,2.5
		c4.9,2,7.4,6.3,7.4,12.8v55.5c0,1-0.8,1.9-1.9,1.9h-4c-1,0-1.9-0.8-1.9-1.9v-55.1c0-4.2-1.4-6.9-4.2-8.2c-2.4-1.1-5-1.6-7.9-1.6
		c-2.5,0-5,0.5-7.5,1.5c-0.8,0.3-1.5,0.7-2.3,1.1c-1.3,0.7-1.2,2.6,0.1,3.3c0,0,0,0,0,0l2.4,1.3c0.1,0,0.1,0.1,0.2,0.1l2.6,1.8
		c0.3,0.3,0.8,0.6,1.5,1.1c0.2,0.2,0.3,0.4,0.5,0.5c-2.6,1.3-4.5,2.6-5.6,4c-1,1.2-1.5,3.2-1.5,6v7.9c0.4-0.2,0.9-0.3,1.5-0.3
		c1,0,2.3,0.3,4,0.9c3.1,1.2,4.7,4.2,4.7,9.2c0,2.4-0.9,4.4-2.8,6c-1.7,1.5-3.8,2.3-6.3,2.3c-2.6,0-4.7-0.9-6.4-2.6
		c-1.7-1.7-2.5-3.9-2.5-6.5v-18.2c0-0.9,0.1-1.8,0.3-2.6c0-0.1,0.1-0.2,0.1-0.3c0.6-1.7,1.4-3,2.6-4c0.5-0.3,1.1-0.8,1.9-1.5
		l-1.4-0.9c-0.1,0-0.1-0.1-0.2-0.1l-2.3-1.1c0,0-0.1,0-0.1-0.1l-2.8-1c-1.5-0.5-2.2-0.8-2.2-0.9V184z M367.5,344.1
		c0,1-0.8,1.9-1.9,1.9h-5.3c-0.8,0-1.5-0.5-1.8-1.2l-12.1-31.9c0-0.1-0.1-0.3-0.1-0.4l-0.3-2.5l-0.3,2.4c0,0.2-0.1,0.3-0.1,0.5
		L334,344.7c-0.3,0.7-1,1.2-1.8,1.2H327c-1,0-1.9-0.8-1.9-1.9v-32.5c-0.3,0.2-0.8,0.2-1.6,0.2c-2.2,0-4.1-0.6-5.7-1.9
		c-1.9-1.6-2.9-4.3-2.9-8.1c0-2.5,1.3-4.8,3.9-6.7c1.3-1,3.1-1.5,5.2-1.5c2.8,0,5.1,1,6.7,3c1.5,1.9,2.2,3.9,2.2,6.1V318
		c0,2.1,2.9,2.6,3.6,0.7l7.9-20.6c0.6-1.6,2.9-1.6,3.5,0l8.1,20.7c0.8,1.9,3.6,1.4,3.6-0.7v-41.4c0-1,0.8-1.9,1.9-1.9h4
		c1,0,1.9,0.8,1.9,1.9V344.1z"/>
</g>
<g>
	<path fill="#3867B1" d="M335.7,217.3c2.5,0,3.7-1.4,3.7-4.1c0-2.5-1.2-3.8-3.7-3.8c-2.6,0-3.9,1.3-3.9,3.8
		C331.8,215.9,333.1,217.3,335.7,217.3z"/>
	<path fill="#3867B1" d="M226.7,225.5c-3.5-9.6-17.2-9.6-20.7,0l-14,38.6c-2.6,7.2,2.7,14.7,10.3,14.7h28.1
		c7.6,0,12.9-7.6,10.3-14.7L226.7,225.5z"/>
	<path fill="#3867B1" d="M323.6,294.8c-2.5,0-3.7,1.4-3.7,4.1c0,3.2,1.9,4.4,5.8,3.5c0.7-0.1,1.4-0.9,1.5-1.6
		C327.9,296.9,326.7,294.8,323.6,294.8z"/>
	<path fill="#3867B1" d="M486,283.6v-55.2L434.2,210c-4.4-16.9-11.1-32.8-19.7-47.4l0.1-0.1l23.6-49.7l-39-39l-49.7,23.6l-0.1,0.1
		c-14.6-8.7-30.5-15.4-47.4-19.7L283.6,26h-55.2L210,77.8c-16.9,4.4-32.8,11.1-47.4,19.7l-0.1-0.1l-49.7-23.6l-39,39l23.6,49.7
		l0.1,0.1c-8.7,14.6-15.4,30.5-19.7,47.4L26,228.4v55.2L77.8,302c4.4,16.9,11.1,32.8,19.7,47.4l-0.1,0.1l-23.6,49.7l39,39l49.7-23.6
		l0.1-0.1c14.6,8.7,30.5,15.4,47.4,19.7l18.4,51.8h55.2l18.4-51.8c16.9-4.4,32.8-11.1,47.4-19.7l0.1,0.1l49.7,23.6l39-39l-23.6-49.7
		l-0.1-0.1c8.7-14.6,15.4-30.5,19.7-47.4L486,283.6z M277.4,343.4c-4.6,0-8.7-2.9-10.3-7.2l-11.4-31.3c-1.6-4.3-5.7-7.2-10.3-7.2
		h-57.8c-4.6,0-8.8,2.9-10.3,7.3l-11.2,31.2c-1.6,4.4-5.7,7.3-10.3,7.3h-0.1c-7.7,0-13-7.7-10.3-14.9l58.4-152.8
		c1.6-4.3,5.7-7.1,10.3-7.1h5c4.6,0,8.6,2.8,10.3,7.1l58.5,152.8C290.4,335.7,285.1,343.4,277.4,343.4z M322.1,180
		c0-0.6,0.2-1.1,0.7-1.5c1.8-1.5,3.5-2.7,5.2-3.7c3.9-2.3,7.9-3.8,11.8-4.5c1.3-0.3,2.7-0.4,4-0.4c4.4,0,8.5,0.8,12.4,2.5
		c4.9,2,7.4,6.3,7.4,12.8v55.5c0,1-0.8,1.9-1.9,1.9h-4c-1,0-1.9-0.8-1.9-1.9v-55.1c0-4.2-1.4-6.9-4.2-8.2c-2.4-1.1-5-1.6-7.9-1.6
		c-2.5,0-5,0.5-7.5,1.5c-0.8,0.3-1.5,0.7-2.3,1.1c-1.3,0.7-1.2,2.6,0.1,3.3c0,0,0,0,0,0l2.4,1.3c0.1,0,0.1,0.1,0.2,0.1l2.6,1.8
		c0.3,0.3,0.8,0.6,1.5,1.1c0.2,0.2,0.3,0.4,0.5,0.5c-2.6,1.3-4.5,2.6-5.6,4c-1,1.2-1.5,3.2-1.5,6v7.9c0.4-0.2,0.9-0.3,1.5-0.3
		c1,0,2.3,0.3,4,0.9c3.1,1.2,4.7,4.2,4.7,9.2c0,2.4-0.9,4.4-2.8,6c-1.7,1.5-3.8,2.3-6.3,2.3c-2.6,0-4.7-0.9-6.4-2.6
		c-1.7-1.7-2.5-3.9-2.5-6.5v-18.2c0-0.9,0.1-1.8,0.3-2.6c0-0.1,0.1-0.2,0.1-0.3c0.6-1.7,1.4-3,2.6-4c0.5-0.3,1.1-0.8,1.9-1.5
		l-1.4-0.9c-0.1,0-0.1-0.1-0.2-0.1l-2.3-1.1c0,0-0.1,0-0.1-0.1l-2.8-1c-1.5-0.5-2.2-0.8-2.2-0.9V180z M367.5,340.1
		c0,1-0.8,1.9-1.9,1.9h-5.3c-0.8,0-1.5-0.5-1.8-1.2l-12.1-31.9c0-0.1-0.1-0.3-0.1-0.4l-0.3-2.5l-0.3,2.4c0,0.2-0.1,0.3-0.1,0.5
		L334,340.7c-0.3,0.7-1,1.2-1.8,1.2H327c-1,0-1.9-0.8-1.9-1.9v-32.5c-0.3,0.2-0.8,0.2-1.6,0.2c-2.2,0-4.1-0.6-5.7-1.9
		c-1.9-1.6-2.9-4.3-2.9-8.1c0-2.5,1.3-4.8,3.9-6.7c1.3-1,3.1-1.5,5.2-1.5c2.8,0,5.1,1,6.7,3c1.5,1.9,2.2,3.9,2.2,6.1V314
		c0,2.1,2.9,2.6,3.6,0.7l7.9-20.6c0.6-1.6,2.9-1.6,3.5,0l8.1,20.7c0.8,1.9,3.6,1.4,3.6-0.7v-41.4c0-1,0.8-1.9,1.9-1.9h4
		c1,0,1.9,0.8,1.9,1.9V340.1z"/>
</g>
</svg>
