<?xml version="1.0" encoding="utf-8"?>
<!-- Generator: Adobe Illustrator 18.0.0, SVG Export Plug-In . SVG Version: 6.00 Build 0)  -->
<!DOCTYPE svg PUBLIC "-//W3C//DTD SVG 1.1//EN" "http://www.w3.org/Graphics/SVG/1.1/DTD/svg11.dtd">
<svg version="1.1" id="Layer_1" xmlns="http://www.w3.org/2000/svg" xmlns:xlink="http://www.w3.org/1999/xlink" x="0px" y="0px"
	 viewBox="0 0 512 512" style="enable-background:new 0 0 512 512;" xml:space="preserve">
<g>
	<linearGradient id="SVGID_1_" gradientUnits="userSpaceOnUse" x1="34.8989" y1="106.4315" x2="513.418" y2="430.1359">
		<stop  offset="0" style="stop-color:#121212"/>
		<stop  offset="1" style="stop-color:#000000"/>
	</linearGradient>
	<rect x="26" y="26" style="fill:url(#SVGID_1_);" width="460" height="460"/>
	<g>
		<rect x="26" y="26" style="fill:#1E1E1E;" width="460" height="98.207"/>
	</g>
	<g>
		<g>
			<g>
				<polygon style="fill:#FFFFFF;" points="171.115,121.836 123.502,121.836 168.291,74.626 215.905,74.626 				"/>
			</g>
			<g>
				<polygon points="218.733,121.836 171.119,121.836 215.909,74.626 263.522,74.626 				"/>
			</g>
			<g>
				<polygon style="fill:#FFFFFF;" points="266.345,121.836 218.731,121.836 263.52,74.626 311.134,74.626 				"/>
			</g>
			<g>
				<polygon points="313.961,121.836 266.347,121.836 311.137,74.626 358.75,74.626 				"/>
			</g>
			<g>
				<polygon style="fill:#FFFFFF;" points="361.573,121.836 313.959,121.836 358.748,74.626 406.362,74.626 				"/>
			</g>
			<g>
				<polygon points="409.182,121.836 361.568,121.836 406.357,74.626 453.971,74.626 				"/>
			</g>
			<g>
				<polygon style="fill:#FFFFFF;" points="486,74.626 454.007,74.626 409.218,121.836 456.832,121.836 486,91.091 				"/>
			</g>
		</g>
		<g>
			<g>
				<polygon style="fill:#FFFFFF;" points="171.115,26 123.502,26 168.291,73.21 215.905,73.21 				"/>
			</g>
			<g>
				<polygon points="218.733,26 171.119,26 215.909,73.21 263.522,73.21 				"/>
			</g>
			<g>
				<polygon style="fill:#FFFFFF;" points="266.345,26 218.731,26 263.52,73.21 311.134,73.21 				"/>
			</g>
			<g>
				<polygon points="313.961,26 266.347,26 311.137,73.21 358.75,73.21 				"/>
			</g>
			<g>
				<polygon style="fill:#FFFFFF;" points="361.573,26 313.959,26 358.748,73.21 406.362,73.21 				"/>
			</g>
			<g>
				<polygon points="409.182,26 361.568,26 406.357,73.21 453.971,73.21 				"/>
			</g>
			<g>
				<polygon style="fill:#FFFFFF;" points="486,73.21 486,56.745 456.832,26 409.218,26 454.007,73.21 				"/>
			</g>
		</g>
	</g>
	<g>
		<g>
			<polygon points="111.107,121.754 26,121.754 26,26 44.594,26 111.107,104.884 			"/>
		</g>
		<g>
			<circle style="fill:#636364;" cx="37.814" cy="35.507" r="5.827"/>
		</g>
		<g>
			<circle style="fill:#636364;" cx="38.167" cy="110.707" r="5.827"/>
		</g>
		<g>
			<circle style="fill:#636364;" cx="91.58" cy="110.707" r="5.827"/>
		</g>
	</g>
	<g>
		<g>
			<g>
				<rect x="46.128" y="198.351" style="fill:#FFFFFF;" width="419.743" height="1"/>
			</g>
			<g>
				<rect x="46.128" y="323.635" style="fill:#FFFFFF;" width="419.743" height="1"/>
			</g>
			<g>
				<rect x="46.128" y="376.324" style="fill:#FFFFFF;" width="419.743" height="1"/>
			</g>
			<g>
				<rect x="46.128" y="428.324" style="fill:#FFFFFF;" width="419.743" height="1"/>
			</g>
		</g>
		<g>
			<g>
				<rect x="174.673" y="198.851" style="fill:#FFFFFF;" width="1" height="125.284"/>
			</g>
			<g>
				<rect x="336.328" y="198.851" style="fill:#FFFFFF;" width="1" height="125.284"/>
			</g>
		</g>
		<g>
			<path style="fill:#FFFFFF;" d="M51.847,159.895v9.892h11.436v-9.892h3.087v23.644h-3.087v-11.085H51.847v11.085h-3.052v-23.644
				H51.847z"/>
			<path style="fill:#FFFFFF;" d="M91.873,171.471c0,8.138-4.946,12.453-10.98,12.453c-6.244,0-10.629-4.841-10.629-11.998
				c0-7.507,4.666-12.418,10.98-12.418C87.699,159.509,91.873,164.455,91.873,171.471z M73.527,171.857
				c0,5.052,2.736,9.577,7.542,9.577c4.841,0,7.577-4.455,7.577-9.823c0-4.701-2.456-9.612-7.542-9.612
				C76.052,162,73.527,166.665,73.527,171.857z"/>
			<path style="fill:#FFFFFF;" d="M98.89,159.895v13.997c0,5.297,2.35,7.542,5.508,7.542c3.508,0,5.753-2.315,5.753-7.542v-13.997
				h3.087v13.786c0,7.261-3.824,10.243-8.945,10.243c-4.841,0-8.489-2.771-8.489-10.103v-13.927H98.89z"/>
			<path style="fill:#FFFFFF;" d="M118.535,160.211c1.544-0.316,3.754-0.491,5.858-0.491c3.262,0,5.367,0.596,6.841,1.929
				c1.193,1.052,1.859,2.666,1.859,4.49c0,3.122-1.965,5.192-4.455,6.034v0.105c1.824,0.632,2.912,2.315,3.473,4.771
				c0.772,3.297,1.333,5.578,1.824,6.49h-3.157c-0.386-0.667-0.912-2.701-1.579-5.648c-0.702-3.262-1.964-4.49-4.736-4.595h-2.876
				v10.243h-3.052V160.211z M121.587,170.98h3.122c3.262,0,5.332-1.789,5.332-4.49c0-3.052-2.21-4.385-5.438-4.42
				c-1.473,0-2.526,0.14-3.017,0.281V170.98z"/>
		</g>
		<g>
			<path style="fill:#FFFFFF;" d="M197.764,173.155c-0.176-3.297-0.386-7.261-0.351-10.208h-0.105
				c-0.807,2.771-1.789,5.718-2.982,8.98l-4.174,11.471h-2.315l-3.824-11.26c-1.123-3.333-2.07-6.385-2.736-9.191h-0.07
				c-0.07,2.947-0.246,6.911-0.456,10.454l-0.631,10.138h-2.912l1.649-23.644h3.894l4.034,11.436
				c0.982,2.912,1.789,5.508,2.385,7.963h0.105c0.596-2.385,1.438-4.981,2.491-7.963l4.21-11.436h3.894l1.473,23.644h-2.982
				L197.764,173.155z"/>
			<path style="fill:#FFFFFF;" d="M209.095,159.895v23.644h-3.052v-23.644H209.095z"/>
			<path style="fill:#FFFFFF;" d="M214.427,183.539v-23.644h3.333l7.577,11.962c1.754,2.771,3.122,5.262,4.245,7.683l0.07-0.035
				c-0.281-3.157-0.351-6.034-0.351-9.717v-9.892h2.876v23.644h-3.087l-7.507-11.997c-1.649-2.631-3.228-5.332-4.42-7.893
				l-0.105,0.035c0.175,2.982,0.246,5.823,0.246,9.752v10.103H214.427z"/>
			<path style="fill:#FFFFFF;" d="M240.562,159.895v13.997c0,5.297,2.35,7.542,5.508,7.542c3.508,0,5.753-2.315,5.753-7.542v-13.997
				h3.087v13.786c0,7.261-3.824,10.243-8.945,10.243c-4.841,0-8.489-2.771-8.489-10.103v-13.927H240.562z"/>
			<path style="fill:#FFFFFF;" d="M264.698,162.491h-7.191v-2.596h17.505v2.596h-7.227v21.048h-3.087V162.491z"/>
			<path style="fill:#FFFFFF;" d="M289.885,172.454h-9.191v8.524h10.243v2.561h-13.295v-23.644h12.77v2.561h-9.717v7.472h9.191
				V172.454z"/>
		</g>
		<g>
			<path style="fill:#FFFFFF;" d="M339.072,179.82c1.368,0.842,3.368,1.543,5.473,1.543c3.122,0,4.946-1.649,4.946-4.034
				c0-2.21-1.263-3.473-4.455-4.701c-3.859-1.368-6.244-3.368-6.244-6.7c0-3.683,3.052-6.42,7.647-6.42
				c2.42,0,4.174,0.561,5.227,1.158l-0.842,2.491c-0.771-0.421-2.351-1.123-4.49-1.123c-3.228,0-4.455,1.929-4.455,3.543
				c0,2.21,1.438,3.298,4.701,4.56c3.999,1.544,6.034,3.473,6.034,6.946c0,3.648-2.701,6.805-8.279,6.805
				c-2.28,0-4.771-0.667-6.034-1.509L339.072,179.82z"/>
			<path style="fill:#FFFFFF;" d="M369.031,172.454h-9.191v8.524h10.244v2.561h-13.295v-23.644h12.769v2.561h-9.717v7.472h9.191
				V172.454z"/>
			<path style="fill:#FFFFFF;" d="M390.57,182.767c-1.123,0.561-3.368,1.123-6.244,1.123c-6.665,0-11.682-4.21-11.682-11.962
				c0-7.402,5.017-12.418,12.348-12.418c2.947,0,4.806,0.631,5.613,1.052l-0.737,2.49c-1.158-0.561-2.806-0.982-4.771-0.982
				c-5.542,0-9.226,3.543-9.226,9.752c0,5.788,3.332,9.507,9.085,9.507c1.859,0,3.753-0.386,4.981-0.982L390.57,182.767z"/>
			<path style="fill:#FFFFFF;" d="M413.864,171.471c0,8.138-4.946,12.453-10.98,12.453c-6.244,0-10.629-4.841-10.629-11.998
				c0-7.507,4.665-12.418,10.979-12.418C409.689,159.509,413.864,164.455,413.864,171.471z M395.517,171.857
				c0,5.052,2.736,9.577,7.542,9.577c4.841,0,7.578-4.455,7.578-9.823c0-4.701-2.456-9.612-7.542-9.612
				C398.043,162,395.517,166.665,395.517,171.857z"/>
			<path style="fill:#FFFFFF;" d="M417.828,183.539v-23.644h3.333l7.577,11.962c1.754,2.771,3.122,5.262,4.244,7.683l0.07-0.035
				c-0.28-3.157-0.351-6.034-0.351-9.717v-9.892h2.876v23.644h-3.087l-7.507-11.997c-1.648-2.631-3.228-5.332-4.42-7.893
				l-0.105,0.035c0.176,2.982,0.246,5.823,0.246,9.752v10.103H417.828z"/>
			<path style="fill:#FFFFFF;" d="M440.911,160.211c1.859-0.281,4.069-0.491,6.49-0.491c4.385,0,7.507,1.017,9.577,2.947
				c2.105,1.929,3.333,4.666,3.333,8.489c0,3.859-1.193,7.016-3.403,9.191c-2.21,2.21-5.858,3.403-10.454,3.403
				c-2.175,0-4-0.105-5.543-0.281V160.211z M443.963,181.118c0.772,0.14,1.895,0.175,3.087,0.175
				c6.525,0,10.068-3.648,10.068-10.033c0.035-5.578-3.122-9.121-9.577-9.121c-1.578,0-2.771,0.14-3.578,0.316V181.118z"/>
		</g>
		<g>
			<path style="fill:#FFFFFF;" d="M47.194,332.934c0.743-0.112,1.626-0.196,2.593-0.196c1.752,0,2.999,0.406,3.826,1.177
				c0.841,0.771,1.332,1.864,1.332,3.392c0,1.542-0.477,2.803-1.36,3.672c-0.883,0.883-2.341,1.359-4.177,1.359
				c-0.869,0-1.598-0.042-2.214-0.112V332.934z M48.413,341.287c0.308,0.056,0.757,0.07,1.233,0.07c2.607,0,4.022-1.458,4.022-4.008
				c0.014-2.229-1.248-3.644-3.826-3.644c-0.631,0-1.107,0.056-1.43,0.126V341.287z"/>
			<path style="fill:#FFFFFF;" d="M57.75,332.808v9.446H56.53v-9.446H57.75z"/>
			<path style="fill:#FFFFFF;" d="M59.881,332.934c0.617-0.126,1.5-0.196,2.341-0.196c1.303,0,2.144,0.238,2.733,0.771
				c0.477,0.42,0.743,1.065,0.743,1.794c0,1.248-0.785,2.074-1.78,2.411v0.042c0.729,0.252,1.163,0.925,1.387,1.906
				c0.308,1.317,0.533,2.229,0.729,2.593h-1.261c-0.154-0.266-0.365-1.079-0.631-2.256c-0.28-1.304-0.785-1.794-1.892-1.836H61.1
				v4.092h-1.219V332.934z M61.1,337.236h1.247c1.303,0,2.13-0.715,2.13-1.794c0-1.219-0.883-1.752-2.172-1.766
				c-0.589,0-1.009,0.056-1.205,0.112V337.236z"/>
			<path style="fill:#FFFFFF;" d="M72.314,337.825h-3.672v3.406h4.093v1.023h-5.312v-9.446h5.102v1.023h-3.882v2.985h3.672V337.825z
				"/>
			<path style="fill:#FFFFFF;" d="M80.921,341.946c-0.448,0.224-1.345,0.448-2.495,0.448c-2.663,0-4.667-1.682-4.667-4.779
				c0-2.957,2.004-4.961,4.933-4.961c1.177,0,1.92,0.252,2.242,0.42l-0.294,0.995c-0.462-0.224-1.121-0.392-1.906-0.392
				c-2.214,0-3.686,1.416-3.686,3.896c0,2.312,1.332,3.798,3.63,3.798c0.743,0,1.5-0.154,1.99-0.393L80.921,341.946z"/>
			<path style="fill:#FFFFFF;" d="M84.637,333.845h-2.873v-1.037h6.993v1.037h-2.887v8.409h-1.233V333.845z"/>
			<path style="fill:#FFFFFF;" d="M97.505,337.433c0,3.251-1.976,4.976-4.387,4.976c-2.495,0-4.247-1.934-4.247-4.793
				c0-2.999,1.864-4.961,4.387-4.961C95.837,332.653,97.505,334.63,97.505,337.433z M90.175,337.587
				c0,2.018,1.093,3.826,3.013,3.826c1.934,0,3.027-1.78,3.027-3.924c0-1.878-0.981-3.84-3.013-3.84
				C91.184,333.648,90.175,335.513,90.175,337.587z"/>
			<path style="fill:#FFFFFF;" d="M99.091,332.934c0.617-0.126,1.5-0.196,2.341-0.196c1.303,0,2.144,0.238,2.733,0.771
				c0.477,0.42,0.743,1.065,0.743,1.794c0,1.248-0.785,2.074-1.78,2.411v0.042c0.729,0.252,1.163,0.925,1.387,1.906
				c0.308,1.317,0.533,2.229,0.729,2.593h-1.261c-0.154-0.266-0.365-1.079-0.631-2.256c-0.28-1.304-0.785-1.794-1.892-1.836h-1.149
				v4.092h-1.219V332.934z M100.311,337.236h1.247c1.303,0,2.13-0.715,2.13-1.794c0-1.219-0.883-1.752-2.172-1.766
				c-0.589,0-1.009,0.056-1.205,0.112V337.236z"/>
		</g>
		<g>
			<path style="fill:#FFFFFF;" d="M55.155,391.605c-0.07-1.317-0.154-2.901-0.14-4.079h-0.042c-0.322,1.107-0.715,2.285-1.191,3.588
				l-1.668,4.583h-0.925l-1.528-4.499c-0.448-1.331-0.827-2.55-1.093-3.672h-0.028c-0.028,1.177-0.098,2.761-0.182,4.177
				l-0.252,4.05h-1.163l0.659-9.446h1.556l1.612,4.569c0.393,1.164,0.715,2.201,0.953,3.182h0.042
				c0.238-0.953,0.575-1.99,0.995-3.182l1.682-4.569h1.556l0.589,9.446h-1.191L55.155,391.605z"/>
			<path style="fill:#FFFFFF;" d="M66.538,390.933c0,3.251-1.976,4.976-4.387,4.976c-2.495,0-4.247-1.934-4.247-4.793
				c0-2.999,1.864-4.961,4.387-4.961C64.87,386.153,66.538,388.13,66.538,390.933z M59.208,391.087c0,2.018,1.093,3.826,3.013,3.826
				c1.934,0,3.027-1.78,3.027-3.924c0-1.878-0.981-3.84-3.013-3.84C60.217,387.148,59.208,389.013,59.208,391.087z"/>
			<path style="fill:#FFFFFF;" d="M70.198,395.754l-3.083-9.446h1.317l1.471,4.653c0.406,1.275,0.757,2.424,1.009,3.532h0.028
				c0.266-1.093,0.659-2.285,1.079-3.518l1.598-4.667h1.303l-3.378,9.446H70.198z"/>
			<path style="fill:#FFFFFF;" d="M77.166,386.308v9.446h-1.219v-9.446H77.166z"/>
			<path style="fill:#FFFFFF;" d="M84.188,391.325h-3.672v3.406h4.093v1.023h-5.312v-9.446h5.102v1.023h-3.882v2.985h3.672V391.325z
				"/>
		</g>
		<g>
			<path style="fill:#FFFFFF;" d="M47.194,437.934c0.743-0.112,1.626-0.196,2.593-0.196c1.752,0,2.999,0.406,3.826,1.177
				c0.841,0.771,1.332,1.864,1.332,3.392c0,1.542-0.477,2.803-1.36,3.672c-0.883,0.883-2.341,1.359-4.177,1.359
				c-0.869,0-1.598-0.042-2.214-0.112V437.934z M48.413,446.287c0.308,0.056,0.757,0.07,1.233,0.07c2.607,0,4.022-1.458,4.022-4.008
				c0.014-2.229-1.248-3.644-3.826-3.644c-0.631,0-1.107,0.056-1.43,0.126V446.287z"/>
			<path style="fill:#FFFFFF;" d="M57.862,444.283l-0.981,2.971h-1.261l3.209-9.446h1.472l3.223,9.446H62.22l-1.009-2.971H57.862z
				 M60.959,443.33l-0.925-2.719c-0.21-0.617-0.35-1.177-0.49-1.724h-0.028c-0.14,0.561-0.294,1.135-0.477,1.71l-0.925,2.733H60.959
				z"/>
			<path style="fill:#FFFFFF;" d="M65.628,438.845h-2.873v-1.037h6.993v1.037h-2.887v8.409h-1.233V438.845z"/>
			<path style="fill:#FFFFFF;" d="M75.693,442.826h-3.672v3.406h4.093v1.023h-5.312v-9.446h5.102v1.023h-3.882v2.985h3.672V442.826z
				"/>
		</g>
		<g>
			<g>
				<path style="fill:#ED1C24;" d="M61.664,256.438l-3.52,3.52l-2.097-2.097v-22.02l5.617,5.617V256.438z M61.664,280.554
					l-5.617,5.618v-21.945l2.097-2.172l3.52,3.52V280.554z M86.38,234.868l-5.542,5.617h-18.2l-5.542-5.617H86.38z M86.38,287.22
					H57.095l5.542-5.617h18.2L86.38,287.22z M87.429,257.861l-2.049,2.097l-3.568-3.52v-14.979l5.617-5.617V257.861z
					 M87.429,286.172l-5.617-5.618v-14.979l3.568-3.52l2.049,2.172V286.172z"/>
			</g>
			<g>
				<path style="fill:#ED1C24;" d="M96.416,257.861v-22.02l5.617,5.617v14.979l-3.52,3.52L96.416,257.861z M126.749,234.868
					l-5.542,5.617h-18.2l-5.542-5.617H126.749z M126.749,287.22H97.464l5.542-5.617h18.2L126.749,287.22z M121.88,258.235
					l2.846,2.809l-2.846,2.809h-19.548l-2.771-2.809l2.771-2.809H121.88z M127.797,264.227v21.945l-5.617-5.618v-14.979l3.568-3.52
					L127.797,264.227z"/>
			</g>
			<g>
				<path style="fill:#ED1C24;" d="M136.784,287.22v-5.617h5.617v5.617H136.784z"/>
			</g>
		</g>
		<g>
			<g>
				<path style="fill:#ED1C24;" d="M231.88,234.868l-5.542,5.617h-18.2l-5.542-5.617H231.88z M231.88,287.22h-29.285l5.542-5.617
					h18.2L231.88,287.22z M227.012,258.235l2.846,2.809l-2.846,2.809h-19.548l-2.771-2.809l2.771-2.809H227.012z M227.311,256.438
					v-14.979l5.617-5.617v22.02l-2.049,2.097L227.311,256.438z M232.929,264.227v21.945l-5.617-5.618v-14.979l3.568-3.52
					L232.929,264.227z"/>
			</g>
			<g>
				<path style="fill:#ED1C24;" d="M241.916,257.861v-22.02l5.617,5.617v14.979l-3.52,3.52L241.916,257.861z M272.249,234.868
					l-5.542,5.617h-18.2l-5.542-5.617H272.249z M272.249,287.22h-29.285l5.542-5.617h18.2L272.249,287.22z M267.38,258.235
					l2.847,2.809l-2.847,2.809h-19.548l-2.771-2.809l2.771-2.809H267.38z M273.297,264.227v21.945l-5.617-5.618v-14.979l3.568-3.52
					L273.297,264.227z"/>
			</g>
			<g>
				<path style="fill:#ED1C24;" d="M282.284,287.22v-5.617h5.617v5.617H282.284z"/>
			</g>
		</g>
		<g>
			<g>
				<path style="fill:#ED1C24;" d="M371.679,256.438l-3.52,3.52l-2.097-2.097v-22.02l5.617,5.617V256.438z M371.679,280.554
					l-5.617,5.618v-21.945l2.097-2.172l3.52,3.52V280.554z M396.395,234.868l-5.542,5.617h-18.2l-5.542-5.617H396.395z
					 M396.395,287.22H367.11l5.542-5.617h18.2L396.395,287.22z M397.444,257.861l-2.049,2.097l-3.568-3.52v-14.979l5.618-5.617
					V257.861z M397.444,286.172l-5.618-5.618v-14.979l3.568-3.52l2.049,2.172V286.172z"/>
			</g>
			<g>
				<path style="fill:#ED1C24;" d="M412.048,265.575v14.979l-5.617,5.618v-21.945l2.097-2.172L412.048,265.575z M436.764,234.868
					l-5.542,5.617h-18.2l-5.542-5.617H436.764z M436.764,287.22h-29.285l5.542-5.617h18.2L436.764,287.22z M431.895,258.235
					l2.846,2.809l-2.846,2.809h-19.548l-2.771-2.809l2.771-2.809H431.895z M432.195,256.438v-14.979l5.617-5.617v22.02l-2.049,2.097
					L432.195,256.438z"/>
			</g>
			<g>
				<path style="fill:#ED1C24;" d="M450.244,256.436v-14.991l5.617-5.622v22.037l-2.097,2.098L450.244,256.436z M455.861,264.228
					v21.962l-5.617-5.622v-14.991l3.52-3.522L455.861,264.228z"/>
			</g>
		</g>
	</g>
</g>
</svg>
