<?xml version="1.0" encoding="utf-8"?>
<!-- Generator: Adobe Illustrator 18.0.0, SVG Export Plug-In . SVG Version: 6.00 Build 0)  -->
<!DOCTYPE svg PUBLIC "-//W3C//DTD SVG 1.1//EN" "http://www.w3.org/Graphics/SVG/1.1/DTD/svg11.dtd">
<svg version="1.1" id="Layer_1" xmlns="http://www.w3.org/2000/svg" xmlns:xlink="http://www.w3.org/1999/xlink" x="0px" y="0px"
	 viewBox="0 0 512 512" style="enable-background:new 0 0 512 512;" xml:space="preserve">
<path style="opacity:0.4;" d="M486,259c0-22.169-40.947-41.276-103.973-52.239c7.361-10.466,13.962-20.654,19.678-30.426
	c9.577-16.373,22.547-41.958,23.078-61.167c4.589-3.453,7.571-8.928,7.571-15.113c0-10.45-8.472-18.922-18.922-18.922
	c-6.881,0-12.886,3.685-16.198,9.178c-21.1,1.686-52.908,17.359-88.982,42.74C297.292,69.98,278.178,29,256,29
	s-41.292,40.98-52.253,104.05c-8.209-5.776-16.202-11.06-23.893-15.779c0.772-2.063,1.214-4.288,1.214-6.621
	c0-10.45-8.472-18.922-18.922-18.922c-6.334,0-11.927,3.124-15.362,7.903c-13.992-6.147-26.135-9.474-35.687-9.474
	c-7.647,0-13.613,2.089-17.732,6.208c-15.67,15.67-0.243,58.112,36.545,110.406C66.92,217.736,26,236.839,26,259
	c0,22.169,40.947,41.276,103.973,52.239c-7.361,10.465-13.961,20.654-19.677,30.426c-13.356,22.832-33.317,63.583-16.93,79.968
	c4.12,4.12,10.086,6.209,17.732,6.209c20.981,0,54.42-15.995,92.65-42.893C214.708,448.02,233.822,489,256,489
	c15.492,0,29.488-20.006,40.257-53.56c1.139,0.214,2.309,0.338,3.51,0.338c10.45,0,18.922-8.472,18.922-18.922
	c0-8.403-5.482-15.516-13.06-17.985c0.92-4.509,1.796-9.15,2.625-13.92c38.23,26.898,71.668,42.893,92.648,42.893
	c7.647,0,13.613-2.09,17.733-6.209c16.387-16.386-3.574-57.137-16.928-79.968c-5.716-9.772-12.317-19.961-19.678-30.426
	C445.053,300.276,486,281.168,486,259z M395.043,95.661c-0.336,1.412-0.533,2.878-0.533,4.393c0,10.45,8.472,18.922,18.922,18.922
	c2.16,0,4.227-0.38,6.16-1.046c-1.234,13.611-8.793,32.791-22.275,55.838c-6.006,10.267-13.023,21.011-20.863,32.051
	c-18.502-3.016-38.792-5.342-60.411-6.864c-1.523-21.641-3.852-41.949-6.873-60.466C343.805,113.82,374.362,98.264,395.043,95.661z
	 M310.073,203.723c0.376,0.025,0.756,0.047,1.132,0.072c0.079,1.181,0.152,2.368,0.226,3.556L310.073,203.723z M256.916,196.899
	c-0.306,0-0.61-0.003-0.916-0.003c-0.486,0-0.967,0.004-1.453,0.005l1.178-3.548L256.916,196.899z M180.06,261.422
	c-0.724-0.821-1.451-1.643-2.168-2.463c1.744-1.987,3.525-3.977,5.306-5.967L180.06,261.422z M222.72,292.735l30.138-90.746
	c1.047-0.004,2.092-0.01,3.142-0.01c0.877,0,1.75,0.006,2.625,0.009l30.471,90.748H222.72z M200.647,206.119
	c0.049-0.774,0.096-1.552,0.148-2.323c0.244-0.016,0.49-0.031,0.734-0.047L200.647,206.119z M194.657,222.211l-6.691,17.975
	c-4.589,4.97-9.07,9.942-13.433,14.906c-13.137-15.218-25.028-30.193-35.435-44.515c17.479-2.766,36.469-4.947,56.511-6.418
	C195.23,210.084,194.911,216.103,194.657,222.211z M178.026,266.886l-10.316,27.713c-8.688,0.223-15.903,6.292-17.877,14.426
	c-3.686-0.515-7.305-1.058-10.869-1.623c10.518-14.475,22.465-29.429,35.523-44.51C175.657,264.221,176.837,265.552,178.026,266.886
	z M256.096,337.046c-0.032,0.028-0.064,0.057-0.096,0.085c-0.032-0.028-0.064-0.057-0.096-0.085H256.096z M328.307,252.435
	c1.964,2.189,3.92,4.379,5.838,6.565c-0.782,0.891-1.59,1.784-2.379,2.676L328.307,252.435z M333.78,267.056
	c1.243-1.395,2.494-2.789,3.719-4.183c13.064,15.087,25.016,30.047,35.538,44.527c-7.394,1.172-15.059,2.238-22.961,3.19
	L333.78,267.056z M323.505,239.605l-6.115-16.337c-0.262-6.472-0.597-12.841-0.997-19.109c20.093,1.475,39.128,3.663,56.644,6.44
	c-10.521,14.481-22.474,29.441-35.538,44.528C332.956,249.958,328.291,244.78,323.505,239.605z M310.841,198.607
	c-0.915-0.058-1.828-0.118-2.748-0.174l-17.32-46.272c4.597-3.551,9.139-6.957,13.624-10.224
	C307.176,159.461,309.365,178.505,310.841,198.607z M256,34.083c19.551,0,37.179,41.219,47.497,102.36
	c-4.791,3.448-9.645,7.051-14.559,10.819l-7.866-21.013h-50.694l-7.711,20.714c-4.78-3.659-9.503-7.164-14.166-10.52
	C218.821,75.301,236.449,34.083,256,34.083z M207.603,141.938c4.359,3.176,8.774,6.486,13.239,9.93l-17.343,46.589
	c-0.784,0.048-1.56,0.101-2.34,0.15C202.635,178.505,204.824,159.461,207.603,141.938z M96.959,99.959
	c3.132-3.131,7.888-4.719,14.138-4.719c8.929,0,20.267,3.075,33.351,8.765c-0.778,2.07-1.224,4.304-1.224,6.646
	c0,10.45,8.472,18.922,18.922,18.922c6.345,0,11.947-3.134,15.38-7.927c8.116,4.999,16.579,10.631,25.302,16.845
	c-3.021,18.517-5.35,38.825-6.873,60.466c-21.573,1.518-41.822,3.837-60.292,6.844C99.788,155.327,83.146,113.772,96.959,99.959z
	 M31.083,259c0-19.535,41.151-37.15,102.209-47.472c10.94,15.195,23.627,31.164,37.818,47.501
	c-13.959,16.093-26.649,32.047-37.738,47.456C72.27,296.166,31.083,278.543,31.083,259z M111.097,422.76
	c-6.25,0-11.006-1.588-14.138-4.72c-10.206-10.205-3.746-37.108,17.723-73.809c6.006-10.267,13.023-21.011,20.863-32.051
	c4.487,0.731,9.082,1.421,13.772,2.07c0.207,5.237,2.534,9.917,6.157,13.219l-23.93,64.284h53.271
	C154.399,411.4,128.297,422.76,111.097,422.76z M191.092,387.62l8.985-26.954c0.841,6.463,1.758,12.752,2.752,18.844
	C198.859,382.338,194.947,385.036,191.092,387.62z M203.938,349.081l4.012-12.035h40.318c1.295,1.151,2.589,2.295,3.882,3.43
	c-15.218,13.179-30.199,25.134-44.548,35.586C206.233,367.42,205.006,358.409,203.938,349.081z M300.457,397.969
	c-0.231-0.008-0.458-0.035-0.691-0.035c-10.45,0-18.922,8.472-18.922,18.922c0,7.444,4.309,13.865,10.56,16.955
	c-9.805,31.193-22.163,50.107-35.403,50.107c-19.551,0-37.179-41.219-47.497-102.36c15.291-11.004,31.277-23.682,47.497-37.73
	c16.221,14.048,32.207,26.726,47.497,37.73C302.545,387.203,301.53,392.68,300.457,397.969z M304.397,376.062
	c-14.348-10.453-29.329-22.407-44.547-35.587c1.293-1.135,2.587-2.278,3.883-3.43h40.135l4.159,12.353
	C306.966,358.614,305.752,367.518,304.397,376.062z M309.171,379.51c0.982-6.022,1.89-12.238,2.723-18.623l8.996,26.72
	C317.041,385.028,313.135,382.334,309.171,379.51z M397.318,344.231c21.468,36.701,27.929,63.604,17.723,73.809
	c-3.132,3.132-7.888,4.72-14.139,4.72c-17.2,0-43.301-11.36-73.717-31.008h53.272l-28.49-76.112c8.461-1.023,16.636-2.18,24.49-3.46
	C384.295,323.22,391.312,333.964,397.318,344.231z M378.628,306.485c-11.096-15.419-23.794-31.383-37.763-47.485
	c13.969-16.102,26.667-32.067,37.763-47.485c61.102,10.32,102.289,27.942,102.289,47.485
	C480.917,278.543,439.73,296.166,378.628,306.485z"/>
<g>
	<g>
		<path style="fill:#393C3D;" d="M333.78,264.056l-2.014-5.381l-3.459-9.24c-3.395-3.784-6.857-7.57-10.381-11.354
			c0.117,5.907,0.177,11.882,0.177,17.919c0,6.037-0.06,12.012-0.177,17.919c-0.051,2.558-0.116,5.098-0.189,7.63
			c-0.286,9.987-0.737,19.762-1.345,29.292c11.612-0.853,22.866-1.945,33.683-3.249L333.78,264.056z"/>
		<path style="fill:#393C3D;" d="M281.539,194.262c1.858,1.751,3.716,3.51,5.572,5.292c4.275,4.102,8.546,8.276,12.803,12.532
			c4.254,4.254,8.419,8.53,12.532,12.812c-0.256-6.945-0.595-13.8-1.015-20.547l-1.358-3.628l-1.98-5.289l-17.32-46.272
			c-10.11,7.811-20.462,16.302-30.923,25.363C267.057,180.849,274.299,187.439,281.539,194.262z"/>
		<path style="fill:#393C3D;" d="M288.939,144.261l-7.866-21.013h-50.694l-7.711,20.714c10.895,8.34,22.057,17.446,33.332,27.211
			C267.139,161.526,278.168,152.519,288.939,144.261z"/>
		<path style="fill:#393C3D;" d="M323.505,236.605l-6.115-16.337c0.136,3.367,0.25,6.765,0.348,10.183
			C319.672,232.502,321.606,234.553,323.505,236.605z"/>
		<path style="fill:#393C3D;" d="M351.966,312.64c-11.474,1.388-23.478,2.528-35.922,3.404c-1.027,14.603-2.423,28.597-4.15,41.844
			l8.996,26.72c2.117,1.419,4.216,2.802,6.294,4.145h53.272L351.966,312.64z"/>
		<path style="fill:#393C3D;" d="M199.554,224.899c4.113-4.282,8.278-8.558,12.533-12.812c4.256-4.257,8.527-8.43,12.803-12.532
			c1.857-1.782,3.714-3.541,5.572-5.292c7.24-6.823,14.482-13.414,21.689-19.737c-10.595-9.176-21.076-17.763-31.308-25.657
			l-17.343,46.589l-1.97,5.291l-0.882,2.37l-5.991,16.093l-6.691,17.975c2.074-2.246,4.18-4.491,6.297-6.734
			C196.011,228.599,197.777,226.749,199.554,224.899z"/>
		<path style="fill:#393C3D;" d="M312.694,279.499c0.215-7.739,0.327-15.578,0.327-23.499c0-7.921-0.113-15.76-0.327-23.498
			c-5.332-5.625-10.79-11.239-16.373-16.822c-5.598-5.598-11.218-11.049-16.838-16.374c-1.856-1.759-3.712-3.505-5.567-5.232
			c-5.986-5.572-11.966-10.983-17.916-16.204c-5.95,5.22-11.929,10.632-17.916,16.204c-1.856,1.727-3.711,3.473-5.567,5.232
			c-5.62,5.325-11.239,10.776-16.837,16.374c-5.583,5.583-11.041,11.198-16.374,16.823c-1.762,1.859-3.5,3.719-5.232,5.579
			c-3.696,3.97-7.321,7.941-10.876,11.911l-3.138,8.429l-2.034,5.463l-10.316,27.713c0.165-0.004,0.325-0.025,0.491-0.025
			c10.339,0,18.728,8.296,18.906,18.592c2.813,0.238,5.644,0.465,8.501,0.675c1.722,0.126,3.451,0.248,5.188,0.364
			c7.886,0.526,15.929,0.94,24.093,1.241c2.532,0.093,5.073,0.178,7.628,0.248c7.734,0.214,15.568,0.327,23.484,0.327
			c7.916,0,15.75-0.112,23.484-0.327c2.555-0.071,5.097-0.155,7.628-0.248c8.164-0.301,16.207-0.714,24.092-1.241
			c0.527-7.889,0.94-15.935,1.241-24.103C312.539,284.579,312.623,282.045,312.694,279.499z M222.72,289.735l30.138-90.746
			l1.69-5.088l1.178-3.548l1.191,3.546l1.709,5.088l30.471,90.748H222.72z"/>
		<path style="fill:#393C3D;" d="M273.917,317.926c-5.906,0.117-11.881,0.177-17.917,0.177c-6.036,0-12.01-0.06-17.916-0.177
			c-2.556-0.051-5.094-0.116-7.623-0.189c-9.99-0.285-19.769-0.738-29.302-1.345c-1.743-0.111-3.477-0.227-5.203-0.348
			c-3.187-0.224-6.35-0.463-9.477-0.722c-2.137,8.108-9.498,14.096-18.277,14.096c-4.908,0-9.365-1.884-12.727-4.949l-23.93,64.284
			h53.271c2.072-1.339,4.166-2.718,6.277-4.133l8.985-26.954l3.861-11.584l4.012-12.035h40.318h7.636h0.191h7.637h40.135
			l4.159,12.353c1.114-9.684,2.059-19.705,2.815-30.006c-9.532,0.608-19.311,1.06-29.301,1.345
			C279.011,317.81,276.472,317.875,273.917,317.926z"/>
	</g>
	<g>
		<path style="fill:#FFFFFF;" d="M258.625,198.988l-1.709-5.088c-0.306,0-0.61-0.003-0.916-0.003c-0.486,0-0.967,0.004-1.453,0.005
			l-1.69,5.088c1.047-0.004,2.092-0.01,3.142-0.01C256.877,198.979,257.75,198.985,258.625,198.988z"/>
		<path style="fill:#FFFFFF;" d="M486,256c0-22.169-40.947-41.276-103.973-52.239c7.361-10.466,13.962-20.654,19.678-30.426
			c9.577-16.373,22.547-41.958,23.078-61.167c4.589-3.453,7.571-8.928,7.571-15.113c0-10.45-8.472-18.922-18.922-18.922
			c-6.881,0-12.886,3.685-16.198,9.178c-21.1,1.686-52.908,17.359-88.982,42.74C297.292,66.98,278.178,26,256,26
			s-41.292,40.98-52.253,104.05c-8.209-5.776-16.202-11.06-23.893-15.779c0.772-2.063,1.214-4.288,1.214-6.621
			c0-10.45-8.472-18.922-18.922-18.922c-6.334,0-11.927,3.124-15.362,7.903c-13.992-6.147-26.135-9.474-35.687-9.474
			c-7.647,0-13.613,2.089-17.732,6.208c-15.67,15.67-0.243,58.112,36.545,110.406C66.92,214.736,26,233.839,26,256
			c0,22.169,40.947,41.276,103.973,52.239c-7.361,10.465-13.961,20.654-19.677,30.426c-13.356,22.832-33.317,63.583-16.93,79.968
			c4.12,4.12,10.086,6.209,17.732,6.209c20.981,0,54.42-15.995,92.65-42.893C214.708,445.02,233.822,486,256,486
			c15.492,0,29.488-20.006,40.257-53.56c1.139,0.214,2.309,0.338,3.51,0.338c10.45,0,18.922-8.472,18.922-18.922
			c0-8.403-5.482-15.516-13.06-17.985c0.92-4.509,1.796-9.15,2.625-13.92c38.23,26.898,71.668,42.893,92.649,42.893
			c7.647,0,13.613-2.09,17.733-6.209c16.387-16.386-3.574-57.137-16.928-79.968c-5.716-9.772-12.317-19.961-19.678-30.426
			C445.053,297.276,486,278.168,486,256z M395.043,92.661c-0.336,1.412-0.533,2.878-0.533,4.393c0,10.45,8.472,18.922,18.922,18.922
			c2.16,0,4.227-0.379,6.16-1.046c-1.234,13.611-8.793,32.791-22.275,55.838c-6.006,10.267-13.023,21.011-20.863,32.051
			c-18.502-3.016-38.792-5.342-60.411-6.864c-1.523-21.641-3.852-41.949-6.873-60.466C343.805,110.82,374.362,95.264,395.043,92.661
			z M187.107,310.166c-0.178-10.297-8.566-18.592-18.906-18.592c-0.166,0-0.326,0.021-0.491,0.025
			c-8.688,0.223-15.903,6.292-17.877,14.426c-3.686-0.515-7.305-1.058-10.869-1.623c10.518-14.475,22.465-29.429,35.523-44.51
			c1.17,1.329,2.35,2.661,3.539,3.994l2.034-5.463c-0.724-0.821-1.451-1.643-2.168-2.463c1.744-1.987,3.525-3.977,5.306-5.967
			c3.554-3.97,7.18-7.941,10.876-11.911c1.732-1.861,3.471-3.721,5.232-5.579c5.333-5.625,10.79-11.24,16.374-16.823
			c5.598-5.598,11.217-11.049,16.837-16.374c1.856-1.759,3.712-3.505,5.567-5.232c5.986-5.572,11.966-10.983,17.916-16.204
			c5.95,5.22,11.929,10.632,17.916,16.204c1.856,1.727,3.711,3.473,5.567,5.232c5.62,5.325,11.239,10.776,16.838,16.374
			c5.583,5.583,11.041,11.197,16.373,16.822c0.215,7.738,0.327,15.577,0.327,23.498c0,7.921-0.113,15.76-0.327,23.499
			c-0.071,2.547-0.155,5.08-0.248,7.603c-0.301,8.168-0.715,16.214-1.241,24.103c-7.886,0.526-15.928,0.94-24.092,1.241
			c-2.532,0.093-5.073,0.178-7.628,0.248c-7.734,0.214-15.568,0.327-23.484,0.327c-7.916,0-15.75-0.112-23.484-0.327
			c-2.555-0.071-5.096-0.155-7.628-0.248c-8.164-0.301-16.207-0.715-24.093-1.241c-1.737-0.116-3.466-0.237-5.188-0.364
			C192.751,310.631,189.92,310.404,187.107,310.166z M200.647,203.119c0.049-0.774,0.096-1.552,0.148-2.323
			c0.244-0.016,0.49-0.031,0.734-0.047l1.97-5.291c-0.784,0.048-1.56,0.101-2.34,0.15c1.476-20.103,3.665-39.146,6.444-56.669
			c4.359,3.176,8.774,6.486,13.239,9.93c10.233,7.894,20.714,16.481,31.308,25.657c-7.207,6.324-14.449,12.914-21.689,19.737
			c-1.858,1.751-3.715,3.51-5.572,5.292c-4.275,4.102-8.546,8.276-12.803,12.532c-4.255,4.255-8.42,8.53-12.533,12.812
			c-1.777,1.85-3.543,3.7-5.291,5.553c-2.117,2.244-4.223,4.488-6.297,6.734c-4.589,4.97-9.07,9.942-13.433,14.906
			c-13.137-15.218-25.028-30.193-35.435-44.515c17.479-2.766,36.469-4.947,56.511-6.418c-0.378,5.925-0.696,11.945-0.951,18.052
			L200.647,203.119z M310.073,200.723c0.376,0.025,0.756,0.047,1.132,0.072c0.079,1.181,0.152,2.368,0.226,3.556
			c0.42,6.747,0.759,13.602,1.015,20.547c-4.112-4.282-8.277-8.557-12.532-12.812c-4.256-4.257-8.527-8.43-12.803-12.532
			c-1.857-1.782-3.714-3.541-5.572-5.292c-7.24-6.823-14.483-13.414-21.69-19.738c10.461-9.06,20.813-17.551,30.923-25.363
			c4.597-3.551,9.139-6.957,13.624-10.224c2.779,17.523,4.968,36.567,6.444,56.67c-0.915-0.058-1.828-0.118-2.748-0.174
			L310.073,200.723z M317.737,281.549c0.072-2.532,0.138-5.072,0.189-7.63c0.117-5.907,0.177-11.882,0.177-17.919
			c0-6.037-0.06-12.012-0.177-17.919c3.523,3.784,6.986,7.57,10.381,11.354c1.964,2.189,3.92,4.379,5.838,6.565
			c-0.782,0.891-1.59,1.784-2.379,2.676l2.014,5.381c1.243-1.395,2.494-2.789,3.719-4.183
			c13.064,15.087,25.017,30.047,35.538,44.527c-7.394,1.172-15.059,2.238-22.961,3.191c-10.818,1.304-22.072,2.397-33.683,3.249
			C317,301.311,317.452,291.536,317.737,281.549z M323.505,236.605c-1.899-2.053-3.832-4.103-5.767-6.154
			c-0.098-3.418-0.212-6.815-0.348-10.183c-0.262-6.472-0.597-12.841-0.997-19.109c20.093,1.475,39.128,3.663,56.644,6.44
			c-10.521,14.481-22.474,29.441-35.538,44.528C332.956,246.958,328.291,241.78,323.505,236.605z M256,31.083
			c19.551,0,37.179,41.219,47.497,102.36c-4.79,3.448-9.645,7.051-14.559,10.819c-10.77,8.258-21.799,17.265-32.938,26.912
			c-11.275-9.765-22.436-18.87-33.332-27.211c-4.78-3.659-9.503-7.164-14.166-10.52C218.821,72.301,236.449,31.083,256,31.083z
			 M96.959,96.959c3.132-3.131,7.888-4.719,14.138-4.719c8.929,0,20.267,3.075,33.351,8.765c-0.778,2.07-1.224,4.304-1.224,6.646
			c0,10.45,8.472,18.922,18.922,18.922c6.345,0,11.947-3.134,15.38-7.927c8.116,4.999,16.579,10.631,25.302,16.845
			c-3.021,18.517-5.35,38.825-6.873,60.466c-21.573,1.518-41.822,3.837-60.292,6.844C99.788,152.327,83.146,110.772,96.959,96.959z
			 M31.083,256c0-19.535,41.151-37.15,102.209-47.472c10.94,15.195,23.627,31.164,37.818,47.501
			c-13.959,16.093-26.649,32.047-37.738,47.456C72.27,293.166,31.083,275.543,31.083,256z M191.092,384.62
			c-2.111,1.415-4.204,2.794-6.277,4.133c-30.416,19.648-56.518,31.008-73.718,31.008c-6.25,0-11.006-1.588-14.138-4.72
			c-10.206-10.205-3.746-37.108,17.723-73.809c6.006-10.267,13.023-21.011,20.863-32.051c4.487,0.731,9.082,1.421,13.772,2.07
			c0.207,5.237,2.534,9.917,6.157,13.219c3.362,3.065,7.819,4.949,12.727,4.949c8.779,0,16.141-5.988,18.277-14.096
			c3.128,0.259,6.29,0.498,9.477,0.722c1.726,0.121,3.46,0.237,5.203,0.348c9.533,0.608,19.311,1.06,29.302,1.345
			c2.529,0.072,5.068,0.138,7.623,0.189c5.906,0.117,11.88,0.177,17.916,0.177c6.036,0,12.011-0.06,17.917-0.177
			c2.556-0.051,5.094-0.116,7.624-0.189c9.99-0.285,19.768-0.737,29.301-1.345c-0.756,10.301-1.701,20.322-2.815,30.006
			c-1.06,9.215-2.274,18.119-3.629,26.663c-14.348-10.453-29.329-22.407-44.547-35.587c1.293-1.135,2.587-2.278,3.883-3.43h-7.637
			c-0.032,0.028-0.064,0.057-0.096,0.085c-0.032-0.028-0.064-0.057-0.096-0.085h-7.636c1.295,1.151,2.589,2.295,3.882,3.43
			c-15.218,13.179-30.199,25.134-44.548,35.586c-1.37-8.642-2.596-17.653-3.665-26.981l-3.861,11.584
			c0.841,6.463,1.758,12.752,2.752,18.844C198.859,379.338,194.947,382.036,191.092,384.62z M300.457,394.969
			c-0.231-0.008-0.458-0.035-0.691-0.035c-10.45,0-18.922,8.472-18.922,18.922c0,7.444,4.309,13.865,10.559,16.955
			c-9.805,31.193-22.163,50.107-35.403,50.107c-19.551,0-37.179-41.219-47.497-102.36c15.291-11.004,31.277-23.682,47.498-37.73
			c16.221,14.048,32.207,26.726,47.497,37.73C302.545,384.203,301.53,389.68,300.457,394.969z M397.318,341.231
			c21.468,36.701,27.929,63.604,17.723,73.809c-3.132,3.132-7.888,4.72-14.139,4.72c-17.2,0-43.301-11.36-73.717-31.008
			c-2.078-1.342-4.177-2.726-6.294-4.145c-3.849-2.58-7.754-5.274-11.718-8.097c0.982-6.022,1.89-12.238,2.723-18.623
			c1.728-13.247,3.123-27.241,4.15-41.844c12.443-0.876,24.448-2.016,35.922-3.404c8.461-1.023,16.636-2.18,24.49-3.46
			C384.295,320.22,391.312,330.964,397.318,341.231z M378.628,303.485c-11.096-15.419-23.794-31.383-37.763-47.485
			c13.969-16.102,26.667-32.067,37.763-47.485c61.102,10.32,102.289,27.942,102.289,47.485
			C480.917,275.543,439.73,293.166,378.628,303.485z"/>
	</g>
</g>
</svg>
