<?xml version="1.0" encoding="utf-8"?>
<!-- Generator: Adobe Illustrator 18.0.0, SVG Export Plug-In . SVG Version: 6.00 Build 0)  -->
<!DOCTYPE svg PUBLIC "-//W3C//DTD SVG 1.1//EN" "http://www.w3.org/Graphics/SVG/1.1/DTD/svg11.dtd">
<svg version="1.1" id="Layer_3" xmlns="http://www.w3.org/2000/svg" xmlns:xlink="http://www.w3.org/1999/xlink" x="0px" y="0px"
	 viewBox="0 0 512 512" style="enable-background:new 0 0 512 512;" xml:space="preserve">
<g id="Layer_2">
	<g>
		<path style="fill:#FFFFFF;" d="M486,390.914c0,18.924-15.341,34.265-34.265,34.265H87.52c-18.924,0-34.265-15.341-34.265-34.265
			l0,0c0-18.924,15.341-34.265,34.265-34.265h364.212C470.659,356.649,486,371.99,486,390.914L486,390.914z"/>
		<path style="fill:#FFFFFF;" d="M352.424,296.062c0,10.802-8.756,19.558-19.558,19.558h-58.674
			c-10.802,0-19.558-8.756-19.558-19.558v-58.674c0-10.802,8.756-19.558,19.558-19.558h58.674c10.802,0,19.558,8.756,19.558,19.558
			V296.062z"/>
		<path style="fill:#FFFFFF;" d="M484.862,296.062c0,10.802-8.756,19.558-19.558,19.558H406.63
			c-10.802,0-19.558-8.756-19.558-19.558v-58.674c0-10.802,8.756-19.558,19.558-19.558h58.674c10.802,0,19.558,8.756,19.558,19.558
			V296.062z"/>
	</g>
	<polygon style="fill:#FFFFFF;" points="118.134,334.959 129.943,314.505 141.75,334.959 	"/>
	<g>
		<path style="fill:#FFFFFF;" d="M230.69,182.151h-19.98c-0.94-8.33-3.132-16.348-6.389-23.739l17.099-9.896
			c1.503-0.877,2.004-2.756,1.127-4.259l-5.888-10.209c-0.877-1.503-2.756-2.004-4.259-1.127l-17.162,9.896
			c-4.76-6.451-10.523-12.214-16.974-16.974l10.209-17.663c0.877-1.503,0.376-3.382-1.127-4.259l-10.209-5.888
			c-1.503-0.877-3.382-0.376-4.259,1.127l-10.147,17.6c-7.516-3.32-15.659-5.574-24.24-6.451V89.952
			c0-1.754-1.378-3.132-3.132-3.132h-11.838c-1.754,0-3.132,1.378-3.132,3.132v20.482c-8.33,0.94-16.285,3.194-23.676,6.514
			L86.442,99.222c-0.877-1.503-2.756-2.004-4.259-1.127l-10.209,5.888c-1.503,0.877-2.004,2.756-1.127,4.259l10.335,17.914
			c-6.389,4.76-12.026,10.523-16.786,16.911L46.92,132.982c-1.503-0.877-3.382-0.376-4.259,1.127l-5.888,10.209
			c-0.877,1.503-0.376,3.382,1.127,4.259l17.475,10.084c-3.194,7.328-5.387,15.22-6.263,23.488h-19.98
			c-1.754,0-3.132,1.378-3.132,3.132v11.838c0,1.754,1.378,3.132,3.132,3.132h19.98c0.94,8.268,3.069,16.097,6.263,23.425
			l-17.538,10.022c-1.503,0.877-2.004,2.756-1.127,4.259l5.888,10.209c0.877,1.503,2.756,2.004,4.259,1.127l17.412-10.084
			c4.886,6.702,10.836,12.59,17.538,17.538l-9.771,16.911c-0.877,1.503-0.376,3.382,1.127,4.259l10.209,5.888
			c1.503,0.877,3.382,0.376,4.259-1.127l9.771-16.974c7.14,3.132,14.844,5.199,22.924,6.138v19.542c0,1.754,1.378,3.132,3.132,3.132
			h11.838c1.754,0,3.132-1.378,3.132-3.132v-19.479c8.268-0.877,16.097-2.944,23.425-6.076l9.708,16.786
			c0.877,1.503,2.756,2.004,4.259,1.127l10.209-5.888c1.503-0.877,2.004-2.756,1.127-4.259l-9.646-16.723
			c6.765-4.886,12.715-10.836,17.726-17.538l17.099,9.896c1.503,0.877,3.382,0.376,4.259-1.127l5.888-10.209
			c0.877-1.503,0.376-3.382-1.127-4.259l-16.911-9.771c3.257-7.391,5.387-15.283,6.326-23.613h19.98
			c1.754,0,3.132-1.378,3.132-3.132v-11.838C233.822,183.529,232.444,182.151,230.69,182.151z M192.546,200.252
			c-0.689,5.011-2.004,9.896-3.883,14.531c-2.255,5.574-5.261,10.836-9.082,15.659c-1.503,1.942-3.194,3.758-4.948,5.574
			c-1.942,1.942-3.946,3.695-6.076,5.387c-4.823,3.758-10.147,6.702-15.721,8.894c-4.572,1.754-9.395,3.006-14.343,3.695
			c-2.819,0.376-5.7,0.564-8.581,0.564c-3.194,0-6.389-0.251-9.52-0.689c-4.76-0.689-9.395-1.942-13.78-3.695
			c-5.574-2.192-10.898-5.261-15.659-9.019c-2.004-1.566-3.946-3.257-5.762-5.136c-1.816-1.816-3.508-3.758-5.073-5.7
			c-3.758-4.823-6.827-10.084-9.019-15.659c-1.816-4.572-3.069-9.395-3.821-14.281c-0.438-2.944-0.626-6.013-0.626-9.019
			c0-3.069,0.188-6.076,0.626-9.019c0.689-4.948,2.004-9.771,3.821-14.406c2.255-5.574,5.261-10.836,9.019-15.659
			c1.566-1.942,3.194-3.821,5.011-5.637c1.629-1.629,3.32-3.132,5.136-4.572c4.76-3.821,9.959-6.952,15.533-9.207
			c4.635-1.942,9.52-3.257,14.594-4.009c3.132-0.438,6.263-0.689,9.52-0.689c2.881,0,5.762,0.188,8.581,0.564
			c5.199,0.689,10.272,2.067,15.095,4.009c5.574,2.255,10.836,5.324,15.596,9.145c1.879,1.503,3.695,3.132,5.449,4.823
			c1.754,1.754,3.382,3.57,4.885,5.449c3.821,4.76,6.827,10.022,9.082,15.596c1.879,4.698,3.194,9.583,3.946,14.594
			c0.438,2.944,0.626,6.013,0.626,9.019C193.172,194.239,192.984,197.246,192.546,200.252z"/>
		<path style="fill:#515151;" d="M129.911,146.01c24.929,0,45.222,20.294,45.222,45.222s-20.294,45.222-45.222,45.222
			s-45.222-20.294-45.222-45.222S104.982,146.01,129.911,146.01 M129.911,127.909c-34.95,0-63.261,28.311-63.261,63.261
			s28.311,63.261,63.261,63.261s63.261-28.311,63.261-63.261S164.861,127.909,129.911,127.909L129.911,127.909z"/>
	</g>
</g>
</svg>
