<?xml version="1.0" encoding="utf-8"?>
<!-- Generator: Adobe Illustrator 18.0.0, SVG Export Plug-In . SVG Version: 6.00 Build 0)  -->
<!DOCTYPE svg PUBLIC "-//W3C//DTD SVG 1.1//EN" "http://www.w3.org/Graphics/SVG/1.1/DTD/svg11.dtd">
<svg version="1.1" id="Layer_2" xmlns="http://www.w3.org/2000/svg" xmlns:xlink="http://www.w3.org/1999/xlink" x="0px" y="0px"
	 viewBox="0 0 512 512" enable-background="new 0 0 512 512" xml:space="preserve">
<g id="Layer_2_1_">
	<g>
		<g opacity="0.4">
			<g>
				<g>
					<path fill="#00BD9B" d="M259.416,267.448L150.441,93.05c33.42-20.886,69.568-31.246,108.975-31.246V267.448z"/>
				</g>
			</g>
			<g>
				<g>
					<path fill="#2D98E0" d="M259.416,267.448L54.27,281.792c-5.508-78.74,29.229-146.917,96.17-188.742L259.416,267.448z"/>
				</g>
			</g>
			<g>
				<g>
					<path fill="#9C56B8" d="M259.416,267.448l168.459,117.954c-65.143,93.037-193.376,115.647-286.413,50.5
						c-52.565-36.806-82.714-90.098-87.191-154.11L259.416,267.448z"/>
				</g>
			</g>
			<g>
				<g>
					<path fill="#F1C50E" d="M259.416,267.448l53.225-198.641c38.069,10.199,67.326,27.433,94.704,55.784L259.416,267.448z"/>
				</g>
			</g>
			<g>
				<g>
					<path fill="#51D88B" d="M259.416,267.448V61.804c19.647,0,34.247,1.923,53.225,7.008L259.416,267.448z"/>
				</g>
			</g>
		</g>
		<g>
			<g>
				<g>
					<path fill="#00BD9B" d="M256.118,260.852L147.143,86.454c33.42-20.886,69.568-31.246,108.975-31.246V260.852z"/>
				</g>
			</g>
			<g>
				<g>
					<path fill="#2D98E0" d="M256.118,260.852L50.971,275.196c-5.508-78.74,29.229-146.917,96.17-188.742L256.118,260.852z"/>
				</g>
			</g>
			<g>
				<g>
					<path fill="#9C56B8" d="M256.118,260.852l168.459,117.954c-65.143,93.037-193.376,115.647-286.413,50.5
						c-52.565-36.806-82.714-90.098-87.191-154.11L256.118,260.852z"/>
				</g>
			</g>
			<g>
				<g>
					<path fill="#F1C50E" d="M256.118,260.852l53.225-198.641c38.069,10.199,67.326,27.433,94.704,55.784L256.118,260.852z"/>
				</g>
			</g>
			<g>
				<g>
					<path fill="#51D88B" d="M256.118,260.852V55.208c19.647,0,34.247,1.923,53.225,7.008L256.118,260.852z"/>
				</g>
			</g>
		</g>
	</g>
	<path opacity="0.4" fill="#4C4C4C" enable-background="new    " d="M256.142,57.573c54.953,0,106.616,21.4,145.474,60.257
		s60.257,90.521,60.257,145.474s-21.4,106.616-60.257,145.474s-90.521,60.259-145.474,60.259s-106.616-21.4-145.474-60.257
		s-60.257-90.521-60.257-145.474s21.4-106.616,60.257-145.473S201.189,57.573,256.142,57.573 M256.142,40.608
		c-122.991,0-222.695,99.704-222.695,222.695S133.151,486,256.142,486s222.695-99.704,222.695-222.695
		S379.133,40.608,256.142,40.608L256.142,40.608z"/>
	<path fill="#D1D1D1" d="M256.142,42.965c54.953,0,106.616,21.4,145.474,60.257s60.257,90.521,60.257,145.473
		s-21.4,106.616-60.257,145.473s-90.521,60.257-145.474,60.257s-106.616-21.4-145.474-60.257s-60.257-90.521-60.257-145.473
		s21.4-106.616,60.257-145.473S201.189,42.965,256.142,42.965 M256.142,26C133.151,26,33.447,125.704,33.447,248.695
		s99.704,222.695,222.695,222.695s222.695-99.704,222.695-222.695S379.133,26,256.142,26L256.142,26z"/>
	<g>
		<g>
			<path fill="#AF130B" d="M272.776,267.741l147.928-142.852c68.561,70.997,77.136,179.963,20.526,260.806L272.776,267.741z"/>
		</g>
	</g>
	<g>
		<g>
			<path fill="#E84C3D" d="M273.074,261.145l147.928-142.852c68.561,70.997,77.136,179.963,20.526,260.806L273.074,261.145z"/>
		</g>
	</g>
	<polygon opacity="0.4" fill="#4C4C4C" enable-background="new    " points="107.746,58.64 182.144,188.793 40.412,129.649 	"/>
	<polygon fill="#EAEAEA" points="104.445,31.878 188.355,186.725 33.163,95.732 	"/>
</g>
</svg>
