<?xml version="1.0" encoding="utf-8"?>
<!-- Generator: Adobe Illustrator 18.0.0, SVG Export Plug-In . SVG Version: 6.00 Build 0)  -->
<!DOCTYPE svg PUBLIC "-//W3C//DTD SVG 1.1//EN" "http://www.w3.org/Graphics/SVG/1.1/DTD/svg11.dtd">
<svg version="1.1" id="Layer_1" xmlns="http://www.w3.org/2000/svg" xmlns:xlink="http://www.w3.org/1999/xlink" x="0px" y="0px"
	 viewBox="0 0 512 512" style="enable-background:new 0 0 512 512;" xml:space="preserve">
<path style="opacity:0.4;" d="M428.005,237.547c-6.392-2.719-12.999-4.676-19.764-5.857
	c-3.029-67.31-58.737-121.131-126.781-121.131c-47.124,0-89.197,25.527-111.158,65.535c-10.097-6.398-21.927-9.922-34.291-9.922
	c-35.382,0-64.168,28.787-64.168,64.169c0,0.361,0.003,0.723,0.009,1.085c-14.584,5.902-27.618,15.474-37.627,27.802
	c-1.998,2.461-3.861,5.018-5.586,7.658c-7.087,10.848,0.959,25.239,13.916,25.239h0c5.551,0,10.693-2.823,13.76-7.45
	c8.365-12.617,21.33-22.089,36.706-25.658c2.447-0.568,4.826-1.49,6.821-3.016c5.523-4.226,7.656-11.131,5.944-17.415
	c-0.762-2.794-1.148-5.568-1.148-8.247c0-17.3,14.074-31.374,31.372-31.374c10.592,0,20.39,5.31,26.232,14.208
	c2.93,4.463,7.909,7.349,13.245,7.507c7.486,0.221,14.004-4.555,16.18-11.476c12.382-39.388,48.466-65.851,89.792-65.851
	c51.896,0,94.115,42.22,94.115,94.115c0,2.185-0.113,4.57-0.355,7.479c-0.255,3.056,0.175,6.183,1.519,8.938
	c2.839,5.817,8.626,9.28,14.784,9.28c0.078,0,0.155-0.002,0.234-0.003c0.273-0.003,0.543-0.012,0.814-0.022l0.03-0.003
	c7.992,0,15.743,1.611,23.041,4.792c0.496,0.216,1.006,0.408,1.521,0.575c21.558,6.962,36.043,26.867,36.043,49.532
	c0,10.781-3.28,21.133-9.485,29.934c-0.31,0.439-0.599,0.895-0.864,1.362c-8.962,15.793-25.018,26.57-42.949,28.83
	c-0.817,0.103-1.614,0.264-2.387,0.482H148.375c-9.057,0-16.399,7.342-16.399,16.399v0c0,9.057,7.342,16.399,16.399,16.399h253.58
	c2.421,0,4.718-0.525,6.787-1.467c25.955-4.703,48.924-20.781,62.237-43.76c9.83-14.218,15.02-30.859,15.02-48.177
	C486,281.361,462.73,249.118,428.005,237.547z"/>
<linearGradient id="SVGID_1_" gradientUnits="userSpaceOnUse" x1="26" y1="256" x2="486" y2="256">
	<stop  offset="0" style="stop-color:#95D7E8"/>
	<stop  offset="1" style="stop-color:#4BB75D"/>
</linearGradient>
<path style="fill:url(#SVGID_1_);" d="M428.005,232.547c-6.392-2.719-12.999-4.676-19.764-5.857
	c-3.029-67.31-58.737-121.131-126.781-121.131c-47.124,0-89.197,25.527-111.158,65.535c-10.097-6.398-21.927-9.922-34.291-9.922
	c-35.382,0-64.168,28.787-64.168,64.169c0,0.361,0.003,0.723,0.009,1.085c-14.584,5.902-27.618,15.474-37.627,27.802
	c-1.998,2.461-3.861,5.018-5.586,7.658c-7.087,10.848,0.959,25.239,13.916,25.239h0c5.551,0,10.693-2.823,13.76-7.45
	c8.365-12.617,21.33-22.089,36.706-25.658c2.447-0.568,4.826-1.49,6.821-3.016c5.523-4.226,7.656-11.131,5.944-17.415
	c-0.762-2.794-1.148-5.568-1.148-8.247c0-17.3,14.074-31.374,31.372-31.374c10.592,0,20.39,5.31,26.232,14.208
	c2.93,4.463,7.909,7.349,13.245,7.507c7.486,0.221,14.004-4.555,16.18-11.476c12.382-39.388,48.466-65.851,89.792-65.851
	c51.896,0,94.115,42.22,94.115,94.115c0,2.185-0.113,4.57-0.355,7.479c-0.255,3.056,0.175,6.183,1.519,8.938
	c2.839,5.817,8.626,9.28,14.784,9.28c0.078,0,0.155-0.002,0.234-0.003c0.273-0.003,0.543-0.012,0.814-0.022l0.03-0.003
	c7.992,0,15.743,1.611,23.041,4.792c0.496,0.216,1.006,0.408,1.521,0.575c21.558,6.962,36.043,26.867,36.043,49.532
	c0,10.781-3.28,21.133-9.485,29.934c-0.31,0.439-0.599,0.895-0.864,1.362c-8.962,15.793-25.018,26.57-42.949,28.83
	c-0.817,0.103-1.614,0.264-2.387,0.482H148.375c-9.057,0-16.399,7.342-16.399,16.399v0c0,9.057,7.342,16.399,16.399,16.399h253.58
	c2.421,0,4.718-0.525,6.787-1.467c25.955-4.703,48.924-20.781,62.237-43.76c9.83-14.218,15.02-30.859,15.02-48.177
	C486,276.361,462.73,244.118,428.005,232.547z"/>
</svg>
