<?xml version="1.0" encoding="utf-8"?>
<!-- Generator: Adobe Illustrator 18.0.0, SVG Export Plug-In . SVG Version: 6.00 Build 0)  -->
<!DOCTYPE svg PUBLIC "-//W3C//DTD SVG 1.1//EN" "http://www.w3.org/Graphics/SVG/1.1/DTD/svg11.dtd">
<svg version="1.1" id="Layer_3" xmlns="http://www.w3.org/2000/svg" xmlns:xlink="http://www.w3.org/1999/xlink" x="0px" y="0px"
	 viewBox="0 0 512 512" style="enable-background:new 0 0 512 512;" xml:space="preserve">
<g>
	<circle cx="256" cy="256" r="230"/>
	<path style="fill:#FFFFFF;" d="M347.5,350.6h-11l-17.7-52h16.9v-1.4h-17.4l-10.5-30.8h27.9V265h-28.4L294,226.2h32v-1.4h-32.5
		l-18.2-53.4h37.2V170h-37.1l10.1-29.6l-1.3-0.4l-9.8,28.7l-9.7-28.3l-0.1-0.3l-1.3,0.4l10.1,29.6h-35.5l10.1-29.6l-1.3-0.4
		l-9.8,28.7l-9.8-28.7l-1.3,0.4l10.1,29.6h-36.4v1.4H236l-18.2,53.4H186v1.4h31.3L204,265h-27.7v1.4h27.2L193,297.2h-16.7v1.4h16.2
		l-17.7,52h-10.3v1.4h9.8l-6.7,19.5l1.3,0.4l6.8-20h36l-6.7,19.5l1.3,0.4l6.8-20H298l6.8,20l1.3-0.4l-6.7-19.5h36l6.8,20l1.3-0.4
		l-6.7-19.5h10.6V350.6z M316.8,297.2H310l-9.6-28.2l-0.2-0.7l-0.7-1.9h6.8L316.8,297.2z M248.3,226.2h6.4L241.5,265h-6.4l0.5-1.6
		L248.3,226.2z M276.4,263.4l0.5,1.6h-7.1l-13.3-38.8h7.1L276.4,263.4z M279.8,273.5h-7.1l-2.4-7.1h7.1L279.8,273.5z M242.8,273.5
		h-2.8l2.4-7.1h26.3l2.4,7.1h-2.1v0H242.8z M243,265l12.7-37.1l12.7,37.1H243z M256.7,224.8l3.2-9.5l3.2,9.5H256.7z M255.6,223.6
		l-3.2-9.4l3.6-10.5l3.2,9.4L255.6,223.6z M254.6,224.8h-5.8l2.9-8.5L254.6,224.8z M241,266.4l-2.4,7.1h-6.4l2.4-7.1H241z
		 M226.2,291.2h5.5h1l-2.1,6.1h-6.4l0.3-0.9L226.2,291.2z M234,291.2h43.2l2.1,6.1H232L234,291.2z M278.7,291.2h1.7h5.5l1.8,5.2
		l0.3,0.9h-7.1L278.7,291.2z M305.8,265H299l-12.4-36.2l-0.2-0.7l-0.7-1.9h6.8L305.8,265z M274.4,173l17.7,51.8h-6.8L271,182.9
		L274.4,173z M273.4,171.4l-3.2,9.3l-0.8-2.2h-27l-1.1,3.3l-3.5-10.4H273.4z M236.9,173l3.7,11l-13.9,40.8h-7.5L236.9,173z
		 M218.8,226.2h7.5l-0.7,1.9l-0.2,0.7L213,265h-7.5L218.8,226.2z M205,266.4h7.5l-0.7,1.9l-0.2,0.7l-9.6,28.2h-7.5L205,266.4z
		 M212.3,350.6h-36l17.7-52h7.5l-0.7,1.9l-0.2,0.7l-14.8,43.3h22.1l15.7-45.9h6.4L212.3,350.6z M213.8,350.6l17.7-52h48.3l17.7,52
		H213.8z M299,350.6l-17.7-52h7.1l15.7,45.9h22.1l-14.8-43.3l-0.2-0.7l-0.7-1.9h6.8l17.7,52H299z"/>
	<g>
		<polygon points="179.9,252.3 179.9,252.3 347.7,252.3 347.7,271.7 146.4,271.7 		"/>
		<polygon style="fill:#FFFFFF;" points="179.9,291 179.9,291 146.3,271.7 146.4,271.7 347.7,271.7 347.7,291.1 		"/>
	</g>
</g>
</svg>
