<?xml version="1.0" encoding="utf-8"?>
<!-- Generator: Adobe Illustrator 18.0.0, SVG Export Plug-In . SVG Version: 6.00 Build 0)  -->
<!DOCTYPE svg PUBLIC "-//W3C//DTD SVG 1.1//EN" "http://www.w3.org/Graphics/SVG/1.1/DTD/svg11.dtd">
<svg version="1.1" id="Layer_1" xmlns="http://www.w3.org/2000/svg" xmlns:xlink="http://www.w3.org/1999/xlink" x="0px" y="0px"
	 viewBox="0 0 512 512" style="enable-background:new 0 0 512 512;" xml:space="preserve">
<path style="opacity:0.4;" d="M256,32c-15.901,0-31.425,1.614-46.418,4.687v309.048c0,2.703-2.191,4.894-4.894,4.894h-33.792
	c-2.703,0-4.894-2.191-4.894-4.894V50.28C83.704,85.308,26,166.913,26,262c0,127.025,102.975,230,230,230s230-102.975,230-230
	S383.025,32,256,32z M377.97,265.675L232.1,349.893c-0.849,0.49-1.798,0.736-2.745,0.736c-0.948,0-1.897-0.246-2.746-0.736
	c-1.699-0.981-2.746-2.794-2.746-4.755V176.702c0-1.961,1.047-3.775,2.746-4.755c1.699-0.982,3.792-0.982,5.491,0l145.87,84.218
	c1.699,0.981,2.746,2.793,2.746,4.754S379.669,264.693,377.97,265.675z"/>
<path style="fill:#EE2424;" d="M256,26c-15.901,0-31.425,1.614-46.418,4.687v309.048c0,2.703-2.191,4.894-4.894,4.894h-33.792
	c-2.703,0-4.894-2.191-4.894-4.894V44.28C83.704,79.308,26,160.913,26,256c0,127.025,102.975,230,230,230s230-102.975,230-230
	S383.025,26,256,26z M377.97,259.675L232.1,343.893c-0.849,0.49-1.798,0.736-2.745,0.736c-0.948,0-1.897-0.246-2.746-0.736
	c-1.699-0.981-2.746-2.794-2.746-4.755V170.702c0-1.961,1.047-3.775,2.746-4.755c1.699-0.982,3.792-0.982,5.491,0l145.87,84.218
	c1.699,0.981,2.746,2.793,2.746,4.754C380.715,256.881,379.669,258.693,377.97,259.675z"/>
</svg>
