<?xml version="1.0" encoding="utf-8"?>
<!-- Generator: Adobe Illustrator 18.0.0, SVG Export Plug-In . SVG Version: 6.00 Build 0)  -->
<!DOCTYPE svg PUBLIC "-//W3C//DTD SVG 1.1//EN" "http://www.w3.org/Graphics/SVG/1.1/DTD/svg11.dtd">
<svg version="1.1" id="Layer_1" xmlns="http://www.w3.org/2000/svg" xmlns:xlink="http://www.w3.org/1999/xlink" x="0px" y="0px"
	 viewBox="0 0 512 512" enable-background="new 0 0 512 512" xml:space="preserve">
<g opacity="0.4">
	<g>
		<polygon points="398,281 398,269.2 389.1,269.2 389.1,274.6 384.1,276.6 387.2,284.6 		"/>
		<rect x="389.1" y="255" width="8.6" height="12.6"/>
		<polygon points="398,241.4 387.2,237.7 384.1,245.8 389.1,247.6 389.1,253 398,253 		"/>
		<rect x="371.9" y="234.7" transform="matrix(-0.9424 -0.3346 0.3346 -0.9424 654.5912 590.9434)" width="12.6" height="8.9"/>
		<path d="M364.9,226.6l-0.8-2.4l-8.4,2.8l0.8,2.4c0.7,1.5,1,3.5,1.5,5.1l0.6,2.2l10.2,3.6l3-8.3l-5.8-2.1
			C365.7,228.9,365.3,227.8,364.9,226.6z"/>
		<path d="M352.1,217.7c0.8,2.1,1.7,3.7,2.4,5.8l0.8,2.4l8.4-3l-4.7-11.1l-8.2,3.6L352.1,217.7z"/>
		<path d="M346.9,202.6l-1.9,1.9l0.8,1.5l0.8,1.4c0.8,1.5,1.9,3,2.6,4.7l1.4,2.4l7.8-4.2l-1.9-3.5c-0.1-0.7-0.8-1.4-1-2.1l2.6-5.5
			l-7.9-3.7L346.9,202.6z"/>
		<rect x="351.5" y="185.7" transform="matrix(-0.4297 0.903 -0.903 -0.4297 683.1378 -51.279)" width="12.6" height="8.9"/>
		<polygon points="355.9,172.3 359.6,176.2 357.1,181 365.3,184.7 370.1,174.4 361.8,166.2 		"/>
		<rect x="346.6" y="159.2" transform="matrix(0.7071 0.7071 -0.7071 0.7071 218.9682 -201.6454)" width="12.6" height="8.6"/>
		<polygon points="332,151.4 335.6,159.4 340.5,157 344.1,160.8 350.3,154.7 342.4,146.4 		"/>
		<rect x="322.2" y="152.5" transform="matrix(0.4297 0.903 -0.903 0.4297 329.6852 -204.3146)" width="8.9" height="12.6"/>
		<path d="M311.7,161.1c-0.1-0.1-0.7-0.1-0.8-0.6c-0.8-0.3-1.5-0.8-2.1-1.2l-2.4-1.4l-4,7.9l2.4,1.4c1.5,0.8,3.3,1.9,4.8,2.8l3,1.5
			l1.9-2.1l6.9-3.3l-3.7-7.9L311.7,161.1z"/>
		<path d="M296.4,153.9l-2.4-0.8l-3.3,8.2l2.6,1c1.9,0.7,3.6,1.5,5.8,2.4l2.4,1l3.6-7.9l-2.4-1.2
			C300.5,155.4,298.4,154.7,296.4,153.9z"/>
		<path d="M286.5,150.4l-2.1-5.8l-8.3,3l3.6,10.2l1.4,0.1l8.6,2.4l2.6-8.3l-2.4-0.8C288.8,151.2,287.6,150.7,286.5,150.4z"/>
		<rect x="271.2" y="134.3" transform="matrix(0.3346 0.9424 -0.9424 0.3346 315.3346 -169.1845)" width="12.6" height="8.9"/>
		<polygon points="263.6,127.4 269,127.4 270.7,132.4 278.9,129.6 275.3,118.7 263.6,118.7 		"/>
		<rect x="249.2" y="118.7" width="12.6" height="8.9"/>
		<polygon points="232,129.6 240.1,132.3 242,127.4 247.1,127.4 247.1,118.7 235.6,118.7 		"/>
		<rect x="229" y="132.1" transform="matrix(0.9424 0.3346 -0.3346 0.9424 59.7704 -70.1228)" width="8.9" height="12.6"/>
		<path d="M224.6,150.4c-1.2,0.1-2.2,0.7-3.6,1l-2.4,0.8l2.8,8.3l2.4-0.7c1.2-0.1,2.4-0.7,3.6-1l1.9-0.6l2.2-0.6l3.6-10.2l-8.3-3
			L224.6,150.4z"/>
		<path d="M206,157.3l3.6,8.2l2.4-1c1.9-0.8,3.7-1.5,5.8-2.4l2.4-1l-3.3-8.2L206,157.3z"/>
		<path d="M201.1,159.8c-0.7,0.1-1.4,0.7-2.1,1l-5.5-2.8l-3.6,7.9l6.8,3.3l1.9,2.1l3-1.5l0.1-0.1c1.5-1,3-1.9,4.7-2.8l2.4-1.2
			l-4-7.9L201.1,159.8z"/>
		<rect x="178.2" y="154.7" transform="matrix(0.9029 0.4298 -0.4298 0.9029 86.2515 -63.8236)" width="12.5" height="8.6"/>
		<polygon points="160.3,154.7 166.7,160.8 170.3,157 175.2,159.4 178.8,151.4 168.6,146.4 		"/>
		<rect x="153.7" y="156.9" transform="matrix(0.7071 0.7071 -0.7071 0.7071 161.7026 -63.8973)" width="8.6" height="12.6"/>
		<polygon points="140.9,174.4 145.7,184.7 153.6,181 151.3,176.2 155,172.3 148.9,166.2 		"/>
		<rect x="146.8" y="185.5" transform="matrix(0.4299 0.9029 -0.9029 0.4299 258.7858 -29.9057)" width="12.6" height="8.9"/>
		<path d="M160.6,195.7l-7.9,3.7l2.8,5.5c-0.1,0.1-0.1,0.1-0.1,0.3c-0.6,0.8-1,1.9-1.5,2.8l-1.2,2.4l7.9,4l1.2-2.4
			c0.6-1,1-1.9,1.5-2.8c0.1-0.7,0.7-1.4,1-1.9l1.5-2.8l-1.9-1.9L160.6,195.7z"/>
		<path d="M156.3,223.5c0.7-1.9,1.4-3.6,2.4-5.7l1.4-2.4l-8.3-3.6l-1,2.4c-1,2.1-1.9,4.2-2.8,6.2l-1,2.4l8.2,3.3L156.3,223.5z"/>
		<path d="M142.1,240.4l10.2-3.6l0.1-1.4l2.4-8.6l-8.3-2.8l-0.8,2.4c-0.3,1.2-0.7,2.4-1,3.6l-5.8,2.1L142.1,240.4z"/>
		<rect x="128.4" y="232.9" transform="matrix(0.3346 0.9424 -0.9424 0.3346 313.7865 33.9672)" width="8.9" height="12.6"/>
		<polygon points="112.9,241.4 112.9,253 121.9,253 121.9,247.6 126.6,245.8 123.6,237.7 		"/>
		<rect x="112.9" y="255" width="8.9" height="12.6"/>
		<polygon points="112.9,281 123.6,284.6 126.6,276.6 121.9,274.6 121.9,269.2 112.9,269.2 		"/>
		<rect x="126.7" y="278.7" transform="matrix(-0.9424 -0.3345 0.3345 -0.9424 163.5796 594.4937)" width="12.6" height="8.9"/>
		<path d="M145.7,295.7l0.8,2.4l8.4-2.6l-1-2.6c-0.7-1.7-1-3.5-1.5-5.1l-0.6-2.2l-10-3.6l-3,8.3l5.8,2.1
			C145.1,293.3,145.6,294.5,145.7,295.7z"/>
		<path d="M151.6,310.8l7.9-3.7l-1-2.4c-0.8-2.1-1.5-3.7-2.4-5.8l-1-2.6l-8.3,3.3L151.6,310.8z"/>
		<path d="M164.2,319.9l1.9-1.9l-1.5-2.8h-0.1c-1-1.5-1.9-3-2.8-4.7l-1.2-2.4l-7.9,4l1.9,3.5c0.1,0.7,0.7,1.4,1,2.1l-2.8,5.5
			l7.9,3.7L164.2,319.9z"/>
		<rect x="147" y="327.9" transform="matrix(0.4296 -0.903 0.903 0.4296 -212.6269 327.8315)" width="12.5" height="8.6"/>
		<polygon points="155,350.1 151.3,346.3 153.6,341.4 145.7,337.5 140.9,347.9 148.9,356.1 		"/>
		<rect x="151.5" y="354.7" transform="matrix(-0.7071 -0.7071 0.7071 -0.7071 15.5263 724.3391)" width="12.6" height="8.6"/>
		<polygon points="178.8,370.9 175.2,363 170.3,365.2 166.7,361.4 160.3,367.6 168.6,375.9 		"/>
		<rect x="180.2" y="357.2" transform="matrix(-0.4296 -0.903 0.903 -0.4296 -64.4923 686.1692)" width="8.6" height="12.5"/>
		<path d="M199.1,361.4c0.1,0.1,0.7,0.1,1,0.6c0.7,0.3,1.5,0.8,2.1,1.2l2.4,1.4l4.2-7.8l-2.4-1.4c-1.5-0.8-3.3-1.9-4.8-2.6l-3-1.5
			l-1.9,1.9l-6.9,3.3l3.7,7.9L199.1,361.4z"/>
		<path d="M214.7,368.6l2.4,0.8l3-8.3l-2.4-0.8c-1.9-0.7-3.6-1.5-5.8-2.4l-2.4-1l-3.6,7.9l2.4,1
			C210.4,366.9,212.6,367.6,214.7,368.6z"/>
		<path d="M224.6,371.7l2.1,5.8l8.3-3l-3.6-10.2l-1.4-0.1l-8.6-2.6l-2.8,8.3l2.4,0.8C222.1,371,223.3,371.6,224.6,371.7z"/>
		<rect x="227" y="379.3" transform="matrix(-0.3346 -0.9424 0.9424 -0.3346 -50.2994 731.9926)" width="12.6" height="8.9"/>
		<polygon points="247.1,395 242,395 240.1,389.9 232,392.5 235.6,403.7 247.1,403.7 		"/>
		<rect x="249.2" y="395" width="12.6" height="8.6"/>
		<polygon points="278.9,392.5 270.7,389.9 269,395 263.6,395 263.6,403.7 275.3,403.7 		"/>
		<rect x="271.1" y="379.2" transform="matrix(-0.3345 0.9424 -0.9424 -0.3345 731.6933 250.5769)" width="12.6" height="8.9"/>
		<path d="M286.2,371.7c1.2-0.1,2.2-0.7,3.5-1l2.4-0.8l-2.6-8.4l-2.6,0.8c-1.7,0.7-3.5,1-5.1,1.5l-2.2,0.6l-3.6,10.2l8.3,3
			L286.2,371.7z"/>
		<path d="M296.4,368.6c1.9-0.7,3.7-1.5,6.1-2.6l2.4-1l-3.5-8.2l-2.4,1c-2.1,0.8-3.7,1.7-5.8,2.4l-2.6,0.8l3.3,8.2L296.4,368.6z"/>
		<path d="M308.5,363c1-0.6,2.1-1.2,3-1.9l5.4,2.6l3.7-7.9l-6.9-3.3l-1.9-1.9l-1.7,0.8l-1.4,0.8c-1.5,0.8-3,1.9-4.7,2.6l-2.4,1.2
			l4,7.9L308.5,363z"/>
		<rect x="320.2" y="359" transform="matrix(-0.9029 -0.4298 0.4298 -0.9029 465.0698 831.5541)" width="12.5" height="8.6"/>
		<polygon points="350.3,367.6 344.1,361.4 340.5,365.2 335.6,363 332,370.9 342.4,375.9 		"/>
		<rect x="348.7" y="352.4" transform="matrix(-0.7071 -0.7071 0.7071 -0.7071 349.0452 861.9089)" width="8.6" height="12.6"/>
		<polygon points="370.1,347.9 365.3,337.5 357.1,341.4 359.6,346.3 355.9,350 361.8,356.1 		"/>
		<rect x="351.3" y="327.6" transform="matrix(-0.4296 -0.903 0.903 -0.4296 211.4447 797.4448)" width="12.5" height="8.6"/>
		<path d="M350.2,326.7l7.9-3.6l-2.6-5.5c0.1-0.1,0.1-0.7,0.6-0.8c0.3-0.8,0.8-1.5,1.2-2.1l1.4-2.4l-7.8-4l-1.4,2.4
			c-0.8,1.5-1.9,3.3-2.6,4.8l-1.5,3l1.9,1.9L350.2,326.7z"/>
		<path d="M354.5,299c-0.7,1.9-1.5,3.6-2.4,5.8l-1,2.4l7.9,3.5l1-2.4c1-2.2,1.9-4.3,2.6-6.2l0.8-2.4l-7.9-3.3L354.5,299z"/>
		<path d="M368.9,281.8l-10.2,3.6l-0.1,1.4l-2.6,8.6l8.3,2.6l0.8-2.4c0.3-1.2,0.8-2.4,1-3.5l5.8-2.1L368.9,281.8z"/>
		<rect x="373.4" y="277.1" transform="matrix(-0.3347 -0.9423 0.9423 -0.3347 237.1899 734.0773)" width="8.6" height="12.5"/>
		<path d="M117.2,433.5c-1.5-1.4-3.6-2.8-5.1-4.3l-2.1-1.9l-5.8,6.9l9.7,7.9l5.4-6.9L117.2,433.5z"/>
		<path d="M474.7,295c-0.1,2.4-0.8,4.8-1.2,6.8l-0.6,2.6l8.6,1.5l0.3-2.6c0.1-1,0.3-2.2,0.6-3.3c0.1-1.2,0.3-2.4,0.7-3.6l0.6-2.6
			l-8.9-1.4V295z"/>
		<path d="M128.3,441.8c-2.1-1.5-3.7-2.8-5.4-3.7l-2.1-1.5l-5.4,6.9l2.1,1.5c1.9,1.4,3.7,2.8,5.7,4.3l1.5-2.1l0,0l-1.5,2.1l2.2,1.5
			l5-7.2L128.3,441.8z"/>
		<path d="M106.8,424.8c-1.5-1.5-3.3-3-5-4.4l-1.9-1.9l-6.2,6.2l9,8.4l5.8-6.8L106.8,424.8z"/>
		<path d="M139.6,449.6c-1.9-1.2-3.7-2.4-5.8-3.6l-2.2-1.5l-5,7.2l2.2,1.5c1.4,0.8,2.8,1.9,4.3,2.8l3.7,2.4l5-7.2L139.6,449.6z"/>
		<path d="M97.1,415.4c-1.5-1.5-3-3.3-4.7-5l-1.9-1.9l-6.5,6.1l8.4,9l6.2-6.1L97.1,415.4z"/>
		<path d="M88,405.3c-1-1-1.9-2.1-2.8-3.3c-0.6-0.7-1-1.4-1.5-1.9l-1.5-2.1l-6.8,5.4l1.5,2.1c1.5,1.9,3,3.6,4.4,5.4l1.5,1.9l6.8-5.5
			L88,405.3z"/>
		<path d="M464.9,334.6c-0.8,2.6-1.5,4.4-2.2,6.4l-0.8,2.4l8.3,3.3l1.5-3.7c0.7-1.7,1.4-3.5,1.9-5.4l0.8-2.4l-8.3-3L464.9,334.6z"/>
		<path d="M150,455.7c-1.5-0.8-3-1.7-4.4-2.6l-2.4-1.4l-4.4,7.6l2.2,1.4c1.5,1,3.6,2.2,6.2,3.5l2.2,1.2l4.4-7.6L150,455.7z"/>
		<path d="M79.4,394.6c-1.2-1.5-2.4-3.3-3.7-5.4l-1.5-2.2l-7.1,5.1l1.5,2.1c1.4,1.9,2.8,3.7,4.2,5.7l1.5,2.1l6.8-5.4L79.4,394.6z"/>
		<path d="M460,347.4c-0.8,1.9-1.9,4-2.6,6.1l-1,2.4l7.9,3.7l5.1-11.4l-8.2-3.5L460,347.4z"/>
		<path d="M470.1,317.4l8.4,2.2l0.7-2.6c0.6-2.1,1-4.4,1.7-6.8l0.8-2.6l-8.6-1.9L470.1,317.4z"/>
		<path d="M48.8,338.9l-8.2,3.3l1,2.4c1,2.6,1.9,4.7,2.8,6.8l1,2.4l7.9-3.5L48.8,338.9z"/>
		<path d="M454.1,359.8c-1,2.1-2.1,4.3-3.3,6.1l-1.2,2.4l7.8,4l1.4-2.2c1-1.9,2.2-4,3.3-6.5l1-2.4l-7.8-3.6L454.1,359.8z"/>
		<path d="M469,321.5c-0.8,2.6-1.4,4.4-2.1,6.5l-0.8,2.6l8.3,2.6l0.8-2.4c0.7-1.9,1.2-3.7,1.9-5.8l1-3.6l-8.4-2.4L469,321.5z"/>
		<path d="M323.2,472c-1.7,0.6-3.5,1-5.1,1.5l-3.7,1.2l2.4,8.4l2.6-0.8c2.2-0.7,4.4-1.4,6.9-2.1l2.4-0.8l-2.6-8.4L323.2,472z"/>
		<path d="M348.5,462.2c-2.2,1-4.3,1.9-6.1,2.6l-2.6,1l3.5,8.3l11.4-5.1l-3.7-7.9L348.5,462.2z"/>
		<path d="M300.9,478l1.9,8.6l3.6-0.8c1.9-0.3,3.7-0.8,5.8-1.5l2.4-0.8l-2.1-8.3L300.9,478z"/>
		<path d="M336.3,467.6c-1.4,0.3-2.6,0.8-3.7,1.4c-0.8,0.1-1.9,0.7-2.6,0.8l-2.6,0.8l3,8.3l2.4-0.8c2.1-0.8,4.3-1.5,6.8-2.4l2.6-0.8
			l-3.3-7.9L336.3,467.6z"/>
		<path d="M296.9,478.7c-2.1,0.3-4.3,0.8-6.8,1.2l-2.6,0.3l1.4,8.6l2.6-0.1c2.4-0.1,4.8-0.8,6.9-1.2l2.6-0.6l-1.5-8.6L296.9,478.7z"
			/>
		<path d="M415,415.4c-1,1-2.1,2.1-3.3,3.3c-0.6,0.6-1,1-1.5,1.5l-1.9,1.9l6.1,6.1l8.6-8.6l-6.2-6.2L415,415.4z"/>
		<path d="M372.6,449.6c-0.8,0.6-1.9,1.2-2.8,1.7c-0.8,0.7-2.1,1.2-3,1.9l-2.2,1.4l4.3,7.6l2.4-1.4c1.9-1.2,3.7-2.4,5.8-3.5l2.2-1.4
			l-4.4-7.6L372.6,449.6z"/>
		<path d="M394.7,433.7c-1.9,1.5-3.6,2.8-5.4,4.3l-2.1,1.5l5.4,6.9l2.1-1.5c1.9-1.4,3.6-2.8,5.7-4.4l1.9-1.7l-5.4-6.8L394.7,433.7z"
			/>
		<path d="M352.7,460.7l3.7,7.9l2.4-1.4c0.8-0.6,2.1-1,3-1.5s2.1-1,3-1.5l2.4-1.4l-4-7.8L352.7,460.7z"/>
		<path d="M405.2,424.7c-1.7,1.5-3.5,3-5,4.4l-1.9,1.7l5.7,6.8l2.1-1.9c1.7-1.5,3.5-3,5.4-4.8l1.9-1.9l-6.1-6.5L405.2,424.7z"/>
		<path d="M384,441.8c-1.7,1.4-3.6,2.6-5.5,3.7l-2.2,1.5l5,7.2l3.3-2.1c1.7-1.2,3.3-2.2,5-3.5l2.1-1.5l-5.1-6.9L384,441.8z"/>
		<path d="M424,405.3c-0.8,0.8-1.5,1.7-2.2,2.6c-0.8,0.8-1.5,1.7-2.4,2.6l-1.7,1.9l6.5,6.1l2.2-2.6c1.4-1.5,2.8-3,4.3-4.4l1.9-2.1
			l-6.9-5.8L424,405.3z"/>
		<path d="M235.8,481.6l-2.8-0.1l-0.8,8.6l2.8,0.1c2.2,0.1,4.7,0.3,7.1,0.6h2.8l0.6-8.6h-2.8C240.2,482.1,238,481.7,235.8,481.6z"/>
		<path d="M432.6,394.6c-0.7,0.8-1.4,1.9-2.1,2.6c-0.8,0.8-1.5,1.9-2.1,2.8l-1.5,2.1l6.8,5.4l1.7-2.1c0.8-1,1.7-2.1,2.6-3.3
			c0.7-0.8,1.2-1.5,1.9-2.2l1.7-2.1l-6.9-5.4L432.6,394.6z"/>
		<path d="M222.3,479.8l-2.4-0.3l-1.4,8.6l2.8,0.3c2.2,0.1,4.4,0.7,6.9,0.8l2.8,0.1l1-8.6l-5.8-0.8
			C224.6,480.3,223.3,480.2,222.3,479.8z"/>
		<path d="M202.3,476c-1.2-0.1-2.4-0.8-3.6-1c-1-0.1-1.9-0.6-2.8-0.8l-2.4-0.8l-2.4,8.4l2.4,0.8c2.4,0.7,4.7,1.4,6.8,1.9l2.4,0.7
			l2.1-8.3L202.3,476z"/>
		<path d="M209,477.4l-2.8-0.7l-1.9,8.6l2.4,0.7c2.2,0.6,4.4,0.8,6.9,1.4l2.4,0.3l1.2-6.1l0.3-2.6l-2.4-0.6
			C213.3,478.3,211.1,478,209,477.4z"/>
		<path d="M57.9,359.8c-0.7-1.5-1.5-3-2.2-4.4l-1.9-3.7l-7.9,3.7l1,2.4c1,2.1,1.9,4.3,3,6.4l1.4,2.4l7.9-4L57.9,359.8z"/>
		<path d="M64.3,372c-1.4-2.1-2.4-4-3.3-5.8l-1.4-2.4l-7.9,4l1.4,2.4c1,2.1,2.4,4.3,3.5,6.1l1.4,2.2l7.9-4.3L64.3,372z"/>
		<path d="M71.5,383.5c-1.4-1.9-2.8-4.3-3.6-5.7l-1.4-2.2l-7.6,4.4l1.4,2.2c1.4,2.1,2.4,4.3,3.7,6.1l1.5,2.1l7.6-4.8L71.5,383.5z"/>
		<path d="M447.7,371.7c-1,1.9-2.4,3.7-3.5,5.8l-1.4,2.2l7.5,4.4l1.4-2.2c1.4-2.1,2.6-4.3,3.6-6.2l1.2-2.2l-7.6-4.3L447.7,371.7z"/>
		<path d="M440.6,383.5c-0.7,0.8-1.4,1.9-1.9,2.8c-0.7,0.8-1.4,1.9-2.1,2.8l-1.4,2.1l6.9,5.1l1.5-2.4c1.4-1.9,2.6-3.7,3.7-5.7
			l1.5-2.2l-7.2-5L440.6,383.5z"/>
		<path d="M249.5,482.4h-2.8l-0.1,8.6h2.8c2.4,0,4.7,0,6.9,0h2.8v-8.6h-3C253.9,482.4,251.7,482.4,249.5,482.4z"/>
		<path d="M283.3,480.8c-2.1,0.1-4.3,0.6-6.1,0.7l-3,0.1l0.8,8.6l3.3-0.1c2.1-0.1,4.3-0.3,6.4-0.8l2.6-0.1l-1-8.6L283.3,480.8z"/>
		<path d="M269,482.1c-2.1,0-4,0.1-5.8,0.1l-2.8,0.1l0.1,8.6h2.6c2.4,0,4.8,0,7.2-0.1l2.6-0.1l-0.6-8.6H269z"/>
		<path d="M262.9,40l2.6,0.1l0.1-8.9l-2.6-0.1c-2.4-0.1-4.8-0.1-7.1-0.1h-3v8.9h3C258.1,39.7,260.4,39.7,262.9,40z"/>
		<path d="M117.1,88.8c2.1-1.5,3.7-3,5.4-4l2.4-1.5l-5.4-7.1l-2.1,1.5c-2.1,1.5-3.7,2.8-5.7,4.4l-2.1,1.5l5.4,6.8L117.1,88.8z"/>
		<path d="M106.7,97.8c1.5-1.5,3.5-3,5.1-4.7l1.9-1.5l-5.7-6.8l-2.1,1.9c-0.8,0.7-1.5,1.5-2.4,2.2c-0.8,0.7-1.9,1.5-2.8,2.4
			l-1.9,1.9l5.8,6.4L106.7,97.8z"/>
		<path d="M128.7,80.2c1.5-1,3.3-2.2,4.8-3.3l2.4-1.5l-3.5-5.1l-1.5-2.2l-2.2,1.5c-1.9,1.4-3.7,2.4-5.8,3.7l-2.1,1.5l5,7.1
			L128.7,80.2z"/>
		<path d="M228.2,41.4c1.2-0.1,2.4-0.1,3.6-0.3s2.2-0.1,3.3-0.1l2.8-0.1L237,32l-3.3,0.3c-2.1,0.1-4.3,0.3-6.5,0.7l-2.4,0.3l1,8.6
			L228.2,41.4z"/>
		<path d="M79.4,127.8c1.4-1.9,2.8-3.6,4.2-5.7l1.5-2.1l-6.8-5.4l-1.5,2.1c-0.7,0.8-1.4,1.9-2.1,2.8c-0.7,1-1.5,1.9-2.1,2.8
			l-1.5,2.1l7.1,5.4L79.4,127.8z"/>
		<path d="M93.8,110.2l-6.5-5.8l-1.9,2.1c-0.6,0.6-1,1.2-1.5,1.5c-1,1.2-2.1,2.4-3,3.6l-1.5,2.1l6.8,5.7L93.8,110.2z"/>
		<path d="M139.4,73.1c1.4-0.8,2.8-1.9,4.2-2.4c0.6-0.1,1-0.7,1.5-1l2.2-1.4l-4.4-7.6l-2.4,1.4c-1.5,0.8-3,1.9-4.4,2.8l-3.7,2.4
			l4.4,7.6L139.4,73.1z"/>
		<path d="M189.9,50c1.5-0.6,3.5-1,5.1-1.5l2.4-0.8l-2.4-8.3l-2.4,0.7c-2.2,0.7-4.4,1.4-6.8,2.1l-2.4,0.8l2.8,8.3L189.9,50z"/>
		<path d="M201.6,46.7c2.1-0.6,4.4-1,6.8-1.5l2.8-0.6l-1.9-8.9l-2.8,0.7c-1,0.1-2.2,0.6-3.5,0.7c-1.2,0.3-2.4,0.6-3.5,0.8l-2.8,0.7
			l2.1,8.4L201.6,46.7z"/>
		<path d="M214.9,43.7c2.1-0.3,4.4-0.8,6.8-1.2l2.8-0.3l-1.4-8.6l-2.4,0.3c-2.4,0.3-4.8,0.7-7.1,1.2l-2.4,0.6l1.5,8.6L214.9,43.7z"
			/>
		<path d="M477.2,254.3c0,2.2,0,4.4,0,6.8v2.8h8.6v-2.8c0-2.4,0-4.8,0-7.1v-2.8l-8.6,0.1V254.3z"/>
		<path d="M151,66.2c2.1-1,4-2.1,6.2-3.3l2.4-1.2l-4-7.9l-2.4,1c-1.5,0.7-3.3,1.5-4.8,2.4l-3.7,2.1l4,7.9L151,66.2z"/>
		<path d="M164.6,59.4c1.5-0.7,3-1.4,4.7-2.1l2.4-1L168,48l-11.4,5l3.7,7.9L164.6,59.4z"/>
		<path d="M175.7,54.7c2.1-0.8,4.2-1.5,6.2-2.2l2.8-0.7l-2.9-8.4l-2.4,0.8c-2.1,0.7-4.2,1.5-6.8,2.4l-2.4,1l3.3,8.2L175.7,54.7z"/>
		<path d="M71.4,139.2c1.4-1.9,2.4-3.7,3.7-5.5l1.5-2.1l-7.1-5.1l-1.5,2.4c-0.7,1-1.4,1.9-1.9,2.8c-0.7,1-1.4,1.9-2.1,2.8l-1.5,2.2
			l7.2,5L71.4,139.2z"/>
		<path d="M97,107.3c1.5-1.5,3-3.3,4.8-4.8l2.1-1.9l-6.2-6.2l-1.9,1.9c-0.6,0.6-1,1-1.5,1.5c-1,1-2.2,2.2-3.5,3.5l-1.9,1.9l6.2,6.2
			L97,107.3z"/>
		<path d="M35.6,281.8c-0.1-2.2-0.3-4.4-0.6-6.8l-0.1-2.6l-8.9,0.6l0.1,2.6c0.1,2.4,0.3,4.7,0.6,6.9l0.1,2.6l8.6-0.8v-2.5
			L35.6,281.8L35.6,281.8z"/>
		<path d="M64.3,150.7c1.4-2.1,2.4-3.7,3.6-5.8l1.5-2.4l-7.6-4.4l-1.4,2.1c-1.4,2.1-2.4,4-3.6,6.1l-1.4,2.4l7.6,4.4L64.3,150.7z"/>
		<path d="M162.1,461.6c-1.5-0.8-3-1.5-4.4-2.2l-2.4-1.4l-3.7,7.9l2.4,1.2c0.7,0.1,1.4,0.7,2.1,0.8c1.4,0.7,2.8,1.4,4.3,2.1l2.4,1
			l3.6-7.9L162.1,461.6z"/>
		<path d="M34.8,254.4c0-2.1,0.1-4.4,0.1-6.8l0.1-2.8l-9-0.4l-0.6,12.5l9,0.1L34.8,254.4L34.8,254.4z"/>
		<path d="M47.1,335.2c-0.6-1.4-1-2.6-1.4-3.7c-0.1-0.8-0.6-1.5-0.8-2.4l-0.8-2.4l-8.4,2.6l0.8,2.6c0.7,2.1,1.5,4.3,2.2,6.8l0.8,2.6
			l8.4-3L47.1,335.2z"/>
		<path d="M39.8,308.7c-0.6-2.1-1-4.4-1.4-6.8l-0.6-2.6l-8.6,1.5l0.7,3.5c0.3,2.1,0.7,4,1.4,6.1L32,313l8.6-1.9L39.8,308.7z"/>
		<path d="M43.2,322c-0.7-2.6-1.4-4.4-1.9-6.5l-0.7-2.6l-8.3,2.1l0.7,2.6c0.6,2.4,1.2,4.4,1.9,6.9l0.7,2.6l8.4-2.4L43.2,322z"/>
		<path d="M34.8,268.3c-0.1-2.2-0.1-4.4-0.1-6.9v-2.8h-8.9v2.8c0,2.4,0,4.8,0.1,7.1l0.1,2.6l8.9-0.1L34.8,268.3z"/>
		<path d="M52.2,175.1c0.7-1.9,1.5-3.7,2.8-6.2l1.2-2.4l-7.9-3.7l-1,2.4c-1,2.2-2.1,4.4-3,6.8l-1,2.4l8.2,3.6L52.2,175.1z"/>
		<path d="M47,187.8c0.6-1.5,1.4-4,2.2-6.4l1-2.4l-8.3-3.3l-1.5,3.7c-0.7,1.5-1.4,3.5-1.9,5.1l-0.8,2.4l8.3,3L47,187.8z"/>
		<path d="M57.8,162.9c0.7-1.5,1.9-3.7,3-5.8l1.5-2.4l-7.9-4.2l-1.4,2.4c-1,2.1-2.1,4-3.3,6.2l-1.2,2.4l7.9,3.7L57.8,162.9z"/>
		<path d="M39.8,214.1c0.3-2.1,1-4.4,1.5-6.8L42,205l-8.3-2.2l-0.7,2.8c-0.3,1.2-0.6,2.2-0.8,3.5c-0.1,1.2-0.6,2.2-0.7,3.5l-0.7,2.8
			l8.6,1.9L39.8,214.1z"/>
		<path d="M37.2,227.7c0.1-2.4,0.7-4.7,1.2-6.8l0.6-2.8l-8.6-1.5l-0.7,3.6c-0.3,2.1-0.7,4-1,6.1l-0.3,2.4L37,230L37.2,227.7z"/>
		<path d="M35.6,241c0.1-2.1,0.3-4.3,0.7-6.8l0.3-2.8l-8.9-1l-0.3,2.4c-0.3,2.4-0.6,4.7-0.7,7.1l-0.1,2.8l8.9,0.8L35.6,241z"/>
		<path d="M43.4,199.4c0.6-1.5,1-3.5,1.5-5l0.8-2.4l-8.4-2.8l-0.8,2.4c-0.7,2.4-1.4,4.4-2.1,6.8l-0.7,2.4l8.4,2.4L43.4,199.4z"/>
		<path d="M37.3,295.4c-0.1-1.2-0.1-2.2-0.6-3.5l-0.8-6.1l-8.6,1l0.3,2.8c0.3,2.2,0.7,4.4,1,6.8l0.3,2.6l8.6-1.4L37.3,295.4z"/>
		<path d="M440.6,138.9c1.4,1.9,2.6,3.7,3.6,5.7l1.4,2.4l7.2-4.7l-1.4-2.2c-1.4-2.1-2.6-4.2-3.7-5.8l-1.5-2.2l-7.2,5L440.6,138.9z"
			/>
		<path d="M447.8,150.4c0.1,0.6,0.7,1.2,0.8,1.9c0.8,1.4,1.5,2.8,2.2,4.2l1.4,2.4l7.8-4l-1.4-2.4c-1-2.1-2.4-4.2-3.5-6.2l-1.4-2.4
			l-7.6,4.4L447.8,150.4z"/>
		<path d="M432.6,127.8c1.2,1.5,2.4,3.3,3.7,5.4l1.5,2.1l7.2-5l-1.5-2.2c-1.4-1.9-2.8-3.7-4.3-5.8l-1.5-2.1l-6.9,5.4L432.6,127.8z"
			/>
		<path d="M463.5,183.5l8.3-3.3l-1.5-3.7c-0.7-1.5-1.4-3.5-2.1-5l-1-2.4l-7.9,3.5L463.5,183.5z"/>
		<path d="M464.9,187.5c0.7,1.5,1,3,1.5,4.7c0.1,0.6,0.1,1,0.6,1.5l0.8,2.4l8.4-2.8l-0.8-2.4c-0.8-2.2-1.5-4.4-2.2-6.8l-0.8-2.4
			l-8.6,3L464.9,187.5z"/>
		<path d="M424.2,117.2c0.3,0.6,0.8,1.2,1.4,1.5c1,1.2,2.1,2.4,2.8,3.6l1.7,2.1l6.9-5.7l-1.9-2.1c-1.5-1.5-3-3.6-4.4-5.1l-1.7-2.1
			l-6.8,5.7L424.2,117.2z"/>
		<path d="M454.1,162.4c0.8,1.5,1.5,3,2.2,4.4l1.9,3.7l7.9-3.6l-1-2.4c-0.8-2.2-1.9-4.3-3-6.4l-1.2-2.4l-7.9,3.7L454.1,162.4z"/>
		<path d="M477.5,264.9v2.6c0,2.4-0.1,4.7-0.1,6.9v2.6l8.6,0.6l0.6-12.5L477.5,264.9z"/>
		<path d="M415,107.3c1.5,1.5,3,3.3,4.4,5l1.9,2.1l6.8-5.8l-8.4-9l-6.2,6.2L415,107.3z"/>
		<path d="M476.4,282.1c-0.1,2.1-0.3,4.3-0.7,6.1l-0.3,2.6l8.9,1l0.1-2.8c0-1.2,0.1-2.4,0.3-3.6c0-1,0.1-2.2,0.1-3.3l0.1-2.6
			l-8.6-0.8L476.4,282.1L476.4,282.1z"/>
		<path d="M176.1,467.6c-1.4-0.3-2.8-1-4.2-1.5c-0.7-0.1-1.5-0.7-2.1-0.8l-2.4-0.8l-3.5,7.9l2.4,1c1.5,0.8,3.6,1.5,5.1,2.1l3.7,1.5
			l3.3-8.4L176.1,467.6z"/>
		<path d="M189.2,472c-2.2-0.8-4.4-1.5-6.8-2.2l-2.4-0.8l-3,8.3l2.4,0.8c2.1,0.8,4.3,1.5,6.4,2.1l2.8,0.8l3-8.3L189.2,472z"/>
		<path d="M468.8,200.5c0.6,1.9,1.2,4,1.9,6.5l0.7,2.8l8.4-2.2l-0.7-2.4c-0.6-2.4-1.2-4.4-1.9-6.8l-0.8-2.4l-8.4,2.4L468.8,200.5z"
			/>
		<path d="M405.3,97.8c1.5,1.5,3.3,3,5,4.4l1.9,1.9l6.2-6.2l-9-8.4l-6.1,6.5L405.3,97.8z"/>
		<path d="M360.6,66c1,0.7,2.1,1.2,3,1.5c0.8,0.6,2.1,1,3,1.5l2.4,1.4l4-7.9l-2.1-1.4c-1.7-1-3.6-2.2-6.1-3.6l-2.4-1.4l-4,7.9
			L360.6,66z"/>
		<path d="M309.9,46.5c1.2,0.1,2.4,0.7,3.6,1c0.8,0.1,1.9,0.6,2.8,0.7l2.6,0.7l2.4-8.4l-2.6-0.7c-2.4-0.7-4.7-1.4-6.9-1.9l-2.4-0.7
			l-2.1,8.3L309.9,46.5z"/>
		<path d="M303.4,44.9l2.6,0.7l1.9-8.6l-2.6-0.7c-2.1-0.3-4-0.8-6.1-1.4l-3.5-0.7l-1.5,8.6l2.6,0.6
			C298.9,43.9,301.2,44.4,303.4,44.9z"/>
		<path d="M323,50.1c1,0.3,2.2,0.7,3.3,1.2c1,0.1,2.1,0.7,3.3,1l2.4,0.8l3-8.3l-2.6-0.8c-2.1-0.7-4.3-1.5-6.8-2.2L323,41l-2.6,8.3
			L323,50.1z"/>
		<path d="M289.9,42.5l2.6,0.1L294,34l-2.6-0.3c-2.2-0.3-4.4-0.7-6.9-1l-2.8-0.3l-1,8.6l6.1,0.8C287.6,42.1,288.8,42.4,289.9,42.5z"
			/>
		<path d="M476.4,240.6c0.1,2.1,0.3,4.4,0.6,6.8v2.8l8.6-0.6v-2.8c0-2.4-0.1-4.7-0.6-7.1l-0.1-2.8l-8.6,0.8L476.4,240.6z"/>
		<path d="M336.1,54.7c1.4,0.3,2.6,1,4.3,1.5c0.8,0.1,1.5,0.7,2.1,0.8l2.4,1l3.5-7.9l-2.4-1c-1.7-0.7-3.5-1.5-5.1-2.1l-3.7-1.5
			l-3.5,8.3L336.1,54.7z"/>
		<path d="M276.6,40.7l2.6,0.1l0.8-8.9l-2.6-0.1c-2.2-0.1-4.7-0.3-6.9-0.6l-2.6-0.1l-0.6,8.6l2.6,0.1
			C271.9,40.3,274.1,40.6,276.6,40.7z"/>
		<path d="M394.9,89c1.7,1.4,3.5,2.8,5.1,4.3l2.1,1.9l5.5-6.8l-1.9-1.5c-1.7-1.5-3.6-3-5.4-4.4l-2.1-1.5l-5.5,6.9L394.9,89z"/>
		<path d="M384,80.7c2.1,1.5,3.7,2.8,5.4,3.7l2.1,1.5l5.4-6.8l-2.1-1.5c-1.9-1.4-3.7-2.8-5.8-4.2l-2.1-1.5l-5.1,7.1L384,80.7z"/>
		<path d="M472.2,213.8c0.6,2.1,0.8,4.4,1.4,6.8l0.6,2.8l8.6-1.5l-0.7-3.6c-0.3-2.1-0.8-4-1.4-6.1l-0.7-2.4l-8.6,1.9L472.2,213.8z"
			/>
		<path d="M350,60.8c1.5,0.7,3,1.5,4.4,2.2l2.4,1.4l4-7.9l-2.4-1.2c-0.7-0.1-1.4-0.7-2.1-1c-1.4-0.7-2.8-1.4-4.3-2.1l-2.4-1
			l-3.7,7.9L350,60.8z"/>
		<path d="M475.1,230.2c0.1,1.2,0.1,2.4,0.6,3.6l0.1,2.4l8.6-1l-0.1-2.8c-0.1-1.2-0.1-2.4-0.6-3.6c0-1.2-0.1-2.2-0.3-3.5l-0.1-2.8
			l-8.6,1.4L475.1,230.2z"/>
		<path d="M372.6,73c1.9,1.2,3.7,2.4,5.7,3.6l2.2,1.5l4.8-7.2l-2.1-1.5c-1.7-1.2-3.3-2.2-5-3.3L375,64l-4.4,7.6L372.6,73z"/>
		<path d="M242,40.3c2.1-0.1,4.3-0.1,6.4-0.1l3.3-0.1l-0.1-8.9l-12.5,0.6l0.6,8.9L242,40.3z"/>
		<path d="M403.9,219.5l-0.7-2.4l-8.7,2.4l0.8,2.4c0.8,2.8,1.4,5,1.9,7.1l0.6,2.4l8.9-1.9l-0.6-2.8
			C405.3,224.4,404.6,221.9,403.9,219.5z"/>
		<path d="M399.5,243.2l0.1,2.8l8.9-1l-0.1-2.4c-0.1-2.4-0.7-5.1-1-7.6l-0.3-2.8l-8.9,1.5l0.6,2.8
			C398.9,238.4,399.4,240.6,399.5,243.2z"/>
		<path d="M109.2,310.7l0.8,2.4l8.4-2.8l-0.7-2.4c-0.7-2.2-1.5-4.4-2.1-6.9l-0.7-2.6l-8.9,2.4l0.7,2.6
			C107.7,305.8,108.3,308.3,109.2,310.7z"/>
		<path d="M139.8,159.4c-1.4,1.5-2.8,3-3.7,4.4c-0.3,0.3-0.7,1-1.2,1.4l-1.5,2.1l7.1,5.8l1.5-2.1c1.5-2.1,3-3.7,4.4-5.4l1.9-2.1
			l-6.8-5.8L139.8,159.4z"/>
		<path d="M130.1,171.3c-1.5,2.4-3,4.4-4.3,6.4l-1.5,2.2l7.6,5l1.5-2.2c1.4-2.1,2.8-4.3,4-6.1l1.5-2.1l-7.2-5.1L130.1,171.3z"/>
		<path d="M114.7,197.9c-1,2.4-2.1,4.7-3,7.1l-1,2.4l8.4,3.5l1-2.4c0.7-1.9,1.5-4.3,2.8-6.5l1.4-2.4l-8.4-3.6L114.7,197.9z"/>
		<path d="M121.9,184.1c-1.4,2.2-2.4,4.4-3.6,6.8l-1.4,2.4l8.2,4.2l1.2-2.4c1.4-2.4,2.4-4.4,3.5-6.2l1.4-2.4l-7.9-4.4L121.9,184.1z"
			/>
		<path d="M108.9,212.5c-1,2.8-1.5,5-2.4,7.5l-0.7,2.4l8.9,2.4l0.7-2.4c0.7-2.2,1.4-4.4,2.1-6.9l0.8-2.4l-8.4-2.8L108.9,212.5z"/>
		<path d="M102.4,242c-0.1,2.4-0.6,4.8-0.7,7.1l-0.1,3.3l9,0.7l0.1-3.6c0.1-2.1,0.3-4.2,0.7-6.2l0.1-2.8l-9-1L102.4,242z"/>
		<path d="M105,227c-0.7,2.8-1.2,5.1-1.5,7.5l-0.3,2.8l8.9,1.5l0.6-3c0.3-2.1,0.7-4.4,1.4-6.4l0.7-2.8l-9-2.1L105,227z"/>
		<path d="M188.3,122.1c-2.2,1-4.4,2.4-6.8,3.5l-2.4,1.4l4.4,7.9l2.4-1.4c2.1-1.2,4.2-2.4,6.4-3.3l2.4-1.2l-3.7-8.2L188.3,122.1z"/>
		<path d="M216.9,111.8c-2.4,0.7-5,1.4-7.2,2.1l-2.4,0.7l2.4,8.4l2.4-0.7c0.7-0.1,1.4-0.3,2.1-0.7c1.5-0.3,3.3-1,5-1.4l2.8-0.7
			l-2.4-8.9L216.9,111.8z"/>
		<path d="M247.6,106.9c-2.8,0.1-5.1,0.1-7.6,0.6l-2.8,0.1l0.7,9l2.8-0.1c2.4-0.1,4.8-0.3,7.2-0.6l2.8-0.1l-0.6-9L247.6,106.9z"/>
		<path d="M150.3,148c-1.9,1.5-3.6,3.5-5.7,5.5l-1.9,1.9l4.4,4.4l1.9,1.9l1.9-1.9c1.5-1.5,3.5-3.5,5.1-5l1.9-1.9l-6.2-6.5L150.3,148
			z"/>
		<path d="M202.3,116.3c-2.4,0.8-4.8,1.9-7.1,2.8l-2.4,1l3.6,8.3l2.4-1c1.9-0.7,4.3-1.9,6.8-2.4l2.4-0.8l-3-8.6L202.3,116.3z"/>
		<path d="M162.1,138.2c-1.5,1.4-3.7,3-5.8,4.8l-2.1,1.5l5.8,7.1l2.1-1.5c1.9-1.5,3.7-3,5.7-4.4l2.1-1.5l-5.5-7.5L162.1,138.2z"/>
		<path d="M174.6,129.6c-2.1,1.4-4.3,2.8-6.2,4.2l-2.2,1.5l5,7.5l2.2-1.5c0.8-0.6,1.5-1,2.4-1.5c1.2-0.7,2.4-1.5,3.6-2.4l2.1-1.4
			l-4.4-7.6L174.6,129.6z"/>
		<polygon points="101.1,268.1 110.3,267.7 110.3,255.3 101.1,255 		"/>
		<path d="M248.1,415.4h2.8l0.1-9h-2.8c-2.4,0-5-0.1-7.2-0.6l-2.8-0.1l-0.7,9l3.3,0.1C243.3,415,245.5,415.2,248.1,415.4z"/>
		<path d="M139.8,363.3l1.9,2.1l6.8-6.1l-1.5-1.9c-1.5-1.9-3.3-3.6-4.4-5.5l-1.5-2.1l-7.1,5.8l1.5,2.1
			C136.6,359.3,138.3,361.4,139.8,363.3z"/>
		<path d="M127,346.9c1,1.5,2.1,3,3,4.4l1.5,2.1l7.2-5.1l-1.5-2.1c-0.3-0.7-1-1.4-1.4-2.1c-1-1.4-1.9-2.6-2.8-3.7l-1.5-2.2l-7.6,5
			l1.5,2.2C126.4,345.7,126.6,346.3,127,346.9z"/>
		<path d="M147.8,371.7c1,0.8,1.9,1.9,2.8,2.6l1.9,1.9l6.2-6.8l-2.1-1.9c-1.5-1.5-3.6-3.3-5.1-5l-1.9-1.9l-6.8,6.2l2.1,1.9
			C146,370.1,147,370.9,147.8,371.7z"/>
		<path d="M188.5,400.3l2.4,1l4.2-7.9l-2.4-1.2c-2.1-0.8-4.2-2.1-6.5-3.3l-2.4-1.4l-3,5.7l-1.2,2.4l2.4,1.4
			C184.1,397.9,186.3,399.3,188.5,400.3z"/>
		<path d="M162.5,384.2l2.1,1.5l5.4-7.2l-2.1-1.5c-1.9-1.5-3.7-3-5.7-4.4l-2.1-1.7l-5.7,6.9l2.1,1.7
			C158.5,381.2,160.4,382.8,162.5,384.2z"/>
		<path d="M202.8,406.4l2.4,0.8l3-8.4l-3.7-1.5c-1.5-0.7-3.6-1.4-5.1-2.1l-2.4-1l-3.6,8.3l2.4,1C198,404.4,200.5,405.3,202.8,406.4z
			"/>
		<path d="M175.1,392.9l2.2,1.4l4.7-7.6l-2.2-1.4c-2.2-1.4-4.3-2.8-6.1-4l-2.2-1.5l-5.1,7.6l2.4,1.5
			C170.8,390.2,173,391.7,175.1,392.9z"/>
		<path d="M270.8,414.7c3-0.1,5.5-0.7,7.9-1l2.4-0.6l-1.4-8.9l-2.6,0.3c-2.4,0.3-4.8,0.8-7.1,0.8l-2.6,0.1l0.8,9L270.8,414.7z"/>
		<path d="M115,324.9l1.2,2.4l8.3-3.6l-1.2-2.4c-1-1.9-1.9-4-2.8-6.8l-1-2.6l-8.4,3.5l1,2.4C112.9,319.9,113.9,322.6,115,324.9z"/>
		<path d="M121.9,338.6l1.4,2.2l7.9-4.3l-2.1-3.7c-0.8-1.5-1.9-3.3-2.8-5l-1.2-2.4l-8.2,4.3l1.4,2.4
			C119.3,333.9,120.5,336.4,121.9,338.6z"/>
		<path d="M105,295.6l0.6,2.6l8.9-1.9l-0.8-3.6c-0.3-2.1-0.8-4-1.4-6.1l-0.3-2.6l-8.9,1.5l0.3,2.6
			C104.1,290.7,104.6,293.2,105,295.6z"/>
		<path d="M217.6,410.7l2.4,0.7l2.4-8.6l-2.4-0.7c-2.1-0.6-4.4-1.2-7.1-2.1l-2.4-0.8l-2.8,8.6l2.4,0.8
			C212.6,409.4,215.1,410,217.6,410.7z"/>
		<path d="M227.3,413.2c1.5,0.1,3.6,0.7,5.4,0.8l2.4,0.1l1.4-8.6l-3-0.6c-2.4-0.3-4.4-0.8-6.8-1.2l-2.4-0.3l-1.9,8.9l2.8,0.3
			C225.9,412.6,226.8,412.6,227.3,413.2z"/>
		<path d="M263.2,415.2l2.6-0.1l-0.6-9h-2.6c-2.4,0-4.8,0.1-7.2,0.1h-2.8v9h2.8C258.1,415.4,260.8,415.4,263.2,415.2z"/>
		<path d="M102.4,280.5l0.1,2.6l9-1l-0.1-2.6c-0.1-2.4-0.6-5-0.7-7.2l-0.1-2.6l-9,0.8l0.1,3.3C102,275.9,102,278.2,102.4,280.5z"/>
		<path d="M392.7,190.6l-1.4-2.4l-7.9,4.2l1.9,3.6c0.8,1.5,1.7,3.5,2.4,5.1l1,2.4l8.3-3.6l-1-2.4C394.9,195,393.8,192.6,392.7,190.6
			z"/>
		<path d="M399.1,204.8l-0.8-2.4l-8.4,3.5l1,2.4c0.8,2.1,1.7,4.3,2.4,6.8l0.8,2.4l8.4-2.8l-0.8-2.4
			C401,209.7,400.2,207.2,399.1,204.8z"/>
		<path d="M385,345c1.4-2.1,2.8-4.3,4-6.8l1.2-2.2l-7.8-4.3l-1.4,2.4c-0.8,1.7-2.1,3.5-3.3,5.1l-2.1,3.3l7.6,5L385,345z"/>
		<path d="M376,357.5c1.4-1.7,3.3-3.7,4.8-6.2l1.4-2.1L375,344l-1.5,2.1c-1.5,1.9-2.8,3.7-4.3,5.7l-1.7,2.1l6.9,5.7L376,357.5z"/>
		<path d="M385,177.5l-1.5-2.4l-7.6,5l1.4,2.2c1.4,2.1,2.6,4.2,3.7,6.2l1.4,2.2l7.8-4.7l-1.4-2.2C387.7,181.8,386.5,179.8,385,177.5
			z"/>
		<path d="M392.7,331.7c1-2.1,2.1-4.3,3.5-6.9l1-2.4l-8.3-3.6l-1,2.4c-0.8,1.7-1.5,3.5-2.4,5.1l-1.9,3.6l7.9,4.3L392.7,331.7z"/>
		<path d="M366,368.7c1.7-1.9,3.5-3.6,5.1-5.7l1.9-2.1l-6.9-6.1l-1.7,2.1c-1.4,1.7-3,3.5-4.8,5.1l-1.9,1.9l6.8,6.2L366,368.7z"/>
		<path d="M354.8,379.4c0.8-0.8,1.9-1.7,2.8-2.4c0.8-0.8,1.9-1.7,2.8-2.6l2.1-1.9l-6.2-6.9l-1.9,1.9c-1.7,1.5-3.5,3.3-5.4,4.8
			l-2.1,1.7l5.8,6.9L354.8,379.4z"/>
		<path d="M399.6,315.9c0.7-1.9,1.4-3.6,2.1-5.5l1-2.6l-8.6-2.8l-0.8,2.4c-0.8,2.4-1.7,4.7-2.6,6.9l-0.8,2.4l8.4,3.5L399.6,315.9z"
			/>
		<path d="M409.9,257.2c0-2.4-0.1-5-0.3-7.6l-0.1-2.8l-9,0.7l0.6,12.6l6.5-0.1l2.6-0.1L409.9,257.2z"/>
		<path d="M262.8,116.2l2.6,0.1l0.6-9l-2.6-0.1c-2.6-0.1-5.1-0.1-7.6-0.1h-3v9h3C257.7,115.8,260.3,115.9,262.8,116.2z"/>
		<path d="M223.7,119.2l2.4-0.3c2.4-0.3,5-0.8,7.2-1.4l2.4-0.3l-1.4-8.9l-2.4,0.1c-2.4,0.1-5,0.7-7.6,1.4l-2.4,0.6L223.7,119.2z"/>
		<path d="M403.9,302.8c0.7-2.4,1.4-5,1.9-7.2l0.6-2.6l-8.9-2.1l-0.7,2.6c-0.3,2.1-1,4.3-1.9,6.9l-0.8,2.6l8.6,2.4L403.9,302.8z"/>
		<path d="M376,164.8l-1.7-2.1l-6.9,5.8l1.7,2.1c1.7,2.1,3,3.7,4.3,5.7l1.5,2.4l7.2-5.5l-1.5-2.1C379.3,169,377.9,166.9,376,164.8z"
			/>
		<path d="M407.4,287.9c0.3-2.2,0.8-5,1.2-7.6l0.1-2.6l-9-1l-0.3,3.5c-0.1,2.1-0.6,4.3-0.8,6.2l-0.3,2.6l8.9,1.5L407.4,287.9z"/>
		<path d="M409.2,272.7c0.1-2.6,0.1-5.1,0.1-7.8v-2.6l-9-0.1v2.8c0,2.4,0,4.8-0.1,7.1l-0.1,2.6l9,0.8L409.2,272.7z"/>
		<path d="M329.3,125.6l-2.4-1.2l-4.3,7.9l2.4,1.4c2.1,1.2,4.3,2.4,6.2,3.6l2.2,1.4l4.4-7.6l-2.1-1.4
			C333.6,128.1,331.4,126.7,329.3,125.6z"/>
		<path d="M315.4,118.7l-2.4-1l-3.6,8.3l2.4,1c2.1,1,4.3,2.1,6.8,3l2.4,1.2l4.3-8.3L321,121C319.2,120.5,317.4,119.6,315.4,118.7z"
			/>
		<path d="M270.7,107.5l-2.6-0.1l-0.8,9l12.6,1.5l1-9l-2.4-0.3C275.9,108,273.3,107.6,270.7,107.5z"/>
		<path d="M342.4,133.6l-2.2-1.5l-5.1,7.5l2.2,1.5c1.9,1.4,3.7,2.8,5.8,4.2l2.1,1.5l5.7-7.2l-2.2-1.5
			C346.7,136.8,344.8,135.3,342.4,133.6z"/>
		<path d="M286.1,110.1l-2.6-0.6l-1.9,9l2.6,0.6c2.4,0.3,4.8,1,6.9,1.5l2.6,0.7l2.4-8.9l-2.6-0.7C291,111.1,288.5,110.6,286.1,110.1
			z"/>
		<path d="M354.5,142.9l-2.1-1.5l-5.8,7.1l2.1,1.5c1.9,1.5,3.6,3.3,5.4,4.8l2.1,1.9l6.1-6.8l-1.9-1.9
			C358.4,146.4,356.4,144.6,354.5,142.9z"/>
		<path d="M300.7,113.7l-2.6-0.7l-2.6,8.6l2.4,0.7c2.2,0.7,4.4,1.5,6.9,2.4l2.6,1l2.8-8.4l-2.4-0.8
			C305.7,115.2,303.4,114.4,300.7,113.7z"/>
		<path d="M367.4,155c-0.3-0.3-0.8-0.8-1.4-1.4l-1.9-1.9l-6.5,6.2l1.9,1.9c1.5,1.5,3.5,3.6,5,5.4l1.9,2.1l6.8-5.8l-1.7-2.1
			C369.9,157.6,368.5,156.2,367.4,155z"/>
		<path d="M286.1,412.5c1.7-0.1,3.5-0.7,5-1c0.8-0.1,1.5-0.1,2.4-0.6l2.8-0.7l-2.4-8.9l-2.6,0.6c-1.2,0.1-2.4,0.6-3.5,0.8
			c-1.2,0.1-2.4,0.6-3.6,0.8l-2.6,0.6l1.9,8.6L286.1,412.5z"/>
		<path d="M315.4,403.5c2.4-0.8,4.7-2.1,6.9-3.3l2.4-1.2L321,391l-2.4,0.8c-1.2,0.6-2.2,0.8-3.5,1.5c-1,0.6-2.2,0.8-3.3,1.5l-2.4,1
			l3.6,8.3L315.4,403.5z"/>
		<path d="M329.4,396.7c1.9-1,4.3-2.4,6.8-3.7l2.1-1.4l-4.4-7.8l-2.2,1.4c-2.1,1.4-4.3,2.6-6.2,3.6l-2.4,1.4l4.3,7.9L329.4,396.7z"
			/>
		<path d="M342.4,388.8c1.9-1.4,3.7-2.8,6.2-4.4l2.1-1.5l-5.4-7.1l-3.5,2.4c-1.5,1-3,2.2-4.7,3.3L335,383l5.1,7.5L342.4,388.8z"/>
		<path d="M300.9,408.6c2.1-0.7,4.7-1.5,7.2-2.4l2.4-0.8l-3-8.4l-2.6,0.8c-2.1,0.8-4.4,1.5-6.9,2.4l-2.4,0.8l2.6,8.6L300.9,408.6z"
			/>
	</g>
	<g opacity="0.4">
		<path fill="#FFFFFF" d="M251.8,226.4c10.8,0.7,22.6-41,2.4-38.4S241,225.9,251.8,226.4z"/>
		<path fill="#FFFFFF" d="M289,232.8c20.2,0,58.3-51.1,22.4-51.1S268.7,232.8,289,232.8z"/>
		<path fill="#FFFFFF" d="M224,235.2c9.1-1.8,9.6-39.2-6.6-32.6C201.1,209.4,215,237,224,235.2z"/>
		<path fill="#FFFFFF" d="M262.6,354.3c17.9,0,38.4-16.1,42.2-36.6c2.9-15.5-34.6-9.3-33.2,1c1.7,12.3-9,18.4-19.5,10.5
			c-33.2-25.3,55.1-38,49.3-72.6c-4.8-28.7-92.9-19.8-102.9,25.1C191.6,312.2,226.4,354.3,262.6,354.3z"/>
		<path fill="#FFFFFF" d="M202.5,252.3c7.6-3.3,1-36.3-12.1-27.3C177.5,234.1,194.8,255.8,202.5,252.3z"/>
	</g>
	<g>
		<g>
			<path d="M252,229.9c-0.1,0-0.3,0-0.4,0l0.1-3.5l0.3-3.5l-0.3,3.5l0.3-3.5l0,0c1,0,3.3-1.7,5.7-6.4l6.2,3.2
				C260.4,226.3,256.3,229.9,252,229.9z M246,227.7c-3.2-2.5-5.8-7.2-7.2-12.9l6.8-1.7c1,4.2,2.9,7.6,4.8,9.1L246,227.7z
				 M265.6,216.1l-6.5-2.5c1.4-3.7,2.4-7.8,2.6-11.4l6.9,0.4C268.3,206.8,267.2,211.6,265.6,216.1z M238.1,210.7
				c-0.1-1.5-0.3-3.2-0.3-4.7c0-3.5,0.6-6.6,1.5-9.6l6.5,2.4c-0.7,2.1-1.1,4.6-1.1,7.2c0,1.2,0.1,2.5,0.3,3.7L238.1,210.7z
				 M261.5,198.7c-0.3-2.8-1.1-6.2-3.9-7.1l1.9-6.6c5.1,1.5,8.3,6.2,8.7,13.2L261.5,198.7z M247.3,196l-5.8-3.7
				c2.8-4.3,7.1-6.9,12.3-7.6c0.3,0,0.7-0.1,1-0.1l0.6,6.9c-0.1,0-0.4,0-0.7,0C251.3,192,248.9,193.3,247.3,196z"/>
		</g>
		<g>
			<path d="M289,236.3l-0.1-6.9h0.1c2.8,0,6.4-1.4,10.4-3.9l3.7,5.8C298,234.6,293.1,236.3,289,236.3z M283.7,235.3
				c-4.7-1.9-7.9-6.6-9-13.3l6.8-1.1c0.4,2.4,1.5,6.5,4.8,8L283.7,235.3z M306.6,228.8l-4.2-5.5c3.2-2.4,6.2-5.4,9.1-8.6l5.3,4.6
				C313.6,222.8,310,226.2,306.6,228.8z M274.3,217.6v-0.4c0-4.4,0.8-9.1,2.5-13.7l6.5,2.4c-1.4,3.7-2.1,7.6-2.1,11.4v0.4H274.3z
				 M319.4,216.1l-5.4-4.3c2.8-3.5,5-7.2,6.5-10.5l6.4,2.9C325,207.9,322.5,212,319.4,216.1z M284.7,202.3l-6.2-3
				c2.2-4.6,5-8.4,8.4-11.6l4.7,5C288.8,195.4,286.5,198.6,284.7,202.3z M328.4,200l-6.6-2.1c0.7-1.9,1-3.7,1-5.3
				c0-1.8-0.4-3.2-1.2-4.2l5.5-4.2c1.8,2.4,2.6,5.1,2.6,8.4C329.7,194.9,329.3,197.4,328.4,200z M294.4,190.4l-4-5.5
				c4-2.9,8.4-4.8,13.3-6l1.4,6.8C301.2,186.6,297.6,188.2,294.4,190.4z M319.6,186.7c-1.9-1.1-4.7-1.5-8.2-1.5l0,0
				c-1,0-1.8,0-2.8,0.1l-0.6-6.9c1.1-0.1,2.2-0.1,3.3-0.1l0,0c4.7,0,8.6,0.8,11.5,2.5L319.6,186.7z"/>
		</g>
		<g>
			<path d="M224.7,238.5l-0.7-3.3l-0.7-3.5h0.1c0.6-0.1,2.4-2.4,3.2-8.2l6.9,1C232.3,232.5,229.1,237.7,224.7,238.5z M218.6,237.5
				c-3.7-1.9-7.3-6.4-9.7-11.8l6.4-2.8c1.7,3.9,4.3,7.2,6.5,8.4L218.6,237.5z M207.4,221.5c-0.7-2.4-1-4.7-1-6.9
				c0-3.2,0.7-6.1,2.1-8.6l6.1,3.5c-0.8,1.4-1.2,3.2-1.2,5.3c0,1.5,0.3,3.3,0.7,5L207.4,221.5z M233.8,220.3l-6.9-0.3
				c0-0.4,0-0.7,0-1.1c0-4-0.7-7.8-1.8-10.2l6.2-2.9c1.7,3.5,2.5,8.2,2.5,13.2C233.8,219.4,233.8,219.8,233.8,220.3z M216.2,207.3
				l-4.4-5.3c1.2-1,2.6-1.9,4.3-2.5c4.7-1.9,9.1-1.1,12.3,2.1l-5,4.8c-1.2-1.2-2.8-1.4-4.8-0.6C217.8,206.2,216.9,206.8,216.2,207.3
				z"/>
		</g>
		<g>
			<path d="M262.6,357.8h-0.3v-6.9h0.3c3.9,0,8-0.8,12.2-2.5l2.6,6.4C272.3,356.8,267.4,357.8,262.6,357.8z M257.8,357.5
				c-4.7-0.4-9.6-1.5-14.4-3.3l2.4-6.5c4.3,1.5,8.4,2.5,12.6,2.9L257.8,357.5z M281.5,352.8l-3.2-6.1c3.7-1.9,7.3-4.4,10.5-7.5
				l4.7,5C289.9,347.6,285.9,350.5,281.5,352.8z M239.4,352.6c-4.3-1.9-8.6-4.3-12.6-7.2l4-5.7c3.7,2.6,7.6,4.8,11.5,6.5
				L239.4,352.6z M223.2,342.8c-3.7-2.9-7.3-6.4-10.5-10l5.1-4.6c2.9,3.3,6.2,6.4,9.7,9.1L223.2,342.8z M296.7,341l-5.1-4.6
				c2.9-3.3,5.4-6.9,7.1-10.7l6.2,2.9C303,333.1,300.2,337.3,296.7,341z M262.5,336.3l-0.6-6.9c3.2-0.3,5.4-2.5,6.1-6.1l6.8,1.2
				C273.7,331.2,268.9,335.7,262.5,336.3z M257.2,335.7c-2.5-0.7-5-1.9-7.2-3.7c-2.5-1.8-4.3-3.6-5.7-5.5l5.5-4.2
				c1,1.4,2.5,2.8,4.4,4.2c1.7,1.2,3.3,2.1,4.8,2.5L257.2,335.7z M209.9,329.5c-3-3.9-5.8-7.9-8-12.1l6.1-3.3
				c2.1,3.7,4.6,7.5,7.3,11.1L209.9,329.5z M306.7,324.4l-6.5-2.2c0.6-1.7,1-3.3,1.4-5c0-0.4,0.1-0.7,0.1-1c0-1.1-0.4-1.9-1.5-2.6
				l3.9-5.8c2.9,1.9,4.6,5,4.6,8.3c0,0.7-0.1,1.5-0.3,2.4C307.8,320.5,307.4,322.4,306.7,324.4z M241.7,321.7
				c-0.4-1.2-0.7-2.5-0.7-3.9c0-4,1.9-7.9,6.1-11.9l4.8,5c-2.8,2.6-4,5-4,7.1c0,0.6,0.1,1.1,0.3,1.7L241.7,321.7z M268.2,319.9
				c0-0.3,0-0.6-0.1-0.8c0-0.4,0-0.7,0-1c0-4.6,3.9-8.4,11.1-11.1l2.4,6.5c-4.4,1.5-6.5,3.6-6.5,4.6c0,0.4,0.1,0.8,0.1,1.2
				L268.2,319.9z M199.8,313.6c-2.2-4.7-3.7-9.3-4.7-13.9l6.8-1.4c0.8,4,2.2,8.2,4.2,12.3L199.8,313.6z M285.1,312.7l-1.5-6.8
				c5.4-1.2,11.1-1.2,15.4-0.3l-1.7,6.6C294.1,311.6,289.5,311.8,285.1,312.7z M254.9,308.4l-4.3-5.4c3.6-2.9,8-5.7,11.8-8.2
				l3.7,5.8C262.4,303,258.2,305.7,254.9,308.4z M269.6,298.5l-3.6-6l1-0.7c3.5-2.2,7.2-4.4,10.7-6.8l3.9,5.8
				c-3.6,2.4-7.3,4.7-10.8,6.9L269.6,298.5z M194.4,295.1c-0.3-1.8-0.3-3.6-0.3-5.4c0-3,0.3-6,1-8.7c0-0.3,0.1-0.6,0.1-0.8l6.8,1.7
				c0,0.3-0.1,0.4-0.1,0.7c-0.6,2.4-0.8,4.7-0.8,7.2c0,1.5,0.1,3,0.3,4.6L194.4,295.1z M285.1,288.6l-4-5.7c4.3-3,7.6-5.8,10.1-8.4
				l5,4.8C293.3,282.3,289.7,285.3,285.1,288.6z M203.1,278.1l-6.5-2.4c1.7-4.6,4.2-9,7.5-13l5.4,4.4
				C206.6,270.6,204.5,274.4,203.1,278.1z M299.1,275.8l-5.5-4.3c2.8-3.6,4.3-7.1,4.4-10.7l6.9,0.4
				C304.8,266.2,302.8,271,299.1,275.8z M212,264.4l-5-4.8c3.3-3.3,7.2-6.4,11.5-9.1l3.7,5.8C218.3,258.7,214.9,261.3,212,264.4z
				 M298,257.5v-0.1c-0.6-3.3-2.6-6.1-6.2-8.3l3.7-5.8c5.3,3.3,8.4,7.8,9.4,13v0.3L298,257.5z M225.7,254.1l-3.3-6.1
				c4-2.2,8.6-4.2,13.3-5.8l2.4,6.5C233.6,250.3,229.4,252.2,225.7,254.1z M241.7,247.5l-1.9-6.6c4.6-1.4,9.3-2.5,14-3.2l1.1,6.8
				C250.3,245.3,245.9,246.2,241.7,247.5z M288.5,247.2c-3.5-1.5-7.6-2.6-12.5-3.2l0.8-6.9c5.5,0.7,10.4,1.9,14.4,3.6L288.5,247.2z
				 M258.8,244l-0.7-6.9c5-0.6,9.8-0.7,14.4-0.4l-0.4,6.9C267.9,243.5,263.3,243.6,258.8,244z"/>
		</g>
		<g>
			<path d="M203.9,255.5l-2.8-6.4l0,0c0.3-0.1,1.1-1.7,1.1-5.5c0-1.4-0.1-2.9-0.4-4.6l6.8-1.1c0.3,1.9,0.6,3.9,0.6,5.7
				C209.2,249.9,207.2,254,203.9,255.5z M196.9,255.4c-4.6-1.8-9.3-6.5-12.1-12.1l6.2-3.2c1.9,4,5.4,7.6,8.4,8.7L196.9,255.4z
				 M182.9,238.5c-0.4-1.5-0.6-3-0.6-4.6c0-4.8,2.1-8.9,6.2-11.6c0.3-0.1,0.4-0.3,0.7-0.4l3.6,6c-0.1,0.1-0.3,0.1-0.4,0.3
				c-2.1,1.5-3.2,3.5-3.2,6c0,0.8,0.1,1.8,0.4,2.9L182.9,238.5z M201,235.3c-1.5-4.8-3.9-8.2-6-8.3l0.4-6.9
				c5.3,0.4,9.7,5.1,12.2,13.2L201,235.3z"/>
		</g>
	</g>
</g>
<g>
	<g>
		<polygon fill="#FFFFFF" points="398,276 398,264.2 389.1,264.2 389.1,269.6 384.1,271.6 387.2,279.6 		"/>
		<rect x="389.1" y="250" fill="#FFFFFF" width="8.6" height="12.6"/>
		<polygon fill="#FFFFFF" points="398,236.4 387.2,232.7 384.1,240.8 389.1,242.6 389.1,248 398,248 		"/>
		<polygon fill="#FFFFFF" points="382.6,240.4 370.8,236.1 373.7,227.8 385.6,232 		"/>
		<path fill="#FFFFFF" d="M364.9,221.6l-0.8-2.4l-8.4,2.8l0.8,2.4c0.7,1.5,1,3.5,1.5,5.1l0.6,2.2l10.2,3.6l3-8.3l-5.8-2.1
			C365.7,223.9,365.3,222.8,364.9,221.6z"/>
		<path fill="#FFFFFF" d="M352.1,212.7c0.8,2.1,1.7,3.7,2.4,5.8l0.8,2.4l8.4-3l-4.7-11.1l-8.2,3.6L352.1,212.7z"/>
		<path fill="#FFFFFF" d="M346.9,197.6l-1.9,1.9l0.8,1.5l0.8,1.4c0.8,1.5,1.9,3,2.6,4.7l1.4,2.4l7.8-4.2l-1.9-3.5
			c-0.1-0.7-0.8-1.4-1-2.1l2.6-5.5l-7.9-3.7L346.9,197.6z"/>
		<polygon fill="#FFFFFF" points="364.5,181.3 359,192.7 351,188.9 356.5,177.5 		"/>
		<polygon fill="#FFFFFF" points="355.9,167.3 359.6,171.2 357.1,176 365.3,179.7 370.1,169.4 361.8,161.2 		"/>
		<polygon fill="#FFFFFF" points="351.5,151 360.4,159.9 354.3,166 345.4,157.1 		"/>
		<polygon fill="#FFFFFF" points="332,146.4 335.6,154.4 340.5,152 344.1,155.8 350.3,149.7 342.4,141.4 		"/>
		<polygon fill="#FFFFFF" points="330.4,147.1 334.2,155.1 322.8,160.6 319,152.6 		"/>
		<path fill="#FFFFFF" d="M311.7,156.1c-0.1-0.1-0.7-0.1-0.8-0.6c-0.8-0.3-1.5-0.8-2.1-1.2l-2.4-1.4l-4,7.9l2.4,1.4
			c1.5,0.8,3.3,1.9,4.8,2.8l3,1.5l1.9-2.1l6.9-3.3l-3.7-7.9L311.7,156.1z"/>
		<path fill="#FFFFFF" d="M296.4,148.9l-2.4-0.8l-3.3,8.2l2.6,1c1.9,0.7,3.6,1.5,5.8,2.4l2.4,1l3.6-7.9l-2.4-1.2
			C300.5,150.4,298.4,149.7,296.4,148.9z"/>
		<path fill="#FFFFFF" d="M286.5,145.4l-2.1-5.8l-8.3,3l3.6,10.2l1.4,0.1l8.6,2.4l2.6-8.3l-2.4-0.8
			C288.8,146.2,287.6,145.7,286.5,145.4z"/>
		<polygon fill="#FFFFFF" points="279.5,126.3 283.8,138.2 275.4,141.1 271.2,129.3 		"/>
		<polygon fill="#FFFFFF" points="263.6,122.4 269,122.4 270.7,127.4 278.9,124.6 275.3,113.7 263.6,113.7 		"/>
		<rect x="249.2" y="113.7" fill="#FFFFFF" width="12.6" height="8.9"/>
		<polygon fill="#FFFFFF" points="232,124.6 240.1,127.3 242,122.4 247.1,122.4 247.1,113.7 235.6,113.7 		"/>
		<polygon fill="#FFFFFF" points="231.4,126 239.7,129 235.5,140.9 227.1,137.9 		"/>
		<path fill="#FFFFFF" d="M224.6,145.4c-1.2,0.1-2.2,0.7-3.6,1l-2.4,0.8l2.8,8.3l2.4-0.7c1.2-0.1,2.4-0.7,3.6-1l1.9-0.6l2.2-0.6
			l3.6-10.2l-8.3-3L224.6,145.4z"/>
		<path fill="#FFFFFF" d="M206,152.3l3.6,8.2l2.4-1c1.9-0.8,3.7-1.5,5.8-2.4l2.4-1l-3.3-8.2L206,152.3z"/>
		<path fill="#FFFFFF" d="M201.1,154.8c-0.7,0.1-1.4,0.7-2.1,1l-5.5-2.8l-3.6,7.9l6.8,3.3l1.9,2.1l3-1.5l0.1-0.1
			c1.5-1,3-1.9,4.7-2.8l2.4-1.2l-4-7.9L201.1,154.8z"/>
		<polygon fill="#FFFFFF" points="180.6,147.5 191.9,152.8 188.2,160.6 176.9,155.2 		"/>
		<polygon fill="#FFFFFF" points="160.3,149.7 166.7,155.8 170.3,152 175.2,154.4 178.8,146.4 168.6,141.4 		"/>
		<polygon fill="#FFFFFF" points="159.4,150.7 165.5,156.8 156.6,165.7 150.5,159.7 		"/>
		<polygon fill="#FFFFFF" points="140.9,169.4 145.7,179.7 153.6,176 151.3,171.2 155,167.3 148.9,161.2 		"/>
		<polygon fill="#FFFFFF" points="154.4,177.4 159.8,188.8 151.8,192.6 146.4,181.2 		"/>
		<path fill="#FFFFFF" d="M160.6,190.7l-7.9,3.7l2.8,5.5c-0.1,0.1-0.1,0.1-0.1,0.3c-0.6,0.8-1,1.9-1.5,2.8l-1.2,2.4l7.9,4l1.2-2.4
			c0.6-1,1-1.9,1.5-2.8c0.1-0.7,0.7-1.4,1-1.9l1.5-2.8l-1.9-1.9L160.6,190.7z"/>
		<path fill="#FFFFFF" d="M156.3,218.5c0.7-1.9,1.4-3.6,2.4-5.7l1.4-2.4l-8.3-3.6l-1,2.4c-1,2.1-1.9,4.2-2.8,6.2l-1,2.4l8.2,3.3
			L156.3,218.5z"/>
		<path fill="#FFFFFF" d="M142.1,235.4l10.2-3.6l0.1-1.4l2.4-8.6l-8.3-2.8l-0.8,2.4c-0.3,1.2-0.7,2.4-1,3.6l-5.8,2.1L142.1,235.4z"
			/>
		<polygon fill="#FFFFFF" points="137.3,227.9 140.3,236.3 128.4,240.5 125.4,232.1 		"/>
		<polygon fill="#FFFFFF" points="112.9,236.4 112.9,248 121.9,248 121.9,242.6 126.6,240.8 123.6,232.7 		"/>
		<rect x="112.9" y="250" fill="#FFFFFF" width="8.9" height="12.6"/>
		<polygon fill="#FFFFFF" points="112.9,276 123.6,279.6 126.6,271.6 121.9,269.6 121.9,264.2 112.9,264.2 		"/>
		<polygon fill="#FFFFFF" points="137.4,284.4 125.6,280.2 128.5,271.9 140.4,276.1 		"/>
		<path fill="#FFFFFF" d="M145.7,290.7l0.8,2.4l8.4-2.6l-1-2.6c-0.7-1.7-1-3.5-1.5-5.1l-0.6-2.2l-10-3.6l-3,8.3l5.8,2.1
			C145.1,288.3,145.6,289.5,145.7,290.7z"/>
		<path fill="#FFFFFF" d="M151.6,305.8l7.9-3.7l-1-2.4c-0.8-2.1-1.5-3.7-2.4-5.8l-1-2.6l-8.3,3.3L151.6,305.8z"/>
		<path fill="#FFFFFF" d="M164.2,314.9l1.9-1.9l-1.5-2.8h-0.1c-1-1.5-1.9-3-2.8-4.7l-1.2-2.4l-7.9,4l1.9,3.5c0.1,0.7,0.7,1.4,1,2.1
			l-2.8,5.5l7.9,3.7L164.2,314.9z"/>
		<polygon fill="#FFFFFF" points="146.6,331 152,319.8 159.7,323.4 154.4,334.7 		"/>
		<polygon fill="#FFFFFF" points="155,345.1 151.3,341.3 153.6,336.4 145.7,332.5 140.9,342.9 148.9,351.1 		"/>
		<polygon fill="#FFFFFF" points="159.2,361.5 150.3,352.5 156.4,346.5 165.3,355.4 		"/>
		<polygon fill="#FFFFFF" points="178.8,365.9 175.2,358 170.3,360.2 166.7,356.4 160.3,362.6 168.6,370.9 		"/>
		<polygon fill="#FFFFFF" points="180.7,365 177,357.3 188.2,351.9 191.9,359.7 		"/>
		<path fill="#FFFFFF" d="M199.1,356.4c0.1,0.1,0.7,0.1,1,0.6c0.7,0.3,1.5,0.8,2.1,1.2l2.4,1.4l4.2-7.8l-2.4-1.4
			c-1.5-0.8-3.3-1.9-4.8-2.6l-3-1.5l-1.9,1.9l-6.9,3.3l3.7,7.9L199.1,356.4z"/>
		<path fill="#FFFFFF" d="M214.7,363.6l2.4,0.8l3-8.3l-2.4-0.8c-1.9-0.7-3.6-1.5-5.8-2.4l-2.4-1l-3.6,7.9l2.4,1
			C210.4,361.9,212.6,362.6,214.7,363.6z"/>
		<path fill="#FFFFFF" d="M224.6,366.7l2.1,5.8l8.3-3l-3.6-10.2l-1.4-0.1l-8.6-2.6l-2.8,8.3l2.4,0.8
			C222.1,366,223.3,366.6,224.6,366.7z"/>
		<polygon fill="#FFFFFF" points="231.2,386.2 227,374.3 235.4,371.3 239.6,383.2 		"/>
		<polygon fill="#FFFFFF" points="247.1,390 242,390 240.1,384.9 232,387.5 235.6,398.7 247.1,398.7 		"/>
		<rect x="249.2" y="390" fill="#FFFFFF" width="12.6" height="8.6"/>
		<polygon fill="#FFFFFF" points="278.9,387.5 270.7,384.9 269,390 263.6,390 263.6,398.7 275.3,398.7 		"/>
		<polygon fill="#FFFFFF" points="283.7,374.2 279.4,386.1 271.1,383.1 275.3,371.2 		"/>
		<path fill="#FFFFFF" d="M286.2,366.7c1.2-0.1,2.2-0.7,3.5-1l2.4-0.8l-2.6-8.4l-2.6,0.8c-1.7,0.7-3.5,1-5.1,1.5l-2.2,0.6l-3.6,10.2
			l8.3,3L286.2,366.7z"/>
		<path fill="#FFFFFF" d="M296.4,363.6c1.9-0.7,3.7-1.5,6.1-2.6l2.4-1l-3.5-8.2l-2.4,1c-2.1,0.8-3.7,1.7-5.8,2.4l-2.6,0.8l3.3,8.2
			L296.4,363.6z"/>
		<path fill="#FFFFFF" d="M308.5,358c1-0.6,2.1-1.2,3-1.9l5.4,2.6l3.7-7.9l-6.9-3.3l-1.9-1.9l-1.7,0.8l-1.4,0.8
			c-1.5,0.8-3,1.9-4.7,2.6l-2.4,1.2l4,7.9L308.5,358z"/>
		<polygon fill="#FFFFFF" points="330.2,364.8 319,359.5 322.7,351.7 333.9,357.1 		"/>
		<polygon fill="#FFFFFF" points="350.3,362.6 344.1,356.4 340.5,360.2 335.6,358 332,365.9 342.4,370.9 		"/>
		<polygon fill="#FFFFFF" points="351.6,361.2 345.5,355.1 354.5,346.2 360.5,352.2 		"/>
		<polygon fill="#FFFFFF" points="370.1,342.9 365.3,332.5 357.1,336.4 359.6,341.3 355.9,345 361.8,351.1 		"/>
		<polygon fill="#FFFFFF" points="356.4,334.4 351,323.2 358.8,319.5 364.1,330.7 		"/>
		<path fill="#FFFFFF" d="M350.2,321.7l7.9-3.6l-2.6-5.5c0.1-0.1,0.1-0.7,0.6-0.8c0.3-0.8,0.8-1.5,1.2-2.1l1.4-2.4l-7.8-4l-1.4,2.4
			c-0.8,1.5-1.9,3.3-2.6,4.8l-1.5,3l1.9,1.9L350.2,321.7z"/>
		<path fill="#FFFFFF" d="M354.5,294c-0.7,1.9-1.5,3.6-2.4,5.8l-1,2.4l7.9,3.5l1-2.4c1-2.2,1.9-4.3,2.6-6.2l0.8-2.4l-7.9-3.3
			L354.5,294z"/>
		<path fill="#FFFFFF" d="M368.9,276.8l-10.2,3.6l-0.1,1.4l-2.6,8.6l8.3,2.6l0.8-2.4c0.3-1.2,0.8-2.4,1-3.5l5.8-2.1L368.9,276.8z"/>
		<polygon fill="#FFFFFF" points="373.3,284.5 370.4,276.4 382.2,272.2 385,280.3 		"/>
		<path fill="#FFFFFF" d="M117.2,428.5c-1.5-1.4-3.6-2.8-5.1-4.3l-2.1-1.9l-5.8,6.9l9.7,7.9l5.4-6.9L117.2,428.5z"/>
		<path fill="#FFFFFF" d="M474.7,290c-0.1,2.4-0.8,4.8-1.2,6.8l-0.6,2.6l8.6,1.5l0.3-2.6c0.1-1,0.3-2.2,0.6-3.3
			c0.1-1.2,0.3-2.4,0.7-3.6l0.6-2.6l-8.9-1.4V290z"/>
		<path fill="#FFFFFF" d="M128.3,436.8c-2.1-1.5-3.7-2.8-5.4-3.7l-2.1-1.5l-5.4,6.9l2.1,1.5c1.9,1.4,3.7,2.8,5.7,4.3l1.5-2.1l0,0
			l-1.5,2.1l2.2,1.5l5-7.2L128.3,436.8z"/>
		<path fill="#FFFFFF" d="M106.8,419.8c-1.5-1.5-3.3-3-5-4.4l-1.9-1.9l-6.2,6.2l9,8.4l5.8-6.8L106.8,419.8z"/>
		<path fill="#FFFFFF" d="M139.6,444.6c-1.9-1.2-3.7-2.4-5.8-3.6l-2.2-1.5l-5,7.2l2.2,1.5c1.4,0.8,2.8,1.9,4.3,2.8l3.7,2.4l5-7.2
			L139.6,444.6z"/>
		<path fill="#FFFFFF" d="M97.1,410.4c-1.5-1.5-3-3.3-4.7-5l-1.9-1.9l-6.5,6.1l8.4,9l6.2-6.1L97.1,410.4z"/>
		<path fill="#FFFFFF" d="M88,400.3c-1-1-1.9-2.1-2.8-3.3c-0.6-0.7-1-1.4-1.5-1.9l-1.5-2.1l-6.8,5.4l1.5,2.1c1.5,1.9,3,3.6,4.4,5.4
			l1.5,1.9l6.8-5.5L88,400.3z"/>
		<path fill="#FFFFFF" d="M464.9,329.6c-0.8,2.6-1.5,4.4-2.2,6.4l-0.8,2.4l8.3,3.3l1.5-3.7c0.7-1.7,1.4-3.5,1.9-5.4l0.8-2.4l-8.3-3
			L464.9,329.6z"/>
		<path fill="#FFFFFF" d="M150,450.7c-1.5-0.8-3-1.7-4.4-2.6l-2.4-1.4l-4.4,7.6l2.2,1.4c1.5,1,3.6,2.2,6.2,3.5l2.2,1.2l4.4-7.6
			L150,450.7z"/>
		<path fill="#FFFFFF" d="M79.4,389.6c-1.2-1.5-2.4-3.3-3.7-5.4l-1.5-2.2l-7.1,5.1l1.5,2.1c1.4,1.9,2.8,3.7,4.2,5.7l1.5,2.1l6.8-5.4
			L79.4,389.6z"/>
		<path fill="#FFFFFF" d="M460,342.4c-0.8,1.9-1.9,4-2.6,6.1l-1,2.4l7.9,3.7l5.1-11.4l-8.2-3.5L460,342.4z"/>
		<path fill="#FFFFFF" d="M470.1,312.4l8.4,2.2l0.7-2.6c0.6-2.1,1-4.4,1.7-6.8l0.8-2.6l-8.6-1.9L470.1,312.4z"/>
		<path fill="#FFFFFF" d="M48.8,333.9l-8.2,3.3l1,2.4c1,2.6,1.9,4.7,2.8,6.8l1,2.4l7.9-3.5L48.8,333.9z"/>
		<path fill="#FFFFFF" d="M454.1,354.8c-1,2.1-2.1,4.3-3.3,6.1l-1.2,2.4l7.8,4l1.4-2.2c1-1.9,2.2-4,3.3-6.5l1-2.4l-7.8-3.6
			L454.1,354.8z"/>
		<path fill="#FFFFFF" d="M469,316.5c-0.8,2.6-1.4,4.4-2.1,6.5l-0.8,2.6l8.3,2.6l0.8-2.4c0.7-1.9,1.2-3.7,1.9-5.8l1-3.6l-8.4-2.4
			L469,316.5z"/>
		<path fill="#FFFFFF" d="M323.2,467c-1.7,0.6-3.5,1-5.1,1.5l-3.7,1.2l2.4,8.4l2.6-0.8c2.2-0.7,4.4-1.4,6.9-2.1l2.4-0.8l-2.6-8.4
			L323.2,467z"/>
		<path fill="#FFFFFF" d="M348.5,457.2c-2.2,1-4.3,1.9-6.1,2.6l-2.6,1l3.5,8.3l11.4-5.1l-3.7-7.9L348.5,457.2z"/>
		<path fill="#FFFFFF" d="M300.9,473l1.9,8.6l3.6-0.8c1.9-0.3,3.7-0.8,5.8-1.5l2.4-0.8l-2.1-8.3L300.9,473z"/>
		<path fill="#FFFFFF" d="M336.3,462.6c-1.4,0.3-2.6,0.8-3.7,1.4c-0.8,0.1-1.9,0.7-2.6,0.8l-2.6,0.8l3,8.3l2.4-0.8
			c2.1-0.8,4.3-1.5,6.8-2.4l2.6-0.8l-3.3-7.9L336.3,462.6z"/>
		<path fill="#FFFFFF" d="M296.9,473.7c-2.1,0.3-4.3,0.8-6.8,1.2l-2.6,0.3l1.4,8.6l2.6-0.1c2.4-0.1,4.8-0.8,6.9-1.2l2.6-0.6
			l-1.5-8.6L296.9,473.7z"/>
		<path fill="#FFFFFF" d="M415,410.4c-1,1-2.1,2.1-3.3,3.3c-0.6,0.6-1,1-1.5,1.5l-1.9,1.9l6.1,6.1l8.6-8.6l-6.2-6.2L415,410.4z"/>
		<path fill="#FFFFFF" d="M372.6,444.6c-0.8,0.6-1.9,1.2-2.8,1.7c-0.8,0.7-2.1,1.2-3,1.9l-2.2,1.4l4.3,7.6l2.4-1.4
			c1.9-1.2,3.7-2.4,5.8-3.5l2.2-1.4l-4.4-7.6L372.6,444.6z"/>
		<path fill="#FFFFFF" d="M394.7,428.7c-1.9,1.5-3.6,2.8-5.4,4.3l-2.1,1.5l5.4,6.9l2.1-1.5c1.9-1.4,3.6-2.8,5.7-4.4l1.9-1.7
			l-5.4-6.8L394.7,428.7z"/>
		<path fill="#FFFFFF" d="M352.7,455.7l3.7,7.9l2.4-1.4c0.8-0.6,2.1-1,3-1.5s2.1-1,3-1.5l2.4-1.4l-4-7.8L352.7,455.7z"/>
		<path fill="#FFFFFF" d="M405.2,419.7c-1.7,1.5-3.5,3-5,4.4l-1.9,1.7l5.7,6.8l2.1-1.9c1.7-1.5,3.5-3,5.4-4.8l1.9-1.9l-6.1-6.5
			L405.2,419.7z"/>
		<path fill="#FFFFFF" d="M384,436.8c-1.7,1.4-3.6,2.6-5.5,3.7l-2.2,1.5l5,7.2l3.3-2.1c1.7-1.2,3.3-2.2,5-3.5l2.1-1.5l-5.1-6.9
			L384,436.8z"/>
		<path fill="#FFFFFF" d="M424,400.3c-0.8,0.8-1.5,1.7-2.2,2.6c-0.8,0.8-1.5,1.7-2.4,2.6l-1.7,1.9l6.5,6.1l2.2-2.6
			c1.4-1.5,2.8-3,4.3-4.4l1.9-2.1l-6.9-5.8L424,400.3z"/>
		<path fill="#FFFFFF" d="M235.8,476.6l-2.8-0.1l-0.8,8.6l2.8,0.1c2.2,0.1,4.7,0.3,7.1,0.6h2.8l0.6-8.6h-2.8
			C240.2,477.1,238,476.7,235.8,476.6z"/>
		<path fill="#FFFFFF" d="M432.6,389.6c-0.7,0.8-1.4,1.9-2.1,2.6c-0.8,0.8-1.5,1.9-2.1,2.8l-1.5,2.1l6.8,5.4l1.7-2.1
			c0.8-1,1.7-2.1,2.6-3.3c0.7-0.8,1.2-1.5,1.9-2.2l1.7-2.1l-6.9-5.4L432.6,389.6z"/>
		<path fill="#FFFFFF" d="M222.3,474.8l-2.4-0.3l-1.4,8.6l2.8,0.3c2.2,0.1,4.4,0.7,6.9,0.8l2.8,0.1l1-8.6l-5.8-0.8
			C224.6,475.3,223.3,475.2,222.3,474.8z"/>
		<path fill="#FFFFFF" d="M202.3,471c-1.2-0.1-2.4-0.8-3.6-1c-1-0.1-1.9-0.6-2.8-0.8l-2.4-0.8l-2.4,8.4l2.4,0.8
			c2.4,0.7,4.7,1.4,6.8,1.9l2.4,0.7l2.1-8.3L202.3,471z"/>
		<path fill="#FFFFFF" d="M209,472.4l-2.8-0.7l-1.9,8.6l2.4,0.7c2.2,0.6,4.4,0.8,6.9,1.4l2.4,0.3l1.2-6.1l0.3-2.6l-2.4-0.6
			C213.3,473.3,211.1,473,209,472.4z"/>
		<path fill="#FFFFFF" d="M57.9,354.8c-0.7-1.5-1.5-3-2.2-4.4l-1.9-3.7l-7.9,3.7l1,2.4c1,2.1,1.9,4.3,3,6.4l1.4,2.4l7.9-4
			L57.9,354.8z"/>
		<path fill="#FFFFFF" d="M64.3,367c-1.4-2.1-2.4-4-3.3-5.8l-1.4-2.4l-7.9,4l1.4,2.4c1,2.1,2.4,4.3,3.5,6.1l1.4,2.2l7.9-4.3
			L64.3,367z"/>
		<path fill="#FFFFFF" d="M71.5,378.5c-1.4-1.9-2.8-4.3-3.6-5.7l-1.4-2.2l-7.6,4.4l1.4,2.2c1.4,2.1,2.4,4.3,3.7,6.1l1.5,2.1l7.6-4.8
			L71.5,378.5z"/>
		<path fill="#FFFFFF" d="M447.7,366.7c-1,1.9-2.4,3.7-3.5,5.8l-1.4,2.2l7.5,4.4l1.4-2.2c1.4-2.1,2.6-4.3,3.6-6.2l1.2-2.2l-7.6-4.3
			L447.7,366.7z"/>
		<path fill="#FFFFFF" d="M440.6,378.5c-0.7,0.8-1.4,1.9-1.9,2.8c-0.7,0.8-1.4,1.9-2.1,2.8l-1.4,2.1l6.9,5.1l1.5-2.4
			c1.4-1.9,2.6-3.7,3.7-5.7l1.5-2.2l-7.2-5L440.6,378.5z"/>
		<path fill="#FFFFFF" d="M249.5,477.4h-2.8l-0.1,8.6h2.8c2.4,0,4.7,0,6.9,0h2.8v-8.6h-3C253.9,477.4,251.7,477.4,249.5,477.4z"/>
		<path fill="#FFFFFF" d="M283.3,475.8c-2.1,0.1-4.3,0.6-6.1,0.7l-3,0.1l0.8,8.6l3.3-0.1c2.1-0.1,4.3-0.3,6.4-0.8l2.6-0.1l-1-8.6
			L283.3,475.8z"/>
		<path fill="#FFFFFF" d="M269,477.1c-2.1,0-4,0.1-5.8,0.1l-2.8,0.1l0.1,8.6h2.6c2.4,0,4.8,0,7.2-0.1l2.6-0.1l-0.6-8.6H269z"/>
		<path fill="#FFFFFF" d="M262.9,35l2.6,0.1l0.1-8.9l-2.6-0.1c-2.4-0.1-4.8-0.1-7.1-0.1h-3v8.9h3C258.1,34.7,260.4,34.7,262.9,35z"
			/>
		<path fill="#FFFFFF" d="M117.1,83.8c2.1-1.5,3.7-3,5.4-4l2.4-1.5l-5.4-7.1l-2.1,1.5c-2.1,1.5-3.7,2.8-5.7,4.4l-2.1,1.5l5.4,6.8
			L117.1,83.8z"/>
		<path fill="#FFFFFF" d="M106.7,92.8c1.5-1.5,3.5-3,5.1-4.7l1.9-1.5l-5.7-6.8l-2.1,1.9c-0.8,0.7-1.5,1.5-2.4,2.2
			c-0.8,0.7-1.9,1.5-2.8,2.4l-1.9,1.9l5.8,6.4L106.7,92.8z"/>
		<path fill="#FFFFFF" d="M128.7,75.2c1.5-1,3.3-2.2,4.8-3.3l2.4-1.5l-3.5-5.1l-1.5-2.2l-2.2,1.5c-1.9,1.4-3.7,2.4-5.8,3.7l-2.1,1.5
			l5,7.1L128.7,75.2z"/>
		<path fill="#FFFFFF" d="M228.2,36.4c1.2-0.1,2.4-0.1,3.6-0.3s2.2-0.1,3.3-0.1l2.8-0.1L237,27l-3.3,0.3c-2.1,0.1-4.3,0.3-6.5,0.7
			l-2.4,0.3l1,8.6L228.2,36.4z"/>
		<path fill="#FFFFFF" d="M79.4,122.8c1.4-1.9,2.8-3.6,4.2-5.7l1.5-2.1l-6.8-5.4l-1.5,2.1c-0.7,0.8-1.4,1.9-2.1,2.8
			c-0.7,1-1.5,1.9-2.1,2.8l-1.5,2.1l7.1,5.4L79.4,122.8z"/>
		<path fill="#FFFFFF" d="M93.8,105.2l-6.5-5.8l-1.9,2.1c-0.6,0.6-1,1.2-1.5,1.5c-1,1.2-2.1,2.4-3,3.6l-1.5,2.1l6.8,5.7L93.8,105.2z
			"/>
		<path fill="#FFFFFF" d="M139.4,68.1c1.4-0.8,2.8-1.9,4.2-2.4c0.6-0.1,1-0.7,1.5-1l2.2-1.4l-4.4-7.6l-2.4,1.4
			c-1.5,0.8-3,1.9-4.4,2.8l-3.7,2.4l4.4,7.6L139.4,68.1z"/>
		<path fill="#FFFFFF" d="M189.9,45c1.5-0.6,3.5-1,5.1-1.5l2.4-0.8l-2.4-8.3l-2.4,0.7c-2.2,0.7-4.4,1.4-6.8,2.1l-2.4,0.8l2.8,8.3
			L189.9,45z"/>
		<path fill="#FFFFFF" d="M201.6,41.7c2.1-0.6,4.4-1,6.8-1.5l2.8-0.6l-1.9-8.9l-2.8,0.7c-1,0.1-2.2,0.6-3.5,0.7
			c-1.2,0.3-2.4,0.6-3.5,0.8l-2.8,0.7l2.1,8.4L201.6,41.7z"/>
		<path fill="#FFFFFF" d="M214.9,38.7c2.1-0.3,4.4-0.8,6.8-1.2l2.8-0.3l-1.4-8.6l-2.4,0.3c-2.4,0.3-4.8,0.7-7.1,1.2l-2.4,0.6
			l1.5,8.6L214.9,38.7z"/>
		<path fill="#FFFFFF" d="M477.2,249.3c0,2.2,0,4.4,0,6.8v2.8h8.6v-2.8c0-2.4,0-4.8,0-7.1v-2.8l-8.6,0.1V249.3z"/>
		<path fill="#FFFFFF" d="M151,61.2c2.1-1,4-2.1,6.2-3.3l2.4-1.2l-4-7.9l-2.4,1c-1.5,0.7-3.3,1.5-4.8,2.4l-3.7,2.1l4,7.9L151,61.2z"
			/>
		<path fill="#FFFFFF" d="M164.6,54.4c1.5-0.7,3-1.4,4.7-2.1l2.4-1L168,43l-11.4,5l3.7,7.9L164.6,54.4z"/>
		<path fill="#FFFFFF" d="M175.7,49.7c2.1-0.8,4.2-1.5,6.2-2.2l2.8-0.7l-2.9-8.4l-2.4,0.8c-2.1,0.7-4.2,1.5-6.8,2.4l-2.4,1l3.3,8.2
			L175.7,49.7z"/>
		<path fill="#FFFFFF" d="M71.4,134.2c1.4-1.9,2.4-3.7,3.7-5.5l1.5-2.1l-7.1-5.1l-1.5,2.4c-0.7,1-1.4,1.9-1.9,2.8
			c-0.7,1-1.4,1.9-2.1,2.8l-1.5,2.2l7.2,5L71.4,134.2z"/>
		<path fill="#FFFFFF" d="M97,102.3c1.5-1.5,3-3.3,4.8-4.8l2.1-1.9l-6.2-6.2l-1.9,1.9c-0.6,0.6-1,1-1.5,1.5c-1,1-2.2,2.2-3.5,3.5
			l-1.9,1.9l6.2,6.2L97,102.3z"/>
		<path fill="#FFFFFF" d="M35.6,276.8c-0.1-2.2-0.3-4.4-0.6-6.8l-0.1-2.6l-8.9,0.6l0.1,2.6c0.1,2.4,0.3,4.7,0.6,6.9l0.1,2.6l8.6-0.8
			v-2.5L35.6,276.8L35.6,276.8z"/>
		<path fill="#FFFFFF" d="M64.3,145.7c1.4-2.1,2.4-3.7,3.6-5.8l1.5-2.4l-7.6-4.4l-1.4,2.1c-1.4,2.1-2.4,4-3.6,6.1l-1.4,2.4l7.6,4.4
			L64.3,145.7z"/>
		<path fill="#FFFFFF" d="M162.1,456.6c-1.5-0.8-3-1.5-4.4-2.2l-2.4-1.4l-3.7,7.9l2.4,1.2c0.7,0.1,1.4,0.7,2.1,0.8
			c1.4,0.7,2.8,1.4,4.3,2.1l2.4,1l3.6-7.9L162.1,456.6z"/>
		<path fill="#FFFFFF" d="M34.8,249.4c0-2.1,0.1-4.4,0.1-6.8l0.1-2.8l-9-0.4l-0.6,12.5l9,0.1L34.8,249.4L34.8,249.4z"/>
		<path fill="#FFFFFF" d="M47.1,330.2c-0.6-1.4-1-2.6-1.4-3.7c-0.1-0.8-0.6-1.5-0.8-2.4l-0.8-2.4l-8.4,2.6l0.8,2.6
			c0.7,2.1,1.5,4.3,2.2,6.8l0.8,2.6l8.4-3L47.1,330.2z"/>
		<path fill="#FFFFFF" d="M39.8,303.7c-0.6-2.1-1-4.4-1.4-6.8l-0.6-2.6l-8.6,1.5l0.7,3.5c0.3,2.1,0.7,4,1.4,6.1L32,308l8.6-1.9
			L39.8,303.7z"/>
		<path fill="#FFFFFF" d="M43.2,317c-0.7-2.6-1.4-4.4-1.9-6.5l-0.7-2.6l-8.3,2.1l0.7,2.6c0.6,2.4,1.2,4.4,1.9,6.9l0.7,2.6l8.4-2.4
			L43.2,317z"/>
		<path fill="#FFFFFF" d="M34.8,263.3c-0.1-2.2-0.1-4.4-0.1-6.9v-2.8h-8.9v2.8c0,2.4,0,4.8,0.1,7.1l0.1,2.6l8.9-0.1L34.8,263.3z"/>
		<path fill="#FFFFFF" d="M52.2,170.1c0.7-1.9,1.5-3.7,2.8-6.2l1.2-2.4l-7.9-3.7l-1,2.4c-1,2.2-2.1,4.4-3,6.8l-1,2.4l8.2,3.6
			L52.2,170.1z"/>
		<path fill="#FFFFFF" d="M47,182.8c0.6-1.5,1.4-4,2.2-6.4l1-2.4l-8.3-3.3l-1.5,3.7c-0.7,1.5-1.4,3.5-1.9,5.1l-0.8,2.4l8.3,3
			L47,182.8z"/>
		<path fill="#FFFFFF" d="M57.8,157.9c0.7-1.5,1.9-3.7,3-5.8l1.5-2.4l-7.9-4.2l-1.4,2.4c-1,2.1-2.1,4-3.3,6.2l-1.2,2.4l7.9,3.7
			L57.8,157.9z"/>
		<path fill="#FFFFFF" d="M39.8,209.1c0.3-2.1,1-4.4,1.5-6.8L42,200l-8.3-2.2l-0.7,2.8c-0.3,1.2-0.6,2.2-0.8,3.5
			c-0.1,1.2-0.6,2.2-0.7,3.5l-0.7,2.8l8.6,1.9L39.8,209.1z"/>
		<path fill="#FFFFFF" d="M37.2,222.7c0.1-2.4,0.7-4.7,1.2-6.8l0.6-2.8l-8.6-1.5l-0.7,3.6c-0.3,2.1-0.7,4-1,6.1l-0.3,2.4L37,225
			L37.2,222.7z"/>
		<path fill="#FFFFFF" d="M35.6,236c0.1-2.1,0.3-4.3,0.7-6.8l0.3-2.8l-8.9-1l-0.3,2.4c-0.3,2.4-0.6,4.7-0.7,7.1l-0.1,2.8l8.9,0.8
			L35.6,236z"/>
		<path fill="#FFFFFF" d="M43.4,194.4c0.6-1.5,1-3.5,1.5-5l0.8-2.4l-8.4-2.8l-0.8,2.4c-0.7,2.4-1.4,4.4-2.1,6.8l-0.7,2.4l8.4,2.4
			L43.4,194.4z"/>
		<path fill="#FFFFFF" d="M37.3,290.4c-0.1-1.2-0.1-2.2-0.6-3.5l-0.8-6.1l-8.6,1l0.3,2.8c0.3,2.2,0.7,4.4,1,6.8l0.3,2.6l8.6-1.4
			L37.3,290.4z"/>
		<path fill="#FFFFFF" d="M440.6,133.9c1.4,1.9,2.6,3.7,3.6,5.7l1.4,2.4l7.2-4.7l-1.4-2.2c-1.4-2.1-2.6-4.2-3.7-5.8l-1.5-2.2l-7.2,5
			L440.6,133.9z"/>
		<path fill="#FFFFFF" d="M447.8,145.4c0.1,0.6,0.7,1.2,0.8,1.9c0.8,1.4,1.5,2.8,2.2,4.2l1.4,2.4l7.8-4l-1.4-2.4
			c-1-2.1-2.4-4.2-3.5-6.2l-1.4-2.4l-7.6,4.4L447.8,145.4z"/>
		<path fill="#FFFFFF" d="M432.6,122.8c1.2,1.5,2.4,3.3,3.7,5.4l1.5,2.1l7.2-5l-1.5-2.2c-1.4-1.9-2.8-3.7-4.3-5.8l-1.5-2.1l-6.9,5.4
			L432.6,122.8z"/>
		<path fill="#FFFFFF" d="M463.5,178.5l8.3-3.3l-1.5-3.7c-0.7-1.5-1.4-3.5-2.1-5l-1-2.4l-7.9,3.5L463.5,178.5z"/>
		<path fill="#FFFFFF" d="M464.9,182.5c0.7,1.5,1,3,1.5,4.7c0.1,0.6,0.1,1,0.6,1.5l0.8,2.4l8.4-2.8l-0.8-2.4
			c-0.8-2.2-1.5-4.4-2.2-6.8l-0.8-2.4l-8.6,3L464.9,182.5z"/>
		<path fill="#FFFFFF" d="M424.2,112.2c0.3,0.6,0.8,1.2,1.4,1.5c1,1.2,2.1,2.4,2.8,3.6l1.7,2.1l6.9-5.7l-1.9-2.1
			c-1.5-1.5-3-3.6-4.4-5.1l-1.7-2.1l-6.8,5.7L424.2,112.2z"/>
		<path fill="#FFFFFF" d="M454.1,157.4c0.8,1.5,1.5,3,2.2,4.4l1.9,3.7l7.9-3.6l-1-2.4c-0.8-2.2-1.9-4.3-3-6.4l-1.2-2.4l-7.9,3.7
			L454.1,157.4z"/>
		<path fill="#FFFFFF" d="M477.5,259.9v2.6c0,2.4-0.1,4.7-0.1,6.9v2.6l8.6,0.6l0.6-12.5L477.5,259.9z"/>
		<path fill="#FFFFFF" d="M415,102.3c1.5,1.5,3,3.3,4.4,5l1.9,2.1l6.8-5.8l-8.4-9l-6.2,6.2L415,102.3z"/>
		<path fill="#FFFFFF" d="M476.4,277.1c-0.1,2.1-0.3,4.3-0.7,6.1l-0.3,2.6l8.9,1l0.1-2.8c0-1.2,0.1-2.4,0.3-3.6c0-1,0.1-2.2,0.1-3.3
			l0.1-2.6l-8.6-0.8L476.4,277.1L476.4,277.1z"/>
		<path fill="#FFFFFF" d="M176.1,462.6c-1.4-0.3-2.8-1-4.2-1.5c-0.7-0.1-1.5-0.7-2.1-0.8l-2.4-0.8l-3.5,7.9l2.4,1
			c1.5,0.8,3.6,1.5,5.1,2.1l3.7,1.5l3.3-8.4L176.1,462.6z"/>
		<path fill="#FFFFFF" d="M189.2,467c-2.2-0.8-4.4-1.5-6.8-2.2l-2.4-0.8l-3,8.3l2.4,0.8c2.1,0.8,4.3,1.5,6.4,2.1l2.8,0.8l3-8.3
			L189.2,467z"/>
		<path fill="#FFFFFF" d="M468.8,195.5c0.6,1.9,1.2,4,1.9,6.5l0.7,2.8l8.4-2.2l-0.7-2.4c-0.6-2.4-1.2-4.4-1.9-6.8l-0.8-2.4l-8.4,2.4
			L468.8,195.5z"/>
		<path fill="#FFFFFF" d="M405.3,92.8c1.5,1.5,3.3,3,5,4.4l1.9,1.9l6.2-6.2l-9-8.4l-6.1,6.5L405.3,92.8z"/>
		<path fill="#FFFFFF" d="M360.6,61c1,0.7,2.1,1.2,3,1.5c0.8,0.6,2.1,1,3,1.5l2.4,1.4l4-7.9l-2.1-1.4c-1.7-1-3.6-2.2-6.1-3.6
			l-2.4-1.4l-4,7.9L360.6,61z"/>
		<path fill="#FFFFFF" d="M309.9,41.5c1.2,0.1,2.4,0.7,3.6,1c0.8,0.1,1.9,0.6,2.8,0.7l2.6,0.7l2.4-8.4l-2.6-0.7
			c-2.4-0.7-4.7-1.4-6.9-1.9l-2.4-0.7l-2.1,8.3L309.9,41.5z"/>
		<path fill="#FFFFFF" d="M303.4,39.9l2.6,0.7l1.9-8.6l-2.6-0.7c-2.1-0.3-4-0.8-6.1-1.4l-3.5-0.7l-1.5,8.6l2.6,0.6
			C298.9,38.9,301.2,39.4,303.4,39.9z"/>
		<path fill="#FFFFFF" d="M323,45.1c1,0.3,2.2,0.7,3.3,1.2c1,0.1,2.1,0.7,3.3,1l2.4,0.8l3-8.3l-2.6-0.8c-2.1-0.7-4.3-1.5-6.8-2.2
			L323,36l-2.6,8.3L323,45.1z"/>
		<path fill="#FFFFFF" d="M289.9,37.5l2.6,0.1L294,29l-2.6-0.3c-2.2-0.3-4.4-0.7-6.9-1l-2.8-0.3l-1,8.6l6.1,0.8
			C287.6,37.1,288.8,37.4,289.9,37.5z"/>
		<path fill="#FFFFFF" d="M476.4,235.6c0.1,2.1,0.3,4.4,0.6,6.8v2.8l8.6-0.6v-2.8c0-2.4-0.1-4.7-0.6-7.1l-0.1-2.8l-8.6,0.8
			L476.4,235.6z"/>
		<path fill="#FFFFFF" d="M336.1,49.7c1.4,0.3,2.6,1,4.3,1.5c0.8,0.1,1.5,0.7,2.1,0.8l2.4,1l3.5-7.9l-2.4-1
			c-1.7-0.7-3.5-1.5-5.1-2.1l-3.7-1.5l-3.5,8.3L336.1,49.7z"/>
		<path fill="#FFFFFF" d="M276.6,35.7l2.6,0.1l0.8-8.9l-2.6-0.1c-2.2-0.1-4.7-0.3-6.9-0.6l-2.6-0.1l-0.6,8.6l2.6,0.1
			C271.9,35.3,274.1,35.6,276.6,35.7z"/>
		<path fill="#FFFFFF" d="M394.9,84c1.7,1.4,3.5,2.8,5.1,4.3l2.1,1.9l5.5-6.8l-1.9-1.5c-1.7-1.5-3.6-3-5.4-4.4l-2.1-1.5l-5.5,6.9
			L394.9,84z"/>
		<path fill="#FFFFFF" d="M384,75.7c2.1,1.5,3.7,2.8,5.4,3.7l2.1,1.5l5.4-6.8l-2.1-1.5c-1.9-1.4-3.7-2.8-5.8-4.2l-2.1-1.5l-5.1,7.1
			L384,75.7z"/>
		<path fill="#FFFFFF" d="M472.2,208.8c0.6,2.1,0.8,4.4,1.4,6.8l0.6,2.8l8.6-1.5l-0.7-3.6c-0.3-2.1-0.8-4-1.4-6.1l-0.7-2.4l-8.6,1.9
			L472.2,208.8z"/>
		<path fill="#FFFFFF" d="M350,55.8c1.5,0.7,3,1.5,4.4,2.2l2.4,1.4l4-7.9l-2.4-1.2c-0.7-0.1-1.4-0.7-2.1-1c-1.4-0.7-2.8-1.4-4.3-2.1
			l-2.4-1l-3.7,7.9L350,55.8z"/>
		<path fill="#FFFFFF" d="M475.1,225.2c0.1,1.2,0.1,2.4,0.6,3.6l0.1,2.4l8.6-1l-0.1-2.8c-0.1-1.2-0.1-2.4-0.6-3.6
			c0-1.2-0.1-2.2-0.3-3.5l-0.1-2.8l-8.6,1.4L475.1,225.2z"/>
		<path fill="#FFFFFF" d="M372.6,68c1.9,1.2,3.7,2.4,5.7,3.6l2.2,1.5l4.8-7.2l-2.1-1.5c-1.7-1.2-3.3-2.2-5-3.3L375,59l-4.4,7.6
			L372.6,68z"/>
		<path fill="#FFFFFF" d="M242,35.3c2.1-0.1,4.3-0.1,6.4-0.1l3.3-0.1l-0.1-8.9l-12.5,0.6l0.6,8.9L242,35.3z"/>
		<path fill="#FFFFFF" d="M403.9,214.5l-0.7-2.4l-8.7,2.4l0.8,2.4c0.8,2.8,1.4,5,1.9,7.1l0.6,2.4l8.9-1.9l-0.6-2.8
			C405.3,219.4,404.6,216.9,403.9,214.5z"/>
		<path fill="#FFFFFF" d="M399.5,238.2l0.1,2.8l8.9-1l-0.1-2.4c-0.1-2.4-0.7-5.1-1-7.6l-0.3-2.8l-8.9,1.5l0.6,2.8
			C398.9,233.4,399.4,235.6,399.5,238.2z"/>
		<path fill="#FFFFFF" d="M109.2,305.7l0.8,2.4l8.4-2.8l-0.7-2.4c-0.7-2.2-1.5-4.4-2.1-6.9l-0.7-2.6l-8.9,2.4l0.7,2.6
			C107.7,300.8,108.3,303.3,109.2,305.7z"/>
		<path fill="#FFFFFF" d="M139.8,154.4c-1.4,1.5-2.8,3-3.7,4.4c-0.3,0.3-0.7,1-1.2,1.4l-1.5,2.1l7.1,5.8l1.5-2.1
			c1.5-2.1,3-3.7,4.4-5.4l1.9-2.1l-6.8-5.8L139.8,154.4z"/>
		<path fill="#FFFFFF" d="M130.1,166.3c-1.5,2.4-3,4.4-4.3,6.4l-1.5,2.2l7.6,5l1.5-2.2c1.4-2.1,2.8-4.3,4-6.1l1.5-2.1l-7.2-5.1
			L130.1,166.3z"/>
		<path fill="#FFFFFF" d="M114.7,192.9c-1,2.4-2.1,4.7-3,7.1l-1,2.4l8.4,3.5l1-2.4c0.7-1.9,1.5-4.3,2.8-6.5l1.4-2.4l-8.4-3.6
			L114.7,192.9z"/>
		<path fill="#FFFFFF" d="M121.9,179.1c-1.4,2.2-2.4,4.4-3.6,6.8l-1.4,2.4l8.2,4.2l1.2-2.4c1.4-2.4,2.4-4.4,3.5-6.2l1.4-2.4
			l-7.9-4.4L121.9,179.1z"/>
		<path fill="#FFFFFF" d="M108.9,207.5c-1,2.8-1.5,5-2.4,7.5l-0.7,2.4l8.9,2.4l0.7-2.4c0.7-2.2,1.4-4.4,2.1-6.9l0.8-2.4l-8.4-2.8
			L108.9,207.5z"/>
		<path fill="#FFFFFF" d="M102.4,237c-0.1,2.4-0.6,4.8-0.7,7.1l-0.1,3.3l9,0.7l0.1-3.6c0.1-2.1,0.3-4.2,0.7-6.2l0.1-2.8l-9-1
			L102.4,237z"/>
		<path fill="#FFFFFF" d="M105,222c-0.7,2.8-1.2,5.1-1.5,7.5l-0.3,2.8l8.9,1.5l0.6-3c0.3-2.1,0.7-4.4,1.4-6.4l0.7-2.8l-9-2.1
			L105,222z"/>
		<path fill="#FFFFFF" d="M188.3,117.1c-2.2,1-4.4,2.4-6.8,3.5l-2.4,1.4l4.4,7.9l2.4-1.4c2.1-1.2,4.2-2.4,6.4-3.3l2.4-1.2l-3.7-8.2
			L188.3,117.1z"/>
		<path fill="#FFFFFF" d="M216.9,106.8c-2.4,0.7-5,1.4-7.2,2.1l-2.4,0.7l2.4,8.4l2.4-0.7c0.7-0.1,1.4-0.3,2.1-0.7
			c1.5-0.3,3.3-1,5-1.4l2.8-0.7l-2.4-8.9L216.9,106.8z"/>
		<path fill="#FFFFFF" d="M247.6,101.9c-2.8,0.1-5.1,0.1-7.6,0.6l-2.8,0.1l0.7,9l2.8-0.1c2.4-0.1,4.8-0.3,7.2-0.6l2.8-0.1l-0.6-9
			L247.6,101.9z"/>
		<path fill="#FFFFFF" d="M150.3,143c-1.9,1.5-3.6,3.5-5.7,5.5l-1.9,1.9l4.4,4.4l1.9,1.9l1.9-1.9c1.5-1.5,3.5-3.5,5.1-5l1.9-1.9
			l-6.2-6.5L150.3,143z"/>
		<path fill="#FFFFFF" d="M202.3,111.3c-2.4,0.8-4.8,1.9-7.1,2.8l-2.4,1l3.6,8.3l2.4-1c1.9-0.7,4.3-1.9,6.8-2.4l2.4-0.8l-3-8.6
			L202.3,111.3z"/>
		<path fill="#FFFFFF" d="M162.1,133.2c-1.5,1.4-3.7,3-5.8,4.8l-2.1,1.5l5.8,7.1l2.1-1.5c1.9-1.5,3.7-3,5.7-4.4l2.1-1.5l-5.5-7.5
			L162.1,133.2z"/>
		<path fill="#FFFFFF" d="M174.6,124.6c-2.1,1.4-4.3,2.8-6.2,4.2l-2.2,1.5l5,7.5l2.2-1.5c0.8-0.6,1.5-1,2.4-1.5
			c1.2-0.7,2.4-1.5,3.6-2.4l2.1-1.4l-4.4-7.6L174.6,124.6z"/>
		<polygon fill="#FFFFFF" points="101.1,263.1 110.3,262.7 110.3,250.3 101.1,250 		"/>
		<path fill="#FFFFFF" d="M248.1,410.4h2.8l0.1-9h-2.8c-2.4,0-5-0.1-7.2-0.6l-2.8-0.1l-0.7,9l3.3,0.1
			C243.3,410,245.5,410.2,248.1,410.4z"/>
		<path fill="#FFFFFF" d="M139.8,358.3l1.9,2.1l6.8-6.1l-1.5-1.9c-1.5-1.9-3.3-3.6-4.4-5.5l-1.5-2.1l-7.1,5.8l1.5,2.1
			C136.6,354.3,138.3,356.4,139.8,358.3z"/>
		<path fill="#FFFFFF" d="M127,341.9c1,1.5,2.1,3,3,4.4l1.5,2.1l7.2-5.1l-1.5-2.1c-0.3-0.7-1-1.4-1.4-2.1c-1-1.4-1.9-2.6-2.8-3.7
			l-1.5-2.2l-7.6,5l1.5,2.2C126.4,340.7,126.6,341.3,127,341.9z"/>
		<path fill="#FFFFFF" d="M147.8,366.7c1,0.8,1.9,1.9,2.8,2.6l1.9,1.9l6.2-6.8l-2.1-1.9c-1.5-1.5-3.6-3.3-5.1-5l-1.9-1.9l-6.8,6.2
			l2.1,1.9C146,365.1,147,365.9,147.8,366.7z"/>
		<path fill="#FFFFFF" d="M188.5,395.3l2.4,1l4.2-7.9l-2.4-1.2c-2.1-0.8-4.2-2.1-6.5-3.3l-2.4-1.4l-3,5.7l-1.2,2.4l2.4,1.4
			C184.1,392.9,186.3,394.3,188.5,395.3z"/>
		<path fill="#FFFFFF" d="M162.5,379.2l2.1,1.5l5.4-7.2l-2.1-1.5c-1.9-1.5-3.7-3-5.7-4.4l-2.1-1.7l-5.7,6.9l2.1,1.7
			C158.5,376.2,160.4,377.8,162.5,379.2z"/>
		<path fill="#FFFFFF" d="M202.8,401.4l2.4,0.8l3-8.4l-3.7-1.5c-1.5-0.7-3.6-1.4-5.1-2.1l-2.4-1l-3.6,8.3l2.4,1
			C198,399.4,200.5,400.3,202.8,401.4z"/>
		<path fill="#FFFFFF" d="M175.1,387.9l2.2,1.4l4.7-7.6l-2.2-1.4c-2.2-1.4-4.3-2.8-6.1-4l-2.2-1.5l-5.1,7.6l2.4,1.5
			C170.8,385.2,173,386.7,175.1,387.9z"/>
		<path fill="#FFFFFF" d="M270.8,409.7c3-0.1,5.5-0.7,7.9-1l2.4-0.6l-1.4-8.9l-2.6,0.3c-2.4,0.3-4.8,0.8-7.1,0.8l-2.6,0.1l0.8,9
			L270.8,409.7z"/>
		<path fill="#FFFFFF" d="M115,319.9l1.2,2.4l8.3-3.6l-1.2-2.4c-1-1.9-1.9-4-2.8-6.8l-1-2.6l-8.4,3.5l1,2.4
			C112.9,314.9,113.9,317.6,115,319.9z"/>
		<path fill="#FFFFFF" d="M121.9,333.6l1.4,2.2l7.9-4.3l-2.1-3.7c-0.8-1.5-1.9-3.3-2.8-5l-1.2-2.4l-8.2,4.3l1.4,2.4
			C119.3,328.9,120.5,331.4,121.9,333.6z"/>
		<path fill="#FFFFFF" d="M105,290.6l0.6,2.6l8.9-1.9l-0.8-3.6c-0.3-2.1-0.8-4-1.4-6.1l-0.3-2.6l-8.9,1.5l0.3,2.6
			C104.1,285.7,104.6,288.2,105,290.6z"/>
		<path fill="#FFFFFF" d="M217.6,405.7l2.4,0.7l2.4-8.6l-2.4-0.7c-2.1-0.6-4.4-1.2-7.1-2.1l-2.4-0.8l-2.8,8.6l2.4,0.8
			C212.6,404.4,215.1,405,217.6,405.7z"/>
		<path fill="#FFFFFF" d="M227.3,408.2c1.5,0.1,3.6,0.7,5.4,0.8l2.4,0.1l1.4-8.6l-3-0.6c-2.4-0.3-4.4-0.8-6.8-1.2l-2.4-0.3l-1.9,8.9
			l2.8,0.3C225.9,407.6,226.8,407.6,227.3,408.2z"/>
		<path fill="#FFFFFF" d="M263.2,410.2l2.6-0.1l-0.6-9h-2.6c-2.4,0-4.8,0.1-7.2,0.1h-2.8v9h2.8C258.1,410.4,260.8,410.4,263.2,410.2
			z"/>
		<path fill="#FFFFFF" d="M102.4,275.5l0.1,2.6l9-1l-0.1-2.6c-0.1-2.4-0.6-5-0.7-7.2l-0.1-2.6l-9,0.8l0.1,3.3
			C102,270.9,102,273.2,102.4,275.5z"/>
		<path fill="#FFFFFF" d="M392.7,185.6l-1.4-2.4l-7.9,4.2l1.9,3.6c0.8,1.5,1.7,3.5,2.4,5.1l1,2.4l8.3-3.6l-1-2.4
			C394.9,190,393.8,187.6,392.7,185.6z"/>
		<path fill="#FFFFFF" d="M399.1,199.8l-0.8-2.4l-8.4,3.5l1,2.4c0.8,2.1,1.7,4.3,2.4,6.8l0.8,2.4l8.4-2.8l-0.8-2.4
			C401,204.7,400.2,202.2,399.1,199.8z"/>
		<path fill="#FFFFFF" d="M385,340c1.4-2.1,2.8-4.3,4-6.8l1.2-2.2l-7.8-4.3l-1.4,2.4c-0.8,1.7-2.1,3.5-3.3,5.1l-2.1,3.3l7.6,5
			L385,340z"/>
		<path fill="#FFFFFF" d="M376,352.5c1.4-1.7,3.3-3.7,4.8-6.2l1.4-2.1L375,339l-1.5,2.1c-1.5,1.9-2.8,3.7-4.3,5.7l-1.7,2.1l6.9,5.7
			L376,352.5z"/>
		<path fill="#FFFFFF" d="M385,172.5l-1.5-2.4l-7.6,5l1.4,2.2c1.4,2.1,2.6,4.2,3.7,6.2l1.4,2.2l7.8-4.7l-1.4-2.2
			C387.7,176.8,386.5,174.8,385,172.5z"/>
		<path fill="#FFFFFF" d="M392.7,326.7c1-2.1,2.1-4.3,3.5-6.9l1-2.4l-8.3-3.6l-1,2.4c-0.8,1.7-1.5,3.5-2.4,5.1l-1.9,3.6l7.9,4.3
			L392.7,326.7z"/>
		<path fill="#FFFFFF" d="M366,363.7c1.7-1.9,3.5-3.6,5.1-5.7l1.9-2.1l-6.9-6.1l-1.7,2.1c-1.4,1.7-3,3.5-4.8,5.1l-1.9,1.9l6.8,6.2
			L366,363.7z"/>
		<path fill="#FFFFFF" d="M354.8,374.4c0.8-0.8,1.9-1.7,2.8-2.4c0.8-0.8,1.9-1.7,2.8-2.6l2.1-1.9l-6.2-6.9l-1.9,1.9
			c-1.7,1.5-3.5,3.3-5.4,4.8l-2.1,1.7l5.8,6.9L354.8,374.4z"/>
		<path fill="#FFFFFF" d="M399.6,310.9c0.7-1.9,1.4-3.6,2.1-5.5l1-2.6l-8.6-2.8l-0.8,2.4c-0.8,2.4-1.7,4.7-2.6,6.9l-0.8,2.4l8.4,3.5
			L399.6,310.9z"/>
		<path fill="#FFFFFF" d="M409.9,252.2c0-2.4-0.1-5-0.3-7.6l-0.1-2.8l-9,0.7l0.6,12.6l6.5-0.1l2.6-0.1L409.9,252.2z"/>
		<path fill="#FFFFFF" d="M262.8,111.2l2.6,0.1l0.6-9l-2.6-0.1c-2.6-0.1-5.1-0.1-7.6-0.1h-3v9h3
			C257.7,110.8,260.3,110.9,262.8,111.2z"/>
		<path fill="#FFFFFF" d="M223.7,114.2l2.4-0.3c2.4-0.3,5-0.8,7.2-1.4l2.4-0.3l-1.4-8.9l-2.4,0.1c-2.4,0.1-5,0.7-7.6,1.4l-2.4,0.6
			L223.7,114.2z"/>
		<path fill="#FFFFFF" d="M403.9,297.8c0.7-2.4,1.4-5,1.9-7.2l0.6-2.6l-8.9-2.1l-0.7,2.6c-0.3,2.1-1,4.3-1.9,6.9l-0.8,2.6l8.6,2.4
			L403.9,297.8z"/>
		<path fill="#FFFFFF" d="M376,159.8l-1.7-2.1l-6.9,5.8l1.7,2.1c1.7,2.1,3,3.7,4.3,5.7l1.5,2.4l7.2-5.5l-1.5-2.1
			C379.3,164,377.9,161.9,376,159.8z"/>
		<path fill="#FFFFFF" d="M407.4,282.9c0.3-2.2,0.8-5,1.2-7.6l0.1-2.6l-9-1l-0.3,3.5c-0.1,2.1-0.6,4.3-0.8,6.2l-0.3,2.6l8.9,1.5
			L407.4,282.9z"/>
		<path fill="#FFFFFF" d="M409.2,267.7c0.1-2.6,0.1-5.1,0.1-7.8v-2.6l-9-0.1v2.8c0,2.4,0,4.8-0.1,7.1l-0.1,2.6l9,0.8L409.2,267.7z"
			/>
		<path fill="#FFFFFF" d="M329.3,120.6l-2.4-1.2l-4.3,7.9l2.4,1.4c2.1,1.2,4.3,2.4,6.2,3.6l2.2,1.4l4.4-7.6l-2.1-1.4
			C333.6,123.1,331.4,121.7,329.3,120.6z"/>
		<path fill="#FFFFFF" d="M315.4,113.7l-2.4-1l-3.6,8.3l2.4,1c2.1,1,4.3,2.1,6.8,3l2.4,1.2l4.3-8.3L321,116
			C319.2,115.5,317.4,114.6,315.4,113.7z"/>
		<path fill="#FFFFFF" d="M270.7,102.5l-2.6-0.1l-0.8,9l12.6,1.5l1-9l-2.4-0.3C275.9,103,273.3,102.6,270.7,102.5z"/>
		<path fill="#FFFFFF" d="M342.4,128.6l-2.2-1.5l-5.1,7.5l2.2,1.5c1.9,1.4,3.7,2.8,5.8,4.2l2.1,1.5l5.7-7.2l-2.2-1.5
			C346.7,131.8,344.8,130.3,342.4,128.6z"/>
		<path fill="#FFFFFF" d="M286.1,105.1l-2.6-0.6l-1.9,9l2.6,0.6c2.4,0.3,4.8,1,6.9,1.5l2.6,0.7l2.4-8.9l-2.6-0.7
			C291,106.1,288.5,105.6,286.1,105.1z"/>
		<path fill="#FFFFFF" d="M354.5,137.9l-2.1-1.5l-5.8,7.1l2.1,1.5c1.9,1.5,3.6,3.3,5.4,4.8l2.1,1.9l6.1-6.8l-1.9-1.9
			C358.4,141.4,356.4,139.6,354.5,137.9z"/>
		<path fill="#FFFFFF" d="M300.7,108.7l-2.6-0.7l-2.6,8.6l2.4,0.7c2.2,0.7,4.4,1.5,6.9,2.4l2.6,1l2.8-8.4l-2.4-0.8
			C305.7,110.2,303.4,109.4,300.7,108.7z"/>
		<path fill="#FFFFFF" d="M367.4,150c-0.3-0.3-0.8-0.8-1.4-1.4l-1.9-1.9l-6.5,6.2l1.9,1.9c1.5,1.5,3.5,3.6,5,5.4l1.9,2.1l6.8-5.8
			l-1.7-2.1C369.9,152.6,368.5,151.2,367.4,150z"/>
		<path fill="#FFFFFF" d="M286.1,407.5c1.7-0.1,3.5-0.7,5-1c0.8-0.1,1.5-0.1,2.4-0.6l2.8-0.7l-2.4-8.9l-2.6,0.6
			c-1.2,0.1-2.4,0.6-3.5,0.8c-1.2,0.1-2.4,0.6-3.6,0.8l-2.6,0.6l1.9,8.6L286.1,407.5z"/>
		<path fill="#FFFFFF" d="M315.4,398.5c2.4-0.8,4.7-2.1,6.9-3.3l2.4-1.2L321,386l-2.4,0.8c-1.2,0.6-2.2,0.8-3.5,1.5
			c-1,0.6-2.2,0.8-3.3,1.5l-2.4,1l3.6,8.3L315.4,398.5z"/>
		<path fill="#FFFFFF" d="M329.4,391.7c1.9-1,4.3-2.4,6.8-3.7l2.1-1.4l-4.4-7.8l-2.2,1.4c-2.1,1.4-4.3,2.6-6.2,3.6l-2.4,1.4l4.3,7.9
			L329.4,391.7z"/>
		<path fill="#FFFFFF" d="M342.4,383.8c1.9-1.4,3.7-2.8,6.2-4.4l2.1-1.5l-5.4-7.1l-3.5,2.4c-1.5,1-3,2.2-4.7,3.3L335,378l5.1,7.5
			L342.4,383.8z"/>
		<path fill="#FFFFFF" d="M300.9,403.6c2.1-0.7,4.7-1.5,7.2-2.4l2.4-0.8l-3-8.4l-2.6,0.8c-2.1,0.8-4.4,1.5-6.9,2.4l-2.4,0.8l2.6,8.6
			L300.9,403.6z"/>
	</g>
	<g opacity="0.4">
		<path fill="#FFFFFF" d="M251.8,221.4c10.8,0.7,22.6-41,2.4-38.4S241,220.9,251.8,221.4z"/>
		<path fill="#FFFFFF" d="M289,227.8c20.2,0,58.3-51.1,22.4-51.1S268.7,227.8,289,227.8z"/>
		<path fill="#FFFFFF" d="M224,230.2c9.1-1.8,9.6-39.2-6.6-32.6C201.1,204.4,215,232,224,230.2z"/>
		<path fill="#FFFFFF" d="M262.6,349.3c17.9,0,38.4-16.1,42.2-36.6c2.9-15.5-34.6-9.3-33.2,1c1.7,12.3-9,18.4-19.5,10.5
			c-33.2-25.3,55.1-38,49.3-72.6c-4.8-28.7-92.9-19.8-102.9,25.1C191.6,307.2,226.4,349.3,262.6,349.3z"/>
		<path fill="#FFFFFF" d="M202.5,247.3c7.6-3.3,1-36.3-12.1-27.3C177.5,229.1,194.8,250.8,202.5,247.3z"/>
	</g>
	<g>
		<g>
			<path fill="#FFFFFF" d="M252,224.9c-0.1,0-0.3,0-0.4,0l0.1-3.5l0.3-3.5l-0.3,3.5l0.3-3.5l0,0c1,0,3.3-1.7,5.7-6.4l6.2,3.2
				C260.4,221.3,256.3,224.9,252,224.9z M246,222.7c-3.2-2.5-5.8-7.2-7.2-12.9l6.8-1.7c1,4.2,2.9,7.6,4.8,9.1L246,222.7z
				 M265.6,211.1l-6.5-2.5c1.4-3.7,2.4-7.8,2.6-11.4l6.9,0.4C268.3,201.8,267.2,206.6,265.6,211.1z M238.1,205.7
				c-0.1-1.5-0.3-3.2-0.3-4.7c0-3.5,0.6-6.6,1.5-9.6l6.5,2.4c-0.7,2.1-1.1,4.6-1.1,7.2c0,1.2,0.1,2.5,0.3,3.7L238.1,205.7z
				 M261.5,193.7c-0.3-2.8-1.1-6.2-3.9-7.1l1.9-6.6c5.1,1.5,8.3,6.2,8.7,13.2L261.5,193.7z M247.3,191l-5.8-3.7
				c2.8-4.3,7.1-6.9,12.3-7.6c0.3,0,0.7-0.1,1-0.1l0.6,6.9c-0.1,0-0.4,0-0.7,0C251.3,187,248.9,188.3,247.3,191z"/>
		</g>
		<g>
			<path fill="#FFFFFF" d="M289,231.3l-0.1-6.9h0.1c2.8,0,6.4-1.4,10.4-3.9l3.7,5.8C298,229.6,293.1,231.3,289,231.3z M283.7,230.3
				c-4.7-1.9-7.9-6.6-9-13.3l6.8-1.1c0.4,2.4,1.5,6.5,4.8,8L283.7,230.3z M306.6,223.8l-4.2-5.5c3.2-2.4,6.2-5.4,9.1-8.6l5.3,4.6
				C313.6,217.8,310,221.2,306.6,223.8z M274.3,212.6v-0.4c0-4.4,0.8-9.1,2.5-13.7l6.5,2.4c-1.4,3.7-2.1,7.6-2.1,11.4v0.4H274.3z
				 M319.4,211.1l-5.4-4.3c2.8-3.5,5-7.2,6.5-10.5l6.4,2.9C325,202.9,322.5,207,319.4,211.1z M284.7,197.3l-6.2-3
				c2.2-4.6,5-8.4,8.4-11.6l4.7,5C288.8,190.4,286.5,193.6,284.7,197.3z M328.4,195l-6.6-2.1c0.7-1.9,1-3.7,1-5.3
				c0-1.8-0.4-3.2-1.2-4.2l5.5-4.2c1.8,2.4,2.6,5.1,2.6,8.4C329.7,189.9,329.3,192.4,328.4,195z M294.4,185.4l-4-5.5
				c4-2.9,8.4-4.8,13.3-6l1.4,6.8C301.2,181.6,297.6,183.2,294.4,185.4z M319.6,181.7c-1.9-1.1-4.7-1.5-8.2-1.5l0,0
				c-1,0-1.8,0-2.8,0.1l-0.6-6.9c1.1-0.1,2.2-0.1,3.3-0.1l0,0c4.7,0,8.6,0.8,11.5,2.5L319.6,181.7z"/>
		</g>
		<g>
			<path fill="#FFFFFF" d="M224.7,233.5l-0.7-3.3l-0.7-3.5h0.1c0.6-0.1,2.4-2.4,3.2-8.2l6.9,1C232.3,227.5,229.1,232.7,224.7,233.5z
				 M218.6,232.5c-3.7-1.9-7.3-6.4-9.7-11.8l6.4-2.8c1.7,3.9,4.3,7.2,6.5,8.4L218.6,232.5z M207.4,216.5c-0.7-2.4-1-4.7-1-6.9
				c0-3.2,0.7-6.1,2.1-8.6l6.1,3.5c-0.8,1.4-1.2,3.2-1.2,5.3c0,1.5,0.3,3.3,0.7,5L207.4,216.5z M233.8,215.3l-6.9-0.3
				c0-0.4,0-0.7,0-1.1c0-4-0.7-7.8-1.8-10.2l6.2-2.9c1.7,3.5,2.5,8.2,2.5,13.2C233.8,214.4,233.8,214.8,233.8,215.3z M216.2,202.3
				l-4.4-5.3c1.2-1,2.6-1.9,4.3-2.5c4.7-1.9,9.1-1.1,12.3,2.1l-5,4.8c-1.2-1.2-2.8-1.4-4.8-0.6C217.8,201.2,216.9,201.8,216.2,202.3
				z"/>
		</g>
		<g>
			<path fill="#FFFFFF" d="M262.6,352.8h-0.3v-6.9h0.3c3.9,0,8-0.8,12.2-2.5l2.6,6.4C272.3,351.8,267.4,352.8,262.6,352.8z
				 M257.8,352.5c-4.7-0.4-9.6-1.5-14.4-3.3l2.4-6.5c4.3,1.5,8.4,2.5,12.6,2.9L257.8,352.5z M281.5,347.8l-3.2-6.1
				c3.7-1.9,7.3-4.4,10.5-7.5l4.7,5C289.9,342.6,285.9,345.5,281.5,347.8z M239.4,347.6c-4.3-1.9-8.6-4.3-12.6-7.2l4-5.7
				c3.7,2.6,7.6,4.8,11.5,6.5L239.4,347.6z M223.2,337.8c-3.7-2.9-7.3-6.4-10.5-10l5.1-4.6c2.9,3.3,6.2,6.4,9.7,9.1L223.2,337.8z
				 M296.7,336l-5.1-4.6c2.9-3.3,5.4-6.9,7.1-10.7l6.2,2.9C303,328.1,300.2,332.3,296.7,336z M262.5,331.3l-0.6-6.9
				c3.2-0.3,5.4-2.5,6.1-6.1l6.8,1.2C273.7,326.2,268.9,330.7,262.5,331.3z M257.2,330.7c-2.5-0.7-5-1.9-7.2-3.7
				c-2.5-1.8-4.3-3.6-5.7-5.5l5.5-4.2c1,1.4,2.5,2.8,4.4,4.2c1.7,1.2,3.3,2.1,4.8,2.5L257.2,330.7z M209.9,324.5
				c-3-3.9-5.8-7.9-8-12.1l6.1-3.3c2.1,3.7,4.6,7.5,7.3,11.1L209.9,324.5z M306.7,319.4l-6.5-2.2c0.6-1.7,1-3.3,1.4-5
				c0-0.4,0.1-0.7,0.1-1c0-1.1-0.4-1.9-1.5-2.6l3.9-5.8c2.9,1.9,4.6,5,4.6,8.3c0,0.7-0.1,1.5-0.3,2.4
				C307.8,315.5,307.4,317.4,306.7,319.4z M241.7,316.7c-0.4-1.2-0.7-2.5-0.7-3.9c0-4,1.9-7.9,6.1-11.9l4.8,5c-2.8,2.6-4,5-4,7.1
				c0,0.6,0.1,1.1,0.3,1.7L241.7,316.7z M268.2,314.9c0-0.3,0-0.6-0.1-0.8c0-0.4,0-0.7,0-1c0-4.6,3.9-8.4,11.1-11.1l2.4,6.5
				c-4.4,1.5-6.5,3.6-6.5,4.6c0,0.4,0.1,0.8,0.1,1.2L268.2,314.9z M199.8,308.6c-2.2-4.7-3.7-9.3-4.7-13.9l6.8-1.4
				c0.8,4,2.2,8.2,4.2,12.3L199.8,308.6z M285.1,307.7l-1.5-6.8c5.4-1.2,11.1-1.2,15.4-0.3l-1.7,6.6
				C294.1,306.6,289.5,306.8,285.1,307.7z M254.9,303.4l-4.3-5.4c3.6-2.9,8-5.7,11.8-8.2l3.7,5.8C262.4,298,258.2,300.7,254.9,303.4
				z M269.6,293.5l-3.6-6l1-0.7c3.5-2.2,7.2-4.4,10.7-6.8l3.9,5.8c-3.6,2.4-7.3,4.7-10.8,6.9L269.6,293.5z M194.4,290.1
				c-0.3-1.8-0.3-3.6-0.3-5.4c0-3,0.3-6,1-8.7c0-0.3,0.1-0.6,0.1-0.8l6.8,1.7c0,0.3-0.1,0.4-0.1,0.7c-0.6,2.4-0.8,4.7-0.8,7.2
				c0,1.5,0.1,3,0.3,4.6L194.4,290.1z M285.1,283.6l-4-5.7c4.3-3,7.6-5.8,10.1-8.4l5,4.8C293.3,277.3,289.7,280.3,285.1,283.6z
				 M203.1,273.1l-6.5-2.4c1.7-4.6,4.2-9,7.5-13l5.4,4.4C206.6,265.6,204.5,269.4,203.1,273.1z M299.1,270.8l-5.5-4.3
				c2.8-3.6,4.3-7.1,4.4-10.7l6.9,0.4C304.8,261.2,302.8,266,299.1,270.8z M212,259.4l-5-4.8c3.3-3.3,7.2-6.4,11.5-9.1l3.7,5.8
				C218.3,253.7,214.9,256.3,212,259.4z M298,252.5v-0.1c-0.6-3.3-2.6-6.1-6.2-8.3l3.7-5.8c5.3,3.3,8.4,7.8,9.4,13v0.3L298,252.5z
				 M225.7,249.1l-3.3-6.1c4-2.2,8.6-4.2,13.3-5.8l2.4,6.5C233.6,245.3,229.4,247.2,225.7,249.1z M241.7,242.5l-1.9-6.6
				c4.6-1.4,9.3-2.5,14-3.2l1.1,6.8C250.3,240.3,245.9,241.2,241.7,242.5z M288.5,242.2c-3.5-1.5-7.6-2.6-12.5-3.2l0.8-6.9
				c5.5,0.7,10.4,1.9,14.4,3.6L288.5,242.2z M258.8,239l-0.7-6.9c5-0.6,9.8-0.7,14.4-0.4l-0.4,6.9
				C267.9,238.5,263.3,238.6,258.8,239z"/>
		</g>
		<g>
			<path fill="#FFFFFF" d="M203.9,250.5l-2.8-6.4l0,0c0.3-0.1,1.1-1.7,1.1-5.5c0-1.4-0.1-2.9-0.4-4.6l6.8-1.1
				c0.3,1.9,0.6,3.9,0.6,5.7C209.2,244.9,207.2,249,203.9,250.5z M196.9,250.4c-4.6-1.8-9.3-6.5-12.1-12.1l6.2-3.2
				c1.9,4,5.4,7.6,8.4,8.7L196.9,250.4z M182.9,233.5c-0.4-1.5-0.6-3-0.6-4.6c0-4.8,2.1-8.9,6.2-11.6c0.3-0.1,0.4-0.3,0.7-0.4l3.6,6
				c-0.1,0.1-0.3,0.1-0.4,0.3c-2.1,1.5-3.2,3.5-3.2,6c0,0.8,0.1,1.8,0.4,2.9L182.9,233.5z M201,230.3c-1.5-4.8-3.9-8.2-6-8.3
				l0.4-6.9c5.3,0.4,9.7,5.1,12.2,13.2L201,230.3z"/>
		</g>
	</g>
</g>
</svg>
