<?xml version="1.0" encoding="utf-8"?>
<!-- Generator: Adobe Illustrator 18.0.0, SVG Export Plug-In . SVG Version: 6.00 Build 0)  -->
<!DOCTYPE svg PUBLIC "-//W3C//DTD SVG 1.1//EN" "http://www.w3.org/Graphics/SVG/1.1/DTD/svg11.dtd">
<svg version="1.1" id="Layer_1" xmlns="http://www.w3.org/2000/svg" xmlns:xlink="http://www.w3.org/1999/xlink" x="0px" y="0px"
	 viewBox="0 0 512 512" style="enable-background:new 0 0 512 512;" xml:space="preserve">
<path style="fill:#008CFF;" d="M446,486H66c-22.091,0-40-17.909-40-40V66c0-22.091,17.909-40,40-40h380c22.091,0,40,17.909,40,40
	v380C486,468.091,468.091,486,446,486z"/>
<g>
	<path style="fill:#FFFFFF;" d="M285.102,424.945h-36.738c-2.269,0-4.109-1.839-4.109-4.109v-163.85
		c0-2.766-2.678-4.742-5.321-3.926l-43.025,13.285c-2.643,0.816-5.321-1.16-5.321-3.926v-27.783c0-1.735,1.09-3.283,2.723-3.868
		l90.405-32.384c0.445-0.159,0.913-0.241,1.386-0.241h0c2.269,0,4.109,1.839,4.109,4.109v218.583
		C289.211,423.106,287.371,424.945,285.102,424.945z"/>
</g>
<g>
	<path style="opacity:0.3;fill:#353535;enable-background:new    ;" d="M399.993,314.887
		c-56.702-3.004-107.261,51.919-96.505,110.059c4.861,26.273,19.767,47.845,37.333,60.727c1.364-0.143,2.718-0.29,4.063-0.44
		c39.017-8.451,72.874-23.176,93.888-44.19c22.542-22.542,37.842-59.868,45.927-102.484
		C463.372,320.465,426.341,316.283,399.993,314.887z"/>
	
		<linearGradient id="SVGID_1_" gradientUnits="userSpaceOnUse" x1="444.0323" y1="445.3638" x2="513.4446" y2="375.9514" gradientTransform="matrix(1 0 0 -1 -100 789)">
		<stop  offset="0" style="stop-color:#FFFFFF"/>
		<stop  offset="0.2198" style="stop-color:#EDEDED"/>
		<stop  offset="0.4116" style="stop-color:#E2E2E2"/>
		<stop  offset="0.548" style="stop-color:#EDEDED"/>
		<stop  offset="0.7855" style="stop-color:#FAFAFA"/>
		<stop  offset="1" style="stop-color:#FFFFFF"/>
	</linearGradient>
	<path style="fill:url(#SVGID_1_);" d="M486.068,340.425c-18.282-16.708-42.618-26.902-69.336-26.902
		c-56.782,0-102.813,46.031-102.813,102.813c0,26.718,10.194,51.054,26.902,69.336L486.068,340.425z"/>
	<path style="fill:#323335;" d="M485.932,446V340.562l-145.05,145.104c-0.033,0.109,0.008,0.221,0.082,0.334h104.968
		C468.023,486,485.932,468.091,485.932,446z"/>
</g>
<g>
	<path style="fill:#FFFFFF;" d="M215.042,118.512c0,9.039-1.598,16.963-4.792,23.773c-3.195,6.811-7.768,12.066-13.716,15.765
		c-5.949,3.7-12.77,5.549-20.463,5.549c-7.609,0-14.399-1.829-20.368-5.486c-5.97-3.657-10.595-8.88-13.873-15.67
		c-3.279-6.789-4.94-14.598-4.982-23.427v-4.541c0-9.038,1.629-16.995,4.888-23.868c3.257-6.874,7.86-12.149,13.81-15.828
		c5.948-3.678,12.748-5.518,20.4-5.518c7.651,0,14.45,1.839,20.399,5.518c5.949,3.679,10.552,8.955,13.811,15.828
		c3.258,6.874,4.887,14.81,4.887,23.805V118.512z M195.872,114.35c0-9.626-1.725-16.941-5.171-21.945
		c-3.447-5.002-8.366-7.504-14.756-7.504c-6.349,0-11.246,2.47-14.693,7.41c-3.447,4.94-5.192,12.182-5.233,21.724v4.478
		c0,9.375,1.723,16.648,5.171,21.819c3.446,5.171,8.407,7.756,14.882,7.756c6.348,0,11.225-2.491,14.63-7.473
		c3.405-4.982,5.129-12.244,5.171-21.787V114.35z"/>
	<path style="fill:#FFFFFF;" d="M291.599,131.755c5.245,0,8.984,5.169,7.263,10.125c-1.818,5.235-4.797,9.637-8.935,13.208
		c-6.58,5.675-15.251,8.513-26.013,8.513c-11.771,0-21.03-3.962-27.778-11.887c-6.747-7.924-10.121-18.802-10.121-32.634v-5.612
		c0-8.829,1.555-16.605,4.667-23.332c3.11-6.726,7.556-11.887,13.337-15.481c5.78-3.594,12.496-5.392,20.147-5.392
		c10.595,0,19.128,2.838,25.603,8.513c4.146,3.635,7.171,8.209,9.076,13.723c1.72,4.98-1.977,10.177-7.245,10.177h-3.13
		c-3.472,0-6.423-2.38-7.344-5.728c-0.843-3.062-2.176-5.452-4-7.168c-2.838-2.669-7.157-4.004-12.959-4.004
		c-6.306,0-11.025,2.26-14.156,6.779c-3.133,4.52-4.741,11.53-4.824,21.031v6.937c0,9.922,1.502,17.174,4.509,21.756
		c3.005,4.583,7.745,6.874,14.22,6.874c5.843,0,10.205-1.334,13.085-4.004c1.841-1.707,3.18-4.012,4.016-6.915
		c0.937-3.255,3.949-5.476,7.336-5.476H291.599z"/>
	<path style="fill:#FFFFFF;" d="M372.913,85.847h-12.801c-4.232,0-7.662,3.43-7.662,7.662v61.168c0,4.232-3.43,7.662-7.662,7.662
		h-3.594c-4.232,0-7.662-3.43-7.662-7.662V93.509c0-4.232-3.43-7.662-7.662-7.662h-12.422c-4.232,0-7.662-3.43-7.662-7.662v0
		c0-4.232,3.43-7.662,7.662-7.662h59.465c4.232,0,7.662,3.43,7.662,7.662v0C380.575,82.417,377.145,85.847,372.913,85.847z"/>
</g>
</svg>
