<?xml version="1.0" encoding="utf-8"?>
<!-- Generator: Adobe Illustrator 18.0.0, SVG Export Plug-In . SVG Version: 6.00 Build 0)  -->
<!DOCTYPE svg PUBLIC "-//W3C//DTD SVG 1.1//EN" "http://www.w3.org/Graphics/SVG/1.1/DTD/svg11.dtd">
<svg version="1.1" id="Layer_2" xmlns="http://www.w3.org/2000/svg" xmlns:xlink="http://www.w3.org/1999/xlink" x="0px" y="0px"
	 viewBox="0 0 512 512" style="enable-background:new 0 0 512 512;" xml:space="preserve">
<circle style="fill:#2E68B2;" cx="256" cy="256" r="230"/>
<g>
	<path style="fill:#5582C2;" d="M77.901,110.468l66.295,114.826c13.495-49.878,59.064-86.575,113.21-86.575
		c31.757,0,60.56,12.627,81.678,33.128h1.285h61.106h68.641C436.525,86.448,353.323,26,256,26
		C184.193,26,120.08,58.912,77.901,110.468z"/>
	<path style="fill:#84B3E0;" d="M485.993,255.484c-0.065-29.515-5.685-57.725-15.878-83.638h-68.641h-61.106l1.775,3.074
		c12.874,13.451,22.572,29.962,27.903,48.33l0.875,1.515l-0.305,0.528c2.648,9.788,4.07,20.08,4.07,30.706
		c0,54.159-36.713,99.735-86.608,113.22l-65.984,114.287c10.735,1.586,21.711,2.431,32.876,2.48
		c0.652,0.002,1.303,0.003,1.955,0.001c126.42-0.5,228.778-102.985,229.066-229.455
		C485.994,256.183,485.994,255.834,485.993,255.484z"/>
	<path style="fill:#6697D0;" d="M222.096,483.507L288.08,369.22c-9.779,2.642-20.06,4.061-30.673,4.061
		c-64.772,0-117.281-52.509-117.281-117.281c0-10.44,1.372-20.557,3.931-30.191l-66.41-115.024
		c-32.094,39.37-51.411,89.56-51.634,144.261c-0.001,0.656-0.001,1.312,0.001,1.968C26.51,372.063,111.473,467.162,222.096,483.507z
		"/>
	<circle style="fill:#FFFFFF;stroke:#FFFFFF;" cx="257.406" cy="256" r="117.281"/>
	<circle style="fill:#2E68B2;stroke:#FFFFFF;" cx="257.406" cy="256" r="82.963"/>
</g>
</svg>
