<?xml version="1.0" encoding="utf-8"?>
<!-- Generator: Adobe Illustrator 18.0.0, SVG Export Plug-In . SVG Version: 6.00 Build 0)  -->
<!DOCTYPE svg PUBLIC "-//W3C//DTD SVG 1.1//EN" "http://www.w3.org/Graphics/SVG/1.1/DTD/svg11.dtd">
<svg version="1.1" id="Layer_1" xmlns="http://www.w3.org/2000/svg" xmlns:xlink="http://www.w3.org/1999/xlink" x="0px" y="0px"
	 viewBox="0 0 512 512" style="enable-background:new 0 0 512 512;" xml:space="preserve">
<g>
	<g>
		<polygon style="opacity:0.5;fill:#00FFF8;" points="317.6,256 256,209.7 194.4,256 72.3,347.8 256,486 439.7,347.8 		"/>
		<g>
			<polygon style="opacity:0.5;fill:#00FFF8;" points="256,209.7 72.3,347.8 72.3,164.1 256,26 			"/>
			<polygon style="opacity:0.5;fill:#00FFF8;" points="439.7,347.8 256,209.7 256,26 439.7,164.1 			"/>
		</g>
		<g>
			<polygon style="opacity:0.5;fill:#FF0000;" points="256,302.3 72.3,164.2 72.3,347.9 256,486 			"/>
			<polygon style="opacity:0.5;fill:#FFFF00;" points="439.7,164.2 256,302.3 256,486 439.7,347.9 			"/>
		</g>
		<polygon style="opacity:0.5;fill:#3FFF00;" points="256,26 72.3,164.2 194.4,256 256,302.3 317.6,256 439.7,164.1 		"/>
	</g>
	<g>
		<path style="opacity:0.5;" d="M317.6,256l-46.9-35.3c-8.7-6.5-20.6-6.5-29.2,0L194.4,256l-96.3,72.4c-12.9,9.7-12.9,29.2,0,38.9
			L241.4,475c8.7,6.5,20.6,6.5,29.2,0l143.2-107.7c12.9-9.7,12.9-29.2,0-38.9L317.6,256z"/>
		<g>
			<path style="opacity:0.5;fill:#2D2D2D;" d="M246.3,217l-135,101.5c-16,12.1-39,0.6-39-19.4V176.3c0-7.6,3.6-14.9,9.7-19.4
				L217,55.3c16-12.1,39-0.6,39,19.4v122.8C256,205.2,252.4,212.4,246.3,217z"/>
			<path style="opacity:0.5;fill:#606060;" d="M400.7,318.5L265.7,217c-6.1-4.6-9.7-11.8-9.7-19.4V74.7c0-20.1,22.9-31.5,39-19.4
				l135,101.5c6.1,4.6,9.7,11.8,9.7,19.4v122.8C439.7,319.2,416.8,330.6,400.7,318.5z"/>
		</g>
		<g>
			<path style="opacity:0.5;fill:#FF0000;" d="M246.3,295l-135-101.5c-16-12.1-39-0.6-39,19.4v122.8c0,7.6,3.6,14.9,9.7,19.4
				l135,101.5c16,12.1,39,0.6,39-19.4V314.4C256,306.8,252.4,299.6,246.3,295z"/>
			<path style="opacity:0.5;fill:#FFEC00;" d="M400.7,193.5L265.7,295c-6.1,4.6-9.7,11.8-9.7,19.4v122.8c0,20.1,22.9,31.5,39,19.4
				l135-101.5c6.1-4.6,9.7-11.8,9.7-19.4V212.9C439.7,192.8,416.8,181.4,400.7,193.5z"/>
		</g>
		<path style="opacity:0.5;fill:#45FF00;" d="M241.4,37L98.2,144.7c-12.9,9.7-12.9,29.2,0,38.9l96.3,72.4l46.9,35.3
			c8.7,6.5,20.6,6.5,29.2,0l46.9-35.3l96.3-72.4c12.9-9.7,12.9-29.2,0-38.9L270.6,37C262,30.5,250,30.5,241.4,37z"/>
	</g>
</g>
</svg>
