<?xml version="1.0" encoding="utf-8"?>
<!-- Generator: Adobe Illustrator 18.0.0, SVG Export Plug-In . SVG Version: 6.00 Build 0)  -->
<!DOCTYPE svg PUBLIC "-//W3C//DTD SVG 1.1//EN" "http://www.w3.org/Graphics/SVG/1.1/DTD/svg11.dtd">
<svg version="1.1" id="Layer_1" xmlns="http://www.w3.org/2000/svg" xmlns:xlink="http://www.w3.org/1999/xlink" x="0px" y="0px"
	 viewBox="0 0 512 512" enable-background="new 0 0 512 512" xml:space="preserve">
<g>
	<g>
		<path opacity="0.3" fill="#353535" d="M414.1,486c0,0-182.9-48.2-351.3-43.7l41-362.3l348.8,44.5
			C452.7,124.6,418.5,403.3,414.1,486z"/>
		
			<rect x="80.2" y="100.9" transform="matrix(0.992 0.1266 -0.1266 0.992 37.0906 -30.1844)" fill="#F7B318" width="351.6" height="351.6"/>
	</g>
	<g>
		<path opacity="0.3" fill="#353535" d="M424.4,463.6c0,0-171.1-21.7-337.3-0.5l-6.9-362h351.6C431.8,101.1,422.3,380.8,424.4,463.6
			z"/>
		<rect x="80.2" y="101.1" fill="#FDD83A" width="351.6" height="351.6"/>
	</g>
	<g>
		<path opacity="0.25" fill="#353535" d="M285.4,26l-17.8,4.2l-12-1.7l-9.3,2.8L229.2,26l0.1,5.6l13.8,2.3l9.3-2.8l12,1.7l15.9-1.7
			v141l-12.6-2.2l-14.2,2.8l-14.8-4.4l-7,2.3l0.1,6.3l10.2-5.1l15.3,5.1l13.4-3.8l14.7,1.9C285.4,174.9,275.2,103.9,285.4,26z"/>
		<polygon opacity="0.8" fill="#FFF4CA" points="264.4,32.8 252.3,31.1 243,33.9 229.3,31.6 226.6,31.1 226.6,172.1 231.6,170.5 
			238.7,168.2 253.4,172.6 267.7,169.9 280.3,172.1 280.3,31.1 		"/>
	</g>
</g>
</svg>
