<?xml version="1.0" encoding="utf-8"?>
<!-- Generator: Adobe Illustrator 18.0.0, SVG Export Plug-In . SVG Version: 6.00 Build 0)  -->
<!DOCTYPE svg PUBLIC "-//W3C//DTD SVG 1.1//EN" "http://www.w3.org/Graphics/SVG/1.1/DTD/svg11.dtd">
<svg version="1.1" id="Layer_3" xmlns="http://www.w3.org/2000/svg" xmlns:xlink="http://www.w3.org/1999/xlink" x="0px" y="0px"
	 viewBox="0 0 512 512" style="enable-background:new 0 0 512 512;" xml:space="preserve">
<g>
	<linearGradient id="SVGID_1_" gradientUnits="userSpaceOnUse" x1="256" y1="360.1861" x2="256" y2="76.2461">
		<stop  offset="0" style="stop-color:#1E007F"/>
		<stop  offset="1" style="stop-color:#02003F"/>
	</linearGradient>
	<path style="fill:url(#SVGID_1_);" d="M331.616,360.186c0,0,75.475-62.848,113.209-94.155l-29.96-91.738l-88.157,10.945
		l-70.735-60.723l-70.266,60.825l-88.583-11.005c-9.976,30.538-19.954,61.089-29.951,91.692
		c37.704,31.282,75.31,62.716,113.206,94.158h-46.484c-1.147-0.002-2.53-0.508-3.404-1.248
		c-32.242-27.319-64.437-54.694-96.637-82.062c-2.572-2.186-5.142-4.37-7.856-6.679c13.165-43.839,26.331-87.694,39.529-131.654
		c4.59,0.469,105.892,11.054,105.892,11.054s84.019-72.884,84.517-73.35c28.03,24.355,56.117,48.757,84.433,73.356
		c35.181-3.672,70.567-7.364,106.09-11.072c13.179,43.881,26.329,87.672,39.54,131.657c-4.158,3.542-106.231,89.994-106.231,89.994
		h-48.153L331.616,360.186L331.616,360.186z"/>
	<linearGradient id="SVGID_2_" gradientUnits="userSpaceOnUse" x1="256.0504" y1="363.7774" x2="256.0504" y2="155.0603">
		<stop  offset="0" style="stop-color:#1E007F"/>
		<stop  offset="1" style="stop-color:#02003F"/>
	</linearGradient>
	<path style="fill:url(#SVGID_2_);" d="M256.194,363.777c-17.436-13.126-27.502-30.988-34.612-50.84
		c-4.953-13.845-8.076-28.135-10.186-42.668c-2.054-14.172-3.212-28.406-3.296-42.722c-0.043-7.147,0.15-14.295,0.187-21.44
		c0.008-1.907,0.594-3.35,2.009-4.776c14.971-15.113,29.853-30.312,44.762-45.487c0.273-0.282,0.582-0.529,0.865-0.786
		c2.477,2.417,4.924,4.728,7.281,7.123c11.985,12.176,23.819,24.506,36.012,36.467c3.431,3.365,4.671,6.857,4.726,11.476
		c0.183,14.515,0.037,29.018-1.329,43.476c-2.153,22.854-6.241,45.304-14.989,66.671c-5.248,12.816-12.062,24.695-21.805,34.677
		C262.78,358.066,259.405,360.856,256.194,363.777z"/>
	<linearGradient id="SVGID_3_" gradientUnits="userSpaceOnUse" x1="157.7286" y1="360.3106" x2="157.7286" y2="203.1321">
		<stop  offset="0" style="stop-color:#1E007F"/>
		<stop  offset="1" style="stop-color:#02003F"/>
	</linearGradient>
	<path style="fill:url(#SVGID_3_);" d="M96.374,259.136c5.13-18.742,10.22-37.334,15.334-56.004
		c21.03,2.386,41.904,4.753,62.867,7.132c-0.663,26.841,2.879,52.989,10.198,78.603c7.328,25.628,18.483,49.454,34.311,71.026
		c-0.117,0.138-0.237,0.279-0.357,0.418c-0.759-0.399-1.592-0.705-2.263-1.218c-7.009-5.391-14.178-10.588-20.945-16.265
		c-32.831-27.566-65.553-55.265-98.312-82.917C96.954,259.695,96.72,259.456,96.374,259.136z"/>
	<linearGradient id="SVGID_4_" gradientUnits="userSpaceOnUse" x1="354.3082" y1="360.1172" x2="354.3082" y2="203.1276">
		<stop  offset="0" style="stop-color:#1E007F"/>
		<stop  offset="1" style="stop-color:#02003F"/>
	</linearGradient>
	<path style="fill:url(#SVGID_4_);" d="M337.485,210.258c20.84-2.368,41.725-4.735,62.807-7.13
		c5.113,18.675,10.216,37.319,15.295,55.859c-10.874,11.783-116.132,98.883-122.559,101.131
		c15.569-21.699,26.79-45.467,34.125-71.09C334.5,263.384,337.988,237.256,337.485,210.258z"/>
	<linearGradient id="SVGID_5_" gradientUnits="userSpaceOnUse" x1="255.9985" y1="435.7539" x2="255.9985" y2="378.1289">
		<stop  offset="0" style="stop-color:#1E007F"/>
		<stop  offset="1" style="stop-color:#02003F"/>
	</linearGradient>
	<polygon style="fill:url(#SVGID_5_);" points="256.005,435.754 142.597,378.129 369.4,378.129 	"/>
</g>
</svg>
