<?xml version="1.0" encoding="utf-8"?>
<!-- Generator: Adobe Illustrator 18.0.0, SVG Export Plug-In . SVG Version: 6.00 Build 0)  -->
<!DOCTYPE svg PUBLIC "-//W3C//DTD SVG 1.1//EN" "http://www.w3.org/Graphics/SVG/1.1/DTD/svg11.dtd">
<svg version="1.1" id="Layer_1" xmlns="http://www.w3.org/2000/svg" xmlns:xlink="http://www.w3.org/1999/xlink" x="0px" y="0px"
	 viewBox="0 0 512 512" style="enable-background:new 0 0 512 512;" xml:space="preserve">
<g>
	<circle style="fill:#161615;" cx="256" cy="256" r="230"/>
	<g>
		<path style="fill:#FFFFFF;" d="M256,258.81c-0.64,0-1.28-0.244-1.768-0.732l-57.429-57.429c-0.977-0.976-0.977-2.559,0-3.535
			l57.429-57.429c0.976-0.977,2.559-0.977,3.535,0l57.429,57.429c0.977,0.976,0.977,2.559,0,3.535l-57.429,57.429
			C257.279,258.565,256.64,258.81,256,258.81z M202.107,198.881L256,252.774l53.894-53.894L256,144.988L202.107,198.881z"/>
		<g>
			<path style="fill:#FFFFFF;" d="M318.306,333.63c-1.375,0-2.493-1.111-2.5-2.488c-0.007-1.38,1.107-2.505,2.488-2.512
				l48.623-0.237V201.381h-53.5c-1.381,0-2.5-1.119-2.5-2.5s1.119-2.5,2.5-2.5h56c1.381,0,2.5,1.119,2.5,2.5v132
				c0,1.376-1.112,2.493-2.488,2.5l-51.111,0.249C318.313,333.63,318.31,333.63,318.306,333.63z"/>
			<g>
				<polygon style="fill:#FFFFFF;" points="321.749,319.146 301.083,331.214 321.866,343.08 				"/>
			</g>
		</g>
		<path style="fill:#FFFFFF;" d="M257,373.048c-21.597,0-39.167-17.57-39.167-39.167s17.57-39.167,39.167-39.167
			s39.167,17.57,39.167,39.167S278.597,373.048,257,373.048z M257,299.714c-18.839,0-34.167,15.327-34.167,34.167
			s15.327,34.167,34.167,34.167c18.84,0,34.167-15.327,34.167-34.167S275.84,299.714,257,299.714z"/>
		<g>
			<path style="fill:#FFFFFF;" d="M256,277.651c-1.381,0-2.5-1.119-2.5-2.5v-18.854c0-1.381,1.119-2.5,2.5-2.5s2.5,1.119,2.5,2.5
				v18.854C258.5,276.532,257.381,277.651,256,277.651z"/>
			<g>
				<polygon style="fill:#FFFFFF;" points="244.781,271.868 256,291.298 267.219,271.868 				"/>
			</g>
		</g>
	</g>
</g>
</svg>
