<?xml version="1.0" encoding="utf-8"?>
<!-- Generator: Adobe Illustrator 18.0.0, SVG Export Plug-In . SVG Version: 6.00 Build 0)  -->
<!DOCTYPE svg PUBLIC "-//W3C//DTD SVG 1.1//EN" "http://www.w3.org/Graphics/SVG/1.1/DTD/svg11.dtd">
<svg version="1.1" id="Layer_2" xmlns="http://www.w3.org/2000/svg" xmlns:xlink="http://www.w3.org/1999/xlink" x="0px" y="0px"
	 viewBox="0 0 512 512" style="enable-background:new 0 0 512 512;" xml:space="preserve">
<g>
	<g>
		<path style="fill:#231F20;" d="M322.281,185.319c0,2.357-1.91,4.267-4.267,4.267H193.986c-2.357,0-4.267-1.91-4.267-4.267v-44.377
			c0-2.357,1.91-4.267,4.267-4.267h124.029c2.357,0,4.267,1.91,4.267,4.267V185.319z"/>
		<path style="fill:#F4F4F4;" d="M368.919,274.704c0,13.187-18.309,10.708-31.496,10.708H174.364
			c-13.187,0-31.283,2.478-31.283-10.708l7.407-75.323c0-13.187,10.69-23.876,23.876-23.876h163.059
			c13.187,0,23.876,10.69,23.876,23.876L368.919,274.704z"/>
		
			<linearGradient id="SVGID_1_" gradientUnits="userSpaceOnUse" x1="174.3641" y1="282.4492" x2="368.9194" y2="282.4492" gradientTransform="matrix(1 0 0 -1 0 513)">
			<stop  offset="0" style="stop-color:#FFFFFF"/>
			<stop  offset="1" style="stop-color:#FFFFFF;stop-opacity:0"/>
		</linearGradient>
		<path style="opacity:0.4;fill:url(#SVGID_1_);enable-background:new    ;" d="M368.919,274.704
			c0,13.187-18.309,10.708-31.496,10.708L174.364,175.505h163.059c13.187,0,23.876,10.69,23.876,23.876L368.919,274.704z"/>
		<g>
			
				<linearGradient id="SVGID_2_" gradientUnits="userSpaceOnUse" x1="226.7497" y1="903.3521" x2="226.7497" y2="827.6227" gradientTransform="matrix(1 0 0 1 -50 -651)">
				<stop  offset="0" style="stop-color:#B0B0B0"/>
				<stop  offset="1" style="stop-color:#E5E5E5;stop-opacity:0"/>
			</linearGradient>
			<rect x="176.083" y="176.623" style="fill:url(#SVGID_2_);" width="1.333" height="75.729"/>
			
				<linearGradient id="SVGID_3_" gradientUnits="userSpaceOnUse" x1="385.2503" y1="903.3521" x2="385.2503" y2="827.6227" gradientTransform="matrix(1 0 0 1 -50 -651)">
				<stop  offset="0" style="stop-color:#B0B0B0"/>
				<stop  offset="1" style="stop-color:#E5E5E5;stop-opacity:0"/>
			</linearGradient>
			<rect x="334.584" y="176.623" style="fill:url(#SVGID_3_);" width="1.333" height="75.729"/>
		</g>
		<path style="fill:#F4F4F4;" d="M369.026,349.723c0,14.14-11.462,25.602-25.602,25.602H168.576
			c-14.14,0-25.602-11.462-25.602-25.602v-66.647c0-14.14,11.462-25.602,25.602-25.602h174.848c14.14,0,25.602,11.462,25.602,25.602
			V349.723z"/>
		<path style="fill:#231F20;" d="M369.026,344.602c0,14.14-11.462,25.602-25.602,25.602H168.576
			c-14.14,0-25.602-11.462-25.602-25.602v-66.647c0-14.14,11.462-25.602,25.602-25.602h174.848c14.14,0,25.602,11.462,25.602,25.602
			V344.602z"/>
		<path style="fill:#1D3BED;" d="M294.119,265.539c0,2.357-1.91,4.267-4.267,4.267h-67.703c-2.357,0-4.267-1.91-4.267-4.267v-2.276
			c0-2.357,1.91-4.267,4.267-4.267h67.703c2.357,0,4.267,1.91,4.267,4.267V265.539z"/>
	</g>
</g>
<g>
	<path style="fill:none;" d="M274.443,152.565c-16.396-16.396-38.24-25.437-61.43-25.437c-22.752,0-44.194,8.72-60.481,24.533
		l0.005,0.005c-0.068,0.057-0.129,0.116-0.194,0.174c-0.25,0.245-0.511,0.475-0.759,0.723c-0.001,0.001-0.001,0.001-0.002,0.002
		c-7.173,7.173-12.939,15.389-17.155,24.305c-1.807,3.821-3.33,7.77-4.556,11.821c-0.818,2.7-1.505,5.446-2.056,8.229
		c-1.104,5.565-1.669,11.279-1.669,17.076c0,15.944,4.273,31.25,12.272,44.588c1.454,2.425,3.032,4.785,4.729,7.072
		c0.849,1.143,1.727,2.269,2.635,3.374c1.816,2.212,3.751,4.346,5.801,6.396c3.074,3.074,6.34,5.89,9.77,8.436
		c6.861,5.092,14.379,9.105,22.339,11.951c2.653,0.948,5.356,1.767,8.099,2.453c6.859,1.714,13.974,2.597,21.221,2.597
		c23.191,0,45.034-9.04,61.43-25.437c0.281-0.337,0.618-0.618,0.898-0.955l0.005,0.005c15.813-16.287,24.533-37.729,24.533-60.481
		C299.88,190.804,290.839,168.961,274.443,152.565z M212.732,234.771c-11.474,0-20.776-9.302-20.776-20.776
		c0-2.32,0.397-4.544,1.099-6.628c-0.697-1.484-1.099-3.135-1.099-4.883c0-6.357,5.154-11.511,11.511-11.511
		c2.631,0,5.047,0.892,6.986,2.377c0.749-0.082,1.508-0.131,2.279-0.131c11.474,0,20.776,9.302,20.776,20.776
		C233.508,225.469,224.206,234.771,212.732,234.771z"/>
	<path style="fill:#FFFFFF;" d="M108.35,167.801c0.171-0.387,0.34-0.774,0.515-1.158C108.69,167.027,108.521,167.415,108.35,167.801
		z"/>
	<path style="fill:#FFFFFF;" d="M104.264,178.468c0.155-0.475,0.308-0.95,0.469-1.422
		C104.572,177.518,104.419,177.994,104.264,178.468z"/>
	<path style="fill:#FFFFFF;" d="M105.186,175.761c0.162-0.456,0.322-0.914,0.489-1.368
		C105.508,174.847,105.348,175.305,105.186,175.761z"/>
	<path style="fill:#FFFFFF;" d="M109.537,165.205c0.169-0.358,0.336-0.717,0.509-1.072
		C109.873,164.488,109.706,164.847,109.537,165.205z"/>
	<path style="fill:#FFFFFF;" d="M106.176,173.076c0.166-0.433,0.33-0.867,0.501-1.298
		C106.506,172.209,106.342,172.643,106.176,173.076z"/>
	<path style="fill:#FFFFFF;" d="M107.232,170.421c0.169-0.41,0.336-0.821,0.51-1.229C107.568,169.6,107.401,170.011,107.232,170.421
		z"/>
	<path style="fill:#FFFFFF;" d="M110.791,162.634c0.163-0.324,0.325-0.649,0.491-0.972
		C111.115,161.984,110.954,162.309,110.791,162.634z"/>
	<path style="fill:#FFFFFF;" d="M116.435,152.69c0.108-0.17,0.215-0.34,0.324-0.51C116.649,152.35,116.543,152.52,116.435,152.69z"
		/>
	<path style="fill:#FFFFFF;" d="M114.929,155.126c0.128-0.213,0.255-0.427,0.385-0.639
		C115.184,154.699,115.057,154.913,114.929,155.126z"/>
	<path style="fill:#FFFFFF;" d="M112.105,160.1c0.156-0.291,0.31-0.583,0.468-0.873C112.416,159.517,112.261,159.809,112.105,160.1z
		"/>
	<path style="fill:#FFFFFF;" d="M113.485,157.598c0.144-0.254,0.287-0.509,0.433-0.762
		C113.772,157.089,113.629,157.344,113.485,157.598z"/>
	<path style="fill:#FFFFFF;" d="M98.704,210.097c0.023-0.679,0.044-1.359,0.078-2.035C98.748,208.738,98.727,209.418,98.704,210.097
		z"/>
	<path style="fill:#FFFFFF;" d="M99.737,198.088c0.077-0.551,0.15-1.102,0.234-1.65C99.887,196.986,99.813,197.538,99.737,198.088z"
		/>
	<path style="fill:#FFFFFF;" d="M99.075,203.94c0.05-0.578,0.097-1.157,0.156-1.733C99.173,202.782,99.126,203.362,99.075,203.94z"
		/>
	<path style="fill:#FFFFFF;" d="M98.853,206.948c0.037-0.608,0.071-1.216,0.117-1.822C98.924,205.731,98.89,206.34,98.853,206.948z"
		/>
	<path style="fill:#FFFFFF;" d="M98.631,213.995c0-0.995,0.013-1.987,0.038-2.976C98.644,212.008,98.631,213,98.631,213.995z"/>
	<path style="fill:#FFFFFF;" d="M118.003,150.29c0.083-0.123,0.165-0.247,0.248-0.37
		C118.168,150.042,118.086,150.166,118.003,150.29z"/>
	<path style="fill:#FFFFFF;" d="M102.625,183.957c0.137-0.505,0.272-1.01,0.416-1.513
		C102.896,182.947,102.762,183.452,102.625,183.957z"/>
	<path style="fill:#FFFFFF;" d="M101.907,186.739c0.126-0.517,0.251-1.035,0.384-1.55
		C102.158,185.703,102.034,186.222,101.907,186.739z"/>
	<path style="fill:#FFFFFF;" d="M103.41,181.201c0.147-0.491,0.292-0.984,0.445-1.472
		C103.702,180.218,103.557,180.71,103.41,181.201z"/>
	<path style="fill:#FFFFFF;" d="M100.682,192.367c0.103-0.536,0.202-1.072,0.312-1.605
		C100.884,191.294,100.784,191.831,100.682,192.367z"/>
	<path style="fill:#FFFFFF;" d="M100.173,195.218c0.09-0.544,0.177-1.089,0.274-1.631
		C100.35,194.129,100.263,194.674,100.173,195.218z"/>
	<path style="fill:#FFFFFF;" d="M101.259,189.545c0.115-0.529,0.228-1.058,0.35-1.584
		C101.487,188.487,101.374,189.016,101.259,189.545z"/>
	<path style="fill:#FFFFFF;" d="M99.37,201.001c0.064-0.563,0.124-1.128,0.196-1.689C99.494,199.873,99.433,200.438,99.37,201.001z"
		/>
	<path style="fill:#FFFFFF;" d="M121.322,145.603c0.017-0.023,0.034-0.046,0.051-0.069
		C121.356,145.557,121.339,145.58,121.322,145.603z"/>
	<path style="fill:#FFFFFF;" d="M191.791,298.265c-2.744-0.686-5.446-1.505-8.099-2.453
		C186.345,296.761,189.047,297.579,191.791,298.265z"/>
	<path style="fill:#FFFFFF;" d="M183.692,295.812c-7.96-2.846-15.479-6.859-22.339-11.951
		C168.213,288.953,175.731,292.967,183.692,295.812z"/>
	<path style="fill:#FFFFFF;" d="M213.012,127.128c24.736,0,47.94,10.286,64.635,28.813c13.684,15.185,21.561,34.876,22.19,55.307
		c0.731,23.769-8.043,46.288-24.491,63.229l127.992,127.992l7.812-7.812c2.958-2.958,2.958-7.753,0-10.711l-77.243-77.243
		c-3.369-3.369-7.693-5.166-12.073-5.391l-17.913-17.913c15.402-20.164,24.28-45.558,23.413-73.091
		c-1.913-60.766-51.813-109.787-112.602-110.682c-31.795-0.468-60.663,12.045-81.664,32.574l19.461,19.461
		C168.818,135.848,190.26,127.128,213.012,127.128z"/>
	<path style="fill:#FFFFFF;" d="M143.146,265.655c-1.697-2.287-3.275-4.647-4.729-7.072
		C139.871,261.008,141.449,263.368,143.146,265.655z"/>
	<path style="fill:#FFFFFF;" d="M119.632,147.927c0.053-0.074,0.105-0.149,0.158-0.223
		C119.737,147.777,119.685,147.852,119.632,147.927z"/>
	<path style="fill:#FFFFFF;" d="M151.584,152.563c0.248-0.248,0.508-0.478,0.759-0.723
		C152.089,152.065,151.851,152.295,151.584,152.563z"/>
	<path style="fill:#FFFFFF;" d="M145.781,269.029c1.816,2.212,3.751,4.346,5.801,6.396c3.074,3.074,6.34,5.89,9.77,8.436
		c-3.43-2.546-6.696-5.362-9.77-8.436C149.532,273.376,147.598,271.241,145.781,269.029z"/>
	<path style="opacity:0.64;fill:#FFFFFF;enable-background:new    ;" d="M210.452,193.35c-1.939-1.485-4.355-2.377-6.986-2.377
		c-6.357,0-11.511,5.154-11.511,11.511c0,1.748,0.401,3.399,1.099,4.883C195.589,199.839,202.306,194.239,210.452,193.35z"/>
	<path style="opacity:0.64;fill:#FFFFFF;enable-background:new    ;" d="M212.732,193.219c-0.771,0-1.53,0.049-2.279,0.131
		c2.747,2.104,4.525,5.407,4.525,9.134c0,6.357-5.154,11.511-11.511,11.511c-4.609,0-8.574-2.715-10.413-6.628
		c-0.702,2.084-1.099,4.307-1.099,6.628c0,11.474,9.302,20.776,20.776,20.776c11.474,0,20.776-9.302,20.776-20.776
		C233.508,202.521,224.206,193.219,212.732,193.219z"/>
	<path style="opacity:0.64;fill:#FFFFFF;enable-background:new    ;" d="M203.466,213.995c6.357,0,11.511-5.154,11.511-11.511
		c0-3.727-1.779-7.03-4.525-9.134c-8.146,0.89-14.863,6.49-17.398,14.018C194.892,211.28,198.857,213.995,203.466,213.995z"/>
	<path style="opacity:0.64;fill:#FFFFFF;enable-background:new    ;" d="M203.466,213.995c6.357,0,11.511-5.154,11.511-11.511
		c0-3.727-1.779-7.03-4.525-9.134c-8.146,0.89-14.863,6.49-17.398,14.018C194.892,211.28,198.857,213.995,203.466,213.995z"/>
	<path style="fill:#EDEFEF;" d="M101.609,187.961c0.095-0.409,0.199-0.815,0.298-1.222
		C101.808,187.146,101.704,187.552,101.609,187.961z"/>
	<path style="fill:#EDEFEF;" d="M99.971,196.438c0.063-0.408,0.135-0.813,0.202-1.22C100.106,195.625,100.034,196.03,99.971,196.438
		z"/>
	<path style="fill:#EDEFEF;" d="M100.994,190.762c0.084-0.407,0.177-0.811,0.265-1.217
		C101.17,189.95,101.078,190.354,100.994,190.762z"/>
	<path style="fill:#EDEFEF;" d="M274.443,275.425c0.31-0.31,0.599-0.635,0.904-0.949l-0.005-0.005
		C275.06,274.808,274.724,275.089,274.443,275.425z"/>
	<path style="fill:#EDEFEF;" d="M102.291,185.189c0.107-0.412,0.222-0.821,0.333-1.232
		C102.513,184.368,102.398,184.777,102.291,185.189z"/>
	<path style="fill:#EDEFEF;" d="M151.584,152.563c-0.001,0.001-0.001,0.001-0.002,0.002c-7.173,7.173-12.939,15.389-17.155,24.305
		c4.216-8.915,9.982-17.131,17.155-24.305C151.583,152.564,151.583,152.563,151.584,152.563z"/>
	<path style="fill:#EDEFEF;" d="M98.669,211.019c0.008-0.308,0.025-0.615,0.035-0.922C98.694,210.405,98.677,210.711,98.669,211.019
		z"/>
	<path style="fill:#EDEFEF;" d="M98.782,208.062c0.019-0.372,0.048-0.742,0.071-1.114C98.83,207.319,98.801,207.689,98.782,208.062z
		"/>
	<path style="fill:#EDEFEF;" d="M98.97,205.126c0.03-0.397,0.071-0.791,0.105-1.186C99.041,204.335,99.001,204.729,98.97,205.126z"
		/>
	<path style="fill:#EDEFEF;" d="M103.04,182.445c0.119-0.416,0.246-0.829,0.37-1.243
		C103.286,181.616,103.159,182.028,103.04,182.445z"/>
	<path style="fill:#EDEFEF;" d="M100.448,193.587c0.074-0.408,0.156-0.814,0.234-1.22
		C100.604,192.774,100.521,193.179,100.448,193.587z"/>
	<path style="fill:#EDEFEF;" d="M99.566,199.313c0.052-0.41,0.115-0.816,0.171-1.224C99.68,198.496,99.618,198.903,99.566,199.313z"
		/>
	<path style="fill:#EDEFEF;" d="M99.232,202.207c0.041-0.403,0.092-0.804,0.138-1.206C99.324,201.403,99.273,201.804,99.232,202.207
		z"/>
	<path style="fill:#EDEFEF;" d="M133.07,132.199l-0.018-0.018c-4.227,4.138-8.129,8.605-11.679,13.353
		C124.924,140.789,128.84,136.334,133.07,132.199z"/>
	<path style="fill:#EDEFEF;" d="M129.87,188.69c1.227-4.051,2.749-8,4.556-11.821C132.62,180.69,131.097,184.639,129.87,188.69z"/>
	<path style="fill:#EDEFEF;" d="M116.758,152.181c0.409-0.635,0.824-1.265,1.245-1.891
		C117.583,150.916,117.167,151.546,116.758,152.181z"/>
	<path style="fill:#EDEFEF;" d="M111.281,161.662c0.27-0.523,0.546-1.043,0.824-1.562
		C111.828,160.619,111.551,161.138,111.281,161.662z"/>
	<path style="fill:#EDEFEF;" d="M119.79,147.703c0.503-0.706,1.013-1.407,1.532-2.101
		C120.804,146.297,120.293,146.997,119.79,147.703z"/>
	<path style="fill:#EDEFEF;" d="M110.046,164.133c0.244-0.502,0.494-1.001,0.745-1.499
		C110.54,163.132,110.289,163.63,110.046,164.133z"/>
	<path style="fill:#EDEFEF;" d="M112.574,159.227c0.299-0.546,0.604-1.088,0.911-1.629
		C113.178,158.139,112.872,158.681,112.574,159.227z"/>
	<path style="fill:#EDEFEF;" d="M108.865,166.643c0.219-0.482,0.445-0.96,0.671-1.438
		C109.311,165.683,109.085,166.161,108.865,166.643z"/>
	<path style="fill:#EDEFEF;" d="M113.918,156.836c0.332-0.574,0.67-1.143,1.011-1.71
		C114.588,155.693,114.249,156.262,113.918,156.836z"/>
	<path style="fill:#EDEFEF;" d="M152.531,151.661c-0.062,0.06-0.126,0.119-0.188,0.179c0.065-0.057,0.125-0.117,0.194-0.174
		L152.531,151.661z"/>
	<path style="fill:#EDEFEF;" d="M106.677,171.778c0.181-0.455,0.368-0.906,0.555-1.357
		C107.046,170.873,106.858,171.324,106.677,171.778z"/>
	<path style="fill:#EDEFEF;" d="M118.251,149.919c0.454-0.669,0.914-1.333,1.381-1.993
		C119.165,148.586,118.704,149.25,118.251,149.919z"/>
	<path style="fill:#EDEFEF;" d="M107.742,169.192c0.199-0.466,0.404-0.928,0.609-1.391
		C108.146,168.264,107.94,168.726,107.742,169.192z"/>
	<path style="fill:#EDEFEF;" d="M103.855,179.729c0.132-0.422,0.272-0.841,0.409-1.261
		C104.127,178.888,103.987,179.307,103.855,179.729z"/>
	<path style="fill:#EDEFEF;" d="M104.733,177.046c0.147-0.43,0.301-0.857,0.453-1.285
		C105.034,176.189,104.88,176.616,104.733,177.046z"/>
	<path style="fill:#EDEFEF;" d="M115.313,154.487c0.368-0.603,0.743-1.201,1.121-1.796
		C116.056,153.286,115.681,153.884,115.313,154.487z"/>
	<path style="fill:#EDEFEF;" d="M105.675,174.393c0.163-0.441,0.333-0.879,0.501-1.317
		C106.008,173.515,105.838,173.952,105.675,174.393z"/>
	<path style="fill:#EDEFEF;" d="M127.814,196.919c0.552-2.783,1.238-5.528,2.056-8.229
		C129.052,191.39,128.366,194.136,127.814,196.919z"/>
	<path style="fill:#EDEFEF;" d="M275.347,274.476c-0.305,0.314-0.594,0.639-0.904,0.949c-16.396,16.396-38.24,25.437-61.43,25.437
		c-7.247,0-14.363-0.883-21.221-2.597c-2.744-0.686-5.446-1.505-8.099-2.453c-7.96-2.846-15.479-6.859-22.339-11.951
		c-3.43-2.546-6.696-5.362-9.77-8.436c-2.05-2.05-3.984-4.184-5.801-6.396c-0.908-1.106-1.787-2.231-2.635-3.374
		c-1.697-2.287-3.275-4.647-4.729-7.072c-7.999-13.338-12.272-28.644-12.272-44.588c0-5.798,0.565-11.511,1.669-17.076
		c0.552-2.783,1.238-5.528,2.056-8.229c1.227-4.051,2.749-8,4.556-11.821c4.216-8.915,9.982-17.131,17.155-24.305
		c0.001-0.001,0.001-0.001,0.002-0.002c0.268-0.268,0.505-0.498,0.759-0.723c0.062-0.061,0.126-0.119,0.188-0.179l-19.461-19.461
		c-4.23,4.135-8.146,8.589-11.697,13.334c-0.017,0.023-0.034,0.046-0.051,0.069c-0.518,0.694-1.029,1.395-1.532,2.101
		c-0.053,0.074-0.105,0.149-0.158,0.223c-0.467,0.659-0.928,1.323-1.381,1.993c-0.083,0.123-0.165,0.247-0.248,0.37
		c-0.421,0.626-0.836,1.256-1.245,1.891c-0.109,0.169-0.216,0.34-0.324,0.51c-0.379,0.595-0.753,1.194-1.121,1.796
		c-0.129,0.212-0.256,0.426-0.385,0.639c-0.341,0.567-0.679,1.136-1.011,1.71c-0.146,0.253-0.289,0.508-0.433,0.762
		c-0.307,0.541-0.612,1.083-0.911,1.629c-0.158,0.29-0.312,0.582-0.468,0.873c-0.278,0.519-0.554,1.038-0.824,1.562
		c-0.166,0.322-0.328,0.648-0.491,0.972c-0.251,0.498-0.501,0.997-0.745,1.499c-0.173,0.356-0.34,0.715-0.509,1.072
		c-0.226,0.478-0.452,0.956-0.671,1.438c-0.175,0.384-0.344,0.772-0.515,1.158c-0.205,0.463-0.41,0.925-0.609,1.391
		c-0.174,0.408-0.341,0.819-0.51,1.229c-0.186,0.452-0.374,0.903-0.555,1.357c-0.171,0.431-0.335,0.865-0.501,1.298
		c-0.168,0.438-0.338,0.876-0.501,1.317c-0.167,0.454-0.328,0.911-0.489,1.368c-0.152,0.428-0.306,0.855-0.453,1.285
		c-0.161,0.472-0.314,0.947-0.469,1.422c-0.137,0.42-0.277,0.839-0.409,1.261c-0.153,0.489-0.298,0.981-0.445,1.472
		c-0.124,0.414-0.251,0.827-0.37,1.243c-0.144,0.502-0.279,1.008-0.416,1.513c-0.111,0.41-0.226,0.82-0.333,1.232
		c-0.133,0.514-0.258,1.033-0.384,1.55c-0.1,0.407-0.203,0.813-0.298,1.222c-0.122,0.526-0.235,1.055-0.35,1.584
		c-0.088,0.406-0.181,0.81-0.265,1.217c-0.11,0.533-0.21,1.07-0.312,1.605c-0.078,0.407-0.16,0.812-0.234,1.22
		c-0.098,0.542-0.184,1.087-0.274,1.631c-0.067,0.407-0.139,0.812-0.202,1.22c-0.084,0.548-0.158,1.1-0.234,1.65
		c-0.057,0.408-0.119,0.815-0.171,1.224c-0.072,0.561-0.132,1.125-0.196,1.689c-0.045,0.402-0.096,0.802-0.138,1.206
		c-0.059,0.576-0.106,1.155-0.156,1.733c-0.034,0.396-0.075,0.79-0.105,1.186c-0.046,0.605-0.08,1.214-0.117,1.822
		c-0.023,0.372-0.052,0.741-0.071,1.114c-0.035,0.676-0.056,1.356-0.078,2.035c-0.01,0.308-0.027,0.614-0.035,0.922
		c-0.025,0.989-0.038,1.981-0.038,2.976c0,63.171,51.211,114.382,114.382,114.382c27.178,0,52.109-9.49,71.706-25.268l17.576,17.576
		c0.225,4.436,2.021,8.872,5.391,12.241l77.243,77.243c2.958,2.958,7.753,2.958,10.711,0l7.7-7.7L275.347,274.476z"/>
</g>
</svg>
