<?xml version="1.0" encoding="utf-8"?>
<!-- Generator: Adobe Illustrator 18.0.0, SVG Export Plug-In . SVG Version: 6.00 Build 0)  -->
<!DOCTYPE svg PUBLIC "-//W3C//DTD SVG 1.1//EN" "http://www.w3.org/Graphics/SVG/1.1/DTD/svg11.dtd">
<svg version="1.1" id="Layer_1" xmlns="http://www.w3.org/2000/svg" xmlns:xlink="http://www.w3.org/1999/xlink" x="0px" y="0px"
	 viewBox="0 0 512 512" style="enable-background:new 0 0 512 512;" xml:space="preserve">
<g>
	<g>
		<g>
			<g>
				<g style="enable-background:new    ;">
					<path style="opacity:0.5;fill:#E1DFDF;enable-background:new    ;" d="M256,143.214c-43.943,0-79.694,35.751-79.694,79.694
						s35.751,79.694,79.694,79.694s79.694-35.751,79.694-79.694S299.943,143.214,256,143.214z M256,263.782
						c-22.539,0-40.874-18.336-40.874-40.874s18.336-40.874,40.874-40.874s40.874,18.336,40.874,40.874
						C296.874,245.446,278.539,263.782,256,263.782z"/>
					<path style="fill:#FFFFFF;" d="M256,182.033c-22.539,0-40.874,18.336-40.874,40.874s18.336,40.874,40.874,40.874
						s40.874-18.336,40.874-40.874S278.539,182.033,256,182.033z M256,259.479c-20.166,0-36.572-16.406-36.572-36.572
						s16.406-36.572,36.572-36.572c20.166,0,36.572,16.406,36.572,36.572S276.166,259.479,256,259.479z"/>
				</g>
			</g>
			<g>
				<g style="enable-background:new    ;">
					<g>
						<path style="fill:#FFFFFF;" d="M255.999,139.771c-45.915,0-83.135,37.22-83.135,83.135s37.22,83.136,83.135,83.136
							s83.135-37.22,83.135-83.136S301.914,139.771,255.999,139.771z M255.999,300.88c-42.995,0-77.972-34.979-77.972-77.972
							s34.979-77.972,77.972-77.972s77.972,34.979,77.972,77.972C333.972,265.902,298.994,300.88,255.999,300.88z"/>
						<path style="opacity:0.5;fill:#FFFFFF;enable-background:new    ;" d="M395.234,83.672C358.044,46.481,308.595,26,255.999,26
							c-52.595,0-102.043,20.481-139.236,57.672c-37.19,37.191-57.672,86.639-57.672,139.236s20.481,102.045,57.673,139.236
							c37.191,37.192,86.638,57.673,139.236,57.673s102.045-20.481,139.236-57.673c37.192-37.191,57.673-86.638,57.673-139.236
							C452.907,170.31,432.424,120.863,395.234,83.672z M391.585,358.491c-36.216,36.217-84.367,56.161-135.585,56.161
							s-99.369-19.945-135.585-56.161C84.2,322.274,64.254,274.123,64.254,222.908c0-51.217,19.945-99.369,56.16-135.585
							c36.217-36.216,84.367-56.16,135.585-56.16s99.369,19.945,135.585,56.16s56.16,84.367,56.162,135.585
							C447.746,274.124,427.8,322.274,391.585,358.491z"/>
					</g>
					<path style="fill:#489BD4;" d="M391.583,87.323c-36.216-36.216-84.367-56.16-135.585-56.16s-99.368,19.945-135.585,56.16
						c-36.214,36.216-56.16,84.367-56.16,135.585s19.945,99.369,56.161,135.585c36.216,36.217,84.367,56.161,135.585,56.161
						s99.369-19.945,135.585-56.161c36.217-36.216,56.161-84.367,56.161-135.585C447.744,171.69,427.799,123.539,391.583,87.323z
						 M255.999,306.043c-45.915,0-83.135-37.22-83.135-83.136s37.22-83.135,83.135-83.135s83.135,37.22,83.135,83.135
						S301.914,306.043,255.999,306.043z"/>
				</g>
			</g>
		</g>
		<g>
			<rect x="137.663" y="435.256" style="fill:#20B798;" width="50.744" height="50.744"/>
			<rect x="199.684" y="435.256" style="fill:#3A95D2;" width="50.744" height="50.744"/>
			<rect x="261.573" y="435.256" style="fill:#EFC419;" width="50.744" height="50.744"/>
			<rect x="323.593" y="435.256" style="fill:#E64C3D;" width="50.744" height="50.744"/>
		</g>
	</g>
</g>
<g>
	<g>
		<polygon style="fill:#D6D6D6;" points="256,333.3 276,298.7 256,310.1 		"/>
		<path style="fill:#C4834D;" d="M256,128.7v170v11.4l20-11.4v-165c0-2.8-2.2-5-5-5H256L256,128.7z"/>
		<polygon style="fill:#FFFFFF;" points="236,298.7 256,333.3 256,310.1 		"/>
	</g>
	<g>
		<polygon style="fill:#FFE000;" points="236,298.7 256,310.1 256,143.6 236,143.6 		"/>
		<path style="fill:#ADADAD;" d="M271,128.7h-15v14.9h20v-9.9C276,130.9,273.8,128.7,271,128.7z"/>
		<path style="fill:#FFFFFF;" d="M236,133.7v9.9h20v-14.9h-15C238.2,128.7,236,130.9,236,133.7z"/>
	</g>
</g>
</svg>
