<?xml version="1.0" encoding="utf-8"?>
<!-- Generator: Adobe Illustrator 18.0.0, SVG Export Plug-In . SVG Version: 6.00 Build 0)  -->
<!DOCTYPE svg PUBLIC "-//W3C//DTD SVG 1.1//EN" "http://www.w3.org/Graphics/SVG/1.1/DTD/svg11.dtd">
<svg version="1.1" id="Layer_1" xmlns="http://www.w3.org/2000/svg" xmlns:xlink="http://www.w3.org/1999/xlink" x="0px" y="0px"
	 viewBox="0 0 512 512" style="enable-background:new 0 0 512 512;" xml:space="preserve">
<g>
	<polygon style="fill:#FFD400;" points="238.269,76.343 81.356,30.046 27.509,184.524 27.416,184.571 182.127,486 287.6,431.862 
		393.072,377.725 238.357,76.3 	"/>
	<g>
		<polygon style="fill:#F37A20;" points="484.584,265.576 245.008,26 244.937,26.068 81.385,30.039 400.754,349.407 		"/>
		<polygon style="fill:#F8A136;" points="77.423,193.585 77.349,193.658 316.923,433.239 400.753,349.408 400.754,349.407 
			81.385,30.039 81.384,30.039 		"/>
	</g>
</g>
<g>
	<g>
		<polygon style="fill:#D6D6D6;" points="119.585,392.415 106.2,343.545 83.477,428.523 		"/>
		<path style="fill:#C4834D;" d="M401.909,110.091l-23.345-23.345c-4.358-4.358-11.206-4.358-15.564,0l-256.8,256.8l13.385,48.87
			l17.743-17.743L401.909,110.091L401.909,110.091z"/>
		<polygon style="fill:#FFFFFF;" points="119.585,392.415 83.477,428.523 168.455,405.8 		"/>
	</g>
	<g>
		<polygon style="fill:#FFE000;" points="409.846,164.408 378.719,133.281 119.585,392.415 168.455,405.8 		"/>
		<path style="fill:#ADADAD;" d="M363,86.746l-15.408,15.408l31.127,31.127l23.19-23.19l-23.345-23.345
			C374.206,82.388,367.358,82.388,363,86.746z"/>
		<path style="fill:#FFFFFF;" d="M425.254,133.437l-23.345-23.345l-23.19,23.19l31.127,31.127L425.254,149
			C429.612,144.642,429.612,137.794,425.254,133.437z"/>
	</g>
</g>
</svg>
