<?xml version="1.0" encoding="utf-8"?>
<!-- Generator: Adobe Illustrator 18.0.0, SVG Export Plug-In . SVG Version: 6.00 Build 0)  -->
<!DOCTYPE svg PUBLIC "-//W3C//DTD SVG 1.1//EN" "http://www.w3.org/Graphics/SVG/1.1/DTD/svg11.dtd">
<svg version="1.1" id="Layer_2" xmlns="http://www.w3.org/2000/svg" xmlns:xlink="http://www.w3.org/1999/xlink" x="0px" y="0px"
	 viewBox="0 0 512 512" enable-background="new 0 0 512 512" xml:space="preserve">
<g>
	<path opacity="0.4" d="M375.3,56.7c-0.8-4.8,2.3-9.4,7.1-10.3l-2-11.3c-4.8,0.8-9.4-2.5-10.2-7.3l-11.2,2c0.9,4.9-2.4,9.5-7.3,10.4
		c-4.9,0.9-9.5-2.4-10.4-7.3l-11.2,2c0.9,4.9-2.4,9.5-7.3,10.4c-4.9,0.9-9.5-2.4-10.4-7.3l-11.2,2c0.9,4.9-2.4,9.5-7.3,10.4
		c-4.9,0.9-9.5-2.4-10.4-7.3l-11.2,2c0.9,4.9-2.4,9.5-7.3,10.4c-4.9,0.9-9.5-2.4-10.4-7.3l-11.2,2c0.9,4.9-2.4,9.5-7.3,10.4
		c-4.9,0.9-9.5-2.4-10.4-7.3l-11.2,2c0.9,4.9-2.4,9.5-7.3,10.4s-9.5-2.4-10.4-7.3l-11.2,2c0.9,4.9-2.4,9.5-7.3,10.4
		c-4.9,0.9-9.5-2.4-10.4-7.3l-11.2,2c0.9,4.9-2.4,9.5-7.3,10.4c-4.9,0.9-9.5-2.4-10.4-7.3l-11.2,2c0.9,4.9-2.4,9.5-7.3,10.4
		c-4.9,0.9-9.5-2.4-10.4-7.3l-11.2,2c0.9,4.9-2.4,9.5-7.3,10.4c-4.9,0.9-9.5-2.4-10.4-7.3l-11.2,2c0.8,4.8-2.3,9.4-7.1,10.3l2,11.3
		c4.8-0.8,9.4,2.5,10.2,7.3c0.8,4.8-2.3,9.4-7.1,10.3l2,11.3c4.8-0.8,9.4,2.5,10.2,7.3c0.8,4.8-2.3,9.4-7.1,10.3l2,11.3
		c4.8-0.8,9.4,2.5,10.2,7.3c0.8,4.8-2.3,9.4-7.1,10.3l2,11.3c4.8-0.8,9.4,2.5,10.2,7.3c0.8,4.8-2.3,9.4-7.1,10.3l2,11.3
		c4.8-0.8,9.4,2.5,10.2,7.3c0.8,4.8-2.3,9.4-7.1,10.3l2,11.3c4.8-0.8,9.4,2.5,10.2,7.3c0.8,4.8-2.3,9.4-7.1,10.3l2,11.3
		c4.8-0.8,9.4,2.5,10.2,7.3s-2.3,9.4-7.1,10.3l2,11.3c4.8-0.8,9.4,2.5,10.2,7.3c0.8,4.8-2.3,9.4-7.1,10.3l2,11.3
		c4.8-0.8,9.4,2.5,10.2,7.3c0.8,4.8-2.3,9.4-7.1,10.3l2,11.3c4.8-0.8,9.4,2.5,10.2,7.3c0.8,4.8-2.3,9.4-7.1,10.3l2,11.3
		c4.8-0.8,9.4,2.5,10.2,7.3c0.8,4.8-2.3,9.4-7.1,10.3l2,11.3c4.8-0.8,9.4,2.5,10.2,7.3s-2.3,9.4-7.1,10.3l2,11.3
		c4.8-0.8,9.4,2.5,10.2,7.3c0.8,4.8-2.3,9.4-7.1,10.3l2,11.3c4.8-0.8,9.4,2.5,10.2,7.3l11.2-2c-0.9-4.9,2.4-9.5,7.3-10.4
		c4.9-0.9,9.5,2.4,10.4,7.3l11.2-2c-0.9-4.9,2.4-9.5,7.3-10.4c4.9-0.9,9.5,2.4,10.4,7.3l11.2-2c-0.9-4.9,2.4-9.5,7.3-10.4
		c4.9-0.9,9.5,2.4,10.4,7.3l11.2-2c-0.9-4.9,2.4-9.5,7.3-10.4c4.9-0.9,9.5,2.4,10.4,7.3l11.2-2c-0.9-4.9,2.4-9.5,7.3-10.4
		s9.5,2.4,10.4,7.3l11.2-2c-0.9-4.9,2.4-9.5,7.3-10.4s9.5,2.4,10.4,7.3l11.2-2c-0.9-4.9,2.4-9.5,7.3-10.4c4.9-0.9,9.5,2.4,10.4,7.3
		l11.2-2c-0.9-4.9,2.4-9.5,7.3-10.4c4.9-0.9,9.5,2.4,10.4,7.3l11.2-2c-0.9-4.9,2.4-9.5,7.3-10.4c4.9-0.9,9.5,2.4,10.4,7.3l11.2-2
		c-0.9-4.9,2.4-9.5,7.3-10.4c4.9-0.9,9.5,2.4,10.4,7.3l11.2-2c-0.8-4.8,2.3-9.4,7.1-10.3l-2-11.3c-4.8,0.8-9.4-2.5-10.2-7.3
		c-0.8-4.8,2.3-9.4,7.1-10.3l-2-11.3c-4.8,0.8-9.4-2.5-10.2-7.3c-0.8-4.8,2.3-9.4,7.1-10.3l-2-11.3c-4.8,0.8-9.4-2.5-10.2-7.3
		c-0.8-4.8,2.3-9.4,7.1-10.3l-2-11.3c-4.8,0.8-9.4-2.5-10.2-7.3c-0.8-4.8,2.3-9.4,7.1-10.3l-2-11.3c-4.8,0.8-9.4-2.5-10.2-7.3
		c-0.8-4.8,2.3-9.4,7.1-10.3l-2-11.3c-4.8,0.8-9.4-2.5-10.2-7.3c-0.8-4.8,2.3-9.4,7.1-10.3l-2-11.3c-4.8,0.8-9.4-2.5-10.2-7.3
		c-0.8-4.8,2.3-9.4,7.1-10.3l-2-11.3c-4.8,0.8-9.4-2.5-10.2-7.3c-0.8-4.8,2.3-9.4,7.1-10.3l-2-11.3c-4.8,0.8-9.4-2.5-10.2-7.3
		c-0.8-4.8,2.3-9.4,7.1-10.3l-2-11.3c-4.8,0.8-9.4-2.5-10.2-7.3c-0.8-4.8,2.3-9.4,7.1-10.3l-2-11.3c-4.8,0.8-9.4-2.5-10.2-7.3
		c-0.8-4.8,2.3-9.4,7.1-10.3l-2-11.3c-4.8,0.8-9.4-2.5-10.2-7.3c-0.8-4.8,2.3-9.4,7.1-10.3l-2-11.3
		C380.7,64.8,376.2,61.6,375.3,56.7z"/>
	<path fill="#F7F7F7" d="M375.3,55c-0.8-4.8,2.3-9.4,7.1-10.3l-2-11.3c-4.8,0.8-9.4-2.5-10.2-7.3L359,28c0.9,4.9-2.4,9.5-7.3,10.4
		c-4.9,0.9-9.5-2.4-10.4-7.3l-11.2,2c0.9,4.9-2.4,9.5-7.3,10.4c-4.9,0.9-9.5-2.4-10.4-7.3l-11.2,2c0.9,4.9-2.4,9.5-7.3,10.4
		c-4.9,0.9-9.5-2.4-10.4-7.3l-11.2,2c0.9,4.9-2.4,9.5-7.3,10.4c-4.9,0.9-9.5-2.4-10.4-7.3l-11.2,2c0.9,4.9-2.4,9.5-7.3,10.4
		c-4.9,0.9-9.5-2.4-10.4-7.3l-11.2,2c0.9,4.9-2.4,9.5-7.3,10.4c-4.9,0.9-9.5-2.4-10.4-7.3l-11.2,2c0.9,4.9-2.4,9.5-7.3,10.4
		c-4.9,0.9-9.5-2.4-10.4-7.3l-11.2,2c0.9,4.9-2.4,9.5-7.3,10.4c-4.9,0.9-9.5-2.4-10.4-7.3l-11.2,2c0.9,4.9-2.4,9.5-7.3,10.4
		c-4.9,0.9-9.5-2.4-10.4-7.3l-11.2,2c0.9,4.9-2.4,9.5-7.3,10.4c-4.9,0.9-9.5-2.4-10.4-7.3l-11.2,2c0.8,4.8-2.3,9.4-7.1,10.3l2,11.3
		c4.8-0.8,9.4,2.5,10.2,7.3c0.8,4.8-2.3,9.4-7.1,10.3l2,11.3c4.8-0.8,9.4,2.5,10.2,7.3c0.8,4.8-2.3,9.4-7.1,10.3l2,11.3
		c4.8-0.8,9.4,2.5,10.2,7.3c0.8,4.8-2.3,9.4-7.1,10.3l2,11.3c4.8-0.8,9.4,2.5,10.2,7.3c0.8,4.8-2.3,9.4-7.1,10.3l2,11.3
		c4.8-0.8,9.4,2.5,10.2,7.3c0.8,4.8-2.3,9.4-7.1,10.3l2,11.3c4.8-0.8,9.4,2.5,10.2,7.3c0.8,4.8-2.3,9.4-7.1,10.3l2,11.3
		c4.8-0.8,9.4,2.5,10.2,7.3s-2.3,9.4-7.1,10.3l2,11.3c4.8-0.8,9.4,2.5,10.2,7.3c0.8,4.8-2.3,9.4-7.1,10.3l2,11.3
		c4.8-0.8,9.4,2.5,10.2,7.3c0.8,4.8-2.3,9.4-7.1,10.3l2,11.3c4.8-0.8,9.4,2.5,10.2,7.3c0.8,4.8-2.3,9.4-7.1,10.3l2,11.3
		c4.8-0.8,9.4,2.5,10.2,7.3c0.8,4.8-2.3,9.4-7.1,10.3l2,11.3c4.8-0.8,9.4,2.5,10.2,7.3s-2.3,9.4-7.1,10.3l2,11.3
		c4.8-0.8,9.4,2.5,10.2,7.3c0.8,4.8-2.3,9.4-7.1,10.3l2,11.3c4.8-0.8,9.4,2.5,10.2,7.3l11.2-2c-0.9-4.9,2.4-9.5,7.3-10.4
		c4.9-0.9,9.5,2.4,10.4,7.3l11.2-2c-0.9-4.9,2.4-9.5,7.3-10.4c4.9-0.9,9.5,2.4,10.4,7.3l11.2-2c-0.9-4.9,2.4-9.5,7.3-10.4
		c4.9-0.9,9.5,2.4,10.4,7.3l11.2-2c-0.9-4.9,2.4-9.5,7.3-10.4c4.9-0.9,9.5,2.4,10.4,7.3l11.2-2c-0.9-4.9,2.4-9.5,7.3-10.4
		s9.5,2.4,10.4,7.3l11.2-2c-0.9-4.9,2.4-9.5,7.3-10.4c4.9-0.9,9.5,2.4,10.4,7.3l11.2-2c-0.9-4.9,2.4-9.5,7.3-10.4
		c4.9-0.9,9.5,2.4,10.4,7.3l11.2-2c-0.9-4.9,2.4-9.5,7.3-10.4c4.9-0.9,9.5,2.4,10.4,7.3l11.2-2c-0.9-4.9,2.4-9.5,7.3-10.4
		c4.9-0.9,9.5,2.4,10.4,7.3l11.2-2c-0.9-4.9,2.4-9.5,7.3-10.4c4.9-0.9,9.5,2.4,10.4,7.3l11.2-2c-0.8-4.8,2.3-9.4,7.1-10.3l-2-11.3
		c-4.8,0.8-9.4-2.5-10.2-7.3c-0.8-4.8,2.3-9.4,7.1-10.3l-2-11.3c-4.8,0.8-9.4-2.5-10.2-7.3c-0.8-4.8,2.3-9.4,7.1-10.3l-2-11.3
		c-4.8,0.8-9.4-2.5-10.2-7.3c-0.8-4.8,2.3-9.4,7.1-10.3l-2-11.3c-4.8,0.8-9.4-2.5-10.2-7.3c-0.8-4.8,2.3-9.4,7.1-10.3l-2-11.3
		c-4.8,0.8-9.4-2.5-10.2-7.3c-0.8-4.8,2.3-9.4,7.1-10.3l-2-11.3c-4.8,0.8-9.4-2.5-10.2-7.3c-0.8-4.8,2.3-9.4,7.1-10.3l-2-11.3
		c-4.8,0.8-9.4-2.5-10.2-7.3c-0.8-4.8,2.3-9.4,7.1-10.3l-2-11.3c-4.8,0.8-9.4-2.5-10.2-7.3c-0.8-4.8,2.3-9.4,7.1-10.3l-2-11.3
		c-4.8,0.8-9.4-2.5-10.2-7.3c-0.8-4.8,2.3-9.4,7.1-10.3l-2-11.3c-4.8,0.8-9.4-2.5-10.2-7.3c-0.8-4.8,2.3-9.4,7.1-10.3l-2-11.3
		c-4.8,0.8-9.4-2.5-10.2-7.3c-0.8-4.8,2.3-9.4,7.1-10.3l-2-11.3c-4.8,0.8-9.4-2.5-10.2-7.3c-0.8-4.8,2.3-9.4,7.1-10.3l-2-11.3
		C380.7,63,376.2,59.8,375.3,55z"/>
	<g>
		<g>
			
				<rect x="145.1" y="342.5" transform="matrix(0.9848 -0.1736 0.1736 0.9848 -63.007 54.3846)" fill="#FFDF40" width="268.4" height="89.5"/>
			
				<rect x="129.6" y="254.4" transform="matrix(0.9848 -0.1736 0.1736 0.9848 -47.9419 50.3479)" fill="#FAA680" width="268.4" height="89.5"/>
			
				<rect x="114" y="166.3" transform="matrix(0.9848 -0.1736 0.1736 0.9848 -32.8768 46.3112)" fill="#F56CBF" width="268.4" height="89.5"/>
			
				<rect x="98.5" y="78.2" transform="matrix(0.9848 -0.1736 0.1736 0.9848 -17.8117 42.2745)" fill="#F033FF" width="268.4" height="89.5"/>
		</g>
		<g opacity="0.5">
			
				<rect x="123.1" y="91.7" transform="matrix(0.9848 -0.1736 0.1736 0.9848 -44.446 33.2645)" fill="#FFFBAE" width="89.5" height="357.9"/>
			
				<rect x="211.3" y="76.2" transform="matrix(0.9848 -0.1736 0.1736 0.9848 -40.4093 48.3296)" fill="#B9B7D7" width="89.5" height="357.9"/>
			
				<rect x="299.4" y="60.6" transform="matrix(0.9848 -0.1736 0.1736 0.9848 -36.3727 63.3946)" fill="#7373FF" width="89.5" height="357.9"/>
		</g>
	</g>
</g>
</svg>
