<?xml version="1.0" encoding="utf-8"?>
<!-- Generator: Adobe Illustrator 18.0.0, SVG Export Plug-In . SVG Version: 6.00 Build 0)  -->
<!DOCTYPE svg PUBLIC "-//W3C//DTD SVG 1.1//EN" "http://www.w3.org/Graphics/SVG/1.1/DTD/svg11.dtd">
<svg version="1.1" id="Layer_1" xmlns="http://www.w3.org/2000/svg" xmlns:xlink="http://www.w3.org/1999/xlink" x="0px" y="0px"
	 viewBox="0 0 512 512" style="enable-background:new 0 0 512 512;" xml:space="preserve">
<g>
	<path style="fill:#E8E8E8;" d="M446,486H66c-22.1,0-40-17.9-40-40V66c0-22.1,17.9-40,40-40h380c22.1,0,40,17.9,40,40v380
		C486,468.1,468.1,486,446,486z"/>
	<path style="fill:#60493D;" d="M446,486H66c-22.1,0-40-17.9-40-40V66c0-22.1,17.9-40,40-40h380c22.1,0,40,17.9,40,40v380
		C486,468.1,468.1,486,446,486z"/>
	<g>
		<path style="fill:#825E46;" d="M26.1,94.6c0,0.8-0.1,1.6-0.1,2.4v349c0,0.7,0,1.4,0.1,2.1l165.8-176.8L26.1,94.6z"/>
		<path style="fill:#825E46;" d="M320.1,271.3l165.8,176.8c0-0.7,0.1-1.4,0.1-2.1V97c0-0.8,0-1.6-0.1-2.4L320.1,271.3z"/>
		
			<linearGradient id="SVGID_1_" gradientUnits="userSpaceOnUse" x1="256" y1="26" x2="256" y2="309" gradientTransform="matrix(1 0 0 -1 0 512)">
			<stop  offset="0" style="stop-color:#563D2A"/>
			<stop  offset="0.362" style="stop-color:#6D4E39"/>
			<stop  offset="0.7165" style="stop-color:#7D5A43"/>
			<stop  offset="1" style="stop-color:#825E46"/>
		</linearGradient>
		<path style="fill:url(#SVGID_1_);" d="M320.1,271.3L256,203l-64.1,68.3L26.1,448.1c0,0,0,0,0,0.1C27.2,469.3,44.6,486,66,486h380
			c21.4,0,38.8-16.7,39.9-37.8c0,0,0,0,0-0.1L320.1,271.3z"/>
		
			<linearGradient id="SVGID_2_" gradientUnits="userSpaceOnUse" x1="256" y1="172.3" x2="256" y2="455" gradientTransform="matrix(1 0 0 -1 0 512)">
			<stop  offset="0" style="stop-color:#483221"/>
			<stop  offset="0.3122" style="stop-color:#563D2A"/>
			<stop  offset="0.9016" style="stop-color:#7B5942"/>
			<stop  offset="1" style="stop-color:#825E46"/>
		</linearGradient>
		<path style="fill:url(#SVGID_2_);" d="M485.9,94.5C484.6,73.6,467.3,57,446,57H66c-21.3,0-38.6,16.6-39.9,37.5v0.1l165.8,176.8
			l64.1,68.3l64.1-68.3L485.9,94.5C485.9,94.6,485.9,94.5,485.9,94.5z"/>
	</g>
	<g style="opacity:0.5;">
		<path id="path236" style="fill:#FFFFFF;" d="M346.9,264.4c-6.2-6.2-16.2-6.2-22.4,0c-0.2,0.2-0.3,0.4-0.5,0.5L271.9,317V164.4l0,0
			c0.1-4.2-1.5-8.3-4.6-11.5c-6.2-6.2-16.2-6.2-22.4,0c-3.2,3.2-4.7,7.4-4.6,11.5l0,0V317l-52.5-52.5c0,0,0-0.1-0.1-0.1
			c-6.2-6.2-16.2-6.2-22.4,0s-6.2,16.2,0,22.4l0,0l68.5,68.5l0,0l6.6,6.6l0,0l0,0l12.3,12.3l0.2,0.2c0.9,0.8,2.1,1.4,3.4,1.4
			s2.5-0.5,3.4-1.4l0.2-0.2l12.3-12.3l0,0l0,0l75-75l0,0C353,280.6,353,270.6,346.9,264.4"/>
		<path id="path240" style="fill:#FFFFFF;" d="M256,82.8C157,82.8,76.8,163,76.8,262S157,441.2,256,441.2S435.2,361,435.2,262
			S355,82.8,256,82.8 M256,107.8c41.2,0,79.9,16,109,45.2c29.1,29.1,45.2,67.8,45.2,109s-16,79.9-45.2,109
			c-29.1,29.1-67.8,45.2-109,45.2s-79.9-16-109-45.2c-29.1-29.1-45.2-67.8-45.2-109s16-79.9,45.2-109
			C176.1,123.9,214.8,107.8,256,107.8"/>
	</g>
	<g style="display:none;">
		<path style="display:inline;opacity:0.9;fill:#3F3F3F;enable-background:new    ;" d="M318.2,216H193.8l0,0l0,0
			c-34.3,0-62,27.8-62,62c0,34.3,27.8,62,62,62l0,0h124.3l0,0c34.3,0,62-27.8,62-62C380.2,243.7,352.5,216,318.2,216z"/>
		<circle style="display:inline;fill:#EFEFEF;" cx="318.2" cy="278" r="47.3"/>
	</g>
</g>
</svg>
