<?xml version="1.0" encoding="utf-8"?>
<!-- Generator: Adobe Illustrator 18.0.0, SVG Export Plug-In . SVG Version: 6.00 Build 0)  -->
<!DOCTYPE svg PUBLIC "-//W3C//DTD SVG 1.1//EN" "http://www.w3.org/Graphics/SVG/1.1/DTD/svg11.dtd">
<svg version="1.1" id="Layer_1" xmlns="http://www.w3.org/2000/svg" xmlns:xlink="http://www.w3.org/1999/xlink" x="0px" y="0px"
	 viewBox="0 0 512 512" enable-background="new 0 0 512 512" xml:space="preserve">
<path fill="#E8E8E8" d="M446,486H66c-22.1,0-40-17.9-40-40V66c0-22.1,17.9-40,40-40h380c22.1,0,40,17.9,40,40v380
	C486,468.1,468.1,486,446,486z"/>
<path fill="#E8E8E8" d="M446,486H66c-22.1,0-40-17.9-40-40V66c0-22.1,17.9-40,40-40h380c22.1,0,40,17.9,40,40v380
	C486,468.1,468.1,486,446,486z"/>
<g>
	<path id="path236" fill="#828282" d="M346.9,264.4c-6.2-6.2-16.2-6.2-22.4,0c-0.2,0.2-0.3,0.4-0.5,0.5L271.9,317V164.4h0
		c0.1-4.2-1.5-8.3-4.6-11.5c-6.2-6.2-16.2-6.2-22.4,0c-3.2,3.2-4.7,7.4-4.6,11.5h0V317l-52.5-52.5c0,0,0-0.1-0.1-0.1
		c-6.2-6.2-16.2-6.2-22.4,0c-6.2,6.2-6.2,16.2,0,22.4l0,0l68.5,68.5l0,0l6.6,6.6v0h0l12.3,12.3l0.2,0.2c0.9,0.8,2.1,1.4,3.4,1.4
		s2.5-0.5,3.4-1.4l0.2-0.2l12.3-12.3h0v0l75-75l0,0C353,280.6,353,270.6,346.9,264.4"/>
	<path id="path240" fill="#828282" d="M256,82.8C157,82.8,76.8,163,76.8,262c0,99,80.2,179.2,179.2,179.2S435.2,361,435.2,262
		C435.2,163,355,82.8,256,82.8 M256,107.8c41.2,0,79.9,16,109,45.2c29.1,29.1,45.2,67.8,45.2,109c0,41.2-16,79.9-45.2,109
		c-29.1,29.1-67.8,45.2-109,45.2s-79.9-16-109-45.2c-29.1-29.1-45.2-67.8-45.2-109c0-41.2,16-79.9,45.2-109
		C176.1,123.9,214.8,107.8,256,107.8"/>
</g>
<g>
	<radialGradient id="SVGID_1_" cx="256" cy="271.3547" r="167.6247" gradientUnits="userSpaceOnUse">
		<stop  offset="0" style="stop-color:#A6A6A6"/>
		<stop  offset="1" style="stop-color:#EFEFEF"/>
	</radialGradient>
	<path fill="url(#SVGID_1_)" d="M26.1,94.6c0,0.8-0.1,1.6-0.1,2.4v349c0,0.7,0,1.4,0.1,2.1l165.8-176.8L26.1,94.6z"/>
	<radialGradient id="SVGID_2_" cx="256" cy="271.3547" r="167.5541" gradientUnits="userSpaceOnUse">
		<stop  offset="0" style="stop-color:#A6A6A6"/>
		<stop  offset="1" style="stop-color:#EFEFEF"/>
	</radialGradient>
	<path fill="url(#SVGID_2_)" d="M320.1,271.3l165.8,176.8c0-0.7,0.1-1.4,0.1-2.1V97c0-0.8,0-1.6-0.1-2.4L320.1,271.3z"/>
	<radialGradient id="SVGID_3_" cx="255.3333" cy="204.5" r="208.0054" gradientUnits="userSpaceOnUse">
		<stop  offset="0" style="stop-color:#A3A3A3"/>
		<stop  offset="0.2116" style="stop-color:#AEAEAE"/>
		<stop  offset="0.5788" style="stop-color:#CACACA"/>
		<stop  offset="1" style="stop-color:#F2F2F2"/>
	</radialGradient>
	<path fill="url(#SVGID_3_)" d="M320.1,271.3L256,203l-64.1,68.3L26.1,448.1c0,0,0,0,0,0.1C27.2,469.3,44.6,486,66,486h380
		c21.4,0,38.8-16.7,39.9-37.8c0,0,0,0,0-0.1L320.1,271.3z"/>
	<radialGradient id="SVGID_4_" cx="256" cy="339.6763" r="211.4279" gradientUnits="userSpaceOnUse">
		<stop  offset="3.493290e-03" style="stop-color:#808080"/>
		<stop  offset="1" style="stop-color:#F5F5F5"/>
	</radialGradient>
	<path fill="url(#SVGID_4_)" d="M485.9,94.5C484.6,73.6,467.3,57,446,57H66c-21.3,0-38.6,16.6-39.9,37.5c0,0,0,0.1,0,0.1
		l165.8,176.8l64.1,68.3l64.1-68.3L485.9,94.5C485.9,94.6,485.9,94.5,485.9,94.5z"/>
</g>
<g>
	<path opacity="0.9" fill="#3F3F3F" d="M318.2,216H193.8v0c0,0,0,0,0,0c-34.3,0-62,27.8-62,62c0,34.3,27.8,62,62,62c0,0,0,0,0,0
		h124.3c0,0,0,0,0,0c34.3,0,62-27.8,62-62C380.2,243.7,352.5,216,318.2,216z"/>
	<circle fill="#EFEFEF" cx="318.2" cy="278" r="47.3"/>
</g>
</svg>
