<?xml version="1.0" encoding="utf-8"?>
<!-- Generator: Adobe Illustrator 18.0.0, SVG Export Plug-In . SVG Version: 6.00 Build 0)  -->
<!DOCTYPE svg PUBLIC "-//W3C//DTD SVG 1.1//EN" "http://www.w3.org/Graphics/SVG/1.1/DTD/svg11.dtd">
<svg version="1.1" id="Layer_1" xmlns="http://www.w3.org/2000/svg" xmlns:xlink="http://www.w3.org/1999/xlink" x="0px" y="0px"
	 viewBox="0 0 512 512" style="enable-background:new 0 0 512 512;" xml:space="preserve">
<g style="opacity:0.4;">
	<ellipse cx="143.299" cy="171.215" rx="85.644" ry="89.994"/>
	<path d="M368.701,294.471C433.38,294.471,486,239.179,486,171.215c0-67.856-52.457-123.08-116.994-123.257H143.299
		C78.62,47.958,26,103.25,26,171.215s52.62,123.257,117.299,123.257h92.368v106.231l-67.43-67.43
		c-0.032-0.033-0.058-0.068-0.091-0.101c-7.947-7.948-20.833-7.948-28.781,0c-7.946,7.947-7.947,20.829-0.004,28.778l-0.005,0.005
		l87.887,87.886l-0.005,0.005l8.43,8.43v0.011h0.011l15.776,15.776l0.245,0.245c1.128,1.068,2.642,1.734,4.318,1.734
		c1.677,0,3.189-0.665,4.318-1.734l0.247-0.246l15.776-15.776h0.011v-0.001l96.312-96.312l-0.035-0.034
		c7.934-7.948,7.93-20.823-0.013-28.767c-7.947-7.948-20.833-7.948-28.781,0c-0.223,0.223-0.416,0.464-0.628,0.694l-66.856,66.856
		v-106.25H368.701z M235.667,284.211l-92.314-0.001l-0.167,0.002C83.941,284.15,35.764,233.484,35.764,171.215
		c0-62.308,48.24-112.997,107.535-112.997h225.555c59.225,0.086,107.383,50.743,107.383,112.997
		c0,62.27-48.18,112.935-107.426,112.997l-92.44-0.001L235.667,284.211z"/>
</g>
<g>
	<ellipse style="fill:#FEDA00;" cx="143.299" cy="165.215" rx="85.644" ry="89.994"/>
	<path style="fill:#FEDA00;" d="M368.701,288.471C433.38,288.471,486,233.179,486,165.215c0-67.856-52.457-123.08-116.994-123.257
		H143.299C78.62,41.958,26,97.25,26,165.215s52.62,123.257,117.299,123.257h92.368v106.231l-67.43-67.43
		c-0.032-0.033-0.058-0.068-0.091-0.101c-7.947-7.948-20.833-7.948-28.781,0c-7.946,7.947-7.947,20.829-0.004,28.778l-0.005,0.005
		l87.887,87.886l-0.005,0.005l8.43,8.43v0.011h0.011l15.776,15.776l0.245,0.245c1.128,1.068,2.642,1.734,4.318,1.734
		c1.677,0,3.189-0.665,4.318-1.734l0.247-0.246l15.776-15.776h0.011v-0.001l96.312-96.312l-0.035-0.034
		c7.934-7.948,7.93-20.823-0.013-28.767c-7.947-7.948-20.833-7.948-28.781,0c-0.223,0.223-0.416,0.464-0.628,0.694l-66.856,66.856
		v-106.25H368.701z M235.667,278.211l-92.314-0.001l-0.167,0.002C83.941,278.15,35.764,227.484,35.764,165.215
		c0-62.308,48.24-112.997,107.535-112.997h225.555c59.225,0.086,107.383,50.743,107.383,112.997
		c0,62.27-48.18,112.935-107.426,112.997l-92.44-0.001L235.667,278.211z"/>
</g>
</svg>
