<?xml version="1.0" encoding="utf-8"?>
<!-- Generator: Adobe Illustrator 18.0.0, SVG Export Plug-In . SVG Version: 6.00 Build 0)  -->
<!DOCTYPE svg PUBLIC "-//W3C//DTD SVG 1.1//EN" "http://www.w3.org/Graphics/SVG/1.1/DTD/svg11.dtd">
<svg version="1.1" id="Layer_1" xmlns="http://www.w3.org/2000/svg" xmlns:xlink="http://www.w3.org/1999/xlink" x="0px" y="0px"
	 viewBox="0 0 512 512" style="enable-background:new 0 0 512 512;" xml:space="preserve">
<g>
	<path style="fill:#E8E8E8;" d="M446,486H66c-22.1,0-40-17.9-40-40V66c0-22.1,17.9-40,40-40h380c22.1,0,40,17.9,40,40v380
		C486,468.1,468.1,486,446,486z"/>
	<path style="fill:#60493D;" d="M446,486H66c-22.1,0-40-17.9-40-40V66c0-22.1,17.9-40,40-40h380c22.1,0,40,17.9,40,40v380
		C486,468.1,468.1,486,446,486z"/>
	<g>
		<path style="fill:#825E46;" d="M26.1,94.6c0,0.8-0.1,1.6-0.1,2.4v349c0,0.7,0,1.4,0.1,2.1l165.8-176.8L26.1,94.6z"/>
		<path style="fill:#825E46;" d="M320.1,271.3l165.8,176.8c0-0.7,0.1-1.4,0.1-2.1V97c0-0.8,0-1.6-0.1-2.4L320.1,271.3z"/>
		<linearGradient id="SVGID_1_" gradientUnits="userSpaceOnUse" x1="256" y1="486" x2="256" y2="203">
			<stop  offset="0" style="stop-color:#563D2A"/>
			<stop  offset="0.362" style="stop-color:#6D4E39"/>
			<stop  offset="0.7165" style="stop-color:#7D5A43"/>
			<stop  offset="1" style="stop-color:#825E46"/>
		</linearGradient>
		<path style="fill:url(#SVGID_1_);" d="M320.1,271.3L256,203l-64.1,68.3L26.1,448.1c0,0,0,0,0,0.1C27.2,469.3,44.6,486,66,486h380
			c21.4,0,38.8-16.7,39.9-37.8c0,0,0,0,0-0.1L320.1,271.3z"/>
		<linearGradient id="SVGID_2_" gradientUnits="userSpaceOnUse" x1="256" y1="339.7" x2="256" y2="57">
			<stop  offset="0" style="stop-color:#483221"/>
			<stop  offset="0.3122" style="stop-color:#563D2A"/>
			<stop  offset="0.9016" style="stop-color:#7B5942"/>
			<stop  offset="1" style="stop-color:#825E46"/>
		</linearGradient>
		<path style="fill:url(#SVGID_2_);" d="M485.9,94.5C484.6,73.6,467.3,57,446,57H66c-21.3,0-38.6,16.6-39.9,37.5v0.1l165.8,176.8
			l64.1,68.3l64.1-68.3L485.9,94.5C485.9,94.6,485.9,94.5,485.9,94.5z"/>
	</g>
</g>
<g>
	<path style="opacity:0.4;" d="M486,301.368c-203.005,9.273-257,8.632-460,0v-54h460V301.368z"/>
	<rect x="26" y="241.368" style="fill:#CCA68D;" width="460" height="60"/>
	<path style="fill:#FFFFFF;" d="M452,277.368h-12c-2.209,0-4-1.791-4-4s1.791-4,4-4h12c2.209,0,4,1.791,4,4
		S454.209,277.368,452,277.368z M428,277.368h-12c-2.209,0-4-1.791-4-4s1.791-4,4-4h12c2.209,0,4,1.791,4,4
		S430.209,277.368,428,277.368z M404,277.368h-12c-2.209,0-4-1.791-4-4s1.791-4,4-4h12c2.209,0,4,1.791,4,4
		S406.209,277.368,404,277.368z M380,277.368h-12c-2.209,0-4-1.791-4-4s1.791-4,4-4h12c2.209,0,4,1.791,4,4
		S382.209,277.368,380,277.368z M356,277.368h-12c-2.209,0-4-1.791-4-4s1.791-4,4-4h12c2.209,0,4,1.791,4,4
		S358.209,277.368,356,277.368z M332,277.368h-12c-2.209,0-4-1.791-4-4s1.791-4,4-4h12c2.209,0,4,1.791,4,4
		S334.209,277.368,332,277.368z M308,277.368h-12c-2.209,0-4-1.791-4-4s1.791-4,4-4h12c2.209,0,4,1.791,4,4
		S310.209,277.368,308,277.368z M284,277.368h-12c-2.209,0-4-1.791-4-4s1.791-4,4-4h12c2.209,0,4,1.791,4,4
		S286.209,277.368,284,277.368z M260,277.368h-12c-2.209,0-4-1.791-4-4s1.791-4,4-4h12c2.209,0,4,1.791,4,4
		S262.209,277.368,260,277.368z M236,277.368h-12c-2.209,0-4-1.791-4-4s1.791-4,4-4h12c2.209,0,4,1.791,4,4
		S238.209,277.368,236,277.368z M212,277.368h-12c-2.209,0-4-1.791-4-4s1.791-4,4-4h12c2.209,0,4,1.791,4,4
		S214.209,277.368,212,277.368z M188,277.368h-12c-2.209,0-4-1.791-4-4s1.791-4,4-4h12c2.209,0,4,1.791,4,4
		S190.209,277.368,188,277.368z M164,277.368h-12c-2.209,0-4-1.791-4-4s1.791-4,4-4h12c2.209,0,4,1.791,4,4
		S166.209,277.368,164,277.368z M140,277.368h-12c-2.209,0-4-1.791-4-4s1.791-4,4-4h12c2.209,0,4,1.791,4,4
		S142.209,277.368,140,277.368z M116,277.368h-12c-2.209,0-4-1.791-4-4s1.791-4,4-4h12c2.209,0,4,1.791,4,4
		S118.209,277.368,116,277.368z M92,277.368H80c-2.209,0-4-1.791-4-4s1.791-4,4-4h12c2.209,0,4,1.791,4,4S94.209,277.368,92,277.368
		z M68,277.368H56c-2.209,0-4-1.791-4-4s1.791-4,4-4h12c2.209,0,4,1.791,4,4S70.209,277.368,68,277.368z"/>
	<g>
		<path style="opacity:0.4;" d="M281.339,380.174c0.469,3.242-1.827,5.894-5.103,5.894h-40.498c-3.276,0-5.559-2.65-5.074-5.89
			l11.385-76.038c0.485-3.239,3.562-5.89,6.837-5.89h14.644c3.276,0,6.339,2.652,6.808,5.894L281.339,380.174z"/>
		<path style="fill:#DBDBDB;" d="M281.339,373.174c0.469,3.242-1.827,5.894-5.103,5.894h-40.498c-3.276,0-5.559-2.65-5.074-5.89
			l11.385-76.038c0.485-3.239,3.562-5.89,6.837-5.89h14.644c3.276,0,6.339,2.652,6.808,5.894L281.339,373.174z"/>
		<g>
			<path style="opacity:0.4;" d="M269.996,284.262c0,3.276-2.68,5.956-5.956,5.956h-16.08c-3.276,0-5.956-2.68-5.956-5.956v-16.08
				c0-3.276,2.68-5.956,5.956-5.956h16.08c3.276,0,5.956,2.68,5.956,5.956V284.262z"/>
			<path style="fill:#DBDBDB;" d="M269.996,281.262c0,3.276-2.68,5.956-5.956,5.956h-16.08c-3.276,0-5.956-2.68-5.956-5.956v-16.08
				c0-3.276,2.68-5.956,5.956-5.956h16.08c3.276,0,5.956,2.68,5.956,5.956V281.262z"/>
			<path style="fill:#F9F9F9;" d="M266.428,279.212c0,2.441-1.997,4.438-4.438,4.438h-11.981c-2.441,0-4.438-1.997-4.438-4.438
				v-11.981c0-2.441,1.997-4.438,4.438-4.438h11.981c2.441,0,4.438,1.997,4.438,4.438V279.212z"/>
		</g>
		<path style="fill:#F9F9F9;" d="M276.141,361.801c0.373,2.577-1.452,4.685-4.056,4.685h-32.189c-2.604,0-4.418-2.107-4.033-4.682
			l9.049-60.438c0.386-2.575,2.831-4.682,5.435-4.682h11.64c2.604,0,5.039,2.108,5.411,4.685L276.141,361.801z"/>
	</g>
</g>
</svg>
