<?xml version="1.0" encoding="utf-8"?>
<!-- Generator: Adobe Illustrator 18.0.0, SVG Export Plug-In . SVG Version: 6.00 Build 0)  -->
<!DOCTYPE svg PUBLIC "-//W3C//DTD SVG 1.1//EN" "http://www.w3.org/Graphics/SVG/1.1/DTD/svg11.dtd">
<svg version="1.1" id="Layer_1" xmlns="http://www.w3.org/2000/svg" xmlns:xlink="http://www.w3.org/1999/xlink" x="0px" y="0px"
	 viewBox="0 0 512 512" style="enable-background:new 0 0 512 512;" xml:space="preserve">
<g>
	<path style="fill:#D1BC99;" d="M486,120.079c0,0-68.322,77.652-152.602,77.652c-122.826,0-152.602-85.627-152.602-85.627
		c0,49.404,1.245,101.159,31.903,134.644c-42.537,64.13-153.134,6.793-153.134,6.793c0,75.503,61.955,146.357,190.629,146.357
		c64.495,0,149.667-38.951,159.527-119.812C447.716,275.872,486,224.87,486,120.079z"/>
	<g>
		<circle style="fill:#231F20;" cx="59.566" cy="250.913" r="33.566"/>
		<circle style="fill:#FFFFFF;" cx="64.934" cy="237.501" r="13.412"/>
	</g>
	<circle cx="328.852" cy="267.756" r="51.284"/>
	<path style="fill:#FFFFFF;" d="M373.754,267.854c0,24.8-20.103,0-44.903,0s-44.903,24.8-44.903,0s20.103-44.903,44.903-44.903
		C353.651,222.951,373.754,243.055,373.754,267.854z"/>
	<circle cx="239.285" cy="255.078" r="38.283"/>
	<path style="fill:#FFFFFF;" d="M272.853,256.519c0,18.54-15.03,0-33.568,0s-33.568,18.54-33.568,0
		c0-18.54,15.03-33.568,33.568-33.568S272.853,237.981,272.853,256.519z"/>
	<path style="fill:#FFFFFF;" d="M272.853,350.88c8.439,13.33-13.296,28.809-33.568,32.892
		c-80.028,16.124-134.948-30.763-134.948-30.763s65.78,33.754,118.125,3.03C252.13,338.626,263.24,335.694,272.853,350.88z"/>
</g>
</svg>
