<?xml version="1.0" encoding="utf-8"?>
<!-- Generator: Adobe Illustrator 18.0.0, SVG Export Plug-In . SVG Version: 6.00 Build 0)  -->
<!DOCTYPE svg PUBLIC "-//W3C//DTD SVG 1.1//EN" "http://www.w3.org/Graphics/SVG/1.1/DTD/svg11.dtd">
<svg version="1.1" id="Layer_3" xmlns="http://www.w3.org/2000/svg" xmlns:xlink="http://www.w3.org/1999/xlink" x="0px" y="0px"
	 viewBox="0 0 512 512" style="enable-background:new 0 0 512 512;" xml:space="preserve">
<g>
	<g>
		<path style="fill:#FF6B3E;" d="M303.43,153.731c0,26.195-47.43,70.618-47.43,70.618s-47.43-44.423-47.43-70.618
			S229.805,106.3,256,106.3S303.43,127.536,303.43,153.731z"/>
		<path style="fill:#FF6B3E;" d="M303.43,358.269c0-26.195-47.43-70.618-47.43-70.618s-47.43,44.423-47.43,70.618
			S229.805,405.7,256,405.7S303.43,384.464,303.43,358.269z"/>
	</g>
	<g>
		<path style="fill:#FF6B3E;" d="M153.731,208.57c26.195,0,70.618,47.43,70.618,47.43s-44.423,47.43-70.618,47.43
			S106.3,282.195,106.3,256S127.536,208.57,153.731,208.57z"/>
		<path style="fill:#FF6B3E;" d="M358.269,208.57c-26.195,0-70.618,47.43-70.618,47.43s44.423,47.43,70.618,47.43
			S405.7,282.195,405.7,256S384.464,208.57,358.269,208.57z"/>
	</g>
</g>
<path style="fill:#FF6B3E;" d="M256,486C129.177,486,26,382.822,26,256C26,129.177,129.177,26,256,26c126.822,0,230,103.177,230,230
	C486,382.822,382.822,486,256,486z M256,51.156C143.049,51.156,51.156,143.049,51.156,256c0,112.95,91.892,204.844,204.844,204.844
	c112.95,0,204.844-91.893,204.844-204.844C460.844,143.049,368.95,51.156,256,51.156z"/>
</svg>
