<?xml version="1.0" encoding="utf-8"?>
<!-- Generator: Adobe Illustrator 18.0.0, SVG Export Plug-In . SVG Version: 6.00 Build 0)  -->
<!DOCTYPE svg PUBLIC "-//W3C//DTD SVG 1.1//EN" "http://www.w3.org/Graphics/SVG/1.1/DTD/svg11.dtd">
<svg version="1.1" id="Layer_1" xmlns="http://www.w3.org/2000/svg" xmlns:xlink="http://www.w3.org/1999/xlink" x="0px" y="0px"
	 viewBox="0 0 512 512" style="enable-background:new 0 0 512 512;" xml:space="preserve">
<g>
	<g>
		<g id="Layer_2_2_">
			<path style="opacity:0.4;fill:#4C4C4C;enable-background:new    ;" d="M256.1,57.6c55,0,106.6,21.4,145.5,60.3
				s60.3,90.5,60.3,145.5s-21.4,106.6-60.3,145.5S311.1,469,256.1,469s-106.6-21.4-145.5-60.3s-60.3-90.5-60.3-145.5
				s21.4-106.6,60.3-145.5S201.2,57.6,256.1,57.6 M256.1,40.6c-123,0-222.7,99.7-222.7,222.7S133.2,486,256.1,486
				s222.7-99.7,222.7-222.7S379.1,40.6,256.1,40.6L256.1,40.6z"/>
			<g>
				<g>
					<g>
						<g>
							<path style="fill:#00BD9B;" d="M256.1,260.9l-109-174.4c33.4-20.9,69.6-31.2,109-31.2V260.9z"/>
						</g>
					</g>
					<g>
						<g>
							<path style="fill:#2D98E0;" d="M256.1,260.9L51,275.2c-5.5-78.7,29.2-146.9,96.2-188.7L256.1,260.9z"/>
						</g>
					</g>
					<g>
						<g>
							<path style="fill:#9C56B8;" d="M256.1,260.9l168.5,118c-65.1,93-193.4,115.6-286.4,50.5C85.6,392.5,55.4,339.2,51,275.2
								L256.1,260.9z"/>
						</g>
					</g>
					<g>
						<g>
							<path style="fill:#E84C3D;" d="M256.1,260.9L404,118c68.6,71,77.1,180,20.5,260.8L256.1,260.9z"/>
						</g>
					</g>
					<g>
						<g>
							<path style="fill:#F1C50E;" d="M256.1,260.9l53.2-198.6c38.1,10.2,67.3,27.4,94.7,55.8L256.1,260.9z"/>
						</g>
					</g>
					<g>
						<g>
							<path style="fill:#51D88B;" d="M256.1,260.9V55.2c19.6,0,34.2,1.9,53.2,7L256.1,260.9z"/>
						</g>
					</g>
				</g>
			</g>
			<path style="fill:#D1D1D1;" d="M256.1,43c55,0,106.6,21.4,145.5,60.3s60.3,90.5,60.3,145.5s-21.4,106.6-60.3,145.5
				s-90.5,60.3-145.5,60.3S149.5,433,110.7,394.2s-60.3-90.5-60.3-145.5s21.4-106.6,60.3-145.5S201.2,43,256.1,43 M256.1,26
				c-123,0-222.7,99.7-222.7,222.7s99.7,222.7,222.7,222.7s222.7-99.7,222.7-222.7S379.1,26,256.1,26L256.1,26z"/>
			<polygon style="opacity:0.4;fill:#4C4C4C;enable-background:new    ;" points="107.7,58.6 182.1,188.8 40.4,129.6 			"/>
			<polygon style="fill:#EAEAEA;" points="104.4,31.9 188.4,186.7 33.2,95.7 			"/>
		</g>
		<g style="opacity:0.4;">
			<path d="M346.8,251.3l-13.9-4.9c-2-0.7-3.5-2.3-4.1-4.3c-1.8-5.8-4.2-11.3-7.3-16.4l0,0l7.8-16.3c1.2-2.5,0.7-5.5-1.3-7.5
				l-9.6-9.6c-2-2-5-2.5-7.5-1.3l-16.3,7.8l0,0c-5.1-3-10.6-5.5-16.4-7.3c-2-0.6-3.6-2.1-4.3-4.1l-4.9-13.9
				c-0.9-2.6-3.4-4.4-6.2-4.4h-13.5c-2.8,0-5.3,1.8-6.2,4.4l-4.9,13.9c-0.7,2-2.3,3.5-4.3,4.1c-5.8,1.8-11.3,4.2-16.4,7.3l0,0
				l-16.3-7.8c-2.5-1.2-5.5-0.7-7.5,1.3l-9.6,9.6c-2,2-2.5,5-1.3,7.5l7.8,16.3l0,0c-3,5.1-5.5,10.6-7.3,16.4c-0.6,2-2.1,3.6-4.1,4.3
				l-13.9,4.9c-2.6,0.9-4.4,3.4-4.4,6.2V271c0,2.8,1.8,5.3,4.4,6.2l13.9,4.9c2,0.7,3.5,2.3,4.1,4.3c1.8,5.8,4.2,11.3,7.3,16.4l0,0
				l-7.8,16.3c-1.2,2.5-0.7,5.5,1.3,7.5l9.6,9.6c2,2,5,2.5,7.5,1.3l16.3-7.8l0,0c5.1,3,10.6,5.5,16.4,7.3c2,0.6,3.6,2.1,4.3,4.1
				L243,355c0.9,2.6,3.4,4.4,6.2,4.4h13.5c2.8,0,5.3-1.8,6.2-4.4l4.9-13.9c0.7-2,2.3-3.5,4.3-4.1c5.8-1.8,11.3-4.2,16.4-7.3l0,0
				l16.3,7.8c2.5,1.2,5.5,0.7,7.5-1.3l9.6-9.6c2-2,2.5-5,1.3-7.5l-7.8-16.3l0,0c3-5.1,5.5-10.6,7.3-16.4c0.6-2,2.1-3.6,4.1-4.3
				l13.9-4.9c2.6-0.9,4.4-3.4,4.4-6.2v-13.5C351.2,254.7,349.4,252.2,346.8,251.3z M256,309.3c-24.9,0-45.1-20.2-45.1-45.1
				s20.2-45.1,45.1-45.1s45.1,20.2,45.1,45.1S280.9,309.3,256,309.3z"/>
			<circle cx="256" cy="264.2" r="34.1"/>
		</g>
	</g>
	<g style="opacity:0.9;">
		<path style="fill:#FFFFFF;" d="M346.8,243l-13.9-4.9c-2-0.7-3.5-2.3-4.1-4.3c-1.8-5.8-4.2-11.3-7.3-16.4l0,0l7.8-16.3
			c1.2-2.5,0.7-5.5-1.3-7.5l-9.6-9.6c-2-2-5-2.5-7.5-1.3l-16.3,7.8l0,0c-5.1-3-10.6-5.5-16.4-7.3c-2-0.6-3.6-2.1-4.3-4.1l-4.9-13.9
			c-0.9-2.6-3.4-4.4-6.2-4.4h-13.5c-2.8,0-5.3,1.8-6.2,4.4l-4.9,13.9c-0.7,2-2.3,3.5-4.3,4.1c-5.8,1.8-11.3,4.2-16.4,7.3l0,0
			l-16.3-7.8c-2.5-1.2-5.5-0.7-7.5,1.3l-9.6,9.6c-2,2-2.5,5-1.3,7.5l7.8,16.3l0,0c-3,5.1-5.5,10.6-7.3,16.4c-0.6,2-2.1,3.6-4.1,4.3
			l-13.9,4.9c-2.6,0.9-4.4,3.4-4.4,6.2v13.5c0,2.8,1.8,5.3,4.4,6.2l13.9,4.9c2,0.7,3.5,2.3,4.1,4.3c1.8,5.8,4.2,11.3,7.3,16.4l0,0
			l-7.8,16.3c-1.2,2.5-0.7,5.5,1.3,7.5l9.6,9.6c2,2,5,2.5,7.5,1.3l16.3-7.8l0,0c5.1,3,10.6,5.5,16.4,7.3c2,0.6,3.6,2.1,4.3,4.1
			l4.9,13.9c0.9,2.6,3.4,4.4,6.2,4.4h13.5c2.8,0,5.3-1.8,6.2-4.4l4.9-13.9c0.7-2,2.3-3.5,4.3-4.1c5.8-1.8,11.3-4.2,16.4-7.3l0,0
			l16.3,7.8c2.5,1.2,5.5,0.7,7.5-1.3l9.6-9.6c2-2,2.5-5,1.3-7.5l-7.8-16.3l0,0c3-5.1,5.5-10.6,7.3-16.4c0.6-2,2.1-3.6,4.1-4.3
			l13.9-4.9c2.6-0.9,4.4-3.4,4.4-6.2v-13.5C351.2,246.4,349.4,244,346.8,243z M256,301.1c-24.9,0-45.1-20.2-45.1-45.1
			s20.2-45.1,45.1-45.1s45.1,20.2,45.1,45.1S280.9,301.1,256,301.1z"/>
		<circle style="fill:#FFFFFF;" cx="256" cy="256" r="34.1"/>
	</g>
</g>
</svg>
