<?xml version="1.0" encoding="utf-8"?>
<!-- Generator: Adobe Illustrator 18.0.0, SVG Export Plug-In . SVG Version: 6.00 Build 0)  -->
<!DOCTYPE svg PUBLIC "-//W3C//DTD SVG 1.1//EN" "http://www.w3.org/Graphics/SVG/1.1/DTD/svg11.dtd">
<svg version="1.1" id="Layer_1" xmlns="http://www.w3.org/2000/svg" xmlns:xlink="http://www.w3.org/1999/xlink" x="0px" y="0px"
	 viewBox="0 0 512 512" style="enable-background:new 0 0 512 512;" xml:space="preserve">
<g>
	<path style="fill:#05C1E0;" d="M464.4,401.1l-274.8,100c-2.4,0.8-4.9-0.3-5.8-2.7l-139-381.8c-0.8-2.4,0.3-4.9,2.7-5.8l274.8-100
		c2.4-0.8,4.9,0.3,5.8,2.7l139,381.9C468,397.7,466.7,400.3,464.4,401.1z"/>
	<path style="fill:#43DCFF;" d="M436.1,435.1l-288,50.8c-2.5,0.4-4.8-1.2-5.2-3.7L72.3,82.1c-0.4-2.5,1.2-4.8,3.7-5.2l288-50.8
		c2.5-0.4,4.8,1.2,5.2,3.7L439.8,430C440.2,432.4,438.5,434.7,436.1,435.1z"/>
	<path style="fill:#F2F2F2;" d="M402.3,463.7H109.8c-2.5,0-4.5-2-4.5-4.5l-0.1-406.3c0-2.5,2-4.5,4.5-4.5h292.5c2.5,0,4.5,2,4.5,4.5
		v406.4C406.8,461.7,404.7,463.7,402.3,463.7z"/>
</g>
<g>
	<g>
		<rect x="150" y="276.5" style="fill:#43DCFF;" width="106" height="21.2"/>
		<rect x="150" y="317.7" style="fill:#43DCFF;" width="212" height="21.2"/>
		<rect x="150" y="357.7" style="fill:#43DCFF;" width="212" height="21.2"/>
		<rect x="256" y="397.8" style="fill:#43DCFF;" width="105.9" height="21.2"/>
	</g>
</g>
</svg>
