<?xml version="1.0" encoding="utf-8"?>
<!-- Generator: Adobe Illustrator 18.0.0, SVG Export Plug-In . SVG Version: 6.00 Build 0)  -->
<!DOCTYPE svg PUBLIC "-//W3C//DTD SVG 1.1//EN" "http://www.w3.org/Graphics/SVG/1.1/DTD/svg11.dtd">
<svg version="1.1" id="Layer_1" xmlns="http://www.w3.org/2000/svg" xmlns:xlink="http://www.w3.org/1999/xlink" x="0px" y="0px"
	 viewBox="0 0 512 512" style="enable-background:new 0 0 512 512;" xml:space="preserve">
<g>
	
		<linearGradient id="SVGID_1_" gradientUnits="userSpaceOnUse" x1="256" y1="27" x2="256" y2="487" gradientTransform="matrix(1 0 0 -1 0 512)">
		<stop  offset="0" style="stop-color:#FFDA00"/>
		<stop  offset="1" style="stop-color:#68E215"/>
	</linearGradient>
	<path style="fill:url(#SVGID_1_);" d="M446,485H66c-22.1,0-40-17.9-40-40V65c0-22.1,17.9-40,40-40h380c22.1,0,40,17.9,40,40v380
		C486,467.1,468.1,485,446,485z"/>
	
		<linearGradient id="SVGID_2_" gradientUnits="userSpaceOnUse" x1="256" y1="27" x2="256" y2="427" gradientTransform="matrix(1 0 0 -1 0 512)">
		<stop  offset="0" style="stop-color:#C5DA00"/>
		<stop  offset="1" style="stop-color:#68E215"/>
	</linearGradient>
	<path style="fill:url(#SVGID_2_);" d="M446,125H66c-22.1,0-40-17.9-40-40v360c0,22.1,17.9,40,40,40h380c22.1,0,40-17.9,40-40V85
		C486,107.1,468.1,125,446,125z"/>
	<path style="opacity:0.3;fill:#2BA304;enable-background:new    ;" d="M446,125H66c-22.1,0-40-17.9-40-40v48c0,22.1,17.9,40,40,40
		h380c22.1,0,40-17.9,40-40V85C486,107.1,468.1,125,446,125z"/>
	<path style="fill:#BAFF61;" d="M446,40c13.8,0,25,11.2,25,25v20c0,13.8-11.2,25-25,25H66c-13.8,0-25-11.2-25-25V65
		c0-13.8,11.2-25,25-25H446 M446,25H66c-22.1,0-40,17.9-40,40v20c0,22.1,17.9,40,40,40h380c22.1,0,40-17.9,40-40V65
		C486,42.9,468.1,25,446,25L446,25z"/>
</g>
<path style="opacity:0.8;fill:#FFFFFF;enable-background:new    ;" d="M256,193.5c-63.7,0-115.4,51.7-115.4,115.5
	S192.3,424.4,256,424.4s115.5-51.7,115.5-115.4S319.7,193.5,256,193.5z M254.5,244c16.4-2.1,6.8,31.7-1.9,31.2
	C243.9,274.7,238.1,246.2,254.5,244z M224.7,255.8c13.2-5.4,12.8,24.9,5.4,26.4C222.7,283.8,211.5,261.3,224.7,255.8z M202.8,274.1
	c10.5-7.3,16,19.4,9.7,22.2C206.4,299,192.3,281.3,202.8,274.1z M295.7,349.4c-3.1,16.6-19.8,29.7-34.3,29.7
	c-29.4,0-57.7-34.2-52.2-58.9c8.1-36.5,79.7-43.7,83.6-20.3c4.7,28.1-67,38.3-40,58.9c8.5,6.5,17.2,1.5,15.8-8.5
	C267.5,341.8,298.1,336.7,295.7,349.4z M282.8,280.3c-16.4,0-10.9-41.5,18.2-41.5C330.1,238.8,299.2,280.3,282.8,280.3z"/>
<g style="opacity:0.2;">
	<path style="fill:#FFFFFF;" d="M29.5,101.3l-3.5,3.5V119l8.9-8.9C32.7,107.4,30.9,104.5,29.5,101.3z"/>
	<path style="fill:#FFFFFF;" d="M44.7,118.8L26,137.5v14.1l28.4-28.4C50.9,122.2,47.7,120.7,44.7,118.8z"/>
	<polygon style="fill:#FFFFFF;" points="71.2,125 26,170.2 26,184.4 85.4,125 	"/>
	<polygon style="fill:#FFFFFF;" points="103.9,125 26,202.9 26,217.1 118.1,125 	"/>
	<polygon style="fill:#FFFFFF;" points="136.6,125 26,235.6 26,249.8 150.8,125 	"/>
	<polygon style="fill:#FFFFFF;" points="169.3,125 26,268.3 26,282.5 183.5,125 	"/>
	<polygon style="fill:#FFFFFF;" points="202,125 26,301 26,315.2 216.2,125 	"/>
	<polygon style="fill:#FFFFFF;" points="234.7,125 26,333.7 26,347.9 248.9,125 	"/>
	<polygon style="fill:#FFFFFF;" points="267.4,125 26,366.4 26,380.6 281.6,125 	"/>
	<polygon style="fill:#FFFFFF;" points="300.1,125 26,399.1 26,413.3 314.3,125 	"/>
	<path style="fill:#FFFFFF;" d="M332.8,125L26,431.8V445c0,0.3,0,0.6,0,0.9L347,125H332.8z"/>
	<path style="fill:#FFFFFF;" d="M365.5,125L29.4,461.1c1.4,3.2,3.2,6.1,5.3,8.8l345-344.9H365.5z"/>
	<path style="fill:#FFFFFF;" d="M398.2,125L44.5,478.7c3,1.9,6.2,3.4,9.6,4.5L412.4,125H398.2z"/>
	<polygon style="fill:#FFFFFF;" points="430.9,125 70.9,485 85.1,485 445.1,125 	"/>
	<polygon style="fill:#FFFFFF;" points="486,102.6 103.6,485 117.8,485 486,116.8 	"/>
	<polygon style="fill:#FFFFFF;" points="486,135.3 136.3,485 150.5,485 486,149.5 	"/>
	<polygon style="fill:#FFFFFF;" points="486,168 169,485 183.2,485 486,182.2 	"/>
	<polygon style="fill:#FFFFFF;" points="486,200.7 201.7,485 215.9,485 486,214.9 	"/>
	<polygon style="fill:#FFFFFF;" points="486,233.4 234.4,485 248.6,485 486,247.6 	"/>
	<polygon style="fill:#FFFFFF;" points="486,266.1 267.1,485 281.3,485 486,280.3 	"/>
	<polygon style="fill:#FFFFFF;" points="486,298.8 299.8,485 314,485 486,313 	"/>
	<polygon style="fill:#FFFFFF;" points="486,331.5 332.5,485 346.7,485 486,345.7 	"/>
	<polygon style="fill:#FFFFFF;" points="486,364.2 365.2,485 379.4,485 486,378.4 	"/>
	<polygon style="fill:#FFFFFF;" points="486,396.9 397.9,485 412.1,485 486,411.1 	"/>
	<polygon style="fill:#FFFFFF;" points="486,443.8 486,429.6 430.6,485 444.8,485 	"/>
</g>
<g>
	<g>
		<circle style="fill:#231F20;" cx="152.5" cy="210" r="22"/>
		<path style="fill:#FFFFFF;" d="M152.5,193c9.4,0,17,7.6,17,17s-7.6,17-17,17s-17-7.6-17-17S143.1,193,152.5,193 M152.5,188
			c-12.2,0-22,9.8-22,22s9.8,22,22,22s22-9.8,22-22C174.5,197.9,164.7,188,152.5,188L152.5,188z"/>
	</g>
	<g>
		<circle style="fill:#231F20;" cx="359.5" cy="210" r="22"/>
		<path style="fill:#FFFFFF;" d="M359.5,193c9.4,0,17,7.6,17,17s-7.6,17-17,17s-17-7.6-17-17S350.1,193,359.5,193 M359.5,188
			c-12.2,0-22,9.8-22,22s9.8,22,22,22s22-9.8,22-22S371.7,188,359.5,188L359.5,188z"/>
	</g>
	<path style="opacity:0.4;enable-background:new    ;" d="M372.4,217.4c0-7-5.5-12.7-12.3-12.7s-12.3,5.7-12.3,12.7
		c0,36.1-2,81.5-17.7,111.2c-6.4,12.3-14.8,21.2-25.5,27.3c-12.4,7-28.8,10.6-48.6,10.6c-20.8,0-37.7-3.6-50.4-10.6
		c-10.7-6-18.9-14.8-25.1-26.9c-6.1-12.1-10.4-27.5-13-47.1c-2.2-16.8-3.3-37-3.3-63.5c0-0.3,0-0.6,0-0.9c0-7-5.5-12.7-12.3-12.7
		s-12.3,5.7-12.3,12.7c0.1,96.2,12.4,174.4,116.4,174.4c99.7,0,116.2-77.6,116.3-173.4C372.3,218.1,372.4,217.8,372.4,217.4z"/>
	<path style="fill:#FFF6EE;" d="M372.4,217c0-6.8-5.5-12.3-12.3-12.3s-12.3,5.5-12.3,12.3c0,35-2,78.9-17.7,107.7
		c-6.4,11.9-14.8,20.5-25.5,26.4c-12.4,6.8-28.8,10.3-48.6,10.3c-20.8,0-37.7-3.5-50.4-10.3c-10.7-5.8-18.9-14.3-25.1-26
		c-6.1-11.7-10.4-26.6-13-45.6c-2.2-16.3-3.3-35.8-3.3-61.5c0-0.3,0-0.6,0-0.9c0-6.8-5.5-12.3-12.3-12.3s-12.3,5.5-12.3,12.3
		C139.7,310.3,152,386,256,386c99.7,0,116.2-75.1,116.3-167.9C372.3,217.7,372.4,217.4,372.4,217z"/>
</g>
</svg>
