<?xml version="1.0" encoding="utf-8"?>
<!-- Generator: Adobe Illustrator 18.0.0, SVG Export Plug-In . SVG Version: 6.00 Build 0)  -->
<!DOCTYPE svg PUBLIC "-//W3C//DTD SVG 1.1//EN" "http://www.w3.org/Graphics/SVG/1.1/DTD/svg11.dtd">
<svg version="1.1" id="Layer_3" xmlns="http://www.w3.org/2000/svg" xmlns:xlink="http://www.w3.org/1999/xlink" x="0px" y="0px"
	 viewBox="0 0 512 512" enable-background="new 0 0 512 512" xml:space="preserve">
<g>
	<path fill="#E5E5E5" d="M496.1,317.3l-384.6,140c-2.6,1-5.4-0.4-6.4-3L12.9,201.1c-1-2.6,0.4-5.4,3-6.4l384.6-140
		c2.6-1,5.4,0.4,6.4,3l92.2,253.2C500,313.5,498.7,316.4,496.1,317.3z"/>
	<path fill="#FFA300" d="M481.8,355.3L78.7,426.4c-2.7,0.5-5.3-1.3-5.8-4.1L26.1,156.9c-0.5-2.7,1.3-5.3,4.1-5.8L433.3,80
		c2.7-0.5,5.3,1.3,5.8,4.1l46.8,265.4C486.3,352.2,484.5,354.8,481.8,355.3z"/>
	<g>
		<linearGradient id="SVGID_1_" gradientUnits="userSpaceOnUse" x1="82.6782" y1="426.4782" x2="429.2281" y2="79.9282">
			<stop  offset="0" style="stop-color:#3FFBFF"/>
			<stop  offset="1" style="stop-color:#005EFF"/>
		</linearGradient>
		<path fill="url(#SVGID_1_)" d="M460.7,393H51.3c-2.8,0-5-2.2-5-5V118.4c0-2.8,2.2-5,5-5h409.3c2.8,0,5,2.2,5,5V388
			C465.7,390.7,463.4,393,460.7,393z"/>
		<linearGradient id="SVGID_2_" gradientUnits="userSpaceOnUse" x1="255.9516" y1="393" x2="255.9516" y2="257.9">
			<stop  offset="0.5887" style="stop-color:#89D8FF"/>
			<stop  offset="1" style="stop-color:#00F0F2"/>
		</linearGradient>
		<path fill="url(#SVGID_2_)" d="M460.7,393H51.3c-2.8,0-5-2.2-5-5V257.9h419.3V388C465.7,390.7,463.4,393,460.7,393z"/>
		<g>
			<linearGradient id="SVGID_3_" gradientUnits="userSpaceOnUse" x1="259.8" y1="258.2778" x2="302.4" y2="258.2778">
				<stop  offset="4.926108e-03" style="stop-color:#FFFFFF"/>
				<stop  offset="1" style="stop-color:#FFFFFF;stop-opacity:0"/>
			</linearGradient>
			<path opacity="0.5" fill="url(#SVGID_3_)" enable-background="new    " d="M302.4,257.9h-42.6
				C282.6,259.6,302.4,257.9,302.4,257.9z"/>
			<linearGradient id="SVGID_4_" gradientUnits="userSpaceOnUse" x1="46.3" y1="216.8286" x2="259.8" y2="216.8286">
				<stop  offset="4.926108e-03" style="stop-color:#FFFFFF"/>
				<stop  offset="1" style="stop-color:#FFFFFF;stop-opacity:0"/>
			</linearGradient>
			<path opacity="0.5" fill="url(#SVGID_4_)" enable-background="new    " d="M192.9,223.4c-7.5-45.5-78.8-76-111.2-7.5
				c-8.9-5.7-26.7-1.2-35.4,8.1v33.9h213.5C230.8,255.6,196.9,247.8,192.9,223.4z"/>
		</g>
		<g>
			<linearGradient id="SVGID_5_" gradientUnits="userSpaceOnUse" x1="281.8" y1="216.9574" x2="465.7" y2="216.9574">
				<stop  offset="0" style="stop-color:#FFFFFF;stop-opacity:0"/>
				<stop  offset="0.9951" style="stop-color:#FFFFFF"/>
			</linearGradient>
			<path opacity="0.5" fill="url(#SVGID_5_)" enable-background="new    " d="M465.7,196.7c-15.8-36.7-77.3-20.9-100.6,20.4
				c-23.1,41-67.7,38.3-83.3,40.7h183.9L465.7,196.7L465.7,196.7z"/>
		</g>
		<linearGradient id="SVGID_6_" gradientUnits="userSpaceOnUse" x1="256.0483" y1="393" x2="256.0483" y2="313.9533">
			<stop  offset="4.926108e-03" style="stop-color:#FFE194"/>
			<stop  offset="0.1649" style="stop-color:#FFE7A7"/>
			<stop  offset="0.5239" style="stop-color:#FFF4CB"/>
			<stop  offset="0.8151" style="stop-color:#FFFCE2"/>
			<stop  offset="1" style="stop-color:#FFFFEA"/>
		</linearGradient>
		<path fill="url(#SVGID_6_)" d="M51,393h410c2.6,0,4.7-2.1,4.7-4.7v-56.8c-8.2-6.4-25.9-16.9-41-4.1
			c-23.7,20.1-43.8-17.4-82.9-13.1c-32.5,3.5-78.7,26.7-124.2,18.9c-36.9-6.3-49.2-7.2-95.3,5.6c-25.2,7-62.9-4.9-75.9-9.6v59.2
			C46.3,390.9,48.4,393,51,393z"/>
	</g>
</g>
</svg>
