<?xml version="1.0" encoding="utf-8"?>
<!-- Generator: Adobe Illustrator 18.0.0, SVG Export Plug-In . SVG Version: 6.00 Build 0)  -->
<!DOCTYPE svg PUBLIC "-//W3C//DTD SVG 1.1//EN" "http://www.w3.org/Graphics/SVG/1.1/DTD/svg11.dtd">
<svg version="1.1" id="Layer_1" xmlns="http://www.w3.org/2000/svg" xmlns:xlink="http://www.w3.org/1999/xlink" x="0px" y="0px"
	 viewBox="0 0 512 512" style="enable-background:new 0 0 512 512;" xml:space="preserve">
<g>
	<path style="fill:#E8E8E8;" d="M436.1,435.1l-288,50.8c-2.5,0.4-4.8-1.2-5.2-3.7L72.3,82.1c-0.4-2.5,1.2-4.8,3.7-5.2l288-50.8
		c2.5-0.4,4.8,1.2,5.2,3.7L439.8,430C440.2,432.4,438.5,434.7,436.1,435.1z"/>
	<path style="fill:#14CAFF;" d="M402.3,463.7H109.8c-2.5,0-4.5-2-4.5-4.5l-0.1-406.3c0-2.5,2-4.5,4.5-4.5h292.5c2.5,0,4.5,2,4.5,4.5
		v406.4C406.8,461.7,404.7,463.7,402.3,463.7z"/>
</g>
<g style="opacity:0.3;">
	<g>
		<path style="fill:#FFFFFF;" d="M347.5,185.52H224.419v-22.115H347.5V185.52z"/>
		<path style="fill:#FFFFFF;" d="M347.5,226.289h-183v-22.115h183V226.289z"/>
		<path style="fill:#FFFFFF;" d="M347.5,267.058h-183v-22.115h183V267.058z"/>
		<path style="fill:#FFFFFF;" d="M347.5,307.826h-183v-22.115h183V307.826z"/>
		<path style="fill:#FFFFFF;" d="M282.411,348.595H164.5V326.48h117.911V348.595z"/>
	</g>
</g>
<path style="fill:#FFFFFF;" d="M256,193.746c-58.34,0-105.63,62.254-105.63,62.254s47.293,62.254,105.63,62.254
	c58.34,0,105.63-62.254,105.63-62.254S314.337,193.746,256,193.746z M256,296.614c-22.43,0-40.614-18.183-40.614-40.614
	S233.57,215.386,256,215.386S296.614,233.57,296.614,256S278.43,296.614,256,296.614z"/>
</svg>
