<?xml version="1.0" encoding="utf-8"?>
<!-- Generator: Adobe Illustrator 18.0.0, SVG Export Plug-In . SVG Version: 6.00 Build 0)  -->
<!DOCTYPE svg PUBLIC "-//W3C//DTD SVG 1.1//EN" "http://www.w3.org/Graphics/SVG/1.1/DTD/svg11.dtd">
<svg version="1.1" id="Layer_1" xmlns="http://www.w3.org/2000/svg" xmlns:xlink="http://www.w3.org/1999/xlink" x="0px" y="0px"
	 viewBox="0 0 512 512" style="enable-background:new 0 0 512 512;" xml:space="preserve">
<path style="opacity:0.4;" d="M419.858,424.381c1.122-1.139,2.236-2.287,3.334-3.45c0.177-0.188,0.351-0.378,0.527-0.566
	c1.098-1.17,2.187-2.348,3.261-3.541c0.168-0.187,0.332-0.376,0.5-0.563c1.075-1.201,2.139-2.412,3.189-3.636
	c0.159-0.185,0.315-0.374,0.473-0.56c1.051-1.234,2.092-2.476,3.117-3.732c0.147-0.18,0.291-0.363,0.437-0.543
	c1.031-1.27,2.05-2.55,3.054-3.842c0.131-0.169,0.26-0.34,0.39-0.509c1.011-1.309,2.01-2.627,2.993-3.959
	c0.119-0.162,0.236-0.325,0.355-0.487c0.988-1.345,1.963-2.7,2.923-4.067c0.107-0.152,0.211-0.305,0.317-0.458
	c0.966-1.384,1.918-2.777,2.854-4.183c0.092-0.139,0.183-0.279,0.275-0.418c0.943-1.424,1.872-2.857,2.785-4.303
	c0.08-0.127,0.158-0.254,0.238-0.381c0.92-1.464,1.824-2.938,2.712-4.423c0.066-0.11,0.131-0.222,0.196-0.332
	c0.895-1.504,1.774-3.019,2.635-4.545c0.056-0.099,0.111-0.199,0.166-0.298c0.867-1.542,1.718-3.094,2.55-4.657
	c0.045-0.085,0.09-0.17,0.135-0.255c0.839-1.581,1.661-3.173,2.464-4.776c0.035-0.069,0.069-0.139,0.103-0.208
	c0.81-1.62,1.601-3.25,2.373-4.892c0.026-0.056,0.052-0.112,0.079-0.168c0.778-1.657,1.536-3.324,2.276-5.001
	c0.019-0.043,0.037-0.086,0.056-0.128c0.745-1.693,1.469-3.396,2.174-5.111c0.012-0.028,0.023-0.057,0.035-0.086
	c0.709-1.728,1.398-3.466,2.067-5.214c0.007-0.018,0.014-0.037,0.021-0.056c0.672-1.758,1.322-3.527,1.951-5.306
	c0.004-0.01,0.007-0.021,0.011-0.031c4.383-12.392,7.731-25.27,9.947-38.534c0.009-0.051,0.017-0.103,0.026-0.154
	c0.281-1.688,0.544-3.381,0.788-5.081c0.021-0.149,0.041-0.297,0.062-0.446c0.227-1.609,0.441-3.222,0.635-4.841
	c0.034-0.281,0.064-0.563,0.096-0.844c0.174-1.5,0.339-3.003,0.484-4.512c0.044-0.45,0.079-0.902,0.12-1.353
	c0.123-1.358,0.242-2.717,0.341-4.082c0.049-0.669,0.084-1.341,0.127-2.011c0.074-1.169,0.153-2.336,0.21-3.509
	c0.049-0.996,0.078-1.997,0.114-2.996c0.031-0.873,0.073-1.742,0.094-2.617c0.047-1.9,0.072-3.805,0.072-5.716
	c0-1.788-0.027-3.57-0.068-5.348c-0.012-0.531-0.03-1.06-0.045-1.589c-0.039-1.305-0.088-2.606-0.148-3.905
	c-0.025-0.537-0.048-1.074-0.077-1.61c-0.089-1.666-0.192-3.329-0.316-4.986c-0.007-0.099-0.012-0.199-0.02-0.298
	c-0.133-1.742-0.291-3.476-0.462-5.207c-0.053-0.535-0.112-1.068-0.169-1.602c-0.133-1.25-0.275-2.498-0.428-3.742
	c-0.068-0.555-0.135-1.11-0.207-1.664c-0.197-1.511-0.407-3.018-0.633-4.52c-0.033-0.217-0.061-0.435-0.094-0.652
	c-0.257-1.677-0.537-3.347-0.83-5.013c-0.099-0.56-0.203-1.117-0.306-1.675c-0.214-1.167-0.437-2.331-0.669-3.492
	c-0.118-0.592-0.236-1.184-0.359-1.774c-0.278-1.336-0.569-2.667-0.87-3.995c-0.078-0.346-0.151-0.693-0.23-1.038
	c-0.371-1.6-0.762-3.192-1.166-4.779c-0.151-0.594-0.31-1.186-0.466-1.779c-0.281-1.069-0.569-2.136-0.866-3.199
	c-0.176-0.633-0.353-1.265-0.534-1.896c-0.336-1.165-0.683-2.325-1.036-3.483c-0.142-0.464-0.276-0.93-0.421-1.392
	c-0.473-1.514-0.964-3.019-1.467-4.519c-0.214-0.638-0.436-1.273-0.655-1.908c-0.331-0.959-0.667-1.915-1.01-2.868
	c-0.243-0.676-0.488-1.351-0.737-2.024c-0.371-1.001-0.753-1.998-1.138-2.993c-0.219-0.567-0.432-1.137-0.656-1.702
	c-0.564-1.423-1.144-2.838-1.735-4.248c-0.285-0.68-0.579-1.355-0.871-2.032c-0.366-0.849-0.735-1.696-1.111-2.539
	c-0.316-0.711-0.635-1.42-0.958-2.127c-0.393-0.858-0.794-1.711-1.197-2.564c-0.346-0.732-0.689-1.464-1.042-2.191
	c-0.606-1.248-1.224-2.491-1.852-3.727c-0.36-0.708-0.729-1.411-1.096-2.115c-0.393-0.753-0.788-1.505-1.189-2.254
	c-0.389-0.726-0.781-1.451-1.177-2.172c-0.412-0.75-0.832-1.495-1.252-2.24c-0.461-0.817-0.923-1.634-1.393-2.445
	c-0.652-1.122-1.311-2.24-1.981-3.35c-0.43-0.712-0.869-1.417-1.306-2.124c-0.421-0.682-0.844-1.362-1.273-2.039
	c-0.455-0.719-0.913-1.436-1.376-2.15c-0.44-0.679-0.887-1.352-1.333-2.026c-1.483-2.235-2.996-4.447-4.554-6.626
	c-0.048-0.067-0.097-0.132-0.145-0.198c-1.036-1.445-2.086-2.879-3.154-4.298c-0.086-0.114-0.174-0.226-0.26-0.34
	c-1.035-1.371-2.082-2.731-3.147-4.078c-0.111-0.14-0.225-0.277-0.336-0.417c-1.045-1.315-2.101-2.621-3.174-3.913
	c-0.136-0.164-0.276-0.325-0.413-0.489c-1.054-1.262-2.119-2.516-3.2-3.755c-0.157-0.18-0.317-0.356-0.475-0.535
	c-1.069-1.218-2.148-2.428-3.242-3.623c-0.169-0.185-0.342-0.366-0.512-0.55c-1.09-1.183-2.189-2.357-3.303-3.516
	c-0.18-0.188-0.364-0.371-0.545-0.558c-1.113-1.15-2.235-2.292-3.371-3.42c-0.184-0.182-0.371-0.36-0.555-0.542
	c-1.142-1.125-2.292-2.241-3.457-3.341c-0.185-0.175-0.374-0.347-0.56-0.522c-1.171-1.1-2.352-2.19-3.546-3.265
	c-0.186-0.167-0.375-0.331-0.562-0.498c-1.203-1.076-2.414-2.141-3.639-3.192c-0.182-0.156-0.368-0.31-0.551-0.466
	c-1.237-1.054-2.482-2.097-3.741-3.124c-0.177-0.145-0.357-0.286-0.534-0.43c-1.273-1.032-2.554-2.054-3.849-3.059
	c-0.168-0.131-0.339-0.259-0.507-0.389c-1.31-1.012-2.63-2.012-3.963-2.996c-0.159-0.117-0.32-0.233-0.48-0.35
	c-1.347-0.99-2.704-1.966-4.074-2.927c-0.151-0.106-0.304-0.21-0.455-0.315c-1.385-0.966-2.779-1.919-4.186-2.856
	c-0.138-0.092-0.277-0.182-0.415-0.273c-1.425-0.944-2.859-1.874-4.306-2.787c-0.126-0.079-0.252-0.157-0.378-0.236
	c-1.465-0.92-2.94-1.826-4.427-2.714c-0.109-0.065-0.219-0.129-0.329-0.194c-1.505-0.896-3.021-1.775-4.548-2.637
	c-0.098-0.055-0.196-0.109-0.294-0.164c-1.543-0.868-3.096-1.719-4.661-2.552c-0.084-0.045-0.168-0.088-0.251-0.133
	c-1.581-0.839-3.173-1.661-4.776-2.465c-0.071-0.035-0.142-0.07-0.212-0.105c-1.619-0.809-3.248-1.6-4.888-2.371
	c-0.057-0.027-0.115-0.053-0.172-0.08c-1.656-0.778-3.323-1.536-5.001-2.275c-0.041-0.018-0.083-0.036-0.124-0.054
	c-1.693-0.745-3.397-1.47-5.112-2.175c-0.03-0.012-0.059-0.024-0.089-0.036c-1.727-0.709-3.464-1.398-5.212-2.066
	c-0.019-0.007-0.037-0.014-0.056-0.021c-1.758-0.672-3.527-1.322-5.306-1.951c-0.01-0.004-0.021-0.007-0.031-0.011
	c-1.788-0.632-3.586-1.243-5.394-1.832c-0.001,0-0.002,0-0.002-0.001c-10.722-3.493-21.789-6.219-33.139-8.114
	c-0.051-0.009-0.102-0.017-0.153-0.025c-1.688-0.281-3.382-0.544-5.083-0.788c-0.148-0.021-0.297-0.041-0.445-0.062
	c-1.609-0.227-3.223-0.441-4.842-0.635c-0.28-0.034-0.562-0.064-0.843-0.096c-1.501-0.174-3.004-0.339-4.513-0.484
	c-0.45-0.044-0.901-0.079-1.352-0.12c-1.358-0.123-2.718-0.242-4.083-0.341c-0.668-0.049-1.34-0.084-2.01-0.127
	c-1.169-0.074-2.337-0.153-3.51-0.21c-0.996-0.049-1.997-0.078-2.996-0.114c-0.873-0.031-1.742-0.073-2.617-0.094
	C259.816,33.026,257.911,33,256,33c-1.788,0-3.57,0.027-5.348,0.068c-0.531,0.012-1.06,0.03-1.589,0.045
	c-1.305,0.039-2.606,0.088-3.905,0.148c-0.537,0.025-1.074,0.048-1.61,0.077c-1.666,0.089-3.329,0.192-4.986,0.316
	c-0.099,0.007-0.199,0.012-0.298,0.02c-1.742,0.133-3.476,0.291-5.207,0.462c-0.535,0.053-1.068,0.112-1.602,0.169
	c-1.25,0.133-2.498,0.275-3.742,0.428c-0.555,0.068-1.11,0.135-1.664,0.207c-1.511,0.197-3.018,0.407-4.52,0.633
	c-0.217,0.033-0.435,0.061-0.652,0.094c-1.677,0.257-3.347,0.537-5.013,0.83c-0.56,0.099-1.117,0.203-1.675,0.306
	c-1.167,0.214-2.331,0.437-3.492,0.669c-0.592,0.118-1.184,0.236-1.774,0.359c-1.337,0.278-2.669,0.569-3.998,0.87
	c-0.344,0.078-0.691,0.15-1.035,0.23c-1.6,0.371-3.192,0.762-4.779,1.166c-0.594,0.151-1.186,0.31-1.778,0.466
	c-1.069,0.281-2.136,0.569-3.199,0.866c-0.633,0.176-1.265,0.353-1.896,0.534c-1.165,0.336-2.325,0.683-3.483,1.036
	c-0.464,0.142-0.93,0.276-1.392,0.421c-1.514,0.473-3.019,0.964-4.519,1.467c-0.638,0.214-1.273,0.436-1.908,0.655
	c-0.959,0.331-1.915,0.667-2.868,1.01c-0.676,0.243-1.351,0.488-2.024,0.737c-1.001,0.371-1.998,0.753-2.993,1.138
	c-0.567,0.219-1.137,0.432-1.702,0.656c-1.423,0.564-2.838,1.144-4.248,1.735c-0.68,0.285-1.355,0.579-2.031,0.871
	c-0.849,0.366-1.697,0.736-2.541,1.112c-0.709,0.316-1.418,0.634-2.123,0.957c-0.86,0.394-1.716,0.796-2.57,1.2
	c-0.723,0.342-1.447,0.681-2.166,1.03c-1.256,0.61-2.506,1.231-3.749,1.863c-0.707,0.359-1.408,0.728-2.111,1.094
	c-0.754,0.393-1.507,0.789-2.257,1.191c-0.726,0.389-1.45,0.78-2.171,1.177c-0.751,0.413-1.498,0.833-2.244,1.254
	c-0.808,0.456-1.615,0.911-2.416,1.376c-1.131,0.657-2.257,1.321-3.376,1.996c-0.712,0.43-1.417,0.869-2.124,1.306
	c-0.682,0.421-1.362,0.844-2.039,1.273c-0.719,0.455-1.436,0.913-2.149,1.376c-0.68,0.441-1.355,0.888-2.03,1.336
	c-2.234,1.482-4.446,2.996-6.624,4.553c-0.063,0.045-0.124,0.092-0.187,0.137c-1.448,1.038-2.885,2.091-4.308,3.161
	c-0.114,0.086-0.226,0.175-0.341,0.261c-1.37,1.034-2.73,2.081-4.075,3.145c-0.145,0.114-0.286,0.232-0.431,0.347
	c-1.311,1.042-2.612,2.094-3.9,3.163c-0.167,0.138-0.33,0.28-0.496,0.419c-1.26,1.053-2.512,2.115-3.749,3.194
	c-0.18,0.157-0.357,0.318-0.537,0.476c-1.217,1.068-2.426,2.146-3.62,3.239c-0.187,0.171-0.37,0.346-0.556,0.518
	c-1.182,1.089-2.355,2.187-3.513,3.3c-0.186,0.178-0.368,0.361-0.553,0.54c-1.152,1.114-2.295,2.237-3.424,3.375
	c-0.183,0.184-0.362,0.372-0.544,0.557c-1.124,1.141-2.239,2.29-3.338,3.454c-0.177,0.187-0.35,0.377-0.526,0.565
	c-1.099,1.171-2.189,2.351-3.264,3.545c-0.165,0.184-0.327,0.37-0.492,0.554c-1.077,1.204-2.145,2.418-3.197,3.645
	c-0.156,0.182-0.309,0.366-0.464,0.548c-1.055,1.238-2.098,2.484-3.127,3.744c-0.143,0.176-0.284,0.354-0.427,0.53
	c-1.033,1.273-2.055,2.556-3.062,3.852c-0.131,0.168-0.259,0.339-0.389,0.507c-1.012,1.31-2.012,2.63-2.996,3.963
	c-0.117,0.159-0.232,0.32-0.349,0.479c-0.991,1.349-1.969,2.708-2.931,4.079c-0.103,0.146-0.203,0.294-0.305,0.44
	c-0.969,1.388-1.925,2.787-2.864,4.197c-0.091,0.136-0.18,0.274-0.271,0.411c-0.945,1.426-1.876,2.863-2.79,4.311
	c-0.078,0.123-0.154,0.247-0.231,0.37c-0.922,1.467-1.828,2.944-2.717,4.432c-0.065,0.109-0.129,0.218-0.193,0.327
	c-0.896,1.506-1.776,3.023-2.639,4.551c-0.055,0.097-0.108,0.194-0.163,0.291c-0.869,1.544-1.721,3.099-2.554,4.665
	c-0.043,0.082-0.086,0.164-0.129,0.245c-0.841,1.585-1.665,3.18-2.47,4.787c-0.033,0.065-0.065,0.13-0.097,0.195
	c-0.812,1.624-1.605,3.259-2.379,4.904c-0.024,0.052-0.048,0.104-0.073,0.156c-0.779,1.66-1.54,3.33-2.28,5.012
	c-0.018,0.04-0.035,0.081-0.053,0.121c-0.745,1.694-1.471,3.399-2.176,5.115c-0.012,0.028-0.023,0.057-0.035,0.086
	c-0.709,1.728-1.398,3.466-2.067,5.214c-0.007,0.019-0.014,0.037-0.021,0.056c-0.672,1.758-1.322,3.527-1.951,5.306
	c-0.004,0.01-0.007,0.021-0.011,0.031c-4.383,12.392-7.731,25.27-9.947,38.534c-0.009,0.051-0.017,0.103-0.026,0.154
	c-0.281,1.688-0.544,3.381-0.788,5.081c-0.021,0.149-0.041,0.297-0.062,0.446c-0.227,1.609-0.441,3.222-0.635,4.841
	c-0.034,0.281-0.064,0.563-0.096,0.844c-0.174,1.5-0.339,3.003-0.484,4.512c-0.044,0.45-0.079,0.902-0.12,1.353
	c-0.123,1.358-0.242,2.717-0.341,4.082c-0.049,0.669-0.084,1.341-0.127,2.011c-0.074,1.169-0.153,2.336-0.21,3.509
	c-0.049,0.996-0.078,1.997-0.114,2.996c-0.031,0.873-0.073,1.742-0.094,2.617C26.026,259.184,26,261.089,26,263
	c0,1.788,0.027,3.57,0.068,5.348c0.012,0.531,0.03,1.06,0.045,1.589c0.039,1.305,0.088,2.606,0.148,3.905
	c0.025,0.537,0.048,1.074,0.077,1.61c0.089,1.666,0.192,3.329,0.316,4.986c0.007,0.099,0.012,0.199,0.02,0.298
	c0.133,1.742,0.291,3.476,0.462,5.207c0.053,0.535,0.112,1.068,0.169,1.603c0.133,1.25,0.275,2.498,0.428,3.742
	c0.068,0.555,0.135,1.11,0.207,1.664c0.197,1.511,0.407,3.018,0.633,4.52c0.033,0.217,0.061,0.435,0.094,0.652
	c0.257,1.677,0.537,3.347,0.83,5.012c0.099,0.56,0.204,1.118,0.306,1.677c0.214,1.166,0.437,2.33,0.669,3.49
	c0.118,0.592,0.236,1.184,0.359,1.775c0.278,1.336,0.569,2.668,0.87,3.995c0.078,0.345,0.151,0.693,0.23,1.038
	c0.371,1.6,0.762,3.191,1.166,4.778c0.151,0.595,0.31,1.187,0.466,1.78c0.281,1.069,0.569,2.135,0.866,3.198
	c0.176,0.633,0.353,1.265,0.534,1.896c0.335,1.164,0.682,2.324,1.035,3.48c0.142,0.465,0.277,0.932,0.422,1.396
	c0.473,1.513,0.964,3.018,1.467,4.517c0.214,0.639,0.436,1.274,0.656,1.91c0.331,0.958,0.667,1.914,1.01,2.867
	c0.243,0.676,0.488,1.351,0.737,2.024c0.371,1.001,0.752,1.996,1.137,2.99c0.22,0.568,0.433,1.14,0.657,1.706
	c0.564,1.423,1.144,2.838,1.735,4.247c0.285,0.68,0.579,1.355,0.871,2.031c0.366,0.849,0.736,1.697,1.112,2.541
	c0.316,0.71,0.634,1.419,0.957,2.125c0.393,0.859,0.795,1.713,1.198,2.566c0.342,0.724,0.681,1.449,1.031,2.168
	c0.61,1.256,1.231,2.506,1.863,3.749c0.36,0.708,0.729,1.409,1.096,2.113c0.393,0.753,0.788,1.504,1.188,2.252
	c0.39,0.727,0.782,1.453,1.179,2.176c0.412,0.749,0.831,1.493,1.25,2.237c0.462,0.818,0.924,1.637,1.395,2.449
	c0.651,1.122,1.31,2.239,1.98,3.349c0.43,0.712,0.869,1.417,1.306,2.124c0.421,0.681,0.844,1.362,1.272,2.038
	c0.455,0.72,0.914,1.437,1.377,2.151c0.439,0.677,0.885,1.35,1.331,2.023c1.484,2.236,2.998,4.449,4.557,6.629
	c0.045,0.063,0.091,0.124,0.136,0.187c1.038,1.449,2.091,2.886,3.162,4.31c0.083,0.111,0.169,0.219,0.253,0.33
	c1.037,1.373,2.086,2.737,3.153,4.086c0.112,0.142,0.227,0.28,0.34,0.422c1.043,1.313,2.098,2.617,3.169,3.907
	c0.139,0.167,0.281,0.331,0.421,0.497c1.052,1.26,2.115,2.511,3.193,3.747c0.157,0.18,0.318,0.356,0.476,0.536
	c1.069,1.218,2.147,2.427,3.241,3.622c0.169,0.185,0.343,0.366,0.513,0.551c1.09,1.182,2.188,2.356,3.302,3.515
	c0.181,0.188,0.366,0.373,0.548,0.561c1.112,1.149,2.232,2.29,3.368,3.416c0.186,0.185,0.376,0.365,0.562,0.549
	c1.14,1.122,2.288,2.236,3.45,3.334c0.187,0.177,0.378,0.35,0.565,0.526c1.17,1.099,2.349,2.188,3.542,3.262
	c0.186,0.167,0.374,0.331,0.561,0.497c1.203,1.076,2.415,2.142,3.64,3.193c0.182,0.156,0.366,0.309,0.549,0.464
	c1.238,1.055,2.484,2.099,3.745,3.127c0.175,0.143,0.352,0.282,0.527,0.424c1.274,1.034,2.558,2.057,3.855,3.064
	c0.168,0.13,0.337,0.258,0.505,0.387c1.311,1.012,2.631,2.013,3.965,2.997c0.158,0.117,0.318,0.232,0.477,0.348
	c1.349,0.991,2.707,1.968,4.078,2.93c0.149,0.104,0.299,0.206,0.447,0.31c1.387,0.968,2.783,1.922,4.192,2.86
	c0.137,0.091,0.275,0.18,0.412,0.271c1.426,0.945,2.861,1.875,4.309,2.788c0.125,0.079,0.25,0.156,0.375,0.234
	c1.465,0.92,2.94,1.826,4.427,2.714c0.111,0.066,0.222,0.131,0.333,0.197c1.505,0.896,3.021,1.775,4.548,2.637
	c0.095,0.054,0.191,0.106,0.286,0.16c1.546,0.87,3.102,1.722,4.67,2.557c0.081,0.043,0.162,0.085,0.243,0.128
	c1.584,0.841,3.179,1.664,4.785,2.469c0.068,0.034,0.136,0.067,0.204,0.101c1.621,0.81,3.253,1.602,4.896,2.375
	c0.055,0.026,0.109,0.051,0.164,0.076c1.658,0.779,3.327,1.538,5.006,2.278c0.041,0.018,0.083,0.036,0.124,0.054
	c1.693,0.745,3.397,1.47,5.112,2.175c0.03,0.012,0.059,0.024,0.089,0.036c1.727,0.709,3.464,1.398,5.212,2.066
	c0.019,0.007,0.037,0.014,0.056,0.021c1.76,0.672,3.529,1.323,5.31,1.953c0.007,0.003,0.015,0.005,0.022,0.008
	c12.394,4.383,25.273,7.733,38.539,9.948c0.051,0.009,0.103,0.017,0.154,0.026c1.689,0.281,3.384,0.544,5.085,0.788
	c0.145,0.021,0.29,0.04,0.435,0.061c1.612,0.228,3.229,0.442,4.851,0.636c0.277,0.033,0.555,0.063,0.832,0.095
	c1.504,0.175,3.011,0.34,4.524,0.486c0.446,0.043,0.894,0.078,1.34,0.119c1.361,0.123,2.723,0.243,4.091,0.342
	c0.669,0.049,1.341,0.084,2.011,0.127c1.169,0.074,2.336,0.153,3.509,0.21c0.996,0.049,1.997,0.078,2.996,0.114
	c0.873,0.031,1.742,0.073,2.617,0.094c1.9,0.047,3.805,0.072,5.716,0.072c1.788,0,3.57-0.027,5.348-0.068
	c0.531-0.012,1.06-0.03,1.589-0.045c1.305-0.039,2.606-0.088,3.905-0.148c0.537-0.025,1.074-0.048,1.61-0.077
	c1.666-0.089,3.329-0.192,4.986-0.316c0.099-0.007,0.199-0.012,0.298-0.02c1.742-0.133,3.476-0.291,5.207-0.462
	c0.535-0.053,1.068-0.112,1.602-0.169c1.25-0.133,2.498-0.275,3.742-0.428c0.555-0.068,1.11-0.135,1.664-0.207
	c1.511-0.197,3.018-0.407,4.52-0.633c0.217-0.033,0.435-0.061,0.652-0.094c1.677-0.257,3.347-0.537,5.013-0.83
	c0.56-0.099,1.117-0.203,1.675-0.306c1.167-0.214,2.331-0.437,3.492-0.669c0.592-0.118,1.184-0.236,1.774-0.359
	c1.337-0.278,2.669-0.569,3.998-0.87c0.344-0.078,0.691-0.15,1.035-0.23c1.6-0.371,3.192-0.762,4.779-1.166
	c0.594-0.151,1.185-0.309,1.777-0.465c1.07-0.282,2.137-0.57,3.201-0.866c0.632-0.176,1.264-0.353,1.894-0.534
	c1.165-0.336,2.325-0.683,3.483-1.036c0.464-0.142,0.93-0.276,1.392-0.421c1.513-0.472,3.017-0.964,4.516-1.466
	c0.641-0.215,1.278-0.438,1.917-0.658c0.956-0.33,1.909-0.665,2.859-1.007c0.678-0.244,1.355-0.489,2.03-0.739
	c0.997-0.37,1.99-0.75,2.981-1.133c0.577-0.223,1.157-0.44,1.731-0.668c1.416-0.561,2.824-1.138,4.226-1.727
	c0.682-0.286,1.36-0.581,2.039-0.874c0.846-0.365,1.69-0.733,2.531-1.107c0.712-0.317,1.423-0.636,2.132-0.96
	c0.856-0.392,1.708-0.793,2.559-1.195c0.733-0.346,1.466-0.69,2.195-1.044c1.248-0.606,2.49-1.224,3.726-1.852
	c0.709-0.36,1.413-0.73,2.118-1.098c0.751-0.392,1.5-0.786,2.246-1.185c0.729-0.391,1.457-0.784,2.181-1.182
	c0.746-0.41,1.487-0.827,2.228-1.245c0.83-0.468,1.659-0.937,2.482-1.415c1.111-0.646,2.218-1.298,3.318-1.962
	c0.715-0.431,1.423-0.872,2.132-1.311c0.679-0.42,1.357-0.841,2.032-1.268c0.721-0.456,1.44-0.916,2.155-1.38
	c0.675-0.438,1.345-0.882,2.015-1.326c2.238-1.485,4.453-3,6.634-4.56c0.064-0.046,0.126-0.093,0.19-0.138
	c1.448-1.037,2.884-2.09,4.307-3.16c0.112-0.084,0.222-0.172,0.334-0.256c1.372-1.036,2.734-2.084,4.082-3.15
	c0.143-0.113,0.284-0.23,0.427-0.344c1.312-1.042,2.614-2.095,3.902-3.165c0.169-0.14,0.334-0.284,0.503-0.425
	c1.258-1.051,2.508-2.112,3.744-3.19c0.18-0.157,0.355-0.317,0.534-0.474c1.218-1.069,2.427-2.147,3.622-3.241
	c0.187-0.171,0.371-0.347,0.557-0.519c1.181-1.088,2.353-2.185,3.51-3.297c0.188-0.181,0.373-0.366,0.56-0.547
	c1.149-1.112,2.29-2.232,3.416-3.368C419.493,424.758,419.674,424.568,419.858,424.381z M362.298,349.65
	c-22.41,27.44-55.207,46.081-92.338,49.85c0.075,0.073,0.153,0.143,0.228,0.216c0,0,0,0,0,0c-0.075-0.073-0.153-0.143-0.228-0.216
	c-4.591,0.466-9.247,0.705-13.959,0.705c-32.834,0-63.006-11.598-86.648-30.906c0.001,0.13,0.006,0.259,0.008,0.389
	c0,0-0.001-0.001-0.001-0.001c-0.001-0.13-0.007-0.259-0.008-0.389c-27.44-22.41-46.081-55.207-49.85-92.339
	c-0.073,0.074-0.144,0.15-0.216,0.225c0,0,0,0,0,0c0.073-0.074,0.144-0.15,0.216-0.225c-0.466-4.591-0.705-9.247-0.705-13.959
	c0-29.501,9.368-56.851,25.274-79.249l6.84,25.528C142.656,225.392,138,243.652,138,263c0,65.17,52.83,118,118,118
	s118-52.83,118-118s-52.83-118-118-118c-19.23,0-37.383,4.603-53.424,12.762l-25.592-6.857
	c18.771-13.273,41.002-21.963,65.057-24.404c-0.074-0.073-0.15-0.144-0.225-0.217c0,0,0,0,0,0c0.074,0.073,0.151,0.144,0.225,0.217
	c4.591-0.466,9.247-0.705,13.959-0.705c32.834,0,63.006,11.598,86.648,30.906c-0.001-0.13-0.006-0.259-0.008-0.389
	c0,0,0.001,0.001,0.001,0.001c0.001,0.13,0.007,0.259,0.008,0.389c27.44,22.41,46.081,55.207,49.85,92.338
	c0.073-0.074,0.144-0.15,0.216-0.225c0,0,0,0,0,0c-0.073,0.074-0.144,0.15-0.216,0.225c0.466,4.591,0.705,9.247,0.705,13.959
	c0,32.834-11.598,63.006-30.906,86.648c0.13-0.001,0.259-0.006,0.389-0.008c0,0-0.001,0.001-0.001,0.001
	C362.557,349.643,362.427,349.649,362.298,349.65z"/>
<g>
	<g>
		<path style="fill:#DC71AC;" d="M362.298,342.65c-22.41,27.44-55.207,46.081-92.338,49.85
			c12.809,12.581,27.366,23.388,43.296,31.987c3.391,1.831,6.844,3.562,10.355,5.19c1.755,0.814,3.525,1.602,5.309,2.364
			c17.519,7.483,36.381,12.423,56.123,14.369c49.515-33.622,85.212-86.053,96.853-147.022
			c-15.338,12.587-32.172,22.434-49.855,29.531C409.701,337.885,386.015,342.448,362.298,342.65z"/>
		<path style="fill:#23B899;" d="M149.702,169.35c22.41-27.44,55.207-46.081,92.338-49.85
			c-14.173-13.92-30.489-25.665-48.429-34.658c-3.452-1.73-6.963-3.359-10.53-4.883c-17.519-7.483-36.381-12.423-56.123-14.369
			c-49.515,33.622-85.212,86.053-96.853,147.022c15.338-12.587,32.173-22.434,49.855-29.531
			C102.299,174.115,125.985,169.552,149.702,169.35z"/>
		<path style="fill:#945AA4;" d="M323.61,429.677c-3.51-1.628-6.963-3.359-10.355-5.19c-15.93-8.599-30.488-19.406-43.297-31.987
			c-4.591,0.466-9.247,0.705-13.959,0.705c-32.834,0-63.006-11.598-86.648-30.906c0.202,23.717,4.765,47.403,13.731,69.741
			c7.097,17.683,16.945,34.518,29.533,49.856C226.667,484.579,241.167,486,256,486c47.829,0,92.246-14.604,129.042-39.59
			c-19.742-1.946-38.605-6.886-56.123-14.369C327.135,431.279,325.365,430.491,323.61,429.677z"/>
		<path style="fill:#69C186;" d="M193.612,84.842c17.941,8.993,34.257,20.738,48.429,34.658c4.591-0.466,9.247-0.705,13.959-0.705
			c32.834,0,63.006,11.598,86.648,30.906c-0.202-23.717-4.765-47.403-13.731-69.741c-7.097-17.683-16.944-34.518-29.533-49.856
			C285.333,27.421,270.833,26,256,26c-47.829,0-92.246,14.604-129.042,39.59c19.742,1.946,38.605,6.886,56.123,14.369
			C186.649,81.483,190.16,83.112,193.612,84.842z"/>
		<path style="fill:#3B97D3;" d="M84.842,318.388c8.993-17.941,20.738-34.257,34.658-48.429c-0.466-4.591-0.705-9.247-0.705-13.959
			c0-32.834,11.598-63.006,30.906-86.648c-23.717,0.202-47.403,4.765-69.741,13.731c-17.683,7.097-34.518,16.944-49.856,29.533
			C27.421,226.667,26,241.167,26,256c0,47.829,14.604,92.246,39.59,129.042c1.946-19.742,6.886-38.605,14.369-56.123
			C81.483,325.351,83.112,321.84,84.842,318.388z"/>
		<path style="fill:#E74D3D;" d="M427.158,193.612c-8.993,17.941-20.738,34.257-34.658,48.429c0.466,4.591,0.705,9.247,0.705,13.959
			c0,32.834-11.598,63.006-30.906,86.648c23.717-0.202,47.403-4.765,69.741-13.731c17.683-7.097,34.518-16.944,49.856-29.533
			C484.579,285.333,486,270.833,486,256c0-47.829-14.604-92.246-39.59-129.042c-1.946,19.742-6.886,38.605-14.369,56.123
			C430.517,186.649,428.888,190.16,427.158,193.612z"/>
		<path style="fill:#6063AC;" d="M169.35,362.298c-27.44-22.41-46.081-55.207-49.85-92.338
			c-13.92,14.173-25.665,30.488-34.658,48.429c-1.73,3.452-3.359,6.963-4.883,10.531c-7.483,17.519-12.423,36.381-14.369,56.123
			c33.622,49.515,86.053,85.212,147.022,96.853c-12.587-15.338-22.434-32.173-29.531-49.855
			C174.115,409.701,169.552,386.015,169.35,362.298z"/>
		<path style="fill:#F0C519;" d="M342.65,149.702c27.44,22.41,46.081,55.207,49.85,92.338c13.92-14.173,25.665-30.488,34.658-48.429
			c1.73-3.452,3.359-6.963,4.883-10.53c7.483-17.519,12.423-36.381,14.369-56.123c-33.622-49.515-86.053-85.212-147.022-96.853
			c12.587,15.338,22.434,32.173,29.531,49.855C337.885,102.299,342.448,125.985,342.65,149.702z"/>
		<radialGradient id="SVGID_1_" cx="256" cy="256" r="146.8156" gradientUnits="userSpaceOnUse">
			<stop  offset="0" style="stop-color:#010101;stop-opacity:0"/>
			<stop  offset="0.3434" style="stop-color:#040404;stop-opacity:0.3434"/>
			<stop  offset="0.6249" style="stop-color:#0F0E0E;stop-opacity:0.6249"/>
			<stop  offset="0.8837" style="stop-color:#1C191A;stop-opacity:0.8837"/>
			<stop  offset="1" style="stop-color:#231F20"/>
		</radialGradient>
		<path style="opacity:0.15;fill:url(#SVGID_1_);" d="M256,109.184c-81.084,0-146.816,65.732-146.816,146.816
			S174.916,402.816,256,402.816S402.816,337.084,402.816,256S337.084,109.184,256,109.184z M256,393.44
			c-75.906,0-137.44-61.534-137.44-137.44S180.094,118.56,256,118.56S393.44,180.094,393.44,256S331.906,393.44,256,393.44z"/>
		<radialGradient id="SVGID_2_" cx="256" cy="256" r="259.1677" gradientUnits="userSpaceOnUse">
			<stop  offset="0.1151" style="stop-color:#010101;stop-opacity:0"/>
			<stop  offset="0.5915" style="stop-color:#030303;stop-opacity:0.5384"/>
			<stop  offset="0.7631" style="stop-color:#0A0A0A;stop-opacity:0.7323"/>
			<stop  offset="0.885" style="stop-color:#151314;stop-opacity:0.87"/>
			<stop  offset="0.9833" style="stop-color:#211D1E;stop-opacity:0.9811"/>
			<stop  offset="1" style="stop-color:#231F20"/>
		</radialGradient>
		<path style="opacity:0.1;fill:url(#SVGID_2_);" d="M256,26C128.975,26,26,128.975,26,256s102.975,230,230,230s230-102.975,230-230
			S383.025,26,256,26z M256,471.313c-118.914,0-215.313-96.399-215.313-215.313S137.086,40.687,256,40.687
			S471.313,137.086,471.313,256S374.914,471.313,256,471.313z"/>
	</g>
	<g>
		<polygon style="opacity:0.4;" points="149.35,214.923 130.041,142.863 202.102,162.171 		"/>
		<polygon style="fill:#20AE91;" points="151.35,203.923 132.041,131.863 204.102,151.171 		"/>
		<g>
			<circle style="fill:#EFEFEF;" cx="256" cy="256" r="118"/>
			<path style="fill:#23B899;" d="M256,144c29.916,0,58.042,11.65,79.196,32.804S368,226.084,368,256s-11.65,58.042-32.804,79.196
				S285.916,368,256,368s-58.042-11.65-79.196-32.804S144,285.916,144,256s11.65-58.042,32.804-79.196S226.084,144,256,144 M256,138
				c-65.17,0-118,52.83-118,118s52.83,118,118,118s118-52.83,118-118S321.17,138,256,138L256,138z"/>
		</g>
		<g>
			<circle style="fill:#29B890;" cx="256" cy="256" r="54.667"/>
			<path style="opacity:0.4;" d="M256,209.333c25.732,0,46.667,20.935,46.667,46.667S281.732,302.667,256,302.667
				S209.333,281.732,209.333,256S230.268,209.333,256,209.333 M256,201.333c-30.192,0-54.667,24.475-54.667,54.667
				s24.475,54.667,54.667,54.667s54.667-24.475,54.667-54.667S286.192,201.333,256,201.333L256,201.333z"/>
		</g>
	</g>
</g>
</svg>
