<?xml version="1.0" encoding="utf-8"?>
<!-- Generator: Adobe Illustrator 18.0.0, SVG Export Plug-In . SVG Version: 6.00 Build 0)  -->
<!DOCTYPE svg PUBLIC "-//W3C//DTD SVG 1.1//EN" "http://www.w3.org/Graphics/SVG/1.1/DTD/svg11.dtd">
<svg version="1.1" id="Layer_1" xmlns="http://www.w3.org/2000/svg" xmlns:xlink="http://www.w3.org/1999/xlink" x="0px" y="0px"
	 viewBox="0 0 512 512" style="enable-background:new 0 0 512 512;" xml:space="preserve">
<g>
	<path style="fill:#E5E5E5;" d="M432.676,435.859l-280.888,49.528c-10.878,1.918-21.251-5.345-23.169-16.223L63.404,99.31
		c-1.918-10.878,5.345-21.251,16.223-23.169l280.888-49.528c10.878-1.918,21.251,5.345,23.169,16.223l65.215,369.854
		C450.817,423.568,443.554,433.941,432.676,435.859z"/>
	<path style="fill:#F9F9F9;" d="M367.64,441.915l64.706-92.409c2.785-3.977,3.869-8.755,3.037-13.47L383.348,40.933
		c-1.726-9.786-11.144-16.381-20.931-14.656L77.724,76.476c-9.786,1.726-16.381,11.144-14.656,20.931l65.886,373.66
		c1.726,9.786,11.144,16.381,20.931,14.656l206.047-36.332C360.647,448.56,364.855,445.891,367.64,441.915z"/>
	<g>
		
			<linearGradient id="SVGID_1_" gradientUnits="userSpaceOnUse" x1="32.4466" y1="272.8337" x2="161.7219" y2="402.1089" gradientTransform="matrix(-0.1736 -0.9848 0.9848 -0.1736 45.0246 557.3041)">
			<stop  offset="0" style="stop-color:#BCBCBC;stop-opacity:0"/>
			<stop  offset="1" style="stop-color:#BCBCBC;stop-opacity:0.5"/>
		</linearGradient>
		<path style="fill:url(#SVGID_1_);" d="M432.302,349.568l-64.706,92.409c-1.246,1.779-2.805,3.338-4.622,4.484
			c-2.125,1.475-4.522,2.448-7.102,2.903l-70.817,12.487l68.956-98.479c2.785-3.977,6.904-6.629,11.619-7.461l69.394-12.236
			C434.479,345.79,433.547,347.789,432.302,349.568z"/>
		<path style="fill:#BCBCBC;" d="M355.932,449.391c2.58-0.455,4.977-1.428,7.102-2.903c1.8-1.235,3.376-2.705,4.622-4.484
			l64.706-92.409c1.246-1.779,2.178-3.778,2.633-5.877c0.66-2.501,0.754-5.087,0.299-7.667l-0.502-2.847
			c1.004,5.694-2.733,11.031-8.427,12.035l-60.942,10.746c-9.786,1.726-16.381,11.144-14.656,20.931l10.746,60.942
			c1.004,5.694-2.733,11.031-8.427,12.035L355.932,449.391z"/>
	</g>
	<path style="fill:#F9E280;" d="M362.417,26.277L77.724,76.476c-9.786,1.726-16.382,11.144-14.656,20.931l15.042,85.308
		l320.28-56.474l-15.042-85.308C381.623,31.147,372.204,24.552,362.417,26.277z"/>
	<g>
		
			<rect x="89.48" y="195.854" transform="matrix(0.9848 -0.1736 0.1736 0.9848 -33.1492 18.8895)" style="fill:#CECECE;" width="3.799" height="6.079"/>
		<path style="fill:#CECECE;" d="M382.513,150.645l-7.597,1.34l-1.056-5.987l7.597-1.34L382.513,150.645z M367.317,153.324
			l-7.599,1.34l-1.056-5.987l7.599-1.34L367.317,153.324z M352.12,156.004l-7.597,1.34l-1.056-5.987l7.597-1.34L352.12,156.004z
			 M336.924,158.683l-7.599,1.34l-1.056-5.987l7.599-1.34L336.924,158.683z M321.727,161.363l-7.597,1.34l-1.056-5.987l7.597-1.34
			L321.727,161.363z M306.531,164.043l-7.599,1.34l-1.056-5.987l7.599-1.34L306.531,164.043z M291.334,166.722l-7.599,1.34
			l-1.056-5.987l7.599-1.34L291.334,166.722z M276.138,169.402l-7.599,1.34l-1.056-5.987l7.599-1.34L276.138,169.402z
			 M260.941,172.081l-7.599,1.34l-1.056-5.987l7.599-1.34L260.941,172.081z M245.745,174.761l-7.599,1.34l-1.056-5.987l7.599-1.34
			L245.745,174.761z M230.548,177.441l-7.598,1.34l-1.056-5.987l7.598-1.34L230.548,177.441z M215.351,180.12l-7.598,1.34
			l-1.056-5.987l7.598-1.34L215.351,180.12z M200.155,182.8l-7.599,1.34l-1.056-5.987l7.599-1.34L200.155,182.8z M184.958,185.479
			l-7.599,1.34l-1.056-5.987l7.599-1.34L184.958,185.479z M169.761,188.159l-7.599,1.34l-1.056-5.987l7.599-1.34L169.761,188.159z
			 M154.565,190.838l-7.599,1.34l-1.056-5.987l7.599-1.34L154.565,190.838z M139.368,193.518l-7.599,1.34l-1.056-5.987l7.599-1.34
			L139.368,193.518z M124.172,196.197l-7.599,1.34l-1.056-5.987l7.599-1.34L124.172,196.197z M108.975,198.877l-7.599,1.34
			l-1.056-5.987l7.599-1.34L108.975,198.877z"/>
		
			<rect x="389.555" y="142.943" transform="matrix(0.9848 -0.1736 0.1736 0.9848 -19.4024 70.1932)" style="fill:#CECECE;" width="3.799" height="6.079"/>
	</g>
</g>
</svg>
