<?xml version="1.0" encoding="utf-8"?>
<!-- Generator: Adobe Illustrator 18.0.0, SVG Export Plug-In . SVG Version: 6.00 Build 0)  -->
<!DOCTYPE svg PUBLIC "-//W3C//DTD SVG 1.1//EN" "http://www.w3.org/Graphics/SVG/1.1/DTD/svg11.dtd">
<svg version="1.1" id="Layer_1" xmlns="http://www.w3.org/2000/svg" xmlns:xlink="http://www.w3.org/1999/xlink" x="0px" y="0px"
	 viewBox="0 0 512 512" style="enable-background:new 0 0 512 512;" xml:space="preserve">
<g>
	<path style="fill:#E8E8E8;" d="M446,486H66c-22.1,0-40-17.9-40-40V66c0-22.1,17.9-40,40-40h380c22.1,0,40,17.9,40,40v380
		C486,468.1,468.1,486,446,486z"/>
	<path style="fill:#60493D;" d="M446,486H66c-22.1,0-40-17.9-40-40V66c0-22.1,17.9-40,40-40h380c22.1,0,40,17.9,40,40v380
		C486,468.1,468.1,486,446,486z"/>
	<g>
		<path style="fill:#825E46;" d="M26.1,94.6c0,0.8-0.1,1.6-0.1,2.4v349c0,0.7,0,1.4,0.1,2.1l165.8-176.8L26.1,94.6z"/>
		<path style="fill:#825E46;" d="M320.1,271.3l165.8,176.8c0-0.7,0.1-1.4,0.1-2.1V97c0-0.8,0-1.6-0.1-2.4L320.1,271.3z"/>
		<linearGradient id="SVGID_1_" gradientUnits="userSpaceOnUse" x1="256" y1="486" x2="256" y2="203">
			<stop  offset="0" style="stop-color:#563D2A"/>
			<stop  offset="0.362" style="stop-color:#6D4E39"/>
			<stop  offset="0.7165" style="stop-color:#7D5A43"/>
			<stop  offset="1" style="stop-color:#825E46"/>
		</linearGradient>
		<path style="fill:url(#SVGID_1_);" d="M320.1,271.3L256,203l-64.1,68.3L26.1,448.1c0,0,0,0,0,0.1C27.2,469.3,44.6,486,66,486h380
			c21.4,0,38.8-16.7,39.9-37.8c0,0,0,0,0-0.1L320.1,271.3z"/>
		<linearGradient id="SVGID_2_" gradientUnits="userSpaceOnUse" x1="256" y1="339.7" x2="256" y2="57">
			<stop  offset="0" style="stop-color:#483221"/>
			<stop  offset="0.3122" style="stop-color:#563D2A"/>
			<stop  offset="0.9016" style="stop-color:#7B5942"/>
			<stop  offset="1" style="stop-color:#825E46"/>
		</linearGradient>
		<path style="fill:url(#SVGID_2_);" d="M485.9,94.5C484.6,73.6,467.3,57,446,57H66c-21.3,0-38.6,16.6-39.9,37.5v0.1l165.8,176.8
			l64.1,68.3l64.1-68.3L485.9,94.5C485.9,94.6,485.9,94.5,485.9,94.5z"/>
	</g>
</g>
<g>
	<path style="fill:#CCA68D;" d="M377.274,165.076v212.548c0,8.284-6.715,15-15,15l-212.549,0.001c-8.284,0-15-6.715-15-15v-212.55
		c0-8.284,6.715-15,15-15h212.549C370.558,150.076,377.274,156.792,377.274,165.076z"/>
	<path style="display:none;fill:#FFFFFF;" d="M340.671,369.98h-11.975c-2.209,0-4-1.791-4-4s1.791-4,4-4h11.934
		c2.209,0,4.021,1.791,4.021,4S342.88,369.98,340.671,369.98z M316.764,369.98H304.83c-2.209,0-4-1.791-4-4s1.791-4,4-4h11.934
		c2.209,0,4,1.791,4,4S318.973,369.98,316.764,369.98z M292.897,369.98h-11.934c-2.209,0-4-1.791-4-4s1.791-4,4-4h11.934
		c2.209,0,4,1.791,4,4S295.106,369.98,292.897,369.98z M269.031,369.98h-11.934c-2.209,0-4-1.791-4-4s1.791-4,4-4h11.934
		c2.209,0,4,1.791,4,4S271.24,369.98,269.031,369.98z M245.165,369.98h-11.933c-2.209,0-4-1.791-4-4s1.791-4,4-4h11.933
		c2.209,0,4,1.791,4,4S247.374,369.98,245.165,369.98z M221.298,369.98h-11.933c-2.209,0-4-1.791-4-4s1.791-4,4-4h11.933
		c2.209,0,4,1.791,4,4S223.507,369.98,221.298,369.98z M197.432,369.98h-11.933c-2.209,0-4-1.791-4-4s1.791-4,4-4h11.933
		c2.209,0,4,1.791,4,4S199.641,369.98,197.432,369.98z M173.565,369.98h-2.196c-4.634,0-8.96-2.288-11.574-6.122
		c-1.244-1.825-0.773-4.313,1.052-5.558c1.825-1.246,4.313-0.773,5.559,1.052c1.122,1.646,2.978,2.628,4.963,2.628h2.196
		c2.209,0,4,1.791,4,4S175.774,369.98,173.565,369.98z M349.941,363.634c-0.485,0-0.979-0.089-1.459-0.277
		c-2.057-0.806-3.07-3.127-2.264-5.184c0.272-0.696,0.411-1.435,0.411-2.192v-8.193c0-2.209,1.791-4,4-4s4,1.791,4,4v8.193
		c0,1.762-0.324,3.481-0.964,5.112C353.048,362.67,351.539,363.634,349.941,363.634z M161.37,354.024c-2.209,0-4-1.791-4-4V338.09
		c0-2.209,1.791-4,4-4s4,1.791,4,4v11.934C165.37,352.233,163.579,354.024,161.37,354.024z M350.63,339.854c-2.209,0-4-1.791-4-4
		v-11.933c0-2.209,1.791-4,4-4s4,1.791,4,4v11.933C354.63,338.062,352.839,339.854,350.63,339.854z M161.37,330.158
		c-2.209,0-4-1.791-4-4v-11.934c0-2.209,1.791-4,4-4s4,1.791,4,4v11.934C165.37,328.367,163.579,330.158,161.37,330.158z
		 M350.63,315.987c-2.209,0-4-1.791-4-4v-11.934c0-2.209,1.791-4,4-4s4,1.791,4,4v11.934
		C354.63,314.196,352.839,315.987,350.63,315.987z M161.37,306.291c-2.209,0-4-1.791-4-4v-11.933c0-2.209,1.791-4,4-4s4,1.791,4,4
		v11.933C165.37,304.5,163.579,306.291,161.37,306.291z M350.63,292.121c-2.209,0-4-1.791-4-4v-11.934c0-2.209,1.791-4,4-4
		s4,1.791,4,4v11.934C354.63,290.33,352.839,292.121,350.63,292.121z M161.37,282.425c-2.209,0-4-1.791-4-4v-11.933
		c0-2.209,1.791-4,4-4s4,1.791,4,4v11.933C165.37,280.634,163.579,282.425,161.37,282.425z M350.63,268.255c-2.209,0-4-1.791-4-4
		v-11.934c0-2.209,1.791-4,4-4s4,1.791,4,4v11.934C354.63,266.464,352.839,268.255,350.63,268.255z M161.37,258.559
		c-2.209,0-4-1.791-4-4v-11.933c0-2.209,1.791-4,4-4s4,1.791,4,4v11.933C165.37,256.768,163.579,258.559,161.37,258.559z
		 M350.63,244.388c-2.209,0-4-1.791-4-4v-11.933c0-2.209,1.791-4,4-4s4,1.791,4,4v11.933
		C354.63,242.597,352.839,244.388,350.63,244.388z M161.37,234.692c-2.209,0-4-1.791-4-4v-11.933c0-2.209,1.791-4,4-4s4,1.791,4,4
		v11.933C165.37,232.901,163.579,234.692,161.37,234.692z M350.63,220.522c-2.209,0-4-1.791-4-4v-11.933c0-2.209,1.791-4,4-4
		s4,1.791,4,4v11.933C354.63,218.731,352.839,220.522,350.63,220.522z M161.37,210.826c-2.209,0-4-1.791-4-4v-11.933
		c0-2.209,1.791-4,4-4s4,1.791,4,4v11.933C165.37,209.035,163.579,210.826,161.37,210.826z M350.63,196.656c-2.209,0-4-1.791-4-4
		v-5.936c0.001-1.217-0.36-2.386-1.043-3.383c-1.248-1.823-0.782-4.312,1.041-5.56c1.822-1.248,4.312-0.782,5.561,1.041
		c1.599,2.335,2.442,5.068,2.441,7.904v5.934C354.63,194.865,352.839,196.656,350.63,196.656z M162.064,187.049
		c-0.489,0-0.986-0.09-1.468-0.281c-2.055-0.812-3.062-3.135-2.251-5.189c2.121-5.37,7.222-8.848,12.997-8.859
		c2.229-0.031,4.003,1.783,4.008,3.992s-1.783,4.003-3.992,4.008c-2.476,0.005-4.663,1.496-5.572,3.797
		C165.165,186.089,163.658,187.049,162.064,187.049z M338.414,180.72H326.48c-2.209,0-4-1.791-4-4s1.791-4,4-4h11.934
		c2.209,0,4,1.791,4,4S340.623,180.72,338.414,180.72z M314.548,180.72h-11.934c-2.209,0-4-1.791-4-4s1.791-4,4-4h11.934
		c2.209,0,4,1.791,4,4S316.757,180.72,314.548,180.72z M290.682,180.72h-11.934c-2.209,0-4-1.791-4-4s1.791-4,4-4h11.934
		c2.209,0,4,1.791,4,4S292.891,180.72,290.682,180.72z M266.814,180.72h-11.933c-2.209,0-4-1.791-4-4s1.791-4,4-4h11.933
		c2.209,0,4,1.791,4,4S269.023,180.72,266.814,180.72z M242.949,180.72h-11.934c-2.209,0-4-1.791-4-4s1.791-4,4-4h11.934
		c2.209,0,4,1.791,4,4S245.158,180.72,242.949,180.72z M219.082,180.72h-11.933c-2.209,0-4-1.791-4-4s1.791-4,4-4h11.933
		c2.209,0,4,1.791,4,4S221.291,180.72,219.082,180.72z M195.216,180.72h-11.933c-2.209,0-4-1.791-4-4s1.791-4,4-4h11.933
		c2.209,0,4,1.791,4,4S197.425,180.72,195.216,180.72z"/>
</g>
<polygon style="display:none;fill:#FFFFFF;" points="346.2,231.35 320.5,205.55 237.1,288.75 191.6,243.15 165.8,269.05 
	211.4,314.55 211.4,314.55 237.1,340.45 237.1,340.45 237.1,340.45 262.9,314.55 262.9,314.55 "/>
<g>
	<path style="fill:#FFFFFF;" d="M301.614,225.45h-91.291l0,0l0,0c-25.146,0-45.582,20.435-45.582,45.582
		s20.435,45.518,45.582,45.518c0,0,0,0,0.127,0h91.291l0,0c25.146,0,45.518-20.435,45.518-45.582
		C347.195,245.822,326.824,225.45,301.614,225.45z M301.614,305.791c-19.226,0-34.759-15.597-34.759-34.759
		s15.597-34.759,34.759-34.759s34.759,15.597,34.759,34.759C336.373,290.258,320.84,305.791,301.614,305.791z"/>
	<path style="fill:#FFFFFF;" d="M301.614,243.912c-14.961,0-27.12,12.159-27.12,27.12s12.159,27.12,27.12,27.12
		s27.12-12.159,27.12-27.12S316.574,243.912,301.614,243.912z"/>
</g>
</svg>
