<?xml version="1.0" encoding="utf-8"?>
<!-- Generator: Adobe Illustrator 18.0.0, SVG Export Plug-In . SVG Version: 6.00 Build 0)  -->
<!DOCTYPE svg PUBLIC "-//W3C//DTD SVG 1.1//EN" "http://www.w3.org/Graphics/SVG/1.1/DTD/svg11.dtd">
<svg version="1.1" id="Layer_1" xmlns="http://www.w3.org/2000/svg" xmlns:xlink="http://www.w3.org/1999/xlink" x="0px" y="0px"
	 viewBox="0 0 512 512" enable-background="new 0 0 512 512" xml:space="preserve">
<g>
	<g>
		<path opacity="0.25" fill="#383938" enable-background="new    " d="M160.8,486.1c89.8-13.1,197.4-14,291-0.9l-0.9-75.8l-290,1.9
			L160.8,486.1L160.8,486.1z"/>
		<g>
			<polygon fill="#F4F4F4" points="356.3,122 356.3,140.3 442.4,140.3 442.4,409.7 172.9,409.7 172.9,376.3 154.7,376.3 154.7,412 
				154.7,428 154.7,472.2 460.6,472.2 460.6,428 460.6,412 460.6,122 			"/>
		</g>
	</g>
	
		<radialGradient id="SVGID_1_" cx="307.65" cy="237" r="134.725" gradientTransform="matrix(1 0 0 -1 0 512)" gradientUnits="userSpaceOnUse">
		<stop  offset="0" style="stop-color:#006BFF"/>
		<stop  offset="0.2852" style="stop-color:#118FFF"/>
		<stop  offset="0.5744" style="stop-color:#1FADFF"/>
		<stop  offset="0.8229" style="stop-color:#27BFFF"/>
		<stop  offset="1" style="stop-color:#2AC6FF"/>
	</radialGradient>
	<polygon fill="url(#SVGID_1_)" points="356.3,316.1 356.3,332.1 356.3,376.3 172.9,376.3 172.9,409.7 442.4,409.7 442.4,140.3 
		356.3,140.3 	"/>
	
		<radialGradient id="SVGID_2_" cx="203.35" cy="332.9" r="134.725" gradientTransform="matrix(1 0 0 -1 0 512)" gradientUnits="userSpaceOnUse">
		<stop  offset="0" style="stop-color:#006BFF"/>
		<stop  offset="0.2852" style="stop-color:#118FFF"/>
		<stop  offset="0.5744" style="stop-color:#1FADFF"/>
		<stop  offset="0.8229" style="stop-color:#27BFFF"/>
		<stop  offset="1" style="stop-color:#2AC6FF"/>
	</radialGradient>
	<polygon fill="url(#SVGID_2_)" points="338.1,313.8 338.1,140.3 338.1,122 338.1,44.4 68.6,44.4 68.6,313.8 154.7,313.8 
		172.9,313.8 	"/>
	<g>
		<polygon fill="#5DC4B8" points="334.1,310.6 276.9,409.7 391.3,409.7 		"/>
		<polygon fill="#5DC4B8" points="230.5,340.7 190.7,409.7 270.4,409.7 		"/>
		<polygon fill="#5DC4B8" points="421.9,376.9 402.9,409.7 440.8,409.7 		"/>
		<polygon fill="#5DC4B8" points="96.4,268.8 70.4,313.8 122.4,313.8 		"/>
		<circle fill="#FFD111" cx="206.1" cy="177.8" r="66.3"/>
	</g>
	<g>
		<path opacity="0.25" fill="#383938" enable-background="new    " d="M56.9,390.2c89.8-13.1,197.4-14,291-0.9l-0.9-75.8l-290,1.9
			C56.9,315.4,56.9,390.2,56.9,390.2z"/>
		<g>
			<path fill="#F4F4F4" d="M50.4,26.1v290v16v44.2h104.3h18.2h183.4v-44.2v-16V140.3V122V26.1H50.4z M338.1,140.3v173.6H172.9h-18.2
				H68.6V44.4h269.5V122V140.3z"/>
		</g>
	</g>
</g>
</svg>
