<?xml version="1.0" encoding="utf-8"?>
<!-- Generator: Adobe Illustrator 18.0.0, SVG Export Plug-In . SVG Version: 6.00 Build 0)  -->
<!DOCTYPE svg PUBLIC "-//W3C//DTD SVG 1.1//EN" "http://www.w3.org/Graphics/SVG/1.1/DTD/svg11.dtd">
<svg version="1.1" id="Layer_1" xmlns="http://www.w3.org/2000/svg" xmlns:xlink="http://www.w3.org/1999/xlink" x="0px" y="0px"
	 viewBox="0 0 512 512" style="enable-background:new 0 0 512 512;" xml:space="preserve">
<g>
	<path style="fill:#132301;" d="M446,486H66c-22.091,0-40-17.909-40-40V66c0-22.091,17.909-40,40-40h380c22.091,0,40,17.909,40,40
		v380C486,468.091,468.091,486,446,486z"/>
	<linearGradient id="SVGID_1_" gradientUnits="userSpaceOnUse" x1="256" y1="26" x2="256" y2="486">
		<stop  offset="0" style="stop-color:#FFFFFF"/>
		<stop  offset="1" style="stop-color:#FFFFFF;stop-opacity:0.5"/>
	</linearGradient>
	<path style="fill:url(#SVGID_1_);" d="M446,36c16.542,0,30,13.458,30,30v380c0,16.542-13.458,30-30,30H66
		c-16.542,0-30-13.458-30-30V66c0-16.542,13.458-30,30-30H446 M446,26H66c-22.091,0-40,17.909-40,40v380c0,22.091,17.909,40,40,40
		h380c22.091,0,40-17.909,40-40V66C486,43.909,468.091,26,446,26L446,26z"/>
</g>
<path style="opacity:0.1;fill:#FFFFFF;" d="M391.496,236.581l-20.509-7.282c-3.01-1.069-5.298-3.521-6.236-6.575
	c-2.652-8.63-6.313-16.817-10.826-24.443l0.043-0.045l11.572-24.313c1.819-3.822,1.035-8.376-1.958-11.369l-14.138-14.138
	c-2.993-2.993-7.547-3.778-11.369-1.958l-24.313,11.572l-0.045,0.045c-7.628-4.513-15.815-8.175-24.443-10.826
	c-3.054-0.938-5.506-3.226-6.575-6.236l-7.282-20.509c-1.416-3.989-5.191-6.654-9.424-6.654h-19.993
	c-4.233,0-8.007,2.665-9.424,6.654l-7.282,20.509c-1.069,3.01-3.522,5.298-6.575,6.236c-8.628,2.651-16.817,6.313-24.443,10.826
	l-0.045-0.046l-24.313-11.572c-3.822-1.819-8.376-1.035-11.369,1.958l-14.138,14.138c-2.993,2.993-3.778,7.547-1.958,11.369
	l11.572,24.313l0.046,0.045c-4.514,7.628-8.175,15.815-10.826,24.443c-0.938,3.054-3.226,5.506-6.236,6.575l-20.509,7.282
	c-3.989,1.416-6.654,5.191-6.654,9.424v19.993c0,4.233,2.665,8.007,6.654,9.424l20.509,7.282c3.01,1.069,5.298,3.521,6.236,6.575
	c2.651,8.628,6.314,16.817,10.826,24.443l-0.046,0.045l-11.572,24.311c-1.819,3.822-1.035,8.376,1.958,11.369l14.138,14.138
	c2.993,2.993,7.547,3.777,11.369,1.958l24.313-11.572l0.045-0.043c7.628,4.513,15.816,8.174,24.443,10.825
	c3.053,0.938,5.506,3.226,6.574,6.236l7.282,20.509c1.416,3.989,5.191,6.654,9.424,6.654h19.993c4.233,0,8.007-2.665,9.424-6.654
	l7.282-20.509c1.069-3.01,3.521-5.298,6.574-6.236c8.628-2.652,16.818-6.313,24.443-10.825l0.045,0.043l24.313,11.572
	c3.822,1.819,8.376,1.035,11.369-1.958l14.138-14.138c2.993-2.993,3.778-7.547,1.958-11.369l-11.572-24.311l-0.043-0.045
	c4.513-7.628,8.174-15.816,10.825-24.443c0.938-3.053,3.226-5.506,6.236-6.575l20.509-7.281c3.989-1.416,6.654-5.191,6.654-9.424
	v-19.993C398.15,241.771,395.485,237.997,391.496,236.581z M303.789,251.41c0.36,3.793,0.255,7.577-0.273,11.281l0.024,0.01
	l8.44,7.612c1.327,1.197,1.757,3.099,1.073,4.75l-3.23,7.797c-0.684,1.651-2.333,2.692-4.117,2.6l-11.352-0.586l-0.025-0.01
	c-2.245,2.992-4.847,5.743-7.784,8.171c-1.039,0.859-1.626,2.147-1.557,3.494l0.473,9.175c0.092,1.784-0.949,3.434-2.6,4.117
	l-7.797,3.23c-1.651,0.684-3.553,0.254-4.75-1.073l-6.153-6.822c-0.903-1.001-2.229-1.497-3.571-1.37
	c-3.793,0.36-7.578,0.255-11.282-0.273l-0.01,0.024l-7.613,8.441c-1.197,1.327-3.099,1.757-4.75,1.073l-7.797-3.23
	c-1.651-0.684-2.692-2.333-2.6-4.118l0.586-11.351l0.011-0.025c-2.992-2.245-5.743-4.847-8.171-7.784
	c-0.859-1.039-2.148-1.626-3.494-1.557l-9.175,0.473c-1.784,0.092-3.434-0.949-4.117-2.6l-3.23-7.797
	c-0.684-1.651-0.254-3.553,1.073-4.75l6.822-6.153c1.001-0.903,1.497-2.229,1.37-3.572c-0.36-3.793-0.255-7.577,0.274-11.281
	l-0.025-0.01l-8.441-7.613c-1.327-1.197-1.757-3.099-1.073-4.75l3.23-7.797c0.684-1.651,2.333-2.692,4.117-2.6l11.352,0.586
	l0.025,0.011c2.245-2.992,4.847-5.743,7.784-8.171c1.039-0.859,1.626-2.148,1.557-3.494l-0.473-9.175
	c-0.092-1.784,0.949-3.434,2.6-4.117l7.797-3.23c1.651-0.684,3.553-0.254,4.75,1.073l6.153,6.822
	c0.903,1.001,2.229,1.497,3.572,1.37c3.793-0.36,7.577-0.254,11.281,0.273l0.01-0.025l7.613-8.441
	c1.197-1.327,3.099-1.757,4.75-1.073l7.798,3.23c1.651,0.684,2.692,2.333,2.6,4.117l-0.586,11.351l-0.01,0.025
	c2.992,2.245,5.742,4.847,8.171,7.784c0.859,1.039,2.148,1.626,3.494,1.557l9.175-0.473c1.784-0.092,3.434,0.949,4.117,2.6
	l3.23,7.797c0.684,1.651,0.254,3.554-1.073,4.75l-6.822,6.153C304.157,248.741,303.661,250.067,303.789,251.41z"/>
<g style="enable-background:new    ;">
	<path style="fill:#FFFFFF;" d="M176.218,149.975l-51.73-20.27v-14.869l66.835,29.583v11.426l-66.835,29.661V170.48L176.218,149.975
		z"/>
	<path style="fill:#FFFFFF;" d="M269.74,212.662h-71.687v-11.817h71.687V212.662z"/>
</g>
</svg>
