<?xml version="1.0" encoding="utf-8"?>
<!-- Generator: Adobe Illustrator 18.0.0, SVG Export Plug-In . SVG Version: 6.00 Build 0)  -->
<!DOCTYPE svg PUBLIC "-//W3C//DTD SVG 1.1//EN" "http://www.w3.org/Graphics/SVG/1.1/DTD/svg11.dtd">
<svg version="1.1" id="Layer_1" xmlns="http://www.w3.org/2000/svg" xmlns:xlink="http://www.w3.org/1999/xlink" x="0px" y="0px"
	 viewBox="0 0 512 512" style="enable-background:new 0 0 512 512;" xml:space="preserve">
<g>
	<g>
		<g>
			<g>
				<polygon style="fill:#E2E2E2;" points="431.824,348.024 430.112,348.372 430.112,383.778 430.112,401.939 430.112,420.942 
					466.351,413.568 456.313,364.232 452.692,346.437 430.112,235.466 430.112,339.613 				"/>
			</g>
			<g>
				<polygon style="fill:#E2E2E2;" points="125.119,483 276.069,452.286 118.869,452.286 				"/>
			</g>
			<g>
				<g>
					<polygon style="fill:#E2E2E2;" points="81.888,106.249 81.888,85.058 81.5,85.137 81.5,106.328 					"/>
				</g>
				<polygon style="fill:#F99D1C;" points="70.138,108.64 81.5,164.481 81.5,106.328 				"/>
				<polygon style="fill:#E2E2E2;" points="81.5,164.481 70.138,108.64 81.5,106.328 81.5,85.137 45.649,92.432 68.859,206.5 
					81.888,270.534 81.888,166.387 				"/>
			</g>
			<g>
				<g>
					<polygon style="fill:#E2E2E2;" points="371.94,53.714 393.131,53.714 393.007,53.107 371.816,53.107 					"/>
				</g>
				<g>
					<polygon style="fill:#E2E2E2;" points="235.931,53.714 340.078,53.714 343.062,53.107 238.914,53.107 					"/>
				</g>
				<polygon style="fill:#F99D1C;" points="343.062,53.107 371.816,53.107 370.673,47.489 				"/>
				<polygon style="fill:#E2E2E2;" points="238.914,53.107 343.062,53.107 370.673,47.489 371.816,53.107 393.007,53.107 
					386.881,23 				"/>
				<g>
					<path style="fill:#F3F3F3;" d="M81.888,53.715v398.571h348.224V53.715H81.888z M409.346,183.633v197.54H102.654V74.48h306.693
						v88.387V183.633z"/>
				</g>
			</g>
		</g>
	</g>
	<radialGradient id="SVGID_1_" cx="314.5698" cy="304.1155" r="367.3916" gradientUnits="userSpaceOnUse">
		<stop  offset="0" style="stop-color:#06AF86"/>
		<stop  offset="1" style="stop-color:#406EA7"/>
	</radialGradient>
	<polygon style="fill:url(#SVGID_1_);" points="409.346,381.173 409.346,183.633 409.346,162.867 409.346,74.48 102.654,74.48 
		102.654,381.173 200.625,381.173 221.391,381.173 	"/>
	<g>
		<circle style="fill:#FFD111;" cx="259.195" cy="226.377" r="75.419"/>
		<polygon style="fill:#5EC4B8;" points="309.602,268.354 244.467,381.173 374.737,381.173 		"/>
		<polygon style="fill:#71C9BC;" points="191.736,302.599 146.372,381.173 237.1,381.173 		"/>
		<polygon style="fill:#29B898;" points="387.759,343.458 366.172,380.848 409.346,380.848 		"/>
		<polygon style="fill:#5EC4B8;" points="134.26,329.947 104.684,381.173 163.835,381.173 		"/>
	</g>
</g>
<g>
	<g>
		<radialGradient id="SVGID_2_" cx="256" cy="367.8601" r="116.1263" gradientUnits="userSpaceOnUse">
			<stop  offset="0" style="stop-color:#010101"/>
			<stop  offset="0.8587" style="stop-color:#010101;stop-opacity:0.1413"/>
			<stop  offset="1" style="stop-color:#010101;stop-opacity:0"/>
		</radialGradient>
		<path style="fill:url(#SVGID_2_);" d="M256,488.178c-66.343,0-120.318-53.974-120.318-120.318S189.657,247.542,256,247.542
			s120.318,53.974,120.318,120.318S322.343,488.178,256,488.178z"/>
		<linearGradient id="SVGID_3_" gradientUnits="userSpaceOnUse" x1="256" y1="479.7933" x2="256" y2="255.9268">
			<stop  offset="0" style="stop-color:#010101"/>
			<stop  offset="0.9877" style="stop-color:#4E4E4E"/>
		</linearGradient>
		<circle style="fill:url(#SVGID_3_);" cx="256" cy="367.86" r="111.933"/>
	</g>
	<g>
		<linearGradient id="SVGID_4_" gradientUnits="userSpaceOnUse" x1="182.0883" y1="441.7718" x2="329.9117" y2="293.9484">
			<stop  offset="0" style="stop-color:#010101"/>
			<stop  offset="0.5" style="stop-color:#4E4E4E"/>
			<stop  offset="1" style="stop-color:#010101"/>
		</linearGradient>
		<circle style="fill:url(#SVGID_4_);" cx="256" cy="367.86" r="104.527"/>
		<linearGradient id="SVGID_5_" gradientUnits="userSpaceOnUse" x1="197.5498" y1="426.3105" x2="314.4504" y2="309.4099">
			<stop  offset="0" style="stop-color:#010101"/>
			<stop  offset="0.5" style="stop-color:#4E4E4E"/>
			<stop  offset="1" style="stop-color:#010101"/>
		</linearGradient>
		<path style="fill:url(#SVGID_5_);" d="M256,450.56c-45.601,0-82.7-37.099-82.7-82.7s37.099-82.7,82.7-82.7s82.7,37.099,82.7,82.7
			S301.601,450.56,256,450.56z"/>
		<radialGradient id="SVGID_6_" cx="257.2128" cy="367.8603" r="103.3144" gradientUnits="userSpaceOnUse">
			<stop  offset="0" style="stop-color:#010101;stop-opacity:0"/>
			<stop  offset="0.8587" style="stop-color:#010101;stop-opacity:0.8587"/>
			<stop  offset="1" style="stop-color:#010101"/>
		</radialGradient>
		<path style="fill:url(#SVGID_6_);" d="M256,450.56c-45.601,0-82.7-37.099-82.7-82.7s37.099-82.7,82.7-82.7s82.7,37.099,82.7,82.7
			S301.601,450.56,256,450.56z"/>
		<linearGradient id="SVGID_7_" gradientUnits="userSpaceOnUse" x1="207.8343" y1="416.0261" x2="304.166" y2="319.6943">
			<stop  offset="0" style="stop-color:#010101"/>
			<stop  offset="0.5" style="stop-color:#4E4E4E"/>
			<stop  offset="1" style="stop-color:#010101"/>
		</linearGradient>
		<path style="fill:url(#SVGID_7_);" d="M256,436.009c-37.577,0-68.149-30.571-68.149-68.149c0-37.577,30.571-68.149,68.149-68.149
			c37.578,0,68.149,30.571,68.149,68.149C324.149,405.438,293.578,436.009,256,436.009z"/>
		<radialGradient id="SVGID_8_" cx="256.0002" cy="367.8603" r="82.4801" gradientUnits="userSpaceOnUse">
			<stop  offset="0" style="stop-color:#010101;stop-opacity:0"/>
			<stop  offset="0.8587" style="stop-color:#010101;stop-opacity:0.8587"/>
			<stop  offset="1" style="stop-color:#010101"/>
		</radialGradient>
		<path style="fill:url(#SVGID_8_);" d="M256,436.009c-37.577,0-68.149-30.571-68.149-68.149c0-37.577,30.571-68.149,68.149-68.149
			c37.578,0,68.149,30.571,68.149,68.149C324.149,405.438,293.578,436.009,256,436.009z"/>
		<g>
			<g style="opacity:0.7;">
				<g>
					<linearGradient id="SVGID_9_" gradientUnits="userSpaceOnUse" x1="290.0677" y1="426.8672" x2="221.9323" y2="308.853">
						<stop  offset="0" style="stop-color:#374A9F"/>
						<stop  offset="0.5337" style="stop-color:#FEE540"/>
						<stop  offset="1" style="stop-color:#C0509D"/>
					</linearGradient>
					<path style="fill:url(#SVGID_9_);" d="M256,436.009c-37.577,0-68.149-30.572-68.149-68.149s30.572-68.149,68.149-68.149
						s68.149,30.572,68.149,68.149S293.577,436.009,256,436.009z"/>
				</g>
				<defs>
					<filter id="Adobe_OpacityMaskFilter" filterUnits="userSpaceOnUse" x="187.851" y="299.711" width="136.298" height="136.298">
						
							<feColorMatrix  type="matrix" values="-1 0 0 0 1  0 -1 0 0 1  0 0 -1 0 1  0 0 0 1 0" color-interpolation-filters="sRGB" result="source"/>
					</filter>
				</defs>
				<mask maskUnits="userSpaceOnUse" x="187.851" y="299.711" width="136.298" height="136.298" id="SVGID_10_">
					<g style="filter:url(#Adobe_OpacityMaskFilter);">
						
							<image style="overflow:visible;" width="585" height="585" xlink:href="23ECB295B2B79BE3.jpg"  transform="matrix(0.24 0 0 0.24 185.8511 297.7112)">
						</image>
					</g>
				</mask>
				<g style="opacity:0.75;mask:url(#SVGID_10_);">
					<path style="fill:#010101;" d="M256,436.009c-37.577,0-68.149-30.572-68.149-68.149s30.572-68.149,68.149-68.149
						s68.149,30.572,68.149,68.149S293.577,436.009,256,436.009z"/>
				</g>
			</g>
			<linearGradient id="SVGID_11_" gradientUnits="userSpaceOnUse" x1="207.8341" y1="416.026" x2="304.1659" y2="319.6942">
				<stop  offset="0" style="stop-color:#E81B3D;stop-opacity:0.1"/>
				<stop  offset="1" style="stop-color:#2D368D"/>
			</linearGradient>
			<path style="fill:url(#SVGID_11_);" d="M256,436.009c-37.577,0-68.149-30.572-68.149-68.149s30.572-68.149,68.149-68.149
				s68.149,30.572,68.149,68.149S293.577,436.009,256,436.009z"/>
			<linearGradient id="SVGID_12_" gradientUnits="userSpaceOnUse" x1="204.4173" y1="367.8601" x2="307.5827" y2="367.8601">
				<stop  offset="0" style="stop-color:#E81B3D;stop-opacity:0.1"/>
				<stop  offset="1" style="stop-color:#2D368D"/>
			</linearGradient>
			<circle style="fill:url(#SVGID_12_);" cx="256" cy="367.86" r="51.583"/>
			<linearGradient id="SVGID_13_" gradientUnits="userSpaceOnUse" x1="219.6669" y1="367.8601" x2="292.3331" y2="367.8601">
				<stop  offset="0" style="stop-color:#E81B3D;stop-opacity:0.1"/>
				<stop  offset="1" style="stop-color:#2D368D"/>
			</linearGradient>
			<circle style="fill:url(#SVGID_13_);" cx="256" cy="367.86" r="36.333"/>
			<linearGradient id="SVGID_14_" gradientUnits="userSpaceOnUse" x1="237.5852" y1="367.8601" x2="274.4148" y2="367.8601">
				<stop  offset="0" style="stop-color:#E81B3D;stop-opacity:0.1"/>
				<stop  offset="1" style="stop-color:#2D368D"/>
			</linearGradient>
			<circle style="fill:url(#SVGID_14_);" cx="256" cy="367.86" r="18.415"/>
		</g>
		<linearGradient id="SVGID_15_" gradientUnits="userSpaceOnUse" x1="255.4278" y1="370.6386" x2="316.2079" y2="431.4187">
			<stop  offset="0" style="stop-color:#FFFFFF;stop-opacity:0.7"/>
			<stop  offset="0.1451" style="stop-color:#FFFFFF;stop-opacity:0.5985"/>
			<stop  offset="1" style="stop-color:#FFFFFF;stop-opacity:0"/>
		</linearGradient>
		<path style="fill:url(#SVGID_15_);" d="M338.068,357.63c-7.593-2.463-15.691-3.806-24.105-3.806
			c-43.129,0-78.092,34.963-78.092,78.092c0,5.693,0.617,11.241,1.774,16.587c5.906,1.343,12.048,2.056,18.355,2.056
			c45.601,0,82.7-37.099,82.7-82.7C338.7,364.397,338.483,360.983,338.068,357.63z"/>
	</g>
</g>
</svg>
