<?xml version="1.0" encoding="utf-8"?>
<!-- Generator: Adobe Illustrator 18.0.0, SVG Export Plug-In . SVG Version: 6.00 Build 0)  -->
<!DOCTYPE svg PUBLIC "-//W3C//DTD SVG 1.1//EN" "http://www.w3.org/Graphics/SVG/1.1/DTD/svg11.dtd">
<svg version="1.1" id="Layer_1" xmlns="http://www.w3.org/2000/svg" xmlns:xlink="http://www.w3.org/1999/xlink" x="0px" y="0px"
	 viewBox="0 0 512 512" style="enable-background:new 0 0 512 512;" xml:space="preserve">
<g>
	<path style="fill:#3ABFEF;" d="M314.436,273.251c-1.372-4.987-1.915-16.697-7.087-16.729c0.381,8.857,3.866,17.4,9.387,24.322
		C315.768,278.235,315.073,275.567,314.436,273.251z"/>
	<path style="fill:#3ABFEF;" d="M256,26C128.975,26,26,128.975,26,256c0,72.327,33.395,136.844,85.596,179.007L82.155,486H256
		c127.026,0,230-102.974,230-230S383.026,26,256,26z M178.684,341.739c-0.423,4.022-0.854,8.081-2.133,11.919
		c-1.553,4.661-14.822,6.676-17.534,10.772c-9.16,13.837-12.645,26.076-24.867,37.3c-3.994,3.668-3.757,11.209-5.341,16.395
		c-3.585-2.168-7.171-4.336-10.757-6.504c1.243-15.77,2.487-31.54,3.73-47.31c0.133-1.688,0.262-3.418-0.199-5.047
		c-0.537-1.896-1.824-3.482-3.173-4.919c-3.869-4.122-8.508-7.519-11.999-11.966c-3.49-4.448-12.014-15.636-10.081-20.949
		c1.267-3.482,3.356-5.186,4.144-8.807c1.061-4.871,4.984-5.699,0.964-8.647c-4.019-2.949-8.858-4.533-13.218-6.95
		c-4.871-2.7-9.093-6.41-13.272-10.09c-2.685-2.364-5.431-4.806-7.066-7.987c-1.265-2.464-1.788-5.231-2.287-7.955
		c-3.571-19.511-6.524-40.324,1.111-58.63c4.256-10.205,11.672-19.212,13.657-30.088c0.951-5.212,1.95-12.198,7.208-12.843
		c5.733,5.863,5.623,15.142,10.706,21.577c14.63,18.521,18.172,9.694,20.847,2.979c0.646-1.622-2.615-14.599-1.508-15.949
		c1.19-1.453,2.97-2.275,4.717-2.963c5.157-2.03,11.474,7.991,16.996,7.515c3.63,8.29,6.394,5.279,10.023,13.569
		c1.823,4.164,3.685,8.534,3.37,13.069c-0.702,10.106-17.133,11.679-25.827,16.879c-7.62,4.558-8.844,14.265-15.43,20.221
		c-2.407,2.177-4.793,4.519-6.111,7.485c-2.394,5.383-1.297,12.671-5.968,16.263c-3.193,0.091-3.879-4.55-6.242-6.701
		c-2.283-2.078-6.105-1.431-8.451,0.576c-2.346,2.007-3.575,4.99-4.723,7.856c-0.897,2.24-1.798,4.762-0.882,6.994
		c0.433,1.056,6.084-4.816,6.879-3.997c5.387,5.548-2.072,12.433,13.055,21.402c0.231-3.608,2.501,0.727,6.113,0.874
		c7.007,0.286,16.607-4.66,23.613-4.374c2.314,0.094,4.675,0.198,6.84,1.021c2.553,0.971,4.628,2.861,6.707,4.632
		c9.452,8.051,11.299,16.147,22.934,20.48c1.893,0.705,11.272,1.973,12.434,3.626c1.322,1.882,6.976,7.556,6.735,9.843
		C183.882,337.253,179.204,336.797,178.684,341.739z M208.316,158.903c-1.513,1.435-3.727,1.749-5.733,2.317
		c-10.022,2.836-16.051,12.649-22.967,20.437c-2.407,2.711-6.472,5.378-9.304,3.115c-0.88-0.703-1.395-1.755-1.883-2.771
		c-1.893-3.945-3.827-8.06-3.818-12.436c0.007-3.651,1.37-7.14,2.297-10.672c3.058-11.646,1.254-24.489-4.895-34.841
		c-1.407-2.369-3.093-4.83-2.948-7.582c0.152-2.887,2.269-5.227,3.596-7.796c2.039-3.947,2.291-8.712,4.772-12.397
		c3.113-4.622,8.918-6.452,14.279-7.971c5.414-1.535,10.829-3.069,16.243-4.603c2.873-0.814,5.858-1.636,8.808-1.171
		c6.384,1.007,8.727,8.432,12.983,13.296c4.467,5.106,22.374,14.611,3.505,13.842c-4.714-0.192-3.129,8.829-5.014,13.154
		c-4.402,10.098-4.547,21.526-7.803,32.05C209.98,156.341,209.43,157.847,208.316,158.903z M440.759,295.928
		c-3.4,2.553-9.912-0.342-8.498-4.353l-6.05,1.018c-2.464,13.295,8.934,7.597,13.81,17.923c-0.398,2.755-3.875,4.148-6.548,3.371
		c-2.673-0.777-1.754-4.284-3.508-6.445c-2.717-3.346-5.181-5.533-5.181-9.843c0-12.952-6.676-5.519-7.771-10.879
		c-1.095-5.36-3.751-16.231-9.198-15.716c-6.497,0.615-8.903,8.547-11.506,14.532c-2.557,5.882-4.152,12.443-9.344,16.208
		c-4.296-6.454-10.317-12.009-11.397-19.686c-0.836-5.941-3.108-6.217-8.807-11.397c-5.75-5.227-20.28-3.278-22.976-4.404
		c-11.422-4.768-5.169-14.792-16.397-9.584c7.694,4.686,8.62,8.74,15.542,14.506c1.946,1.621,10.948,1.674,9.001,4.275
		c-0.318,0.425-0.72,0.779-1.145,1.096c-5.207,3.891-8.89,11.776-15.626,12.243c-1.4,0.097-4.026,1.69-6.261,2.599
		c3.063,1.787,6.341,3.199,9.785,4.114c-1.391,9.082-9.456,15.352-15.029,22.657c-7.194,9.43,4.707,17.617-4.555,25.027
		c-10.361,8.289-19.75,29.743-29.785,36.067c-3.733,2.352-8.644,3.871-12.473,1.679c-1.518-0.869-2.69-2.234-3.687-3.671
		c-6.616-9.528-6.335-22.017-6.673-33.612c-0.337-11.595-2.245-24.514-11.382-31.661c-5.42-4.239-6.657-3.948-13.191-6.103
		c-6.535-2.155-19.187,0.683-21.759-5.699c-1.265-3.14-7.278-14.273-6.735-17.614c2.063-12.701,15.885-29.79,27.975-34.192
		c12.09-4.402,25.385,7.771,41.142,3.563c4.674-1.248,9.794,0.89,14.4-0.591c5.85-1.88-0.952-0.593-4.254-7.117
		c-1.337-2.641-6.539,2.034-9.325,1.036c-5.808-2.081-5.62-7.242-11.397-5.699c-12.242,3.269-7.253-23.313-28.249,2.639
		c-3.381,4.179-12.344,1.968-13.747-4.004c-0.456-1.94-0.051-3.981,0.959-5.7c5.408-9.208,11.432-20.165,21.899-23.477
		c4.355-1.379,9.122-1.269,13.102-3.931c1.049-0.702,1.959-1.616,2.596-2.706c2.828-4.828-16.362-5.128-17.283-9.447
		c-0.713-3.344,5.552-17.514,6.735-20.722c2.322-6.299,17.085-17.655,23.778-17.128c39.944,3.141,8.92,23.925,15.976,24.89
		c2.596,0.355,2.762-3.114,3.245-5.689c3.524-18.774,35.746-15.024,50.252-41.963c4.757-8.835,24.018-15.69,24.213-25.723
		c20.879,4.24,38.633,18.991,49.889,37.08c11.256,18.089,16.603,39.286,19.183,60.434c3.243,26.585,2.36,53.501,0.539,80.221
		C444.753,288.593,444.16,293.375,440.759,295.928z"/>
</g>
</svg>
