<?xml version="1.0" encoding="utf-8"?>
<!-- Generator: Adobe Illustrator 18.0.0, SVG Export Plug-In . SVG Version: 6.00 Build 0)  -->
<!DOCTYPE svg PUBLIC "-//W3C//DTD SVG 1.1//EN" "http://www.w3.org/Graphics/SVG/1.1/DTD/svg11.dtd">
<svg version="1.1" id="Layer_3" xmlns="http://www.w3.org/2000/svg" xmlns:xlink="http://www.w3.org/1999/xlink" x="0px" y="0px"
	 viewBox="0 0 512 512" enable-background="new 0 0 512 512" xml:space="preserve">
<g>
	<linearGradient id="SVGID_1_" gradientUnits="userSpaceOnUse" x1="26" y1="256" x2="486" y2="256">
		<stop  offset="0" style="stop-color:#D7CFC4"/>
		<stop  offset="1" style="stop-color:#E3DCC9"/>
	</linearGradient>
	<circle fill="url(#SVGID_1_)" cx="256" cy="256" r="230"/>
	<g>
		<path display="none" fill="#9C56B8" d="M56.363,338.691c26.95,19.133,59.64,28.241,93.707,27.684
			c21.64-0.354,43.832-4.601,65.453-12.653c13.826-5.149,27.414-11.864,40.478-20.097c8.486-5.348,16.75-11.336,24.712-17.968
			c-7.102,0.647-14.313,0.99-21.619,0.99c-9.757,0-19.344-0.604-28.724-1.747c-10.141-1.237-20.036-3.115-29.62-5.592
			c-13.759-3.556-26.876-8.339-39.183-14.193c-22.637-10.769-42.519-25.164-58.519-42.259c-21.995-23.501-36.653-52.093-41.09-83.33
			c-0.935-6.579-1.429-13.273-1.429-20.064c0-28.783,8.64-55.866,23.854-79.514c6.671-10.369,14.626-20.063,23.652-28.963
			c-11.023,3.037-20.081,6.422-26.749,10.066C68.051,57.333,57.334,68.05,51.052,81.286
			c-15.004,27.451-25.622,95.329-25.622,174.715c0,19.15,0.619,37.627,1.768,55.031c3.363,4.24,6.977,8.328,10.876,12.226
			C43.799,328.983,49.921,334.117,56.363,338.691z"/>
		<path fill="#E84C3D" d="M280.712,315.66c-7.962,6.63-16.225,12.62-24.712,17.968c-13.065,8.231-26.653,14.947-40.478,20.097
			c-21.621,8.052-43.813,12.298-65.453,12.653c-34.065,0.557-66.757-8.551-93.707-27.684c-6.443-4.573-12.564-9.708-18.289-15.434
			c-1.02-1.02-2.013-2.058-2.994-3.103c15.808,54.528,51.251,100.702,98.176,130.374c5.334,0.611,10.737,0.942,16.207,0.942
			c9.058,0,17.945-0.868,26.613-2.515c28.683-5.45,54.933-19.556,76.782-40.004c16.505-15.448,30.494-34.515,41.133-56.186
			c6.369-12.975,11.537-26.884,15.318-41.514c2.572-9.954,4.497-20.243,5.731-30.796c-5.624,7.112-11.73,14.006-18.341,20.617
			C291.533,306.239,286.191,311.095,280.712,315.66z"/>
		<path fill="#F1C50E" d="M331.94,256.001c-4.82-8.049-10.209-15.913-16.167-23.525c0.578,6.717,0.876,13.534,0.876,20.432
			c0,9.35-0.557,18.543-1.609,27.548c-1.233,10.552-3.158,20.841-5.731,30.796c-3.781,14.631-8.949,28.539-15.318,41.514
			c-10.638,21.672-24.627,40.738-41.133,56.186c-21.849,20.449-48.098,34.554-76.782,40.004c-8.668,1.647-17.555,2.515-26.613,2.515
			c-5.469,0-10.873-0.331-16.207-0.942c35.356,22.356,77.223,35.344,122.12,35.463c0.446,0.001,0.892,0,1.338-0.001
			c17.179-0.052,33.912-1.991,50.008-5.615c4.22-3.343,8.284-6.944,12.163-10.823c4.803-4.804,9.186-9.885,13.178-15.199
			c18.95-25.226,28.804-55.808,29.868-87.979c0.748-22.595-2.842-45.968-10.644-68.815C346.45,283.4,339.991,269.444,331.94,256.001
			z"/>
		<path fill="#00BD9B" d="M332.063,454.354c-3.991,5.313-8.376,10.396-13.177,15.198c-3.88,3.88-7.946,7.481-12.167,10.825
			c60.36-13.586,111.731-50.899,143.811-101.632c0.611-5.334,0.942-10.737,0.942-16.207c0-6.792-0.494-13.485-1.429-20.064
			c-4.438-31.237-19.095-59.829-41.09-83.33c-15.999-17.095-35.881-31.49-58.519-42.259c-12.306-5.854-25.424-10.637-39.183-14.193
			c-9.584-2.477-19.479-4.355-29.62-5.592c5.159,4.341,10.189,8.951,15.068,13.829c6.899,6.899,13.252,14.105,19.075,21.547
			c5.957,7.613,11.347,15.477,16.167,23.525c8.051,13.444,14.51,27.4,19.347,41.56c7.802,22.848,11.392,46.221,10.644,68.815
			C360.867,398.546,351.013,429.128,332.063,454.354z"/>
		<path fill="#51D88B" d="M485.996,256.352c0-0.33-0.003-0.659-0.004-0.989c-0.06-22.04-3.224-43.349-9.071-63.518
			c-0.981-1.046-1.975-2.084-2.995-3.105c-5.725-5.724-11.847-10.859-18.289-15.432c-26.95-19.133-59.64-28.241-93.707-27.684
			c-21.64,0.354-43.832,4.601-65.453,12.653c-13.826,5.149-27.414,11.864-40.478,20.097c-8.486,5.348-16.75,11.336-24.712,17.968
			c7.102-0.647,14.313-0.99,21.619-0.99c9.757,0,19.344,0.604,28.724,1.747c10.141,1.237,20.036,3.115,29.62,5.592
			c13.759,3.556,26.876,8.339,39.182,14.193c22.637,10.769,42.519,25.164,58.519,42.259c21.995,23.501,36.653,52.093,41.09,83.33
			c0.935,6.58,1.429,13.273,1.429,20.064c0,5.471-0.331,10.875-0.943,16.21C472.93,343.318,485.928,301.353,485.996,256.352z"/>
	</g>
	<g id="Layer_2_1_">
		<g opacity="0.6">
			<path fill="#3D3D3D" d="M331.138,293.316c2.684,2.727,1.578,8.167-2.47,12.15l-44.219,43.517
				c-4.048,3.984-9.505,5.003-12.189,2.275l-2.592-2.633c-2.684-2.727-1.578-8.168,2.47-12.15l44.219-43.517
				c4.048-3.984,9.505-5.003,12.189-2.275L331.138,293.316z"/>
			<path fill="#3D3D3D" d="M137.78,134.586l-0.005,0.005c-0.036-0.037-0.065-0.077-0.1-0.114
				c-5.743-5.837-15.132-5.912-20.968-0.167c-5.837,5.743-5.912,15.132-0.167,20.968c0.036,0.037,0.075,0.067,0.112,0.102
				l-0.005,0.005l154.528,182.04l22.861-22.497l0.431-0.425l22.861-22.497L137.78,134.586z"/>
			<path fill="#3D3D3D" d="M348.464,318.039c7.336,7.455,7.802,19.448,11.935,32.619c3.858,12.291,10.456,30.361,33.571,36.269
				c0,0-32.797,9.437-59.242,3.217c-14.362-3.378-31.271-13.441-38.456-20.742c-14.184-14.412-4.341-27.781,10.071-41.965
				C320.756,313.254,334.28,303.627,348.464,318.039z"/>
		</g>
		<g>
			<path fill="#D1D0CF" d="M336.889,283c2.684,2.727,1.578,8.167-2.47,12.15L290.2,338.667c-4.048,3.984-9.505,5.003-12.189,2.275
				l-2.592-2.633c-2.684-2.727-1.578-8.168,2.47-12.15l44.219-43.517c4.048-3.984,9.505-5.003,12.189-2.275L336.889,283z"/>
			<path fill="#B59576" d="M143.53,124.27l-0.005,0.005c-0.036-0.037-0.065-0.077-0.1-0.114c-5.744-5.837-15.132-5.912-20.968-0.167
				c-5.837,5.743-5.912,15.132-0.167,20.968c0.036,0.037,0.075,0.067,0.112,0.102l-0.005,0.005l154.528,182.04l22.861-22.497
				l0.431-0.425l22.861-22.497L143.53,124.27z"/>
			<path fill="#302F2F" d="M354.214,307.722c7.336,7.455,7.802,19.448,11.935,32.619c3.858,12.291,10.456,30.361,33.571,36.269
				c0,0-32.797,9.437-59.242,3.217c-14.362-3.378-31.271-13.441-38.456-20.742c-14.184-14.412-4.341-27.781,10.071-41.965
				C326.506,302.937,340.03,293.31,354.214,307.722z"/>
		</g>
	</g>
</g>
</svg>
