<?xml version="1.0" encoding="utf-8"?>
<!-- Generator: Adobe Illustrator 18.0.0, SVG Export Plug-In . SVG Version: 6.00 Build 0)  -->
<!DOCTYPE svg PUBLIC "-//W3C//DTD SVG 1.1//EN" "http://www.w3.org/Graphics/SVG/1.1/DTD/svg11.dtd">
<svg version="1.1" id="Layer_1" xmlns="http://www.w3.org/2000/svg" xmlns:xlink="http://www.w3.org/1999/xlink" x="0px" y="0px"
	 viewBox="0 0 512 512" style="enable-background:new 0 0 512 512;" xml:space="preserve">
<path style="opacity:0.4;" d="M317.046,26c-66.907,0-121.241,54.242-121.241,121.241v62.961v91.596v62.961
	c0,66.999,54.334,121.241,121.241,121.241c66.907,0,121.241-54.242,121.149-121.149v-63.053v-91.596v-63.053
	C438.287,80.242,383.953,26,317.046,26z"/>
<path style="fill:#EDEDED;" d="M256.046,26c-66.907,0-121.241,54.242-121.241,121.241v62.961v91.596v62.961
	c0,66.999,54.334,121.241,121.241,121.241c66.907,0,121.241-54.242,121.149-121.149v-63.053v-91.596v-63.053
	C377.287,80.242,322.953,26,256.046,26z"/>
<circle style="fill:#FFFFFF;" cx="256" cy="135.313" r="12.385"/>
</svg>
