<?xml version="1.0" encoding="utf-8"?>
<!-- Generator: Adobe Illustrator 18.0.0, SVG Export Plug-In . SVG Version: 6.00 Build 0)  -->
<!DOCTYPE svg PUBLIC "-//W3C//DTD SVG 1.1//EN" "http://www.w3.org/Graphics/SVG/1.1/DTD/svg11.dtd">
<svg version="1.1" id="Layer_1" xmlns="http://www.w3.org/2000/svg" xmlns:xlink="http://www.w3.org/1999/xlink" x="0px" y="0px"
	 viewBox="0 0 512 512" style="enable-background:new 0 0 512 512;" xml:space="preserve">
<g>
	<path style="fill:#FF5129;" d="M87.139,251.931c2.906,17.435,9.444,44.314,26.639,55.352c6.874,4.412,13.37,9.491,20.487,14.642
		c11.9-37.779-31.871-55.464-1.359-121.573c7.991,36.323,30.938,38.603,49.875,53.153c13.327-20.462,13.675-36.096,12.601-61.871
		c-1.453-34.87-31.906-55.002-33.417-58.844c50.245,5.086,49.438,39.347,83.544,50.853c-1.304-8.347,8.718-12.35,1.037-31.078
		c-7.982-19.461-16.292-19.775-16.292-54.645c0-23.844,13.803-50.126,32.691-71.92c0,0-5.782,55.566,7.103,78.467
		c6.407,11.387,19.873,27.125,26.314,38.494c11.188,19.747,10.451,71.144,11.127,78.34c8.601-2.061,10.937-8.091,13.938-13.569
		c7.626-13.918,6.899-53.147-0.365-72.035c12.688,14.378,31.617,45.498,38.503,63.203c20.341,52.306-3.792,88.664,1.453,85.723
		c4.884-2.739,23.247-15.256,31.238-68.288c0,0,15.396,29.84,17.435,67.561c1.453,26.879-7.117,38.25-8.482,58.287
		c10.599-11.714,23.011-24.143,30.276-46.663c1.453,43.588-8.884,88.775-28.604,122.078c-11.536,19.482-27.125,34.899-47.988,44.447
		c-16.715,7.649-33.455,15.243-51.153,21.803c36.463-35.522,63.936-85.297,45.654-139.655c0.726,40.682-14.425,61.938-20.341,74.826
		c-0.952-0.283-15.982-39.229-3.109-104.903c-23.77,17.727-36.114,63.05-36.847,62.768c0-4.848,18.888-87.902-33.982-126.258
		c1.013,6.674,9.681,20.243,14.368,50.706c2.906,18.888-1.098,35.469-1.453,43.588c-31.238-12.35-31.148-33.054-36.753-51.79
		c-5.459,21.237-6.495,42.19-2.295,63.511c1.981,10.056,3.315,22.732-2.36,34.773c-16.387-22.263-22.4-48.794-27.189-76.897
		c-6.493,15.395-24.39,59.461,1.763,94.332c0,0-25.426-4.359-49.4-47.22c-5.085,33.417,8.93,53.59,23.247,70.467
		c14.44,17.022,32.691,34.87,59.901,53.905c-34.91-5.626-67.6-15.137-90.901-43.297c-9.601-11.603-18.666-24.599-24.14-38.474
		c-12.489-31.659,0.395-41.794-24.771-70.934C67.524,301.331,87.139,255.563,87.139,251.931z"/>
</g>
</svg>
