<?xml version="1.0" encoding="utf-8"?>
<!-- Generator: Adobe Illustrator 18.0.0, SVG Export Plug-In . SVG Version: 6.00 Build 0)  -->
<!DOCTYPE svg PUBLIC "-//W3C//DTD SVG 1.1//EN" "http://www.w3.org/Graphics/SVG/1.1/DTD/svg11.dtd">
<svg version="1.1" id="Layer_1" xmlns="http://www.w3.org/2000/svg" xmlns:xlink="http://www.w3.org/1999/xlink" x="0px" y="0px"
	 viewBox="0 0 512 512" enable-background="new 0 0 512 512" xml:space="preserve">
<g>
	
		<linearGradient id="SVGID_1_" gradientUnits="userSpaceOnUse" x1="98.8365" y1="256" x2="413.1635" y2="256" gradientTransform="matrix(0.9848 -0.1736 0.1736 0.9848 -40.5647 48.3431)">
		<stop  offset="0" style="stop-color:#F6F6F6"/>
		<stop  offset="1" style="stop-color:#EEEEEE"/>
	</linearGradient>
	<path fill="url(#SVGID_1_)" d="M441.7,433L142,485.8c-2.7,0.5-5.3-1.3-5.8-4.1l-70-397c-0.5-2.7,1.3-5.3,4.1-5.8L370,26.2
		c2.7-0.5,5.3,1.3,5.8,4.1l70,397C446.3,429.9,444.4,432.5,441.7,433z"/>
	<g opacity="0.5">
		
			<rect x="74.5" y="111.8" transform="matrix(0.9848 -0.1736 0.1736 0.9848 -16.0685 41.7794)" fill="#AD6060" width="312.5" height="1.8"/>
		
			<rect x="79.6" y="140.7" transform="matrix(0.9848 -0.1736 0.1736 0.9848 -21.0035 43.1017)" fill="#A5A5A5" width="312.5" height="1.8"/>
		
			<rect x="84.7" y="169.6" transform="matrix(0.9848 -0.1736 0.1736 0.9848 -25.9385 44.4241)" fill="#A5A5A5" width="312.5" height="1.8"/>
		
			<rect x="89.7" y="198.4" transform="matrix(0.9848 -0.1736 0.1736 0.9848 -30.8735 45.7464)" fill="#A5A5A5" width="312.5" height="1.8"/>
		
			<rect x="94.8" y="227.3" transform="matrix(0.9848 -0.1736 0.1736 0.9848 -35.8084 47.0687)" fill="#A5A5A5" width="312.5" height="1.8"/>
		
			<rect x="99.9" y="256.1" transform="matrix(0.9848 -0.1736 0.1736 0.9848 -40.7434 48.391)" fill="#A5A5A5" width="312.5" height="1.8"/>
		
			<rect x="105" y="285" transform="matrix(0.9848 -0.1736 0.1736 0.9848 -45.6784 49.7134)" fill="#A5A5A5" width="312.5" height="1.8"/>
		
			<rect x="110.1" y="313.9" transform="matrix(0.9848 -0.1736 0.1736 0.9848 -50.6134 51.0357)" fill="#A5A5A5" width="312.5" height="1.8"/>
		
			<rect x="115.2" y="342.7" transform="matrix(0.9848 -0.1736 0.1736 0.9848 -55.5484 52.358)" fill="#A5A5A5" width="312.5" height="1.8"/>
		
			<rect x="120.3" y="371.6" transform="matrix(0.9848 -0.1736 0.1736 0.9848 -60.4833 53.6803)" fill="#A5A5A5" width="312.5" height="1.8"/>
		
			<rect x="125.4" y="400.5" transform="matrix(0.9848 -0.1736 0.1736 0.9848 -65.4183 55.0026)" fill="#A5A5A5" width="312.5" height="1.8"/>
		
			<rect x="130.5" y="429.3" transform="matrix(0.9848 -0.1736 0.1736 0.9848 -70.3533 56.325)" fill="#A5A5A5" width="312.5" height="1.8"/>
	</g>
</g>
<g>
	<g>
		<polygon fill="#D6D6D6" points="256,358.3 276,323.7 256,335.1 		"/>
		<path fill="#C4834D" d="M256,153.7v170v11.4l20-11.4v-165c0-2.8-2.2-5-5-5H256z"/>
		<polygon fill="#FFFFFF" points="236,323.7 256,358.3 256,335.1 		"/>
	</g>
	<g>
		<polygon fill="#FFE000" points="236,323.7 256,335.1 256,168.6 236,168.6 		"/>
		<path fill="#ADADAD" d="M271,153.7h-15v14.9h20v-9.9C276,155.9,273.8,153.7,271,153.7z"/>
		<path fill="#FFFFFF" d="M236,158.7v9.9h20v-14.9h-15C238.2,153.7,236,155.9,236,158.7z"/>
	</g>
</g>
</svg>
