<?xml version="1.0" encoding="utf-8"?>
<!-- Generator: Adobe Illustrator 18.0.0, SVG Export Plug-In . SVG Version: 6.00 Build 0)  -->
<!DOCTYPE svg PUBLIC "-//W3C//DTD SVG 1.1//EN" "http://www.w3.org/Graphics/SVG/1.1/DTD/svg11.dtd">
<svg version="1.1" id="Layer_1" xmlns="http://www.w3.org/2000/svg" xmlns:xlink="http://www.w3.org/1999/xlink" x="0px" y="0px"
	 viewBox="0 0 512 512" enable-background="new 0 0 512 512" xml:space="preserve">
<g>
	<linearGradient id="SVGID_1_" gradientUnits="userSpaceOnUse" x1="98.8365" y1="256" x2="413.1635" y2="256">
		<stop  offset="0" style="stop-color:#F6F6F6"/>
		<stop  offset="1" style="stop-color:#EEEEEE"/>
	</linearGradient>
	<path fill="url(#SVGID_1_)" d="M408.2,462.6H103.8c-2.8,0-5-2.2-5-5V54.4c0-2.8,2.2-5,5-5h304.3c2.8,0,5,2.2,5,5v403.1
		C413.2,460.3,410.9,462.6,408.2,462.6z"/>
	<g opacity="0.5">
		<rect x="99.7" y="109.6" fill="#AD6060" width="312.5" height="1.8"/>
		<rect x="99.7" y="138.9" fill="#A5A5A5" width="312.5" height="1.8"/>
		<rect x="99.7" y="168.2" fill="#A5A5A5" width="312.5" height="1.8"/>
		<rect x="99.7" y="197.5" fill="#A5A5A5" width="312.5" height="1.8"/>
		<rect x="99.7" y="226.9" fill="#A5A5A5" width="312.5" height="1.8"/>
		<rect x="99.7" y="256.2" fill="#A5A5A5" width="312.5" height="1.8"/>
		<rect x="99.7" y="285.5" fill="#A5A5A5" width="312.5" height="1.8"/>
		<rect x="99.7" y="314.8" fill="#A5A5A5" width="312.5" height="1.8"/>
		<rect x="99.7" y="344.1" fill="#A5A5A5" width="312.5" height="1.8"/>
		<rect x="99.7" y="373.4" fill="#A5A5A5" width="312.5" height="1.8"/>
		<rect x="99.7" y="402.7" fill="#A5A5A5" width="312.5" height="1.8"/>
		<rect x="99.7" y="432" fill="#A5A5A5" width="312.5" height="1.8"/>
	</g>
</g>
<g>
	<g>
		<polygon fill="#D6D6D6" points="256,358.3 276,323.7 256,335.1 		"/>
		<path fill="#C4834D" d="M256,153.7v170v11.4l20-11.4v-165c0-2.8-2.2-5-5-5H256z"/>
		<polygon fill="#FFFFFF" points="236,323.7 256,358.3 256,335.1 		"/>
	</g>
	<g>
		<polygon fill="#FFE000" points="236,323.7 256,335.1 256,168.6 236,168.6 		"/>
		<path fill="#ADADAD" d="M271,153.7h-15v14.9h20v-9.9C276,155.9,273.8,153.7,271,153.7z"/>
		<path fill="#FFFFFF" d="M236,158.7v9.9h20v-14.9h-15C238.2,153.7,236,155.9,236,158.7z"/>
	</g>
</g>
</svg>
