<?xml version="1.0" encoding="utf-8"?>
<!-- Generator: Adobe Illustrator 18.0.0, SVG Export Plug-In . SVG Version: 6.00 Build 0)  -->
<!DOCTYPE svg PUBLIC "-//W3C//DTD SVG 1.1//EN" "http://www.w3.org/Graphics/SVG/1.1/DTD/svg11.dtd">
<svg version="1.1" id="Layer_1" xmlns="http://www.w3.org/2000/svg" xmlns:xlink="http://www.w3.org/1999/xlink" x="0px" y="0px"
	 viewBox="0 0 512 512" enable-background="new 0 0 512 512" xml:space="preserve">
<g>
	
		<linearGradient id="SVGID_1_" gradientUnits="userSpaceOnUse" x1="105.5343" y1="256.0069" x2="406.4872" y2="256.0069" gradientTransform="matrix(0.9848 -0.1736 -0.1736 -0.9848 48.3439 552.5734)">
		<stop  offset="0" style="stop-color:#F6F6F6"/>
		<stop  offset="1" style="stop-color:#EEEEEE"/>
	</linearGradient>
	<path fill="url(#SVGID_1_)" d="M438.3,434.4L145.6,486c-1,0.2-1.9-0.5-2.1-1.5L72.1,79.7c-0.2-1,0.5-1.9,1.5-2.1L366.4,26
		c1-0.2,1.9,0.5,2.1,1.5l71.4,404.8C440,433.2,439.3,434.2,438.3,434.4z"/>
	<g opacity="0.2">
		<g>
			<path fill="#8C8A88" d="M361.7,70.1L93,117.4c-0.8,0.1-1.5-0.4-1.7-1.1l0,0c-0.1-0.7,0.5-1.5,1.2-1.6l268.7-47.4
				c0.8-0.1,1.5,0.4,1.7,1.1l0,0C363,69.2,362.5,69.9,361.7,70.1z"/>
		</g>
		<g>
			<path fill="#8C8A88" d="M364.8,88.2L96.2,135.6c-0.8,0.1-1.5-0.4-1.7-1.1l0,0c-0.1-0.7,0.5-1.5,1.2-1.6l268.7-47.4
				c0.8-0.1,1.5,0.4,1.7,1.1l0,0C366.2,87.4,365.6,88,364.8,88.2z"/>
		</g>
		<g>
			<path fill="#8C8A88" d="M368.1,106.4L99.4,153.7c-0.8,0.1-1.5-0.4-1.7-1.1l0,0c-0.1-0.7,0.5-1.5,1.2-1.6l268.7-47.4
				c0.8-0.1,1.5,0.4,1.7,1.1l0,0C369.4,105.6,368.9,106.2,368.1,106.4z"/>
		</g>
		<g>
			<path fill="#8C8A88" d="M371.3,124.6l-268.7,47.4c-0.8,0.1-1.5-0.4-1.7-1.1l0,0c-0.1-0.7,0.5-1.5,1.2-1.6l268.7-47.4
				c0.8-0.1,1.5,0.4,1.7,1.1l0,0C372.6,123.7,372.1,124.4,371.3,124.6z"/>
		</g>
		<g>
			<path fill="#8C8A88" d="M374.5,142.8l-268.7,47.4c-0.8,0.1-1.5-0.4-1.7-1.1l0,0c-0.1-0.7,0.5-1.5,1.2-1.6L374,140.1
				c0.8-0.1,1.5,0.4,1.7,1.1l0,0C375.8,141.9,375.3,142.6,374.5,142.8z"/>
		</g>
		<g>
			<path fill="#8C8A88" d="M377.7,161L109,208.3c-0.8,0.1-1.5-0.4-1.7-1.1l0,0c-0.1-0.7,0.5-1.5,1.2-1.6l268.7-47.4
				c0.8-0.1,1.5,0.4,1.7,1.1l0,0C379,160.1,378.5,160.8,377.7,161z"/>
		</g>
		<g>
			<path fill="#8C8A88" d="M380.9,179.2l-268.7,47.4c-0.8,0.1-1.5-0.4-1.7-1.1l0,0c-0.1-0.7,0.5-1.5,1.2-1.6l268.7-47.4
				c0.8-0.1,1.5,0.4,1.7,1.1l0,0C382.2,178.3,381.7,179,380.9,179.2z"/>
		</g>
		<g>
			<path fill="#8C8A88" d="M384.1,197.3l-268.7,47.4c-0.8,0.1-1.5-0.4-1.7-1.1l0,0c-0.1-0.7,0.5-1.5,1.2-1.6l268.7-47.4
				c0.8-0.1,1.5,0.4,1.7,1.1l0,0C385.4,196.5,384.9,197.1,384.1,197.3z"/>
		</g>
		<g>
			<path fill="#8C8A88" d="M387.3,215.5l-268.7,47.4c-0.8,0.1-1.5-0.4-1.7-1.1l0,0c-0.1-0.7,0.5-1.5,1.2-1.6l268.7-47.4
				c0.8-0.1,1.5,0.4,1.7,1.1l0,0C388.6,214.6,388.1,215.3,387.3,215.5z"/>
		</g>
		<g>
			<path fill="#8C8A88" d="M390.5,233.7L121.8,281c-0.8,0.1-1.5-0.4-1.7-1.1l0,0c-0.1-0.7,0.5-1.5,1.2-1.6L390,231
				c0.8-0.1,1.5,0.4,1.7,1.1l0,0C391.8,232.8,391.3,233.5,390.5,233.7z"/>
		</g>
		<g>
			<path fill="#8C8A88" d="M393.7,251.9L125,299.2c-0.8,0.1-1.5-0.4-1.7-1.1l0,0c-0.1-0.7,0.5-1.5,1.2-1.6l268.7-47.4
				c0.8-0.1,1.5,0.4,1.7,1.1l0,0C395,251,394.5,251.7,393.7,251.9z"/>
		</g>
		<g>
			<path fill="#8C8A88" d="M396.9,270.1l-268.7,47.4c-0.8,0.1-1.5-0.4-1.7-1.1l0,0c-0.1-0.7,0.5-1.5,1.2-1.6l268.7-47.4
				c0.8-0.1,1.5,0.4,1.7,1.1l0,0C398.2,269.2,397.7,269.9,396.9,270.1z"/>
		</g>
		<g>
			<path fill="#8C8A88" d="M400.1,288.2l-268.7,47.4c-0.8,0.1-1.5-0.4-1.7-1.1l0,0c-0.1-0.7,0.5-1.5,1.2-1.6l268.7-47.4
				c0.8-0.1,1.5,0.4,1.7,1.1l0,0C401.4,287.4,400.9,288,400.1,288.2z"/>
		</g>
		<g>
			<path fill="#8C8A88" d="M403.3,306.4l-268.7,47.4c-0.8,0.1-1.5-0.4-1.7-1.1l0,0c-0.1-0.7,0.5-1.5,1.2-1.6l268.7-47.4
				c0.8-0.1,1.5,0.4,1.7,1.1l0,0C404.6,305.6,404.1,306.2,403.3,306.4z"/>
		</g>
		<g>
			<path fill="#8C8A88" d="M406.5,324.6l-268.7,47.4c-0.8,0.1-1.5-0.4-1.7-1.1l0,0c-0.1-0.7,0.5-1.5,1.2-1.6l268.7-47.4
				c0.8-0.1,1.5,0.4,1.7,1.1l0,0C407.8,323.7,407.3,324.4,406.5,324.6z"/>
		</g>
		<g>
			<path fill="#8C8A88" d="M409.7,342.7L141,390.1c-0.8,0.1-1.5-0.4-1.7-1.1l0,0c-0.1-0.7,0.5-1.5,1.2-1.6l268.7-47.4
				c0.8-0.1,1.5,0.4,1.7,1.1l0,0C411,341.9,410.5,342.6,409.7,342.7z"/>
		</g>
		<g>
			<path fill="#8C8A88" d="M412.9,360.9l-268.7,47.4c-0.8,0.1-1.5-0.4-1.7-1.1l0,0c-0.1-0.7,0.5-1.5,1.2-1.6l268.7-47.4
				c0.8-0.1,1.5,0.4,1.7,1.1l0,0C414.3,360.1,413.7,360.8,412.9,360.9z"/>
		</g>
		<g>
			<path fill="#8C8A88" d="M416.2,379.1l-268.7,47.4c-0.8,0.1-1.5-0.4-1.7-1.1l0,0c-0.1-0.7,0.5-1.5,1.2-1.6l268.7-47.4
				c0.8-0.1,1.5,0.4,1.7,1.1l0,0C417.5,378.3,417,379,416.2,379.1z"/>
		</g>
		<g>
			<path fill="#8C8A88" d="M419.3,397.2l-268.7,47.4c-0.8,0.1-1.5-0.4-1.7-1.1l0,0c-0.1-0.7,0.5-1.5,1.2-1.6l268.7-47.4
				c0.8-0.1,1.5,0.4,1.7,1.1l0,0C420.7,396.5,420.1,397.1,419.3,397.2z"/>
		</g>
	</g>
</g>
<g id="Layer_2_1_">
	<g>
		<polygon fill="#777777" points="218.8,318.1 218.9,318.1 327.4,209.7 314.9,197.2 184.7,327.4 		"/>
		<polygon fill="#FFFFFF" points="193.9,293.2 193.9,293.2 184.6,327.4 184.7,327.4 314.9,197.2 302.3,184.6 		"/>
	</g>
</g>
</svg>
