<?xml version="1.0" encoding="utf-8"?>
<!-- Generator: Adobe Illustrator 18.0.0, SVG Export Plug-In . SVG Version: 6.00 Build 0)  -->
<!DOCTYPE svg PUBLIC "-//W3C//DTD SVG 1.1//EN" "http://www.w3.org/Graphics/SVG/1.1/DTD/svg11.dtd">
<svg version="1.1" id="Layer_1" xmlns="http://www.w3.org/2000/svg" xmlns:xlink="http://www.w3.org/1999/xlink" x="0px" y="0px"
	 viewBox="0 0 512 512" style="enable-background:new 0 0 512 512;" xml:space="preserve">
<g style="opacity:0.4;">
	<polygon points="201.3,392.3 187.1,368.6 270.1,216.1 175.5,42.4 83.6,42.4 83.5,42.6 214.9,283.8 102,491 119.9,491 119.9,491 
		154.9,491 136.5,461.5 146.8,442.6 173.9,442.1 159.8,418.6 160.3,417.7 186.6,417.2 173,394.5 173.9,392.8 	"/>
	<path d="M339.3,156.4c7.5,3,15.6,4.6,24.1,4.6c35.9,0,65-29.1,65-65c0-21.9-10.8-41.2-27.4-53l0.2-0.4l-0.9,0
		c-10.5-7.3-23.3-11.6-37-11.6c-35.9,0-65,29.1-65,65c0,21.6,10.6,40.7,26.8,52.6l-91.9,168.8L327.8,491h92L288.4,249.8L339.3,156.4
		z M379.6,48.6c1-0.2,2.1-0.3,3.1-0.3c5,0,9.4,2.4,12.2,6.1c1.9,2.6,3.1,5.7,3.1,9.2c0,8.4-6.8,15.2-15.2,15.2c-0.4,0-0.7,0-1.1-0.1
		c-6-0.4-11-4.3-13.1-9.7c-0.7-1.7-1-3.5-1-5.5C367.5,56.2,372.7,50,379.6,48.6z"/>
</g>
<g>
	<polygon style="fill:#FFFFFF;" points="201.3,387.3 187.1,363.6 270.1,211.1 175.5,37.4 83.6,37.4 83.5,37.6 214.9,278.8 102,486 
		119.9,486 119.9,486 154.9,486 136.5,456.5 146.8,437.6 173.9,437.1 159.8,413.6 160.3,412.7 186.6,412.2 173,389.5 173.9,387.8 	
		"/>
	<path style="fill:#FFFFFF;" d="M339.3,151.4c7.5,3,15.6,4.6,24.1,4.6c35.9,0,65-29.1,65-65c0-21.9-10.8-41.2-27.4-53l0.2-0.4
		l-0.9,0c-10.5-7.3-23.3-11.6-37-11.6c-35.9,0-65,29.1-65,65c0,21.6,10.6,40.7,26.8,52.6l-91.9,168.8L327.8,486h92L288.4,244.8
		L339.3,151.4z M379.6,43.6c1-0.2,2.1-0.3,3.1-0.3c5,0,9.4,2.4,12.2,6.1c1.9,2.6,3.1,5.7,3.1,9.2c0,8.4-6.8,15.2-15.2,15.2
		c-0.4,0-0.7,0-1.1-0.1c-6-0.4-11-4.3-13.1-9.7c-0.7-1.7-1-3.5-1-5.5C367.5,51.2,372.7,45,379.6,43.6z"/>
</g>
</svg>
