<?xml version="1.0" encoding="utf-8"?>
<!-- Generator: Adobe Illustrator 18.0.0, SVG Export Plug-In . SVG Version: 6.00 Build 0)  -->
<!DOCTYPE svg PUBLIC "-//W3C//DTD SVG 1.1//EN" "http://www.w3.org/Graphics/SVG/1.1/DTD/svg11.dtd">
<svg version="1.1" id="Layer_1" xmlns="http://www.w3.org/2000/svg" xmlns:xlink="http://www.w3.org/1999/xlink" x="0px" y="0px"
	 viewBox="0 0 512 512" style="enable-background:new 0 0 512 512;" xml:space="preserve">
<g>
	<g>
		<path style="fill:#009EFF;" d="M331.73,212.709c0.776,0.05,1.554,0.097,2.331,0.151c5.962,0.411,11.661,1.81,16.987,4.576
			c3.803,1.978,7.175,4.536,10.186,7.588c3.267,3.314,5.969,7.028,8.005,11.219c1.493,3.076,2.529,6.304,3.247,9.642
			c0.88,4.092,1.169,8.236,0.996,12.404c-0.281,6.688-1.761,13.082-4.914,19.033c-2.201,4.151-5.068,7.795-8.481,11.016
			c-5.471,5.166-11.882,8.535-19.248,10.097c-2.727,0.576-5.476,0.938-8.261,1.026c-0.127,0.005-0.251,0.041-0.378,0.062h-3.277
			c-0.713-0.051-1.426-0.1-2.136-0.152c-8.531-0.618-16.318-3.254-23.065-8.622c-5.326-4.236-9.496-9.407-12.341-15.612
			c-1.446-3.154-2.414-6.46-3.058-9.865c-0.73-3.851-0.961-7.74-0.767-11.645c0.411-8.226,2.577-15.904,7.35-22.71
			c5.584-7.961,12.887-13.624,22.314-16.361c2.874-0.834,5.802-1.39,8.787-1.619c0.946-0.074,1.896-0.111,2.842-0.168
			c0.155-0.009,0.308-0.038,0.462-0.059L331.73,212.709L331.73,212.709z M330.435,288.362c3.032-0.025,5.967-0.273,8.846-0.985
			c6.269-1.548,11.483-4.801,15.626-9.76c4.232-5.061,6.432-10.942,7.029-17.462c0.205-2.232,0.228-4.467,0.095-6.705
			c-0.145-2.428-0.463-4.833-1.108-7.183c-2.014-7.337-6.134-13.191-12.464-17.427c-4.736-3.165-10.034-4.614-15.685-4.895
			c-3.089-0.151-6.159-0.012-9.203,0.541c-5.321,0.967-10.056,3.163-14.135,6.737c-3.955,3.467-6.815,7.677-8.584,12.629
			c-1.341,3.746-1.877,7.625-1.932,11.586c-0.046,3.077,0.17,6.133,0.84,9.139c1.213,5.425,3.652,10.214,7.46,14.296
			c3.362,3.601,7.36,6.192,12.017,7.778C322.893,287.898,326.67,288.322,330.435,288.362"/>
		<path style="fill:#009EFF;" d="M485.998,297.573c-0.321,0.775-0.567,0.932-1.443,0.932c-2.862,0-5.724,0.002-8.588,0
			c-1.008,0-1.38-0.374-1.38-1.389v-81.972c0-1.051,0.37-1.419,1.437-1.419c2.862,0,5.726-0.01,8.586,0.015
			c0.354,0.002,0.74,0.142,1.041,0.329c0.183,0.114,0.237,0.437,0.348,0.667v82.835H485.998z"/>
		<path style="fill:#009EFF;" d="M252.527,248.115c1.444,1.917,2.875,3.818,4.304,5.718c3.032,4.03,6.065,8.06,9.098,12.091
			c3.901,5.185,7.799,10.367,11.7,15.55c3.822,5.079,7.642,10.161,11.469,15.235c0.285,0.374,0.406,0.755,0.203,1.189
			c-0.206,0.438-0.606,0.58-1.058,0.606c-0.207,0.012-0.415,0.002-0.624,0.002c-3.527,0-7.052-0.002-10.578,0.005
			c-0.603,0.001-1.045-0.202-1.423-0.704c-6.65-8.888-13.315-17.767-19.978-26.648c-3.784-5.041-7.57-10.082-11.356-15.125
			c-0.03-0.042-0.067-0.079-0.12-0.142c-0.459,0.428-0.915,0.853-1.37,1.276c-3.069,2.868-6.136,5.74-9.204,8.61
			c-1.692,1.58-3.384,3.161-5.084,4.731c-0.219,0.202-0.31,0.402-0.31,0.702c0.008,8.587,0.007,17.176,0.007,25.761
			c0,0.103,0.003,0.208,0,0.313c-0.022,0.786-0.423,1.215-1.209,1.218c-3.006,0.011-6.011,0.009-9.017,0.001
			c-0.763-0.003-1.164-0.433-1.18-1.198c-0.002-0.089,0-0.182,0-0.273v-81.812v-0.078c0-1.036,0.374-1.414,1.402-1.414
			c2.745-0.001,5.49-0.001,8.236-0.001c0.181,0,0.364-0.006,0.546,0.001c0.795,0.037,1.185,0.428,1.22,1.219
			c0.006,0.118,0.001,0.235,0.001,0.351v39.659v0.55c0.681-0.636,1.297-1.206,1.908-1.78c3.624-3.4,7.245-6.802,10.871-10.2
			c4.754-4.455,9.512-8.909,14.267-13.365c3.985-3.737,7.968-7.477,11.951-11.215c1.68-1.576,3.364-3.146,5.038-4.727
			c0.35-0.33,0.748-0.492,1.227-0.492c4.202,0.001,8.405,0,12.608,0.001c0.716,0,1.119,0.26,1.271,0.796
			c0.125,0.442-0.045,0.786-0.354,1.082c-1.218,1.157-2.432,2.313-3.652,3.464c-2.158,2.034-4.322,4.066-6.479,6.1
			c-2.993,2.819-5.983,5.636-8.971,8.459c-3.066,2.892-6.126,5.788-9.191,8.678C256.652,244.236,254.605,246.158,252.527,248.115"/>
		<path style="fill:#009EFF;" d="M386.522,256.126v-40.83c0-0.119,0-0.235,0.002-0.353c0.016-0.771,0.405-1.172,1.169-1.216
			c0.052-0.003,0.105-0.001,0.155-0.001c11.673,0.001,23.345-0.028,35.016,0.017c5.369,0.019,10.505,1.226,15.405,3.417
			c4.263,1.906,8.009,4.565,11.261,7.909c5.301,5.444,8.822,11.866,10.552,19.274c0.997,4.266,1.408,8.584,1.318,12.954
			c-0.122,5.87-1.141,11.569-3.367,17.022c-1.858,4.553-4.518,8.596-7.87,12.185c-5.145,5.51-11.395,9.132-18.717,10.907
			c-3.16,0.765-6.361,1.106-9.613,1.102c-11.307-0.017-22.614-0.007-33.923-0.008c-0.193,0-0.389-0.014-0.58-0.042
			c-0.418-0.067-0.676-0.318-0.751-0.733c-0.04-0.216-0.057-0.438-0.057-0.656C386.522,283.424,386.522,269.775,386.522,256.126
			 M397.941,287.593h0.503c7.6,0,15.197,0.007,22.797-0.009c1.363-0.002,2.731-0.059,4.088-0.165
			c2.823-0.222,5.514-0.971,8.088-2.149c3.365-1.541,6.191-3.785,8.625-6.557c2.269-2.584,4.062-5.458,5.383-8.627
			c1.406-3.375,2.163-6.896,2.442-10.536c0.257-3.323,0.154-6.628-0.346-9.918c-0.593-3.887-1.858-7.556-3.812-10.972
			c-2.172-3.799-4.976-7.052-8.576-9.565c-4.31-3.01-9.149-4.409-14.373-4.434c-8.133-0.039-16.266-0.012-24.397-0.014h-0.423
			v62.946H397.941z"/>
	</g>
	<g>
		<path style="fill:#009EFF;" d="M177.697,257.257c-0.489,1.588-1.562,2.75-2.71,3.894c-7.695,7.669-15.365,15.363-23.044,23.047
			c-2.767,2.768-5.723,2.761-8.501-0.02c-7.925-7.931-15.851-15.861-23.771-23.793c-2.699-2.702-2.697-5.653,0.008-8.36
			c7.966-7.979,15.935-15.955,23.905-23.928c2.593-2.595,5.64-2.597,8.232-0.003c7.726,7.727,15.44,15.465,23.18,23.179
			c1.149,1.144,2.218,2.31,2.702,3.9L177.697,257.257L177.697,257.257z"/>
		<path style="fill:#009EFF;" d="M101.313,331.556c-1.58-0.502-2.725-1.595-3.864-2.741c-7.662-7.702-15.347-15.378-23.025-23.065
			c-2.747-2.751-2.749-5.685-0.009-8.43c7.945-7.952,15.891-15.904,23.84-23.855c2.642-2.643,5.67-2.654,8.297-0.024
			c7.947,7.95,15.893,15.904,23.837,23.858c2.729,2.733,2.736,5.727,0.02,8.446c-7.744,7.754-15.5,15.497-23.227,23.265
			c-1.106,1.111-2.243,2.11-3.784,2.546L101.313,331.556L101.313,331.556z"/>
		<path style="fill:#009EFF;" d="M73.426,237.161c0-8.843,0.08-17.685-0.051-26.526c-0.037-2.558,0.574-4.557,2.528-6.245
			c1.571-1.358,2.965-2.926,4.437-4.401c5.826-5.831,11.649-11.661,17.476-17.491c2.74-2.74,5.696-2.737,8.434,0.002
			c7.926,7.927,15.849,15.857,23.774,23.787c2.723,2.726,2.72,5.721-0.002,8.446c-9.371,9.384-18.746,18.765-28.12,28.146
			c-8.278,8.287-16.554,16.573-24.832,24.857c-1.534,1.536-2.893,1.177-3.45-0.95c-0.172-0.659-0.186-1.37-0.186-2.058
			C73.423,255.539,73.426,246.349,73.426,237.161"/>
		<path style="fill:#009EFF;" d="M54.474,256.319c0,8.113,0.011,16.23-0.017,24.344c-0.003,0.77-0.125,1.586-0.402,2.302
			c-0.541,1.408-1.558,1.583-2.621,0.521c-3.732-3.725-7.454-7.462-11.178-11.193c-4.306-4.312-8.613-8.625-12.916-12.94
			c-1.781-1.786-1.789-4.264-0.015-6.059c7.925-8.015,15.851-16.029,23.781-24.043c0.524-0.529,1.018-1.248,1.91-0.911
			c0.851,0.322,1.188,1.09,1.308,1.941c0.076,0.528,0.136,1.065,0.137,1.597c0.008,8.147,0.005,16.293,0.005,24.44L54.474,256.319
			L54.474,256.319z"/>
	</g>
</g>
</svg>
