<?xml version="1.0" encoding="utf-8"?>
<!-- Generator: Adobe Illustrator 18.0.0, SVG Export Plug-In . SVG Version: 6.00 Build 0)  -->
<!DOCTYPE svg PUBLIC "-//W3C//DTD SVG 1.1//EN" "http://www.w3.org/Graphics/SVG/1.1/DTD/svg11.dtd">
<svg version="1.1" id="Layer_1" xmlns="http://www.w3.org/2000/svg" xmlns:xlink="http://www.w3.org/1999/xlink" x="0px" y="0px"
	 viewBox="0 0 512 512" enable-background="new 0 0 512 512" xml:space="preserve">
<g>
	<path fill="#E2E2E2" d="M436.1,435.1l-288,50.8c-2.5,0.4-4.8-1.2-5.2-3.7L72.2,82.1c-0.4-2.5,1.2-4.8,3.7-5.2l288-50.8
		c2.5-0.4,4.8,1.2,5.2,3.7L439.8,430C440.2,432.4,438.5,434.7,436.1,435.1z"/>
	<path fill="#F89959" d="M402.2,463.7l-292.5,0c-2.5,0-4.5-2-4.5-4.5l-0.1-406.3c0-2.5,2-4.5,4.5-4.5l292.5,0c2.5,0,4.5,2,4.5,4.5
		l0,406.4C406.7,461.7,404.7,463.7,402.2,463.7z"/>
	<g>
		<g id="Layer_2_copy">
			<g>
				<path fill="#FFFFFF" d="M321.3,332.6c-6.2,0-11.2-5-11.2-11.2c0-65.9-53.6-119.6-119.6-119.6c-6.2,0-11.2-5-11.2-11.2
					c0-6.2,5-11.2,11.2-11.2c78.3,0,142,63.7,142,142C332.6,327.6,327.5,332.6,321.3,332.6z"/>
				<path fill="#FFFFFF" d="M284.2,332.6c-6.2,0-11.2-5-11.2-11.2c0-45.5-37-82.4-82.4-82.4c-6.2,0-11.2-5-11.2-11.2
					s5-11.2,11.2-11.2c57.8,0,104.9,47,104.9,104.9C295.4,327.6,290.4,332.6,284.2,332.6z"/>
				<path fill="#FFFFFF" d="M247.6,332.6c-6.2,0-11.2-5-11.2-11.2c0-25.2-20.5-45.8-45.8-45.8c-6.2,0-11.2-5-11.2-11.2
					s5-11.2,11.2-11.2c37.6,0,68.2,30.6,68.2,68.2C258.8,327.6,253.8,332.6,247.6,332.6z"/>
				<circle fill="#FFFFFF" cx="198.5" cy="313.5" r="19.1"/>
			</g>
		</g>
	</g>
</g>
</svg>
