<?xml version="1.0" encoding="utf-8"?>
<!-- Generator: Adobe Illustrator 18.0.0, SVG Export Plug-In . SVG Version: 6.00 Build 0)  -->
<!DOCTYPE svg PUBLIC "-//W3C//DTD SVG 1.1//EN" "http://www.w3.org/Graphics/SVG/1.1/DTD/svg11.dtd">
<svg version="1.1" id="Layer_1" xmlns="http://www.w3.org/2000/svg" xmlns:xlink="http://www.w3.org/1999/xlink" x="0px" y="0px"
	 viewBox="0 0 512 512" style="enable-background:new 0 0 512 512;" xml:space="preserve">
<path style="fill:#E2E2E2;" d="M370.061,485.894L70.286,433.036c-2.757-0.486-4.542-3.035-4.056-5.792l70.015-397.074
	c0.486-2.757,3.035-4.542,5.792-4.056l299.677,52.841c2.757,0.486,4.542,3.035,4.056,5.792l-69.998,396.976
	C375.385,484.497,372.72,486.363,370.061,485.894z"/>
<path style="fill:#EFEFEF;" d="M408.2,462.6H103.8c-2.8,0-5-2.2-5-5V54.4c0-2.8,2.2-5,5-5h304.3c2.8,0,5,2.2,5,5v403.1
	C413.2,460.3,410.9,462.6,408.2,462.6z"/>
<path style="fill:#F89959;" d="M441.7,433L142,485.8c-2.7,0.5-5.3-1.3-5.8-4.1l-70-397c-0.5-2.7,1.3-5.3,4.1-5.8L370,26.2
	c2.7-0.5,5.3,1.3,5.8,4.1l70,397C446.3,429.9,444.4,432.5,441.7,433z"/>
<g>
	<g id="Layer_2_copy">
		<g>
			<path style="fill:#FFFFFF;" d="M321.4,332.6c-6.2,0-11.2-5-11.2-11.2c0-65.9-53.6-119.6-119.6-119.6c-6.2,0-11.2-5-11.2-11.2
				s5-11.2,11.2-11.2c78.3,0,142,63.7,142,142C332.7,327.6,327.6,332.6,321.4,332.6z"/>
			<path style="fill:#FFFFFF;" d="M284.3,332.6c-6.2,0-11.2-5-11.2-11.2c0-45.5-37-82.4-82.4-82.4c-6.2,0-11.2-5-11.2-11.2
				s5-11.2,11.2-11.2c57.8,0,104.9,47,104.9,104.9C295.5,327.6,290.5,332.6,284.3,332.6z"/>
			<path style="fill:#FFFFFF;" d="M247.7,332.6c-6.2,0-11.2-5-11.2-11.2c0-25.2-20.5-45.8-45.8-45.8c-6.2,0-11.2-5-11.2-11.2
				s5-11.2,11.2-11.2c37.6,0,68.2,30.6,68.2,68.2C258.9,327.6,253.9,332.6,247.7,332.6z"/>
			<circle style="fill:#FFFFFF;" cx="198.6" cy="313.5" r="19.1"/>
		</g>
	</g>
</g>
</svg>
