<?xml version="1.0" encoding="utf-8"?>
<!-- Generator: Adobe Illustrator 18.0.0, SVG Export Plug-In . SVG Version: 6.00 Build 0)  -->
<!DOCTYPE svg PUBLIC "-//W3C//DTD SVG 1.1//EN" "http://www.w3.org/Graphics/SVG/1.1/DTD/svg11.dtd">
<svg version="1.1" id="Layer_1" xmlns="http://www.w3.org/2000/svg" xmlns:xlink="http://www.w3.org/1999/xlink" x="0px" y="0px"
	 viewBox="0 0 512 512" style="enable-background:new 0 0 512 512;" xml:space="preserve">
<g>
	<g>
		<path style="fill:#20B798;" d="M256,446.444c-109.551,0-199.515-83.803-209.32-190.797c-0.586,6.398-0.902,12.874-0.902,19.425
			c0,116.102,94.12,210.222,210.222,210.222c116.101,0,210.222-94.12,210.222-210.222c0-6.551-0.316-13.027-0.902-19.425
			C455.515,362.641,365.55,446.444,256,446.444z"/>
		<path style="fill:#3A95D2;" d="M261.428,26.069c113.593,2.878,204.794,95.866,204.794,210.153c0,6.551-0.316,13.027-0.902,19.425
			c0.586,6.398,0.902,12.874,0.902,19.425c0,116.102-94.121,210.222-210.222,210.222V486c127.025,0,230-102.975,230-230
			C486,130.79,385.946,28.954,261.428,26.069z"/>
		<path style="fill:#68C085;" d="M45.778,275.071c0-6.551,0.316-13.027,0.902-19.425c-0.586-6.398-0.902-12.874-0.902-19.425
			C45.778,120.12,139.898,26,256,26C128.975,26,26,128.975,26,256s102.975,230,230,230v-0.707
			C139.898,485.293,45.778,391.174,45.778,275.071z"/>
		<path style="fill:#EFC419;" d="M45.778,236.222c0,6.551,0.316,13.027,0.902,19.425C56.485,148.652,146.449,64.849,256,64.849V26
			C139.898,26,45.778,120.12,45.778,236.222z"/>
	</g>
</g>
<g>
	<g>
		<path style="fill:#6FCBDC;" d="M406.94,243.881L406.94,243.881c3.308,0,5.99,3.443,5.99,7.689v5.245h-11.98v-5.245
			C400.95,247.324,403.632,243.881,406.94,243.881z"/>
		<path style="fill:#6FCBDC;" d="M388.072,234.858L388.072,234.858c3.308,0,5.99,3.443,5.99,7.689v14.268h-11.98v-14.268
			C382.083,238.301,384.764,234.858,388.072,234.858z"/>
		<path style="fill:#6FCBDC;" d="M369.205,196.961L369.205,196.961c3.308,0,5.99,3.443,5.99,7.689v52.164h-11.98v-52.164
			C363.215,200.404,365.897,196.961,369.205,196.961z"/>
		<path style="fill:#6FCBDC;" d="M350.337,144L350.337,144c3.308,0,5.99,3.443,5.99,7.689v105.125h-11.98V151.69
			C344.348,147.443,347.029,144,350.337,144z"/>
		<path style="fill:#6FCBDC;" d="M331.47,170.599L331.47,170.599c3.308,0,5.99,3.443,5.99,7.689v78.527h-11.98v-78.527
			C325.48,174.041,328.162,170.599,331.47,170.599z"/>
		<path style="fill:#6FCBDC;" d="M312.602,199.141L312.602,199.141c3.308,0,5.99,3.443,5.99,7.689v49.984h-11.98v-49.984
			C306.613,202.584,309.294,199.141,312.602,199.141z"/>
		<path style="fill:#6FCBDC;" d="M293.735,241.213L293.735,241.213c3.308,0,5.99,3.443,5.99,7.689v7.912h-11.98v-7.912
			C287.745,244.656,290.427,241.213,293.735,241.213z"/>
		<path style="fill:#6FCBDC;" d="M274.867,221.912L274.867,221.912c3.308,0,5.99,3.443,5.99,7.689v27.214h-11.98v-27.214
			C268.878,225.354,271.559,221.912,274.867,221.912z"/>
		<path style="fill:#6FCBDC;" d="M256,241.213L256,241.213c3.308,0,5.99,3.443,5.99,7.689v7.912h-11.98v-7.912
			C250.01,244.656,252.692,241.213,256,241.213z"/>
		<path style="fill:#6FCBDC;" d="M237.133,223.01L237.133,223.01c3.308,0,5.99,3.443,5.99,7.689v26.115h-11.98V230.7
			C231.143,226.453,233.824,223.01,237.133,223.01z"/>
		<path style="fill:#6FCBDC;" d="M218.265,203.866L218.265,203.866c3.308,0,5.99,3.443,5.99,7.689v45.26h-11.98v-45.26
			C212.275,207.308,214.957,203.866,218.265,203.866z"/>
		<path style="fill:#6FCBDC;" d="M199.398,139.999L199.398,139.999c3.308,0,5.99,3.443,5.99,7.689v109.127h-11.98V147.688
			C193.408,143.441,196.09,139.999,199.398,139.999z"/>
		<path style="fill:#6FCBDC;" d="M180.53,175.306L180.53,175.306c3.308,0,5.99,3.443,5.99,7.689v73.819h-11.98v-73.819
			C174.54,178.749,177.222,175.306,180.53,175.306z"/>
		<path style="fill:#6FCBDC;" d="M161.663,157.888L161.663,157.888c3.308,0,5.99,3.443,5.99,7.689v91.238h-11.98v-91.238
			C155.673,161.33,158.355,157.888,161.663,157.888z"/>
		<path style="fill:#6FCBDC;" d="M142.795,183.152L142.795,183.152c3.308,0,5.99,3.443,5.99,7.689v65.973h-11.98v-65.973
			C136.805,186.595,139.487,183.152,142.795,183.152z"/>
		<path style="fill:#6FCBDC;" d="M123.928,234.858L123.928,234.858c3.308,0,5.99,3.443,5.99,7.689v14.268h-11.98v-14.268
			C117.938,238.301,120.62,234.858,123.928,234.858z"/>
		<path style="fill:#6FCBDC;" d="M105.06,216.577L105.06,216.577c3.308,0,5.99,3.443,5.99,7.689v32.549H99.07v-32.549
			C99.07,220.019,101.752,216.577,105.06,216.577z"/>
	</g>
	<g>
		<path style="fill:#6FCBDC;" d="M406.94,268.119L406.94,268.119c3.308,0,5.99-3.443,5.99-7.689v-5.245h-11.98v5.245
			C400.95,264.677,403.632,268.119,406.94,268.119z"/>
		<path style="fill:#6FCBDC;" d="M388.072,277.142L388.072,277.142c3.308,0,5.99-3.443,5.99-7.689v-14.268h-11.98v14.268
			C382.083,273.699,384.764,277.142,388.072,277.142z"/>
		<path style="fill:#6FCBDC;" d="M369.205,315.039L369.205,315.039c3.308,0,5.99-3.443,5.99-7.689v-52.164h-11.98v52.164
			C363.215,311.596,365.897,315.039,369.205,315.039z"/>
		<path style="fill:#6FCBDC;" d="M350.337,368L350.337,368c3.308,0,5.99-3.443,5.99-7.689V255.185h-11.98V360.31
			C344.348,364.557,347.029,368,350.337,368z"/>
		<path style="fill:#6FCBDC;" d="M331.47,341.401L331.47,341.401c3.308,0,5.99-3.443,5.99-7.689v-78.527h-11.98v78.527
			C325.48,337.959,328.162,341.401,331.47,341.401z"/>
		<path style="fill:#6FCBDC;" d="M312.602,312.859L312.602,312.859c3.308,0,5.99-3.443,5.99-7.689v-49.984h-11.98v49.984
			C306.613,309.416,309.294,312.859,312.602,312.859z"/>
		<path style="fill:#6FCBDC;" d="M293.735,270.787L293.735,270.787c3.308,0,5.99-3.443,5.99-7.689v-7.912h-11.98v7.912
			C287.745,267.344,290.427,270.787,293.735,270.787z"/>
		<path style="fill:#6FCBDC;" d="M274.867,290.088L274.867,290.088c3.308,0,5.99-3.443,5.99-7.689v-27.214h-11.98v27.214
			C268.878,286.646,271.559,290.088,274.867,290.088z"/>
		<path style="fill:#6FCBDC;" d="M256,270.787L256,270.787c3.308,0,5.99-3.443,5.99-7.689v-7.912h-11.98v7.912
			C250.01,267.344,252.692,270.787,256,270.787z"/>
		<path style="fill:#6FCBDC;" d="M237.133,288.99L237.133,288.99c3.308,0,5.99-3.443,5.99-7.689v-26.115h-11.98V281.3
			C231.143,285.547,233.824,288.99,237.133,288.99z"/>
		<path style="fill:#6FCBDC;" d="M218.265,308.134L218.265,308.134c3.308,0,5.99-3.443,5.99-7.689v-45.26h-11.98v45.26
			C212.275,304.692,214.957,308.134,218.265,308.134z"/>
		<path style="fill:#6FCBDC;" d="M199.398,372.001L199.398,372.001c3.308,0,5.99-3.443,5.99-7.689V255.185h-11.98v109.127
			C193.408,368.559,196.089,372.001,199.398,372.001z"/>
		<path style="fill:#6FCBDC;" d="M180.53,336.694L180.53,336.694c3.308,0,5.99-3.443,5.99-7.689v-73.819h-11.98v73.819
			C174.54,333.251,177.222,336.694,180.53,336.694z"/>
		<path style="fill:#6FCBDC;" d="M161.663,354.112L161.663,354.112c3.308,0,5.99-3.443,5.99-7.689v-91.238h-11.98v91.238
			C155.673,350.669,158.355,354.112,161.663,354.112z"/>
		<path style="fill:#6FCBDC;" d="M142.795,328.848L142.795,328.848c3.308,0,5.99-3.443,5.99-7.689v-65.973h-11.98v65.973
			C136.805,325.405,139.487,328.848,142.795,328.848z"/>
		<path style="fill:#6FCBDC;" d="M123.928,277.142L123.928,277.142c3.308,0,5.99-3.443,5.99-7.689v-14.268h-11.98v14.268
			C117.938,273.699,120.62,277.142,123.928,277.142z"/>
		<path style="fill:#6FCBDC;" d="M105.06,295.423L105.06,295.423c3.308,0,5.99-3.443,5.99-7.689v-32.549H99.07v32.549
			C99.07,291.981,101.752,295.423,105.06,295.423z"/>
	</g>
</g>
</svg>
