<?xml version="1.0" encoding="utf-8"?>
<!-- Generator: Adobe Illustrator 18.0.0, SVG Export Plug-In . SVG Version: 6.00 Build 0)  -->
<!DOCTYPE svg PUBLIC "-//W3C//DTD SVG 1.1//EN" "http://www.w3.org/Graphics/SVG/1.1/DTD/svg11.dtd">
<svg version="1.1" id="Layer_1" xmlns="http://www.w3.org/2000/svg" xmlns:xlink="http://www.w3.org/1999/xlink" x="0px" y="0px"
	 viewBox="0 0 512 512" style="enable-background:new 0 0 512 512;" xml:space="preserve">
<g id="Layer_2_1_">
	<linearGradient id="SVGID_1_" gradientUnits="userSpaceOnUse" x1="26" y1="256" x2="486" y2="256">
		<stop  offset="0" style="stop-color:#1ED2FC"/>
		<stop  offset="1" style="stop-color:#2066F1"/>
	</linearGradient>
	<circle style="fill:url(#SVGID_1_);" cx="256" cy="256" r="230"/>
	<path style="fill:#EDEDED;" d="M383.343,399.274c-38.438,0-72.485,18.782-93.48,47.663c-8.096-10.869-21.045-17.909-35.639-17.909
		c-7.961,0-15.426,2.105-21.887,5.773c-5.843-56.828-53.86-101.154-112.232-101.154c-5.711,0-11.322,0.428-16.806,1.247
		c0.011-0.416,0.032-0.829,0.032-1.247c0-18.932-10.958-35.298-26.873-43.122c9.042-14.292,14.28-31.23,14.28-49.393
		c0-33.585-17.911-62.966-44.688-79.173c0,0,0,0,0,0.001C33.17,190.669,26,222.496,26,256c0,124.759,99.335,226.309,223.227,229.893
		c1.485,0.033,2.97,0.063,4.454,0.078c0.9,0.007,1.8,0.023,2.701,0.025c0.002,0,0.003,0,0.005,0c2.07-0.003,4.133-0.037,6.19-0.095
		c0.398-0.011,0.793-0.032,1.19-0.045c1.661-0.055,3.32-0.122,4.972-0.212c0.541-0.03,1.079-0.069,1.618-0.103
		c1.506-0.093,3.01-0.194,4.508-0.315c0.606-0.049,1.209-0.107,1.813-0.161c1.431-0.128,2.859-0.263,4.282-0.417
		c0.633-0.068,1.263-0.143,1.894-0.217c1.393-0.162,2.783-0.334,4.169-0.521c0.637-0.086,1.272-0.176,1.907-0.267
		c1.384-0.198,2.764-0.409,4.14-0.632c0.617-0.1,1.234-0.201,1.849-0.306c1.398-0.238,2.792-0.491,4.182-0.755
		c0.581-0.11,1.163-0.219,1.743-0.334c1.44-0.285,2.874-0.586,4.304-0.898c0.517-0.112,1.035-0.221,1.55-0.337
		c1.526-0.343,3.045-0.706,4.559-1.08c0.411-0.101,0.824-0.198,1.234-0.301c1.703-0.43,3.398-0.882,5.085-1.35
		c0.213-0.059,0.429-0.114,0.642-0.174c7.811-2.19,15.454-4.781,22.905-7.752c0.02-0.008,0.039-0.016,0.059-0.024
		c1.81-0.722,3.608-1.468,5.396-2.235c0.18-0.077,0.358-0.158,0.538-0.235c1.631-0.704,3.252-1.426,4.863-2.166
		c0.248-0.114,0.494-0.231,0.741-0.346c1.544-0.717,3.079-1.448,4.604-2.198c0.273-0.134,0.545-0.271,0.817-0.406
		c1.503-0.747,2.998-1.508,4.482-2.286c0.267-0.14,0.533-0.281,0.799-0.421c1.498-0.793,2.986-1.601,4.464-2.426
		c0.234-0.131,0.469-0.261,0.703-0.393c1.525-0.858,3.04-1.733,4.543-2.625c0.173-0.103,0.348-0.205,0.521-0.308
		c1.593-0.951,3.175-1.92,4.743-2.907c0.075-0.047,0.151-0.094,0.226-0.141c16.815-10.619,32.159-23.357,45.656-37.839
		c0.005-0.005,0.01-0.011,0.015-0.016c1.349-1.448,2.68-2.913,3.991-4.395c0,0,0,0,0,0
		C414.468,402.514,399.286,399.274,383.343,399.274z"/>
	<g>
		<path style="fill:#FFFFFF;" d="M197.244,478.414c-16.338-24.236-41.941-41.705-71.748-47.292
			c1.132-5.407,1.734-11.008,1.734-16.75c0-44.943-36.433-81.376-81.376-81.376c-0.163,0-0.323,0.011-0.486,0.012
			c7.887-10.693,12.555-23.904,12.555-38.21c0-18.424-15.777-41.177-31.326-55.33C26.209,244.929,26,250.44,26,256
			C26,362.716,98.684,452.445,197.244,478.414z"/>
		<path style="fill:#FFFFFF;" d="M304.731,480.809c-11.158-7.33-24.502-11.605-38.849-11.605c-16.099,0-30.924,5.39-42.82,14.438
			c4.312,0.619,8.663,1.117,13.049,1.492c6.206,0.136,12.493,0.213,18.866,0.213c7.299,0,14.494-0.094,21.572-0.271
			C286.124,484.228,295.53,482.795,304.731,480.809z"/>
	</g>
</g>
<g>
	<g>
		<path style="fill:#FF4800;" d="M139.096,325.878c-22.151,22.151-16.595,63.621-16.595,63.621s41.47,5.556,63.621-16.595
			s16.595-63.621,16.595-63.621S161.247,303.727,139.096,325.878z"/>
		<path style="fill:#FCAA06;" d="M154.098,321.6c-16.827,16.827-12.317,48.619-12.317,48.619s31.792,4.51,48.619-12.317
			s12.317-48.619,12.317-48.619S170.925,304.773,154.098,321.6z"/>
	</g>
	
		<ellipse transform="matrix(-0.7071 -0.7071 0.7071 -0.7071 137.5922 667.0846)" cx="206.954" cy="305.046" rx="18.696" ry="3.303"/>
	
		<ellipse transform="matrix(-0.7071 -0.7071 0.7071 -0.7071 141.0342 665.6577)" style="fill:#FCAA06;" cx="208.379" cy="303.62" rx="18.696" ry="3.303"/>
	<path style="fill:#E8E9EA;" d="M229.557,367.665c0,0,1.428-26.09-10.23-48.551c10.191-3.154,21.959-7.395,34.384-13.035
		C254.214,328.223,244.328,352.893,229.557,367.665z"/>
	<path style="fill:#E8E9EA;" d="M144.335,282.443c14.634-14.634,39.229-24.227,61.397-23.733
		c-5.545,12.27-9.729,23.888-12.847,33.964C170.425,281.015,144.335,282.443,144.335,282.443z"/>
	
		<radialGradient id="SVGID_2_" cx="-736.074" cy="138.98" r="170.5808" gradientTransform="matrix(1 0 0 1 1090 19)" gradientUnits="userSpaceOnUse">
		<stop  offset="0" style="stop-color:#FFFFFF"/>
		<stop  offset="1" style="stop-color:#D7D7D7"/>
	</radialGradient>
	<path style="fill:url(#SVGID_2_);" d="M205.733,258.71c10.257-22.697,25.17-47.61,46.621-69.061
		c56.757-56.757,137.765-67.768,137.765-67.768s-11.012,81.009-67.768,137.765c-21.318,21.318-46.057,36.182-68.641,46.433
		c-0.299-13.134-4.252-25.38-13.013-34.141C231.798,263.039,219.214,259.01,205.733,258.71z"/>
	
		<linearGradient id="SVGID_3_" gradientUnits="userSpaceOnUse" x1="-790.3011" y1="172.7643" x2="-747.11" y2="215.9554" gradientTransform="matrix(1 0 0 1 1090 19)">
		<stop  offset="0" style="stop-color:#E5E5E5"/>
		<stop  offset="1" style="stop-color:#A3A3A3"/>
	</linearGradient>
	<path style="fill:url(#SVGID_3_);" d="M390.119,121.881c0,0-11.012,81.009-67.768,137.765
		c-21.318,21.318-46.057,36.182-68.641,46.433c-0.299-13.134-9.363-32.643-19.67-39.499c0,0,24.049-33.471,56.127-69.08
		C326.5,157.167,390.119,121.881,390.119,121.881z"/>
	<path style="fill:#969696;" d="M240.697,271.938c8.762,8.762,12.714,21.007,13.013,34.141c-12.425,5.64-24.193,9.881-34.384,13.035
		c-2.845-5.481-6.458-10.749-11.075-15.366s-9.885-8.23-15.366-11.075c3.118-10.075,7.302-21.694,12.847-33.964
		C219.214,259.01,231.798,263.039,240.697,271.938z"/>
	
		<linearGradient id="SVGID_4_" gradientUnits="userSpaceOnUse" x1="-872.6472" y1="259.9218" x2="-842.687" y2="298.7404" gradientTransform="matrix(1 0 0 1 1090 19)">
		<stop  offset="0" style="stop-color:#373737"/>
		<stop  offset="1" style="stop-color:#919191"/>
	</linearGradient>
	<path style="fill:url(#SVGID_4_);" d="M234.04,266.58c14.127,9.103,19.69,25.67,19.67,39.499
		c-12.425,5.64-24.193,9.881-34.384,13.035c-2.845-5.481-6.458-10.749-11.075-15.366L234.04,266.58z"/>
	<path style="display:none;fill:#FFFFFF;" d="M210.704,297.72c-15.402,15.402-25.799,29.977-25.799,29.977
		s14.575-10.397,29.977-25.799s26.952-28.823,25.799-29.977C239.526,270.767,226.105,282.318,210.704,297.72z"/>
</g>
</svg>
