<?xml version="1.0" encoding="utf-8"?>
<!-- Generator: Adobe Illustrator 18.0.0, SVG Export Plug-In . SVG Version: 6.00 Build 0)  -->
<!DOCTYPE svg PUBLIC "-//W3C//DTD SVG 1.1//EN" "http://www.w3.org/Graphics/SVG/1.1/DTD/svg11.dtd">
<svg version="1.1" id="Layer_1" xmlns="http://www.w3.org/2000/svg" xmlns:xlink="http://www.w3.org/1999/xlink" x="0px" y="0px"
	 viewBox="0 0 512 512" style="enable-background:new 0 0 512 512;" xml:space="preserve">
<g>
	<radialGradient id="SVGID_1_" cx="256" cy="256" r="230" gradientUnits="userSpaceOnUse">
		<stop  offset="0" style="stop-color:#3FE1FF"/>
		<stop  offset="1" style="stop-color:#2AB4FF"/>
	</radialGradient>
	<circle style="fill:url(#SVGID_1_);" cx="256" cy="256" r="230"/>
	<g>
		<radialGradient id="SVGID_2_" cx="342.8111" cy="237.5372" r="155.767" gradientUnits="userSpaceOnUse">
			<stop  offset="0" style="stop-color:#FFFFFF"/>
			<stop  offset="1" style="stop-color:#FFFFFF;stop-opacity:0.5"/>
		</radialGradient>
		<path style="fill:url(#SVGID_2_);" d="M473.503,289.891l7.786-1.31c-0.702,1.991,0.117,3.766,1.636,5.01
			C484.937,281.357,486,268.803,486,256c0-76.37-37.232-144.034-94.524-185.865c-5.985,4.389-11.893,8.734-14.476,13.532
			c-18.667,34.667-60.132,29.84-64.667,54c-0.622,3.314-0.836,7.777-4.176,7.321c-9.08-1.241,30.843-27.988-20.559-32.029
			C278.986,112.281,259.988,126.895,257,135c-1.522,4.128-9.584,22.364-8.667,26.667c1.185,5.558,25.879,5.945,22.241,12.157
			c-0.821,1.402-1.991,2.579-3.341,3.482c-5.122,3.425-11.256,3.284-16.861,5.059c-13.469,4.263-21.221,18.362-28.181,30.212
			c-1.299,2.211-1.82,4.838-1.234,7.335c1.805,7.685,13.339,10.53,17.69,5.152c27.019-33.397,20.599,0.81,36.353-3.397
			c7.435-1.985,7.193,4.656,14.667,7.333c3.585,1.285,10.28-4.731,12-1.333c4.25,8.395,13.002,6.739,5.474,9.158
			c-5.927,1.905-12.516-0.846-18.531,0.76c-20.277,5.415-37.385-10.25-52.944-4.585c-15.559,5.665-33.345,27.656-36,44
			c-0.699,4.3,7.039,18.626,8.667,22.667c3.309,8.213,19.591,4.56,28,7.333c8.409,2.773,10.001,2.398,16.975,7.854
			c11.758,9.197,14.213,25.821,14.647,40.742c0.434,14.921,0.073,30.992,8.587,43.253c1.284,1.849,2.792,3.606,4.745,4.724
			c4.928,2.82,11.247,0.867,16.051-2.161c12.913-8.138,24.995-35.746,38.329-46.413c11.919-9.535-3.396-20.07,5.862-32.205
			c7.172-9.401,17.551-17.468,19.341-29.156c-4.434-1.178-8.662-2.982-12.604-5.282c2.877-1.168,6.266-3.231,8.069-3.356
			c8.669-0.601,13.408-10.748,20.109-15.755c0.547-0.409,1.064-0.864,1.474-1.411c2.506-3.346-9.079-3.415-11.583-5.501
			c-8.908-7.419-10.099-12.637-20-18.667c14.448-6.702,6.402,6.198,21.1,12.333c3.469,1.448,22.167-1.06,29.566,5.667
			c7.333,6.667,10.257,7.021,11.333,14.667c1.391,9.879,9.138,17.028,14.667,25.333c6.682-4.845,8.734-13.288,12.024-20.857
			c3.349-7.702,6.445-17.909,14.806-18.7c7.009-0.663,10.427,13.326,11.836,20.224c1.409,6.898,10-2.667,10,14
			c0,5.547,3.171,8.36,6.667,12.667c0.478,0.589,0.797,1.257,1.043,1.951c0.577-2.355,1.122-4.722,1.626-7.105
			C475.9,301.545,471.649,299.899,473.503,289.891z M320.547,243.472c6.656,0.041,7.355,15.11,9.12,21.528
			c0.821,2.984,1.716,6.422,2.964,9.784C325.522,265.875,321.038,254.874,320.547,243.472z"/>
		<radialGradient id="SVGID_3_" cx="176.4833" cy="92.0426" r="53.8897" gradientUnits="userSpaceOnUse">
			<stop  offset="0" style="stop-color:#FFFFFF"/>
			<stop  offset="1" style="stop-color:#FFFFFF;stop-opacity:0.5"/>
		</radialGradient>
		<path style="fill:url(#SVGID_3_);" d="M133.521,73.005c7.913,13.321,10.235,29.848,6.3,44.835
			c-1.193,4.544-2.947,9.035-2.956,13.733c-0.011,5.63,2.478,10.927,4.914,16.003c0.627,1.307,1.291,2.66,2.423,3.566
			c3.644,2.912,8.876-0.52,11.973-4.008c8.899-10.023,16.658-22.65,29.555-26.3c2.582-0.731,5.431-1.135,7.377-2.982
			c1.433-1.359,2.142-3.297,2.725-5.184c4.19-13.542,4.376-28.248,10.041-41.243c2.426-5.565,0.386-17.175,6.452-16.927
			c24.282,0.99,1.238-11.242-4.51-17.812c-1.294-1.479-2.448-3.143-3.568-4.837c-26.956,6.198-52.093,17.145-74.506,31.894
			C129.769,67.084,131.795,70.1,133.521,73.005z"/>
		<g>
			<radialGradient id="SVGID_4_" cx="94.4263" cy="346.6803" r="74.087" gradientUnits="userSpaceOnUse">
				<stop  offset="0" style="stop-color:#FFFFFF"/>
				<stop  offset="1" style="stop-color:#FFFFFF;stop-opacity:0.5"/>
			</radialGradient>
			<path style="fill:url(#SVGID_4_);" d="M137.667,323.667c-14.972-5.575-17.35-15.994-29.512-26.354
				c-2.676-2.28-5.346-4.712-8.631-5.961c-2.786-1.059-5.824-1.193-8.802-1.314c-9.017-0.368-21.37,5.997-30.387,5.629
				c-4.649-0.19-7.57-5.768-7.867-1.125C33,283,42.599,274.14,35.667,267c-1.023-1.054-8.295,6.502-8.853,5.143
				c-0.133-0.324-0.228-0.654-0.304-0.987c0.379,5.824,0.974,11.588,1.779,17.285c3.246,2.648,6.616,5.125,10.276,7.154
				c5.61,3.11,11.838,5.149,17.01,8.943c5.172,3.794,0.124,4.859-1.241,11.127C53.319,320.326,50.631,322.519,49,327
				c-2.488,6.837,8.48,21.234,12.972,26.958c4.492,5.723,10.461,10.094,15.44,15.399c1.735,1.849,3.392,3.89,4.083,6.33
				c0.593,2.096,0.427,4.323,0.256,6.495c-0.576,7.3-1.151,14.6-1.727,21.9c6.683,7.934,13.884,15.418,21.567,22.382
				c12.651-13.38,17.332-27.901,28.075-44.129c3.49-5.272,20.566-7.864,22.563-13.862c1.645-4.938,2.2-10.161,2.744-15.337
				c0.669-6.36,6.69-5.773,7.359-12.134c0.31-2.943-6.965-10.245-8.667-12.667C152.172,326.206,140.103,324.574,137.667,323.667z"/>
			<radialGradient id="SVGID_5_" cx="73.8067" cy="203.5297" r="57.1784" gradientUnits="userSpaceOnUse">
				<stop  offset="0" style="stop-color:#FFFFFF"/>
				<stop  offset="1" style="stop-color:#FFFFFF;stop-opacity:0.5"/>
			</radialGradient>
			<path style="fill:url(#SVGID_5_);" d="M26.357,268.747c0.161-1.891,0.876-3.817,1.592-5.604c1.477-3.688,3.059-7.527,6.078-10.11
				c3.018-2.583,7.937-3.415,10.875-0.741c3.04,2.767,3.923,8.739,8.032,8.622c6.01-4.621,4.599-14,7.68-20.927
				c1.697-3.816,4.767-6.831,7.864-9.632c8.475-7.664,10.05-20.156,19.856-26.022c11.187-6.692,32.332-8.716,33.235-21.721
				c0.405-5.835-1.99-11.459-4.336-16.817c-4.671-10.668-8.228-6.794-12.899-17.462c-7.105,0.613-15.235-12.283-21.871-9.671
				c-2.249,0.885-4.539,1.944-6.07,3.813c-1.424,1.738,2.773,18.437,1.941,20.525c-3.442,8.642-8,20-26.827-3.833
				c-0.927-1.173-1.709-2.426-2.408-3.723C34.307,185.822,26,219.94,26,256C26,260.278,26.126,264.526,26.357,268.747z"/>
		</g>
	</g>
</g>
<g>
	<path style="opacity:0.4;enable-background:new    ;" d="M348.217,273.496l57.281-13.381l-57.061-13.33
		c-5.505-41.081-37.724-73.822-78.57-80.068l-13.25-56.715l-13.191,56.464c-41.41,5.428-74.388,37.995-80.413,79.215l-56.511,13.202
		l56.405,13.177c5.643,41.15,38.103,73.861,79.141,79.862l13.333,57.076l13.317-57.005
		C309.521,346.274,341.997,314.159,348.217,273.496z M255.655,344.606c-47.049,0-85.327-38.278-85.327-85.327
		s38.278-85.327,85.327-85.327s85.327,38.278,85.327,85.327S302.703,344.606,255.655,344.606z"/>
	<path style="fill:#FFFFFF;" d="M348.217,266.496l57.281-13.381l-57.061-13.33c-5.505-41.081-37.724-73.822-78.57-80.068
		l-13.25-56.715l-13.191,56.464c-41.41,5.428-74.388,37.995-80.413,79.215l-56.511,13.202l56.405,13.178
		c5.643,41.15,38.103,73.861,79.141,79.862l13.333,57.076l13.317-57.005C309.521,339.274,341.997,307.159,348.217,266.496z
		 M255.655,337.606c-47.049,0-85.327-38.278-85.327-85.327s38.278-85.327,85.327-85.327s85.327,38.278,85.327,85.327
		S302.703,337.606,255.655,337.606z"/>
	<path style="opacity:0.4;enable-background:new    ;" d="M245.425,270.074l102.142,106.207l-76.896-123.323
		c-0.576-1.523-1.375-2.934-2.369-4.189l0.027-0.021l-0.193-0.2c-0.478-0.582-1.007-1.117-1.563-1.625L164.432,140.717
		l76.897,123.324c0.576,1.522,1.374,2.932,2.368,4.187l-0.027,0.021l0.193,0.201C244.341,269.031,244.87,269.566,245.425,270.074z"
		/>
	<g>
		<polygon style="fill:#E9E9E9;" points="347.568,370.281 268.262,243.095 243.67,262.249 		"/>
		<polygon style="fill:#EC1E26;" points="164.433,134.717 243.738,261.903 268.33,242.748 		"/>
		<circle style="fill:#EC1E26;" cx="256" cy="252.498" r="15.696"/>
	</g>
</g>
</svg>
