<?xml version="1.0" encoding="utf-8"?>
<!-- Generator: Adobe Illustrator 18.0.0, SVG Export Plug-In . SVG Version: 6.00 Build 0)  -->
<!DOCTYPE svg PUBLIC "-//W3C//DTD SVG 1.1//EN" "http://www.w3.org/Graphics/SVG/1.1/DTD/svg11.dtd">
<svg version="1.1" id="Layer_1" xmlns="http://www.w3.org/2000/svg" xmlns:xlink="http://www.w3.org/1999/xlink" x="0px" y="0px"
	 viewBox="0 0 512 512" style="enable-background:new 0 0 512 512;" xml:space="preserve">
<g>
	<g>
		
			<linearGradient id="SVGID_1_" gradientUnits="userSpaceOnUse" x1="434.4984" y1="-518.7786" x2="587.9034" y2="-518.7786" gradientTransform="matrix(1 0 0 -1 -250 -184)">
			<stop  offset="0" style="stop-color:#FF0000"/>
			<stop  offset="1" style="stop-color:#942500"/>
		</linearGradient>
		<polygon style="fill:url(#SVGID_1_);" points="184.498,334.514 261.465,411.481 337.903,335.043 260.936,258.076 		"/>
		
			<linearGradient id="SVGID_2_" gradientUnits="userSpaceOnUse" x1="511.4654" y1="-578.0491" x2="658.5226" y2="-578.0491" gradientTransform="matrix(1 0 0 -1 -250 -184)">
			<stop  offset="0" style="stop-color:#FF0000"/>
			<stop  offset="1" style="stop-color:#942500"/>
		</linearGradient>
		<path style="fill:url(#SVGID_2_);" d="M261.465,411.481l41.574,41.574c29.988-3.995,68.589-16.633,102.603-50.273l-67.738-67.738
			L261.465,411.481z"/>
		
			<linearGradient id="SVGID_3_" gradientUnits="userSpaceOnUse" x1="364.4082" y1="-575.3029" x2="511.4654" y2="-575.3029" gradientTransform="matrix(1 0 0 -1 -250 -184)">
			<stop  offset="0" style="stop-color:#FF0000"/>
			<stop  offset="1" style="stop-color:#942500"/>
		</linearGradient>
		<path style="fill:url(#SVGID_3_);" d="M184.498,334.514l-67.047,67.047c30.072,19.42,66.443,37.269,107.403,46.531l36.611-36.611
			L184.498,334.514z"/>
		
			<linearGradient id="SVGID_4_" gradientUnits="userSpaceOnUse" x1="441.3752" y1="-617.0675" x2="582.0847" y2="-617.0675" gradientTransform="matrix(1 0 0 -1 -250 -184)">
			<stop  offset="0" style="stop-color:#FF0000"/>
			<stop  offset="1" style="stop-color:#942500"/>
		</linearGradient>
		<path style="fill:url(#SVGID_4_);" d="M224.855,448.092c15.208,3.439,31.042,5.706,47.428,6.414
			c8.353,0.361,18.88,0.132,30.757-1.45l-41.574-41.574L224.855,448.092z"/>
		
			<linearGradient id="SVGID_5_" gradientUnits="userSpaceOnUse" x1="358.0604" y1="-442.0761" x2="510.9365" y2="-442.0761" gradientTransform="matrix(1 0 0 -1 -250 -184)">
			<stop  offset="0" style="stop-color:#FF0000"/>
			<stop  offset="1" style="stop-color:#942500"/>
		</linearGradient>
		<polygon style="fill:url(#SVGID_5_);" points="184.498,181.638 108.06,258.076 184.498,334.514 260.936,258.076 		"/>
		
			<linearGradient id="SVGID_6_" gradientUnits="userSpaceOnUse" x1="287.9702" y1="-513.8185" x2="434.4984" y2="-513.8185" gradientTransform="matrix(1 0 0 -1 -250 -184)">
			<stop  offset="0" style="stop-color:#FF0000"/>
			<stop  offset="1" style="stop-color:#942500"/>
		</linearGradient>
		<path style="fill:url(#SVGID_6_);" d="M108.06,258.076l-70.09,70.09l60.042,60.042c6.145,4.477,12.628,8.954,19.44,13.352
			l67.047-67.047L108.06,258.076z"/>
		
			<linearGradient id="SVGID_7_" gradientUnits="userSpaceOnUse" x1="241.6842" y1="-542.1873" x2="364.4082" y2="-542.1873" gradientTransform="matrix(1 0 0 -1 -250 -184)">
			<stop  offset="0" style="stop-color:#FF0000"/>
			<stop  offset="1" style="stop-color:#942500"/>
		</linearGradient>
		<path style="fill:url(#SVGID_7_);" d="M98.012,388.208L37.97,328.166l-3.596,3.596C45.563,343.917,67.579,366.036,98.012,388.208z
			"/>
		
			<linearGradient id="SVGID_8_" gradientUnits="userSpaceOnUse" x1="287.9702" y1="-387.5955" x2="434.4984" y2="-387.5955" gradientTransform="matrix(1 0 0 -1 -250 -184)">
			<stop  offset="0" style="stop-color:#FF0000"/>
			<stop  offset="1" style="stop-color:#942500"/>
		</linearGradient>
		<path style="fill:url(#SVGID_8_);" d="M184.498,181.638l-32.523-32.523c-26.541,25-50.264,53.17-70.9,81.976l26.985,26.985
			L184.498,181.638z"/>
		
			<linearGradient id="SVGID_9_" gradientUnits="userSpaceOnUse" x1="241.6842" y1="-463.6285" x2="358.0604" y2="-463.6285" gradientTransform="matrix(1 0 0 -1 -250 -184)">
			<stop  offset="0" style="stop-color:#FF0000"/>
			<stop  offset="1" style="stop-color:#942500"/>
		</linearGradient>
		<path style="fill:url(#SVGID_9_);" d="M81.075,231.091c-20.98,29.286-38.751,59.214-53.033,87.147l9.928,9.928l70.09-70.09
			L81.075,231.091z"/>
		<linearGradient id="SVGID_10_" gradientUnits="userSpaceOnUse" x1="-8.3158" y1="325" x2="37.9702" y2="325">
			<stop  offset="0" style="stop-color:#FF0000"/>
			<stop  offset="1" style="stop-color:#942500"/>
		</linearGradient>
		<path style="fill:url(#SVGID_10_);" d="M28.042,318.238c-0.682,1.333-1.376,2.674-2.042,3.998c0,0,2.894,3.572,8.375,9.526l0,0
			l3.596-3.596L28.042,318.238z"/>
		
			<linearGradient id="SVGID_11_" gradientUnits="userSpaceOnUse" x1="510.9365" y1="-442.0761" x2="664.8704" y2="-442.0761" gradientTransform="matrix(1 0 0 -1 -250 -184)">
			<stop  offset="0" style="stop-color:#FF0000"/>
			<stop  offset="1" style="stop-color:#942500"/>
		</linearGradient>
		<polygon style="fill:url(#SVGID_11_);" points="337.903,335.043 414.87,258.076 337.903,181.109 260.936,258.076 		"/>
		
			<linearGradient id="SVGID_12_" gradientUnits="userSpaceOnUse" x1="587.9034" y1="-514.4288" x2="735.4897" y2="-514.4288" gradientTransform="matrix(1 0 0 -1 -250 -184)">
			<stop  offset="0" style="stop-color:#FF0000"/>
			<stop  offset="1" style="stop-color:#942500"/>
		</linearGradient>
		<path style="fill:url(#SVGID_12_);" d="M337.903,335.043l67.738,67.738c22.292-22.048,42.611-53.121,57.24-96.694l-48.012-48.012
			L337.903,335.043z"/>
		
			<linearGradient id="SVGID_13_" gradientUnits="userSpaceOnUse" x1="587.9034" y1="-371.5241" x2="735.4896" y2="-371.5241" gradientTransform="matrix(1 0 0 -1 -250 -184)">
			<stop  offset="0" style="stop-color:#FF0000"/>
			<stop  offset="1" style="stop-color:#942500"/>
		</linearGradient>
		<path style="fill:url(#SVGID_13_);" d="M484.426,188.52l1.063-1.063l-0.929-0.929C484.518,187.196,484.471,187.856,484.426,188.52
			z"/>
		
			<linearGradient id="SVGID_14_" gradientUnits="userSpaceOnUse" x1="587.9034" y1="-368.2831" x2="735.4897" y2="-368.2831" gradientTransform="matrix(1 0 0 -1 -250 -184)">
			<stop  offset="0" style="stop-color:#FF0000"/>
			<stop  offset="1" style="stop-color:#942500"/>
		</linearGradient>
		<path style="fill:url(#SVGID_14_);" d="M408.523,110.49l-70.619,70.619l76.967,76.967l69.556-69.556
			c0.044-0.665,0.092-1.325,0.134-1.993L408.523,110.49z"/>
		
			<linearGradient id="SVGID_15_" gradientUnits="userSpaceOnUse" x1="664.8704" y1="-431.3041" x2="781.2466" y2="-431.3041" gradientTransform="matrix(1 0 0 -1 -250 -184)">
			<stop  offset="0" style="stop-color:#FF0000"/>
			<stop  offset="1" style="stop-color:#942500"/>
		</linearGradient>
		<path style="fill:url(#SVGID_15_);" d="M462.882,306.088c10.741-31.989,18.41-70.724,21.544-117.567l-69.556,69.556
			L462.882,306.088z"/>
		
			<linearGradient id="SVGID_16_" gradientUnits="userSpaceOnUse" x1="658.5226" y1="-318.4341" x2="781.2466" y2="-318.4341" gradientTransform="matrix(1 0 0 -1 -250 -184)">
			<stop  offset="0" style="stop-color:#FF0000"/>
			<stop  offset="1" style="stop-color:#942500"/>
		</linearGradient>
		<path style="fill:url(#SVGID_16_);" d="M484.56,186.528c1.074-16.822,1.568-34.678,1.411-53.64
			c-14.386-21.97-31.072-38.572-49.299-50.547l-28.149,28.149L484.56,186.528z"/>
		
			<linearGradient id="SVGID_17_" gradientUnits="userSpaceOnUse" x1="434.4984" y1="-365.3736" x2="587.9034" y2="-365.3736" gradientTransform="matrix(1 0 0 -1 -250 -184)">
			<stop  offset="0" style="stop-color:#FF0000"/>
			<stop  offset="1" style="stop-color:#942500"/>
		</linearGradient>
		<polygon style="fill:url(#SVGID_17_);" points="184.498,181.638 260.936,258.076 337.903,181.109 261.465,104.671 		"/>
		
			<linearGradient id="SVGID_18_" gradientUnits="userSpaceOnUse" x1="511.4654" y1="-303.2276" x2="658.5226" y2="-303.2276" gradientTransform="matrix(1 0 0 -1 -250 -184)">
			<stop  offset="0" style="stop-color:#FF0000"/>
			<stop  offset="1" style="stop-color:#942500"/>
		</linearGradient>
		<path style="fill:url(#SVGID_18_);" d="M337.903,181.109l70.619-70.619l-53.057-53.057c-17.16-0.53-34.665,1.383-52.111,5.349
			l-41.889,41.889L337.903,181.109z"/>
		
			<linearGradient id="SVGID_19_" gradientUnits="userSpaceOnUse" x1="364.4082" y1="-317.3616" x2="511.4654" y2="-317.3616" gradientTransform="matrix(1 0 0 -1 -250 -184)">
			<stop  offset="0" style="stop-color:#FF0000"/>
			<stop  offset="1" style="stop-color:#942500"/>
		</linearGradient>
		<path style="fill:url(#SVGID_19_);" d="M261.465,104.671l-19.586-19.586c-6.662,3.314-13.24,6.873-19.703,10.669
			c-25.159,14.777-48.608,33.021-70.201,53.361l32.523,32.523L261.465,104.671z"/>
		
			<linearGradient id="SVGID_20_" gradientUnits="userSpaceOnUse" x1="441.3752" y1="-267.7264" x2="582.0847" y2="-267.7264" gradientTransform="matrix(1 0 0 -1 -250 -184)">
			<stop  offset="0" style="stop-color:#FF0000"/>
			<stop  offset="1" style="stop-color:#942500"/>
		</linearGradient>
		<path style="fill:url(#SVGID_20_);" d="M303.355,62.782c-20.81,4.73-41.53,12.382-61.476,22.303l19.586,19.586L303.355,62.782z"/>
		
			<linearGradient id="SVGID_21_" gradientUnits="userSpaceOnUse" x1="582.0847" y1="-267.9614" x2="780.7177" y2="-267.9614" gradientTransform="matrix(1 0 0 -1 -250 -184)">
			<stop  offset="0" style="stop-color:#FF0000"/>
			<stop  offset="1" style="stop-color:#942500"/>
		</linearGradient>
		<path style="fill:url(#SVGID_21_);" d="M436.672,82.341c-24.835-16.317-52.535-24.022-81.206-24.908l53.057,53.057L436.672,82.341
			z"/>
	</g>
	<g>
		
			<linearGradient id="SVGID_22_" gradientUnits="userSpaceOnUse" x1="434.4984" y1="-519.0432" x2="587.9034" y2="-519.0432" gradientTransform="matrix(1 0 0 -1 -250 -184)">
			<stop  offset="0" style="stop-color:#BABCBE"/>
			<stop  offset="1" style="stop-color:#FFFFFF"/>
		</linearGradient>
		<polygon style="fill:url(#SVGID_22_);" points="337.15,334.29 337.15,335.797 337.903,335.043 		"/>
		
			<linearGradient id="SVGID_23_" gradientUnits="userSpaceOnUse" x1="434.4984" y1="-515.3549" x2="587.9034" y2="-515.3549" gradientTransform="matrix(1 0 0 -1 -250 -184)">
			<stop  offset="0" style="stop-color:#BABCBE"/>
			<stop  offset="1" style="stop-color:#FFFFFF"/>
		</linearGradient>
		<polygon style="fill:url(#SVGID_23_);" points="203.613,315.399 184.498,334.514 197.295,347.31 203.613,347.31 		"/>
		
			<linearGradient id="SVGID_24_" gradientUnits="userSpaceOnUse" x1="434.4984" y1="-486.6933" x2="587.9034" y2="-486.6933" gradientTransform="matrix(1 0 0 -1 -250 -184)">
			<stop  offset="0" style="stop-color:#BABCBE"/>
			<stop  offset="1" style="stop-color:#FFFFFF"/>
		</linearGradient>
		<polygon style="fill:url(#SVGID_24_);" points="243.815,347.31 296.948,347.31 296.948,294.088 260.936,258.076 243.815,275.197 
					"/>
		
			<linearGradient id="SVGID_25_" gradientUnits="userSpaceOnUse" x1="511.4654" y1="-525.1768" x2="658.5226" y2="-525.1768" gradientTransform="matrix(1 0 0 -1 -250 -184)">
			<stop  offset="0" style="stop-color:#BABCBE"/>
			<stop  offset="1" style="stop-color:#FFFFFF"/>
		</linearGradient>
		<polygon style="fill:url(#SVGID_25_);" points="337.15,335.797 337.15,347.31 350.171,347.31 337.903,335.043 		"/>
		
			<linearGradient id="SVGID_26_" gradientUnits="userSpaceOnUse" x1="364.4082" y1="-524.9122" x2="511.4654" y2="-524.9122" gradientTransform="matrix(1 0 0 -1 -250 -184)">
			<stop  offset="0" style="stop-color:#BABCBE"/>
			<stop  offset="1" style="stop-color:#FFFFFF"/>
		</linearGradient>
		<polygon style="fill:url(#SVGID_26_);" points="171.702,347.31 197.295,347.31 184.498,334.514 		"/>
		
			<linearGradient id="SVGID_27_" gradientUnits="userSpaceOnUse" x1="358.0604" y1="-442.0761" x2="510.9365" y2="-442.0761" gradientTransform="matrix(1 0 0 -1 -250 -184)">
			<stop  offset="0" style="stop-color:#BABCBE"/>
			<stop  offset="1" style="stop-color:#FFFFFF"/>
		</linearGradient>
		<path style="fill:url(#SVGID_27_);" d="M203.613,315.399v-82.818c0-8.336,6.452-15.046,14.419-15.046h2.363l-35.897-35.897
			L148.6,217.537v81.079l35.899,35.899L203.613,315.399z"/>
		
			<linearGradient id="SVGID_28_" gradientUnits="userSpaceOnUse" x1="358.0604" y1="-442.0761" x2="510.9365" y2="-442.0761" gradientTransform="matrix(1 0 0 -1 -250 -184)">
			<stop  offset="0" style="stop-color:#BABCBE"/>
			<stop  offset="1" style="stop-color:#FFFFFF"/>
		</linearGradient>
		<polygon style="fill:url(#SVGID_28_);" points="243.815,275.197 260.936,258.076 243.815,240.955 		"/>
		
			<linearGradient id="SVGID_29_" gradientUnits="userSpaceOnUse" x1="287.9702" y1="-506.963" x2="434.4984" y2="-506.963" gradientTransform="matrix(1 0 0 -1 -250 -184)">
			<stop  offset="0" style="stop-color:#BABCBE"/>
			<stop  offset="1" style="stop-color:#FFFFFF"/>
		</linearGradient>
		<polygon style="fill:url(#SVGID_29_);" points="148.6,298.616 148.6,347.31 171.702,347.31 184.498,334.514 		"/>
		
			<linearGradient id="SVGID_30_" gradientUnits="userSpaceOnUse" x1="287.9702" y1="-381.7484" x2="434.4984" y2="-381.7484" gradientTransform="matrix(1 0 0 -1 -250 -184)">
			<stop  offset="0" style="stop-color:#BABCBE"/>
			<stop  offset="1" style="stop-color:#FFFFFF"/>
		</linearGradient>
		<polygon style="fill:url(#SVGID_30_);" points="180.82,177.96 148.6,177.96 148.6,217.537 184.498,181.638 		"/>
		
			<linearGradient id="SVGID_31_" gradientUnits="userSpaceOnUse" x1="510.9365" y1="-442.0761" x2="664.8704" y2="-442.0761" gradientTransform="matrix(1 0 0 -1 -250 -184)">
			<stop  offset="0" style="stop-color:#BABCBE"/>
			<stop  offset="1" style="stop-color:#FFFFFF"/>
		</linearGradient>
		<path style="fill:url(#SVGID_31_);" d="M260.936,258.076l36.011,36.011v-61.506c0-8.336,6.452-15.046,14.419-15.046h11.363
			c7.968,0,14.419,6.711,14.419,15.046V334.29l0.753,0.753l54.26-54.26v-45.414l-54.26-54.26L260.936,258.076z"/>
		
			<linearGradient id="SVGID_32_" gradientUnits="userSpaceOnUse" x1="587.9034" y1="-498.0468" x2="735.4897" y2="-498.0468" gradientTransform="matrix(1 0 0 -1 -250 -184)">
			<stop  offset="0" style="stop-color:#BABCBE"/>
			<stop  offset="1" style="stop-color:#FFFFFF"/>
		</linearGradient>
		<polygon style="fill:url(#SVGID_32_);" points="350.171,347.31 392.163,347.31 392.163,280.783 337.903,335.043 		"/>
		
			<linearGradient id="SVGID_33_" gradientUnits="userSpaceOnUse" x1="587.9034" y1="-390.6646" x2="735.4897" y2="-390.6646" gradientTransform="matrix(1 0 0 -1 -250 -184)">
			<stop  offset="0" style="stop-color:#BABCBE"/>
			<stop  offset="1" style="stop-color:#FFFFFF"/>
		</linearGradient>
		<path style="fill:url(#SVGID_33_);" d="M392.163,235.369v-7.254c0-27.786-22.369-50.155-50.155-50.155h-0.956l-3.149,3.149
			L392.163,235.369z"/>
		
			<linearGradient id="SVGID_34_" gradientUnits="userSpaceOnUse" x1="434.4984" y1="-402.0182" x2="587.9034" y2="-402.0182" gradientTransform="matrix(1 0 0 -1 -250 -184)">
			<stop  offset="0" style="stop-color:#BABCBE"/>
			<stop  offset="1" style="stop-color:#FFFFFF"/>
		</linearGradient>
		<path style="fill:url(#SVGID_34_);" d="M220.396,217.535h9.079c7.968,0,14.341,6.711,14.341,15.046v8.373l17.121,17.121
			l76.967-76.967l-3.149-3.149H188.176l-3.678,3.678L220.396,217.535z"/>
		
			<linearGradient id="SVGID_35_" gradientUnits="userSpaceOnUse" x1="511.4654" y1="-363.5346" x2="658.5226" y2="-363.5346" gradientTransform="matrix(1 0 0 -1 -250 -184)">
			<stop  offset="0" style="stop-color:#BABCBE"/>
			<stop  offset="1" style="stop-color:#FFFFFF"/>
		</linearGradient>
		<polygon style="fill:url(#SVGID_35_);" points="337.903,181.109 341.052,177.96 334.755,177.96 		"/>
		
			<linearGradient id="SVGID_36_" gradientUnits="userSpaceOnUse" x1="364.4082" y1="-363.7991" x2="511.4654" y2="-363.7991" gradientTransform="matrix(1 0 0 -1 -250 -184)">
			<stop  offset="0" style="stop-color:#BABCBE"/>
			<stop  offset="1" style="stop-color:#FFFFFF"/>
		</linearGradient>
		<polygon style="fill:url(#SVGID_36_);" points="188.176,177.96 180.82,177.96 184.498,181.638 		"/>
	</g>
</g>
</svg>
