<?xml version="1.0" encoding="utf-8"?>
<!-- Generator: Adobe Illustrator 18.0.0, SVG Export Plug-In . SVG Version: 6.00 Build 0)  -->
<!DOCTYPE svg PUBLIC "-//W3C//DTD SVG 1.1//EN" "http://www.w3.org/Graphics/SVG/1.1/DTD/svg11.dtd">
<svg version="1.1" id="Layer_1" xmlns="http://www.w3.org/2000/svg" xmlns:xlink="http://www.w3.org/1999/xlink" x="0px" y="0px"
	 viewBox="0 0 512 512" style="enable-background:new 0 0 512 512;" xml:space="preserve">
<g>
	<path style="fill:#84519F;" d="M278.256,27.076c95.527,11.032,169.699,92.179,169.699,190.663
		c0,106.014-85.941,191.955-191.955,191.955S64.045,323.753,64.045,217.739c0-98.485,74.172-179.631,169.699-190.663
		C117.163,38.271,26,136.484,26,256c0,127.025,102.974,230,230,230s230-102.974,230-230C486,136.484,394.837,38.271,278.256,27.076z
		"/>
	<path style="fill:#3D3D3D;" d="M64.045,217.739c0,106.014,85.941,191.955,191.955,191.955s191.955-85.941,191.955-191.955
		c0-98.485-74.172-179.631-169.699-190.663C270.931,26.372,263.509,26,256,26c-7.509,0-14.931,0.372-22.256,1.076
		C138.217,38.107,64.045,119.254,64.045,217.739z M256,102.955c84.525,0,153.045,68.521,153.045,153.045
		S340.525,409.045,256,409.045S102.955,340.524,102.955,256S171.475,102.955,256,102.955z"/>
</g>
<g>
	<path style="fill:#84519F;" d="M350.33,251.277l-144.918-83.669c-1.688-0.975-3.767-0.975-5.455,0
		c-1.688,0.974-2.728,2.776-2.728,4.724v167.336c0,1.949,1.04,3.75,2.728,4.724c0.843,0.487,1.786,0.731,2.728,0.731
		s1.884-0.244,2.728-0.731l144.918-83.669c1.688-0.975,2.728-2.776,2.728-4.724C353.057,254.051,352.018,252.251,350.33,251.277z"/>
	<path style="fill:#3D3D3D;" d="M318.286,271.269L204.24,205.425c-1.328-0.768-2.965-0.768-4.293,0
		c-1.328,0.767-2.147,2.184-2.147,3.718v131.688c0,1.534,0.818,2.951,2.147,3.718c0.664,0.383,1.406,0.575,2.147,0.575
		s1.483-0.192,2.147-0.575l114.046-65.844c1.328-0.768,2.147-2.184,2.147-3.718C320.433,273.453,319.614,272.036,318.286,271.269z"
		/>
</g>
</svg>
