<?xml version="1.0" encoding="utf-8"?>
<!-- Generator: Adobe Illustrator 18.0.0, SVG Export Plug-In . SVG Version: 6.00 Build 0)  -->
<!DOCTYPE svg PUBLIC "-//W3C//DTD SVG 1.1//EN" "http://www.w3.org/Graphics/SVG/1.1/DTD/svg11.dtd">
<svg version="1.1" id="Layer_3" xmlns="http://www.w3.org/2000/svg" xmlns:xlink="http://www.w3.org/1999/xlink" x="0px" y="0px"
	 viewBox="0 0 512 512" style="enable-background:new 0 0 512 512;" xml:space="preserve">
<linearGradient id="SVGID_1_" gradientUnits="userSpaceOnUse" x1="256" y1="486" x2="256" y2="26">
	<stop  offset="0" style="stop-color:#FE9105"/>
	<stop  offset="1" style="stop-color:#FE5F38"/>
</linearGradient>
<circle style="fill:url(#SVGID_1_);" cx="256" cy="256" r="230"/>
<g>
	<g>
		<polygon style="fill:#FFFFFF;" points="109.443,258.612 132.76,258.612 121.101,201.612 		"/>
		<path style="fill:#FFFFFF;" d="M363.9,183.608l-11.593,56.682c-0.383-0.261-0.774-0.511-1.179-0.745l-47.89-27.649l-8.581-41.953
			l-6.768,33.091l-68.967-39.818c-2.881-1.665-6.167-2.546-9.5-2.546s-6.619,0.881-9.505,2.549
			c-5.854,3.38-9.495,9.685-9.495,16.451v35.988l-6.555-32.049l-15.341,75h21.896v73.72c0,6.767,3.641,13.072,9.501,16.455
			c2.886,1.665,6.17,2.545,9.499,2.545c3.329,0,6.612-0.88,9.497-2.544l100.456-57.998l11.301,55.254l14.329-70.052l6.124-3.536
			c5.099-2.947,8.513-8.102,9.315-13.845h18.796L363.9,183.608z M346.629,256.001c0,0.232-0.018,0.461-0.049,0.687
			c-0.004,0.027-0.012,0.053-0.016,0.079c-0.031,0.202-0.073,0.402-0.128,0.597c-0.002,0.008-0.006,0.015-0.008,0.023
			c-0.354,1.225-1.164,2.289-2.299,2.944l-132.207,76.329c-0.773,0.446-1.637,0.67-2.5,0.67c-0.863,0-1.727-0.224-2.5-0.67
			c-1.547-0.893-2.5-2.544-2.5-4.33v-0.001v-48.223V258.61v-78.938v-0.001c0-1.786,0.953-3.437,2.5-4.33
			c0.773-0.447,1.637-0.671,2.5-0.671c0.863,0,1.727,0.224,2.5,0.671l73.01,42.152l0,0.001l22.055,12.734l0-0.001l37.142,21.444
			C345.676,252.563,346.629,254.214,346.629,256.001C346.629,256.001,346.629,256.001,346.629,256.001L346.629,256.001z"/>
		<polygon style="fill:#FFFFFF;" points="150.643,346.044 168.526,258.612 132.76,258.612 		"/>
		<polygon style="fill:#FFFFFF;" points="379.24,258.612 390.899,315.612 402.557,258.612 		"/>
	</g>
	
		<linearGradient id="SVGID_2_" gradientUnits="userSpaceOnUse" x1="204.422" y1="257.9982" x2="346.629" y2="257.9982" gradientTransform="matrix(1 0 0 -1 0 514)">
		<stop  offset="0" style="stop-color:#FE9105"/>
		<stop  offset="1" style="stop-color:#FE5F38"/>
	</linearGradient>
	<path style="fill:url(#SVGID_2_);" d="M344.129,251.672l-132.207-76.329c-1.547-0.894-3.453-0.894-5,0
		c-1.547,0.893-2.5,2.544-2.5,4.33v152.659c0,1.786,0.953,3.437,2.5,4.33c0.773,0.446,1.637,0.67,2.5,0.67s1.727-0.224,2.5-0.67
		l132.207-76.329c1.547-0.894,2.5-2.544,2.5-4.331S345.676,252.565,344.129,251.672z"/>
</g>
</svg>
