<?xml version="1.0" encoding="utf-8"?>
<!-- Generator: Adobe Illustrator 18.0.0, SVG Export Plug-In . SVG Version: 6.00 Build 0)  -->
<!DOCTYPE svg PUBLIC "-//W3C//DTD SVG 1.1//EN" "http://www.w3.org/Graphics/SVG/1.1/DTD/svg11.dtd">
<svg version="1.1"
	 id="svg2" xmlns:dc="http://purl.org/dc/elements/1.1/" xmlns:cc="http://creativecommons.org/ns#" xmlns:rdf="http://www.w3.org/1999/02/22-rdf-syntax-ns#" xmlns:svg="http://www.w3.org/2000/svg"
	 xmlns="http://www.w3.org/2000/svg" xmlns:xlink="http://www.w3.org/1999/xlink" x="0px" y="0px" viewBox="0 0 640 640"
	 style="enable-background:new 0 0 640 640;" xml:space="preserve">
<g id="g228">
	<g id="g234" transform="translate(240.6283,368.123)">
		<path id="path236" style="fill:#0098FF;" d="M49.274-268.655c-1.104,5.169,1.457,10.097,5.723,11.01l202.182,43.224
			c4.266,0.912,8.621-2.538,9.725-7.705c1.104-5.169-1.459-10.099-5.723-11.012L59-276.361
			C54.733-277.274,50.379-273.824,49.274-268.655"/>
	</g>
	<g id="g238" transform="translate(168.3672,198.5942)">
		<path id="path240" style="fill:#0098FF;" d="M-19.948,232.804c-2.422,4.229-1.5,9.271,2.064,11.256l168.813,94.174
			c3.562,1.989,8.413,0.17,10.835-4.061c2.424-4.229,1.5-9.269-2.064-11.254L-9.111,228.743
			C-12.675,226.756-17.526,228.573-19.948,232.804"/>
	</g>
	<g id="g242" transform="translate(157.0256,320.0806)">
		<path id="path244" style="fill:#0098FF;" d="M-30.813-126.547c-1.604,4.709,0.264,9.594,4.168,10.91l185.076,62.361
			c3.906,1.316,8.37-1.435,9.972-6.144c1.604-4.709-0.264-9.594-4.168-10.91l-185.076-62.361
			C-24.745-134.007-29.209-131.256-30.813-126.547"/>
	</g>
	<g id="g246" transform="translate(149.7859,329.3902)">
		<path id="path248" style="fill:#0098FF;" d="M-37.748-154.085c5.764,0,10.436,4.672,10.436,10.436s-4.672,10.436-10.436,10.436
			s-10.436-4.672-10.436-10.436S-43.513-154.085-37.748-154.085"/>
	</g>
	<g id="g250" transform="translate(266.8673,288.2522)">
		<path id="path252" style="fill:#0098FF;" d="M74.41-32.4c5.764,0,10.436,4.672,10.436,10.436S80.174-11.529,74.41-11.529
			c-5.764,0-10.436-4.672-10.436-10.436S68.646-32.4,74.41-32.4"/>
	</g>
	<g id="g254" transform="translate(269.8714,149.1905)">
		<path id="path256" style="fill:#0098FF;" d="M77.288,378.938c5.764,0,10.436,4.672,10.436,10.436s-4.672,10.436-10.436,10.436
			c-5.764,0-10.436-4.672-10.436-10.436S71.524,378.938,77.288,378.938"/>
	</g>
	<g id="g258" transform="translate(161.258,208.354)">
		<path id="path260" style="fill:#0098FF;" d="M-26.759,203.935c5.764,0,10.436,4.672,10.436,10.436
			c0,5.764-4.672,10.436-10.436,10.436s-10.436-4.672-10.436-10.436C-37.195,208.606-32.523,203.935-26.759,203.935"/>
	</g>
	<g id="g262" transform="translate(353.5963,208.8595)">
		<path id="path264" style="fill:#0098FF;" d="M157.493,202.439c5.764,0,10.436,4.672,10.436,10.436s-4.672,10.436-10.436,10.436
			c-5.764,0-10.436-4.672-10.436-10.436S151.728,202.439,157.493,202.439"/>
	</g>
	<g id="g266" transform="translate(361.3573,346.9382)">
		<path id="path268" style="fill:#0098FF;" d="M164.927-205.991c5.764,0,10.436,4.672,10.436,10.436s-4.672,10.436-10.436,10.436
			s-10.436-4.672-10.436-10.436S159.163-205.991,164.927-205.991"/>
	</g>
	<g id="g270" transform="translate(238.3957,266.2149)">
		<path id="path272" style="fill:#0098FF;" d="M47.136,32.785c5.764,0,10.436,4.672,10.436,10.436S52.9,53.657,47.136,53.657
			S36.7,48.985,36.7,43.221S41.372,32.785,47.136,32.785"/>
	</g>
	<g id="g274" transform="translate(232.9277,373.4696)">
		<path id="path276" style="fill:#0098FF;" d="M41.898-284.47c5.764,0,10.436,4.672,10.436,10.436s-4.672,10.436-10.436,10.436
			s-10.436-4.672-10.436-10.436S36.133-284.47,41.898-284.47"/>
	</g>
	<g id="g278" transform="translate(247.0858,258.2178)">
		<path id="path280" style="fill:#0098FF;" d="M55.46,56.44c-2.342,4.638-1.1,9.958,2.771,11.881l183.456,91.125
			c3.871,1.923,8.907-0.28,11.247-4.916c2.342-4.638,1.102-9.958-2.769-11.881L66.709,51.523
			C62.838,49.601,57.802,51.801,55.46,56.44"/>
	</g>
	<g id="g282" transform="translate(354.8849,335.5455)">
		<path id="path284" style="fill:#0098FF;" d="M158.727-172.292c2.835,4.46,2.639,9.661-0.435,11.615L12.538-68.033
			c-3.076,1.954-7.865-0.076-10.7-4.537s-2.639-9.663,0.435-11.615l145.752-92.645C151.101-178.783,155.892-176.752,158.727-172.292
			"/>
	</g>
	<g id="g286" transform="translate(227.287,364.7274)">
		<path id="path288" style="fill:#0098FF;" d="M36.494-258.611c2.489,4.662,2.332,9.604-0.35,11.037l-127.152,67.89
			c-2.684,1.433-6.878-1.185-9.367-5.846c-2.489-4.664-2.332-9.604,0.35-11.037l127.153-67.892
			C29.812-265.892,34.006-263.272,36.494-258.611"/>
	</g>
	<g id="g290" transform="translate(232.3123,256.5014)">
		<path id="path292" style="fill:#0098FF;" d="M41.308,61.517c3.146,4.245,3.663,9.197,1.153,11.057L-76.512,160.76
			c-2.508,1.862-7.096-0.072-10.242-4.317c-3.148-4.245-3.663-9.197-1.153-11.057L31.064,57.2
			C33.574,55.338,38.162,57.272,41.308,61.517"/>
	</g>
	<g id="g294" transform="translate(346.6201,199.0534)">
		<path id="path296" style="fill:#0098FF;" d="M150.81,231.445c3.146,4.245,3.563,9.271,0.928,11.223L26.875,335.221
			c-2.635,1.954-7.323,0.094-10.469-4.151s-3.563-9.271-0.928-11.223l124.863-92.553
			C142.976,225.343,147.663,227.201,150.81,231.445"/>
	</g>
	<g id="g298" transform="translate(150.578,314.8901)">
		<path id="path300" style="fill:#0098FF;" d="M-36.99-111.194c-4.787,0.403-8.405,3.928-8.079,7.875l15.464,186.945
			c0.327,3.945,4.472,6.816,9.259,6.41c4.787-0.403,8.405-3.928,8.079-7.873L-27.73-104.784
			C-28.057-108.727-32.202-111.598-36.99-111.194"/>
	</g>
	<g id="g302" transform="translate(234.0213,359.8616)">
		<path id="path304" style="fill:#0098FF;" d="M42.945-244.218c-4.247,0.223-7.581,3.201-7.448,6.649l6.295,163.475
			c0.133,3.45,3.685,6.066,7.932,5.843c4.247-0.223,7.581-3.201,7.448-6.651l-6.295-163.475
			C50.742-241.825,47.192-244.439,42.945-244.218"/>
	</g>
	<g id="g306" transform="translate(266.7715,274.5698)">
		<path id="path308" style="fill:#0098FF;" d="M74.318,8.071c-5.739,0.331-10.266,4.331-10.113,8.938l7.278,218.322
			c0.155,4.609,4.93,8.075,10.669,7.746s10.266-4.331,10.113-8.938L84.987,15.817C84.835,11.208,80.057,7.743,74.318,8.071"/>
	</g>
	<g id="g310" transform="translate(362.5103,331.0851)">
		<path id="path312" style="fill:#0098FF;" d="M166.032-159.098c5.727,0.501,10.132,4.636,9.843,9.236L162.087,68.146
			c-0.292,4.599-5.169,7.924-10.896,7.423s-10.132-4.636-9.843-9.236l13.788-218.008C155.428-156.277,160.305-159.6,166.032-159.098
			"/>
	</g>
</g>
</svg>
