<?xml version="1.0" encoding="utf-8"?>
<!-- Generator: Adobe Illustrator 18.0.0, SVG Export Plug-In . SVG Version: 6.00 Build 0)  -->
<!DOCTYPE svg PUBLIC "-//W3C//DTD SVG 1.1//EN" "http://www.w3.org/Graphics/SVG/1.1/DTD/svg11.dtd">
<svg version="1.1" id="Layer_1" xmlns="http://www.w3.org/2000/svg" xmlns:xlink="http://www.w3.org/1999/xlink" x="0px" y="0px"
	 viewBox="0 0 512 512" style="enable-background:new 0 0 512 512;" xml:space="preserve">
<g>
	<g>
		<g>
			<path style="opacity:0.25;fill:#383938;enable-background:new    ;" d="M109.51,438.125
				c89.86-13.105,197.504-14.041,291.108-0.936l-0.936-75.819l-290.172,1.872V438.125z"/>
			<g>
				<path style="fill:#F3F3F3;" d="M102.958,73.875v350.339h306.084V73.875H102.958z M390.789,188.072v173.635H121.211V92.128
					h269.579v77.691V188.072z"/>
			</g>
		</g>
		<radialGradient id="SVGID_1_" cx="264.625" cy="223.1414" r="185.0746" gradientUnits="userSpaceOnUse">
			<stop  offset="0" style="stop-color:#FEE56A"/>
			<stop  offset="1" style="stop-color:#F15822"/>
		</radialGradient>
		<polygon style="fill:url(#SVGID_1_);" points="390.789,361.707 390.789,188.072 390.789,169.819 390.789,92.128 121.211,92.128 
			121.211,361.707 207.326,361.707 225.579,361.707 		"/>
		<g>
			<circle style="fill:#FFD111;" cx="258.808" cy="225.644" r="66.292"/>
			<polygon style="fill:#5EC4B8;" points="303.115,262.541 245.862,361.707 360.368,361.707 			"/>
			<polygon style="fill:#71C9BC;" points="199.513,292.642 159.638,361.707 239.387,361.707 			"/>
			<polygon style="fill:#29B898;" points="371.815,328.556 352.84,361.422 390.789,361.422 			"/>
			<polygon style="fill:#5EC4B8;" points="148.992,316.68 122.995,361.707 174.988,361.707 			"/>
		</g>
	</g>
	<g>
		<g>
			<path style="opacity:0.25;fill:#353635;" d="M181.586,65.278l-13.753-9.872l-6.151-9.427l-7.59-4.819L147.453,26l-3.826,3.44
				l6.739,11.039l7.59,4.819l6.151,9.427l10.804,10.084l-98.476,85.576l-6.096-10.147l-10.582-8.262l-5.875-13.025l-5.863-3.542
				l-4.351,3.912l9.777,4.038l5.738,13.815l10.823,7.046l7.582,11.429C77.589,155.651,120.927,105.456,181.586,65.278z"/>
			<polygon style="opacity:0.8;fill:#FFF5CB;" points="164.108,54.726 157.957,45.299 150.367,40.479 143.627,29.44 142.331,27.318 
				43.855,112.894 48.02,115.41 53.883,118.952 59.758,131.977 70.34,140.239 76.436,150.386 174.912,64.81 			"/>
		</g>
		<g>
			<path style="opacity:0.25;fill:#353635;" d="M468.331,381.608l-15.03-7.791l-7.443-8.444l-8.205-3.678l-8.749-14.047
				l-3.292,3.955l8.257,9.955l8.205,3.678l7.443,8.444l12.142,8.425l-85.143,98.851l-7.492-9.165l-11.661-6.654l-7.687-12.044
				l-6.311-2.662l-3.743,4.498l10.256,2.59l7.666,12.846l11.724,5.416l9.147,10.22C378.414,486,414.082,430.094,468.331,381.608z"/>
			<polygon style="opacity:0.8;fill:#FFF5CB;" points="449.517,373.68 442.074,365.235 433.869,361.558 425.612,351.603 
				424.024,349.689 338.881,448.539 343.365,450.43 349.676,453.092 357.363,465.137 369.024,471.791 376.516,480.955 
				461.659,382.105 			"/>
		</g>
	</g>
</g>
</svg>
