<?xml version="1.0" encoding="utf-8"?>
<!-- Generator: Adobe Illustrator 18.0.0, SVG Export Plug-In . SVG Version: 6.00 Build 0)  -->
<!DOCTYPE svg PUBLIC "-//W3C//DTD SVG 1.1//EN" "http://www.w3.org/Graphics/SVG/1.1/DTD/svg11.dtd">
<svg version="1.1" id="Layer_1" xmlns="http://www.w3.org/2000/svg" xmlns:xlink="http://www.w3.org/1999/xlink" x="0px" y="0px"
	 viewBox="0 0 512 512" style="enable-background:new 0 0 512 512;" xml:space="preserve">
<g style="opacity:0.4;">
	<path d="M312.002,401.869c-1.083,0.687-2.168,1.365-3.267,2.017C309.834,403.234,310.919,402.556,312.002,401.869z"/>
	<path d="M302.373,161.231c-0.019-0.271-0.021-0.545,0.007-0.821C302.352,160.686,302.352,160.96,302.373,161.231z"/>
	<path d="M199.829,331.574c0-37.551-30.55-68.101-68.101-68.101c-1.955,0-3.886,0.102-5.801,0.264
		c0.009-0.109,0.022-0.216,0.031-0.325c-0.231,2.787-0.358,5.599-0.358,8.438c0,2.018,0.081,4.063,0.198,6.12
		c-0.06-1.057-0.102-2.107-0.132-3.154c1.993-0.211,4.014-0.325,6.061-0.325c31.475,0,57.082,25.607,57.082,57.083
		c0,17.382-7.819,32.963-20.113,43.441c2.453,2.75,4.989,5.414,7.605,7.979C190.698,370.499,199.829,352.089,199.829,331.574z
		 M173.517,380.205c-0.731-0.752-1.444-1.523-2.161-2.29c13.079-11.2,21.391-27.813,21.391-46.341
		c0-33.645-27.373-61.018-61.017-61.018c-2.062,0-4.099,0.106-6.108,0.306c0.01-1.057,0.026-2.112,0.069-3.161
		c1.989-0.187,4.002-0.293,6.04-0.293c35.381,0,64.165,28.784,64.165,64.166C195.894,351.003,187.202,368.429,173.517,380.205z"/>
	<path d="M240.028,268.122c0-46.649,25.136-87.522,62.562-109.836l0.438-4.418c-39.737,22.627-66.611,65.347-66.611,114.254
		c0,57.521,37.164,106.494,88.729,124.257c-0.968,0.788-1.937,1.573-2.921,2.333c-51.816-18.724-88.956-68.396-88.956-126.59
		c0-50.873,28.383-95.236,70.141-118.104l-0.123,1.245l0.731-7.384l-0.179,1.812c-44.056,23.12-74.181,69.32-74.181,122.43
		c0,58.923,37.078,109.341,89.125,129.169c-1.028,0.744-2.072,1.457-3.117,2.17c-52.181-20.798-89.156-71.831-89.156-131.339
		c0-55.052,31.646-102.847,77.699-126.165l0.42-4.242c-48.337,23.521-81.731,73.136-81.731,130.407
		c0,60.142,36.826,111.841,89.109,133.745c5.701-3.618,11.174-7.71,16.382-12.202C277.165,373.003,240.028,324.83,240.028,268.122z"
		/>
	<path d="M185.662,331.574c0-29.741-24.195-53.935-53.934-53.935c-2.005,0-3.981,0.119-5.93,0.333
		c0.091,1.599,0.217,3.207,0.377,4.826c-0.03-0.298-0.068-0.598-0.095-0.896c1.855-0.21,3.738-0.328,5.648-0.328
		c27.569,0,49.998,22.43,49.998,50c0,15.228-6.852,28.879-17.625,38.057c-0.665-0.811-1.335-1.617-1.986-2.44
		c1.896,2.398,3.864,4.734,5.88,7.023c-0.458-0.521-0.918-1.04-1.371-1.567C178.261,362.747,185.662,348.013,185.662,331.574z"/>
	<path d="M219.748,268.122c0-59.197,34.921-110.383,85.241-134.064l-0.088,0.891l2.913-29.413c0.323-3.265,3.777-5.59,7.442-4.997
		c15.965,2.582,30.103,9.8,40.552,19.995c-0.001,0-0.001-0.001-0.002-0.002c3.966-0.32,7.974-0.49,12.021-0.49
		c1.055,0,2.105,0.018,3.155,0.04c0.853,1.055,1.67,2.133,2.461,3.227c-12.762-17.657-33.756-30.282-58.208-33.641
		c-3.259-0.448-5.545-3.071-5.259-5.961l6.107-61.668c0.322-3.248-2.59-6.041-6.298-6.041H202.217c-3.708,0-6.62,2.794-6.298,6.042
		l6.118,61.664c0.287,2.891-1.999,5.514-5.26,5.962c-40.36,5.538-71.346,36.297-71.346,73.317c0,16.932,6.493,32.548,17.39,45.049
		c1.548,1.776,1.751,4.196,0.468,6.129c-7.88,11.878-13.392,25.115-15.991,39.212c1.467-0.082,2.942-0.133,4.43-0.133
		c43.193,0,78.333,35.141,78.333,78.333c0,23.175-10.125,44.022-26.173,58.377c-0.001-0.001-0.002-0.002-0.004-0.003
		c8.591,7.372,17.888,13.686,27.75,18.527c2.731,1.341,3.97,4.208,2.886,6.788l-15.425,36.742c-0.917,2.184-3.284,3.634-5.931,3.634
		c-1.875,0-3.649,0.742-4.866,1.997c-8.322,8.581-1.553,18.365,7.815,18.365h44.846h30.168h47.708c1.875,0,3.649-0.742,4.866-1.997
		c8.322-8.581,1.553-18.365-7.815-18.365h-1.452l-16.938-40.422c-1.08-2.578,0.156-5.442,2.883-6.783
		c2.834-1.393,5.615-2.923,8.354-4.548C256.41,381.023,219.748,328.778,219.748,268.122z M205.82,165.99
		c-18.503,6.79-34.844,17.219-47.869,30.274c-2.824,2.83-7.971,2.387-10.166-0.845c-6.45-9.498-10.166-20.589-10.166-32.434
		c0-31.091,25.543-57.02,59.143-62.447c3.665-0.592,7.117,1.732,7.441,4.996l5.444,54.865
		C209.884,162.796,208.345,165.063,205.82,165.99z"/>
	<path d="M305.286,165.578c-0.005-0.003-0.009-0.006-0.013-0.009C305.278,165.572,305.282,165.576,305.286,165.578z"/>
	<path d="M206.913,331.574c0-41.457-33.728-75.184-75.184-75.184c-1.673,0-3.328,0.075-4.975,0.183
		c-0.2,1.321-0.372,2.65-0.521,3.985c1.816-0.139,3.645-0.233,5.496-0.233c39.287,0,71.249,31.962,71.249,71.249
		c0,21.357-9.458,40.534-24.391,53.604c0.961,0.906,1.925,1.807,2.907,2.686C197.067,374.079,206.913,353.959,206.913,331.574z"/>
	<path d="M246.788,268.122c0-43.528,23.105-81.751,57.686-103.082c-1.012-0.789-1.701-1.851-1.976-3.021
		c-35.565,21.978-59.322,61.312-59.322,106.103c0,55.97,37.082,103.434,87.966,119.135c-0.906,0.82-1.831,1.612-2.753,2.407
		c1.981-1.709,3.927-3.467,5.83-5.285C283.782,369.774,246.788,323.203,246.788,268.122z"/>
	<path d="M344.208,187.431c-0.998-0.807-2.032-1.578-3.059-2.358C342.176,185.852,343.21,186.624,344.208,187.431z"/>
	<path d="M356.482,358.242c-0.677,0.975-1.375,1.935-2.071,2.896C355.108,360.177,355.805,359.217,356.482,358.242z"/>
	<path d="M358.652,123.491c1.019,1.124,1.997,2.276,2.929,3.46c0,0-0.001-0.001-0.001-0.001c2.072-0.091,4.153-0.146,6.247-0.146
		c2.735,0,5.449,0.086,8.146,0.241c-0.802-1.268-1.648-2.512-2.531-3.733c-1.864-0.071-3.734-0.119-5.616-0.119
		C364.744,123.192,361.687,123.3,358.652,123.491z"/>
	<path d="M336.798,381.846c-0.853,0.853-1.709,1.701-2.579,2.532C335.089,383.547,335.945,382.698,336.798,381.846z"/>
	<path d="M367.827,129.952c-1.333,0-2.661,0.024-3.986,0.061c0.816,1.175,1.598,2.369,2.327,3.593c0,0,0,0,0-0.001
		c0.555-0.007,1.103-0.042,1.659-0.042c4.077,0,8.103,0.213,12.089,0.57c-1.172-2.433-2.492-4.796-3.942-7.089
		c0.682,1.078,1.34,2.169,1.961,3.279C374.596,130.08,371.226,129.952,367.827,129.952z"/>
	<path d="M367.888,136.711c0.624,1.201,1.209,2.419,1.749,3.658l0,0c4.463,0.063,8.869,0.356,13.212,0.867
		c0.382,1.092,0.735,2.195,1.06,3.308c-4.267-0.552-8.599-0.886-12.988-0.994v0c0.439,1.198,0.824,2.416,1.183,3.643
		c0,0,0-0.001,0-0.001c4.323,0.151,8.59,0.522,12.788,1.117c0.247,1.078,0.466,2.163,0.659,3.257
		c-4.14-0.627-8.353-1.022-12.62-1.205c0,0,0,0,0-0.001c0.276,1.2,0.523,2.409,0.721,3.632c0,0,0-0.001,0-0.001
		c4.217,0.213,8.369,0.672,12.455,1.332c-0.731-6.231-2.34-12.234-4.72-17.914c-4.438-0.457-8.941-0.694-13.497-0.696
		C367.888,136.712,367.888,136.712,367.888,136.711z"/>
	<path d="M364.215,195.418c-0.254,0.374-0.556,0.703-0.882,1.001C363.66,196.124,363.96,195.794,364.215,195.418z"/>
	<path d="M361.218,197.673c0.038-0.014,0.073-0.031,0.111-0.046C361.291,197.642,361.255,197.659,361.218,197.673z"/>
	<path d="M178.579,331.574c0-25.835-21.017-46.852-46.85-46.852c-1.798,0-3.569,0.112-5.314,0.31
		c0.423,3.596,0.997,7.228,1.744,10.888c1.175-0.117,2.365-0.179,3.57-0.179c19.758,0,35.831,16.074,35.831,35.832
		c0,10.624-4.652,20.177-12.021,26.745c0.751,1.081,1.525,2.147,2.3,3.211c8.359-7.296,13.657-18.016,13.657-29.956
		c0-21.927-17.839-39.767-39.767-39.767c-1.45,0-2.88,0.083-4.289,0.235c-0.181-1.04-0.342-2.075-0.497-3.109
		c1.572-0.175,3.168-0.273,4.786-0.273c23.663,0,42.915,19.251,42.915,42.915c0,12.977-5.798,24.619-14.93,32.494
		c-0.633-0.839-1.255-1.686-1.873-2.536c1.391,1.912,2.809,3.804,4.275,5.658C172.18,358.59,178.579,345.819,178.579,331.574z"/>
	<path d="M164.412,331.574c0-18.021-14.662-32.684-32.683-32.684c-0.971,0-1.927,0.062-2.877,0.146
		c4.578,20.081,13.822,40.712,26.559,59.094c-0.565-0.818-1.117-1.643-1.669-2.468C160.28,349.681,164.412,341.112,164.412,331.574z
		"/>
	<path d="M362.316,197.16c0.137-0.079,0.258-0.181,0.388-0.271C362.575,196.98,362.451,197.079,362.316,197.16z"/>
	<path d="M280.588,268.122c0-38.8,25.468-71.751,60.559-83.051c-1.163-0.883-2.319-1.773-3.518-2.621
		c-35.292,12.477-60.654,46.16-60.654,85.672c0,46.253,34.75,84.515,79.507,90.119c1.45-2.087,2.842-4.209,4.2-6.35
		c-0.637,1.004-1.276,2.006-1.933,2.998C314.897,350.335,280.588,313.162,280.588,268.122z"/>
	<path d="M287.347,268.122c0-37.367,25.6-68.863,60.182-77.883c-1.094-0.949-2.19-1.895-3.321-2.809
		c-34.903,10.234-60.472,42.523-60.472,80.692c0,43.962,33.914,80.128,76.948,83.767c0.727-1.147,1.447-2.297,2.147-3.458
		C320.774,345.842,287.347,310.821,287.347,268.122z"/>
	<path d="M367.024,190.811c-0.695,1.246-1.435,2.469-2.218,3.668c1.003-0.041,2.008-0.077,3.021-0.077
		c3.523,0,6.984,0.264,10.376,0.744c-0.548,0.996-1.114,1.983-1.711,2.955c-2.842-0.35-5.73-0.551-8.665-0.551
		c-2.635,0-5.233,0.157-7.793,0.44c-0.312,0.056-0.621,0.105-0.938,0.119c-34.805,4.317-61.841,34.057-61.841,70.012
		c0,38.913,31.659,70.572,70.572,70.572c0.163,0,0.323-0.011,0.486-0.012c0.733-1.402,1.451-2.809,2.144-4.224
		c-0.091,0.188-0.177,0.378-0.27,0.565c-0.785,0.027-1.569,0.06-2.36,0.06c-36.922,0-66.959-30.039-66.959-66.961
		s30.037-66.96,66.959-66.96c2.174,0,4.321,0.113,6.443,0.316c-0.702,1.013-1.433,2.009-2.188,2.989
		c3.068-3.984,5.708-8.24,7.863-12.721c-3.949-0.624-7.995-0.956-12.117-0.956C367.558,190.791,367.293,190.808,367.024,190.811z"/>
	<path d="M304.016,268.122c0,35.187,28.626,63.813,63.811,63.813c1.309,0,2.605-0.052,3.895-0.13
		c9.366-19.957,14.677-40.891,14.677-59.955c0-21.034-6.447-40.741-17.689-57.688c-1.282-1.933-1.08-4.353,0.468-6.129
		c1.011-1.159,1.97-2.354,2.903-3.566c-1.408-0.093-2.823-0.158-4.254-0.158C332.642,204.311,304.016,232.937,304.016,268.122z"/>
	<path d="M294.107,268.122c0-35.768,25.609-65.657,59.453-72.322c-1.934-1.917-3.956-3.762-6.03-5.561
		c0.968,0.84,1.921,1.692,2.859,2.558c-34.266,7.932-59.894,38.681-59.894,75.325c0,41.573,32.98,75.574,74.148,77.251
		c1.276-2.21,2.494-4.442,3.669-6.69c-0.547,1.047-1.108,2.089-1.677,3.129C326.535,341.17,294.107,308.372,294.107,268.122z"/>
	<path d="M381.279,188.789c-0.422,0.996-0.867,1.981-1.335,2.957C380.413,190.771,380.857,189.785,381.279,188.789z"/>
	<path d="M373.817,170.713c0.056-0.403,0.092-0.811,0.143-1.216c-0.189,1.615-0.443,3.212-0.768,4.789v0
		c4.114,0.233,8.153,0.744,12.11,1.491c-0.205,1.032-0.436,2.057-0.689,3.074c-3.968-0.745-8.019-1.254-12.149-1.463c0,0,0,0,0,0
		c-0.321,1.208-0.672,2.405-1.07,3.586c4.162,0.169,8.246,0.637,12.239,1.371c-0.313,1.014-0.649,2.019-1.009,3.016
		c1.878-5.203,3.132-10.647,3.656-16.273c-0.098,1.05-0.22,2.094-0.367,3.131C381.959,171.474,377.924,170.963,373.817,170.713z"/>
	<path d="M370.957,182.188c-0.675,1.861-1.419,3.694-2.279,5.476l0,0c4.289,0.045,8.496,0.431,12.601,1.125
		c0.479-1.13,0.928-2.272,1.345-3.427c-4.028-0.718-8.152-1.148-12.354-1.268C370.522,183.467,370.734,182.825,370.957,182.188z"/>
	<path d="M374.342,163.975c-0.021,1.21-0.059,2.417-0.156,3.61c4.103,0.257,8.138,0.766,12.095,1.502
		c0.112-1.201,0.182-2.412,0.228-3.628C382.525,164.735,378.468,164.23,374.342,163.975z"/>
	<path d="M178.585,385.177c-0.766-0.722-1.53-1.445-2.283-2.183C177.055,383.733,177.819,384.456,178.585,385.177z"/>
	<path d="M273.828,268.122c0-40.063,25.204-74.333,60.58-87.839c0.871,0.577,1.739,1.157,2.598,1.747
		c-2.61-1.822-5.313-3.543-8.079-5.188c0.579,0.346,1.165,0.684,1.738,1.037c-35.44,14.649-60.448,49.574-60.448,90.242
		c0,48.424,35.452,88.707,81.76,96.304c-0.134,0.176-0.271,0.35-0.405,0.527c0.962-1.256,1.906-2.524,2.834-3.805
		C308.911,354.614,273.828,315.396,273.828,268.122z"/>
	<path d="M356.409,197.729c-0.114-0.041-0.218-0.106-0.331-0.153C356.191,197.623,356.295,197.689,356.409,197.729z"/>
	<path d="M267.067,268.122c0-41.157,24.816-76.608,60.261-92.233c-1.3-0.749-2.624-1.465-3.955-2.173
		c-35.377,16.726-59.918,52.747-59.918,94.406c0,50.489,36.04,92.712,83.743,102.315c0.88-1.059,1.759-2.12,2.614-3.201
		C302.824,358.716,267.067,317.53,267.067,268.122z"/>
	<path d="M379.915,134.133c0.519,1.078,1.007,2.171,1.47,3.274C380.923,136.304,380.435,135.212,379.915,134.133z"/>
	<path d="M260.307,268.122c0-42.082,24.314-78.572,59.619-96.22c-2.534-1.256-5.127-2.427-7.762-3.535
		c1.219,0.513,2.413,1.062,3.611,1.607c-35.113,18.697-59.08,55.669-59.08,98.148c0,52.447,36.531,96.494,85.477,108.11
		c-0.816,0.897-1.647,1.779-2.481,2.656c-49.452-12.568-86.143-57.458-86.143-110.766c0-42.813,23.68-80.182,58.617-99.755
		c-1.964-0.826-3.943-1.628-5.959-2.368c0.568,0.208,1.114,0.452,1.678,0.667c-34.654,20.553-57.947,58.327-57.947,101.456
		c0,54.268,36.869,100.063,86.865,113.72c3.625-3.625,7.096-7.434,10.395-11.403c-0.76,0.914-1.529,1.818-2.307,2.715
		C296.591,362.614,260.307,319.536,260.307,268.122z"/>
	<path d="M126.754,256.572c0.161-1.066,0.347-2.124,0.542-3.18C127.102,254.448,126.915,255.506,126.754,256.572z"/>
	<path d="M355.169,197.143c-0.4-0.247-0.779-0.537-1.12-0.88C354.391,196.607,354.768,196.898,355.169,197.143z"/>
	<path d="M374.08,157.178c0.198,1.913,0.301,3.85,0.301,5.807c0-0.726-0.028-1.447-0.056-2.168
		c4.143,0.248,8.219,0.745,12.224,1.451c0.003,0.24,0.019,0.476,0.019,0.717c0-2.588-0.167-5.141-0.462-7.662
		c0.126,1.077,0.224,2.161,0.297,3.251C382.362,157.891,378.255,157.411,374.08,157.178z"/>
</g>
<g>
	<path style="fill:#3E3D59;" d="M312.002,398.869c-1.083,0.687-2.168,1.365-3.267,2.017
		C309.834,400.234,310.919,399.556,312.002,398.869z"/>
	<path style="fill:#3E3D59;" d="M302.373,158.231c-0.019-0.271-0.021-0.545,0.007-0.821
		C302.352,157.686,302.352,157.96,302.373,158.231z"/>
	<path style="fill:#3E3D59;" d="M199.829,328.574c0-37.551-30.55-68.101-68.101-68.101c-1.955,0-3.886,0.102-5.801,0.264
		c0.009-0.109,0.022-0.216,0.031-0.325c-0.231,2.787-0.358,5.599-0.358,8.438c0,2.018,0.081,4.063,0.198,6.12
		c-0.06-1.057-0.102-2.107-0.132-3.154c1.993-0.211,4.014-0.325,6.061-0.325c31.475,0,57.082,25.607,57.082,57.083
		c0,17.382-7.819,32.963-20.113,43.441c2.453,2.75,4.989,5.414,7.605,7.979C190.698,367.499,199.829,349.089,199.829,328.574z
		 M173.517,377.205c-0.731-0.752-1.444-1.523-2.161-2.29c13.079-11.2,21.391-27.813,21.391-46.341
		c0-33.645-27.373-61.018-61.017-61.018c-2.062,0-4.099,0.106-6.108,0.306c0.01-1.057,0.026-2.112,0.069-3.161
		c1.989-0.187,4.002-0.293,6.04-0.293c35.381,0,64.165,28.784,64.165,64.166C195.894,348.003,187.202,365.429,173.517,377.205z"/>
	<path style="fill:#3E3D59;" d="M240.028,265.122c0-46.649,25.136-87.522,62.562-109.836l0.438-4.418
		c-39.737,22.627-66.611,65.347-66.611,114.254c0,57.521,37.164,106.494,88.729,124.257c-0.968,0.788-1.937,1.573-2.921,2.333
		c-51.816-18.724-88.956-68.396-88.956-126.59c0-50.873,28.383-95.236,70.141-118.104l-0.123,1.245l0.731-7.384l-0.179,1.812
		c-44.056,23.12-74.181,69.32-74.181,122.43c0,58.923,37.078,109.341,89.125,129.169c-1.028,0.744-2.072,1.457-3.117,2.17
		c-52.181-20.798-89.156-71.831-89.156-131.339c0-55.052,31.646-102.847,77.699-126.165l0.42-4.242
		c-48.337,23.521-81.731,73.136-81.731,130.407c0,60.142,36.826,111.841,89.109,133.745c5.701-3.618,11.174-7.71,16.382-12.202
		C277.165,370.003,240.028,321.83,240.028,265.122z"/>
	<path style="fill:#3E3D59;" d="M185.662,328.574c0-29.741-24.195-53.935-53.934-53.935c-2.005,0-3.981,0.119-5.93,0.333
		c0.091,1.599,0.217,3.207,0.377,4.826c-0.03-0.298-0.068-0.598-0.095-0.896c1.855-0.21,3.738-0.328,5.648-0.328
		c27.569,0,49.998,22.43,49.998,50c0,15.228-6.852,28.879-17.625,38.057c-0.665-0.811-1.335-1.617-1.986-2.44
		c1.896,2.398,3.864,4.734,5.88,7.023c-0.458-0.521-0.918-1.04-1.371-1.567C178.261,359.747,185.662,345.013,185.662,328.574z"/>
	<path style="fill:#3E3D59;" d="M219.748,265.122c0-59.197,34.921-110.383,85.241-134.064l-0.088,0.891l2.913-29.413
		c0.323-3.265,3.777-5.59,7.442-4.997c15.965,2.582,30.103,9.8,40.552,19.995c-0.001,0-0.001-0.001-0.002-0.002
		c3.966-0.32,7.974-0.49,12.021-0.49c1.055,0,2.105,0.018,3.155,0.04c0.853,1.055,1.67,2.133,2.461,3.227
		c-12.762-17.657-33.756-30.282-58.208-33.641c-3.259-0.448-5.545-3.071-5.259-5.961l6.107-61.668
		c0.322-3.248-2.59-6.041-6.298-6.041H202.217c-3.708,0-6.62,2.794-6.298,6.042l6.118,61.664c0.287,2.891-1.999,5.514-5.26,5.962
		c-40.36,5.538-71.346,36.297-71.346,73.317c0,16.932,6.493,32.548,17.39,45.049c1.548,1.776,1.751,4.196,0.468,6.129
		c-7.88,11.878-13.392,25.115-15.991,39.212c1.467-0.082,2.942-0.133,4.43-0.133c43.193,0,78.333,35.141,78.333,78.333
		c0,23.175-10.125,44.022-26.173,58.377c-0.001-0.001-0.002-0.002-0.004-0.003c8.591,7.372,17.888,13.686,27.75,18.527
		c2.731,1.341,3.97,4.208,2.886,6.788l-15.425,36.742c-0.917,2.184-3.284,3.634-5.931,3.634c-1.875,0-3.649,0.742-4.866,1.997
		c-8.322,8.581-1.553,18.365,7.815,18.365h44.846h30.168h47.708c1.875,0,3.649-0.742,4.866-1.997
		c8.322-8.581,1.553-18.365-7.815-18.365h-1.452l-16.938-40.422c-1.08-2.578,0.156-5.442,2.883-6.783
		c2.834-1.393,5.615-2.923,8.354-4.548C256.41,378.023,219.748,325.778,219.748,265.122z M205.82,162.99
		c-18.503,6.79-34.844,17.219-47.869,30.274c-2.824,2.83-7.971,2.387-10.166-0.845c-6.45-9.498-10.166-20.589-10.166-32.434
		c0-31.091,25.543-57.02,59.143-62.447c3.665-0.592,7.117,1.732,7.441,4.996l5.444,54.865
		C209.884,159.796,208.345,162.063,205.82,162.99z"/>
	<path style="fill:#3E3D59;" d="M305.286,162.578c-0.005-0.003-0.009-0.006-0.013-0.009
		C305.278,162.572,305.282,162.576,305.286,162.578z"/>
	<path style="fill:#3E3D59;" d="M206.913,328.574c0-41.457-33.728-75.184-75.184-75.184c-1.673,0-3.328,0.075-4.975,0.183
		c-0.2,1.321-0.372,2.65-0.521,3.985c1.816-0.139,3.645-0.233,5.496-0.233c39.287,0,71.249,31.962,71.249,71.249
		c0,21.357-9.458,40.534-24.391,53.604c0.961,0.906,1.925,1.807,2.907,2.686C197.067,371.079,206.913,350.959,206.913,328.574z"/>
	<path style="fill:#3E3D59;" d="M246.788,265.122c0-43.528,23.105-81.751,57.686-103.082c-1.012-0.789-1.701-1.851-1.976-3.021
		c-35.565,21.978-59.322,61.312-59.322,106.103c0,55.97,37.082,103.434,87.966,119.135c-0.906,0.82-1.831,1.612-2.753,2.407
		c1.981-1.709,3.927-3.467,5.83-5.285C283.782,366.774,246.788,320.203,246.788,265.122z"/>
	<path style="fill:#3E3D59;" d="M344.208,184.431c-0.998-0.807-2.032-1.578-3.059-2.358
		C342.176,182.852,343.21,183.624,344.208,184.431z"/>
	<path style="fill:#3E3D59;" d="M356.482,355.242c-0.677,0.975-1.375,1.935-2.071,2.896
		C355.108,357.177,355.805,356.217,356.482,355.242z"/>
	<path style="fill:#3E3D59;" d="M358.652,120.491c1.019,1.124,1.997,2.276,2.929,3.46c0,0-0.001-0.001-0.001-0.001
		c2.072-0.091,4.153-0.146,6.247-0.146c2.735,0,5.449,0.086,8.146,0.241c-0.802-1.268-1.648-2.512-2.531-3.733
		c-1.864-0.071-3.734-0.119-5.616-0.119C364.744,120.192,361.687,120.3,358.652,120.491z"/>
	<path style="fill:#3E3D59;" d="M336.798,378.846c-0.853,0.853-1.709,1.701-2.579,2.532
		C335.089,380.547,335.945,379.698,336.798,378.846z"/>
	<path style="fill:#3E3D59;" d="M367.827,126.952c-1.333,0-2.661,0.024-3.986,0.061c0.816,1.175,1.598,2.369,2.327,3.593
		c0,0,0,0,0-0.001c0.555-0.007,1.103-0.042,1.659-0.042c4.077,0,8.103,0.213,12.089,0.57c-1.172-2.433-2.492-4.796-3.942-7.089
		c0.682,1.078,1.34,2.169,1.961,3.279C374.596,127.08,371.226,126.952,367.827,126.952z"/>
	<path style="fill:#3E3D59;" d="M367.888,133.711c0.624,1.201,1.209,2.419,1.749,3.658l0,0c4.463,0.063,8.869,0.356,13.212,0.867
		c0.382,1.092,0.735,2.195,1.06,3.308c-4.267-0.552-8.599-0.886-12.988-0.994v0c0.439,1.198,0.824,2.416,1.183,3.643
		c0,0,0-0.001,0-0.001c4.323,0.151,8.59,0.522,12.788,1.117c0.247,1.078,0.466,2.163,0.659,3.257
		c-4.14-0.627-8.353-1.022-12.62-1.205c0,0,0,0,0-0.001c0.276,1.2,0.523,2.409,0.721,3.632c0,0,0-0.001,0-0.001
		c4.217,0.213,8.369,0.672,12.455,1.332c-0.731-6.231-2.34-12.234-4.72-17.914c-4.438-0.457-8.941-0.694-13.497-0.696
		C367.888,133.712,367.888,133.712,367.888,133.711z"/>
	<path style="fill:#3E3D59;" d="M364.215,192.418c-0.254,0.374-0.556,0.703-0.882,1.001
		C363.66,193.124,363.96,192.794,364.215,192.418z"/>
	<path style="fill:#3E3D59;" d="M361.218,194.673c0.038-0.014,0.073-0.031,0.111-0.046
		C361.291,194.642,361.255,194.659,361.218,194.673z"/>
	<path style="fill:#3E3D59;" d="M178.579,328.574c0-25.835-21.017-46.852-46.85-46.852c-1.798,0-3.569,0.112-5.314,0.31
		c0.423,3.596,0.997,7.228,1.744,10.888c1.175-0.117,2.365-0.179,3.57-0.179c19.758,0,35.831,16.074,35.831,35.832
		c0,10.624-4.652,20.177-12.021,26.745c0.751,1.081,1.525,2.147,2.3,3.211c8.359-7.296,13.657-18.016,13.657-29.956
		c0-21.927-17.839-39.767-39.767-39.767c-1.45,0-2.88,0.083-4.289,0.235c-0.181-1.04-0.342-2.075-0.497-3.109
		c1.572-0.175,3.168-0.273,4.786-0.273c23.663,0,42.915,19.251,42.915,42.915c0,12.977-5.798,24.619-14.93,32.494
		c-0.633-0.839-1.255-1.686-1.873-2.536c1.391,1.912,2.809,3.804,4.275,5.658C172.18,355.59,178.579,342.819,178.579,328.574z"/>
	<path style="fill:#3E3D59;" d="M164.412,328.574c0-18.021-14.662-32.684-32.683-32.684c-0.971,0-1.927,0.062-2.877,0.146
		c4.578,20.081,13.822,40.712,26.559,59.094c-0.565-0.818-1.117-1.643-1.669-2.468C160.28,346.681,164.412,338.112,164.412,328.574z
		"/>
	<path style="fill:#3E3D59;" d="M362.316,194.16c0.137-0.079,0.258-0.181,0.388-0.271
		C362.575,193.98,362.451,194.079,362.316,194.16z"/>
	<path style="fill:#3E3D59;" d="M280.588,265.122c0-38.8,25.468-71.751,60.559-83.051c-1.163-0.883-2.319-1.773-3.518-2.621
		c-35.292,12.477-60.654,46.16-60.654,85.672c0,46.253,34.75,84.515,79.507,90.119c1.45-2.087,2.842-4.209,4.2-6.35
		c-0.637,1.004-1.276,2.006-1.933,2.998C314.897,347.335,280.588,310.162,280.588,265.122z"/>
	<path style="fill:#3E3D59;" d="M287.347,265.122c0-37.367,25.6-68.863,60.182-77.883c-1.094-0.949-2.19-1.895-3.321-2.809
		c-34.903,10.234-60.472,42.523-60.472,80.692c0,43.962,33.914,80.128,76.948,83.767c0.727-1.147,1.447-2.297,2.147-3.458
		C320.774,342.842,287.347,307.821,287.347,265.122z"/>
	<path style="fill:#3E3D59;" d="M367.024,187.811c-0.695,1.246-1.435,2.469-2.218,3.668c1.003-0.041,2.008-0.077,3.021-0.077
		c3.523,0,6.984,0.264,10.376,0.744c-0.548,0.996-1.114,1.983-1.711,2.955c-2.842-0.35-5.73-0.551-8.665-0.551
		c-2.635,0-5.233,0.157-7.793,0.44c-0.312,0.056-0.621,0.105-0.938,0.119c-34.805,4.317-61.841,34.057-61.841,70.012
		c0,38.913,31.659,70.572,70.572,70.572c0.163,0,0.323-0.011,0.486-0.012c0.733-1.402,1.451-2.809,2.144-4.224
		c-0.091,0.188-0.177,0.378-0.27,0.565c-0.785,0.027-1.569,0.06-2.36,0.06c-36.922,0-66.959-30.039-66.959-66.961
		s30.037-66.96,66.959-66.96c2.174,0,4.321,0.113,6.443,0.316c-0.702,1.013-1.433,2.009-2.188,2.989
		c3.068-3.984,5.708-8.24,7.863-12.721c-3.949-0.624-7.995-0.956-12.117-0.956C367.558,187.791,367.293,187.808,367.024,187.811z"/>
	<path style="fill:#3E3D59;" d="M304.016,265.122c0,35.187,28.626,63.813,63.811,63.813c1.309,0,2.605-0.052,3.895-0.13
		c9.366-19.957,14.677-40.891,14.677-59.955c0-21.034-6.447-40.741-17.689-57.688c-1.282-1.933-1.08-4.353,0.468-6.129
		c1.011-1.159,1.97-2.354,2.903-3.566c-1.408-0.093-2.823-0.158-4.254-0.158C332.642,201.311,304.016,229.937,304.016,265.122z"/>
	<path style="fill:#3E3D59;" d="M294.107,265.122c0-35.768,25.609-65.657,59.453-72.322c-1.934-1.917-3.956-3.762-6.03-5.561
		c0.968,0.84,1.921,1.692,2.859,2.558c-34.266,7.932-59.894,38.681-59.894,75.325c0,41.573,32.98,75.574,74.148,77.251
		c1.276-2.21,2.494-4.442,3.669-6.69c-0.547,1.047-1.108,2.089-1.677,3.129C326.535,338.17,294.107,305.372,294.107,265.122z"/>
	<path style="fill:#3E3D59;" d="M381.279,185.789c-0.422,0.996-0.867,1.981-1.335,2.957
		C380.413,187.771,380.857,186.785,381.279,185.789z"/>
	<path style="fill:#3E3D59;" d="M373.817,167.713c0.056-0.403,0.092-0.811,0.143-1.216c-0.189,1.615-0.443,3.212-0.768,4.789v0
		c4.114,0.233,8.153,0.744,12.11,1.491c-0.205,1.032-0.436,2.057-0.689,3.074c-3.968-0.745-8.019-1.254-12.149-1.463c0,0,0,0,0,0
		c-0.321,1.208-0.672,2.405-1.07,3.586c4.162,0.169,8.246,0.637,12.239,1.371c-0.313,1.014-0.649,2.019-1.009,3.016
		c1.878-5.203,3.132-10.647,3.656-16.273c-0.098,1.05-0.22,2.094-0.367,3.131C381.959,168.474,377.924,167.963,373.817,167.713z"/>
	<path style="fill:#3E3D59;" d="M370.957,179.188c-0.675,1.861-1.419,3.694-2.279,5.476l0,0c4.289,0.045,8.496,0.431,12.601,1.125
		c0.479-1.13,0.928-2.272,1.345-3.427c-4.028-0.718-8.152-1.148-12.354-1.268C370.522,180.467,370.734,179.825,370.957,179.188z"/>
	<path style="fill:#3E3D59;" d="M374.342,160.975c-0.021,1.21-0.059,2.417-0.156,3.61c4.103,0.257,8.138,0.766,12.095,1.502
		c0.112-1.201,0.182-2.412,0.228-3.628C382.525,161.735,378.468,161.23,374.342,160.975z"/>
	<path style="fill:#3E3D59;" d="M178.585,382.177c-0.766-0.722-1.53-1.445-2.283-2.183
		C177.055,380.733,177.819,381.456,178.585,382.177z"/>
	<path style="fill:#3E3D59;" d="M273.828,265.122c0-40.063,25.204-74.333,60.58-87.839c0.871,0.577,1.739,1.157,2.598,1.747
		c-2.61-1.822-5.313-3.543-8.079-5.188c0.579,0.346,1.165,0.684,1.738,1.037c-35.44,14.649-60.448,49.574-60.448,90.242
		c0,48.424,35.452,88.707,81.76,96.304c-0.134,0.176-0.271,0.35-0.405,0.527c0.962-1.256,1.906-2.524,2.834-3.805
		C308.911,351.614,273.828,312.396,273.828,265.122z"/>
	<path style="fill:#3E3D59;" d="M356.409,194.729c-0.114-0.041-0.218-0.106-0.331-0.153
		C356.191,194.623,356.295,194.689,356.409,194.729z"/>
	<path style="fill:#3E3D59;" d="M267.067,265.122c0-41.157,24.816-76.608,60.261-92.233c-1.3-0.749-2.624-1.465-3.955-2.173
		c-35.377,16.726-59.918,52.747-59.918,94.406c0,50.489,36.04,92.712,83.743,102.315c0.88-1.059,1.759-2.12,2.614-3.201
		C302.824,355.716,267.067,314.53,267.067,265.122z"/>
	<path style="fill:#3E3D59;" d="M379.915,131.133c0.519,1.078,1.007,2.171,1.47,3.274
		C380.923,133.304,380.435,132.212,379.915,131.133z"/>
	<path style="fill:#3E3D59;" d="M260.307,265.122c0-42.082,24.314-78.572,59.619-96.22c-2.534-1.256-5.127-2.427-7.762-3.535
		c1.219,0.513,2.413,1.062,3.611,1.607c-35.113,18.697-59.08,55.669-59.08,98.148c0,52.447,36.531,96.494,85.477,108.11
		c-0.816,0.897-1.647,1.779-2.481,2.656c-49.452-12.568-86.143-57.458-86.143-110.766c0-42.813,23.68-80.182,58.617-99.755
		c-1.964-0.826-3.943-1.628-5.959-2.368c0.568,0.208,1.114,0.452,1.678,0.667c-34.654,20.553-57.947,58.327-57.947,101.456
		c0,54.268,36.869,100.063,86.865,113.72c3.625-3.625,7.096-7.434,10.395-11.403c-0.76,0.914-1.529,1.818-2.307,2.715
		C296.591,359.614,260.307,316.536,260.307,265.122z"/>
	<path style="fill:#3E3D59;" d="M126.754,253.572c0.161-1.066,0.347-2.124,0.542-3.18
		C127.102,251.448,126.915,252.506,126.754,253.572z"/>
	<path style="fill:#3E3D59;" d="M355.169,194.143c-0.4-0.247-0.779-0.537-1.12-0.88
		C354.391,193.607,354.768,193.898,355.169,194.143z"/>
	<path style="fill:#3E3D59;" d="M374.08,154.178c0.198,1.913,0.301,3.85,0.301,5.807c0-0.726-0.028-1.447-0.056-2.168
		c4.143,0.248,8.219,0.745,12.224,1.451c0.003,0.24,0.019,0.476,0.019,0.717c0-2.588-0.167-5.141-0.462-7.662
		c0.126,1.077,0.224,2.161,0.297,3.251C382.362,154.891,378.255,154.411,374.08,154.178z"/>
</g>
</svg>
