<?xml version="1.0" encoding="utf-8"?>
<!-- Generator: Adobe Illustrator 18.0.0, SVG Export Plug-In . SVG Version: 6.00 Build 0)  -->
<!DOCTYPE svg PUBLIC "-//W3C//DTD SVG 1.1//EN" "http://www.w3.org/Graphics/SVG/1.1/DTD/svg11.dtd">
<svg version="1.1" id="Layer_1" xmlns="http://www.w3.org/2000/svg" xmlns:xlink="http://www.w3.org/1999/xlink" x="0px" y="0px"
	 viewBox="0 0 512 512" style="enable-background:new 0 0 512 512;" xml:space="preserve">
<g>
	
		<linearGradient id="SVGID_1_" gradientUnits="userSpaceOnUse" x1="774.6013" y1="874.5263" x2="472.4243" y2="1063.6411" gradientTransform="matrix(0.7071 0.7071 0.7071 -0.7071 -929.8653 307.9587)">
		<stop  offset="0" style="stop-color:#D6FFA1"/>
		<stop  offset="0.3264" style="stop-color:#93E2A7"/>
		<stop  offset="1" style="stop-color:#00A3B5"/>
	</linearGradient>
	<path style="fill:url(#SVGID_1_);" d="M356.166,184.004L76.744,30.382c-7.92-4.338-15.222-5.35-21.134-3.501l228.865,228.834
		L356.166,184.004z"/>
	
		<linearGradient id="SVGID_2_" gradientUnits="userSpaceOnUse" x1="598.906" y1="1036.0762" x2="990.6937" y2="933.6578" gradientTransform="matrix(0.7071 0.7071 0.7071 -0.7071 -929.8653 307.9587)">
		<stop  offset="0" style="stop-color:#FF177B"/>
		<stop  offset="0.6721" style="stop-color:#FFA976"/>
		<stop  offset="1" style="stop-color:#FFEC73"/>
	</linearGradient>
	<path style="fill:url(#SVGID_2_);" d="M356.522,327.775l95.383-52.446c19.349-10.662,19.349-28.055,0-38.677l-95.727-52.646
		l-71.702,71.711L356.522,327.775z"/>
	
		<linearGradient id="SVGID_3_" gradientUnits="userSpaceOnUse" x1="817.6177" y1="731.0651" x2="392.7758" y2="981.0165" gradientTransform="matrix(0.7071 0.7071 0.7071 -0.7071 -929.8653 307.9587)">
		<stop  offset="0" style="stop-color:#63FFD4"/>
		<stop  offset="0.4854" style="stop-color:#32A0BA"/>
		<stop  offset="0.8349" style="stop-color:#1262A9"/>
		<stop  offset="1" style="stop-color:#064AA2"/>
	</linearGradient>
	<path style="fill:url(#SVGID_3_);" d="M55.59,26.881c-8.495,2.662-14.007,11.265-14.007,24.277l0.063,409.648
		c0,12.863,5.325,21.352,13.59,24.18l229.22-229.247L55.59,26.881z"/>
	
		<linearGradient id="SVGID_4_" gradientUnits="userSpaceOnUse" x1="971.8619" y1="929.5336" x2="710.2731" y2="584.9033" gradientTransform="matrix(0.7071 0.7071 0.7071 -0.7071 -929.8653 307.9587)">
		<stop  offset="0" style="stop-color:#FF4521"/>
		<stop  offset="0.3411" style="stop-color:#D43E65"/>
		<stop  offset="0.7935" style="stop-color:#9F36B9"/>
		<stop  offset="1" style="stop-color:#8A33DB"/>
	</linearGradient>
	<path style="fill:url(#SVGID_4_);" d="M55.236,484.989c5.951,2.013,13.402,1.086,21.51-3.377l279.749-153.837l-72.039-72.033
		L55.236,484.989z"/>
</g>
</svg>
