<?xml version="1.0" encoding="utf-8"?>
<!-- Generator: Adobe Illustrator 18.0.0, SVG Export Plug-In . SVG Version: 6.00 Build 0)  -->
<!DOCTYPE svg PUBLIC "-//W3C//DTD SVG 1.1//EN" "http://www.w3.org/Graphics/SVG/1.1/DTD/svg11.dtd">
<svg version="1.1" id="Layer_3" xmlns="http://www.w3.org/2000/svg" xmlns:xlink="http://www.w3.org/1999/xlink" x="0px" y="0px"
	 viewBox="0 0 512 512" enable-background="new 0 0 512 512" xml:space="preserve">
<g>
	<g>
		<path opacity="0.4" enable-background="new    " d="M294.1,97.5c94.4,0,170.9,74.8,170.9,167.1c0,52.6-24.8,99.4-63.6,130.1
			l21.9,37.1H294.1c-94.4,0-170.9-74.8-170.9-167.1S199.7,97.5,294.1,97.5z"/>
		<path fill="#27B2FF" d="M294.1,80.3c93.5,0,169.3,75.8,169.3,169.3c0,53.2-24.6,100.7-63,131.8l21.7,37.5h-128
			c-93.5,0-169.3-75.8-169.3-169.3S200.6,80.3,294.1,80.3z"/>
	</g>
	<g>
		<path opacity="0.4" enable-background="new    " d="M185.9,127.1C109.2,127.1,47,187.9,47,262.9c0,42.7,20.2,80.8,51.7,105.7
			l-17.8,30.1h105c76.7,0,138.9-60.8,138.9-135.8S262.6,127.1,185.9,127.1z"/>
		<path fill="#F9F9F9" d="M184.6,112.7c-76,0-137.6,61.6-137.6,137.6c0,43.3,20,81.9,51.2,107.1l-17.6,30.5h104
			c76,0,137.6-61.6,137.6-137.6S260.6,112.7,184.6,112.7z"/>
	</g>
</g>
</svg>
