<?xml version="1.0" encoding="utf-8"?>
<!-- Generator: Adobe Illustrator 18.0.0, SVG Export Plug-In . SVG Version: 6.00 Build 0)  -->
<!DOCTYPE svg PUBLIC "-//W3C//DTD SVG 1.1//EN" "http://www.w3.org/Graphics/SVG/1.1/DTD/svg11.dtd">
<svg version="1.1" id="Layer_3" xmlns="http://www.w3.org/2000/svg" xmlns:xlink="http://www.w3.org/1999/xlink" x="0px" y="0px"
	 viewBox="0 0 512 512" style="enable-background:new 0 0 512 512;" xml:space="preserve">
<g>
	<g>
		<path style="opacity:0.4;enable-background:new    ;" d="M196.883,97.706C102.507,97.706,26,172.53,26,264.83
			c0,52.555,24.812,99.434,63.595,130.071l-21.874,37.053h129.162c94.376,0,170.883-74.824,170.883-167.124
			S291.259,97.706,196.883,97.706z"/>
		<path style="fill:#57FFCB;" d="M195.286,80.046C101.792,80.046,26,155.838,26,249.332c0,53.235,24.58,100.721,63.001,131.754
			l-21.67,37.532h127.955c93.494,0,169.286-75.792,169.286-169.286S288.78,80.046,195.286,80.046z"/>
	</g>
	<g>
		<path style="opacity:0.4;enable-background:new    ;" d="M315.117,97.706C409.493,97.706,486,172.53,486,264.83
			c0,52.555-24.812,99.434-63.595,130.071l21.874,37.053H315.117c-94.376,0-170.883-74.824-170.883-167.124
			S220.741,97.706,315.117,97.706z"/>
		<path style="fill:#55EBFF;" d="M315.117,80.546c93.494,0,169.286,75.792,169.286,169.286c0,53.235-24.58,100.721-63.001,131.754
			l21.67,37.532H315.117c-93.494,0-169.286-75.792-169.286-169.286S221.623,80.546,315.117,80.546z"/>
	</g>
</g>
<g>
	<path style="fill:#FFFFFF;" d="M321.032,285.802h-27.97l-8.476,43.333h-15.15l8.476-43.333h-25.322V271.18h28.076l7.311-37.613
		h-27.335v-14.62h30.196l8.687-44.075h15.151l-8.687,44.075h27.97l8.688-44.075h15.257l-8.688,44.075h21.614v14.62h-24.475
		l-7.31,37.613h23.838v14.622h-26.593l-8.476,43.333h-15.257L321.032,285.802z M295.816,271.18h27.972l7.31-37.613h-27.97
		L295.816,271.18z"/>
</g>
</svg>
