<?xml version="1.0" encoding="utf-8"?>
<!-- Generator: Adobe Illustrator 18.0.0, SVG Export Plug-In . SVG Version: 6.00 Build 0)  -->
<!DOCTYPE svg PUBLIC "-//W3C//DTD SVG 1.1//EN" "http://www.w3.org/Graphics/SVG/1.1/DTD/svg11.dtd">
<svg version="1.1" id="Layer_3" xmlns="http://www.w3.org/2000/svg" xmlns:xlink="http://www.w3.org/1999/xlink" x="0px" y="0px"
	 viewBox="0 0 512 512" enable-background="new 0 0 512 512" xml:space="preserve">
<radialGradient id="SVGID_1_" cx="260.6667" cy="484.6667" r="439.3338" gradientUnits="userSpaceOnUse">
	<stop  offset="1.933882e-02" style="stop-color:#FAAD1C"/>
	<stop  offset="0.3892" style="stop-color:#F26731"/>
	<stop  offset="0.7239" style="stop-color:#E71670"/>
	<stop  offset="1" style="stop-color:#652F8C"/>
</radialGradient>
<path fill="url(#SVGID_1_)" d="M446,486H66c-22.1,0-40-17.9-40-40V66c0-22.1,17.9-40,40-40h380c22.1,0,40,17.9,40,40v380
	C486,468.1,468.1,486,446,486z"/>
<g>
	<g>
		<path fill="#FFFFFF" d="M288.6,193.2c-3.2-3.2-6.7-5.9-10.4-8c11.4,19.5,8.7,45-8,61.7s-42.2,19.4-61.7,8c2.2,3.7,4.8,7.2,8,10.4
			c19.9,19.9,52.2,19.9,72.2,0S308.5,213.1,288.6,193.2z"/>
		<g>
			<polygon fill="#E2E2E2" points="295.3,376.7 292,343.5 220,343.5 216.7,376.7 			"/>
			<rect x="199.4" y="375.8" fill="#969696" width="113.2" height="4.4"/>
			<g>
				<path fill="#0E0E0E" d="M405,131.9H107c-5.4,0-9.7,4.3-9.7,9.7v192.3c0,5.4,4.3,9.7,9.7,9.7H405c5.4,0,9.7-4.3,9.7-9.7V141.6
					C414.7,136.2,410.4,131.9,405,131.9z M401,323.1c0,0.8-0.6,1.4-1.4,1.4H112.4c-0.8,0-1.4-0.6-1.4-1.4V152.2
					c0-0.8,0.6-1.4,1.4-1.4h287.2c0.8,0,1.4,0.6,1.4,1.4V323.1z"/>
				
					<linearGradient id="SVGID_2_" gradientUnits="userSpaceOnUse" x1="257.3838" y1="276.317" x2="414.724" y2="276.317" gradientTransform="matrix(1 0 0 -1 0 514)">
					<stop  offset="0" style="stop-color:#FFFFFF"/>
					<stop  offset="1" style="stop-color:#FFFFFF;stop-opacity:0"/>
				</linearGradient>
				<path opacity="0.4" fill="url(#SVGID_2_)" enable-background="new    " d="M405,343.5c5.4,0,9.7-4.3,9.7-9.7V141.6
					c0-5.4-4.3-9.7-9.7-9.7H257.4L405,343.5z"/>
			</g>
		</g>
	</g>
</g>
</svg>
