<?xml version="1.0" encoding="utf-8"?>
<!-- Generator: Adobe Illustrator 18.0.0, SVG Export Plug-In . SVG Version: 6.00 Build 0)  -->
<!DOCTYPE svg PUBLIC "-//W3C//DTD SVG 1.1//EN" "http://www.w3.org/Graphics/SVG/1.1/DTD/svg11.dtd">
<svg version="1.1" id="Layer_1" xmlns="http://www.w3.org/2000/svg" xmlns:xlink="http://www.w3.org/1999/xlink" x="0px" y="0px"
	 viewBox="0 0 512 512" style="enable-background:new 0 0 512 512;" xml:space="preserve">
<g>
	<g>
		<path style="fill:#00BDFF;" d="M326.3,486H86.6C53.6,486,27,459.3,27,426.4V186.7c0-32.9,26.7-59.6,59.6-59.6h239.7
			c32.9,0,59.6,26.7,59.6,59.6v239.7C385.9,459.3,359.2,486,326.3,486z"/>
		<path style="fill:#FFFFFF;" d="M326.3,147.1c21.8,0,39.6,17.8,39.6,39.6v239.7c0,21.8-17.8,39.6-39.6,39.6H86.6
			C64.7,466,47,448.2,47,426.4V186.7c0-21.8,17.8-39.6,39.6-39.6H326.3 M326.3,127.1H86.6c-32.9,0-59.6,26.7-59.6,59.6v239.7
			c0,32.9,26.7,59.6,59.6,59.6h239.7c32.9,0,59.6-26.7,59.6-59.6V186.7C385.9,153.8,359.2,127.1,326.3,127.1L326.3,127.1z"/>
	</g>
	<g>
		<circle style="fill:#FF0000;" cx="363.9" cy="147.2" r="121.2"/>
		<path style="fill:#FFFFFF;" d="M363.9,46C419.7,46,465,91.4,465,147.2s-45.4,101.2-101.2,101.2s-101.2-45.4-101.2-101.2
			S308.1,46,363.9,46 M363.9,26C297,26,242.7,80.2,242.7,147.2S297,268.3,363.9,268.3c66.9,0,121.2-54.2,121.2-121.2
			S430.8,26,363.9,26L363.9,26z"/>
	</g>
</g>
</svg>
