<?xml version="1.0" encoding="utf-8"?>
<!-- Generator: Adobe Illustrator 18.0.0, SVG Export Plug-In . SVG Version: 6.00 Build 0)  -->
<!DOCTYPE svg PUBLIC "-//W3C//DTD SVG 1.1//EN" "http://www.w3.org/Graphics/SVG/1.1/DTD/svg11.dtd">
<svg version="1.1" id="Layer_1" xmlns="http://www.w3.org/2000/svg" xmlns:xlink="http://www.w3.org/1999/xlink" x="0px" y="0px"
	 viewBox="0 0 512 512" enable-background="new 0 0 512 512" xml:space="preserve">
<path opacity="0.4" enable-background="new    " d="M256,30C129,30,26,133,26,260s103,230,230,230s230-103,230-230S383,30,256,30z
	 M256,162.5c10.5,0,19.1,8.6,19.1,19.1s-8.5,19.1-19.1,19.1s-19.1-8.6-19.1-19.1S245.5,162.5,256,162.5z M331,208.8l-53.1,13.9v44.2
	c0,0,0,0,0,0v83c0,4.2-3.4,7.7-7.7,7.7c-4.2,0-7.7-3.4-7.7-7.7v-78.3h-13.2v78.3c0,4.2-3.4,7.7-7.7,7.7s-7.7-3.4-7.7-7.7v-83
	c0,0,0,0,0,0v-44.2L181,208.8c-3.6-0.9-5.8-4.1-5.1-7.1l0.1-0.5c0.8-3,4.3-4.7,7.9-3.7l53.1,13.9c0.5-0.2,37.2-0.2,37.8,0l53.1-13.9
	c3.6-0.9,7.1,0.7,7.9,3.7l0.1,0.5C336.8,204.6,334.6,207.8,331,208.8z"/>
<path fill="#4BB5EF" d="M256,26C129,26,26,129,26,256s103,230,230,230s230-103,230-230S383,26,256,26z M256,158.5
	c10.5,0,19.1,8.6,19.1,19.1s-8.5,19.1-19.1,19.1s-19.1-8.6-19.1-19.1S245.5,158.5,256,158.5z M331,204.8l-53.1,13.9v44.2
	c0,0,0,0,0,0v83c0,4.2-3.4,7.7-7.7,7.7c-4.2,0-7.7-3.4-7.7-7.7v-78.3h-13.2v78.3c0,4.2-3.4,7.7-7.7,7.7s-7.7-3.4-7.7-7.7v-83
	c0,0,0,0,0,0v-44.2L181,204.8c-3.6-0.9-5.8-4.1-5.1-7.1l0.1-0.5c0.8-3,4.3-4.7,7.9-3.7l53.1,13.9c0.5-0.2,37.2-0.2,37.8,0l53.1-13.9
	c3.6-0.9,7.1,0.7,7.9,3.7l0.1,0.5C336.8,200.6,334.6,203.8,331,204.8z"/>
</svg>
