<?xml version="1.0" encoding="utf-8"?>
<!-- Generator: Adobe Illustrator 18.0.0, SVG Export Plug-In . SVG Version: 6.00 Build 0)  -->
<!DOCTYPE svg PUBLIC "-//W3C//DTD SVG 1.1//EN" "http://www.w3.org/Graphics/SVG/1.1/DTD/svg11.dtd">
<svg version="1.1" id="Layer_1" xmlns="http://www.w3.org/2000/svg" xmlns:xlink="http://www.w3.org/1999/xlink" x="0px" y="0px"
	 viewBox="0 0 512 512" style="enable-background:new 0 0 512 512;" xml:space="preserve">
<linearGradient id="SVGID_1_" gradientUnits="userSpaceOnUse" x1="26" y1="256" x2="486" y2="256">
	<stop  offset="0" style="stop-color:#35A8D9"/>
	<stop  offset="1" style="stop-color:#35A8D9"/>
</linearGradient>
<circle style="fill:url(#SVGID_1_);" cx="256" cy="256" r="230"/>
<g>
	<g>
		<path style="fill:#93D8F0;" d="M414.223,422.921l8.698-8.698c10.749-11.336,20.348-23.771,28.627-37.112l-74.438,74.438
			C390.451,443.269,402.887,433.67,414.223,422.921z"/>
		<path style="fill:#93D8F0;" d="M348.302,466.711l118.409-118.409c2.034-4.637,3.926-9.35,5.657-14.141L334.161,472.368
			C338.952,470.637,343.665,468.745,348.302,466.711z"/>
		<path style="fill:#93D8F0;" d="M314.361,478.521l164.16-164.16c0.958-3.662,1.827-7.36,2.607-11.091L303.27,481.128
			C307.001,480.348,310.699,479.479,314.361,478.521z"/>
		<path style="fill:#93D8F0;" d="M286.811,483.94L483.94,286.811c0.424-3.166,0.78-6.353,1.074-9.558l-207.76,207.76
			C280.458,484.72,283.645,484.364,286.811,483.94z"/>
		<path style="fill:#93D8F0;" d="M485.986,254.905c-0.001-0.249-0.008-0.497-0.009-0.746L254.159,485.977
			c0.247,0.002,0.493,0.008,0.74,0.009c0.704,0.002,1.408,0.002,2.111,0.001c1.91-0.008,3.816-0.038,5.715-0.092l223.17-223.17
			c0.055-1.902,0.084-3.81,0.092-5.723C485.988,256.303,485.988,255.604,485.986,254.905z"/>
		<path style="fill:#93D8F0;" d="M484.87,233.134L233.134,484.87c2.605,0.257,5.225,0.46,7.855,0.629l244.51-244.51
			C485.33,238.36,485.127,235.739,484.87,233.134z"/>
		<path style="fill:#93D8F0;" d="M482.115,213.758L213.758,482.115c2.404,0.446,4.816,0.868,7.245,1.239l262.351-262.351
			C482.983,218.574,482.561,216.161,482.115,213.758z"/>
		<path style="fill:#93D8F0;" d="M478.006,195.736l-282.27,282.27c2.241,0.607,4.493,1.184,6.761,1.724l277.233-277.233
			C479.189,200.229,478.613,197.977,478.006,195.736z"/>
		<path style="fill:#93D8F0;" d="M472.734,178.877L178.877,472.734c2.098,0.747,4.21,1.462,6.335,2.149l289.671-289.671
			C474.196,183.087,473.48,180.975,472.734,178.877z"/>
		<path style="fill:#93D8F0;" d="M466.428,163.051L163.051,466.428c1.97,0.871,3.955,1.714,5.953,2.531l299.955-299.955
			C468.142,167.006,467.3,165.021,466.428,163.051z"/>
		<path style="fill:#93D8F0;" d="M459.187,148.162L148.162,459.187c1.853,0.985,3.721,1.945,5.604,2.881l308.302-308.302
			C461.132,151.883,460.172,150.015,459.187,148.162z"/>
		<path style="fill:#93D8F0;" d="M284.954,308.747l169.332-169.332c-1.046-1.775-2.115-3.534-3.206-5.278L298.123,287.095
			l-50.135,50.135l-113.85,113.85c1.744,1.092,3.503,2.161,5.278,3.206l108.572-108.572L284.954,308.747z"/>
		<path style="fill:#93D8F0;" d="M262.064,309.506l19.304-19.304l9.954-9.954l154.353-154.353c-1.15-1.673-2.322-3.329-3.515-4.97
			L287.093,275.993l-9.954,9.954l-15.075,15.075l-14.077,14.077L120.926,442.159c1.641,1.193,3.297,2.365,4.97,3.515
			l122.091-122.091L262.064,309.506z"/>
		<path style="fill:#93D8F0;" d="M262.064,287.375l8.274-8.274l9.954-9.954l155.98-155.98c-1.25-1.575-2.522-3.131-3.812-4.673
			L276.064,264.891l-9.953,9.953l-4.046,4.046l-14.077,14.077L108.494,432.461c1.541,1.29,3.098,2.562,4.673,3.812l134.821-134.821
			L262.064,287.375z"/>
		<path style="fill:#93D8F0;" d="M269.262,258.045L426.108,101.2c-1.347-1.48-2.717-2.938-4.102-4.382L300.085,218.739
			l-79.069,79.069L96.818,422.005c1.444,1.385,2.903,2.755,4.382,4.102L247.987,279.32L269.262,258.045z"/>
		<path style="fill:#93D8F0;" d="M293.756,211.42L415.182,89.995c-1.444-1.385-2.903-2.755-4.382-4.102L289.822,206.87l-9.98,9.98
			l-17.778,17.778l-18.013,18.013L85.892,410.8c1.347,1.48,2.717,2.938,4.102,4.382l124.266-124.266L293.756,211.42z"/>
		<path style="fill:#93D8F0;" d="M247.204,235.842l0.785-0.785l14.076-14.076l11.45-11.45l9.98-9.98L403.506,79.54
			c-1.541-1.29-3.097-2.562-4.673-3.812L279.56,195.002l-9.98,9.98l-7.516,7.516l-14.076,14.076l-5.013,5.013l-9.953,9.953
			L75.728,398.834c1.25,1.575,2.522,3.131,3.812,4.673L237.25,245.796L247.204,235.842z"/>
		<path style="fill:#93D8F0;" d="M236.174,224.741l11.814-11.814l14.076-14.076v-2.56l1.187,1.373l9.98-9.98L391.074,69.841
			c-1.641-1.193-3.297-2.365-4.97-3.515L269.297,183.133l-21.308,21.308l-16.043,16.043l-9.953,9.953L66.326,386.104
			c1.15,1.673,2.322,3.329,3.515,4.97l156.38-156.38L236.174,224.741z"/>
		<path style="fill:#93D8F0;" d="M225.144,213.639l22.844-22.844l14.98-14.98L377.862,60.92c-1.744-1.092-3.503-2.16-5.278-3.206
			L259.034,171.265l-11.045,11.045L57.714,372.584c1.046,1.775,2.115,3.534,3.206,5.278l154.271-154.271L225.144,213.639z"/>
		<path style="fill:#93D8F0;" d="M252.706,163.946L363.838,52.814c-1.853-0.985-3.721-1.945-5.604-2.881L248.771,159.396
			l-0.783,0.783L49.933,358.235c0.936,1.883,1.895,3.751,2.881,5.604l195.175-195.175L252.706,163.946z"/>
		<path style="fill:#93D8F0;" d="M342.996,43.041L43.041,342.996c0.817,1.998,1.66,3.983,2.531,5.953L348.949,45.572
			C346.979,44.7,344.994,43.858,342.996,43.041z"/>
		<path style="fill:#93D8F0;" d="M326.788,37.117L37.117,326.788c0.687,2.125,1.403,4.237,2.149,6.335L333.123,39.266
			C331.025,38.52,328.913,37.804,326.788,37.117z"/>
		<path style="fill:#93D8F0;" d="M309.504,32.271L32.271,309.504c0.54,2.267,1.117,4.52,1.724,6.761l282.27-282.27
			C314.024,33.388,311.771,32.811,309.504,32.271z"/>
		<path style="fill:#93D8F0;" d="M290.997,28.646L28.646,290.997c0.371,2.429,0.793,4.841,1.239,7.245L298.242,29.885
			C295.839,29.439,293.426,29.017,290.997,28.646z"/>
		<path style="fill:#93D8F0;" d="M271.011,26.5L26.5,271.011c0.169,2.63,0.372,5.25,0.629,7.855L278.866,27.13
			C276.261,26.873,273.64,26.67,271.011,26.5z"/>
		<path style="fill:#93D8F0;" d="M257.095,26.014c-0.699-0.002-1.398-0.002-2.098-0.001c-1.913,0.008-3.821,0.038-5.722,0.092
			l-223.17,223.17c-0.055,1.902-0.084,3.809-0.092,5.722c0,0.699-0.001,1.398,0.001,2.098c0.001,0.249,0.008,0.497,0.009,0.746
			L257.841,26.023C257.592,26.021,257.344,26.015,257.095,26.014z"/>
		<path style="fill:#93D8F0;" d="M225.189,28.06L28.06,225.189c-0.424,3.166-0.78,6.353-1.074,9.558l207.76-207.76
			C231.542,27.28,228.355,27.636,225.189,28.06z"/>
		<path style="fill:#93D8F0;" d="M197.639,33.479l-164.16,164.16c-0.958,3.662-1.827,7.36-2.607,11.091L208.73,30.872
			C204.999,31.652,201.301,32.521,197.639,33.479z"/>
		<path style="fill:#93D8F0;" d="M163.699,45.288L45.288,163.699c-2.034,4.637-3.926,9.35-5.657,14.141L177.84,39.632
			C173.049,41.363,168.336,43.254,163.699,45.288z"/>
		<path style="fill:#93D8F0;" d="M97.777,89.078l-8.699,8.699c-10.749,11.336-20.348,23.772-28.627,37.112l74.438-74.438
			C121.549,68.731,109.114,78.329,97.777,89.078z"/>
	</g>
	<path style="fill:#FFFFFF;" d="M247.987,353.509V271.46l-26.925,26.395l-9.853-10.052l34.335-33.659l-34.401-34.626l9.986-9.92
		l26.859,27.034v-78.141l52.868,61.14l-35.339,34.645l35.18,35.41L247.987,353.509z M262.064,270.772v43.587l19.656-23.802
		L262.064,270.772z M262.064,196.29v41.66l19.496-19.113L262.064,196.29z"/>
</g>
</svg>
