<?xml version="1.0" encoding="utf-8"?>
<!-- Generator: Adobe Illustrator 18.0.0, SVG Export Plug-In . SVG Version: 6.00 Build 0)  -->
<!DOCTYPE svg PUBLIC "-//W3C//DTD SVG 1.1//EN" "http://www.w3.org/Graphics/SVG/1.1/DTD/svg11.dtd">
<svg version="1.1" id="Layer_1" xmlns="http://www.w3.org/2000/svg" xmlns:xlink="http://www.w3.org/1999/xlink" x="0px" y="0px"
	 viewBox="0 0 512 512" style="enable-background:new 0 0 512 512;" xml:space="preserve">
<g>
	<polygon style="fill:#E2E2E2;" points="313,430.9 308.2,382.7 203.8,382.7 199,430.9 	"/>
	<rect x="174" y="429.6" style="fill:#969696;" width="164.1" height="6.4"/>
	<g>
		<g>
			
				<radialGradient id="SVGID_1_" cx="262.7633" cy="-75.3285" r="636.7156" gradientTransform="matrix(1 0 0 -1 0 512)" gradientUnits="userSpaceOnUse">
				<stop  offset="1.933882e-02" style="stop-color:#FAAD1C"/>
				<stop  offset="0.3892" style="stop-color:#F26731"/>
				<stop  offset="0.7239" style="stop-color:#E71670"/>
				<stop  offset="1" style="stop-color:#652F8C"/>
			</radialGradient>
			<path style="fill:url(#SVGID_1_);" d="M464.1,103.5H47.9c-1.2,0-2,0.9-2,2v247.7c0,1.2,0.9,2,2,2h416.2c1.2,0,2-0.9,2-2V105.5
				C466.1,104.3,465.3,103.5,464.1,103.5z"/>
			<path style="fill:#0E0E0E;" d="M471.9,76.1H40.1c-7.8,0-14.1,6.2-14.1,14.1v278.7c0,7.8,6.2,14.1,14.1,14.1h431.9
				c7.8,0,14.1-6.2,14.1-14.1V90.1C486,82.3,479.8,76.1,471.9,76.1z M466.1,353.2c0,1.2-0.9,2-2,2H47.9c-1.2,0-2-0.9-2-2V105.5
				c0-1.2,0.9-2,2-2h416.2c1.2,0,2,0.9,2,2V353.2z"/>
		</g>
		
			<linearGradient id="SVGID_2_" gradientUnits="userSpaceOnUse" x1="258.029" y1="227.4058" x2="486" y2="227.4058" gradientTransform="matrix(1 0 0 1 0 2)">
			<stop  offset="0" style="stop-color:#FFFFFF"/>
			<stop  offset="1" style="stop-color:#FFFFFF;stop-opacity:0"/>
		</linearGradient>
		<path style="opacity:0.4;fill:url(#SVGID_2_);enable-background:new    ;" d="M471.9,382.7c7.8,0,14.1-6.2,14.1-14.1V90.1
			c0-7.8-6.2-14.1-14.1-14.1H258L471.9,382.7z"/>
		<g>
			<g>
				<polygon style="fill:#EDEDED;" points="245.6,283.6 232.6,283.7 256,324.2 279.4,283.7 266.4,283.6 256,234.4 				"/>
				<polygon style="fill:#EDEDED;" points="205.3,209.6 164.8,233 205.3,256.4 205.4,243.4 254.6,233 205.4,222.6 				"/>
				<polygon style="fill:#EDEDED;" points="306.6,222.6 257.4,233 306.6,243.4 306.7,256.4 347.2,233 306.7,209.6 				"/>
				<polygon style="fill:#EDEDED;" points="266.4,182.4 279.4,182.3 256,141.8 232.6,182.3 245.6,182.4 256,231.6 				"/>
			</g>
			<g>
				<polygon style="fill:#FFFFFF;" points="205.4,243.4 254.6,233 164.8,233 205.3,256.4 				"/>
				<polygon style="fill:#EDEDED;" points="232.6,283.7 256,324.2 256,234.4 245.6,283.6 				"/>
				<polygon style="fill:#EDEDED;" points="306.7,256.4 347.2,233 257.4,233 306.6,243.4 				"/>
				<polygon style="fill:#FFFFFF;" points="279.4,283.7 266.4,283.6 256,234.4 256,324.2 				"/>
				<polygon style="fill:#EDEDED;" points="205.4,222.6 205.3,209.6 164.8,233 254.6,233 				"/>
				<polygon style="fill:#FFFFFF;" points="232.6,182.3 245.6,182.4 256,231.6 256,141.8 				"/>
				<polygon style="fill:#FFFFFF;" points="306.7,209.6 306.6,222.6 257.4,233 347.2,233 				"/>
				<polygon style="fill:#EDEDED;" points="279.4,182.3 256,141.8 256,231.6 266.4,182.4 				"/>
			</g>
		</g>
	</g>
</g>
</svg>
