<?xml version="1.0" encoding="utf-8"?>
<!-- Generator: Adobe Illustrator 18.0.0, SVG Export Plug-In . SVG Version: 6.00 Build 0)  -->
<!DOCTYPE svg PUBLIC "-//W3C//DTD SVG 1.1//EN" "http://www.w3.org/Graphics/SVG/1.1/DTD/svg11.dtd">
<svg version="1.1" id="Layer_3" xmlns="http://www.w3.org/2000/svg" xmlns:xlink="http://www.w3.org/1999/xlink" x="0px" y="0px"
	 viewBox="0 0 512 512" enable-background="new 0 0 512 512" xml:space="preserve">
<g>
	<radialGradient id="SVGID_1_" cx="169.75" cy="216.9" r="313.5713" gradientUnits="userSpaceOnUse">
		<stop  offset="0" style="stop-color:#F5C2AB"/>
		<stop  offset="1" style="stop-color:#A798C9"/>
	</radialGradient>
	<path fill="url(#SVGID_1_)" d="M446,26H66c-22.1,0-40,17.9-40,40v380c0,22.1,17.9,40,40,40h380c22.1,0,40-17.9,40-40V66
		C486,43.9,468.1,26,446,26z"/>
	<g>
		<path fill="#FFFFFF" d="M56.5,375.3C82.4,321.4,68.3,258.6,26,220.5v195.7C38.4,405.1,48.9,391.3,56.5,375.3z"/>
		<path fill="#FFFFFF" d="M148.1,446.8c-31-14.8-65.5-13.4-94,0.9c-7.3-10.9-16.8-20.5-28.1-28.1V446c0,22.1,17.9,40,40,40h126.2
			C181.8,469.6,166.9,455.8,148.1,446.8z"/>
	</g>
	<g opacity="0.6">
		<path opacity="0.2" fill="#F7E7CF" d="M446,26H66c-22.1,0-40,17.9-40,40v380c0,22.1,17.9,40,40,40h380c22.1,0,40-17.9,40-40V66
			C486,43.9,468.1,26,446,26z"/>
		<path opacity="0.3" fill="#F7E9CF" d="M486,446V66c0-22.1-17.9-40-40-40H66c-22.1,0-40,17.9-40,40v380c0,22.1,17.9,40,40,40h380
			c4.2,0,8.2-0.6,11.9-1.8c9.1-8.4,17.9-17.2,26.3-26.3C485.4,454.1,486,450.1,486,446z"/>
		<path opacity="0.4" fill="#F9EBCF" d="M486,66c0-22.1-17.9-40-40-40H66c-22.1,0-40,17.9-40,40v380c0,22.1,17.9,40,40,40h299.4
			c49-30.2,90.4-71.6,120.6-120.6V66z"/>
		<path opacity="0.6" fill="#F9EDCE" d="M448.8,26.1c-0.9-0.1-1.8-0.1-2.8-0.1H66c-22.1,0-40,17.9-40,40v380c0,1,0,1.9,0.1,2.8
			c43.9,23.5,94,36.9,147.3,36.9c172.5,0,312.3-139.8,312.3-312.3C485.6,120.2,472.3,70,448.8,26.1z"/>
		<path opacity="0.7" fill="#F9EFCF" d="M26,66v318.9c41.8,29.2,92.6,46.3,147.4,46.3c142.3,0,257.7-115.4,257.7-257.7
			c0-54.8-17.1-105.7-46.3-147.4H66C43.9,26,26,43.9,26,66z"/>
		<path opacity="0.8" fill="#FBF1CF" d="M26,66v247.3c37,39,89.4,63.3,147.4,63.3c112.2,0,203.2-91,203.2-203.2
			c0-58.1-24.4-110.4-63.4-147.4H66C43.9,26,26,43.9,26,66z"/>
		<circle opacity="0.9" fill="#FBF3D0" cx="173.4" cy="173.4" r="148.6"/>
		<circle fill="#FCF6D0" cx="173.4" cy="173.4" r="94.1"/>
		<circle fill="#FFFFFF" cx="173.4" cy="173.4" r="39.6"/>
	</g>
	<g>
		<g>
			<path fill="#FFFFFF" d="M446,486c22.1,0,40-17.9,40-40V297.1c-6.1,8.6-11,18.3-14.5,28.9c-10.6,32.6-4.6,66.7,13.3,93
				c-10.5,9.2-19.1,20.7-25.3,33.9c-13.2-11.7-29-20.9-46.8-26.7c-60.4-19.5-124.6,6.8-155,59.8H446z"/>
		</g>
	</g>
</g>
<path opacity="0.4" d="M450.2,136.2l35.9-9.6L385.6,26.2L376,62.1C364,107.1,405.2,148.3,450.2,136.2z"/>
<linearGradient id="SVGID_2_" gradientUnits="userSpaceOnUse" x1="396.0366" y1="116.2315" x2="435.851" y2="76.4171">
	<stop  offset="7.124920e-03" style="stop-color:#FFFFFF"/>
	<stop  offset="1" style="stop-color:#CCCCCC"/>
</linearGradient>
<path fill="url(#SVGID_2_)" d="M460.4,133.5l25.6-6.9L385.6,26.2l-6.9,25.6C365.5,101.4,410.9,146.8,460.4,133.5z"/>
<path fill="#383838" d="M486,126.6V66c0-20.7-15.7-37.7-35.9-39.8h-64.5L486,126.6z"/>
</svg>
