<?xml version="1.0" encoding="utf-8"?>
<!-- Generator: Adobe Illustrator 18.0.0, SVG Export Plug-In . SVG Version: 6.00 Build 0)  -->
<!DOCTYPE svg PUBLIC "-//W3C//DTD SVG 1.1//EN" "http://www.w3.org/Graphics/SVG/1.1/DTD/svg11.dtd">
<svg version="1.1" id="Layer_1" xmlns="http://www.w3.org/2000/svg" xmlns:xlink="http://www.w3.org/1999/xlink" x="0px" y="0px"
	 viewBox="0 0 512 512" style="enable-background:new 0 0 512 512;" xml:space="preserve">
<path style="fill:#00B1FF;" d="M437.4,443.6h-21.9l-35.2-103.1h33.5v-2.7h-34.4l-20.9-61.2h55.3v-2.7h-56.2l-26.3-77h63.4v-2.7
	h-64.3L294.3,88.3H368v-2.7h-73.6l20-58.7l-2.6-0.9l-19.4,56.9l-19.2-56.2L273,26l-2.6,0.9l20,58.7h-70.3l20-58.7l-2.6-0.9
	l-19.4,56.9L198.7,26l-2.6,0.9l20,58.7H144v2.7h72.3l-36.1,105.8h-62.9v2.7h62l-26.3,77H98.1v2.7H152l-20.9,61.2h-33v2.7h32.1
	L95,443.6H74.6v2.7h19.5l-13.2,38.8l2.6,0.9L97,446.4h71.4l-13.2,38.8l2.6,0.9l13.5-39.6h168l13.5,39.6l2.6-0.9l-13.2-38.8h71.4
	l13.5,39.6l2.6-0.9l-13.2-38.8h20.9V443.6z M376.5,337.8h-13.4L344,281.8l-0.5-1.4l-1.3-3.9h13.4L376.5,337.8z M240.8,196.8h12.7
	l-26.3,77h-12.7l1.1-3.2L240.8,196.8z M296.4,270.7l1.1,3.2h-14.2l-26.3-77h14.2L296.4,270.7z M303.2,290.7h-14.2l-4.8-14.1h14.2
	L303.2,290.7z M229.9,290.7h-5.5l4.8-14.1h52.1l4.8,14.1h-4.1v0H229.9z M230.2,273.9l25.1-73.6l25.1,73.6H230.2z M257.4,194.1
	l6.4-18.9l6.4,18.9H257.4z M255.3,191.7l-6.4-18.7l7.1-20.7l6.4,18.7L255.3,191.7z M253.2,194.1h-11.5l5.7-16.8L253.2,194.1z
	 M226.3,276.6l-4.8,14.1h-12.7l4.8-14.1H226.3z M196.8,325.8h10.8h1.9l-4.1,12h-12.7l0.6-1.8L196.8,325.8z M212.5,325.8h85.7l4.1,12
	h-93.9L212.5,325.8z M301,325.8h3.3h10.8l3.5,10.2l0.6,1.8h-14.2L301,325.8z M354.7,273.9h-13.4l-24.5-71.8l-0.5-1.4l-1.3-3.9h13.4
	L354.7,273.9z M292.4,91.4l35.1,102.7h-13.4l-28.3-83L292.4,91.4z M290.6,88.3l-6.3,18.5l-1.5-4.4h-53.5l-2.2,6.5l-7-20.6H290.6z
	 M218.1,91.4l7.4,21.8l-27.6,81h-14.9L218.1,91.4z M182.1,196.8H197l-1.3,3.9l-0.5,1.4l-24.5,71.8h-14.9L182.1,196.8z M154.9,276.6
	h14.9l-1.3,3.9l-0.5,1.4l-19.1,55.9h-14.9L154.9,276.6z M169.3,443.6H97.9l35.2-103.1H148l-1.3,3.9l-0.5,1.4l-29.3,85.8h43.8
	l31.1-91.1h12.7L169.3,443.6z M172.2,443.6l35.2-103.1h95.7l35.2,103.1H172.2z M341.2,443.6l-35.2-103.1h14.2l31.1,91.1h43.8
	l-29.3-85.8l-0.5-1.4l-1.3-3.9h13.4l35.2,103.1H341.2z"/>
</svg>
