<?xml version="1.0" encoding="utf-8"?>
<!-- Generator: Adobe Illustrator 18.0.0, SVG Export Plug-In . SVG Version: 6.00 Build 0)  -->
<!DOCTYPE svg PUBLIC "-//W3C//DTD SVG 1.1//EN" "http://www.w3.org/Graphics/SVG/1.1/DTD/svg11.dtd">
<svg version="1.1" id="Layer_3" xmlns="http://www.w3.org/2000/svg" xmlns:xlink="http://www.w3.org/1999/xlink" x="0px" y="0px"
	 viewBox="0 0 512 512" style="enable-background:new 0 0 512 512;" xml:space="preserve">
<g>
	<g>
		<path style="fill:#FF65D4;" d="M486,257.1c0-1,0-2,0-3c-0.2-20.1-2.9-39.6-7.9-58.2c-2.8,21.1-10.2,41.7-22.2,60.1
			c-5.4,8.2-11.6,15.9-18.8,23.1c-14.2,14.2-30.7,24.8-48.2,31.9c-21.7,8.7-45.1,11.9-68.1,9.7c-14.5-1.4-28.8-5-42.4-10.8
			c-7.7-3.3-15.2-7.3-22.3-11.9c-4.6-3-9-6.3-13.3-9.8c-3.4-2.8-6.7-5.8-9.8-9c-3.2-3.2-6.1-6.5-9-9.8c0.5,5.5,1.3,11,2.4,16.3
			c1.7,8.4,4.2,16.4,7.3,24.2c5.5,13.7,13.1,26.4,22.3,37.6c14.6,17.9,33.5,32.1,55,41.3c17.4,7.4,36.5,11.5,56.7,11.5
			c10.2,0,20.1-1.1,29.6-3.1c21.6-4.5,41.4-13.9,58.2-26.8C474.7,337.1,485.8,298.4,486,257.1z"/>
		<path style="fill:#00BD9B;" d="M278.3,202.2c-5.5-13.7-13.1-26.4-22.3-37.6c-14.6-17.9-33.5-32.1-55-41.3
			c-17.4-7.4-36.5-11.5-56.7-11.5c-10.2,0-20.1,1.1-29.6,3.1c-21.6,4.5-41.4,13.9-58.2,26.8C37.3,174.9,26.2,213.6,26,254.8
			c0,1,0,2.1,0,3.1c0.2,20.1,2.9,39.6,7.9,58.1c2.8-21.1,10.2-41.7,22.2-60.1c5.4-8.2,11.6-15.9,18.8-23.1
			c14.2-14.2,30.7-24.8,48.2-31.9c21.7-8.7,45.1-11.9,68.1-9.7c14.5,1.4,28.8,5,42.4,10.8c7.7,3.3,15.2,7.3,22.3,11.9
			c4.6,3,9,6.3,13.3,9.8c3.4,2.8,6.7,5.8,9.8,9c3.2,3.2,6.1,6.5,9,9.8c-0.5-5.5-1.3-11-2.4-16.4C283.9,218,281.4,209.9,278.3,202.2z
			"/>
		<path style="fill:#9C56B8;" d="M455.5,370.5c-16.9,13-36.7,22.3-58.2,26.8c-9.6,2-19.5,3.1-29.6,3.1c-20.1,0-39.3-4.1-56.7-11.5
			c-21.5-9.2-40.4-23.5-55-41.3c-9.2-11.3-16.8-23.9-22.3-37.6c-3.1-7.8-5.6-15.8-7.3-24.2c-1.1-5.3-1.9-10.8-2.4-16.3
			c-0.4-4.4-0.6-8.8-0.6-13.3s0.2-8.9,0.6-13.3c-3.6,4.3-6.8,8.7-9.8,13.3c-4.7,7.1-8.7,14.6-11.9,22.3
			c-5.8,13.6-9.4,27.9-10.8,42.4c-2.3,23,1,46.4,9.7,68.1c7,17.6,17.7,34,31.9,48.2c7.2,7.2,14.9,13.4,23.1,18.8
			c18.4,12.1,39,19.5,60.1,22.2C375.6,462,425.5,422.7,455.5,370.5z"/>
		<path style="fill:#51D88B;" d="M279.1,75c-7.2-7.2-14.9-13.4-23.1-18.8c-18.4-12.1-39-19.5-60.1-22.2
			C136.4,50,86.5,89.3,56.5,141.5c16.9-13,36.7-22.3,58.2-26.8c9.6-2,19.5-3.1,29.6-3.1c20.1,0,39.3,4.1,56.7,11.5
			c21.5,9.2,40.4,23.5,55,41.3c9.2,11.3,16.8,23.9,22.3,37.6c3.1,7.8,5.6,15.8,7.3,24.2c1.1,5.3,1.9,10.8,2.4,16.4
			c0.4,4.4,0.6,8.8,0.6,13.3s-0.2,8.9-0.6,13.3c3.6-4.3,6.8-8.7,9.8-13.3c4.7-7.1,8.7-14.6,11.9-22.3c5.8-13.6,9.4-27.9,10.8-42.4
			c2.3-23-1-46.4-9.7-68.1C304,105.7,293.3,89.2,279.1,75z"/>
		<path style="fill:#2D98E0;" d="M233.7,202.2c-13.6-5.8-27.9-9.4-42.4-10.8c-23-2.3-46.4,1-68.1,9.7c-17.6,7-34,17.7-48.2,31.9
			c-7.2,7.2-13.4,14.9-18.8,23.1c-12.1,18.4-19.5,39-22.2,60.1C50,375.6,89.3,425.5,141.5,455.5c-13-16.9-22.3-36.7-26.8-58.2
			c-2-9.6-3.1-19.5-3.1-29.6c0-20.1,4.1-39.3,11.5-56.7c9.2-21.5,23.5-40.4,41.3-55c11.3-9.2,23.9-16.8,37.6-22.3
			c7.8-3.1,15.8-5.6,24.2-7.3c5.3-1.1,10.8-1.9,16.3-2.4c4.4-0.4,8.8-0.6,13.3-0.6s8.9,0.2,13.3,0.6c-4.3-3.6-8.7-6.8-13.3-9.8
			C248.9,209.4,241.4,205.4,233.7,202.2z"/>
		<path style="fill:#E84C3D;" d="M455.8,256c12.1-18.4,19.5-39,22.2-60.1C462,136.4,422.7,86.5,370.5,56.5
			c13,16.9,22.3,36.7,26.8,58.2c2,9.6,3.1,19.5,3.1,29.6c0,20.1-4.1,39.3-11.5,56.7c-9.2,21.5-23.5,40.4-41.3,55
			c-11.3,9.2-23.9,16.8-37.6,22.3c-7.8,3.1-15.8,5.6-24.2,7.3c-5.3,1.1-10.8,1.9-16.4,2.4c-4.4,0.4-8.8,0.6-13.3,0.6
			s-8.9-0.2-13.3-0.6c4.3,3.6,8.7,6.8,13.3,9.8c7.1,4.7,14.6,8.7,22.3,11.9c13.6,5.8,27.9,9.4,42.4,10.8c23,2.3,46.4-1,68.1-9.7
			c17.6-7,34-17.7,48.2-31.9C444.2,271.9,450.5,264.2,455.8,256z"/>
		<path style="fill:#6659FF;" d="M257.9,486c20.1-0.2,39.6-2.9,58.1-7.9c-21.1-2.8-41.7-10.2-60.1-22.2
			c-8.2-5.4-15.9-11.6-23.1-18.8c-14.2-14.2-24.8-30.7-31.9-48.2c-8.7-21.7-11.9-45.1-9.7-68.1c1.4-14.5,5-28.8,10.8-42.4
			c3.3-7.7,7.3-15.2,11.9-22.3c3-4.6,6.3-9,9.8-13.3c2.8-3.4,5.8-6.7,9-9.8c3.2-3.2,6.5-6.1,9.8-9c-5.5,0.5-11,1.3-16.3,2.4
			c-8.4,1.7-16.4,4.2-24.2,7.3c-13.7,5.5-26.4,13.1-37.6,22.3c-17.9,14.6-32.1,33.5-41.3,55c-7.4,17.4-11.5,36.5-11.5,56.7
			c0,10.2,1.1,20.1,3.1,29.6c4.5,21.6,13.9,41.4,26.8,58.2c33.4,19.2,72.1,30.2,113.3,30.5C255.9,486,256.9,486,257.9,486z"/>
		<path style="fill:#F1C50E;" d="M254.1,26c-20.1,0.2-39.6,2.9-58.1,7.9c21.1,2.8,41.7,10.2,60.1,22.2c8.2,5.4,15.9,11.6,23.1,18.8
			c14.2,14.2,24.8,30.7,31.9,48.2c8.7,21.7,11.9,45.1,9.7,68.1c-1.4,14.5-5,28.8-10.8,42.4c-3.3,7.7-7.3,15.2-11.9,22.3
			c-3,4.6-6.3,9-9.8,13.3c-2.8,3.4-5.8,6.7-9,9.8c-3.2,3.2-6.5,6.1-9.8,9c5.5-0.5,11-1.3,16.4-2.4c8.4-1.7,16.4-4.2,24.2-7.3
			c13.7-5.5,26.4-13.1,37.6-22.3c17.9-14.6,32.1-33.5,41.3-55c7.4-17.4,11.5-36.5,11.5-56.7c0-10.2-1.1-20.1-3.1-29.6
			c-4.5-21.6-13.9-41.4-26.8-58.2C337.1,37.3,298.4,26.2,257.2,26C256.1,26,255.1,26,254.1,26z"/>
	</g>
	<path style="fill:#F4F4F4;" d="M256,46c28.4,0,55.9,5.5,81.7,16.5c25,10.6,47.5,25.7,66.8,45c19.3,19.3,34.4,41.8,45,66.8
		c10.9,25.9,16.5,53.4,16.5,81.7c0,28.4-5.5,55.9-16.5,81.7c-10.6,25-25.7,47.5-45,66.8c-19.3,19.3-41.8,34.4-66.8,45
		C311.9,460.5,284.4,466,256,466c-28.4,0-55.9-5.5-81.7-16.5c-25-10.6-47.5-25.7-66.8-45c-19.3-19.3-34.4-41.8-45-66.8
		C51.5,311.9,46,284.4,46,256c0-28.4,5.5-55.9,16.5-81.7c10.6-25,25.7-47.5,45-66.8c19.3-19.3,41.8-34.4,66.8-45
		C200.1,51.5,227.6,46,256,46 M256,26C129,26,26,129,26,256s103,230,230,230s230-103,230-230S383,26,256,26L256,26z"/>
	<radialGradient id="SVGID_1_" cx="256" cy="256" r="72.3341" gradientUnits="userSpaceOnUse">
		<stop  offset="0" style="stop-color:#000000"/>
		<stop  offset="1" style="stop-color:#000000;stop-opacity:0"/>
	</radialGradient>
	<path style="fill:url(#SVGID_1_);" d="M256,330.4c-41,0-74.4-33.4-74.4-74.4s33.4-74.4,74.4-74.4s74.4,33.4,74.4,74.4
		S297,330.4,256,330.4z"/>
	<circle style="fill:#E2E2E2;" cx="256" cy="256" r="64.4"/>
	<g>
		<g>
			<path d="M129.7,183.2c-12.4,21.4-19.4,46.3-19.4,72.8s7.1,51.3,19.4,72.8c0,0,56.8-16.8,73.7-26.8c15-8.9,52.3-46,52.3-46
				s-37.9-36.6-52.9-45.4C186.3,201,129.7,183.2,129.7,183.2z"/>
			<path d="M382.3,183.2c0,0-56,18-72.3,27.4c-15.2,8.8-53.7,45.3-53.7,45.3s38.3,36.6,53.5,45.4c16.3,9.4,72.5,27.3,72.5,27.3
				c12.4-21.4,19.4-46.3,19.4-72.8S394.7,204.7,382.3,183.2z"/>
		</g>
		
			<linearGradient id="SVGID_2_" gradientUnits="userSpaceOnUse" x1="299.9393" y1="1022.73" x2="419.9583" y2="1022.73" gradientTransform="matrix(1 0 0 1 -164.27 -766.73)">
			<stop  offset="0" style="stop-color:#343334"/>
			<stop  offset="0.325" style="stop-color:#272627"/>
			<stop  offset="0.925" style="stop-color:#050505"/>
			<stop  offset="1" style="stop-color:#000000"/>
		</linearGradient>
		<path style="fill:url(#SVGID_2_);" d="M135.7,256c0-7.3,9-13.2,48.5-13.2s71.5,13.2,71.5,13.2s-32,13.2-71.5,13.2
			S135.7,263.3,135.7,256z"/>
		
			<linearGradient id="SVGID_3_" gradientUnits="userSpaceOnUse" x1="-438.1058" y1="1022.73" x2="-318.0868" y2="1022.73" gradientTransform="matrix(-1 0 0 1 -61.7751 -766.73)">
			<stop  offset="0" style="stop-color:#343334"/>
			<stop  offset="0.325" style="stop-color:#272627"/>
			<stop  offset="0.925" style="stop-color:#050505"/>
			<stop  offset="1" style="stop-color:#000000"/>
		</linearGradient>
		<path style="fill:url(#SVGID_3_);" d="M376.3,256c0-7.3-9-13.2-48.5-13.2S256.3,256,256.3,256s32,13.2,71.5,13.2
			S376.3,263.3,376.3,256z"/>
		
			<linearGradient id="SVGID_4_" gradientUnits="userSpaceOnUse" x1="420.2696" y1="1041.8477" x2="420.2696" y2="1003.6132" gradientTransform="matrix(1 0 0 1 -164.27 -766.73)">
			<stop  offset="0" style="stop-color:#000000"/>
			<stop  offset="0.5277" style="stop-color:#020202"/>
			<stop  offset="0.7996" style="stop-color:#0A0A0A"/>
			<stop  offset="0.8776" style="stop-color:#0E0E0E"/>
		</linearGradient>
		<path style="fill:url(#SVGID_4_);" d="M275.1,270.4c0,2.6-2.1,4.7-4.7,4.7h-28.8c-2.6,0-4.7-2.1-4.7-4.7v-28.8
			c0-2.6,2.1-4.7,4.7-4.7h28.8c2.6,0,4.7,2.1,4.7,4.7V270.4z"/>
	</g>
</g>
</svg>
