<?xml version="1.0" encoding="utf-8"?>
<!-- Generator: Adobe Illustrator 18.0.0, SVG Export Plug-In . SVG Version: 6.00 Build 0)  -->
<!DOCTYPE svg PUBLIC "-//W3C//DTD SVG 1.1//EN" "http://www.w3.org/Graphics/SVG/1.1/DTD/svg11.dtd">
<svg version="1.1" id="Layer_1" xmlns="http://www.w3.org/2000/svg" xmlns:xlink="http://www.w3.org/1999/xlink" x="0px" y="0px"
	 viewBox="0 0 512 512" enable-background="new 0 0 512 512" xml:space="preserve">
<g>
	<g>
		<path fill="#525251" d="M79,199.6c0-14.6-11.9-26.5-26.5-26.5S26,185,26,199.6c0,14.6,11.9,26.5,26.5,26.5S79,214.3,79,199.6z"/>
		<path fill="#525251" d="M133.9,226.1c14.6,0,26.5-11.9,26.5-26.5c0-14.6-11.9-26.5-26.5-26.5c-14.6,0-26.5,11.9-26.5,26.5
			C107.4,214.3,119.3,226.1,133.9,226.1z"/>
		<path fill="#525251" d="M215.3,226.1c14.6,0,26.5-11.9,26.5-26.5c0-14.6-11.9-26.5-26.5-26.5c-14.6,0-26.5,11.9-26.5,26.5
			C188.8,214.3,200.7,226.1,215.3,226.1z"/>
		<path fill="#525251" d="M296.7,226.1c14.6,0,26.5-11.9,26.5-26.5c0-14.6-11.9-26.5-26.5-26.5c-14.6,0-26.5,11.9-26.5,26.5
			C270.2,214.3,282.1,226.1,296.7,226.1z"/>
		<path fill="#525251" d="M378.1,226.1c14.6,0,26.5-11.9,26.5-26.5c0-14.6-11.9-26.5-26.5-26.5s-26.5,11.9-26.5,26.5
			C351.6,214.3,363.5,226.1,378.1,226.1z"/>
		<path fill="#525251" d="M459.5,173.1c-14.6,0-26.5,11.9-26.5,26.5c0,14.6,11.9,26.5,26.5,26.5c14.6,0,26.5-11.9,26.5-26.5
			C486,185,474.1,173.1,459.5,173.1z"/>
		<path fill="#525251" d="M119.7,262c0-14.6-11.9-26.5-26.5-26.5S66.7,247.4,66.7,262c0,14.6,11.9,26.5,26.5,26.5
			C107.8,288.5,119.7,276.6,119.7,262z"/>
		<path fill="#525251" d="M201.1,262c0-14.6-11.9-26.5-26.5-26.5s-26.5,11.9-26.5,26.5c0,14.6,11.9,26.5,26.5,26.5
			C189.2,288.5,201.1,276.6,201.1,262z"/>
		<path fill="#525251" d="M282.5,262c0-14.6-11.9-26.5-26.5-26.5c-14.6,0-26.5,11.9-26.5,26.5c0,14.6,11.9,26.5,26.5,26.5
			C270.6,288.5,282.5,276.6,282.5,262z"/>
		<path fill="#525251" d="M363.9,262c0-14.6-11.9-26.5-26.5-26.5c-14.6,0-26.5,11.9-26.5,26.5c0,14.6,11.9,26.5,26.5,26.5
			C352,288.5,363.9,276.6,363.9,262z"/>
		<path fill="#525251" d="M418.8,235.5c-14.6,0-26.5,11.9-26.5,26.5c0,14.6,11.9,26.5,26.5,26.5c14.6,0,26.5-11.9,26.5-26.5
			C445.3,247.4,433.4,235.5,418.8,235.5z"/>
		<path fill="#525251" d="M133.9,297.9c-14.6,0-26.5,11.9-26.5,26.5c0,14.6,11.9,26.5,26.5,26.5c14.6,0,26.5-11.9,26.5-26.5
			C160.4,309.8,148.5,297.9,133.9,297.9z"/>
		<path fill="#525251" d="M215.3,297.9c-14.6,0-26.5,11.9-26.5,26.5c0,14.6,11.9,26.5,26.5,26.5c14.6,0,26.5-11.9,26.5-26.5
			C241.8,309.8,229.9,297.9,215.3,297.9z"/>
		<path fill="#525251" d="M296.7,297.9c-14.6,0-26.5,11.9-26.5,26.5c0,14.6,11.9,26.5,26.5,26.5c14.6,0,26.5-11.9,26.5-26.5
			C323.2,309.8,311.3,297.9,296.7,297.9z"/>
		<path fill="#525251" d="M378.1,297.9c-14.6,0-26.5,11.9-26.5,26.5c0,14.6,11.9,26.5,26.5,26.5c14.6,0,26.5-11.9,26.5-26.5
			C404.6,309.8,392.7,297.9,378.1,297.9z"/>
	</g>
	<g>
		<g>
			<g>
				<circle fill="#FAF3EE" cx="52.5" cy="187.6" r="20.7"/>
				<path fill="#E2E2E2" d="M52.5,214.1c-14.6,0-26.5-11.9-26.5-26.5c0-14.6,11.9-26.5,26.5-26.5S79,173,79,187.6
					C79,202.2,67.1,214.1,52.5,214.1z M52.5,172.7c-8.2,0-14.8,6.7-14.8,14.8c0,8.2,6.7,14.8,14.8,14.8s14.8-6.7,14.8-14.8
					C67.3,179.4,60.7,172.7,52.5,172.7z"/>
			</g>
			<g>
				<circle fill="#FAF3EE" cx="133.9" cy="187.6" r="20.7"/>
				<path fill="#E2E2E2" d="M133.9,214.1c-14.6,0-26.5-11.9-26.5-26.5c0-14.6,11.9-26.5,26.5-26.5c14.6,0,26.5,11.9,26.5,26.5
					C160.4,202.2,148.5,214.1,133.9,214.1z M133.9,172.7c-8.2,0-14.8,6.7-14.8,14.8c0,8.2,6.7,14.8,14.8,14.8
					c8.2,0,14.8-6.7,14.8-14.8C148.7,179.4,142.1,172.7,133.9,172.7z"/>
			</g>
			<g>
				<circle fill="#FAF3EE" cx="215.3" cy="187.6" r="20.7"/>
				<path fill="#E2E2E2" d="M215.3,214.1c-14.6,0-26.5-11.9-26.5-26.5c0-14.6,11.9-26.5,26.5-26.5s26.5,11.9,26.5,26.5
					C241.8,202.2,229.9,214.1,215.3,214.1z M215.3,172.7c-8.2,0-14.8,6.7-14.8,14.8c0,8.2,6.7,14.8,14.8,14.8s14.8-6.7,14.8-14.8
					C230.1,179.4,223.5,172.7,215.3,172.7z"/>
			</g>
			<g>
				<circle fill="#FAF3EE" cx="296.7" cy="187.6" r="20.7"/>
				<path fill="#E2E2E2" d="M296.7,214.1c-14.6,0-26.5-11.9-26.5-26.5c0-14.6,11.9-26.5,26.5-26.5c14.6,0,26.5,11.9,26.5,26.5
					C323.2,202.2,311.3,214.1,296.7,214.1z M296.7,172.7c-8.2,0-14.8,6.7-14.8,14.8c0,8.2,6.7,14.8,14.8,14.8
					c8.2,0,14.8-6.7,14.8-14.8C311.5,179.4,304.9,172.7,296.7,172.7z"/>
			</g>
			<g>
				<circle fill="#FAF3EE" cx="378.1" cy="187.6" r="20.7"/>
				<path fill="#E2E2E2" d="M378.1,214.1c-14.6,0-26.5-11.9-26.5-26.5c0-14.6,11.9-26.5,26.5-26.5s26.5,11.9,26.5,26.5
					C404.6,202.2,392.7,214.1,378.1,214.1z M378.1,172.7c-8.2,0-14.8,6.7-14.8,14.8c0,8.2,6.7,14.8,14.8,14.8s14.8-6.7,14.8-14.8
					C392.9,179.4,386.3,172.7,378.1,172.7z"/>
			</g>
			<g>
				<circle fill="#FAF3EE" cx="459.5" cy="187.6" r="20.7"/>
				<path fill="#E2E2E2" d="M459.5,214.1c-14.6,0-26.5-11.9-26.5-26.5c0-14.6,11.9-26.5,26.5-26.5S486,173,486,187.6
					C486,202.2,474.1,214.1,459.5,214.1z M459.5,172.7c-8.2,0-14.8,6.7-14.8,14.8c0,8.2,6.7,14.8,14.8,14.8s14.8-6.7,14.8-14.8
					C474.3,179.4,467.7,172.7,459.5,172.7z"/>
			</g>
		</g>
		<g>
			<g>
				<circle fill="#FAF3EE" cx="93.2" cy="250" r="20.7"/>
				<path fill="#E2E2E2" d="M93.2,276.5c-14.6,0-26.5-11.9-26.5-26.5s11.9-26.5,26.5-26.5c14.6,0,26.5,11.9,26.5,26.5
					C119.7,264.6,107.8,276.5,93.2,276.5z M93.2,235.1c-8.2,0-14.8,6.7-14.8,14.8c0,8.2,6.7,14.8,14.8,14.8S108,258.1,108,250
					S101.4,235.1,93.2,235.1z"/>
			</g>
			<g>
				<circle fill="#FAF3EE" cx="174.6" cy="250" r="20.7"/>
				<path fill="#E2E2E2" d="M174.6,276.5c-14.6,0-26.5-11.9-26.5-26.5s11.9-26.5,26.5-26.5s26.5,11.9,26.5,26.5
					C201.1,264.6,189.2,276.5,174.6,276.5z M174.6,235.1c-8.2,0-14.8,6.7-14.8,14.8c0,8.2,6.7,14.8,14.8,14.8s14.8-6.7,14.8-14.8
					S182.8,235.1,174.6,235.1z"/>
			</g>
			<g>
				<circle fill="#FAF3EE" cx="256" cy="250" r="20.7"/>
				<path fill="#E2E2E2" d="M256,276.5c-14.6,0-26.5-11.9-26.5-26.5s11.9-26.5,26.5-26.5c14.6,0,26.5,11.9,26.5,26.5
					C282.5,264.6,270.6,276.5,256,276.5z M256,235.1c-8.2,0-14.8,6.7-14.8,14.8c0,8.2,6.7,14.8,14.8,14.8c8.2,0,14.8-6.7,14.8-14.8
					S264.2,235.1,256,235.1z"/>
			</g>
			<g>
				<circle fill="#FAF3EE" cx="337.4" cy="250" r="20.7"/>
				<path fill="#E2E2E2" d="M337.4,276.5c-14.6,0-26.5-11.9-26.5-26.5s11.9-26.5,26.5-26.5c14.6,0,26.5,11.9,26.5,26.5
					C363.9,264.6,352,276.5,337.4,276.5z M337.4,235.1c-8.2,0-14.8,6.7-14.8,14.8c0,8.2,6.7,14.8,14.8,14.8
					c8.2,0,14.8-6.7,14.8-14.8C352.2,241.8,345.6,235.1,337.4,235.1z"/>
			</g>
			<g>
				<circle fill="#FAF3EE" cx="418.8" cy="250" r="20.7"/>
				<path fill="#E2E2E2" d="M418.8,276.5c-14.6,0-26.5-11.9-26.5-26.5s11.9-26.5,26.5-26.5c14.6,0,26.5,11.9,26.5,26.5
					C445.3,264.6,433.4,276.5,418.8,276.5z M418.8,235.1c-8.2,0-14.8,6.7-14.8,14.8c0,8.2,6.7,14.8,14.8,14.8s14.8-6.7,14.8-14.8
					S427,235.1,418.8,235.1z"/>
			</g>
		</g>
		<g>
			<g>
				<circle fill="#FAF3EE" cx="133.9" cy="312.4" r="20.7"/>
				<path fill="#E2E2E2" d="M133.9,338.9c-14.6,0-26.5-11.9-26.5-26.5s11.9-26.5,26.5-26.5c14.6,0,26.5,11.9,26.5,26.5
					C160.4,327,148.5,338.9,133.9,338.9z M133.9,297.5c-8.2,0-14.8,6.7-14.8,14.8c0,8.2,6.7,14.8,14.8,14.8
					c8.2,0,14.8-6.7,14.8-14.8C148.7,304.2,142.1,297.5,133.9,297.5z"/>
			</g>
			<g>
				<circle fill="#FAF3EE" cx="215.3" cy="312.4" r="20.7"/>
				<path fill="#E2E2E2" d="M215.3,338.9c-14.6,0-26.5-11.9-26.5-26.5s11.9-26.5,26.5-26.5s26.5,11.9,26.5,26.5
					C241.8,327,229.9,338.9,215.3,338.9z M215.3,297.5c-8.2,0-14.8,6.7-14.8,14.8c0,8.2,6.7,14.8,14.8,14.8s14.8-6.7,14.8-14.8
					C230.1,304.2,223.5,297.5,215.3,297.5z"/>
			</g>
			<g>
				<circle fill="#FAF3EE" cx="296.7" cy="312.4" r="20.7"/>
				<path fill="#E2E2E2" d="M296.7,338.9c-14.6,0-26.5-11.9-26.5-26.5s11.9-26.5,26.5-26.5c14.6,0,26.5,11.9,26.5,26.5
					C323.2,327,311.3,338.9,296.7,338.9z M296.7,297.5c-8.2,0-14.8,6.7-14.8,14.8c0,8.2,6.7,14.8,14.8,14.8
					c8.2,0,14.8-6.7,14.8-14.8C311.5,304.2,304.9,297.5,296.7,297.5z"/>
			</g>
			<g>
				<circle fill="#FAF3EE" cx="378.1" cy="312.4" r="20.7"/>
				<path fill="#E2E2E2" d="M378.1,338.9c-14.6,0-26.5-11.9-26.5-26.5s11.9-26.5,26.5-26.5s26.5,11.9,26.5,26.5
					C404.6,327,392.7,338.9,378.1,338.9z M378.1,297.5c-8.2,0-14.8,6.7-14.8,14.8c0,8.2,6.7,14.8,14.8,14.8s14.8-6.7,14.8-14.8
					C392.9,304.2,386.3,297.5,378.1,297.5z"/>
			</g>
		</g>
	</g>
</g>
</svg>
