<?xml version="1.0" encoding="utf-8"?>
<!-- Generator: Adobe Illustrator 18.0.0, SVG Export Plug-In . SVG Version: 6.00 Build 0)  -->
<!DOCTYPE svg PUBLIC "-//W3C//DTD SVG 1.1//EN" "http://www.w3.org/Graphics/SVG/1.1/DTD/svg11.dtd">
<svg version="1.1" id="Layer_1" xmlns="http://www.w3.org/2000/svg" xmlns:xlink="http://www.w3.org/1999/xlink" x="0px" y="0px"
	 viewBox="0 0 512 512" style="enable-background:new 0 0 512 512;" xml:space="preserve">
<g>
	<g>
		<path style="fill:#00BDFF;" d="M360.4,486H93.4C56.6,486,27,456.2,27,419.6V152.5c0-36.7,29.8-66.4,66.4-66.4h267.1
			c36.7,0,66.4,29.8,66.4,66.4v267.1C426.9,456.2,397.1,486,360.4,486z"/>
		<path style="fill:#FFFFFF;" d="M360.4,108.4c24.3,0,44.1,19.8,44.1,44.1v267.1c0,24.3-19.8,44.1-44.1,44.1H93.4
			c-24.4,0-44.1-19.8-44.1-44.1V152.5c0-24.3,19.8-44.1,44.1-44.1H360.4 M360.4,86.1H93.4c-36.7,0-66.4,29.8-66.4,66.4v267.1
			c0,36.7,29.8,66.4,66.4,66.4h267.1c36.7,0,66.4-29.8,66.4-66.4V152.5C426.9,115.9,397.1,86.1,360.4,86.1L360.4,86.1z"/>
	</g>
	<g>
		<circle style="fill:#FF0000;" cx="363.9" cy="147.2" r="121.2"/>
		<path style="fill:#FFFFFF;" d="M363.9,46C419.7,46,465,91.4,465,147.2s-45.4,101.2-101.2,101.2S262.5,203,262.5,147.2
			S308.1,46,363.9,46 M363.9,26C297,26,242.7,80.2,242.7,147.2S297,268.3,363.9,268.3S485,214.1,485,147.1S430.8,26,363.9,26
			L363.9,26z"/>
	</g>
</g>
</svg>
