<?xml version="1.0" encoding="utf-8"?>
<!-- Generator: Adobe Illustrator 18.0.0, SVG Export Plug-In . SVG Version: 6.00 Build 0)  -->
<!DOCTYPE svg PUBLIC "-//W3C//DTD SVG 1.1//EN" "http://www.w3.org/Graphics/SVG/1.1/DTD/svg11.dtd">
<svg version="1.1" id="Layer_3" xmlns="http://www.w3.org/2000/svg" xmlns:xlink="http://www.w3.org/1999/xlink" x="0px" y="0px"
	 viewBox="0 0 512 512" style="enable-background:new 0 0 512 512;" xml:space="preserve">
<g>
	<g>
		<polygon style="fill:#E2E2E2;" points="313,430.9 308.2,382.7 203.8,382.7 198.9,430.9 		"/>
		<rect x="173.9" y="429.6" style="fill:#969696;" width="164.1" height="6.4"/>
	</g>
	<g>
		
			<radialGradient id="SVGID_1_" cx="177.1456" cy="299.5235" r="247.1369" gradientTransform="matrix(1 0 0 -1 0 512)" gradientUnits="userSpaceOnUse">
			<stop  offset="0" style="stop-color:#F5C2AB"/>
			<stop  offset="1" style="stop-color:#3FA1FF"/>
		</radialGradient>
		<rect x="45.8" y="103.5" style="fill:url(#SVGID_1_);" width="420.3" height="262.7"/>
		<g>
			<path style="fill:#FFFFFF;" d="M111.8,335.8c-14.4-6.9-30.4-6.2-43.6,0.4c-3.6-5.4-8.3-10.1-14-13.7c6.2-5.4,11.4-12,15.2-19.9
				C83,274,72.5,240,45.9,223.8v131.1h87C127.9,346.9,120.8,340.1,111.8,335.8z"/>
		</g>
		<g style="opacity:0.6;">
			<path style="opacity:0.2;fill:#F7E7CF;enable-background:new    ;" d="M45.8,366.1h292.4c41.2-46.8,66.2-108.1,66.2-175.3
				c0-30.6-5.2-60-14.7-87.3H45.8V366.1z"/>
			<path style="opacity:0.3;fill:#F7E9CF;enable-background:new    ;" d="M45.8,366.1h249.6c48.2-43,78.6-105.6,78.6-175.3
				c0-30.9-6-60.3-16.8-87.3H45.8V366.1z"/>
			<path style="opacity:0.4;fill:#F9EBCF;enable-background:new    ;" d="M45.8,366.1h198.5c59.4-35.8,99.2-100.9,99.2-175.3
				c0-31.2-7-60.9-19.5-87.3H45.8V366.1z"/>
			<path style="opacity:0.6;fill:#F9EDCE;enable-background:new    ;" d="M45.8,337.8c27,17.1,58.9,27.1,93.3,27.1
				c96.1,0,174.1-77.9,174.1-174.1c0-31.8-8.5-61.7-23.5-87.3H45.8V337.8z"/>
			<path style="opacity:0.7;fill:#F9EFCF;enable-background:new    ;" d="M45.8,300.1c25.1,21.4,57.7,34.4,93.3,34.4
				c79.4,0,143.7-64.3,143.7-143.7c0-32.9-11-63.1-29.6-87.3H45.8V300.1z"/>
			<path style="opacity:0.8;fill:#FBF1CF;enable-background:new    ;" d="M45.8,126.5v128.6c20.4,29.6,54.6,49,93.3,49
				c62.6,0,113.3-50.7,113.3-113.3c0-35.2-16-66.6-41.1-87.3H66.9C58.8,110.1,51.7,117.9,45.8,126.5z"/>
			<circle style="opacity:0.9;fill:#FBF3D0;enable-background:new    ;" cx="139.1" cy="190.8" r="82.9"/>
			<circle style="fill:#FCF6D0;" cx="139.1" cy="190.8" r="52.5"/>
			<circle style="fill:#FFFFFF;" cx="139.1" cy="190.8" r="22"/>
		</g>
		<g>
			<g>
				<path style="fill:#FFFFFF;" d="M443.2,109c-8.4,26,1.6,53.5,22.9,68.5v-73.9h-20.8C444.6,105.2,443.9,107.1,443.2,109z"/>
			</g>
			<g>
				<path style="fill:#FFFFFF;" d="M466.1,354.9V254.5c-12.6,5-23,15.4-27.5,29.3c-4.7,14.4-2,29.5,5.9,41.1
					c-4.6,4.1-8.5,9.1-11.2,15c-5.8-5.2-12.8-9.2-20.7-11.8c-26.8-8.7-55.4,3.1-68.7,26.8H466.1z"/>
				<path style="fill:#E7E7E7;" d="M451.9,354.9c-1.8-0.8-3.7-1.5-5.7-2.1c-16.3-5.3-33.1-4.1-47.7,2.1H451.9z"/>
			</g>
		</g>
	</g>
	<g>
		<path style="opacity:0.4;enable-background:new    ;" d="M435.9,196.5l30.4-8.1l-85.2-85.1l-8.1,30.4
			C362.8,171.8,397.7,206.8,435.9,196.5z"/>
		
			<linearGradient id="SVGID_2_" gradientUnits="userSpaceOnUse" x1="679.921" y1="332.4427" x2="713.6636" y2="366.1852" gradientTransform="matrix(1 0 0 -1 -289.9857 512)">
			<stop  offset="7.124920e-03" style="stop-color:#FFFFFF"/>
			<stop  offset="1" style="stop-color:#CCCCCC"/>
		</linearGradient>
		<path style="fill:url(#SVGID_2_);" d="M444.5,194.2l21.7-5.8l-85.1-85.1l-5.8,21.7C364.1,167,402.6,205.5,444.5,194.2z"/>
		<path style="fill:#383838;" d="M466.2,188.4l1-87l-86.2,1.9L466.2,188.4z"/>
	</g>
	<path style="fill:#0C0C0C;" d="M471.9,76.1H40c-7.8,0-14.1,6.2-14.1,14.1v278.7c0,7.8,6.2,14.1,14.1,14.1H472
		c7.8,0,14.1-6.2,14.1-14.1V90.1C486,82.3,479.8,76.1,471.9,76.1z M466.1,353.2c0,1.2-0.9,2-2,2H47.8c-1.2,0-2-0.9-2-2V105.5
		c0-1.2,0.9-2,2-2h416.2c1.2,0,2,0.9,2,2V353.2z"/>
	
		<linearGradient id="SVGID_3_" gradientUnits="userSpaceOnUse" x1="257.95" y1="284.65" x2="485.95" y2="284.65" gradientTransform="matrix(1 0 0 -1 0 514)">
		<stop  offset="0" style="stop-color:#FFFFFF"/>
		<stop  offset="1" style="stop-color:#FFFFFF;stop-opacity:0"/>
	</linearGradient>
	<path style="display:none;opacity:0.4;fill:url(#SVGID_3_);enable-background:new    ;" d="M471.9,382.7c7.8,0,14.1-6.2,14.1-14.1
		V90.1c0-7.8-6.2-14.1-14.1-14.1H258L471.9,382.7z"/>
</g>
</svg>
