<?xml version="1.0" encoding="utf-8"?>
<!-- Generator: Adobe Illustrator 18.0.0, SVG Export Plug-In . SVG Version: 6.00 Build 0)  -->
<!DOCTYPE svg PUBLIC "-//W3C//DTD SVG 1.1//EN" "http://www.w3.org/Graphics/SVG/1.1/DTD/svg11.dtd">
<svg version="1.1" id="Layer_3" xmlns="http://www.w3.org/2000/svg" xmlns:xlink="http://www.w3.org/1999/xlink" x="0px" y="0px"
	 viewBox="0 0 512 512" style="enable-background:new 0 0 512 512;" xml:space="preserve">
<radialGradient id="SVGID_1_" cx="260.6667" cy="27.3333" r="439.3338" gradientTransform="matrix(1 0 0 -1 0 512)" gradientUnits="userSpaceOnUse">
	<stop  offset="1.933882e-02" style="stop-color:#FAAD1C"/>
	<stop  offset="0.3892" style="stop-color:#F26731"/>
	<stop  offset="0.7239" style="stop-color:#E71670"/>
	<stop  offset="1" style="stop-color:#652F8C"/>
</radialGradient>
<path style="fill:url(#SVGID_1_);" d="M446,486H66c-22.1,0-40-17.9-40-40V66c0-22.1,17.9-40,40-40h380c22.1,0,40,17.9,40,40v380
	C486,468.1,468.1,486,446,486z"/>
<g>
	<g>
		<g>
			<g id="g23_1_">
				<path id="path25_1_" style="fill:#FFFFFF;" d="M249.1,287l7,8.2l7-8.2c-1.9-1.6-4.3-2.6-7-2.6C253.4,284.5,251,285.4,249.1,287z
					"/>
				<path id="path27_1_" style="fill:#FFFFFF;" d="M256.1,261.8c-8.2,0-15.7,3-21.5,7.9l8.6,10.2c3.5-2.9,8-4.7,12.9-4.7
					c5,0,9.4,1.8,12.9,4.7l8.6-10.2C271.8,264.9,264.2,261.8,256.1,261.8z"/>
				<path id="path29_1_" style="fill:#FFFFFF;" d="M219.9,252.5l8.6,10.2c7.4-6.3,17-10.1,27.5-10.1c10.5,0,20,3.8,27.5,10.1
					l8.6-10.2c-9.8-8.2-22.3-13.3-36.2-13.3C242.3,239.2,229.8,244.3,219.9,252.5z"/>
				<path id="path31_1_" style="fill:#FFFFFF;" d="M205.4,235.3l8.6,10.2c11.8-10,26.5-15.4,42.1-15.4s30.3,5.4,42.1,15.4l8.6-10.2
					c-14.2-12.1-31.9-18.6-50.7-18.6C237.3,216.6,219.6,223.2,205.4,235.3z"/>
				<path id="path33_1_" style="fill:#FFFFFF;" d="M256.1,194.1c-13.7,0-26.9,2.7-39.4,8c-9.5,4-18.2,9.3-26,16l8.6,10.2
					c15.8-13.4,35.7-20.7,56.7-20.7s40.9,7.4,56.7,20.7l8.6-10.2c-7.8-6.6-16.5-12-26-16C283,196.8,269.7,194.1,256.1,194.1z"/>
			</g>
		</g>
		<polygon style="fill:#E2E2E2;" points="295.3,376.7 292,343.5 220,343.5 216.7,376.7 		"/>
		<rect x="199.4" y="375.8" style="fill:#969696;" width="113.2" height="4.4"/>
		<g>
			<path style="fill:#0E0E0E;" d="M405,131.9H107c-5.4,0-9.7,4.3-9.7,9.7v192.3c0,5.4,4.3,9.7,9.7,9.7h298c5.4,0,9.7-4.3,9.7-9.7
				V141.6C414.7,136.2,410.4,131.9,405,131.9z M401,323.1c0,0.8-0.6,1.4-1.4,1.4H112.4c-0.8,0-1.4-0.6-1.4-1.4V152.2
				c0-0.8,0.6-1.4,1.4-1.4h287.2c0.8,0,1.4,0.6,1.4,1.4V323.1z"/>
			
				<linearGradient id="SVGID_2_" gradientUnits="userSpaceOnUse" x1="257.4" y1="235.7" x2="414.7" y2="235.7" gradientTransform="matrix(1 0 0 1 0 2)">
				<stop  offset="0" style="stop-color:#FFFFFF"/>
				<stop  offset="1" style="stop-color:#FFFFFF;stop-opacity:0"/>
			</linearGradient>
			<path style="opacity:0.4;fill:url(#SVGID_2_);enable-background:new    ;" d="M405,343.5c5.4,0,9.7-4.3,9.7-9.7V141.6
				c0-5.4-4.3-9.7-9.7-9.7H257.4L405,343.5z"/>
		</g>
	</g>
</g>
</svg>
