<?xml version="1.0" encoding="utf-8"?>
<!-- Generator: Adobe Illustrator 18.0.0, SVG Export Plug-In . SVG Version: 6.00 Build 0)  -->
<!DOCTYPE svg PUBLIC "-//W3C//DTD SVG 1.1//EN" "http://www.w3.org/Graphics/SVG/1.1/DTD/svg11.dtd">
<svg version="1.1" id="Layer_1" xmlns="http://www.w3.org/2000/svg" xmlns:xlink="http://www.w3.org/1999/xlink" x="0px" y="0px"
	 viewBox="0 0 512 512" style="enable-background:new 0 0 512 512;" xml:space="preserve">
<g>
	<g>
		<path style="fill:#231F20;" d="M384.8,120.8c0,4.5-3.7,8.2-8.2,8.2H137.5c-4.5,0-8.2-3.7-8.2-8.2V35.2c0-4.5,3.7-8.2,8.2-8.2
			h239.1c4.5,0,8.2,3.7,8.2,8.2V120.8z"/>
		<path style="fill:#F4F4F4;" d="M474.7,293.1c0,25.4-35.3,20.6-60.7,20.6H99.6c-25.4,0-60.3,4.8-60.3-20.6l14.3-145.2
			c0-25.4,20.6-46,46-46h314.3c25.4,0,46,20.6,46,46L474.7,293.1z"/>
		
			<linearGradient id="SVGID_1_" gradientUnits="userSpaceOnUse" x1="99.6459" y1="306.0536" x2="474.6534" y2="306.0536" gradientTransform="matrix(1 0 0 -1 0 514)">
			<stop  offset="0" style="stop-color:#FFFFFF"/>
			<stop  offset="1" style="stop-color:#FFFFFF;stop-opacity:0"/>
		</linearGradient>
		<path style="opacity:0.4;fill:url(#SVGID_1_);enable-background:new    ;" d="M474.7,293.1c0,25.4-35.3,20.6-60.7,20.6L99.6,101.8
			h314.3c25.4,0,46,20.6,46,46L474.7,293.1z"/>
		<g>
			
				<linearGradient id="SVGID_2_" gradientUnits="userSpaceOnUse" x1="154.2441" y1="900.9685" x2="154.2441" y2="754.9993" gradientTransform="matrix(1 0 0 1 -50 -651)">
				<stop  offset="0" style="stop-color:#B0B0B0"/>
				<stop  offset="1" style="stop-color:#E5E5E5;stop-opacity:0"/>
			</linearGradient>
			<rect x="103" y="104" style="fill:url(#SVGID_2_);" width="2.6" height="146"/>
			
				<linearGradient id="SVGID_3_" gradientUnits="userSpaceOnUse" x1="459.7559" y1="900.9685" x2="459.7559" y2="754.9993" gradientTransform="matrix(1 0 0 1 -50 -651)">
				<stop  offset="0" style="stop-color:#B0B0B0"/>
				<stop  offset="1" style="stop-color:#E5E5E5;stop-opacity:0"/>
			</linearGradient>
			<rect x="408.5" y="104" style="fill:url(#SVGID_3_);" width="2.6" height="146"/>
		</g>
		<path style="fill:#F4F4F4;" d="M474.9,437.7c0,27.3-22.1,49.3-49.3,49.3h-337c-27.3,0-49.3-22.1-49.3-49.3V309.2
			c0-27.3,22.1-49.3,49.3-49.3h337c27.3,0,49.3,22.1,49.3,49.3V437.7z"/>
		<path style="fill:#231F20;" d="M474.9,427.8c0,27.3-22.1,49.3-49.3,49.3h-337c-27.3,0-49.3-22.1-49.3-49.3V299.3
			c0-27.3,22.1-49.3,49.3-49.3h337c27.3,0,49.3,22.1,49.3,49.3V427.8z"/>
		<path style="fill:#1D3BED;" d="M330.5,275.4c0,4.5-3.7,8.2-8.2,8.2H191.8c-4.5,0-8.2-3.7-8.2-8.2V271c0-4.5,3.7-8.2,8.2-8.2h130.5
			c4.5,0,8.2,3.7,8.2,8.2V275.4z"/>
	</g>
</g>
</svg>
