<?xml version="1.0" encoding="utf-8"?>
<!-- Generator: Adobe Illustrator 18.0.0, SVG Export Plug-In . SVG Version: 6.00 Build 0)  -->
<!DOCTYPE svg PUBLIC "-//W3C//DTD SVG 1.1//EN" "http://www.w3.org/Graphics/SVG/1.1/DTD/svg11.dtd">
<svg version="1.1" id="Layer_2" xmlns="http://www.w3.org/2000/svg" xmlns:xlink="http://www.w3.org/1999/xlink" x="0px" y="0px"
	 viewBox="0 0 512 512" style="enable-background:new 0 0 512 512;" xml:space="preserve">
<linearGradient id="SVGID_1_" gradientUnits="userSpaceOnUse" x1="26" y1="256" x2="486" y2="256">
	<stop  offset="0" style="stop-color:#F7F7F7"/>
	<stop  offset="1" style="stop-color:#F7F7F7"/>
</linearGradient>
<circle style="fill:url(#SVGID_1_);" cx="256" cy="256" r="230"/>
<g>
	<path d="M289.958,352.324c-27.685,15.206-33.959,84.953-33.959,84.953s-3.422-67.887-32.807-85.16
		c-0.709-0.417,8.439,3.114,20.387,3.696c7.111,0.347,8.292-4.379,12.976-4.376c5.048-0.003,6.746,4.625,12.422,4.427
		C281.983,355.414,289.958,352.324,289.958,352.324z"/>
	<g>
		<path d="M219.232,203.804c0,0-15.32,20.167-34.218,20.167s-34.218-20.167-34.218-20.167s15.32-20.167,34.218-20.167
			S219.232,203.804,219.232,203.804z"/>
		<path d="M361.204,203.804c0,0-15.32,20.167-34.218,20.167c-18.898,0-34.218-20.167-34.218-20.167s15.32-20.167,34.218-20.167
			C345.884,183.637,361.204,203.804,361.204,203.804z"/>
	</g>
	<g>
		<path d="M142.08,156.834c0,0,17.57-31.142,47.624-28.556c30.727,2.644,47.526,21.747,47.526,27.047s-4.297,9.597-9.597,9.597
			c-2.485,0-22.319-20.827-40.969-24.149C157.204,135.525,142.08,156.834,142.08,156.834z"/>
		<path d="M369.92,156.834c0,0-17.57-31.142-47.624-28.556c-30.727,2.644-47.526,21.747-47.526,27.047s4.297,9.597,9.597,9.597
			c2.485,0,22.319-20.827,40.969-24.149C354.796,135.525,369.92,156.834,369.92,156.834z"/>
	</g>
	<g>
		<path d="M199.044,262.002c0,21.764-17.643,39.408-39.408,39.408s-39.408-17.643-39.408-39.408c0,0,3.579,35.74,39.408,35.74
			C191.201,297.742,199.044,262.002,199.044,262.002z"/>
		<path d="M312.956,262.002c0,21.764,17.643,39.408,39.408,39.408s39.408-17.643,39.408-39.408c0,0-3.579,35.74-39.408,35.74
			C320.799,297.742,312.956,262.002,312.956,262.002z"/>
	</g>
	<path d="M346.453,289.175c0,0,10.97,3.342,3.191,11.391c-13.774,14.251-39.724,19.031-51.961,18.888
		c-11.077-0.129-20.204-6.739-24.978-15.062c0.509-0.648,0.985-1.322,1.417-2.027c4.313,4.254,11.179,4.925,16.268,1.274
		c5.688-4.079,6.992-11.998,2.912-17.685c0,0,4.649,10.81-3.6,16.727c-6.843,4.908-12.758,1.6-15.449-0.537
		c1.898-3.18,2.992-6.897,2.992-10.87c0,0-5.184,18.816-21.247,18.568c-16.273-0.251-21.247-18.568-21.247-18.568
		c0,3.973,1.094,7.69,2.992,10.87c-2.691,2.137-8.606,5.445-15.449,0.537c-8.249-5.917-3.6-16.727-3.6-16.727
		c-4.079,5.688-2.775,13.605,2.912,17.685c5.089,3.65,11.955,2.979,16.268-1.274c0.433,0.705,0.908,1.38,1.417,2.027
		c-3.311,9.369-13.9,14.934-24.978,15.062c-12.236,0.142-38.186-4.637-51.961-18.888c-7.779-8.048,3.191-11.391,3.191-11.391
		c-8.652,0.394-14.365,8.683,4.107,24.849c8.385,7.339,38.258,22.27,68.665,15.795c14.728-3.137,16.497-17.333,16.497-17.334
		c0.392,0.021,0.787,0.035,1.184,0.035c0.374,0,0.746-0.011,1.115-0.029h-0.001c0,0,1.838,14.191,16.566,17.328
		c30.407,6.476,60.28-8.455,68.665-15.795C360.818,297.857,355.105,289.569,346.453,289.175z"/>
</g>
</svg>
