<?xml version="1.0" encoding="utf-8"?>
<!-- Generator: Adobe Illustrator 18.0.0, SVG Export Plug-In . SVG Version: 6.00 Build 0)  -->
<!DOCTYPE svg PUBLIC "-//W3C//DTD SVG 1.1//EN" "http://www.w3.org/Graphics/SVG/1.1/DTD/svg11.dtd">
<svg version="1.1" id="Layer_3" xmlns="http://www.w3.org/2000/svg" xmlns:xlink="http://www.w3.org/1999/xlink" x="0px" y="0px"
	 viewBox="0 0 512 512" style="enable-background:new 0 0 512 512;" xml:space="preserve">
<g style="enable-background:new    ;">
	<circle style="fill:#80C342;" cx="256" cy="256" r="230"/>
	<g>
		<path style="fill:#4D870F;" d="M302.598,286.127h-94.256c-3.966,0-7.181-3.215-7.181-7.181v-29.395
			c0-5.528-5.984-8.983-10.772-6.219L77.282,308.634c-4.788,2.764-4.788,9.674,0,12.439l113.107,65.302
			c4.788,2.764,10.772-0.691,10.772-6.219V350.76c0-3.966,3.215-7.181,7.181-7.181h94.256c3.966,0,7.181-3.215,7.181-7.181v-43.088
			C309.779,289.343,306.564,286.127,302.598,286.127z"/>
		<path style="fill:#4D870F;" d="M209.402,168.421h94.256c3.966,0,7.181-3.215,7.181-7.181v-29.395
			c0-5.528,5.984-8.983,10.772-6.219l113.107,65.302c4.788,2.764,4.788,9.674,0,12.439l-113.107,65.302
			c-4.788,2.764-10.772-0.691-10.772-6.219v-29.395c0-3.966-3.215-7.181-7.181-7.181h-94.256c-3.966,0-7.181-3.215-7.181-7.181
			v-43.088C202.221,171.637,205.436,168.421,209.402,168.421z"/>
	</g>
	<path style="fill:#FFFFFF;" d="M288.179,372.267c-26.989-7.118-53.389-15.127-76.522-23.135c-4.152-1.484-8.305-2.966-12.161-2.966
		c-47.456-1.78-88.091-36.778-88.091-101.141c0-64.066,39.152-105.293,93.133-105.293c54.277,0,89.574,42.118,89.574,101.142
		c0,51.311-23.728,84.234-56.947,95.801v1.187c19.871,5.042,41.524,9.788,58.431,12.754L288.179,372.267z M266.824,242.06
		c0-40.041-20.763-81.269-63.176-81.269c-43.6,0-64.955,40.339-64.659,83.643c-0.296,42.414,23.135,80.675,63.472,80.675
		C243.69,325.107,266.824,287.736,266.824,242.06z"/>
	<path style="fill:#FFFFFF;" d="M363.224,158.122v41.228h37.371v19.871h-37.371v77.412c0,17.797,5.041,27.88,19.575,27.88
		c6.822,0,11.864-0.889,15.127-1.78l1.186,19.576c-5.042,2.076-13.05,3.56-23.135,3.56c-12.161,0-21.949-3.857-28.177-10.975
		c-7.415-7.712-10.085-20.464-10.085-37.371v-78.303h-22.245V199.35h22.245v-34.406L363.224,158.122z"/>
</g>
</svg>
