<?xml version="1.0" encoding="utf-8"?>
<!-- Generator: Adobe Illustrator 18.0.0, SVG Export Plug-In . SVG Version: 6.00 Build 0)  -->
<!DOCTYPE svg PUBLIC "-//W3C//DTD SVG 1.1//EN" "http://www.w3.org/Graphics/SVG/1.1/DTD/svg11.dtd">
<svg version="1.1" id="Layer_2" xmlns="http://www.w3.org/2000/svg" xmlns:xlink="http://www.w3.org/1999/xlink" x="0px" y="0px"
	 viewBox="0 0 512 512" style="enable-background:new 0 0 512 512;" xml:space="preserve">
<linearGradient id="SVGID_1_" gradientUnits="userSpaceOnUse" x1="26" y1="256" x2="486" y2="256">
	<stop  offset="0" style="stop-color:#81F1FD"/>
	<stop  offset="1" style="stop-color:#2279F0"/>
</linearGradient>
<circle style="fill:url(#SVGID_1_);" cx="256" cy="256" r="230"/>
<path style="fill:#FFFFFF;" d="M429.538,341.609c-8.332,1.05-16.968,3.994-25.575,8.475c-8.618,4.468-17.231,10.418-25.725,17.405
	c-4.248,3.494-8.477,7.23-12.663,11.191c-2.083,2.003-4.182,4.003-6.247,6.104c-2.006,2.034-4.021,4.079-6.045,6.131
	c-0.232,0.232-0.468,0.462-0.701,0.694c-4.37,0.141-8.725-0.207-12.996-1.246c-4.03-0.985-7.986-2.529-11.771-4.78
	c-3.779-2.265-7.425-5.107-10.857-8.569c-6.903-6.857-12.967-15.908-18.862-25.013c-0.961-1.483-1.921-2.965-2.881-4.443
	c33.352-15.596,56.462-49.443,56.462-88.694c0-54.05-43.816-97.865-97.865-97.865c-54.05,0-97.865,43.816-97.865,97.865
	c0,41.141,25.388,76.347,61.35,90.82l-19.999,19.999l17.364,29.305l42.311-42.311c3.286-0.105,6.53-0.372,9.727-0.793
	c0.791,3.296,1.531,6.706,2.24,10.201c1.264,6.201,2.45,12.69,3.783,19.386c1.34,6.692,2.809,13.607,4.851,20.574
	c2.048,6.919,4.72,14.058,8.801,20.072c2.039,2.969,4.413,5.608,7.028,7.56c2.604,1.988,5.411,3.301,8.213,4.047
	c5.635,1.485,11.183,0.835,16.429-0.626c2.608-0.735,5.158-1.681,7.662-2.775c1.028,0.85,2.068,1.664,3.125,2.426
	c9.188,6.688,19.236,9.818,28.914,10.683c4.854,0.456,9.646,0.361,14.338-0.07l1.789-0.191l1.738-0.211l1.649-0.222l1.65-0.197
	c2.107-0.213,4.196-0.553,6.264-0.66c0.233-0.019,0.464-0.029,0.697-0.046c11.423-7.829,22.103-16.66,31.914-26.371
	c-2.596-0.336-5.231-0.569-7.904-0.679c-8.463-0.332-17.269,0.524-26.192,2.399c-2.239,0.414-4.462,1.06-6.714,1.588
	c-1.081,0.275-2.166,0.551-3.255,0.829l-1.557,0.383l-1.521,0.353c-4.156,0.899-8.367,1.498-12.581,1.624
	c-4.947,0.166-9.908-0.333-14.743-1.687c5.652-3.856,11.112-8.109,16.449-12.529c1.923-0.021,3.835-0.11,5.73-0.262
	c4.622-0.433,9.096-1.129,13.664-2.164c2.245-0.51,4.18-1.019,6.437-1.588c2.019-0.526,4.024-0.984,6.01-1.418
	c7.945-1.674,15.608-2.495,22.728-2.332c5.671,0.136,10.984,0.919,15.791,2.284c6.858-7.94,13.176-16.359,18.91-25.192
	c-3.712-1.75-7.65-3.117-11.75-4.031c-7.03-1.576-14.512-1.881-22.204-1.14c5.478-1.713,10.686-2.606,15.457-2.689
	c6.427-0.112,12.021,1.314,16.522,3.623c1.211,0.62,2.337,1.303,3.393,2.025c5.534-8.74,10.496-17.876,14.831-27.36
	c-3.596-2.857-7.738-5.4-12.346-7.191C445.891,341.542,437.864,340.554,429.538,341.609z M253.813,325.731
	c-7.513,0-14.733-1.264-21.48-3.56c1.634-3.593,4.907-6.356,11.377-4.935c2.954,0.648,5.65,3.041,8.315,5.777
	c0.802,0.82,1.583,1.729,2.343,2.704C254.182,325.719,253.999,325.731,253.813,325.731z M259.512,325.472
	c-1.863-2.596-3.85-4.816-5.904-6.566c-1.418-1.216-2.857-2.204-4.292-3.013c3.422,1.1,6.944,2.803,10.405,5.41
	c1.428,1.071,2.839,2.296,4.226,3.661C262.485,325.187,261.003,325.345,259.512,325.472z M259.602,312.038
	c-3.371-1.181-6.651-1.768-9.755-2.014c-1.554-0.164-3.066-0.12-4.531-0.131c-0.51,0.032-14.322,0.202-21.155,8.882
	c-22.03-10.949-37.212-33.683-37.212-59.908c0-36.87,29.996-66.865,66.865-66.865c36.869,0,66.864,29.994,66.864,66.864
	c0,29.271-18.913,54.191-45.155,63.227c-1.869-1.748-3.767-3.323-5.682-4.683C266.431,314.97,262.969,313.22,259.602,312.038z
	 M303.003,421.997c-3.999-0.527-7.592-2.649-10.656-6.467c-3.07-3.807-5.591-9.184-7.692-15.051
	c-2.107-5.883-3.843-12.227-5.474-18.567c-1.629-6.349-3.155-12.719-4.773-18.909c-0.709-2.71-1.441-5.379-2.199-8.006
	c3.093-0.588,6.135-1.321,9.118-2.193c2.901,6.542,5.676,13.616,8.547,20.921c4.524,11.471,9.32,23.643,15.585,34.951
	c2.337,4.214,4.884,8.284,7.658,12.071C309.649,421.9,306.22,422.441,303.003,421.997z M328.549,412.467
	c-0.98,0.686-1.963,1.348-2.95,1.987c-4.791-4.234-9.219-9.618-13.224-15.818c-6.116-9.397-11.317-20.413-16.386-31.276
	c-1.819-3.899-3.63-7.787-5.468-11.599c0.732,1.328,1.467,2.666,2.21,4.017c5.439,9.866,11.345,20.385,18.802,29.233
	c3.701,4.436,7.795,8.341,12.131,11.588c3.748,2.796,7.697,4.997,11.718,6.683C333.123,409.108,330.845,410.849,328.549,412.467z"/>
</svg>
