<?xml version="1.0" encoding="utf-8"?>
<!-- Generator: Adobe Illustrator 18.0.0, SVG Export Plug-In . SVG Version: 6.00 Build 0)  -->
<!DOCTYPE svg PUBLIC "-//W3C//DTD SVG 1.1//EN" "http://www.w3.org/Graphics/SVG/1.1/DTD/svg11.dtd">
<svg version="1.1" id="Layer_3" xmlns="http://www.w3.org/2000/svg" xmlns:xlink="http://www.w3.org/1999/xlink" x="0px" y="0px"
	 viewBox="0 0 512 512" style="enable-background:new 0 0 512 512;" xml:space="preserve">
<g>
	<g>
		<path style="fill:#FF65D4;" d="M486,257.1c0-1,0-2,0-3c-0.2-20.1-2.9-39.6-7.9-58.2c-2.8,21.1-10.2,41.7-22.2,60.1
			c-5.4,8.2-11.6,15.9-18.8,23.1c-14.2,14.2-30.7,24.8-48.2,31.9c-21.7,8.7-45.1,11.9-68.1,9.7c-14.5-1.4-28.8-5-42.4-10.8
			c-7.7-3.3-15.2-7.3-22.3-11.9c-4.6-3-9-6.3-13.3-9.8c-3.4-2.8-6.7-5.8-9.8-9c-3.2-3.2-6.1-6.5-9-9.8c0.5,5.5,1.3,11,2.4,16.3
			c1.7,8.4,4.2,16.4,7.3,24.2c5.5,13.7,13.1,26.4,22.3,37.6c14.6,17.9,33.5,32.1,55,41.3c17.4,7.4,36.5,11.5,56.7,11.5
			c10.2,0,20.1-1.1,29.6-3.1c21.6-4.5,41.4-13.9,58.2-26.8C474.7,337.1,485.8,298.4,486,257.1z"/>
		<path style="fill:#00BD9B;" d="M278.3,202.2c-5.5-13.7-13.1-26.4-22.3-37.6c-14.6-17.9-33.5-32.1-55-41.3
			c-17.4-7.4-36.5-11.5-56.7-11.5c-10.2,0-20.1,1.1-29.6,3.1c-21.6,4.5-41.4,13.9-58.2,26.8C37.3,174.9,26.2,213.6,26,254.8
			c0,1,0,2.1,0,3.1c0.2,20.1,2.9,39.6,7.9,58.1c2.8-21.1,10.2-41.7,22.2-60.1c5.4-8.2,11.6-15.9,18.8-23.1
			c14.2-14.2,30.7-24.8,48.2-31.9c21.7-8.7,45.1-11.9,68.1-9.7c14.5,1.4,28.8,5,42.4,10.8c7.7,3.3,15.2,7.3,22.3,11.9
			c4.6,3,9,6.3,13.3,9.8c3.4,2.8,6.7,5.8,9.8,9c3.2,3.2,6.1,6.5,9,9.8c-0.5-5.5-1.3-11-2.4-16.4C283.9,218,281.4,209.9,278.3,202.2z
			"/>
		<path style="fill:#9C56B8;" d="M455.5,370.5c-16.9,13-36.7,22.3-58.2,26.8c-9.6,2-19.5,3.1-29.6,3.1c-20.1,0-39.3-4.1-56.7-11.5
			c-21.5-9.2-40.4-23.5-55-41.3c-9.2-11.3-16.8-23.9-22.3-37.6c-3.1-7.8-5.6-15.8-7.3-24.2c-1.1-5.3-1.9-10.8-2.4-16.3
			c-0.4-4.4-0.6-8.8-0.6-13.3s0.2-8.9,0.6-13.3c-3.6,4.3-6.8,8.7-9.8,13.3c-4.7,7.1-8.7,14.6-11.9,22.3
			c-5.8,13.6-9.4,27.9-10.8,42.4c-2.3,23,1,46.4,9.7,68.1c7,17.6,17.7,34,31.9,48.2c7.2,7.2,14.9,13.4,23.1,18.8
			c18.4,12.1,39,19.5,60.1,22.2C375.6,462,425.5,422.7,455.5,370.5z"/>
		<path style="fill:#51D88B;" d="M279.1,75c-7.2-7.2-14.9-13.4-23.1-18.8c-18.4-12.1-39-19.5-60.1-22.2
			C136.4,50,86.5,89.3,56.5,141.5c16.9-13,36.7-22.3,58.2-26.8c9.6-2,19.5-3.1,29.6-3.1c20.1,0,39.3,4.1,56.7,11.5
			c21.5,9.2,40.4,23.5,55,41.3c9.2,11.3,16.8,23.9,22.3,37.6c3.1,7.8,5.6,15.8,7.3,24.2c1.1,5.3,1.9,10.8,2.4,16.4
			c0.4,4.4,0.6,8.8,0.6,13.3s-0.2,8.9-0.6,13.3c3.6-4.3,6.8-8.7,9.8-13.3c4.7-7.1,8.7-14.6,11.9-22.3c5.8-13.6,9.4-27.9,10.8-42.4
			c2.3-23-1-46.4-9.7-68.1C304,105.7,293.3,89.2,279.1,75z"/>
		<path style="fill:#2D98E0;" d="M233.7,202.2c-13.6-5.8-27.9-9.4-42.4-10.8c-23-2.3-46.4,1-68.1,9.7c-17.6,7-34,17.7-48.2,31.9
			c-7.2,7.2-13.4,14.9-18.8,23.1c-12.1,18.4-19.5,39-22.2,60.1c16,59.4,55.3,109.3,107.5,139.3c-13-16.9-22.3-36.7-26.8-58.2
			c-2-9.6-3.1-19.5-3.1-29.6c0-20.1,4.1-39.3,11.5-56.7c9.2-21.5,23.5-40.4,41.3-55c11.3-9.2,23.9-16.8,37.6-22.3
			c7.8-3.1,15.8-5.6,24.2-7.3c5.3-1.1,10.8-1.9,16.3-2.4c4.4-0.4,8.8-0.6,13.3-0.6c4.5,0,8.9,0.2,13.3,0.6
			c-4.3-3.6-8.7-6.8-13.3-9.8C248.9,209.4,241.4,205.4,233.7,202.2z"/>
		<path style="fill:#E84C3D;" d="M455.8,256c12.1-18.4,19.5-39,22.2-60.1c-16-59.5-55.3-109.4-107.5-139.4
			c13,16.9,22.3,36.7,26.8,58.2c2,9.6,3.1,19.5,3.1,29.6c0,20.1-4.1,39.3-11.5,56.7c-9.2,21.5-23.5,40.4-41.3,55
			c-11.3,9.2-23.9,16.8-37.6,22.3c-7.8,3.1-15.8,5.6-24.2,7.3c-5.3,1.1-10.8,1.9-16.4,2.4c-4.4,0.4-8.8,0.6-13.3,0.6
			s-8.9-0.2-13.3-0.6c4.3,3.6,8.7,6.8,13.3,9.8c7.1,4.7,14.6,8.7,22.3,11.9c13.6,5.8,27.9,9.4,42.4,10.8c23,2.3,46.4-1,68.1-9.7
			c17.6-7,34-17.7,48.2-31.9C444.2,271.9,450.5,264.2,455.8,256z"/>
		<path style="fill:#6659FF;" d="M257.9,486c20.1-0.2,39.6-2.9,58.1-7.9c-21.1-2.8-41.7-10.2-60.1-22.2
			c-8.2-5.4-15.9-11.6-23.1-18.8c-14.2-14.2-24.8-30.7-31.9-48.2c-8.7-21.7-11.9-45.1-9.7-68.1c1.4-14.5,5-28.8,10.8-42.4
			c3.3-7.7,7.3-15.2,11.9-22.3c3-4.6,6.3-9,9.8-13.3c2.8-3.4,5.8-6.7,9-9.8c3.2-3.2,6.5-6.1,9.8-9c-5.5,0.5-11,1.3-16.3,2.4
			c-8.4,1.7-16.4,4.2-24.2,7.3c-13.7,5.5-26.4,13.1-37.6,22.3c-17.9,14.6-32.1,33.5-41.3,55c-7.4,17.4-11.5,36.5-11.5,56.7
			c0,10.2,1.1,20.1,3.1,29.6c4.5,21.6,13.9,41.4,26.8,58.2c33.4,19.2,72.1,30.2,113.3,30.5C255.9,486,256.9,486,257.9,486z"/>
		<path style="fill:#F1C50E;" d="M254.1,26c-20.1,0.2-39.6,2.9-58.1,7.9c21.1,2.8,41.7,10.2,60.1,22.2c8.2,5.4,15.9,11.6,23.1,18.8
			c14.2,14.2,24.8,30.7,31.9,48.2c8.7,21.7,11.9,45.1,9.7,68.1c-1.4,14.5-5,28.8-10.8,42.4c-3.3,7.7-7.3,15.2-11.9,22.3
			c-3,4.6-6.3,9-9.8,13.3c-2.8,3.4-5.8,6.7-9,9.8c-3.2,3.2-6.5,6.1-9.8,9c5.5-0.5,11-1.3,16.4-2.4c8.4-1.7,16.4-4.2,24.2-7.3
			c13.7-5.5,26.4-13.1,37.6-22.3c17.9-14.6,32.1-33.5,41.3-55c7.4-17.4,11.5-36.5,11.5-56.7c0-10.2-1.1-20.1-3.1-29.6
			c-4.5-21.6-13.9-41.4-26.8-58.2C337.1,37.3,298.4,26.2,257.2,26C256.1,26,255.1,26,254.1,26z"/>
	</g>
	<path style="fill:#F4F4F4;" d="M256,46c28.4,0,55.9,5.5,81.7,16.5c25,10.6,47.5,25.7,66.8,45s34.4,41.8,45,66.8
		c10.9,25.9,16.5,53.4,16.5,81.7c0,28.4-5.5,55.9-16.5,81.7c-10.6,25-25.7,47.5-45,66.8s-41.8,34.4-66.8,45
		c-25.8,11-53.3,16.5-81.7,16.5s-55.9-5.5-81.7-16.5c-25-10.6-47.5-25.7-66.8-45s-34.4-41.8-45-66.8C51.5,311.9,46,284.4,46,256
		s5.5-55.9,16.5-81.7c10.6-25,25.7-47.5,45-66.8s41.8-34.4,66.8-45C200.1,51.5,227.6,46,256,46 M256,26C129,26,26,129,26,256
		s103,230,230,230s230-103,230-230S383,26,256,26L256,26z"/>
</g>
<g>
	<radialGradient id="SVGID_1_" cx="256.7235" cy="223.9592" r="129.5101" gradientUnits="userSpaceOnUse">
		<stop  offset="0" style="stop-color:#7F0015"/>
		<stop  offset="1" style="stop-color:#F50005"/>
	</radialGradient>
	<path style="fill:url(#SVGID_1_);" d="M256,125.888c-43.364,0-78.518,35.154-78.518,78.518c0,15.894,4.726,30.681,12.845,43.042
		L256,354.589l65.673-107.14c8.118-12.361,12.845-27.149,12.845-43.042C334.519,161.042,299.364,125.888,256,125.888z"/>
	<path style="fill:#FFFFFF;" d="M256,132.055c39.894,0,72.35,32.456,72.35,72.35c0,14.157-4.092,27.87-11.833,39.657l-0.053,0.08
		l-0.05,0.082L256,342.787l-60.415-98.562l-0.05-0.082l-0.053-0.08c-7.741-11.787-11.833-25.5-11.833-39.657
		C183.65,164.511,216.106,132.055,256,132.055 M256,125.888c-43.364,0-78.518,35.154-78.518,78.518
		c0,15.894,4.726,30.681,12.845,43.042L256,354.589l65.673-107.14c8.118-12.361,12.845-27.149,12.845-43.042
		C334.519,161.042,299.364,125.888,256,125.888L256,125.888z"/>
	<g>
		<path style="fill:#FFFFFF;" d="M273.414,219.03c-1.433-1.434-3.336-2.223-5.358-2.223c-1.161,0-2.316,0.272-3.358,0.788
			c-2.079-1.032-4.633-1.033-6.715,0c-2.08-1.032-4.632-1.033-6.715,0c-2.081-1.033-4.634-1.033-6.715,0
			c-1.04-0.516-2.197-0.788-3.357-0.788c-4.18,0-7.581,3.401-7.581,7.581c0,3.855,2.922,7.091,6.719,7.524v81.062l0.017,0.392
			l1.709,0.002v-83.188l-0.423,0.032c-0.291,0.022-0.589,0.022-0.881,0c-3.032-0.228-5.407-2.786-5.407-5.824
			c0-3.224,2.623-5.847,5.847-5.847c0.559,0,1.107,0.078,1.636,0.233c-1.599,1.438-2.502,3.449-2.502,5.615
			c0,2.403,1.113,4.615,3.052,6.067c0.337,0.252,0.66,0.458,0.987,0.632l0.184,0.098l0.184-0.098c0.327-0.173,0.65-0.38,0.989-0.632
			c0.917-0.687,1.661-1.562,2.186-2.565c0.524,1.002,1.268,1.878,2.186,2.565c0.337,0.252,0.66,0.458,0.987,0.632l0.184,0.098
			l0.184-0.098c0.328-0.174,0.651-0.381,0.988-0.632c0.917-0.687,1.661-1.562,2.185-2.565c0.525,1.002,1.269,1.878,2.186,2.565
			c0.339,0.253,0.662,0.46,0.989,0.632l0.183,0.098l0.183-0.097c0.326-0.172,0.65-0.379,0.989-0.633
			c0.917-0.687,1.661-1.563,2.185-2.565c0.525,1.003,1.268,1.879,2.185,2.565c0.338,0.252,0.661,0.459,0.987,0.632l0.184,0.098
			l0.183-0.098c0.33-0.175,0.653-0.381,0.989-0.632c1.939-1.452,3.052-3.663,3.052-6.067c0-2.166-0.904-4.176-2.502-5.615
			c0.529-0.155,1.076-0.233,1.635-0.233c3.224,0,5.848,2.623,5.848,5.847c0,2.859-2.134,5.341-4.963,5.773
			c-0.324,0.05-0.613,0.074-0.882,0.075l-0.392,0.001v83.139h1.727v-81.531c3.584-0.641,6.243-3.787,6.243-7.456
			C275.637,222.367,274.847,220.463,273.414,219.03z M267.188,224.389c0,1.911-0.926,3.679-2.49,4.779
			c-1.563-1.1-2.489-2.868-2.489-4.779s0.926-3.679,2.489-4.779C266.262,220.709,267.188,222.478,267.188,224.389z M261.341,220.887
			c-0.414-0.794-0.968-1.508-1.637-2.113c1.059-0.31,2.215-0.31,3.273,0C262.31,219.378,261.756,220.093,261.341,220.887z
			 M260.474,224.388c0,1.91-0.926,3.678-2.491,4.779c-1.564-1.1-2.491-2.867-2.491-4.779s0.926-3.679,2.491-4.778
			C259.549,220.71,260.474,222.478,260.474,224.388z M254.626,220.887c-0.415-0.794-0.968-1.508-1.637-2.113
			c1.057-0.31,2.214-0.31,3.274,0C255.595,219.378,255.043,220.093,254.626,220.887z M253.759,224.388
			c0,1.911-0.926,3.679-2.49,4.779c-1.564-1.1-2.49-2.867-2.49-4.779s0.926-3.679,2.49-4.779
			C252.833,220.708,253.759,222.477,253.759,224.388z M249.548,218.775c-0.668,0.604-1.221,1.319-1.637,2.113
			c-0.415-0.794-0.968-1.508-1.637-2.113C247.333,218.465,248.491,218.465,249.548,218.775z M247.045,224.388
			c0,1.911-0.926,3.679-2.491,4.779c-1.564-1.1-2.491-2.868-2.491-4.779c0-1.912,0.926-3.68,2.491-4.779
			C246.119,220.709,247.045,222.477,247.045,224.388z"/>
		<path style="fill:#3A3A3A;" d="M287.524,354.587v-51.431h-63.046v51.432l0,0c0,17.41,14.113,31.523,31.523,31.523
			s31.523-14.113,31.523-31.523C287.524,354.588,287.524,354.587,287.524,354.587z"/>
	</g>
</g>
</svg>
