<?xml version="1.0" encoding="utf-8"?>
<!-- Generator: Adobe Illustrator 18.0.0, SVG Export Plug-In . SVG Version: 6.00 Build 0)  -->
<!DOCTYPE svg PUBLIC "-//W3C//DTD SVG 1.1//EN" "http://www.w3.org/Graphics/SVG/1.1/DTD/svg11.dtd">
<svg version="1.1" id="Layer_1" xmlns="http://www.w3.org/2000/svg" xmlns:xlink="http://www.w3.org/1999/xlink" x="0px" y="0px"
	 viewBox="0 0 512 512" style="enable-background:new 0 0 512 512;" xml:space="preserve">
<g>
	<g>
		<g>
			<g>
				<polygon style="fill:#E2E2E2;" points="431.8,351 430.1,351.4 430.1,386.8 430.1,404.9 430.1,423.9 466.4,416.6 456.3,367.2 
					452.7,349.4 430.1,238.5 430.1,342.6 				"/>
			</g>
			<g>
				<polygon style="fill:#E2E2E2;" points="125.1,486 276.1,455.3 118.9,455.3 				"/>
			</g>
			<g>
				<g>
					<polygon style="fill:#E2E2E2;" points="81.9,109.2 81.9,88.1 81.5,88.1 81.5,109.3 					"/>
				</g>
				<polygon style="fill:#FF9D00;" points="70.1,111.6 81.5,167.5 81.5,109.3 				"/>
				<polygon style="fill:#E2E2E2;" points="81.5,167.5 70.1,111.6 81.5,109.3 81.5,88.1 45.6,95.4 68.9,209.5 81.9,273.5 
					81.9,169.4 				"/>
			</g>
			<g>
				<g>
					<polygon style="fill:#E2E2E2;" points="371.9,56.7 393.1,56.7 393,56.1 371.8,56.1 					"/>
				</g>
				<g>
					<polygon style="fill:#E2E2E2;" points="235.9,56.7 340.1,56.7 343.1,56.1 238.9,56.1 					"/>
				</g>
				<polygon style="fill:#FF9D00;" points="343.1,56.1 371.8,56.1 370.7,50.5 				"/>
				<polygon style="fill:#E2E2E2;" points="238.9,56.1 343.1,56.1 370.7,50.5 371.8,56.1 393,56.1 386.9,26 				"/>
				<g>
					<path style="fill:#F2F2F2;" d="M81.9,56.7v398.6h348.2V56.7H81.9z M409.3,186.6v197.5H102.7V77.5h306.7v88.4L409.3,186.6
						L409.3,186.6z"/>
				</g>
			</g>
		</g>
	</g>
	<radialGradient id="SVGID_1_" cx="314.5698" cy="307.1155" r="367.3916" gradientUnits="userSpaceOnUse">
		<stop  offset="0" style="stop-color:#00AF86"/>
		<stop  offset="1" style="stop-color:#3F6DA6"/>
	</radialGradient>
	<polygon style="fill:url(#SVGID_1_);" points="409.3,384.2 409.3,186.6 409.3,165.9 409.3,77.5 102.7,77.5 102.7,384.2 
		200.6,384.2 221.4,384.2 	"/>
	<g>
		<circle style="fill:#FFD00F;" cx="259.2" cy="229.4" r="75.4"/>
		<polygon style="fill:#5CC3B7;" points="309.6,271.4 244.5,384.2 374.7,384.2 		"/>
		<polygon style="fill:#70C8BC;" points="191.7,305.6 146.4,384.2 237.1,384.2 		"/>
		<polygon style="fill:#27B898;" points="387.8,346.5 366.2,383.8 409.3,383.8 		"/>
		<polygon style="fill:#5CC3B7;" points="134.3,332.9 104.7,384.2 163.8,384.2 		"/>
	</g>
</g>
<g>
	<g>
		<linearGradient id="SVGID_2_" gradientUnits="userSpaceOnUse" x1="373.6" y1="488.8" x2="373.6" y2="265">
			<stop  offset="0" style="stop-color:#000000"/>
			<stop  offset="0.9877" style="stop-color:#4D4D4D"/>
		</linearGradient>
		<circle style="fill:url(#SVGID_2_);" cx="373.6" cy="376.9" r="111.9"/>
	</g>
	<g>
		<linearGradient id="SVGID_3_" gradientUnits="userSpaceOnUse" x1="299.7074" y1="450.7927" x2="447.4926" y2="303.0073">
			<stop  offset="0" style="stop-color:#000000"/>
			<stop  offset="0.5" style="stop-color:#4D4D4D"/>
			<stop  offset="1" style="stop-color:#000000"/>
		</linearGradient>
		<circle style="fill:url(#SVGID_3_);" cx="373.6" cy="376.9" r="104.5"/>
		<linearGradient id="SVGID_4_" gradientUnits="userSpaceOnUse" x1="315.15" y1="435.35" x2="432.05" y2="318.45">
			<stop  offset="0" style="stop-color:#000000"/>
			<stop  offset="0.5" style="stop-color:#4D4D4D"/>
			<stop  offset="1" style="stop-color:#000000"/>
		</linearGradient>
		<path style="fill:url(#SVGID_4_);" d="M373.6,459.6c-45.6,0-82.7-37.1-82.7-82.7s37.1-82.7,82.7-82.7s82.7,37.1,82.7,82.7
			S419.2,459.6,373.6,459.6z"/>
		<radialGradient id="SVGID_5_" cx="374.8122" cy="376.9" r="103.2888" gradientUnits="userSpaceOnUse">
			<stop  offset="0" style="stop-color:#000000;stop-opacity:0"/>
			<stop  offset="0.8587" style="stop-color:#000000;stop-opacity:0.8587"/>
			<stop  offset="1" style="stop-color:#000000"/>
		</radialGradient>
		<path style="fill:url(#SVGID_5_);" d="M373.6,459.6c-45.6,0-82.7-37.1-82.7-82.7s37.1-82.7,82.7-82.7s82.7,37.1,82.7,82.7
			S419.2,459.6,373.6,459.6z"/>
		<linearGradient id="SVGID_6_" gradientUnits="userSpaceOnUse" x1="325.4687" y1="425.0312" x2="421.7125" y2="328.7875">
			<stop  offset="0" style="stop-color:#000000"/>
			<stop  offset="0.5" style="stop-color:#4D4D4D"/>
			<stop  offset="1" style="stop-color:#000000"/>
		</linearGradient>
		<path style="fill:url(#SVGID_6_);" d="M373.6,445c-37.6,0-68.1-30.6-68.1-68.1c0-37.6,30.6-68.1,68.1-68.1s68.1,30.6,68.1,68.1
			S411.2,445,373.6,445z"/>
		<radialGradient id="SVGID_7_" cx="373.6" cy="376.9" r="82.4555" gradientUnits="userSpaceOnUse">
			<stop  offset="0" style="stop-color:#000000;stop-opacity:0"/>
			<stop  offset="0.8587" style="stop-color:#000000;stop-opacity:0.8587"/>
			<stop  offset="1" style="stop-color:#000000"/>
		</radialGradient>
		<path style="fill:url(#SVGID_7_);" d="M373.6,445c-37.6,0-68.1-30.6-68.1-68.1c0-37.6,30.6-68.1,68.1-68.1s68.1,30.6,68.1,68.1
			S411.2,445,373.6,445z"/>
		<g>
			<g style="opacity:0.7;">
				<g>
					<linearGradient id="SVGID_8_" gradientUnits="userSpaceOnUse" x1="407.6359" y1="435.8708" x2="339.5589" y2="317.9579">
						<stop  offset="0" style="stop-color:#0019D4"/>
						<stop  offset="0.5337" style="stop-color:#FFE53F"/>
						<stop  offset="1" style="stop-color:#FF00F1"/>
					</linearGradient>
					<path style="fill:url(#SVGID_8_);" d="M373.6,445c-37.6,0-68.1-30.6-68.1-68.1s30.6-68.1,68.1-68.1s68.1,30.6,68.1,68.1
						S411.2,445,373.6,445z"/>
				</g>
				<defs>
					<filter id="Adobe_OpacityMaskFilter" filterUnits="userSpaceOnUse" x="305.5" y="308.8" width="136.2" height="136.2">
						<feColorMatrix  type="matrix" values="1 0 0 0 0  0 1 0 0 0  0 0 1 0 0  0 0 0 1 0"/>
					</filter>
				</defs>
				<mask maskUnits="userSpaceOnUse" x="305.5" y="308.8" width="136.2" height="136.2" id="SVGID_12_">
					<g style="filter:url(#Adobe_OpacityMaskFilter);">
					</g>
				</mask>
				<g style="opacity:0.75;mask:url(#SVGID_12_);">
					<path d="M373.6,445c-37.6,0-68.1-30.6-68.1-68.1s30.6-68.1,68.1-68.1s68.1,30.6,68.1,68.1S411.2,445,373.6,445z"/>
				</g>
			</g>
			<linearGradient id="SVGID_9_" gradientUnits="userSpaceOnUse" x1="325.4781" y1="425.0406" x2="421.7219" y2="328.7969">
				<stop  offset="0" style="stop-color:#E9003A;stop-opacity:0"/>
				<stop  offset="1" style="stop-color:#000D94"/>
			</linearGradient>
			<path style="fill:url(#SVGID_9_);" d="M373.6,445c-37.6,0-68.1-30.6-68.1-68.1s30.6-68.1,68.1-68.1s68.1,30.6,68.1,68.1
				S411.2,445,373.6,445z"/>
			<circle style="opacity:0.3;enable-background:new    ;" cx="373.6" cy="376.9" r="51.6"/>
			<circle style="opacity:0.3;enable-background:new    ;" cx="373.6" cy="376.9" r="36.3"/>
			<circle style="opacity:0.3;enable-background:new    ;" cx="373.6" cy="376.9" r="18.4"/>
		</g>
		<linearGradient id="SVGID_10_" gradientUnits="userSpaceOnUse" x1="373.0579" y1="379.6079" x2="433.838" y2="440.388">
			<stop  offset="0" style="stop-color:#FFFFFF;stop-opacity:0.7"/>
			<stop  offset="0.1451" style="stop-color:#FFFFFF;stop-opacity:0.5985"/>
			<stop  offset="1" style="stop-color:#FFFFFF;stop-opacity:0"/>
		</linearGradient>
		<path style="fill:url(#SVGID_10_);" d="M455.7,366.6c-7.6-2.5-15.7-3.8-24.1-3.8c-43.1,0-78.1,35-78.1,78.1
			c0,5.7,0.6,11.2,1.8,16.6c5.9,1.3,12,2.1,18.4,2.1c45.6,0,82.7-37.1,82.7-82.7C456.3,373.4,456.1,370,455.7,366.6z"/>
	</g>
</g>
</svg>
