<?xml version="1.0" encoding="utf-8"?>
<!-- Generator: Adobe Illustrator 18.0.0, SVG Export Plug-In . SVG Version: 6.00 Build 0)  -->
<!DOCTYPE svg PUBLIC "-//W3C//DTD SVG 1.1//EN" "http://www.w3.org/Graphics/SVG/1.1/DTD/svg11.dtd">
<svg version="1.1" id="Layer_1" xmlns="http://www.w3.org/2000/svg" xmlns:xlink="http://www.w3.org/1999/xlink" x="0px" y="0px"
	 viewBox="0 0 512 512" style="enable-background:new 0 0 512 512;" xml:space="preserve">
<g>
	<radialGradient id="SVGID_1_" cx="256" cy="256" r="230" gradientUnits="userSpaceOnUse">
		<stop  offset="0" style="stop-color:#080055"/>
		<stop  offset="0.1874" style="stop-color:#07004D"/>
		<stop  offset="0.4825" style="stop-color:#050036"/>
		<stop  offset="0.8465" style="stop-color:#020012"/>
		<stop  offset="1" style="stop-color:#000000"/>
	</radialGradient>
	<rect x="26" y="26" style="fill:url(#SVGID_1_);" width="460" height="460"/>
	<g>
		<rect x="26" y="26" style="fill:#1E1E1E;" width="460" height="98.207"/>
	</g>
	<g>
		<g>
			<g>
				<polygon style="fill:#FFFFFF;" points="171.115,121.836 123.502,121.836 168.291,74.626 215.905,74.626 				"/>
			</g>
			<g>
				<polygon points="218.733,121.836 171.119,121.836 215.909,74.626 263.522,74.626 				"/>
			</g>
			<g>
				<polygon style="fill:#FFFFFF;" points="266.345,121.836 218.731,121.836 263.52,74.626 311.134,74.626 				"/>
			</g>
			<g>
				<polygon points="313.961,121.836 266.347,121.836 311.137,74.626 358.75,74.626 				"/>
			</g>
			<g>
				<polygon style="fill:#FFFFFF;" points="361.573,121.836 313.959,121.836 358.748,74.626 406.362,74.626 				"/>
			</g>
			<g>
				<polygon points="409.182,121.836 361.568,121.836 406.357,74.626 453.971,74.626 				"/>
			</g>
			<g>
				<polygon style="fill:#FFFFFF;" points="486,74.626 454.007,74.626 409.218,121.836 456.832,121.836 486,91.091 				"/>
			</g>
		</g>
		<g>
			<g>
				<polygon style="fill:#FFFFFF;" points="171.115,26 123.502,26 168.291,73.21 215.905,73.21 				"/>
			</g>
			<g>
				<polygon points="218.733,26 171.119,26 215.909,73.21 263.522,73.21 				"/>
			</g>
			<g>
				<polygon style="fill:#FFFFFF;" points="266.345,26 218.731,26 263.52,73.21 311.134,73.21 				"/>
			</g>
			<g>
				<polygon points="313.961,26 266.347,26 311.137,73.21 358.75,73.21 				"/>
			</g>
			<g>
				<polygon style="fill:#FFFFFF;" points="361.573,26 313.959,26 358.748,73.21 406.362,73.21 				"/>
			</g>
			<g>
				<polygon points="409.182,26 361.568,26 406.357,73.21 453.971,73.21 				"/>
			</g>
			<g>
				<polygon style="fill:#FFFFFF;" points="486,73.21 486,56.745 456.832,26 409.218,26 454.007,73.21 				"/>
			</g>
		</g>
	</g>
	<g>
		<g>
			<polygon points="111.107,121.754 26,121.754 26,26 44.594,26 111.107,104.884 			"/>
		</g>
		<g>
			<circle style="fill:#636364;" cx="37.814" cy="35.507" r="5.827"/>
		</g>
		<g>
			<circle style="fill:#636364;" cx="38.167" cy="110.707" r="5.827"/>
		</g>
		<g>
			<circle style="fill:#636364;" cx="91.58" cy="110.707" r="5.827"/>
		</g>
	</g>
</g>
<g>
	<g>
		<path style="fill:#FFFFFF;" d="M95.52,395.215c0-4.226,2.856-7.197,6.854-7.197c3.997,0,6.739,2.971,6.739,7.197
			c0,4.113-2.627,7.197-6.854,7.197C98.261,402.412,95.52,399.328,95.52,395.215z"/>
		<path style="fill:#FFFFFF;" d="M119.163,395.215c0-4.226,2.856-7.197,6.854-7.197c3.997,0,6.739,2.971,6.739,7.197
			c0,4.113-2.627,7.197-6.854,7.197C121.905,402.412,119.163,399.328,119.163,395.215z"/>
		<path style="fill:#FFFFFF;" d="M142.807,395.215c0-4.226,2.856-7.197,6.854-7.197s6.74,2.971,6.74,7.197
			c0,4.113-2.627,7.197-6.854,7.197C145.549,402.412,142.807,399.328,142.807,395.215z"/>
		<path style="fill:#FFFFFF;" d="M166.45,395.215c0-4.226,2.856-7.197,6.854-7.197s6.74,2.971,6.74,7.197
			c0,4.113-2.627,7.197-6.854,7.197C169.192,402.412,166.45,399.328,166.45,395.215z"/>
		<path style="fill:#FFFFFF;" d="M190.094,395.215c0-4.226,2.856-7.197,6.854-7.197s6.74,2.971,6.74,7.197
			c0,4.113-2.627,7.197-6.854,7.197C192.835,402.412,190.094,399.328,190.094,395.215z"/>
		<path style="fill:#FFFFFF;" d="M213.738,395.215c0-4.226,2.856-7.197,6.854-7.197c3.997,0,6.739,2.971,6.739,7.197
			c0,4.113-2.627,7.197-6.854,7.197C216.48,402.412,213.738,399.328,213.738,395.215z"/>
		<path style="fill:#FFFFFF;" d="M237.381,395.215c0-4.226,2.856-7.197,6.854-7.197c3.997,0,6.739,2.971,6.739,7.197
			c0,4.113-2.627,7.197-6.854,7.197C240.123,402.412,237.381,399.328,237.381,395.215z"/>
		<path style="fill:#FFFFFF;" d="M261.024,395.215c0-4.226,2.856-7.197,6.854-7.197c3.997,0,6.739,2.971,6.739,7.197
			c0,4.113-2.627,7.197-6.854,7.197C263.766,402.412,261.024,399.328,261.024,395.215z"/>
		<path style="fill:#FFFFFF;" d="M284.669,395.215c0-4.226,2.856-7.197,6.854-7.197c3.998,0,6.741,2.971,6.741,7.197
			c0,4.113-2.628,7.197-6.854,7.197C287.41,402.412,284.669,399.328,284.669,395.215z"/>
		<path style="fill:#FFFFFF;" d="M308.313,395.215c0-4.226,2.855-7.197,6.854-7.197c3.997,0,6.739,2.971,6.739,7.197
			c0,4.113-2.627,7.197-6.854,7.197C311.055,402.412,308.313,399.328,308.313,395.215z"/>
		<path style="fill:#FFFFFF;" d="M331.957,395.215c0-4.226,2.855-7.197,6.854-7.197c3.997,0,6.739,2.971,6.739,7.197
			c0,4.113-2.627,7.197-6.854,7.197C334.699,402.412,331.957,399.328,331.957,395.215z"/>
		<path style="fill:#FFFFFF;" d="M355.6,395.215c0-4.226,2.855-7.197,6.854-7.197c3.997,0,6.739,2.971,6.739,7.197
			c0,4.113-2.627,7.197-6.854,7.197C358.342,402.412,355.6,399.328,355.6,395.215z"/>
		<path style="fill:#FFFFFF;" d="M379.243,395.215c0-4.226,2.856-7.197,6.854-7.197c3.997,0,6.739,2.971,6.739,7.197
			c0,4.113-2.627,7.197-6.854,7.197C381.985,402.412,379.243,399.328,379.243,395.215z"/>
		<path style="fill:#FFFFFF;" d="M402.887,395.215c0-4.226,2.856-7.197,6.854-7.197c3.997,0,6.739,2.971,6.739,7.197
			c0,4.113-2.627,7.197-6.854,7.197C405.629,402.412,402.887,399.328,402.887,395.215z"/>
	</g>
	<g id="Layer_2_2_">
		<g>
			<polygon style="fill:#BCBCBB;" points="210.498,337.072 210.556,337.072 343.362,204.266 328.051,188.956 168.695,348.312 			"/>
			<polygon style="fill:#FFFFFF;" points="179.877,306.451 179.877,306.451 168.638,348.312 168.695,348.312 328.051,188.956 
				312.683,173.588 			"/>
		</g>
	</g>
</g>
</svg>
