<?xml version="1.0" encoding="utf-8"?>
<!-- Generator: Adobe Illustrator 18.0.0, SVG Export Plug-In . SVG Version: 6.00 Build 0)  -->
<!DOCTYPE svg PUBLIC "-//W3C//DTD SVG 1.1//EN" "http://www.w3.org/Graphics/SVG/1.1/DTD/svg11.dtd">
<svg version="1.1" id="Layer_1" xmlns="http://www.w3.org/2000/svg" xmlns:xlink="http://www.w3.org/1999/xlink" x="0px" y="0px"
	 viewBox="0 0 512 512" style="enable-background:new 0 0 512 512;" xml:space="preserve">
<g>
	<path style="fill:#7C4A28;" d="M462.709,26H265.745c-6.155,0-11.973,2.814-15.794,7.639l-10.653,13.452
		c-3.774,4.765-9.519,7.544-15.597,7.544H49.291c-11.08,0-20.063,8.982-20.063,20.063v358.716c0,5.635,4.568,10.203,10.203,10.203
		h433.137c5.635,0,10.203-4.568,10.203-10.203V54.635v-8.572C482.771,34.982,473.789,26,462.709,26z"/>
	<path style="fill:#A35D29;" d="M462.709,47.191H265.745c-6.155,0-11.973,2.814-15.794,7.639l-10.653,13.452
		c-3.774,4.765-9.519,7.544-15.597,7.544H49.291c-11.08,0-20.063,8.982-20.063,20.063v358.716c0,5.635,4.568,10.203,10.203,10.203
		h433.137c5.635,0,10.203-4.568,10.203-10.203V75.827v-8.572C482.771,56.174,473.789,47.191,462.709,47.191z"/>
	<path style="fill:#CD8340;" d="M462.709,68.383H265.745c-6.155,0-11.973,2.814-15.794,7.639l-10.653,13.452
		c-3.774,4.765-9.519,7.544-15.597,7.544H49.291c-11.08,0-20.063,8.982-20.063,20.063v104.237v247.023
		c0,9.753,7.906,17.659,17.659,17.659h418.224c9.753,0,17.659-7.906,17.659-17.659V221.318v-124.3v-8.573
		C482.771,77.365,473.789,68.383,462.709,68.383z"/>
	<path style="fill:#FCC588;" d="M472.771,486H39.229c-5.523,0-10-4.477-10-10V205.999c0-11.046,8.954-20,20-20h413.543
		c11.046,0,20,8.954,20,20V476C482.771,481.523,478.294,486,472.771,486z"/>
</g>
</svg>
