<?xml version="1.0" encoding="utf-8"?>
<!-- Generator: Adobe Illustrator 18.0.0, SVG Export Plug-In . SVG Version: 6.00 Build 0)  -->
<!DOCTYPE svg PUBLIC "-//W3C//DTD SVG 1.1//EN" "http://www.w3.org/Graphics/SVG/1.1/DTD/svg11.dtd">
<svg version="1.1" id="Layer_1" xmlns="http://www.w3.org/2000/svg" xmlns:xlink="http://www.w3.org/1999/xlink" x="0px" y="0px"
	 viewBox="0 0 512 512" style="enable-background:new 0 0 512 512;" xml:space="preserve">
<g>
	<linearGradient id="SVGID_1_" gradientUnits="userSpaceOnUse" x1="256" y1="485" x2="256" y2="25">
		<stop  offset="0" style="stop-color:#FFB115"/>
		<stop  offset="1" style="stop-color:#FF8700"/>
	</linearGradient>
	<path style="fill:url(#SVGID_1_);" d="M446,485H66c-22.1,0-40-17.9-40-40V65c0-22.1,17.9-40,40-40h380c22.1,0,40,17.9,40,40v380
		C486,467.1,468.1,485,446,485z"/>
	<linearGradient id="SVGID_2_" gradientUnits="userSpaceOnUse" x1="256" y1="485" x2="256" y2="85.0001">
		<stop  offset="0" style="stop-color:#FF8700"/>
		<stop  offset="1" style="stop-color:#FFB115"/>
	</linearGradient>
	<path style="fill:url(#SVGID_2_);" d="M446,125H66c-22.1,0-40-17.9-40-40v360c0,22.1,17.9,40,40,40h380c22.1,0,40-17.9,40-40V85
		C486,107.1,468.1,125,446,125z"/>
	<path style="opacity:0.3;fill:#FF7300;" d="M446,125H66c-22.1,0-40-17.9-40-40v48c0,22.1,17.9,40,40,40h380c22.1,0,40-17.9,40-40
		V85C486,107.1,468.1,125,446,125z"/>
	<path style="fill:#FFD19F;" d="M446,40c13.8,0,25,11.2,25,25v20c0,13.8-11.2,25-25,25H66c-13.8,0-25-11.2-25-25V65
		c0-13.8,11.2-25,25-25H446 M446,25H66c-22.1,0-40,17.9-40,40v20c0,22.1,17.9,40,40,40h380c22.1,0,40-17.9,40-40V65
		C486,42.9,468.1,25,446,25L446,25z"/>
</g>
<g>
	<path style="fill:#FFFFFF;" d="M217.1,275.2c0.7,0.2,1.3,0.8,1.9,1.2c6.2,4.1,12.4,8.2,18.6,12.3c0.6,0.4,1.1,1.3,1.9,0
		c4-6.7,8-13.3,12.1-19.9c0.1-0.2,0.3-0.4,0.5-0.6c0-0.4-0.4-0.6-0.6-0.8c-7-4.6-14-9.2-21-13.9c-0.7-0.5-1.1-0.5-1.6,0.3
		c-4.1,6.6-8.2,13.2-12.3,19.8C216,274.4,216.1,274.9,217.1,275.2z"/>
	<path style="fill:#FFFFFF;" d="M161.5,350.8c1.5,0,2.4-0.5,3.1-1.7c3.5-5.9,7-11.7,10.5-17.6c4.6-7.6,9.2-15.2,13.7-22.8
		c-0.5-0.7-1.3-0.4-1.9-0.4c-3.9,0-7.7,0-11.6-0.1c-9.2-0.1-18.3-0.2-27.5-0.2c-0.7,0-1.7-0.4-2.1,0.7c0,1,0.1,1.9,0.1,2.9
		c0,12.3,0.1,24.6,0.1,36.9c0,1.7,0.3,2.4,2.2,2.3C152.5,350.7,157,350.7,161.5,350.8z"/>
	<path style="fill:#FFFFFF;" d="M247.7,227.6c6.1,14.4,12.7,28.5,19.5,42.6c0.1,0.1,0.2,0.3,0.3,0.4c0,0.1,0.1,0.3,0.1,0.4
		c0.1,0.1,0.2,0.3,0.3,0.4c0,0.1,0.1,0.3,0.1,0.4c0.1,0.1,0.2,0.3,0.3,0.4c0,0.2,0.1,0.3,0.1,0.5c0.1,0.1,0.2,0.2,0.3,0.4
		c0.1,0.2,0.1,0.3,0.2,0.5c1.5,3,3.1,6.1,4.6,9.1l0,0c0.1,0.1,0.2,0.3,0.3,0.4c0,0.2,0.1,0.5,0.1,0.7c0.1,0.2,0.3,0.4,0.4,0.6
		c0.1,0.1,0.1,0.2,0,0.3c0.1,0.2,0.3,0.4,0.4,0.6c0.1,0.1,0.1,0.2,0,0.2c0.1,0.2,0.3,0.4,0.4,0.6c0.1,0.1,0.1,0.2,0,0.3
		c1.2,1.4,1.9,3.1,2.8,4.7c7.4,13.9,15,27.6,23.7,40.8c1.6,2.4,1.6,2.4,4,1c4.3-2.5,8.5-5.1,12.9-7.4c1.4-0.8,1.4-1.4,0.7-2.7
		c-2.7-5-5.2-10.1-7.9-15.2c-3.1-5.7-6.1-11.5-9.2-17.2c-11.3-20.9-22.5-41.7-35.1-61.9c-4.2-6.7-8.6-13.2-14-19
		c-2-2.2-4.2-4.1-7-5.3c-2.5-1-4,0-4,2.7c0,0.7,0.1,1.4,0.1,2.1C242.9,215.5,245.2,221.6,247.7,227.6z"/>
	<path style="fill:#FFFFFF;" d="M231.9,250.8c5.9,3.8,11.9,7.7,17.8,11.5c3.8,2.5,3.9,2.5,5.4-1.8c0.9-2.7,1.8-5.6,0.3-8.4
		c-3.1-5.5-7.9-8.6-13.8-9.3c-4.9,0.1-7.8,2.6-10,6.2C230.9,250.1,231.1,250.3,231.9,250.8z"/>
	<path style="fill:#FFFFFF;" d="M150.7,410.8c0.1,0.1,0.3,0.1,0.4,0.2c10.1-8.4,20.3-16.8,30.5-25.3c-7.4-5.1-14.5-10.1-22-15.2
		C156.6,384.1,153.6,397.4,150.7,410.8z"/>
	<path style="fill:#FFFFFF;" d="M281.4,308.3c-0.6-0.6-1.4-0.4-2.2-0.4c-14,0-28,0-42,0.1c-0.8,0-1.5-0.1-2.2,0.4
		c-0.5,0.9-1.1,1.9-1.6,2.8c-4.3,7.1-8.6,14.3-13,21.3c-3.4,5.5-6.8,11-10.1,16.6c-0.6,1.1-0.7,1.6,0.8,1.5c0.3,0,0.7,0,1,0
		c30.4,0,60.7-0.1,91.1-0.1c1,0,2,0,3.4,0c-2.4-4.1-4.7-7.9-7-11.7C293.5,328.6,287.5,318.5,281.4,308.3z"/>
	<path style="fill:#FFFFFF;" d="M356.4,386.8c-5.4-9.2-11.4-18.1-18.2-26.4c-1.1-1.3-1.8-1.3-3.2-0.5c-3.7,2.3-7.5,4.4-11.2,6.6
		c-0.6,0.3-0.7,0.4-0.5,1.1c2.5,7.6,5,15.1,8,22.5c2.8,6.9,5.9,13.6,10.2,19.7c2,2.8,4.6,4.5,7.4,4.4c6.3,0,11.5-3.2,14-8.1
		c1.4-2.9,1.3-5.7-0.3-8.4C360.5,394,358.5,390.4,356.4,386.8z"/>
	<path style="fill:#FFFFFF;" d="M365.4,308.2c-15.1,0-30.3,0-45.4,0.1c-0.6,0-1.3-0.2-1.7,0.5c0.5,1.1,1,2.3,1.5,3.4
		c6,12.3,12.1,24.6,18,37c0.5,1.1,1.1,1.4,2.3,1.4c8-0.1,16.1-0.1,24.1,0c1.9,0,2.2-0.6,2.2-2.3c-0.1-13.3-0.1-26.6-0.1-39.8
		C366.1,308.2,365.7,308.2,365.4,308.2z"/>
	<path style="fill:#FFFFFF;" d="M334.2,352.7c-4-7.9-7.9-15.8-11.9-23.7c-0.2-0.4-0.3-0.9-1-0.8c-0.2,0.1-0.4,0.2-0.5,0.3
		c-4.9,2.8-9.7,5.7-14.6,8.5c-1.2,0.7-0.8,1.3-0.3,2.1c4.5,7.5,9.1,15,13.6,22.5c0.5,0.9,0.9,1.1,1.9,0.5c4.1-2.6,8.2-5.1,12.3-7.6
		C334.3,354,334.7,353.7,334.2,352.7z"/>
	<path style="fill:#FFFFFF;" d="M237,293.8c0.6-0.9,0.1-1.3-0.6-1.7c-7-4.5-14.1-9.1-21.1-13.7c-1-0.7-1.4-0.5-2,0.5
		c-1.6,2.8-3.2,5.6-4.9,8.3c-4.8,8.1-9.7,16.3-14.6,24.4c-0.7,1.2-1.4,2.5-2.1,3.7c-8.5,14.4-17,28.8-25.5,43.2
		c-1.2,2-2.3,3.9-3.4,5.9c-0.2,0.4-0.7,0.7,0.1,1.3c6.9,4.6,13.8,9.3,20.6,14c1.3,0.9,1.5,0,1.9-0.8c11.6-19.1,23.1-38.2,34.7-57.3
		C225.7,312.3,231.4,303.1,237,293.8z"/>
</g>
<g style="opacity:0.2;">
	<path style="fill:#FFFFFF;" d="M29.5,101.3l-3.5,3.5V119l8.9-8.9C32.7,107.4,30.9,104.5,29.5,101.3z"/>
	<path style="fill:#FFFFFF;" d="M44.7,118.8L26,137.5v14.1l28.4-28.4C50.9,122.2,47.7,120.7,44.7,118.8z"/>
	<polygon style="fill:#FFFFFF;" points="71.2,125 26,170.2 26,184.4 85.4,125 	"/>
	<polygon style="fill:#FFFFFF;" points="103.9,125 26,202.9 26,217.1 118.1,125 	"/>
	<polygon style="fill:#FFFFFF;" points="136.6,125 26,235.6 26,249.8 150.8,125 	"/>
	<polygon style="fill:#FFFFFF;" points="169.3,125 26,268.3 26,282.5 183.5,125 	"/>
	<polygon style="fill:#FFFFFF;" points="202,125 26,301 26,315.2 216.2,125 	"/>
	<polygon style="fill:#FFFFFF;" points="234.7,125 26,333.7 26,347.9 248.9,125 	"/>
	<polygon style="fill:#FFFFFF;" points="267.4,125 26,366.4 26,380.6 281.6,125 	"/>
	<polygon style="fill:#FFFFFF;" points="300.1,125 26,399.1 26,413.3 314.3,125 	"/>
	<path style="fill:#FFFFFF;" d="M332.8,125L26,431.8V445c0,0.3,0,0.6,0,0.9L347,125H332.8z"/>
	<path style="fill:#FFFFFF;" d="M365.5,125L29.4,461.1c1.4,3.2,3.2,6.1,5.3,8.8L379.7,125H365.5z"/>
	<path style="fill:#FFFFFF;" d="M398.2,125L44.5,478.7c3,1.9,6.2,3.4,9.6,4.5L412.4,125H398.2z"/>
	<polygon style="fill:#FFFFFF;" points="430.9,125 70.9,485 85.1,485 445.1,125 	"/>
	<polygon style="fill:#FFFFFF;" points="486,102.6 103.6,485 117.8,485 486,116.8 	"/>
	<polygon style="fill:#FFFFFF;" points="486,135.3 136.3,485 150.5,485 486,149.5 	"/>
	<polygon style="fill:#FFFFFF;" points="486,168 169,485 183.2,485 486,182.2 	"/>
	<polygon style="fill:#FFFFFF;" points="486,200.7 201.7,485 215.9,485 486,214.9 	"/>
	<polygon style="fill:#FFFFFF;" points="486,233.4 234.4,485 248.6,485 486,247.6 	"/>
	<polygon style="fill:#FFFFFF;" points="486,266.1 267.1,485 281.3,485 486,280.3 	"/>
	<polygon style="fill:#FFFFFF;" points="486,298.8 299.8,485 314,485 486,313 	"/>
	<polygon style="fill:#FFFFFF;" points="486,331.5 332.5,485 346.7,485 486,345.7 	"/>
	<polygon style="fill:#FFFFFF;" points="486,364.2 365.2,485 379.4,485 486,378.4 	"/>
	<polygon style="fill:#FFFFFF;" points="486,396.9 397.9,485 412.1,485 486,411.1 	"/>
	<polygon style="fill:#FFFFFF;" points="486,443.8 486,429.6 430.6,485 444.8,485 	"/>
</g>
<g>
	<g>
		<circle style="fill:#231F20;" cx="152.5" cy="210" r="22"/>
		<path style="fill:#FFFFFF;" d="M152.5,193c9.4,0,17,7.6,17,17s-7.6,17-17,17s-17-7.6-17-17S143.1,193,152.5,193 M152.5,188
			c-12.2,0-22,9.8-22,22s9.8,22,22,22s22-9.8,22-22C174.5,197.9,164.7,188,152.5,188L152.5,188z"/>
	</g>
	<g>
		<circle style="fill:#231F20;" cx="359.5" cy="210" r="22"/>
		<path style="fill:#FFFFFF;" d="M359.5,193c9.4,0,17,7.6,17,17s-7.6,17-17,17s-17-7.6-17-17S350.1,193,359.5,193 M359.5,188
			c-12.2,0-22,9.8-22,22s9.8,22,22,22s22-9.8,22-22S371.7,188,359.5,188L359.5,188z"/>
	</g>
	<path style="opacity:0.4;" d="M372.4,217.4c0-7-5.5-12.7-12.3-12.7s-12.3,5.7-12.3,12.7c0,36.1-2,81.5-17.7,111.2
		c-6.4,12.3-14.8,21.2-25.5,27.3c-12.4,7-28.8,10.6-48.6,10.6c-20.8,0-37.7-3.6-50.4-10.6c-10.7-6-18.9-14.8-25.1-26.9
		c-6.1-12.1-10.4-27.5-13-47.1c-2.2-16.8-3.3-37-3.3-63.5c0-0.3,0-0.6,0-0.9c0-7-5.5-12.7-12.3-12.7s-12.3,5.7-12.3,12.7
		c0.1,96.2,12.4,174.4,116.4,174.4c99.7,0,116.2-77.6,116.3-173.4C372.3,218.1,372.4,217.8,372.4,217.4z"/>
	<path style="fill:#FFF6EE;" d="M372.4,217c0-6.8-5.5-12.3-12.3-12.3s-12.3,5.5-12.3,12.3c0,35-2,78.9-17.7,107.7
		c-6.4,11.9-14.8,20.5-25.5,26.4c-12.4,6.8-28.8,10.3-48.6,10.3c-20.8,0-37.7-3.5-50.4-10.3c-10.7-5.8-18.9-14.3-25.1-26
		c-6.1-11.7-10.4-26.6-13-45.6c-2.2-16.3-3.3-35.8-3.3-61.5c0-0.3,0-0.6,0-0.9c0-6.8-5.5-12.3-12.3-12.3s-12.3,5.5-12.3,12.3
		C139.7,310.3,152,386,256,386c99.7,0,116.2-75.1,116.3-167.9C372.3,217.7,372.4,217.4,372.4,217z"/>
</g>
</svg>
