<?xml version="1.0" encoding="utf-8"?>
<!-- Generator: Adobe Illustrator 18.0.0, SVG Export Plug-In . SVG Version: 6.00 Build 0)  -->
<!DOCTYPE svg PUBLIC "-//W3C//DTD SVG 1.1//EN" "http://www.w3.org/Graphics/SVG/1.1/DTD/svg11.dtd">
<svg version="1.1" id="Layer_1" xmlns="http://www.w3.org/2000/svg" xmlns:xlink="http://www.w3.org/1999/xlink" x="0px" y="0px"
	 viewBox="0 0 512 512" style="enable-background:new 0 0 512 512;" xml:space="preserve">
<g>
	<g>
		<path style="fill:#93D6E3;" d="M212.282,94.636c0,0,31.952,39.789,8.659,77.879c-7.803,12.76-26.953,31.11-53.042,31.016
			c-3.376,0.13,8.652,52.246,8.838,52.045c49.229-11.088,72.512-53.283,75.571-76.866
			C260.516,115.412,212.282,94.636,212.282,94.636z"/>
		<path style="fill:#6BCCE3;" d="M217.215,78.504c0,0,38.34,50.353,8.241,96.831c-10.082,15.569-33.586,35.242-65.928,34.289
			c-4.189,0.053,8.227,67.517,8.464,67.274c61.389-12.17,91.607-63.737,96.154-92.878C276.35,105.807,217.215,78.504,217.215,78.504
			z"/>
		<path style="fill:#5BCAE9;" d="M217.272,62.12c0,0,41.545,54.562,8.93,104.925c-10.925,16.871-36.393,38.188-71.439,37.155
			c-4.539,0.058,8.915,73.161,9.171,72.897c66.521-13.187,99.264-69.065,104.191-100.642C281.35,91.705,217.272,62.12,217.272,62.12
			z"/>
		<path style="fill:#4AC8F0;" d="M216.018,40.842c0,0,53.101,54.569,23.904,114.448c-9.781,20.059-34.994,46.966-73.759,50.525
			c-4.995,0.672,19.63,79.441,19.877,79.116c71.55-23.449,100.15-89.424,101.349-124.886
			C290.608,64.862,216.018,40.842,216.018,40.842z"/>
		<path style="fill:#38C6F4;" d="M216.968,26c0,0,63.154,61.67,33.956,121.549c-9.781,20.059-34.105,50.401-72.869,53.96
			c-4.995,0.672-79.023,62.469-32.387,78.974c31.401,11.418,71.428-1.128,71.675-1.452c71.55-23.449,95.39-85.511,96.589-120.974
			C317.151,62.874,216.968,26,216.968,26z"/>
	</g>
	<g>
		<path style="display:none;fill:#14BDF0;" d="M351.651,344.865c-12.163,110.198-97.543,127.684-97.543,127.684
			s66.548-55.149,33.382-113.12C287.491,359.429,357.415,333.994,351.651,344.865z"/>
		<path style="fill:#14BDF0;" d="M299.412,412.043c3.452,28.224,3.452,61.851,41.421,73.957c0,0-20.87-22.867,4.719-69.423
			L299.412,412.043z"/>
		<path style="fill:#90D7EF;" d="M233.293,190.791c-0.042-0.011-0.077-0.029-0.117-0.045c-1.863-0.758-49.926-12.85-86.535,2.546
			c-55.247,22.677-75.089,78.964-29.951,117.792c0.083,0.071,0.145,0.161,0.181,0.264c3.711,10.591,16.088,23.168,20.842,27.732
			c0.485,0.465,1.273-0.008,1.083-0.653c-1.545-5.229-4.449-18.304-0.401-32.923c0.015-0.056,0.038-0.112,0.065-0.163
			c13.557-25.209,45.912-19.18,51.974-18.668c46.996,1.985,78.16,37.155,91.159,60.78c48.479,75.327-15.789,134.512-15.789,134.511
			C384.045,453.718,417.713,241.212,233.293,190.791z"/>
	</g>
	<g>
		<path style="fill:#38C6F4;" d="M232.968,298.551c-3.958-2.143-8.128-4.057-12.487-5.705
			C227.839,296.725,232.814,298.616,232.968,298.551z"/>
		<path style="fill:#14BDF0;" d="M242.589,193.58c-0.07-0.028-6.243-1.953-9.359-2.806c-0.318-0.377-49.372-13.134-86.589,2.518
			c-55.299,22.699-75.126,79.07-29.824,117.901c4.539,13.231,22.778,29.651,22.778,29.651s-6.472-16.42-1.177-35.425
			c66.166-99.638,123.404,33.736,227.487-28.521c115.245-68.933,11.343-215.79,11.343-215.79s25.931,90.855-33.055,130.307
			C314.008,211.604,242.654,193.61,242.589,193.58"/>
	</g>
	<g>
		<g>
			<linearGradient id="SVGID_1_" gradientUnits="userSpaceOnUse" x1="210.7401" y1="181.964" x2="418.7693" y2="181.964">
				<stop  offset="0" style="stop-color:#18BDEF"/>
				<stop  offset="1" style="stop-color:#4BC7EF"/>
			</linearGradient>
			<path style="fill:url(#SVGID_1_);" d="M371.499,87.353c0,0,12.286,80.172-50.078,114.031
				c-20.891,11.343-59.402,19.077-95.218-1.82c-4.747-2.508-23.632,50.039-28.796,61.627
				c76.551,23.933,150.26,21.143,182.678-16.857C441.763,163.789,371.499,87.353,371.499,87.353z"/>
			<linearGradient id="SVGID_2_" gradientUnits="userSpaceOnUse" x1="230.2286" y1="185.2864" x2="409.3047" y2="185.2864">
				<stop  offset="0" style="stop-color:#18BDEF"/>
				<stop  offset="1" style="stop-color:#6CCCE3"/>
			</linearGradient>
			<path style="fill:url(#SVGID_2_);" d="M360.274,97.213c0,0,14.312,71.636-40.425,104.635
				c-18.336,11.054-52.672,19.578-85.747,2.231c-4.373-2.064-25.211,59.062-25.207,62.642
				c69.849,18.423,137.853-4.452,157.31-32.386C418.428,159.357,360.274,97.213,360.274,97.213z"/>
			<linearGradient id="SVGID_3_" gradientUnits="userSpaceOnUse" x1="228.168" y1="190.5929" x2="415.8982" y2="190.5929">
				<stop  offset="0" style="stop-color:#18BDEF"/>
				<stop  offset="1" style="stop-color:#92D6E1"/>
			</linearGradient>
			<path style="fill:url(#SVGID_3_);" d="M348.838,112.853c0,0,11.3,58.758-37.759,91.505c-16.434,10.97-57.689,7.895-88.917-6.691
				c-4.119-1.717-37.659,64.638-37.325,64.5c65.176,14.016,137.645,4.167,164.829-29.833
				C401.667,162.887,348.838,112.853,348.838,112.853z"/>
			<linearGradient id="SVGID_4_" gradientUnits="userSpaceOnUse" x1="222.12" y1="195.7258" x2="356.9763" y2="195.7258">
				<stop  offset="0" style="stop-color:#18BDEF"/>
				<stop  offset="0.2163" style="stop-color:#2FBEED"/>
				<stop  offset="0.489" style="stop-color:#52C4E9"/>
				<stop  offset="0.7906" style="stop-color:#78CDE5"/>
				<stop  offset="1" style="stop-color:#92D6E1"/>
			</linearGradient>
			<path style="fill:url(#SVGID_4_);" d="M337.249,120.994c0,0,7.295,57.305-31.655,84.596
				c-37.927,11.411-61.572,6.576-87.011-4.613c-3.352-1.309-28.766,52.831-33.745,61.191
				C237.667,273.36,297.428,280.645,335.667,233C379.257,181.173,337.249,120.994,337.249,120.994z"/>
		</g>
		<path style="fill:#90D7EF;" d="M116.866,311.324c4.613,13.208,22.729,29.52,22.729,29.52s-11.482-26.943-9.558-34.99
			C130.037,305.854,122.585,305.292,116.866,311.324z"/>
		<path style="fill:#FFFFFF;" d="M122.072,265.067c-3.61,0-6.537,2.926-6.537,6.537c0,3.61,2.927,6.537,6.537,6.537
			c3.61,0,6.537-2.927,6.537-6.537C128.608,267.993,125.682,265.067,122.072,265.067z M122.072,275.95
			c-2.307,0-4.177-1.87-4.177-4.177s1.87-4.177,4.177-4.177c2.307,0,4.177,1.87,4.177,4.177S124.379,275.95,122.072,275.95z"/>
	</g>
</g>
</svg>
