<?xml version="1.0" encoding="utf-8"?>
<!-- Generator: Adobe Illustrator 18.0.0, SVG Export Plug-In . SVG Version: 6.00 Build 0)  -->
<!DOCTYPE svg PUBLIC "-//W3C//DTD SVG 1.1//EN" "http://www.w3.org/Graphics/SVG/1.1/DTD/svg11.dtd">
<svg version="1.1" id="Layer_1" xmlns="http://www.w3.org/2000/svg" xmlns:xlink="http://www.w3.org/1999/xlink" x="0px" y="0px"
	 viewBox="0 0 512 512" enable-background="new 0 0 512 512" xml:space="preserve">
<path opacity="0.4" d="M422.9,222.2c0-58.6-30.2-110.1-75.8-139.9C333.3,45.3,297.8,19,256,19c-41.8,0-77.4,26.3-91.1,63.3
	c-45.6,29.8-75.8,81.3-75.8,139.9c0,0.9,0,1.7,0,2.6c0,0.9,0,1.7,0,2.6c0,55.9,27.5,105.4,69.8,135.7v18.3c0,0,0,0,0,0c0,0,0,0,0,0
	c0,0,0,0,0,0s0,0,0,0c0.6,54,43.8,97.7,97.1,97.7c53.3,0,96.6-43.6,97.1-97.7c0,0,0,0,0,0s0,0,0,0v-1c0,0,0,0,0,0l0,0c0,0,0,0,0,0
	c0,0,0,0,0,0c0,0,0-0.1,0-0.1v-17.1c42.2-30.3,69.8-79.8,69.8-135.7c0-0.9,0-1.7,0-2.6C422.9,223.9,422.9,223,422.9,222.2z"/>
<g id="Layer_2_1_">
	<g>
		<g>
			<circle fill="#B2B3B3" cx="256" cy="229.2" r="166.9"/>
			<circle fill="#E8E8E8" cx="256" cy="234.3" r="166.9"/>
			<circle fill="#F4F4F4" cx="256" cy="231.8" r="105.4"/>
		</g>
		<g>
			<g>
				<ellipse fill="#FFFFFF" cx="256" cy="387" rx="89.8" ry="91.3"/>
				<path fill="#010101" d="M256,298.5c48.2,0,87.4,39.8,87.4,88.8s-39.2,88.8-87.4,88.8s-87.4-39.8-87.4-88.8
					S207.8,298.5,256,298.5 M256,288.5c-53.7,0-97.2,44.2-97.2,98.7S202.3,486,256,486s97.2-44.2,97.2-98.7S309.7,288.5,256,288.5
					L256,288.5z"/>
				<g>
					<ellipse fill="#13172E" cx="256" cy="387.3" rx="62.2" ry="63.2"/>
					<path fill="#191919" d="M256,342.3c24.4,0,44.3,20.2,44.3,45c0,24.8-19.9,45-44.3,45s-44.3-20.2-44.3-45
						C211.7,362.5,231.6,342.3,256,342.3 M256,324c-34.4,0-62.2,28.3-62.2,63.2c0,34.9,27.9,63.2,62.2,63.2s62.2-28.3,62.2-63.2
						S290.4,324,256,324L256,324z"/>
				</g>
			</g>
			<path opacity="0.4" fill="#010101" enable-background="new    " d="M256,372.8c53.7,0,97.2,14.6,97.2,14.6
				c0-53.7-43.5-97.2-97.2-97.2s-97.2,43.5-97.2,97.2C158.8,387.4,202.3,372.8,256,372.8z"/>
			<path fill="#CCC8C8" d="M258.7,315.6c-74,0-99.9,72.7-99.9,72.7s39.2-63.1,99.4-63.1c51.6,0,94.9,63.1,94.9,63.1
				S326.7,315.6,258.7,315.6z"/>
			<path fill="#F9F9FA" d="M158.8,123.2C158.8,123.2,158.8,123.2,158.8,123.2v265.2c0,0,25.9-72.7,99.9-72.7
				c68,0,94.4,72.7,94.4,72.7V123.2c0,0,0,0,0,0c0-53.7-43.5-97.2-97.2-97.2S158.8,69.5,158.8,123.2z"/>
		</g>
	</g>
	<g>
		<circle fill="#C9C7C7" cx="120.5" cy="232.9" r="12.2"/>
		<circle fill="#C9C7C7" cx="391.5" cy="232.9" r="12.2"/>
	</g>
</g>
</svg>
