<?xml version="1.0" encoding="utf-8"?>
<!-- Generator: Adobe Illustrator 18.0.0, SVG Export Plug-In . SVG Version: 6.00 Build 0)  -->
<!DOCTYPE svg PUBLIC "-//W3C//DTD SVG 1.1//EN" "http://www.w3.org/Graphics/SVG/1.1/DTD/svg11.dtd">
<svg version="1.1" id="Layer_3" xmlns="http://www.w3.org/2000/svg" xmlns:xlink="http://www.w3.org/1999/xlink" x="0px" y="0px"
	 viewBox="0 0 512 512" style="enable-background:new 0 0 512 512;" xml:space="preserve">
<path style="fill:#4ABAFF;" d="M486,113.337c-16.924,7.506-35.113,12.579-54.204,14.86c19.486-11.679,34.45-30.174,41.496-52.213
	c-18.234,10.815-38.432,18.67-59.929,22.902c-17.215-18.342-41.743-29.804-68.885-29.804c-52.122,0-94.377,42.255-94.377,94.372
	c0,7.397,0.834,14.6,2.444,21.507c-78.434-3.935-147.974-41.508-194.521-98.605c-8.123,13.939-12.777,30.15-12.777,47.445
	c0,32.742,16.662,61.627,41.984,78.553c-15.471-0.49-30.021-4.736-42.747-11.804c-0.007,0.395-0.008,0.788-0.008,1.186
	c0,45.726,32.531,83.87,75.704,92.539c-7.92,2.156-16.257,3.309-24.864,3.309c-6.081,0-11.993-0.591-17.756-1.692
	c12.01,37.493,46.863,64.779,88.16,65.542c-32.299,25.312-72.992,40.399-117.207,40.399c-7.618,0-15.13-0.448-22.512-1.318
	c41.765,26.776,91.372,42.4,144.668,42.4c173.59,0,268.514-143.804,268.514-268.517c0-4.091-0.092-8.162-0.273-12.209
	C457.348,148.886,473.348,132.264,486,113.337z"/>
</svg>
