<?xml version="1.0" encoding="utf-8"?>
<!-- Generator: Adobe Illustrator 18.0.0, SVG Export Plug-In . SVG Version: 6.00 Build 0)  -->
<!DOCTYPE svg PUBLIC "-//W3C//DTD SVG 1.1//EN" "http://www.w3.org/Graphics/SVG/1.1/DTD/svg11.dtd">
<svg version="1.1" id="Layer_1" xmlns="http://www.w3.org/2000/svg" xmlns:xlink="http://www.w3.org/1999/xlink" x="0px" y="0px"
	 viewBox="0 0 512 512" enable-background="new 0 0 512 512" xml:space="preserve">
<g opacity="0.4">
	<path d="M486,288.6v-55.2L434.2,215c-4.4-16.9-11.1-32.8-19.7-47.4l0.1-0.1l23.6-49.7l-39-39l-49.7,23.6l-0.1,0.1
		c-14.6-8.7-30.5-15.4-47.4-19.7L283.6,31h-55.2L210,82.8c-16.9,4.4-32.8,11.1-47.4,19.7l-0.1-0.1l-49.7-23.6l-39,39l23.6,49.7
		l0.1,0.1c-8.7,14.6-15.4,30.5-19.7,47.4L26,233.4v55.2L77.8,307c4.4,16.9,11.1,32.8,19.7,47.4l-0.1,0.1l-23.6,49.7l39,39l49.7-23.6
		l0.1-0.1c14.6,8.7,30.5,15.4,47.4,19.7l18.4,51.8h55.2l18.4-51.8c16.9-4.4,32.8-11.1,47.4-19.7l0.1,0.1l49.7,23.6l39-39l-23.6-49.7
		l-0.1-0.1c8.7-14.6,15.4-30.5,19.7-47.4L486,288.6z M369,277.9L369,277.9l25.2,23.1l-13.4,31.6l-34.1-2.1l-0.1,0
		c-6.4,8.4-14,16-22.7,22.4l1.5,34.1l-31.8,12.8L271,374.3c-10.7,1.4-21.4,1.2-31.9-0.3l0,0.1L216,399.2l-31.6-13.4l2.1-34.1l0-0.1
		c-8.4-6.4-16-14-22.4-22.7l-34.1,1.5l-12.8-31.8l25.6-22.7c-1.4-10.7-1.2-21.4,0.3-31.9l-0.1,0L117.8,221l13.4-31.6l34.1,2.1l0.1,0
		c6.4-8.4,14-16,22.7-22.4l-1.5-34.1l31.8-12.8l22.7,25.6c10.7-1.4,21.4-1.2,31.9,0.3l0-0.1l23.1-25.2l31.6,13.4l-2.1,34.1l0,0.1
		c8.4,6.4,16,14,22.4,22.7l34.1-1.5l12.8,31.8L369.3,246C370.7,256.8,370.6,267.5,369,277.9z"/>
	<path d="M210.2,261c0-15.5,7.7-29.2,19.5-37.5l-11.5-19.2c-13.7,9.2-23.9,23.2-28.2,39.6c5,4,8.1,10.2,8.1,17.1
		c0,6.9-3.2,13-8.1,17.1c4.2,16.4,14.4,30.4,28.2,39.6l11.5-19.2C217.9,290.2,210.2,276.5,210.2,261z"/>
	<path d="M176.2,245.3c-8.7,0-15.7,7-15.7,15.7c0,8.7,7,15.7,15.7,15.7c8.7,0,15.7-7,15.7-15.7C191.8,252.3,184.8,245.3,176.2,245.3
		z"/>
	<path d="M295.5,314.5c-2.5,0.1-5.1,0.7-7.4,2.1c-7.5,4.3-10.1,13.9-5.7,21.4c4.3,7.5,13.9,10.1,21.4,5.7
		c7.5-4.3,10.1-13.9,5.7-21.4C306.5,317.2,301.1,314.3,295.5,314.5z"/>
	<path d="M288.1,205.4c7.5,4.3,17.1,1.8,21.4-5.7c4.3-7.5,1.8-17.1-5.7-21.4c-2.6-1.5-5.4-2.2-8.2-2.1c-5.3,0.1-10.4,2.9-13.2,7.8
		C278,191.5,280.6,201.1,288.1,205.4z"/>
	<path d="M256,306.8c-6.9,0-13.4-1.5-19.3-4.3l-10.9,19.5c9.1,4.5,19.3,7,30.2,7c6.3,0,12.4-0.9,18.2-2.5c1-6.3,4.8-12.1,10.7-15.5
		c6-3.4,12.8-3.8,18.8-1.5c11.6-11.4,19.1-26.9,20.2-44.2l-22.3-0.3C299.5,288.4,279.9,306.8,256,306.8z"/>
	<path d="M284.9,210.9c-6-3.4-9.7-9.2-10.7-15.5c-5.8-1.6-11.9-2.5-18.2-2.5c-10.8,0-21.1,2.5-30.2,7l10.9,19.5
		c5.9-2.7,12.4-4.3,19.3-4.3c23.9,0,43.5,18.3,45.6,41.7l22.3-0.3c-1.1-17.3-8.7-32.8-20.2-44.2
		C297.7,214.7,290.9,214.4,284.9,210.9z"/>
</g>
<g>
	<path fill="#CDE200" d="M486,283.6v-55.2L434.2,210c-4.4-16.9-11.1-32.8-19.7-47.4l0.1-0.1l23.6-49.7l-39-39l-49.7,23.6l-0.1,0.1
		c-14.6-8.7-30.5-15.4-47.4-19.7L283.6,26h-55.2L210,77.8c-16.9,4.4-32.8,11.1-47.4,19.7l-0.1-0.1l-49.7-23.6l-39,39l23.6,49.7
		l0.1,0.1c-8.7,14.6-15.4,30.5-19.7,47.4L26,228.4v55.2L77.8,302c4.4,16.9,11.1,32.8,19.7,47.4l-0.1,0.1l-23.6,49.7l39,39l49.7-23.6
		l0.1-0.1c14.6,8.7,30.5,15.4,47.4,19.7l18.4,51.8h55.2l18.4-51.8c16.9-4.4,32.8-11.1,47.4-19.7l0.1,0.1l49.7,23.6l39-39l-23.6-49.7
		l-0.1-0.1c8.7-14.6,15.4-30.5,19.7-47.4L486,283.6z M369,272.9L369,272.9l25.2,23.1l-13.4,31.6l-34.1-2.1l-0.1,0
		c-6.4,8.4-14,16-22.7,22.4l1.5,34.1l-31.8,12.8L271,369.3c-10.7,1.4-21.4,1.2-31.9-0.3l0,0.1L216,394.2l-31.6-13.4l2.1-34.1l0-0.1
		c-8.4-6.4-16-14-22.4-22.7l-34.1,1.5l-12.8-31.8l25.6-22.7c-1.4-10.7-1.2-21.4,0.3-31.9l-0.1,0L117.8,216l13.4-31.6l34.1,2.1l0.1,0
		c6.4-8.4,14-16,22.7-22.4l-1.5-34.1l31.8-12.8l22.7,25.6c10.7-1.4,21.4-1.2,31.9,0.3l0-0.1l23.1-25.2l31.6,13.4l-2.1,34.1l0,0.1
		c8.4,6.4,16,14,22.4,22.7l34.1-1.5l12.8,31.8L369.3,241C370.7,251.8,370.6,262.5,369,272.9z"/>
	<path fill="#CDE200" d="M210.2,256c0-15.5,7.7-29.2,19.5-37.5l-11.5-19.2c-13.7,9.2-23.9,23.2-28.2,39.6c5,4,8.1,10.2,8.1,17.1
		s-3.2,13-8.1,17.1c4.2,16.4,14.4,30.4,28.2,39.6l11.5-19.2C217.9,285.2,210.2,271.5,210.2,256z"/>
	<path fill="#CDE200" d="M176.2,240.3c-8.7,0-15.7,7-15.7,15.7c0,8.7,7,15.7,15.7,15.7c8.7,0,15.7-7,15.7-15.7
		C191.8,247.3,184.8,240.3,176.2,240.3z"/>
	<path fill="#CDE200" d="M295.5,309.5c-2.5,0.1-5.1,0.7-7.4,2.1c-7.5,4.3-10.1,13.9-5.7,21.4c4.3,7.5,13.9,10.1,21.4,5.7
		c7.5-4.3,10.1-13.9,5.7-21.4C306.5,312.2,301.1,309.3,295.5,309.5z"/>
	<path fill="#CDE200" d="M288.1,200.4c7.5,4.3,17.1,1.8,21.4-5.7c4.3-7.5,1.8-17.1-5.7-21.4c-2.6-1.5-5.4-2.2-8.2-2.1
		c-5.3,0.1-10.4,2.9-13.2,7.8C278,186.5,280.6,196.1,288.1,200.4z"/>
	<path fill="#CDE200" d="M256,301.8c-6.9,0-13.4-1.5-19.3-4.3l-10.9,19.5c9.1,4.5,19.3,7,30.2,7c6.3,0,12.4-0.9,18.2-2.5
		c1-6.3,4.8-12.1,10.7-15.5c6-3.4,12.8-3.8,18.8-1.5c11.6-11.4,19.1-26.9,20.2-44.2l-22.3-0.3C299.5,283.4,279.9,301.8,256,301.8z"
		/>
	<path fill="#CDE200" d="M284.9,205.9c-6-3.4-9.7-9.2-10.7-15.5c-5.8-1.6-11.9-2.5-18.2-2.5c-10.8,0-21.1,2.5-30.2,7l10.9,19.5
		c5.9-2.7,12.4-4.3,19.3-4.3c23.9,0,43.5,18.3,45.6,41.7l22.3-0.3c-1.1-17.3-8.7-32.8-20.2-44.2
		C297.7,209.7,290.9,209.4,284.9,205.9z"/>
</g>
</svg>
