<?xml version="1.0" encoding="utf-8"?>
<!-- Generator: Adobe Illustrator 18.0.0, SVG Export Plug-In . SVG Version: 6.00 Build 0)  -->
<!DOCTYPE svg PUBLIC "-//W3C//DTD SVG 1.1//EN" "http://www.w3.org/Graphics/SVG/1.1/DTD/svg11.dtd">
<svg version="1.1" id="Layer_1" xmlns="http://www.w3.org/2000/svg" xmlns:xlink="http://www.w3.org/1999/xlink" x="0px" y="0px"
	 viewBox="0 0 512 512" enable-background="new 0 0 512 512" xml:space="preserve">
<path opacity="0.4" d="M256,54C141.1,54,48,147.1,48,262s93.1,208,208,208s208-93.1,208-208S370.9,54,256,54z M361.5,290.9
	L274.4,378v0h0l-14.3,14.3l-0.2,0.2c-1,1-2.4,1.6-3.9,1.6c-1.5,0-2.9-0.6-3.9-1.6l-0.2-0.2L237.6,378h0v0l-7.6-7.6l0,0l-79.5-79.5
	l0,0c-7.2-7.2-7.2-18.8,0-26c7.2-7.2,18.8-7.2,26,0c0,0,0.1,0.1,0.1,0.1l61,61V148.7h0c-0.1-4.8,1.7-9.7,5.4-13.4
	c7.2-7.2,18.8-7.2,26,0c3.7,3.7,5.5,8.5,5.4,13.4h0v177.2l60.5-60.5c0.2-0.2,0.4-0.4,0.6-0.6c7.2-7.2,18.8-7.2,26,0
	C368.7,272,368.7,283.6,361.5,290.9L361.5,290.9z"/>
<path opacity="0.4" d="M256,42c29.7,0,58.5,5.8,85.6,17.3c26.2,11.1,49.7,26.9,69.9,47.2s36.1,43.7,47.2,69.9
	c11.5,27.1,17.3,55.9,17.3,85.6s-5.8,58.5-17.3,85.6c-11.1,26.2-26.9,49.7-47.2,69.9s-43.7,36.1-69.9,47.2
	C314.5,476.2,285.7,482,256,482s-58.5-5.8-85.6-17.3c-26.2-11.1-49.7-26.9-69.9-47.2s-36.1-43.7-47.2-69.9
	C41.8,320.5,36,291.7,36,262s5.8-58.5,17.3-85.6c11.1-26.2,26.9-49.7,47.2-69.9s43.7-36.1,69.9-47.2C197.5,47.8,226.3,42,256,42
	 M256,32C129,32,26,135,26,262s103,230,230,230s230-103,230-230S383,32,256,32L256,32z"/>
<radialGradient id="SVGID_1_" cx="256" cy="256" r="208.0488" gradientUnits="userSpaceOnUse">
	<stop  offset="0" style="stop-color:#5A55D6"/>
	<stop  offset="1" style="stop-color:#C544FC"/>
</radialGradient>
<path fill="url(#SVGID_1_)" d="M256,48C141.1,48,48,141.1,48,256s93.1,208,208,208s208-93.1,208-208S370.9,48,256,48z M361.5,284.9
	L274.4,372v0h0l-14.3,14.3l-0.2,0.2c-1,1-2.4,1.6-3.9,1.6c-1.5,0-2.9-0.6-3.9-1.6l-0.2-0.2L237.6,372h0v0l-7.6-7.6l0,0l-79.5-79.5
	l0,0c-7.2-7.2-7.2-18.8,0-26c7.2-7.2,18.8-7.2,26,0c0,0,0.1,0.1,0.1,0.1l61,61V142.7h0c-0.1-4.8,1.7-9.7,5.4-13.4
	c7.2-7.2,18.8-7.2,26,0c3.7,3.7,5.5,8.5,5.4,13.4h0v177.2l60.5-60.5c0.2-0.2,0.4-0.4,0.6-0.6c7.2-7.2,18.8-7.2,26,0
	C368.7,266,368.7,277.6,361.5,284.9L361.5,284.9z"/>
<radialGradient id="SVGID_2_" cx="256" cy="256" r="230" gradientUnits="userSpaceOnUse">
	<stop  offset="0" style="stop-color:#5A55D6"/>
	<stop  offset="1" style="stop-color:#C544FC"/>
</radialGradient>
<path fill="url(#SVGID_2_)" d="M256,36c29.7,0,58.5,5.8,85.6,17.3c26.2,11.1,49.7,26.9,69.9,47.2s36.1,43.7,47.2,69.9
	c11.5,27.1,17.3,55.9,17.3,85.6s-5.8,58.5-17.3,85.6c-11.1,26.2-26.9,49.7-47.2,69.9s-43.7,36.1-69.9,47.2
	C314.5,470.2,285.7,476,256,476s-58.5-5.8-85.6-17.3c-26.2-11.1-49.7-26.9-69.9-47.2s-36.1-43.7-47.2-69.9
	C41.8,314.5,36,285.7,36,256s5.8-58.5,17.3-85.6c11.1-26.2,26.9-49.7,47.2-69.9s43.7-36.1,69.9-47.2C197.5,41.8,226.3,36,256,36
	 M256,26C129,26,26,129,26,256s103,230,230,230s230-103,230-230S383,26,256,26L256,26z"/>
</svg>
