<?xml version="1.0" encoding="utf-8"?>
<!-- Generator: Adobe Illustrator 18.0.0, SVG Export Plug-In . SVG Version: 6.00 Build 0)  -->
<!DOCTYPE svg PUBLIC "-//W3C//DTD SVG 1.1//EN" "http://www.w3.org/Graphics/SVG/1.1/DTD/svg11.dtd">
<svg version="1.1" id="Layer_1" xmlns="http://www.w3.org/2000/svg" xmlns:xlink="http://www.w3.org/1999/xlink" x="0px" y="0px"
	 viewBox="0 0 512 512" style="enable-background:new 0 0 512 512;" xml:space="preserve">
<path id="path212" style="opacity:0.4;" d="M335.189,352.835h-84.612c-40.673,0-73.765-33.09-73.765-73.767V171.166h33.272v107.901
	c0,22.329,18.166,40.495,40.493,40.495h51.34V171.166h33.272V352.835z M486.001,289.601v-55.199l-51.823-18.401
	c-4.357-16.858-11.077-32.763-19.732-47.392l0.069-0.073l23.635-49.653L399.117,79.85l-49.655,23.633l-0.073,0.073
	c-14.633-8.656-30.538-15.379-47.392-19.734l-18.401-51.823h-55.199l-18.399,51.823c-16.856,4.354-32.765,11.077-47.394,19.734
	l-0.071-0.075l-49.655-23.635l-39.033,39.033l23.633,49.655l0.075,0.073c-8.658,14.633-15.379,30.538-19.732,47.392L25.996,234.4
	v55.199L77.821,308c4.352,16.854,11.077,32.763,19.732,47.392l-0.075,0.073l-23.633,49.651l39.033,39.033l49.655-23.633l0.071-0.071
	c14.633,8.658,30.538,15.377,47.394,19.734l18.399,51.823h55.199l18.401-51.823c16.854-4.357,32.765-11.079,47.392-19.734
	l0.073,0.071l49.655,23.633l39.033-39.033l-23.635-49.651l-0.069-0.073c8.656-14.633,15.375-30.538,19.732-47.392
	C434.178,308,486.001,289.601,486.001,289.601z"/>
<path id="path212_1_" style="fill:#983271;" d="M335.19,346.834h-84.612c-40.673,0-73.765-33.09-73.765-73.767V165.165h33.272
	v107.901c0,22.329,18.166,40.495,40.493,40.495h51.34V165.165h33.272V346.834z M486.003,283.6v-55.199L434.18,210
	c-4.357-16.858-11.077-32.763-19.732-47.392l0.069-0.073l23.635-49.653l-39.033-39.033l-49.655,23.633l-0.073,0.073
	c-14.633-8.656-30.538-15.379-47.392-19.734l-18.401-51.823h-55.199l-18.399,51.823c-16.856,4.354-32.765,11.077-47.394,19.734
	l-0.071-0.075l-49.655-23.635l-39.033,39.033l23.633,49.655l0.075,0.073c-8.658,14.633-15.379,30.538-19.732,47.392l-51.825,18.401
	v55.199l51.825,18.401c4.352,16.854,11.077,32.763,19.732,47.392l-0.075,0.073l-23.633,49.651l39.033,39.033l49.655-23.633
	l0.071-0.071c14.633,8.658,30.538,15.377,47.394,19.734l18.399,51.823h55.199l18.401-51.823
	c16.854-4.357,32.765-11.079,47.392-19.734l0.073,0.071l49.655,23.633l39.033-39.033l-23.635-49.651l-0.069-0.073
	c8.656-14.633,15.375-30.538,19.732-47.392C434.18,301.999,486.003,283.6,486.003,283.6z"/>
</svg>
