<?xml version="1.0" encoding="utf-8"?>
<!-- Generator: Adobe Illustrator 18.0.0, SVG Export Plug-In . SVG Version: 6.00 Build 0)  -->
<!DOCTYPE svg PUBLIC "-//W3C//DTD SVG 1.1//EN" "http://www.w3.org/Graphics/SVG/1.1/DTD/svg11.dtd">
<svg version="1.1" id="Layer_3" xmlns="http://www.w3.org/2000/svg" xmlns:xlink="http://www.w3.org/1999/xlink" x="0px" y="0px"
	 viewBox="0 0 512 512" style="enable-background:new 0 0 512 512;" xml:space="preserve">
<g>
	<path style="fill:#FFFFFF;" d="M256,57.9c52.9,0,102.7,20.6,140.1,58c37.4,37.4,58,87.2,58,140.1s-20.6,102.7-58,140.1
		c-37.4,37.4-87.2,58-140.1,58s-102.7-20.6-140.1-58c-37.4-37.4-58-87.2-58-140.1s20.6-102.7,58-140.1
		C153.3,78.5,203.1,57.9,256,57.9 M256,26C129,26,26,129,26,256c0,127,103,230,230,230c127,0,230-103,230-230C486,129,383,26,256,26
		L256,26z"/>
	<path style="fill:#FFFFFF;" d="M290,348.8c0.5-25.9,48.7-26.4,55.3-113c0.8-10.6,0.7-22.5-0.9-34.5c-1.7-49.6-42.7-89.2-93.1-89.2
		c-44,0-80.9,30.2-90.6,70.9c-6.4,20-7,41.2-5,56.9c11.5,93.2,56.9,75.1,55.6,115c-0.8,24-49,30.6-85.9,49.9
		c36.2,31.9,82.2,49.4,130.8,49.4c47.5,0,92.3-16.6,128.1-47C343.4,383.1,289.5,376.5,290,348.8z"/>
</g>
</svg>
