<?xml version="1.0" encoding="utf-8"?>
<!-- Generator: Adobe Illustrator 18.0.0, SVG Export Plug-In . SVG Version: 6.00 Build 0)  -->
<!DOCTYPE svg PUBLIC "-//W3C//DTD SVG 1.1//EN" "http://www.w3.org/Graphics/SVG/1.1/DTD/svg11.dtd">
<svg version="1.1" id="Layer_1" xmlns="http://www.w3.org/2000/svg" xmlns:xlink="http://www.w3.org/1999/xlink" x="0px" y="0px"
	 viewBox="0 0 512 512" style="enable-background:new 0 0 512 512;" xml:space="preserve">
<radialGradient id="SVGID_1_" cx="255.3613" cy="256.1249" r="227.4717" gradientUnits="userSpaceOnUse">
	<stop  offset="0" style="stop-color:#097AFF"/>
	<stop  offset="1" style="stop-color:#0800BF"/>
</radialGradient>
<path style="fill:url(#SVGID_1_);" d="M187.268,421.69c10.426-42.831,48.308-49.698,84.401-65.196
	c-41.313-24.878-54.509-63.661-69.058-102.506c-20.263,10.336-24.585,30.56-36.465,53.201c14.888,0,25.784-0.53,36.589,0.227
	c5.292,0.371,14.785-0.588,15.617,4.812c0.793,5.145-8.187,8.026-12.778,8.713c-22.038,3.294-44.211,6.821-66.416,7.458
	c-14.293,0.41-28.78-3.738-43.081-6.383c-16.59-3.069-33.173-6.316-49.538-10.373c-5.306-1.316-10.846-3.075-14.514-8.61
	c-3.989-6.018,0.703-8.999,1.889-9.727c6.037-3.706,12.958-2.153,18.903-0.664c16.748,4.195,56.173,18.043,57.587,16.313
	c-3.163-7.025-3.871-15.484-13.361-27.798c-4.607-5.978-12.184-9.843-16.486-16.01c-4.4-6.308-7.267-14.135-8.726-21.698
	c-0.322-1.674,1.022-11.916,12.11-7.014c7.062,3.123,12.908,9.763,17.091,16.285c5.266,8.211,7.167,18.618,12.598,26.679
	c10.483,15.553,17.87,17.065,28.518,2.546c10.608-14.464,19.399-31.539,24.012-48.799c6.09-22.787,2.206-43.807-9.53-67.339
	c-18.376-36.844-20.803-78.597,0.183-117.904c7.547-14.135,18.152-21.631,35.021-21.773c31.844-0.271,61.822,7.497,87.532,24.968
	c12.307,8.364,20.537,24.307,27.61,38.331c6.469,12.825,9.513,27.539,12.957,41.69c5.687,23.369,18.404,40.021,41.498,48.371
	c20.629,7.458,36.362,17.999,25.798,44.191c-0.997,2.471,2.322,6.682,3.374,9.402c11.268-1.624,25.055-7.821,30.389-3.526
	c12.082,9.732,20.36,24.383,29.496,37.514c7.331,10.536,12.458,22.79,20.687,32.477c13.163,15.493,12.359,32.22-4.455,43.743
	c-3.763,2.579-8.154,5.219-12.522,5.784c-37.514,4.851-55.32,32.032-73.679,60.822c-14.681,23.025-36.343,38.971-64.268,46.152
	c-27.375,7.04-53.923,17.252-81.007,25.502c-10.464,3.188-21.407,4.809-33.264,4.546c3.594-22.424,29.134-16.165,38.684-33.605
	c-18.221-3.638-35.434-6.181-52.109-10.708c-11.764-3.194-23.233-8.287-33.93-14.174c-3.962-2.18-10.328-8.979-7.902-13.778
	c2.186-4.327,9.932-2.754,14.329-1.718C169.191,414.029,176.899,417.77,187.268,421.69z"/>
</svg>
