<?xml version="1.0" encoding="utf-8"?>
<!-- Generator: Adobe Illustrator 18.0.0, SVG Export Plug-In . SVG Version: 6.00 Build 0)  -->
<!DOCTYPE svg PUBLIC "-//W3C//DTD SVG 1.1//EN" "http://www.w3.org/Graphics/SVG/1.1/DTD/svg11.dtd">
<svg version="1.1" id="Layer_1" xmlns="http://www.w3.org/2000/svg" xmlns:xlink="http://www.w3.org/1999/xlink" x="0px" y="0px"
	 viewBox="0 0 512 512" style="enable-background:new 0 0 512 512;" xml:space="preserve">
<g style="opacity:0.4;">
	<path style="fill:#010101;" d="M310.793,198.592c-4.208,0-7.619,3.411-7.619,7.619v9.753c0,4.208,3.411,7.619,7.619,7.619h63.321
		c4.208,0,7.619-3.411,7.619-7.619v-9.753c0-4.208-3.411-7.619-7.619-7.619H310.793z"/>
	<path style="fill:#010101;" d="M424.469,431.19c9.609,0,17.4-7.79,17.4-17.4v-22.272c0-9.609-7.79-17.4-17.4-17.4h-94.396
		c-0.066-0.496-0.151-0.985-0.226-1.478h90.473c4.142,0,7.5-3.358,7.5-7.5v-9.6c0-4.142-3.358-7.5-7.5-7.5h-98.44
		c-0.258-0.495-0.514-0.99-0.782-1.477h88.58c0,0-45.627,0-45.627-120.702h-44.326c0,51.948-8.243,81.525-17.632,98.381
		c-10.405-7.928-22.952-12.558-36.458-12.558H135.299c-35.991,0-65.168,32.876-65.168,73.431c0,40.555,35.581,73.431,35.581,73.431
		h189.508c0,0,0.487-0.453,1.317-1.281h134.584c4.142,0,7.5-3.358,7.5-7.5v-9.6c0-4.142-3.358-7.5-7.5-7.5H315.808
		c0.3-0.488,0.598-0.979,0.895-1.478H424.469z"/>
	<circle style="fill:#010101;" cx="342.453" cy="151.432" r="46.233"/>
	<path style="fill:#010101;" d="M114.037,310.111h172.859c4.597,0,8.324-3.727,8.324-8.324v-10.656c0-4.597-3.727-8.324-8.324-8.324
		H114.037c-4.597,0-8.324,3.727-8.324,8.324v10.656C105.713,306.384,109.44,310.111,114.037,310.111z"/>
	<path style="fill:#010101;" d="M301.5,460.122H99.434c-6.691,0-12.116,6.112-12.116,13.652v0c0,7.54,5.424,13.652,12.116,15.226
		H301.5c6.691-1.574,12.116-7.686,12.116-15.226v0C313.616,466.234,308.192,460.122,301.5,460.122z"/>
	<polygon style="fill:#010101;" points="267.937,281.233 248.355,153.739 152.578,153.739 132.997,281.233 	"/>
	<path style="fill:#010101;" d="M250.446,152.165c4.671,0,8.457-3.786,8.457-8.457v-10.826c0-4.671-3.786-8.457-8.457-8.457h-99.959
		c-4.671,0-8.457,3.786-8.457,8.457v10.826c0,4.671,3.786,8.457,8.457,8.457H250.446z"/>
	<path style="fill:#010101;" d="M155.432,122.851h90.035l18-17.848c9.961-9.877,15.766-24.881,15.766-40.752v0h0.035V29h-25.081
		v18.701c0,9.141-5.942,16.55-13.271,16.55h0V29h-13.752v35.251c-6.129,0-11.098-6.196-11.098-13.84V29h-31.163v21.488
		c0,7.601-4.941,13.763-11.036,13.763V29h-13.752v35.251h0c-7.364,0-13.333-7.444-13.333-16.627V29h-25.081v35.251h-0.035v0
		c0,15.871,5.805,30.875,15.766,40.752L155.432,122.851z"/>
</g>
<g>
	<g>
		<path style="fill:#505050;" d="M420.32,369.641H264.587c-4.142,0-7.5-3.358-7.5-7.5v-9.6c0-4.142,3.358-7.5,7.5-7.5H420.32
			c4.142,0,7.5,3.358,7.5,7.5v9.6C427.819,366.284,424.461,369.641,420.32,369.641z"/>
		<path style="fill:#505050;" d="M319.725,222.863c0,120.702-44.496,120.702-44.496,120.702h134.448c0,0-45.627,0-45.627-120.702
			H319.725z"/>
		<path style="fill:#505050;" d="M374.114,220.584h-63.321c-4.208,0-7.619-3.411-7.619-7.619v-9.753
			c0-4.208,3.411-7.619,7.619-7.619h63.321c4.208,0,7.619,3.411,7.619,7.619v9.753C381.733,217.172,378.322,220.584,374.114,220.584
			z"/>
		<path style="fill:#505050;" d="M424.469,428.19H260.438c-9.61,0-17.4-7.79-17.4-17.4v-22.272c0-9.609,7.79-17.4,17.4-17.4h164.031
			c9.61,0,17.4,7.79,17.4,17.4v22.272C441.868,420.4,434.078,428.19,424.469,428.19z"/>
		<circle style="fill:#505050;" cx="342.453" cy="148.432" r="46.233"/>
		<path style="fill:#505050;" d="M431.122,454.267H253.785c-4.142,0-7.5-3.358-7.5-7.5v-9.6c0-4.142,3.358-7.5,7.5-7.5h177.337
			c4.142,0,7.5,3.358,7.5,7.5v9.6C438.622,450.909,435.264,454.267,431.122,454.267z"/>
	</g>
	<g>
		<path style="fill:#010101;" d="M265.635,308.685H135.299c-35.991,0-65.168,32.876-65.168,73.431s35.581,73.431,35.581,73.431
			h189.508c0,0,35.581-32.876,35.581-73.431S301.626,308.685,265.635,308.685z"/>
		<path style="fill:#010101;" d="M286.897,307.111H114.037c-4.597,0-8.324-3.727-8.324-8.324v-10.656
			c0-4.597,3.727-8.324,8.324-8.324h172.859c4.597,0,8.324,3.727,8.324,8.324v10.656
			C295.221,303.384,291.494,307.111,286.897,307.111z"/>
		<path style="fill:#010101;" d="M301.5,486H99.434c-6.691-1.574-12.116-7.686-12.116-15.226v0c0-7.54,5.424-13.652,12.116-13.652
			H301.5c6.691,0,12.116,6.112,12.116,13.652v0C313.616,478.314,308.192,484.426,301.5,486z"/>
		<polygon style="fill:#010101;" points="152.578,150.739 132.997,278.233 267.937,278.233 248.355,150.739 		"/>
		<path style="fill:#010101;" d="M250.446,149.165h-99.959c-4.671,0-8.457-3.786-8.457-8.457v-10.826
			c0-4.671,3.786-8.457,8.457-8.457h99.959c4.671,0,8.457,3.786,8.457,8.457v10.826
			C258.904,145.379,255.117,149.165,250.446,149.165z"/>
		<g>
			<path style="fill:#010101;" d="M254.187,26v18.701c0,9.14-5.942,16.55-13.271,16.55l0,0V26h-13.752v35.251h0
				c-6.129,0-11.098-6.196-11.098-13.84V26h-31.163v21.488c0,7.601-4.941,13.763-11.036,13.763h0V26h-13.752v35.251l0,0
				c-7.364,0-13.333-7.444-13.333-16.627V26h-25.081v35.251h-0.035v0c0,15.871,5.805,30.874,15.766,40.752l18,17.848h90.035
				l18-17.848c9.961-9.877,15.766-24.881,15.766-40.752v0h0.035V26H254.187z"/>
		</g>
	</g>
</g>
</svg>
