<?xml version="1.0" encoding="utf-8"?>
<!-- Generator: Adobe Illustrator 18.0.0, SVG Export Plug-In . SVG Version: 6.00 Build 0)  -->
<!DOCTYPE svg PUBLIC "-//W3C//DTD SVG 1.1//EN" "http://www.w3.org/Graphics/SVG/1.1/DTD/svg11.dtd">
<svg version="1.1" id="Layer_1" xmlns="http://www.w3.org/2000/svg" xmlns:xlink="http://www.w3.org/1999/xlink" x="0px" y="0px"
	 viewBox="0 0 512 512" style="enable-background:new 0 0 512 512;" xml:space="preserve">
<g>
	<g>
		<g>
			<path style="fill:#6D6E6E;" d="M420.32,369.641H264.587c-4.142,0-7.5-3.358-7.5-7.5v-9.6c0-4.142,3.358-7.5,7.5-7.5H420.32
				c4.142,0,7.5,3.358,7.5,7.5v9.6C427.819,366.284,424.461,369.641,420.32,369.641z"/>
			<path style="fill:#6D6E6E;" d="M319.725,222.863c0,120.702-44.496,120.702-44.496,120.702h134.448c0,0-45.627,0-45.627-120.702
				H319.725z"/>
			<path style="fill:#6D6E6E;" d="M374.114,220.584h-63.321c-4.208,0-7.619-3.411-7.619-7.619v-9.753
				c0-4.208,3.411-7.619,7.619-7.619h63.321c4.208,0,7.619,3.411,7.619,7.619v9.753
				C381.733,217.172,378.322,220.584,374.114,220.584z"/>
			<path style="fill:#6D6E6E;" d="M424.469,428.19H260.438c-9.61,0-17.4-7.79-17.4-17.4v-22.272c0-9.609,7.79-17.4,17.4-17.4
				h164.031c9.61,0,17.4,7.79,17.4,17.4v22.272C441.868,420.4,434.078,428.19,424.469,428.19z"/>
			<circle style="fill:#6D6E6E;" cx="342.453" cy="148.432" r="46.233"/>
			<path style="fill:#6D6E6E;" d="M431.122,454.267H253.785c-4.142,0-7.5-3.358-7.5-7.5v-9.6c0-4.142,3.358-7.5,7.5-7.5h177.337
				c4.142,0,7.5,3.358,7.5,7.5v9.6C438.622,450.909,435.264,454.267,431.122,454.267z"/>
		</g>
		<g>
			<path style="fill:#282828;" d="M265.635,308.685H135.299c-35.991,0-65.168,32.876-65.168,73.431s35.581,73.431,35.581,73.431
				h189.508c0,0,35.581-32.876,35.581-73.431S301.626,308.685,265.635,308.685z"/>
			<path style="fill:#282828;" d="M286.897,307.111H114.037c-4.597,0-8.324-3.727-8.324-8.324v-10.656
				c0-4.597,3.727-8.324,8.324-8.324h172.859c4.597,0,8.324,3.727,8.324,8.324v10.656
				C295.221,303.384,291.494,307.111,286.897,307.111z"/>
			<path style="fill:#282828;" d="M301.5,486H99.434c-6.691-1.574-12.116-7.686-12.116-15.226v0c0-7.54,5.424-13.652,12.116-13.652
				H301.5c6.691,0,12.116,6.112,12.116,13.652v0C313.616,478.314,308.192,484.426,301.5,486z"/>
			<polygon style="fill:#282828;" points="152.578,150.739 132.997,278.233 267.937,278.233 248.355,150.739 			"/>
			<path style="fill:#282828;" d="M250.446,149.165h-99.959c-4.671,0-8.457-3.786-8.457-8.457v-10.826
				c0-4.671,3.786-8.457,8.457-8.457h99.959c4.671,0,8.457,3.786,8.457,8.457v10.826
				C258.904,145.379,255.117,149.165,250.446,149.165z"/>
			<g>
				<path style="fill:#282828;" d="M254.187,26v18.701c0,9.14-5.942,16.55-13.271,16.55l0,0V26h-13.752v35.251h0
					c-6.129,0-11.098-6.196-11.098-13.84V26h-31.163v21.488c0,7.601-4.941,13.763-11.036,13.763h0V26h-13.752v35.251l0,0
					c-7.364,0-13.333-7.444-13.333-16.627V26h-25.081v35.251h-0.035v0c0,15.871,5.805,30.874,15.766,40.752l18,17.848h90.035
					l18-17.848c9.961-9.877,15.766-24.881,15.766-40.752v0h0.035V26H254.187z"/>
			</g>
		</g>
	</g>
	<g>
		<path style="fill:#3F4040;" d="M427.819,362.142v-9.6c0-4.142-3.358-7.5-7.5-7.5h-77.866v24.599h77.866
			C424.461,369.641,427.819,366.284,427.819,362.142z"/>
		<path style="fill:#3F4040;" d="M364.05,222.863h-21.597v120.702h67.224C409.678,343.565,364.05,343.565,364.05,222.863z"/>
		<path style="fill:#3F4040;" d="M381.733,212.964v-9.753c0-4.208-3.411-7.619-7.619-7.619h-31.66v24.992h31.66
			C378.322,220.584,381.733,217.172,381.733,212.964z"/>
		<path style="fill:#3F4040;" d="M441.868,410.79v-22.272c0-9.609-7.79-17.4-17.4-17.4h-82.016v57.071h82.016
			C434.078,428.19,441.868,420.4,441.868,410.79z"/>
		<path style="fill:#3F4040;" d="M388.687,148.432c0-25.534-20.699-46.233-46.233-46.233v92.467
			C367.987,194.665,388.687,173.966,388.687,148.432z"/>
		<path style="fill:#3F4040;" d="M438.622,446.767v-9.6c0-4.142-3.358-7.5-7.5-7.5h-88.669v24.599h88.669
			C435.264,454.267,438.622,450.909,438.622,446.767z"/>
	</g>
	<g>
		<path style="fill:#3F3F3F;" d="M70.132,382.116c0,40.555,35.581,73.431,35.581,73.431h94.754V308.685h-65.168
			C99.308,308.685,70.132,341.561,70.132,382.116z"/>
		<path style="fill:#3F3F3F;" d="M105.713,288.131v10.656c0,4.597,3.727,8.324,8.324,8.324h86.43v-27.304h-86.43
			C109.44,279.807,105.713,283.534,105.713,288.131z"/>
		<path style="fill:#3F3F3F;" d="M99.434,457.122c-6.691,0-12.116,6.112-12.116,13.652v0c0,7.54,5.424,13.652,12.116,15.226h101.033
			v-28.878H99.434z"/>
		<polygon style="fill:#3F3F3F;" points="132.997,278.233 200.467,278.233 200.467,150.739 152.578,150.739 		"/>
		<path style="fill:#3F3F3F;" d="M142.03,129.882v10.826c0,4.671,3.786,8.457,8.457,8.457h49.979v-27.74h-49.979
			C145.817,121.425,142.03,125.211,142.03,129.882z"/>
		<path style="fill:#3F3F3F;" d="M184.903,47.488c0,7.601-4.941,13.763-11.036,13.763V26h-13.752v35.251h0
			c-7.364,0-13.333-7.444-13.333-16.627V26h-25.081v35.251h-0.035v0c0,15.871,5.805,30.875,15.766,40.752l18,17.848h45.035V26
			h-15.564V47.488z"/>
	</g>
</g>
</svg>
