<?xml version="1.0" encoding="utf-8"?>
<!-- Generator: Adobe Illustrator 18.0.0, SVG Export Plug-In . SVG Version: 6.00 Build 0)  -->
<!DOCTYPE svg PUBLIC "-//W3C//DTD SVG 1.1//EN" "http://www.w3.org/Graphics/SVG/1.1/DTD/svg11.dtd">
<svg version="1.1" id="Layer_2" xmlns="http://www.w3.org/2000/svg" xmlns:xlink="http://www.w3.org/1999/xlink" x="0px" y="0px"
	 viewBox="0 0 512 512" style="enable-background:new 0 0 512 512;" xml:space="preserve">
<g>
	<g>
		<g>
			<path style="opacity:0.3;fill:#353535;enable-background:new    ;" d="M419.969,486c0,0-189.676-50.02-364.291-45.301
				L98.232,65.046l361.67,46.161C459.902,111.207,424.541,400.265,419.969,486z"/>
			
				<rect x="73.69" y="86.663" transform="matrix(-0.992 -0.1266 0.1266 -0.992 475.8899 568.1908)" style="fill:#C1056C;" width="364.621" height="364.621"/>
		</g>
		<g>
			<path style="opacity:0.3;fill:#353535;enable-background:new    ;" d="M430.602,462.723c0,0-177.382-22.514-349.753-0.524
				L73.685,86.837h364.604C438.289,86.837,428.474,376.892,430.602,462.723z"/>
			<rect x="73.685" y="86.837" style="fill:#FF29A9;" width="364.604" height="364.604"/>
		</g>
	</g>
	<g id="Layer_2_2_">
		<circle style="opacity:0.4;fill:#383838;enable-background:new    ;" cx="255.987" cy="138.587" r="71.542"/>
		<circle style="fill:#D1D1D1;" cx="255.987" cy="107.079" r="71.542"/>
		<g>
			<circle style="fill:#E3E4E5;" cx="255.987" cy="93.072" r="53.959"/>
		</g>
		<g>
			<circle style="fill:#E3E4E5;" cx="255.987" cy="79.959" r="53.959"/>
			<path style="fill:#C1C1C1;" d="M255.987,35.537c24.495,0,44.423,19.928,44.423,44.423s-19.928,44.422-44.423,44.422
				s-44.423-19.928-44.423-44.423S231.492,35.537,255.987,35.537 M255.987,26c-29.802,0-53.959,24.159-53.959,53.959
				s24.158,53.959,53.959,53.959c29.802,0,53.959-24.159,53.959-53.959S285.789,26,255.987,26L255.987,26z"/>
		</g>
	</g>
</g>
</svg>
