<?xml version="1.0" encoding="utf-8"?>
<!-- Generator: Adobe Illustrator 18.0.0, SVG Export Plug-In . SVG Version: 6.00 Build 0)  -->
<!DOCTYPE svg PUBLIC "-//W3C//DTD SVG 1.1//EN" "http://www.w3.org/Graphics/SVG/1.1/DTD/svg11.dtd">
<svg version="1.1" id="Layer_1" xmlns="http://www.w3.org/2000/svg" xmlns:xlink="http://www.w3.org/1999/xlink" x="0px" y="0px"
	 viewBox="0 0 512 512" enable-background="new 0 0 512 512" xml:space="preserve">
<g>
	
		<linearGradient id="SVGID_1_" gradientUnits="userSpaceOnUse" x1="37.5884" y1="403.7491" x2="510.2868" y2="83.9823" gradientTransform="matrix(1 0 0 -1 0 512)">
		<stop  offset="0" style="stop-color:#121212"/>
		<stop  offset="1" style="stop-color:#000000"/>
	</linearGradient>
	<path fill="url(#SVGID_1_)" d="M36,26h440c5.5,0,10,4.5,10,10v440c0,5.5-4.5,10-10,10H36c-5.5,0-10-4.5-10-10V36
		C26,30.5,30.5,26,36,26z"/>
	<g>
		<path fill="#1E1E1E" d="M36,26h440c5.5,0,10,4.5,10,10v88.2H26V36C26,30.5,30.5,26,36,26z"/>
	</g>
	<g>
		<g>
			<g>
				<polygon fill="#FFFFFF" points="171.1,121.8 123.5,121.8 168.3,74.6 215.9,74.6 				"/>
			</g>
			<g>
				<polygon points="218.7,121.8 171.1,121.8 215.9,74.6 263.5,74.6 				"/>
			</g>
			<g>
				<polygon fill="#FFFFFF" points="266.3,121.8 218.7,121.8 263.5,74.6 311.1,74.6 				"/>
			</g>
			<g>
				<polygon points="314,121.8 266.3,121.8 311.1,74.6 358.8,74.6 				"/>
			</g>
			<g>
				<polygon fill="#FFFFFF" points="361.6,121.8 314,121.8 358.7,74.6 406.4,74.6 				"/>
			</g>
			<g>
				<polygon points="409.2,121.8 361.6,121.8 406.4,74.6 454,74.6 				"/>
			</g>
			<g>
				<polygon fill="#FFFFFF" points="486,74.6 454,74.6 409.2,121.8 456.8,121.8 486,91.1 				"/>
			</g>
		</g>
		<g>
			<g>
				<polygon fill="#FFFFFF" points="171.1,26 123.5,26 168.3,73.2 215.9,73.2 				"/>
			</g>
			<g>
				<polygon points="218.7,26 171.1,26 215.9,73.2 263.5,73.2 				"/>
			</g>
			<g>
				<polygon fill="#FFFFFF" points="266.3,26 218.7,26 263.5,73.2 311.1,73.2 				"/>
			</g>
			<g>
				<polygon points="314,26 266.3,26 311.1,73.2 358.8,73.2 				"/>
			</g>
			<g>
				<polygon fill="#FFFFFF" points="361.6,26 314,26 358.7,73.2 406.4,73.2 				"/>
			</g>
			<g>
				<polygon points="409.2,26 361.6,26 406.4,73.2 454,73.2 				"/>
			</g>
			<g>
				<polygon fill="#FFFFFF" points="486,73.2 486,56.7 456.8,26 409.2,26 454,73.2 				"/>
			</g>
		</g>
	</g>
	<g>
		<g>
			<path d="M111.1,121.8H26V36c0-5.5,4.5-10,10-10h8.6l66.5,78.9V121.8z"/>
		</g>
		<g>
			<circle fill="#636364" cx="37.8" cy="35.5" r="5.8"/>
		</g>
		<g>
			<circle fill="#636364" cx="38.2" cy="110.7" r="5.8"/>
		</g>
		<g>
			<circle fill="#636364" cx="91.6" cy="110.7" r="5.8"/>
		</g>
	</g>
</g>
<polygon fill="#FFFFFF" points="327.4,188.1 299.4,188.1 256,255.3 212.6,188.1 184.6,188.1 242,277 184.6,365.9 212.6,365.9 
	256,298.7 299.4,365.9 327.4,365.9 270,277 "/>
</svg>
