<?xml version="1.0" encoding="utf-8"?>
<!-- Generator: Adobe Illustrator 18.0.0, SVG Export Plug-In . SVG Version: 6.00 Build 0)  -->
<!DOCTYPE svg PUBLIC "-//W3C//DTD SVG 1.1//EN" "http://www.w3.org/Graphics/SVG/1.1/DTD/svg11.dtd">
<svg version="1.1" id="Layer_1" xmlns="http://www.w3.org/2000/svg" xmlns:xlink="http://www.w3.org/1999/xlink" x="0px" y="0px"
	 viewBox="0 0 512 512" enable-background="new 0 0 512 512" xml:space="preserve">
<path fill="#E8E8E8" d="M446,486H66c-22.1,0-40-17.9-40-40V66c0-22.1,17.9-40,40-40h380c22.1,0,40,17.9,40,40v380
	C486,468.1,468.1,486,446,486z"/>
<path fill="#60493D" d="M446,486H66c-22.1,0-40-17.9-40-40V66c0-22.1,17.9-40,40-40h380c22.1,0,40,17.9,40,40v380
	C486,468.1,468.1,486,446,486z"/>
<g>
	<path fill="#825E46" d="M26.1,94.6c0,0.8-0.1,1.6-0.1,2.4v349c0,0.7,0,1.4,0.1,2.1l165.8-176.8L26.1,94.6z"/>
	<path fill="#825E46" d="M320.1,271.3l165.8,176.8c0-0.7,0.1-1.4,0.1-2.1V97c0-0.8,0-1.6-0.1-2.4L320.1,271.3z"/>
	
		<linearGradient id="SVGID_1_" gradientUnits="userSpaceOnUse" x1="256" y1="26" x2="256" y2="309" gradientTransform="matrix(1 0 0 -1 0 512)">
		<stop  offset="0" style="stop-color:#483221"/>
		<stop  offset="0.3122" style="stop-color:#563D2A"/>
		<stop  offset="0.9016" style="stop-color:#7B5942"/>
		<stop  offset="1" style="stop-color:#825E46"/>
	</linearGradient>
	<path fill="url(#SVGID_1_)" d="M320.1,271.3L256,203l-64.1,68.3L26.1,448.1c0,0,0,0,0,0.1C27.2,469.3,44.6,486,66,486h380
		c21.4,0,38.8-16.7,39.9-37.8c0,0,0,0,0-0.1L320.1,271.3z"/>
	
		<linearGradient id="SVGID_2_" gradientUnits="userSpaceOnUse" x1="256" y1="172.3" x2="256" y2="455" gradientTransform="matrix(1 0 0 -1 0 512)">
		<stop  offset="0" style="stop-color:#483221"/>
		<stop  offset="0.3122" style="stop-color:#563D2A"/>
		<stop  offset="0.9016" style="stop-color:#7B5942"/>
		<stop  offset="1" style="stop-color:#825E46"/>
	</linearGradient>
	<path fill="url(#SVGID_2_)" d="M485.9,94.5C484.6,73.6,467.3,57,446,57H66c-21.3,0-38.6,16.6-39.9,37.5v0.1l165.8,176.8l64.1,68.3
		l64.1-68.3L485.9,94.5C485.9,94.6,485.9,94.5,485.9,94.5z"/>
</g>
<g>
	<path fill="#FFFFFF" d="M256,261.8l-35.7-35.7c-3.2-3.2-8.5-3.2-11.7,0l0,0c-3.2,3.2-3.2,8.5,0,11.7l46.5,46.5
		c0.5,0.5,1.3,0.5,1.9,0l46.5-46.5c3.2-3.2,3.2-8.5,0-11.7l0,0c-3.2-3.2-8.5-3.2-11.7,0L256,261.8z"/>
	<path fill="#FFFFFF" d="M256,227.7L220.3,192c-3.2-3.2-8.5-3.2-11.7,0l0,0c-3.2,3.2-3.2,8.5,0,11.7l46.5,46.5
		c0.5,0.5,1.3,0.5,1.9,0l46.5-46.5c3.2-3.2,3.2-8.5,0-11.7l0,0c-3.2-3.2-8.5-3.2-11.7,0L256,227.7z"/>
	<path fill="#FFFFFF" d="M256,288.6L256,288.6c4.6,0,8.3,3.7,8.3,8.3v40c0,4.6-3.7,8.3-8.3,8.3l0,0c-4.6,0-8.3-3.7-8.3-8.3v-40
		C247.7,292.3,251.4,288.6,256,288.6z"/>
</g>
<g>
	<path opacity="0.5" fill="#FFFFFF" enable-background="new    " d="M367.7,401.7H144.3c-11,0-20-9-20-20V158.3c0-11,9-20,20-20
		h223.3c11,0,20,9,20,20v223.3C387.7,392.7,378.7,401.7,367.7,401.7z"/>
	<g>
		<g>
			<path fill="#FFFFFF" d="M365.3,380.2h-6c-1.4,0-2.5-1.1-2.5-2.5s1.1-2.5,2.5-2.5h3.5v-3.5c0-1.4,1.1-2.5,2.5-2.5s2.5,1.1,2.5,2.5
				v6C367.8,379,366.7,380.2,365.3,380.2z"/>
		</g>
		<g>
			<path fill="#FFFFFF" d="M349.4,380.2h-11.9c-1.4,0-2.5-1.1-2.5-2.5s1.1-2.5,2.5-2.5h11.9c1.4,0,2.5,1.1,2.5,2.5
				S350.8,380.2,349.4,380.2z M327.5,380.2h-11.9c-1.4,0-2.5-1.1-2.5-2.5s1.1-2.5,2.5-2.5h11.9c1.4,0,2.5,1.1,2.5,2.5
				S328.9,380.2,327.5,380.2z M305.7,380.2h-11.9c-1.4,0-2.5-1.1-2.5-2.5s1.1-2.5,2.5-2.5h11.9c1.4,0,2.5,1.1,2.5,2.5
				S307.1,380.2,305.7,380.2z M283.8,380.2h-11.9c-1.4,0-2.5-1.1-2.5-2.5s1.1-2.5,2.5-2.5h11.9c1.4,0,2.5,1.1,2.5,2.5
				S285.2,380.2,283.8,380.2z M262,380.2h-12c-1.4,0-2.5-1.1-2.5-2.5s1.1-2.5,2.5-2.5h12c1.4,0,2.5,1.1,2.5,2.5
				S263.3,380.2,262,380.2z M240.1,380.2h-11.9c-1.4,0-2.5-1.1-2.5-2.5s1.1-2.5,2.5-2.5h11.9c1.4,0,2.5,1.1,2.5,2.5
				S241.5,380.2,240.1,380.2z M218.2,380.2h-11.9c-1.4,0-2.5-1.1-2.5-2.5s1.1-2.5,2.5-2.5h11.9c1.4,0,2.5,1.1,2.5,2.5
				S219.6,380.2,218.2,380.2z M196.4,380.2h-11.9c-1.4,0-2.5-1.1-2.5-2.5s1.1-2.5,2.5-2.5h11.9c1.4,0,2.5,1.1,2.5,2.5
				S197.8,380.2,196.4,380.2z M174.5,380.2h-11.9c-1.4,0-2.5-1.1-2.5-2.5s1.1-2.5,2.5-2.5h11.9c1.4,0,2.5,1.1,2.5,2.5
				S175.9,380.2,174.5,380.2z"/>
		</g>
		<g>
			<path fill="#FFFFFF" d="M152.7,380.2h-6c-1.4,0-2.5-1.1-2.5-2.5v-6c0-1.4,1.1-2.5,2.5-2.5s2.5,1.1,2.5,2.5v3.5h3.5
				c1.4,0,2.5,1.1,2.5,2.5S154,380.2,152.7,380.2z"/>
		</g>
		<g>
			<path fill="#FFFFFF" d="M146.7,364.2c-1.4,0-2.5-1.1-2.5-2.5v-11.9c0-1.4,1.1-2.5,2.5-2.5s2.5,1.1,2.5,2.5v11.9
				C149.2,363.1,148,364.2,146.7,364.2z M146.7,342.4c-1.4,0-2.5-1.1-2.5-2.5V328c0-1.4,1.1-2.5,2.5-2.5s2.5,1.1,2.5,2.5v11.9
				C149.2,341.3,148,342.4,146.7,342.4z M146.7,320.5c-1.4,0-2.5-1.1-2.5-2.5v-11.9c0-1.4,1.1-2.5,2.5-2.5s2.5,1.1,2.5,2.5V318
				C149.2,319.4,148,320.5,146.7,320.5z M146.7,298.7c-1.4,0-2.5-1.1-2.5-2.5v-11.9c0-1.4,1.1-2.5,2.5-2.5s2.5,1.1,2.5,2.5v11.9
				C149.2,297.5,148,298.7,146.7,298.7z M146.7,276.8c-1.4,0-2.5-1.1-2.5-2.5v-11.9c0-1.4,1.1-2.5,2.5-2.5s2.5,1.1,2.5,2.5v11.9
				C149.2,275.7,148,276.8,146.7,276.8z M146.7,254.9c-1.4,0-2.5-1.1-2.5-2.5v-11.9c0-1.4,1.1-2.5,2.5-2.5s2.5,1.1,2.5,2.5v11.9
				C149.2,253.8,148,254.9,146.7,254.9z M146.7,233.1c-1.4,0-2.5-1.1-2.5-2.5v-11.9c0-1.4,1.1-2.5,2.5-2.5s2.5,1.1,2.5,2.5v11.9
				C149.2,232,148,233.1,146.7,233.1z M146.7,211.2c-1.4,0-2.5-1.1-2.5-2.5v-11.9c0-1.4,1.1-2.5,2.5-2.5s2.5,1.1,2.5,2.5v11.9
				C149.2,210.1,148,211.2,146.7,211.2z M146.7,189.4c-1.4,0-2.5-1.1-2.5-2.5V175c0-1.4,1.1-2.5,2.5-2.5s2.5,1.1,2.5,2.5v11.9
				C149.2,188.2,148,189.4,146.7,189.4z"/>
		</g>
		<g>
			<path fill="#FFFFFF" d="M146.7,167.5c-1.4,0-2.5-1.1-2.5-2.5v-6c0-1.4,1.1-2.5,2.5-2.5h6c1.4,0,2.5,1.1,2.5,2.5s-1.1,2.5-2.5,2.5
				h-3.5v3.5C149.2,166.4,148,167.5,146.7,167.5z"/>
		</g>
		<g>
			<path fill="#FFFFFF" d="M349.4,161.5h-11.9c-1.4,0-2.5-1.1-2.5-2.5s1.1-2.5,2.5-2.5h11.9c1.4,0,2.5,1.1,2.5,2.5
				S350.8,161.5,349.4,161.5z M327.5,161.5h-11.9c-1.4,0-2.5-1.1-2.5-2.5s1.1-2.5,2.5-2.5h11.9c1.4,0,2.5,1.1,2.5,2.5
				S328.9,161.5,327.5,161.5z M305.7,161.5h-11.9c-1.4,0-2.5-1.1-2.5-2.5s1.1-2.5,2.5-2.5h11.9c1.4,0,2.5,1.1,2.5,2.5
				S307.1,161.5,305.7,161.5z M283.8,161.5h-11.9c-1.4,0-2.5-1.1-2.5-2.5s1.1-2.5,2.5-2.5h11.9c1.4,0,2.5,1.1,2.5,2.5
				S285.2,161.5,283.8,161.5z M262,161.5h-12c-1.4,0-2.5-1.1-2.5-2.5s1.1-2.5,2.5-2.5h12c1.4,0,2.5,1.1,2.5,2.5
				S263.3,161.5,262,161.5z M240.1,161.5h-11.9c-1.4,0-2.5-1.1-2.5-2.5s1.1-2.5,2.5-2.5h11.9c1.4,0,2.5,1.1,2.5,2.5
				S241.5,161.5,240.1,161.5z M218.2,161.5h-11.9c-1.4,0-2.5-1.1-2.5-2.5s1.1-2.5,2.5-2.5h11.9c1.4,0,2.5,1.1,2.5,2.5
				S219.6,161.5,218.2,161.5z M196.4,161.5h-11.9c-1.4,0-2.5-1.1-2.5-2.5s1.1-2.5,2.5-2.5h11.9c1.4,0,2.5,1.1,2.5,2.5
				S197.8,161.5,196.4,161.5z M174.5,161.5h-11.9c-1.4,0-2.5-1.1-2.5-2.5s1.1-2.5,2.5-2.5h11.9c1.4,0,2.5,1.1,2.5,2.5
				S175.9,161.5,174.5,161.5z"/>
		</g>
		<g>
			<path fill="#FFFFFF" d="M365.3,167.5c-1.4,0-2.5-1.1-2.5-2.5v-3.5h-3.5c-1.4,0-2.5-1.1-2.5-2.5s1.1-2.5,2.5-2.5h6
				c1.4,0,2.5,1.1,2.5,2.5v6C367.8,166.4,366.7,167.5,365.3,167.5z"/>
		</g>
		<g>
			<path fill="#FFFFFF" d="M365.3,364.2c-1.4,0-2.5-1.1-2.5-2.5v-11.9c0-1.4,1.1-2.5,2.5-2.5s2.5,1.1,2.5,2.5v11.9
				C367.8,363.1,366.7,364.2,365.3,364.2z M365.3,342.4c-1.4,0-2.5-1.1-2.5-2.5V328c0-1.4,1.1-2.5,2.5-2.5s2.5,1.1,2.5,2.5v11.9
				C367.8,341.3,366.7,342.4,365.3,342.4z M365.3,320.5c-1.4,0-2.5-1.1-2.5-2.5v-11.9c0-1.4,1.1-2.5,2.5-2.5s2.5,1.1,2.5,2.5V318
				C367.8,319.4,366.7,320.5,365.3,320.5z M365.3,298.7c-1.4,0-2.5-1.1-2.5-2.5v-11.9c0-1.4,1.1-2.5,2.5-2.5s2.5,1.1,2.5,2.5v11.9
				C367.8,297.5,366.7,298.7,365.3,298.7z M365.3,276.8c-1.4,0-2.5-1.1-2.5-2.5v-11.9c0-1.4,1.1-2.5,2.5-2.5s2.5,1.1,2.5,2.5v11.9
				C367.8,275.7,366.7,276.8,365.3,276.8z M365.3,254.9c-1.4,0-2.5-1.1-2.5-2.5v-11.9c0-1.4,1.1-2.5,2.5-2.5s2.5,1.1,2.5,2.5v11.9
				C367.8,253.8,366.7,254.9,365.3,254.9z M365.3,233.1c-1.4,0-2.5-1.1-2.5-2.5v-11.9c0-1.4,1.1-2.5,2.5-2.5s2.5,1.1,2.5,2.5v11.9
				C367.8,232,366.7,233.1,365.3,233.1z M365.3,211.2c-1.4,0-2.5-1.1-2.5-2.5v-11.9c0-1.4,1.1-2.5,2.5-2.5s2.5,1.1,2.5,2.5v11.9
				C367.8,210.1,366.7,211.2,365.3,211.2z M365.3,189.4c-1.4,0-2.5-1.1-2.5-2.5V175c0-1.4,1.1-2.5,2.5-2.5s2.5,1.1,2.5,2.5v11.9
				C367.8,188.2,366.7,189.4,365.3,189.4z"/>
		</g>
	</g>
</g>
</svg>
