<?xml version="1.0" encoding="UTF-8" standalone="no"?>
<svg
   xmlns:dc="http://purl.org/dc/elements/1.1/"
   xmlns:cc="http://creativecommons.org/ns#"
   xmlns:rdf="http://www.w3.org/1999/02/22-rdf-syntax-ns#"
   xmlns:svg="http://www.w3.org/2000/svg"
   xmlns="http://www.w3.org/2000/svg"
   xml:space="preserve"
   style="enable-background:new 0 0 512 512;"
   viewBox="0 0 512 512"
   y="0px"
   x="0px"
   id="Layer_1"
   version="1.1"><metadata
     id="metadata100"><rdf:RDF><cc:Work
         rdf:about=""><dc:format>image/svg+xml</dc:format><dc:type
           rdf:resource="http://purl.org/dc/dcmitype/StillImage" /><dc:title></dc:title></cc:Work></rdf:RDF></metadata><defs
     id="defs98" /><g
     id="g3"><radialGradient
       gradientUnits="userSpaceOnUse"
       gradientTransform="matrix(1 0 0 8.064469e-02 0 403.6026)"
       r="248.0014"
       cy="442.4353"
       cx="256"
       id="SVGID_1_"><stop
         id="stop6"
         style="stop-color:#000000;stop-opacity:0.2"
         offset="0" /><stop
         id="stop8"
         style="stop-color:#000000;stop-opacity:0"
         offset="1" /></radialGradient><ellipse
       id="ellipse10"
       ry="23"
       rx="230"
       cy="439.3"
       cx="256"
       style="fill:url(#SVGID_1_);" /><g
       id="g12"><g
         id="g14"><linearGradient
           y2="73.4346"
           x2="256.0004"
           y1="433.7987"
           x1="256.0004"
           gradientUnits="userSpaceOnUse"
           id="SVGID_2_"><stop
             id="stop17"
             style="stop-color:#78D8A5"
             offset="0" /><stop
             id="stop19"
             style="stop-color:#78D8A5"
             offset="0.1856" /><stop
             id="stop21"
             style="stop-color:#78D8A5"
             offset="0.5144" /><stop
             id="stop23"
             style="stop-color:#78D8A5"
             offset="0.9454" /><stop
             id="stop25"
             style="stop-color:#78D8A5"
             offset="1" /></linearGradient><path
           id="path27"
           d="M467.2,117.2l-240.7,0c-1.6,0-3-0.6-4.1-1.7L182,75.1c-1.1-1.1-2.6-1.7-4.1-1.7H44.8     c-3.2,0-5.8,2.6-5.8,5.8v354.5h434.1l0-310.7C473,119.9,470.4,117.2,467.2,117.2z"
           style="fill:url(#SVGID_2_);" /><path
           id="path29"
           d="M221.3,124.4l-40.4,40.4c-1,1.1-2.4,1.7-3.9,1.7H44.4c-3,0-5.5,2.7-5.5,6v260.1     c0,3.3,2.5,6,5.5,6h423.1c3,0,5.5-2.7,5.5-6v-304c0-3.3-2.5-6-5.5-6H225.2C223.8,122.6,222.4,123.2,221.3,124.4z"
           style="opacity:0.1" /><linearGradient
           y2="128.9345"
           x2="256"
           y1="438.5654"
           x1="256"
           gradientUnits="userSpaceOnUse"
           id="SVGID_3_"><stop
             id="stop32"
             style="stop-color:#D5F5E4"
             offset="0" /><stop
             id="stop34"
             style="stop-color:#D5F5E4"
             offset="0.9239" /><stop
             id="stop36"
             style="stop-color:#D5F5E4"
             offset="1" /></linearGradient><path
           id="path38"
           d="M220,130.6l-39.5,39.6c-1.1,1.1-2.6,1.7-4.1,1.7H31.8c-3.2,0-5.8,2.6-5.8,5.8v254.9     c0,3.2,2.6,5.8,5.8,5.8h448.3c3.2,0,5.8-2.6,5.8-5.8V134.8c0-3.2-2.6-5.8-5.8-5.8h-256C222.6,128.9,221.1,129.6,220,130.6z"
           style="fill:url(#SVGID_3_);" /></g></g><g
       id="g40"><rect
         id="rect42"
         height="10.3"
         width="10.3"
         style="fill:#5AC38B;"
         y="324"
         x="204.5" /><rect
         id="rect44"
         height="10.3"
         width="10.3"
         style="fill:#5AC38B;"
         y="334.3"
         x="194.2" /><rect
         id="rect46"
         height="10.3"
         width="10.3"
         style="fill:#5AC38B;"
         y="344.6"
         x="204.5" /><rect
         id="rect48"
         height="10.3"
         width="10.3"
         style="fill:#5AC38B;"
         y="354.9"
         x="194.2" /><rect
         id="rect50"
         height="10.3"
         width="10.3"
         style="fill:#5AC38B;"
         y="354.9"
         x="214.8" /><rect
         id="rect52"
         height="10.3"
         width="10.3"
         style="fill:#5AC38B;"
         y="354.9"
         x="235.4" /><rect
         id="rect54"
         height="10.3"
         width="10.3"
         style="fill:#5AC38B;"
         y="354.9"
         x="256" /><rect
         id="rect56"
         height="10.3"
         width="10.3"
         style="fill:#5AC38B;"
         y="354.9"
         x="276.6" /><path
         id="path58"
         d="M317.8,268c0.1-2.7-1-5.5-2.9-7.4l-36.7-36.7c-2-1.9-4.7-3-7.4-2.9h-66.3c-0.3,0-0.6,0-1,0    c-0.3,0-0.6,0-1,0h0c-4.7,0.9-8.5,5.5-8.4,10.3v82.4V324h10.3v-10.3h10.3v-10.3v-61.8h51.5v30.9h30.9V353v1.9v10.3h-10.3v10.3    h10.3v-10.3h10.3v-10.3h10.3V268z"
         style="fill:#5AC38B;" /><rect
         id="rect60"
         height="10.3"
         width="10.3"
         style="fill:#5AC38B;"
         y="365.2"
         x="204.5" /><rect
         id="rect62"
         height="10.3"
         width="10.3"
         style="fill:#5AC38B;"
         y="365.2"
         x="225.1" /><rect
         id="rect64"
         height="10.3"
         width="10.3"
         style="fill:#5AC38B;"
         y="365.2"
         x="245.7" /><rect
         id="rect66"
         height="10.3"
         width="10.3"
         style="fill:#5AC38B;"
         y="365.2"
         x="266.3" /></g><g
       id="g68"><rect
         id="rect70"
         height="7"
         width="10.3"
         style="fill:#78D8A5;"
         y="327.3"
         x="204.5" /><rect
         id="rect72"
         height="7"
         width="10.3"
         style="fill:#78D8A5;"
         y="337.6"
         x="194.2" /><polygon
         id="polygon74"
         points="214.8,347.9 204.5,347.9 204.5,354.9 204.5,358.2 214.8,358.2 214.8,354.9   "
         style="fill:#78D8A5;" /><rect
         id="rect76"
         height="7"
         width="10.3"
         style="fill:#78D8A5;"
         y="358.2"
         x="194.2" /><rect
         id="rect78"
         height="7"
         width="10.3"
         style="fill:#78D8A5;"
         y="358.2"
         x="214.8" /><rect
         id="rect80"
         height="7"
         width="10.3"
         style="fill:#78D8A5;"
         y="358.2"
         x="235.4" /><rect
         id="rect82"
         height="7"
         width="10.3"
         style="fill:#78D8A5;"
         y="358.2"
         x="256" /><rect
         id="rect84"
         height="7"
         width="10.3"
         style="fill:#78D8A5;"
         y="358.2"
         x="276.6" /><path
         id="path86"
         d="M314.9,263.9l-36.7-36.7c-2-1.9-4.7-3-7.4-2.9h-66.3c-0.3,0-0.6,0-1,0c-0.3,0-0.6,0-1,0h0    c-4.7,0.9-8.5,5.5-8.4,10.3v79.1v3.3v7h10.3v-7v-3.3h10.3v-7v-3.3v-58.5v-3.3h51.5v3.3v27.6h30.9v3.3V353v1.9v1.4v1.9v7v3.3h-10.3    v7h10.3v-7v-3.3h10.3v-7v-1.9v-1.4h10.3v-83.6C317.9,268.6,316.8,265.9,314.9,263.9z"
         style="fill:#78D8A5;" /><rect
         id="rect88"
         height="7"
         width="10.3"
         style="fill:#78D8A5;"
         y="368.6"
         x="204.5" /><rect
         id="rect90"
         height="7"
         width="10.3"
         style="fill:#78D8A5;"
         y="368.6"
         x="225.1" /><rect
         id="rect92"
         height="7"
         width="10.3"
         style="fill:#78D8A5;"
         y="368.6"
         x="245.7" /><rect
         id="rect94"
         height="7"
         width="10.3"
         style="fill:#78D8A5;"
         y="368.6"
         x="266.3" /></g></g></svg>
